<?xml version="1.0" encoding="UTF-8" standalone="no"?>
<!-- Created with Inkscape (http://www.inkscape.org/) -->

<svg
   xmlns:dc="http://purl.org/dc/elements/1.1/"
   xmlns:cc="http://creativecommons.org/ns#"
   xmlns:rdf="http://www.w3.org/1999/02/22-rdf-syntax-ns#"
   xmlns:svg="http://www.w3.org/2000/svg"
   xmlns="http://www.w3.org/2000/svg"
   xmlns:sodipodi="http://sodipodi.sourceforge.net/DTD/sodipodi-0.dtd"
   xmlns:inkscape="http://www.inkscape.org/namespaces/inkscape"
   width="210mm"
   height="297mm"
   viewBox="0 0 744.09448819 1052.3622047"
   id="svg2"
   version="1.1"
   inkscape:version="0.91 r13725"
   sodipodi:docname="bow.svg">
  <defs
     id="defs4" />
  <sodipodi:namedview
     id="base"
     pagecolor="#ffffff"
     bordercolor="#666666"
     borderopacity="1.0"
     inkscape:pageopacity="0.0"
     inkscape:pageshadow="2"
     inkscape:zoom="1.4"
     inkscape:cx="193.95903"
     inkscape:cy="634.45295"
     inkscape:document-units="px"
     inkscape:current-layer="layer1"
     showgrid="false"
     inkscape:window-width="1215"
     inkscape:window-height="1000"
     inkscape:window-x="65"
     inkscape:window-y="24"
     inkscape:window-maximized="1" />
  <metadata
     id="metadata7">
    <rdf:RDF>
      <cc:Work
         rdf:about="">
        <dc:format>image/svg+xml</dc:format>
        <dc:type
           rdf:resource="http://purl.org/dc/dcmitype/StillImage" />
        <dc:title></dc:title>
      </cc:Work>
    </rdf:RDF>
  </metadata>
  <g
     inkscape:label="Layer 1"
     inkscape:groupmode="layer"
     id="layer1">
    <g
       id="g4147"
       transform="translate(-40.714286,-100)">
      <path
         style="fill:#cecdce"
         d="m 256.29445,454.22427 c -0.41731,-1.08747 -0.75873,-6.17791 -0.75873,-11.31207 0,-5.81885 -0.70049,-10.68944 -1.85978,-12.93125 -1.02287,-1.97803 -6.26861,-7.00705 -11.65719,-11.17561 -10.72458,-8.29645 -11.1753,-8.94315 -15.75375,-22.60383 -3.83255,-11.43514 -7.3133,-14.72672 -21.16756,-20.01716 -11.3333,-4.32778 -22.02721,-6.15883 -36.43672,-6.23885 -5.5,-0.0305 -19.40859,-1.10544 -30.90796,-2.38867 -17.84284,-1.9911 -21.73355,-2.81697 -26.53951,-5.63345 -3.09736,-1.81517 -6.22321,-4.40582 -6.94634,-5.75701 -2.06617,-3.86067 -11.154724,-7.94121 -19.314982,-8.67194 -6.347479,-0.5684 -7.725172,-1.1443 -9.246674,-3.86523 -2.17838,-3.89565 -1.126716,-10.96867 2.251137,-15.14014 2.250682,-2.77947 2.43502,-2.80561 4.785273,-0.67866 1.964339,1.7777 3.108478,1.95969 5.82561,0.92664 5.159407,-1.96161 5.480617,-1.80762 12.839106,6.15498 7.85505,8.49991 10.81287,9.7588 32.52181,13.84172 13.54267,2.54705 14.56055,2.56998 30.05041,0.67706 8.81812,-1.07761 22.19775,-1.96473 29.73253,-1.97138 7.53477,-0.007 23.1478,-0.58452 34.69562,-1.28415 23.59339,-1.42941 61.594,-2.41269 115.25397,-2.98224 43.11706,-0.45765 36.82973,1.35524 82.16141,-23.6905 1.87627,-1.03664 4.5148,-3.74582 5.86337,-6.02041 1.34859,-2.27459 3.07,-4.83874 3.82538,-5.69811 1.66935,-1.89919 14.20291,-2.09034 17.60701,-0.26852 4.0955,2.19184 2.23765,11.19677 -2.31365,11.21426 -1.17894,0.005 -3.83102,1.12582 -5.89352,2.49176 -2.0625,1.36594 -5.53087,2.48723 -7.70747,2.49176 -4.3286,0.009 -8.09337,3.95638 -14.62085,15.33001 -4.39065,7.65036 -7.1142,9.33327 -18.68832,11.54777 -12.72254,2.43422 -23.57963,6.15883 -33.11655,11.36087 -4.33575,2.365 -11.85818,5.40152 -16.71649,6.74783 -4.85831,1.34631 -11.3458,3.66411 -14.41664,5.15068 -6.01392,2.91129 -12.85427,11.08373 -12.86566,15.37113 -0.0153,5.76429 -2.92719,12.52682 -7.5564,17.54892 -9.74926,10.5767 -12.26084,22.21189 -7.43662,34.45103 1.375,3.4884 2.5,8.29047 2.5,10.67128 l 0,4.32872 -28.61627,0 c -24.94117,0 -28.71371,-0.25393 -29.375,-1.97724 z M 456.55134,300.34762 c 0.90234,-0.36109 1.98048,-0.31668 2.39584,0.0987 0.41536,0.41537 -0.32293,0.7108 -1.64063,0.65653 -1.45618,-0.06 -1.75237,-0.35618 -0.75521,-0.75521 z"
         id="path4161"
         inkscape:connector-curvature="0" />
      <path
         style="fill:#c0bec0"
         d="m 258.70084,455.01642 c -0.40284,-0.65178 -0.57666,-7.06906 -0.38627,-14.2606 0.32003,-12.08922 0.134,-13.30237 -2.46635,-16.08298 -1.54688,-1.6541 -2.8125,-3.58715 -2.8125,-4.29566 0,-2.18064 -4.85787,-5.82361 -8.24767,-6.18502 -6.109,-0.65132 -8.95216,-3.64054 -9.63085,-10.1256 -1.32763,-12.68598 -3.78156,-18.10982 -10.79167,-23.85248 -4.3397,-3.55507 -7.3029,-5.12219 -8.79176,-4.64965 -1.23519,0.39204 -8.09073,-1.26376 -15.23454,-3.67953 -11.75531,-3.97522 -14.35098,-4.40046 -27.33363,-4.47792 -15.1057,-0.0901 -45.96568,-3.01834 -54.21217,-5.14402 -3.1982,-0.8244 -7.23951,-3.58929 -11.78504,-8.06282 -5.19312,-5.11087 -8.576248,-7.29032 -13.570214,-8.7421 -3.658853,-1.06366 -6.652459,-2.5284 -6.652459,-3.25499 0,-0.83737 -1.799708,-1.03328 -4.915372,-0.53506 -4.189092,0.66986 -5.031727,0.4194 -5.702849,-1.69512 -0.433113,-1.36462 -0.04645,-4.02722 0.859243,-5.91689 1.485158,-3.09868 2.320199,-3.44973 8.511063,-3.57805 6.712134,-0.13913 7.030737,0.0161 14.368628,6.99886 8.17792,7.78217 11.74809,9.33426 31.87929,13.85913 13.52962,3.04105 21.40283,3.18576 34.1735,0.62813 9.12088,-1.82667 57.90103,-2.67637 83.3081,-1.45113 10.82117,0.52184 12.10472,0.33869 14.69773,-2.09732 l 2.84113,-2.6691 3.42727,2.52485 c 3.81062,2.80727 21.55227,5.22654 21.55227,2.93889 0,-0.6923 -1.125,-1.25873 -2.5,-1.25873 -1.375,0 -2.5,-0.5625 -2.5,-1.25 0,-1.99394 13.48555,-1.45095 17.66698,0.71135 2.08607,1.07875 7.26125,2.49582 11.50043,3.14905 4.23917,0.65324 9.25446,1.50282 11.14509,1.88797 2.0595,0.41955 3.4375,0.15936 3.4375,-0.64905 0,-0.74213 -0.98438,-1.38498 -2.1875,-1.42855 -1.67602,-0.0607 -1.52988,-0.34357 0.625,-1.20972 1.54687,-0.62177 2.8125,-1.95917 2.8125,-2.972 0,-3.36253 2.2406,-3.29587 6.38901,0.19009 3.81779,3.20813 4.83839,3.43542 14.79334,3.29461 13.41016,-0.18968 26.55077,-2.21726 34.53267,-5.32834 3.38799,-1.32052 7.91376,-3.05591 10.05728,-3.85641 2.14352,-0.8005 6.34626,-3.80862 9.33942,-6.68473 3.2901,-3.16142 6.69193,-5.27196 8.6027,-5.33723 1.73831,-0.0594 4.02038,-0.49363 5.07123,-0.965 3.38218,-1.51711 1.51001,8.61781 -2.35534,12.75052 -2.643,2.82583 -4.80814,3.70338 -10.80531,4.37955 -8.91795,1.00547 -24.02702,4.3792 -27.4015,6.11854 -6.38867,3.29296 -14.20048,7.80329 -17.41457,10.05471 -1.96133,1.37388 -7.52768,3.53806 -12.36966,4.80928 -16.62266,4.36414 -23.63996,10.92574 -27.10065,25.34073 -1.06335,4.42923 -2.99494,7.67539 -6.96084,11.69811 -4.62201,4.68823 -5.80385,6.95161 -7.48166,14.32843 -2.04065,8.97205 -1.83677,11.60816 2.61269,33.78059 l 0.68982,3.4375 -26.27555,0 c -15.2091,0 -26.58401,-0.49913 -27.00796,-1.18509 z m 41.83488,-91.86614 c 0,-0.30318 -0.5625,-0.89887 -1.25,-1.32377 -0.6875,-0.4249 -1.25,-0.17685 -1.25,0.55123 0,0.72807 0.5625,1.32377 1.25,1.32377 0.6875,0 1.25,-0.24805 1.25,-0.55123 z m 8.75,-0.625 c 0,-1.47482 -2.43794,-3.05249 -3.33334,-2.1571 -0.89539,0.89539 0.68229,3.33333 2.15711,3.33333 0.64693,0 1.17623,-0.5293 1.17623,-1.17623 z m 122.5,-43.63892 c 0,-0.58583 1.28398,-2.97645 2.8533,-5.3125 2.37236,-3.53142 3.73385,-4.31175 8.07725,-4.62939 6.24908,-0.45701 10.31945,1.43668 10.31945,4.80102 0,2.10567 -0.86973,2.45602 -6.09695,2.45602 -3.89457,0 -6.65905,0.6773 -7.65305,1.875 -1.64725,1.98481 -7.5,2.61679 -7.5,0.80985 z"
         id="path4159"
         inkscape:connector-curvature="0" />
      <path
         style="fill:#b1b0b1"
         d="m 259.73668,454.32371 c -0.39633,-1.03279 -0.41395,-3.14216 -0.0391,-4.6875 0.37477,-1.54534 0.2442,-7.96528 -0.29016,-14.26653 -0.8354,-9.85131 -1.44677,-12.0216 -4.36275,-15.48702 -1.86515,-2.21662 -3.72649,-5.7067 -4.1363,-7.75575 -0.4098,-2.04904 -2.67066,-5.48613 -5.02411,-7.63797 -13.31669,-12.1758 -12.84851,-11.56512 -12.84851,-16.75937 0,-2.73457 -0.76217,-5.60449 -1.6937,-6.3776 -4.48024,-3.71826 -13.57114,-7.49039 -17.91464,-7.43341 -2.62166,0.0344 -9.28276,-1.68073 -14.80245,-3.8114 -9.76368,-3.76891 -10.72119,-3.89003 -35.31543,-4.46741 -13.90381,-0.3264 -27.38771,-1.1259 -29.96422,-1.77665 -2.57651,-0.65075 -7.33072,-1.54643 -10.56491,-1.99041 -4.84279,-0.66479 -7.00488,-1.90834 -12.25366,-7.04781 -7.16495,-7.01573 -13.279293,-11.11175 -16.597472,-11.1187 -1.227314,-0.003 -3.62451,-0.91742 -5.327102,-2.033 -2.028168,-1.32891 -4.400093,-1.76744 -6.878593,-1.27174 -4.506411,0.90129 -6.008167,-1.48152 -3.878949,-6.15464 1.208917,-2.65329 2.216279,-3.04529 7.825707,-3.04529 6.191559,0 6.719382,0.28207 13.779041,7.36367 6.722708,6.74359 8.209058,7.59813 17.651118,10.14801 5.67064,1.53139 13.33823,3.19624 17.03909,3.69968 4.68224,0.63694 7.34357,1.72793 8.75,3.58701 1.83469,2.42518 2.8014,2.59855 10.47789,1.8791 5.40673,-0.50672 9.38832,-1.60055 11.03979,-3.03286 3.22817,-2.79977 14.34451,-4.2822 18.93439,-2.525 3.22585,1.23499 20.1962,0.0449 21.7676,-1.52644 0.33807,-0.33808 2.21942,-0.15445 4.18078,0.40806 2.00988,0.57642 7.72968,0.4385 13.10689,-0.31605 9.02449,-1.26634 9.6859,-1.19366 12.22265,1.34309 2.54391,2.54391 2.60493,3.11698 1.18603,11.1393 -0.82273,4.65159 -1.82282,9.62631 -2.22243,11.05495 -0.63161,2.25807 -0.18397,2.59362 3.4255,2.56772 2.28364,-0.0164 5.13645,0.42179 6.33958,0.97372 1.71306,0.78586 2.1875,0.42558 2.1875,-1.66116 0,-1.66343 -1.12859,-3.09377 -3.00358,-3.80664 -5.31524,-2.02085 -5.25212,-3.96598 0.28821,-8.8826 2.86845,-2.54553 5.21537,-5.15988 5.21537,-5.80967 0,-1.63811 5.7461,-4.56286 7.19957,-3.66457 0.65338,0.40381 1.49226,5.17406 1.8642,10.60055 0.37195,5.4265 1.55598,11.49058 2.6312,13.47574 1.93236,3.56772 1.9581,3.50115 2.2296,-5.76561 0.15106,-5.15625 0.15116,-11.1877 2.1e-4,-13.40322 -0.28925,-4.24559 2.78979,-11.59678 4.85732,-11.59678 1.90396,0 6.18141,4.75098 7.64147,8.48742 0.72806,1.86317 2.07893,7.63034 3.00194,12.81593 1.76137,9.89571 4.70861,19.68247 7.51256,24.94665 0.91549,1.71875 2.54975,5.9375 3.63169,9.375 3.77615,11.99744 7.16804,12.99551 4.56005,1.34179 -2.13329,-9.53254 -0.37263,-15.27236 6.67837,-21.77175 4.8431,-4.46421 11.21564,-7.67264 12.47858,-6.28266 0.23119,0.25444 0.13222,4.80313 -0.2199,10.10819 l -0.64025,9.64557 -4.8768,2.54193 c -2.68224,1.39806 -6.26573,2.54193 -7.9633,2.54193 -1.69759,0 -3.08651,0.5625 -3.08651,1.25 0,1.74244 4.72075,1.52714 10.48067,-0.47799 3.50408,-1.21983 5.32801,-2.8137 6.55256,-5.72606 2.22759,-5.29786 2.58092,-19.85106 0.57298,-23.59988 -0.86284,-1.61091 -1.23709,-4.25055 -0.83166,-5.86587 1.11735,-4.45191 -1.35264,-8.46856 -7.48565,-12.17304 -3.0464,-1.84009 -5.5389,-3.90431 -5.5389,-4.58716 0,-2.06852 4.08257,0.0766 9.50713,4.99537 5.70612,5.17407 8.27965,6.7096 13.22355,7.89 2.78053,0.66387 4.1177,-0.003 7.80165,-3.88959 2.44529,-2.57993 4.45087,-5.95641 4.45683,-7.50328 0.0133,-3.44113 1.42752,-3.5814 4.2841,-0.42492 2.18001,2.40889 7.79251,4.58065 10.10174,3.90888 3.03643,-0.88333 19.375,-0.84318 19.375,0.0476 0,2.73424 -11.33564,9.95822 -18.20537,11.60191 -13.03242,3.11824 -18.73755,6.28325 -22.30797,12.37572 -1.77299,3.02537 -4.23161,8.55001 -5.4636,12.27699 -1.62683,4.92136 -3.93829,8.37868 -8.44403,12.62994 l -6.20403,5.85363 0.042,16.64638 c 0.0376,14.91773 0.7766,20.41788 3.70622,27.58386 0.79455,1.94351 0.0346,2.1875 -6.81321,2.1875 -4.82003,0 -7.41809,-0.46829 -6.93496,-1.25 0.4249,-0.6875 -0.10438,-1.25 -1.17623,-1.25 -1.07182,0 -1.94877,0.5625 -1.94877,1.25 0,0.77175 -6.47142,1.25 -16.91423,1.25 -13.89295,0 -17.04295,-0.33543 -17.63481,-1.8778 z m 40.55762,-7.53028 c -0.38486,-0.38486 -1.08381,0.30889 -1.55322,1.54167 -0.67835,1.7815 -0.53478,1.92507 0.69975,0.69975 0.85427,-0.84793 1.23834,-1.85655 0.85347,-2.24142 z m -39.75858,-51.21692 c 0,-1.22176 -1.19762,-1.86115 -3.4375,-1.83525 -3.29258,0.0381 -3.3352,0.11713 -1.01109,1.875 3.09175,2.33848 4.44859,2.32636 4.44859,-0.0398 z m -7.89612,-8.35938 c -0.39902,-0.99716 -0.69522,-0.70097 -0.7552,0.75521 -0.0542,1.31771 0.24115,2.05599 0.65653,1.64063 0.41536,-0.41537 0.45976,-1.49349 0.0986,-2.39584 z m 8.75,-2.5 c -0.39902,-0.99716 -0.69522,-0.70097 -0.7552,0.75521 -0.0543,1.31771 0.24115,2.05599 0.65653,1.64063 0.41536,-0.41537 0.45976,-1.49349 0.0986,-2.39584 z m 24.94408,-0.39062 c -0.39573,-1.03125 -0.4152,-2.66798 -0.0433,-3.63718 0.37191,-0.9692 -0.22673,-3.50827 -1.33033,-5.64238 -1.71646,-3.31927 -1.77471,-4.56598 -0.40293,-8.62407 2.17005,-6.41962 4.14163,-5.86148 3.9319,1.11309 -0.15002,4.98829 0.28228,6.01456 3.4225,8.125 3.63013,2.4397 3.87748,5.15407 0.81815,8.97804 -1.71992,2.14976 -5.52243,1.96397 -6.396,-0.3125 z m 116.70204,-40.625 c 0,-0.6875 1.13872,-2.23438 2.5305,-3.4375 1.39177,-1.20313 3.8469,-3.45313 5.45583,-5 3.60298,-3.464 7.82929,-3.65028 8.86385,-0.39069 0.96157,3.02964 -1.42728,6.98422 -5.27913,8.73923 -3.70674,1.68891 -11.57105,1.74937 -11.57105,0.089 z m 31.25,-26.73178 c 0,-0.98779 1.77656,-3.29087 3.94791,-5.11794 4.02111,-3.38354 8.21635,-3.52244 11.9826,-0.39673 2.81797,2.33872 1.66152,3.49645 -3.49259,3.49645 -2.78414,0 -6.72164,0.85819 -8.75,1.9071 -3.15449,1.63125 -3.68792,1.64732 -3.68792,0.11112 z"
         id="path4157"
         inkscape:connector-curvature="0" />
      <path
         style="fill:#918f8f"
         d="m 260.79749,433.87718 c -0.21569,-13.0936 0.41695,-30.42862 1.55743,-42.67567 1.05636,-11.34375 1.93155,-24.5625 1.94486,-29.375 0.0261,-9.44647 1.16457,-12.64953 4.09609,-11.5246 2.26887,0.87065 4.87487,7.97305 8.22582,22.41867 4.08878,17.62638 14.71566,43.24913 20.25013,48.8256 3.04921,3.07235 4.89036,4.16308 5.27501,3.125 0.85921,-2.31879 2.9233,3.59823 3.68027,10.55003 0.59068,5.42452 0.43153,5.87319 -1.99533,5.625 -2.0683,-0.21153 -3.53822,1.42725 -6.81387,7.59662 l -4.17665,7.86632 -15.84027,-0.19065 -15.84026,-0.19064 -0.36323,-22.05068 z m 23.00395,9.50987 c -0.43864,-2.33817 -1.67329,-5.3333 -2.74366,-6.65588 -1.80531,-2.23066 -1.89861,-1.92764 -1.28946,4.18761 0.76483,7.67818 1.72388,9.82624 3.56511,7.98502 0.69956,-0.69957 0.90887,-3.16679 0.46801,-5.51675 z m 12.40351,-6.07493 c 0.53487,-1.6852 0.11338,-3.36367 -1.16576,-4.64285 -1.83796,-1.83796 -2.00347,-1.61992 -2.00347,2.63938 0,5.0594 1.8318,6.21738 3.16923,2.00347 z m 2.46837,17.619 c 0.43182,-0.69871 1.39568,-0.89305 2.14191,-0.43186 0.75629,0.4674 1.00129,0.26336 0.55359,-0.46103 -1.16387,-1.88318 1.69167,-9.28463 3.37148,-8.73872 2.05267,0.66707 4.87535,6.98921 4.06424,9.10292 -0.44501,1.1597 -2.5075,1.79908 -5.80336,1.79908 -3.14508,0 -4.81081,-0.48896 -4.32786,-1.27039 z m -44.73703,-41.64434 c -0.49531,-1.25936 -0.90666,-3.22811 -0.91411,-4.375 -0.007,-1.1469 -2.83141,-4.05402 -6.27548,-6.46027 -12.13815,-8.4805 -11.48823,-7.60656 -11.66942,-15.69219 -0.15813,-7.05614 -0.009,-7.44995 2.95844,-7.77106 5.38405,-0.58276 10.44128,3.61011 12.17233,10.09187 0.98595,3.69183 2.6866,6.54035 4.6875,7.85139 2.41322,1.5812 3.14017,3.12386 3.14017,6.66375 0,2.53343 -0.5079,5.14061 -1.12868,5.79374 -0.62076,0.65312 -1.3405,2.3125 -1.59942,3.6875 -0.44133,2.34365 -0.52709,2.3568 -1.37133,0.21027 z m 40.4298,-14.50914 c -1.29417,-0.81893 -1.42939,-1.59787 -0.48486,-2.79336 0.72037,-0.91177 1.6612,-3.13252 2.09071,-4.93499 0.86274,-3.62042 9.78295,-12.34778 12.62065,-12.34778 1.40166,0 1.6883,1.45136 1.29604,6.5625 -0.277,3.60937 -0.52599,7.27389 -0.55328,8.14337 -0.0641,2.04035 -7.42911,6.5391 -10.67463,6.52032 -1.375,-0.008 -3.30758,-0.52549 -4.29463,-1.15006 z m 23.96611,-17.88863 c -3.20518,-13.3193 -3.64975,-16.03516 -2.71897,-16.6104 0.54755,-0.33841 2.99027,0.37768 5.42826,1.5913 3.71714,1.85039 4.43768,2.87045 4.46348,6.3189 0.0259,3.47051 -4.07968,14.0127 -5.4572,14.0127 -0.24044,0 -1.01244,-2.39063 -1.71557,-5.3125 z m -68.9478,-9.16667 c 0.06,-1.45618 0.35618,-1.75237 0.7552,-0.75521 0.36109,0.90235 0.31669,1.98047 -0.0986,2.39584 -0.41538,0.41536 -0.7108,-0.32292 -0.65653,-1.64063 z m -30.13843,-1.19372 c -1.32615,-1.59792 -1.3682,-2.53712 -0.19755,-4.41165 0.81801,-1.30985 1.4873,-3.51417 1.4873,-4.8985 0,-1.38433 0.65883,-2.51696 1.46407,-2.51696 0.80524,0 2.49274,-0.93093 3.75,-2.06874 2.6385,-2.38781 2.6463,-2.27772 0.54473,7.69374 -1.66307,7.89084 -3.96558,9.91685 -7.04855,6.20211 z m -16.21025,-0.50019 c -1.71875,-0.527 -5.31288,-2.4474 -7.98694,-4.26755 -3.89266,-2.64962 -6.32235,-3.30937 -12.1875,-3.30937 -4.02906,0 -7.32556,-0.4999 -7.32556,-1.11089 0,-1.55815 7.9716,-2.88211 11.70758,-1.94443 2.08157,0.52244 5.23485,-0.28875 9.55255,-2.4574 3.5449,-1.78051 6.64118,-3.23728 6.88063,-3.23728 0.23945,0 0.61511,1.26562 0.8348,2.8125 0.31962,2.25056 1.39845,2.93738 5.39944,3.4375 4.28916,0.53615 5.05457,1.09652 5.38386,3.94163 0.26829,2.31805 -0.47408,3.91756 -2.46563,5.3125 -3.07608,2.15457 -4.93931,2.31111 -9.79323,0.82279 z m 131.34236,-4.34064 c -1.00064,-1.20569 -1.04906,-2.02001 -0.15306,-2.57377 0.72088,-0.44553 1.3107,-2.37061 1.3107,-4.27795 0,-5.12036 1.29072,-5.56327 5.22583,-1.7932 4.25032,4.07207 4.41108,5.89566 0.74603,8.46276 -3.44023,2.40963 -5.24265,2.45569 -7.1295,0.18216 z m -204.73055,-6.3486 c -3.74902,-2.52557 -8.06064,-4.38768 -10.15944,-4.38768 -2.00545,0 -4.34651,-0.84375 -5.20237,-1.875 -1.30258,-1.56951 -1.11047,-1.875 1.17912,-1.875 1.50438,0 3.96388,0.66999 5.46555,1.48886 1.50168,0.81888 6.09767,1.522 10.2133,1.5625 6.47411,0.0637 7.54162,0.41069 7.91795,2.57364 0.23924,1.375 1.33878,3.20312 2.44344,4.0625 1.84423,1.43474 1.84397,1.5625 -0.003,1.5625 -1.10642,0 -2.76081,0.28696 -3.67641,0.63768 -0.91561,0.35072 -4.59567,-1.33678 -8.17793,-3.75 z m 34.04107,3.13564 c -2.42172,-0.86276 -2.41803,-0.90966 0.18124,-2.30075 2.06393,-1.10458 2.96729,-1.04178 4.06652,0.28272 1.78665,2.15277 -0.63724,3.30431 -4.24776,2.01803 z M 92.410717,341.08757 c -3.4375,-1.30679 -8.078125,-2.37825 -10.3125,-2.38102 -2.497415,-0.003 -4.0625,-0.63107 -4.0625,-1.63004 0,-2.89666 2.894794,-4.625 7.746399,-4.625 3.697812,0 5.851807,0.99867 9.75,4.52045 4.641504,4.19332 6.302944,6.89445 4.066101,6.61057 -0.515625,-0.0654 -3.75,-1.18817 -7.1875,-2.49496 z"
         id="path4155"
         inkscape:connector-curvature="0" />
      <path
         style="fill:#81807e"
         d="m 267.36324,455.02833 c 0.39878,-0.64525 -0.20092,-1.69137 -1.33269,-2.32473 -1.23851,-0.69312 -2.24186,-3.19573 -2.52022,-6.28609 -0.37003,-4.10789 0.0269,-5.39641 1.9849,-6.44433 2.66692,-1.4273 2.31512,-4.00868 -1.08701,-7.97601 -2.61127,-3.04506 -2.41752,-27.23821 0.39845,-49.75439 1.08912,-8.70855 1.63691,-16.72841 1.21728,-17.82191 -0.92737,-2.4167 0.49539,-10.71936 1.83689,-10.71936 1.44978,0 4.90443,7.86358 5.8481,13.3116 2.77145,16.00024 15.7149,48.77395 22.80483,57.74337 7.04488,8.91247 7.25857,10.19668 2.85262,17.14413 -2.06977,3.2637 -4.38452,7.81655 -5.14389,10.11745 l -1.38066,4.18345 -13.10184,0 c -7.84426,0 -12.81087,-0.47078 -12.37676,-1.17318 z m 16.19524,-4.58556 c 1.08749,-0.4173 1.97902,-1.96417 1.9812,-3.4375 0.006,-4.27657 -5.24443,-20.80376 -6.60944,-20.80376 -1.37274,0 -0.57296,21.23649 0.88886,23.60176 1.00399,1.62449 1.12059,1.64443 3.73938,0.6395 z m 13.26099,-11.82275 c 1.4155,-3.4173 1.16301,-4.08719 -3.94828,-10.4755 -3.00326,-3.7536 -6.1636,-6.85134 -7.02297,-6.88387 -2.28734,-0.0866 -1.95155,1.12009 1.83036,6.57737 2.65724,3.83441 3.39285,6.34533 3.39285,11.58103 0,6.20393 0.15245,6.54716 2.11792,4.76842 1.16487,-1.05419 2.79842,-3.55954 3.63012,-5.56745 z m -26.28375,-17.76789 0,-4.74801 -2.77679,2.58697 c -2.27668,2.12105 -2.51794,3.00143 -1.33959,4.88828 1.0875,1.74135 1.07881,2.68026 -0.0357,3.85874 -0.99755,1.05479 -0.56521,1.00952 1.33959,-0.14027 2.12507,-1.28274 2.8125,-2.8582 2.8125,-6.44571 z m 14.67695,-5.58812 c -0.83165,-4.71136 -6.82275,-20.4583 -8.37363,-22.00918 -2.58329,-2.58329 -3.03684,0.774 -0.87184,6.45355 1.2303,3.22747 2.67354,7.56886 3.20723,9.64754 2.12806,8.28886 7.36259,13.41056 6.03824,5.90809 z m 16.57305,40.46555 c 0,-0.25956 0.76911,-1.11025 1.70915,-1.89041 1.30001,-1.07892 2.08472,-0.96594 3.27806,0.47195 1.33242,1.60548 1.07482,1.89041 -1.70916,1.89041 -1.80293,0 -3.27805,-0.21238 -3.27805,-0.47195 z m -57.173,-56.82483 c -7.36334,-3.60529 -9.15219,-6.61903 -8.18943,-13.79698 0.76454,-5.70003 2.10504,-6.2585 7.86844,-3.27813 2.62104,1.35539 3.86777,3.13561 4.47946,6.39618 0.46619,2.48494 2.46075,6.35535 4.43239,8.60092 l 3.58479,4.08284 -2.90597,0.55551 c -1.5991,0.30569 -5.76785,-0.84574 -9.26968,-2.56034 z m 51.61282,-1.34833 c -1.17931,-1.90816 1.72974,-7.98753 5.88205,-12.29239 5.53873,-5.74221 6.62609,-5.238 6.12328,2.83938 -0.38169,6.13185 -0.82977,7.11209 -4.00043,8.7517 -4.07797,2.10881 -6.97799,2.36288 -8.0049,0.70131 z m -96.10649,-30.93822 c -1.68937,-1.68938 -0.87,-7.91667 1.04167,-7.91667 1.30952,0 1.875,1.31944 1.875,4.375 0,4.13651 -1.04857,5.40977 -2.91667,3.54167 z m -67.55352,-7.33899 c -0.80511,-2.09808 2.03952,-3.80041 4.16033,-2.48968 0.72042,0.44525 1.30986,1.62009 1.30986,2.61077 0,2.41163 -4.53684,2.3112 -5.47019,-0.12109 z M 81.785717,335.57651 c 0,-2.94354 5.637204,-2.87988 8.705357,0.0983 1.590717,1.54408 1.140662,1.77669 -3.4375,1.77669 -3.849206,0 -5.267857,-0.50494 -5.267857,-1.875 z"
         id="path4153"
         inkscape:connector-curvature="0" />
      <path
         style="fill:#807e7d"
         d="m 268.08188,453.19793 c -0.62808,-1.65196 -1.73915,-3.37266 -2.46906,-3.82377 -0.7299,-0.4511 -1.3271,-2.53834 -1.3271,-4.6383 0,-3.5313 0.28167,-3.77676 3.75,-3.26771 4.11361,0.60375 5.04308,-1.38737 1.875,-4.01664 -2.35027,-1.95055 -2.33565,-4.91085 0.0397,-8.05141 1.20105,-1.58793 1.83525,-5.40071 1.83525,-11.03341 l 0,-8.60699 -3.13135,3.72139 c -1.72224,2.04677 -3.47823,5.4558 -3.90219,7.57562 -1.4963,7.48149 -3.16033,2.44538 -2.37068,-7.17474 2.62298,-31.95509 3.95005,-40.18046 6.4827,-40.18046 1.03392,0 1.58828,-0.70313 1.2319,-1.5625 -2.10127,-5.06715 -3.6039,-11.06065 -2.93957,-11.72498 1.80427,-1.80428 4.54956,1.00384 5.28826,5.40928 2.48883,14.84287 16.19233,49.04212 23.7822,59.35222 3.0573,4.15305 5.55873,8.32479 5.55873,9.27054 0,0.94574 -1.96875,5.43058 -4.375,9.9663 -2.40625,4.53573 -4.375,9.0438 -4.375,10.01795 0,1.40428 -2.46638,1.77119 -11.90594,1.77119 -11.42115,0 -11.95244,-0.12225 -13.0479,-3.00358 z m 17.07465,-4.06125 c 1.3312,-3.46907 -3.18681,-24.33217 -5.43129,-25.08033 -2.95604,-0.98534 -3.63189,7.33954 -1.56121,19.23027 1.13326,6.50765 1.80697,7.91489 3.78924,7.91489 1.326,0 2.76747,-0.92918 3.20326,-2.06483 z m 9.58419,-6.43986 c 4.17071,-6.01835 4.13426,-7.93555 -0.24747,-13.01431 -4.72802,-5.48018 -6.79773,-9.69892 -10.59986,-21.606 -1.75625,-5.5 -4.59809,-13.1637 -6.31521,-17.03045 -2.78878,-6.27999 -3.45869,-6.96609 -6.27589,-6.42755 -2.68979,0.51418 -3.26221,1.45673 -3.8902,6.40545 -0.40499,3.1914 -0.98355,7.49005 -1.2857,9.55255 -0.63962,4.36622 0.97333,7.60102 3.12653,6.27027 0.9767,-0.60363 1.35097,-3.55424 1.07725,-8.49243 -0.30745,-5.54677 0.033,-7.7185 1.2749,-8.13324 1.29067,-0.43103 1.49521,0.34083 0.85851,3.23972 -0.63391,2.8862 -0.0937,4.96034 2.23615,8.58562 1.68959,2.62903 3.42751,6.83291 3.86206,9.34196 0.43455,2.50904 1.61895,5.24979 2.632,6.09055 1.01306,0.84076 1.84193,2.79716 1.84193,4.34755 0,1.55039 0.88083,3.54993 1.95742,4.4434 3.97605,3.29984 5.86613,8.88991 5.12411,15.15505 -0.39256,3.3146 -0.25425,6.02655 0.30735,6.02655 0.56162,0 2.50387,-2.13961 4.31612,-4.75469 z m 7.60633,12.3577 c 0.38423,-0.62169 1.52383,-1.00922 2.53245,-0.86119 3.20608,0.47055 3.15059,1.46338 -0.0967,1.73214 -1.72383,0.14266 -2.81987,-0.24926 -2.43565,-0.87095 z m -58.68633,-57.32465 -6.25,-3.41325 0,-6.87006 c 0,-6.54786 0.14343,-6.85404 3.05843,-6.52871 4.34327,0.48473 7.18753,3.49629 8.15063,8.63003 0.45739,2.43812 2.20059,5.80192 3.87377,7.47511 1.67319,1.67318 3.04217,3.29784 3.04217,3.61034 0,1.65294 -6.39474,0.0894 -11.875,-2.90346 z m 53.50011,0.0839 c -1.09658,-0.38662 -1.15999,-1.43078 -0.23584,-3.88303 1.31374,-3.48602 8.35069,-11.4792 10.10594,-11.4792 1.65984,0 1.13119,10.83899 -0.59868,12.27464 -2.36992,1.96687 -7.55375,3.69319 -9.27142,3.08759 z m -97.09386,-33.85941 c -0.33897,-0.54845 -0.0995,-1.81408 0.53208,-2.8125 0.89662,-1.41733 1.15258,-1.1987 1.16753,0.99718 0.0196,2.89129 -0.6154,3.5696 -1.69961,1.81532 z m -66.40625,-4.00282 c -0.91151,-1.47484 0.27083,-3.75 1.94877,-3.75 0.64692,0 1.17623,1.125 1.17623,2.5 0,2.63636 -1.81861,3.3638 -3.125,1.25 z M 83.912262,336.66139 c -1.709198,-1.7092 -0.841001,-3.12819 1.672969,-2.73432 1.402232,0.21969 2.556943,0.96194 2.566026,1.64944 0.0201,1.52137 -3.023547,2.30033 -4.238995,1.08488 z"
         id="path4151"
         inkscape:connector-curvature="0" />
      <path
         style="fill:#757472"
         d="m 269.28572,454.83617 c 0,-0.75094 -1.125,-2.79555 -2.5,-4.54357 -4.31539,-5.48613 -2.65587,-10.77089 2.3923,-7.61825 3.70023,2.31083 4.67515,0.23942 2.12021,-4.50483 -1.90184,-3.53147 -2.00559,-4.64369 -0.66593,-7.13815 0.98708,-1.83793 1.61087,-8.0342 1.65027,-16.39236 0.0349,-7.39063 0.43571,-13.4375 0.89082,-13.4375 0.45511,0 1.75181,1.94791 2.88158,4.32869 1.64607,3.46885 1.90792,6.63466 1.31821,15.9375 -0.96624,15.2429 0.30889,28.42656 2.84349,29.39918 1.04987,0.40288 2.81677,0.15858 3.92645,-0.54287 2.48795,-1.5727 2.09192,-14.12692 -0.61084,-19.36406 -2.4631,-4.77277 -0.19025,-5.39894 3.1581,-0.87007 2.06556,2.79384 2.81825,5.57405 2.8632,10.57593 0.0422,4.70606 0.5594,6.7857 1.68732,6.7857 0.89449,0 1.9834,-1.125 2.41982,-2.5 0.43641,-1.375 1.29257,-2.5 1.90258,-2.5 0.61003,0 1.47554,-1.9531 1.92337,-4.34021 0.68538,-3.65345 0.19706,-5.11944 -3.08608,-9.26475 -4.02899,-5.08701 -8.21476,-13.71182 -7.16437,-14.76221 0.32832,-0.32832 1.29247,0.71685 2.14256,2.32261 0.85007,1.60576 3.39422,5.18761 5.65365,7.95967 6.95321,8.53081 7.1738,10.37279 2.33366,19.486 -2.32926,4.38564 -4.25649,8.95826 -4.2827,10.16139 -0.042,1.92647 -1.46465,2.1875 -11.92267,2.1875 -7.7521,0 -11.875,-0.47404 -11.875,-1.36534 z m -6.17077,-40.74839 c -0.0436,-4.2563 0.48327,-8.08637 1.17077,-8.51127 0.6875,-0.4249 1.25,0.32547 1.25,1.66749 0,1.34202 0.92031,2.7932 2.04515,3.22484 1.86777,0.71673 1.87348,0.97448 0.0657,2.97193 -1.08864,1.20293 -2.5358,3.58183 -3.21592,5.28644 -1.02353,2.56534 -1.25023,1.76603 -1.31581,-4.63943 z m 21.95019,-4.80959 c -1.20622,-3.14337 -0.85039,-3.95445 0.62316,-1.42043 0.72962,1.25469 1.06325,2.54458 0.74142,2.86641 -0.32184,0.32184 -0.9359,-0.32886 -1.36458,-1.44598 z m -20.48942,-11.82668 c 0,-2.40625 0.25725,-3.39063 0.57166,-2.1875 0.3144,1.20312 0.3144,3.17187 0,4.375 -0.31441,1.20312 -0.57166,0.21875 -0.57166,-2.1875 z m -21.86085,-0.44807 c -5.41147,-3.08488 -6.38833,-5.2082 -5.23193,-11.37229 1.43624,-7.65584 9.60608,-4.60178 10.99944,4.11182 0.42952,2.68612 1.62975,5.58829 2.66715,6.44925 5.21932,4.33166 -1.17958,4.94709 -8.43466,0.81122 z m 54.07085,-1.1488 c 0,-2.38484 3.75962,-7.29473 4.99915,-6.52865 0.59296,0.36646 1.43142,0.0946 1.86325,-0.60409 1.52763,-2.47178 3.1376,-1.22201 3.1376,2.43563 0,2.38471 -0.86203,4.16736 -2.41783,5 -3.34534,1.79037 -7.58217,1.62112 -7.58217,-0.30289 z m -31.15132,-7.8823 c 0.06,-1.45618 0.35618,-1.75237 0.7552,-0.75521 0.36109,0.90235 0.31669,1.98047 -0.0986,2.39584 -0.41538,0.41536 -0.7108,-0.32292 -0.65653,-1.64063 z m 9.41595,-4.9827 c -0.62055,-1.61711 -1.17666,-1.75229 -2.54315,-0.61821 -2.49332,2.06928 -3.68721,-0.4581 -1.71111,-3.62233 2.05839,-3.29601 3.73491,-2.66984 4.94264,1.84603 1.06167,3.96972 0.57101,5.67644 -0.68838,2.39451 z m -4.29808,-13.39967 c -0.91215,-1.10047 -1.46229,-3.29744 -1.22253,-4.88216 l 0.43593,-2.8813 1.61406,2.87801 c 0.88774,1.5829 1.43787,3.77987 1.22252,4.88216 -0.35893,1.83726 -0.52963,1.83753 -2.04998,0.003 z M 134.28572,358.70151 c 0,-0.6875 0.5625,-1.25 1.25,-1.25 0.6875,0 1.25,0.5625 1.25,1.25 0,0.6875 -0.5625,1.25 -1.25,1.25 -0.6875,0 -1.25,-0.5625 -1.25,-1.25 z m -50.250003,-24 c 1.166666,-1.16667 1.833334,-1.16667 3,0 1.166666,1.16667 0.833334,1.5 -1.5,1.5 -2.333334,0 -2.666666,-0.33333 -1.5,-1.5 z"
         id="path4149"
         inkscape:connector-curvature="0" />
    </g>
  </g>
</svg>
