<?xml version="1.0" encoding="UTF-8" standalone="no"?>
<!-- Created with Inkscape (http://www.inkscape.org/) -->

<svg
   xmlns:dc="http://purl.org/dc/elements/1.1/"
   xmlns:cc="http://creativecommons.org/ns#"
   xmlns:rdf="http://www.w3.org/1999/02/22-rdf-syntax-ns#"
   xmlns:svg="http://www.w3.org/2000/svg"
   xmlns="http://www.w3.org/2000/svg"
   xmlns:sodipodi="http://sodipodi.sourceforge.net/DTD/sodipodi-0.dtd"
   xmlns:inkscape="http://www.inkscape.org/namespaces/inkscape"
   width="210mm"
   height="297mm"
   viewBox="0 0 744.09448819 1052.3622047"
   id="svg4811"
   version="1.1"
   inkscape:version="0.91 r13725"
   sodipodi:docname="bow0.svg">
  <defs
     id="defs4813" />
  <sodipodi:namedview
     id="base"
     pagecolor="#ffffff"
     bordercolor="#666666"
     borderopacity="1.0"
     inkscape:pageopacity="0.0"
     inkscape:pageshadow="2"
     inkscape:zoom="0.98994949"
     inkscape:cx="319.19734"
     inkscape:cy="580.50887"
     inkscape:document-units="px"
     inkscape:current-layer="layer1"
     showgrid="false"
     inkscape:window-width="1215"
     inkscape:window-height="1000"
     inkscape:window-x="65"
     inkscape:window-y="24"
     inkscape:window-maximized="1" />
  <metadata
     id="metadata4816">
    <rdf:RDF>
      <cc:Work
         rdf:about="">
        <dc:format>image/svg+xml</dc:format>
        <dc:type
           rdf:resource="http://purl.org/dc/dcmitype/StillImage" />
        <dc:title></dc:title>
      </cc:Work>
    </rdf:RDF>
  </metadata>
  <g
     inkscape:label="Layer 1"
     inkscape:groupmode="layer"
     id="layer1">
    <g
       id="g5400"
       transform="translate(118.18785,-180.81731)">
      <path
         style="fill:#d0cfcf"
         d="m 239.7748,529.90686 c -1.44388,-1.54687 -2.981,-4.5 -3.41584,-6.5625 -0.43482,-2.0625 -1.67298,-6.76386 -2.75145,-10.44746 -1.47033,-5.02208 -1.7163,-8.77438 -0.98327,-15 1.30473,-11.08108 0.93918,-16.39949 -1.33948,-19.48807 -1.04058,-1.41046 -3.54471,-4.81447 -5.56471,-7.56447 -2.02001,-2.75 -3.69143,-6.35683 -3.71427,-8.01518 -0.0634,-4.60438 -5.93521,-13.72276 -9.39615,-14.5914 -3.46071,-0.86858 -6.89538,-5.48311 -6.89538,-9.26403 0,-2.04318 -2.81063,-3.95972 -13.4375,-9.1629 -7.39063,-3.61864 -14.5625,-7.21719 -15.9375,-7.99678 -1.375,-0.7796 -6.71875,-2.80781 -11.875,-4.50714 -10.649,-3.50956 -27.82437,-10.7043 -36.43423,-15.26224 -3.19507,-1.69143 -6.85132,-3.09322 -8.12499,-3.11508 -4.51548,-0.0775 -6.66213,-3.05673 -6.94874,-9.64374 -0.56958,-13.09074 5.96185,-13.16031 21.07859,-0.2245 8.31363,7.1142 35.53031,13.13847 53.55602,11.85434 9.01739,-0.64239 11.74775,-0.42668 13.75,1.08629 3.70493,2.79959 5.50212,2.38787 7.86899,-1.8027 3.02038,-5.34762 9.10192,-6.71941 25.24533,-5.6945 11.0041,0.69862 14.02169,1.36349 18.74102,4.12919 5.03608,2.95135 7.06565,3.32722 19.38402,3.58987 8.45993,0.18038 16.6475,-0.38272 21.25899,-1.46209 4.125,-0.9655 9.10271,-1.76377 11.06159,-1.77393 3.50256,-0.0182 15.46227,-6.50548 22.54921,-12.23138 2.60632,-2.10577 4.86661,-2.8123 8.125,-2.53972 4.36144,0.36484 4.52736,0.56053 4.90309,5.7825 0.4794,6.66284 -1.29149,8.97012 -6.88474,8.97012 -3.48795,0 -5.67425,1.27254 -11.40945,6.64091 -8.68361,8.12818 -17.52191,14.50889 -26.00495,18.77398 -3.52565,1.77261 -8.09045,4.79504 -10.144,6.71652 -2.05356,1.92147 -6.05957,5.03512 -8.90225,6.91921 -3.89062,2.57866 -5.1685,4.2426 -5.1685,6.72998 0,1.81739 -0.66239,5.5152 -1.47198,8.21735 -1.24471,4.15449 -1.14821,5.46107 0.625,8.46289 3.03602,5.13955 2.59836,9.48352 -1.71501,17.02251 -3.27215,5.71912 -3.96972,8.57299 -4.92577,20.15215 -1.61551,19.5662 -5.56679,29.15692 -13.35259,32.41004 -5.71816,2.3892 -8.32201,2.13497 -11.3491,-1.10804 z m 43.60152,-101.14412 c 5.29098,-2.57299 7.88673,-6.78895 3.26757,-5.30713 -1.54255,0.49484 -4.64872,1.31974 -6.90258,1.83309 -5.4809,1.24836 -7.77706,3.34535 -7.77706,7.10248 0,3.11565 6e-5,3.11567 3.4375,0.84681 1.89062,-1.24789 5.47917,-3.26176 7.97457,-4.47525 z m -170.46,-53.17746 c 1.55489,-0.29899 3.80489,-0.28764 5,0.0252 1.19511,0.31287 -0.0771,0.55749 -2.82707,0.54362 -2.75,-0.0139 -3.72782,-0.26985 -2.17293,-0.56885 z"
         id="path5414"
         inkscape:connector-curvature="0" />
      <path
         style="fill:#adacad"
         d="m 240.78397,529.03908 c -1.33666,-1.33666 -2.79825,-4.57103 -3.24797,-7.1875 -0.44974,-2.61647 -1.49184,-7.28847 -2.3158,-10.38222 -0.99971,-3.75368 -1.17888,-8.74388 -0.53855,-15 1.26899,-12.3982 0.49673,-15.51398 -5.99471,-24.18636 -3.23649,-4.32385 -5.47531,-8.66534 -5.47909,-10.625 -0.01,-4.90277 -5.33508,-12.82193 -10.15054,-15.09381 -2.6618,-1.25581 -4.67925,-3.36987 -5.46806,-5.72993 -0.6875,-2.05695 -1.71069,-4.45212 -2.27376,-5.32261 -1.46137,-2.25924 -29.51944,-15.6431 -42.10124,-20.08253 -15.47355,-5.45977 -32.62781,-12.69888 -36.44296,-15.37895 -1.82488,-1.28195 -4.3716,-2.33081 -5.65937,-2.33081 -4.66538,0 -7.89767,-3.57359 -7.89767,-8.73159 0,-4.2088 2.40483,-8.76841 4.62463,-8.76841 1.56607,0 14.16376,7.78545 15.04702,9.29916 3.8239,6.55327 32.78545,13.57386 53.71205,13.02038 9.72316,-0.25716 11.9057,0.0549 14.06758,2.01137 3.2453,2.93696 7.80065,1.20862 10.25752,-3.89181 2.22089,-4.61051 8.30779,-5.85979 23.72044,-4.86838 10.05965,0.64708 13.17027,1.37985 18.79891,4.42845 6.69299,3.62508 6.87359,3.64884 23.57076,3.10201 26.63799,-0.8724 35.86596,-3.55643 50.13097,-14.58099 3.06325,-2.3674 6.03103,-3.52019 9.0625,-3.52019 4.50223,0 4.50762,0.007 4.50762,5.56836 0,5.46063 -0.0908,5.58366 -4.6875,6.35915 -7.93201,1.33814 -8.85132,1.80868 -14.42689,7.38424 -5.40393,5.40394 -21.57815,16.93825 -23.75199,16.93825 -0.6331,0 -0.82732,-0.84375 -0.43158,-1.875 0.99201,-2.58515 -0.60582,-2.3681 -9.20204,1.25 -4.08356,1.71875 -8.30516,3.125 -9.38131,3.125 -5.76507,0 -11.49923,9.05171 -8.22978,12.99115 0.90288,1.0879 0.9736,2.85647 0.21039,5.2613 -2.34646,7.39362 -2.74836,16.58343 -0.88301,20.19064 2.1993,4.25297 1.50458,9.1563 -2.3458,16.55691 -2.16855,4.16805 -3.2619,9.22696 -4.2212,19.53142 -1.84317,19.79861 -5.29924,27.77534 -13.54664,31.2661 -5.26914,2.23018 -6.14556,2.15957 -9.03293,-0.7278 z M 201.96425,426.46936 c 0,-0.6875 -0.79774,-1.25 -1.77277,-1.25 -0.97502,0 -2.80314,-0.32717 -4.0625,-0.72704 -2.09527,-0.6653 -2.08366,-0.55915 0.13668,1.25 2.7371,2.23019 5.69859,2.60803 5.69859,0.72704 z"
         id="path5412"
         inkscape:connector-curvature="0" />
      <path
         style="fill:#91908f"
         d="m 240.3464,526.90318 c -3.09684,-6.09736 -3.65543,-14.49095 -1.56439,-23.50732 2.48154,-10.70017 2.43543,-11.51935 -0.49897,-8.86375 -2.38264,2.15626 -2.42954,2.05397 -2.34686,-5.11876 0.0938,-8.13969 -2.13531,-17.94399 -4.0798,-17.94399 -2.33139,0 -7.39213,-6.5857 -7.39213,-9.6196 0,-5.81119 -6.22169,-15.3804 -10,-15.3804 -2.68906,0 -6.25,-3.88902 -6.25,-6.82583 0,-1.23969 -1.91525,-4.06029 -4.25611,-6.26801 -3.94606,-3.72161 -4.03712,-3.97216 -1.25,-3.43937 3.5742,0.68325 3.89191,-1.02769 0.7233,-3.89523 -2.91096,-2.63439 -13.00647,-4.58359 -15.75968,-3.04281 -1.43866,0.80511 -3.30356,0.424 -6.15358,-1.25755 -2.24913,-1.32702 -7.99074,-3.70643 -12.75913,-5.28758 -15.89595,-5.27094 -38.22867,-14.72057 -41.04687,-17.36813 -1.53123,-1.43852 -4.05041,-2.61549 -5.59817,-2.61549 -5.28825,0 -7.6512,-2.23934 -7.63062,-7.23148 0.026,-6.30363 1.44204,-8.2667 5.1209,-7.09907 5.31819,1.68792 12.35996,7.0984 12.35996,9.49666 0,1.55672 0.89726,2.33389 2.69451,2.33389 1.48198,0 4.58544,1.44228 6.89657,3.20506 3.25178,2.48026 5.98265,3.30341 12.07571,3.63995 4.33051,0.23919 10.24651,1.07383 13.14666,1.85476 2.90016,0.78093 8.05958,1.29272 11.46538,1.13732 7.21774,-0.32934 8.57637,0.48628 5.66302,3.39963 -1.97437,1.97437 -1.88615,2.25059 1.41369,4.42629 4.99622,3.2942 11.13923,2.98434 15.62242,-0.78801 4.63931,-3.90372 6.02204,-3.93673 6.02204,-0.14376 0,3.08229 4.53223,7.01876 8.08102,7.01876 1.08648,0 1.91898,1.08598 1.91898,2.50325 0,1.37679 2.12789,4.42567 4.72863,6.77529 2.60075,2.34962 6.01612,6.84997 7.58971,10.00078 2.50761,5.021 7.00992,9.30909 8.35836,7.96065 0.25442,-0.25442 -0.43145,-2.97187 -1.52416,-6.03878 -1.09272,-3.0669 -1.89146,-7.63995 -1.77499,-10.16232 0.11647,-2.52237 -0.26934,-4.88346 -0.85735,-5.24688 -0.58801,-0.36341 -1.17303,-4.43243 -1.30004,-9.04228 -0.30238,-10.97459 -1.41889,-12.22323 -10.184,-11.38918 -3.80114,0.3617 -7.96045,1.07614 -9.24291,1.58765 -2.0057,0.79996 -2.20454,0.51028 -1.42201,-2.07159 0.50036,-1.65088 1.43704,-3.56409 2.0815,-4.25159 0.64447,-0.6875 7.75312,-1.35069 15.79701,-1.47377 14.37184,-0.21988 14.78185,-0.14782 23.66341,4.15882 7.66319,3.71585 10.1353,4.32867 16.25,4.02823 14.47078,-0.71101 17.1573,-0.18651 18.59824,3.63098 1.13144,2.99751 1.93702,3.43974 5.92432,3.25221 7.00668,-0.32956 13.20918,-5.09379 9.56428,-7.34647 -2.52929,-1.56318 -1.13827,-3.12596 2.8125,-3.15978 2.53029,-0.0217 5.91442,-1.436 8.97268,-3.75 2.70059,-2.04337 5.63414,-3.71522 6.51899,-3.71522 0.88487,0 3.46695,-1.63145 5.73799,-3.62544 2.41653,-2.12174 5.93413,-3.80672 8.48099,-4.0625 4.30074,-0.43193 4.35185,-0.37974 4.35185,4.44378 0,3.9278 -0.48815,4.95095 -2.5,5.23994 -8.61272,1.23713 -10.96165,2.3044 -16.13279,7.33016 -9.20293,8.94424 -15.78133,12.9326 -20.23958,12.27088 -2.69387,-0.39984 -6.20192,0.60119 -11.52685,3.28921 -4.20997,2.12518 -8.84932,3.86397 -10.30967,3.86397 -6.61192,0 -13.58522,9.95399 -9.99981,14.27415 0.89446,1.07776 0.99582,2.7251 0.28529,4.6363 -0.60619,1.6305 -1.47357,6.33955 -1.92752,10.46455 -0.64271,5.84028 -0.38428,8.12923 1.16782,10.34341 2.30253,3.28475 1.6137,8.17943 -2.17375,15.4458 -1.5405,2.95552 -3.06239,10.23049 -4.19428,20.04971 -2.6574,23.05294 -6.0633,29.88589 -15.79152,31.68118 -4.17285,0.77008 -4.75789,0.52224 -6.40019,-2.71128 z m 25.37973,-51.99632 c 2.08812,-2.56725 2.11595,-3.00325 0.31912,-5 -1.08265,-1.20313 -3.32451,-2.1875 -4.98191,-2.1875 -1.65739,0 -4.18395,-0.62644 -5.61457,-1.39208 -2.08363,-1.11513 -2.82569,-0.99079 -3.72993,0.625 -1.58131,2.82566 -3.46639,2.52141 -7.33365,-1.18367 -3.08978,-2.96019 -3.49419,-3.04743 -5.3809,-1.16071 -4.47587,4.47587 -0.54931,8.68946 9.20996,9.88322 3.09375,0.37843 7.3125,1.21125 9.375,1.85071 5.43354,1.68461 5.62729,1.65044 8.13688,-1.43497 z m -21.15672,-17.8775 c 1.65939,-1.02555 -5.49662,-7.83115 -10.37751,-9.86933 -6.90946,-2.88529 -7.95079,-2.37691 -3.80891,1.85952 2.7849,2.84845 3.55914,4.61755 3.09151,7.06383 -0.6131,3.20721 -0.53095,3.24879 4.7512,2.40414 2.9563,-0.47274 5.81097,-1.1289 6.34371,-1.45816 z m 9.89484,-0.56 c 0,-0.6875 -1.125,-1.25 -2.5,-1.25 -1.375,0 -2.5,0.5625 -2.5,1.25 0,0.6875 1.125,1.25 2.5,1.25 1.375,0 2.5,-0.5625 2.5,-1.25 z m 11.25194,-6.87734 c 1.25242,-1.50908 1.19422,-2.62858 -0.29675,-5.70708 l -1.8548,-3.82975 -1.87884,5.70709 c -1.74805,5.30975 -1.72739,5.70708 0.29674,5.70708 1.19658,0 2.87672,-0.8448 3.73365,-1.87734 z m -3.17284,-20.57194 c 2.73837,-3.02587 3.84474,-11.99461 2.05213,-16.63564 -0.73707,-1.90826 -2.88806,-4.0518 -4.79632,-4.77971 -4.11325,-1.56901 -14.51941,-3.61754 -15.15381,-2.98313 -0.24524,0.24523 0.41844,2.87067 1.47483,5.83431 1.05637,2.96365 2.25167,6.93532 2.6562,8.82595 0.40452,1.89062 1.42791,3.44134 2.27418,3.44604 0.84628,0.005 2.87683,1.97345 4.51232,4.375 3.44784,5.0628 3.99718,5.21368 6.98047,1.91718 z m 16.73335,-12.55856 c 6.02644,-4.36553 6.59292,-7.07104 1.75005,-8.35807 -4.28675,-1.13924 -13.58551,-1.27774 -14.64511,-0.21814 -0.43503,0.43502 0.6431,2.90414 2.39582,5.48693 1.75274,2.58279 3.18679,5.17999 3.18679,5.77155 0,1.89898 2.00191,1.16466 7.31245,-2.68227 z m -110.43745,-10.6623 c -4.33447,-1.98473 -9.375,-2.35249 -9.375,-0.68403 0,1.67511 2.47426,2.40717 8.125,2.40396 l 5,-0.003 -3.75,-1.7171 z m -48.125,-13.77863 c 0,-1.07183 -0.57168,-1.59546 -1.27039,-1.16363 -0.69871,0.43183 -0.94677,1.30878 -0.55123,1.94877 1.07155,1.73381 1.82162,1.41052 1.82162,-0.78514 z"
         id="path5410"
         inkscape:connector-curvature="0" />
      <path
         style="fill:#82807e"
         d="m 240.50643,525.59015 c -1.79574,-4.35859 -1.65999,-17.58489 0.26277,-25.59983 1.64225,-6.84568 0.96428,-10.08361 -1.88264,-8.99115 -1.50571,0.5778 -1.92231,-0.2173 -1.92231,-3.66884 0,-2.42358 -0.34143,-5.29626 -0.75874,-6.38374 -0.56413,-1.4701 0.0237,-1.97723 2.29166,-1.97723 1.67773,0 3.46637,-0.41595 3.97474,-0.92433 0.50839,-0.50838 4.68026,-0.7377 9.27084,-0.50961 8.88409,0.44144 13.26399,2.7555 12.10816,6.39721 -0.35677,1.12409 -1.19786,7.63909 -1.86908,14.47777 -0.67123,6.83867 -1.82824,14.57332 -2.57114,17.18808 -1.86589,6.56729 -7.05589,11.72695 -12.76772,12.69309 -4.29215,0.726 -4.82022,0.49354 -6.13655,-2.70142 z m -10.46586,-57.94956 c -2.17818,-3.52437 8.09474,-8.67123 17.30743,-8.67123 5.37059,0 6.37851,1.25808 4.43149,5.53133 -1.83304,4.02307 -3.14137,4.04109 -6.79971,0.0937 -3.79467,-4.09451 -6.08577,-3.94319 -9.46318,0.625 -2.96179,4.00603 -4.16718,4.539 -5.47603,2.42124 z m 36.29868,0.0788 c -0.4249,-0.6875 -2.35798,-1.25 -4.29571,-1.25 -4.76148,0 -7.10812,-2.9214 -5.38479,-6.70368 0.94224,-2.06798 2.36146,-2.87965 5.03514,-2.87965 3.08667,0 4.06898,0.78402 5.74672,4.58669 1.113,2.52268 2.02364,5.24143 2.02364,6.04166 0,1.78207 -2.06654,1.91762 -3.125,0.20498 z m -41.12214,-7.88306 c -0.71639,-3.81871 -0.0415,-8.36694 1.24159,-8.36694 1.19526,0 5.50555,4.45071 5.50555,5.68491 0,0.75862 -1.33739,2.63572 -2.97198,4.17133 l -2.97198,2.79203 -0.80318,-4.28133 z m 18.18952,-9.80917 c -2.21319,-2.36811 -4.00366,-5.93914 -4.48404,-8.94327 -0.43983,-2.75058 -1.20102,-5.6172 -1.69152,-6.37027 -0.4905,-0.75308 -0.97986,-3.05673 -1.08746,-5.11923 -0.45159,-8.65616 -3.2727,-25.12626 -4.57519,-26.71071 -1.03716,-1.26167 -3.63795,-1.55103 -9.90836,-1.10239 -4.67614,0.33458 -8.76448,0.18376 -9.08518,-0.33515 -1.3574,-2.19633 3.24007,-3.60267 12.55783,-3.84138 17.14778,-0.4393 20.99384,-0.009 25.58154,2.86138 5.1643,3.23126 3.1935,4.23338 -4.79544,2.43838 -2.86251,-0.64316 -5.20456,-1.00378 -5.20456,-0.80138 0,0.20241 1.40075,3.37699 3.11279,7.05463 1.71204,3.67764 3.11829,7.63678 3.125,8.79809 0.006,1.16132 2.26221,4.71115 5.01221,7.88853 2.75,3.17738 5,6.58659 5,7.57602 0,5.26626 7.62533,-2.68123 9.3646,-9.76025 1.52525,-6.20793 4.3854,-7.81845 4.3854,-2.46937 0,2.02385 -1.40625,5.75196 -3.125,8.28468 -1.71875,2.53272 -3.125,5.19436 -3.125,5.91477 0,0.7204 -1.125,2.74003 -2.5,4.48806 -1.375,1.74803 -2.5,4.17738 -2.5,5.39855 0,2.74952 -6.85918,8.69254 -10.03255,8.69254 -1.2874,0 -3.99869,-1.77401 -6.02507,-3.94223 z m -28.66481,-4.4088 c -2.39398,-0.98428 -4.65849,-3.10631 -5.447,-5.10431 -0.74226,-1.88081 -1.81584,-4.33922 -2.38571,-5.46313 -0.56988,-1.1239 -0.75852,-3.10509 -0.41921,-4.40263 1.38658,-5.30226 -13.92691,-12.38528 -19.39458,-8.97066 -1.92686,1.20334 -3.022,1.07314 -5.69278,-0.67683 -1.81882,-1.19173 -7.63963,-3.5825 -12.93512,-5.3128 -8.65959,-2.82954 -30.22913,-11.22862 -37.41996,-14.57117 -1.53548,-0.71374 -3.12026,-2.33266 -3.52173,-3.59758 -0.40147,-1.26492 -1.77792,-2.29986 -3.05878,-2.29986 -1.46339,0 -2.47726,-1.04517 -2.72826,-2.8125 -0.27342,-1.92516 -1.25114,-2.8125 -3.09899,-2.8125 -3.60331,0 -4.57158,-1.1577 -3.58035,-4.2808 1.08555,-3.42026 3.65256,-3.27265 10.24181,0.5889 4.63058,2.71371 5.31951,3.62952 4.67176,6.21035 -0.64065,2.55257 -0.1031,3.31111 3.42827,4.83762 2.30343,0.9957 6.33326,2.74443 8.95517,3.88607 3.29269,1.43371 6.28893,1.81859 9.6875,1.24441 4.45268,-0.75228 4.92039,-0.57715 4.92039,1.84236 0,6.17064 16.85047,8.31431 20.81894,2.64853 1.00255,-1.43134 2.63467,-2.60244 3.62694,-2.60244 2.16639,0 2.2378,0.58949 0.42339,3.49482 -1.12626,1.80342 -0.68826,2.95219 2.37651,6.23304 3.77769,4.04403 6.94545,5.09203 8.37922,2.77214 0.4249,-0.6875 1.78849,-1.25 3.0302,-1.25 1.24171,0 3.73853,-1.16486 5.54849,-2.58857 l 3.29084,-2.58858 1.21,2.90108 c 2.00682,4.81149 4.68376,7.46103 7.1177,7.04484 1.27195,-0.2175 2.17353,0.27371 2.01407,1.09734 -0.15879,0.82011 1.60424,3.07011 3.91784,5 4.78019,3.98739 10.74586,12.33877 10.74586,15.0432 0,1.41397 -1.07477,1.62885 -4.90787,0.98125 -4.51577,-0.76293 -4.9402,-0.58861 -5.3125,2.18194 -0.38855,2.89148 -0.56743,2.94418 -4.50206,1.32647 z m -0.27757,-14.77397 c 0,-1.03125 -0.5625,-1.875 -1.25,-1.875 -0.6875,0 -1.25,0.84375 -1.25,1.875 0,1.03125 0.5625,1.875 1.25,1.875 0.6875,0 1.25,-0.84375 1.25,-1.875 z m 52.5,8.05123 c 0,-0.72808 0.5625,-0.97613 1.25,-0.55123 0.6875,0.4249 1.25,1.02059 1.25,1.32377 0,0.30318 -0.5625,0.55123 -1.25,0.55123 -0.6875,0 -1.25,-0.5957 -1.25,-1.32377 z m 14.05895,-22.28806 c 4.98551,-4.65044 5.32955,-4.77326 7.91261,-2.82485 l 2.70049,2.03697 -3.82887,2.82486 c -2.13531,1.57537 -5.63519,2.82485 -7.91263,2.82485 l -4.08374,0 5.21214,-4.86183 z m 21.2446,-3.67411 c -2.28292,-1.44936 3.85594,-6.46406 7.91314,-6.46406 1.75871,0 4.27302,-0.57552 5.58736,-1.27892 5.04985,-2.70261 0.97916,2.41841 -4.45288,5.60179 -5.88966,3.45158 -6.68653,3.64016 -9.04762,2.14119 z m 2.19645,-8.96406 c 0,-0.6875 0.5625,-1.25 1.25,-1.25 0.6875,0 1.25,0.5625 1.25,1.25 0,0.6875 -0.5625,1.25 -1.25,1.25 -0.6875,0 -1.25,-0.5625 -1.25,-1.25 z m 17.5,-4.38967 c 1.03125,-1.36693 2.21839,-2.76658 2.63809,-3.11033 0.41968,-0.34375 1.65953,-2.37534 2.75521,-4.51465 1.52349,-2.97463 3.08074,-4.06631 6.61967,-4.6406 5.78394,-0.9386 6.73703,-0.35076 6.73703,4.15525 0,3.56691 -1.89495,6.19014 -2.70851,3.74946 -0.38727,-1.16177 -1.42705,-0.9574 -10.41649,2.04739 -0.6875,0.22981 -2.65625,1.40355 -4.375,2.60832 -3.06733,2.15007 -3.0904,2.14463 -1.25,-0.29484 z m -5.33334,-2.01544 c 0.84793,-0.85427 1.85655,-1.23834 2.24141,-0.85348 0.38487,0.38486 -0.30888,1.08381 -1.54166,1.55322 -1.7815,0.67836 -1.92507,0.53478 -0.69975,-0.69974 z"
         id="path5408"
         inkscape:connector-curvature="0" />
      <path
         style="fill:#807e7c"
         d="m 242.10925,526.29975 c -0.0797,-1.12454 -0.95996,-3.61546 -1.95602,-5.53538 -0.99607,-1.91992 -1.48145,-4.02402 -1.07864,-4.6758 0.40282,-0.65177 1.20634,-5.86091 1.78561,-11.57586 0.57926,-5.71495 1.20527,-11.11491 1.39112,-11.99991 0.18587,-0.885 -0.9277,-1.80219 -2.47457,-2.0382 -2.41036,-0.36776 -2.8125,-1.19199 -2.8125,-5.76451 l 0,-5.33539 5.9375,-0.4335 c 19.97616,-1.45845 20.53512,-1.12992 19.67441,11.56352 -1.2731,18.77499 -3.80628,28.4179 -8.9118,33.92396 -2.93392,3.16412 -3.38042,3.28872 -5.36122,1.49613 -2.82799,-2.5593 -4.76926,-2.47706 -5.47723,0.23205 -0.48666,1.86225 -0.59322,1.8835 -0.71666,0.14289 z m -11.395,-59.58039 c 0,-1.29878 2.70837,-4 4.01059,-4 0.55583,0 0.30802,1.125 -0.55068,2.5 -1.57722,2.52553 -3.45991,3.34175 -3.45991,1.5 z m 36.25,-0.25 c 0,-0.6875 0.5957,-1.25 1.32377,-1.25 0.72808,0 0.97613,0.5625 0.55123,1.25 -0.4249,0.6875 -1.0206,1.25 -1.32378,1.25 -0.30317,0 -0.55122,-0.5625 -0.55122,-1.25 z m -22.24258,-2.85098 c -3.824,-4.07047 -3.47876,-4.85963 1.93008,-4.41198 4.05576,0.33567 4.6875,0.80681 4.6875,3.49584 0,4.14743 -3.16969,4.58624 -6.61758,0.91614 z m 12.46814,-1.21152 c 0.21969,-1.54688 0.68069,-2.57682 1.02444,-2.28878 0.34375,0.28805 1.83156,-0.12201 3.30624,-0.91123 2.12668,-1.13817 2.99586,-1.05588 4.20235,0.39786 2.53893,3.05923 0.52211,5.61465 -4.4313,5.61465 -3.95289,0 -4.45252,-0.34258 -4.10173,-2.8125 z m -30.95161,-3.60101 c -1.06541,-1.72386 1.38154,-4.10146 3.11714,-3.0288 0.7474,0.46192 1.35891,1.30897 1.35891,1.88235 0,1.66281 -3.58882,2.58202 -4.47605,1.14645 z m 22.2136,-5.75634 c -4.54846,-1.63459 -7.8481,-6.51905 -8.58031,-12.70144 -0.41551,-3.50829 -1.30523,-6.37871 -1.97714,-6.37871 -0.67193,0 -0.91569,-1.1701 -0.5417,-2.60023 0.37399,-1.43013 -0.0388,-4.66451 -0.91706,-7.1875 -0.87838,-2.523 -1.34777,-5.3065 -1.0431,-6.18555 0.66847,-1.92871 -2.06174,-14.08884 -3.60166,-16.04151 -1.00196,-1.27052 -11.76035,-1.50004 -15.92033,-0.33964 -2.60391,0.72634 -3.13103,-2.33112 -0.53756,-3.11802 1.24097,-0.37652 6.47506,-0.66676 11.63131,-0.64496 5.15625,0.0218 11.29589,0.0344 13.64364,0.028 2.34775,-0.006 6.004,0.92315 8.125,2.06563 3.68635,1.98566 3.72911,2.09685 0.97017,2.5221 -1.5874,0.24467 -4.54052,-0.13185 -6.5625,-0.83672 -4.47524,-1.56007 -4.80699,-0.0182 -1.17548,5.46339 1.36639,2.0625 3.31081,6.57812 4.32093,10.03472 1.0629,3.63723 3.4356,7.81669 5.6324,9.92137 2.08771,2.00015 3.79584,4.67405 3.79584,5.942 0,3.63931 3.47295,4.08621 6.21135,0.79927 3.15219,-3.78364 3.19392,-1.97916 0.10338,4.47048 -1.33939,2.79519 -2.96742,6.48841 -3.61783,8.20716 -1.31169,3.46622 -7.41093,7.49599 -9.95935,6.58015 z m 0.96815,-12.51765 c -0.0244,-0.51563 -0.90696,-2.34375 -1.96134,-4.0625 -1.05436,-1.71875 -1.59694,-2.09462 -1.2057,-0.83527 0.39124,1.25936 0.71134,3.08748 0.71134,4.0625 0,0.97502 0.5625,1.77277 1.25,1.77277 0.6875,0 1.23006,-0.42188 1.2057,-0.9375 z m 6.2943,-2.8125 c 0,-0.6875 -0.5625,-1.25 -1.25,-1.25 -0.6875,0 -1.25,0.5625 -1.25,1.25 0,0.6875 0.5625,1.25 1.25,1.25 0.6875,0 1.25,-0.5625 1.25,-1.25 z m -13.02676,-16.92864 c -0.42398,-1.68925 -1.32265,-3.07136 -1.99705,-3.07136 -1.59365,0 -1.54861,1.52627 0.17281,5.85613 1.61136,4.05303 3.00605,1.92398 1.82424,-2.78477 z m -27.81996,24.6661 c -1.49695,-0.21315 -3.25177,-1.0569 -3.8996,-1.875 -1.66314,-2.10027 -4.57258,-11.17364 -4.19489,-13.08216 0.6435,-3.25166 -4.74212,-8.8641 -8.89139,-9.26586 -5.13041,-0.49677 -6.29901,-4.3073 -1.67673,-5.46742 1.73623,-0.43577 3.81123,-1.58086 4.61111,-2.54466 2.22307,-2.67863 3.07736,-2.17631 5.52322,3.24764 1.39594,3.09564 3.09575,5 4.46296,5 4.33077,0 17.41204,14.06116 17.41204,18.71634 0,1.0472 -1.59581,1.39406 -4.94445,1.07472 -4.19659,-0.40021 -5.00012,-0.0892 -5.3125,2.0562 -0.26231,1.80154 -1.14998,2.4164 -3.08977,2.1402 z m -0.40328,-14.61246 c 0,-3.08898 -1.69368,-4.19092 -3.05528,-1.9878 -0.90345,1.46181 0.48118,5.1128 1.93902,5.1128 0.61394,0 1.11626,-1.40625 1.11626,-3.125 z m 52.72338,-6.875 c 0.22089,-2.40625 0.96412,-4.20881 1.65162,-4.00569 1.49045,0.44035 0.9234,5.35822 -0.8222,7.13069 -0.81074,0.82323 -1.09392,-0.2437 -0.82942,-3.125 z m -86.72658,-3.84335 c -2.54552,-1.32305 -9.57677,-4.0616 -15.625,-6.08568 -20.32779,-6.80281 -34.6651,-13.22284 -35.98071,-16.1116 -0.67865,-1.49015 -2.1864,-2.70937 -3.35056,-2.70937 -1.24336,0 -2.28145,-1.16039 -2.51609,-2.8125 -0.286,-2.01376 -1.37568,-2.92483 -3.83694,-3.20803 -2.44954,-0.28185 -3.4375,-1.10145 -3.4375,-2.85173 0,-3.92929 3.42468,-4.17524 8.78096,-0.63062 3.87616,2.56512 4.96904,4.07829 4.96904,6.87997 0,3.23078 0.81152,3.93651 8.07753,7.02461 6.32415,2.6878 9.17319,3.2578 13.125,2.62588 4.52624,-0.72378 5.04747,-0.54085 5.04747,1.77143 0,2.79267 4.66266,5.26498 12.60987,6.6862 3.7092,0.66333 5.07154,0.25834 7.8769,-2.34158 4.1936,-3.88649 5.57045,-3.97956 4.89876,-0.33113 -0.34865,1.89384 0.75844,4.19721 3.38938,7.05182 3.22399,3.49807 3.61804,4.51983 2.25363,5.84359 -1.34877,1.30857 -2.50659,1.16089 -6.28174,-0.80126 z m 97.7532,0.59486 c 0,-1.074 7.5742,-8.00151 8.74846,-8.00151 2.61559,0 2.08216,3.89843 -0.84891,6.20401 -3.02017,2.37568 -7.89955,3.48595 -7.89955,1.7975 z m 26.75411,-11.05871 c 1.99602,-1.632 4.41091,-2.66727 5.36647,-2.3006 2.78719,1.06955 -1.865,5.36671 -5.75182,5.31285 l -3.24376,-0.045 3.62911,-2.96729 z m 21.99589,-14.7836 c 0,-3.4057 4.25439,-7.00323 8.75,-7.39902 4.07837,-0.35907 4.40066,-0.12168 4.75356,3.50126 0.34134,3.50423 0.034,3.89159 -3.125,3.93875 -1.92696,0.0288 -5.05043,0.45482 -6.94106,0.94678 -2.62411,0.68282 -3.4375,0.44909 -3.4375,-0.98777 z"
         id="path5406"
         inkscape:connector-curvature="0" />
      <path
         style="fill:#726f6d"
         d="m 241.39332,519.96599 c -1.23306,-1.17061 -1.90793,-2.99873 -1.49973,-4.0625 1.06379,-2.77217 3.32066,-2.38757 3.32066,0.56587 0,2.9823 4.35584,3.48164 5.45204,0.625 0.4894,-1.27536 -0.0675,-1.875 -1.74127,-1.875 -1.60653,0 -2.46077,-0.84629 -2.46077,-2.43789 0,-1.34084 -0.95777,-2.97388 -2.12838,-3.62898 -1.93497,-1.08287 -1.97949,-1.94011 -0.48998,-9.4338 1.81258,-9.11912 1.20361,-13.20612 -1.61875,-10.86377 -1.34257,1.11424 -1.8701,0.81036 -2.46814,-1.42172 -1.7951,-6.69989 -1.53953,-6.88949 10.58049,-7.84875 15.67935,-1.24098 15.36953,-1.69107 12.93922,18.79825 -1.06636,8.9902 -2.84622,17.99457 -3.99565,20.21419 -1.91704,3.70189 -2.50741,3.98355 -7.86026,3.75 -3.44435,-0.15029 -6.69524,-1.11424 -8.02948,-2.3809 z m 3.95008,-56.66091 -2.24586,-3.08572 4.43336,0 c 4.59682,0 5.7752,1.90815 2.93335,4.75 -2.04727,2.04728 -2.53482,1.88883 -5.12085,-1.66428 z m 13.48722,0.65033 c -0.47668,-0.77131 -0.66976,-1.50558 -0.42904,-1.63171 0.24072,-0.12614 1.75807,-0.97144 3.3719,-1.87845 3.47677,-1.95404 5.01642,-0.96204 3.13758,2.02156 -1.63487,2.59617 -4.90163,3.39593 -6.08044,1.4886 z m -14.67887,-14.85545 c -2.77761,-2.7067 -3.4375,-4.46634 -3.4375,-9.1664 0,-3.19916 -0.58941,-6.18094 -1.30981,-6.62617 -0.7204,-0.44523 -1.15631,-1.74405 -0.9687,-2.88627 0.18761,-1.14222 -0.0595,-2.71444 -0.54908,-3.49382 -0.4896,-0.77939 -1.46486,-5.56064 -2.16724,-10.625 -0.70238,-5.06437 -1.93095,-10.82261 -2.73016,-12.79609 -1.44995,-3.58035 -1.47315,-3.58686 -10.6806,-2.99596 -6.40285,0.41091 -8.82856,0.19325 -7.92427,-0.71103 0.71677,-0.71677 6.01339,-1.46108 11.77027,-1.65402 l 10.46705,-0.35079 4.31324,8.39997 c 2.37229,4.61999 5.40107,11.7012 6.73063,15.73603 1.70242,5.16638 3.25012,7.65267 5.23302,8.40656 3.37429,1.2829 3.61118,3.39404 0.62815,5.59794 -1.63248,1.20608 -1.82844,1.9807 -0.77237,3.05293 1.45329,1.47553 6.18327,-0.32601 8.25323,-3.14348 0.53741,-0.7315 0.9098,-0.47225 0.89774,0.625 -0.0113,1.03125 -0.84648,2.96688 -1.85585,4.30141 -1.00939,1.33453 -1.83525,3.34585 -1.83525,4.46961 0,2.80665 -5.25354,7.50866 -8.20556,7.34414 -1.33069,-0.0742 -3.96632,-1.64221 -5.85694,-3.48456 z m 6.5625,-8.02081 c 0,-0.21462 -1.06924,-2.60525 -2.37609,-5.3125 -1.30685,-2.70726 -3.31249,-8.14627 -4.45697,-12.08669 -1.1445,-3.94041 -2.60652,-7.48924 -3.24893,-7.88627 -2.27201,-1.40418 -1.14382,7.86927 1.3418,11.02923 1.3804,1.7549 2.86311,5.76826 3.29491,8.91858 0.6133,4.47453 1.29494,5.72786 3.11518,5.72786 1.28156,0 2.3301,-0.1756 2.3301,-0.39021 z m -38.92377,2.57771 c -2.38288,-1.95797 -5.43203,-11.44602 -4.27829,-13.31281 1.2307,-1.99131 -4.02864,-8.87469 -6.78082,-8.87469 -3.4762,0 -6.26712,-1.33523 -6.26712,-2.9983 0,-1.18871 8.98405,-6.37789 9.34781,-5.39929 1.94015,5.21942 4.77926,9.64759 6.18552,9.64759 3.74328,0 11.17222,5.6315 14.63783,11.0962 1.97061,3.10734 3.16014,6.07246 2.64339,6.58915 -0.51675,0.51669 -3.40441,0.3856 -6.41702,-0.29132 -6.48222,-1.45652 -7.61234,-0.80823 -4.52947,2.59831 2.19852,2.42933 2.19273,2.50766 -0.18541,2.50766 -1.35016,0 -3.31054,-0.70313 -4.35642,-1.5625 z m 3.92377,-10.83527 c 0,-3.72562 -1.34747,-6.35223 -3.25874,-6.35223 -2.14152,0 -2.31381,5.17745 -0.24126,7.25 2.18002,2.18002 3.5,1.84144 3.5,-0.89777 z m 51.25,-9.32969 c 0,-1.03125 0.5625,-2.22264 1.25,-2.64754 0.6875,-0.4249 1.25,0.0712 1.25,1.10246 0,1.03125 -0.5625,2.22264 -1.25,2.64754 -0.6875,0.4249 -1.25,-0.0712 -1.25,-1.10246 z m -85.4488,-3.44894 c -1.27809,-0.74271 -7.74684,-3.21222 -14.375,-5.4878 -6.62816,-2.27559 -16.20669,-5.86956 -21.28562,-7.98662 -5.07893,-2.11705 -9.93849,-3.84918 -10.79902,-3.84918 -2.23148,0 -7.63472,-4.61597 -6.60886,-5.64593 0.47173,-0.47362 4.12798,0.69188 8.125,2.59 4.36823,2.0744 9.38656,3.4554 12.5798,3.46186 3.53611,0.007 5.3125,0.5573 5.3125,1.6453 0,3.95071 16.31404,8.09041 21.32169,5.4104 2.26103,-1.21007 2.97009,-0.9944 4.6592,1.41715 1.09578,1.56443 3.01084,3.86295 4.25571,5.10782 4.10962,4.10962 1.98119,6.33935 -3.1854,3.337 z m 101.00306,-3.47879 c 2.53376,-2.65912 4.08171,-3.45884 4.9719,-2.56865 2.04043,2.04043 -0.88419,5.53931 -5.02724,6.01439 l -3.62392,0.41555 3.67926,-3.86129 z m 23.19574,-6.96981 c 0.85586,-1.03125 2.04974,-1.875 2.65305,-1.875 0.60332,0 1.09695,0.84375 1.09695,1.875 0,1.07772 -1.12811,1.875 -2.65305,1.875 -2.21655,0 -2.39704,-0.3085 -1.09695,-1.875 z m -61.875,-8.70486 -3.75,-1.71709 3.90945,-0.10153 c 2.15019,-0.0558 4.60969,0.74223 5.46555,1.77348 2.02666,2.44197 -0.34889,2.46104 -5.625,0.0451 z m 84.375,-8.01708 c 0,-3.19296 2.29375,-4.83219 7.481,-5.34632 6.34604,-0.62898 6.51016,2.80424 0.26575,5.55927 -6.19019,2.7311 -7.74675,2.68831 -7.74675,-0.21295 z m -205,-0.73408 c 0,-2.15613 -4.50856,-4.87025 -6.27583,-3.77801 -0.67329,0.41611 -1.22417,-0.13803 -1.22417,-1.23143 0,-3.08046 3.54824,-3.71878 8.23862,-1.4821 3.18103,1.51693 4.26138,2.82949 4.26138,5.17734 0,2.31189 -0.66238,3.14522 -2.5,3.14522 -1.375,0 -2.5,-0.82396 -2.5,-1.83102 z"
         id="path5404"
         inkscape:connector-curvature="0" />
      <path
         style="fill:#585653"
         d="m 255.71425,515.21936 c 0,-0.6875 0.5625,-1.25 1.25,-1.25 0.6875,0 1.25,0.5625 1.25,1.25 0,0.6875 -0.5625,1.25 -1.25,1.25 -0.6875,0 -1.25,-0.5625 -1.25,-1.25 z m -8.82175,-6.5625 c -0.0395,-0.17188 -0.31964,-2.70313 -0.62261,-5.625 -0.44422,-4.284 -0.16011,-5.3125 1.46747,-5.3125 1.48395,0 1.85865,0.83529 1.41525,3.15484 -0.3317,1.73515 -0.116,3.45585 0.47928,3.82376 1.79975,1.11231 1.21352,4.2714 -0.79264,4.2714 -1.03125,0 -1.90729,-0.14063 -1.94675,-0.3125 z m 10.57715,-7.67341 c -0.39981,-1.04191 -0.36264,-2.48381 0.0826,-3.20423 0.49696,-0.80411 -0.66688,-1.30986 -3.01425,-1.30986 -2.10307,0 -3.9644,0.0951 -4.13627,0.21122 -0.17188,0.11618 -1.57813,-0.46611 -3.125,-1.29397 -2.24159,-1.19967 -2.8125,-2.58713 -2.8125,-6.83512 0,-4.90193 0.33334,-5.45044 4.15125,-6.83102 6.07896,-2.19818 12.01699,-1.91864 12.98786,0.61143 0.4509,1.175 0.16055,2.32924 -0.65424,2.60083 -1.0549,0.35164 -1.10166,1.16702 -0.16708,2.9133 0.7138,1.33375 0.90273,3.06425 0.41986,3.84556 -0.48288,0.78132 -0.8081,3.27884 -0.72271,5.55007 0.16618,4.42065 -1.80742,6.87445 -3.00954,3.74179 z m -0.5054,-10.27283 c 0,-0.27019 -0.84375,-0.49126 -1.875,-0.49126 -1.03125,0 -1.875,0.54485 -1.875,1.21077 0,0.66592 0.84375,0.88699 1.875,0.49126 1.03125,-0.39573 1.875,-0.94057 1.875,-1.21077 z m -18.75,-6.74126 c 0,-0.6875 0.5957,-1.25 1.32377,-1.25 0.72808,0 0.97613,0.5625 0.55123,1.25 -0.4249,0.6875 -1.0206,1.25 -1.32378,1.25 -0.30317,0 -0.55122,-0.5625 -0.55122,-1.25 z m 9.54935,-19.61732 c -1.40772,-1.40773 -0.85736,-2.88268 1.07565,-2.88268 1.03125,0 1.875,0.5293 1.875,1.17623 0,1.57622 -1.95199,2.70512 -2.95065,1.70645 z m -1.78065,-16.49858 c -3.43821,-2.94253 -4.07559,-4.30703 -3.9175,-8.3867 0.10384,-2.67982 -0.23422,-6.27865 -0.75126,-7.9974 -0.70528,-2.34455 -0.5771,-2.78891 0.51322,-1.77928 0.7993,0.74014 1.80379,4.30525 2.23219,7.92245 0.69906,5.90247 1.04807,6.5075 3.40429,5.90152 9.48515,-2.43946 9.50036,-2.43909 9.50036,0.23242 0,2.02577 -0.7264,2.51882 -3.4375,2.33322 -2.87706,-0.19696 -3.38895,0.2232 -3.13974,2.57717 0.36335,3.43202 0.594,3.4741 -4.40406,-0.8034 z m -27.5187,-10.3841 c -0.825,-0.825 -1.48478,-3.49688 -1.46618,-5.9375 l 0.0338,-4.4375 4.34118,4.66914 c 2.38764,2.56803 4.34117,5.23991 4.34117,5.9375 0,1.76529 -5.42645,1.59191 -7.25,-0.23164 z m -9.81865,-2.92891 c -1.16285,-3.03032 0.45973,-3.57739 2.01135,-0.67815 0.96747,1.80774 0.9865,2.60706 0.062,2.60706 -0.73327,0 -1.6663,-0.86801 -2.0734,-1.92891 z m 40.3302,-0.041 c -1.05684,-2.75407 0.10387,-3.91473 2.00929,-2.00927 1.04821,1.04822 1.0905,1.86782 0.14513,2.81318 -0.94536,0.94537 -1.57303,0.71115 -2.15442,-0.80391 z m -3.61098,-9.69484 c -0.49531,-1.25936 -0.88347,-3.22811 -0.86256,-4.375 0.0339,-1.86041 0.17776,-1.84515 1.33409,0.14151 0.71285,1.22472 1.101,3.19347 0.86256,4.375 -0.39592,1.96189 -0.51164,1.94961 -1.33409,-0.14151 z m -70.14953,-8.71354 c -2.09061,-1.52868 -2.09694,-1.73603 -0.10365,-3.39031 1.85431,-1.53895 2.34342,-1.4608 3.86287,0.61717 0.95686,1.30858 1.73974,2.83422 1.73974,3.39032 0,1.54298 -3.0062,1.20557 -5.49896,-0.61718 z m 59.89538,-11.63826 c -1.8649,-4.46333 -1.64582,-7.16648 0.387,-4.77514 2.13586,2.51256 3.8402,7.97223 2.70727,8.67242 -0.64077,0.39602 -2.03319,-1.35776 -3.09427,-3.89728 z m -86.27142,2.01653 c -0.4249,-0.6875 0.38565,-1.25 1.80123,-1.25 1.41557,0 2.57377,0.5625 2.57377,1.25 0,0.6875 -0.81055,1.25 -1.80123,1.25 -0.99068,0 -2.14887,-0.5625 -2.57377,-1.25 z m -17.5,-6.25 c -0.4249,-0.6875 -0.21004,-1.25 0.47746,-1.25 0.6875,0 1.59764,0.5625 2.02254,1.25 0.4249,0.6875 0.21004,1.25 -0.47746,1.25 -0.6875,0 -1.59764,-0.5625 -2.02254,-1.25 z m 198.32711,-8.25511 c 0.33334,-1.73364 1.87753,-2.56025 5.75178,-3.07893 6.01913,-0.80583 7.74605,1.87973 1.85861,2.89038 -1.89063,0.32455 -4.47893,1.03297 -5.75178,1.57426 -1.84331,0.78388 -2.22155,0.50188 -1.85861,-1.38571 z M 122.2188,388.945 l -2.87046,-3.63602 3.80796,1.32746 c 2.4441,0.85202 3.80795,2.17906 3.80795,3.70518 0,3.28051 -1.37182,2.87677 -4.74545,-1.39662 z"
         id="path5402"
         inkscape:connector-curvature="0" />
    </g>
  </g>
</svg>
