<?xml version="1.0" encoding="UTF-8" standalone="no"?>
<!-- Created with Inkscape (http://www.inkscape.org/) -->

<svg
   xmlns:dc="http://purl.org/dc/elements/1.1/"
   xmlns:cc="http://creativecommons.org/ns#"
   xmlns:rdf="http://www.w3.org/1999/02/22-rdf-syntax-ns#"
   xmlns:svg="http://www.w3.org/2000/svg"
   xmlns="http://www.w3.org/2000/svg"
   xmlns:sodipodi="http://sodipodi.sourceforge.net/DTD/sodipodi-0.dtd"
   xmlns:inkscape="http://www.inkscape.org/namespaces/inkscape"
   width="210mm"
   height="297mm"
   viewBox="0 0 744.09448819 1052.3622047"
   id="svg5435"
   version="1.1"
   inkscape:version="0.91 r13725"
   sodipodi:docname="bow1.svg">
  <defs
     id="defs5437" />
  <sodipodi:namedview
     id="base"
     pagecolor="#ffffff"
     bordercolor="#666666"
     borderopacity="1.0"
     inkscape:pageopacity="0.0"
     inkscape:pageshadow="2"
     inkscape:zoom="0.5"
     inkscape:cx="234.28568"
     inkscape:cy="514.2857"
     inkscape:document-units="px"
     inkscape:current-layer="layer1"
     showgrid="false"
     inkscape:window-width="1215"
     inkscape:window-height="1000"
     inkscape:window-x="65"
     inkscape:window-y="24"
     inkscape:window-maximized="1" />
  <metadata
     id="metadata5440">
    <rdf:RDF>
      <cc:Work
         rdf:about="">
        <dc:format>image/svg+xml</dc:format>
        <dc:type
           rdf:resource="http://purl.org/dc/dcmitype/StillImage" />
        <dc:title></dc:title>
      </cc:Work>
    </rdf:RDF>
  </metadata>
  <g
     inkscape:label="Layer 1"
     inkscape:groupmode="layer"
     id="layer1">
    <g
       id="g5454"
       transform="translate(58,-128)"
       inkscape:export-filename="/home/monty/gitcenter/dungeons-of-noudar/DungeonsOfNoudarX11/res/bow1.png"
       inkscape:export-xdpi="299"
       inkscape:export-ydpi="299">
      <path
         style="fill:#ceced0"
         d="m 250.64247,614.4333 c -2.56208,-2.56208 -3.37823,-7.33092 -4.58116,-26.76814 -0.78119,-12.6228 -1.20683,-14.29469 -6.30668,-24.77291 -3.59727,-7.39098 -5.46895,-12.90165 -5.46895,-16.10186 0,-5.12288 -0.49334,-5.80305 -7.5,-10.34023 -4.10592,-2.6588 -4.41344,-3.33016 -5,-10.91584 -0.34375,-4.44555 -1.0378,-8.71754 -1.54233,-9.49331 -1.46301,-2.24955 -9.13494,-5.4645 -13.04009,-5.4645 -1.96878,0 -5.54002,-1.04257 -7.93609,-2.31683 -2.39607,-1.27425 -6.47338,-2.7074 -9.0607,-3.18477 -2.58731,-0.47737 -8.40537,-2.52855 -12.92902,-4.55818 -4.52365,-2.02962 -8.99424,-3.69022 -9.93465,-3.69022 -0.94041,0 -4.87575,-2.57867 -8.74519,-5.73038 -6.58756,-5.36564 -7.26539,-5.63509 -10.64938,-4.2334 -7.87815,3.26324 -13.59154,-1.79434 -11.06512,-9.79503 2.23647,-7.08249 3.07372,-8.3349 5.84961,-8.75015 1.7366,-0.25978 3.66358,1.0541 5.9582,4.0625 3.89556,5.10734 7.82641,5.72615 14.91165,2.34743 5.07386,-2.41955 7.70055,-1.06368 3.46064,1.78635 -2.83101,1.90299 -2.80934,1.93318 3.75,5.22328 5.82337,2.92095 8.23495,3.33783 20.55336,3.55295 7.90562,0.13806 16.30522,1.0064 19.375,2.00296 2.98051,0.96758 6.91373,2.0998 8.74048,2.51603 1.82676,0.41624 4.17936,1.08604 5.22801,1.48844 1.26922,0.48705 2.55447,-0.52111 3.8444,-3.01558 2.52717,-4.88699 6.37003,-5.65804 22.6643,-4.54742 12.22323,0.83314 13.37003,1.14724 18.36465,5.03001 l 5.32727,4.14137 9.8964,-1.87448 c 9.97404,-1.88919 18.75062,-5.55403 24.49052,-10.22653 l 3.11308,-2.53415 -3.31608,-1.27 c -5.19036,-1.98781 -5.44802,-3.80506 -0.37737,-2.66145 3.69036,0.83232 4.99234,0.50881 7.94236,-1.97347 9.16388,-7.71089 16.37609,-6.0678 16.37609,3.7308 0,5.70354 -1.19198,6.95606 -6.66474,7.00332 -1.7641,0.0152 -4.89216,2.62943 -8.96026,7.48832 -7.82409,9.34496 -18.80381,18.36613 -29.48955,24.2292 -9.17595,5.03468 -11.64286,8.65817 -10.40107,15.2775 0.49283,2.62703 0.21871,4.95817 -0.71538,6.08369 -0.8329,1.00358 -1.40381,3.66929 -1.2687,5.92379 0.79279,13.2281 0.50304,18.23811 -1.17143,20.25492 -1.35213,1.62858 -1.71361,5.23573 -1.46233,14.59251 0.29559,11.00658 -0.0595,13.46341 -3.10198,21.46542 -5.38497,14.1628 -13.89646,21.27935 -19.15777,16.01804 z M 195.53568,473.07651 c -2.61447,-0.8373 -2.20604,-1.02833 2.5,-1.16931 3.09375,-0.0927 9.28125,-0.97274 13.75,-1.95569 10.26531,-2.25796 10.29141,-2.25785 13.19859,0.0572 2.2672,1.80543 2.05731,1.90278 -3.19859,1.48367 -3.09375,-0.2467 -8.10502,0.29005 -11.13616,1.19278 -6.06078,1.80501 -10.35262,1.91614 -15.11384,0.39133 z m 66.25,-0.0112 c -2.40625,-0.53547 -6.90625,-1.7998 -10,-2.80957 -4.38037,-1.4297 -5.13772,-2.04304 -3.4228,-2.77193 1.34904,-0.57339 5.58833,0.31911 10.94261,2.30376 6.71288,2.48823 10.11655,3.07657 14.6728,2.53626 4.39558,-0.52125 5.44666,-0.35792 4.05739,0.63048 -2.12187,1.5096 -9.73234,1.56162 -16.25,0.11106 z m -86.87645,-1.24109 c -0.42569,-0.68879 0.70273,-1.81379 2.50761,-2.5 4.11988,-1.56638 4.66963,-1.5578 8.97496,0.14001 3.26961,1.28936 3.34178,1.46023 1.01888,2.41214 -3.56778,1.46204 -11.5863,1.42859 -12.50145,-0.0522 z m 107.7024,-1.32361 c 1.77659,-1.77659 11.51809,-1.83002 13.2753,-0.0728 1.03166,1.03167 -0.70074,1.39875 -6.60125,1.39875 -5.63881,0 -7.60865,-0.39135 -6.67405,-1.32595 z m -48.56032,-0.77794 c 0.90234,-0.36109 1.98046,-0.31668 2.39583,0.0987 0.41536,0.41537 -0.32292,0.7108 -1.64063,0.65653 -1.45618,-0.06 -1.75237,-0.35618 -0.7552,-0.75521 z"
         id="path5468"
         inkscape:connector-curvature="0" />
      <path
         style="fill:#bebec0"
         d="m 251.22019,613.14227 c -3.64011,-4.02228 -4.1293,-21.31176 -0.86395,-30.53456 2.05833,-5.81362 2.30676,-7.89192 1.19227,-9.97435 l -1.40782,-2.63054 -1.25588,2.81454 c -1.16217,2.60453 -1.56714,2.20733 -5.4275,-5.32349 -2.2944,-4.47591 -4.17163,-8.9195 -4.17163,-9.87464 0,-0.95513 -0.84375,-2.43686 -1.875,-3.29272 -1.20213,-0.99768 -1.875,-3.76495 -1.875,-7.71119 0,-5.5973 -0.35224,-6.34805 -3.88689,-8.28445 -8.15029,-4.46498 -8.86111,-5.49897 -8.80094,-12.80219 0.0311,-3.77246 -0.71138,-8.00198 -1.65935,-9.45282 -2.15995,-3.30572 -9.29545,-6.74935 -13.98524,-6.74935 -1.96878,0 -5.54002,-1.03736 -7.93609,-2.30524 -2.39607,-1.26789 -6.25607,-2.67436 -8.57778,-3.12551 -8.78344,-1.70677 -27.16935,-9.96511 -33.02764,-14.83493 -5.60071,-4.6557 -6.24218,-4.88598 -9.66324,-3.46893 -4.68101,1.93894 -9.79128,0.66614 -11.05639,-2.75379 -1.10596,-2.9897 2.70337,-12.2616 5.03764,-12.2616 0.76215,0 3.28791,2.0169 5.6128,4.482 3.92705,4.16388 4.59285,4.42021 9.38041,3.61136 5.04988,-0.85317 5.13727,-0.80668 4.35343,2.31639 -0.97295,3.87655 1.45572,5.83761 3.59921,2.90622 2.02849,-2.77412 3.84334,-2.60131 6.07022,0.578 2.6671,3.80782 8.1293,6.81216 14.12802,7.77075 5.95032,0.95085 9.16183,0.10136 9.16183,-2.42346 0,-1.01932 1.28269,-1.74126 3.09375,-1.74126 2.70561,0 3.0089,0.43126 2.41748,3.4375 -0.57348,2.91497 -0.10789,3.68466 3.06285,5.06343 2.05653,0.89427 5.71397,1.94641 8.12765,2.33809 3.64261,0.59112 4.90449,0.15541 7.42423,-2.56343 4.29539,-4.6348 5.76151,-4.12998 5.4857,1.88883 -0.2139,4.66768 0.15135,5.359 3.79745,7.1875 2.63777,1.32282 4.04394,2.9503 4.0625,4.70184 0.0333,3.14181 2.06474,4.17715 6.52359,3.32478 1.76647,-0.33768 3.59214,10e-4 4.05705,0.75375 2.03362,3.29047 4.28194,0.95467 6.31675,-6.56254 2.0042,-7.40411 2.00907,-8.19624 0.0734,-11.93931 -2.67903,-5.18067 -4.5961,-5.81288 -12.26132,-4.04354 -3.46798,0.80051 -6.57001,1.19088 -6.8934,0.8675 -0.32338,-0.32339 -0.2397,-1.97561 0.18597,-3.67161 1.04892,-4.17924 5.43204,-4.96723 21.52731,-3.87018 13.00996,0.88677 13.15046,0.93079 19.31664,6.05283 3.41624,2.83776 6.51957,6.56581 6.8963,8.28456 1.80429,8.2318 5.41947,9.30342 12.48208,3.69998 5.99862,-4.75928 7.53798,-7.21597 5.68349,-9.07045 -2.3943,-2.39431 -1.57756,-3.28911 6.47471,-7.09363 5.51717,-2.60673 9.64685,-5.78733 13.87867,-10.68901 5.70742,-6.61089 6.29718,-6.95817 11.20826,-6.59998 l 5.18384,0.37809 0.17829,5.9375 0.17828,5.9375 -5.45868,0 c -4.71929,0 -5.70479,0.47592 -7.27559,3.5135 -3.89463,7.53137 -23.30351,23.73451 -36.26374,30.27408 -5.06886,2.55769 -8.49204,8.40349 -7.76856,13.2665 0.32149,2.16099 -0.20605,6.22373 -1.1723,9.0283 -1.25875,3.65354 -1.40752,6.01796 -0.52476,8.33979 1.85012,4.86621 1.48692,10.90769 -0.85692,14.25399 -1.67328,2.38895 -2.03119,5.49823 -1.79863,15.6252 0.26346,11.47233 -0.0615,13.55655 -3.51034,22.513 -3.90206,10.1335 -8.97975,16.93564 -12.64218,16.93564 -1.13982,0 -3.06373,-1.09541 -4.27536,-2.43424 z m 11.23446,-53.33452 c 1.69457,-1.11032 3.08103,-2.79782 3.08103,-3.75 0,-2.67402 -1.97259,-2.04818 -3.40804,1.08126 l -1.29009,2.8125 -1.62358,-3.4858 c -0.89297,-1.91719 -2.33125,-3.21424 -3.19616,-2.88234 -0.86491,0.3319 -2.96475,-0.49164 -4.66631,-1.83009 -3.12332,-2.4568 -7.06582,-2.14803 -7.06582,0.55339 0,0.80448 1.65579,3.27555 3.67954,5.49126 4.19437,4.59225 9.43807,5.3196 14.48943,2.00982 z m 1.27962,-21.14599 c -1.33453,-1.00939 -3.58453,-1.84293 -5,-1.85232 -1.41547,-0.009 -3.83921,-0.35624 -5.38609,-0.77079 -1.6552,-0.44358 -2.8125,-0.19408 -2.8125,0.60633 0,1.59806 6.52625,3.67494 11.875,3.77904 3.5618,0.0693 3.62822,-0.0191 1.32359,-1.76226 z m -20.98846,-4.64775 c -0.65963,-2.06873 -13.46013,-8.97945 -13.46013,-7.26684 0,0.73114 0.48515,1.32934 1.07812,1.32934 0.59297,0 3.20156,1.6875 5.79688,3.75 4.99341,3.96827 7.40876,4.77061 6.58513,2.1875 z m 7.78987,-7.76852 c 0,-1.00706 -1.16895,-2.45663 -2.59768,-3.22126 -2.86146,-1.5314 -6.74453,-0.66721 -5.56652,1.23886 0.40935,0.66233 1.56526,0.88919 2.56869,0.50413 1.02009,-0.39144 2.16359,0.18373 2.59371,1.3046 0.96266,2.50866 3.0018,2.62663 3.0018,0.17367 z m 17.4557,-12.20127 c 0.0244,-1.18651 1.13746,-3.95485 2.47355,-6.15187 2.87746,-4.73161 2.15578,-6.6788 -4.30055,-11.60328 -5.976,-4.55811 -8.1287,-2.911 -8.1287,6.21959 0,5.22415 0.65379,7.40302 3.09015,10.29847 1.69958,2.01983 2.75509,4.00748 2.34557,4.41699 -0.40951,0.40951 -0.35315,1.7532 0.12525,2.98598 0.77715,2.00263 1.05522,1.9085 2.61013,-0.88359 0.95717,-1.71875 1.76025,-4.09578 1.7846,-5.28229 z m 40.9376,-26.74107 c -1.19865,-1.19865 -4.763,2.0684 -3.85664,3.53494 0.45158,0.73067 1.55535,0.43212 2.72434,-0.73687 1.08085,-1.08085 1.59039,-2.33999 1.1323,-2.79807 z"
         id="path5466"
         inkscape:connector-curvature="0" />
      <path
         style="fill:#afafb0"
         d="m 253.46796,614.55178 c -4.88499,-3.17549 -6.21772,-20.30376 -2.46847,-31.72482 2.49601,-7.60339 2.01001,-13.50045 -1.11263,-13.50045 -1.01815,0 -1.86369,0.70312 -1.87898,1.5625 -0.0358,2.00996 -4.32723,-3.46748 -6.91217,-8.82237 -1.5653,-3.24263 -1.67369,-4.52325 -0.50231,-5.93467 1.26989,-1.53013 2.11272,-1.25628 5.62514,1.82766 7.01343,6.15787 15.91924,6.08536 19.79874,-0.16122 1.88469,-3.0346 -0.80666,-5.79564 -3.48369,-3.57391 -1.51316,1.25582 -2.13496,1.09864 -3.34989,-0.84677 -0.97022,-1.55358 -2.47314,-2.20123 -4.29841,-1.85231 -1.54361,0.29509 -3.18695,-0.079 -3.65186,-0.8312 -1.25082,-2.02386 -6.56838,-1.65932 -7.39978,0.50729 -0.86714,2.25972 -6.98803,2.52568 -7.19191,0.3125 -0.0792,-0.85938 -0.0335,-2.60782 0.10151,-3.88544 0.53375,-5.05123 -1.33907,-8.31833 -6.18578,-10.79094 -6.09766,-3.11079 -7.46976,-5.55752 -7.31934,-13.05177 0.16169,-8.05517 -4.14301,-12.57506 -13.82832,-14.5196 -3.84952,-0.77287 -8.07236,-1.9795 -9.38409,-2.68139 -1.31172,-0.70189 -5.81172,-2.29582 -10,-3.54205 -15.95188,-4.74655 -25.89824,-9.16538 -31.26638,-13.89061 -5.66998,-4.99092 -8.01064,-5.69664 -11.9325,-3.59773 -3.18431,1.70419 -10.04116,-0.79391 -10.04116,-3.6582 0,-2.94075 3.63413,-10.06977 5.13322,-10.06977 0.66006,0 3.22433,2.02422 5.69838,4.49826 3.77053,3.77053 5.10292,4.37734 8.23575,3.75077 3.11747,-0.62349 3.49496,-0.45526 2.27548,1.01412 -1.15946,1.39707 -0.87478,2.17293 1.37571,3.74923 3.66367,2.56613 5.60256,2.51214 7.17786,-0.19988 1.1651,-2.00583 1.50765,-1.91857 4.12462,1.05066 3.42609,3.88729 8.91074,7.38684 11.57696,7.38684 1.06477,0 2.99813,0.66335 4.29636,1.47411 1.89988,1.18649 3.02475,1.03882 5.76528,-0.75685 3.38283,-2.21651 3.82413,-2.08278 5.88256,1.78274 0.18305,0.34375 2.10711,1.60937 4.27568,2.8125 5.31009,2.94603 11.8414,2.78028 15.88857,-0.40323 l 3.29357,-2.59072 0,5.12166 c 0,4.1412 0.53841,5.33928 2.8125,6.25843 1.54688,0.62523 5.0625,4.06128 7.8125,7.63568 2.75,3.5744 7.71287,9.30794 11.02861,12.74119 4.27274,4.42418 5.64001,6.63087 4.69439,7.57649 -0.94561,0.94561 -2.0804,0.53327 -3.89618,-1.41575 -2.58019,-2.76951 -13.75996,-8.98625 -16.16027,-8.98625 -1.78002,0 -1.62177,2.13603 0.27095,3.65724 9.17163,7.3714 11.06907,9.45462 10.52088,11.55093 -0.93381,3.57087 1.54868,4.08842 4.82898,1.00674 2.76609,-2.59861 3.35804,-2.68504 8.34496,-1.21843 2.95222,0.86823 7.58026,1.64607 10.28452,1.72856 4.30151,0.13119 5.2172,-0.36152 7.31686,-3.93703 3.0304,-5.16043 2.06809,-10.88732 -1.66539,-9.911 -3.04753,0.79695 -3.05672,-0.2912 -0.0586,-6.95313 1.31155,-2.91439 2.75188,-6.98638 3.20075,-9.04888 2.269,-10.42602 2.37088,-9.92188 -2.98258,-14.75841 -2.81056,-2.53912 -5.90619,-4.61659 -6.87922,-4.61659 -0.97305,0 -2.5183,-0.28745 -3.43391,-0.63878 -1.30115,-0.49927 -1.65963,1.52519 -1.64137,9.26958 0.019,8.05032 0.48074,10.41376 2.46247,12.60354 2.47433,2.7341 3.61234,10.82568 1.68967,12.01396 -2.29794,1.4202 -0.94567,4.2517 2.03053,4.2517 2.88751,0 5.66897,3.02622 5.66897,6.16782 0,2.53908 -10.69594,1.5028 -14.37729,-1.39295 l -3.46444,-2.72513 2.84123,-2.30069 c 2.73361,-2.21354 2.75722,-2.39353 0.62335,-4.75142 -1.88536,-2.0833 -1.96483,-2.75565 -0.53005,-4.48445 1.43731,-1.73185 1.36288,-2.27133 -0.50152,-3.63461 -1.86711,-1.36526 -2.06496,-2.81508 -1.34419,-9.85014 0.7582,-7.4005 0.53818,-8.70987 -2.13847,-12.72605 -2.78216,-4.17451 -3.32123,-4.42984 -7.98362,-3.78152 -2.75,0.3824 -6.31504,1.06267 -7.92231,1.51171 -2.5398,0.70957 -2.86703,0.42546 -2.5,-2.17057 0.41381,-2.9269 0.71156,-2.9943 14.79731,-3.34977 7.90625,-0.19952 15.5,-0.0781 16.875,0.2699 4.20091,1.0631 14.375,11.71291 14.375,15.04714 0,3.77708 3.07824,6.92073 6.77674,6.92073 2.86163,0 11.11837,-5.28594 14.30862,-9.16034 1.45723,-1.76972 1.41098,-2.53407 -0.3125,-5.16442 -1.89856,-2.89758 -1.8743,-3.16679 0.39496,-4.38126 3.34629,-1.79088 5.08218,-1.61763 5.08218,0.50725 0,3.68759 2.6763,3.22266 8.11281,-1.40938 4.63437,-3.94858 5.48092,-5.32574 4.93155,-8.02269 -0.9262,-4.54695 6.61588,-11.28001 12.16199,-10.85741 4.4632,0.34009 5.36213,1.94109 4.29218,7.64442 -0.74033,3.94625 -1.00512,4.11924 -5.73268,3.74527 -4.33929,-0.34325 -5.17957,0.0393 -6.748,3.07232 -3.09666,5.98828 -22.57406,23.64003 -30.49964,27.64085 -9.77775,4.93579 -14.01821,9.98901 -14.01821,16.70505 0,2.82032 -0.6716,6.98513 -1.49245,9.25514 -1.17228,3.24187 -1.14779,5.47209 0.11413,10.39584 1.45735,5.68626 1.37037,6.76251 -0.93636,11.58645 -2.14637,4.48862 -2.43206,6.87734 -1.83203,15.31791 0.63998,9.00265 0.32306,11.11201 -3.17772,21.14976 -4.5735,13.11356 -10.85687,20.9769 -14.74329,18.45051 z M 146.44714,478.5713 c -0.41537,-0.41536 -1.49349,-0.45977 -2.39583,-0.0987 -0.99717,0.39903 -0.70098,0.69523 0.7552,0.75521 1.31771,0.0543 2.05599,-0.24116 1.64063,-0.65653 z"
         id="path5464"
         inkscape:connector-curvature="0" />
      <path
         style="fill:#939292"
         d="m 252.04515,611.51401 c -0.71315,-0.85938 -1.68635,-5.5177 -2.16265,-10.35184 -0.70368,-7.14176 -0.37215,-10.38826 1.76858,-17.31917 1.44903,-4.6914 2.6346,-9.5554 2.6346,-10.80887 0,-3.19028 -3.36953,-6.20762 -6.93219,-6.20762 -2.09313,0 -3.60964,-1.17194 -5.00288,-3.86616 -2.67508,-5.17303 -1.51232,-5.87665 4.30675,-2.60616 2.66404,1.49728 6.86511,2.72232 9.33572,2.72232 5.98741,0 14.86832,-3.5982 14.06269,-5.69766 -0.71694,-1.8683 2.60842,-5.0905 3.91011,-3.78881 0.47837,0.47838 -0.34282,3.23042 -1.8249,6.11563 -2.26223,4.40396 -2.53022,6.24887 -1.66991,11.49584 1.27935,7.80262 -0.16999,18.27462 -3.54653,25.625 -1.42117,3.09375 -2.59631,6.28485 -2.61141,7.09135 -0.0376,2.00666 -7.33551,9.15865 -9.34555,9.15865 -0.89418,0 -2.20928,-0.70313 -2.92243,-1.5625 z m 4.74053,-8.6754 c 0,-1.64299 -2.84098,-0.61418 -3.46383,1.25437 -0.30447,0.91344 0.26699,1.19281 1.48438,0.72564 1.0887,-0.41777 1.97945,-1.30877 1.97945,-1.98001 z m 3.08578,-52.3985 c -1.14819,-3.5947 0.74179,-6.1136 4.58718,-6.1136 2.09623,0 3.96242,-0.7998 4.375,-1.875 0.39574,-1.03125 1.22183,-1.875 1.83578,-1.875 1.52784,0 1.4005,3.41145 -0.3032,8.12297 -1.2205,3.37521 -2.01052,3.91331 -5.63588,3.83875 -2.7205,-0.056 -4.44434,-0.80033 -4.85888,-2.09812 z m -21.18784,-1.07649 c -0.41229,-0.66708 1.14412,-3.2793 3.45868,-5.80492 3.85054,-4.20167 4.60429,-4.51775 8.86653,-3.71815 5.30384,0.99501 6.71988,3.29696 4.72348,7.67859 -1.23185,2.70361 -1.72511,2.87689 -4.53933,1.59465 -2.38491,-1.08664 -3.93617,-1.08369 -6.34112,0.0121 -3.87949,1.76762 -5.19148,1.81819 -6.16824,0.23776 z m -8.0853,-13.90462 c -4.45869,-2.4155 -7.5411,-6.13249 -5.08552,-6.13249 0.74324,0 1.67512,0.84375 2.07085,1.875 0.39572,1.03125 1.39556,1.875 2.22185,1.875 1.91037,0 6.55697,3.35192 5.72822,4.13216 -0.34267,0.32261 -2.5636,-0.46474 -4.9354,-1.74967 z m 24.93736,-2.38249 c 0,-2.00655 0.83333,-2.5 4.22194,-2.5 4.10707,0 7.83977,2.52162 6.18388,4.17751 -0.45237,0.45237 -2.97873,0.82249 -5.61415,0.82249 -3.95834,0 -4.79167,-0.43478 -4.79167,-2.5 z m -30.91967,-8.78568 c 0.10675,-8.72962 -7.11469,-15.81844 -16.94893,-16.63769 -3.21225,-0.26759 -6.66306,-1.16924 -7.66846,-2.00365 -1.00541,-0.83442 -4.8115,-2.27781 -8.45798,-3.20755 -11.76021,-2.99848 -26.18472,-8.85923 -30.20965,-12.27434 l -3.92031,-3.32635 3.45373,0.75721 c 2.03481,0.44612 4.24171,0.10327 5.37169,-0.83454 1.61788,-1.34272 2.7622,-0.76319 7.31411,3.70417 2.96789,2.91276 6.17563,5.15643 7.12832,4.98592 0.95268,-0.17051 3.27674,0.43905 5.16457,1.35457 2.97181,1.44121 3.73986,1.38636 5.72343,-0.40874 3.06182,-2.77091 3.4213,-2.66372 5.16228,1.53938 1.03912,2.50866 2.66122,3.84566 5.3079,4.375 5.82579,1.16515 13.26112,0.90841 14.12397,-0.48771 0.4249,-0.6875 1.37072,-1.25 2.10183,-1.25 0.856,0 0.79142,0.64808 -0.18139,1.82024 -1.99345,2.40197 -0.82563,4.04342 4.73754,6.65893 3.67269,1.72671 4.73689,3.0335 5.31564,6.52738 0.54526,3.29169 0.9559,3.84872 1.66595,2.25988 0.51828,-1.15972 1.7136,-1.81261 2.65627,-1.45087 2.06332,0.79177 7.21838,9.21189 6.23926,10.19101 -0.38032,0.38032 -2.7938,-0.37208 -5.3633,-1.67201 -6.13523,-3.10385 -6.90029,-3.03953 -7.91475,0.66544 -0.72806,2.65898 -0.84761,2.46726 -0.80172,-1.28568 z m 45.60717,1.67402 c -1.20312,-0.31441 -2.1875,-1.12989 -2.1875,-1.81217 0,-2.44958 2.62321,-6.07617 4.39506,-6.07617 1.41457,0 1.64454,-1.18607 1.05872,-5.46018 -0.86409,-6.30419 0.70362,-8.09523 3.9479,-4.51034 1.2672,1.40024 3.83798,2.47052 5.93413,2.47052 l 3.69835,0 -6.39208,6.0012 c -3.51564,3.30066 -6.39208,6.95691 -6.39208,8.125 0,2.17171 -0.26586,2.25431 -4.0625,1.26214 z m 17.8125,-16.70212 c 0,-0.72258 1.94181,-2.12513 4.31514,-3.11677 2.37332,-0.99164 5.88895,-3.77542 7.8125,-6.18618 1.92355,-2.41076 4.05986,-4.38371 4.74736,-4.38434 0.6875,-6.3e-4 3.44251,-2.26127 6.12225,-5.02363 2.67972,-2.76236 5.13494,-4.75978 5.45601,-4.43871 0.89038,0.89038 -13.32337,15.31877 -19.87074,20.1708 -5.92154,4.38827 -8.58252,5.31184 -8.58252,2.97883 z m -18.15659,-13.7192 c -1.97964,-2.06629 -5.75247,-4.33667 -8.3841,-5.04529 -5.12193,-1.3792 -5.29063,-3.67173 -0.27019,-3.67173 1.84419,0 4.39866,1.54487 6.48874,3.9242 1.89593,2.15831 4.21723,4.71635 5.15845,5.68453 0.94122,0.96817 1.46271,2.00891 1.15888,2.31275 -0.30385,0.30385 -2.17215,-1.13816 -4.15178,-3.20446 z m -20.82727,-4.96702 c -2.82383,-3.2181 -2.97236,-3.75 -1.04712,-3.75 1.91008,0 6.28098,4.75367 6.28098,6.83102 0,1.66309 -2.21528,0.35902 -5.23386,-3.08102 z m 49.54155,2.39108 c -0.46193,-0.7474 -0.26598,-1.93279 0.43542,-2.6342 0.86705,-0.86704 1.72658,-0.43203 2.68507,1.35892 1.13778,2.12596 1.05377,2.6342 -0.43543,2.6342 -1.01486,0 -2.22314,-0.61151 -2.68506,-1.35892 z m -66.80769,-4.34712 c 0,-2.07676 4.97829,-3.16786 9.24608,-2.02648 3.25803,0.87134 3.05577,1.02941 -2.87054,2.2434 -4.8934,1.0024 -6.37554,0.95197 -6.37554,-0.21692 z m -91.19032,-4.23062 c -0.99842,-0.63161 -2.26405,-0.87105 -2.8125,-0.53209 -0.54845,0.33896 -0.99718,-0.84295 -0.99718,-2.62646 0,-2.81867 0.3162,-3.07352 2.41782,-1.94877 1.32981,0.71169 4.5973,1.29398 7.26109,1.29398 2.6638,0 5.88136,0.75907 7.15014,1.68683 2.09223,1.52987 1.95377,1.635 -1.48806,1.12985 -2.08721,-0.30634 -4.176,0.0596 -4.64173,0.81317 -1.02614,1.66032 -4.4125,1.7505 -6.88958,0.18349 z m 180.87782,-4.675 c -3.00401,-0.78503 -2.74049,-3.18305 0.70556,-6.42045 3.14562,-2.95515 6.46269,-3.52159 7.81441,-1.33444 0.60278,0.9753 1.14824,0.90903 1.84888,-0.22462 0.81754,-1.32282 0.89672,3.82161 0.12163,7.90367 -0.18832,0.99178 -6.80258,1.0396 -10.49051,0.0758 z m -180.9375,-4.13834 c 0,-0.6875 0.84375,-1.25 1.875,-1.25 1.03125,0 1.875,0.5625 1.875,1.25 0,0.6875 -0.84375,1.25 -1.875,1.25 -1.03125,0 -1.875,-0.5625 -1.875,-1.25 z"
         id="path5462"
         inkscape:connector-curvature="0" />
      <path
         style="fill:#83807e"
         d="m 253.03568,608.07651 c 2.46265,-1.59149 5.35859,-1.59149 4.375,0 -0.4249,0.6875 -2.00497,1.24139 -3.51127,1.23086 -2.22654,-0.0156 -2.38807,-0.24575 -0.86373,-1.23086 z m -1.9554,-11.75033 c -0.41417,-1.65017 0.22545,-6.57204 1.42138,-10.9375 1.19592,-4.36544 2.41592,-10.22038 2.7111,-13.01096 0.46101,-4.35841 0.13131,-5.25467 -2.33842,-6.3567 -2.42992,-1.08426 -1.53933,-1.40764 5.75167,-2.08848 4.74473,-0.44308 8.88308,-0.54928 9.19636,-0.23602 0.31326,0.31327 -0.16832,1.45866 -1.07015,2.54531 -1.3614,1.64039 -1.34719,1.91073 0.0837,1.59271 3.07377,-0.68313 3.88087,15.24303 1.18626,23.4078 -1.24944,3.78583 -1.95454,4.42498 -4.2469,3.84963 -1.81819,-0.45634 -3.46245,0.14366 -4.85695,1.77233 -2.94925,3.44447 -6.9067,3.17278 -7.83808,-0.53812 z m 14.4554,-20.08544 c 0,-1.11824 -0.73286,-1.55454 -1.875,-1.11626 -1.03125,0.39573 -1.875,1.22182 -1.875,1.83577 0,0.61394 0.84375,1.11626 1.875,1.11626 1.03125,0 1.875,-0.8261 1.875,-1.83577 z m -21.66667,-12.74756 c -0.45833,-0.45834 -0.83333,-1.41459 -0.83333,-2.125 0,-0.78326 0.58221,-0.70946 1.47917,0.1875 0.81354,0.81354 1.18854,1.76979 0.83333,2.125 -0.35521,0.3552 -1.02083,0.27083 -1.47917,-0.1875 z m -3.33333,-15.11436 c 0,-0.66834 1.16583,-2.69727 2.59073,-4.50874 3.96186,-5.03669 13.23165,-4.10127 12.20101,1.23121 -0.3506,1.814 -1.59076,2.36811 -5.43549,2.42861 -2.73969,0.0431 -5.96562,0.52518 -7.16875,1.07124 -1.26406,0.57372 -2.1875,0.47987 -2.1875,-0.22232 z m 17.12221,-13.59677 c -1.82986,-1.82986 -0.73379,-2.95554 2.87779,-2.95554 2.0625,0 3.75,0.5625 3.75,1.25 0,0.6875 -0.5165,1.25 -1.14776,1.25 -0.63128,0 -1.92628,0.29874 -2.8778,0.66387 -0.95151,0.36513 -2.12252,0.27138 -2.60223,-0.20833 z m -26.64721,-12.27068 c -0.38309,-0.99833 -0.31536,-2.43189 0.15052,-3.1857 1.06813,-1.72826 4.37448,0.75002 4.37448,3.2789 0,2.28965 -3.63938,2.21469 -4.525,-0.0932 z m 39.525,-0.75863 c 0,-0.72807 0.5625,-0.97613 1.25,-0.55123 0.6875,0.4249 1.25,1.02059 1.25,1.32377 0,0.30318 -0.5625,0.55123 -1.25,0.55123 -0.6875,0 -1.25,-0.5957 -1.25,-1.32377 z M 169.65972,494.19398 c -4.71508,-1.36358 -6.38429,-3.45996 -3.97168,-4.98808 2.73061,-1.72955 4.02502,-1.24125 7.13021,2.68977 3.11915,3.94868 2.95678,4.06683 -3.15853,2.29831 z m -27.87404,-11.11747 c 0,-0.6875 0.84375,-1.25 1.875,-1.25 1.03125,0 1.875,0.5625 1.875,1.25 0,0.6875 -0.84375,1.25 -1.875,1.25 -1.03125,0 -1.875,-0.5625 -1.875,-1.25 z m 180,-5.43127 c 0,-0.92469 1.13046,-2.70432 2.51215,-3.95472 2.19099,-1.98282 2.91009,-2.06049 5.625,-0.60751 3.08459,1.65082 3.93871,3.75097 2.2232,5.46648 -0.4893,0.4893 -1.94344,-0.40132 -3.23141,-1.97917 l -2.34178,-2.86881 0.61439,2.8125 c 0.50413,2.3077 0.0745,2.8125 -2.39357,2.8125 -1.68638,0 -3.00798,-0.73869 -3.00798,-1.68127 z"
         id="path5460"
         inkscape:connector-curvature="0" />
      <path
         style="fill:#807e7d"
         d="m 251.92941,596.37468 c -0.87849,-1.05851 -1.17373,-3.28478 -0.71162,-5.36611 1.37554,-6.19544 4.4063,-15.97481 5.66315,-18.27335 0.78903,-1.44297 0.77374,-3.03496 -0.0438,-4.56255 -1.43951,-2.68975 0.42438,-3.87395 5.98828,-3.80457 l 3.33526,0.0416 -2.8125,2.34628 c -3.2815,2.73753 -3.54725,3.82055 -0.9375,3.82055 1.03125,0 1.875,0.78357 1.875,1.74126 0,0.9577 -0.84375,2.06504 -1.875,2.46077 -2.41129,0.9253 -2.42457,4.06961 -0.0211,4.99192 1.11489,0.42782 1.54048,1.52825 1.06762,2.76051 -0.58575,1.52644 -0.18183,1.9322 1.58357,1.59083 1.83466,-0.35478 2.28098,-1.34348 1.97619,-4.37783 -0.21654,-2.15575 0.20534,-4.28977 0.9375,-4.74227 2.20422,-1.36229 2.04037,7.29215 -0.27121,14.32481 -1.90733,5.80274 -1.78515,5.71547 -4.52759,3.2336 -2.29633,-2.07815 -2.46494,-2.0225 -4.07968,1.34654 -1.93665,4.04067 -4.97158,5.08877 -7.1466,2.46803 z m 5.48127,-9.54817 c 0.4249,-0.6875 0.17685,-1.25 -0.55123,-1.25 -0.72807,0 -1.32377,0.5625 -1.32377,1.25 0,0.6875 0.24805,1.25 0.55123,1.25 0.30317,0 0.89887,-0.5625 1.32377,-1.25 z m -15.625,-40.02391 c 0,-2.31832 5.00355,-6.22609 7.97194,-6.22609 3.38098,0 6.7807,3.30075 5.03758,4.89094 -1.75336,1.59953 -13.00952,2.75473 -13.00952,1.33515 z m 15,-13.72609 c 0,-0.6875 1.37305,-1.25 3.05123,-1.25 1.67817,0 3.39887,0.5625 3.82377,1.25 0.45072,0.72928 -0.82035,1.25 -3.05122,1.25 -2.10308,0 -3.82378,-0.5625 -3.82378,-1.25 z m -25.57162,-11.16363 c -0.85384,-1.38154 1.11801,-2.87331 2.27227,-1.71905 1.18848,1.18848 0.96698,2.88268 -0.37688,2.88268 -0.64692,0 -1.49985,-0.52363 -1.89539,-1.16363 z m -65.67838,-30.57763 c 0,-2.88397 3.59028,-3.39283 5.02491,-0.71219 1.14425,2.13805 0.90566,2.45345 -1.85593,2.45345 -1.87536,0 -3.16898,-0.71081 -3.16898,-1.74126 z m 156.96254,-13.11711 c -0.37676,-0.6096 0.15255,-1.80347 1.17622,-2.65305 1.54889,-1.28547 1.86124,-1.09946 1.86124,1.10836 0,2.68171 -1.77643,3.5851 -3.03746,1.54469 z m 8.03746,-2.0904 c 0,-1.07183 0.5625,-1.60113 1.25,-1.17623 0.6875,0.4249 1.25,1.30184 1.25,1.94877 0,0.64693 -0.5625,1.17623 -1.25,1.17623 -0.6875,0 -1.25,-0.87695 -1.25,-1.94877 z"
         id="path5458"
         inkscape:connector-curvature="0" />
      <path
         style="fill:#757373"
         d="m 252.03922,595.96497 c -1.41098,-2.73967 -0.63796,-5.38846 1.57257,-5.38846 0.88978,0 2.31803,-0.84375 3.17389,-1.875 1.77801,-2.14238 8.19894,-2.52791 9.412,-0.56514 0.44524,0.72041 0.46,2.22073 0.0328,3.33401 -0.59201,1.54278 -1.12374,1.67718 -2.23576,0.56515 -2.34343,-2.34342 -4.45438,-1.70156 -6.20332,1.88618 -2.04548,4.19604 -4.24167,4.97616 -5.75217,2.04326 z m 1.72604,-11.59744 c 0.46107,-2.38368 1.28822,-5.19618 1.83812,-6.24999 0.54989,-1.05382 1.30446,-2.90041 1.67682,-4.10353 0.37236,-1.20313 1.88437,-2.1875 3.36002,-2.1875 2.5932,0 2.61262,0.10739 0.5806,3.20865 -1.61627,2.46673 -1.76914,3.61021 -0.66115,4.94525 1.81532,2.18733 0.55583,4.3461 -2.53565,4.3461 -1.30026,0 -2.97903,0.98437 -3.7306,2.1875 -1.07702,1.72414 -1.1889,1.26946 -0.52816,-2.14648 z m 14.46778,-6.29102 c 0,-1.71875 0.28373,-2.42188 0.63049,-1.5625 0.34676,0.85937 0.34676,2.26562 0,3.125 -0.34676,0.85937 -0.63049,0.15625 -0.63049,-1.5625 z m -10.82236,-11.25 c -0.4249,-0.6875 -0.31747,-1.25768 0.23873,-1.26707 0.5562,-0.009 2.41752,-0.38818 4.13627,-0.84177 2.80584,-0.74047 2.94979,-0.61106 1.40945,1.26707 -1.92065,2.34184 -4.61503,2.73393 -5.78445,0.84177 z m -15.625,-19.69787 c 0,-1.76512 5.59215,-6.55213 7.65415,-6.55213 1.02741,0 2.9045,0.75789 4.1713,1.6842 1.8486,1.35173 1.96991,1.89022 0.61454,2.72789 -0.92881,0.57403 -2.84215,1.11595 -4.25187,1.20426 -1.40971,0.0883 -3.82874,0.58616 -5.37562,1.10634 -1.54687,0.52018 -2.8125,0.44342 -2.8125,-0.17056 z m 15.625,-14.05213 c 0.4249,-0.6875 1.5499,-1.25 2.5,-1.25 0.9501,0 2.0751,0.5625 2.5,1.25 0.43989,0.71175 -0.63661,1.25 -2.5,1.25 -1.86339,0 -2.93989,-0.53825 -2.5,-1.25 z m -25.625,-11.25 c 0,-0.6875 0.5625,-1.25 1.25,-1.25 0.6875,0 1.25,0.5625 1.25,1.25 0,0.6875 -0.5625,1.25 -1.25,1.25 -0.6875,0 -1.25,-0.5625 -1.25,-1.25 z M 166.403,492.27716 c -1.16656,-1.16655 0.24315,-2.95065 2.33145,-2.95065 0.99068,0 1.80123,0.84375 1.80123,1.875 0,1.88279 -2.63874,2.56959 -4.13268,1.07565 z m 156.63268,-15.52442 c 0,-0.72808 0.5625,-0.97613 1.25,-0.55123 0.6875,0.4249 1.25,1.02059 1.25,1.32377 0,0.30318 -0.5625,0.55123 -1.25,0.55123 -0.6875,0 -1.25,-0.5957 -1.25,-1.32377 z m 7.5,-0.625 c 0,-1.07183 0.5625,-1.60113 1.25,-1.17623 0.6875,0.4249 1.25,1.30184 1.25,1.94877 0,0.64693 -0.5625,1.17623 -1.25,1.17623 -0.6875,0 -1.25,-0.87695 -1.25,-1.94877 z"
         id="path5456"
         inkscape:connector-curvature="0" />
    </g>
  </g>
</svg>
