<?xml version="1.0" encoding="UTF-8" standalone="no"?>
<!-- Created with Inkscape (http://www.inkscape.org/) -->

<svg
   xmlns:dc="http://purl.org/dc/elements/1.1/"
   xmlns:cc="http://creativecommons.org/ns#"
   xmlns:rdf="http://www.w3.org/1999/02/22-rdf-syntax-ns#"
   xmlns:svg="http://www.w3.org/2000/svg"
   xmlns="http://www.w3.org/2000/svg"
   xmlns:sodipodi="http://sodipodi.sourceforge.net/DTD/sodipodi-0.dtd"
   xmlns:inkscape="http://www.inkscape.org/namespaces/inkscape"
   width="210mm"
   height="297mm"
   viewBox="0 0 744.09448819 1052.3622047"
   id="svg4182"
   version="1.1"
   inkscape:version="0.91 r13725"
   sodipodi:docname="crossbow.svg">
  <defs
     id="defs4184" />
  <sodipodi:namedview
     id="base"
     pagecolor="#ffffff"
     bordercolor="#666666"
     borderopacity="1.0"
     inkscape:pageopacity="0.0"
     inkscape:pageshadow="2"
     inkscape:zoom="1.4"
     inkscape:cx="155.49634"
     inkscape:cy="647.76695"
     inkscape:document-units="px"
     inkscape:current-layer="layer1"
     showgrid="false"
     inkscape:window-width="1215"
     inkscape:window-height="1000"
     inkscape:window-x="65"
     inkscape:window-y="24"
     inkscape:window-maximized="1" />
  <metadata
     id="metadata4187">
    <rdf:RDF>
      <cc:Work
         rdf:about="">
        <dc:format>image/svg+xml</dc:format>
        <dc:type
           rdf:resource="http://purl.org/dc/dcmitype/StillImage" />
        <dc:title></dc:title>
      </cc:Work>
    </rdf:RDF>
  </metadata>
  <g
     inkscape:label="Layer 1"
     inkscape:groupmode="layer"
     id="layer1">
    <g
       id="g4741"
       transform="translate(-20.714286,-169.28571)">
      <path
         style="fill:#e7e7e7"
         d="m 170.40177,449.85972 c -3.88587,-0.58866 -4.53004,-2.5232 -1.25,-3.75395 3.51027,-1.31714 5.071,-4.18442 7.12925,-13.09749 1.98529,-8.59712 2.46837,-18.25493 1.15765,-23.14387 -0.45829,-1.70938 -2.95813,-3.808 -6.54543,-5.49489 -3.19219,-1.50109 -12.65892,-6.44406 -21.03718,-10.98437 -15.0706,-8.16699 -18.70963,-11.54439 -17.06276,-15.83605 1.77581,-4.62769 10.28863,-4.69936 12.05301,-0.10147 0.37188,0.96913 3.39622,2.41458 6.72076,3.21212 5.26272,1.26251 7.17497,1.10434 14.7834,-1.22282 5.53353,-1.69252 9.65833,-3.80351 11.2458,-5.75537 1.67434,-2.05866 4.26023,-3.31762 7.78561,-3.79047 4.75782,-0.63816 5.64647,-0.31421 9.00713,3.28338 3.01328,3.22573 5.27066,4.24694 11.76762,5.32352 7.04945,1.16813 9.12075,1.00358 16.82553,-1.33668 9.61362,-2.92004 15.24904,-2.17907 15.21297,2.00029 -0.0329,3.80699 -1.61485,5.06743 -11.88361,9.46819 -21.24773,9.10589 -35.69492,19.31031 -33.91308,23.95369 0.40555,1.05686 2.19864,1.92156 3.98463,1.92156 2.80501,0 3.19339,0.46815 2.85173,3.4375 -0.31314,2.72146 -1.12795,3.52147 -3.91165,3.84062 -3.50593,0.40194 -3.51376,0.4237 -2.70087,7.5 0.44839,3.90328 1.44954,8.94994 2.22477,11.2148 1.67392,4.89036 0.27861,7.89906 -4.25108,9.16655 -3.27433,0.91622 -14.70527,1.02672 -20.1942,0.19521 z m 32.8125,-54.81764 c 0,-0.34375 -1.125,-0.0229 -2.5,0.71296 -1.375,0.73588 -2.5,1.61921 -2.5,1.96296 0,0.34375 1.125,0.0229 2.5,-0.71296 1.375,-0.73588 2.5,-1.61921 2.5,-1.96296 z"
         id="path4755"
         inkscape:connector-curvature="0" />
      <path
         style="fill:#d1d0d0"
         d="m 172.69542,448.42679 c -0.45414,-0.73481 0.34561,-3.63197 1.77721,-6.43814 3.49573,-6.85221 5.78048,-22.92017 4.27723,-30.08049 -1.05059,-5.00417 -1.77573,-5.84004 -7.65081,-8.81912 -17.43111,-8.83879 -33.73666,-17.76177 -35.75231,-19.56494 -1.23338,-1.10337 -2.07713,-3.16216 -1.875,-4.57509 0.5145,-3.59626 6.64689,-4.16435 10.18521,-0.94352 3.80612,3.46458 11.33631,5.60245 16.12415,4.57775 9.03392,-1.93346 15.48357,-4.76639 18.67521,-8.20287 4.69417,-5.05427 11.11014,-5.03297 15.76592,0.0523 5.95634,6.50585 17.23084,7.84217 30.59058,3.62577 7.99351,-2.52279 8.67906,-2.56155 10.63907,-0.60154 1.60163,1.60162 1.77792,2.59771 0.74855,4.2296 -1.74347,2.76396 -14.80834,7.81849 -20.20912,7.81849 -4.54803,0 -15.77952,4.25052 -19.41646,7.34809 -1.24543,1.06073 -2.0126,2.89159 -1.70481,4.06856 0.30778,1.17698 -0.53207,3.93508 -1.86635,6.12912 -3.21394,5.28491 -2.62863,9.32923 1.35018,9.32923 3.12793,0 5.34305,3.01476 2.40207,3.26919 -0.91667,0.0793 -2.51042,0.21992 -3.54167,0.3125 -1.51898,0.13635 -1.79041,1.82974 -1.42948,8.91831 0.24504,4.8125 1.20531,10.22233 2.13394,12.02184 1.41927,2.75029 1.41768,3.64209 -0.01,5.5945 -1.32757,1.81555 -3.73854,2.42567 -11.04302,2.79453 -5.78509,0.29214 -9.65917,-0.037 -10.17034,-0.86412 z m 0.13664,-50.90309 c -3.36908,-2.89978 -8.36779,-4.10345 -8.36779,-2.01493 0,1.23988 10.38567,6.42627 11.25,5.61803 0.34375,-0.32144 -0.95324,-1.94284 -2.88221,-3.6031 z"
         id="path4753"
         inkscape:connector-curvature="0" />
      <path
         style="fill:#b0b0b0"
         d="m 174.74904,448.45749 c -1.24851,-0.79239 -1.05136,-2.22748 0.91743,-6.67827 4.68077,-10.58165 5.20588,-21.44298 1.84265,-38.11354 -1.37631,-6.82201 -5.80771,-9.78045 -14.70821,-9.81933 -4.83539,-0.0211 -9.22685,-0.83701 -11.77414,-2.1875 -2.23438,-1.1846 -5.89063,-3.0799 -8.125,-4.21179 -5.71669,-2.89595 -8.4375,-5.47633 -8.4375,-8.00202 0,-3.45859 3.87978,-4.10322 7.43813,-1.23586 5.34046,4.30343 9.1241,5.54217 16.46973,5.39209 8.77443,-0.17927 18.99205,-4.36121 20.90302,-8.55533 1.9534,-4.28726 10.2224,-4.35703 13.55964,-0.11441 1.26609,1.60957 3.69754,3.67397 5.40323,4.58757 4.62799,2.47883 19.38947,2.18695 27.84777,-0.55063 5.569,-1.80244 7.58807,-2.00384 8.7219,-0.87 3.04499,3.04499 -0.83913,5.70702 -11.45737,7.85249 -11.30383,2.28399 -25.24725,7.72387 -28.22141,11.01029 -1.05241,1.16289 -2.10618,3.76953 -2.34172,5.79253 -0.23555,2.02301 -1.02905,4.80077 -1.76334,6.1728 -1.85877,3.47315 -0.697,25.98154 1.6283,31.54675 2.18289,5.2244 1.4696,6.29641 -5.22255,7.84906 -6.03218,1.39953 -10.61142,1.44832 -12.68056,0.1351 z m 17.78685,-63.86608 c 0.92442,-1.49575 -1.42703,-2.97778 -3.09201,-1.94877 -1.39795,0.86398 -0.48021,3.1124 1.27039,3.1124 0.60635,0 1.42608,-0.52363 1.82162,-1.16363 z"
         id="path4751"
         inkscape:connector-curvature="0" />
      <path
         style="fill:#908f8e"
         d="m 175.11109,447.04035 c -0.4129,-0.66808 0.0706,-2.49621 1.07448,-4.0625 4.29156,-6.69599 5.75236,-19.46809 3.95119,-34.5461 -0.83693,-7.00611 -1.52276,-8.50465 -5.78568,-12.64167 -4.60737,-4.4713 -4.72981,-4.78966 -2.58762,-6.72831 3.20251,-2.89823 8.90991,-0.23391 8.98264,4.19327 l 0.0513,3.125 2.2766,-2.72645 c 2.11309,-2.53063 2.42434,-2.57873 4.33342,-0.66965 1.90908,1.90909 2.05681,1.85801 2.05681,-0.71104 0,-2.94989 2.3568,-3.66106 4.62289,-1.39497 0.99719,0.99719 1.8443,0.39856 3.09551,-2.1875 1.2743,-2.6338 2.46537,-3.45533 4.57664,-3.15669 1.56971,0.22203 3.661,-0.26603 4.64731,-1.0846 0.98631,-0.81856 3.28952,-1.20227 5.11826,-0.85268 1.89193,0.36167 6.87604,-0.65242 11.56426,-2.35291 9.82673,-3.56429 11.69708,-3.69888 11.13152,-0.80101 -0.30213,1.54806 -1.69915,2.2276 -4.77916,2.32468 -5.82877,0.18372 -13.00498,2.26209 -20.80811,6.02644 -3.54077,1.70813 -7.92837,3.4798 -9.75022,3.93706 -8.0649,2.02416 -11.44138,16.22455 -9.16175,38.53147 0.48519,4.74769 1.46956,9.21956 2.1875,9.9375 2.31151,2.31151 1.40137,4.27732 -2.63118,5.68307 -4.87264,1.69861 -13.15729,1.79077 -14.16665,0.15759 z m -22.52182,-55.95127 c -1.375,-0.34427 -3.90625,-1.57207 -5.625,-2.72844 -1.71875,-1.15637 -4.68766,-2.77332 -6.59758,-3.59323 -3.84756,-1.65171 -5.63282,-4.78197 -3.78255,-6.63224 0.76911,-0.76911 2.29159,-0.35242 4.22848,1.15728 5.40761,4.21493 10.92771,6.46259 15.87168,6.46259 3.55092,0 5.62796,0.83429 7.77997,3.125 l 2.93578,3.125 -6.15539,-0.145 c -3.38546,-0.0798 -7.28039,-0.42668 -8.65539,-0.77096 z m 26.875,-13.30598 c 0,-0.94707 0.84375,-2.4222 1.875,-3.27806 1.53563,-1.27446 1.875,-1.18904 1.875,0.47194 0,2.34118 5.58892,2.85898 6.95748,0.64461 0.59579,-0.96401 1.17527,-0.86926 1.91129,0.3125 1.21078,1.94403 -2.02144,3.24592 -8.55627,3.44635 -2.67759,0.0821 -4.0625,-0.46241 -4.0625,-1.59734 z"
         id="path4749"
         inkscape:connector-curvature="0" />
      <path
         style="fill:#81807e"
         d="m 176.44468,447.1756 c -0.42688,-0.69071 0.37674,-3.46769 1.78582,-6.17108 1.40909,-2.70338 2.90398,-7.80294 3.32198,-11.33236 0.4982,-4.20646 1.34596,-6.41712 2.4609,-6.41712 2.22082,0 2.19556,-2.04271 -0.0358,-2.89897 -1.16878,-0.4485 -2.02544,-3.92786 -2.61954,-10.6394 -0.77824,-8.79161 -1.31286,-10.38496 -4.51328,-13.45115 -4.44808,-4.26154 -4.56264,-5.51048 -0.50546,-5.51048 2.29869,0 3.125,0.66554 3.125,2.51696 0,2.83836 1.98998,6.77919 5.49597,10.8839 1.84336,2.15815 2.04855,3.16434 0.92208,4.52165 -1.11296,1.34103 -1.04309,2.08257 0.30135,3.19835 1.161,0.96355 1.76599,4.18466 1.79704,9.56794 0.0258,4.46346 0.40951,9.76667 0.85279,11.78491 0.7321,3.33325 0.36836,3.87139 -3.96913,5.87207 l -4.7751,2.20253 5.9375,0.41934 c 6.03651,0.42632 8.34399,3.1841 3.75,4.4818 -5.73122,1.61895 -12.62152,2.12084 -13.33209,0.97111 z m 14.26959,-53.29556 c 0,-1.03125 0.5625,-1.875 1.25,-1.875 0.6875,0 1.25,0.84375 1.25,1.875 0,1.03125 -0.5625,1.875 -1.25,1.875 -0.6875,0 -1.25,-0.84375 -1.25,-1.875 z m 7.72839,-4.0128 c 0.22975,-1.19297 2.06573,-2.50576 4.15416,-2.97036 2.05835,-0.45792 4.72682,-1.24359 5.92995,-1.74594 1.29828,-0.54209 2.1875,-0.36359 2.1875,0.43912 0,1.17238 -9.72363,6.41498 -11.89808,6.41498 -0.43187,0 -0.59996,-0.96201 -0.37353,-2.1378 z m -43.78083,-0.21365 c -1.20956,-0.76662 -0.68659,-1.25914 1.875,-1.7658 2.22719,-0.44051 4.23526,-0.0367 5.3828,1.08231 1.59635,1.55674 1.35664,1.78249 -1.875,1.7658 -2.03795,-0.0105 -4.46021,-0.49757 -5.3828,-1.08231 z m -5.89615,-1.9838 c -1.33453,-1.00938 -1.79216,-1.85313 -1.01697,-1.875 0.7752,-0.0219 2.1097,0.804 2.96556,1.83525 1.97599,2.38092 1.16849,2.3974 -1.94859,0.0397 z m -9.61391,-4.90481 c -3.5154,-2.66857 -2.64974,-4.96308 0.89822,-2.3808 3.02077,2.19859 4.09107,4.16016 2.22678,4.08111 -0.51563,-0.0219 -1.92188,-0.787 -3.125,-1.70031 z m 90.9375,-2.00994 c 0.4249,-0.6875 1.30185,-1.25 1.94877,-1.25 0.64693,0 1.17623,0.5625 1.17623,1.25 0,0.6875 -0.87695,1.25 -1.94878,1.25 -1.07182,0 -1.60112,-0.5625 -1.17622,-1.25 z"
         id="path4747"
         inkscape:connector-curvature="0" />
      <path
         style="fill:#807e7c"
         d="m 175.71427,445.9081 c 0,-2.31672 3.35637,-3.49906 9.13468,-3.21785 7.28985,0.35478 8.58667,1.31726 4.08231,3.02982 -4.12849,1.56964 -13.21699,1.69894 -13.21699,0.18803 z m 5.84448,-13.0548 c 1.21948,-11.18823 6.59602,-12.2277 6.63638,-1.28304 0.0171,4.62858 -0.37913,5.32905 -3.6614,6.47326 l -3.68054,1.28304 0.70556,-6.47326 z m 1.90552,-14.84826 c -0.825,-0.825 -1.5,-2.55374 -1.5,-3.84166 0,-3.81133 4.30925,-2.08164 4.77053,1.91485 0.42118,3.64905 -0.81815,4.37919 -3.27053,1.92681 z m -1.90514,-10.25279 c -0.7814,-2.0363 0.26845,-3.47923 1.82949,-2.51446 1.41991,0.87756 1.38765,4.26725 -0.0406,4.26725 -0.61395,0 -1.41894,-0.78876 -1.78888,-1.75279 z m -5.72938,-12.46892 c -1.31793,-1.5986 -1.40159,-2.49218 -0.33334,-3.56043 1.89219,-1.89219 3.01772,-0.59837 2.50636,2.88108 -0.38283,2.60493 -0.544,2.65531 -2.17302,0.67935 z m -18.24048,-5.77829 c -0.4249,-0.6875 0.0712,-1.25 1.10246,-1.25 1.03125,0 2.22264,0.5625 2.64754,1.25 0.4249,0.6875 -0.0712,1.25 -1.10246,1.25 -1.03125,0 -2.22264,-0.5625 -2.64754,-1.25 z m 40.94787,-0.3125 c 0.29217,-0.85938 1.97656,-1.5625 3.74309,-1.5625 1.76654,0 3.63687,-0.42188 4.1563,-0.9375 0.51942,-0.51563 1.55378,-0.93379 2.29857,-0.92926 0.74479,0.005 -0.33333,1.12582 -2.39583,2.49176 -4.21745,2.79311 -8.61253,3.32122 -7.80213,0.9375 z"
         id="path4745"
         inkscape:connector-curvature="0" />
      <path
         style="fill:#767573"
         d="m 176.02136,445.44254 c 0.60208,-1.82521 14.69291,-2.93397 14.69291,-1.15613 0,1.3082 -5.97162,2.71863 -11.51042,2.71863 -2.39989,0 -3.51699,-0.54846 -3.18249,-1.5625 z m 7.00541,-14.6875 c -0.52461,-3.49743 -0.26365,-4.16219 1.75,-4.45773 2.32218,-0.34083 2.65631,0.53157 1.42876,3.7305 -0.84429,2.2002 -2.88769,2.66768 -3.17876,0.72723 z m -0.5875,-14.31514 c -0.38309,-0.99833 -0.34742,-2.38001 0.0793,-3.07041 1.20783,-1.9543 4.44574,-0.11946 4.44574,2.51929 0,2.77238 -3.50863,3.19972 -4.525,0.55112 z m -7.13734,-22.45641 c -0.37389,-0.97435 0.12843,-2.0817 1.11627,-2.46077 1.18659,-0.45534 1.79607,0.14582 1.79607,1.77155 0,2.84434 -1.91173,3.29676 -2.91234,0.68922 z m 23.73787,-5.17529 c 0.41089,-1.07076 1.56424,-1.63326 2.56301,-1.25 0.99876,0.38326 2.08437,0.69684 2.41246,0.69684 0.3281,0 0.2489,0.5625 -0.176,1.25 -1.32108,2.13755 -5.64615,1.50959 -4.79947,-0.69684 z"
         id="path4743"
         inkscape:connector-curvature="0" />
    </g>
  </g>
</svg>
