<?xml version="1.0" encoding="UTF-8" standalone="no"?>
<!-- Created with Inkscape (http://www.inkscape.org/) -->

<svg
   xmlns:dc="http://purl.org/dc/elements/1.1/"
   xmlns:cc="http://creativecommons.org/ns#"
   xmlns:rdf="http://www.w3.org/1999/02/22-rdf-syntax-ns#"
   xmlns:svg="http://www.w3.org/2000/svg"
   xmlns="http://www.w3.org/2000/svg"
   xmlns:sodipodi="http://sodipodi.sourceforge.net/DTD/sodipodi-0.dtd"
   xmlns:inkscape="http://www.inkscape.org/namespaces/inkscape"
   width="210mm"
   height="297mm"
   viewBox="0 0 744.09448819 1052.3622047"
   id="svg4247"
   version="1.1"
   inkscape:version="0.91 r13725"
   sodipodi:docname="hand1.svg">
  <defs
     id="defs4249" />
  <sodipodi:namedview
     id="base"
     pagecolor="#ffffff"
     bordercolor="#666666"
     borderopacity="1.0"
     inkscape:pageopacity="0.0"
     inkscape:pageshadow="2"
     inkscape:zoom="1.4"
     inkscape:cx="492.8137"
     inkscape:cy="581.78865"
     inkscape:document-units="px"
     inkscape:current-layer="layer1"
     showgrid="false"
     inkscape:window-width="1215"
     inkscape:window-height="1000"
     inkscape:window-x="65"
     inkscape:window-y="24"
     inkscape:window-maximized="1" />
  <metadata
     id="metadata4252">
    <rdf:RDF>
      <cc:Work
         rdf:about="">
        <dc:format>image/svg+xml</dc:format>
        <dc:type
           rdf:resource="http://purl.org/dc/dcmitype/StillImage" />
        <dc:title></dc:title>
      </cc:Work>
    </rdf:RDF>
  </metadata>
  <g
     inkscape:label="Layer 1"
     inkscape:groupmode="layer"
     id="layer1">
    <g
       id="g4266"
       transform="translate(-957.14286,-600)"
       inkscape:export-xdpi="299"
       inkscape:export-ydpi="299">
      <path
         style="fill:#fcfcfc"
         d="m 1235.3572,946.64795 0,-80 67.5,0 67.5,0 0,80 0,80.00005 -67.5,0 -67.5,0 0,-80.00005 z"
         id="path4280"
         inkscape:connector-curvature="0" />
      <path
         style="fill:#ced4c4"
         d="m 1276.6072,1025.5613 c 0,-0.5976 -3.2344,-2.4991 -7.1875,-4.2256 -8.8023,-3.8442 -23.6462,-18.5438 -24.8614,-24.61967 -0.7156,-3.57814 -4.6694,-7.25148 -7.0671,-6.5658 -0.5451,0.15587 -0.3738,-0.87002 0.3807,-2.27975 1.2094,-2.25972 10.0225,-7.06968 20.2978,-11.07799 1.9892,-0.77598 3.4375,-2.29376 3.4375,-3.60246 0,-1.24383 1.6646,-4.20902 3.6992,-6.5893 2.0346,-2.38028 3.7221,-4.98775 3.75,-5.79437 0.028,-0.80663 1.3802,-3.05663 3.005,-5 7.0872,-8.47677 10.4319,-18.87493 8.4177,-26.1695 -1.1266,-4.08036 -0.8834,-5.42316 1.9129,-10.56091 5.7905,-10.63897 15.5898,-21.05326 27.0402,-28.73709 11.1929,-7.51101 19.2005,-10.87012 22.7062,-9.52489 2.5433,0.97596 2.5177,4.40559 -0.054,7.24733 -2.5549,2.82313 -3.7513,12.86514 -1.9627,16.47425 0.7462,1.50557 1.5315,3.8496 1.7452,5.20895 0.2479,1.57678 2.9337,3.73139 7.4189,5.95156 6.8553,3.3934 7.2693,3.44445 16.6362,2.0513 11.7491,-1.74746 12.6247,-1.14312 12.3002,8.48878 -0.2882,8.55607 -1.9866,10.6286 -16.3403,19.94003 -5.6927,3.69292 -10.6747,7.55981 -11.0712,8.59309 -0.3966,1.03328 -1.4909,1.87869 -2.4319,1.87869 -0.941,0 -3.5527,2.05325 -5.8038,4.56278 -2.251,2.50952 -7.2793,7.83624 -11.1739,11.83715 -3.8947,4.00091 -10.9259,13.5743 -15.625,21.2742 -4.6992,7.69992 -10.6533,16.20032 -13.2314,18.88982 -2.5781,2.6895 -4.6875,5.33 -4.6875,5.8676 0,0.5377 -1.483,2.4605 -3.2955,4.273 -3.1557,3.1557 -7.9545,4.4883 -7.9545,2.2088 z m 26.25,-11.4133 c 0,-0.6875 0.5625,-1.25 1.25,-1.25 0.6875,0 1.25,0.5625 1.25,1.25 0,0.6875 -0.5625,1.25 -1.25,1.25 -0.6875,0 -1.25,-0.5625 -1.25,-1.25 z"
         id="path4278"
         inkscape:connector-curvature="0" />
      <path
         style="fill:#c6cdbb"
         d="m 1276.3535,1023.2105 c -1.1229,-2.3534 -3.3184,-3.9695 -6.9614,-5.1243 -3.6474,-1.1563 -6.7744,-3.4603 -9.941,-7.3246 -4.4446,-5.4241 -4.5289,-5.7041 -2.2259,-7.3881 2.0678,-1.512 2.5376,-1.4934 3.45,0.137 1.2523,2.2378 4.1703,2.4767 5.4264,0.4443 0.5526,-0.8941 0.3429,-1.1038 -0.5513,-0.5512 -0.7937,0.4905 -1.4431,0.2962 -1.4431,-0.4319 0,-3.32423 6.2241,-0.5081 6.3487,2.8725 0.054,1.4733 0.3719,2.0072 0.7057,1.1865 0.3339,-0.8208 1.4145,-1.1825 2.4014,-0.8038 2.3263,0.8927 2.3215,2.9211 -0.01,2.9211 -0.9907,0 -2.2032,0.6503 -2.6944,1.4451 -0.643,1.0403 0.2993,1.2159 3.3637,0.6267 2.693,-0.5177 3.6159,-0.4061 2.5122,0.3037 -1.0661,0.6858 -1.4075,2.0007 -0.8777,3.3813 1.4591,3.8024 6.0428,-2.768 14.2085,-20.36667 1.0802,-2.3281 1.513,-5.32334 1.0409,-7.20428 -0.6732,-2.68208 -1.3231,-3.09021 -3.8934,-2.44509 -2.187,0.54889 -3.3096,0.18981 -3.8557,-1.23322 -0.4694,-1.22336 -2.2287,-2.00759 -4.5037,-2.00759 -2.682,0 -3.9173,-0.70397 -4.387,-2.5 -0.5097,-1.94902 -1.705,-2.5 -5.4238,-2.5 -6.6447,0 -7.514,-3.28326 -2.7286,-10.30616 1.9934,-2.92536 5.9492,-8.75666 8.7908,-12.95844 6.586,-9.73856 8.754,-17.32872 6.7836,-23.74894 -1.7382,-5.66372 -0.303,-9.32318 7.3139,-18.64861 8.9333,-10.93699 12.292,-14.08348 21.8748,-20.49284 10.6587,-7.12898 18.5275,-10.09458 20.7877,-7.83443 1.0738,1.0738 0.9288,1.98448 -0.5814,3.6533 -2.6513,2.92964 -4.1948,14.63937 -2.4022,18.22377 0.7529,1.50554 1.533,4.08552 1.7335,5.73327 0.2703,2.22192 2.2145,3.96278 7.5252,6.73832 7.076,3.6981 7.2692,3.7249 16.3239,2.26422 12.3843,-1.99779 13.8236,-1.32182 13.1052,6.15468 -0.7473,7.77744 -4.1361,12.25 -13.7034,18.0858 -17.6242,10.75025 -35.5907,28.77195 -47.3656,47.51106 -4.3199,6.875 -10.1561,15.31255 -12.9692,18.75005 -2.8131,3.4375 -6.6554,8.6406 -8.5384,11.5625 -3.9756,6.1689 -6.3476,6.6835 -8.6419,1.875 z m 55.1202,-84.06255 c 1.4535,0 10.4129,-5.14158 9.8744,-5.66664 -1.1528,-1.12394 -14.5581,2.6634 -16.8899,4.7718 -3.713,3.35735 -2.3543,5.09857 2.1579,2.76526 1.9893,-1.02873 4.1752,-1.87042 4.8576,-1.87042 z m -20.8665,-12.75 c -1.1667,-1.16667 -1.5,-0.83333 -1.5,1.5 0,2.33333 0.3333,2.66667 1.5,1.5 1.1667,-1.16667 1.1667,-1.83333 0,-3 z m 0.9049,-13.1875 c 0.1001,-2.95993 -0.7619,-3.42066 -3.3385,-1.78447 -1.2822,0.8142 -1.5152,9.39094 -0.3457,12.72197 0.4281,1.21917 3.5906,-8.16963 3.6842,-10.9375 z m -71.0025,76.05811 c -2.4472,-1.54997 -1.0123,-3.19111 5.443,-6.22546 10.3937,-4.88559 12.8488,-2.63493 3.8669,3.5448 -5.9921,4.12269 -6.7079,4.32878 -9.3099,2.68066 z"
         id="path4276"
         inkscape:connector-curvature="0" />
      <path
         style="fill:#9ea493"
         d="m 1277.8572,1024.8052 c 0,-2.4426 4.5951,-10.8944 9.9184,-18.2429 2.1074,-2.9092 3.8316,-6.3412 3.8316,-7.62674 0,-1.28551 1.4063,-4.56493 3.125,-7.28761 3.5164,-5.57035 4.0701,-10 1.25,-10 -2.2702,0 -2.3249,-0.56353 -0.3598,-3.71011 2.2294,-3.56983 0.166,-4.62998 -3.0826,-1.58384 -2.1761,2.04046 -4.2134,2.58044 -9.0576,2.40076 -5.3812,-0.19958 -6.3039,-0.61017 -6.6375,-2.95354 -0.3305,-2.32062 -0.9838,-2.62499 -4.433,-2.06525 -6.7302,1.09216 -7.9733,-1.92389 -3.7939,-9.20464 1.8969,-3.30461 4.956,-7.97713 6.7979,-10.38338 7.3597,-9.61454 9.9106,-18.32604 7.3997,-25.26978 -2.0054,-5.54598 -0.1581,-9.15044 11.4288,-22.29966 11.0357,-12.52365 27.4811,-23.68056 34.9054,-23.68056 2.9191,0 3.0019,0.4646 0.7322,4.10648 -2.789,4.47508 -3.5322,14.26948 -1.3963,18.39996 1.0197,1.97186 1.5441,4.39273 1.1654,5.37972 -0.443,1.15446 1.6265,3.49397 5.8021,6.55917 l 6.4908,4.76465 9.6597,-1.40793 c 14.4993,-2.11329 17.2073,-0.73564 14.9099,7.58505 -1.7345,6.28182 -5.0687,9.92289 -13.9087,15.18883 -4.3139,2.5698 -9.9675,6.44462 -12.5635,8.61071 -8.7489,7.29993 -26.5348,26.05489 -29.684,31.30125 -1.7187,2.86332 -5.5171,8.56552 -8.4408,12.67157 -2.9236,4.10609 -8.8299,12.48689 -13.125,18.62399 -7.7718,11.105 -10.9342,14.033 -10.9342,10.1238 z m 28.75,-68.15725 c 0,-1.375 -0.5625,-2.5 -1.25,-2.5 -0.6875,0 -1.25,1.125 -1.25,2.5 0,1.375 0.5625,2.5 1.25,2.5 0.6875,0 1.25,-1.125 1.25,-2.5 z m 16.8193,-10 c 0.8935,0 2.279,-0.78856 3.0789,-1.75236 0.7999,-0.9638 2.9239,-2.12119 4.72,-2.57198 1.7961,-0.45079 5.7741,-2.61535 8.84,-4.81014 3.0659,-2.19478 7.9014,-5.5884 10.7456,-7.54136 2.8441,-1.95297 4.0462,-3.15645 2.6712,-2.67441 -1.375,0.48204 -5.0312,1.16912 -8.125,1.52684 -3.0937,0.35771 -6.1875,1.06837 -6.875,1.57922 -0.6875,0.51086 -3.9088,1.31354 -7.1584,1.78373 -3.2496,0.4702 -6.2359,1.3849 -6.6362,2.03268 -1.4594,2.3613 -2.9312,1.08243 -3.3137,-2.87925 -0.3287,-3.40413 -0.9952,-4.16476 -4.1417,-4.7264 -3.6963,-0.65978 -3.7464,-0.77327 -3.4976,-7.92732 0.1939,-5.57813 1.0989,-8.60685 3.9103,-13.0861 2.0118,-3.20548 4.0214,-7.38738 4.4658,-9.2931 1.1634,-4.98959 -2.2884,-5.94335 -6.4496,-1.78209 -2.6689,2.66891 -2.9573,3.55599 -1.6631,5.11545 2.4063,2.89941 0.4305,6.79188 -4.8027,9.46167 -2.8715,1.4649 -5.3631,3.94104 -6.3408,6.30136 -1.4438,3.48568 -1.3256,4.27351 1.1413,7.61018 2.6675,3.608 2.6833,8.63338 0.027,8.63338 -0.6412,0 -1.1658,2.06508 -1.1658,4.58907 0,2.524 -0.9341,5.62119 -2.0757,6.88267 -1.1416,1.26147 -1.6271,2.71201 -1.0788,3.22342 0.5482,0.51141 1.2213,0.30648 1.4957,-0.4554 2.7594,-7.66099 7.2845,-6.51944 6.077,1.53303 -0.7478,4.98638 -0.587,5.47721 1.7944,5.47721 1.4387,0 2.9478,0.86511 3.3536,1.92247 0.5654,1.4735 1.7467,0.74367 5.0582,-3.125 2.3762,-2.77611 5.0515,-5.04747 5.9449,-5.04747 z m -82.4584,41.22718 c -0.435,-0.70376 1.2003,-2.11153 3.634,-3.12838 5.635,-2.35443 7.064,-2.29641 3.8801,0.15755 -4.4889,3.45973 -6.6772,4.32493 -7.5141,2.97083 z"
         id="path4274"
         inkscape:connector-curvature="0" />
      <path
         style="fill:#858b7a"
         d="m 1277.8572,1025.398 c 0,-0.6875 0.5625,-1.25 1.25,-1.25 0.6875,0 1.25,0.5625 1.25,1.25 0,0.6875 -0.5625,1.25 -1.25,1.25 -0.6875,0 -1.25,-0.5625 -1.25,-1.25 z m 5.0186,-7.7388 c 0.01,-0.8999 2.0406,-3.8862 4.5119,-6.6362 2.4714,-2.75 3.5823,-3.5938 2.4688,-1.875 -1.1135,1.7187 -2.5466,4.3359 -3.1848,5.816 -1.4016,3.2507 -3.8217,4.9691 -3.7959,2.6952 z m 9.8705,-15.3862 c 1.4985,-5.27604 3.9611,-10.65731 6.7644,-14.78145 1.8067,-2.65795 2.2448,-4.912 1.7713,-9.11323 -0.8648,-7.67269 -3.6958,-10.48037 -10.5673,-10.48037 -3.3517,0 -5.2029,-0.48894 -4.7325,-1.25 1.1317,-1.83117 -0.1389,-1.54882 -5.625,1.25 -5.9509,3.03593 -8.0272,3.17683 -6.9902,0.47435 0.5978,-1.55769 0.1955,-1.87349 -1.7412,-1.36702 -1.3852,0.36224 -2.5186,0.4021 -2.5186,0.0886 0,-1.50143 4.3657,-8.7048 8.8257,-14.56224 2.7257,-3.57976 5.5228,-8.58043 6.2158,-11.11259 0.9096,-3.32388 2.0347,-4.71404 4.0467,-5 3.8359,-0.54517 3.8128,-5.25037 -0.028,-5.79587 -3.4807,-0.49429 -5.7331,-4.42237 -4.5939,-8.01156 0.4699,-1.48056 2.7246,-4.69369 5.0104,-7.14029 2.2858,-2.44659 6.7026,-7.49542 9.8151,-11.21961 5.0192,-6.00567 11.2536,-11.32207 13.3046,-11.3455 0.6931,-0.008 0.3193,5.38034 -0.7373,10.62936 -0.2782,1.38192 -2.1268,3.47014 -4.108,4.64049 -3.2954,1.9466 -11.5007,15.02756 -11.5007,18.33438 0,0.76314 0.9093,1.38753 2.0207,1.38753 1.4671,0 1.8613,0.83402 1.4388,3.04419 -0.3201,1.67431 -0.1441,3.75262 0.391,4.61848 0.5656,0.91517 -0.037,2.99233 -1.4388,4.96127 -1.3264,1.86284 -2.4117,4.84703 -2.4117,6.63152 0,1.7845 -0.2352,3.24454 -0.5228,3.24454 -0.2875,0 -1.4103,0.34059 -2.4951,0.75687 -1.6251,0.6236 -1.8357,0.0734 -1.196,-3.125 0.4755,-2.37743 0.266,-3.88187 -0.5406,-3.88187 -1.7124,0 -5.2455,3.54548 -5.2455,5.26398 0,0.73448 -0.9844,2.06268 -2.1875,2.95157 -2.9995,2.21606 -0.9908,3.79344 5.9655,4.68451 6.2018,0.79443 7.7264,0.22197 9.3879,-3.52506 0.9269,-2.09042 1.1809,-1.72173 1.5505,2.25039 0.3344,3.59374 1.1887,5.09061 3.5088,6.1477 2.5481,1.161 3.3481,1.01263 4.73,-0.87725 1.1546,-1.57898 1.9352,-1.8344 2.5528,-0.8352 1.4673,2.37427 2.5767,1.70715 7.0179,-4.22027 2.3324,-3.1128 4.8679,-5.41892 5.6346,-5.12472 0.7666,0.29419 2.0874,-0.5755 2.9349,-1.93267 0.8476,-1.35716 3.5917,-3.32436 6.098,-4.37157 2.5063,-1.0472 6.835,-3.75968 9.6193,-6.02774 2.7842,-2.26805 6.9835,-5.18837 9.3316,-6.48959 5.5703,-3.08681 7.6548,-6.29502 5.1178,-7.87659 -1.2407,-0.77344 -2.7917,-0.5528 -4.6435,0.66058 -3.1183,2.04318 -7.8686,2.43931 -7.8686,0.65617 0,-2.14648 12.247,-4.363 17.6048,-3.18622 2.963,0.65077 3.6452,1.45233 3.6452,4.28273 0,5.04377 -3.6032,8.90985 -15.9365,17.09942 -12.2697,8.1473 -35.9399,31.39009 -41.1845,40.44078 -3.1922,5.50885 -6.1998,9.59264 -13.1545,17.86117 l -3.4004,4.0429 1.065,-3.75 z m 59.4859,-63.12505 c 0.4249,-0.6875 0.1768,-1.25 -0.5512,-1.25 -0.7281,0 -1.3238,0.5625 -1.3238,1.25 0,0.6875 0.2481,1.25 0.5512,1.25 0.3032,0 0.8989,-0.5625 1.3238,-1.25 z m -56.875,-9.30123 c 0,-0.30318 -0.5625,-0.89887 -1.25,-1.32377 -0.6875,-0.4249 -1.25,-0.17684 -1.25,0.55123 0,0.72807 0.5625,1.32377 1.25,1.32377 0.6875,0 1.25,-0.24805 1.25,-0.55123 z m -2.7062,-8.84895 c 0.3678,-3.146 0.1775,-3.38209 -1.5625,-1.93805 -2.3536,1.95335 -2.6886,6.77881 -0.4188,6.0335 0.8594,-0.28219 1.751,-2.12514 1.9813,-4.09545 z m 30.9461,5.02518 c -1.1261,-1.71875 -3.1189,-3.125 -4.4284,-3.125 -2.151,0 -2.3093,-0.69362 -1.6393,-7.18496 0.4078,-3.95172 1.7713,-8.8736 3.03,-10.9375 1.2586,-2.0639 2.2906,-4.6294 2.2931,-5.70113 0,-1.07172 0.8869,-3.04047 1.9651,-4.375 1.8332,-2.26909 1.9117,-2.0717 1.2099,3.04433 -0.5271,3.84255 -0.1847,6.33422 1.1505,8.37201 1.0456,1.59569 1.5753,3.75012 1.1771,4.78761 -0.7713,2.01007 8.3408,11.39539 12.3328,12.70245 4.3126,1.41206 0.6896,3.16093 -4.8327,2.33281 -4.7704,-0.71537 -5.4239,-0.55186 -4.7554,1.19003 1.3347,3.47827 -5.1227,2.52666 -7.5027,-1.10565 z m 0.7309,-37.70892 c 0.2223,-1.14615 1.0631,-2.30327 1.8683,-2.57138 0.9314,-0.31009 1.2195,0.4482 0.7918,2.08392 -0.799,3.05525 -3.245,3.50349 -2.6601,0.48746 z"
         id="path4272"
         inkscape:connector-curvature="0" />
      <path
         style="fill:#7c8272"
         d="m 1299.3974,990.08545 c 5.3459,-8.22635 5.2715,-7.93426 3.4758,-13.6446 -1.8824,-5.98593 -5.7511,-11.0429 -8.4482,-11.0429 -0.9605,0 -2.5901,-0.84375 -3.6214,-1.875 -2.7693,-2.76935 -13.2167,-2.99417 -16.3993,-0.3529 -3.3032,2.74144 -3.0183,-0.37116 0.4503,-4.91868 2.5842,-3.38804 3.7051,-4.14839 3.9836,-2.70226 0.2824,1.46664 2.3206,2.19816 7.5158,2.6975 6.8399,0.65742 13.7764,3.23795 17.7532,6.60462 3.3312,2.82013 8.568,0.63462 13.2951,-5.54859 3.3037,-4.32128 5.259,-5.77969 7.7493,-5.77969 2.6705,0 3.2589,-0.52328 2.9687,-2.64038 -0.2598,-1.89558 0.6217,-3.03837 3.125,-4.05129 5.1084,-2.06701 9.3831,-2.27863 10.0158,-0.49583 0.3291,0.92743 -0.504,1.5625 -2.0497,1.5625 -1.7258,0 -2.6042,0.80165 -2.6042,2.37653 0,1.39102 -1.8142,3.44696 -4.375,4.95784 -2.4062,1.41973 -4.375,3.05941 -4.375,3.64375 0,0.58434 -3.9871,4.96269 -8.8601,9.72966 -4.8731,4.76697 -9.8867,10.99036 -11.1413,13.82975 -2.2688,5.13448 -6.9172,10.46247 -9.1281,10.46247 -0.6369,0 -0.3356,-1.26562 0.6697,-2.8125 z m 44.5223,-46.45833 c -0.1031,-1.08854 -0.2438,-2.51855 -0.3125,-3.17778 -0.1524,-1.46114 8.1881,-7.77999 9.0851,-6.88298 0.3515,0.3515 -0.5558,1.47605 -2.0163,2.49899 -1.4605,1.02294 -2.8328,3.35725 -3.0496,5.18735 -0.432,3.64687 -3.4057,5.55171 -3.7067,2.37442 z m -58.5625,-1.9054 c 0,-3.01078 2.2664,-4.55739 4.0559,-2.76783 0.9508,0.95081 0.875,1.89613 -0.2619,3.26608 -2.1847,2.63235 -3.794,2.42101 -3.794,-0.49825 z m 74.9317,-12.03106 c -1.4763,-1.77888 -1.3743,-2.31215 0.7405,-3.86927 2.228,-1.64054 2.4911,-1.55767 2.8711,0.90444 0.5856,3.79429 -1.5013,5.50753 -3.6116,2.96483 z m -34.7317,-6.51772 c -0.7975,-0.26583 -1.45,-1.21132 -1.45,-2.1011 0,-0.88978 -0.8693,-2.33927 -1.9319,-3.2211 -1.1297,-0.93761 -1.579,-2.42844 -1.082,-3.59056 0.4675,-1.09297 1.0249,-4.3729 1.2387,-7.28872 0.2137,-2.91582 0.9648,-6.29082 1.6689,-7.5 1.0421,-1.78949 1.2873,-1.34016 1.3183,2.41522 0.021,2.53755 0.6495,4.99166 1.3969,5.45357 0.7474,0.46192 1.0593,1.98556 0.6931,3.38587 -0.4596,1.75735 0.4747,3.61146 3.0161,5.98544 2.025,1.89168 3.6819,3.99364 3.6819,4.67103 0,1.31375 -6.1294,2.59723 -8.55,1.79035 z m -38.95,-3.87745 c 0,-0.6875 0.5625,-1.59764 1.25,-2.02254 0.6875,-0.4249 1.25,-0.21004 1.25,0.47746 0,0.6875 -0.5625,1.59764 -1.25,2.02254 -0.6875,0.4249 -1.25,0.21004 -1.25,-0.47746 z m 8.9503,-4.32823 c 0.099,-4.94662 0.9173,-6.89955 4.9182,-11.74121 4.8754,-5.89994 8.2971,-8.57917 9.465,-7.41126 0.9711,0.97108 -2.3473,9.99896 -4.2804,11.64505 -0.928,0.79029 -3.6076,4.13781 -5.9547,7.43893 l -4.2672,6.00205 0.1191,-5.93356 z"
         id="path4270"
         inkscape:connector-curvature="0" />
      <path
         style="fill:#747a6b"
         d="m 1303.6029,978.08649 c -0.6295,-5.56399 -1.6351,-8.41974 -3.6141,-10.26346 -2.5091,-2.33763 -10.0365,-6.38741 -14.6316,-7.87196 -1.0312,-0.33316 -0.2418,-0.65016 1.7544,-0.70444 1.9961,-0.0543 6.5915,1.30264 10.2119,3.01537 5.2801,2.49789 6.869,3.98188 8.0301,7.5 0.7961,2.41227 1.8726,4.38595 2.3922,4.38595 1.9099,0 2.5526,-1.68967 1.2429,-3.26773 -1.7457,-2.10347 -0.1857,-4.61647 2.2788,-3.67077 1.0688,0.41013 2.6249,-0.23936 3.5394,-1.47729 1.3119,-1.7759 1.9442,-1.90121 3.224,-0.6389 1.2851,1.26768 0.4582,2.72138 -4.2909,7.54294 -3.2355,3.28494 -5.8828,6.54892 -5.8828,7.25328 0,0.70435 -0.761,2.32134 -1.6911,3.5933 -1.5096,2.06452 -1.7846,1.48552 -2.5632,-5.39629 z m 16.4418,-16.0502 c -2.7587,-0.72093 -2.7032,-1.54447 0.3512,-5.2107 2.7332,-3.28071 6.2113,-2.84218 6.2113,0.78313 0,2.22533 -2.3018,5.43648 -3.6875,5.14423 -0.3781,-0.0798 -1.6719,-0.40225 -2.875,-0.71666 z m -44.0625,-4.13834 c 0.4249,-0.6875 1.0206,-1.25 1.3238,-1.25 0.3031,0 0.5512,0.5625 0.5512,1.25 0,0.6875 -0.5957,1.25 -1.3238,1.25 -0.728,0 -0.9761,-0.5625 -0.5512,-1.25 z m 55.625,-6.25 c 0,-1.61111 0.633,-2.49733 1.5625,-2.1875 0.8594,0.28646 1.5625,1.27083 1.5625,2.1875 0,0.91667 -0.7031,1.90104 -1.5625,2.1875 -0.9295,0.30983 -1.5625,-0.57639 -1.5625,-2.1875 z m -5.4167,-30.83333 c -0.4583,-0.45834 -0.8333,-2.42709 -0.8333,-4.375 0,-3.39362 0.091,-3.44797 2.1875,-1.30009 1.2031,1.23287 2.9595,3.20162 3.9031,4.375 1.526,1.89779 1.3765,2.13342 -1.3542,2.13342 -1.6884,0 -3.4447,-0.375 -3.9031,-0.83333 z m -29.5833,-7.48311 c 0,-2.65756 1.6143,-5.83146 5.221,-10.26528 4.4991,-5.53072 7.279,-7.78283 7.279,-5.89691 0,2.06427 -5.5875,12.13405 -8.7012,15.68141 l -3.7988,4.32779 0,-3.84701 z m 27.6174,-4.66707 c -0.8876,-1.06957 -1.0125,-2.08832 -0.3091,-2.52303 0.6489,-0.401 1.5332,0.19193 1.9651,1.31763 1.0602,2.76268 0.1726,3.40872 -1.656,1.2054 z"
         id="path4268"
         inkscape:connector-curvature="0" />
    </g>
  </g>
</svg>
