<?xml version="1.0" encoding="UTF-8" standalone="no"?>
<!-- Created with Inkscape (http://www.inkscape.org/) -->

<svg
   xmlns:dc="http://purl.org/dc/elements/1.1/"
   xmlns:cc="http://creativecommons.org/ns#"
   xmlns:rdf="http://www.w3.org/1999/02/22-rdf-syntax-ns#"
   xmlns:svg="http://www.w3.org/2000/svg"
   xmlns="http://www.w3.org/2000/svg"
   xmlns:sodipodi="http://sodipodi.sourceforge.net/DTD/sodipodi-0.dtd"
   xmlns:inkscape="http://www.inkscape.org/namespaces/inkscape"
   width="210mm"
   height="297mm"
   viewBox="0 0 744.09448819 1052.3622047"
   id="svg4193"
   version="1.1"
   inkscape:version="0.91 r13725"
   sodipodi:docname="hand0.svg">
  <defs
     id="defs4195" />
  <sodipodi:namedview
     id="base"
     pagecolor="#ffffff"
     bordercolor="#666666"
     borderopacity="1.0"
     inkscape:pageopacity="0.0"
     inkscape:pageshadow="2"
     inkscape:zoom="0.5"
     inkscape:cx="865.71429"
     inkscape:cy="111.42855"
     inkscape:document-units="px"
     inkscape:current-layer="layer1"
     showgrid="false"
     inkscape:window-width="1215"
     inkscape:window-height="1000"
     inkscape:window-x="65"
     inkscape:window-y="24"
     inkscape:window-maximized="1" />
  <metadata
     id="metadata4198">
    <rdf:RDF>
      <cc:Work
         rdf:about="">
        <dc:format>image/svg+xml</dc:format>
        <dc:type
           rdf:resource="http://purl.org/dc/dcmitype/StillImage" />
        <dc:title></dc:title>
      </cc:Work>
    </rdf:RDF>
  </metadata>
  <g
     inkscape:label="Layer 1"
     inkscape:groupmode="layer"
     id="layer1">
    <g
       id="g4212"
       transform="translate(142,308)">
      <path
         style="fill:#fbfbfa"
         d="m 381.44531,535.96729 0,-80 61.875,0 61.875,0 0,80 0,80 -61.875,0 -61.875,0 0,-80 z"
         id="path4226"
         inkscape:connector-curvature="0" />
      <path
         style="fill:#bbc1b1"
         d="m 467.98211,613.15479 c -0.69812,-0.85937 -2.83542,-5.99716 -4.74954,-11.41731 -1.91413,-5.42015 -4.79739,-11.42017 -6.40724,-13.33338 -1.60986,-1.9132 -5.60321,-9.33851 -8.87413,-16.50069 -7.24111,-15.85554 -9.66652,-19.68472 -12.47221,-19.69079 -1.18727,-0.003 -4.0004,-1.12757 -6.25139,-2.5 -2.25099,-1.37243 -5.06349,-2.49743 -6.25,-2.5 -2.961,-0.006 -14.49634,-14.55105 -14.75289,-18.60157 -0.11387,-1.79782 -0.27956,-3.97887 -0.36822,-4.84679 -0.0887,-0.86791 -3.11431,-3.46895 -6.72368,-5.78008 -3.60938,-2.31113 -9.18902,-7.01281 -12.39922,-10.44818 -4.65233,-4.97866 -6.02026,-7.47007 -6.74122,-12.27775 -1.52202,-10.14953 3.01057,-33.10444 7.0268,-35.58661 1.91072,-1.18089 6.98664,-0.48416 14.30114,1.96299 2.75,0.92004 7.05255,2.00485 9.56121,2.41068 2.50867,0.40583 8.24317,2.6918 12.74334,5.07993 4.50018,2.38813 9.69792,4.34205 11.55054,4.34205 8.33939,0 25.36707,14.73284 25.46661,22.03444 0.0293,2.1502 0.89705,4.6097 1.9283,5.46556 1.22239,1.01449 1.87285,3.78697 1.86882,7.96556 -0.009,9.23331 3.49285,18.01557 9.65621,24.21736 3.03825,3.0572 4.9894,6.05224 4.60144,7.06325 -0.41103,1.07114 3.16975,5.57978 9.18663,11.56708 5.85317,5.8244 10.98075,12.24633 12.61753,15.80257 2.64266,5.74174 2.6748,6.23546 0.77284,11.875 -3.83062,11.35827 -16.85551,27.71392 -25.59809,32.14412 -7.02698,3.56083 -7.94295,3.70755 -9.69358,1.55256 z"
         id="path4224"
         inkscape:connector-curvature="0" />
      <path
         style="fill:#b0b5a7"
         d="m 468.53927,611.27979 c -0.30446,-0.51562 -2.34371,-5.4375 -4.53164,-10.9375 -2.18795,-5.5 -5.03524,-11.12875 -6.32734,-12.50832 -1.29209,-1.37959 -5.14562,-8.63142 -8.5634,-16.11518 -7.02499,-15.38231 -10.52839,-20.7249 -13.6465,-20.81059 -3.84961,-0.10579 -16.93514,-8.14089 -20.56842,-12.62993 -1.94953,-2.40871 -4.22794,-7.13564 -5.06313,-10.50428 -1.33859,-5.39902 -2.37691,-6.72066 -8.76239,-11.15325 -3.98412,-2.76565 -9.83359,-8.02756 -12.99883,-11.69315 -5.65595,-6.55002 -5.75715,-6.82091 -5.88114,-15.74366 -0.0694,-4.99343 0.51284,-10.43182 1.29385,-12.0853 0.78101,-1.65349 2.14218,-5.53759 3.02482,-8.63134 2.10642,-7.38324 3.78089,-8.66757 9.62516,-7.38255 12.91816,2.8404 23.566,6.27525 30.27201,9.76535 4.08682,2.12696 8.62785,3.8672 10.09118,3.8672 2.77003,0 18.69066,8.34222 18.69334,9.79508 8.4e-4,0.45646 1.40709,2.46429 3.125,4.46184 1.83957,2.13903 3.13981,5.2219 3.16322,7.5 0.0219,2.12745 0.86562,4.95996 1.875,6.29449 1.00939,1.33453 1.83525,4.46681 1.83525,6.96063 0,8.09918 3.47797,16.91339 9.19547,23.30402 2.98141,3.33241 5.15659,6.82922 4.83373,7.77067 -0.33287,0.97063 3.13824,5.3002 8.0172,10 5.34932,5.15289 9.96773,11.03017 12.20861,15.53638 3.25859,6.55275 3.46727,7.70577 2.17514,12.01854 -2.20797,7.36954 -17.64097,27.30104 -23.88581,30.84816 -5.4419,3.09106 -8.22837,3.7188 -9.20038,2.07269 z m -58.34396,-99.61373 c 0,-0.30318 -0.5625,-0.89887 -1.25,-1.32377 -0.6875,-0.4249 -1.25,-0.17685 -1.25,0.55123 0,0.72807 0.5625,1.32377 1.25,1.32377 0.6875,0 1.25,-0.24805 1.25,-0.55123 z m 23.6638,-10.92638 3.03879,-3.83929 -2.86327,-5.39732 c -3.27514,-6.17371 -6.67738,-7.48627 -16.07716,-6.20248 -4.21437,0.57558 -8.1271,0.10517 -13.77031,-1.65554 -7.13866,-2.2273 -7.84549,-2.26408 -7.48446,-0.38941 0.21927,1.1386 4.50701,4.14486 9.5283,6.6806 5.02129,2.53573 11.19299,6.19569 13.71487,8.13323 4.59814,3.53272 9.08065,6.35624 10.24944,6.4561 0.34375,0.0294 1.99246,-1.67428 3.6638,-3.78589 z"
         id="path4222"
         inkscape:connector-curvature="0" />
      <path
         style="fill:#929788"
         d="m 468.48152,609.97814 c -0.33623,-0.54404 -2.0722,-4.87035 -3.85772,-9.61403 -1.78552,-4.74367 -4.64698,-10.46113 -6.35881,-12.70546 -1.71182,-2.24431 -5.71552,-9.87113 -8.8971,-16.94847 -7.06378,-15.71321 -9.43447,-19.22387 -13.70544,-20.29582 -1.8208,-0.45699 -6.78313,-2.82814 -11.02738,-5.26922 -8.07718,-4.64559 -14.43976,-12.50139 -14.43976,-17.8286 0,-4.41339 -2.15651,-7.29257 -8.04836,-10.74542 -3.0263,-1.77353 -8.55932,-6.71306 -12.29558,-10.97672 -7.73465,-8.82644 -9.91261,-16.17368 -6.63802,-22.39304 0.98196,-1.86501 2.45509,-6.64626 3.27363,-10.625 0.81854,-3.97874 2.00756,-8.21845 2.64227,-9.42157 1.31427,-2.49126 5.52343,-2.81754 10.67219,-0.82726 1.93538,0.74814 7.45637,2.38188 12.26887,3.63055 4.8125,1.24867 11.28125,3.72354 14.375,5.4997 3.09375,1.77617 6.81144,3.23617 8.26154,3.24445 4.43746,0.0253 17.09855,7.47938 22.009,12.95749 3.48727,3.8904 4.59421,6.16701 4.4397,9.13091 -0.11321,2.17159 0.47407,4.76758 1.30506,5.76887 0.831,1.00128 2.00476,5.75364 2.60837,10.5608 1.26106,10.04317 2.34563,12.51501 9.02601,20.57125 2.66768,3.21709 4.85742,6.87334 4.86609,8.125 0.009,1.25166 3.16967,5.04209 7.02443,8.42318 8.26418,7.24869 15.95405,21.39765 14.60889,26.87962 -1.42326,5.80024 -18.33184,27.99571 -23.62723,31.01488 -5.18887,2.95842 -7.48806,3.45803 -8.48565,1.84391 z m 2.56316,-50.44706 c 1.10225,-0.91478 2.72797,-0.93279 5.23736,-0.058 5.45278,1.90085 6.64163,-0.20062 3.4452,-6.0899 -1.46131,-2.69239 -3.11634,-4.8999 -3.67783,-4.90557 -1.25982,-0.0127 -8.77842,5.63478 -13.90933,10.44782 l -3.81977,3.58313 5.56298,-0.82546 c 3.05964,-0.454 6.28227,-1.4224 7.16139,-2.15201 z m -4.15555,-18.49183 3.56882,-1.35994 -2.29027,-3.41851 c -4.22852,-6.3116 -7.97237,-14.44323 -7.97237,-17.31596 0,-1.56681 -1.34843,-4.30372 -2.9965,-6.08202 -1.76638,-1.90595 -2.74797,-4.18366 -2.3911,-5.54833 0.7488,-2.86342 -1.99733,-4.80327 -3.461,-2.44484 -0.87017,1.40211 -1.53842,1.25452 -3.59139,-0.79323 -2.18796,-2.18238 -2.35071,-3.13733 -1.22776,-7.20429 1.47776,-5.35201 0.80851,-7.15484 -2.65602,-7.15484 -1.52886,0 -2.42623,-0.85681 -2.42623,-2.31657 0,-1.92201 -1.90755,-2.68519 -11.19992,-4.48095 -9.89204,-1.91165 -11.50552,-1.95034 -13.81695,-0.33135 -2.85396,1.99899 -8.76346,1.21659 -17.09066,-2.26273 -3.1454,-1.31423 -5.03582,-1.46825 -6.75145,-0.55008 -2.22877,1.19281 -2.12044,1.49972 1.67558,4.74723 2.23212,1.90959 7.91263,5.35964 12.62335,7.66676 10.62927,5.2058 21.75253,15.06917 22.29476,19.76953 0.23519,2.03865 1.05752,3.24354 2.06922,3.03185 2.75342,-0.57614 10.19607,2.60092 10.19607,4.35242 0,1.91857 2.0209,2.16036 3.125,0.37389 0.4249,-0.6875 1.5831,-1.25 2.57377,-1.25 2.92567,0 2.09929,5.70397 -1.43489,9.90409 l -3.23611,3.84591 4.17361,0.0191 c 5.31653,0.0244 7.62233,1.49764 7.10679,4.54078 -0.22402,1.32232 0.43062,3.37498 1.45476,4.56146 1.94903,2.258 5.18743,2.17499 11.68089,-0.29942 z m -49.87764,-21.5226 c 4.43002,-2.01846 3.98063,-5.33558 -1.46024,-10.77853 -4.10718,-4.10875 -5.40775,-4.66688 -11.25,-4.82795 -4.95965,-0.13673 -6.60594,0.26038 -6.60594,1.59344 0,0.97656 1.26562,2.29019 2.8125,2.91918 1.54687,0.629 5.0625,3.68865 7.8125,6.79923 2.75,3.11058 5.11416,5.67577 5.25368,5.70043 0.13953,0.0247 1.68641,-0.60795 3.4375,-1.4058 z m 30.68382,-32.92436 c 0,-1.03125 -0.84375,-1.875 -1.875,-1.875 -1.95197,0 -2.47996,1.47837 -1.04167,2.91667 1.4383,1.43829 2.91667,0.9103 2.91667,-1.04167 z"
         id="path4220"
         inkscape:connector-curvature="0" />
      <path
         style="fill:#84897a"
         d="m 469.31282,608.14103 c -0.64117,-0.8518 -2.74884,-5.20499 -4.68372,-9.67374 -1.93488,-4.46875 -4.1459,-8.90645 -4.91338,-9.86156 -0.76748,-0.9551 -5.33291,-9.66625 -10.14541,-19.3581 -8.26872,-16.6523 -9.02502,-17.72648 -13.75,-19.52937 -14.78173,-5.64019 -24.30019,-14.70085 -24.2944,-23.12597 l 0.003,-3.75 2.45842,2.95098 c 1.35207,1.62304 2.45836,3.93781 2.45836,5.14393 0,3.41276 4.87628,8.78009 7.97681,8.78009 1.53745,0 3.88725,0.82586 5.22178,1.83525 1.33453,1.00938 3.8618,1.85313 5.61618,1.875 2.79657,0.0349 3.20505,-0.49954 3.31377,-4.33525 0.0682,-2.40625 -0.38281,-4.375 -1.00226,-4.375 -0.61946,0 -1.12628,-0.84375 -1.12628,-1.875 0,-3.37775 3.56953,-1.9993 3.97947,1.53676 0.33788,2.91452 1.03315,3.45911 4.77053,3.73667 3.2114,0.2385 3.87632,10e-4 2.5,-0.89262 -1.52244,-0.98859 -1.35354,-1.22113 0.89827,-1.23667 1.95423,-0.0135 2.56099,0.53405 2.05449,1.85398 -0.83753,2.18257 4.28545,8.07396 7.04724,8.10427 3.10273,0.0341 14.24431,-4.58533 14.75505,-6.11755 0.26166,-0.78496 -1.27095,-3.21375 -3.40578,-5.39731 -2.32757,-2.3807 -4.67499,-6.74599 -5.86347,-10.90382 -1.09007,-3.81354 -2.78587,-8.62623 -3.76843,-10.69487 -2.29841,-4.83895 -3.33555,-22.1968 -1.28504,-21.5069 0.79347,0.26697 1.47098,2.6865 1.50558,5.37673 0.0346,2.69023 0.95433,6.29758 2.04385,8.01633 1.08952,1.71875 2.35912,6.17542 2.82133,9.90372 0.974,7.85652 1.79403,9.67106 8.35163,18.48015 2.6649,3.57987 4.83078,7.51737 4.81305,8.75 -0.0186,1.29008 -2.80344,4.09772 -6.5625,6.61613 -3.59165,2.40625 -8.90995,6.75779 -11.81845,9.67009 -4.82048,4.82678 -5.17247,5.59942 -3.97992,8.73607 2.05413,5.40278 6.00746,11.27432 8.14272,12.0937 2.19893,0.8438 7.89276,-0.27032 10.05893,-1.96826 0.95402,-0.7478 2.71153,0.42674 5.25406,3.51128 3.9293,4.76692 4.13463,8.40432 0.27737,4.91354 -2.69186,-2.43608 -7.44873,-2.45652 -10.63591,-0.0456 -2.30441,1.7431 -2.32183,2.03904 -0.3619,6.14905 1.13247,2.37481 3.48751,5.25381 5.23343,6.39777 2.92881,1.91903 3.41277,1.92377 6.25542,0.0613 3.81802,-2.50167 5.80965,-2.58982 4.89906,-0.21686 -0.3803,0.99105 -1.90952,1.97725 -3.39827,2.19154 -1.90224,0.27383 -2.62791,1.17023 -2.44135,3.01577 0.21858,2.16246 -0.27799,2.52223 -2.8125,2.03773 -2.20503,-0.42164 -3.07796,-0.0363 -3.07796,1.35845 0,2.64516 -1.95366,3.66646 -3.38249,1.76823 z m 5.88249,-13.884 c 0,-1.75669 4.32558,-4.53974 7.05594,-4.53974 2.30304,0 3.0181,0.5766 2.71282,2.1875 -0.28972,1.52878 -1.82297,2.30432 -5.09166,2.57546 -2.5724,0.21338 -4.6771,0.11293 -4.6771,-0.22322 z m 12.97951,-35.55255 c -5.546,-5.02758 -9.97753,-11.15584 -8.86884,-12.26452 1.08572,-1.08573 12.28137,9.73816 13.56512,13.11469 0.62928,1.65515 0.97481,3.17871 0.76783,3.38569 -0.20698,0.20698 -2.66583,-1.69916 -5.46411,-4.23586 z m -60.79201,-28.57793 c -1.89063,-0.98762 -3.4375,-2.39309 -3.4375,-3.12326 0,-0.73017 -1.10432,-1.03879 -2.45404,-0.68583 -1.35326,0.35388 -3.14789,-0.19429 -4.00089,-1.22209 -1.27043,-1.53078 -1.02147,-2.26013 1.39318,-4.08151 2.42629,-1.83015 2.79731,-2.93129 2.12324,-6.30161 -0.81599,-4.07997 -8.95171,-13.74175 -11.57303,-13.74385 -0.7626,-6.1e-4 -4.55711,-1.69303 -8.43226,-3.76092 -3.87515,-2.0679 -7.46996,-3.87936 -7.98846,-4.02548 -0.51851,-0.14612 -2.25739,-1.82804 -3.86419,-3.73761 -2.64853,-3.1476 -2.72024,-3.54916 -0.7676,-4.29846 1.18462,-0.45458 3.06178,-0.16407 4.17145,0.64558 1.10968,0.80965 5.83908,3.38242 10.50977,5.71727 11.31707,5.65734 16.93571,10.10282 17.95016,14.20222 0.46021,1.85971 1.90634,4.14118 3.21361,5.06993 1.30727,0.92875 2.86322,2.96789 3.45768,4.53142 0.82099,2.15938 1.81166,2.70307 4.12096,2.26162 2.35371,-0.44994 3.25556,0.0792 3.99425,2.34358 1.23876,3.7973 1.56877,8.31993 0.7046,9.65609 -1.33111,2.05813 -5.72908,2.32473 -9.12093,0.55291 z m 15.9375,-5.40926 c 0.4249,-0.6875 1.0206,-1.25 1.32377,-1.25 0.30318,0 0.55123,0.5625 0.55123,1.25 0,0.6875 -0.5957,1.25 -1.32377,1.25 -0.72808,0 -0.97613,-0.5625 -0.55123,-1.25 z m -40.18698,-8.36492 c -2.85283,-1.61365 -8.33721,-6.62416 -12.1875,-11.13447 -3.85028,-4.51031 -7.07093,-7.73369 -7.15698,-7.16308 -0.0861,0.57061 -0.57103,-1.49378 -1.07773,-4.58753 -0.5067,-3.09375 -0.47194,-6.75 0.0772,-8.125 0.78264,-1.95955 1.01562,-1.5172 1.07773,2.04623 0.0962,5.52154 6.35484,15.56383 12.41705,19.92385 4.94245,3.55467 13.10601,11.17708 12.47468,11.64775 -0.24063,0.17939 -2.77164,-0.9941 -5.62448,-2.60775 z m 48.28691,-29.79029 c -0.86965,-1.04786 -1.23337,-2.25302 -0.80826,-2.67812 0.90786,-0.90787 4.58333,1.88794 4.58333,3.48639 0,1.7218 -2.03731,1.2856 -3.77507,-0.80827 z m -49.66243,-6.81113 c -2.92188,-1.32629 -5.3125,-2.73956 -5.3125,-3.1406 0,-0.40104 2.80877,-0.35657 6.24171,0.0988 6.70504,0.88945 10.41504,-0.72746 9.16193,-3.99301 -1.32668,-3.45726 -5.30536,-4.6008 -8.56848,-2.46272 -1.64846,1.08011 -3.83279,1.96384 -4.85407,1.96384 -1.02128,0 -2.30669,0.77007 -2.85648,1.71126 -1.63954,2.80676 -6.21167,3.66782 -7.10563,1.33819 -0.4274,-1.11378 -0.35554,-2.67742 0.15968,-3.47475 0.51522,-0.79734 0.93892,-3.1372 0.94155,-5.1997 0.004,-3.20668 0.52912,-3.80984 3.62372,-4.16303 1.99041,-0.22717 5.92791,0.41453 8.75,1.42599 2.82209,1.01147 7.94357,2.54933 11.38107,3.41747 3.4375,0.86815 9.34375,3.17836 13.125,5.13382 3.78125,1.95547 8.39051,3.55659 10.24279,3.55807 1.85229,0.002 4.83919,1.2683 6.63756,2.81518 l 3.26975,2.8125 -11.01255,-0.88436 c -6.0569,-0.4864 -12.73205,-1.23743 -14.83365,-1.66895 -2.70077,-0.55454 -4.30325,-0.20362 -5.46556,1.19686 -2.18667,2.63479 -7.03605,2.46094 -13.52584,-0.48489 z"
         id="path4218"
         inkscape:connector-curvature="0" />
      <path
         style="fill:#7c8273"
         d="m 466.33794,600.99475 c -1.47227,-3.42239 -4.00538,-8.62551 -5.62912,-11.5625 -1.62375,-2.93697 -4.44847,-8.43371 -6.27716,-12.21496 -1.8287,-3.78125 -3.76967,-7.71875 -4.31328,-8.75 -0.54361,-1.03125 -2.73388,-5.35243 -4.86727,-9.60262 -3.26715,-6.5089 -4.61238,-7.96381 -8.52984,-9.22526 -12.03964,-3.87685 -24.2054,-14.51458 -23.93766,-20.93107 0.0486,-1.16383 1.12144,0.20618 2.38419,3.04445 2.48005,5.57445 6.63571,9.2145 10.51972,9.2145 1.33976,0 3.32398,0.75822 4.40936,1.68493 1.08539,0.92671 4.78593,2.3931 8.22343,3.25865 3.4375,0.86555 7.375,1.86959 8.75,2.2312 2.46424,0.64807 2.46594,0.61934 0.11876,-2.00865 -1.30967,-1.46637 -3.41905,-2.66613 -4.6875,-2.66613 -2.48486,0 -3.1024,-1.86041 -1.04053,-3.13472 2.04253,-1.26236 11.23427,3.38373 11.23427,5.67851 0,1.65178 0.80926,1.90923 4.0625,1.29242 7.14155,-1.35404 17.1875,-5.61865 17.1875,-7.29628 0,-0.89279 -1.92016,-3.54343 -4.26703,-5.89029 -3.917,-3.917 -8.23297,-14.31288 -8.23297,-19.83075 0,-1.05674 -0.5625,-2.26899 -1.25,-2.69389 -1.60215,-0.99019 -1.6398,-6.875 -0.044,-6.875 2.09837,0 3.79398,4.64013 3.79398,10.38244 0,4.54628 1.12736,7.27373 6.25,15.12084 3.4375,5.26572 6.25,10.30625 6.25,11.20117 0,1.69046 -9.01807,9.54555 -10.95881,9.54555 -0.60797,0 -2.42816,1.40801 -4.04487,3.12891 -1.6167,1.72091 -3.82413,2.98653 -4.90539,2.8125 -1.4545,-0.2341 -2.07013,0.95789 -2.36646,4.58203 -0.47935,5.86235 3.54408,14.46813 8.85258,18.93494 1.9721,1.65941 3.21483,3.6171 2.76161,4.35041 -1.45865,2.36015 0.61118,7.37849 5.08635,12.33197 3.44652,3.81488 3.96436,4.98015 2.46828,5.55425 -1.04131,0.39959 -1.89329,1.58793 -1.89329,2.64077 0,3.86043 -2.50075,1.75093 -5.10737,-4.30832 z m -15.65052,-49.50691 c 0.46716,-1.21739 0.1878,-1.78885 -0.72563,-1.48438 -1.86855,0.62285 -2.89737,3.46383 -1.25438,3.46383 0.67123,0 1.56224,-0.89075 1.98001,-1.97945 z m 34.60007,3.02965 c -3.5015,-3.36454 -4.91083,-5.48565 -3.87442,-5.83112 1.89043,-0.63014 10.43405,7.9505 9.80254,9.84502 -0.23361,0.70083 -2.90127,-1.10542 -5.92812,-4.0139 z m -60.15031,-27.99525 c -0.82389,-0.99272 -2.55411,-1.80495 -3.84493,-1.80495 -2.8063,0 -2.90074,-1.03714 -0.39616,-4.35068 1.23611,-1.63536 1.59413,-3.73751 1.05476,-6.1932 -0.80678,-3.67326 -0.78117,-3.69417 2.15148,-1.75607 1.63239,1.07879 3.1368,3.07922 3.34313,4.44538 0.29421,1.94798 1.08008,2.34918 3.64217,1.85941 2.81683,-0.53847 3.13217,-0.29763 2.28846,1.74781 -0.5382,1.30479 -1.00531,3.0279 -1.038,3.82913 -0.0327,0.80123 -1.32923,2.03533 -2.88119,2.74245 -2.14121,0.9756 -3.18302,0.85036 -4.31972,-0.51928 z m -25.25437,-12.51992 c -1.89063,-1.02568 -3.4375,-2.40941 -3.4375,-3.07495 0,-2.05333 2.2021,-1.34952 5.86779,1.87542 3.92749,3.45524 2.77561,4.02378 -2.43029,1.19953 z m 14.47926,-9.78032 c -1.26047,-1.64741 -6.93298,-5.38737 -12.60559,-8.31102 -10.11906,-5.21535 -13.86405,-8.05747 -12.46312,-9.45841 1.12924,-1.12924 21.85081,9.61446 26.80735,13.89906 2.72389,2.35461 4.16023,4.49819 3.61031,5.38798 -1.36791,2.21334 -2.80665,1.80513 -5.34895,-1.51761 z M 382.939,494.09229 c 0.0255,-2.0625 0.30562,-2.75492 0.62255,-1.53871 0.31693,1.21621 0.29608,2.90371 -0.0463,3.75 -0.3424,0.84629 -0.60171,-0.14879 -0.57623,-2.21129 z m 74.75631,-0.0738 c 0,-1.07183 0.5625,-1.60113 1.25,-1.17623 0.6875,0.4249 1.25,1.30184 1.25,1.94877 0,0.64693 -0.5625,1.17623 -1.25,1.17623 -0.6875,0 -1.25,-0.87695 -1.25,-1.94877 z m -49.9638,-12.98483 c -2.22668,-1.42948 -1.73063,-1.95781 2.87743,-3.06475 2.95562,-0.71 3.46812,-0.4839 3.11064,1.3723 -0.49732,2.58241 -3.34713,3.38787 -5.98807,1.69245 z m 16.2138,-2.5664 c -1.03125,-0.66645 -3.16679,-1.22033 -4.74564,-1.23086 -1.87238,-0.0125 -3.61112,-1.32431 -5,-3.77236 -1.17115,-2.06427 -3.25436,-4.12756 -4.62936,-4.58509 -3.45521,-1.14972 -11.16018,-0.55995 -11.66667,0.89302 -1.26334,3.62416 -7.58559,-0.80075 -7.66858,-5.36721 -0.0498,-2.73851 5.33898,-2.95269 10.22015,-0.40621 1.8617,0.97123 6.64295,2.46853 10.625,3.32733 3.98206,0.8588 10.45843,3.15443 14.39195,5.10141 3.93352,1.94698 8.24689,3.53997 9.58527,3.53997 3.29769,0 6.38788,1.27409 6.38788,2.63374 0,1.50685 -15.14041,1.39114 -17.5,-0.13374 z"
         id="path4216"
         inkscape:connector-curvature="0" />
      <path
         style="fill:#73786a"
         d="m 462.70108,591.90479 c -2.94625,-6.35937 -6.40283,-12.90398 -7.68129,-14.54357 -2.41229,-3.09368 -3.14217,-7.64393 -1.22613,-7.64393 0.60409,0 1.79088,1.67192 2.63731,3.71537 0.84642,2.04345 2.829,5.21669 4.40572,7.05164 1.57673,1.83495 3.16026,4.80365 3.51897,6.59713 0.35871,1.79347 2.13294,5.44284 3.94274,8.10971 3.06126,4.51096 3.4559,8.27615 0.86744,8.27615 -0.60937,0 -3.51851,-5.20312 -6.46476,-11.5625 z m -15.68584,-30 c -3.98159,-9.15775 -6.50213,-11.88103 -12.99152,-14.03646 -6.11582,-2.03134 -9.91099,-4.98513 -8.37661,-6.51951 0.44443,-0.44443 2.07778,0.38479 3.62967,1.84271 1.55188,1.45792 5.24366,3.03807 8.20396,3.51144 5.63762,0.90149 8.96457,3.21306 8.96457,6.22861 0,2.77876 3.02031,2.10641 6.01631,-1.33929 1.49444,-1.71875 3.58834,-3.125 4.65311,-3.125 1.55711,0 1.31412,1.0611 -1.24173,5.42232 -1.74773,2.98228 -3.17769,7.20103 -3.17769,9.375 0,5.69013 -2.91871,4.99139 -5.68007,-1.35982 z m 36.905,-9.09271 c -2.41547,-2.91046 -0.69195,-3.45894 1.89313,-0.60245 1.24818,1.37921 1.6886,2.50766 0.97873,2.50766 -0.70987,0 -2.00221,-0.85734 -2.87186,-1.90521 z m -22.47493,-3.11316 c 0,-1.47351 7.3844,-6.22007 9.6875,-6.22696 2.68395,-0.008 1.70772,1.75984 -2.58589,4.68283 -4.42504,3.01246 -7.10161,3.59444 -7.10161,1.54413 z m 7.86947,-16.54906 c -3.27854,-3.59973 -5.78016,-8.43854 -4.84574,-9.37296 0.39945,-0.39945 0.89029,-0.4919 1.09076,-0.20544 3.40387,4.86387 7.20681,11.4912 6.81741,11.8806 -0.27796,0.27795 -1.65605,-0.75804 -3.06243,-2.3022 z m -44.83961,-8.18601 c -2.02302,-1.69182 -2.47367,-3.21074 -2.04416,-6.8898 0.62448,-5.34908 3.16897,-5.65017 3.78483,-0.44786 0.44404,3.75091 0.66758,3.86357 4.06165,2.04712 3.33091,-1.78265 3.2503,1.17901 -0.13087,4.80828 -3.00357,3.22395 -2.44938,3.17682 -5.67145,0.48226 z m 38.31882,-8.47573 c 0.06,-1.45618 0.35618,-1.75237 0.75521,-0.7552 0.36109,0.90234 0.31668,1.98046 -0.0987,2.39583 -0.41536,0.41536 -0.7108,-0.32292 -0.65652,-1.64063 z m -63.76706,-3.54749 c -1.20988,-1.45781 -1.01302,-1.65598 1.09694,-1.10421 1.41429,0.36985 2.57144,1.16934 2.57144,1.77666 0,1.68602 -2.01804,1.3161 -3.66838,-0.67245 z m 61.9458,-1.75504 c -0.55313,-1.59869 -0.67308,-3.23931 -0.26655,-3.64583 1.29576,-1.29577 2.20656,0.61489 1.73169,3.6327 l -0.45945,2.91983 -1.00569,-2.9067 z m -46.20325,-7.81328 c -1.89708,-2.70846 -5.81734,-5.15773 -16.64674,-10.40045 -3.54617,-1.71677 -6.81374,-3.71386 -7.26128,-4.43798 -1.1889,-1.92369 -0.47351,-1.69138 6.97039,2.26349 3.70615,1.96905 8.13287,4.01658 9.83715,4.55007 4.06021,1.27097 11.27623,7.06703 11.27627,9.05735 6e-5,2.39214 -2.14934,1.8607 -4.17579,-1.03248 z m -5.19917,-23.65502 c 0.4249,-0.6875 1.30185,-1.25 1.94877,-1.25 0.64693,0 1.17623,0.5625 1.17623,1.25 0,0.6875 -0.87695,1.25 -1.94877,1.25 -1.07183,0 -1.60113,-0.5625 -1.17623,-1.25 z m 18.75,-0.90847 c -2.0625,-0.29365 -4.28438,-1.05312 -4.9375,-1.68771 -0.65312,-0.6346 -1.95893,-1.15382 -2.90179,-1.15382 -2.03815,0 -5.28571,-3.01716 -5.28571,-4.91071 0,-2.1306 3.37082,-1.57095 9.72906,1.61527 3.24277,1.62501 8.02095,3.34093 10.61818,3.81316 2.59723,0.47223 4.39216,1.39267 3.98873,2.04544 -0.73525,1.18966 -4.20503,1.27581 -11.21097,0.27837 z m -35.95194,-11.74965 c -3.61853,-2.02503 -2.45213,-3.59188 2.67388,-3.59188 3.00301,0 5.4996,0.79219 6.5625,2.08234 1.55152,1.88324 1.36833,1.99583 -1.91587,1.17751 -2.0681,-0.5153 -3.95775,-0.37683 -4.38944,0.32166 -0.49269,0.79719 -1.51861,0.80082 -2.93107,0.0104 z"
         id="path4214"
         inkscape:connector-curvature="0" />
    </g>
  </g>
</svg>
