P3
64 64
255
128
75
30
131
81
37
108
85
66
31
34
37
45
46
46
51
51
51
51
51
51
51
51
51
51
51
51
51
51
51
51
51
51
51
51
51
51
51
51
52
52
52
54
54
54
54
54
54
52
52
52
51
51
51
51
51
51
50
50
50
45
45
45
43
43
43
44
44
44
44
44
44
43
43
43
45
45
45
50
50
50
52
52
52
51
51
51
51
51
51
51
51
51
51
51
51
51
51
51
51
51
51
51
51
51
51
51
51
51
51
51
51
51
51
51
51
51
51
51
51
52
52
52
50
50
50
45
45
45
43
43
43
44
44
44
44
44
44
44
44
44
44
44
44
43
43
43
45
45
45
50
50
50
52
52
52
51
51
51
51
51
51
51
51
51
51
51
51
51
51
51
51
51
51
51
51
51
52
52
52
54
54
54
54
54
54
52
52
52
51
51
51
128
75
30
128
75
30
122
78
40
58
46
36
50
48
46
50
51
51
51
51
51
51
51
51
50
51
51
49
50
52
49
50
52
49
51
52
50
51
52
47
48
49
41
41
41
41
41
41
48
48
48
51
51
51
50
50
50
65
58
52
115
73
38
120
75
36
108
74
45
126
75
31
127
75
31
96
71
50
55
55
55
50
50
50
51
51
51
51
51
51
49
49
49
48
48
48
49
49
49
49
49
49
49
49
49
49
49
49
48
48
48
49
49
49
51
51
51
51
51
51
49
49
49
56
56
56
95
74
57
109
77
51
96
75
59
74
72
71
74
74
74
75
75
75
76
76
76
69
69
69
56
56
56
49
49
49
51
51
50
51
51
51
50
51
51
49
50
51
49
50
51
50
51
51
50
51
52
47
48
49
39
40
41
40
40
41
48
48
48
52
52
52
128
75
30
128
75
30
127
76
32
104
66
34
62
54
47
47
50
52
50
51
51
50
51
51
47
50
52
45
49
53
45
49
53
46
50
54
48
52
56
37
40
42
12
12
13
13
13
13
41
41
41
52
52
52
46
46
46
127
75
31
128
75
30
128
75
30
128
75
30
128
75
30
128
75
30
128
75
30
68
68
68
45
45
45
50
50
50
50
50
50
45
45
45
43
43
43
44
44
44
44
44
44
44
44
44
44
44
44
43
43
43
45
45
45
50
50
50
49
49
49
45
45
45
86
72
61
119
78
44
119
78
44
119
78
44
119
78
44
119
78
44
119
78
44
119
78
44
119
78
45
77
70
65
45
45
45
49
49
49
50
51
51
47
50
51
46
49
52
46
49
52
47
50
53
50
52
55
36
39
41
8
11
13
9
11
13
40
41
41
54
54
54
128
75
30
128
75
30
130
75
29
120
73
33
68
57
47
44
49
53
46
50
52
53
51
51
63
55
48
68
56
46
68
56
46
70
58
47
73
60
49
55
45
37
16
14
12
11
12
13
41
41
41
51
51
51
91
61
36
128
75
30
128
75
30
128
75
30
128
75
30
128
75
30
128
75
30
128
75
30
74
74
74
42
42
42
45
45
45
53
53
53
85
69
56
97
74
54
96
73
54
96
73
54
95
73
55
84
73
63
73
73
73
67
67
67
53
53
53
45
45
45
44
44
44
76
70
66
119
78
45
119
78
44
119
78
44
119
78
44
119
78
44
119
78
44
119
78
44
119
78
45
78
71
64
44
45
45
48
49
49
54
52
51
62
55
50
65
57
49
65
56
50
65
57
51
67
59
53
54
46
40
27
18
11
23
17
12
44
42
41
53
54
54
128
75
30
128
75
29
131
75
29
115
71
34
67
56
47
43
48
53
40
48
54
59
53
49
98
66
38
118
72
33
118
72
33
120
73
33
123
74
32
102
65
34
55
45
37
36
40
42
47
48
49
49
49
49
85
59
37
128
75
30
128
75
30
128
75
30
128
75
30
128
75
30
128
75
30
128
75
30
74
74
74
40
40
40
36
36
36
74
64
55
121
92
68
129
96
68
127
95
67
127
94
65
127
94
65
127
94
66
127
89
57
119
95
74
62
61
61
39
39
39
46
46
46
54
54
54
65
63
62
117
80
48
119
78
44
120
81
48
92
92
91
64
67
69
73
73
74
70
70
69
56
56
56
48
49
50
47
49
51
62
55
50
92
68
47
106
73
45
104
72
45
103
72
46
104
73
46
101
70
43
96
63
35
82
57
37
59
53
47
48
50
52
128
75
30
129
76
29
133
77
28
112
70
34
64
55
47
46
49
52
57
53
49
82
61
43
121
73
32
135
77
28
121
73
32
116
71
33
120
72
32
103
68
38
66
58
51
48
52
56
48
51
53
47
48
49
43
45
46
84
69
56
127
77
34
128
75
30
128
75
30
128
75
30
128
75
30
126
81
43
65
65
65
48
48
48
61
61
61
105
87
71
133
103
78
138
105
77
137
104
77
136
103
76
136
103
75
136
103
75
132
95
63
129
93
62
111
84
60
73
66
59
54
54
54
46
46
46
39
39
39
69
65
61
119
79
46
119
79
46
81
69
60
49
42
36
43
42
41
43
44
46
48
49
50
48
50
52
45
49
52
64
56
50
107
74
45
127
81
43
123
80
43
120
79
43
120
79
43
123
80
44
129
84
46
110
76
48
66
57
50
46
49
51
128
75
30
130
76
29
134
77
28
110
69
35
58
53
49
53
52
50
96
65
39
122
73
32
133
76
29
117
72
33
77
59
44
59
53
49
63
55
48
60
54
49
50
51
53
45
50
54
45
49
53
45
49
52
44
48
51
49
52
54
62
61
61
128
75
30
128
75
30
128
75
30
128
75
30
65
60
57
47
47
47
66
66
66
117
97
82
130
95
66
134
100
72
135
101
73
135
101
73
134
101
73
134
101
73
135
101
73
135
101
73
134
100
72
130
97
69
119
95
75
68
68
68
44
44
44
46
46
45
51
53
54
65
67
67
83
73
65
98
72
49
91
65
42
56
51
47
41
46
50
45
48
51
45
49
52
41
47
52
62
55
50
107
73
45
126
81
43
120
79
44
117
77
44
117
77
44
119
79
44
123
81
44
105
73
46
65
57
50
46
49
51
128
75
30
129
75
30
132
76
29
114
71
34
74
58
45
76
59
44
119
72
33
139
78
27
137
78
28
116
71
33
75
59
44
56
53
50
59
54
49
62
55
48
66
56
47
67
56
47
67
56
47
67
56
47
68
57
47
60
51
44
41
40
39
94
68
47
128
77
34
126
83
46
71
64
59
37
37
37
39
39
39
75
75
75
127
102
80
136
108
86
136
109
86
134
106
83
134
106
83
135
108
85
136
111
89
136
111
90
135
108
85
134
100
71
137
102
73
128
106
88
70
70
70
45
45
45
49
49
50
51
50
49
51
47
44
72
56
42
112
74
43
114
76
45
77
62
48
60
55
50
63
56
50
63
56
50
62
55
50
71
59
49
93
68
47
107
73
45
114
76
44
117
77
44
116
77
44
118
78
44
121
79
44
103
72
45
64
56
50
46
49
51
128
75
30
128
75
30
129
75
30
124
74
31
114
71
34
115
71
34
126
74
31
132
76
29
135
77
28
129
75
30
115
71
33
109
69
35
110
69
35
111
70
35
112
70
34
112
70
34
112
70
34
114
71
34
117
72
33
98
65
37
55
50
45
45
51
56
65
67
68
67
67
67
53
53
53
46
46
46
44
44
44
86
86
86
153
153
153
170
170
170
158
158
158
152
152
152
153
153
153
153
153
153
153
153
153
153
153
153
152
152
152
170
170
170
222
222
222
100
100
100
56
56
56
49
49
50
47
49
51
60
54
49
89
65
45
108
73
43
116
77
43
116
77
44
106
73
45
102
71
46
102
72
45
104
72
45
106
73
45
93
68
47
64
56
50
68
58
49
104
72
45
120
79
44
117
78
44
118
78
44
121
79
44
103
72
45
64
56
50
46
49
51
128
75
30
128
75
30
128
75
30
129
75
30
133
76
29
133
77
29
130
76
29
124
74
31
112
70
34
114
71
34
128
75
30
135
77
28
134
77
28
133
77
29
133
77
29
133
77
29
133
77
29
135
77
28
138
78
27
120
73
32
82
61
43
59
52
47
46
44
43
42
43
44
49
49
49
52
52
52
57
57
57
255
0
255
255
0
255
255
0
255
255
0
255
255
0
255
255
0
255
255
0
255
255
0
255
255
0
255
255
0
255
255
0
255
255
0
255
255
0
255
49
49
49
50
51
52
45
49
52
68
58
49
109
74
45
123
80
43
118
78
44
117
77
44
120
78
44
121
79
43
121
79
43
122
79
43
125
81
43
107
73
45
68
58
49
67
57
49
103
72
45
120
79
44
117
78
44
118
78
44
121
79
44
103
72
45
64
56
50
46
49
51
128
75
30
128
75
30
128
75
30
128
75
30
130
75
30
131
76
29
133
77
29
113
70
34
70
57
46
70
57
46
114
71
34
135
77
28
131
76
29
130
76
30
130
76
30
130
76
30
130
76
30
130
76
29
131
76
29
126
75
31
117
72
33
109
69
35
80
56
36
5
27
46
40
46
50
52
52
52
61
61
61
255
0
255
255
0
255
255
0
255
255
0
255
255
0
255
255
0
255
255
0
255
255
0
255
255
0
255
255
0
255
255
0
255
255
0
255
255
0
255
48
48
48
43
48
53
17
38
55
89
66
47
114
76
44
118
78
44
117
77
44
116
77
44
117
77
44
118
78
44
118
78
44
118
78
44
119
78
44
114
76
44
104
72
45
103
72
45
113
76
44
117
77
44
116
77
44
118
78
44
121
79
44
103
72
45
64
56
50
46
49
51
128
75
30
128
75
30
128
75
30
128
75
30
128
75
30
130
75
30
133
76
29
113
70
34
70
57
46
70
57
46
113
70
34
133
76
29
130
75
30
128
75
30
128
75
30
128
75
30
128
75
30
128
75
30
128
75
30
129
75
30
133
76
29
138
78
27
183
92
15
255
0
255
255
0
255
255
0
255
255
0
255
51
51
51
51
51
51
255
0
255
255
0
255
255
0
255
255
0
255
255
0
255
255
0
255
255
0
255
255
0
255
51
51
51
51
51
51
255
0
255
255
0
255
255
0
255
255
0
255
152
91
40
118
78
44
116
77
44
116
77
44
116
77
44
116
77
44
116
77
44
116
77
44
116
77
44
116
77
44
117
77
44
120
79
44
120
79
44
117
77
44
116
77
44
116
77
44
118
78
44
121
79
44
103
72
45
64
56
50
46
49
51
128
75
30
128
75
30
128
75
30
128
75
30
128
75
30
128
75
30
129
75
30
124
74
31
113
70
34
113
70
34
124
74
31
129
75
30
128
75
30
128
75
30
128
75
30
128
75
30
128
75
30
128
75
30
128
75
30
128
75
30
132
76
29
148
81
25
255
255
0
255
0
255
255
0
255
255
0
255
255
0
255
51
51
51
51
51
51
255
0
255
255
0
255
255
0
255
255
0
255
255
0
255
255
0
255
255
0
255
255
0
255
51
51
51
51
51
51
255
0
255
255
0
255
255
0
255
255
0
255
255
255
0
119
78
44
116
77
44
116
77
44
116
77
44
116
77
44
116
77
44
116
77
44
116
77
44
116
77
44
116
77
44
117
78
44
117
78
44
116
77
44
116
77
44
116
77
44
118
78
44
121
79
44
103
72
45
64
56
50
46
49
51
128
75
30
128
75
30
128
75
30
128
75
30
128
75
30
128
75
30
128
75
30
129
75
30
133
76
29
133
76
29
129
75
30
128
75
30
128
75
30
128
75
30
128
75
30
128
75
30
128
75
30
128
75
30
128
75
30
128
75
30
128
75
30
0
0
0
0
0
0
128
75
30
128
75
30
255
0
255
255
0
255
255
0
255
255
0
255
255
0
255
255
0
255
255
0
255
255
0
255
255
0
255
255
0
255
255
0
255
255
0
255
255
0
255
255
0
255
255
0
255
255
0
255
116
77
44
116
77
44
0
0
0
0
0
0
116
77
44
116
77
44
116
77
44
116
77
44
116
77
44
116
77
44
116
77
44
116
77
44
116
77
44
116
77
44
116
77
44
116
77
44
116
77
44
116
77
44
118
78
44
121
79
44
103
72
45
64
56
50
46
49
51
128
75
30
128
75
30
128
75
30
128
75
30
128
75
30
128
75
30
128
75
30
128
75
30
130
75
30
130
75
30
128
75
30
128
75
30
128
75
30
128
75
30
128
75
30
128
75
30
128
75
30
128
75
30
128
75
30
128
75
30
128
75
30
0
0
0
0
0
0
128
75
30
128
75
30
255
0
255
255
0
255
255
0
255
255
0
255
255
0
255
255
0
255
255
0
255
255
0
255
255
0
255
255
0
255
255
0
255
255
0
255
255
0
255
255
0
255
255
0
255
255
0
255
116
77
44
116
77
44
0
0
0
0
0
0
116
77
44
116
77
44
116
77
44
116
77
44
116
77
44
116
77
44
116
77
44
116
77
44
116
77
44
116
77
44
116
77
44
116
77
44
116
77
44
116
77
44
118
78
44
121
79
44
103
72
45
64
56
50
46
49
51
128
75
30
128
75
30
128
75
30
128
75
30
128
75
30
128
75
30
128
75
30
128
75
30
128
75
30
128
75
30
128
75
30
128
75
30
128
75
30
128
75
30
128
75
30
128
75
30
128
75
30
128
75
30
128
75
30
0
0
0
0
0
0
128
75
30
128
75
30
255
0
255
255
0
255
255
0
255
255
0
255
255
0
255
255
0
255
255
0
255
255
0
255
255
0
255
255
0
255
255
0
255
255
0
255
255
0
255
255
0
255
255
0
255
255
0
255
255
0
255
255
0
255
255
0
255
255
0
255
116
77
44
116
77
44
0
0
0
0
0
0
116
77
44
116
77
44
116
77
44
116
77
44
116
77
44
116
77
44
116
77
44
116
77
44
116
77
44
116
77
44
116
77
44
116
77
44
118
78
44
121
79
44
103
72
45
64
56
50
46
49
51
128
75
30
128
75
30
128
75
30
128
75
30
128
75
30
128
75
30
128
75
30
128
75
30
128
75
30
128
75
30
128
75
30
128
75
30
128
75
30
128
75
30
128
75
30
128
75
30
128
75
30
128
75
30
128
75
30
0
0
0
0
0
0
128
75
30
128
75
30
255
0
255
255
0
255
255
0
255
255
0
255
255
0
255
255
0
255
255
0
255
255
0
255
255
0
255
255
0
255
255
0
255
255
0
255
255
0
255
255
0
255
255
0
255
255
0
255
255
0
255
255
0
255
255
0
255
255
0
255
116
77
44
116
77
44
0
0
0
0
0
0
116
77
44
116
77
44
116
77
44
116
77
44
116
77
44
116
77
44
116
77
44
116
77
44
116
77
44
116
77
44
116
77
44
116
77
44
118
78
44
121
79
44
103
72
45
64
56
50
46
49
51
128
75
30
128
75
30
128
75
30
128
75
30
128
75
30
128
75
30
128
75
30
128
75
30
128
75
30
128
75
30
128
75
30
128
75
30
128
75
30
128
75
30
128
75
30
128
75
30
128
75
30
255
0
255
255
0
255
128
75
30
128
75
30
255
0
255
255
0
255
255
0
255
255
0
255
255
0
255
255
0
255
255
0
255
255
0
255
255
0
255
255
0
255
255
0
255
255
0
255
255
0
255
255
0
255
255
0
255
255
0
255
255
0
255
255
0
255
255
0
255
255
0
255
255
0
255
255
0
255
255
0
255
255
0
255
116
77
44
116
77
44
255
0
255
255
0
255
116
77
44
116
77
44
116
77
44
116
77
44
116
77
44
116
77
44
116
77
44
116
77
44
116
77
44
116
77
44
118
78
44
121
79
44
103
72
45
64
56
50
46
49
51
128
75
30
128
75
30
128
75
30
128
75
30
128
75
30
128
75
30
128
75
30
128
75
30
128
75
30
128
75
30
128
75
30
128
75
30
128
75
30
128
75
30
128
75
30
128
75
30
128
75
30
255
0
255
255
0
255
128
75
30
128
75
30
255
0
255
255
0
255
255
0
255
255
0
255
255
0
255
255
0
255
255
0
255
255
0
255
255
0
255
255
0
255
255
0
255
255
0
255
255
0
255
255
0
255
255
0
255
255
0
255
255
0
255
255
0
255
255
0
255
255
0
255
255
0
255
255
0
255
255
0
255
255
0
255
116
77
44
116
77
44
255
0
255
255
0
255
116
77
44
116
77
44
116
77
44
116
77
44
116
77
44
116
77
44
116
77
44
116
77
44
116
77
44
116
77
44
118
78
44
121
79
44
103
72
45
64
56
50
46
49
51
130
76
30
130
76
30
130
76
30
130
76
30
130
76
30
130
76
30
130
76
30
130
76
30
130
76
30
130
76
30
130
76
30
130
76
29
130
76
29
129
75
30
128
75
30
128
75
30
128
75
30
255
0
255
255
0
255
255
0
255
255
0
255
255
0
255
255
0
255
255
0
255
255
0
255
255
0
255
255
0
255
255
0
255
255
0
255
255
0
255
255
0
255
255
0
255
255
0
255
255
0
255
255
0
255
255
0
255
255
0
255
255
0
255
255
0
255
255
0
255
255
0
255
255
0
255
255
0
255
255
0
255
255
0
255
255
0
255
255
0
255
255
0
255
255
0
255
116
77
44
116
77
44
116
77
44
116
77
44
116
77
44
117
77
44
118
78
44
117
78
44
118
78
44
119
79
45
120
79
45
122
80
44
104
72
45
64
56
50
46
49
52
133
77
29
133
77
29
133
77
29
133
77
29
133
77
29
133
77
29
133
77
29
133
77
29
133
77
29
133
77
29
133
77
29
133
77
29
133
77
29
133
77
29
131
76
29
124
74
31
122
73
32
255
0
255
255
0
255
255
0
255
255
0
255
255
0
255
255
0
255
255
0
255
255
0
255
255
0
255
255
0
255
255
0
255
255
0
255
255
0
255
255
0
255
255
0
255
255
0
255
255
0
255
255
0
255
255
0
255
255
0
255
255
0
255
255
0
255
255
0
255
255
0
255
255
0
255
255
0
255
255
0
255
255
0
255
255
0
255
255
0
255
255
0
255
255
0
255
116
77
44
116
77
44
116
77
44
116
77
44
117
77
44
120
78
44
121
79
43
120
79
43
121
80
44
124
82
47
125
83
46
126
82
44
106
73
45
65
57
49
46
49
52
111
70
35
111
70
35
111
70
35
111
70
34
112
70
34
112
70
34
112
70
34
112
70
34
112
70
34
112
70
34
112
70
34
112
70
34
112
70
34
112
70
34
106
68
36
255
0
255
255
0
255
128
75
30
128
75
30
255
0
255
255
0
255
255
0
255
255
0
255
255
0
255
255
0
255
255
0
255
255
0
255
255
0
255
255
0
255
255
0
255
255
0
255
255
0
255
255
0
255
255
0
255
255
0
255
255
0
255
255
0
255
255
0
255
255
0
255
255
0
255
255
0
255
255
0
255
255
0
255
255
0
255
255
0
255
255
0
255
255
0
255
116
77
44
116
77
44
255
0
255
255
0
255
120
79
43
119
78
44
115
77
44
107
74
46
103
73
47
105
74
48
101
70
44
93
62
36
94
62
35
104
71
42
93
68
47
62
55
50
47
50
51
63
55
48
63
55
48
63
54
48
64
55
47
66
56
47
67
56
47
67
56
47
67
56
47
67
56
47
67
56
47
67
56
47
67
56
47
67
56
47
66
56
47
60
54
49
255
0
255
255
0
255
128
75
30
128
75
30
255
0
255
255
0
255
255
0
255
255
0
255
255
0
255
255
0
255
255
0
255
255
0
255
255
0
255
255
0
255
255
0
255
255
0
255
255
0
255
255
0
255
255
0
255
255
0
255
255
0
255
255
0
255
255
0
255
255
0
255
255
0
255
255
0
255
255
0
255
255
0
255
255
0
255
255
0
255
255
0
255
255
0
255
116
77
44
116
77
44
255
0
255
255
0
255
128
81
42
125
81
43
111
75
45
79
64
51
65
60
55
70
63
57
57
49
42
27
19
12
26
18
11
55
47
39
65
58
53
55
53
52
50
51
51
56
53
50
57
53
50
58
54
50
55
53
50
48
50
52
45
49
53
45
49
53
45
49
53
45
49
53
44
49
53
44
49
53
45
49
53
45
49
52
46
49
52
46
49
52
255
0
255
255
0
255
255
0
255
255
0
255
255
0
255
255
0
255
255
0
255
255
0
255
255
0
255
255
0
255
255
0
255
255
0
255
255
0
255
255
0
255
255
0
255
255
0
255
255
0
255
255
0
255
255
0
255
255
0
255
255
0
255
255
0
255
255
0
255
255
0
255
255
0
255
255
0
255
255
0
255
255
0
255
255
0
255
255
0
255
255
0
255
255
0
255
255
0
255
255
0
255
255
0
255
255
0
255
109
75
46
107
74
46
89
65
44
49
45
41
29
35
40
34
38
42
26
29
32
4
8
11
7
11
14
35
38
42
49
52
54
51
52
52
51
51
51
92
65
43
94
66
42
99
68
41
87
64
44
59
54
50
46
49
52
48
50
52
48
50
52
46
49
52
45
49
52
45
49
52
46
49
52
49
50
52
50
51
51
50
51
51
255
0
255
255
0
255
255
0
255
255
0
255
255
0
255
255
0
255
255
0
255
255
0
255
255
0
255
255
0
255
255
0
255
255
0
255
255
0
255
255
0
255
255
0
255
255
0
255
255
0
255
255
0
255
255
0
255
255
0
255
255
0
255
255
0
255
255
0
255
255
0
255
255
0
255
255
0
255
255
0
255
255
0
255
255
0
255
255
0
255
255
0
255
255
0
255
255
0
255
255
0
255
255
0
255
255
0
255
70
62
54
68
60
53
52
47
42
15
16
16
0
0
2
0
0
3
7
10
13
26
29
31
38
41
44
43
46
49
47
49
51
50
51
51
51
51
51
110
72
39
107
71
40
102
69
41
86
63
44
60
54
49
48
50
52
49
50
51
53
52
51
60
54
49
63
55
49
63
55
49
60
54
49
53
52
50
50
51
51
49
50
51
255
0
255
255
0
255
255
0
255
255
0
255
255
0
255
255
0
255
255
0
255
255
0
255
255
0
255
255
0
255
255
0
255
255
0
255
255
0
255
255
0
255
255
0
255
255
0
255
255
0
255
255
0
255
255
0
255
255
0
255
255
0
255
255
0
255
255
0
255
255
0
255
255
0
255
255
0
255
255
0
255
255
0
255
255
0
255
255
0
255
255
0
255
255
0
255
255
0
255
255
0
255
255
0
255
255
0
255
49
54
58
48
53
56
39
41
42
24
20
17
17
11
5
16
10
5
29
23
19
58
52
47
70
64
59
66
60
55
61
56
52
53
52
51
50
51
51
110
72
39
97
67
42
70
58
47
54
52
50
52
51
51
49
50
51
48
50
52
60
54
49
85
63
44
97
67
42
96
67
42
92
65
43
74
59
46
22
41
57
6
35
60
255
0
255
255
0
255
255
0
255
255
0
255
255
0
255
255
0
255
255
0
255
255
0
255
255
0
255
255
0
255
255
0
255
255
0
255
255
0
255
255
0
255
255
0
255
255
0
255
255
0
255
255
0
255
255
0
255
255
0
255
255
0
255
255
0
255
255
0
255
255
0
255
255
0
255
255
0
255
255
0
255
255
0
255
255
0
255
255
0
255
255
0
255
255
0
255
255
0
255
255
0
255
255
0
255
255
0
255
0
29
56
13
36
55
68
58
49
86
66
48
89
67
47
88
66
47
91
69
50
99
77
58
103
81
61
104
81
60
90
73
57
61
56
53
48
49
50
108
71
39
96
67
42
69
57
47
54
52
50
51
51
51
48
50
52
45
49
52
62
55
49
97
67
42
113
73
38
110
72
39
110
72
39
134
80
34
255
0
255
255
0
255
51
51
51
51
51
51
255
0
255
255
0
255
255
0
255
255
0
255
255
0
255
255
0
255
255
0
255
255
0
255
255
0
255
255
0
255
255
0
255
255
0
255
255
0
255
255
0
255
255
0
255
255
0
255
255
0
255
255
0
255
255
0
255
255
0
255
255
0
255
255
0
255
255
0
255
255
0
255
255
0
255
255
0
255
255
0
255
255
0
255
255
0
255
255
0
255
255
0
255
255
0
255
51
51
51
51
51
51
255
0
255
255
0
255
151
108
71
122
92
66
121
91
65
121
91
66
120
90
65
118
88
62
119
88
62
122
90
62
104
80
60
64
58
53
46
48
50
106
70
40
104
70
40
102
69
41
86
63
44
57
53
50
42
48
53
42
48
53
59
54
49
94
66
42
110
72
39
107
71
39
107
71
40
112
73
38
255
0
255
255
0
255
51
51
51
51
51
51
255
0
255
255
0
255
255
0
255
255
0
255
255
0
255
255
0
255
255
0
255
255
0
255
255
0
255
255
0
255
255
0
255
255
0
255
255
0
255
255
0
255
255
0
255
255
0
255
255
0
255
255
0
255
255
0
255
255
0
255
255
0
255
255
0
255
255
0
255
255
0
255
255
0
255
255
0
255
255
0
255
255
0
255
255
0
255
255
0
255
255
0
255
255
0
255
51
51
51
51
51
51
255
0
255
255
0
255
123
91
64
116
87
63
116
87
62
116
87
63
115
87
62
115
86
61
116
87
61
119
88
62
102
79
59
64
58
53
47
49
50
106
70
40
104
70
40
101
68
41
89
64
43
69
57
47
59
54
49
58
54
50
71
58
47
96
67
42
108
71
39
106
70
40
105
70
40
105
70
40
255
0
255
255
0
255
255
0
255
255
0
255
255
0
255
255
0
255
255
0
255
255
0
255
255
0
255
255
0
255
255
0
255
255
0
255
255
0
255
255
0
255
255
0
255
255
0
255
255
0
255
255
0
255
255
0
255
255
0
255
255
0
255
255
0
255
255
0
255
255
0
255
255
0
255
255
0
255
255
0
255
255
0
255
255
0
255
255
0
255
255
0
255
255
0
255
255
0
255
255
0
255
255
0
255
255
0
255
255
0
255
255
0
255
255
0
255
255
0
255
113
85
61
113
85
61
113
85
61
113
85
61
113
85
61
113
85
61
114
86
61
117
87
62
100
78
59
64
58
53
47
49
50
108
71
39
95
66
42
66
56
48
63
55
49
86
63
44
96
67
42
94
66
42
96
67
42
103
69
40
106
70
40
105
70
40
105
70
40
105
70
40
255
0
255
255
0
255
255
0
255
255
0
255
255
0
255
255
0
255
255
0
255
255
0
255
255
0
255
255
0
255
255
0
255
255
0
255
255
0
255
255
0
255
255
0
255
255
0
255
255
0
255
255
0
255
255
0
255
255
0
255
255
0
255
255
0
255
255
0
255
255
0
255
255
0
255
255
0
255
255
0
255
255
0
255
255
0
255
255
0
255
255
0
255
255
0
255
255
0
255
255
0
255
255
0
255
255
0
255
255
0
255
255
0
255
255
0
255
255
0
255
113
85
61
113
85
61
113
85
61
113
85
61
113
85
61
113
85
61
114
86
61
117
87
62
100
78
59
64
58
53
47
49
50
108
71
39
94
66
42
64
56
48
65
56
48
97
67
42
112
73
38
110
72
39
108
71
39
106
70
40
105
70
40
105
70
40
105
70
40
105
70
40
255
0
255
255
0
255
255
0
255
255
0
255
255
0
255
255
0
255
255
0
255
255
0
255
255
0
255
255
0
255
255
0
255
255
0
255
255
0
255
255
0
255
255
0
255
255
0
255
255
0
255
255
0
255
255
0
255
255
0
255
255
0
255
255
0
255
255
0
255
255
0
255
255
0
255
255
0
255
255
0
255
255
0
255
255
0
255
255
0
255
255
0
255
255
0
255
255
0
255
255
0
255
255
0
255
255
0
255
255
0
255
255
0
255
255
0
255
255
0
255
113
85
61
113
85
61
113
85
61
113
85
61
113
85
61
113
85
61
114
86
61
117
87
62
100
78
59
64
58
53
47
49
50
106
70
40
102
69
41
94
66
42
95
66
42
103
69
40
107
71
40
107
71
40
106
70
40
105
70
40
105
70
40
105
70
40
105
70
40
105
70
40
255
0
255
255
0
255
255
0
255
255
0
255
255
0
255
255
0
255
255
0
255
255
0
255
255
0
255
255
0
255
255
0
255
255
0
255
255
0
255
255
0
255
255
0
255
255
0
255
255
0
255
255
0
255
255
0
255
255
0
255
255
0
255
255
0
255
255
0
255
255
0
255
255
0
255
255
0
255
255
0
255
255
0
255
255
0
255
255
0
255
255
0
255
255
0
255
255
0
255
255
0
255
255
0
255
255
0
255
255
0
255
255
0
255
255
0
255
255
0
255
113
85
61
113
85
61
113
85
61
113
85
61
113
85
61
113
85
61
114
86
61
117
87
62
100
78
59
64
58
53
47
49
50
105
70
40
106
70
40
108
71
39
108
71
39
106
70
40
105
70
40
105
70
40
105
70
40
105
70
40
105
70
40
105
70
40
105
70
40
105
70
40
255
0
255
255
0
255
255
0
255
255
0
255
255
0
255
255
0
255
255
0
255
255
0
255
255
0
255
255
0
255
255
0
255
255
0
255
255
0
255
255
0
255
255
0
255
255
0
255
255
0
255
255
0
255
255
0
255
255
0
255
255
0
255
255
0
255
255
0
255
255
0
255
255
0
255
255
0
255
255
0
255
255
0
255
255
0
255
255
0
255
255
0
255
255
0
255
255
0
255
255
0
255
255
0
255
255
0
255
255
0
255
255
0
255
255
0
255
255
0
255
113
85
61
113
85
61
113
85
61
113
85
61
113
85
61
113
85
61
114
86
61
117
87
62
100
78
59
64
58
53
47
49
50
105
70
40
105
70
40
106
70
40
106
70
40
105
70
40
105
70
40
105
70
40
105
70
40
105
70
40
105
70
40
105
70
40
105
70
40
105
70
40
255
0
255
255
0
255
255
0
255
255
0
255
255
0
255
255
0
255
255
0
255
255
0
255
255
0
255
255
0
255
255
0
255
255
0
255
255
0
255
255
0
255
255
0
255
255
0
255
255
0
255
255
0
255
255
0
255
255
0
255
255
0
255
255
0
255
255
0
255
255
0
255
255
0
255
255
0
255
255
0
255
255
0
255
255
0
255
255
0
255
255
0
255
255
0
255
255
0
255
255
0
255
255
0
255
255
0
255
255
0
255
255
0
255
255
0
255
255
0
255
113
85
61
113
85
61
113
85
61
113
85
61
113
85
61
113
85
61
114
86
61
117
87
62
100
78
59
64
58
53
47
49
50
105
70
40
105
70
40
105
70
40
105
70
40
105
70
40
105
70
40
105
70
40
105
70
40
105
70
40
105
70
40
106
70
40
106
70
40
106
70
40
255
0
255
255
0
255
255
0
255
255
0
255
255
0
255
255
0
255
255
0
255
255
0
255
255
0
255
255
0
255
255
0
255
255
0
255
255
0
255
255
0
255
255
0
255
255
0
255
255
0
255
255
0
255
255
0
255
255
0
255
255
0
255
255
0
255
255
0
255
255
0
255
255
0
255
255
0
255
255
0
255
255
0
255
255
0
255
255
0
255
255
0
255
255
0
255
255
0
255
255
0
255
255
0
255
255
0
255
255
0
255
255
0
255
255
0
255
255
0
255
113
85
61
113
85
61
113
85
61
113
85
61
113
85
61
113
85
61
114
86
61
117
87
62
100
78
59
64
58
53
47
49
50
105
70
40
105
70
40
105
70
40
105
70
40
105
70
40
105
70
40
105
70
40
105
70
40
105
70
40
106
70
40
108
71
39
109
71
39
109
71
39
255
0
255
255
0
255
255
0
255
255
0
255
255
0
255
255
0
255
255
0
255
255
0
255
255
0
255
255
0
255
255
0
255
255
0
255
255
0
255
255
0
255
255
0
255
255
0
255
255
0
255
255
0
255
255
0
255
255
0
255
255
0
255
255
0
255
255
0
255
255
0
255
255
0
255
255
0
255
255
0
255
255
0
255
255
0
255
255
0
255
255
0
255
255
0
255
255
0
255
255
0
255
255
0
255
255
0
255
255
0
255
255
0
255
255
0
255
255
0
255
113
85
61
113
85
61
113
85
61
113
85
61
113
85
61
113
85
61
114
86
61
117
87
62
100
78
59
64
58
53
47
49
50
105
70
40
105
70
40
105
70
40
105
70
40
105
70
40
105
70
40
105
70
40
105
70
40
106
70
40
102
69
41
95
67
42
92
65
43
91
65
43
255
0
255
255
0
255
255
0
255
255
0
255
255
0
255
255
0
255
255
0
255
255
0
255
255
0
255
255
0
255
255
0
255
255
0
255
255
0
255
255
0
255
255
0
255
255
0
255
255
0
255
255
0
255
255
0
255
255
0
255
255
0
255
255
0
255
255
0
255
255
0
255
255
0
255
255
0
255
255
0
255
255
0
255
255
0
255
255
0
255
255
0
255
255
0
255
255
0
255
255
0
255
255
0
255
255
0
255
255
0
255
255
0
255
255
0
255
255
0
255
113
85
61
113
85
61
113
85
61
113
85
61
113
85
61
113
85
61
114
86
61
117
87
62
100
78
59
64
58
53
47
49
50
105
70
40
105
70
40
105
70
40
105
70
40
105
70
40
105
70
40
105
70
40
106
70
40
108
71
39
95
66
42
67
57
48
54
52
50
53
52
51
255
0
255
255
0
255
255
0
255
255
0
255
255
0
255
255
0
255
255
0
255
255
0
255
255
0
255
255
0
255
255
0
255
255
0
255
255
0
255
255
0
255
255
0
255
255
0
255
255
0
255
255
0
255
255
0
255
255
0
255
255
0
255
255
0
255
255
0
255
255
0
255
255
0
255
255
0
255
255
0
255
255
0
255
255
0
255
255
0
255
255
0
255
255
0
255
255
0
255
255
0
255
255
0
255
255
0
255
255
0
255
255
0
255
255
0
255
255
0
255
113
85
61
113
85
61
113
85
61
113
85
61
113
85
61
113
85
61
114
86
61
117
87
62
100
78
59
64
58
53
47
49
50
105
70
40
105
70
40
105
70
40
105
70
40
105
70
40
105
70
40
105
70
40
106
70
40
108
71
39
95
66
42
67
57
48
54
52
50
53
52
51
255
0
255
255
0
255
255
0
255
255
0
255
255
0
255
255
0
255
255
0
255
255
0
255
255
0
255
255
0
255
255
0
255
255
0
255
255
0
255
255
0
255
255
0
255
255
0
255
255
0
255
255
0
255
255
0
255
255
0
255
255
0
255
255
0
255
255
0
255
255
0
255
255
0
255
255
0
255
255
0
255
255
0
255
255
0
255
255
0
255
255
0
255
255
0
255
255
0
255
255
0
255
255
0
255
255
0
255
255
0
255
255
0
255
255
0
255
255
0
255
113
85
61
113
85
61
113
85
61
113
85
61
113
85
61
113
85
61
114
86
61
117
87
62
100
78
59
64
58
53
47
49
50
105
70
40
105
70
40
105
70
40
105
70
40
105
70
40
105
70
40
105
70
40
105
70
40
106
70
40
102
69
41
95
67
42
92
65
43
91
65
43
255
0
255
255
0
255
255
0
255
255
0
255
255
0
255
255
0
255
255
0
255
255
0
255
255
0
255
255
0
255
255
0
255
255
0
255
255
0
255
255
0
255
255
0
255
255
0
255
255
0
255
255
0
255
255
0
255
255
0
255
255
0
255
255
0
255
255
0
255
255
0
255
255
0
255
255
0
255
255
0
255
255
0
255
255
0
255
255
0
255
255
0
255
255
0
255
255
0
255
255
0
255
255
0
255
255
0
255
255
0
255
255
0
255
255
0
255
255
0
255
113
85
61
113
85
61
113
85
61
113
85
61
113
85
61
113
85
61
114
86
61
117
87
62
100
78
59
64
58
53
47
49
50
105
70
40
105
70
40
105
70
40
105
70
40
105
70
40
105
70
40
105
70
40
105
70
40
105
70
40
106
70
40
108
71
39
109
71
39
109
71
39
255
0
255
255
0
255
255
0
255
255
0
255
255
0
255
255
0
255
255
0
255
255
0
255
255
0
255
255
0
255
255
0
255
255
0
255
255
0
255
255
0
255
255
0
255
255
0
255
255
0
255
255
0
255
255
0
255
255
0
255
255
0
255
255
0
255
255
0
255
255
0
255
255
0
255
255
0
255
255
0
255
255
0
255
255
0
255
255
0
255
255
0
255
255
0
255
255
0
255
255
0
255
255
0
255
255
0
255
255
0
255
255
0
255
255
0
255
255
0
255
113
85
61
113
85
61
113
85
61
113
85
61
113
85
61
113
85
61
114
86
61
117
87
62
100
78
59
64
58
53
47
49
50
105
70
40
105
70
40
105
70
40
105
70
40
105
70
40
105
70
40
105
70
40
105
70
40
105
70
40
105
70
40
106
70
40
106
70
40
106
70
40
255
0
255
255
0
255
255
0
255
255
0
255
255
0
255
255
0
255
255
0
255
255
0
255
255
0
255
255
0
255
255
0
255
255
0
255
255
0
255
255
0
255
255
0
255
255
0
255
255
0
255
255
0
255
255
0
255
255
0
255
255
0
255
255
0
255
255
0
255
255
0
255
255
0
255
255
0
255
255
0
255
255
0
255
255
0
255
255
0
255
255
0
255
255
0
255
255
0
255
255
0
255
255
0
255
255
0
255
255
0
255
255
0
255
255
0
255
255
0
255
113
85
61
113
85
61
113
85
61
113
85
61
113
85
61
113
85
61
114
86
61
117
87
62
100
78
59
64
58
53
47
49
50
106
70
40
106
70
40
105
70
40
105
70
40
105
70
40
105
70
40
105
70
40
105
70
40
106
70
40
106
70
40
106
70
40
106
70
40
106
70
40
255
0
255
255
0
255
255
0
255
255
0
255
255
0
255
255
0
255
255
0
255
255
0
255
255
0
255
255
0
255
255
0
255
255
0
255
255
0
255
255
0
255
255
0
255
255
0
255
255
0
255
255
0
255
255
0
255
255
0
255
255
0
255
255
0
255
255
0
255
255
0
255
255
0
255
255
0
255
255
0
255
255
0
255
255
0
255
255
0
255
255
0
255
255
0
255
255
0
255
255
0
255
255
0
255
255
0
255
255
0
255
255
0
255
255
0
255
255
0
255
114
86
61
114
86
61
114
86
61
114
86
61
114
86
61
114
86
61
116
87
61
119
88
62
102
79
59
64
58
53
47
49
50
109
71
39
108
71
40
106
70
40
105
70
40
105
70
40
105
70
40
105
70
40
106
70
40
108
71
39
109
71
39
109
71
39
109
71
39
109
71
39
255
0
255
255
0
255
255
0
255
255
0
255
255
0
255
255
0
255
255
0
255
255
0
255
255
0
255
255
0
255
255
0
255
255
0
255
255
0
255
255
0
255
255
0
255
255
0
255
255
0
255
255
0
255
255
0
255
255
0
255
255
0
255
255
0
255
255
0
255
255
0
255
255
0
255
255
0
255
255
0
255
255
0
255
255
0
255
255
0
255
255
0
255
255
0
255
255
0
255
255
0
255
255
0
255
255
0
255
255
0
255
255
0
255
255
0
255
255
0
255
117
87
62
117
87
62
117
87
62
117
87
62
117
87
62
117
87
62
119
88
62
122
90
62
104
80
60
64
58
53
46
48
50
94
66
42
97
67
41
104
70
40
107
71
40
107
71
40
107
71
40
107
71
40
104
70
40
97
67
42
93
66
42
94
66
42
94
66
42
94
66
42
255
0
255
255
0
255
255
0
255
255
0
255
255
0
255
255
0
255
255
0
255
255
0
255
255
0
255
255
0
255
255
0
255
255
0
255
255
0
255
255
0
255
255
0
255
255
0
255
255
0
255
255
0
255
255
0
255
255
0
255
255
0
255
255
0
255
255
0
255
255
0
255
255
0
255
255
0
255
255
0
255
255
0
255
255
0
255
255
0
255
255
0
255
255
0
255
255
0
255
255
0
255
255
0
255
255
0
255
255
0
255
255
0
255
255
0
255
255
0
255
99
77
59
99
77
59
99
78
59
100
78
59
100
78
59
100
78
59
102
79
59
105
81
61
91
74
58
61
57
53
47
49
50
62
54
47
74
58
45
100
68
41
112
72
39
110
72
39
110
72
39
112
72
39
99
68
41
71
58
47
59
54
49
61
54
49
62
55
49
62
55
49
255
0
255
255
0
255
255
0
255
255
0
255
255
0
255
255
0
255
255
0
255
255
0
255
255
0
255
255
0
255
255
0
255
255
0
255
255
0
255
255
0
255
255
0
255
255
0
255
255
0
255
255
0
255
255
0
255
255
0
255
255
0
255
255
0
255
255
0
255
255
0
255
255
0
255
255
0
255
255
0
255
255
0
255
255
0
255
255
0
255
255
0
255
255
0
255
255
0
255
255
0
255
255
0
255
255
0
255
255
0
255
255
0
255
255
0
255
255
0
255
63
57
53
63
57
53
63
58
53
63
58
53
64
58
53
63
58
53
65
59
54
68
62
56
64
60
56
54
53
52
50
50
51
47
48
50
59
53
48
85
63
44
97
67
42
95
67
42
95
67
42
97
67
41
84
63
44
56
53
51
43
48
53
45
49
53
46
50
53
46
50
53
255
0
255
255
0
255
255
0
255
255
0
255
255
0
255
255
0
255
255
0
255
255
0
255
255
0
255
255
0
255
255
0
255
255
0
255
255
0
255
255
0
255
255
0
255
255
0
255
255
0
255
255
0
255
255
0
255
255
0
255
255
0
255
255
0
255
255
0
255
255
0
255
255
0
255
255
0
255
255
0
255
255
0
255
255
0
255
255
0
255
255
0
255
255
0
255
255
0
255
255
0
255
255
0
255
255
0
255
255
0
255
255
0
255
255
0
255
255
0
255
44
48
51
44
48
51
45
48
51
46
49
51
46
49
51
47
50
52
43
46
49
35
39
41
37
39
41
47
48
48
52
52
52
47
50
53
51
51
52
59
54
50
63
55
49
62
55
49
62
55
49
63
55
48
59
54
50
49
51
53
45
50
54
46
50
54
46
50
54
46
50
54
255
0
255
255
0
255
255
0
255
255
0
255
255
0
255
255
0
255
255
0
255
255
0
255
255
0
255
255
0
255
255
0
255
255
0
255
255
0
255
255
0
255
255
0
255
255
0
255
255
0
255
255
0
255
255
0
255
255
0
255
255
0
255
255
0
255
255
0
255
255
0
255
255
0
255
255
0
255
255
0
255
255
0
255
255
0
255
255
0
255
255
0
255
255
0
255
255
0
255
255
0
255
255
0
255
255
0
255
255
0
255
255
0
255
255
0
255
255
0
255
0
40
128
0
44
96
38
50
59
46
51
54
48
52
54
50
54
57
37
41
44
9
12
15
10
12
15
40
41
41
54
54
54
59
52
45
56
51
47
50
50
50
47
50
52
47
50
52
47
50
52
45
49
53
49
50
51
59
51
45
63
52
42
62
52
43
62
52
43
62
52
43
255
0
255
255
0
255
255
0
255
255
0
255
255
0
255
255
0
255
255
0
255
255
0
255
255
0
255
255
0
255
255
0
255
255
0
255
255
0
255
255
0
255
255
0
255
255
0
255
255
0
255
255
0
255
255
0
255
255
0
255
255
0
255
255
0
255
255
0
255
255
0
255
255
0
255
255
0
255
255
0
255
255
0
255
255
0
255
255
0
255
255
0
255
255
0
255
255
0
255
255
0
255
255
0
255
255
0
255
255
0
255
255
0
255
255
0
255
255
0
255
255
14
0
174
29
0
74
47
24
60
49
41
58
51
45
61
53
46
48
40
33
20
11
4
18
12
6
42
41
39
54
54
55
82
54
28
74
53
34
57
51
46
49
50
52
50
51
51
48
50
53
43
50
56
55
51
47
84
53
27
97
54
18
95
54
19
94
54
20
94
54
20
255
0
255
255
0
255
255
0
255
255
0
255
255
0
255
255
0
255
255
0
255
255
0
255
255
0
255
255
0
255
255
0
255
255
0
255
255
0
255
255
0
255
255
0
255
255
0
255
255
0
255
255
0
255
255
0
255
255
0
255
255
0
255
255
0
255
255
0
255
255
0
255
255
0
255
255
0
255
255
0
255
255
0
255
255
0
255
255
0
255
255
0
255
255
0
255
255
0
255
255
0
255
255
0
255
255
0
255
255
0
255
255
0
255
255
0
255
255
0
255
87
45
9
87
45
10
84
45
13
80
46
18
78
47
21
79
47
21
76
43
17
70
36
8
63
37
16
54
47
42
50
52
54
98
55
17
86
54
25
61
52
44
49
51
53
50
51
52
52
51
50
56
51
47
72
53
36
100
55
16
112
56
7
110
55
9
109
55
9
109
55
9
255
0
255
255
0
255
255
0
255
255
0
255
255
0
255
255
0
255
255
0
255
255
0
255
255
0
255
255
0
255
255
0
255
255
0
255
255
0
255
255
0
255
255
0
255
255
0
255
255
0
255
255
0
255
255
0
255
255
0
255
255
0
255
255
0
255
255
0
255
255
0
255
255
0
255
255
0
255
255
0
255
255
0
255
255
0
255
255
0
255
255
0
255
255
0
255
255
0
255
255
0
255
255
0
255
255
0
255
255
0
255
255
0
255
255
0
255
255
0
255
85
45
12
85
45
12
85
45
12
87
45
10
88
44
9
88
44
8
90
45
8
94
47
8
84
49
20
59
50
43
48
51
54
106
55
11
92
54
21
62
52
43
47
51
54
47
51
54
59
52
45
84
53
27
100
55
16
105
55
12
107
55
10
107
55
11
106
55
11
106
55
11
255
0
255
255
0
255
255
0
255
255
0
255
255
0
255
255
0
255
255
0
255
255
0
255
255
0
255
255
0
255
255
0
255
255
0
255
255
0
255
255
0
255
255
0
255
255
0
255
255
0
255
255
0
255
255
0
255
255
0
255
255
0
255
255
0
255
255
0
255
255
0
255
255
0
255
255
0
255
255
0
255
255
0
255
255
0
255
255
0
255
255
0
255
255
0
255
255
0
255
255
0
255
255
0
255
255
0
255
255
0
255
255
0
255
255
0
255
255
0
255
85
45
12
85
45
12
85
45
12
85
45
11
86
45
10
88
44
9
89
45
7
92
45
6
82
47
18
59
50
43
48
51
54
110
55
8
95
54
20
61
52
44
44
51
56
44
50
56
62
52
43
98
54
17
113
56
6
107
55
10
105
55
12
105
55
12
105
55
12
105
55
12
255
0
255
255
0
255
255
0
255
255
0
255
255
0
255
255
0
255
255
0
255
255
0
255
255
0
255
255
0
255
255
0
255
255
0
255
255
0
255
255
0
255
255
0
255
255
0
255
255
0
255
255
0
255
255
0
255
255
0
255
255
0
255
255
0
255
255
0
255
255
0
255
255
0
255
255
0
255
255
0
255
255
0
255
255
0
255
255
0
255
255
0
255
255
0
255
255
0
255
255
0
255
255
0
255
255
0
255
255
0
255
255
0
255
255
0
255
255
0
255
85
45
12
85
45
12
85
45
12
86
45
11
84
45
13
79
46
19
77
46
21
79
46
19
72
47
27
56
50
45
49
51
53
109
55
9
94
54
20
59
52
45
42
50
58
41
50
58
60
52
44
98
54
17
113
56
6
108
55
10
105
55
12
105
55
12
105
55
12
105
55
12
255
0
255
255
0
255
255
0
255
255
0
255
255
0
255
255
0
255
255
0
255
255
0
255
255
0
255
255
0
255
255
0
255
255
0
255
255
0
255
255
0
255
255
0
255
255
0
255
255
0
255
255
0
255
255
0
255
255
0
255
255
0
255
255
0
255
255
0
255
255
0
255
255
0
255
255
0
255
255
0
255
255
0
255
255
0
255
255
0
255
255
0
255
255
0
255
255
0
255
255
0
255
255
0
255
255
0
255
255
0
255
255
0
255
255
0
255
255
0
255
85
45
12
85
45
12
86
45
11
89
44
7
81
46
16
62
49
38
53
51
48
55
50
46
55
50
47
52
51
50
51
51
51
108
55
10
96
54
18
71
52
37
58
52
46
59
52
45
68
52
39
87
54
25
99
55
17
104
55
13
106
55
11
105
55
12
105
55
12
105
55
12
255
0
255
255
0
255
255
0
255
255
0
255
255
0
255
255
0
255
255
0
255
255
0
255
255
0
255
255
0
255
255
0
255
255
0
255
255
0
255
255
0
255
255
0
255
255
0
255
255
0
255
255
0
255
255
0
255
255
0
255
255
0
255
255
0
255
255
0
255
255
0
255
255
0
255
255
0
255
255
0
255
255
0
255
255
0
255
255
0
255
255
0
255
255
0
255
255
0
255
255
0
255
255
0
255
255
0
255
255
0
255
255
0
255
255
0
255
255
0
255
86
45
11
86
45
11
84
45
13
81
46
16
73
47
26
60
49
41
54
50
48
55
50
46
55
50
47
52
51
50
51
51
51
106
55
11
103
55
14
96
54
18
94
54
20
96
54
18
87
54
25
65
52
41
68
52
38
96
54
19
108
55
10
106
55
11
105
55
12
105
55
12
255
0
255
255
0
255
255
0
255
255
0
255
255
0
255
255
0
255
255
0
255
255
0
255
255
0
255
255
0
255
255
0
255
255
0
255
255
0
255
255
0
255
255
0
255
255
0
255
255
0
255
255
0
255
255
0
255
255
0
255
255
0
255
255
0
255
255
0
255
255
0
255
255
0
255
255
0
255
255
0
255
255
0
255
255
0
255
255
0
255
255
0
255
255
0
255
255
0
255
255
0
255
255
0
255
255
0
255
255
0
255
255
0
255
255
0
255
255
0
255
88
44
8
87
45
9
79
46
18
63
49
38
60
49
41
73
47
26
79
46
19
80
46
18
72
47
27
56
50
45
49
51
53
105
55
12
106
55
11
108
55
10
111
55
8
113
56
6
95
54
19
55
51
48
54
51
49
92
54
22
109
55
9
106
55
11
105
55
12
105
55
12
255
0
255
255
0
255
255
0
255
255
0
255
255
0
255
255
0
255
255
0
255
255
0
255
255
0
255
255
0
255
255
0
255
255
0
255
255
0
255
255
0
255
255
0
255
255
0
255
255
0
255
255
0
255
255
0
255
255
0
255
255
0
255
255
0
255
255
0
255
255
0
255
255
0
255
255
0
255
255
0
255
255
0
255
255
0
255
255
0
255
255
0
255
255
0
255
255
0
255
255
0
255
255
0
255
255
0
255
255
0
255
255
0
255
255
0
255
255
0
255
89
44
7
88
44
8
77
46
21
53
51
48
53
51
48
78
46
19
91
44
5
91
44
5
80
46
18
58
50
43
48
51
54
105
55
12
105
55
12
106
55
11
108
55
10
111
55
8
93
54
21
54
51
49
54
51
49
92
54
22
109
55
9
106
55
11
105
55
12
105
55
12
255
0
255
255
0
255
255
0
255
255
0
255
255
0
255
255
0
255
255
0
255
255
0
255
255
0
255
255
0
255
255
0
255
255
0
255
255
0
255
255
0
255
255
0
255
255
0
255
255
0
255
255
0
255
255
0
255
255
0
255
255
0
255
255
0
255
255
0
255
255
0
255
255
0
255
255
0
255
255
0
255
255
0
255
255
0
255
255
0
255
255
0
255
255
0
255
255
0
255
255
0
255
255
0
255
255
0
255
255
0
255
255
0
255
255
0
255
255
0
255
89
44
7
88
44
8
77
46
21
53
51
48
53
51
49
77
46
21
89
44
7
89
44
7
79
46
19
58
50
43
49
51
54
105
55
12
105
55
12
105
55
12
106
55
11
108
55
10
95
54
19
68
52
39
68
52
39
95
54
19
108
55
10
106
55
11
105
55
12
105
55
12
255
0
255
255
0
255
255
0
255
255
0
255
255
0
255
255
0
255
255
0
255
255
0
255
255
0
255
255
0
255
255
0
255
255
0
255
255
0
255
255
0
255
255
0
255
255
0
255
255
0
255
255
0
255
255
0
255
255
0
255
255
0
255
255
0
255
255
0
255
255
0
255
255
0
255
255
0
255
255
0
255
255
0
255
255
0
255
255
0
255
255
0
255
255
0
255
255
0
255
255
0
255
255
0
255
255
0
255
255
0
255
255
0
255
255
0
255
255
0
255
88
44
8
87
45
9
79
46
19
62
49
38
62
49
39
79
46
19
88
44
9
88
44
8
78
46
20
59
51
44
50
53
55
105
55
12
105
55
12
105
55
12
105
55
12
106
55
11
103
55
14
95
54
19
95
54
19
103
55
14
106
55
11
105
55
12
105
55
12
105
55
12
255
0
255
255
0
255
255
0
255
255
0
255
255
0
255
255
0
255
255
0
255
255
0
255
255
0
255
255
0
255
255
0
255
255
0
255
255
0
255
255
0
255
255
0
255
255
0
255
255
0
255
255
0
255
255
0
255
255
0
255
255
0
255
255
0
255
255
0
255
255
0
255
255
0
255
255
0
255
255
0
255
255
0
255
255
0
255
255
0
255
255
0
255
255
0
255
255
0
255
255
0
255
255
0
255
255
0
255
255
0
255
255
0
255
255
0
255
255
0
255
86
45
11
86
45
11
84
45
14
79
46
19
79
46
19
83
45
14
86
45
10
87
44
9
79
47
21
61
53
46
52
55
58
105
55
12
105
55
12
105
55
12
105
55
12
105
55
12
106
55
11
108
55
10
108
55
10
106
55
11
105
55
12
105
55
12
105
55
12
105
55
12
255
0
255
255
0
255
255
0
255
255
0
255
255
0
255
255
0
255
255
0
255
255
0
255
255
0
255
255
0
255
255
0
255
255
0
255
255
0
255
255
0
255
255
0
255
255
0
255
255
0
255
255
0
255
255
0
255
255
0
255
255
0
255
255
0
255
255
0
255
255
0
255
255
0
255
255
0
255
255
0
255
255
0
255
255
0
255
255
0
255
255
0
255
255
0
255
255
0
255
255
0
255
255
0
255
255
0
255
255
0
255
255
0
255
255
0
255
255
0
255
85
45
12
85
45
12
86
45
11
87
45
10
87
45
10
86
45
11
86
45
12
88
45
10
76
44
18
50
42
35
38
40
43
105
55
12
105
55
12
105
55
12
105
55
12
105
55
12
105
55
12
106
55
11
106
55
11
105
55
12
105
55
12
105
55
12
105
55
12
105
55
12
255
0
255
255
0
255
255
0
255
255
0
255
255
0
255
255
0
255
255
0
255
255
0
255
255
0
255
255
0
255
255
0
255
255
0
255
255
0
255
255
0
255
255
0
255
255
0
255
255
0
255
255
0
255
255
0
255
255
0
255
255
0
255
255
0
255
255
0
255
255
0
255
255
0
255
255
0
255
255
0
255
255
0
255
255
0
255
255
0
255
255
0
255
255
0
255
255
0
255
255
0
255
255
0
255
255
0
255
255
0
255
255
0
255
255
0
255
255
0
255
85
45
12
85
45
12
85
45
12
86
45
11
86
45
11
85
45
12
87
46
12
90
47
12
70
38
12
26
17
11
5
8
10
105
55
12
105
55
12
105
55
12
105
55
12
105
55
12
105
55
12
105
55
12
105
55
12
105
55
12
105
55
12
105
55
12
105
55
12
105
55
12
255
0
255
255
0
255
255
0
255
255
0
255
255
0
255
255
0
255
255
0
255
255
0
255
255
0
255
255
0
255
255
0
255
255
0
255
255
0
255
255
0
255
255
0
255
255
0
255
255
0
255
255
0
255
255
0
255
255
0
255
255
0
255
255
0
255
255
0
255
255
0
255
255
0
255
255
0
255
255
0
255
255
0
255
255
0
255
255
0
255
255
0
255
255
0
255
255
0
255
255
0
255
255
0
255
255
0
255
255
0
255
255
0
255
255
0
255
255
0
255
85
45
12
85
45
12
85
45
12
85
45
12
85
45
12
85
45
12
87
46
12
91
48
13
67
35
9
14
6
0
0
0
0
