P3
64 64
255
28 28 28 28 28 28 29 29 29 29 29 29 28 28 28 28 28 28 28 28 28 28 28 28 
28 28 28 28 28 28 28 28 28 28 28 28 28 28 28 28 28 28 25 25 25 24 24 24 
25 25 25 25 25 25 25 25 25 25 25 25 24 24 24 25 25 25 28 28 28 28 28 28 
28 28 28 28 28 28 28 28 28 28 28 28 28 28 28 28 28 28 28 28 28 28 28 28 
28 28 28 28 28 28 28 28 28 28 28 28 28 28 28 28 28 28 25 25 25 24 24 24 
25 25 25 25 25 25 24 24 24 25 25 25 28 28 28 28 28 28 28 28 28 28 28 28 
29 29 29 29 29 29 28 28 28 28 28 28 28 28 28 28 28 28 28 28 28 28 28 28 
28 28 28 28 28 28 28 28 28 25 26 26 17 20 23 60 40 23 77 34 0 77 30 0 28 28 28 
27 27 27 23 23 24 22 23 24 26 27 28 27 28 29 27 28 28 27 28 28 27 28 28 
27 28 28 28 28 28 28 28 27 27 27 27 30 30 30 36 36 36 39 39 39 38 38 38 
38 38 38 39 37 36 54 36 22 63 35 10 54 36 20 30 30 30 27 27 27 28 28 28 
28 28 28 27 27 27 27 27 27 27 27 27 27 27 27 27 27 27 27 27 27 27 27 27 
27 27 27 28 28 28 28 28 28 28 28 28 30 30 30 55 34 13 76 31 0 75 31 0 63 34 5 
71 32 0 68 32 0 37 30 25 28 28 28 28 28 28 27 27 27 23 24 23 23 24 23 26 27 28 
27 28 29 26 28 29 26 28 29 26 28 29 27 28 28 28 28 28 28 28 28 27 28 28 
28 26 24 35 24 13 72 34 0 77 30 0 77 30 0 29 29 29 23 24 24 4 6 8 4 6 8 20 23 25 
26 28 31 25 28 30 24 27 30 24 27 30 25 28 29 27 28 28 27 27 27 25 25 25 
42 35 31 69 34 3 69 34 2 69 34 2 69 34 2 69 34 2 69 34 2 69 34 2 69 34 2 
48 36 26 25 25 25 27 27 27 28 28 28 25 25 25 24 24 24 25 25 25 25 25 25 
25 25 25 25 25 25 24 24 24 25 25 25 28 28 28 28 28 28 25 25 25 35 35 35 
77 30 0 77 30 0 77 30 0 77 30 0 77 30 0 77 30 0 76 31 0 26 26 26 28 28 28 
23 24 23 6 6 6 6 6 7 20 23 25 25 29 32 24 28 31 23 27 31 23 27 31 25 28 30 
27 28 28 27 28 28 25 28 30 36 28 22 63 29 1 76 31 0 77 30 0 77 30 0 28 29 29 
26 24 23 16 8 4 21 8 3 32 25 19 38 31 25 37 30 24 37 29 23 37 30 22 35 29 24 
30 28 27 26 27 27 24 25 25 42 36 30 69 34 3 69 34 2 69 34 2 69 34 2 69 34 2 
69 34 2 69 34 2 69 34 3 41 36 32 25 25 25 25 25 25 29 29 29 35 35 35 38 38 38 
46 36 27 54 35 18 55 35 17 55 35 17 55 35 16 48 34 22 29 29 29 25 25 25 
24 24 24 38 38 38 77 30 0 77 30 0 77 30 0 77 30 0 77 30 0 77 30 0 77 30 0 
55 28 5 28 28 28 23 24 23 5 6 7 9 7 6 33 24 16 42 31 20 40 30 19 39 29 19 
39 29 19 36 29 22 29 28 28 24 28 30 22 27 31 39 29 20 72 31 0 78 30 0 77 30 0 
77 30 0 26 28 29 34 28 22 50 27 8 58 29 3 59 32 5 60 34 7 60 33 7 61 33 6 
62 34 6 53 33 12 35 29 24 25 27 29 26 27 28 30 30 30 36 36 35 38 38 38 
32 35 37 46 46 45 69 36 5 69 34 2 68 36 5 35 33 32 29 29 29 26 26 26 23 23 23 
33 32 32 65 45 26 72 40 10 71 43 17 71 43 16 71 43 16 70 44 18 71 44 18 
67 43 21 41 33 24 21 21 21 23 23 23 38 38 38 77 30 0 77 30 0 77 30 0 77 30 0 
77 30 0 77 30 0 77 30 0 51 28 7 27 27 27 26 27 28 19 23 25 33 24 16 62 29 2 
73 31 0 72 31 0 71 30 0 71 30 0 58 30 3 34 28 24 19 27 33 22 27 32 39 29 20 
69 30 0 79 30 0 77 30 0 77 30 0 24 27 29 38 30 23 64 35 7 75 36 2 72 35 1 
70 35 1 70 35 1 72 35 1 74 35 1 62 34 5 36 29 24 23 27 30 26 28 29 26 27 28 
24 25 27 25 24 23 30 23 16 45 35 26 69 35 3 69 35 3 37 34 30 23 23 23 26 26 26 
29 29 29 40 34 27 62 39 17 72 42 13 74 43 13 74 47 21 74 47 21 74 47 22 
75 47 23 75 48 22 72 47 25 57 42 28 32 32 32 27 27 27 34 34 34 73 35 1 77 30 0 
77 30 0 77 30 0 77 30 0 75 32 0 47 34 22 23 25 26 26 27 28 25 28 30 25 29 32 
37 30 24 61 31 3 72 30 0 69 30 0 72 30 0 81 30 0 72 30 0 48 30 12 32 28 25 
24 27 30 37 29 21 67 30 0 79 31 0 77 31 0 77 30 0 24 27 29 37 30 23 61 34 7 
71 36 1 69 35 2 68 34 2 68 34 2 70 35 2 73 35 1 63 33 6 35 29 24 21 27 31 
23 27 30 24 27 30 21 26 30 32 27 24 54 31 7 56 34 11 45 37 29 33 35 35 
27 29 30 26 26 25 25 25 25 35 35 35 65 45 27 72 44 18 74 45 20 74 46 20 
74 46 20 74 46 20 74 46 20 74 46 20 74 46 20 74 45 20 72 43 16 63 46 33 
35 35 35 26 26 26 36 31 29 77 30 0 77 30 0 77 30 0 77 30 0 33 32 32 26 29 30 
23 27 30 23 27 30 23 27 31 23 28 32 27 28 30 34 29 24 36 29 22 34 28 24 
45 30 15 70 31 0 80 30 0 73 30 0 57 30 4 29 28 26 33 28 24 66 30 0 80 30 0 
78 31 0 77 30 0 24 27 29 36 29 24 60 33 6 71 35 2 69 35 2 68 34 2 68 34 2 
67 34 3 63 33 6 54 32 11 41 30 20 35 29 24 36 29 24 36 29 24 34 29 24 44 31 17 
67 34 4 66 33 3 43 28 14 29 26 23 28 27 26 27 27 28 25 25 25 37 37 37 65 49 33 
72 44 19 70 43 19 69 48 29 71 52 35 72 52 35 72 51 32 71 49 31 71 49 31 
72 51 33 73 51 33 69 49 31 44 43 43 29 28 28 23 23 23 39 33 28 73 36 2 76 32 0 
55 32 11 24 23 22 35 27 20 39 29 20 39 29 20 39 29 20 39 29 20 38 29 20 
35 29 22 33 29 24 31 28 26 44 30 15 69 30 0 82 30 0 83 30 0 71 30 0 45 30 15 
43 29 16 68 31 0 79 30 0 77 30 0 77 30 0 24 27 29 36 29 24 60 33 6 71 35 2 
69 35 2 68 35 2 70 35 2 61 33 6 39 30 21 36 29 24 54 32 11 62 34 6 61 33 6 
59 34 6 60 33 7 62 34 6 68 34 2 68 34 1 63 33 3 52 31 11 34 29 24 25 27 29 
27 27 28 31 31 31 36 38 38 38 33 33 40 22 22 42 19 19 47 25 25 49 27 28 
47 27 28 47 26 27 47 26 26 50 32 33 69 62 63 63 57 57 43 21 21 36 17 16 
27 24 24 29 29 29 35 35 35 33 35 36 22 28 33 31 27 22 59 30 3 70 31 0 68 31 0 
67 30 0 67 30 0 67 30 0 66 31 0 66 30 0 65 30 0 69 30 0 77 30 0 81 30 0 
79 30 0 75 30 0 69 30 0 68 31 0 74 31 0 77 30 0 77 30 0 77 30 0 24 27 29 
36 29 24 60 33 6 71 35 2 69 35 2 68 35 2 70 35 2 60 33 6 38 29 22 39 30 21 
63 33 6 73 35 1 71 34 1 71 35 1 71 35 1 70 34 2 68 34 2 69 35 2 72 35 1 
64 34 5 40 30 20 26 28 29 27 27 28 27 27 27 24 26 26 29 22 22 35 1 0 30 0 0 
25 0 0 24 0 0 25 0 0 26 0 0 26 0 0 23 0 0 0 0 0 0 0 0 20 0 0 27 2 1 27 20 19 
28 24 24 24 23 24 26 25 24 34 28 23 48 30 12 72 31 0 83 30 0 81 30 0 79 31 0 
79 31 0 79 31 0 79 31 0 80 30 0 81 30 0 77 30 0 68 31 0 67 30 0 74 31 0 
78 31 0 79 31 0 80 30 0 77 30 0 77 30 0 77 30 0 77 30 0 24 27 29 36 29 24 
60 33 6 71 35 2 69 35 2 68 34 2 68 34 2 66 34 3 60 33 6 61 33 6 67 34 3 
69 34 2 69 35 2 69 35 2 69 35 2 68 34 2 68 34 2 68 34 2 69 35 2 68 34 1 
66 31 0 54 30 7 37 29 24 28 28 31 26 28 30 28 19 18 33 0 0 28 0 0 18 0 0 
26 0 0 31 0 0 31 0 0 31 0 0 31 0 0 18 0 0 0 0 0 13 0 0 23 2 2 23 16 16 
28 7 8 27 3 5 38 12 3 62 27 2 70 31 0 75 31 0 78 31 0 78 31 0 78 31 0 78 31 0 
78 31 0 78 31 0 78 31 0 81 30 0 68 31 0 41 29 18 41 29 18 68 30 0 79 31 0 
78 31 0 78 30 0 77 30 0 77 30 0 77 30 0 77 30 0 24 27 29 36 29 24 60 33 6 
71 35 2 69 35 2 68 34 2 68 34 2 68 34 2 70 35 2 70 35 2 68 34 2 68 34 2 
68 34 2 68 34 2 68 34 2 68 34 2 68 34 2 68 34 2 68 34 1 72 33 0 77 32 0 
64 31 3 42 30 24 32 30 33 31 30 35 28 28 28 0 0 0 0 0 0 0 0 0 34 0 0 34 0 0 
34 0 0 34 0 0 34 0 0 34 0 0 0 0 0 28 28 28 0 0 0 0 0 0 33 0 0 33 0 0 41 1 0 
64 18 0 77 28 0 77 30 0 77 30 0 77 30 0 77 30 0 77 30 0 77 30 0 77 30 0 
78 30 0 80 30 0 68 30 0 41 29 18 41 29 18 68 30 0 80 30 0 78 30 0 77 30 0 
77 30 0 77 30 0 77 30 0 77 30 0 24 27 29 36 29 24 60 33 6 71 35 2 69 35 2 
68 34 2 68 34 2 68 34 2 68 35 2 68 35 2 68 34 2 68 34 2 68 34 2 68 34 2 
68 34 2 68 34 2 68 34 2 68 34 1 74 32 0 71 31 0 53 31 12 40 30 25 36 30 28 
34 30 31 34 30 31 0 0 0 0 0 0 0 0 0 0 0 0 34 0 0 34 0 0 34 0 0 34 0 0 34 0 0 
34 0 0 0 0 0 0 0 0 0 0 0 0 0 0 34 0 0 34 0 0 34 0 0 45 4 0 73 25 0 77 30 0 
77 30 0 77 30 0 77 30 0 77 30 0 77 30 0 77 30 0 77 30 0 77 30 0 74 31 0 
68 30 0 68 30 0 74 31 0 77 30 0 77 30 0 77 30 0 77 30 0 77 30 0 77 30 0 
77 30 0 24 27 29 36 29 24 60 33 6 71 35 2 69 35 2 68 34 2 68 34 2 68 34 2 
68 34 2 68 34 2 68 34 2 68 34 2 68 34 2 68 34 2 68 34 2 68 34 2 68 34 1 
71 33 0 79 31 0 66 31 1 39 30 26 29 30 34 33 30 31 34 30 30 35 30 30 0 0 0 
0 0 0 0 0 0 0 0 0 34 0 0 34 0 0 34 0 0 34 0 0 34 0 0 34 0 0 0 0 0 0 0 0 0 0 0 
0 0 0 34 0 0 34 0 0 34 0 0 35 0 0 77 30 0 77 30 0 77 30 0 77 30 0 77 30 0 
77 30 0 77 30 0 77 30 0 77 30 0 77 30 0 77 30 0 80 30 0 80 30 0 77 30 0 
77 30 0 77 30 0 77 30 0 77 30 0 77 30 0 77 30 0 77 30 0 24 27 29 36 29 24 
60 33 6 71 35 2 69 35 2 68 34 2 68 34 2 68 34 2 68 34 2 68 34 2 68 34 2 
68 34 2 68 34 2 68 34 2 68 34 2 68 34 1 73 32 0 77 30 0 86 29 0 48 31 17 
34 30 30 33 30 31 34 30 30 34 30 30 34 30 30 0 0 0 0 0 0 0 0 0 0 0 0 34 0 0 
34 0 0 34 0 0 34 0 0 34 0 0 34 0 0 0 0 0 0 0 0 0 0 0 0 0 0 34 0 0 34 0 0 
34 0 0 35 0 0 0 0 0 77 30 0 77 30 0 77 30 0 77 30 0 77 30 0 77 30 0 77 30 0 
77 30 0 77 30 0 77 30 0 78 30 0 78 30 0 77 30 0 77 30 0 77 30 0 77 30 0 
77 30 0 77 30 0 77 30 0 77 30 0 24 27 29 36 29 24 60 33 6 71 35 2 69 35 2 
68 34 2 68 34 2 68 34 2 68 34 2 68 34 2 68 34 2 68 34 2 68 34 2 68 34 2 
68 34 1 71 33 0 76 31 0 78 31 0 147 26 0 0 20 73 32 30 32 34 30 30 34 30 30 
34 30 30 34 30 30 0 0 0 0 0 0 0 0 0 0 0 0 34 0 0 34 0 0 34 0 0 34 0 0 34 0 0 
34 0 0 0 0 0 0 0 0 0 0 0 0 0 0 34 0 0 34 0 0 34 0 0 35 0 0 0 0 0 0 0 0 77 30 0 
77 30 0 77 30 0 77 30 0 77 30 0 77 30 0 77 30 0 77 30 0 77 30 0 77 30 0 
77 30 0 77 30 0 77 30 0 77 30 0 77 30 0 77 30 0 77 30 0 77 30 0 77 30 0 
24 27 29 36 29 24 60 33 6 71 35 2 69 35 2 68 34 2 68 34 2 68 34 2 68 34 2 
68 34 2 68 34 2 68 34 2 68 34 2 69 34 0 73 32 0 76 31 0 77 30 0 89 29 0 
0 0 0 24 29 38 34 30 30 34 30 30 34 30 30 34 30 30 34 30 30 0 0 0 0 0 0 0 0 0 
0 0 0 34 0 0 34 0 0 34 0 0 34 0 0 34 0 0 34 0 0 0 0 0 0 0 0 0 0 0 0 0 0 34 0 0 
34 0 0 34 0 0 34 0 0 0 0 0 0 0 0 77 30 0 77 30 0 76 25 0 76 28 0 77 30 0 
77 30 0 77 30 0 77 30 0 77 30 0 77 30 0 77 30 0 77 30 0 77 30 0 77 30 0 
77 30 0 77 30 0 77 30 0 77 30 0 77 30 0 24 27 29 36 29 24 60 33 6 71 35 2 
69 35 2 68 34 2 68 34 2 68 34 2 68 34 2 68 34 2 68 34 2 68 34 2 68 34 2 
69 34 0 75 31 0 77 30 0 77 30 0 68 34 2 0 0 0 36 30 29 34 30 30 34 30 30 
34 30 30 34 30 30 34 30 30 0 0 0 0 0 0 0 0 0 0 0 0 34 0 0 34 0 0 34 0 0 34 0 0 
34 0 0 34 0 0 0 0 0 0 0 0 0 0 0 0 0 0 34 0 0 34 0 0 34 0 0 34 0 0 0 0 0 77 30 0 
0 0 0 0 0 0 74 12 1 76 26 0 77 30 0 77 30 0 77 30 0 77 30 0 77 30 0 77 30 0 
77 30 0 77 30 0 77 30 0 77 30 0 77 30 0 77 30 0 77 30 0 77 30 0 77 30 0 
24 27 29 36 29 24 60 33 6 71 35 2 69 35 2 68 34 2 68 34 2 68 34 2 68 34 2 
68 34 2 68 34 2 68 34 2 68 34 2 69 34 0 75 31 0 77 30 0 77 30 0 0 0 0 0 0 0 
35 30 30 34 30 30 34 30 30 34 30 30 34 30 30 34 30 30 0 0 0 0 0 0 0 0 0 0 0 0 
34 0 0 34 0 0 34 0 0 34 0 0 34 0 0 34 0 0 0 0 0 0 0 0 0 0 0 0 0 0 34 0 0 
34 0 0 34 0 0 34 0 0 0 0 0 0 0 0 0 0 0 0 0 0 74 16 1 76 27 0 77 30 0 77 30 0 
77 30 0 77 30 0 77 30 0 77 30 0 77 30 0 77 30 0 77 30 0 77 30 0 77 30 0 
77 30 0 77 30 0 77 30 0 77 30 0 24 27 30 36 29 24 61 33 6 71 35 1 70 35 2 
69 35 2 69 35 2 68 35 2 69 35 2 68 34 2 68 34 2 68 34 2 68 34 0 71 33 0 
75 31 0 77 30 0 77 30 0 0 0 0 0 0 0 34 30 30 34 30 30 34 30 30 34 30 30 
34 30 30 34 30 30 0 0 0 0 0 0 0 0 0 0 0 0 34 0 0 34 0 0 34 0 0 34 0 0 34 0 0 
34 0 0 0 0 0 0 0 0 0 0 0 0 0 0 34 0 0 34 0 0 34 0 0 34 0 0 0 0 0 0 0 0 0 0 0 
0 0 0 73 15 1 75 21 0 76 29 0 77 30 0 78 31 0 78 31 0 78 31 0 78 31 0 78 31 0 
78 31 0 78 31 0 78 31 0 78 31 0 78 31 0 78 31 0 78 31 0 78 31 0 24 27 30 
37 30 22 62 34 6 73 36 1 72 37 2 72 36 3 70 35 1 70 35 1 71 35 1 70 34 2 
68 34 2 70 34 0 75 32 0 78 31 0 78 31 0 74 31 0 73 30 0 0 0 0 0 0 0 34 30 30 
34 30 30 34 30 30 34 30 30 34 30 30 34 30 30 0 0 0 0 0 0 0 0 0 0 0 0 34 0 0 
34 0 0 34 0 0 34 0 0 34 0 0 34 0 0 0 0 0 0 0 0 0 0 0 0 0 0 34 0 0 34 0 0 
34 0 0 34 0 0 0 0 0 0 0 0 0 0 0 0 0 0 71 6 8 71 6 7 74 16 2 79 29 0 79 31 0 
79 31 0 79 31 0 79 31 0 79 31 0 79 31 0 79 31 0 79 31 0 79 31 0 79 31 0 
79 31 0 79 31 0 79 31 0 25 28 29 35 29 24 54 32 11 61 33 3 57 29 4 56 29 4 
59 32 6 61 34 8 60 34 8 62 34 6 67 35 3 69 33 0 67 31 0 67 30 0 63 30 1 
68 34 2 0 0 0 0 0 0 0 0 0 34 30 30 34 30 30 34 30 30 34 30 30 34 30 30 
34 30 30 0 0 0 0 0 0 0 0 0 0 0 0 34 0 0 34 0 0 34 0 0 34 0 0 34 0 0 34 0 0 
0 0 0 0 0 0 0 0 0 0 0 0 34 0 0 34 0 0 34 0 0 34 0 0 0 0 0 0 0 0 0 0 0 77 30 0 
70 4 8 70 4 8 69 7 8 67 29 0 67 30 0 67 30 0 67 30 0 67 30 0 67 30 0 67 30 0 
67 30 0 67 30 0 67 30 0 66 31 0 66 31 0 66 31 0 66 31 0 27 28 28 30 29 28 
36 30 25 33 25 17 19 8 3 20 9 3 33 26 19 39 32 27 36 31 27 45 32 20 65 34 5 
66 34 3 45 31 16 38 29 20 34 29 24 0 0 0 0 0 0 0 0 0 0 0 0 34 30 30 34 30 30 
34 30 30 34 30 30 34 30 30 34 30 30 0 0 0 0 0 0 0 0 0 0 0 0 34 0 0 34 0 0 
34 0 0 34 0 0 34 0 0 34 0 0 0 0 0 0 0 0 0 0 0 0 0 0 34 0 0 34 0 0 34 0 0 
34 0 0 0 0 0 0 0 0 0 0 0 0 0 0 70 4 8 70 4 8 63 11 13 39 28 21 39 29 20 
39 29 20 39 29 20 39 29 20 39 29 20 39 29 20 39 29 20 39 29 20 38 29 20 
37 29 21 36 28 23 36 29 22 36 29 22 28 28 28 28 28 28 26 29 30 19 22 26 
3 6 9 2 4 7 14 18 21 18 22 26 14 21 26 28 25 21 52 31 10 56 33 10 32 29 26 
24 27 30 24 27 30 0 0 0 0 0 0 0 0 0 0 0 0 34 30 30 34 30 30 34 30 30 34 30 30 
34 30 30 34 30 30 0 0 0 0 0 0 0 0 0 0 0 0 34 0 0 34 0 0 34 0 0 34 0 0 34 0 0 
34 0 0 0 0 0 0 0 0 0 0 0 0 0 0 34 0 0 34 0 0 34 0 0 34 0 0 0 0 0 0 0 0 0 0 0 
0 0 0 70 4 8 70 4 8 60 11 15 26 27 29 23 27 30 23 27 31 22 27 31 22 27 31 
23 27 31 23 27 31 23 27 31 23 27 31 26 28 29 30 29 26 32 29 25 32 28 26 
31 28 26 28 28 28 27 28 28 25 27 29 23 26 29 21 24 26 14 18 20 3 5 8 0 0 3 
0 0 2 7 8 8 30 26 21 36 30 25 30 29 28 27 28 28 27 28 28 0 0 0 0 0 0 0 0 0 
0 0 0 34 30 30 34 30 30 34 30 30 34 30 30 34 30 30 34 30 30 0 0 0 0 0 0 0 0 0 
0 0 0 34 0 0 34 0 0 34 0 0 34 0 0 34 0 0 34 0 0 0 0 0 0 0 0 0 0 0 0 0 0 34 0 0 
34 0 0 34 0 0 34 0 0 0 0 0 0 0 0 0 0 0 0 0 0 70 4 8 70 4 8 60 12 14 29 27 28 
26 28 29 24 27 30 23 27 30 23 27 30 24 27 30 26 28 29 26 28 29 24 27 30 
33 29 25 51 31 11 58 32 4 55 31 6 54 31 8 27 28 28 29 28 27 34 30 26 37 31 27 
38 33 28 33 28 23 20 12 6 11 5 2 12 5 2 17 11 7 24 24 25 28 29 29 28 28 27 
27 28 28 27 28 28 0 0 0 0 0 0 0 0 0 0 0 0 34 30 30 34 30 30 34 30 30 34 30 30 
34 30 30 34 30 30 0 0 0 0 0 0 0 0 0 0 0 0 34 0 0 34 0 0 34 0 0 34 0 0 34 0 0 
34 0 0 0 0 0 0 0 0 0 0 0 0 0 0 34 0 0 34 0 0 34 0 0 34 0 0 0 0 0 0 0 0 0 0 0 
0 0 0 70 4 8 70 4 8 63 10 12 33 26 26 29 28 26 34 29 24 36 29 23 36 29 23 
34 29 24 29 28 27 27 28 28 26 28 29 34 29 24 51 31 11 60 32 4 63 32 2 65 32 1 
26 27 28 34 30 27 50 36 21 58 39 20 57 39 21 56 37 19 52 33 15 51 32 13 
52 33 13 51 32 13 50 31 12 48 30 13 41 29 19 5 25 39 0 22 45 0 0 0 0 0 0 0 0 0 
0 0 0 34 30 30 34 30 30 34 30 30 34 30 30 34 30 30 34 30 30 0 0 0 0 0 0 0 0 0 
0 0 0 34 0 0 34 0 0 34 0 0 34 0 0 34 0 0 34 0 0 0 0 0 0 0 0 0 0 0 0 0 0 34 0 0 
34 0 0 34 0 0 34 0 0 0 0 0 0 0 0 0 0 0 0 0 0 70 4 8 70 4 8 68 6 10 51 15 22 
43 30 17 54 31 8 57 31 5 57 31 5 50 31 12 34 29 24 26 28 29 27 28 28 29 28 28 
30 28 26 40 30 19 57 31 5 65 32 1 25 27 29 36 30 26 58 38 20 68 41 15 67 41 17 
66 41 17 67 42 19 67 42 19 67 42 18 67 40 14 68 34 2 65 32 1 79 33 0 28 28 28 
0 0 0 28 28 28 28 28 28 0 0 0 0 0 0 34 30 30 34 30 30 34 30 30 34 30 30 
34 30 30 34 30 30 0 0 0 0 0 0 0 0 0 0 0 0 31 0 0 33 0 0 34 0 0 34 0 0 34 0 0 
34 0 0 0 0 0 0 0 0 0 0 0 0 0 0 34 0 0 34 0 0 34 0 0 34 0 0 0 0 0 0 0 0 0 0 0 
0 0 0 70 4 8 70 4 8 70 4 8 70 4 8 79 33 0 65 32 1 65 32 1 67 32 0 57 31 5 
35 29 23 23 27 30 26 28 29 28 28 28 30 28 26 40 29 20 57 31 5 64 32 2 25 27 28 
36 30 26 57 38 19 67 41 17 65 40 17 64 40 17 64 41 18 65 40 19 65 40 18 
65 39 15 64 34 4 63 32 2 66 32 0 0 0 0 0 0 0 0 0 0 28 28 28 0 0 0 0 0 0 34 30 30 
34 30 30 34 30 30 34 30 30 34 30 30 34 30 30 0 0 0 0 0 0 0 0 0 0 0 0 22 0 0 
32 0 0 33 0 0 34 0 0 34 0 0 34 0 0 0 0 0 0 0 0 0 0 0 0 0 0 34 0 0 34 0 0 
34 0 0 34 0 0 0 0 0 0 0 0 0 0 0 0 0 0 70 4 8 70 4 8 70 4 8 70 4 8 66 32 0 
63 32 2 63 32 2 65 32 1 55 31 6 33 29 24 21 27 32 21 27 32 32 28 26 51 31 11 
60 32 4 61 32 3 63 32 3 25 27 28 36 30 26 56 37 20 66 40 17 64 40 17 63 40 18 
63 40 18 63 40 18 63 40 18 63 38 15 63 33 4 62 32 3 62 32 3 0 0 0 0 0 0 0 0 0 
0 0 0 0 0 0 0 0 0 34 30 30 34 30 30 34 30 30 34 30 30 34 30 30 34 30 30 
34 30 30 34 30 30 35 33 33 35 41 41 34 16 15 36 2 1 35 1 0 34 0 0 34 0 0 
34 0 0 0 0 0 0 0 0 0 0 0 0 0 0 34 0 0 34 0 0 34 0 0 34 0 0 0 0 0 0 0 0 0 0 0 
0 0 0 70 4 8 70 4 8 70 4 8 70 4 8 62 32 3 62 32 3 63 32 3 64 32 2 57 31 5 
41 30 19 32 29 25 33 29 24 40 29 20 52 31 9 60 31 4 61 32 3 63 32 3 25 27 28 
36 30 26 56 37 20 66 40 17 64 40 17 63 40 18 63 40 18 63 40 18 63 40 18 
63 38 15 63 33 4 62 32 3 62 32 3 0 0 0 0 0 0 0 0 0 0 0 0 0 0 0 0 0 0 34 30 30 
34 30 30 34 30 30 34 30 30 34 30 30 34 30 30 34 30 30 34 30 30 34 30 31 
35 31 31 34 28 28 34 22 22 35 12 10 35 1 0 33 0 0 32 0 0 0 0 0 0 0 0 0 0 0 
0 0 0 34 0 0 34 0 0 34 0 0 34 0 0 0 0 0 0 0 0 0 0 0 0 0 0 70 4 8 70 4 8 70 4 8 
70 4 8 62 32 3 62 32 3 62 32 3 63 32 3 61 32 3 57 31 5 55 31 6 57 31 5 51 31 11 
36 29 23 38 29 21 56 31 6 64 32 2 25 27 28 36 30 26 56 37 20 66 40 17 64 40 17 
63 40 18 63 40 18 63 40 18 63 40 18 63 38 15 63 33 4 62 32 3 62 32 3 0 0 0 
0 0 0 0 0 0 0 0 0 0 0 0 0 0 0 34 30 30 34 30 30 34 30 30 34 30 30 34 30 30 
34 30 30 34 30 30 34 30 30 34 30 31 35 30 30 34 28 28 34 22 22 34 11 10 
35 1 0 33 0 0 32 0 0 0 0 0 0 0 0 0 0 0 0 0 0 34 0 0 34 0 0 34 0 0 34 0 0 
0 0 0 0 0 0 0 0 0 0 0 0 70 4 8 70 4 8 70 4 8 70 4 8 62 32 3 62 32 3 62 32 3 
62 32 3 63 32 3 64 32 2 65 32 1 66 32 0 57 31 5 37 29 22 36 29 22 55 31 6 
64 32 2 25 27 28 36 30 26 56 37 20 66 40 17 64 40 17 63 40 18 63 40 18 
63 40 18 63 40 18 63 38 15 63 33 4 62 32 3 62 32 3 0 0 0 0 0 0 0 0 0 0 0 0 
0 0 0 0 0 0 34 30 30 34 30 30 34 30 30 34 30 30 34 30 30 34 30 30 34 30 30 
34 30 30 35 30 30 35 31 31 35 25 25 36 6 4 35 1 0 34 0 0 34 0 0 34 0 0 0 0 0 
0 0 0 0 0 0 0 0 0 34 0 0 34 0 0 34 0 0 34 0 0 0 0 0 0 0 0 0 0 0 0 0 0 70 4 8 
70 4 8 70 4 8 70 4 8 62 32 3 62 32 3 62 32 3 62 32 3 62 32 3 63 32 3 63 32 2 
63 32 2 61 32 3 56 31 6 55 31 6 60 32 4 63 32 3 25 27 28 36 30 26 56 37 20 
66 40 17 64 40 17 63 40 18 63 40 18 63 40 18 63 40 18 63 38 15 63 33 4 62 32 3 
62 32 3 0 0 0 0 0 0 0 0 0 0 0 0 0 0 0 0 0 0 34 30 30 34 30 30 34 30 30 
34 30 30 34 30 30 34 30 30 34 30 30 34 30 30 35 30 30 35 32 32 34 23 23 
35 2 1 31 0 0 33 0 0 34 0 0 34 0 0 0 0 0 0 0 0 0 0 0 0 0 0 34 0 0 34 0 0 
34 0 0 34 0 0 0 0 0 0 0 0 0 0 0 0 0 0 70 4 8 70 4 8 70 4 8 70 4 8 62 32 3 
62 32 3 62 32 3 62 32 3 62 32 3 62 32 3 62 32 3 62 32 3 63 32 3 64 32 2 
64 32 2 63 32 3 62 32 3 25 27 28 36 30 26 56 37 20 66 40 17 64 40 17 63 40 18 
63 40 18 63 40 18 63 40 18 63 38 15 63 33 4 62 32 3 62 32 3 0 0 0 0 0 0 0 0 0 
0 0 0 0 0 0 0 0 0 34 30 30 34 30 30 34 30 30 34 30 30 34 30 30 34 30 30 
34 30 30 34 30 30 35 30 30 35 32 32 35 24 24 35 2 1 32 0 0 33 0 0 34 0 0 
34 0 0 0 0 0 0 0 0 0 0 0 0 0 0 34 0 0 34 0 0 34 0 0 34 0 0 0 0 0 0 0 0 0 0 0 
0 0 0 70 4 8 70 4 8 70 4 8 70 4 8 62 32 3 62 32 3 62 32 3 62 32 3 62 32 3 
62 32 3 62 32 3 62 32 3 62 32 3 63 32 3 63 32 3 62 32 3 62 32 3 25 27 28 
36 30 26 56 37 20 66 40 17 64 40 17 63 40 18 63 40 18 63 40 18 63 40 18 
63 38 15 63 33 4 63 32 3 63 32 3 0 0 0 0 0 0 0 0 0 0 0 0 0 0 0 0 0 0 34 30 30 
34 30 30 34 30 30 34 30 30 34 30 30 34 30 30 34 30 30 34 30 30 35 30 30 
35 32 32 35 24 24 35 2 1 32 0 0 33 0 0 34 0 0 34 0 0 0 0 0 0 0 0 0 0 0 0 0 0 
34 0 0 34 0 0 34 0 0 34 0 0 0 0 0 0 0 0 0 0 0 0 0 0 70 4 8 70 4 8 70 4 8 
70 4 8 63 32 3 63 32 3 63 32 3 62 32 3 62 32 3 62 32 3 62 32 3 62 32 3 62 32 3 
62 32 3 62 32 3 62 32 3 62 32 3 25 27 28 36 30 26 56 37 20 66 40 17 64 40 17 
63 40 18 63 40 18 63 40 18 63 40 18 63 38 15 64 34 3 65 32 2 65 32 2 0 0 0 
0 0 0 0 0 0 0 0 0 0 0 0 0 0 0 34 30 30 34 30 30 34 30 30 34 30 30 34 30 30 
34 30 30 34 30 30 34 30 30 35 30 30 35 32 32 34 24 24 35 1 0 31 0 0 33 0 0 
34 0 0 34 0 0 0 0 0 0 0 0 0 0 0 0 0 0 34 0 0 34 0 0 34 0 0 34 0 0 0 0 0 0 0 0 
0 0 0 0 0 0 70 4 8 70 4 8 70 4 8 70 4 8 65 32 2 65 32 2 64 32 2 63 32 3 
62 32 3 62 32 3 62 32 3 62 32 3 62 32 3 62 32 3 62 32 3 62 32 3 62 32 3 
25 27 28 36 30 26 56 37 20 66 40 17 64 40 17 63 40 18 63 40 18 63 40 18 
63 40 18 63 38 15 57 33 8 54 31 8 54 31 8 0 0 0 0 0 0 0 0 0 0 0 0 0 0 0 0 0 0 
34 30 30 34 30 30 34 30 30 34 30 30 34 30 30 34 30 30 34 30 30 34 30 30 
34 30 31 34 32 32 34 25 25 35 8 7 35 1 0 35 0 0 34 0 0 33 0 0 0 0 0 0 0 0 
0 0 0 0 0 0 34 0 0 34 0 0 34 0 0 34 0 0 0 0 0 0 0 0 0 0 0 0 0 0 70 4 8 70 4 8 
70 4 8 70 4 8 54 31 8 54 31 8 56 32 5 60 32 4 63 32 3 62 32 3 62 32 3 62 32 3 
62 32 3 62 32 3 62 32 3 62 32 3 62 32 3 25 27 28 36 30 26 56 37 20 66 40 17 
64 40 17 63 40 18 63 40 18 63 40 18 63 40 18 62 38 15 43 32 20 30 28 26 
29 28 27 0 0 0 0 0 0 0 0 0 0 0 0 0 0 0 0 0 0 34 30 30 34 30 30 34 30 30 
34 30 30 34 30 30 34 30 30 34 30 30 34 30 30 34 30 30 34 30 31 34 29 30 
34 27 27 35 18 17 35 1 0 32 0 0 32 0 0 0 0 0 0 0 0 0 0 0 0 0 0 34 0 0 34 0 0 
34 0 0 34 0 0 0 0 0 0 0 0 0 0 0 0 0 0 70 4 8 70 4 8 70 4 8 70 4 8 29 28 27 
30 28 26 38 29 21 56 31 6 64 32 2 63 32 3 62 32 3 62 32 3 62 32 3 62 32 3 
62 32 3 62 32 3 62 32 3 25 27 28 36 30 26 56 37 20 66 40 17 64 40 17 63 40 18 
63 40 18 63 40 18 63 40 18 62 38 15 43 32 20 30 28 26 29 28 27 0 0 0 0 0 0 
0 0 0 0 0 0 0 0 0 0 0 0 34 30 30 34 30 30 34 30 30 34 30 30 34 30 30 34 30 30 
34 30 30 34 30 30 34 30 30 34 30 31 34 29 29 34 26 26 34 18 18 35 2 1 32 0 0 
32 0 0 0 0 0 0 0 0 0 0 0 0 0 0 34 0 0 34 0 0 34 0 0 34 0 0 0 0 0 0 0 0 0 0 0 
0 0 0 70 4 8 70 4 8 70 4 8 70 4 8 29 28 27 30 28 26 38 29 21 56 31 6 64 32 2 
63 32 3 62 32 3 62 32 3 62 32 3 62 32 3 62 32 3 62 32 3 62 32 3 25 27 28 
36 30 26 56 37 20 66 40 17 64 40 17 63 40 18 63 40 18 63 40 18 63 40 18 
63 38 15 57 33 8 54 31 8 54 31 8 0 0 0 0 0 0 0 0 0 0 0 0 0 0 0 0 0 0 34 30 30 
34 30 30 34 30 30 34 30 30 34 30 30 34 30 30 34 30 30 34 30 30 35 33 33 
34 41 41 34 17 17 36 3 1 35 2 1 34 0 0 34 0 0 33 0 0 0 0 0 0 0 0 0 0 0 0 0 0 
34 0 0 34 0 0 34 0 0 34 0 0 0 0 0 0 0 0 0 0 0 0 0 0 70 4 8 70 4 8 70 4 8 
70 4 8 54 31 8 54 31 8 56 32 5 60 32 4 63 32 3 62 32 3 62 32 3 62 32 3 62 32 3 
62 32 3 62 32 3 62 32 3 62 32 3 25 27 28 36 30 26 56 37 20 66 40 17 64 40 17 
63 40 18 63 40 18 63 40 18 63 40 18 63 38 15 64 34 3 65 32 2 65 32 2 0 0 0 
0 0 0 0 0 0 0 0 0 0 0 0 0 0 0 34 30 30 34 30 30 34 30 30 34 30 30 34 30 30 
34 30 30 0 0 0 0 0 0 0 0 0 0 0 0 21 0 0 32 0 0 33 0 0 34 0 0 34 0 0 34 0 0 
0 0 0 0 0 0 0 0 0 0 0 0 34 0 0 34 0 0 34 0 0 34 0 0 0 0 0 0 0 0 0 0 0 0 0 0 
70 4 8 70 4 8 70 4 8 70 4 8 65 32 2 65 32 2 64 32 2 63 32 3 62 32 3 62 32 3 
62 32 3 62 32 3 62 32 3 62 32 3 62 32 3 62 32 3 62 32 3 25 27 28 36 30 26 
56 37 20 66 40 17 64 40 17 63 40 18 63 40 18 63 40 18 63 40 18 63 38 15 
63 33 4 63 32 3 63 32 3 0 0 0 0 0 0 0 0 0 0 0 0 0 0 0 0 0 0 34 30 30 34 30 30 
34 30 30 34 30 30 34 30 30 34 30 30 0 0 0 0 0 0 0 0 0 0 0 0 31 0 0 33 0 0 
34 0 0 34 0 0 34 0 0 34 0 0 0 0 0 0 0 0 0 0 0 0 0 0 34 0 0 34 0 0 34 0 0 
34 0 0 0 0 0 0 0 0 0 0 0 0 0 0 70 4 8 70 4 8 70 4 8 70 4 8 63 32 3 63 32 3 
63 32 3 62 32 3 62 32 3 62 32 3 62 32 3 62 32 3 62 32 3 62 32 3 62 32 3 
62 32 3 62 32 3 25 27 28 36 30 26 57 38 19 67 41 17 65 40 17 64 40 17 64 40 17 
64 40 17 64 40 17 63 39 14 63 33 4 63 32 3 63 32 3 0 0 0 0 0 0 0 0 0 0 0 0 
0 0 0 0 0 0 34 30 30 34 30 30 34 30 30 34 30 30 34 30 30 34 30 30 0 0 0 0 0 0 
0 0 0 0 0 0 34 0 0 34 0 0 34 0 0 34 0 0 34 0 0 34 0 0 0 0 0 0 0 0 0 0 0 0 0 0 
34 0 0 34 0 0 34 0 0 34 0 0 0 0 0 0 0 0 0 0 0 0 0 0 70 4 8 70 4 8 70 4 8 
70 4 8 63 32 3 63 32 3 63 32 3 63 32 3 63 32 3 62 32 3 62 32 3 62 32 3 62 32 3 
62 32 3 62 32 3 63 32 3 63 32 3 25 27 29 36 30 26 58 38 20 68 41 15 67 41 17 
66 40 17 66 40 17 66 40 17 66 40 17 65 39 14 65 33 4 65 32 2 65 32 2 0 0 0 
0 0 0 0 0 0 0 0 0 0 0 0 0 0 0 34 30 30 34 30 30 34 30 30 34 30 30 34 30 30 
34 30 30 0 0 0 0 0 0 0 0 0 0 0 0 34 0 0 34 0 0 34 0 0 34 0 0 34 0 0 34 0 0 
0 0 0 0 0 0 0 0 0 0 0 0 34 0 0 34 0 0 34 0 0 34 0 0 0 0 0 0 0 0 0 0 0 0 0 0 
70 4 8 70 4 8 70 4 8 70 4 8 65 32 2 65 32 2 65 32 2 65 32 2 64 32 2 63 32 3 
62 32 3 62 32 3 62 32 3 62 32 3 63 32 3 64 32 2 65 32 2 25 27 28 34 30 26 
51 36 22 59 38 20 57 38 19 56 37 20 56 37 20 56 37 20 55 38 20 56 36 18 
56 32 10 55 31 6 55 31 6 0 0 0 0 0 0 0 0 0 0 0 0 0 0 0 0 0 0 34 30 30 34 30 30 
34 30 30 34 30 30 34 30 30 34 30 30 0 0 0 0 0 0 0 0 0 0 0 0 34 0 0 34 0 0 
34 0 0 34 0 0 34 0 0 34 0 0 0 0 0 0 0 0 0 0 0 0 0 0 34 0 0 34 0 0 34 0 0 
34 0 0 0 0 0 0 0 0 0 0 0 0 0 0 70 4 8 70 4 8 70 4 8 70 4 8 55 31 6 55 31 6 
55 31 6 55 31 6 57 31 5 61 32 3 63 32 2 63 32 2 63 32 2 63 32 2 61 32 3 
57 31 4 55 31 6 27 27 28 30 29 28 35 31 28 37 32 27 36 31 26 35 30 26 36 30 26 
35 30 26 35 30 26 35 30 25 34 29 24 35 29 23 35 29 23 0 0 0 0 0 0 0 0 0 0 0 0 
0 0 0 0 0 0 34 30 30 34 30 30 34 30 30 34 30 30 34 30 30 34 30 30 0 0 0 0 0 0 
0 0 0 0 0 0 34 0 0 34 0 0 34 0 0 34 0 0 34 0 0 34 0 0 0 0 0 0 0 0 0 0 0 0 0 0 
34 0 0 34 0 0 34 0 0 34 0 0 0 0 0 0 0 0 0 0 0 0 0 0 70 4 8 70 4 8 70 4 8 
70 4 8 35 29 23 35 29 23 35 28 24 33 29 24 41 30 19 58 32 4 66 32 1 65 32 1 
65 32 1 66 32 1 59 31 4 43 29 16 36 28 22 28 28 28 26 27 27 21 23 24 19 23 25 
23 26 29 25 28 30 24 27 29 25 27 29 24 27 29 23 27 31 23 27 31 24 28 31 
24 28 31 0 0 0 0 0 0 0 0 0 0 0 0 0 0 0 0 0 0 34 30 30 34 30 30 34 30 30 
34 30 30 34 30 30 34 30 30 0 0 0 0 0 0 0 0 0 0 0 0 34 0 0 34 0 0 34 0 0 34 0 0 
34 0 0 34 0 0 0 0 0 0 0 0 0 0 0 0 0 0 34 0 0 34 0 0 34 0 0 34 0 0 0 0 0 0 0 0 
0 0 0 0 0 0 70 4 8 70 4 8 70 4 8 70 4 8 24 28 31 24 28 31 23 27 31 22 27 32 
31 28 27 49 31 12 57 31 4 56 32 5 56 32 5 57 31 5 50 31 12 34 28 23 26 27 28 
29 29 29 23 24 24 5 6 9 4 6 10 20 24 26 26 29 32 25 29 31 25 29 30 23 28 32 
21 28 33 24 28 32 24 28 31 24 28 31 0 0 0 0 0 0 0 0 0 0 0 0 0 0 0 0 0 0 34 30 30 
34 30 30 34 30 30 34 30 30 34 30 30 34 30 30 0 0 0 0 0 0 0 0 0 0 0 0 34 0 0 
34 0 0 34 0 0 34 0 0 34 0 0 34 0 0 0 0 0 0 0 0 0 0 0 0 0 0 34 0 0 34 0 0 
34 0 0 34 0 0 0 0 0 0 0 0 0 0 0 0 0 0 70 4 8 70 4 8 70 4 8 70 4 8 24 28 31 
24 28 31 24 28 31 23 28 32 26 28 30 33 29 25 36 29 22 35 29 23 35 29 23 
36 29 23 33 29 25 28 28 29 25 28 30 29 29 30 24 23 21 12 6 2 15 5 1 30 22 14 
35 28 21 33 27 21 34 26 20 39 26 13 41 26 15 38 27 18 36 27 19 36 27 19 
0 0 0 0 0 0 0 0 0 0 0 0 0 0 0 0 0 0 34 30 30 34 30 30 34 30 30 34 30 30 
34 30 30 34 30 30 0 0 0 0 0 0 0 0 0 0 0 0 34 0 0 34 0 0 34 0 0 34 0 0 34 0 0 
34 0 0 0 0 0 0 0 0 0 0 0 0 0 0 34 0 0 34 0 0 34 0 0 34 0 0 0 0 0 0 0 0 0 0 0 
0 0 0 70 4 8 70 4 8 70 4 8 70 4 8 36 27 19 36 27 19 36 27 19 37 27 17 34 27 21 
27 28 28 23 27 31 25 28 30 25 28 30 25 28 30 28 28 28 32 27 24 34 28 21 
27 28 30 32 25 21 43 18 0 48 16 0 50 19 0 51 21 0 50 22 0 52 21 0 55 20 0 
59 20 0 60 22 0 60 23 0 60 23 0 0 0 0 0 0 0 0 0 0 0 0 0 0 0 0 0 0 0 34 30 30 
34 30 30 34 30 30 34 30 30 34 30 30 34 30 30 0 0 0 0 0 0 0 0 0 0 0 0 34 0 0 
34 0 0 34 0 0 34 0 0 34 0 0 34 0 0 0 0 0 0 0 0 0 0 0 0 0 0 34 0 0 34 0 0 
34 0 0 34 0 0 0 0 0 0 0 0 0 0 0 0 0 0 70 4 8 70 4 8 70 4 8 70 4 8 60 23 0 
60 23 0 60 23 0 62 22 0 53 25 0 31 28 24 21 28 33 26 28 30 27 28 28 26 28 29 
33 27 22 45 26 6 51 26 1 25 28 31 35 26 20 54 22 0 62 17 0 60 17 0 59 17 0 
59 17 0 58 18 0 56 19 0 58 19 0 68 19 0 70 20 0 70 20 0 0 0 0 0 0 0 0 0 0 
0 0 0 0 0 0 0 0 0 34 30 30 34 30 30 34 30 30 34 30 30 34 30 30 34 30 30 
0 0 0 0 0 0 0 0 0 0 0 0 34 0 0 34 0 0 34 0 0 34 0 0 34 0 0 34 0 0 0 0 0 0 0 0 
0 0 0 0 0 0 34 0 0 34 0 0 34 0 0 34 0 0 0 0 0 0 0 0 0 0 0 0 0 0 70 4 8 70 4 8 
70 4 8 70 4 8 70 20 0 70 20 0 70 20 0 72 20 0 63 22 0 44 27 8 32 27 24 
29 28 27 27 28 29 26 28 30 35 27 20 54 25 0 62 23 0 25 28 31 35 26 20 53 21 0 
61 16 0 59 17 0 59 17 0 57 18 0 56 19 0 56 19 0 58 19 0 66 20 0 68 21 0 
68 21 0 0 0 0 0 0 0 0 0 0 0 0 0 0 0 0 0 0 0 34 30 30 34 30 30 34 30 30 
34 30 30 34 30 30 34 30 30 0 0 0 0 0 0 0 0 0 0 0 0 34 0 0 34 0 0 34 0 0 34 0 0 
34 0 0 34 0 0 0 0 0 0 0 0 0 0 0 0 0 0 34 0 0 34 0 0 34 0 0 34 0 0 0 0 0 0 0 0 
0 0 0 0 0 0 70 4 8 70 4 8 70 4 8 70 4 8 68 21 0 68 21 0 68 20 0 68 20 0 
67 21 0 63 22 0 53 25 0 34 28 21 24 28 31 24 28 31 36 27 19 58 24 0 68 21 0 
26 28 30 32 27 22 46 23 1 52 21 0 50 21 0 52 21 0 56 19 0 57 18 0 56 19 0 
58 19 0 65 20 0 67 21 0 67 21 0 0 0 0 0 0 0 0 0 0 0 0 0 0 0 0 0 0 0 34 30 30 
34 30 30 34 30 30 34 30 30 34 30 30 34 30 30 0 0 0 0 0 0 0 0 0 0 0 0 34 0 0 
34 0 0 34 0 0 34 0 0 34 0 0 34 0 0 0 0 0 0 0 0 0 0 0 0 0 0 34 0 0 34 0 0 
34 0 0 34 0 0 0 0 0 0 0 0 0 0 0 0 0 0 70 4 8 70 4 8 70 4 8 70 4 8 67 21 0 
67 21 0 67 21 0 67 21 0 68 20 0 72 19 0 62 22 0 36 27 19 22 28 33 21 28 33 
35 27 20 60 23 0 70 20 0 28 28 28 29 28 27 31 27 24 31 27 23 30 28 25 37 26 14 
53 20 0 59 17 0 57 18 0 58 19 0 65 20 0 67 21 0 67 21 0 0 0 0 0 0 0 0 0 0 
0 0 0 0 0 0 0 0 0 34 30 30 34 30 30 34 30 30 34 30 30 34 30 30 34 30 30 
0 0 0 0 0 0 0 0 0 0 0 0 34 0 0 34 0 0 34 0 0 34 0 0 34 0 0 34 0 0 0 0 0 0 0 0 
0 0 0 0 0 0 34 0 0 34 0 0 34 0 0 34 0 0 0 0 0 0 0 0 0 0 0 0 0 0 70 4 8 70 4 8 
70 4 8 70 4 8 67 21 0 67 21 0 67 21 0 67 21 0 69 20 0 72 19 0 62 22 0 35 27 20 
19 28 35 20 28 35 34 28 21 60 23 0 70 20 0 28 28 28 29 28 27 31 27 24 31 27 23 
31 27 25 36 26 18 47 23 0 53 20 0 56 19 0 59 19 0 65 20 0 67 21 0 67 21 0 
0 0 0 0 0 0 0 0 0 0 0 0 0 0 0 0 0 0 34 30 30 34 30 30 34 30 30 34 30 30 
34 30 30 34 30 30 0 0 0 0 0 0 0 0 0 0 0 0 34 0 0 34 0 0 34 0 0 34 0 0 34 0 0 
34 0 0 0 0 0 0 0 0 0 0 0 0 0 0 34 0 0 34 0 0 34 0 0 34 0 0 0 0 0 0 0 0 0 0 0 
0 0 0 70 4 8 70 4 8 70 4 8 70 4 8 67 21 0 67 21 0 67 21 0 68 21 0 66 21 0 
63 22 0 55 25 0 41 27 13 34 28 21 33 28 22 43 26 10 61 22 0 69 20 0 26 28 30 
32 27 22 46 23 1 52 21 0 52 21 0 47 23 0 36 26 18 38 25 14 52 21 0 60 18 0 
66 20 0 67 21 0 67 21 0 0 0 0 0 0 0 0 0 0 0 0 0 0 0 0 0 0 0 34 30 30 34 30 30 
34 30 30 34 30 30 34 30 30 34 30 30 0 0 0 0 0 0 0 0 0 0 0 0 34 0 0 34 0 0 
34 0 0 34 0 0 34 0 0 34 0 0 0 0 0 0 0 0 0 0 0 0 0 0 34 0 0 34 0 0 34 0 0 
34 0 0 0 0 0 0 0 0 0 0 0 0 0 0 70 4 8 70 4 8 70 4 8 70 4 8 67 21 0 67 21 0 
68 21 0 69 20 0 61 22 0 41 27 12 39 27 16 55 25 0 61 22 0 60 23 0 61 22 0 
66 21 0 68 21 0 25 28 31 34 27 20 52 21 0 61 16 0 61 16 0 51 21 0 30 28 25 
30 28 25 50 21 0 61 17 0 66 20 0 67 21 0 67 21 0 0 0 0 0 0 0 0 0 0 0 0 0 0 0 0 
0 0 0 34 30 30 34 30 30 34 30 30 34 30 30 34 30 30 34 30 30 0 0 0 0 0 0 0 0 0 
0 0 0 34 0 0 34 0 0 34 0 0 34 0 0 34 0 0 34 0 0 0 0 0 0 0 0 0 0 0 0 0 0 34 0 0 
34 0 0 34 0 0 34 0 0 0 0 0 0 0 0 0 0 0 0 0 0 70 4 8 70 4 8 70 4 8 70 4 8 
67 21 0 67 21 0 68 21 0 70 20 0 58 24 0 30 28 26 31 27 25 60 23 0 72 19 0 
71 19 0 69 20 0 68 21 0 67 21 0 26 28 31 34 27 20 52 21 0 59 17 0 59 17 0 
50 21 0 30 28 26 30 28 25 50 21 0 61 17 0 66 20 0 67 21 0 67 21 0 0 0 0 0 0 0 
0 0 0 0 0 0 0 0 0 0 0 0 34 30 30 34 30 30 34 30 30 34 30 30 34 30 30 34 30 30 
0 0 0 0 0 0 0 0 0 0 0 0 34 0 0 34 0 0 34 0 0 34 0 0 34 0 0 34 0 0 0 0 0 0 0 0 
0 0 0 0 0 0 34 0 0 34 0 0 34 0 0 34 0 0 0 0 0 0 0 0 0 0 0 0 0 0 70 4 8 70 4 8 
70 4 8 70 4 8 67 21 0 67 21 0 68 21 0 70 20 0 58 24 0 30 28 26 30 28 26 
59 23 0 71 19 0 69 20 0 68 21 0 67 21 0 67 21 0 26 29 31 34 27 20 51 21 0 
59 17 0 59 17 0 52 21 0 37 26 15 37 26 14 52 21 0 60 18 0 66 20 0 67 21 0 
67 21 0 0 0 0 0 0 0 0 0 0 0 0 0 0 0 0 0 0 0 34 30 30 34 30 30 34 30 30 
34 30 30 34 30 30 34 30 30 0 0 0 0 0 0 0 0 0 0 0 0 34 0 0 34 0 0 34 0 0 34 0 0 
34 0 0 34 0 0 0 0 0 0 0 0 0 0 0 0 0 0 34 0 0 34 0 0 34 0 0 34 0 0 0 0 0 0 0 0 
0 0 0 0 0 0 70 4 8 70 4 8 70 4 8 70 4 8 67 21 0 67 21 0 68 21 0 69 20 0 
60 23 0 41 27 13 41 27 13 60 23 0 69 20 0 68 21 0 67 21 0 67 21 0 67 21 0 
27 30 33 35 28 21 51 21 0 58 17 0 57 18 0 55 19 0 52 21 0 52 21 0 56 19 0 
59 19 0 65 20 0 67 21 0 67 21 0 0 0 0 0 0 0 0 0 0 0 0 0 0 0 0 0 0 0 34 30 30 
34 30 30 34 30 30 34 30 30 34 30 30 34 30 30 0 0 0 0 0 0 0 0 0 0 0 0 34 0 0 
34 0 0 34 0 0 34 0 0 34 0 0 34 0 0 0 0 0 0 0 0 0 0 0 0 0 0 34 0 0 34 0 0 
34 0 0 34 0 0 0 0 0 0 0 0 0 0 0 0 0 0 70 4 8 70 4 8 70 4 8 70 4 8 67 21 0 
67 21 0 67 21 0 68 21 0 66 21 0 60 23 0 60 23 0 66 21 0 68 21 0 67 21 0 
67 21 0 67 21 0 67 21 0 21 23 26 31 23 15 50 20 0 58 18 0 57 18 0 57 18 0 
58 18 0 58 18 0 57 18 0 58 19 0 65 20 0 67 21 0 67 21 0 0 0 0 0 0 0 0 0 0 
0 0 0 0 0 0 0 0 0 34 30 30 34 30 30 34 30 30 34 30 30 34 30 30 34 30 30 
0 0 0 0 0 0 0 0 0 0 0 0 34 0 0 34 0 0 34 0 0 34 0 0 34 0 0 34 0 0 0 0 0 0 0 0 
0 0 0 0 0 0 34 0 0 34 0 0 34 0 0 34 0 0 0 0 0 0 0 0 0 0 0 0 0 0 70 4 8 70 4 8 
70 4 8 70 4 8 67 21 0 67 21 0 67 21 0 67 21 0 68 21 0 69 20 0 69 20 0 68 21 0 
67 21 0 67 21 0 67 21 0 67 21 0 67 21 0 2 4 6 20 7 3 48 17 0 59 19 0 57 19 0 
56 19 0 57 18 0 57 18 0 56 19 0 58 19 0 65 20 0 67 21 0 67 21 0 0 0 0 0 0 0 
0 0 0 0 0 0 0 0 0 0 0 0 34 30 30 34 30 30 34 30 30 34 30 30 34 30 30 34 30 30 
0 0 0 0 0 0 0 0 0 0 0 0 34 0 0 34 0 0 34 0 0 34 0 0 34 0 0 34 0 0 0 0 0 0 0 0 
0 0 0 0 0 0 34 0 0 34 0 0 34 0 0 34 0 0 0 0 0 0 0 0 0 0 0 0 0 0 70 4 8 70 4 8 
70 4 8 70 4 8 67 21 0 67 21 0 67 21 0 67 21 0 67 21 0 68 21 0 68 21 0 67 21 0 
67 21 0 67 21 0 67 21 0 67 21 0 67 21 0 0 0 0 10 3 0 47 16 0 59 19 0 57 19 0 
56 19 0 56 19 0 56 19 0 56 19 0 58 19 0 65 20 0 67 21 0 67 21 0 0 0 0 0 0 0 
0 0 0 0 0 0 0 0 0 0 0 0 34 30 30 34 30 30 34 30 30 34 30 30 34 30 30 34 30 30 
0 0 0 0 0 0 0 0 0 0 0 0 34 0 0 34 0 0 34 0 0 34 0 0 34 0 0 34 0 0 0 0 0 0 0 0 
0 0 0 0 0 0 34 0 0 34 0 0 34 0 0 34 0 0 0 0 0 0 0 0 0 0 0 0 0 0 70 4 8 70 4 8 
70 4 8 70 4 8 67 21 0 67 21 0 67 21 0 67 21 0 67 21 0 67 21 0 67 21 0 67 21 0 
67 21 0 67 21 0 67 21 0 67 21 0 67 21 0 
