P3
64 64
255
0 0 0 0 0 0 0 0 0 0 0 0 0 0 0 0 0 0 0 0 0 149 146 67 149 146 67 149 146 67 
151 145 67 151 145 67 151 145 67 0 0 0 0 0 0 0 0 0 0 0 0 0 0 0 0 0 0 0 0 0 
0 0 0 0 0 0 0 0 0 0 0 0 0 0 0 0 0 0 0 0 0 0 0 0 0 0 0 0 0 0 0 0 0 0 0 0 0 0 0 
0 0 0 0 0 0 0 0 0 0 0 0 0 0 0 0 0 0 0 0 0 0 0 0 0 0 0 0 0 0 0 0 0 0 0 0 0 0 0 
0 0 0 0 0 0 0 0 0 0 0 0 0 0 0 0 0 0 0 0 0 0 0 0 0 0 0 0 0 0 0 0 0 0 0 0 0 0 0 
0 0 0 0 0 0 0 0 0 0 0 0 0 0 0 0 0 0 0 0 0 0 0 0 0 0 0 0 0 0 0 0 0 0 0 0 149 146 67 
149 146 67 149 146 67 151 145 67 151 145 67 151 145 67 0 0 0 0 0 0 0 0 0 0 0 0 
0 0 0 0 0 0 0 0 0 0 0 0 0 0 0 0 0 0 0 0 0 0 0 0 0 0 0 0 0 0 0 0 0 0 0 0 0 0 0 
0 0 0 0 0 0 0 0 0 0 0 0 0 0 0 0 0 0 0 0 0 0 0 0 0 0 0 0 0 0 0 0 0 0 0 0 0 0 0 
0 0 0 0 0 0 0 0 0 0 0 0 0 0 0 0 0 0 0 0 0 0 0 0 0 0 0 0 0 0 0 0 0 0 0 0 0 0 0 
0 0 0 0 0 0 0 0 0 0 0 0 0 0 0 0 0 0 0 0 0 0 0 0 0 0 0 0 0 0 0 0 0 0 0 0 0 0 0 
0 0 0 0 0 0 149 146 67 149 146 67 149 146 67 151 145 67 151 145 67 151 145 67 
0 0 0 0 0 0 0 0 0 0 0 0 0 0 0 0 0 0 0 0 0 0 0 0 0 0 0 0 0 0 0 0 0 0 0 0 0 0 0 
0 0 0 0 0 0 0 0 0 0 0 0 0 0 0 0 0 0 0 0 0 0 0 0 0 0 0 0 0 0 0 0 0 0 0 0 0 0 0 
0 0 0 0 0 0 0 0 0 0 0 0 0 0 0 0 0 0 0 0 0 0 0 0 0 0 0 0 0 0 0 0 0 0 0 0 0 0 0 
0 0 0 0 0 0 0 0 0 0 0 0 0 0 0 0 0 0 0 0 0 0 0 0 0 0 0 0 0 0 0 0 0 0 0 0 0 0 0 
0 0 0 0 0 0 0 0 0 0 0 0 149 146 67 149 146 67 0 0 0 0 0 0 0 0 0 0 0 0 0 0 0 
0 0 0 151 145 67 151 145 67 0 0 0 0 0 0 0 0 0 0 0 0 0 0 0 255 255 255 
255 255 255 0 0 0 0 0 0 0 0 0 0 0 0 0 0 0 0 0 0 0 0 0 0 0 0 0 0 0 0 0 0 0 0 0 
0 0 0 0 0 0 0 0 0 0 0 0 0 0 0 0 0 0 0 0 0 0 0 0 200 191 91 200 191 91 
0 0 0 0 0 0 0 0 0 0 0 0 0 0 0 0 0 0 0 0 0 0 0 0 0 0 0 0 0 0 0 0 0 0 0 0 0 0 0 
0 0 0 0 0 0 0 0 0 0 0 0 0 0 0 0 0 0 0 0 0 0 0 0 0 0 0 0 0 0 0 0 0 0 0 0 0 0 0 
149 146 67 149 146 67 0 0 0 0 0 0 0 0 0 0 0 0 0 0 0 0 0 0 151 145 67 
151 145 67 0 0 0 0 0 0 0 0 0 241 240 230 134 126 39 132 124 36 123 115 21 
122 114 19 122 114 19 0 0 0 0 0 0 0 0 0 0 0 0 0 0 0 0 0 0 0 0 0 0 0 0 0 0 0 
0 0 0 0 0 0 0 0 0 0 0 0 0 0 0 0 0 0 0 0 0 0 0 0 0 0 0 0 0 0 166 163 120 
166 163 120 166 163 120 166 163 120 166 163 120 166 163 120 166 163 120 
0 0 0 0 0 0 0 0 0 0 0 0 0 0 0 0 0 0 0 0 0 0 0 0 0 0 0 0 0 0 0 0 0 0 0 0 0 0 0 
0 0 0 0 0 0 0 0 0 0 0 0 0 0 0 0 0 0 0 0 0 0 0 0 0 0 0 166 163 120 166 163 120 
166 163 120 166 163 120 166 163 120 166 163 120 166 163 120 166 163 120 
166 163 120 131 124 35 133 126 39 125 117 24 122 114 19 122 114 19 122 114 19 
122 114 19 122 114 19 0 0 0 0 0 0 0 0 0 0 0 0 0 0 0 0 0 0 0 0 0 200 191 91 
200 191 91 200 191 91 200 191 91 200 191 91 200 191 91 200 191 91 200 191 91 
0 0 0 0 0 0 166 163 120 166 163 120 166 163 120 166 163 120 166 163 120 
166 163 120 166 163 120 166 163 120 0 0 0 0 0 0 0 0 0 0 0 0 0 0 0 0 0 0 0 0 0 
0 0 0 0 0 0 0 0 0 0 0 0 0 0 0 0 0 0 0 0 0 0 0 0 0 0 0 0 0 0 0 0 0 0 0 0 0 0 0 
0 0 0 166 163 120 171 168 127 168 165 123 166 163 120 166 163 120 166 163 120 
164 161 117 155 152 105 158 155 110 143 137 62 132 125 37 122 114 19 
122 114 19 125 118 26 124 116 23 122 114 19 122 114 19 122 114 19 0 0 0 0 0 0 
0 0 0 0 0 0 0 0 0 0 0 0 0 0 0 200 191 91 200 191 91 200 191 91 200 191 91 
200 191 91 200 191 91 200 191 91 200 191 91 0 0 0 0 0 0 166 163 120 
166 163 120 166 163 120 166 163 120 166 163 120 166 163 120 166 163 120 
166 163 120 0 0 0 0 0 0 0 0 0 0 0 0 0 0 0 0 0 0 0 0 0 0 0 0 0 0 0 0 0 0 0 0 0 
0 0 0 0 0 0 0 0 0 0 0 0 0 0 0 0 0 0 0 0 0 0 0 0 0 0 0 0 0 0 167 164 122 
173 170 130 167 164 121 160 157 111 154 151 104 145 141 91 144 141 90 
149 145 96 153 148 92 128 120 30 122 115 20 127 119 27 131 123 34 130 123 34 
126 118 26 123 115 20 127 119 27 122 114 19 122 114 19 0 0 0 0 0 0 0 0 0 0 0 0 
0 0 0 0 0 0 200 191 91 200 191 91 200 191 91 200 191 91 0 0 0 0 0 0 0 0 0 
0 0 0 0 0 0 166 163 120 156 153 107 140 136 85 149 146 99 137 134 81 
128 124 68 166 163 120 0 0 0 0 0 0 0 0 0 0 0 0 0 0 0 0 0 0 0 0 0 0 0 0 0 0 0 
0 0 0 0 0 0 0 0 0 0 0 0 0 0 0 0 0 0 0 0 0 0 0 0 0 0 0 0 0 0 0 0 0 0 0 0 0 0 0 
0 0 0 173 170 131 169 166 124 166 163 120 151 148 100 159 156 112 163 160 116 
166 163 120 172 169 129 136 129 47 129 121 31 127 119 28 125 118 25 127 119 28 
122 114 19 122 114 19 126 118 26 126 118 26 122 114 19 122 114 19 0 0 0 0 0 0 
0 0 0 0 0 0 0 0 0 0 0 0 0 0 0 0 0 0 0 0 0 0 0 0 0 0 0 0 0 0 0 0 0 166 163 120 
166 163 120 147 144 94 151 148 100 142 139 89 128 125 68 115 111 50 115 111 50 
0 0 0 0 0 0 0 0 0 0 0 0 0 0 0 0 0 0 0 0 0 0 0 0 0 0 0 0 0 0 0 0 0 0 0 0 0 0 0 
0 0 0 0 0 0 0 0 0 0 0 0 0 0 0 0 0 0 0 0 0 0 0 0 0 0 0 0 0 0 0 0 0 174 171 132 
169 166 124 166 163 120 143 140 88 115 111 50 0 0 0 255 255 255 134 126 40 
139 131 49 135 128 43 125 117 24 128 120 30 123 115 21 123 115 21 127 119 27 
125 117 25 122 114 19 122 114 19 0 0 0 0 0 0 0 0 0 0 0 0 0 0 0 0 0 0 0 0 0 
0 0 0 0 0 0 0 0 0 0 0 0 0 0 0 0 0 0 166 163 120 151 147 99 140 137 86 
155 152 106 134 131 77 115 111 50 0 0 0 0 0 0 0 0 0 0 0 0 0 0 0 200 191 91 
200 191 91 0 0 0 0 0 0 0 0 0 0 0 0 0 0 0 0 0 0 0 0 0 0 0 0 0 0 0 0 0 0 0 0 0 
0 0 0 0 0 0 0 0 0 0 0 0 0 0 0 0 0 0 0 0 0 0 0 0 0 0 0 180 177 141 171 168 128 
166 163 120 150 147 99 145 141 91 115 111 50 255 255 255 128 120 30 141 135 52 
128 120 29 126 118 27 127 119 27 123 115 21 131 123 34 126 118 25 122 114 19 
122 114 19 122 114 19 0 0 0 0 0 0 0 0 0 0 0 0 0 0 0 0 0 0 0 0 0 0 0 0 0 0 0 
0 0 0 0 0 0 0 0 0 151 147 100 143 140 90 142 139 88 152 148 102 134 131 76 
133 130 75 0 0 0 0 0 0 0 0 0 0 0 0 0 0 0 0 0 0 200 191 91 200 191 91 
0 0 0 0 0 0 0 0 0 0 0 0 0 0 0 0 0 0 0 0 0 0 0 0 0 0 0 0 0 0 0 0 0 0 0 0 0 0 0 
0 0 0 0 0 0 0 0 0 0 0 0 0 0 0 0 0 0 0 0 0 0 0 0 176 173 135 168 165 124 
155 152 105 149 145 96 134 130 75 255 255 255 137 129 44 137 130 45 125 117 24 
129 121 30 126 118 26 127 119 28 128 120 29 122 114 19 122 114 19 122 114 19 
0 0 0 0 0 0 0 0 0 0 0 0 0 0 0 0 0 0 0 0 0 0 0 0 0 0 0 0 0 0 166 163 120 
173 171 131 169 166 126 149 146 98 144 141 91 141 137 86 127 124 67 144 140 90 
0 0 0 0 0 0 0 0 0 0 0 0 0 0 0 0 0 0 200 191 91 0 0 0 0 0 0 200 191 91 
200 191 91 0 0 0 0 0 0 0 0 0 0 0 0 0 0 0 0 0 0 0 0 0 0 0 0 0 0 0 0 0 0 0 0 0 
0 0 0 0 0 0 0 0 0 0 0 0 0 0 0 0 0 0 0 0 0 0 0 0 182 180 144 174 171 132 
167 164 121 151 148 99 149 145 96 179 175 124 140 133 50 133 125 38 125 117 25 
130 122 32 129 122 32 125 117 24 126 118 26 122 114 19 122 114 19 0 0 0 0 0 0 
0 0 0 0 0 0 0 0 0 0 0 0 0 0 0 0 0 0 166 163 120 167 164 121 172 169 129 
172 169 129 153 150 104 146 143 92 143 140 89 127 123 66 115 111 50 115 111 50 
0 0 0 0 0 0 0 0 0 0 0 0 0 0 0 0 0 0 0 0 0 200 191 91 0 0 0 0 0 0 200 191 91 
200 191 91 0 0 0 0 0 0 0 0 0 0 0 0 0 0 0 0 0 0 0 0 0 0 0 0 0 0 0 0 0 0 0 0 0 
0 0 0 0 0 0 0 0 0 0 0 0 0 0 0 0 0 0 0 0 0 0 0 0 0 0 0 170 167 126 172 169 129 
155 152 106 148 145 96 144 139 75 146 138 61 128 120 28 128 120 30 127 119 27 
129 121 32 125 117 24 125 118 25 122 114 19 122 114 19 0 0 0 0 0 0 0 0 0 0 0 0 
0 0 0 166 163 120 166 163 120 168 165 123 173 170 130 173 170 130 162 159 116 
143 139 87 144 140 91 137 134 80 139 135 82 115 111 50 0 0 0 0 0 0 0 0 0 0 0 0 
0 0 0 200 191 91 200 191 91 200 191 91 200 191 91 200 191 91 200 191 91 
200 191 91 0 0 0 0 0 0 0 0 0 0 0 0 0 0 0 0 0 0 0 0 0 0 0 0 0 0 0 0 0 0 0 0 0 
0 0 0 0 0 0 0 0 0 0 0 0 0 0 0 0 0 0 0 0 0 0 0 0 0 0 0 0 0 0 0 0 0 166 163 120 
173 170 131 169 166 125 149 146 97 134 130 63 140 133 53 127 119 27 129 121 31 
126 118 25 129 121 32 125 117 25 125 117 24 122 114 19 122 114 19 0 0 0 0 0 0 
115 111 50 133 130 75 136 132 78 166 163 121 173 170 131 172 170 130 
170 167 128 139 135 83 137 134 79 138 135 82 132 128 73 138 135 82 0 0 0 0 0 0 
0 0 0 205 203 96 204 200 94 201 193 92 200 190 91 200 191 91 200 191 91 
200 191 91 200 191 91 200 191 91 200 191 91 200 191 91 0 0 0 0 0 0 0 0 0 0 0 0 
0 0 0 0 0 0 0 0 0 0 0 0 0 0 0 0 0 0 0 0 0 0 0 0 0 0 0 0 0 0 0 0 0 0 0 0 0 0 0 
0 0 0 0 0 0 0 0 0 0 0 0 0 0 0 0 0 0 167 164 122 173 170 130 163 160 116 
138 134 78 141 134 53 126 118 25 130 122 33 125 117 25 130 122 33 126 118 26 
124 116 23 122 114 19 145 139 71 152 149 101 139 136 83 135 131 77 155 152 105 
173 171 131 172 170 129 164 161 118 154 151 104 135 131 78 131 127 73 
136 132 77 140 137 85 115 111 50 0 0 0 0 0 0 0 0 0 0 0 0 186 156 78 190 165 81 
197 184 89 201 193 92 200 192 91 200 191 91 200 191 91 200 191 91 200 191 91 
200 191 91 200 191 91 0 0 0 0 0 0 0 0 0 0 0 0 0 0 0 0 0 0 0 0 0 0 0 0 0 0 0 
0 0 0 0 0 0 0 0 0 0 0 0 0 0 0 0 0 0 0 0 0 0 0 0 0 0 0 0 0 0 0 0 0 0 0 0 0 0 0 
0 0 0 166 163 120 173 170 131 167 164 121 165 162 118 140 134 52 124 116 22 
130 123 34 125 117 25 129 121 31 129 122 32 123 115 21 122 114 19 139 133 59 
159 156 110 161 158 114 174 171 133 177 174 136 173 170 132 165 162 119 
145 142 91 132 128 73 127 123 65 148 145 95 166 163 120 0 0 0 0 0 0 0 0 0 
0 0 0 0 0 0 0 0 0 145 55 40 159 89 53 190 165 81 204 200 94 201 194 92 
200 191 91 200 191 91 200 191 91 200 191 91 200 191 91 200 191 91 0 0 0 0 0 0 
0 0 0 0 0 0 0 0 0 0 0 0 0 0 0 0 0 0 0 0 0 0 0 0 0 0 0 0 0 0 0 0 0 0 0 0 0 0 0 
0 0 0 0 0 0 0 0 0 0 0 0 0 0 0 0 0 0 0 0 0 0 0 0 0 0 0 171 168 127 171 168 128 
166 163 120 134 126 39 122 114 19 131 123 34 125 117 24 127 119 28 127 119 27 
124 116 22 122 114 19 124 116 24 170 167 125 176 173 136 173 170 130 
169 166 125 156 153 106 141 138 86 139 136 83 138 135 82 162 159 114 
0 0 0 0 0 0 0 0 0 0 0 0 0 0 0 0 0 0 0 0 0 0 0 0 127 8 22 145 55 40 186 156 78 
205 203 96 202 195 93 200 191 91 200 191 91 200 191 91 200 191 91 200 191 91 
200 191 91 0 0 0 0 0 0 0 0 0 0 0 0 0 0 0 0 0 0 0 0 0 0 0 0 0 0 0 0 0 0 0 0 0 
0 0 0 0 0 0 0 0 0 0 0 0 0 0 0 0 0 0 0 0 0 0 0 0 0 0 0 0 0 0 0 0 0 0 0 0 0 0 0 
166 163 120 173 170 130 166 163 120 139 132 52 125 117 24 128 120 29 
128 120 29 127 119 28 123 115 21 127 119 28 123 115 20 122 114 19 139 133 59 
166 163 120 166 163 120 136 133 80 127 123 67 140 137 84 136 132 78 157 154 108 
0 0 0 0 0 0 0 0 0 0 0 0 0 0 0 148 61 42 130 16 25 133 23 28 133 23 28 
33 66 35 33 66 35 33 66 35 33 66 35 33 66 35 0 0 0 0 0 0 0 0 0 200 191 91 
200 191 91 200 191 91 0 0 0 0 0 0 0 0 0 0 0 0 0 0 0 0 0 0 0 0 0 0 0 0 0 0 0 
0 0 0 0 0 0 0 0 0 0 0 0 0 0 0 0 0 0 0 0 0 0 0 0 0 0 0 0 0 0 0 0 0 33 66 35 
51 82 53 35 68 37 33 66 35 33 66 35 167 166 128 168 165 123 155 150 91 
130 123 34 125 117 24 126 118 26 123 115 21 127 119 27 126 118 26 125 117 24 
122 114 19 122 114 19 148 143 79 143 139 88 127 124 66 130 126 70 132 129 74 
97 104 53 33 66 35 33 66 35 0 0 0 0 0 0 0 0 0 0 0 0 148 60 42 130 16 26 
134 26 29 135 27 30 33 66 35 33 66 35 33 66 35 33 66 35 33 66 35 33 66 35 
33 66 35 0 0 0 200 191 91 200 191 91 200 191 91 0 0 0 0 0 0 200 191 91 
200 191 91 0 0 0 0 0 0 0 0 0 0 0 0 0 0 0 0 0 0 0 0 0 0 0 0 0 0 0 0 0 0 0 0 0 
0 0 0 0 0 0 0 0 0 0 0 0 33 66 35 56 85 58 84 109 86 36 69 38 33 66 35 33 66 35 
44 74 44 161 161 123 162 159 114 136 130 50 130 122 33 124 117 25 122 114 19 
127 119 28 123 116 22 127 119 28 124 116 22 122 114 19 124 116 23 147 143 93 
139 136 83 122 119 62 86 92 44 33 66 35 33 66 35 33 66 35 33 66 35 33 66 35 
33 66 35 0 0 0 145 54 40 128 10 23 133 25 29 135 28 30 33 66 35 33 66 35 
33 66 35 33 66 35 33 66 35 33 66 35 33 66 35 0 0 0 200 191 91 200 191 91 
200 191 91 0 0 0 0 0 0 200 191 91 200 191 91 0 0 0 0 0 0 0 0 0 0 0 0 0 0 0 
0 0 0 0 0 0 0 0 0 0 0 0 0 0 0 0 0 0 0 0 0 0 0 0 0 0 0 0 0 0 33 66 35 73 100 75 
49 79 50 33 66 35 31 62 33 33 66 35 33 66 35 59 87 58 167 164 121 151 147 97 
133 126 40 128 121 30 123 115 20 125 117 24 126 118 25 123 115 21 127 119 28 
122 114 19 122 114 19 139 135 75 133 129 75 116 112 53 49 52 27 16 22 16 
16 22 16 204 206 204 184 185 184 16 22 16 26 48 27 33 66 35 33 66 35 0 0 0 
0 0 0 0 0 0 0 0 0 33 66 35 33 66 35 33 66 35 33 66 35 33 66 35 33 66 35 
0 0 0 200 191 91 200 191 91 200 191 91 200 191 91 200 191 91 0 0 0 0 0 0 0 0 0 
0 0 0 0 0 0 0 0 0 0 0 0 0 0 0 0 0 0 0 0 0 0 0 0 0 0 0 0 0 0 0 0 0 0 0 0 0 0 0 
0 0 0 33 66 35 71 98 73 40 72 42 26 47 27 127 130 127 59 64 59 21 35 22 
24 42 24 162 159 114 142 138 87 149 145 94 137 131 48 130 123 34 123 115 21 
127 119 27 122 114 19 127 119 28 122 114 19 122 114 19 141 135 62 127 123 66 
121 118 63 38 42 24 16 22 16 16 22 16 16 22 16 16 22 16 16 22 16 16 22 16 
76 99 77 29 50 30 0 0 0 0 0 0 0 0 0 33 66 35 33 66 35 33 66 35 33 66 35 
33 66 35 33 66 35 33 66 35 0 0 0 200 191 91 200 191 91 200 191 91 200 191 91 
200 191 91 0 0 0 0 0 0 0 0 0 0 0 0 0 0 0 0 0 0 0 0 0 0 0 0 0 0 0 0 0 0 0 0 0 
0 0 0 0 0 0 0 0 0 0 0 0 0 0 0 0 0 0 33 66 35 86 111 87 33 66 35 27 51 28 
16 22 16 16 22 16 16 22 16 16 22 16 67 70 49 133 130 75 148 144 95 166 163 120 
151 147 93 138 133 64 138 130 48 122 114 19 127 119 28 122 114 19 122 114 19 
136 130 52 129 125 69 93 91 43 16 22 16 13 18 13 178 179 178 195 195 195 
200 202 200 199 201 199 205 207 205 162 172 163 28 49 29 0 0 0 0 0 0 0 0 0 
33 66 35 33 66 35 33 66 35 33 66 35 33 66 35 33 66 35 33 66 35 0 0 0 200 191 91 
200 191 91 200 191 91 200 191 91 200 191 91 0 0 0 0 0 0 0 0 0 0 0 0 0 0 0 
0 0 0 0 0 0 0 0 0 0 0 0 0 0 0 0 0 0 0 0 0 0 0 0 0 0 0 0 0 0 0 0 0 0 0 0 33 66 35 
83 108 85 36 68 38 29 56 31 148 151 148 33 38 33 126 129 126 132 135 132 
17 23 16 136 133 88 142 138 86 166 163 120 145 142 91 120 116 55 142 139 87 
133 125 38 127 120 28 122 114 19 122 114 19 127 120 31 109 107 67 24 30 19 
16 22 16 15 20 15 14 19 14 16 22 16 24 30 24 16 22 16 72 79 72 33 65 35 
29 50 29 0 0 0 0 0 0 0 0 0 33 66 35 33 66 35 33 66 35 33 66 35 33 66 35 
0 0 0 0 0 0 0 0 0 200 191 91 200 191 91 200 191 91 200 191 91 200 191 91 
0 0 0 0 0 0 0 0 0 0 0 0 0 0 0 0 0 0 0 0 0 0 0 0 0 0 0 0 0 0 0 0 0 0 0 0 0 0 0 
0 0 0 0 0 0 0 0 0 0 0 0 33 66 35 61 89 62 44 75 45 27 51 29 102 106 102 
29 34 29 88 92 88 100 103 100 16 22 16 28 33 24 135 131 77 166 163 120 
166 163 120 118 114 53 143 139 82 143 138 68 126 118 26 122 114 19 122 114 19 
126 118 28 16 22 16 16 22 16 51 57 51 185 187 185 219 220 219 210 210 210 
200 202 200 44 50 44 31 61 33 31 58 32 28 45 28 0 0 0 0 0 0 0 0 0 0 0 0 0 0 0 
0 0 0 0 0 0 0 0 0 0 0 0 0 0 0 0 0 0 200 191 91 200 191 91 200 191 91 
200 191 91 200 191 91 0 0 0 0 0 0 0 0 0 0 0 0 0 0 0 0 0 0 0 0 0 0 0 0 0 0 0 
0 0 0 0 0 0 0 0 0 0 0 0 0 0 0 0 0 0 0 0 0 0 0 0 33 66 35 45 72 47 75 98 76 
26 53 28 30 58 31 16 23 16 16 22 16 16 22 16 16 22 16 16 22 16 117 116 72 
146 143 93 166 163 120 121 117 58 145 141 83 141 135 57 124 117 23 122 114 19 
122 114 19 129 125 61 23 28 18 16 22 16 36 42 36 77 82 77 16 22 16 16 22 16 
42 55 43 55 85 57 29 59 31 25 43 26 25 42 26 0 0 0 0 0 0 0 0 0 0 0 0 0 0 0 
0 0 0 0 0 0 0 0 0 0 0 0 0 0 0 0 0 0 200 191 91 200 191 91 200 191 91 
200 191 91 200 191 91 0 0 0 0 0 0 0 0 0 0 0 0 0 0 0 0 0 0 0 0 0 0 0 0 0 0 0 
0 0 0 0 0 0 0 0 0 0 0 0 0 0 0 0 0 0 0 0 0 0 0 0 33 66 35 31 60 32 98 114 99 
34 58 35 29 57 30 33 66 35 16 22 16 193 195 193 34 39 34 16 22 16 17 23 17 
138 134 81 166 163 120 144 141 90 161 158 112 133 125 38 122 114 20 122 114 19 
149 144 81 86 83 44 35 39 21 28 34 28 183 185 183 117 120 117 17 23 17 
58 83 60 60 84 61 29 57 31 24 41 24 24 40 24 25 41 26 0 0 0 0 0 0 0 0 0 0 0 0 
0 0 0 0 0 0 0 0 0 0 0 0 0 0 0 33 66 35 15 30 16 12 23 12 11 21 11 11 21 11 
11 22 12 10 21 11 11 22 12 12 24 13 11 22 12 2 3 2 0 0 0 0 0 0 0 0 0 0 0 0 
0 0 0 0 0 0 0 0 0 0 0 0 0 0 0 0 0 0 0 0 0 0 0 0 0 0 0 0 0 0 35 54 36 100 109 100 
72 93 74 28 56 30 33 66 35 32 63 33 16 23 16 16 22 16 16 22 16 16 22 16 
88 86 52 144 142 104 166 163 120 133 127 44 132 125 37 122 114 19 123 115 21 
103 100 60 89 87 47 16 22 16 140 143 140 148 151 148 19 28 19 55 85 57 
64 85 65 26 45 27 16 28 17 17 30 17 13 24 14 18 30 19 33 66 35 0 0 0 0 0 0 
0 0 0 0 0 0 0 0 0 33 66 35 16 32 17 13 25 14 10 21 11 11 22 12 13 26 14 
14 28 15 16 31 17 19 37 20 20 38 20 16 30 16 14 27 14 11 23 12 11 22 12 
11 21 12 11 22 12 5 11 6 0 0 0 0 0 0 0 0 0 0 0 0 0 0 0 0 0 0 0 0 0 0 0 0 0 0 0 
0 0 0 0 0 0 26 41 27 59 72 60 105 118 105 26 52 28 26 52 28 33 66 35 33 66 35 
30 59 32 16 22 16 11 15 11 96 94 58 144 141 104 166 163 120 144 139 64 
125 117 23 128 121 33 117 114 71 84 81 42 78 76 43 12 16 12 16 22 16 36 52 37 
81 108 83 45 67 46 16 32 17 17 30 18 19 32 19 17 29 18 10 16 10 16 25 16 
0 0 0 0 0 0 0 0 0 0 0 0 32 109 37 20 64 23 17 39 18 14 28 15 20 39 21 32 65 34 
33 66 35 33 66 35 33 66 35 33 66 35 33 66 35 33 66 35 33 66 35 33 66 35 
28 57 30 21 40 22 16 31 16 13 26 14 11 22 12 1 3 1 0 0 0 0 0 0 0 0 0 0 0 0 
0 0 0 0 0 0 0 0 0 0 0 0 0 0 0 0 0 0 31 58 33 64 80 64 65 75 66 62 80 64 
25 51 27 28 55 29 33 66 35 33 66 35 33 66 35 11 15 11 116 113 83 112 110 80 
125 121 64 143 139 88 151 148 100 131 133 96 85 84 62 81 79 43 77 75 43 
18 28 19 69 96 71 79 102 81 34 51 35 18 35 18 17 30 17 19 31 19 15 23 15 
13 22 13 18 32 18 27 48 28 0 0 0 0 0 0 52 133 57 44 125 49 31 73 34 17 40 18 
26 53 28 33 66 35 33 66 35 33 66 35 33 66 35 27 53 28 33 66 35 33 66 35 
33 66 35 33 66 35 33 66 35 33 66 35 33 66 35 33 66 35 25 43 26 25 49 26 
23 47 25 17 34 18 13 21 14 0 0 0 0 0 0 0 0 0 0 0 0 0 0 0 0 0 0 0 0 0 0 0 0 
33 66 35 42 73 43 88 113 90 27 49 28 31 40 32 30 51 32 30 58 31 33 66 35 
33 66 35 33 66 35 40 70 36 75 73 51 95 94 66 92 89 43 131 128 72 104 102 67 
79 78 56 110 108 80 75 74 54 44 50 36 61 90 63 50 75 51 14 26 15 9 19 9 11 19 11 
15 24 15 12 20 12 14 21 14 23 40 24 25 42 26 33 66 35 0 0 0 83 108 84 
69 139 72 71 124 75 49 80 51 33 66 35 33 66 35 33 66 35 17 35 18 17 34 18 
13 26 14 1 2 1 0 0 0 0 0 0 0 0 0 0 0 0 0 0 0 33 66 35 33 66 35 33 66 35 
31 58 32 28 46 28 25 50 26 21 39 22 15 23 15 0 0 0 0 0 0 0 0 0 0 0 0 0 0 0 
0 0 0 0 0 0 0 0 0 32 64 34 85 110 87 66 94 67 63 92 65 64 90 65 54 77 55 
29 58 31 33 66 35 33 66 35 33 66 35 35 67 35 93 91 65 89 88 59 122 118 60 
85 83 49 47 46 30 92 90 64 110 108 79 52 61 52 64 92 66 40 68 42 16 32 17 
15 30 15 11 21 12 15 23 15 12 19 12 14 21 14 17 28 17 25 40 25 26 40 26 
0 0 0 33 66 35 81 135 84 105 160 107 63 107 65 33 66 35 32 63 33 18 37 19 
14 28 15 1 1 1 0 0 0 0 0 0 0 0 0 0 0 0 0 0 0 0 0 0 0 0 0 0 0 0 0 0 0 33 66 35 
33 66 35 23 42 24 16 26 16 18 34 19 19 38 20 11 17 11 0 0 0 0 0 0 0 0 0 0 0 0 
0 0 0 0 0 0 0 0 0 0 0 0 39 68 41 108 129 109 54 83 55 59 87 61 49 78 51 
32 64 34 29 58 31 29 58 31 33 66 35 33 66 35 33 66 35 110 108 80 89 87 51 
75 72 36 50 49 27 94 93 60 27 32 26 73 79 73 73 100 75 27 51 29 15 28 16 
15 30 15 14 28 15 17 28 17 13 19 13 12 19 12 13 20 13 22 35 22 0 0 0 0 0 0 
0 0 0 59 109 62 102 161 105 73 119 76 34 67 36 31 61 32 17 34 18 3 6 3 0 0 0 
0 0 0 0 0 0 0 0 0 0 0 0 0 0 0 0 0 0 0 0 0 0 0 0 0 0 0 0 0 0 12 21 12 28 50 29 
23 40 24 16 26 16 19 37 20 19 38 20 17 26 17 9 15 10 0 0 0 0 0 0 0 0 0 0 0 0 
0 0 0 0 0 0 38 70 40 134 152 135 124 144 125 66 94 67 66 94 68 56 74 57 
33 66 35 33 66 35 31 61 32 33 66 35 33 66 35 33 66 35 111 109 80 95 93 59 
63 62 38 90 87 55 39 44 39 60 81 61 47 78 49 26 52 28 10 21 11 9 18 10 7 14 7 
12 20 13 15 25 16 12 21 12 13 22 13 25 45 26 0 0 0 0 0 0 0 0 0 0 0 0 94 147 97 
89 153 92 36 109 40 33 70 35 21 42 22 17 33 18 15 30 16 18 35 19 0 0 0 0 0 0 
0 0 0 0 0 0 0 0 0 0 0 0 0 0 0 2 3 2 8 11 8 8 12 8 10 17 10 20 31 20 25 39 25 
18 33 18 19 38 20 19 38 20 19 29 19 13 21 14 0 0 0 0 0 0 0 0 0 0 0 0 0 0 0 
33 66 35 81 95 81 173 184 173 69 96 71 56 86 58 35 64 37 30 60 32 33 66 35 
33 66 35 33 66 35 33 66 35 33 66 35 33 66 35 109 107 79 109 107 79 111 109 78 
88 90 75 48 79 50 32 63 34 20 41 21 13 25 14 7 14 7 2 4 2 6 11 6 12 19 13 
12 20 12 12 20 13 13 22 13 15 30 16 0 0 0 0 0 0 0 0 0 0 0 0 96 146 99 
86 150 89 36 107 40 36 110 40 30 60 32 18 37 19 17 34 18 18 36 19 16 33 17 
16 33 17 16 32 17 16 32 17 16 32 17 15 28 15 13 23 13 10 17 10 10 16 10 
13 20 13 17 26 17 20 32 20 18 32 18 19 38 20 19 38 20 21 43 23 18 28 19 
12 18 12 0 0 0 0 0 0 0 0 0 0 0 0 0 0 0 69 96 70 175 186 175 109 131 111 
75 102 77 40 71 42 33 66 35 29 58 31 29 58 31 33 66 35 33 66 35 32 64 34 
33 66 35 24 47 25 110 108 80 110 108 80 55 71 48 35 68 37 29 58 31 19 38 20 
11 21 11 7 14 7 3 6 3 4 8 4 9 14 9 11 17 11 12 19 12 12 20 13 23 42 24 
0 0 0 0 0 0 0 0 0 0 0 0 0 0 0 104 127 105 83 143 87 37 122 42 37 122 42 
36 116 41 28 82 31 18 50 20 17 37 18 18 38 19 16 35 17 17 29 18 15 26 15 
11 20 11 10 16 10 14 22 14 16 25 16 17 26 17 20 31 20 26 41 27 20 36 20 
16 33 17 19 38 20 19 39 20 16 27 17 16 26 17 5 7 5 0 0 0 0 0 0 0 0 0 0 0 0 
33 66 35 129 146 130 152 167 152 73 100 74 44 76 46 33 66 35 33 66 35 32 64 34 
29 58 31 29 56 30 31 62 33 32 64 34 33 66 35 24 48 26 55 57 42 37 52 33 
33 66 35 25 50 27 18 36 19 15 30 15 7 14 7 6 12 6 7 16 8 5 9 5 9 15 9 7 11 7 
7 11 7 12 21 12 19 35 19 0 0 0 0 0 0 0 0 0 0 0 0 0 0 0 33 66 35 33 66 35 
36 110 40 36 116 41 35 110 40 34 101 38 33 87 36 33 93 36 33 92 36 25 60 26 
17 28 17 17 26 17 17 26 17 17 26 17 17 26 17 23 35 23 21 32 21 20 33 21 
22 41 22 15 31 16 19 40 20 19 38 20 19 36 20 15 24 16 15 24 16 0 0 0 0 0 0 
0 0 0 0 0 0 0 0 0 92 114 93 199 208 200 70 96 71 66 94 68 38 69 40 32 63 33 
31 62 33 33 66 35 32 64 34 27 53 29 32 64 34 33 66 35 33 66 35 33 66 35 
33 66 35 33 66 35 30 60 32 16 32 17 9 18 9 9 17 10 10 19 10 13 24 13 10 19 10 
10 17 11 9 13 9 7 10 7 10 15 10 14 23 14 14 24 14 0 0 0 0 0 0 0 0 0 26 40 26 
26 40 26 26 42 27 28 47 28 29 51 30 31 65 32 26 45 27 25 40 25 21 32 21 
21 32 21 14 21 14 15 23 15 17 26 17 17 26 17 17 27 17 24 38 24 22 35 22 
18 29 18 23 36 23 16 30 17 18 37 20 19 38 20 19 39 21 19 37 20 16 25 17 
16 23 16 18 29 19 0 0 0 0 0 0 0 0 0 0 0 0 33 66 35 178 189 179 132 149 133 
64 91 66 39 66 41 33 66 35 32 64 34 29 58 31 33 65 35 31 62 33 29 59 31 
28 57 30 31 62 33 32 64 34 32 63 33 31 62 33 22 45 24 17 34 18 18 34 19 
16 30 16 14 26 14 13 26 14 7 14 7 9 16 10 13 21 13 9 14 9 11 18 11 13 20 13 
15 22 15 16 25 16 26 40 26 27 42 27 28 46 28 29 50 29 27 47 28 25 39 25 
20 31 20 22 32 22 17 26 17 14 21 14 15 22 15 14 22 14 15 24 15 17 26 17 
17 26 17 17 27 17 19 30 19 25 38 25 21 32 21 18 28 18 18 32 19 19 37 20 
19 38 20 19 38 20 19 38 20 14 24 14 8 12 8 8 12 8 19 30 19 26 41 27 0 0 0 
0 0 0 0 0 0 0 0 0 101 124 102 181 191 181 126 146 127 57 85 58 62 91 64 
33 66 35 33 66 35 29 58 31 28 56 30 31 63 33 29 57 31 27 56 29 30 61 32 
31 62 33 31 62 33 29 58 31 15 31 16 17 34 18 14 29 15 15 29 15 11 22 12 
12 25 13 13 22 14 17 26 17 9 14 9 9 14 9 8 12 8 8 13 8 8 11 8 16 23 16 
19 30 19 23 37 23 21 34 21 21 32 21 18 27 18 16 24 16 14 21 14 15 22 15 
15 23 15 16 25 16 17 26 17 17 28 17 17 29 18 17 27 17 25 39 25 21 33 21 
17 27 17 18 29 18 19 32 19 18 36 20 19 38 20 19 38 20 19 39 20 12 35 14 
8 14 9 11 17 11 13 20 13 15 28 16 19 37 20 33 66 35 0 0 0 0 0 0 0 0 0 0 0 0 
101 123 102 144 159 145 97 120 98 64 90 65 55 85 57 35 67 37 31 63 33 29 57 30 
26 52 27 29 57 31 30 60 31 31 61 33 29 58 31 28 57 30 28 56 30 26 53 28 
16 31 17 12 24 13 12 23 12 16 32 17 15 28 15 11 20 11 9 16 9 16 23 16 13 20 13 
10 15 10 13 20 13 10 14 10 10 14 10 14 21 14 17 26 17 14 22 14 14 22 14 
14 21 14 14 21 14 15 24 15 17 26 17 17 26 17 17 26 17 17 26 17 17 26 17 
18 27 18 24 38 24 26 41 26 21 32 21 20 31 20 22 40 23 19 37 20 19 38 20 
19 41 21 18 46 20 15 38 16 13 21 14 11 16 11 11 18 11 15 27 15 17 33 18 
17 34 18 31 61 32 33 66 35 0 0 0 0 0 0 0 0 0 33 66 35 84 109 86 125 143 126 
115 136 116 63 91 64 64 91 66 35 68 37 31 62 33 27 55 29 28 57 30 28 54 30 
29 57 31 30 58 31 28 57 30 29 56 31 28 56 29 13 27 14 8 14 8 10 21 11 11 21 12 
7 15 7 5 10 5 10 18 10 12 20 13 14 21 14 12 18 12 11 17 11 14 21 14 8 12 8 
10 15 10 9 13 9 8 11 8 10 15 10 15 24 15 18 29 18 17 27 18 17 26 17 17 26 17 
17 26 17 17 26 17 14 21 14 22 34 22 17 27 17 21 32 21 13 21 13 15 28 16 
21 42 22 19 38 20 19 38 20 9 45 11 15 36 17 21 35 22 7 10 7 3 6 3 5 9 5 8 16 9 
9 17 10 16 31 17 18 35 19 19 38 20 33 66 35 0 0 0 0 0 0 0 0 0 33 66 35 
99 123 101 122 141 123 92 113 92 79 102 81 60 85 61 63 89 65 42 72 44 28 56 30 
28 55 30 25 51 26 28 56 30 27 54 29 26 51 28 28 54 29 21 42 23 13 27 14 
8 15 8 12 26 13 12 23 12 8 17 9 15 31 16 11 18 11 9 14 9 9 15 9 15 23 15 
14 21 14 14 21 14 11 17 11 11 16 11 15 24 15 15 25 15 17 26 17 17 26 17 
17 26 17 17 26 17 17 26 17 17 26 17 17 27 17 17 26 17 17 27 17 18 29 18 
19 33 20 15 28 15 17 35 18 19 38 20 20 39 21 14 39 16 12 43 14 17 29 18 
15 23 15 13 23 14 9 23 10 11 27 13 19 38 20 10 20 10 13 27 14 25 49 27 
33 66 35 33 66 35 0 0 0 0 0 0 0 0 0 0 0 0 33 66 35 91 115 92 104 120 104 
166 178 167 82 105 83 83 106 85 74 98 75 29 57 30 31 60 33 27 53 28 26 53 28 
27 55 29 29 58 31 30 61 32 27 54 28 20 40 21 8 16 9 7 14 8 10 19 10 13 25 13 
13 26 13 8 15 8 4 8 4 6 10 6 10 14 10 15 22 15 14 23 14 17 27 17 17 26 17 
17 27 17 17 26 17 17 26 17 17 26 17 18 28 18 12 19 12 13 20 13 13 21 13 
17 26 17 20 33 21 17 28 18 13 22 13 19 35 19 19 38 20 19 38 20 19 38 20 
22 45 24 17 32 18 22 34 23 26 42 27 21 47 22 24 76 27 29 90 33 23 53 24 
13 26 14 9 17 9 10 20 11 10 20 11 16 31 17 27 54 29 0 0 0 0 0 0 0 0 0 0 0 0 
0 0 0 33 66 35 96 120 97 110 127 110 138 155 138 100 123 102 75 99 77 65 89 67 
28 55 30 26 52 28 27 56 29 28 55 29 31 62 33 31 63 33 33 66 35 17 34 18 
11 22 12 8 16 9 4 9 4 7 13 7 6 15 7 10 21 11 7 15 7 7 12 7 11 18 11 7 10 7 
11 17 11 11 17 11 16 24 16 17 26 17 17 26 17 17 27 17 17 28 18 20 31 20 
16 25 16 12 19 12 18 27 18 15 24 15 14 24 14 14 26 15 14 29 16 17 34 18 
19 38 20 19 38 20 20 40 21 24 47 26 26 42 27 30 45 31 55 75 57 69 142 73 
39 120 43 35 96 38 33 66 35 13 26 14 13 27 14 19 37 20 15 31 16 18 36 19 
0 0 0 0 0 0 0 0 0 0 0 0 0 0 0 0 0 0 0 0 0 0 0 0 70 98 72 105 125 106 
155 169 155 104 124 106 76 100 78 56 83 58 30 60 32 29 58 31 28 58 30 30 61 32 
32 64 34 27 55 29 19 36 20 11 22 11 11 21 11 9 18 9 6 12 7 10 20 11 10 19 10 
9 18 10 13 25 14 11 22 12 11 17 11 17 27 17 15 23 15 12 17 12 13 21 13 
13 19 13 12 19 12 11 18 11 15 23 15 14 21 14 17 27 17 18 28 18 20 33 21 
14 25 14 16 31 17 20 40 21 19 38 20 19 38 20 19 38 20 26 52 27 27 50 29 
26 41 27 45 59 46 66 131 70 67 142 71 45 122 49 33 70 35 31 63 33 31 62 33 
21 42 22 18 36 19 30 59 32 24 47 25 0 0 0 0 0 0 0 0 0 0 0 0 0 0 0 0 0 0 0 0 0 
0 0 0 0 0 0 39 65 40 108 128 109 159 174 160 100 124 101 44 74 45 37 66 39 
29 58 31 28 57 30 28 55 29 33 66 35 24 46 24 17 35 19 12 23 12 10 19 11 
10 20 11 11 21 12 9 18 9 8 16 8 7 14 8 14 27 14 14 27 15 15 30 16 21 39 21 
14 22 14 12 18 12 7 11 7 4 6 4 7 13 7 9 14 9 14 23 15 17 27 17 18 29 18 
26 41 26 20 36 20 23 44 23 19 39 21 19 38 20 19 39 20 19 38 20 19 39 21 
24 46 25 26 42 27 29 44 30 55 71 56 76 141 78 81 150 86 39 118 44 33 66 35 
29 57 30 13 25 13 11 23 12 24 47 25 32 64 34 0 0 0 0 0 0 0 0 0 0 0 0 0 0 0 
0 0 0 0 0 0 0 0 0 0 0 0 0 0 0 0 0 0 34 50 35 104 126 105 166 180 167 
110 132 112 62 90 64 64 92 65 29 59 31 26 52 28 26 51 27 27 55 29 25 50 26 
15 29 15 13 27 14 15 29 16 12 24 13 11 23 13 12 25 13 10 19 10 15 30 16 
9 18 9 11 22 11 12 24 13 15 30 16 7 13 7 4 6 4 4 7 4 7 12 7 10 18 11 18 29 18 
20 31 20 16 25 16 15 28 16 19 38 20 11 23 12 18 36 19 21 42 23 20 41 22 
20 41 22 21 42 22 27 47 28 26 42 27 32 64 34 63 125 66 73 143 76 55 134 59 
35 104 40 33 66 35 30 60 32 10 20 11 18 34 18 30 62 32 33 66 35 0 0 0 0 0 0 
0 0 0 0 0 0 0 0 0 0 0 0 0 0 0 0 0 0 0 0 0 0 0 0 0 0 0 0 0 0 38 64 39 92 109 93 
125 145 126 84 109 85 64 89 66 39 66 41 28 56 30 28 57 29 26 51 27 28 58 30 
28 55 29 17 35 18 13 26 14 12 24 12 9 19 10 9 18 10 9 19 10 6 12 6 4 6 4 4 7 4 
3 7 3 5 8 5 4 10 5 5 11 5 8 14 8 6 11 7 10 16 10 19 30 19 18 31 18 14 27 15 
12 24 13 16 31 16 14 27 14 18 37 19 27 54 29 20 39 21 20 39 21 22 43 23 
26 42 27 26 42 27 47 108 49 96 141 98 69 143 73 47 112 50 35 94 38 33 66 35 
22 44 23 11 21 11 7 13 7 17 34 18 0 0 0 33 66 35 33 66 35 0 0 0 0 0 0 0 0 0 
0 0 0 0 0 0 0 0 0 0 0 0 0 0 0 0 0 0 255 255 255 0 0 0 33 66 35 89 114 91 
113 134 114 105 128 106 57 86 59 61 88 62 62 86 63 56 81 57 29 59 31 28 57 30 
24 50 26 9 19 10 9 18 10 10 20 10 11 23 13 10 19 11 9 19 10 7 16 9 5 10 5 
8 16 9 8 16 8 7 14 7 6 13 7 9 18 9 7 15 8 14 26 14 19 38 20 17 35 18 17 35 18 
21 41 22 19 38 20 27 54 29 19 39 21 32 64 34 20 40 21 25 47 26 19 31 20 
26 42 27 26 41 27 48 69 49 105 162 108 77 145 81 41 115 44 33 66 35 33 66 35 
21 41 22 10 20 10 14 28 15 23 45 24 33 66 35 0 0 0 0 0 0 0 0 0 0 0 0 0 0 0 
0 0 0 0 0 0 0 0 0 0 0 0 0 0 0 0 0 0 0 0 0 255 255 255 0 0 0 155 170 156 
103 126 105 117 138 119 131 149 132 49 75 51 59 84 61 47 75 49 52 74 53 
41 64 43 20 40 21 17 33 17 15 29 16 11 22 12 11 21 11 10 19 10 10 19 10 
10 20 11 11 22 11 11 24 13 9 19 10 7 14 8 8 15 8 8 18 10 10 21 11 16 33 18 
20 41 21 17 35 19 17 35 19 20 39 20 20 39 21 22 45 24 20 40 21 24 49 26 
18 36 19 17 28 18 26 42 27 27 43 28 26 41 27 51 68 52 108 160 111 81 148 85 
37 104 41 33 72 36 33 66 35 21 41 22 16 33 17 13 26 14 0 0 0 0 0 0 0 0 0 33 66 35 
0 0 0 0 0 0 0 0 0 0 0 0 0 0 0 0 0 0 0 0 0 0 0 0 0 0 0 0 0 0 0 0 0 255 255 255 
255 255 255 255 255 255 99 122 100 118 139 120 130 148 130 71 99 73 61 88 62 
63 89 65 58 82 60 21 37 21 17 35 18 18 36 19 16 34 18 10 20 11 10 19 10 
9 19 10 10 21 11 11 21 11 11 23 12 15 31 17 12 25 13 7 15 8 8 15 8 13 27 15 
18 36 18 17 35 18 17 36 19 18 37 19 13 26 14 14 28 15 18 36 19 23 45 24 
20 40 21 18 32 19 23 36 23 27 43 28 26 41 27 27 43 28 27 44 28 106 138 109 
83 149 87 36 112 40 33 66 35 33 66 35 31 62 33 17 34 18 20 39 21 0 0 0 33 66 35 
33 66 35 0 0 0 0 0 0 0 0 0 0 0 0 33 66 35 33 66 35 33 66 35 33 66 35 33 66 35 
33 66 35 0 0 0 0 0 0 0 0 0 255 255 255 255 255 255 255 255 255 33 66 35 
98 122 100 119 139 121 117 138 118 69 97 71 63 91 65 66 94 68 46 71 48 
19 37 20 19 38 20 19 38 20 10 21 11 10 21 11 10 19 10 9 17 10 10 20 10 
5 9 5 4 9 4 7 14 7 5 11 6 8 16 8 21 42 22 18 37 20 18 37 20 20 39 21 15 30 16 
18 37 20 21 42 22 22 45 24 19 33 20 17 27 17 21 33 22 26 41 27 26 41 27 
29 53 31 33 66 35 181 192 182 71 137 75 46 119 51 35 92 38 33 66 35 33 66 35 
18 37 20 21 42 22 0 0 0 0 0 0 0 0 0 0 0 0 0 0 0 33 66 35 33 66 35 33 66 35 
33 66 35 33 66 35 33 66 35 33 66 35 33 66 35 33 66 35 0 0 0 0 0 0 0 0 0 0 0 0 
255 255 255 255 255 255 50 80 52 94 118 96 101 124 103 87 112 88 121 140 123 
83 108 84 49 80 51 35 55 36 22 41 23 20 39 21 16 33 17 12 25 13 7 15 8 8 14 8 
6 13 7 6 12 7 6 11 6 9 17 10 8 17 9 11 21 12 12 23 13 20 39 21 20 39 21 
21 41 22 25 49 26 13 26 14 20 40 21 20 37 21 17 27 17 25 40 26 26 41 27 
26 41 27 26 41 27 29 52 30 0 0 0 255 255 255 72 130 76 71 142 75 36 110 40 
33 68 35 33 66 35 33 66 35 0 1 0 0 0 0 33 66 35 33 66 35 0 0 0 0 0 0 0 0 0 
33 66 35 33 66 35 33 66 35 33 66 35 33 66 35 33 66 35 33 66 35 33 66 35 
33 66 35 0 0 0 0 0 0 0 0 0 0 0 0 0 0 0 255 255 255 255 255 255 37 69 39 
101 124 102 113 134 115 113 129 114 82 96 83 74 89 75 53 69 54 23 42 24 
16 31 17 14 27 14 18 36 19 10 21 11 9 17 9 8 16 9 11 21 11 8 16 9 8 18 9 
10 19 10 11 23 12 16 30 17 19 38 20 20 39 21 20 39 21 16 32 17 15 30 16 
23 37 24 21 34 22 27 46 28 26 41 27 26 41 27 26 42 27 26 41 27 0 0 0 0 0 0 
255 255 255 47 128 51 63 133 67 33 69 35 33 66 35 33 66 35 33 66 35 12 23 12 
33 66 35 33 66 35 33 66 35 33 66 35 33 66 35 33 66 35 33 66 35 33 66 35 
33 66 35 33 66 35 33 66 35 33 66 35 33 66 35 33 66 35 33 66 35 0 0 0 0 0 0 
0 0 0 0 0 0 0 0 0 0 0 0 255 255 255 106 128 107 100 123 101 94 105 95 
99 109 99 59 74 61 81 93 81 76 83 77 66 77 67 22 34 23 17 29 18 24 47 25 
22 44 23 13 26 14 14 28 15 17 35 19 18 37 20 19 37 19 16 32 17 13 27 14 
16 31 16 19 35 19 16 26 16 16 26 16 9 15 10 19 30 20 26 41 27 26 41 27 
26 41 27 28 47 29 33 66 35 0 0 0 0 0 0 0 0 0 0 0 0 255 255 255 37 122 42 
47 125 50 33 66 35 33 66 35 33 66 35 33 66 35 33 66 35 33 66 35 33 66 35 
33 66 35 33 66 35 33 66 35 33 66 35 33 66 35 33 66 35 33 66 35 33 66 35 
33 66 35 0 0 0 0 0 0 0 0 0 0 0 0 0 0 0 0 0 0 0 0 0 0 0 0 0 0 0 0 0 0 255 255 255 
255 255 255 53 83 54 63 78 65 92 103 93 86 94 87 57 66 58 56 64 56 79 85 79 
22 33 23 17 26 17 15 24 16 15 24 16 15 24 16 15 24 16 15 25 16 15 24 16 
13 21 13 12 19 13 15 24 16 15 24 16 15 25 16 15 24 16 16 25 16 24 38 25 
26 41 27 26 41 27 27 43 28 28 48 29 0 0 0 0 0 0 0 0 0 0 0 0 0 0 0 0 0 0 0 0 0 
37 122 42 37 124 42 34 76 36 33 66 35 33 66 35 33 66 35 33 66 35 33 66 35 
33 66 35 33 66 35 33 66 35 33 66 35 33 66 35 33 66 35 33 66 35 0 0 0 0 0 0 
0 0 0 0 0 0 0 0 0 0 0 0 0 0 0 0 0 0 0 0 0 0 0 0 0 0 0 0 0 0 0 0 0 0 0 0 0 0 0 
0 0 0 27 44 28 37 51 38 87 97 88 86 93 86 78 85 78 67 74 67 43 51 44 15 24 16 
15 24 16 15 23 15 15 24 16 15 24 16 15 24 16 12 20 13 15 24 16 16 25 16 
15 24 16 15 23 15 16 25 16 24 37 25 26 41 27 26 41 27 26 41 27 28 46 29 
0 0 0 0 0 0 0 0 0 0 0 0 0 0 0 0 0 0 0 0 0 0 0 0 0 0 0 37 124 42 37 122 42 
35 97 39 33 66 35 33 66 35 33 66 35 33 66 35 33 66 35 33 66 35 33 66 35 
0 0 0 0 0 0 0 0 0 0 0 0 0 0 0 0 0 0 0 0 0 0 0 0 0 0 0 0 0 0 0 0 0 0 0 0 0 0 0 
0 0 0 0 0 0 0 0 0 0 0 0 0 0 0 0 0 0 0 0 0 0 0 0 0 0 0 33 66 35 33 66 35 
40 72 42 61 73 62 85 94 85 47 55 48 48 56 49 29 37 29 18 28 18 20 31 20 
25 39 26 24 38 25 16 25 17 15 24 16 15 24 16 19 30 20 26 41 27 27 42 28 
26 41 27 26 41 27 26 42 27 0 0 0 0 0 0 0 0 0 0 0 0 1 1 0 1 1 0 2 2 0 3 3 0 
0 0 0 0 0 0 0 0 0 0 0 0 33 66 35 33 66 35 33 66 35 33 66 35 33 66 35 33 66 35 
0 0 0 0 0 0 0 0 0 0 0 0 0 0 0 0 0 0 0 0 0 0 0 0 0 0 0 0 0 0 0 0 0 0 0 0 0 0 0 
0 0 0 0 0 0 0 0 0 0 0 0 0 0 0 0 0 0 0 0 0 0 0 0 14 14 4 0 0 0 0 0 0 0 0 0 
0 0 0 0 0 0 33 66 35 29 50 30 75 102 77 23 37 24 44 57 45 36 50 37 26 41 27 
26 41 27 26 41 27 22 35 23 15 24 16 18 28 19 25 41 26 27 44 28 29 53 31 
33 66 35 33 66 35 0 0 0 0 0 0 0 0 0 0 0 0 0 0 0 0 0 0 1 1 0 2 2 0 3 3 0 5 5 0 
5 5 1 7 7 1 9 9 2 12 11 3 15 14 4 18 18 5 22 21 7 26 25 8 29 28 10 32 31 11 
33 31 12 31 29 12 9 8 4 0 0 0 0 0 0 0 0 0 0 0 0 0 0 0 0 0 0 0 0 0 0 0 0 0 0 0 
0 0 0 0 0 0 0 0 0 0 0 0 0 0 0 0 0 0 0 0 0 0 0 0 0 0 0 0 0 0 0 0 0 22 22 7 
18 18 5 12 12 3 10 10 3 10 10 3 10 10 3 10 10 3 0 0 0 0 0 0 26 41 27 26 41 27 
0 0 0 33 66 35 31 62 33 32 64 34 33 66 35 0 0 0 0 0 0 0 0 0 4 4 2 3 4 2 2 3 1 
2 2 1 1 1 0 1 1 0 0 0 0 0 0 0 2 2 0 3 3 0 4 4 0 6 6 0 7 7 1 8 8 1 11 10 2 
13 12 3 15 14 4 17 16 5 19 18 6 20 19 7 20 19 7 18 17 7 14 14 6 12 12 5 
17 17 7 26 26 10 40 39 14 89 86 31 107 104 38 116 112 42 118 114 43 121 117 43 
123 119 44 123 119 44 123 119 44 124 120 44 125 121 45 114 111 41 84 83 29 
67 67 22 0 0 0 0 0 0 0 0 0 0 0 0 0 0 0 14 14 4 14 14 4 14 14 4 13 13 4 13 13 4 
13 13 4 12 12 4 11 11 4 11 11 4 11 11 3 11 11 3 11 11 3 11 11 3 10 10 3 
9 9 3 9 8 4 9 8 4 8 7 3 6 5 3 4 4 2 4 4 2 3 3 1 2 2 1 2 2 0 2 1 0 1 1 0 2 1 0 
2 2 0 3 3 0 4 4 0 5 5 0 6 6 0 7 7 1 9 8 1 10 10 2 11 11 2 12 12 3 13 13 4 
14 14 5 15 14 5 15 15 5 14 14 5 15 15 5 21 21 8 30 30 11 46 44 16 73 70 25 
99 96 35 116 112 42 118 114 43 121 117 43 123 119 44 123 119 44 123 119 44 
124 120 44 125 121 45 114 111 41 84 83 29 67 67 22 0 0 0 0 0 0 0 0 0 0 0 0 
0 0 0 14 14 4 14 14 4 14 14 4 14 14 4 14 14 4 13 13 4 13 13 4 11 11 4 11 11 4 
11 11 3 11 11 3 12 12 3 12 12 3 11 11 3 10 10 3 10 10 4 10 9 4 10 8 3 7 6 3 
5 4 2 4 4 2 3 3 1 3 3 1 2 2 0 2 2 0 2 1 0 2 1 0 3 3 0 3 3 0 4 4 0 4 4 0 5 5 0 
6 6 0 7 7 1 8 8 1 9 9 1 10 10 2 11 11 3 12 12 4 13 13 4 13 14 5 14 14 5 
16 16 5 22 22 8 31 31 12 46 45 16 72 69 25 98 96 35 116 112 42 118 114 43 
121 117 43 123 119 44 123 119 44 123 119 44 124 120 44 125 121 45 114 111 41 
84 83 29 67 67 22 
