P3
64 64
255
0 0 0 0 0 0 0 0 0 0 0 0 0 0 0 0 0 0 0 0 0 149 146 67 149 146 67 149 146 67 
151 145 67 151 145 67 0 0 0 0 0 0 0 0 0 0 0 0 0 0 0 126 118 26 126 118 26 
126 118 26 126 118 26 126 118 26 126 118 26 126 118 26 126 118 26 126 118 26 
126 118 26 126 118 26 126 118 26 126 118 26 126 118 26 126 118 26 126 118 26 
126 118 26 126 118 26 126 118 26 126 118 26 126 118 26 126 118 26 126 118 26 
126 118 26 126 118 26 118 113 27 102 104 28 77 91 31 43 72 34 33 66 35 
33 66 35 33 66 35 33 66 35 33 66 35 33 66 35 33 66 35 33 66 35 33 66 35 
33 66 35 33 66 35 33 66 35 33 66 35 33 66 35 33 66 35 33 66 35 33 66 35 
33 66 35 0 0 0 0 0 0 0 0 0 0 0 0 0 0 0 0 0 0 0 0 0 149 146 67 149 146 67 
149 146 67 151 145 67 151 145 67 0 0 0 0 0 0 0 0 0 0 0 0 0 0 0 126 118 26 
126 118 26 126 118 26 126 118 26 126 118 26 126 118 26 126 118 26 126 118 26 
126 118 26 126 118 26 126 118 26 126 118 26 126 118 26 126 118 26 126 118 26 
126 118 26 126 118 26 126 118 26 126 118 26 126 118 26 126 118 26 126 118 26 
126 118 26 126 118 26 121 115 27 111 110 27 97 102 29 77 91 31 53 77 33 
33 66 35 33 66 35 33 66 35 33 66 35 33 66 35 33 66 35 33 66 35 33 66 35 
33 66 35 33 66 35 33 66 35 33 66 35 33 66 35 33 66 35 33 66 35 33 66 35 
33 66 35 33 66 35 0 0 0 0 0 0 0 0 0 0 0 0 0 0 0 0 0 0 0 0 0 149 146 67 
149 146 67 149 146 67 151 145 67 151 145 67 0 0 0 0 0 0 0 0 0 0 0 0 0 0 0 
126 118 26 126 118 26 126 118 26 126 118 26 126 118 26 126 118 26 126 118 26 
126 118 26 126 118 26 126 118 26 126 118 26 126 118 26 126 118 26 126 118 26 
126 118 26 126 118 26 126 118 26 126 118 26 126 118 26 126 118 26 126 118 26 
126 118 26 126 118 26 124 117 26 118 113 27 108 108 28 95 101 29 78 91 31 
58 80 33 36 68 35 33 66 35 33 66 35 33 66 35 33 66 35 33 66 35 33 66 35 
33 66 35 33 66 35 33 66 35 33 66 35 33 66 35 33 66 35 33 66 35 33 66 35 
33 66 35 33 66 35 33 66 35 0 0 0 0 0 0 0 0 0 0 0 0 0 0 0 149 146 67 149 146 67 
0 0 0 0 0 0 0 0 0 0 0 0 0 0 0 0 0 0 0 0 0 0 0 0 0 0 0 0 0 0 126 118 26 
126 118 26 126 118 26 130 122 33 126 118 27 126 118 26 126 118 26 126 118 26 
126 118 26 126 118 26 126 118 26 126 118 26 126 118 26 126 118 26 126 118 26 
126 118 26 126 118 26 126 118 26 126 118 26 126 118 26 126 118 26 126 118 26 
126 118 26 123 116 26 117 113 27 108 108 28 95 101 29 79 92 31 61 82 32 
42 71 34 33 66 35 33 66 35 33 66 35 33 66 35 33 66 35 33 66 35 33 66 35 
33 66 35 33 66 35 33 66 35 33 66 35 33 66 35 33 66 35 33 66 35 33 66 35 
33 66 35 33 66 35 0 0 0 0 0 0 0 0 0 0 0 0 0 0 0 149 146 67 149 146 67 
0 0 0 0 0 0 0 0 0 0 0 0 0 0 0 0 0 0 0 0 0 0 0 0 0 0 0 0 0 0 0 0 0 147 141 64 
132 124 35 129 121 32 125 117 24 125 117 24 126 118 25 126 118 26 126 118 26 
126 118 26 126 118 26 126 118 26 126 118 26 126 118 26 126 118 26 126 118 26 
126 118 26 126 118 26 126 118 26 126 118 26 126 118 26 126 118 26 126 118 26 
123 116 26 117 113 27 107 108 28 95 101 29 80 92 30 63 83 32 45 73 34 33 66 35 
33 66 35 33 66 35 33 66 35 33 66 35 33 66 35 33 66 35 33 66 35 33 66 35 
33 66 35 33 66 35 33 66 35 33 66 35 33 66 35 33 66 35 33 66 35 33 66 35 
0 0 0 0 0 0 0 0 0 0 0 0 0 0 0 0 0 0 0 0 0 0 0 0 166 163 120 166 163 120 
166 163 120 166 163 120 166 163 120 0 0 0 166 163 120 166 163 120 166 163 120 
131 124 35 132 125 37 125 117 25 124 116 22 124 116 23 125 117 24 125 117 25 
126 118 26 126 118 26 126 118 26 126 118 26 126 118 26 126 118 26 126 118 26 
126 118 26 126 118 26 126 118 26 126 118 26 126 118 26 126 118 26 126 118 26 
126 118 26 126 118 26 123 116 26 117 113 27 107 107 28 94 100 29 80 92 30 
63 83 32 46 74 34 33 66 35 33 66 35 33 66 35 33 66 35 33 66 35 33 66 35 
33 66 35 33 66 35 33 66 35 33 66 35 33 66 35 33 66 35 33 66 35 33 66 35 
33 66 35 33 66 35 33 66 35 0 0 0 0 0 0 0 0 0 0 0 0 0 0 0 0 0 0 0 0 0 166 163 120 
171 168 127 168 165 123 166 163 120 166 163 120 166 163 120 164 161 117 
155 152 105 158 155 110 143 137 62 132 125 37 123 115 20 123 115 21 125 118 26 
125 117 25 125 117 24 125 117 25 126 118 26 126 118 26 126 118 26 126 118 26 
126 118 26 126 118 26 126 118 26 126 118 26 126 118 26 126 118 26 126 118 26 
126 118 26 126 118 26 126 118 26 126 118 26 126 118 26 123 117 26 116 113 27 
107 108 29 94 101 30 79 92 31 63 83 32 47 74 34 33 66 35 33 66 35 33 66 35 
33 66 35 33 66 35 33 66 35 33 66 35 33 66 35 33 66 35 33 66 35 33 66 35 
33 66 35 33 66 35 33 66 35 33 66 35 33 66 35 33 66 35 0 0 0 0 0 0 0 0 0 0 0 0 
0 0 0 0 0 0 0 0 0 167 164 122 173 170 130 167 164 121 160 157 111 154 151 104 
145 141 91 144 141 90 149 145 96 153 148 92 128 120 30 122 115 20 127 119 27 
129 121 31 128 121 30 126 118 26 125 117 25 126 118 26 126 118 26 126 118 26 
126 118 26 126 118 26 126 118 26 126 118 26 126 118 26 126 118 26 126 118 26 
126 118 26 126 118 26 126 118 26 126 118 26 126 118 26 126 118 26 126 118 26 
123 116 26 117 114 29 109 109 33 95 101 32 80 93 33 63 83 32 48 74 34 33 66 35 
33 66 35 33 66 35 33 66 35 33 66 35 33 66 35 33 66 35 33 66 35 33 66 35 
33 66 35 33 66 35 33 66 35 33 66 35 33 66 35 33 66 35 33 66 35 33 66 35 
0 0 0 0 0 0 0 0 0 0 0 0 0 0 0 0 0 0 0 0 0 173 170 131 169 166 124 166 163 120 
151 148 100 159 156 112 163 160 116 166 163 120 172 169 129 136 129 47 
129 121 31 127 119 28 125 118 25 127 119 27 124 116 22 124 116 23 126 118 26 
126 118 26 126 118 26 126 118 26 126 118 26 126 118 26 126 118 26 126 118 26 
126 118 26 126 118 26 126 118 26 126 118 26 126 118 26 126 118 26 126 118 26 
127 120 29 129 121 32 130 122 35 128 122 38 121 118 39 111 112 39 96 102 37 
77 91 32 62 82 32 47 74 34 33 66 35 33 66 35 33 66 35 33 66 35 33 66 35 
33 66 35 33 66 35 33 66 35 33 66 35 33 66 35 33 66 35 33 66 35 33 66 35 
33 66 35 33 66 35 33 66 35 33 66 35 0 0 0 0 0 0 0 0 0 0 0 0 0 0 0 0 0 0 0 0 0 
174 171 132 169 166 124 166 163 120 143 140 88 115 111 50 0 0 0 255 255 255 
134 126 40 139 131 49 135 128 43 125 117 24 128 120 29 124 116 23 124 116 23 
126 118 26 126 118 26 125 117 25 126 118 26 126 118 26 126 118 26 126 118 26 
126 118 26 126 118 26 126 118 26 126 118 26 126 118 26 126 118 26 127 120 29 
130 123 36 132 125 41 134 127 45 136 129 48 136 130 50 134 129 52 128 125 54 
119 119 52 105 112 50 90 102 47 73 91 43 53 79 39 33 66 35 33 66 35 33 66 35 
33 66 35 33 66 35 33 66 35 33 66 35 33 66 35 33 66 35 33 66 35 33 66 35 
33 66 35 33 66 35 33 66 35 33 66 35 33 66 35 33 66 35 0 0 0 0 0 0 0 0 0 0 0 0 
0 0 0 0 0 0 0 0 0 180 177 141 171 168 128 166 163 120 150 147 99 145 141 91 
115 111 50 255 255 255 128 120 30 141 135 52 128 120 29 126 118 27 127 119 27 
124 116 22 129 121 31 126 118 26 125 117 24 125 117 25 126 118 26 126 118 26 
126 118 26 126 118 26 126 118 26 126 118 26 126 118 26 126 118 26 127 119 27 
131 123 36 134 127 44 136 130 50 139 132 55 140 134 60 142 136 63 142 137 65 
140 135 68 134 132 67 126 128 66 115 121 64 103 112 61 88 103 58 69 91 53 
52 80 47 40 71 40 33 66 35 33 66 35 33 66 35 33 66 35 33 66 35 33 66 35 
33 66 35 33 66 35 33 66 35 33 66 35 33 66 35 33 66 35 33 66 35 33 66 35 
33 66 35 0 0 0 0 0 0 0 0 0 0 0 0 0 0 0 0 0 0 0 0 0 0 0 0 176 173 135 
168 165 124 155 152 105 149 145 96 134 130 75 255 255 255 137 129 44 
137 130 45 125 117 24 129 121 30 126 118 26 127 119 28 127 119 28 124 116 23 
125 117 24 126 118 25 126 118 26 126 118 26 126 118 26 126 118 26 126 118 26 
126 118 26 126 118 26 128 121 31 132 125 41 136 130 50 140 133 57 142 136 64 
144 139 69 146 141 73 148 142 76 147 143 79 144 141 80 140 139 81 134 135 79 
124 129 76 114 122 74 101 114 70 84 103 66 71 94 59 59 85 52 46 76 43 33 66 35 
33 66 35 33 66 35 33 66 35 33 66 35 33 66 35 33 66 35 33 66 35 33 66 35 
33 66 35 33 66 35 33 66 35 33 66 35 33 66 35 0 0 0 0 0 0 0 0 0 0 0 0 0 0 0 
0 0 0 0 0 0 0 0 0 182 180 144 174 171 132 167 164 121 151 148 99 149 145 96 
179 175 124 140 133 50 133 125 38 125 117 25 130 122 32 129 122 32 125 117 24 
126 118 26 124 116 22 124 116 23 126 118 26 126 118 26 126 118 26 126 118 26 
126 118 26 126 118 26 126 118 26 129 121 33 134 126 44 138 131 54 142 135 62 
145 139 70 148 142 76 150 145 81 152 147 86 152 148 89 152 148 91 151 148 93 
147 146 93 142 142 92 134 137 89 125 131 85 113 123 82 98 114 77 90 106 71 
83 98 64 73 88 56 62 77 48 49 65 38 49 65 38 47 65 38 45 66 37 41 66 37 
35 66 35 33 66 35 33 66 35 33 66 35 33 66 35 33 66 35 33 66 35 33 66 35 
0 0 0 0 0 0 0 0 0 0 0 0 0 0 0 0 0 0 0 0 0 0 0 0 0 0 0 170 167 126 172 169 129 
155 152 106 148 145 96 144 139 75 146 138 61 128 120 28 128 120 30 127 119 27 
129 121 32 125 117 24 125 118 25 124 116 22 125 117 24 126 118 26 126 118 26 
126 118 26 126 118 26 126 118 26 126 118 26 129 121 32 134 127 44 138 132 55 
143 137 65 146 141 73 150 145 81 152 148 87 155 150 92 156 152 97 157 154 101 
157 154 103 156 154 104 154 152 104 150 150 102 143 145 99 136 140 96 
127 133 92 120 125 88 114 117 82 107 109 76 100 99 69 91 88 61 79 76 51 
68 65 42 66 65 42 63 65 41 59 65 40 54 65 39 47 66 38 38 66 36 33 66 35 
33 66 35 33 66 35 33 66 35 33 66 35 0 0 0 0 0 0 0 0 0 0 0 0 0 0 0 0 0 0 0 0 0 
0 0 0 0 0 0 166 163 120 173 170 131 169 166 125 149 146 97 134 130 63 
140 133 53 127 119 27 129 121 31 126 118 25 129 121 32 125 117 25 125 117 24 
123 115 21 126 118 26 126 118 26 126 118 26 126 118 26 127 120 32 127 120 32 
130 122 34 134 127 44 138 132 54 143 137 65 147 142 75 151 146 83 154 149 91 
157 152 97 159 155 103 161 157 108 162 159 111 162 159 113 162 159 114 
160 158 113 158 156 112 153 153 109 148 148 106 142 142 103 137 135 98 
132 128 93 126 119 86 120 109 79 112 98 71 103 86 62 92 72 51 84 64 45 
81 64 45 76 64 44 71 65 43 64 65 41 56 65 40 48 65 38 35 66 35 33 66 35 
33 66 35 33 66 35 0 0 0 0 0 0 0 0 0 0 0 0 0 0 0 0 0 0 0 0 0 0 0 0 0 0 0 0 0 0 
167 164 122 173 170 130 163 160 116 138 134 78 141 134 53 126 118 25 
130 122 33 125 117 25 130 122 33 126 118 26 124 116 23 123 115 21 128 121 31 
136 130 54 131 125 49 129 122 44 134 127 47 136 129 47 137 131 52 140 134 58 
143 138 67 147 142 75 151 146 85 155 150 93 158 154 101 161 158 108 
163 160 113 165 162 117 166 163 119 167 164 121 167 164 121 167 164 121 
166 163 120 163 160 117 159 156 114 154 151 111 150 144 106 146 137 101 
141 128 95 135 119 88 129 108 80 122 95 72 113 82 62 101 67 50 97 64 48 
93 64 47 87 64 46 80 64 44 73 65 43 66 65 42 56 65 40 41 66 37 33 66 35 
33 66 35 0 0 0 0 0 0 0 0 0 0 0 0 0 0 0 0 0 0 0 0 0 0 0 0 0 0 0 0 0 0 166 163 120 
173 170 131 167 164 121 165 162 118 140 134 52 124 116 22 130 123 34 
125 117 25 129 121 31 129 122 32 123 115 21 123 115 20 136 129 51 147 142 79 
145 139 73 147 142 74 145 139 67 141 136 61 142 136 64 143 137 68 146 141 76 
150 145 84 155 151 95 159 155 103 162 159 110 165 161 115 166 163 120 
167 164 121 167 164 121 167 164 121 167 164 121 167 164 121 167 164 121 
167 164 121 167 164 121 163 159 117 159 153 113 155 145 107 151 136 102 
147 126 95 141 115 87 136 103 79 129 89 70 120 74 59 111 63 51 107 63 50 
102 64 49 95 64 47 89 64 46 82 64 45 75 65 43 64 65 41 46 66 38 33 66 35 
0 0 0 0 0 0 0 0 0 0 0 0 0 0 0 0 0 0 0 0 0 0 0 0 0 0 0 0 0 0 0 0 0 171 168 127 
171 168 128 166 163 120 134 126 39 122 114 19 131 123 34 125 117 24 127 119 28 
127 119 27 124 116 22 122 114 19 124 116 24 159 155 100 159 154 98 152 147 84 
147 141 74 143 137 68 142 136 68 145 141 76 150 145 85 156 152 95 159 155 103 
162 159 110 165 162 116 167 164 121 167 164 121 167 164 121 167 164 121 
167 164 121 167 164 121 167 164 121 167 164 121 167 164 121 167 164 121 
167 164 121 164 160 118 161 152 113 158 143 107 154 134 100 151 122 93 
147 110 85 142 96 76 134 82 66 125 66 55 120 63 52 115 63 51 110 63 50 
104 64 49 98 64 48 91 64 47 84 64 45 72 65 43 49 65 38 0 0 0 0 0 0 0 0 0 0 0 0 
0 0 0 0 0 0 0 0 0 0 0 0 0 0 0 0 0 0 0 0 0 166 163 120 173 170 130 166 163 120 
139 132 52 125 117 24 128 120 29 128 120 29 127 119 28 123 115 21 127 119 28 
123 115 20 122 114 19 137 131 55 157 153 99 154 149 91 133 128 60 134 129 62 
144 139 77 148 143 83 156 151 96 159 155 103 162 159 110 165 161 116 
167 164 120 167 164 121 167 164 121 167 164 121 167 164 121 167 164 121 
167 164 121 167 164 121 167 164 121 167 164 121 167 164 121 167 164 121 
167 164 121 165 158 117 162 149 111 160 139 105 157 128 98 154 115 90 
150 102 81 146 87 72 139 71 62 132 63 55 128 63 54 123 63 53 117 63 52 
112 63 51 106 63 50 100 64 48 94 64 47 88 64 46 0 0 0 0 0 0 0 0 0 0 0 0 0 0 0 
0 0 0 0 0 0 33 66 35 51 82 53 35 68 37 33 66 35 33 66 35 167 166 128 
168 165 123 155 150 91 130 123 34 125 117 24 126 118 26 123 115 21 127 119 27 
126 118 26 125 117 24 122 114 19 122 114 19 146 141 74 140 135 77 130 125 60 
138 132 71 144 140 81 149 146 90 154 152 100 159 156 108 164 161 115 
166 163 119 167 164 121 167 164 121 167 164 121 167 164 121 167 164 121 
167 164 121 167 164 121 167 164 121 167 164 121 167 164 121 167 164 121 
167 164 121 167 164 121 167 163 120 165 154 115 163 144 109 161 132 101 
159 120 94 156 106 85 154 92 76 150 76 66 143 62 57 138 62 56 134 63 55 
128 63 54 123 63 53 119 63 52 115 63 51 114 63 51 119 63 52 0 0 0 0 0 0 0 0 0 
0 0 0 0 0 0 0 0 0 33 66 35 56 85 58 84 109 86 36 69 38 33 66 35 33 66 35 
44 74 44 161 161 123 162 159 114 136 130 50 130 122 33 124 117 25 122 114 19 
127 119 28 123 116 22 127 119 28 124 116 22 122 114 19 124 116 23 147 142 91 
141 137 81 135 131 73 125 126 74 121 128 83 135 139 94 147 148 104 157 156 112 
166 163 120 167 164 121 167 164 121 167 164 121 167 164 121 167 164 121 
167 164 121 167 164 121 167 164 121 167 164 121 167 164 121 167 164 121 
167 164 121 167 164 121 167 164 121 166 158 117 164 147 111 162 136 104 
159 124 96 157 110 88 154 95 79 151 79 69 148 62 58 146 62 58 142 62 57 
137 62 56 133 63 55 129 63 54 127 63 54 129 63 54 145 62 57 0 0 0 0 0 0 0 0 0 
0 0 0 0 0 0 0 0 0 33 66 35 73 100 75 49 79 50 33 66 35 31 62 33 33 66 35 
33 66 35 59 87 58 167 164 121 151 147 97 133 126 40 128 121 30 123 115 20 
125 117 24 126 118 25 123 115 21 127 119 28 122 114 19 122 114 19 139 135 75 
137 133 81 131 127 73 103 104 69 107 108 77 126 125 90 172 169 131 168 165 124 
167 164 121 167 164 121 167 164 121 167 164 121 167 164 121 167 164 121 
167 164 121 167 164 121 167 164 121 167 164 121 167 164 121 167 164 121 
167 164 121 167 164 121 167 164 121 166 160 118 164 150 112 162 138 105 
160 126 98 157 112 89 155 98 80 152 81 70 148 64 59 148 62 58 147 62 58 
143 62 57 139 62 56 137 62 56 137 62 56 143 62 57 148 62 58 0 0 0 0 0 0 0 0 0 
0 0 0 0 0 0 0 0 0 33 66 35 71 98 73 40 72 42 26 47 27 127 130 127 59 64 59 
21 35 22 24 42 24 162 159 114 142 138 87 149 145 94 137 131 48 130 123 34 
123 115 21 127 119 27 122 114 19 127 119 28 122 114 19 122 114 19 141 135 62 
132 129 74 135 132 80 96 97 67 105 106 78 124 123 91 141 139 103 157 155 114 
167 164 121 167 164 121 167 164 121 167 164 121 167 164 121 167 164 121 
167 164 121 167 164 121 167 164 121 167 164 121 167 164 121 167 164 121 
167 164 121 167 164 121 167 164 121 166 161 119 165 151 113 162 140 106 
160 127 98 158 114 90 155 98 80 152 82 71 149 65 60 148 62 58 148 62 58 
147 62 58 144 62 57 143 62 57 145 62 57 148 62 58 148 62 58 0 0 0 0 0 0 0 0 0 
0 0 0 0 0 0 0 0 0 33 66 35 86 111 87 0 0 0 0 0 0 0 0 0 168 165 123 118 116 86 
0 0 0 0 0 0 0 0 0 0 0 0 0 0 0 0 0 0 0 0 0 138 130 48 122 114 19 127 119 28 
122 114 19 122 114 19 136 130 52 134 130 76 116 113 67 84 85 63 104 104 77 
170 168 137 172 169 134 169 167 126 167 164 121 167 164 121 167 164 121 
167 164 121 167 164 121 167 164 121 167 164 121 167 164 121 167 164 121 
167 164 121 167 164 121 167 164 121 167 164 121 167 164 121 167 164 121 
166 161 119 165 151 113 162 140 106 160 127 98 158 113 90 155 98 80 152 82 71 
149 65 60 148 62 58 148 62 58 148 62 58 147 62 58 147 62 58 148 62 58 
148 62 58 148 62 58 0 0 0 0 0 0 0 0 0 0 0 0 0 0 0 0 0 0 33 66 35 83 108 85 
167 164 121 0 0 0 0 0 0 178 175 137 155 153 115 255 255 255 171 168 127 
167 164 121 0 0 0 0 0 0 0 0 0 0 0 0 142 139 87 133 125 38 127 120 28 
122 114 19 122 114 19 127 120 31 116 114 74 65 68 48 82 84 62 102 102 76 
121 121 89 139 138 102 155 153 113 167 164 121 167 164 121 167 164 121 
167 164 121 167 164 121 167 164 121 167 164 121 167 164 121 167 164 121 
167 164 121 167 164 121 167 164 121 167 164 121 167 164 121 167 164 121 
166 160 118 164 150 112 162 138 105 160 126 97 157 112 89 155 97 80 152 81 70 
148 64 59 148 62 58 148 62 58 148 62 58 148 62 58 148 62 58 148 62 58 
148 62 58 148 62 58 0 0 0 0 0 0 0 0 0 0 0 0 0 0 0 0 0 0 33 66 35 61 89 62 
174 171 132 175 172 133 147 145 107 133 130 96 176 173 137 140 138 109 
180 177 140 167 164 121 0 0 0 0 0 0 0 0 0 0 0 0 143 139 82 143 138 68 
126 118 26 122 114 19 122 114 19 126 118 28 31 36 26 55 59 43 99 101 80 
175 174 150 184 182 153 176 174 139 170 168 129 165 162 120 167 164 121 
167 164 121 167 164 121 167 164 121 167 164 121 167 164 121 167 164 121 
167 164 121 167 164 121 167 164 121 167 164 121 167 164 121 167 164 121 
167 164 121 166 157 117 164 147 110 162 136 103 159 123 96 157 110 87 
154 95 78 151 79 68 148 62 58 148 62 58 148 62 58 148 62 58 148 62 58 
148 62 58 148 62 58 148 62 58 148 62 58 0 0 0 0 0 0 0 0 0 0 0 0 0 0 0 0 0 0 
33 66 35 45 72 47 0 0 0 178 175 137 178 176 138 162 160 121 152 149 110 
169 166 133 130 128 110 174 172 136 135 133 98 0 0 0 0 0 0 0 0 0 0 0 0 0 0 0 
0 0 0 0 0 0 122 114 19 129 125 61 32 37 24 50 54 39 85 88 68 123 124 100 
113 113 83 130 129 95 151 150 111 161 160 118 167 164 121 167 164 121 
167 164 121 167 164 121 167 164 121 167 164 121 167 164 121 167 164 121 
167 164 121 167 164 121 167 164 121 167 164 121 167 164 121 167 162 120 
165 153 114 163 143 108 161 132 101 159 120 94 156 106 85 153 91 76 150 75 66 
148 62 58 148 62 58 148 62 58 148 62 58 148 62 58 148 62 58 148 62 58 
148 62 58 148 62 58 0 0 0 0 0 0 0 0 0 0 0 0 0 0 0 0 0 0 0 0 0 173 170 129 
167 166 131 157 154 121 148 146 108 174 171 131 167 164 131 167 165 122 
171 169 135 159 156 123 152 149 115 0 0 0 172 169 129 0 0 0 0 0 0 0 0 0 0 0 0 
0 0 0 149 144 81 86 83 44 37 40 22 53 57 44 178 178 163 140 141 119 
106 107 79 135 140 103 146 149 109 153 154 112 164 162 119 167 164 121 
167 164 121 167 164 121 167 164 121 167 164 121 167 164 121 167 164 121 
167 164 121 167 164 121 167 164 121 167 164 121 167 164 121 166 157 117 
164 148 111 162 138 105 160 127 98 158 115 91 155 101 82 152 86 73 149 70 63 
148 62 58 148 62 58 148 62 58 148 62 58 148 62 58 148 62 58 148 62 58 
148 62 58 148 62 58 0 0 0 0 0 0 0 0 0 0 0 0 0 0 0 0 0 0 0 0 0 167 164 121 
167 164 121 171 169 129 165 162 127 152 149 110 171 168 127 176 173 134 
171 168 126 158 155 115 163 160 125 0 0 0 176 174 135 0 0 0 0 0 0 0 0 0 0 0 0 
0 0 0 103 100 60 89 87 47 16 22 16 143 145 138 153 154 141 79 83 60 115 127 91 
131 136 101 132 134 97 143 142 104 155 154 113 165 162 120 167 164 121 
167 164 121 167 164 121 167 164 121 167 164 121 167 164 121 167 164 121 
167 164 121 167 164 121 167 164 121 166 159 118 165 151 113 163 142 108 
161 132 101 159 121 94 157 108 87 154 95 78 151 80 69 148 64 59 148 62 58 
148 62 58 148 62 58 148 62 58 147 62 58 148 62 58 148 62 58 148 62 58 
148 62 58 0 0 0 0 0 0 0 0 0 0 0 0 0 0 0 0 0 0 0 0 0 0 0 0 0 0 0 167 164 121 
173 170 130 175 173 134 157 155 114 156 154 113 167 164 121 167 164 121 
161 158 117 127 124 92 178 176 138 146 143 106 0 0 0 0 0 0 0 0 0 0 0 0 84 81 42 
78 76 43 12 16 12 23 28 21 62 74 54 110 127 96 101 112 80 103 108 77 
119 121 88 133 133 97 144 143 105 154 152 112 164 161 119 167 164 121 
167 164 121 167 164 121 167 164 121 167 164 121 167 164 121 167 164 121 
167 163 120 166 158 117 165 151 113 163 144 108 162 135 103 160 125 97 
158 114 90 155 101 82 153 88 74 150 73 65 148 62 58 148 62 58 148 62 58 
148 62 58 148 62 58 140 60 55 136 57 53 147 61 57 148 62 58 148 62 58 
0 0 0 0 0 0 0 0 0 0 0 0 0 0 0 0 0 0 0 0 0 0 0 0 0 0 0 0 0 0 167 164 121 
175 172 133 169 166 124 155 152 112 167 164 121 167 164 121 167 164 121 
170 167 125 161 159 123 127 125 92 0 0 0 0 0 0 0 0 0 0 0 0 81 79 43 77 75 43 
18 28 19 69 96 71 89 109 85 67 79 57 74 84 57 91 96 68 107 110 79 119 120 88 
131 131 96 142 142 104 158 156 115 167 164 121 167 163 121 167 163 121 
167 163 121 166 163 120 165 161 119 165 158 117 164 154 115 164 149 112 
163 143 108 162 135 103 160 126 98 158 116 92 156 105 85 154 93 77 151 79 68 
148 64 59 148 62 58 148 62 58 148 62 58 148 62 58 147 62 58 136 61 55 
124 57 51 112 51 46 148 62 58 148 62 58 0 0 0 0 0 0 0 0 0 0 0 0 0 0 0 0 0 0 
33 66 35 42 73 43 0 0 0 0 0 0 0 0 0 167 164 121 173 170 130 145 143 106 
146 144 107 167 164 121 167 164 121 176 174 136 109 107 79 167 164 121 
0 0 0 0 0 0 0 0 0 0 0 0 75 74 54 44 50 36 61 90 63 50 75 51 16 28 17 33 41 26 
55 60 42 75 79 57 89 92 66 104 105 77 120 123 89 134 136 99 167 164 121 
167 164 121 166 162 120 159 159 115 160 157 116 160 154 114 160 152 112 
160 149 111 161 145 109 161 139 105 161 133 102 160 126 97 158 117 92 
156 106 85 154 95 79 152 83 71 149 69 62 148 62 58 148 62 58 148 62 58 
148 62 58 148 62 58 141 61 56 130 60 53 117 56 49 101 48 43 148 62 58 
148 62 58 0 0 0 0 0 0 0 0 0 0 0 0 0 0 0 0 0 0 32 64 34 85 110 87 0 0 0 0 0 0 
0 0 0 0 0 0 157 154 114 147 144 107 146 144 106 166 163 120 167 164 121 
147 144 106 108 106 78 0 0 0 0 0 0 0 0 0 0 0 0 0 0 0 52 61 52 64 92 66 
40 68 42 16 32 17 15 30 15 18 28 17 41 47 33 56 61 43 74 77 56 90 94 68 
119 122 88 164 161 119 167 164 121 158 157 115 148 156 112 155 159 116 
151 149 109 150 142 105 152 140 104 152 136 102 154 132 100 158 129 99 
159 123 96 158 114 90 156 106 85 154 96 79 152 84 72 150 72 64 148 62 58 
148 62 58 148 62 58 148 62 58 148 62 58 141 61 56 131 57 53 120 56 50 
109 55 46 91 43 38 105 44 41 148 62 58 0 0 0 0 0 0 0 0 0 0 0 0 0 0 0 0 0 0 
0 0 0 186 184 150 173 170 130 167 164 121 167 164 121 167 164 121 166 163 120 
153 150 111 148 145 107 164 161 120 167 164 121 138 136 100 138 136 101 
0 0 0 0 0 0 0 0 0 0 0 0 0 0 0 73 100 75 27 51 29 15 28 16 15 30 15 14 28 15 
17 28 17 21 27 19 38 43 30 55 59 42 98 103 74 167 164 121 167 164 121 
167 164 121 128 144 100 144 163 115 139 146 105 134 132 95 138 130 95 
139 124 92 150 126 96 156 125 96 159 122 95 158 113 90 156 104 84 154 94 78 
152 84 71 150 72 64 148 62 58 148 62 58 148 62 58 148 62 58 147 62 58 
140 61 56 132 59 54 121 55 49 111 55 47 99 53 44 84 44 38 80 39 35 148 62 58 
0 0 0 0 0 0 0 0 0 0 0 0 0 0 0 38 70 40 134 152 135 124 144 125 174 171 131 
179 176 139 178 175 137 178 175 138 171 169 128 159 156 116 148 146 107 
162 159 117 164 161 119 123 121 89 114 112 82 0 0 0 0 0 0 0 0 0 0 0 0 0 0 0 
26 52 28 10 21 11 9 18 10 7 14 7 12 20 13 15 25 16 12 21 12 19 28 17 48 64 41 
167 164 121 167 164 121 167 164 121 167 164 121 130 155 109 129 159 107 
108 137 83 116 120 84 118 110 80 123 107 80 131 107 82 145 111 86 157 111 88 
155 102 83 153 92 77 147 78 67 146 69 62 145 61 57 146 61 57 145 61 57 
143 60 56 139 59 55 133 57 53 128 57 52 121 57 51 110 54 46 100 53 44 
87 51 40 74 43 36 61 36 30 148 62 58 0 0 0 0 0 0 0 0 0 0 0 0 33 66 35 81 95 81 
173 184 173 69 96 71 0 0 0 0 0 0 167 164 121 167 164 121 182 179 143 
167 164 121 161 158 116 167 164 121 167 164 121 130 127 94 109 106 79 
0 0 0 0 0 0 0 0 0 0 0 0 0 0 0 13 25 14 7 14 7 2 4 2 6 11 6 12 19 13 12 20 12 
12 20 13 13 22 13 15 30 16 167 164 121 167 164 121 167 164 121 167 164 121 
122 153 107 116 155 101 87 129 72 95 128 73 100 101 71 102 90 66 108 88 66 
113 85 65 116 80 63 120 75 60 121 68 57 124 60 53 127 57 51 129 57 52 
130 57 52 130 56 52 128 55 51 125 55 50 121 55 49 115 54 48 107 52 45 
98 53 43 87 51 40 76 51 38 60 39 32 47 29 24 148 62 58 0 0 0 0 0 0 0 0 0 0 0 0 
69 96 70 175 186 175 109 131 111 75 102 77 0 0 0 0 0 0 0 0 0 0 0 0 255 255 255 
174 171 131 167 164 121 167 164 121 152 149 110 142 139 102 103 103 74 
0 0 0 0 0 0 0 0 0 33 66 35 33 66 35 33 66 35 33 66 35 33 66 35 33 66 35 
33 66 35 33 66 35 33 66 35 33 66 35 33 66 35 33 66 35 33 66 35 33 66 35 
0 0 0 0 0 0 0 0 0 33 66 35 33 66 35 33 66 35 33 66 35 33 66 35 33 66 35 
33 66 35 33 66 35 0 0 0 107 51 45 110 50 45 113 50 46 115 52 47 116 53 48 
115 53 48 112 53 47 109 55 48 101 53 44 92 50 40 84 50 39 73 49 36 58 38 30 
44 34 26 29 16 14 0 0 0 0 0 0 0 0 0 0 0 0 33 66 35 129 146 130 152 167 152 
73 100 74 44 76 46 0 0 0 0 0 0 0 0 0 0 0 0 0 0 0 177 175 137 171 168 127 
167 164 121 167 164 121 166 163 120 89 88 65 109 107 79 33 66 35 33 66 35 
33 66 35 33 66 35 33 66 35 33 66 35 33 66 35 33 66 35 33 66 35 33 66 35 
33 66 35 33 66 35 33 66 35 33 66 35 33 66 35 33 66 35 33 66 35 33 66 35 
33 66 35 33 66 35 33 66 35 33 66 35 33 66 35 33 66 35 33 66 35 33 66 35 
33 66 35 33 66 35 33 66 35 33 66 35 33 66 35 33 66 35 0 0 0 0 0 0 0 0 0 0 0 0 
83 47 37 77 50 37 68 47 34 57 44 31 42 32 24 27 27 20 0 0 0 0 0 0 0 0 0 0 0 0 
0 0 0 92 114 93 199 208 200 70 96 71 66 94 68 38 69 40 0 0 0 0 0 0 0 0 0 0 0 0 
0 0 0 167 164 121 179 176 139 167 164 121 167 164 121 167 164 121 114 112 83 
125 123 90 71 87 56 33 66 35 33 66 35 33 66 35 33 66 35 95 64 47 33 66 35 
33 66 35 33 66 35 33 66 35 33 66 35 33 66 35 33 66 35 33 66 35 33 66 35 
33 66 35 33 66 35 33 66 35 33 66 35 33 66 35 33 66 35 33 66 35 33 66 35 
33 66 35 33 66 35 33 66 35 33 66 35 33 66 35 33 66 35 33 66 35 33 66 35 
33 66 35 33 66 35 33 66 35 33 66 35 33 66 35 33 66 35 33 66 35 33 66 35 
33 66 35 33 66 35 0 0 0 0 0 0 0 0 0 0 0 0 0 0 0 33 66 35 178 189 179 
132 149 133 64 91 66 39 66 41 33 66 35 0 0 0 0 0 0 0 0 0 0 0 0 0 0 0 0 0 0 
182 179 143 174 171 132 155 155 113 167 164 121 150 149 110 118 117 86 
126 127 92 42 73 41 44 66 37 82 64 45 119 60 50 138 59 55 119 53 48 125 56 51 
119 58 50 94 58 45 51 62 37 32 64 34 33 66 35 121 63 52 47 66 38 33 66 35 
33 66 35 33 66 35 33 66 35 0 0 0 33 66 35 33 66 35 33 66 35 33 66 35 33 66 35 
33 66 35 33 66 35 33 66 35 33 66 35 33 66 35 33 66 35 33 66 35 33 66 35 
33 66 35 33 66 35 33 66 35 33 66 35 33 66 35 33 66 35 33 66 35 33 66 35 
33 66 35 0 0 0 0 0 0 0 0 0 0 0 0 101 124 102 181 191 181 126 146 127 
57 85 58 62 91 64 33 66 35 0 0 0 0 0 0 0 0 0 0 0 0 0 0 0 0 0 0 0 0 0 153 157 122 
167 164 121 167 164 121 161 159 117 114 113 83 130 128 95 141 125 94 
147 62 58 146 61 57 111 46 44 106 44 42 107 44 41 103 34 35 95 41 37 111 46 43 
121 52 47 105 60 48 109 64 50 128 63 54 52 65 39 44 66 37 33 66 35 33 66 35 
53 83 55 63 92 65 84 110 86 83 109 85 83 109 85 79 106 81 75 102 77 88 113 89 
84 109 85 255 255 255 255 255 255 255 255 255 255 255 255 255 255 255 
255 255 255 0 0 0 0 0 0 0 0 0 33 66 35 33 66 35 33 66 35 33 66 35 33 66 35 
33 66 35 0 0 0 0 0 0 0 0 0 0 0 0 101 123 102 144 159 145 97 120 98 64 90 65 
55 85 57 35 67 37 0 0 0 0 0 0 0 0 0 0 0 0 0 0 0 0 0 0 83 109 85 39 72 41 
167 169 133 163 161 118 167 164 121 146 143 106 132 129 95 119 116 86 
149 101 81 144 60 57 121 51 48 108 45 42 113 38 38 113 42 41 119 50 47 
143 60 56 148 62 58 148 62 58 146 62 57 118 63 52 93 64 47 35 66 35 33 66 35 
33 66 35 31 62 33 33 66 35 37 70 39 42 73 43 45 76 47 53 83 55 70 98 72 
35 68 37 33 66 35 45 76 47 70 98 72 89 114 91 86 111 88 255 255 255 
255 255 255 255 255 255 255 255 255 0 0 0 33 66 35 33 66 35 33 66 35 33 66 35 
33 66 35 33 66 35 33 66 35 0 0 0 0 0 0 33 66 35 84 109 86 125 143 126 
115 136 116 63 91 64 64 91 66 35 68 37 0 0 0 0 0 0 0 0 0 33 66 35 0 0 0 146 162 147 
35 68 37 33 66 35 53 82 51 175 173 134 164 152 114 167 163 120 167 163 121 
130 126 94 104 101 75 130 96 76 139 58 55 136 54 51 133 49 49 133 56 52 
144 61 57 148 62 58 146 59 55 148 62 58 146 59 56 147 62 58 125 63 53 
48 65 38 33 66 35 33 66 35 32 63 34 29 57 30 27 54 29 29 58 31 29 60 31 
30 59 32 31 62 33 31 62 33 31 61 33 32 64 34 31 61 32 45 74 47 55 85 57 
58 87 60 67 95 69 79 105 81 96 120 97 87 112 89 61 90 62 255 255 255 
0 0 0 0 0 0 0 0 0 0 0 0 0 0 0 0 0 0 0 0 0 33 66 35 99 123 101 122 141 123 
92 113 92 79 102 81 60 85 61 63 89 65 0 0 0 0 0 0 0 0 0 33 66 35 189 199 190 
67 95 69 33 66 35 39 66 36 88 51 41 154 88 76 180 176 140 169 166 125 
167 162 120 167 164 121 131 125 92 102 100 75 128 104 80 136 57 53 148 62 58 
148 62 58 148 62 58 139 48 48 136 44 45 138 47 47 143 54 52 148 62 58 
148 62 58 130 63 54 44 66 37 33 66 35 33 66 35 33 66 35 29 58 30 22 45 24 
25 50 26 24 50 26 26 54 28 26 54 28 26 52 28 27 55 29 28 56 30 27 57 29 
30 59 31 32 63 34 30 59 32 32 64 34 32 62 33 54 84 56 71 98 72 79 106 81 
255 255 255 255 255 255 255 255 255 0 0 0 0 0 0 0 0 0 0 0 0 33 66 35 91 115 92 
104 120 104 0 0 0 0 0 0 0 0 0 0 0 0 0 0 0 0 0 0 0 0 0 187 197 187 90 114 91 
49 80 51 38 66 36 86 46 38 109 46 43 138 58 54 153 82 71 179 175 138 
171 166 126 167 164 121 167 164 121 132 128 95 117 112 83 128 102 79 
105 25 30 139 49 49 141 51 51 142 52 51 141 52 51 138 46 47 138 47 48 
148 62 58 148 62 58 148 62 58 117 63 52 55 65 39 33 66 35 33 66 35 33 66 35 
25 49 26 26 54 28 24 48 25 25 51 27 26 52 27 24 48 26 26 53 27 26 53 28 
29 57 30 25 51 27 24 49 26 29 57 31 29 56 30 33 66 35 32 63 33 32 63 33 
33 66 35 33 66 35 38 70 40 54 84 56 59 88 61 148 164 149 0 0 0 0 0 0 33 66 35 
96 120 97 110 127 110 0 0 0 0 0 0 0 0 0 0 0 0 0 0 0 0 0 0 0 0 0 99 122 100 
72 99 74 39 66 36 77 50 38 107 45 42 128 54 50 148 62 58 148 62 58 154 105 85 
171 159 124 171 167 126 167 164 121 167 163 121 125 122 89 134 132 97 
120 36 38 124 25 32 146 59 56 146 59 56 138 47 48 137 45 46 139 48 48 
146 59 56 148 62 58 148 62 58 146 62 58 111 63 50 82 64 45 33 66 35 33 66 35 
28 59 30 21 43 22 22 46 24 19 39 20 20 39 22 24 49 25 24 47 25 23 45 25 
25 50 27 22 44 23 25 48 26 24 48 26 25 50 27 24 48 25 25 48 25 29 58 31 
29 58 31 29 57 31 26 52 28 25 50 26 25 50 26 4 7 4 0 0 0 0 0 0 0 0 0 70 98 72 
105 125 106 0 0 0 0 0 0 0 0 0 0 0 0 0 0 0 0 0 0 0 0 0 79 105 81 55 85 57 
90 64 47 140 59 55 133 53 50 128 46 46 144 56 54 148 62 58 135 42 44 130 43 44 
180 177 140 167 164 121 167 164 121 150 147 109 132 130 96 124 121 89 
124 26 32 138 46 47 144 55 53 135 43 45 139 48 48 144 56 54 143 55 52 
145 57 54 145 57 54 146 59 56 139 61 56 133 62 55 88 64 46 33 66 35 33 65 35 
23 49 25 22 44 24 20 40 21 19 38 20 20 39 20 21 44 23 22 44 23 20 41 22 
21 42 22 21 42 22 23 45 25 23 46 25 23 46 25 26 54 28 25 50 26 23 46 24 
22 43 24 20 40 21 20 41 21 27 53 29 0 0 0 0 0 0 0 0 0 0 0 0 39 65 40 108 128 109 
0 0 0 0 0 0 0 0 0 0 0 0 0 0 0 0 0 0 99 122 100 76 103 78 33 66 35 66 60 39 
96 41 38 120 50 47 129 51 48 138 46 47 139 48 48 148 62 58 124 26 32 156 124 98 
179 176 138 167 164 122 167 164 121 142 138 102 130 127 94 123 33 37 127 30 36 
147 60 57 139 48 48 143 55 53 144 56 54 141 51 50 142 52 51 144 56 54 
147 60 57 134 61 55 34 66 35 33 66 35 33 66 35 33 65 35 27 54 29 23 48 24 
18 38 20 21 43 23 19 39 20 18 35 19 18 38 20 21 43 23 20 39 21 21 42 23 
20 43 22 23 46 25 21 41 22 23 46 25 23 45 23 24 47 25 21 42 22 17 36 19 
20 40 22 3 5 3 0 0 0 0 0 0 0 0 0 0 0 0 34 50 35 104 126 105 0 0 0 0 0 0 0 0 0 
0 0 0 0 0 0 0 0 0 113 134 114 78 104 79 33 66 35 85 56 42 98 41 39 134 56 53 
148 62 58 148 62 58 145 58 55 136 45 46 124 25 32 135 60 54 165 153 116 
178 169 136 167 164 121 162 159 117 132 119 90 132 44 44 131 36 40 148 62 58 
139 46 47 139 49 49 144 57 54 147 60 57 143 54 52 142 52 52 141 51 50 
144 57 55 68 65 42 33 66 35 33 66 35 33 66 35 30 58 32 24 47 25 24 47 25 
22 44 23 23 46 24 16 34 18 16 33 17 16 32 17 17 35 18 23 45 25 19 39 20 
17 34 18 19 38 19 21 41 22 19 39 21 18 37 19 21 42 22 28 56 30 33 66 35 
0 0 0 0 0 0 0 0 0 0 0 0 0 0 0 38 64 39 92 109 93 0 0 0 0 0 0 0 0 0 0 0 0 0 0 0 
0 0 0 80 106 81 33 66 35 33 66 35 89 53 42 102 43 40 126 53 49 144 60 57 
148 62 58 148 62 58 141 51 50 124 25 32 124 25 32 129 42 43 171 168 127 
177 174 135 167 162 120 128 37 40 125 26 33 143 55 53 148 62 58 144 55 53 
135 42 44 139 49 49 146 59 56 143 55 53 146 59 56 146 59 56 146 59 56 
118 60 51 33 66 35 33 66 35 33 66 35 27 53 28 23 46 25 19 38 21 24 46 25 
16 32 16 17 34 18 19 38 20 20 40 21 19 38 21 14 29 15 17 35 18 22 43 23 
18 37 20 19 39 21 20 42 22 24 48 25 33 66 35 33 66 35 0 0 0 0 0 0 0 0 0 0 0 0 
255 255 255 0 0 0 33 66 35 89 114 91 0 0 0 0 0 0 0 0 0 0 0 0 0 0 0 0 0 0 106 128 107 
49 79 51 33 66 35 84 55 41 101 42 40 126 53 49 126 53 49 141 59 55 148 62 58 
148 62 58 124 26 32 124 25 32 127 35 39 154 122 94 163 132 108 127 32 38 
124 25 32 124 26 32 148 62 58 146 59 56 144 56 54 136 44 45 140 49 49 
142 54 52 145 58 55 144 56 54 139 49 49 136 44 45 138 56 53 37 66 36 33 66 35 
31 62 33 24 48 26 19 39 21 21 41 22 19 39 21 16 32 17 17 34 18 16 32 16 
13 27 14 11 22 12 19 39 20 24 49 26 21 42 22 19 37 20 18 35 18 30 60 32 
33 66 35 33 66 35 0 0 0 0 0 0 0 0 0 0 0 0 0 0 0 255 255 255 0 0 0 155 170 156 
103 126 105 0 0 0 0 0 0 0 0 0 0 0 0 0 0 0 0 0 0 77 103 78 33 66 35 33 66 35 
73 64 42 109 46 43 126 53 49 124 52 49 148 62 58 143 55 53 138 46 47 136 44 46 
124 25 32 124 25 32 126 28 34 124 25 32 124 26 33 124 25 32 128 31 36 
148 61 58 146 59 56 146 59 56 141 51 50 138 46 47 137 46 47 133 39 42 
135 42 44 137 45 46 143 56 53 145 62 57 48 65 38 33 66 35 30 61 32 25 50 26 
17 33 18 22 43 23 15 30 16 14 28 14 13 28 15 12 23 12 12 26 14 18 37 19 
22 46 24 16 32 16 17 33 18 19 39 21 12 24 13 0 0 0 0 0 0 0 0 0 0 0 0 0 0 0 
0 0 0 0 0 0 0 0 0 255 255 255 255 255 255 255 255 255 99 122 100 0 0 0 0 0 0 
0 0 0 0 0 0 0 0 0 0 0 0 91 115 92 33 66 35 33 66 35 43 66 37 120 52 48 
113 47 44 124 52 49 140 50 50 137 45 46 142 52 50 144 56 54 142 54 51 
124 25 32 124 25 32 125 27 33 124 25 32 125 26 33 126 27 34 143 54 52 
147 61 57 145 58 55 142 54 52 138 47 47 137 45 47 144 56 54 146 59 56 
146 59 56 148 62 58 146 62 58 52 65 39 33 66 35 33 65 35 21 41 22 22 43 23 
19 38 20 13 27 14 14 28 15 16 30 16 16 35 18 17 38 19 18 37 19 14 27 15 
14 28 14 14 28 15 2 4 2 0 0 0 0 0 0 0 0 0 0 0 0 0 0 0 33 66 35 0 0 0 0 0 0 
0 0 0 255 255 255 255 255 255 255 255 255 33 66 35 0 0 0 0 0 0 0 0 0 0 0 0 
0 0 0 255 255 255 101 124 102 69 97 71 33 66 35 33 66 35 118 63 52 114 47 44 
118 49 46 147 62 58 147 60 57 145 58 55 144 56 54 139 49 49 140 50 50 
124 25 32 124 25 32 124 25 32 124 26 33 134 40 43 148 61 58 146 58 55 
139 48 48 135 41 43 138 46 47 142 52 51 144 55 53 144 56 53 148 62 58 
148 62 58 144 62 57 46 66 38 33 66 35 33 66 35 23 46 24 19 39 20 15 30 16 
18 35 19 20 39 20 23 46 25 17 32 17 14 28 15 14 29 15 36 23 17 71 14 18 
82 17 22 46 9 12 0 0 0 0 0 0 0 0 0 0 0 0 0 0 0 33 66 35 0 0 0 0 0 0 0 0 0 
0 0 0 255 255 255 255 255 255 50 80 52 0 0 0 0 0 0 0 0 0 0 0 0 0 0 0 0 0 0 
81 107 83 81 107 82 33 66 35 33 66 35 58 63 39 123 52 49 112 48 44 130 54 50 
147 60 56 144 57 54 147 61 57 138 48 48 144 55 53 131 36 39 124 25 32 
126 27 34 124 26 33 128 32 37 144 55 53 136 43 45 135 42 44 139 48 48 
141 51 51 145 57 54 148 61 57 148 62 58 148 62 58 148 62 58 138 62 56 
36 66 36 33 66 35 33 66 35 22 46 24 20 42 21 18 36 19 25 49 26 17 35 18 
15 30 17 14 27 14 15 31 16 37 26 18 73 15 19 79 16 20 95 19 24 117 23 30 
124 25 32 0 0 0 0 0 0 0 0 0 0 0 0 33 66 35 0 0 0 0 0 0 0 0 0 0 0 0 0 0 0 255 255 255 
255 255 255 0 0 0 0 0 0 0 0 0 0 0 0 0 0 0 0 0 0 33 66 35 48 79 50 66 94 68 
33 66 35 33 66 35 103 54 45 107 45 42 119 50 47 136 52 50 141 51 51 138 44 46 
131 36 40 139 48 48 142 53 52 125 26 33 124 25 32 124 25 32 128 31 36 
141 52 51 142 53 52 140 50 49 136 44 45 145 57 54 147 60 56 148 62 58 
148 62 58 148 62 58 148 62 58 120 63 53 62 65 41 33 66 35 30 60 32 17 35 19 
18 36 20 19 37 20 17 33 18 14 28 15 12 25 12 25 27 16 74 15 20 80 16 20 
84 17 22 90 18 23 91 18 23 101 20 26 119 24 31 0 0 0 0 0 0 0 0 0 0 0 0 33 66 35 
0 0 0 0 0 0 0 0 0 0 0 0 0 0 0 0 0 0 255 255 255 0 0 0 0 0 0 0 0 0 0 0 0 0 0 0 
0 0 0 0 0 0 92 116 93 83 109 85 33 66 35 33 66 35 70 52 36 115 40 40 108 35 36 
121 42 42 143 54 52 136 44 45 139 48 49 147 60 57 148 62 58 125 26 33 
125 26 33 124 25 32 128 31 36 148 62 58 148 62 58 142 52 51 134 41 44 
136 43 44 145 57 55 148 62 58 148 62 58 148 62 58 139 62 57 84 64 45 78 64 44 
32 63 34 24 47 26 17 33 18 17 34 18 15 31 15 13 28 15 16 32 16 48 29 21 
85 17 22 83 17 22 93 19 24 98 20 25 106 22 28 102 21 27 111 22 29 124 25 32 
0 0 0 0 0 0 0 0 0 0 0 0 0 0 0 0 0 0 0 0 0 0 0 0 0 0 0 0 0 0 0 0 0 255 255 255 
255 255 255 53 83 54 63 78 65 92 103 93 0 0 0 0 0 0 0 0 0 81 44 33 102 68 58 
56 86 58 33 66 35 33 66 35 63 65 41 112 49 45 101 42 40 130 55 51 140 55 53 
147 61 57 148 62 58 148 62 58 143 54 52 124 25 32 124 25 32 131 36 40 
148 62 58 148 62 58 145 57 54 143 54 52 138 47 47 138 47 48 147 61 57 
148 62 58 145 62 57 63 65 41 33 66 35 33 66 35 22 45 23 17 32 17 14 27 15 
15 29 16 13 27 14 72 17 19 90 18 23 95 19 24 92 19 24 90 18 23 81 16 21 
78 15 20 97 20 25 111 22 29 106 21 27 0 0 0 0 0 0 0 0 0 0 0 0 0 0 0 0 0 0 
0 0 0 0 0 0 0 0 0 0 0 0 0 0 0 0 0 0 0 0 0 0 0 0 0 0 0 0 0 0 0 0 0 0 0 0 0 0 0 
124 25 32 130 36 43 128 34 41 78 59 43 62 91 64 72 99 74 33 66 35 57 65 40 
123 58 51 133 56 52 110 46 43 133 56 52 148 62 58 148 62 58 125 27 33 
124 25 32 125 26 33 125 26 33 148 62 58 148 62 58 148 62 58 148 62 58 
148 62 58 144 56 54 142 53 52 141 62 57 127 63 54 33 66 35 33 66 35 28 57 30 
23 45 24 14 28 15 12 24 13 31 22 15 68 14 17 85 17 22 83 17 21 86 17 22 
85 17 22 72 15 19 84 17 22 110 22 29 111 22 29 109 22 28 124 25 32 0 0 0 0 0 0 
0 0 0 0 0 0 0 0 0 0 0 0 0 0 0 0 0 0 0 0 0 0 0 0 0 0 0 0 0 0 0 0 0 0 0 0 0 0 0 
0 0 0 0 0 0 130 36 42 134 42 49 137 47 53 148 67 73 144 60 66 129 34 41 
122 35 39 116 94 84 57 87 59 33 66 35 39 66 36 91 64 47 124 54 50 121 50 48 
146 61 57 148 62 58 125 26 33 124 25 32 124 25 32 124 25 32 131 36 40 
148 62 58 148 62 58 148 62 58 148 62 58 140 50 50 125 63 53 53 65 39 118 63 52 
33 66 35 33 66 35 23 46 24 14 29 15 9 19 10 24 28 16 81 17 21 82 17 21 
83 17 21 91 18 24 91 19 23 92 18 24 105 21 27 108 22 28 112 23 29 124 25 32 
124 25 32 0 0 0 0 0 0 0 0 0 0 0 0 0 0 0 0 0 0 0 0 0 0 0 0 0 0 0 0 0 0 0 0 0 
0 0 0 0 0 0 14 14 4 0 0 0 0 0 0 0 0 0 0 0 0 130 36 43 143 58 64 150 70 76 
141 55 61 151 72 78 147 66 71 127 30 37 124 25 32 118 37 39 59 89 61 37 69 39 
33 66 35 100 36 33 92 43 35 121 57 50 128 32 37 125 27 33 124 26 32 125 26 33 
126 28 34 125 27 33 141 51 51 148 62 58 137 46 46 124 26 32 123 26 32 
34 66 35 33 66 35 33 66 35 33 66 35 22 45 24 16 30 16 15 29 15 46 21 17 
79 16 20 75 15 19 74 15 19 80 17 21 81 16 21 91 18 24 92 19 24 98 20 25 
123 25 32 124 25 32 124 25 32 0 0 0 0 0 0 0 0 0 0 0 0 0 0 0 0 0 0 0 0 0 0 0 0 
0 0 0 0 0 0 0 0 0 0 0 0 0 0 0 0 0 0 0 0 0 0 0 0 0 0 0 0 0 0 0 0 0 201 160 163 
137 48 54 144 61 66 150 71 77 136 46 53 137 49 55 124 25 32 124 25 32 
124 25 32 88 41 33 33 66 35 96 38 33 124 25 32 124 25 32 124 25 32 124 25 32 
123 25 32 124 26 33 124 25 32 124 25 32 124 25 32 124 25 32 124 25 32 
124 25 32 116 29 32 49 59 34 33 66 35 33 66 35 33 66 35 23 45 25 20 27 15 
77 21 22 68 15 18 79 16 20 96 19 25 95 19 25 92 18 24 105 21 27 104 21 27 
113 23 29 124 25 32 124 25 32 0 0 0 0 0 0 0 0 0 0 0 0 0 0 0 0 0 0 123 119 44 
123 119 44 123 119 44 124 120 44 125 121 45 114 111 41 84 83 29 67 67 22 
0 0 0 0 0 0 0 0 0 0 0 0 0 0 0 14 14 4 14 14 4 14 14 4 0 0 0 0 0 0 0 0 0 124 25 32 
132 39 45 129 33 40 137 49 55 124 25 32 124 25 32 124 25 32 112 30 32 
33 66 35 120 27 32 124 25 32 124 25 32 124 25 32 124 25 32 124 25 32 124 25 32 
123 26 32 119 28 32 124 25 32 124 25 32 122 26 32 42 62 35 92 39 33 101 35 33 
54 57 34 45 58 34 116 23 30 108 22 28 114 23 29 122 25 31 122 25 31 123 25 32 
124 25 32 124 25 32 124 25 32 124 25 32 124 25 32 124 25 32 124 25 32 
0 0 0 0 0 0 0 0 0 0 0 0 0 0 0 0 0 0 123 119 44 123 119 44 123 119 44 
124 120 44 125 121 45 114 111 41 84 83 29 67 67 22 0 0 0 0 0 0 0 0 0 0 0 0 
0 0 0 14 14 4 14 14 4 14 14 4 0 0 0 0 0 0 0 0 0 0 0 0 0 0 0 255 255 255 
173 111 115 124 25 32 124 25 32 124 25 32 124 25 32 124 25 32 124 25 32 
124 25 32 124 25 32 123 25 32 120 27 32 124 25 32 124 25 32 124 25 32 
124 25 32 124 25 32 124 25 32 123 25 32 122 26 32 120 27 32 122 26 32 
123 25 32 124 25 32 124 25 32 124 25 32 124 25 32 124 25 32 124 25 32 
124 25 32 124 25 32 124 25 32 0 0 0 0 0 0 0 0 0 22 22 8 31 31 12 46 45 16 
72 69 25 98 96 35 116 112 42 118 114 43 121 117 43 123 119 44 123 119 44 
123 119 44 124 120 44 125 121 45 114 111 41 84 83 29 67 67 22 
