P3
64 64
255
0 0 0 0 0 0 0 0 0 0 0 0 0 0 0 0 0 0 0 0 0 0 0 0 0 0 0 0 0 0 0 0 0 0 0 0 0 0 0 
0 0 0 0 0 0 0 0 0 0 0 0 0 0 0 0 0 0 0 0 0 0 0 0 0 0 0 0 0 0 0 0 0 0 0 0 0 0 0 
0 0 0 0 0 0 0 0 0 0 0 0 0 0 0 0 0 0 0 0 0 0 0 0 0 0 0 0 0 0 0 0 0 0 0 0 0 0 0 
0 0 0 0 0 0 0 0 0 0 0 0 0 0 0 0 0 0 0 0 0 0 0 0 0 0 0 0 0 0 0 0 0 0 0 0 0 0 0 
0 0 0 0 0 0 0 0 0 0 0 0 0 0 0 0 0 0 0 0 0 0 0 0 0 0 0 0 0 0 0 0 0 0 0 0 0 0 0 
0 0 0 0 0 0 0 0 0 0 0 0 0 0 0 0 0 0 0 0 0 0 0 0 0 0 0 0 0 0 0 0 0 0 0 0 0 0 0 
0 0 0 0 0 0 0 0 0 0 0 0 0 0 0 0 0 0 0 0 0 0 0 0 0 0 0 0 0 0 0 0 0 0 0 0 0 0 0 
0 0 0 0 0 0 0 0 0 0 0 0 0 0 0 0 0 0 0 0 0 0 0 0 0 0 0 0 0 0 0 0 0 0 0 0 0 0 0 
0 0 0 0 0 0 0 0 0 0 0 0 0 0 0 0 0 0 0 0 0 0 0 0 0 0 0 0 0 0 0 0 0 0 0 0 0 0 0 
0 0 0 0 0 0 0 0 0 0 0 0 0 0 0 0 0 0 0 0 0 0 0 0 0 0 0 0 0 0 0 0 0 0 0 0 0 0 0 
0 0 0 0 0 0 0 0 0 0 0 0 0 0 0 0 0 0 0 0 0 0 0 0 0 0 0 0 0 0 0 0 0 0 0 0 0 0 0 
0 0 0 0 0 0 0 0 0 0 0 0 0 0 0 0 0 0 0 0 0 0 0 0 0 0 0 0 0 0 0 0 0 0 0 0 0 0 0 
0 0 0 0 0 0 0 0 0 0 0 0 0 0 0 0 0 0 0 0 0 0 0 0 0 0 0 0 0 0 0 0 0 0 0 0 0 0 0 
0 0 0 0 0 0 0 0 0 0 0 0 0 0 0 0 0 0 0 0 0 0 0 0 0 0 0 0 0 0 0 0 0 0 0 0 0 0 0 
0 0 0 0 0 0 0 0 0 0 0 0 0 0 0 0 0 0 0 0 0 0 0 0 0 0 0 0 0 0 0 0 0 0 0 0 0 0 0 
0 0 0 0 0 0 0 0 0 0 0 0 0 0 0 0 0 0 0 0 0 0 0 0 0 0 0 0 0 0 0 0 0 0 0 0 0 0 0 
0 0 0 0 0 0 0 0 0 0 0 0 0 0 0 0 0 0 0 0 0 0 0 0 0 0 0 0 0 0 0 0 0 0 0 0 0 0 0 
0 0 0 0 0 0 0 0 0 0 0 0 0 0 0 0 0 0 0 0 0 0 0 0 0 0 0 0 0 0 0 0 0 0 0 0 0 0 0 
0 0 0 0 0 0 0 0 0 0 0 0 0 0 0 0 0 0 0 0 0 0 0 0 0 0 0 0 0 0 0 0 0 0 0 0 0 0 0 
0 0 0 0 0 0 0 0 0 0 0 0 0 0 0 0 0 0 0 0 0 0 0 0 0 0 0 0 0 0 0 0 0 0 0 0 0 0 0 
0 0 0 0 0 0 0 0 0 0 0 0 0 0 0 0 0 0 0 0 0 0 0 0 0 0 0 0 0 0 0 0 0 0 0 0 0 0 0 
0 0 0 0 0 0 0 0 0 0 0 0 0 0 0 0 0 0 0 0 0 0 0 0 0 0 0 0 0 0 0 0 0 0 0 0 0 0 0 
0 0 0 0 0 0 0 0 0 0 0 0 0 0 0 0 0 0 0 0 0 0 0 0 0 0 0 0 0 0 0 0 0 0 0 0 0 0 0 
0 0 0 0 0 0 0 0 0 0 0 0 0 0 0 0 0 0 0 0 0 0 0 0 0 0 0 0 0 0 0 0 0 0 0 0 0 0 0 
0 0 0 0 0 0 0 0 0 0 0 0 0 0 0 0 0 0 0 0 0 0 0 0 0 0 0 0 0 0 0 0 0 0 0 0 0 0 0 
0 0 0 0 0 0 0 0 0 0 0 0 0 0 0 0 0 0 0 0 0 0 0 0 0 0 0 0 0 0 0 0 0 0 0 0 0 0 0 
0 0 0 0 0 0 0 0 0 0 0 0 0 0 0 0 0 0 0 0 0 0 0 0 0 0 0 0 0 0 0 0 0 0 0 0 0 0 0 
0 0 0 0 0 0 0 0 0 0 0 0 0 0 0 0 0 0 0 0 0 0 0 0 0 0 0 0 0 0 0 0 0 0 0 0 0 0 0 
0 0 0 0 0 0 0 0 0 0 0 0 0 0 0 0 0 0 0 0 0 0 0 0 0 0 0 0 0 0 0 0 0 0 0 0 0 0 0 
0 0 0 0 0 0 0 0 0 0 0 0 0 0 0 0 0 0 0 0 0 0 0 0 0 0 0 0 0 0 0 0 0 0 0 0 0 0 0 
0 0 0 0 0 0 0 0 0 0 0 0 0 0 0 0 0 0 0 0 0 0 0 0 0 0 0 0 0 0 0 0 0 0 0 0 0 0 0 
0 0 0 0 0 0 0 0 0 0 0 0 0 0 0 0 0 0 0 0 0 0 0 0 0 0 0 0 0 0 0 0 0 0 0 0 0 0 0 
0 0 0 0 0 0 0 0 0 0 0 0 0 0 0 0 0 0 0 0 0 0 0 0 0 0 0 0 0 0 0 0 0 0 0 0 0 0 0 
0 0 0 0 0 0 0 0 0 0 0 0 0 0 0 0 0 0 0 0 0 0 0 0 0 0 0 0 0 0 0 0 0 0 0 0 0 0 0 
0 0 0 0 0 0 0 0 0 0 0 0 0 0 0 0 0 0 0 0 0 0 0 0 0 0 0 0 0 0 0 0 0 0 0 0 0 0 0 
0 0 0 0 0 0 0 0 0 0 0 0 0 0 0 0 0 0 0 0 0 0 0 0 0 0 0 0 0 0 0 0 0 0 0 0 0 0 0 
0 0 0 0 0 0 0 0 0 0 0 0 0 0 0 0 0 0 0 0 0 0 0 0 0 0 0 0 0 0 0 0 0 0 0 0 0 0 0 
0 0 0 0 0 0 0 0 0 0 0 0 0 0 0 0 0 0 0 0 0 0 0 0 0 0 0 0 0 0 0 0 0 0 0 0 0 0 0 
0 0 0 0 0 0 0 0 0 0 0 0 0 0 0 0 0 0 0 0 0 0 0 0 0 0 0 0 0 0 0 0 0 0 0 0 0 0 0 
0 0 0 0 0 0 0 0 0 0 0 0 0 0 0 0 0 0 0 0 0 0 0 0 0 0 0 0 0 0 0 0 0 0 0 0 0 0 0 
0 0 0 0 0 0 0 0 0 0 0 0 0 0 0 0 0 0 0 0 0 0 0 0 0 0 0 0 0 0 0 0 0 0 0 0 0 0 0 
0 0 0 0 0 0 0 0 0 0 0 0 0 0 0 0 0 0 0 0 0 0 0 0 0 0 0 0 0 0 0 0 0 0 0 0 0 0 0 
0 0 0 0 0 0 0 0 0 0 0 0 0 0 0 0 0 0 0 0 0 0 0 0 0 0 0 0 0 0 0 0 0 0 0 0 0 0 0 
0 0 0 0 0 0 0 0 0 0 0 0 0 0 0 0 0 0 0 0 0 0 0 0 0 0 0 0 0 0 0 0 0 0 0 0 0 0 0 
0 0 0 0 0 0 0 0 0 0 0 0 0 0 0 0 0 0 0 0 0 0 0 0 0 0 0 0 0 0 0 0 0 0 0 0 0 0 0 
0 0 0 0 0 0 0 0 0 0 0 0 0 0 0 0 0 0 0 0 0 0 0 0 0 0 0 0 0 0 0 0 0 0 0 0 255 255 255 
159 153 85 141 134 54 138 131 48 127 119 28 126 118 27 126 118 27 126 118 27 
0 0 0 0 0 0 0 0 0 0 0 0 0 0 0 0 0 0 0 0 0 0 0 0 0 0 0 0 0 0 0 0 0 0 0 0 0 0 0 
0 0 0 0 0 0 0 0 0 0 0 0 0 0 0 0 0 0 0 0 0 0 0 0 0 0 0 0 0 0 0 0 0 0 0 0 0 0 0 
0 0 0 0 0 0 0 0 0 0 0 0 0 0 0 0 0 0 0 0 0 0 0 0 0 0 0 0 0 0 0 0 0 0 0 0 0 0 0 
0 0 0 0 0 0 0 0 0 0 0 0 0 0 0 0 0 0 0 0 0 0 0 0 0 0 0 0 0 0 0 0 0 0 0 0 0 0 0 
0 0 0 0 0 0 0 0 0 255 255 255 255 255 255 129 121 32 126 118 27 126 118 27 
126 118 27 126 118 27 126 118 27 129 121 34 166 163 120 166 163 120 
0 0 0 0 0 0 0 0 0 0 0 0 0 0 0 0 0 0 0 0 0 0 0 0 0 0 0 0 0 0 0 0 0 0 0 0 0 0 0 
0 0 0 0 0 0 0 0 0 0 0 0 0 0 0 0 0 0 0 0 0 0 0 0 0 0 0 0 0 0 0 0 0 0 0 0 0 0 0 
0 0 0 0 0 0 0 0 0 0 0 0 0 0 0 0 0 0 0 0 0 0 0 0 0 0 0 0 0 0 0 0 0 0 0 0 0 0 0 
0 0 0 0 0 0 0 0 0 0 0 0 0 0 0 0 0 0 0 0 0 0 0 0 0 0 0 0 0 0 0 0 0 0 0 0 0 0 0 
255 255 255 147 140 63 128 120 31 126 118 27 126 118 27 126 118 27 129 121 33 
139 131 51 138 130 47 136 128 44 128 120 30 128 120 31 126 118 27 126 118 27 
0 0 0 0 0 0 0 0 0 169 166 126 149 146 98 144 141 91 141 137 86 0 0 0 0 0 0 
0 0 0 0 0 0 0 0 0 0 0 0 0 0 0 0 0 0 0 0 0 0 0 0 0 0 0 0 0 0 0 0 0 0 0 0 0 0 0 
0 0 0 0 0 0 0 0 0 0 0 0 0 0 0 0 0 0 0 0 0 0 0 0 0 0 0 0 0 0 0 0 0 0 0 0 0 0 0 
0 0 0 0 0 0 0 0 0 0 0 0 255 255 255 255 255 255 0 0 0 0 0 0 0 0 0 0 0 0 0 0 0 
0 0 0 0 0 0 0 0 0 0 0 0 156 150 80 128 120 30 126 118 27 126 118 27 126 118 27 
159 156 105 166 163 120 169 166 124 152 148 87 135 128 44 141 134 53 
131 124 38 126 118 27 126 118 27 0 0 0 0 0 0 0 0 0 0 0 0 0 0 0 0 0 0 0 0 0 
0 0 0 0 0 0 0 0 0 0 0 0 0 0 0 0 0 0 0 0 0 0 0 0 0 0 0 0 0 0 0 0 0 0 0 0 0 0 0 
0 0 0 0 0 0 0 0 0 0 0 0 0 0 0 0 0 0 0 0 0 0 0 0 0 0 0 0 0 0 0 0 0 0 0 0 0 0 0 
0 0 0 0 0 0 0 0 0 0 0 0 0 0 0 178 175 138 178 175 138 167 164 122 166 163 120 
162 159 117 115 113 83 0 0 0 0 0 0 0 0 0 0 0 0 0 0 0 0 0 0 145 138 60 
126 118 27 126 118 27 161 158 109 166 163 120 166 163 120 166 163 120 
162 159 117 153 150 111 153 150 111 124 119 39 140 133 52 126 118 27 
126 118 27 126 118 27 0 0 0 0 0 0 0 0 0 0 0 0 0 0 0 0 0 0 0 0 0 0 0 0 0 0 0 
0 0 0 0 0 0 0 0 0 0 0 0 0 0 0 0 0 0 0 0 0 0 0 0 0 0 0 0 0 0 198 197 169 
255 255 255 0 0 0 0 0 0 0 0 0 0 0 0 0 0 0 0 0 0 0 0 0 0 0 0 0 0 0 0 0 0 0 0 0 
0 0 0 0 0 0 0 0 0 176 173 135 178 175 138 173 170 130 167 164 121 166 163 120 
166 163 120 164 161 118 152 149 110 142 140 103 0 0 0 0 0 0 0 0 0 0 0 0 0 0 0 
140 133 52 126 118 27 126 118 27 165 162 117 166 163 120 164 161 119 
165 162 119 157 155 114 154 151 111 156 153 113 151 148 109 139 134 80 
130 122 39 126 118 27 126 118 27 0 0 0 0 0 0 0 0 0 0 0 0 0 0 0 0 0 0 0 0 0 
0 0 0 0 0 0 0 0 0 0 0 0 0 0 0 0 0 0 0 0 0 0 0 0 0 0 0 182 180 145 176 173 135 
178 175 138 166 163 126 66 66 64 0 0 0 0 0 0 0 0 0 0 0 0 0 0 0 0 0 0 0 0 0 
0 0 0 0 0 0 0 0 0 0 0 0 0 0 0 0 0 0 255 255 255 176 174 136 170 167 126 
166 163 120 166 163 120 164 161 119 142 139 103 160 157 116 157 154 113 
150 148 109 143 140 103 0 0 0 0 0 0 0 0 0 0 0 0 140 133 53 126 118 27 
126 118 27 152 147 87 155 153 112 153 150 111 153 150 111 164 161 119 
166 163 120 166 163 120 154 151 111 144 141 108 121 116 44 126 118 27 
126 118 27 126 118 27 0 0 0 0 0 0 0 0 0 0 0 0 0 0 0 0 0 0 0 0 0 0 0 0 0 0 0 
0 0 0 0 0 0 0 0 0 166 163 120 181 179 143 178 175 138 175 172 133 171 168 127 
156 153 114 140 137 101 100 97 72 0 0 0 0 0 0 0 0 0 0 0 0 0 0 0 0 0 0 0 0 0 
0 0 0 0 0 0 0 0 0 0 0 0 0 0 0 0 0 0 179 176 140 170 168 127 166 163 120 
166 163 120 165 162 119 130 128 94 141 138 102 165 162 120 166 163 120 
153 151 111 151 149 109 130 128 94 0 0 0 0 0 0 0 0 0 140 133 53 126 118 27 
126 118 27 124 117 29 153 150 111 146 143 106 160 157 115 166 163 120 
166 163 120 166 163 120 163 160 118 141 139 102 130 125 61 125 117 27 
126 118 27 126 118 27 0 0 0 0 0 0 0 0 0 0 0 0 0 0 0 0 0 0 0 0 0 0 0 0 0 0 0 
0 0 0 173 170 131 176 173 135 175 173 134 172 169 128 166 163 120 166 163 120 
166 163 120 164 161 119 141 138 101 116 114 84 0 0 0 0 0 0 0 0 0 0 0 0 0 0 0 
0 0 0 0 0 0 0 0 0 0 0 0 0 0 0 0 0 0 0 0 0 0 0 0 176 174 136 171 168 127 
166 163 120 158 155 114 125 122 90 128 126 92 163 160 118 166 163 120 
166 163 120 160 157 115 153 150 110 152 149 110 162 159 117 0 0 0 0 0 0 143 136 58 
128 120 31 126 118 27 126 118 27 158 155 115 151 148 109 159 156 115 
166 163 120 166 163 120 166 163 120 166 163 120 159 157 119 128 121 47 
126 118 27 126 118 27 126 118 27 0 0 0 0 0 0 0 0 0 0 0 0 0 0 0 0 0 0 0 0 0 
187 185 152 180 177 141 177 174 136 175 172 133 169 166 125 166 163 120 
166 163 120 166 163 120 166 163 120 171 168 128 166 163 120 138 136 100 
126 124 91 0 0 0 0 0 0 0 0 0 0 0 0 0 0 0 0 0 0 0 0 0 0 0 0 0 0 0 0 0 0 0 0 0 
0 0 0 0 0 0 175 172 133 170 167 127 166 163 120 126 123 90 136 134 98 
62 60 45 0 0 0 166 163 120 166 163 120 166 163 120 157 155 114 153 150 110 
153 150 111 152 150 110 136 134 98 135 130 70 144 137 58 131 123 35 126 118 27 
143 139 81 153 150 111 154 151 111 161 158 116 158 155 114 166 163 120 
166 163 120 153 147 84 137 130 46 126 118 27 126 118 27 126 118 27 0 0 0 0 0 0 
0 0 0 166 163 120 166 163 120 173 170 131 177 174 136 176 173 135 170 167 126 
166 163 120 166 163 120 166 163 120 166 163 120 137 135 100 149 147 108 
166 163 120 175 173 134 166 163 120 131 128 94 132 129 96 0 0 0 0 0 0 0 0 0 
0 0 0 0 0 0 0 0 0 0 0 0 0 0 0 0 0 0 0 0 0 0 0 0 0 0 0 0 0 0 176 174 136 
168 165 123 145 143 105 127 124 92 153 150 111 0 0 0 0 0 0 166 163 120 
166 163 120 166 163 120 165 162 119 153 151 111 153 150 111 154 151 111 
152 150 110 151 148 109 150 146 100 140 133 52 126 118 27 124 116 28 
145 141 91 147 145 107 151 149 110 152 149 109 152 150 110 155 150 98 
140 132 52 132 124 36 126 118 27 126 118 27 126 118 27 166 163 120 166 163 120 
166 163 120 174 172 133 176 173 135 172 169 129 167 164 122 166 163 120 
166 163 120 166 163 120 163 160 118 143 141 104 139 137 101 98 97 71 0 0 0 
0 0 0 174 172 133 167 164 121 126 123 91 137 135 99 0 0 0 0 0 0 0 0 0 0 0 0 
0 0 0 0 0 0 0 0 0 0 0 0 0 0 0 0 0 0 0 0 0 0 0 0 0 0 0 176 173 135 166 163 120 
136 134 99 141 140 103 0 0 0 0 0 0 0 0 0 0 0 0 166 163 120 166 163 120 
166 163 120 161 158 116 154 151 111 154 152 112 153 150 111 152 150 110 
151 148 109 139 133 52 128 120 30 125 117 27 107 102 31 145 142 104 
145 142 105 145 142 105 151 147 97 128 120 34 141 134 59 138 131 49 126 118 27 
126 118 28 166 163 120 171 168 128 175 172 133 175 172 133 170 168 127 
166 163 120 166 163 120 166 163 120 166 163 120 166 163 120 126 124 92 
117 115 85 118 115 85 0 0 0 0 0 0 0 0 0 166 163 120 174 172 133 167 164 121 
126 124 91 139 136 100 0 0 0 0 0 0 0 0 0 0 0 0 0 0 0 0 0 0 0 0 0 0 0 0 0 0 0 
0 0 0 0 0 0 0 0 0 0 0 0 176 173 135 166 163 120 137 135 99 147 144 106 
0 0 0 0 0 0 0 0 0 0 0 0 166 163 120 166 163 120 166 163 120 166 163 120 
166 163 120 161 158 116 153 150 111 153 150 111 153 150 111 139 133 55 
129 121 32 115 109 31 134 130 96 145 142 104 143 140 104 141 138 103 
103 96 23 119 112 53 136 131 55 127 119 29 122 115 26 141 135 74 164 161 120 
169 167 129 168 165 124 166 163 120 166 163 120 166 163 120 166 163 120 
164 161 118 141 138 102 122 119 88 117 115 85 145 142 105 0 0 0 0 0 0 0 0 0 
0 0 0 166 163 120 176 173 134 166 163 120 128 125 92 140 138 101 0 0 0 0 0 0 
0 0 0 0 0 0 0 0 0 0 0 0 0 0 0 0 0 0 0 0 0 0 0 0 0 0 0 0 0 0 0 0 0 176 173 135 
166 163 120 141 139 102 134 132 97 150 147 108 0 0 0 0 0 0 0 0 0 0 0 0 166 163 120 
166 163 120 166 163 120 166 163 120 166 163 120 165 162 119 156 153 113 
163 160 124 139 132 50 127 119 29 122 120 85 109 106 79 134 132 97 150 147 109 
116 109 48 108 103 42 136 130 68 127 119 29 118 110 25 106 101 43 141 139 102 
153 150 111 158 155 114 166 163 120 166 163 120 166 163 120 166 163 120 
134 132 97 117 115 84 127 124 92 151 148 109 166 163 120 0 0 0 0 0 0 0 0 0 
0 0 0 0 0 0 166 163 120 176 173 135 163 160 118 126 123 91 125 123 90 
0 0 0 0 0 0 0 0 0 0 0 0 0 0 0 0 0 0 0 0 0 0 0 0 0 0 0 0 0 0 0 0 0 0 0 0 0 0 0 
175 173 134 167 164 121 165 162 120 131 129 95 0 0 0 0 0 0 0 0 0 0 0 0 0 0 0 
0 0 0 166 163 120 166 163 120 166 163 120 166 163 120 166 163 120 174 172 133 
143 136 59 126 118 27 128 120 31 131 128 94 119 118 87 144 141 103 140 137 85 
115 110 40 134 127 69 120 112 30 132 124 38 114 108 32 128 125 97 149 146 108 
154 151 111 163 160 118 166 163 120 166 163 120 143 140 103 105 104 76 
101 99 74 148 145 108 166 163 120 0 0 0 0 0 0 0 0 0 0 0 0 0 0 0 0 0 0 0 0 0 
166 163 120 176 173 135 155 152 112 126 124 91 0 0 0 0 0 0 0 0 0 0 0 0 0 0 0 
0 0 0 0 0 0 0 0 0 0 0 0 0 0 0 0 0 0 0 0 0 0 0 0 0 0 0 174 171 132 169 166 125 
166 163 120 122 120 89 0 0 0 0 0 0 0 0 0 0 0 0 0 0 0 0 0 0 166 163 120 
166 163 120 166 163 120 166 163 120 172 170 130 153 148 82 138 131 50 
127 119 29 134 127 44 122 120 87 142 139 102 130 126 74 97 92 23 136 130 68 
138 132 63 145 138 60 135 128 48 106 100 35 108 106 79 153 151 111 160 157 115 
166 163 120 148 145 106 118 115 85 116 114 85 148 146 108 0 0 0 0 0 0 0 0 0 
0 0 0 0 0 0 0 0 0 0 0 0 0 0 0 0 0 0 0 0 0 176 173 135 169 167 130 153 150 111 
127 124 91 0 0 0 0 0 0 0 0 0 0 0 0 0 0 0 0 0 0 0 0 0 0 0 0 0 0 0 0 0 0 0 0 0 
0 0 0 0 0 0 0 0 0 173 170 130 171 168 128 150 147 108 0 0 0 0 0 0 0 0 0 0 0 0 
0 0 0 0 0 0 0 0 0 0 0 0 166 163 120 166 163 120 166 163 120 176 173 135 
132 125 39 133 125 39 126 118 27 143 141 95 130 127 95 139 137 98 107 101 25 
121 114 45 154 149 84 143 136 56 142 135 55 137 130 50 117 112 45 131 130 96 
153 150 111 163 160 118 127 125 92 101 100 73 122 120 88 166 163 120 
166 163 120 0 0 0 0 0 0 0 0 0 0 0 0 0 0 0 0 0 0 0 0 0 0 0 0 0 0 0 255 255 255 
176 174 136 158 155 115 153 150 111 113 110 81 0 0 0 0 0 0 0 0 0 0 0 0 0 0 0 
0 0 0 0 0 0 0 0 0 0 0 0 0 0 0 0 0 0 0 0 0 0 0 0 0 0 0 173 170 130 174 171 132 
155 152 112 132 129 95 51 50 37 0 0 0 0 0 0 0 0 0 0 0 0 0 0 0 0 0 0 0 0 0 
166 163 120 166 163 120 172 168 121 145 138 59 126 118 27 128 122 41 
148 145 107 143 140 104 132 127 66 123 116 38 139 133 62 131 124 44 148 142 66 
150 144 69 136 128 46 114 108 36 134 131 97 138 135 100 164 161 118 
130 127 93 120 117 87 136 133 97 166 163 120 0 0 0 0 0 0 0 0 0 0 0 0 0 0 0 
0 0 0 0 0 0 0 0 0 0 0 0 0 0 0 183 181 146 168 166 124 156 153 113 132 129 95 
0 0 0 0 0 0 0 0 0 0 0 0 0 0 0 0 0 0 0 0 0 0 0 0 0 0 0 0 0 0 0 0 0 0 0 0 0 0 0 
0 0 0 0 0 0 0 0 0 176 173 135 167 164 121 164 162 119 140 137 101 66 65 48 
0 0 0 0 0 0 0 0 0 0 0 0 0 0 0 0 0 0 0 0 0 153 147 79 151 145 73 132 124 37 
126 118 27 143 139 87 156 153 113 161 158 116 129 126 64 128 122 51 118 111 28 
118 111 25 142 135 55 144 137 59 139 133 51 139 132 53 127 124 70 140 138 102 
150 147 108 144 141 104 137 134 99 61 60 44 0 0 0 0 0 0 0 0 0 0 0 0 0 0 0 
0 0 0 0 0 0 0 0 0 0 0 0 197 195 166 175 173 134 173 170 130 166 163 120 
153 150 111 116 113 84 0 0 0 0 0 0 0 0 0 0 0 0 0 0 0 0 0 0 0 0 0 0 0 0 0 0 0 
0 0 0 0 0 0 0 0 0 0 0 0 0 0 0 0 0 0 0 0 0 173 170 131 172 169 129 166 163 120 
165 162 119 140 137 101 103 101 74 0 0 0 0 0 0 0 0 0 0 0 0 0 0 0 0 0 0 151 145 71 
142 136 56 127 119 29 123 115 26 143 138 83 166 163 120 164 161 118 
152 148 100 130 123 46 128 121 40 126 118 27 126 118 27 131 124 37 137 130 47 
144 137 58 140 132 51 142 135 59 127 122 58 131 129 89 151 148 109 0 0 0 0 0 0 
0 0 0 0 0 0 0 0 0 0 0 0 0 0 0 0 0 0 166 163 120 168 165 124 176 173 135 
171 168 128 165 162 119 154 151 111 128 125 93 0 0 0 0 0 0 0 0 0 0 0 0 0 0 0 
0 0 0 0 0 0 0 0 0 0 0 0 0 0 0 0 0 0 0 0 0 0 0 0 0 0 0 0 0 0 0 0 0 0 0 0 166 163 120 
176 173 135 166 163 121 166 163 120 166 163 120 145 142 105 118 116 85 
0 0 0 0 0 0 0 0 0 0 0 0 255 255 255 148 142 67 141 134 54 126 118 27 
126 118 27 126 118 27 160 156 105 166 163 120 166 163 119 127 119 29 
139 131 49 134 126 42 126 118 27 126 118 27 126 118 27 126 118 27 129 122 33 
131 123 35 125 119 46 131 124 54 126 118 28 31 61 32 31 61 32 31 61 32 
0 0 0 0 0 0 0 0 0 166 163 120 166 163 120 172 169 129 176 173 135 169 166 124 
162 159 117 153 151 111 130 128 94 110 108 79 0 0 0 0 0 0 0 0 0 0 0 0 0 0 0 
0 0 0 0 0 0 0 0 0 0 0 0 0 0 0 0 0 0 0 0 0 0 0 0 0 0 0 0 0 0 0 0 0 0 0 0 166 163 120 
172 169 129 174 171 132 144 141 104 131 128 95 166 163 120 159 156 115 
0 0 0 0 0 0 0 0 0 0 0 0 145 139 61 144 138 60 139 132 51 126 118 27 126 118 27 
126 118 27 143 137 65 166 163 120 166 163 120 149 144 80 127 119 29 140 133 52 
127 119 29 126 118 27 126 118 27 126 118 27 128 120 30 130 123 44 132 126 52 
136 128 49 126 118 27 123 116 27 25 50 26 27 52 27 31 61 32 31 61 32 33 62 33 
162 160 117 149 147 114 145 142 110 158 156 115 155 152 112 153 150 111 
127 125 92 107 105 78 0 0 0 166 163 120 166 163 120 0 0 0 0 0 0 0 0 0 0 0 0 
0 0 0 0 0 0 0 0 0 0 0 0 0 0 0 0 0 0 0 0 0 0 0 0 0 0 0 0 0 0 0 0 0 0 0 0 166 163 120 
176 173 135 159 156 118 135 132 97 110 108 80 166 163 120 0 0 0 0 0 0 31 61 32 
31 61 32 133 125 39 141 134 55 141 134 54 126 118 28 126 118 27 126 118 27 
140 134 59 164 161 118 166 163 120 166 163 120 160 156 105 140 133 57 
141 134 53 130 123 46 128 121 43 132 125 45 129 122 53 126 121 52 140 133 55 
140 133 51 125 118 27 113 108 26 149 115 80 150 115 80 149 114 80 159 121 84 
162 124 87 182 139 97 178 136 95 133 113 75 161 158 116 153 150 110 
131 128 94 120 118 87 0 0 0 0 0 0 166 163 120 0 0 0 0 0 0 0 0 0 0 0 0 0 0 0 
0 0 0 0 0 0 0 0 0 0 0 0 0 0 0 0 0 0 0 0 0 0 0 0 0 0 0 0 0 0 0 0 0 0 0 0 0 0 0 
168 165 122 177 174 137 142 140 104 143 141 104 0 0 0 0 0 0 31 61 32 31 61 32 
31 61 32 77 89 29 140 133 52 146 139 63 141 134 53 132 124 37 126 118 27 
153 150 111 153 150 111 155 152 112 166 163 120 166 163 120 158 155 114 
125 120 62 123 118 60 111 106 39 113 107 36 110 105 35 117 110 38 138 132 53 
137 130 48 126 118 27 126 118 27 128 106 54 130 101 69 131 100 71 144 111 77 
182 139 97 175 150 107 171 154 110 136 138 100 150 147 108 129 127 93 
132 130 96 0 0 0 0 0 0 0 0 0 0 0 0 0 0 0 0 0 0 0 0 0 0 0 0 0 0 0 0 0 0 0 0 0 
0 0 0 0 0 0 0 0 0 0 0 0 0 0 0 0 0 0 0 0 0 0 0 0 0 0 0 0 0 0 0 0 0 166 163 120 
171 169 128 168 165 124 140 137 101 166 163 120 31 61 32 31 61 32 53 74 42 
167 133 91 177 141 97 168 136 86 136 128 44 150 143 69 146 139 62 126 118 28 
150 146 94 153 150 111 154 151 111 166 163 120 166 163 120 160 157 115 
150 147 108 133 132 97 141 139 102 123 120 71 119 113 42 110 105 26 120 114 33 
141 136 57 139 133 51 134 126 41 121 113 26 117 108 27 130 111 51 156 119 83 
180 140 97 166 163 120 162 159 117 153 150 111 130 127 93 139 137 101 
148 145 107 0 0 0 0 0 0 0 0 0 0 0 0 0 0 0 0 0 0 0 0 0 0 0 0 0 0 0 0 0 0 0 0 0 
0 0 0 0 0 0 0 0 0 0 0 0 0 0 0 0 0 0 0 0 0 0 0 0 0 0 0 0 0 0 0 0 0 0 0 0 166 163 120 
166 163 120 161 158 116 60 83 51 31 61 32 37 60 33 154 118 82 153 116 82 
143 109 76 156 119 83 145 115 70 117 107 38 135 128 49 138 130 48 128 121 32 
153 150 107 164 161 118 161 158 117 165 162 119 156 153 113 151 148 110 
134 131 97 131 129 95 146 143 105 142 139 102 137 136 100 122 120 79 
138 138 76 125 132 45 135 135 53 135 128 43 125 120 29 112 107 26 137 104 73 
160 122 85 160 157 116 165 162 119 165 162 119 166 163 120 80 98 64 31 61 32 
0 0 0 0 0 0 0 0 0 0 0 0 0 0 0 0 0 0 0 0 0 0 0 0 0 0 0 0 0 0 0 0 0 0 0 0 0 0 0 
0 0 0 0 0 0 0 0 0 0 0 0 0 0 0 0 0 0 0 0 0 0 0 0 0 0 0 0 0 0 0 0 0 0 0 0 166 163 120 
32 61 32 33 62 33 149 119 82 157 120 84 160 122 86 159 122 85 109 82 59 
106 81 57 133 103 70 150 118 76 134 127 47 133 126 40 128 120 32 166 163 120 
163 160 118 156 154 113 154 151 111 155 152 112 150 147 107 142 139 103 
149 146 107 143 141 103 146 143 106 117 114 84 107 112 74 113 102 65 
114 118 34 139 132 50 137 130 47 98 93 22 150 116 81 182 139 97 182 139 97 
176 142 97 28 55 29 25 49 26 25 49 26 26 51 27 0 0 0 0 0 0 0 0 0 0 0 0 0 0 0 
0 0 0 0 0 0 0 0 0 0 0 0 0 0 0 0 0 0 0 0 0 0 0 0 0 0 0 0 0 0 0 0 0 0 0 0 0 0 0 
0 0 0 0 0 0 0 0 0 0 0 0 0 0 0 0 0 0 0 0 0 31 61 32 31 61 32 36 64 34 182 139 97 
182 139 97 182 139 97 162 127 88 135 104 71 119 90 63 101 76 54 111 86 58 
155 130 70 140 133 53 126 118 28 130 122 37 166 163 120 155 153 112 
153 150 111 155 152 112 166 163 120 154 151 111 154 151 111 146 143 106 
147 144 106 112 111 81 106 85 59 110 86 59 131 102 70 122 116 27 126 120 49 
110 122 53 180 137 96 182 139 97 179 137 96 31 58 31 20 39 20 22 44 23 
23 45 24 0 0 0 0 0 0 0 0 0 0 0 0 16 25 16 17 26 17 20 31 20 26 41 27 0 0 0 
0 0 0 0 0 0 0 0 0 0 0 0 0 0 0 0 0 0 0 0 0 0 0 0 0 0 0 0 0 0 0 0 0 0 0 0 0 0 0 
0 0 0 0 0 0 0 0 0 0 0 0 51 78 51 31 61 32 136 115 77 180 137 96 173 132 92 
182 139 97 173 132 92 164 125 87 157 119 84 114 87 61 117 90 61 122 101 70 
135 130 57 139 133 56 126 118 27 130 122 35 160 157 115 157 154 113 
165 162 119 166 163 120 162 159 117 155 152 112 140 138 102 148 146 107 
108 107 79 115 87 61 126 97 68 114 89 62 111 107 25 130 114 58 181 142 103 
182 139 97 150 114 79 39 52 29 21 41 22 22 43 22 24 47 25 24 47 25 0 0 0 0 0 0 
0 0 0 0 0 0 23 35 23 21 32 21 20 33 21 22 41 22 0 0 0 0 0 0 0 0 0 0 0 0 0 0 0 
0 0 0 0 0 0 0 0 0 0 0 0 0 0 0 0 0 0 0 0 0 0 0 0 0 0 0 0 0 0 0 0 0 0 0 0 0 0 0 
32 62 33 28 56 29 151 119 82 148 114 80 151 115 80 136 104 72 109 84 59 
125 97 67 150 116 80 136 104 73 144 110 77 104 83 57 123 123 90 131 126 57 
138 130 53 126 118 27 161 157 108 166 163 120 166 163 120 166 163 120 
166 163 120 149 146 108 149 146 107 144 141 103 118 116 85 110 84 60 113 87 60 
104 87 59 109 103 24 180 140 97 177 135 94 48 61 35 19 35 19 20 40 21 23 46 24 
24 47 25 24 47 25 25 49 26 0 0 0 0 0 0 0 0 0 0 0 0 18 29 18 23 36 23 16 30 17 
18 37 20 0 0 0 0 0 0 0 0 0 0 0 0 0 0 0 0 0 0 0 0 0 0 0 0 0 0 0 0 0 0 0 0 0 
0 0 0 0 0 0 0 0 0 0 0 0 0 0 0 0 0 0 255 255 255 54 81 55 59 85 60 87 96 66 
182 139 97 182 139 97 182 139 97 172 131 92 138 110 76 119 90 64 139 107 75 
127 97 67 115 88 61 133 128 95 142 139 103 133 127 50 132 125 39 141 135 63 
166 163 120 166 163 120 166 163 120 166 163 120 142 141 102 131 130 95 
128 126 93 99 99 71 110 99 65 113 86 61 134 102 72 169 133 89 160 123 86 
60 60 37 20 39 20 24 45 24 22 44 23 22 43 23 23 47 24 24 47 25 24 48 25 
23 45 24 0 0 0 0 0 0 0 0 0 0 0 0 0 0 0 0 0 0 0 0 0 0 0 0 0 0 0 0 0 0 0 0 0 
0 0 0 0 0 0 0 0 0 0 0 0 0 0 0 0 0 0 0 0 0 0 0 0 0 0 0 0 0 0 0 0 0 0 0 0 255 255 255 
255 255 255 60 86 61 59 85 60 44 72 45 78 114 66 180 140 97 181 139 97 
182 139 97 176 134 95 155 123 85 124 95 66 121 93 63 121 92 64 108 100 72 
132 130 96 138 135 93 138 131 49 131 124 39 166 163 120 166 163 120 
166 163 120 162 159 117 135 133 99 117 116 86 88 84 59 102 79 54 104 79 56 
139 105 74 161 123 86 145 113 78 35 51 29 20 40 21 27 52 27 26 50 27 26 51 27 
27 53 28 30 59 31 27 52 28 23 45 24 23 45 24 25 49 26 25 49 26 16 32 17 
0 0 0 0 0 0 0 0 0 0 0 0 0 0 0 0 0 0 0 0 0 0 0 0 19 37 20 33 66 35 0 0 0 0 0 0 
0 0 0 0 0 0 0 0 0 0 0 0 0 0 0 0 0 0 0 0 0 0 0 0 0 0 0 255 255 255 60 86 60 
56 82 57 31 61 32 31 61 32 32 63 33 30 57 31 75 104 60 182 139 97 182 139 97 
182 139 97 141 107 76 115 89 62 95 86 61 110 107 79 141 140 103 126 120 40 
138 131 60 161 158 116 157 154 114 154 152 112 134 132 97 87 86 63 89 77 55 
92 71 48 113 86 60 140 106 74 159 122 85 105 86 58 20 40 21 21 41 22 25 49 26 
25 49 25 25 49 26 25 49 26 27 52 28 24 48 25 22 44 23 24 46 25 27 53 27 
27 54 28 30 59 31 31 61 32 31 61 32 27 53 28 26 52 27 24 47 25 8 15 8 0 0 0 
0 0 0 0 0 0 0 0 0 0 0 0 0 0 0 0 0 0 0 0 0 0 0 0 0 0 0 0 0 0 0 0 0 0 0 0 0 0 0 
0 0 0 0 0 0 255 255 255 59 86 60 59 87 60 37 66 38 31 61 32 31 61 32 26 51 27 
26 50 26 48 65 38 164 130 90 182 139 97 180 138 96 165 127 88 143 110 76 
111 98 67 94 90 24 103 96 22 158 155 114 142 140 104 127 125 93 129 127 95 
86 85 62 72 66 47 103 78 55 127 97 68 150 114 79 140 107 75 31 46 25 20 40 21 
23 45 24 27 52 28 27 54 28 27 52 27 26 51 27 26 50 26 25 49 26 24 46 25 
25 50 26 27 53 28 27 53 28 27 54 28 31 61 32 31 61 32 31 61 32 31 61 32 
31 61 32 30 59 31 24 48 25 24 47 25 0 0 0 0 0 0 0 0 0 0 0 0 0 0 0 0 0 0 0 0 0 
0 0 0 0 0 0 0 0 0 0 0 0 0 0 0 0 0 0 0 0 0 0 0 0 255 255 255 61 87 62 62 89 63 
68 92 69 31 62 32 32 64 33 31 61 32 27 53 28 26 51 27 28 54 29 26 52 27 
67 79 48 167 142 96 180 138 96 151 115 80 115 90 56 94 95 70 102 106 76 
122 119 88 101 99 73 97 94 69 96 77 55 103 79 55 130 99 69 153 116 82 
112 94 63 26 45 24 20 42 21 25 49 26 27 52 28 27 53 28 27 53 28 27 52 28 
25 50 26 23 47 24 24 47 25 25 50 26 27 53 28 28 56 29 30 59 31 31 61 32 
31 61 32 31 61 32 31 61 32 31 61 32 31 61 32 31 61 32 25 49 25 24 47 25 
24 48 25 0 0 0 0 0 0 0 0 0 0 0 0 0 0 0 0 0 0 0 0 0 0 0 0 0 0 0 0 0 0 0 0 0 
0 0 0 0 0 0 0 0 0 0 0 0 66 92 67 59 85 60 59 86 60 42 71 43 31 61 32 33 65 34 
27 52 28 26 51 27 26 50 26 27 51 27 26 51 27 27 52 27 40 76 41 174 142 97 
138 105 74 125 95 66 87 89 63 106 104 77 118 102 73 108 83 58 110 83 59 
148 112 78 147 113 79 35 50 28 21 43 22 26 51 27 26 52 27 26 52 27 27 53 28 
28 54 29 28 53 28 23 47 24 25 50 26 24 48 25 24 46 25 24 46 25 25 50 26 
28 54 29 30 59 31 31 61 32 31 61 32 31 61 32 31 61 32 31 61 32 31 61 32 
31 61 32 26 51 27 24 47 25 23 45 24 31 61 32 0 0 0 0 0 0 0 0 0 0 0 0 0 0 0 
0 0 0 0 0 0 0 0 0 0 0 0 0 0 0 0 0 0 0 0 0 0 0 0 0 0 0 255 255 255 59 85 60 
60 86 61 49 77 50 31 61 32 31 62 32 31 61 32 30 58 30 26 51 27 26 50 26 
26 51 27 27 53 28 27 54 29 30 57 30 86 85 56 133 102 71 147 111 78 120 92 64 
128 98 68 120 91 64 146 112 78 88 77 51 19 38 20 23 46 24 27 54 28 27 54 28 
26 51 27 25 50 26 25 50 26 26 50 26 25 48 25 23 45 24 23 46 24 23 44 23 
24 49 25 27 52 28 25 51 26 28 55 29 31 60 32 31 61 32 31 61 32 31 61 32 
31 61 32 31 61 32 31 61 32 31 61 32 29 58 30 25 48 25 24 48 25 25 50 26 
0 0 0 0 0 0 0 0 0 0 0 0 0 0 0 0 0 0 0 0 0 0 0 0 0 0 0 0 0 0 0 0 0 0 0 0 0 0 0 
0 0 0 0 0 0 59 85 60 61 88 62 60 87 61 31 61 32 31 61 32 31 61 32 31 61 32 
28 54 29 26 51 27 26 50 26 26 51 27 26 51 27 26 51 27 26 50 26 40 60 33 
173 132 93 124 94 66 121 92 64 137 105 73 22 39 22 18 35 18 20 40 21 27 54 28 
28 56 29 25 48 25 25 50 26 25 49 26 25 50 26 26 52 27 25 48 26 23 45 24 
21 42 22 22 42 23 22 44 23 24 48 25 25 50 26 29 57 30 31 61 32 31 61 32 
31 61 32 31 61 32 31 61 32 31 61 32 31 61 32 31 61 32 26 52 27 25 49 25 
25 49 26 24 48 25 24 47 25 0 0 0 0 0 0 0 0 0 0 0 0 0 0 0 0 0 0 0 0 0 0 0 0 
0 0 0 0 0 0 0 0 0 0 0 0 0 0 0 0 0 0 45 73 46 62 88 63 69 95 70 42 71 43 
34 63 35 32 62 33 31 61 32 31 61 32 28 55 29 26 51 27 26 52 27 26 51 27 
26 50 26 26 50 26 26 51 26 31 61 32 121 114 77 50 53 32 17 33 18 16 33 16 
25 47 25 28 55 29 29 57 30 30 59 31 30 60 31 27 54 28 27 53 28 26 50 27 
25 50 26 22 43 23 20 39 21 20 40 21 22 43 22 25 51 26 27 54 28 27 54 28 
29 57 30 30 59 31 31 61 32 31 61 32 31 61 32 31 61 32 31 61 32 31 61 32 
31 61 32 26 51 27 24 48 25 24 47 25 24 47 25 24 47 25 19 37 19 0 0 0 0 0 0 
0 0 0 0 0 0 0 0 0 0 0 0 255 255 255 192 227 193 97 184 100 97 184 100 
84 160 87 94 177 96 91 174 94 97 184 100 45 73 46 69 94 70 51 78 52 47 75 48 
45 73 46 33 63 34 31 61 32 30 60 31 29 58 30 29 56 30 26 51 27 26 51 27 
26 50 26 26 51 27 24 46 24 20 39 21 19 36 19 24 49 25 28 56 29 28 54 29 
26 51 27 27 53 28 25 50 26 28 55 29 28 54 28 26 52 27 25 50 26 25 50 26 
23 46 24 22 45 23 24 46 24 25 49 25 26 53 27 27 53 28 27 53 28 27 53 28 
28 55 29 31 61 32 31 61 32 31 61 32 31 61 32 31 61 32 31 61 32 31 61 32 
31 61 32 25 48 25 24 47 25 24 47 25 24 47 25 25 49 26 0 0 0 0 0 0 0 0 0 0 0 0 
97 184 100 116 193 119 117 193 120 107 189 110 97 184 100 75 143 77 74 140 76 
74 142 77 77 147 80 81 154 84 49 94 50 56 83 57 55 82 56 47 75 48 44 73 45 
35 65 36 31 61 32 31 61 32 31 61 32 31 61 32 28 55 29 26 52 27 26 51 27 
26 50 26 24 46 24 29 57 29 29 56 30 24 48 25 25 49 26 27 53 28 25 48 26 
24 48 25 24 47 24 25 50 26 25 50 26 27 54 28 29 58 30 26 51 27 22 44 23 
23 45 24 28 54 29 25 50 26 27 53 28 28 56 29 27 53 28 27 53 28 27 54 28 
27 54 28 31 61 32 31 61 32 31 61 32 31 61 32 31 61 32 31 61 32 28 55 29 
24 47 25 24 47 25 24 47 25 24 48 25 31 61 32 0 0 0 0 0 0 0 0 0 0 0 0 114 190 116 
118 192 120 105 185 107 95 181 98 91 174 94 74 141 77 75 142 77 74 141 77 
75 143 77 74 142 77 76 149 78 41 76 42 59 86 60 48 76 49 47 75 48 47 75 48 
33 63 34 31 61 32 31 61 32 31 61 32 31 61 32 30 59 31 28 54 29 29 57 30 
31 61 32 28 55 29 29 56 30 29 56 29 28 55 29 26 51 27 25 50 26 25 49 26 
25 49 25 24 49 25 27 53 28 25 49 26 24 48 25 24 47 25 24 48 25 30 59 31 
31 61 32 26 50 26 22 43 23 28 54 29 31 61 32 28 55 28 23 44 23 27 53 28 
31 61 32 31 61 32 31 61 32 31 61 32 31 61 32 31 61 32 29 57 30 24 48 25 
24 47 25 24 47 25 28 55 29 31 61 32 0 0 0 0 0 0 0 0 0 124 196 126 115 190 117 
113 190 116 95 181 98 95 181 98 92 175 95 74 142 77 74 141 76 75 143 78 
76 144 78 76 145 78 74 141 77 76 146 79 45 90 47 40 69 41 47 75 48 47 75 48 
37 66 38 31 61 32 31 61 32 31 61 32 31 61 32 31 61 32 31 61 32 31 61 32 
31 61 32 31 61 32 28 56 29 27 54 28 26 51 27 23 45 24 24 48 25 24 48 25 
24 48 25 25 50 26 24 50 25 24 46 25 25 49 25 24 49 25 24 47 25 22 43 22 
20 40 21 21 41 22 22 43 23 34 73 35 52 105 54 70 135 72 86 164 88 93 177 96 
91 174 94 91 173 94 87 167 90 52 100 53 31 61 32 31 61 32 30 60 31 24 47 25 
24 48 25 24 48 25 30 60 31 31 61 32 0 0 0 0 0 0 0 0 0 116 187 118 114 192 117 
95 181 98 95 181 98 95 181 98 86 163 88 76 145 79 74 141 76 74 141 77 
74 142 77 75 141 77 75 142 77 75 142 77 79 152 82 48 102 50 46 74 47 47 74 47 
47 75 48 33 62 34 31 61 32 31 61 32 31 61 32 31 61 32 31 61 32 31 61 32 
31 61 32 31 61 32 29 57 30 27 53 28 23 46 24 22 43 23 22 44 22 22 44 23 
22 44 22 23 46 24 22 43 23 24 48 25 22 43 23 20 39 21 22 42 22 25 47 25 
22 43 23 69 131 71 76 145 79 75 142 77 75 143 78 93 177 96 95 181 98 95 181 98 
95 181 98 95 181 98 95 181 98 96 183 99 95 181 98 66 127 67 23 45 24 19 38 20 
22 44 23 25 49 25 31 61 32 0 0 0 0 0 0 0 0 0 255 255 255 117 193 120 
99 184 102 95 181 98 95 181 98 95 181 98 88 169 91 81 154 83 79 151 82 
74 141 76 75 142 77 75 142 77 75 142 77 75 143 78 76 145 79 78 148 80 
40 91 41 43 71 44 46 74 47 48 75 49 42 71 43 31 61 32 31 61 32 31 61 32 
31 61 32 31 61 32 31 61 32 31 61 32 24 48 25 23 43 23 23 45 24 24 47 25 
25 50 26 23 44 24 26 50 27 28 56 29 22 43 22 20 39 20 20 40 20 23 45 23 
27 51 27 73 138 75 75 142 77 75 141 77 89 170 92 94 180 97 107 187 110 
114 190 117 102 184 105 95 181 98 95 181 98 95 181 98 95 181 98 94 179 97 
81 154 83 76 144 78 67 128 70 30 58 30 20 39 20 22 43 22 0 0 0 0 0 0 0 0 0 
0 0 0 124 196 127 117 193 120 109 187 112 95 181 98 95 181 98 95 181 98 
91 173 94 75 143 77 75 143 78 68 130 69 76 144 78 76 144 78 74 140 76 
75 143 78 75 143 77 78 148 80 80 157 83 38 76 40 44 72 45 46 74 47 44 73 45 
34 64 35 31 61 32 31 61 32 31 61 32 31 61 32 31 61 32 28 55 29 26 52 27 
26 52 27 28 54 28 27 52 27 26 50 26 22 44 23 20 40 21 19 36 20 17 33 17 
16 33 17 19 37 19 70 134 73 73 140 76 74 142 77 87 166 90 95 181 98 100 183 103 
115 191 118 113 191 116 101 186 104 97 184 100 97 184 100 97 184 100 
95 181 98 96 182 99 80 152 82 74 141 76 74 140 76 73 140 76 74 141 76 
19 38 20 0 0 0 0 0 0 0 0 0 0 0 0 0 0 0 118 193 120 116 193 119 96 182 99 
95 181 98 95 181 98 95 181 98 90 171 93 74 142 77 77 145 79 76 144 79 
80 152 82 77 148 80 75 142 77 75 143 78 74 141 76 74 140 76 75 142 77 
68 134 70 32 62 33 41 70 42 46 74 47 37 67 38 31 61 32 31 61 32 31 61 32 
31 61 32 31 61 32 30 60 31 28 56 29 28 55 29 27 52 28 23 45 24 23 46 24 
19 38 20 20 39 20 20 39 20 22 41 22 49 96 51 73 139 75 74 141 76 77 146 79 
93 178 96 104 187 107 109 190 112 116 191 118 113 191 116 102 186 104 
95 181 98 96 182 99 95 181 98 95 181 98 95 181 98 87 166 90 74 140 76 
73 140 76 74 140 76 73 140 76 64 121 66 25 51 26 0 0 0 0 0 0 0 0 0 0 0 0 0 0 0 
118 193 120 117 193 120 110 189 113 95 181 98 95 181 98 95 181 98 82 156 85 
86 164 89 97 184 100 0 0 0 0 0 0 0 0 0 89 169 92 77 147 79 82 156 85 81 154 83 
82 156 85 75 143 77 72 139 74 46 79 47 45 73 46 46 74 47 33 63 34 31 61 32 
31 61 32 29 57 30 28 54 29 28 55 29 29 57 30 31 60 32 28 55 29 23 44 23 
16 31 16 19 37 19 18 36 19 39 75 40 54 105 57 74 142 77 85 162 88 93 178 96 
107 187 109 124 196 126 131 199 133 116 193 119 109 188 112 96 183 99 
95 181 98 95 181 98 95 181 98 95 181 98 95 182 98 82 156 85 75 142 77 
74 140 76 74 141 76 74 141 76 74 140 76 26 51 27 0 0 0 0 0 0 0 0 0 0 0 0 0 0 0 
0 0 0 119 194 121 117 193 120 115 192 117 95 181 98 95 181 98 95 181 98 
92 174 95 77 147 80 67 127 70 0 0 0 0 0 0 0 0 0 0 0 0 0 0 0 95 181 98 
95 181 98 95 181 98 76 144 78 74 141 76 79 150 81 64 120 65 40 65 41 46 74 47 
34 64 35 31 61 32 27 54 28 26 52 27 26 52 27 24 47 25 24 47 25 22 44 23 
15 30 15 13 25 13 29 57 30 44 84 46 54 103 56 75 142 78 96 180 99 100 183 103 
130 197 132 128 198 131 131 199 133 115 191 117 96 182 99 95 181 98 95 181 98 
95 181 98 95 181 98 94 180 97 89 169 92 74 142 77 74 140 76 75 143 77 
74 141 76 74 140 76 71 135 73 0 0 0 0 0 0 0 0 0 0 0 0 0 0 0 0 0 0 0 0 0 0 0 0 
113 191 116 117 193 120 116 193 119 113 189 116 109 187 112 95 181 98 
95 181 98 95 180 98 71 136 73 68 129 70 73 140 76 74 141 76 73 139 75 
82 157 85 86 164 89 0 0 0 95 181 98 94 180 97 84 160 87 78 149 81 79 151 82 
74 142 77 73 134 75 47 77 47 44 69 44 22 44 23 21 41 21 28 54 29 22 43 23 
18 34 18 13 26 14 40 78 41 49 93 50 55 104 56 78 148 80 99 183 102 95 181 98 
108 187 111 116 191 119 119 193 122 104 187 107 98 183 101 95 181 98 95 181 98 
95 181 98 95 181 98 87 165 89 79 152 82 77 147 80 81 154 83 76 144 78 
74 141 76 73 140 76 72 137 75 58 110 60 0 0 0 0 0 0 0 0 0 0 0 0 0 0 0 0 0 0 
0 0 0 0 0 0 0 0 0 97 184 100 108 189 111 117 193 119 115 192 118 105 185 107 
100 183 102 95 181 98 95 181 98 86 163 88 74 141 76 74 140 76 73 140 76 
73 140 76 74 140 76 74 141 76 77 147 80 94 180 97 0 0 0 95 181 98 89 169 91 
93 177 96 85 162 88 83 158 85 77 147 80 71 134 73 68 128 70 42 80 43 28 54 29 
39 75 40 64 120 66 79 151 82 81 156 84 78 149 81 90 172 93 100 183 103 
112 189 115 95 181 98 111 188 113 106 188 109 97 184 100 96 183 99 95 181 98 
95 181 98 95 181 98 96 182 99 81 154 83 74 140 76 73 140 76 73 140 76 
74 140 76 73 140 76 75 141 77 38 74 39 0 0 0 0 0 0 0 0 0 0 0 0 0 0 0 0 0 0 
0 0 0 0 0 0 0 0 0 0 0 0 0 0 0 0 0 0 97 184 100 110 190 113 119 194 121 
125 195 128 108 187 111 95 181 98 95 181 98 95 181 98 81 154 83 81 154 83 
85 161 87 76 145 78 78 148 80 75 144 78 79 151 82 75 143 78 81 154 83 
56 107 58 0 0 0 0 0 0 0 0 0 96 182 99 95 181 98 92 176 95 78 149 81 74 141 76 
74 141 76 85 161 88 96 182 99 97 184 100 96 183 99 95 181 98 102 184 105 
110 188 113 108 187 111 95 181 98 96 182 98 95 181 98 95 181 98 95 181 98 
95 181 98 91 174 94 78 149 81 73 140 76 73 140 76 73 140 76 74 141 77 
74 140 76 78 149 81 77 147 79 0 0 0 0 0 0 0 0 0 0 0 0 0 0 0 0 0 0 0 0 0 0 0 0 
0 0 0 0 0 0 0 0 0 0 0 0 0 0 0 0 0 0 0 0 0 120 194 122 118 191 120 134 199 135 
130 197 132 113 189 116 106 186 109 95 181 98 95 181 98 95 181 98 95 181 98 
95 181 98 95 181 98 97 184 100 96 182 99 87 167 90 81 154 83 76 145 79 
70 133 72 44 84 46 0 0 0 0 0 0 95 181 98 95 181 98 97 183 100 96 183 99 
97 184 100 95 181 98 95 182 98 95 181 98 95 181 98 95 181 98 99 183 102 
97 182 100 95 181 98 95 181 98 95 181 98 90 171 93 78 149 80 74 140 76 
73 140 76 73 140 76 73 140 76 72 138 74 67 128 69 52 99 53 26 51 27 0 0 0 
0 0 0 0 0 0 0 0 0 0 0 0 0 0 0 0 0 0 0 0 0 123 119 44 123 119 44 123 119 44 
124 120 44 125 121 45 114 111 41 84 83 29 67 67 22 0 0 0 0 0 0 255 255 255 
112 188 115 124 194 125 121 193 123 114 190 117 124 194 127 125 195 128 
99 183 102 95 181 98 84 160 87 71 137 74 86 162 88 83 158 86 96 183 99 
93 178 96 95 180 98 95 181 98 91 174 94 94 178 97 97 184 100 95 181 98 
95 181 98 79 150 81 0 0 0 0 0 0 97 184 100 95 181 98 95 181 98 95 181 98 
95 181 98 95 181 98 95 181 98 95 181 98 95 181 98 85 162 87 74 141 76 
73 140 76 73 140 76 73 139 75 67 128 69 0 0 0 0 0 0 0 0 0 0 0 0 0 0 0 0 0 0 
0 0 0 0 0 0 0 0 0 0 0 0 0 0 0 0 0 0 0 0 0 0 0 0 123 119 44 123 119 44 
123 119 44 124 120 44 125 121 45 114 111 41 84 83 29 67 67 22 0 0 0 0 0 0 
0 0 0 0 0 0 204 232 205 116 191 119 123 194 125 121 192 123 111 188 114 
92 174 95 74 140 76 69 131 72 57 108 59 56 105 57 0 0 0 0 0 0 0 0 0 87 165 89 
91 172 93 94 179 97 95 181 98 95 181 98 95 181 98 86 163 88 67 128 69 
0 0 0 0 0 0 0 0 0 0 0 0 95 181 98 95 181 98 95 181 98 95 181 98 95 181 98 
95 181 98 74 142 77 61 116 63 58 111 60 62 118 64 95 181 98 0 0 0 0 0 0 0 0 0 
0 0 0 0 0 0 0 0 0 0 0 0 0 0 0 0 0 0 0 0 0 0 0 0 0 0 0 0 0 0 0 0 0 0 0 0 0 0 0 
123 119 44 123 119 44 123 119 44 124 120 44 125 121 45 114 111 41 84 83 29 
67 67 22 
