P3
64 64
255
96 97 91 97 98 91 99 100 90 100 101 91 100 101 92 102 104 94 107 109 95 
113 114 97 119 119 99 120 119 95 116 114 85 119 117 84 130 129 93 133 132 94 
129 127 86 131 129 84 141 138 90 150 147 98 158 157 106 161 161 110 
160 160 108 159 159 107 158 159 106 157 158 105 155 155 102 156 155 103 
158 158 107 159 159 108 159 158 106 159 159 107 160 161 109 160 161 110 
160 160 109 160 159 108 160 160 109 160 160 109 159 160 108 160 161 109 
162 162 110 162 162 110 162 162 111 161 161 110 160 160 109 161 161 110 
165 165 114 165 166 115 162 163 113 157 157 109 148 147 101 142 140 97 
137 135 94 131 129 91 124 123 86 130 129 93 148 146 113 147 146 116 
127 128 102 117 119 97 117 118 99 117 118 102 118 119 106 107 108 99 
84 85 82 74 75 75 95 97 92 96 97 91 97 98 90 96 96 88 94 94 85 97 97 86 
104 105 90 111 112 94 119 118 97 121 119 94 117 115 86 120 118 85 129 128 92 
132 131 92 130 128 86 133 131 86 142 139 92 150 147 97 156 155 104 159 158 107 
159 159 107 158 158 106 156 156 104 155 155 102 155 154 102 156 155 103 
158 158 107 159 159 108 159 158 106 159 158 106 160 160 109 160 161 109 
159 159 108 160 159 108 160 160 109 160 160 109 158 159 107 159 159 107 
161 161 109 162 162 110 162 162 111 162 162 111 161 161 110 161 162 111 
164 164 113 164 164 113 161 162 112 157 157 108 150 149 103 143 142 98 
137 135 93 137 135 95 144 143 104 155 154 116 169 167 132 162 161 129 
133 134 107 117 119 97 114 116 98 111 113 97 107 108 96 98 99 91 83 85 82 
76 78 78 95 98 94 94 96 93 92 93 90 88 87 83 83 79 71 86 82 70 97 95 79 
107 107 87 117 116 93 121 120 93 121 120 88 123 122 87 126 127 89 130 130 89 
133 131 88 138 135 89 144 142 94 149 147 97 152 150 98 154 153 100 157 156 104 
157 155 104 152 150 98 151 149 97 154 151 100 157 154 103 159 158 106 
159 158 107 158 157 105 158 158 105 160 160 107 160 160 107 158 158 105 
158 158 106 161 161 110 161 161 110 157 157 105 156 156 104 159 159 108 
161 161 110 161 162 111 162 163 112 163 164 113 162 164 113 162 162 110 
160 161 109 159 159 108 156 157 107 152 153 106 146 145 100 136 134 91 
149 148 106 186 186 144 208 208 166 215 214 172 194 193 156 147 147 118 
119 120 97 109 113 94 97 101 87 85 86 75 79 80 72 80 84 81 81 85 84 102 104 99 
100 102 98 96 97 95 91 91 87 86 83 74 88 84 70 97 95 77 107 106 84 117 116 91 
123 123 94 127 126 94 128 127 91 126 126 87 129 129 87 137 135 91 143 140 94 
146 144 96 148 146 96 149 147 94 152 149 96 155 154 101 155 154 102 
152 150 98 152 149 97 155 152 101 157 155 103 158 156 105 158 157 105 
158 158 106 159 158 106 160 159 107 159 159 106 157 157 104 158 158 105 
161 161 110 161 161 109 156 156 104 156 156 104 159 159 108 161 161 110 
160 160 109 161 162 110 162 164 113 162 164 113 161 161 109 159 160 108 
158 159 107 157 158 107 155 156 108 149 148 103 138 136 92 151 149 107 
188 188 146 209 209 168 213 213 170 192 191 153 146 145 115 120 121 97 
116 119 98 103 106 89 81 82 70 73 74 67 80 82 78 82 86 83 117 117 108 
114 115 107 109 111 105 106 108 101 104 105 93 104 104 88 105 104 85 
110 109 87 118 119 92 126 127 97 134 134 102 135 133 99 128 125 86 130 127 85 
141 140 95 147 146 99 148 146 96 148 146 94 149 145 92 150 147 93 152 151 97 
154 154 101 157 156 103 158 157 105 158 156 104 157 155 104 156 154 102 
157 156 104 159 159 108 160 160 109 160 159 108 159 158 107 157 156 105 
158 157 106 160 160 109 160 160 108 156 157 105 157 157 106 162 162 111 
162 162 111 158 158 105 157 157 105 160 161 110 162 163 112 161 162 111 
161 161 110 160 161 109 159 160 109 157 158 109 152 151 105 142 141 97 
142 141 99 150 150 110 157 158 120 165 164 128 155 154 121 129 128 100 
123 122 96 136 136 110 127 127 105 96 96 84 81 80 73 80 80 74 80 80 74 
117 117 107 115 116 107 112 113 107 109 111 103 108 110 97 108 109 92 
109 108 89 113 112 89 120 120 93 127 128 98 136 135 104 137 135 101 
131 127 89 133 130 87 143 142 97 148 147 100 148 146 96 149 146 94 150 147 93 
151 148 94 151 150 96 153 153 99 157 157 103 158 158 105 158 156 104 
157 155 103 155 154 102 155 155 103 158 157 106 158 158 107 158 157 106 
158 156 105 157 156 105 157 156 105 159 158 106 159 159 107 157 158 106 
158 159 107 160 160 109 160 159 107 156 155 102 155 155 102 157 157 105 
158 159 107 159 159 108 159 159 108 159 160 108 160 160 109 160 160 111 
158 158 111 153 152 108 145 144 103 133 134 94 130 130 94 136 135 102 
133 132 101 121 120 93 122 121 95 137 135 108 131 129 106 103 102 89 
87 86 78 81 81 74 79 78 72 102 103 97 103 104 98 103 105 100 101 102 95 
96 96 84 99 97 82 108 108 88 115 115 92 121 120 93 126 125 95 131 130 99 
134 133 99 134 133 96 137 136 95 143 141 97 146 144 97 147 145 95 149 147 95 
152 150 98 154 151 98 153 150 97 152 150 97 152 151 98 153 152 98 154 153 99 
155 154 101 156 155 102 155 154 102 153 152 99 153 151 99 154 153 101 
155 154 103 156 155 103 156 155 103 156 155 103 157 157 105 159 160 109 
159 160 107 155 154 101 153 152 99 154 153 100 154 153 100 153 152 99 
153 151 99 154 152 100 155 153 101 156 155 103 159 158 107 164 163 114 
168 167 120 170 170 125 160 160 118 139 138 98 127 126 90 127 126 93 
125 124 94 122 122 94 120 119 94 120 117 93 114 111 90 102 102 85 92 92 81 
83 84 77 79 80 75 91 92 89 91 92 89 93 95 91 92 93 87 90 89 79 95 93 78 
106 105 86 114 113 91 120 118 92 125 123 94 128 127 96 132 131 97 136 135 98 
139 138 98 141 140 96 144 142 95 148 146 96 151 149 97 153 151 99 154 152 99 
154 151 98 153 150 97 151 149 96 151 150 96 153 152 98 155 154 100 157 156 103 
156 154 102 152 150 97 151 149 96 153 152 99 154 153 101 155 154 102 
154 153 101 153 152 100 154 153 101 157 158 105 157 157 105 154 153 100 
154 152 99 156 155 102 156 155 102 154 152 99 153 151 98 154 152 100 
154 152 100 155 153 101 157 156 105 163 162 112 166 165 118 167 167 122 
158 157 115 139 137 98 129 126 90 125 124 92 123 123 94 122 122 95 118 117 93 
110 108 87 104 101 82 98 97 80 90 90 78 80 80 74 76 75 73 82 82 81 82 82 80 
81 82 78 84 85 78 90 90 80 96 95 82 102 100 83 109 107 86 117 116 91 
123 122 94 126 125 95 130 129 95 135 133 95 138 136 95 139 137 93 143 141 95 
151 148 100 154 151 101 152 150 98 153 150 97 154 151 98 155 152 99 153 151 98 
153 152 98 154 153 99 156 155 101 158 157 104 158 156 104 155 152 100 
154 151 98 155 152 100 154 153 100 153 152 99 152 151 98 150 149 96 150 149 96 
150 150 97 153 152 99 158 157 104 160 159 107 161 160 108 160 160 108 
158 158 105 158 157 105 159 158 107 158 157 105 156 155 101 155 154 101 
157 156 106 153 152 105 144 144 98 139 137 94 136 133 93 133 131 95 131 130 99 
127 127 100 122 122 96 116 115 92 109 107 88 101 98 82 90 88 75 81 78 69 
73 69 66 70 65 64 81 81 80 81 81 79 80 80 77 83 83 77 90 90 79 96 95 81 
100 98 81 107 105 84 117 115 91 122 121 94 125 124 94 128 127 93 134 132 93 
137 135 93 139 137 93 144 141 95 151 148 100 154 152 101 154 152 100 
154 152 99 154 152 99 154 152 99 154 152 99 155 153 99 155 154 100 156 155 101 
158 156 103 158 155 103 156 153 101 154 152 99 153 151 98 154 152 99 
156 155 102 161 160 108 169 168 117 168 167 116 159 158 106 156 155 102 
159 157 105 160 159 107 160 159 107 160 159 107 159 159 107 160 160 108 
161 161 110 161 160 108 157 156 103 155 154 101 154 153 102 148 147 99 
138 137 91 133 132 89 134 131 91 134 132 96 134 134 103 131 131 104 
125 125 99 118 117 95 109 108 90 101 99 84 92 90 78 82 79 71 72 67 64 68 62 61 
88 88 87 88 88 86 89 89 86 89 88 82 90 87 76 94 91 76 102 99 81 110 108 86 
118 116 92 123 122 94 124 123 93 127 126 92 132 131 93 137 135 94 142 140 96 
145 143 97 147 146 96 151 150 98 157 156 104 157 157 104 153 152 99 152 150 97 
154 151 98 156 153 100 156 154 101 156 154 101 155 152 100 155 152 99 
155 154 101 154 152 99 149 147 93 153 150 97 164 162 110 183 181 131 
209 208 162 210 209 162 184 182 132 166 164 112 157 154 102 153 150 98 
154 152 99 156 154 102 158 157 105 160 159 108 161 160 109 160 159 108 
159 158 105 156 155 103 154 153 102 151 150 101 147 146 102 141 140 99 
133 131 92 131 129 93 135 134 103 135 135 106 132 130 104 124 122 99 
110 110 92 104 103 89 103 103 90 95 93 84 77 75 71 70 66 65 92 92 90 93 92 90 
94 94 91 95 94 88 95 93 82 97 95 80 102 100 81 109 107 86 119 117 92 
124 122 95 124 123 92 127 126 92 133 131 94 138 136 96 143 142 98 146 144 98 
146 144 95 149 148 97 156 155 104 157 157 105 153 153 100 153 152 99 
156 154 101 157 155 103 157 154 102 155 152 100 152 149 96 155 153 100 
164 163 111 169 167 115 169 166 115 174 172 121 185 183 134 205 203 156 
232 231 187 227 225 181 189 187 138 165 163 111 154 151 99 150 147 95 
152 149 96 154 151 98 155 153 101 157 155 103 158 157 106 159 158 107 
158 157 105 157 156 105 155 155 104 154 154 106 153 153 109 147 146 106 
134 133 95 131 129 94 137 136 103 137 136 107 132 130 104 123 122 100 
111 111 94 107 107 93 110 110 97 101 101 91 81 79 74 71 69 67 92 92 90 
93 93 91 95 95 92 99 99 94 106 106 97 107 106 93 102 99 82 106 102 82 
118 116 92 125 123 96 126 124 92 129 127 92 135 134 98 139 139 100 142 142 99 
145 144 98 146 144 97 148 145 96 151 149 97 154 152 99 157 155 102 159 157 105 
160 160 108 160 160 107 157 155 102 154 151 98 149 146 94 159 156 104 
182 180 130 200 198 150 211 209 162 218 217 171 221 220 175 227 226 182 
236 235 192 219 217 172 175 173 122 152 150 97 152 149 96 152 149 96 
154 152 98 153 151 97 150 147 94 150 147 95 155 153 101 157 156 104 
156 154 103 157 155 105 158 159 111 158 159 114 156 156 114 150 149 110 
138 137 100 135 134 98 141 138 105 138 135 105 126 124 98 117 115 95 
112 111 96 110 110 97 112 113 99 103 103 92 82 81 76 73 70 68 90 91 89 
92 93 91 98 98 94 104 104 98 112 112 103 112 110 98 102 99 83 104 100 81 
116 114 92 123 122 95 125 123 92 129 127 93 135 134 99 139 139 102 142 142 100 
144 143 99 146 144 98 148 145 97 150 148 96 153 151 98 157 155 103 160 158 106 
160 161 109 159 160 107 156 154 101 158 155 102 166 163 113 181 178 129 
202 200 153 217 215 169 226 224 179 228 227 182 224 223 178 226 225 180 
234 233 190 216 215 169 172 170 119 151 148 95 153 150 97 155 152 99 
157 156 102 155 154 100 150 147 94 150 146 93 153 151 99 154 153 101 
154 152 100 154 152 102 154 154 107 153 154 109 151 151 110 149 149 110 
148 147 110 146 145 109 145 143 108 136 134 103 119 117 92 109 107 88 
105 104 89 108 107 94 116 116 102 110 110 98 88 87 82 78 77 75 86 87 87 
91 92 90 102 102 97 109 109 101 113 111 100 111 108 95 103 101 85 104 101 84 
113 110 91 120 117 94 124 121 92 128 126 94 134 132 99 138 137 101 141 140 100 
144 143 100 148 146 100 150 148 100 153 150 100 154 152 101 155 153 101 
156 154 102 157 156 104 156 155 103 152 150 97 168 165 114 203 202 154 
222 221 175 223 222 178 221 219 174 213 211 165 204 202 155 193 192 144 
201 200 152 226 226 180 220 219 173 180 179 129 159 158 106 157 156 103 
157 156 103 161 160 108 160 159 107 156 154 101 154 151 98 153 151 98 
152 150 98 151 149 98 148 146 96 144 141 93 140 138 93 138 137 95 145 145 105 
162 162 124 164 163 127 150 149 115 133 131 101 113 111 85 99 97 76 92 90 74 
99 98 84 122 121 105 121 122 109 99 100 94 89 90 87 85 88 87 90 92 90 101 102 97 
107 106 98 107 104 95 106 104 92 105 103 89 107 105 89 113 110 92 118 115 94 
122 119 93 127 124 94 132 130 98 136 135 100 139 138 100 143 141 100 
146 145 100 150 148 100 153 150 102 154 152 102 154 152 100 154 153 100 
155 154 102 154 153 100 151 149 95 173 171 120 221 220 174 241 240 197 
233 232 188 223 222 177 212 210 164 200 198 150 186 185 135 194 193 144 
223 222 176 220 219 173 185 184 135 165 164 113 160 159 106 158 157 104 
160 159 107 160 158 107 157 156 103 155 154 101 155 152 100 152 150 98 
148 146 96 144 141 93 139 135 89 135 131 87 131 129 88 139 138 99 158 157 120 
160 159 124 145 144 111 128 127 98 111 109 85 98 96 76 89 87 72 95 93 80 
114 114 101 115 115 105 97 97 92 88 88 86 90 91 89 92 93 90 96 96 93 97 96 92 
94 92 87 97 96 88 107 107 94 113 113 97 114 114 96 117 115 95 121 118 93 
125 122 94 129 129 97 133 133 99 137 136 99 140 138 99 143 141 98 146 144 99 
150 148 100 153 150 101 155 152 102 156 154 102 156 154 102 155 153 100 
153 150 97 174 172 122 220 218 173 238 237 194 229 228 185 224 223 179 
222 220 175 214 213 167 202 200 153 204 203 156 223 222 176 217 216 170 
187 186 136 168 167 115 161 160 108 157 156 103 155 153 101 154 152 100 
154 152 100 155 154 101 157 156 103 154 153 101 146 144 95 141 139 92 
141 137 93 137 134 92 131 129 90 130 128 92 134 132 98 134 132 100 129 128 99 
122 121 96 114 112 92 105 103 87 96 95 82 93 92 82 94 94 88 90 89 86 81 78 76 
77 72 71 90 91 88 91 91 88 91 92 89 90 91 88 87 87 84 93 92 87 107 106 95 
115 114 99 117 116 98 119 119 97 123 121 97 126 125 98 130 130 100 133 133 101 
136 135 100 139 137 99 141 139 99 144 142 99 148 146 100 151 149 101 
153 151 101 154 152 100 153 151 98 155 153 100 160 158 105 179 178 128 
214 213 167 230 229 185 228 227 183 227 226 182 229 228 183 218 217 172 
197 195 148 198 196 148 220 219 174 220 219 174 198 197 148 179 178 127 
164 163 110 156 154 101 154 152 99 153 151 99 153 151 100 153 152 100 
153 153 100 151 150 99 145 143 95 141 139 94 141 138 95 137 134 94 130 127 90 
125 123 88 122 120 88 120 118 88 118 117 90 115 114 92 112 111 94 107 106 92 
99 98 86 91 90 82 84 83 80 78 76 76 75 71 70 74 69 67 87 87 83 87 88 84 
87 89 86 87 89 87 87 88 86 92 91 88 103 101 93 112 109 96 121 118 99 
126 124 101 129 128 104 131 131 105 134 135 105 136 136 104 137 136 102 
138 137 100 141 140 100 144 142 101 147 146 102 149 147 101 150 147 99 
149 146 96 146 144 91 153 152 99 172 170 120 189 188 139 204 203 157 
218 217 171 228 227 183 233 233 189 233 232 188 213 212 165 173 171 120 
174 172 121 215 214 169 230 229 186 219 217 172 198 197 149 168 167 115 
154 153 99 158 156 103 158 156 104 153 152 102 149 148 97 144 143 92 
143 141 91 145 144 97 144 143 98 139 138 95 134 132 92 128 126 89 124 121 88 
123 120 88 118 116 88 112 110 86 108 107 87 107 107 91 103 103 90 98 96 85 
91 88 81 82 80 77 79 76 75 79 76 75 79 76 75 86 85 81 86 86 82 85 86 83 
87 88 86 92 92 89 103 101 95 120 118 105 132 129 112 140 137 114 140 138 113 
132 132 108 130 130 106 133 133 105 135 134 104 136 135 102 136 135 100 
137 136 98 140 138 98 144 143 101 147 146 101 149 146 100 149 146 98 
147 144 94 157 155 104 179 178 129 196 195 147 206 205 159 217 215 170 
228 226 182 233 232 188 232 231 187 213 212 165 175 174 123 172 171 119 
203 202 155 222 220 176 228 226 182 212 210 164 173 172 121 155 154 101 
159 157 104 158 156 105 153 152 102 148 147 97 142 140 91 140 138 91 
143 141 96 141 140 97 135 135 94 130 129 91 126 123 88 123 120 88 121 118 89 
117 114 88 109 107 84 104 103 84 102 103 88 100 100 88 95 94 85 94 92 85 
96 93 87 93 91 86 87 85 82 84 82 80 86 85 80 86 85 80 85 85 81 90 90 84 
101 99 90 124 122 107 159 157 133 176 175 146 175 173 145 161 159 132 
134 133 109 123 121 98 127 125 99 130 128 100 132 132 100 132 132 98 
130 128 92 132 130 92 139 138 97 145 144 101 150 148 104 153 152 106 
156 154 106 165 164 115 183 182 134 201 200 153 219 218 173 227 226 182 
226 224 179 225 224 179 226 225 181 219 218 173 204 203 155 192 191 142 
183 182 132 194 193 145 224 223 178 220 218 173 180 178 129 159 157 105 
157 155 103 155 153 102 152 151 100 149 148 99 146 145 98 143 140 96 
138 136 94 133 131 92 129 128 90 126 124 89 123 120 88 121 118 87 119 116 88 
115 113 88 109 108 86 104 103 85 100 99 84 96 95 85 92 91 86 101 100 94 
123 122 110 123 121 109 99 97 93 88 86 85 84 83 78 85 84 79 86 85 81 95 94 87 
112 110 98 137 135 116 170 168 142 183 182 152 177 176 147 161 160 133 
134 132 109 123 120 98 127 124 100 130 127 101 130 128 99 130 129 97 
131 130 95 134 131 95 137 135 96 142 140 99 147 146 104 155 154 110 
164 162 117 174 172 126 185 184 137 202 201 155 226 225 181 229 228 184 
213 211 166 211 209 164 223 222 177 224 223 179 214 213 167 197 196 148 
174 172 122 181 180 130 221 220 175 223 222 178 190 187 139 168 165 115 
157 155 105 153 151 101 153 152 104 151 150 104 148 146 102 142 140 99 
135 134 95 130 128 92 127 125 90 125 122 89 124 121 90 122 120 90 119 117 91 
116 114 91 113 112 90 107 106 88 99 96 83 93 91 82 90 89 85 100 99 94 
122 121 110 122 121 109 99 98 93 88 87 86 79 79 75 81 81 78 86 87 85 100 101 96 
124 124 113 142 141 124 153 150 131 155 152 130 148 145 121 141 138 114 
133 130 108 131 128 106 135 132 109 134 131 106 128 125 99 131 128 99 
142 140 107 144 142 106 139 135 98 138 134 95 142 140 99 153 152 109 
171 170 127 183 181 137 187 185 139 202 200 154 227 226 182 223 222 178 
190 189 142 189 188 142 222 221 176 228 227 182 207 206 159 189 188 139 
174 172 122 183 182 133 217 216 171 223 222 178 202 199 153 180 177 131 
160 157 110 152 150 104 157 155 112 155 153 111 145 143 102 139 137 97 
136 135 98 133 131 97 128 126 93 127 124 92 129 126 95 127 125 97 122 121 96 
120 119 96 121 118 98 113 110 94 98 95 83 90 88 80 89 88 84 90 89 86 92 90 86 
91 90 86 86 87 84 84 85 83 75 75 72 79 79 77 89 90 88 105 106 101 126 127 116 
135 135 121 132 130 117 128 125 111 123 120 103 124 121 102 130 127 108 
134 132 111 137 134 112 133 130 108 124 120 96 129 125 99 149 146 114 
152 149 115 139 135 100 134 130 93 137 134 95 150 148 107 172 171 129 
184 183 139 184 183 138 198 196 151 225 224 180 223 222 177 190 189 143 
190 189 143 222 221 177 226 225 181 201 200 154 184 183 135 174 172 124 
184 182 135 214 213 168 222 220 177 208 206 161 187 185 140 159 157 113 
148 146 103 154 152 111 153 151 111 146 144 105 144 142 104 145 144 108 
141 139 105 130 127 96 126 123 93 127 124 96 127 125 98 125 124 100 
127 125 103 131 128 107 121 117 100 95 92 82 82 80 75 83 82 78 80 80 77 
75 72 72 73 72 72 77 78 76 79 81 79 71 71 69 78 78 76 95 95 91 109 108 102 
118 118 108 117 118 107 106 106 100 102 101 95 103 101 93 111 109 98 
126 125 109 134 132 113 134 132 112 129 126 105 118 114 92 126 122 97 
153 149 118 157 153 120 138 135 101 130 127 93 132 130 93 144 143 104 
166 165 124 177 177 134 178 177 134 192 191 147 220 219 175 228 227 183 
214 213 169 213 212 168 224 224 179 219 218 174 198 197 151 183 182 136 
175 173 127 184 182 136 211 209 165 219 218 173 210 207 163 189 187 143 
157 155 113 142 140 99 143 141 101 146 144 106 151 149 112 156 154 118 
162 159 123 154 151 118 133 130 101 121 118 92 119 116 91 122 119 95 
130 126 104 138 134 112 145 142 119 129 126 108 89 86 80 70 68 67 72 71 69 
72 71 69 70 67 66 70 67 67 72 71 70 73 73 72 74 74 72 81 81 78 97 96 90 
107 105 98 111 110 101 106 105 97 91 91 87 87 86 84 93 91 88 102 101 95 
116 115 103 125 124 108 130 128 110 127 124 105 115 112 92 122 118 95 
147 143 114 151 147 116 134 131 100 126 124 92 128 126 93 139 137 102 
160 158 120 171 170 130 173 173 131 189 189 146 219 218 174 232 231 187 
228 227 183 223 221 178 214 213 169 205 203 159 194 193 148 183 182 137 
172 171 126 180 178 134 207 205 161 217 215 171 211 210 166 191 189 146 
154 153 112 135 133 95 133 131 94 136 135 99 146 144 110 156 154 120 
165 162 127 157 154 122 132 129 102 117 115 92 113 112 90 118 116 95 
132 128 107 139 135 115 139 138 117 123 121 106 89 86 80 75 72 70 80 79 74 
78 77 72 69 67 64 66 64 62 69 67 66 71 69 67 84 85 82 87 87 83 93 92 86 
99 97 89 104 101 94 100 97 90 85 83 78 83 81 77 92 90 88 97 96 93 100 97 91 
109 106 96 124 123 107 127 125 107 116 114 95 118 115 94 131 128 103 
135 131 104 127 125 96 124 122 93 124 123 93 133 132 101 152 150 115 
164 163 125 170 170 131 189 189 148 221 220 177 235 234 190 232 231 187 
218 216 173 192 189 146 182 179 137 190 187 143 185 183 139 167 166 123 
173 172 130 201 200 157 215 214 170 214 213 169 193 191 149 151 150 111 
128 126 90 124 122 87 125 123 90 133 132 99 143 141 109 155 152 120 
150 147 117 127 124 102 114 112 93 111 110 91 116 116 97 130 129 109 
130 128 112 114 115 103 102 102 94 93 91 84 95 92 84 108 105 94 101 98 88 
73 72 66 63 61 58 69 67 63 72 69 65 94 94 89 94 94 88 94 92 85 97 94 86 
103 100 92 100 96 89 85 82 77 82 80 76 91 89 87 94 92 90 91 89 85 101 98 91 
123 122 107 129 128 109 117 116 98 114 111 93 119 115 94 121 117 94 120 118 92 
120 119 92 121 120 94 130 129 101 148 147 114 160 158 123 164 163 127 
184 183 145 220 219 176 235 234 190 231 230 186 205 204 163 157 155 119 
140 138 104 155 153 117 163 161 124 165 164 125 180 180 139 208 208 165 
218 217 173 209 208 165 185 184 143 147 145 108 125 122 89 119 117 85 
119 116 86 123 122 92 131 130 100 143 140 110 139 136 109 119 117 97 
109 108 91 109 108 91 113 112 96 122 121 105 117 116 104 98 98 92 90 90 86 
94 91 85 101 97 88 111 107 95 103 100 88 76 74 68 67 65 60 73 70 65 77 73 67 
104 103 94 102 101 92 98 96 88 100 98 89 108 105 95 105 102 94 91 89 85 
86 84 82 90 88 84 92 89 85 91 88 84 102 100 92 127 125 109 132 131 112 
119 116 99 111 108 91 108 105 88 109 106 87 113 110 88 116 114 91 119 117 94 
130 128 102 149 147 116 157 155 121 154 152 119 174 172 136 215 214 172 
232 231 187 224 224 181 184 184 148 111 110 87 79 78 61 89 88 69 118 117 93 
166 165 132 203 202 162 228 227 183 226 225 181 197 195 154 168 166 129 
140 138 105 124 122 91 119 116 88 117 114 87 117 115 89 122 119 93 130 126 99 
126 122 98 109 107 89 103 101 86 107 105 90 108 106 93 107 105 95 101 99 92 
91 88 84 88 84 81 92 88 82 93 88 81 89 85 77 84 81 73 78 74 69 78 74 69 
83 79 72 85 81 74 120 118 105 114 113 100 102 100 90 99 97 88 105 103 94 
104 102 94 96 94 90 93 91 88 95 93 86 95 92 85 92 90 85 100 98 91 119 117 104 
124 121 105 113 110 96 106 103 90 101 98 85 103 100 85 113 109 91 117 114 93 
116 113 92 123 121 98 140 138 110 149 147 116 150 147 116 164 162 128 
191 190 153 211 211 170 224 224 181 184 184 149 91 92 74 51 51 41 62 62 50 
101 101 82 166 165 135 205 204 166 217 216 175 206 205 165 172 170 134 
147 145 112 131 129 100 121 119 92 117 114 89 114 111 87 112 109 86 112 108 86 
114 110 87 111 108 87 102 100 84 103 101 87 114 111 96 114 111 98 102 100 92 
93 90 85 85 81 78 84 79 76 87 82 78 86 81 75 78 74 67 76 72 66 79 74 70 
82 77 72 85 79 73 86 80 73 142 141 122 130 129 113 105 103 93 94 91 84 
96 93 87 98 96 90 102 99 92 105 102 94 106 104 94 103 101 92 95 93 89 94 91 88 
100 96 89 103 98 90 101 98 89 99 96 87 96 94 85 103 101 89 120 116 99 
122 119 100 111 109 90 111 109 89 122 119 97 135 132 106 150 147 118 
154 153 121 148 148 117 174 173 139 230 229 186 205 205 166 99 99 80 56 56 44 
74 75 60 111 111 90 166 165 134 187 186 151 176 175 141 158 157 125 
134 132 103 121 118 93 118 116 93 115 113 92 112 110 89 109 107 86 107 103 84 
103 99 80 97 93 76 95 92 76 97 96 82 109 108 93 130 128 109 130 127 111 
108 107 97 92 90 84 82 78 73 78 73 69 80 75 72 80 75 71 78 72 67 78 72 67 
80 74 70 81 74 70 80 72 67 80 72 65 142 141 121 134 131 114 114 111 99 
102 99 90 97 93 87 101 98 91 115 112 100 119 117 103 115 113 100 108 106 95 
98 96 90 94 91 87 96 91 85 97 92 85 98 95 87 100 98 89 103 102 91 111 110 97 
126 122 105 124 120 103 107 104 88 102 100 85 110 108 92 125 122 102 
145 143 116 141 139 112 112 112 89 126 126 101 183 182 148 169 169 137 
85 85 69 54 54 43 76 76 61 99 99 80 123 123 100 132 131 106 126 125 100 
119 117 93 110 108 85 108 105 84 111 109 89 111 109 91 107 105 87 105 102 85 
104 100 84 100 96 81 94 92 77 94 92 78 99 98 85 110 108 95 127 123 107 
125 121 107 104 102 94 90 87 82 80 76 72 80 75 71 88 84 79 91 87 81 89 84 77 
87 81 74 84 78 73 81 76 71 79 73 68 79 71 66 122 118 102 124 120 104 
129 126 110 124 121 106 108 105 94 112 109 97 134 132 114 137 135 117 
122 119 104 110 107 96 101 99 91 100 96 89 105 100 92 107 102 92 104 101 92 
109 107 96 122 121 104 129 127 109 131 127 109 122 118 102 103 101 88 
98 96 86 105 104 95 118 117 104 136 134 112 124 122 100 82 81 66 69 68 55 
82 82 67 76 76 62 49 49 40 46 46 38 67 67 55 65 65 53 38 38 31 39 39 32 
68 68 55 88 88 71 99 98 79 106 104 85 109 107 89 107 105 89 101 100 84 
100 98 84 103 99 86 105 102 89 107 106 91 108 107 93 108 106 94 106 103 93 
104 98 89 98 93 86 91 86 84 85 81 80 80 77 74 89 86 80 112 109 98 119 117 103 
111 108 97 102 98 89 90 87 80 84 81 76 83 80 77 83 80 77 105 100 88 112 107 94 
125 122 106 123 121 106 106 104 93 110 108 96 135 133 115 140 137 119 
125 121 107 114 110 99 108 105 95 107 103 94 111 106 96 110 106 95 104 102 92 
110 109 96 129 127 108 135 132 112 128 125 107 117 114 100 103 100 90 
99 97 90 106 105 97 114 113 103 124 123 106 106 104 88 60 59 50 34 33 28 
26 26 21 22 22 18 22 22 18 35 35 28 60 60 49 49 48 40 0 0 0 0 0 0 34 35 29 
67 66 55 92 91 76 105 103 88 106 104 89 104 102 89 99 97 86 98 95 85 100 97 87 
105 102 92 113 112 99 119 119 104 123 121 107 117 113 101 101 96 88 94 89 84 
97 93 89 93 90 87 84 81 78 91 89 83 116 114 102 123 121 108 113 110 100 
102 99 91 90 87 80 84 81 76 82 81 78 82 81 79 93 88 79 96 91 83 102 99 90 
101 98 90 92 90 82 97 96 86 118 115 102 127 123 109 123 120 106 120 117 104 
117 114 103 115 111 100 113 109 98 107 104 93 98 96 87 103 102 90 124 121 103 
129 125 106 117 115 100 110 107 96 106 103 94 106 104 95 112 110 99 113 112 100 
110 109 97 88 86 77 46 44 39 21 20 17 14 13 12 8 8 7 4 4 3 19 19 15 54 54 44 
51 50 41 9 9 7 0 0 1 25 25 22 54 54 47 88 87 76 105 103 90 105 102 90 
103 100 90 100 97 91 97 95 90 96 93 87 101 98 90 114 111 100 129 126 111 
146 144 123 142 141 121 118 115 104 111 109 100 122 120 109 116 114 104 
91 89 84 86 84 80 100 98 92 102 101 94 93 91 86 87 84 80 83 79 75 79 76 72 
76 75 72 75 74 72 83 79 71 87 83 75 95 92 84 94 92 84 84 84 75 87 87 77 
103 100 90 114 110 99 118 116 103 119 117 104 115 113 103 111 108 99 
106 104 93 108 107 94 118 117 102 132 131 112 150 147 123 144 141 119 
114 112 99 99 97 89 98 95 88 100 97 90 106 104 93 106 104 94 100 97 90 
78 75 71 39 37 35 16 14 14 7 6 6 1 1 1 0 0 0 11 11 8 39 38 31 38 37 30 
9 9 7 4 4 4 22 22 21 50 49 46 87 86 79 104 102 93 100 97 90 96 94 88 94 92 89 
92 91 88 92 89 85 96 93 87 106 101 94 121 118 106 144 142 123 149 148 128 
137 135 120 140 138 122 157 156 134 154 153 131 129 127 112 111 110 99 
101 99 93 100 98 92 107 105 96 104 101 92 91 87 81 82 78 74 77 75 72 74 74 71 
75 73 63 84 81 72 103 100 90 103 102 90 83 85 72 79 81 68 89 88 78 100 97 88 
109 109 97 110 110 99 103 101 95 96 95 89 90 92 81 114 115 97 166 166 137 
197 196 160 208 205 168 182 179 148 119 118 103 85 83 78 79 77 72 80 77 73 
87 85 80 92 89 84 92 88 85 75 72 70 41 40 38 17 17 17 5 5 5 1 1 1 5 5 5 9 9 8 
13 13 10 10 10 7 1 1 0 6 5 5 25 25 24 53 52 50 88 88 84 101 100 97 92 90 88 
85 84 82 82 81 78 83 82 79 88 87 84 90 88 84 88 85 80 98 94 87 118 116 105 
138 136 121 157 155 134 178 177 149 201 200 165 207 207 169 196 196 162 
167 166 140 120 117 105 115 112 101 153 150 129 153 150 128 114 111 98 
91 88 82 83 82 79 80 79 78 78 78 64 87 86 72 106 105 90 104 105 89 82 86 69 
72 76 62 75 75 66 82 81 74 94 94 84 99 99 90 97 96 91 93 91 86 84 86 76 
110 112 94 169 169 139 200 199 163 204 202 165 176 174 146 118 117 104 
91 90 84 95 93 85 94 93 84 89 88 83 84 82 79 79 76 73 62 59 57 33 32 31 
14 14 14 6 6 6 5 5 4 11 11 10 10 10 8 1 1 0 0 0 0 0 0 0 5 4 4 20 19 19 
40 39 38 64 64 63 75 75 74 73 73 72 72 72 70 71 71 68 75 75 71 84 82 80 
88 85 82 88 83 80 94 90 85 108 105 98 131 129 115 163 161 138 189 187 156 
209 208 171 214 213 175 205 204 169 174 173 146 123 121 108 116 113 102 
153 151 129 153 150 129 115 112 100 92 90 84 85 84 81 82 81 80 89 94 74 
93 97 77 102 105 84 98 101 80 81 87 67 68 74 58 61 63 54 62 62 56 72 72 66 
84 83 77 99 97 89 100 98 90 88 88 78 98 98 85 129 128 109 142 140 120 
138 135 117 127 125 111 110 109 104 117 116 108 146 145 125 144 143 123 
112 110 102 84 82 79 62 60 55 38 37 33 15 15 13 5 5 5 10 9 8 14 13 11 17 16 14 
13 13 11 3 3 2 0 0 0 0 0 0 1 1 1 6 6 6 10 10 10 14 14 14 25 25 24 44 44 42 
56 57 53 61 63 57 69 69 64 78 77 74 90 86 83 103 98 92 112 106 97 116 111 100 
130 126 111 154 151 131 170 169 144 179 178 151 174 173 147 154 153 133 
133 131 117 110 109 100 101 100 93 107 106 97 104 102 95 92 90 86 85 83 80 
82 81 78 80 80 78 88 95 74 89 95 73 89 95 73 88 94 72 86 93 70 74 81 61 
52 57 46 48 50 44 60 60 55 79 77 72 105 103 93 116 115 102 113 111 97 
111 109 96 110 108 97 108 105 95 102 100 92 102 100 94 107 106 102 126 125 116 
158 157 137 150 148 129 101 100 92 65 63 60 40 39 35 22 22 18 12 11 10 
9 9 7 14 14 11 16 16 13 15 15 12 10 10 8 2 2 2 0 0 0 0 0 0 0 1 0 0 1 0 0 0 0 
0 0 0 7 7 7 22 22 21 39 40 37 59 60 55 72 72 67 79 76 73 91 87 83 108 104 96 
116 111 101 115 110 98 121 116 103 134 131 116 143 141 124 146 145 126 
139 138 121 122 120 108 110 108 99 102 100 94 95 93 89 88 87 85 84 83 82 
84 82 81 83 82 80 81 81 78 81 81 77 75 81 64 73 79 62 68 75 58 76 83 63 
97 105 78 88 96 71 49 57 41 40 45 35 60 59 53 85 82 75 117 116 102 141 140 121 
158 157 134 149 147 127 114 111 101 97 94 90 98 96 93 102 101 96 109 107 99 
119 117 107 130 129 120 110 109 101 56 56 51 25 24 22 15 14 12 14 13 12 
22 22 21 24 24 22 18 18 15 13 12 10 6 6 5 2 2 2 0 0 0 0 0 0 1 3 1 2 4 2 3 4 3 
10 10 10 23 22 22 22 22 22 7 7 7 21 21 20 63 62 60 84 82 79 85 82 78 91 88 82 
103 101 92 108 106 96 105 102 93 104 100 93 105 101 95 106 104 97 109 107 97 
110 108 97 110 107 95 106 103 92 100 95 89 96 93 89 95 95 92 93 93 91 89 89 87 
86 86 83 85 84 80 84 83 78 76 80 69 73 77 66 65 70 59 78 83 68 110 116 90 
108 114 87 70 78 58 60 65 52 77 76 67 97 95 85 120 120 104 139 139 119 
153 153 129 141 140 120 102 100 92 86 84 82 92 91 89 99 98 94 108 106 96 
112 110 100 112 111 106 86 86 84 36 36 33 8 7 6 2 1 1 6 5 5 19 19 18 22 22 20 
14 14 12 7 7 6 2 2 2 0 0 0 0 0 0 4 5 4 19 21 18 22 24 21 12 13 12 13 14 13 
26 26 25 24 23 24 7 7 7 22 22 22 70 68 68 92 90 88 89 86 82 91 88 82 98 97 89 
101 100 92 100 98 91 96 94 88 90 87 85 87 84 81 86 84 79 89 88 80 98 95 85 
100 97 88 97 93 88 96 92 89 95 94 90 93 92 89 89 88 86 86 85 83 85 84 79 
84 83 78 92 92 87 89 89 84 82 81 78 94 94 85 125 127 107 132 135 111 
116 118 97 109 110 92 112 113 98 114 115 101 116 116 101 110 111 95 97 99 83 
85 87 75 76 76 70 76 75 72 86 84 81 95 93 88 103 101 93 105 104 96 102 102 96 
80 80 76 39 38 37 13 12 12 1 1 2 0 0 0 3 3 3 4 4 4 1 1 1 1 1 0 2 2 2 0 0 0 
0 0 0 12 12 12 54 56 52 59 62 57 27 28 27 11 11 10 10 10 9 14 13 13 22 21 22 
43 43 44 78 78 78 94 94 92 90 89 85 90 88 82 95 92 85 98 95 88 99 98 92 
97 96 91 91 88 85 84 81 78 76 75 70 77 77 71 87 86 80 93 92 87 95 94 90 
93 91 88 86 84 80 83 81 77 83 82 78 83 81 78 81 79 77 81 79 76 96 95 93 
94 92 90 90 87 86 102 99 93 129 128 112 137 137 118 126 126 109 121 121 105 
121 122 107 118 119 104 111 112 97 97 98 84 75 78 65 65 67 58 67 68 62 
76 75 70 91 89 82 102 99 91 108 107 95 106 105 95 95 95 89 78 78 75 56 55 53 
36 35 34 20 20 19 12 12 12 13 13 13 11 11 11 6 6 5 5 5 4 9 9 8 9 9 8 5 5 4 
28 29 26 78 80 75 86 88 83 53 53 51 34 33 32 29 29 28 32 32 31 42 41 41 
57 57 57 78 79 78 84 86 82 75 77 71 75 76 69 83 82 75 90 88 82 95 94 89 
94 94 89 87 86 82 77 76 72 63 66 58 63 65 57 74 75 69 84 84 80 92 92 89 
92 91 88 84 81 78 80 77 74 81 79 76 81 80 77 81 79 77 81 79 77 87 88 85 
88 88 84 90 88 83 101 98 90 121 119 106 122 121 107 103 103 95 97 98 90 
105 105 94 107 109 94 106 109 91 99 102 85 88 88 76 80 80 71 76 77 70 85 86 77 
105 105 93 118 118 102 124 123 104 114 114 98 91 91 85 81 82 80 87 86 81 
79 78 72 58 57 54 48 48 46 50 50 49 44 43 42 28 27 25 21 20 18 21 21 19 
25 25 22 32 31 25 54 53 46 92 92 86 103 103 98 87 87 84 80 80 79 83 84 82 
79 79 77 68 67 65 65 64 61 70 70 65 63 66 58 43 51 40 43 51 41 64 67 61 
78 79 75 87 86 82 87 87 82 78 80 75 65 69 62 47 54 41 45 52 38 59 62 53 
74 74 69 90 88 85 95 92 90 87 86 83 83 82 80 81 81 79 82 81 80 84 82 81 
84 83 81 79 78 76 83 82 78 92 90 83 104 101 92 118 115 103 114 113 102 
94 93 88 89 88 84 98 98 88 102 103 89 103 105 88 100 101 86 93 92 81 87 86 78 
83 84 75 93 94 83 116 116 101 128 127 109 127 127 107 114 113 98 87 88 83 
83 83 81 100 100 92 100 99 90 82 80 76 73 72 70 75 74 73 68 68 66 54 53 51 
40 40 37 27 27 24 30 29 24 48 47 38 72 71 61 103 101 94 113 112 107 
103 103 100 101 101 100 106 106 104 101 101 98 85 83 80 75 73 69 71 71 66 
62 65 57 47 55 42 48 56 45 65 69 64 78 79 77 87 86 84 88 88 84 82 84 80 
68 74 65 48 57 42 44 52 37 56 60 49 72 73 66 92 91 86 99 96 93 90 89 87 
85 85 83 84 84 83 84 84 83 87 87 85 88 88 86 70 66 64 78 75 71 96 95 86 
109 109 97 118 117 105 115 113 102 100 97 90 95 92 86 101 99 89 103 102 90 
101 102 88 97 97 85 90 88 81 87 85 79 88 87 79 100 99 88 123 121 105 
129 128 111 118 118 104 103 104 95 84 85 82 82 82 79 96 96 86 99 99 88 
91 90 85 87 85 84 86 85 84 85 85 84 84 84 83 64 64 62 26 25 23 22 21 16 
53 52 42 81 81 69 109 108 99 115 114 109 100 99 99 95 94 95 98 98 95 97 96 92 
91 90 85 86 85 80 82 81 78 83 82 78 88 88 79 89 90 81 86 88 84 88 89 88 
95 95 94 98 98 96 97 98 94 87 89 82 67 73 59 59 66 51 64 67 58 77 78 72 
99 99 93 104 103 98 92 91 88 87 86 84 88 88 86 89 90 88 91 92 90 92 93 91 
75 71 68 82 80 75 99 99 89 109 110 98 112 112 100 110 109 98 102 100 91 
98 96 88 99 97 88 98 97 88 96 96 87 93 93 84 88 87 80 97 95 86 118 116 101 
133 131 112 141 139 119 133 132 114 109 109 99 92 92 87 82 81 79 85 85 81 
102 103 91 107 107 95 100 98 92 95 93 91 92 91 90 93 93 92 98 98 97 79 79 78 
36 35 33 28 28 23 56 56 47 82 81 72 105 104 97 110 109 105 96 96 95 92 91 90 
96 94 91 96 95 90 93 93 87 89 89 84 85 84 82 92 90 87 110 108 98 109 107 97 
88 89 83 82 84 81 93 94 91 102 102 98 109 108 103 103 103 96 85 88 76 75 78 67 
73 75 69 83 83 78 103 103 96 107 107 100 95 94 89 89 88 85 89 89 87 90 91 89 
92 93 91 93 94 93 92 92 87 95 96 89 102 103 94 104 104 94 100 99 90 100 98 89 
102 100 91 100 98 89 93 92 83 89 89 81 89 88 83 89 88 83 89 87 80 117 115 100 
174 171 142 191 189 155 171 169 140 140 138 118 99 97 90 79 77 75 80 78 76 
94 92 87 119 119 107 124 124 111 106 106 98 96 95 91 92 91 89 92 91 90 
96 95 95 84 84 83 56 57 55 48 48 45 59 57 54 73 72 68 91 91 88 97 97 95 
91 91 89 91 90 87 98 96 90 98 96 90 91 91 86 85 85 82 79 77 77 89 87 84 
114 113 101 107 108 94 69 72 62 60 64 56 81 83 75 99 101 92 116 116 107 
117 116 107 103 101 93 92 90 84 84 82 80 89 87 84 106 104 96 109 107 98 
98 96 90 91 90 86 88 88 86 88 88 87 89 91 89 90 92 90 97 98 92 99 99 93 
102 103 95 100 100 93 94 92 85 97 95 87 110 109 97 109 108 96 93 93 84 
87 87 80 91 90 85 93 92 88 93 93 88 121 121 108 176 175 148 189 189 158 
163 162 137 130 129 112 92 90 84 74 71 71 78 74 72 92 89 83 117 116 105 
120 120 109 101 101 94 92 91 87 92 91 88 92 91 88 92 90 88 85 83 82 72 71 69 
66 65 63 68 66 64 75 73 71 87 87 85 92 91 90 88 87 85 89 87 84 94 91 86 
97 95 89 97 97 92 97 97 92 97 96 91 103 101 94 114 114 101 98 100 86 55 60 48 
45 51 40 68 73 62 91 94 83 115 115 105 120 119 110 107 104 98 97 93 89 
89 86 84 91 88 85 103 100 92 106 103 94 100 98 92 94 93 89 89 89 87 86 86 85 
83 85 82 81 84 81 90 87 82 93 91 85 99 99 92 99 98 93 92 91 87 101 100 93 
127 125 110 127 125 109 100 99 89 92 91 83 103 102 92 106 106 98 103 104 102 
109 111 110 124 127 121 127 129 121 118 117 108 104 103 95 87 86 83 77 75 74 
74 70 67 80 75 71 94 93 85 95 95 87 85 82 78 84 81 78 93 92 86 94 92 86 
86 82 78 83 77 74 83 78 75 83 79 76 83 81 76 87 85 80 94 91 87 94 91 88 
88 85 85 85 82 82 85 82 79 93 92 86 109 111 103 125 127 116 140 138 123 
135 133 117 110 110 96 80 83 71 46 51 41 37 45 34 56 62 50 78 83 71 105 106 98 
112 111 104 99 98 91 91 89 83 87 86 82 89 87 82 96 92 84 99 96 88 99 98 95 
97 97 95 93 93 90 84 86 82 72 75 70 66 70 65 90 88 80 92 90 83 98 96 90 
98 96 91 93 91 88 101 100 93 123 121 108 123 121 107 102 100 91 106 104 94 
133 132 114 144 144 126 139 140 129 126 128 122 104 108 106 93 96 95 91 92 89 
89 88 85 84 85 83 83 83 81 86 83 78 87 84 77 86 86 77 82 81 73 73 70 66 
74 71 67 85 84 77 87 85 79 81 77 72 81 75 71 86 81 78 92 87 83 97 94 87 
98 96 89 96 93 88 94 91 87 93 90 87 88 86 83 81 79 76 90 90 84 118 119 109 
136 138 123 145 144 127 134 133 117 104 104 93 75 78 69 48 54 44 42 48 38 
56 61 51 73 77 67 94 95 88 99 98 92 87 87 80 81 81 75 80 80 76 83 82 77 
88 85 79 92 88 82 92 91 87 92 92 89 91 91 87 81 83 78 63 67 60 54 60 52 
98 98 85 97 97 86 96 95 87 96 94 88 96 94 89 97 95 89 97 97 89 98 98 90 
99 99 91 127 126 111 182 181 151 207 206 170 202 202 169 171 172 147 
115 116 103 86 88 81 84 86 80 83 85 81 84 85 84 93 94 92 112 113 106 
112 113 102 94 94 83 78 78 68 65 65 58 61 61 55 66 66 60 71 71 65 76 75 70 
79 78 74 82 80 77 92 89 84 109 105 96 110 106 97 94 92 88 91 91 86 103 102 92 
100 99 89 81 81 77 89 89 83 122 121 108 130 129 115 113 113 102 102 102 94 
95 97 92 82 86 80 62 67 59 57 61 53 69 70 63 77 76 71 81 80 76 80 79 74 
71 73 67 68 70 64 68 70 65 73 74 69 82 81 76 83 81 76 78 75 70 78 76 71 
83 83 79 75 78 73 55 61 53 45 53 43 101 101 88 100 99 87 95 93 85 97 94 87 
103 101 93 100 99 90 85 87 79 84 87 78 96 97 90 128 128 113 179 179 147 
200 201 162 192 193 155 160 162 131 105 107 88 79 81 69 82 85 74 86 88 80 
90 92 89 101 103 100 118 121 115 116 119 110 93 96 85 76 78 69 64 66 60 
62 63 57 68 68 62 75 75 68 82 83 77 84 85 80 82 82 78 91 89 84 110 107 97 
110 108 97 91 91 85 88 89 83 101 102 90 99 99 88 81 82 77 85 85 80 111 109 98 
113 111 99 91 90 83 82 83 79 87 89 85 84 87 82 73 77 69 70 72 65 76 74 70 
78 75 72 76 75 71 71 71 67 62 65 59 59 63 57 62 65 60 68 70 65 77 77 73 
78 76 72 70 68 62 69 68 62 75 76 71 71 74 69 56 61 54 49 55 48 101 97 88 
99 95 87 95 91 84 100 97 89 114 112 101 110 110 97 88 92 77 82 87 73 94 97 87 
108 110 97 124 127 103 125 129 100 109 115 88 92 98 75 73 79 60 70 76 59 
84 89 71 96 99 83 104 106 98 107 109 105 105 107 106 98 100 99 85 89 85 
77 81 76 72 75 71 76 78 73 89 90 81 97 97 87 99 100 91 95 96 89 85 86 82 
87 87 82 100 99 90 100 100 89 88 90 79 84 86 77 88 89 81 86 87 81 79 80 77 
78 79 75 83 82 77 82 81 76 77 76 71 76 75 70 79 78 74 81 81 76 82 84 75 
81 82 74 76 75 71 76 74 71 79 78 74 73 74 69 59 62 57 55 59 54 62 66 60 
68 71 66 74 74 70 74 73 70 68 70 64 66 69 63 67 70 65 68 70 66 66 69 66 
66 68 66 94 90 84 91 88 82 85 83 76 89 88 80 104 102 93 99 100 88 76 82 66 
69 75 60 77 81 70 81 85 73 82 87 69 77 83 64 66 74 56 60 68 52 59 67 50 
73 80 61 104 109 85 123 126 103 131 133 116 123 124 114 100 100 98 84 85 86 
75 79 77 68 74 70 65 69 65 76 79 72 101 103 90 110 112 97 103 104 93 
95 95 88 84 84 81 83 83 79 91 91 84 90 91 80 79 82 69 72 76 64 70 73 65 
73 75 70 81 82 77 84 84 79 83 82 77 79 78 73 74 72 67 72 71 66 75 74 70 
86 85 78 104 103 92 103 102 91 83 81 76 75 73 71 79 79 76 75 76 73 62 65 62 
58 62 57 62 66 60 64 68 61 65 66 61 66 67 61 66 69 63 66 70 64 66 70 64 
68 71 67 71 73 71 73 74 73 82 82 77 77 78 72 66 69 61 65 68 59 73 73 67 
69 69 62 52 57 45 43 51 37 44 51 38 46 54 41 51 58 46 57 64 52 63 70 59 
64 72 61 62 70 58 88 94 77 142 144 118 169 169 140 171 171 143 149 148 127 
103 102 93 74 74 70 61 65 59 51 57 50 43 49 41 61 65 54 103 107 88 115 118 98 
95 97 85 83 84 77 77 78 75 78 78 75 84 85 78 79 82 71 64 70 55 54 61 45 
47 55 43 57 64 53 84 87 78 102 102 92 111 109 97 103 101 90 80 79 72 72 70 67 
77 75 73 99 97 89 138 136 117 136 134 116 95 92 85 76 74 72 78 79 78 77 79 78 
73 74 73 68 70 67 63 65 60 56 60 52 50 55 45 52 56 47 63 64 59 69 70 67 
71 74 71 71 76 72 70 74 71 69 73 70 65 69 63 61 65 58 51 57 47 49 54 44 
53 55 49 49 51 45 36 42 32 31 39 26 33 41 28 37 45 32 42 49 39 52 59 50 
67 73 65 73 79 70 70 76 67 95 99 86 147 148 126 169 169 142 162 162 135 
139 138 117 99 99 90 73 73 69 59 63 56 46 52 43 34 40 31 49 56 42 91 97 77 
102 106 86 80 84 71 69 72 65 68 70 66 68 70 66 69 73 66 65 70 60 56 62 49 
48 56 41 41 50 36 53 61 48 85 88 78 106 106 95 114 113 98 103 102 88 
72 73 65 63 63 58 74 73 68 97 96 87 132 131 112 132 131 113 96 94 87 77 75 74 
75 75 73 74 75 74 75 76 75 71 73 70 61 65 58 50 55 46 38 46 34 43 49 39 
65 66 61 77 76 74 77 80 78 75 79 76 68 73 69 65 70 66 45 52 41 43 50 38 
39 48 34 39 48 34 44 50 39 41 46 37 30 38 26 30 40 27 43 51 38 51 58 46 
54 61 49 63 69 59 78 83 73 85 88 80 82 86 79 94 97 88 119 121 108 122 124 110 
102 105 92 92 94 85 90 92 89 82 84 83 68 71 66 53 58 50 36 44 35 40 49 37 
65 72 56 71 78 61 59 66 53 53 61 50 55 61 54 53 59 53 48 55 46 48 56 46 
55 61 52 55 62 51 50 59 45 60 67 53 84 87 77 95 96 86 92 96 81 77 82 67 
49 55 44 45 50 41 66 68 57 80 81 69 88 90 77 90 92 80 86 87 80 79 78 74 
69 66 62 66 64 60 69 71 67 67 72 65 58 65 56 46 54 43 30 39 26 38 46 35 
72 76 70 88 90 87 85 87 87 78 80 79 66 70 66 60 66 59 32 41 26 33 42 27 
35 46 29 38 47 31 40 48 34 40 47 35 37 44 33 43 50 40 58 64 54 64 71 61 
63 70 60 66 72 62 74 78 68 77 80 71 75 79 72 80 84 77 91 95 87 87 91 83 
67 72 65 64 69 64 76 81 79 79 84 82 71 76 71 58 64 57 40 49 39 36 46 34 
46 54 41 48 56 42 41 51 37 43 53 40 53 61 50 61 68 56 67 74 60 65 72 59 
57 63 54 52 59 50 52 60 45 60 67 52 76 79 70 83 85 77 82 85 73 69 74 61 
43 51 40 40 47 36 58 62 50 66 68 56 62 65 56 65 68 60 75 77 70 75 75 70 
67 64 59 62 60 55 61 64 57 57 64 55 51 59 48 42 51 39 30 39 26 39 47 36 
70 73 67 84 86 83 81 83 82 76 79 78 68 73 69 65 70 64 25 36 20 30 40 24 
41 50 33 44 54 36 40 50 34 44 52 40 58 61 53 68 70 65 76 80 76 76 82 78 
69 76 71 61 68 61 53 58 49 49 54 45 49 57 47 54 62 53 62 69 62 63 70 62 
56 63 54 54 62 53 58 67 60 63 72 65 69 76 71 63 71 64 46 55 45 36 46 34 
35 44 31 32 41 28 28 39 25 38 48 33 62 70 53 92 98 77 126 130 105 116 121 99 
63 70 56 39 48 36 45 55 37 52 61 44 61 66 55 71 74 65 83 83 75 78 78 70 
55 60 52 46 53 44 51 55 46 53 57 47 54 58 49 57 60 52 62 64 57 66 66 61 
67 68 63 62 64 58 49 55 46 41 49 38 38 47 35 37 46 34 39 47 35 46 50 41 
58 58 52 65 64 60 67 70 65 71 75 71 76 80 78 78 83 81 26 37 22 35 45 29 
54 62 45 58 66 49 47 57 41 50 57 45 65 67 60 75 76 72 80 83 81 78 83 80 
68 74 70 58 64 59 48 52 45 42 47 39 41 49 40 46 55 46 57 64 59 62 69 64 
62 69 62 58 66 57 50 60 50 52 62 52 64 73 66 62 70 63 45 54 43 33 43 31 
28 38 25 27 37 24 31 42 26 44 54 36 66 74 54 95 101 79 132 136 110 123 127 104 
69 75 62 45 53 43 52 61 46 57 64 50 58 64 53 64 67 59 73 73 66 71 72 64 
58 63 55 50 57 48 46 53 43 45 51 42 47 52 44 51 54 46 56 57 50 61 62 56 
68 69 65 63 67 61 48 54 45 40 47 36 38 46 34 39 48 36 44 51 40 48 52 43 
51 51 45 55 55 50 61 64 57 68 72 67 77 81 78 81 85 84 35 44 32 47 56 43 
75 81 67 80 85 71 62 69 55 55 62 50 59 63 55 64 67 62 70 73 70 69 73 69 
60 65 59 56 60 55 57 59 55 56 58 53 52 56 50 58 63 59 74 78 78 83 87 88 
86 90 90 75 81 77 50 58 49 44 53 42 56 65 56 54 62 53 36 46 34 27 37 24 
25 36 23 33 44 29 51 61 41 61 70 49 63 71 53 71 78 61 84 91 73 85 91 76 
74 78 71 70 74 70 73 78 73 72 77 71 67 72 65 60 65 57 52 56 47 49 55 44 
52 60 49 51 60 48 45 54 43 43 50 39 43 49 39 47 51 42 54 57 50 61 63 57 
68 70 65 67 69 64 58 60 54 52 56 48 50 55 47 48 54 45 44 52 42 45 53 42 
49 55 46 55 59 52 62 65 59 67 70 65 71 74 70 73 76 72 38 48 36 53 61 49 
85 89 77 90 94 81 68 74 61 57 64 52 56 61 53 59 63 57 66 69 64 65 68 64 
56 60 54 55 59 53 62 63 60 62 63 60 57 59 55 64 67 64 82 85 86 93 96 99 
97 100 102 83 88 86 50 58 49 40 49 38 53 61 51 50 59 49 32 43 30 23 35 21 
24 35 22 36 47 31 60 69 48 69 77 55 62 70 53 60 68 53 61 70 56 67 74 63 
77 80 75 82 84 82 83 86 85 80 84 81 72 75 70 59 64 56 42 48 38 38 47 35 
49 59 46 51 62 48 45 55 42 42 50 38 41 47 36 45 49 40 54 56 50 61 63 58 
68 70 65 68 70 65 62 63 58 58 60 54 56 60 53 51 57 50 44 53 43 44 53 42 
49 56 47 55 61 53 62 66 59 67 69 64 69 71 66 70 71 67 
