P3
64 64
255
81 82 80 80 81 78 76 78 74 76 78 74 79 81 80 83 86 85 88 91 90 91 94 92 
93 93 93 87 86 86 74 72 71 72 70 68 82 81 79 79 79 77 65 64 62 63 61 58 
72 69 66 82 79 77 91 91 90 94 96 96 92 93 93 90 92 91 88 92 90 85 88 86 
81 82 82 82 83 83 88 90 91 90 92 93 89 90 90 90 90 91 91 94 96 92 95 97 
92 93 94 91 92 93 91 93 94 90 93 95 89 93 95 91 94 95 94 96 97 96 98 98 
96 98 99 94 97 98 91 93 94 93 95 97 100 103 106 101 106 108 98 101 104 
91 93 96 81 81 84 76 75 77 75 74 74 74 73 72 72 72 70 75 74 72 81 80 80 
83 82 83 81 82 82 80 82 82 81 82 83 81 82 83 82 83 84 80 81 82 77 78 78 
75 76 76 82 83 82 81 82 80 79 81 78 78 79 76 76 77 75 79 79 78 84 86 84 
88 90 88 91 92 91 87 86 85 75 73 71 72 71 68 78 78 76 76 77 74 66 65 62 
65 63 60 73 70 67 80 78 75 86 86 85 89 90 90 90 91 91 88 90 89 84 86 84 
81 83 81 81 80 80 83 83 83 88 89 90 90 92 92 89 89 89 89 90 90 91 94 95 
92 94 96 90 92 92 90 91 92 92 93 95 91 93 95 88 91 92 88 92 92 93 95 95 
95 97 97 95 98 99 94 97 99 92 95 97 94 97 99 98 102 103 98 102 104 94 98 101 
89 92 95 83 84 86 77 77 79 73 72 72 73 72 72 77 77 76 80 81 80 83 82 83 
83 83 84 81 82 83 81 83 83 82 84 84 80 83 83 77 78 79 76 77 77 77 79 78 
78 80 79 83 86 86 84 86 86 86 87 86 81 80 79 71 67 65 69 65 63 75 74 72 
82 82 80 88 88 85 86 85 83 76 75 73 71 71 68 71 73 69 70 72 68 69 68 64 
71 68 65 75 73 70 77 75 73 76 74 72 79 78 77 86 87 86 85 85 84 75 73 72 
73 70 70 80 77 78 85 83 84 89 88 89 90 90 90 87 87 87 88 88 88 91 93 92 
90 93 92 87 89 88 88 90 90 94 95 97 92 94 97 84 87 88 83 86 87 89 92 92 
93 96 97 94 97 99 95 99 101 96 101 104 96 101 102 94 98 97 91 95 94 88 92 93 
86 89 92 86 88 91 81 82 83 71 69 68 73 71 70 87 89 90 92 94 97 86 89 91 
83 85 86 83 83 83 83 85 84 84 89 88 79 84 83 67 69 67 67 68 66 78 81 79 
83 87 86 84 87 88 86 88 88 88 89 90 84 84 83 74 70 68 70 66 63 73 71 69 
78 77 75 84 84 81 85 85 82 80 80 77 74 75 72 68 69 65 68 68 64 75 73 69 
77 75 72 76 74 72 74 72 70 70 67 65 73 70 68 81 81 79 82 82 81 75 73 72 
75 72 72 82 78 80 86 83 85 87 86 87 88 88 88 88 88 89 89 90 90 91 92 92 
89 91 90 85 87 86 87 89 88 93 96 97 92 95 96 83 85 86 82 85 86 90 93 94 
93 96 97 91 94 95 92 96 97 96 101 104 96 102 103 93 96 96 90 93 92 86 90 92 
87 90 92 90 92 95 85 86 88 73 72 71 75 74 73 90 92 94 94 98 101 87 91 93 
83 85 86 80 80 80 79 80 79 80 85 83 75 80 78 65 67 64 65 66 63 75 77 75 
80 83 81 86 87 87 86 88 88 87 89 89 87 88 88 85 86 83 82 82 79 78 77 74 
77 77 74 81 82 79 84 86 83 87 88 86 82 81 79 70 67 63 70 66 62 82 80 77 
84 83 81 77 76 74 72 70 67 69 65 61 70 67 63 75 75 72 80 82 79 84 86 85 
87 87 87 87 86 86 86 84 85 83 83 83 85 85 86 91 91 93 93 94 96 91 92 93 
89 90 90 85 87 87 86 88 89 92 94 95 91 94 94 84 87 88 85 88 89 95 98 100 
96 98 99 87 88 87 86 87 87 92 96 97 95 99 101 94 98 99 93 96 97 91 95 96 
91 95 96 93 96 98 90 91 93 81 81 81 79 80 79 85 87 88 87 90 91 87 89 89 
82 83 84 74 74 74 70 70 69 70 71 69 70 71 69 70 70 70 70 69 69 68 67 65 
67 66 64 85 86 86 86 87 87 86 89 89 86 89 88 86 88 86 84 85 82 81 81 77 
80 79 76 81 81 78 84 84 82 89 89 89 86 85 84 74 71 68 74 70 67 84 82 80 
85 84 82 77 75 73 72 70 67 72 67 64 72 68 65 74 73 70 78 79 76 85 86 85 
88 89 88 86 86 85 85 84 83 82 82 82 83 83 83 87 87 88 89 89 90 88 88 89 
86 87 88 85 86 87 86 87 87 88 90 90 88 91 91 86 90 90 88 91 92 92 94 95 
91 92 92 84 84 82 82 82 80 86 88 88 89 91 92 89 91 92 90 92 93 90 93 94 
90 93 94 91 93 95 90 91 92 85 87 87 82 84 84 80 83 82 81 83 83 84 85 84 
81 81 81 73 73 72 68 67 66 66 64 62 68 66 64 73 72 72 73 72 72 67 66 64 
65 63 61 83 85 85 84 86 86 85 89 88 83 85 84 76 76 74 76 75 72 82 83 79 
84 85 81 82 81 78 83 81 80 86 86 85 85 85 85 81 80 80 80 78 78 83 80 79 
81 79 76 75 73 71 73 71 69 77 74 73 78 75 74 77 74 72 76 74 72 76 74 72 
77 76 74 79 79 77 82 82 80 83 83 83 82 81 81 77 76 74 77 75 74 80 80 80 
83 83 83 84 84 84 84 85 84 83 84 84 86 87 87 91 94 94 90 92 92 82 81 80 
79 77 76 81 80 78 81 80 78 79 78 76 78 77 76 78 78 77 80 81 80 84 85 85 
85 87 87 84 85 85 85 86 85 86 89 89 84 86 86 77 78 78 75 75 75 78 78 78 
78 78 78 76 76 76 73 72 71 69 67 64 69 67 63 73 72 69 74 75 72 74 75 72 
74 74 71 80 82 82 81 83 83 82 85 84 80 82 80 74 73 71 74 73 71 82 82 78 
84 85 81 83 82 79 83 81 80 84 83 83 84 84 84 83 84 84 82 81 81 80 77 76 
78 75 73 77 74 73 77 75 74 79 76 76 80 77 76 79 76 74 77 73 71 74 70 68 
74 71 69 77 77 73 81 81 79 85 85 85 83 82 82 75 72 71 74 71 69 78 77 76 
81 81 80 83 83 81 83 83 81 81 81 81 83 83 83 88 90 90 87 88 88 80 78 78 
79 77 76 83 83 82 84 84 82 79 78 76 78 76 74 79 77 76 80 79 79 82 82 81 
82 82 82 82 81 81 82 82 81 81 83 83 79 81 81 76 75 75 76 74 74 79 79 79 
81 81 81 80 80 80 77 77 76 73 71 69 72 69 66 73 72 68 74 74 70 75 75 72 
75 75 73 78 78 78 77 78 78 77 79 76 77 79 76 78 78 76 79 78 76 79 78 75 
81 79 77 84 83 82 84 84 84 83 83 83 82 82 81 82 82 80 80 79 76 75 73 71 
76 74 72 83 80 80 83 80 81 78 75 74 76 74 72 80 77 75 80 77 75 78 75 74 
78 76 74 79 79 76 82 83 80 88 88 87 87 86 86 80 78 77 78 75 74 81 79 77 
81 80 78 80 80 78 80 80 79 82 82 81 80 81 80 76 78 76 78 80 78 87 87 87 
92 92 92 92 94 94 91 93 92 88 88 89 87 88 88 89 90 91 88 88 88 83 83 81 
82 81 79 84 83 83 80 79 80 70 70 69 69 69 67 76 74 73 83 80 81 88 88 89 
88 89 91 85 85 85 82 81 81 79 77 77 76 74 73 73 71 68 71 68 66 71 66 65 
70 65 64 78 77 78 77 77 77 77 77 75 77 77 74 78 78 75 78 77 75 78 76 74 
80 78 76 83 83 81 84 84 83 81 81 81 80 80 79 81 80 77 80 78 75 76 74 72 
77 75 74 83 80 80 84 82 82 80 79 78 79 77 75 79 77 75 80 77 75 81 77 76 
81 78 77 81 80 78 83 83 80 86 85 84 87 85 85 85 82 82 83 80 80 82 80 78 
81 79 77 79 78 76 79 80 78 83 83 82 80 80 80 73 73 71 75 75 73 86 86 86 
92 92 92 91 92 92 91 92 92 91 92 93 92 93 94 94 95 97 92 93 93 85 85 83 
83 82 80 85 84 84 81 80 81 72 71 70 70 69 68 77 74 74 83 81 82 89 90 92 
90 91 93 86 86 87 84 83 83 83 81 82 80 78 78 75 73 72 72 68 67 70 65 63 
69 63 62 81 81 81 81 81 80 81 81 80 79 77 75 73 70 67 74 70 66 79 77 74 
82 80 78 82 80 79 81 79 79 79 79 78 79 78 78 81 78 77 82 79 77 83 80 78 
81 79 77 77 76 73 79 79 77 87 87 87 86 87 86 77 77 75 75 74 72 80 77 75 
83 79 78 83 82 80 82 81 80 81 78 77 82 80 78 88 86 85 88 86 85 83 79 78 
80 76 75 78 77 75 80 80 78 84 84 82 83 83 81 77 76 73 75 73 71 78 76 74 
80 77 76 81 78 77 84 82 81 88 89 88 92 92 93 93 94 96 92 92 94 89 88 88 
86 86 84 86 85 83 85 85 84 85 85 86 83 82 83 77 75 76 78 76 77 85 84 87 
87 87 90 85 84 85 84 83 83 84 84 84 83 82 82 79 78 78 75 74 73 73 70 68 
72 68 66 84 84 84 83 83 83 83 82 82 81 79 78 77 74 71 76 73 69 80 77 74 
82 80 77 82 80 78 82 80 78 80 79 77 80 79 77 83 80 79 84 82 81 86 84 82 
83 81 79 75 74 72 76 76 74 85 86 85 86 87 86 79 79 77 78 77 76 84 82 81 
86 84 83 84 83 82 82 80 79 79 76 75 81 79 77 88 86 85 89 87 86 84 81 80 
81 77 76 80 77 75 80 78 76 83 81 79 83 81 79 80 78 75 77 74 72 74 71 69 
74 71 69 77 74 71 79 77 75 82 80 79 85 84 84 89 89 90 90 90 91 88 88 88 
88 88 87 90 90 89 92 93 93 96 97 99 92 92 94 80 80 80 76 75 75 80 79 80 
82 81 83 82 80 82 83 82 83 87 86 87 86 86 86 81 81 81 77 77 76 74 73 70 
73 71 68 87 86 87 85 85 85 82 82 82 83 83 83 88 87 87 87 85 84 80 76 74 
80 76 72 85 84 80 86 86 82 83 82 77 84 82 78 87 86 85 87 87 87 86 86 83 
82 82 80 78 76 76 75 73 73 74 74 71 77 77 74 84 82 81 89 88 88 92 94 94 
91 92 92 85 83 82 82 79 78 83 80 80 84 81 81 85 83 81 86 84 81 86 84 81 
85 82 80 83 78 76 81 75 74 80 75 73 80 76 73 81 78 76 79 77 75 76 73 71 
76 73 71 80 78 75 78 76 73 70 66 64 71 68 67 81 80 80 85 85 85 84 83 83 
88 88 88 96 99 100 102 106 107 104 107 109 99 100 102 86 87 86 78 77 76 
75 72 71 75 72 71 78 75 76 83 81 82 89 89 90 89 89 90 81 81 82 76 76 75 
74 72 70 73 71 68 87 87 87 86 86 86 83 83 83 84 85 85 91 91 91 90 88 88 
80 76 74 79 75 72 86 84 82 88 87 84 85 83 78 86 84 79 89 88 88 89 90 89 
86 87 85 84 84 82 82 79 79 78 76 75 74 73 70 76 75 72 85 83 82 90 89 90 
93 95 95 91 93 93 85 83 81 83 80 78 85 82 82 86 83 84 86 83 82 86 83 81 
87 85 82 87 84 81 85 81 79 84 79 78 83 77 76 83 78 77 84 81 80 83 81 79 
80 78 76 81 79 77 85 85 83 82 81 79 71 67 65 69 65 63 77 76 74 81 80 79 
80 79 79 84 83 83 92 93 93 97 99 100 99 101 103 96 98 99 88 88 88 80 80 78 
74 72 69 72 69 67 75 72 71 79 77 77 85 84 84 85 85 86 81 81 81 78 78 77 
76 76 74 76 75 73 85 86 85 84 86 85 84 84 84 85 84 84 87 85 84 85 83 81 
80 77 75 80 77 75 85 82 82 87 84 84 86 83 81 87 85 82 89 88 88 89 89 89 
88 88 87 87 86 84 87 85 83 85 83 81 83 81 80 81 80 79 81 79 79 83 81 81 
86 86 86 86 86 86 84 82 80 84 81 79 86 85 82 87 87 85 89 87 87 88 86 85 
86 83 81 86 83 80 88 86 84 90 88 87 91 89 89 91 89 89 89 88 87 87 87 85 
85 85 83 88 87 86 94 94 95 92 92 93 84 81 80 79 76 74 77 74 74 77 75 74 
77 76 74 76 75 73 75 72 70 77 74 73 82 82 81 85 85 85 85 85 85 82 82 82 
77 77 74 73 73 69 72 70 67 72 69 67 73 71 69 76 75 74 80 79 79 82 82 82 
82 83 82 82 83 82 84 86 85 85 86 86 86 87 87 86 85 85 85 82 81 84 81 79 
82 80 79 83 81 80 86 83 84 87 84 85 87 84 83 88 85 84 89 88 88 89 89 89 
89 88 87 88 87 85 88 86 83 88 85 83 87 84 84 85 82 82 81 79 78 81 79 78 
83 82 82 84 83 82 84 81 80 85 83 81 87 86 84 89 89 87 91 91 90 90 89 88 
86 84 81 86 83 80 89 88 86 92 92 91 95 95 95 94 94 95 91 91 91 89 89 88 
89 89 87 90 90 89 93 93 94 91 91 92 86 85 84 83 81 79 81 78 77 78 76 75 
75 74 72 72 70 68 70 65 63 71 65 63 74 72 70 78 78 76 83 82 82 83 83 82 
78 78 76 75 75 72 74 73 70 73 71 69 72 69 67 74 72 71 80 80 79 83 83 83 
82 82 82 82 82 81 86 87 87 87 88 88 89 90 90 89 88 88 85 84 82 84 83 82 
86 86 85 88 88 88 89 88 88 88 87 87 88 85 84 88 85 84 89 88 88 89 89 89 
89 87 87 88 86 84 85 83 82 85 83 81 86 83 81 86 83 81 84 81 80 83 82 80 
84 83 81 85 83 82 85 82 82 86 84 84 89 88 88 91 91 91 93 93 92 92 91 90 
88 86 84 87 84 82 88 86 84 91 90 88 95 95 95 95 95 95 91 91 90 89 89 88 
90 90 89 88 87 86 82 81 80 79 79 77 79 79 77 82 81 80 87 87 84 84 84 82 
74 72 72 72 68 68 76 72 71 77 73 72 74 72 70 76 74 72 81 80 78 82 80 79 
77 75 75 77 76 75 83 81 81 84 82 82 80 79 77 80 79 77 82 81 80 81 80 79 
77 74 73 75 71 70 84 85 85 86 86 86 88 89 89 88 88 88 85 85 84 85 85 84 
88 88 88 89 89 89 89 88 87 88 87 86 89 87 86 89 87 87 89 89 89 88 88 88 
88 86 85 86 85 83 85 83 83 85 83 82 86 84 82 86 83 82 84 82 81 82 80 79 
80 78 76 82 80 78 86 85 84 89 88 89 90 89 90 91 91 92 93 93 92 92 91 90 
88 86 85 87 84 83 88 86 84 90 89 87 93 93 92 93 93 92 90 89 89 89 88 87 
90 89 88 88 86 85 81 80 77 77 76 74 77 77 76 79 79 78 83 84 80 82 82 78 
76 74 73 75 73 72 80 78 76 80 78 76 75 73 71 75 73 71 81 78 76 81 79 77 
77 74 74 78 76 77 86 85 86 88 87 87 84 83 82 82 81 79 82 81 79 80 78 77 
76 72 71 74 69 68 80 80 80 81 81 81 83 85 85 85 86 86 86 87 87 87 86 86 
87 86 86 87 84 83 86 81 80 87 83 82 92 90 90 92 92 92 89 89 89 86 86 86 
85 84 82 85 84 82 87 86 85 88 87 87 88 87 87 86 85 84 83 80 79 78 75 73 
70 68 66 74 73 71 89 89 88 95 95 95 91 90 91 89 89 90 91 91 91 90 89 89 
87 84 83 86 84 82 88 88 85 89 90 87 91 89 87 91 88 87 88 87 86 88 86 85 
88 87 86 89 88 87 89 87 86 86 84 84 79 80 80 74 74 73 69 69 64 72 70 65 
80 79 76 83 83 81 81 82 78 79 79 75 76 74 71 77 74 72 81 78 76 81 79 77 
77 75 74 78 77 76 84 85 84 85 86 86 83 82 80 81 79 77 81 78 76 80 77 75 
79 76 75 79 76 75 76 76 75 77 77 77 79 81 81 81 83 82 83 83 82 84 83 83 
87 85 84 87 84 84 86 82 81 87 84 82 90 89 89 91 91 90 88 88 87 86 85 85 
85 84 82 84 84 82 85 84 84 86 85 85 87 87 87 87 86 85 85 83 82 80 77 75 
71 69 67 74 72 71 88 88 87 94 94 94 91 91 91 90 90 89 90 90 89 89 88 88 
87 84 84 88 85 84 90 90 88 91 91 88 90 88 86 89 86 84 86 84 83 86 84 83 
87 85 85 89 87 87 91 89 89 89 88 88 82 83 82 76 76 74 70 68 64 71 69 65 
81 80 77 83 84 81 79 80 76 76 76 73 76 74 71 77 74 72 80 77 75 80 78 76 
78 76 74 79 78 77 82 83 82 84 85 84 83 82 81 82 80 79 81 78 77 81 78 77 
82 80 79 83 81 80 73 73 72 75 74 73 78 77 76 78 77 75 75 73 70 78 76 73 
86 85 84 90 90 89 90 90 90 88 88 88 85 84 82 84 82 81 86 84 83 87 85 84 
87 87 85 85 84 83 80 78 77 80 78 77 85 84 81 88 88 86 91 91 89 89 88 88 
82 80 80 80 78 78 83 83 81 87 87 85 92 92 91 93 92 91 90 89 88 88 87 86 
90 86 86 92 88 87 94 92 92 94 93 92 90 89 88 87 86 84 84 82 80 83 81 80 
86 84 83 88 85 85 88 86 85 87 86 84 86 86 83 85 85 81 84 82 79 82 79 77 
78 76 75 75 74 73 73 72 70 73 71 70 76 73 71 77 74 72 77 74 72 78 76 74 
79 77 76 81 79 78 82 81 79 83 82 82 85 84 84 85 84 84 83 82 82 83 82 81 
84 82 82 85 83 82 73 72 71 74 73 72 78 77 76 78 77 76 76 74 72 79 76 74 
86 84 83 88 88 87 87 87 86 85 84 83 83 81 79 83 80 78 86 82 81 87 84 84 
88 87 85 86 85 83 81 79 77 80 78 76 83 81 79 87 86 83 91 91 89 91 91 91 
88 86 87 85 83 84 82 81 80 84 83 81 91 90 88 93 92 91 91 90 90 92 91 90 
96 93 93 97 94 94 95 92 92 92 90 90 88 87 86 85 83 82 82 80 78 83 80 78 
86 83 82 88 85 85 88 85 85 89 87 86 90 90 87 91 90 87 90 89 86 87 85 83 
80 78 78 76 74 74 75 72 72 75 72 71 76 73 71 76 74 72 76 74 72 77 75 73 
80 78 76 82 79 77 82 79 77 82 80 79 83 83 83 83 83 83 82 81 81 82 81 81 
84 83 83 85 84 83 73 73 72 75 75 75 80 81 80 83 84 84 86 86 86 86 85 85 
85 81 82 82 77 77 76 72 70 77 73 70 83 80 77 86 83 82 86 82 83 86 82 83 
86 83 82 87 84 83 88 86 85 87 85 83 84 80 78 83 80 78 85 83 81 87 86 85 
88 88 88 88 87 87 86 84 83 86 83 82 86 86 84 89 89 88 94 94 94 100 100 100 
105 106 107 103 103 104 92 91 90 85 83 82 83 80 78 82 79 77 82 80 77 84 81 79 
88 84 82 90 87 86 91 89 89 93 91 92 95 94 95 94 93 92 90 88 85 87 85 83 
87 85 85 86 84 84 84 82 80 81 78 76 76 73 72 74 72 71 76 74 73 78 76 75 
80 77 76 81 78 76 81 78 76 80 78 77 79 79 78 78 78 77 76 75 75 77 76 76 
81 81 81 82 84 83 72 73 71 75 75 75 81 82 81 85 86 86 88 89 90 88 87 89 
86 82 84 82 77 77 76 71 68 77 72 69 85 82 80 89 86 85 87 84 84 86 82 83 
84 80 80 86 82 81 91 88 86 90 87 85 84 80 78 81 77 75 83 80 77 84 82 81 
86 85 85 87 86 86 88 85 85 87 85 84 86 85 84 88 88 87 94 94 93 99 100 100 
104 106 107 102 103 104 91 91 90 84 83 81 83 79 77 82 78 76 82 78 76 83 80 77 
86 82 79 89 85 83 92 90 90 94 92 94 95 94 95 94 93 93 91 90 88 90 88 86 
91 88 88 90 87 87 89 86 84 84 81 79 78 75 74 76 73 72 78 76 75 79 77 75 
79 76 74 78 75 73 79 75 73 77 75 73 75 74 73 73 72 71 72 70 70 73 72 71 
77 77 77 78 80 79 70 70 69 73 73 72 80 80 80 83 83 84 82 83 84 84 84 85 
88 87 87 88 86 86 84 82 82 85 82 82 89 87 86 90 88 88 89 86 87 86 82 83 
82 77 77 82 77 76 87 83 81 88 83 81 83 79 77 81 78 76 83 80 78 83 81 78 
82 80 78 83 81 80 87 86 85 89 88 88 89 89 88 89 89 88 89 88 88 91 90 89 
93 93 93 94 94 94 91 93 92 89 90 88 86 84 83 84 80 78 81 77 75 81 76 73 
81 76 73 85 80 77 91 88 87 93 91 91 90 89 88 91 91 89 96 95 95 96 94 93 
90 87 86 88 83 82 87 84 82 86 83 80 82 79 77 81 78 76 83 78 77 81 76 75 
76 72 71 74 71 69 74 71 69 73 71 69 70 69 67 69 68 66 69 66 66 70 67 67 
72 71 70 73 73 72 73 73 72 75 75 74 80 78 78 81 79 79 79 78 78 80 79 80 
85 85 84 88 88 87 89 87 88 89 88 89 89 88 87 89 88 87 89 87 87 87 83 84 
82 77 77 81 76 75 85 79 78 86 81 79 84 81 79 83 81 79 84 82 80 83 81 79 
80 78 76 81 80 78 86 86 86 89 89 89 91 90 90 90 89 88 87 86 85 86 85 84 
87 85 84 88 87 86 90 91 90 90 90 89 88 86 85 86 83 81 84 80 78 82 77 75 
80 75 72 83 78 75 88 85 84 89 87 86 84 83 81 85 84 82 91 90 90 91 90 89 
87 83 82 86 81 80 88 84 83 87 85 83 85 82 80 84 81 79 86 82 80 84 80 79 
78 76 74 75 73 71 74 71 69 72 70 67 70 68 66 68 66 64 67 64 62 66 64 62 
67 65 64 67 66 65 80 81 81 80 80 79 79 77 76 78 75 74 77 73 73 77 74 73 
78 76 74 83 81 79 89 88 88 90 89 90 87 85 84 87 84 83 88 87 86 88 86 85 
84 81 80 83 79 77 83 78 76 84 80 78 87 84 81 87 85 83 85 84 83 84 82 82 
82 80 80 83 81 81 86 85 85 89 88 88 91 89 89 90 89 88 87 86 86 86 84 84 
85 83 82 85 83 82 86 84 83 87 85 84 88 86 85 89 87 85 90 88 85 88 85 82 
83 79 76 82 78 75 84 81 80 82 80 79 77 75 74 74 73 72 75 74 73 77 75 74 
80 76 75 84 80 79 90 87 86 90 89 88 86 85 83 85 84 82 87 86 84 87 86 85 
85 85 83 82 82 80 78 76 74 76 73 70 74 71 69 71 68 65 65 64 60 63 61 57 
62 60 57 62 60 57 81 81 81 80 80 79 78 76 74 77 74 72 77 73 71 77 73 71 
77 74 72 80 78 77 86 85 85 88 86 86 85 82 82 85 82 81 86 85 84 86 85 84 
85 82 80 83 80 78 82 78 76 83 79 77 86 83 80 87 85 83 87 85 85 86 85 85 
84 82 82 84 82 82 85 83 84 86 85 85 87 86 86 88 87 87 88 88 88 88 86 87 
86 84 83 86 82 81 87 83 82 89 86 85 92 90 89 92 90 89 91 88 86 88 85 82 
84 80 78 82 78 76 82 79 77 80 77 75 75 73 72 73 70 69 71 69 67 72 70 67 
76 72 69 81 77 75 87 85 84 88 87 87 84 84 82 84 83 81 86 85 84 87 87 85 
88 88 86 85 85 83 80 78 75 77 74 70 75 72 68 73 70 66 68 67 62 66 64 59 
65 62 58 64 61 57 76 75 72 76 75 72 77 75 73 78 75 73 79 75 73 80 77 75 
81 79 78 82 80 79 81 79 78 82 79 78 83 81 79 83 81 80 84 82 80 83 81 79 
82 79 77 82 79 77 82 79 77 82 78 76 81 78 75 83 81 79 88 86 86 90 88 88 
88 85 84 85 82 81 82 79 80 81 79 80 81 80 80 84 84 84 89 90 90 91 91 91 
89 87 87 89 86 86 92 88 88 96 92 92 99 97 97 96 93 93 85 81 80 81 76 75 
82 78 76 82 79 77 81 78 76 80 78 75 80 77 75 79 76 75 77 75 73 76 73 70 
74 69 66 76 70 68 80 77 76 82 80 79 81 78 76 81 78 76 83 80 78 84 82 80 
86 83 82 85 82 80 81 76 74 77 73 69 74 71 65 74 70 65 75 72 67 76 71 67 
74 69 65 74 68 65 76 74 71 77 74 72 78 75 73 79 76 74 80 77 75 81 78 77 
83 81 80 82 80 79 79 76 74 79 76 74 82 80 79 83 81 80 82 79 77 81 78 76 
81 78 76 81 78 76 82 79 77 82 79 77 81 78 76 83 80 78 87 85 84 88 86 86 
87 84 82 85 81 80 81 78 78 79 76 77 78 78 78 81 81 81 87 87 87 89 88 88 
88 87 86 89 87 86 92 88 88 95 92 92 99 97 97 96 93 93 85 81 80 80 75 75 
81 78 76 82 79 77 82 79 78 82 79 78 83 80 78 82 80 78 81 78 76 78 74 72 
74 68 65 73 68 65 77 74 72 79 77 75 80 76 74 81 77 74 81 78 76 82 79 77 
83 79 77 83 78 75 81 75 73 78 73 70 75 71 65 76 71 65 79 74 70 80 74 70 
78 72 68 78 71 66 82 80 79 81 79 78 80 77 75 79 76 74 80 77 75 81 78 77 
82 79 78 82 79 77 79 77 75 79 77 76 82 80 79 83 79 79 81 76 75 80 76 74 
81 77 75 81 79 76 81 80 77 83 81 79 86 83 81 86 82 81 83 80 79 82 80 78 
83 80 78 82 79 78 80 78 76 79 78 76 79 79 78 79 79 78 80 79 77 81 80 78 
84 82 81 85 83 82 85 83 82 87 85 84 92 90 89 92 90 90 88 86 86 84 82 82 
82 80 78 83 80 78 85 82 82 85 83 83 84 82 81 83 80 79 81 78 76 78 74 72 
74 69 66 74 70 66 78 75 72 81 78 76 82 79 76 83 79 76 82 80 78 81 78 76 
78 74 71 78 73 70 80 75 73 80 75 72 78 73 68 78 72 67 80 74 70 79 73 69 
77 69 64 76 68 62 83 80 78 82 79 77 81 78 75 80 77 74 80 77 76 81 78 76 
82 78 77 81 78 76 79 77 74 79 77 75 82 79 79 83 79 79 82 77 75 81 76 74 
81 77 75 80 78 76 79 78 75 81 79 76 86 82 81 86 82 81 82 79 77 81 79 78 
85 82 82 85 82 82 82 79 77 80 79 77 82 81 80 81 81 80 79 77 75 79 77 74 
82 80 77 83 81 79 82 80 79 83 81 80 86 84 82 87 85 84 87 86 85 85 84 83 
82 80 78 82 79 78 85 82 82 85 83 83 83 81 80 82 80 79 83 80 78 82 78 75 
77 74 70 76 73 69 79 77 74 81 78 75 82 78 75 83 78 76 83 80 79 81 78 77 
77 73 70 77 72 69 80 76 74 81 77 74 80 75 71 80 74 70 80 75 71 80 74 70 
78 71 67 77 70 66 79 74 70 80 75 71 81 76 74 81 77 75 82 78 76 82 78 76 
82 78 76 80 77 74 78 74 72 78 75 72 81 78 76 83 80 78 84 80 77 84 79 76 
82 79 76 79 77 74 75 73 69 76 73 70 81 77 75 83 80 78 83 81 79 86 85 84 
92 92 93 92 91 92 84 82 80 82 80 78 86 85 85 86 86 85 83 82 80 82 79 77 
81 79 77 82 79 77 83 80 79 82 80 79 79 78 76 79 78 76 81 81 79 82 81 79 
81 79 77 81 78 77 82 80 79 82 79 79 80 78 76 82 79 77 88 84 83 88 84 83 
82 81 77 80 79 75 80 78 76 80 77 75 79 74 72 80 75 74 83 79 79 83 79 79 
79 76 74 79 75 73 81 78 76 82 79 77 80 76 75 80 75 74 80 76 73 81 77 74 
82 78 76 82 79 77 78 72 67 78 73 69 80 76 74 81 77 75 79 76 74 79 76 73 
80 76 74 80 76 74 79 75 73 80 76 73 81 78 76 83 79 77 84 79 77 84 79 76 
81 79 76 77 75 72 73 69 65 73 69 65 78 74 71 82 78 76 84 81 80 88 86 86 
92 92 93 92 91 92 86 84 82 84 81 80 86 83 83 87 85 85 89 87 85 88 86 84 
85 82 80 84 81 79 85 82 81 84 81 80 80 79 78 79 78 77 79 79 77 79 79 77 
79 78 76 80 78 76 82 79 77 82 80 78 82 80 78 84 81 80 88 84 83 88 85 83 
85 84 80 83 82 79 82 80 77 81 77 76 80 75 74 81 76 75 84 80 81 84 80 81 
80 77 76 79 77 75 82 80 78 82 80 79 81 77 77 80 76 75 79 76 73 80 77 74 
81 79 78 82 80 79 78 74 70 79 74 71 80 76 74 79 76 73 74 73 69 74 72 68 
78 74 72 81 77 75 83 79 77 83 80 78 82 79 77 81 78 76 80 76 74 80 76 74 
79 77 75 76 74 72 71 66 62 71 66 62 76 72 70 81 78 76 85 82 80 86 84 82 
85 83 82 86 84 83 87 86 84 86 83 82 81 76 76 84 79 79 95 92 91 98 96 94 
93 90 89 90 87 85 88 85 84 87 86 85 88 88 88 86 86 86 81 81 80 78 78 77 
79 77 76 80 77 77 83 80 78 86 83 82 89 87 87 88 86 86 83 80 79 82 79 77 
85 82 79 85 83 80 84 81 79 83 80 79 83 80 79 84 81 81 85 84 83 84 82 81 
79 77 75 79 77 75 82 80 79 83 81 79 80 78 76 79 75 74 77 73 71 76 73 71 
76 74 71 75 74 72 74 70 67 75 71 68 78 75 72 75 73 70 66 67 61 66 66 61 
75 72 69 80 77 75 82 80 78 83 81 79 83 81 79 80 77 75 74 72 69 73 72 69 
78 77 75 77 75 73 72 67 63 71 66 62 74 71 69 78 75 73 81 78 77 82 80 78 
81 79 76 82 80 78 86 84 82 86 83 81 82 77 76 85 80 79 96 93 93 99 98 97 
95 92 91 92 89 88 89 87 86 90 88 87 92 91 92 90 90 91 85 84 84 82 81 80 
81 79 79 82 79 79 84 81 80 86 84 82 89 87 86 88 86 85 83 80 78 82 78 76 
84 80 78 86 82 80 86 83 82 85 84 82 85 83 82 85 83 83 87 86 85 86 85 84 
82 81 80 81 79 78 82 80 79 82 79 78 79 76 75 78 74 72 77 73 71 76 73 70 
75 74 71 75 74 72 64 60 57 68 64 61 75 71 69 71 70 66 56 59 51 57 59 51 
71 70 65 78 76 73 77 78 75 79 80 78 83 82 81 79 77 75 65 67 62 65 67 61 
77 78 74 81 79 76 74 71 68 71 68 65 71 69 67 72 70 68 73 71 70 76 74 72 
80 78 76 82 80 78 83 80 78 84 81 79 87 84 82 90 88 85 92 91 90 93 92 91 
92 89 88 91 87 86 91 87 86 91 88 88 91 90 91 91 90 92 90 89 89 89 87 87 
86 85 86 85 84 84 84 82 82 82 81 80 80 80 78 82 81 78 86 85 82 87 84 81 
83 79 77 84 80 78 88 86 85 89 88 86 86 84 83 85 83 83 88 86 85 89 87 87 
89 88 88 86 85 85 82 80 78 79 76 74 78 74 72 77 73 72 78 74 72 79 76 74 
80 79 78 81 80 80 53 53 47 56 56 51 63 62 58 59 60 54 45 50 40 46 51 41 
63 63 57 72 71 67 72 74 70 76 77 74 82 81 80 79 78 75 65 68 62 65 68 61 
78 78 74 82 80 78 77 75 72 75 73 71 76 75 74 76 75 74 75 73 72 76 75 73 
82 80 78 83 81 79 81 77 75 83 78 76 87 84 81 90 88 85 91 89 88 91 89 89 
90 88 87 90 88 86 89 87 86 88 86 85 85 85 84 85 85 85 88 88 87 89 88 87 
87 87 86 83 84 83 79 78 77 75 75 72 72 72 68 75 75 71 85 84 81 88 85 83 
84 80 78 84 79 78 87 84 83 88 85 84 86 83 82 86 84 83 88 86 86 90 88 89 
91 90 91 88 87 88 83 81 80 80 77 75 78 74 73 77 74 73 79 76 74 80 78 76 
81 80 79 81 80 81 41 47 38 42 47 38 43 47 39 39 45 35 32 39 28 36 42 31 
51 53 45 61 61 56 67 67 63 74 73 70 80 79 76 81 79 76 74 74 69 74 74 69 
80 79 75 82 80 77 81 77 74 84 80 79 91 89 89 91 90 91 85 84 83 84 82 80 
87 85 83 86 83 81 82 77 74 80 75 72 82 77 74 85 81 79 90 86 87 92 90 90 
91 91 90 88 90 88 85 87 85 80 82 79 73 76 72 73 76 72 79 82 78 82 84 81 
82 84 82 78 79 77 69 70 66 64 65 60 63 64 59 68 69 64 80 78 75 86 82 80 
87 82 81 86 80 79 82 76 75 81 77 76 84 81 81 87 85 85 89 88 88 90 88 89 
88 87 88 87 86 87 86 85 84 83 82 81 80 78 78 79 77 76 80 78 77 80 78 76 
77 76 75 75 75 75 38 45 35 36 44 34 33 40 30 28 36 25 23 32 19 26 35 22 
38 44 34 51 53 46 63 62 58 72 70 67 78 76 74 80 78 76 78 76 73 78 76 73 
82 80 77 84 82 79 86 82 81 90 87 86 96 94 94 96 96 96 92 91 90 90 88 87 
90 88 87 88 85 84 84 80 76 82 77 73 80 75 73 82 77 76 87 82 82 87 85 84 
83 84 82 77 81 77 69 75 69 62 68 61 55 62 54 57 63 55 68 73 67 76 79 74 
80 81 79 79 79 76 71 72 68 67 68 63 66 67 61 70 69 64 78 76 73 84 80 78 
87 82 81 86 81 79 81 75 74 80 75 74 84 80 80 87 84 84 88 87 86 87 86 85 
84 82 82 84 81 81 85 83 83 85 84 83 83 82 82 82 81 82 82 81 81 80 79 78 
75 75 74 73 73 72 43 50 41 40 47 38 33 41 31 26 35 23 17 28 13 17 28 13 
26 35 22 40 45 36 60 59 54 72 68 66 75 74 73 77 76 75 76 74 73 79 76 75 
85 82 80 89 87 86 93 91 90 93 92 91 92 90 88 92 91 89 95 94 94 94 93 94 
91 89 89 89 86 86 88 84 82 86 82 79 83 80 77 81 78 75 81 77 75 76 74 71 
67 70 64 55 62 53 42 50 39 34 44 31 32 41 28 39 47 36 56 62 54 70 73 67 
80 80 76 85 83 82 85 85 83 83 83 81 79 78 76 79 76 73 80 77 74 82 79 76 
84 82 79 85 82 80 84 80 78 84 80 79 85 81 81 85 83 82 85 83 82 83 81 78 
79 75 73 78 74 73 82 77 77 85 81 82 87 86 87 87 87 88 84 85 85 81 81 81 
76 76 75 74 73 72 57 61 55 54 59 52 48 53 46 40 47 38 30 39 27 27 37 24 
31 40 28 43 48 39 64 63 58 73 71 69 72 71 70 71 71 69 69 68 66 73 70 68 
80 78 76 86 84 83 90 89 89 91 90 89 88 87 84 90 88 85 94 93 93 94 93 94 
89 88 88 88 85 85 89 85 84 87 84 82 84 82 79 82 80 77 82 79 76 76 75 71 
65 68 62 53 58 50 38 46 35 32 41 28 34 43 31 44 52 41 61 67 59 73 76 71 
81 80 77 86 84 83 89 89 89 90 89 90 87 86 85 85 83 81 83 80 77 81 79 76 
81 80 77 82 81 78 85 83 81 86 84 82 86 83 83 84 81 80 80 78 75 78 76 72 
76 73 69 77 74 71 82 78 78 85 81 82 87 85 86 86 86 86 84 84 84 81 81 80 
77 76 75 75 73 72 80 80 79 79 79 77 76 75 74 70 71 68 61 65 60 56 60 54 
54 57 50 60 62 56 74 75 71 77 77 74 68 68 65 61 62 57 56 58 53 59 60 55 
68 68 65 74 73 72 78 76 75 82 79 78 86 84 82 89 88 85 91 90 87 90 89 86 
86 85 83 84 83 81 85 83 82 85 83 81 84 82 80 85 84 82 88 88 85 86 86 83 
79 80 76 70 71 66 58 62 54 56 60 52 63 67 60 72 76 71 84 86 83 87 88 86 
82 82 80 81 81 79 85 84 84 88 87 88 90 90 90 89 89 88 85 84 81 82 79 76 
78 75 73 79 77 75 84 83 81 87 86 84 88 85 84 84 81 78 73 72 68 70 70 66 
75 75 72 80 79 78 86 85 84 86 85 84 82 80 78 80 78 76 81 79 77 80 78 77 
77 75 74 75 73 72 89 88 88 88 87 87 87 84 85 84 81 81 78 78 77 74 75 72 
71 71 68 72 72 68 76 77 74 73 75 71 63 64 59 56 58 52 54 57 50 57 59 53 
65 66 62 70 70 68 73 71 70 76 74 71 78 77 74 81 80 77 84 84 81 85 85 82 
83 82 80 82 81 79 83 81 80 83 82 80 83 82 80 85 84 83 91 90 88 91 91 89 
87 87 84 81 81 78 73 74 69 73 74 69 80 82 78 87 88 86 93 94 93 93 93 93 
86 87 85 82 82 81 80 78 79 81 79 80 84 85 84 81 83 80 72 74 68 69 69 64 
71 70 67 76 75 73 84 83 81 86 86 84 85 83 81 75 75 71 58 61 54 56 59 51 
67 69 65 78 78 76 86 86 85 87 86 85 81 79 77 79 76 73 80 78 76 79 78 76 
77 75 74 76 74 74 83 83 83 83 82 81 82 79 78 81 78 77 81 79 77 81 80 78 
82 82 80 78 78 76 69 70 67 62 64 59 56 59 53 57 59 52 62 63 57 67 67 63 
72 73 68 75 76 72 76 76 72 73 72 68 66 65 59 67 66 62 76 76 75 80 81 80 
81 80 79 82 80 78 83 81 79 82 81 80 81 80 79 83 82 80 89 86 84 91 89 87 
89 90 87 87 87 84 83 82 79 82 81 79 86 85 84 89 88 88 90 90 90 92 92 92 
94 94 94 88 88 88 75 73 72 69 67 65 71 71 66 62 65 58 42 50 39 42 50 39 
60 64 58 74 75 72 83 82 80 84 83 81 76 77 74 60 64 58 36 44 33 34 41 29 
52 56 48 69 69 65 83 81 80 88 86 86 84 83 81 82 81 79 81 81 80 80 80 79 
79 77 77 78 76 76 77 77 75 78 77 75 79 77 75 81 78 76 82 80 78 84 82 81 
87 86 85 81 81 80 68 69 66 61 62 58 58 61 55 61 63 57 68 68 63 73 72 68 
76 76 72 77 77 73 75 75 72 72 71 67 67 66 60 67 67 62 74 75 74 77 78 78 
77 77 75 79 78 75 83 82 80 84 83 81 82 82 81 84 83 82 89 86 85 91 88 87 
90 90 87 88 88 86 87 85 83 87 85 84 90 88 88 91 89 90 89 89 89 91 90 91 
95 95 95 89 89 88 75 73 72 68 67 64 69 69 64 61 63 56 43 50 39 44 51 41 
64 68 63 78 80 77 87 86 84 86 86 84 76 79 76 58 64 57 32 42 29 29 38 24 
48 53 44 66 67 62 82 80 79 89 86 87 86 84 84 84 84 83 84 84 83 83 83 82 
81 81 81 80 80 80 71 68 66 73 71 68 78 77 74 81 80 78 82 81 79 84 82 81 
85 83 82 82 80 79 75 73 72 70 70 67 69 69 65 70 70 65 73 72 68 76 74 71 
76 75 72 75 74 71 72 69 68 73 72 70 80 81 76 82 84 79 79 80 78 75 76 74 
71 71 67 74 74 69 84 83 81 89 87 86 88 87 86 88 88 87 90 90 90 90 89 89 
88 87 85 86 85 82 85 84 81 87 86 84 91 90 90 93 92 92 92 91 92 90 89 90 
89 88 88 85 85 83 80 80 77 79 78 75 80 79 77 78 78 75 73 72 68 74 74 70 
82 83 81 89 90 89 94 94 94 94 93 93 87 88 87 71 74 70 46 53 43 41 48 37 
56 60 52 70 72 67 84 84 83 89 88 89 85 84 84 85 84 83 87 87 86 88 88 87 
86 86 86 85 85 85 72 69 67 74 72 70 79 78 76 80 81 78 80 79 77 81 79 77 
83 80 79 82 79 77 77 75 73 75 73 71 75 75 72 76 75 72 76 75 72 76 74 72 
76 73 71 74 71 70 71 68 68 75 73 72 84 84 81 86 87 84 82 81 80 77 77 75 
73 74 70 76 77 73 86 85 83 90 89 88 90 89 88 90 90 90 91 92 92 90 90 90 
87 85 84 85 83 80 84 82 79 86 85 82 91 91 90 93 93 93 92 91 91 89 88 88 
85 84 83 83 82 80 83 82 79 83 83 80 84 83 82 85 83 82 85 81 79 83 81 78 
81 81 79 83 84 82 89 90 89 91 92 91 90 91 91 81 82 80 62 66 59 58 61 54 
67 68 63 75 76 73 84 84 83 87 86 86 85 83 82 85 84 82 88 87 87 89 89 88 
87 88 88 86 88 88 80 80 80 80 81 80 80 81 80 79 79 78 76 74 72 76 74 72 
79 77 75 79 77 75 74 73 70 74 73 70 78 77 75 79 78 77 78 77 74 76 74 71 
74 70 68 73 69 67 74 72 70 75 74 73 78 76 75 80 78 77 82 80 78 84 82 81 
85 85 84 86 87 86 88 88 86 89 88 87 89 89 88 91 90 89 92 92 92 91 90 90 
86 86 85 83 83 80 82 80 77 84 82 80 90 90 89 92 92 92 89 90 88 87 86 84 
85 83 81 83 81 79 81 81 79 81 80 79 81 79 78 80 78 77 77 77 74 71 72 67 
59 63 55 59 63 56 70 73 68 79 81 79 87 88 87 88 88 87 81 80 77 79 77 74 
81 79 78 82 80 79 82 80 79 82 81 79 84 81 79 85 83 81 86 85 85 86 87 87 
86 88 87 86 88 88 82 82 82 81 82 82 80 81 81 79 79 78 76 75 73 76 74 72 
79 76 75 77 76 73 72 72 68 73 72 69 79 78 76 82 81 81 84 84 83 84 83 82 
82 80 78 80 78 76 78 77 76 78 76 75 77 75 75 77 74 74 78 74 72 81 78 76 
87 86 85 88 88 87 86 85 83 85 84 82 87 86 84 88 87 86 89 87 86 88 86 85 
85 84 82 83 82 80 83 80 78 84 82 80 89 88 87 90 89 89 88 87 85 86 85 82 
84 81 79 83 81 79 83 84 83 83 84 83 83 82 81 80 78 77 73 73 70 62 64 58 
46 51 41 44 50 39 55 60 52 68 72 67 84 85 84 90 90 90 89 86 85 88 84 83 
87 84 84 85 82 81 80 77 75 80 77 75 85 83 81 87 85 84 85 84 84 83 84 83 
80 82 81 79 82 80 78 75 74 78 76 75 79 78 77 80 80 79 82 81 80 83 81 80 
81 79 77 77 75 72 72 70 66 72 70 67 78 76 75 86 85 85 96 97 98 100 102 104 
98 101 102 93 95 96 85 85 85 81 80 79 81 80 79 77 75 74 69 64 63 69 65 62 
77 76 74 81 80 78 80 77 75 80 77 75 82 81 79 83 81 79 82 77 76 82 76 75 
83 77 76 84 80 78 86 83 80 87 85 82 87 85 83 87 85 84 87 84 85 86 83 83 
83 80 78 84 83 80 89 92 90 91 94 93 90 89 90 84 82 81 71 70 67 56 58 52 
40 46 36 36 43 33 44 51 40 58 64 56 79 81 79 88 88 87 85 84 81 85 83 79 
86 85 82 84 82 80 79 74 72 80 76 74 89 88 87 91 91 91 85 85 85 78 79 78 
69 72 68 66 69 64 71 68 65 73 71 68 77 76 74 81 80 79 85 84 83 85 83 82 
81 79 78 77 75 73 73 71 69 73 71 69 75 74 72 82 82 82 95 96 97 100 102 104 
97 101 101 92 95 95 85 85 85 82 82 81 83 84 83 80 80 79 73 70 69 70 67 65 
71 71 66 71 71 66 71 68 65 72 69 66 75 74 71 77 75 72 77 73 70 78 73 71 
81 75 74 83 78 77 86 83 80 87 84 82 86 84 81 85 82 81 82 79 79 80 78 77 
80 78 76 83 83 80 89 92 90 91 94 93 89 88 88 83 82 81 74 74 71 61 63 58 
44 50 41 39 46 36 47 53 43 59 64 56 76 77 75 82 82 80 78 78 73 77 77 72 
79 79 75 80 79 75 78 74 71 80 76 74 86 85 83 87 87 86 82 83 82 73 75 72 
60 64 58 54 59 52 61 62 57 66 66 62 76 75 73 82 80 80 84 81 81 83 81 80 
79 79 77 78 77 75 77 77 76 75 74 74 70 71 68 72 73 71 79 82 81 81 83 83 
77 79 76 76 77 74 78 79 76 81 82 80 85 85 85 87 88 88 89 91 91 82 84 83 
67 68 63 60 60 54 60 59 54 62 61 56 66 66 61 70 70 65 74 73 69 77 76 73 
79 77 75 81 78 76 82 78 77 84 81 79 86 85 83 82 82 80 72 71 68 70 69 66 
76 75 73 81 80 78 85 84 82 84 83 81 79 78 77 78 79 77 83 85 83 76 79 75 
57 62 55 54 58 51 66 67 61 72 72 68 74 73 71 72 72 69 66 68 63 64 67 62 
67 69 64 72 72 68 78 77 73 80 77 74 76 73 69 75 73 69 77 76 74 69 71 68 
52 58 50 45 52 43 62 62 57 66 66 62 76 74 72 81 79 78 82 79 79 78 77 76 
71 72 68 70 72 68 75 77 76 72 73 72 59 62 57 55 59 53 59 64 59 60 64 59 
56 59 52 57 60 53 63 66 60 72 75 70 83 85 83 91 93 94 96 100 101 89 93 93 
70 72 68 60 62 56 60 62 56 61 62 57 62 63 58 66 67 63 73 74 70 77 78 75 
78 79 76 79 78 76 80 76 75 79 76 75 78 78 76 74 75 72 69 69 65 69 69 66 
75 76 73 79 79 77 81 78 76 79 76 74 74 73 70 75 75 73 83 85 83 79 82 79 
64 68 62 63 65 59 74 72 69 78 75 73 75 73 70 69 69 65 60 62 58 57 61 55 
61 64 59 67 69 64 77 77 73 78 76 72 70 68 63 68 67 62 71 72 68 67 69 65 
54 59 53 49 55 47 72 68 66 73 69 68 76 72 71 78 75 74 79 77 77 72 72 70 
55 60 52 53 59 52 67 71 68 63 68 64 41 49 40 32 41 29 35 43 31 35 43 32 
33 41 30 35 43 32 41 48 37 55 61 52 77 81 79 91 93 94 95 97 99 91 93 94 
79 83 81 73 77 73 72 75 72 69 71 68 65 66 63 66 67 65 74 75 73 78 79 77 
79 79 78 79 79 77 78 77 74 72 72 68 61 63 59 61 64 59 72 73 70 78 78 75 
79 80 76 79 79 76 77 76 73 75 73 70 73 72 68 73 72 68 74 74 71 72 72 69 
65 67 62 65 66 62 72 70 68 76 74 72 79 78 74 73 73 69 58 62 56 54 59 53 
61 65 59 67 70 65 74 73 70 74 73 70 68 70 65 66 69 63 66 69 64 67 69 65 
66 68 65 66 68 65 76 71 70 74 70 69 70 68 65 70 68 65 73 71 70 65 66 62 
45 51 42 42 50 39 54 60 54 51 58 51 34 43 31 27 37 24 31 41 28 33 42 30 
31 40 28 33 42 31 40 48 37 54 59 52 74 77 75 85 87 87 88 88 90 85 86 87 
77 81 78 71 76 72 68 72 68 64 68 63 60 63 59 62 64 61 70 72 69 75 76 74 
78 78 76 78 78 75 75 75 71 65 67 61 48 53 45 48 53 45 63 67 61 73 75 71 
78 79 75 78 79 75 74 73 71 72 71 68 72 71 67 72 71 67 72 70 68 71 69 67 
68 68 65 69 68 65 73 71 69 77 75 73 80 80 77 75 77 73 63 66 62 58 62 57 
61 65 60 64 67 61 64 65 61 65 66 61 66 68 63 66 70 64 66 70 65 68 71 67 
71 73 71 73 74 73 73 72 70 68 69 65 59 61 55 57 59 52 62 62 58 57 58 53 
42 48 38 35 43 31 36 44 33 36 44 33 36 44 33 40 48 39 50 58 49 52 60 52 
49 57 47 52 58 50 62 66 60 68 70 67 72 73 70 75 74 72 76 75 73 72 72 69 
62 66 60 54 59 52 47 53 44 45 51 42 47 54 45 52 58 51 61 64 59 68 70 67 
75 75 73 75 76 73 69 71 67 58 61 55 40 46 36 35 42 31 42 50 39 55 61 52 
72 74 69 78 78 75 74 71 69 72 69 67 72 70 67 74 72 69 76 74 73 76 74 73 
74 71 70 75 72 70 78 75 73 80 78 76 79 80 79 77 79 78 73 74 73 68 70 67 
63 65 60 56 60 52 49 55 45 52 56 48 63 64 59 69 70 67 71 74 71 72 76 72 
70 74 71 69 73 71 60 64 58 55 60 53 44 51 41 43 48 39 51 53 46 49 51 44 
37 44 33 30 39 27 30 38 25 32 40 29 39 46 36 48 55 47 60 66 60 64 70 65 
62 68 62 65 70 65 74 77 75 76 77 76 70 70 67 69 69 66 74 73 71 71 71 68 
59 63 56 48 53 45 37 44 34 35 42 31 40 49 37 46 54 43 52 57 49 59 62 57 
67 69 65 67 70 66 60 64 59 51 56 49 41 47 37 35 43 31 34 44 31 45 53 42 
67 71 65 75 75 72 68 68 64 64 63 59 62 63 58 64 64 59 69 68 65 71 69 67 
70 68 66 73 71 68 80 78 75 81 79 77 76 76 74 74 75 74 75 76 75 71 73 70 
61 65 59 50 56 46 38 46 34 43 49 39 65 66 61 77 76 74 77 80 78 75 79 76 
68 73 69 65 70 66 39 45 35 35 43 32 27 36 24 28 37 25 39 45 35 40 45 36 
31 39 27 29 38 26 36 44 32 40 48 38 42 50 41 50 57 49 62 66 61 69 72 69 
70 74 71 74 77 75 78 81 80 76 79 77 67 70 66 69 72 68 82 83 83 81 83 82 
68 71 66 53 59 51 37 46 36 33 42 31 40 48 36 43 51 39 42 51 40 46 54 45 
55 61 54 55 61 54 47 54 46 46 53 44 50 56 48 48 54 45 38 47 35 44 52 41 
64 68 63 69 72 68 59 63 56 50 55 46 42 49 39 43 48 38 51 53 45 55 56 49 
57 58 52 65 66 61 78 79 75 80 79 76 70 67 63 66 64 60 69 71 67 67 72 65 
58 65 56 46 54 43 30 39 26 38 46 35 72 76 70 88 90 87 85 87 87 78 80 79 
66 70 66 60 66 59 25 35 21 23 33 19 18 29 14 21 31 17 31 39 28 37 44 33 
37 44 34 41 48 38 48 55 47 52 59 52 51 59 51 53 60 53 58 62 56 62 65 60 
65 69 65 69 73 70 72 77 74 70 75 71 62 67 61 64 69 64 76 81 79 79 83 81 
71 75 71 58 64 57 40 49 39 33 43 31 37 46 34 37 46 34 34 45 32 36 46 34 
43 52 41 45 53 44 42 50 41 44 52 43 51 58 50 48 55 47 35 44 32 38 46 35 
58 62 56 64 67 62 57 61 54 48 54 45 38 46 36 36 44 33 43 47 37 47 50 41 
50 54 46 59 62 55 72 74 69 75 75 70 67 64 59 62 60 55 61 64 57 57 64 55 
51 59 48 42 51 39 30 39 26 39 47 36 70 73 67 84 86 83 81 83 82 76 79 78 
68 73 69 65 70 64 20 32 16 19 31 15 18 29 14 20 31 17 27 37 24 39 47 36 
56 59 52 65 67 64 68 72 71 67 73 72 63 71 67 57 64 58 47 53 45 44 49 40 
46 53 44 50 58 50 57 64 58 59 65 59 54 62 52 54 62 52 58 66 59 62 71 65 
68 75 71 62 70 64 45 54 44 35 44 33 33 42 29 30 40 27 28 39 25 28 39 26 
31 41 29 37 46 34 45 52 43 47 55 46 44 52 42 36 46 34 25 35 21 29 38 25 
48 53 45 59 61 56 62 61 58 58 59 55 50 55 47 45 52 43 45 50 41 47 51 42 
51 55 47 55 59 51 61 63 56 65 66 60 67 67 63 62 64 58 49 55 46 41 49 38 
38 47 35 37 46 34 39 47 35 46 50 41 58 58 52 65 64 60 67 70 65 71 75 71 
76 80 78 78 83 81 23 35 19 24 35 21 28 37 24 30 39 26 30 40 27 41 49 38 
62 64 58 73 73 71 74 78 77 72 77 77 66 72 69 58 64 58 47 51 44 42 47 38 
41 49 39 47 55 46 58 65 59 63 70 65 62 69 62 58 66 57 49 59 49 51 61 52 
63 72 66 61 69 62 44 53 43 33 43 31 29 39 26 26 36 23 23 34 20 23 34 20 
26 37 23 34 43 32 46 54 45 50 58 50 48 56 47 43 51 41 36 45 33 38 46 35 
49 54 46 56 58 53 58 58 54 57 57 53 52 57 50 48 55 46 46 52 43 46 51 42 
48 53 44 51 55 47 55 57 49 60 61 55 67 69 65 63 67 61 48 54 45 40 47 36 
38 46 34 39 48 36 44 51 40 48 52 43 51 51 45 55 55 50 61 64 57 68 72 67 
77 81 78 81 85 84 34 44 31 38 47 35 48 54 46 48 55 47 40 48 38 42 50 40 
55 59 51 63 66 61 68 71 68 66 70 67 59 63 59 55 60 54 56 59 54 55 57 53 
52 56 50 58 63 59 75 79 78 84 88 88 86 91 90 75 81 77 50 58 49 43 53 42 
56 64 56 54 62 53 36 46 34 27 38 24 28 38 25 25 36 22 19 31 15 20 32 17 
28 38 26 37 46 35 45 54 44 54 62 54 64 69 63 69 72 68 68 73 69 65 71 66 
61 65 60 55 59 52 46 51 43 43 49 40 45 53 43 45 55 44 44 53 41 43 51 40 
44 49 39 47 51 42 54 56 49 60 62 56 68 70 65 67 69 64 58 60 54 52 56 48 
50 55 47 48 54 45 44 52 42 45 53 42 49 55 46 55 59 52 62 65 59 67 70 65 
71 74 70 73 76 72 39 48 36 45 53 42 57 62 56 57 62 56 45 52 43 43 50 41 
51 56 48 58 62 56 65 68 64 64 67 63 55 59 54 54 58 52 61 62 59 61 62 60 
57 59 55 64 67 64 82 85 86 93 96 99 97 100 102 83 88 86 50 58 49 40 49 38 
53 61 51 50 59 49 32 43 30 24 36 21 27 38 24 24 36 21 17 29 13 19 30 15 
29 39 27 38 47 37 44 54 44 56 63 56 72 75 71 81 82 81 83 86 85 78 82 80 
67 70 66 54 59 51 40 48 37 36 45 34 42 52 40 44 54 43 43 53 41 42 51 39 
41 48 37 45 49 40 53 56 49 61 62 57 68 70 65 68 70 65 62 63 58 58 60 54 
56 60 53 51 57 50 44 53 43 44 53 42 49 56 47 55 61 53 62 66 59 67 69 64 
69 71 66 70 71 67 
