P3
64 64
255
81 82 80 80 81 78 76 78 74 76 78 74 79 81 80 83 86 85 88 91 90 91 94 92 
93 93 93 87 86 86 74 72 71 72 70 68 81 81 79 79 79 77 66 66 63 64 63 60 
74 72 68 83 81 79 91 92 91 94 96 96 92 93 93 90 92 91 88 92 90 85 88 86 
81 81 81 82 82 82 88 89 90 91 92 93 90 91 91 91 92 92 92 94 96 92 94 97 
92 93 94 91 92 94 91 93 94 90 93 95 89 93 95 91 94 95 94 96 97 96 98 98 
96 98 99 94 97 98 91 93 94 93 95 97 100 103 106 101 106 108 98 101 104 
91 93 96 81 81 84 76 75 77 75 74 74 74 73 72 72 72 70 75 74 72 81 80 80 
83 82 83 81 82 82 80 82 82 81 82 83 81 82 83 82 83 84 80 81 82 77 78 78 
75 76 76 82 83 82 81 82 80 79 81 78 78 79 76 76 77 75 79 79 78 84 86 84 
88 90 88 91 92 91 87 86 85 75 73 71 72 71 68 78 79 76 76 76 73 64 61 59 
62 57 54 69 63 60 77 72 70 85 84 83 89 91 90 90 92 91 88 90 89 84 86 84 
81 82 81 81 80 80 83 82 83 89 89 90 89 90 90 86 84 84 86 84 85 90 90 91 
91 93 94 90 91 92 90 92 92 92 93 95 91 93 95 88 91 92 88 92 92 93 95 95 
95 97 97 95 98 99 94 97 99 92 95 97 94 97 99 98 102 103 98 102 104 94 98 101 
89 92 95 83 84 86 77 77 79 73 72 72 73 72 72 77 77 76 80 81 80 83 82 83 
83 83 84 81 82 83 81 83 83 82 84 84 80 83 83 77 78 79 76 77 77 77 79 78 
78 80 79 83 86 86 84 86 86 86 87 86 81 80 79 71 67 65 69 65 63 75 74 72 
82 82 80 88 88 85 86 85 83 76 75 73 71 72 68 72 74 71 68 67 64 61 51 49 
58 43 42 59 44 43 64 52 51 72 67 66 80 79 78 87 87 86 85 85 84 75 73 72 
73 70 70 80 76 78 86 83 85 90 90 90 87 85 85 76 69 69 76 68 68 84 82 81 
88 89 88 86 88 87 88 90 90 94 96 97 92 94 97 84 87 88 83 86 87 89 92 92 
93 96 97 94 97 99 95 99 101 96 101 104 96 101 102 94 98 97 91 95 94 88 92 93 
86 89 92 86 88 91 81 82 83 71 69 68 73 71 70 87 89 90 92 94 97 86 89 91 
83 85 86 83 83 83 83 85 84 84 89 88 79 84 83 67 69 67 67 68 66 78 81 79 
83 87 86 84 87 88 86 88 88 88 89 90 84 84 83 74 70 68 70 66 63 73 71 69 
78 77 75 84 84 81 85 85 82 80 80 78 75 75 72 69 69 65 63 58 54 57 42 40 
54 33 33 53 32 32 55 38 37 61 51 49 70 64 63 81 79 78 82 82 81 75 73 72 
75 72 72 82 79 80 87 84 86 89 89 89 83 81 81 71 61 61 71 60 60 82 78 77 
86 86 85 84 86 85 87 89 89 94 96 97 92 95 96 83 85 86 82 85 86 90 93 94 
93 96 97 91 94 95 92 96 97 96 101 104 96 102 103 93 96 96 90 93 92 86 90 92 
87 90 92 90 92 95 85 86 88 73 72 71 75 74 73 90 92 94 94 98 101 87 91 93 
83 85 86 80 80 80 79 80 79 80 85 83 75 80 78 65 67 64 65 66 63 75 77 75 
80 83 81 86 87 87 86 88 88 87 89 89 87 88 88 85 86 83 82 82 79 78 77 74 
77 77 74 81 82 79 85 86 83 87 88 87 82 80 79 68 62 59 59 47 44 53 34 33 
50 28 28 50 28 28 51 30 30 53 34 34 60 47 46 72 68 66 80 82 79 84 86 85 
87 87 87 87 86 86 87 85 86 85 85 86 80 77 77 70 60 61 71 60 61 82 77 78 
86 86 86 85 86 86 87 89 89 92 94 95 91 94 94 84 87 88 85 88 89 95 98 100 
96 98 99 87 88 87 86 87 87 92 96 97 95 99 101 94 98 99 93 96 97 91 95 96 
91 95 96 93 96 98 90 91 93 81 81 81 79 80 79 85 87 88 87 90 91 87 89 89 
82 83 84 74 74 74 70 70 69 70 71 69 70 71 69 70 70 70 70 69 69 68 67 65 
67 66 64 85 86 86 86 87 87 86 89 89 86 89 88 86 88 86 84 85 82 81 81 77 
80 79 76 81 81 78 84 85 82 90 90 89 85 83 82 71 63 61 60 46 44 52 32 31 
48 25 25 49 26 27 49 27 27 49 26 26 54 37 36 66 59 57 76 75 73 84 85 84 
88 89 88 86 86 85 85 85 84 83 84 84 79 77 77 71 63 63 71 63 63 81 77 78 
85 84 85 85 85 86 86 87 88 88 90 90 88 91 91 86 90 90 88 91 92 92 94 95 
91 92 92 84 84 82 82 82 80 86 88 88 89 91 92 89 91 92 90 92 93 90 93 94 
90 93 94 91 93 95 90 91 92 85 87 87 82 84 84 80 83 82 81 83 83 84 85 84 
81 81 81 73 73 72 68 67 66 66 64 62 68 66 64 73 72 72 73 72 72 67 66 64 
65 63 61 83 85 85 84 86 86 85 89 88 83 85 84 76 76 74 76 75 72 82 83 79 
84 85 81 82 81 78 83 82 80 86 87 86 84 83 83 77 72 72 67 56 56 54 35 35 
48 25 25 49 27 27 49 27 27 49 26 26 54 34 34 64 51 50 71 64 62 75 71 70 
78 77 75 80 79 77 82 82 80 84 84 84 81 79 79 73 68 67 72 67 66 78 76 76 
82 82 82 84 84 84 84 85 84 83 84 84 86 87 87 91 94 94 90 92 92 82 81 80 
79 77 76 81 80 78 81 80 78 79 78 76 78 77 76 78 78 77 80 81 80 84 85 85 
85 87 87 84 85 85 85 86 85 86 89 89 84 86 86 77 78 78 75 75 75 78 78 78 
78 78 78 76 76 76 73 72 71 69 67 64 69 67 63 73 72 69 74 75 72 74 75 72 
74 74 71 80 82 82 81 83 83 82 85 84 80 82 80 74 73 71 74 73 71 82 82 78 
84 85 81 83 82 80 83 82 80 84 84 84 83 83 83 80 78 78 71 63 63 55 37 37 
48 25 25 49 27 27 49 27 27 48 25 25 53 32 32 64 47 46 71 59 57 72 67 65 
75 73 71 77 77 74 81 81 79 85 85 85 83 83 82 76 73 72 74 71 70 78 77 76 
81 80 80 83 82 81 83 83 81 81 81 81 83 83 83 88 90 90 87 88 88 80 78 78 
79 77 76 83 83 82 84 84 82 79 78 76 78 76 74 79 77 76 80 79 79 82 82 81 
82 82 82 82 81 81 82 82 81 81 83 83 79 81 81 76 75 75 76 74 74 79 79 79 
81 81 82 80 80 81 78 77 77 73 71 69 72 69 66 73 72 68 74 74 70 75 75 72 
75 75 73 78 78 78 77 78 78 77 79 76 77 79 76 78 78 76 79 78 76 79 78 75 
80 79 77 84 83 82 84 84 84 83 83 83 82 82 81 82 81 79 73 67 64 56 39 38 
48 26 25 49 27 27 49 26 26 48 24 24 53 31 31 66 47 46 74 60 59 77 71 70 
79 78 76 79 79 76 82 83 80 88 88 87 87 86 86 81 78 78 79 76 75 81 79 77 
81 80 78 80 80 78 80 80 79 82 82 81 80 81 80 76 78 76 78 80 79 87 87 87 
92 92 92 92 94 94 91 93 92 88 88 89 87 88 88 89 90 91 88 88 88 83 83 81 
82 81 79 84 83 83 80 79 80 70 70 69 69 68 67 76 74 73 83 80 81 88 88 90 
89 90 91 85 86 86 82 82 81 79 77 77 76 74 72 73 71 68 71 68 66 71 66 65 
70 65 64 78 77 78 77 77 77 77 77 75 77 77 74 78 78 75 78 77 75 78 76 74 
80 78 76 83 83 82 84 85 84 81 82 82 80 81 80 82 82 79 76 71 69 63 49 48 
55 36 35 51 30 30 50 28 28 50 27 28 56 35 35 67 52 50 75 64 62 80 74 73 
82 79 78 81 81 78 83 83 80 86 85 84 87 85 85 84 82 82 83 80 79 82 79 78 
81 79 77 79 78 76 79 80 78 83 83 82 80 80 79 73 73 70 75 74 73 86 86 86 
92 92 92 91 92 92 91 92 92 91 92 93 92 93 94 94 95 97 92 93 93 85 85 83 
83 82 80 85 84 84 81 80 81 72 71 70 71 69 68 77 75 74 83 80 81 87 84 86 
87 86 88 84 83 84 83 82 82 82 81 81 80 78 78 75 73 72 72 68 67 70 65 63 
69 63 62 81 81 81 81 81 80 81 81 80 79 77 75 73 70 67 74 70 66 79 77 74 
82 81 79 82 82 80 81 82 81 79 81 80 79 80 79 81 81 79 80 76 75 76 68 66 
68 55 54 56 38 37 52 31 31 55 35 35 60 45 44 67 61 59 74 71 69 80 75 73 
83 78 77 84 81 80 83 81 80 81 78 77 82 79 78 86 84 83 86 84 83 82 79 78 
80 77 75 78 77 75 80 80 78 84 84 82 83 82 80 77 75 72 75 73 70 78 75 74 
80 77 76 81 78 77 84 82 81 88 89 88 92 92 93 93 94 96 92 92 94 89 88 88 
86 86 84 86 85 83 86 85 84 86 86 86 83 83 84 78 78 78 75 72 73 75 68 70 
76 68 70 78 73 74 81 78 78 84 83 83 83 83 83 79 78 78 75 74 73 73 70 68 
72 68 66 84 84 84 83 83 83 83 82 82 81 79 78 77 74 71 76 73 70 80 77 74 
83 77 75 85 73 71 86 70 69 85 69 68 84 71 70 84 77 77 84 80 79 83 79 77 
76 70 68 64 51 51 58 43 43 61 47 46 65 56 55 72 71 69 79 77 75 86 74 73 
88 74 74 86 78 78 83 79 78 80 77 75 81 78 76 87 82 81 88 83 82 84 79 78 
81 77 76 80 77 76 80 78 77 83 81 79 83 81 78 80 77 74 77 74 71 74 71 69 
74 71 69 77 74 71 79 77 75 82 80 79 85 84 84 89 89 90 90 90 91 88 88 88 
88 88 87 89 90 89 92 93 92 95 95 97 91 90 92 79 79 79 72 69 69 70 62 63 
71 62 63 76 69 70 81 77 78 86 85 86 86 86 87 81 81 81 77 77 76 74 73 71 
73 72 68 87 86 87 85 85 85 82 82 82 83 83 83 87 87 87 87 85 84 81 77 74 
83 67 65 93 55 55 98 48 48 98 46 46 95 54 53 91 72 72 88 82 81 84 84 81 
80 79 77 74 69 70 70 64 64 67 63 61 71 69 66 82 82 81 90 83 82 96 71 71 
95 68 68 88 73 72 84 77 76 83 80 80 84 80 80 87 77 76 88 78 76 87 81 79 
86 81 79 83 78 76 81 76 74 80 75 73 80 76 73 81 78 76 79 77 75 76 73 71 
76 73 71 80 78 75 78 76 73 70 67 64 71 68 67 81 80 80 85 85 85 84 83 83 
88 88 88 96 99 100 100 103 104 98 99 101 92 91 92 81 78 78 74 70 69 71 67 65 
72 67 67 77 72 73 82 80 81 89 89 90 89 89 90 81 81 82 76 76 75 75 73 72 
74 72 70 87 87 87 86 86 86 83 83 83 84 85 85 91 91 91 90 88 87 82 75 72 
85 61 58 98 45 45 104 37 37 104 35 35 101 43 43 97 60 60 92 73 73 87 82 80 
83 85 82 82 81 81 79 78 77 75 75 72 77 78 75 85 86 85 92 83 83 98 69 69 
98 65 65 89 71 70 85 77 76 85 82 83 87 81 81 89 73 72 90 72 70 89 79 76 
88 81 79 86 80 79 84 79 78 83 77 75 82 78 76 84 81 80 83 81 80 80 78 76 
81 79 77 85 85 83 82 81 79 71 67 64 69 65 63 77 75 74 81 80 79 80 79 79 
84 84 83 92 94 94 94 95 96 90 87 89 84 79 81 77 71 71 73 68 66 72 70 67 
73 71 69 76 73 72 79 77 78 85 84 85 86 85 86 81 81 81 77 77 76 74 72 71 
73 70 68 85 86 85 84 86 85 84 84 84 85 84 84 86 86 85 86 81 79 84 71 68 
89 58 56 99 43 42 104 35 35 104 36 36 103 38 38 102 42 42 98 54 54 91 75 74 
87 85 83 87 85 83 86 84 82 83 82 81 82 81 81 81 82 81 85 77 76 94 66 66 
95 65 65 89 73 71 85 79 77 86 85 83 88 82 80 93 68 68 93 66 65 90 73 71 
88 79 77 89 85 83 89 87 86 90 87 87 90 86 87 88 87 87 87 87 85 85 85 83 
88 87 86 94 94 95 92 92 92 84 81 79 79 75 73 77 74 74 77 75 74 77 76 74 
77 75 74 76 73 72 74 68 67 70 61 61 68 57 57 67 56 57 70 61 60 74 71 69 
75 74 71 72 70 68 72 69 67 73 71 70 76 75 74 81 81 81 80 79 79 73 68 68 
71 64 63 84 86 85 85 86 86 86 87 87 86 86 85 84 83 82 85 79 77 87 72 70 
92 60 59 100 42 42 104 34 35 104 36 36 103 36 36 104 33 33 100 44 44 94 68 67 
90 81 80 88 85 83 87 86 84 87 85 84 84 83 82 80 79 78 80 72 71 85 60 60 
87 60 60 86 73 72 86 82 80 87 86 84 89 83 82 94 73 73 94 69 69 89 72 70 
87 78 75 89 86 83 91 90 89 94 92 93 94 92 93 91 90 90 89 89 88 89 89 88 
90 91 89 93 93 94 91 91 92 86 85 83 83 80 79 81 78 77 78 76 75 75 74 72 
73 70 68 71 66 64 68 60 59 64 54 53 63 52 52 67 56 56 71 63 62 75 72 70 
76 76 73 75 73 71 73 71 68 71 69 66 74 72 70 81 81 80 80 78 78 71 64 64 
67 57 57 86 87 87 87 88 88 89 90 90 89 88 88 85 84 83 85 81 80 89 79 78 
94 67 66 101 45 45 104 34 34 103 36 36 103 36 36 103 34 34 100 43 43 95 60 60 
90 73 73 86 80 79 85 84 82 86 84 82 85 82 80 82 78 77 77 67 67 71 49 49 
73 51 51 83 73 73 88 85 85 88 86 86 90 87 87 93 87 86 92 83 82 86 76 74 
84 75 73 86 82 80 90 88 86 94 93 93 95 94 94 91 90 89 90 89 88 91 91 90 
89 89 87 83 82 80 79 79 77 79 79 77 82 82 80 87 87 84 84 84 82 74 72 72 
72 68 68 76 72 71 76 71 70 71 66 65 71 66 64 75 70 68 76 72 71 76 73 72 
78 76 76 83 81 82 84 81 81 78 75 74 78 76 74 82 82 81 79 76 75 67 57 57 
62 49 48 85 86 86 86 87 87 89 90 90 88 89 89 85 86 85 85 84 83 89 83 83 
94 71 71 100 47 47 104 35 35 104 36 36 103 36 36 103 34 34 101 42 42 95 57 57 
90 70 70 86 80 79 85 85 84 86 85 83 86 83 81 82 78 77 76 66 65 65 48 47 
66 48 47 76 67 67 84 78 79 87 83 84 90 87 88 91 90 89 89 87 86 84 78 77 
83 77 75 86 82 80 89 87 85 93 92 91 94 92 92 90 88 88 88 86 85 88 85 84 
85 83 81 80 78 76 77 75 73 77 73 72 79 75 74 83 83 79 82 83 79 76 75 73 
75 73 72 80 77 75 80 77 75 75 73 71 75 73 71 79 77 75 80 77 76 76 74 74 
79 77 77 87 86 87 88 87 87 82 79 78 80 77 75 82 81 79 78 75 74 69 61 59 
65 54 53 81 82 82 82 84 84 85 87 87 86 88 88 86 87 87 87 86 86 87 86 86 
91 74 73 98 50 49 103 38 37 104 36 36 105 35 35 104 33 33 101 41 41 94 59 58 
89 73 71 88 83 82 88 88 88 88 88 88 86 85 84 82 78 77 77 69 67 69 56 54 
66 51 49 68 53 53 73 62 62 83 77 77 88 84 84 88 82 82 87 80 80 85 80 79 
85 82 80 87 86 84 89 89 86 91 88 86 91 87 86 89 85 84 85 80 80 80 72 71 
80 73 72 86 81 80 85 79 79 79 66 67 73 62 61 69 65 61 72 71 66 80 80 77 
83 83 80 81 81 77 79 78 74 75 74 71 76 74 72 81 77 75 81 78 76 77 74 74 
78 77 77 85 86 86 86 87 87 83 80 79 81 77 75 81 78 76 79 76 75 78 73 72 
77 72 70 72 68 68 73 70 70 75 73 73 78 77 77 82 81 81 84 84 84 86 86 86 
89 79 79 96 62 62 100 50 49 102 42 42 103 38 38 103 38 38 99 47 46 92 66 64 
88 77 75 86 82 81 86 85 85 87 87 87 87 86 85 85 82 81 81 76 74 74 66 64 
70 59 58 68 56 55 72 61 61 83 76 76 87 81 80 85 75 75 85 75 75 87 81 81 
88 86 85 90 89 87 90 89 87 90 87 85 89 85 83 86 82 81 82 76 75 75 66 65 
77 67 67 86 80 80 87 78 78 80 62 62 74 57 56 69 63 60 71 71 67 81 81 78 
83 84 81 79 79 75 76 75 71 74 71 69 76 71 69 80 76 74 81 77 75 79 76 74 
78 77 75 80 79 78 80 79 78 80 75 74 80 75 73 80 77 75 81 79 77 83 80 79 
83 81 80 58 44 44 59 45 45 61 48 48 65 55 54 72 67 65 78 77 75 85 86 84 
90 88 87 92 84 84 94 72 72 97 54 54 98 46 46 99 48 48 97 58 58 90 77 75 
85 84 82 80 78 77 80 78 77 84 83 81 88 87 85 91 90 88 89 86 86 82 77 78 
78 73 73 77 73 72 80 75 74 87 80 79 88 78 78 84 70 70 85 72 71 89 83 83 
92 89 89 93 90 90 93 90 89 90 88 88 87 85 84 83 80 78 79 73 72 75 66 65 
75 66 66 81 75 74 83 73 72 80 61 59 80 63 60 82 77 75 82 83 80 78 78 77 
75 74 74 72 71 70 71 68 66 72 65 63 73 66 64 75 72 70 78 76 74 80 78 76 
78 74 73 72 64 63 70 60 60 73 64 63 76 70 69 81 79 78 84 83 83 85 83 83 
85 83 83 52 32 32 52 32 32 53 33 32 59 43 42 70 63 61 78 77 75 85 84 83 
87 87 87 86 87 86 87 80 79 91 66 65 93 59 58 93 60 60 92 67 67 88 82 81 
85 86 85 81 80 78 80 77 76 82 79 76 85 83 80 89 87 85 89 88 87 86 84 85 
83 82 83 83 82 82 84 82 81 88 82 81 88 80 79 87 75 74 88 78 77 94 88 88 
95 90 90 92 84 84 89 82 82 88 84 84 85 83 82 82 78 77 79 74 72 78 70 70 
79 71 71 82 76 76 84 76 75 84 69 68 86 71 70 90 82 80 88 83 81 81 75 75 
76 71 71 74 71 70 72 67 66 72 60 59 72 60 59 73 68 66 76 74 72 81 79 77 
78 72 71 67 55 54 64 50 49 68 57 57 73 66 66 79 77 77 83 83 83 85 84 84 
85 84 84 52 31 31 51 30 30 50 28 27 58 41 40 76 70 69 84 83 83 85 81 82 
82 78 78 76 73 70 77 72 69 86 77 74 88 77 76 85 73 73 84 74 75 86 81 80 
87 85 84 89 87 86 86 84 82 80 74 72 78 71 69 80 75 72 83 79 78 86 85 85 
87 87 87 86 84 83 86 82 81 86 82 81 88 85 84 93 89 89 97 93 94 100 96 97 
96 88 89 86 70 69 81 65 64 82 74 73 83 79 77 82 79 77 83 79 77 85 80 78 
87 82 81 89 85 85 91 87 88 92 88 88 93 84 84 92 76 75 91 72 70 91 71 71 
89 74 73 84 79 77 79 73 71 73 56 56 71 53 53 73 64 63 76 72 70 80 78 76 
76 71 69 65 53 51 61 47 46 65 55 54 70 63 63 75 73 73 79 80 79 82 84 83 
83 86 85 55 40 40 55 39 39 55 38 38 63 49 49 79 74 75 86 85 86 85 82 83 
82 77 77 76 71 68 77 73 70 85 84 82 87 87 86 83 81 81 82 78 79 83 79 79 
86 82 81 91 88 86 89 85 83 80 73 71 76 68 67 78 71 69 80 76 74 84 83 83 
87 86 86 88 85 84 87 84 83 86 84 83 88 87 87 94 94 93 97 97 97 99 96 97 
95 88 88 85 71 70 81 66 64 82 73 72 82 77 75 82 78 76 83 79 77 85 80 78 
88 83 81 92 88 88 94 91 92 94 94 95 94 88 88 94 74 73 94 68 67 95 70 70 
93 75 75 89 82 80 83 77 75 76 61 60 74 57 57 76 66 65 77 72 71 79 75 74 
75 70 68 66 56 54 63 50 49 64 54 53 65 59 58 68 63 63 71 67 67 74 72 71 
75 74 73 63 58 57 65 60 59 70 63 63 75 69 69 79 77 78 83 83 84 87 86 86 
88 86 85 84 82 82 85 82 82 89 88 87 89 88 88 87 84 85 84 80 81 81 77 76 
82 77 76 88 81 80 87 81 79 82 75 74 80 74 72 81 76 74 82 78 76 81 79 77 
83 81 80 87 85 85 89 87 87 89 88 87 88 88 87 88 88 87 89 88 87 91 89 88 
91 88 88 90 87 86 88 85 83 86 81 80 83 79 77 80 77 75 79 74 72 79 71 68 
83 74 72 90 84 83 92 88 89 89 89 88 90 84 83 95 75 74 96 71 70 93 72 72 
91 75 74 88 80 79 85 79 78 82 74 72 81 72 71 82 76 75 81 76 75 76 73 71 
73 69 67 71 64 62 68 60 58 63 56 54 61 52 50 59 48 47 59 46 46 59 46 46 
59 47 47 71 71 70 74 72 72 78 76 75 80 77 77 79 77 77 80 79 79 85 84 83 
88 87 86 89 87 88 89 87 88 89 88 88 89 88 87 88 86 87 86 83 83 82 77 76 
82 74 72 87 73 72 88 72 71 83 71 70 81 73 72 83 78 76 83 79 77 81 77 76 
83 78 77 88 83 83 91 86 86 91 89 89 89 89 88 86 84 83 85 82 81 85 83 82 
87 85 84 89 88 87 88 88 87 86 83 82 85 79 78 84 74 72 81 69 67 75 63 60 
77 66 64 86 79 78 88 84 83 84 82 80 84 78 76 89 73 72 90 71 71 88 73 72 
88 77 76 88 82 81 87 83 82 85 82 80 84 81 79 86 82 81 83 79 78 77 73 71 
74 70 68 75 70 68 71 66 63 64 57 55 59 48 46 54 38 38 52 33 33 51 32 32 
51 32 32 80 78 78 80 77 77 80 76 75 78 74 73 77 73 73 77 73 73 79 75 73 
83 79 78 89 86 86 90 88 88 87 85 84 86 85 84 88 88 87 88 86 86 85 80 78 
86 72 70 90 62 60 89 58 57 83 62 61 81 68 67 83 75 75 85 79 78 84 78 78 
87 78 77 92 78 78 93 82 82 92 88 88 90 89 89 86 83 83 84 80 80 83 79 78 
82 77 76 80 75 74 81 75 75 84 79 78 88 77 76 93 71 69 88 63 61 75 54 53 
72 58 56 81 73 71 82 78 77 78 73 72 75 70 69 75 68 68 77 70 69 80 74 72 
85 79 78 90 86 86 90 88 88 86 85 83 84 83 81 86 84 83 85 82 81 81 77 75 
78 74 72 77 74 71 73 68 65 66 57 55 59 46 44 52 34 34 49 28 28 50 29 28 
50 29 28 88 71 71 87 70 70 85 67 67 81 68 67 78 71 70 76 73 72 78 74 72 
81 76 75 84 79 79 85 81 80 84 80 79 85 81 80 86 83 81 87 81 80 85 77 75 
86 70 68 89 61 60 88 59 57 82 62 61 81 69 68 85 77 77 86 79 80 83 75 75 
82 70 70 84 66 66 84 68 68 83 75 75 83 78 78 82 76 76 82 76 76 83 79 78 
81 76 75 77 68 68 78 69 69 85 79 78 90 79 78 92 70 68 88 62 60 76 54 53 
73 57 56 79 71 69 80 75 74 76 71 70 73 69 68 71 68 67 72 70 68 76 72 70 
81 76 75 87 82 81 88 84 83 84 82 81 83 82 80 84 83 81 84 81 80 82 77 76 
78 72 70 73 66 64 69 60 57 65 54 51 59 45 43 52 33 32 49 27 27 50 28 28 
50 29 28 96 49 49 95 49 49 94 51 51 89 58 58 81 71 69 79 78 76 82 80 80 
80 76 76 74 67 66 74 66 65 80 74 73 84 75 74 84 70 68 83 68 66 81 68 67 
81 69 68 83 71 70 83 72 71 80 72 71 82 76 75 88 84 84 87 81 81 77 67 67 
70 56 55 65 47 47 63 45 45 64 50 50 67 55 55 72 61 61 78 70 70 85 82 81 
85 81 81 78 68 68 79 68 68 89 82 82 90 83 83 83 71 70 79 64 63 77 63 61 
78 65 64 80 72 71 81 75 74 80 74 73 79 74 72 77 73 71 76 72 69 75 69 66 
76 68 65 79 67 66 81 70 69 80 75 73 80 77 75 79 76 75 79 75 74 80 73 72 
75 64 63 62 47 46 58 41 39 60 47 44 59 44 42 54 34 34 52 30 30 52 31 30 
53 31 31 100 40 40 99 41 41 98 44 44 93 53 53 83 70 68 80 80 78 83 82 81 
80 77 77 71 64 63 71 62 61 80 71 70 86 70 69 87 59 58 85 58 56 81 65 63 
79 71 70 81 77 75 82 79 77 82 77 76 84 79 78 87 83 83 82 75 75 69 56 55 
59 42 42 54 35 35 52 32 32 54 35 35 58 40 41 64 49 49 73 63 62 85 81 80 
87 83 82 80 71 70 78 68 68 84 75 75 84 76 76 79 73 72 77 70 69 79 69 67 
81 70 69 81 75 74 82 77 76 82 78 76 82 77 75 81 76 74 78 73 70 74 67 64 
74 63 61 76 62 60 79 63 61 82 65 63 83 66 65 81 67 66 79 68 68 79 69 68 
71 58 58 56 36 36 52 30 29 57 40 38 60 45 42 60 43 42 60 42 41 59 42 40 
59 41 40 100 44 44 99 44 44 98 45 44 93 53 52 83 69 68 80 78 77 81 79 78 
80 77 76 76 73 71 77 71 69 84 71 70 90 64 64 95 50 49 93 51 49 85 67 66 
81 76 74 82 77 74 85 77 75 89 77 76 88 76 75 81 74 74 71 62 62 58 40 40 
51 29 29 50 29 29 50 30 30 52 30 30 54 33 34 58 39 39 67 53 53 81 74 73 
86 82 80 81 76 75 76 68 67 70 56 56 71 58 58 80 74 75 83 80 79 81 74 72 
81 73 71 83 78 77 84 80 80 83 80 80 83 80 78 81 78 76 79 74 71 74 66 63 
74 64 61 78 66 63 83 62 60 91 52 50 93 50 49 89 56 55 84 61 61 77 65 64 
68 56 55 56 34 34 52 27 26 55 35 34 62 46 44 71 59 56 75 64 61 72 60 57 
70 59 55 94 53 52 94 53 52 94 54 53 90 58 57 82 65 65 79 71 70 80 74 72 
80 76 73 77 75 72 79 72 70 87 68 67 93 59 58 99 45 44 97 48 47 87 67 66 
82 77 74 81 75 72 83 75 72 89 77 75 88 75 74 79 70 70 68 56 57 54 34 34 
48 24 24 49 27 27 50 28 28 51 28 28 52 31 31 55 35 35 63 48 47 77 69 67 
83 77 75 81 73 72 75 64 63 66 49 49 67 52 51 80 72 72 84 80 79 82 75 74 
81 74 73 83 77 77 83 78 78 83 78 77 83 78 77 83 79 77 81 75 73 76 67 65 
76 66 63 79 70 67 84 65 62 92 50 48 94 46 46 91 56 56 85 62 62 77 66 65 
69 59 58 63 43 42 60 37 37 61 43 42 67 54 52 78 70 66 82 76 72 79 72 69 
78 71 67 83 66 63 84 67 64 85 70 68 84 67 66 80 58 57 78 58 57 80 68 66 
78 72 70 75 71 68 78 67 65 88 61 60 95 54 53 100 44 44 97 48 47 88 65 64 
81 72 71 76 71 68 76 72 69 82 75 73 83 75 74 79 72 71 70 59 59 56 38 38 
50 27 27 50 28 28 51 29 29 51 30 30 53 32 32 56 36 35 62 47 45 73 64 62 
78 69 67 78 62 61 76 57 57 72 54 53 73 57 56 79 65 64 82 71 69 80 74 73 
80 74 73 80 72 72 80 70 70 80 71 69 81 74 72 85 79 78 85 78 76 81 70 68 
79 69 66 80 73 71 83 69 68 87 57 56 89 56 56 87 67 68 84 72 72 78 72 70 
76 69 67 77 63 62 77 61 61 75 64 64 76 69 68 80 75 72 81 78 75 81 77 75 
81 77 75 77 73 69 78 75 71 80 78 75 79 70 69 76 52 51 75 49 48 77 63 61 
78 70 68 76 71 69 81 67 65 91 56 55 98 48 47 101 42 42 98 47 47 88 63 63 
80 70 69 73 68 65 71 66 63 73 66 64 76 67 66 79 70 69 74 63 63 63 47 47 
56 36 36 52 31 31 51 28 29 51 29 30 53 33 33 58 39 38 64 47 46 73 58 56 
77 60 58 77 53 53 76 51 51 74 52 52 75 55 54 78 58 56 80 63 61 81 70 69 
81 73 72 81 71 71 80 70 69 79 68 66 78 68 66 79 69 68 80 68 68 79 66 65 
79 68 66 81 75 73 82 74 73 84 66 66 85 66 67 86 75 76 83 77 77 78 72 70 
78 71 69 83 74 73 85 75 74 82 74 74 80 74 73 78 74 72 78 74 72 78 73 72 
78 73 72 78 74 71 79 75 72 79 77 74 77 67 66 71 47 46 70 44 44 74 59 58 
78 70 68 82 77 75 88 71 69 96 52 50 101 41 40 102 38 38 97 45 45 87 63 63 
79 69 68 71 65 62 67 58 55 65 48 47 68 50 50 77 64 63 79 68 67 74 62 61 
66 51 51 56 35 35 50 28 28 50 28 28 53 34 34 61 43 43 69 49 49 77 51 50 
80 50 49 78 47 47 75 46 46 71 45 45 71 46 45 76 49 48 80 54 54 83 62 62 
85 70 69 85 76 75 83 76 75 79 69 69 73 60 60 65 49 49 64 48 47 71 55 55 
77 65 63 82 76 74 84 80 78 84 77 76 85 76 77 87 79 79 84 76 75 78 66 64 
77 66 64 82 76 75 83 79 78 80 73 73 77 69 69 74 67 66 71 64 62 70 61 59 
69 59 57 74 70 67 75 71 68 77 71 69 75 63 61 68 44 44 66 40 40 69 51 51 
73 61 60 79 69 68 87 65 63 96 47 46 101 38 37 101 36 36 97 44 44 89 61 61 
80 68 66 71 63 60 65 55 53 63 45 45 66 47 47 74 60 59 80 66 64 83 64 63 
76 55 54 60 36 36 51 27 27 50 27 27 55 36 36 68 53 53 76 57 56 81 47 46 
81 43 42 76 45 44 73 44 44 70 42 42 70 42 42 74 44 44 77 49 49 81 56 57 
83 66 65 84 76 75 82 77 75 76 67 67 69 56 56 60 43 43 59 41 41 68 52 51 
76 63 62 82 76 74 85 82 80 84 80 80 84 80 80 88 82 81 86 78 77 81 69 68 
79 68 67 80 75 74 80 76 75 78 69 68 76 66 65 73 65 64 71 63 62 69 60 58 
68 58 57 64 61 58 67 62 59 73 63 60 74 57 55 68 44 43 64 38 38 62 41 40 
63 44 43 68 48 47 78 47 46 92 42 42 99 39 38 98 37 37 96 44 43 93 58 57 
84 64 62 72 62 59 66 59 57 67 58 56 69 57 56 71 57 57 78 56 56 90 54 53 
86 46 45 64 34 33 53 27 27 51 27 26 59 40 39 77 68 67 85 70 69 83 46 45 
78 38 37 71 45 44 69 47 47 71 45 45 72 44 44 72 43 43 73 46 46 76 52 52 
78 61 60 79 71 70 76 72 70 70 61 60 66 54 53 64 49 49 65 50 49 69 55 54 
75 64 63 83 75 75 85 80 79 83 76 76 84 77 76 88 82 81 89 84 84 87 83 83 
83 79 79 78 71 71 75 66 65 75 62 61 75 63 62 76 68 66 76 71 69 76 71 70 
75 71 71 53 53 48 58 53 49 68 54 51 71 50 49 68 43 42 65 39 38 62 38 36 
61 38 37 63 41 40 73 42 41 91 41 41 99 39 39 96 38 37 94 43 42 94 57 55 
87 64 62 75 65 63 71 68 66 76 72 71 77 69 68 74 57 57 77 49 49 86 44 43 
81 38 37 63 31 31 54 27 27 55 28 27 64 41 40 80 67 66 86 68 68 81 45 44 
74 36 35 65 40 40 62 42 42 66 42 42 69 41 41 70 42 42 71 44 44 72 47 47 
72 53 53 72 63 61 69 63 61 64 54 52 62 50 48 64 51 50 67 54 53 72 58 58 
76 64 64 80 71 71 82 74 74 81 72 71 83 75 74 89 82 82 90 86 87 89 87 88 
85 82 82 78 70 70 74 63 62 72 59 58 72 59 58 72 61 60 72 63 62 72 64 64 
72 65 65 40 47 37 46 46 38 60 45 41 68 44 42 69 42 41 69 42 41 68 42 40 
66 44 42 65 49 47 74 49 47 94 44 43 101 40 39 94 38 37 91 43 43 91 57 56 
88 67 65 81 74 71 81 81 79 89 90 90 90 82 83 84 59 59 77 43 43 70 34 34 
63 29 29 56 28 28 56 28 28 64 30 30 70 37 37 77 51 51 78 53 53 75 45 44 
68 38 37 56 32 32 52 30 31 55 32 32 60 35 35 69 41 41 72 43 43 69 41 41 
66 44 43 63 50 48 60 50 47 57 45 42 58 44 42 61 47 46 67 53 52 76 61 61 
78 65 65 75 63 63 75 64 63 79 67 67 83 73 73 88 83 83 89 85 86 86 82 83 
83 77 78 80 72 71 76 66 65 70 59 59 65 52 52 60 45 45 58 41 40 57 40 40 
57 40 40 36 45 35 43 44 35 58 42 37 67 41 39 69 41 40 70 42 41 70 43 41 
68 46 44 64 50 48 71 50 48 89 44 43 94 39 39 84 35 35 81 40 40 85 54 54 
87 64 63 87 68 66 90 75 73 95 84 84 94 79 80 87 60 60 75 43 43 60 30 30 
51 24 24 51 26 26 58 29 29 73 32 32 79 37 37 77 42 43 74 44 45 69 44 43 
61 39 37 52 29 28 48 25 25 49 27 27 54 30 30 63 36 36 66 37 37 63 34 34 
62 39 38 64 51 49 62 52 50 58 43 41 58 40 38 61 43 42 68 52 51 78 66 65 
80 68 67 74 58 57 73 58 57 79 66 66 83 74 74 86 80 80 84 78 78 77 67 68 
76 65 66 80 71 71 79 71 71 73 66 66 65 55 55 56 38 38 50 29 29 50 28 28 
50 28 28 41 49 40 47 47 39 61 43 39 68 41 39 68 40 39 68 40 39 68 41 40 
66 43 41 61 45 44 65 45 44 78 42 41 78 37 37 65 30 30 64 34 35 73 50 50 
83 54 54 94 48 47 98 48 48 94 56 55 89 60 59 83 60 60 72 50 51 55 31 31 
46 23 23 47 25 25 59 29 29 82 36 35 90 40 39 82 42 42 72 43 43 62 42 41 
55 38 36 51 29 28 49 25 25 49 26 26 50 27 27 52 28 29 53 28 28 52 26 26 
59 38 38 74 65 65 77 68 68 66 48 47 62 39 38 64 40 39 69 51 50 79 71 69 
81 72 71 76 56 55 76 55 55 82 70 70 84 76 76 83 75 74 75 64 63 61 44 43 
62 45 45 77 67 67 84 78 79 82 78 79 73 65 66 57 40 40 50 28 28 50 29 29 
51 29 29 56 61 55 60 58 53 67 51 48 70 45 43 67 40 39 65 37 36 64 38 37 
62 39 38 59 41 40 61 41 40 68 39 39 67 36 36 59 31 31 59 35 34 68 47 47 
78 48 48 90 38 38 92 35 35 85 40 39 82 50 48 81 65 64 74 61 60 60 37 37 
53 25 26 56 27 27 67 31 31 89 39 38 94 44 43 85 45 45 75 45 45 63 44 42 
55 39 37 51 30 29 49 25 25 49 25 25 48 25 25 48 25 25 47 24 24 47 23 23 
56 35 35 72 62 62 77 68 68 71 53 54 68 45 45 68 41 41 71 48 47 75 66 64 
75 66 64 71 49 49 73 51 51 82 71 71 84 77 77 78 71 69 70 60 57 59 43 41 
62 46 45 79 71 71 86 81 82 83 78 79 73 64 64 57 39 39 50 27 27 50 29 29 
51 30 30 80 82 80 80 76 75 78 65 64 74 53 52 66 40 39 60 33 33 58 33 32 
57 35 34 58 37 37 59 38 38 61 36 36 62 36 36 63 37 36 66 40 40 69 46 46 
72 46 46 74 39 39 73 36 36 69 36 36 71 49 48 81 75 72 82 74 71 74 46 46 
72 32 33 76 32 32 83 35 35 92 43 43 93 49 48 88 53 52 80 53 51 71 48 48 
61 41 40 52 29 29 47 24 24 48 25 25 48 25 25 48 26 26 48 25 25 48 25 25 
51 29 29 58 40 40 65 50 50 72 59 59 75 58 58 74 46 46 72 44 43 68 50 49 
64 48 47 59 39 38 64 46 45 79 69 69 82 77 75 72 70 65 68 65 60 70 63 61 
75 69 68 85 83 83 85 83 82 76 67 66 66 52 50 55 36 35 50 28 28 50 29 29 
51 30 30 89 88 89 87 83 84 83 72 72 75 58 58 64 39 39 57 30 30 54 30 29 
54 31 30 56 33 33 57 34 34 58 34 34 60 36 35 63 37 37 65 40 39 67 44 43 
67 44 44 65 40 40 64 38 38 62 38 37 66 48 47 78 70 67 83 71 68 83 51 50 
85 39 39 88 36 36 91 38 38 92 44 44 92 48 48 89 51 50 85 52 51 78 51 51 
69 45 45 58 35 35 52 29 29 50 27 28 49 27 27 49 26 26 49 25 25 48 25 25 
50 28 28 55 35 34 63 46 45 74 60 60 78 61 60 77 47 47 72 40 40 65 41 41 
58 38 38 53 32 31 57 40 39 73 62 61 73 68 66 58 60 53 57 60 52 67 68 64 
78 76 74 88 85 84 87 78 77 75 57 55 64 41 40 54 32 32 50 29 29 51 30 30 
51 30 30 82 81 81 82 79 78 81 74 73 74 60 60 61 39 38 54 28 28 53 28 28 
52 28 28 52 29 29 54 31 31 60 35 34 60 35 34 56 32 31 57 34 33 62 40 39 
64 42 42 63 41 40 63 42 41 64 46 44 66 49 47 71 50 49 78 51 50 87 50 49 
91 46 46 92 40 40 92 39 39 91 42 42 90 42 42 90 40 39 88 43 42 84 52 51 
78 53 52 69 46 45 62 39 39 56 33 33 51 29 29 49 26 26 48 24 24 48 23 23 
52 31 30 62 46 45 70 55 53 77 57 55 79 53 51 75 43 41 70 39 38 65 39 39 
59 36 36 53 29 29 54 33 32 63 48 47 57 51 47 37 42 31 35 44 32 53 57 49 
70 68 63 87 75 74 90 68 68 78 46 45 67 33 32 55 30 30 50 29 29 51 30 30 
52 30 30 77 75 73 77 73 72 78 69 68 71 58 57 59 37 36 52 27 27 52 27 27 
51 27 27 50 27 27 53 30 30 60 38 36 62 39 37 58 34 33 59 36 35 64 45 43 
65 48 47 63 47 46 65 49 48 69 56 53 71 55 52 72 45 44 76 42 42 84 46 45 
88 45 44 88 40 39 89 38 38 91 39 39 91 38 38 91 34 34 90 39 38 88 52 50 
83 57 55 76 54 53 69 49 49 63 43 43 57 37 37 52 30 30 50 26 27 50 26 26 
56 35 34 67 53 52 76 60 57 84 54 51 85 49 47 79 46 44 74 45 43 70 44 44 
67 43 43 64 41 41 63 43 43 64 48 47 54 45 41 34 36 25 33 38 26 49 54 45 
67 66 61 86 74 73 91 66 67 83 42 42 72 29 29 57 28 28 50 28 28 51 29 29 
52 30 30 71 68 66 72 65 64 74 59 58 69 49 48 57 35 34 51 27 27 51 28 28 
51 28 28 51 27 27 53 32 32 59 43 41 64 46 44 69 43 42 72 47 45 73 57 55 
71 61 59 67 57 57 69 60 59 78 68 64 82 66 62 80 54 53 78 46 45 74 41 40 
74 37 36 78 34 34 84 34 34 92 36 36 95 36 36 93 35 35 91 39 39 90 50 48 
86 56 54 78 59 57 74 59 58 72 57 56 67 50 50 58 38 38 55 32 32 57 32 32 
62 40 39 70 56 53 80 59 56 94 49 48 97 49 48 89 57 55 83 59 57 81 55 54 
81 59 58 84 69 70 82 70 70 75 61 60 65 51 48 52 41 34 50 44 36 58 59 52 
70 71 67 85 81 81 92 73 73 90 46 46 79 31 31 58 28 28 49 27 27 51 28 28 
52 28 28 71 67 65 70 61 60 68 50 49 63 40 39 54 31 31 50 27 27 50 27 28 
51 28 28 51 28 28 54 32 32 58 42 40 63 45 43 68 42 41 71 45 44 72 56 54 
73 60 58 74 57 57 78 59 59 83 68 65 85 67 64 85 57 56 81 48 47 73 38 38 
70 34 33 74 34 34 79 34 34 84 33 33 88 33 33 91 34 34 91 39 39 88 49 47 
82 54 52 75 54 53 73 56 55 76 58 58 72 54 54 61 41 41 57 35 35 60 36 36 
63 40 40 66 49 47 75 52 49 90 47 47 94 51 51 88 63 61 83 66 63 79 58 55 
79 62 60 86 78 77 85 80 79 78 67 66 71 56 54 63 47 43 62 50 45 68 65 61 
75 76 74 84 84 83 90 75 75 94 49 49 87 34 34 68 31 31 58 29 29 56 29 29 
55 28 28 74 70 70 70 61 61 60 41 41 54 30 30 52 28 28 51 27 27 50 27 27 
50 27 27 51 28 28 54 30 30 58 34 34 59 35 34 56 30 30 56 33 32 60 41 40 
70 45 44 86 45 44 90 49 48 84 56 55 82 58 57 85 55 54 84 49 48 79 39 39 
76 36 36 76 38 38 74 36 36 68 31 31 72 30 30 85 33 33 88 39 39 81 49 47 
74 49 48 66 41 41 66 41 41 73 48 48 72 48 48 60 40 40 56 37 36 59 38 38 
59 37 37 55 34 33 59 37 36 70 46 46 77 56 55 78 66 64 74 65 61 64 53 47 
62 53 48 70 67 64 73 72 70 74 66 66 72 60 59 68 52 51 71 56 55 79 73 72 
82 82 81 81 83 81 85 73 71 95 51 50 96 40 39 87 38 37 77 35 35 66 32 32 
62 30 30 69 61 62 65 53 53 55 34 34 50 25 25 51 26 26 51 27 27 50 27 27 
50 27 27 50 27 27 52 28 28 56 30 30 55 29 30 51 27 27 52 29 30 59 36 36 
72 39 39 93 39 38 99 41 40 89 46 46 84 49 49 83 52 51 82 50 50 81 46 45 
79 44 44 78 46 46 75 42 42 69 33 33 72 30 30 86 33 33 88 38 38 79 45 44 
71 44 43 64 35 35 64 34 34 69 41 41 68 41 41 58 36 36 54 34 34 57 35 35 
55 33 33 50 26 26 51 29 29 57 41 41 64 51 50 71 59 57 68 57 53 55 44 39 
53 43 38 61 54 50 68 59 57 75 59 58 78 57 57 77 54 54 79 61 60 85 77 77 
86 83 82 81 77 76 85 67 65 97 51 50 100 43 42 96 41 41 88 38 38 78 35 35 
74 34 33 57 40 40 56 37 37 52 30 30 50 26 26 51 27 27 50 27 27 49 26 26 
48 26 26 48 26 26 49 26 26 51 27 27 53 29 29 54 32 32 59 36 37 67 42 42 
80 42 42 97 37 37 104 35 35 100 36 36 91 41 41 78 48 48 74 54 53 79 58 56 
81 59 57 81 58 56 82 51 50 87 40 39 90 34 34 94 35 35 90 35 35 81 37 37 
74 37 37 69 37 37 66 37 37 64 36 36 60 33 33 54 29 29 51 28 28 51 29 29 
51 28 28 50 26 26 50 27 27 51 31 31 57 36 36 67 42 41 66 41 39 54 32 31 
52 32 30 60 39 36 70 43 41 81 45 45 87 49 48 88 53 52 88 63 61 87 79 78 
86 81 79 86 68 66 90 57 56 98 48 47 101 42 42 96 41 41 93 40 39 91 39 38 
91 38 38 51 31 31 52 32 32 55 34 34 55 33 33 52 28 29 51 26 26 50 26 26 
51 26 26 54 27 27 55 28 28 54 31 30 56 35 36 60 43 44 66 48 48 72 50 50 
82 48 48 95 42 42 101 40 40 100 43 43 94 47 47 82 53 53 77 57 56 81 60 58 
83 60 58 81 59 56 85 53 51 94 43 42 96 37 37 92 35 36 86 34 34 79 32 32 
75 33 33 74 37 37 71 37 37 65 34 34 59 32 32 54 30 30 51 28 28 50 27 27 
50 27 27 50 27 27 49 27 27 48 26 26 55 31 30 69 40 39 70 39 39 58 29 30 
56 26 26 64 31 30 71 34 33 79 36 36 85 41 41 91 49 47 90 60 58 83 75 72 
81 75 73 82 61 59 85 50 49 89 43 42 92 39 39 92 39 40 94 40 39 97 40 39 
98 40 39 52 34 33 55 38 38 63 47 47 63 45 45 55 32 32 52 26 26 52 27 27 
57 29 29 66 31 31 68 34 34 63 40 39 64 49 48 69 61 61 72 65 64 74 61 59 
79 57 55 87 54 53 92 57 57 91 67 67 92 70 70 94 65 65 93 59 58 89 52 49 
84 49 45 80 51 47 81 49 45 90 42 42 89 38 38 81 36 36 75 33 33 73 31 31 
75 31 31 80 33 33 79 35 35 72 37 37 66 38 38 60 38 38 55 36 36 52 31 31 
51 28 28 51 27 28 50 27 27 48 26 26 57 34 34 77 52 52 81 52 52 68 35 35 
65 28 28 71 31 30 72 33 32 68 32 31 72 34 34 86 41 40 86 51 49 74 64 61 
69 66 63 71 56 54 71 46 45 69 35 35 73 32 32 85 37 37 91 39 38 94 39 37 
95 38 36 56 41 40 59 44 43 66 51 50 65 46 46 55 32 32 54 26 26 62 29 29 
70 31 31 77 33 33 75 36 36 65 41 39 62 49 47 66 61 58 68 64 60 68 59 54 
70 56 52 76 55 52 81 63 61 86 77 77 90 78 78 93 65 66 91 53 53 84 42 41 
80 41 38 78 49 45 79 51 48 84 47 45 83 42 42 78 38 38 74 34 34 71 31 31 
73 30 30 81 33 33 82 36 36 75 39 39 69 43 43 65 49 47 61 48 46 57 40 40 
55 37 36 55 37 36 54 34 34 50 29 29 58 38 37 78 59 58 82 60 60 71 43 43 
68 36 35 74 39 38 74 39 38 67 35 35 68 36 36 77 42 40 76 49 46 66 57 54 
62 58 55 64 51 50 64 43 42 63 33 32 70 30 30 84 36 36 92 38 38 95 38 37 
96 38 36 64 53 52 64 50 49 64 44 43 60 37 37 52 30 29 59 28 28 80 32 32 
89 34 34 85 34 34 75 33 33 59 34 31 51 37 31 50 42 35 52 45 36 54 43 35 
57 44 36 60 46 39 69 56 51 84 74 72 87 72 73 77 52 53 70 39 40 67 32 32 
68 37 36 76 54 52 78 60 58 76 56 54 79 50 49 84 43 43 82 37 38 72 32 32 
70 31 31 77 35 35 78 38 38 72 42 41 70 49 48 70 61 58 68 63 60 65 56 53 
64 53 51 65 54 52 62 49 48 55 37 36 58 41 40 71 60 59 73 65 63 66 55 53 
65 52 50 72 55 53 75 54 52 76 48 47 72 47 46 64 52 49 60 54 50 60 54 50 
60 52 49 60 47 46 64 42 41 72 36 34 80 34 33 90 37 36 96 38 38 98 39 39 
99 40 39 65 53 52 65 49 48 65 39 38 62 33 32 56 29 29 65 30 30 90 34 33 
96 36 34 84 33 33 71 32 31 59 33 29 52 33 27 50 33 26 49 34 26 50 35 27 
53 37 30 58 40 34 69 50 45 86 64 63 86 63 64 69 46 47 60 36 36 58 31 31 
61 35 35 68 49 48 72 55 53 70 52 51 73 48 47 80 42 42 80 38 38 73 35 35 
71 35 35 75 38 38 75 40 40 71 41 41 69 48 46 70 58 55 70 64 60 69 63 59 
69 63 60 69 63 60 65 55 53 56 40 38 57 42 40 67 61 59 70 67 65 65 61 58 
66 61 58 73 66 64 79 64 62 83 53 52 78 51 50 62 58 55 55 59 55 58 55 50 
57 50 46 54 46 43 59 44 41 72 44 41 83 43 41 92 42 40 96 42 41 97 43 43 
97 44 44 59 43 42 63 41 40 71 36 35 72 33 32 66 31 31 72 32 32 91 35 34 
91 35 33 72 32 30 63 33 30 65 38 34 65 38 34 64 34 31 60 32 30 54 34 30 
56 36 32 67 38 36 79 43 41 91 50 49 87 51 51 69 47 47 59 43 42 57 37 36 
57 35 33 56 34 33 59 35 34 65 37 35 67 37 35 66 35 34 68 36 36 74 41 40 
77 43 42 76 43 43 74 41 41 70 38 37 67 38 36 66 42 38 67 50 46 70 63 58 
70 66 63 67 62 60 62 52 51 55 37 36 56 40 39 68 61 60 72 68 67 70 61 60 
71 63 61 78 73 71 84 69 68 89 52 52 85 49 49 71 61 60 63 65 62 60 59 54 
54 54 47 46 49 41 50 50 43 64 57 53 77 58 55 89 50 49 93 48 47 90 50 49 
89 51 51 68 38 37 71 37 36 79 34 34 81 33 33 77 33 33 81 33 33 92 35 34 
88 35 32 69 32 29 62 34 31 69 40 38 71 41 39 70 36 36 64 33 33 55 32 31 
56 34 33 69 40 39 79 44 43 86 47 46 83 49 47 69 49 48 62 48 47 61 46 44 
58 40 37 51 30 28 51 26 25 58 28 28 60 30 29 56 30 29 60 35 34 74 43 42 
79 47 46 76 45 44 74 42 41 72 38 38 71 36 34 71 34 32 71 44 40 71 63 59 
70 68 64 67 59 57 62 48 47 54 36 34 54 38 37 65 55 54 69 62 60 67 57 55 
70 60 58 76 70 69 81 67 67 85 53 52 82 51 50 74 63 62 66 66 64 59 61 55 
50 55 46 39 46 35 44 50 41 65 68 63 79 73 70 87 64 63 89 59 58 83 57 55 
80 56 54 93 36 36 92 35 35 89 34 34 89 33 33 90 34 34 91 34 34 91 33 33 
85 33 32 74 32 30 69 34 33 72 39 39 72 42 41 68 41 40 62 37 36 53 29 29 
53 32 32 64 46 44 70 54 52 71 57 54 71 57 54 70 52 52 70 52 51 70 57 53 
63 52 47 51 35 33 47 27 26 51 27 27 52 28 27 50 29 27 56 34 32 70 43 41 
77 46 44 75 43 42 74 42 41 76 42 42 79 40 39 85 36 35 83 44 42 71 64 60 
67 68 63 68 55 51 64 44 41 53 37 33 51 36 33 58 44 40 60 48 44 58 48 44 
61 52 48 67 58 57 70 60 59 69 56 54 68 58 54 69 64 60 65 65 59 56 61 54 
46 52 43 33 37 26 42 45 35 73 76 70 88 88 86 87 82 82 82 74 73 74 63 60 
70 58 53 96 33 34 93 33 33 86 32 32 87 32 33 95 34 34 97 34 34 94 34 34 
87 36 36 78 40 40 74 43 43 74 44 44 70 45 44 63 44 41 56 38 36 50 28 27 
51 30 30 58 43 42 61 52 49 60 55 51 62 54 51 65 47 47 67 48 47 68 55 52 
64 51 47 56 37 34 51 29 27 49 27 27 48 26 26 48 27 26 54 32 30 68 41 39 
75 44 43 74 43 42 75 43 42 78 44 44 82 42 42 89 38 38 87 43 42 75 57 54 
71 59 55 75 48 44 72 41 37 61 38 34 57 38 33 59 40 35 58 43 37 56 46 40 
57 47 43 60 46 45 61 49 48 61 56 53 61 59 55 61 59 53 59 57 50 54 54 47 
46 48 39 35 37 26 44 45 35 71 72 66 83 85 82 80 84 83 76 79 78 72 70 66 
70 66 61 77 30 30 75 30 30 69 30 30 75 31 31 92 33 33 100 35 35 99 37 36 
94 44 44 83 57 57 77 61 61 74 55 54 67 49 47 54 44 39 48 37 32 48 28 27 
50 27 27 52 32 32 53 37 35 53 42 39 53 41 38 53 35 33 54 34 34 55 40 39 
59 40 39 64 34 33 62 30 29 53 27 27 48 26 25 48 26 25 55 30 29 67 37 36 
74 41 41 76 43 42 77 44 43 78 44 44 79 43 43 82 42 42 83 41 41 81 42 40 
83 40 39 87 38 36 85 38 36 78 40 38 72 43 39 68 44 38 64 46 40 60 50 43 
57 46 41 53 34 33 54 36 36 61 52 51 60 56 53 52 48 42 49 43 36 51 41 34 
50 42 34 45 44 35 48 50 41 58 57 52 64 64 60 66 70 66 70 75 71 76 78 76 
79 79 78 65 30 29 63 29 29 59 28 28 65 29 29 81 31 31 89 35 35 90 42 40 
87 51 49 82 62 61 78 64 64 74 57 55 65 50 47 52 44 38 46 36 32 48 28 27 
49 25 25 49 27 26 49 29 28 50 33 31 49 32 30 48 28 27 49 29 28 53 34 34 
59 36 35 68 34 33 66 31 30 54 27 27 49 26 25 50 26 25 56 29 28 69 34 34 
76 38 38 77 41 41 77 42 42 75 42 42 77 42 42 83 42 42 85 41 41 83 38 37 
85 35 34 88 34 33 86 36 34 79 41 39 74 44 40 73 43 38 68 45 39 61 49 43 
55 46 40 50 34 32 53 36 35 65 51 50 66 53 51 58 43 38 54 38 32 54 40 33 
52 43 36 49 49 40 49 52 43 51 52 45 56 55 49 63 61 55 70 69 64 77 78 76 
80 82 81 58 34 31 57 32 30 55 29 29 57 28 28 63 28 28 66 35 33 65 49 44 
68 56 51 75 54 52 76 52 51 72 50 48 65 47 44 56 43 41 51 37 36 49 29 28 
49 25 25 49 26 26 49 27 27 50 28 28 50 28 28 49 27 27 52 30 30 59 37 36 
65 39 38 68 36 35 65 32 32 55 28 28 50 26 26 52 26 26 59 28 28 74 32 32 
81 35 35 80 38 38 77 39 38 71 37 37 76 37 37 91 39 40 93 42 41 81 45 43 
77 43 40 79 36 34 75 35 33 64 41 37 64 41 37 73 37 34 70 38 34 57 45 38 
50 48 40 51 47 42 59 48 45 73 52 49 80 51 48 80 43 41 74 43 40 61 50 45 
52 53 45 47 51 42 46 52 43 50 55 47 58 57 50 71 56 52 76 61 57 73 70 67 
72 75 72 55 36 31 55 34 30 54 29 29 54 27 27 55 26 26 55 35 32 54 53 46 
60 58 51 72 50 47 76 46 45 71 47 44 65 46 43 58 43 42 53 38 37 50 29 29 
49 25 25 49 25 25 49 26 26 50 26 26 50 26 27 49 27 27 53 31 30 63 39 37 
67 41 39 68 36 36 64 32 32 55 28 28 51 26 26 52 26 27 61 28 28 77 31 31 
83 34 34 81 37 36 76 37 36 69 35 35 75 35 35 95 38 38 96 42 42 80 48 46 
73 46 43 75 37 34 70 35 32 58 41 36 59 40 36 73 34 32 71 35 32 55 43 35 
48 49 40 52 53 46 61 54 49 76 53 49 86 50 47 90 44 42 83 46 43 65 55 50 
52 57 50 46 52 43 45 52 42 49 57 48 59 58 51 74 54 50 79 57 54 72 67 63 
69 71 67 
