P3
64 64
255
128 75 30 128 75 30 128 75 30 128 75 30 128 75 30 128 75 30 128 75 30 
128 75 30 128 75 30 128 75 30 128 75 30 128 75 30 128 75 30 128 75 30 
128 75 30 128 75 30 128 75 30 128 75 30 128 75 30 128 75 30 128 75 30 
128 75 30 128 75 30 128 75 30 128 75 30 128 75 30 128 75 30 128 75 30 
128 75 30 128 75 30 127 75 30 116 68 27 124 73 29 121 71 28 127 74 30 
128 75 30 128 75 30 128 75 30 126 76 30 126 74 30 127 75 30 128 75 30 
128 75 30 128 75 30 128 75 30 127 74 30 106 62 25 127 75 30 124 72 27 
128 75 30 128 75 30 128 75 30 127 75 30 121 78 30 128 75 30 128 75 30 
128 75 30 127 74 30 118 68 24 117 67 25 44 26 9 11 7 2 12 7 2 107 62 25 
128 75 30 128 75 30 111 65 26 124 73 29 128 75 30 128 75 30 128 75 30 
128 75 30 128 75 30 128 75 30 128 75 30 119 70 28 123 72 29 128 75 30 
128 75 30 116 68 27 127 75 30 128 75 30 128 75 30 128 75 30 125 73 29 
128 75 30 128 75 30 127 75 30 124 74 32 128 75 30 128 75 30 128 75 30 
128 75 30 125 73 29 124 72 29 128 75 30 125 73 29 128 75 30 128 75 30 
128 75 30 128 75 30 124 75 30 124 75 30 128 75 30 128 75 30 128 75 30 
127 75 30 128 75 30 126 74 29 124 72 28 111 65 26 126 74 30 127 74 29 
128 75 30 126 74 29 127 74 29 125 76 30 107 82 30 127 75 30 126 73 28 
121 70 26 124 72 28 108 63 25 83 57 20 96 77 28 65 40 15 84 50 19 119 70 28 
128 75 30 128 75 30 125 73 29 127 75 30 128 75 30 128 75 30 128 75 30 
128 75 30 128 75 30 128 75 30 128 75 30 125 73 29 127 74 30 128 75 30 
128 75 30 120 70 28 128 75 30 128 75 30 123 73 29 119 70 28 125 74 31 
125 74 31 127 75 30 126 74 30 119 70 27 97 57 22 108 64 25 122 71 28 126 74 29 
99 58 23 95 56 22 119 69 28 123 72 29 128 75 30 125 76 30 128 75 30 128 75 30 
98 62 24 103 61 24 126 75 30 128 75 30 128 75 30 128 75 30 128 75 30 121 70 25 
120 69 25 122 76 30 108 81 30 119 70 28 121 71 28 121 69 25 125 72 28 
128 75 30 126 74 29 126 74 29 125 73 28 118 68 24 120 68 24 127 75 30 
121 73 29 124 77 30 125 76 30 127 75 30 127 75 30 128 75 30 124 73 29 
128 75 30 128 75 30 128 75 30 128 75 30 123 72 29 118 69 28 127 75 30 
128 75 30 128 75 30 128 75 30 128 75 30 124 72 28 126 74 29 125 73 29 
128 75 30 128 75 30 125 74 29 122 72 29 120 72 32 115 71 34 122 73 33 
65 38 15 104 60 21 84 49 18 88 52 21 88 52 20 122 71 29 107 63 25 91 54 21 
116 68 27 128 75 30 128 75 30 128 75 30 127 75 30 128 75 30 118 69 28 
110 66 26 127 75 30 125 76 30 122 73 27 125 73 28 128 75 30 125 74 30 
118 69 28 105 64 25 85 60 21 88 53 20 97 57 22 102 65 24 110 65 25 128 75 30 
127 75 30 125 73 29 126 75 30 121 76 29 123 72 28 123 75 29 126 76 30 
126 76 30 126 75 30 127 75 30 128 75 30 128 75 30 126 74 29 128 75 30 
128 75 30 128 75 30 128 75 30 109 64 25 94 55 22 120 71 28 124 72 29 126 73 29 
128 75 30 128 75 30 125 73 30 121 71 28 94 55 22 113 66 25 120 70 28 115 68 27 
128 75 30 122 74 32 92 57 27 108 65 30 110 64 26 121 70 27 108 60 19 106 58 18 
112 65 25 118 69 28 127 74 30 117 69 28 106 81 30 121 69 25 123 71 27 
128 75 30 111 65 26 126 74 30 128 75 30 128 75 30 128 75 30 128 75 30 
125 72 28 126 73 29 128 75 30 128 75 30 128 75 30 118 77 30 100 60 22 
86 50 18 109 65 26 105 62 24 99 59 22 122 70 27 127 74 29 125 72 28 127 75 30 
126 76 30 124 76 30 118 69 28 95 61 23 106 63 25 105 61 25 108 64 26 127 75 30 
128 75 30 128 75 30 128 75 30 127 75 30 123 72 29 127 74 30 123 72 29 
108 63 25 116 68 28 107 63 24 121 69 25 126 73 29 128 75 30 128 75 30 
124 73 29 100 58 23 92 53 19 88 52 20 90 53 21 126 74 30 126 74 31 98 60 28 
112 67 28 123 72 28 127 75 30 122 70 26 118 67 23 125 72 30 107 60 20 
117 68 26 118 69 28 126 74 29 107 58 17 120 68 26 122 70 26 120 68 25 
128 75 30 128 75 30 128 75 30 128 75 30 128 75 30 126 73 29 127 75 30 
128 75 30 127 75 30 127 76 30 123 77 30 116 72 28 100 61 23 121 72 29 
122 70 27 118 67 25 120 68 24 125 72 28 128 75 30 127 75 30 91 88 29 103 82 29 
69 42 16 99 61 23 100 59 23 87 51 19 100 59 23 123 72 28 127 75 30 127 75 30 
128 75 30 128 75 30 114 67 27 126 74 29 125 74 31 125 74 31 127 74 30 
128 75 30 121 72 32 128 75 30 128 75 30 128 75 30 116 68 27 109 64 25 
107 62 25 78 46 18 111 65 26 127 75 30 128 75 30 128 75 30 115 65 21 107 58 16 
119 68 24 112 62 19 115 65 22 103 60 22 121 69 26 126 74 29 128 75 30 
128 75 30 107 63 25 114 67 27 125 73 29 125 75 29 125 74 29 111 65 23 
120 69 27 121 70 28 125 73 28 127 74 30 124 73 29 124 72 27 124 72 28 
103 65 25 121 71 28 121 78 30 111 75 29 124 73 30 127 74 29 128 75 30 
126 74 29 128 75 30 126 76 30 128 75 30 107 82 29 55 46 15 88 53 21 44 31 12 
71 43 16 95 56 22 124 73 29 127 74 29 123 72 29 102 60 24 127 75 30 125 75 31 
127 75 30 127 75 31 114 70 32 115 70 33 125 74 31 124 73 30 127 75 30 
127 75 30 126 75 30 127 75 30 126 74 30 114 67 27 113 67 27 119 70 28 
128 75 30 126 75 30 127 75 30 126 75 31 110 60 18 106 57 15 106 57 15 
106 57 15 106 57 15 104 57 16 123 71 27 128 75 30 125 73 28 125 73 28 
125 74 30 113 79 30 111 69 26 106 83 29 122 72 27 107 61 21 106 62 23 
95 56 22 128 75 30 125 74 29 123 72 29 123 71 27 113 66 26 89 52 20 104 67 24 
106 82 29 121 77 30 126 74 29 120 71 29 127 75 30 120 77 29 119 79 29 
122 76 29 125 72 28 128 75 30 68 41 16 115 68 27 124 73 30 122 72 29 125 73 29 
127 74 30 128 75 30 127 75 30 126 74 30 127 75 30 127 75 30 127 75 30 
109 64 26 62 37 17 74 45 21 93 58 25 119 71 31 118 70 27 125 74 31 123 74 32 
121 72 31 98 57 22 74 44 17 86 51 20 123 72 29 122 71 28 93 55 21 124 73 29 
126 74 30 117 67 23 113 63 20 109 62 21 107 62 20 105 56 15 111 61 19 
123 73 29 126 74 30 125 74 29 125 73 28 125 75 29 112 75 27 115 70 25 
123 75 29 124 72 27 121 69 25 120 70 27 112 66 26 128 75 30 127 74 30 
128 75 30 128 75 30 109 64 25 106 62 23 126 74 29 127 75 30 127 75 30 
122 76 31 99 59 26 109 65 27 89 66 24 119 78 29 121 70 26 118 67 23 126 73 29 
117 69 28 93 54 21 114 67 26 128 75 30 123 73 33 123 74 29 122 71 26 127 75 30 
127 75 30 123 71 27 122 73 28 121 73 29 48 28 10 19 11 5 32 20 9 66 41 19 
121 72 29 117 68 26 125 76 30 123 73 32 113 67 28 89 53 20 89 53 21 106 66 26 
126 75 30 116 69 27 88 53 21 105 62 25 97 58 24 123 75 30 121 70 27 121 70 26 
107 71 25 115 66 23 102 59 22 113 68 28 102 61 24 104 61 25 122 70 26 
112 63 20 105 61 22 95 55 20 127 74 30 125 73 29 128 75 30 128 75 30 128 75 30 
128 75 30 128 75 30 114 67 27 123 72 29 127 75 30 126 74 29 128 75 30 
128 75 30 128 75 30 124 76 30 110 78 29 112 66 26 88 59 22 99 83 28 117 70 25 
112 64 23 119 75 29 109 64 25 96 57 22 109 64 26 115 70 29 116 72 32 124 75 29 
99 74 24 128 75 30 126 73 29 116 67 24 122 71 28 107 66 26 40 24 9 32 24 9 
32 20 9 69 42 19 32 18 7 99 60 24 124 75 30 128 75 30 116 68 27 102 59 22 
117 70 28 116 70 30 119 72 31 125 73 31 111 67 30 125 72 30 124 73 30 
121 71 27 120 68 24 120 69 25 119 69 27 118 70 29 88 53 22 88 52 21 84 49 20 
90 53 19 118 68 25 110 61 18 100 58 22 81 47 18 118 69 26 127 74 29 125 73 28 
128 75 30 128 75 30 126 73 29 126 73 28 120 70 27 123 71 28 120 70 25 
123 78 30 127 75 30 128 75 30 127 75 30 128 75 30 128 75 30 120 70 26 
117 68 25 113 77 28 92 85 29 102 76 26 121 75 29 124 73 29 124 73 29 121 71 29 
112 72 27 114 69 25 111 78 30 106 81 29 125 75 31 126 74 29 113 66 24 
118 71 31 110 77 32 93 65 28 70 77 26 108 67 30 77 46 21 31 19 7 75 45 18 
124 73 29 126 75 31 121 72 30 89 51 18 58 34 13 116 70 32 112 69 32 113 70 31 
124 74 31 124 72 27 122 73 28 114 66 25 119 68 25 117 67 25 86 50 18 88 52 20 
124 73 31 109 63 27 80 45 14 103 56 15 110 64 24 127 74 29 101 60 25 69 42 16 
94 56 21 117 66 24 127 74 30 124 71 27 128 75 30 119 68 24 124 72 27 113 67 26 
121 71 28 126 75 31 120 78 31 123 72 28 118 69 27 126 74 30 128 75 30 
128 75 30 124 72 28 122 70 26 123 72 27 116 79 30 119 78 30 128 75 30 
128 75 30 128 75 30 128 75 30 122 75 30 122 73 29 115 79 30 112 81 30 
124 74 31 126 75 31 124 76 30 120 73 33 121 74 32 119 73 34 121 74 33 
119 72 33 114 70 31 112 71 28 118 71 29 120 70 27 120 75 31 119 74 30 
55 32 12 87 51 20 122 72 33 125 74 31 125 74 30 122 72 31 119 69 24 119 69 25 
124 72 28 122 70 27 119 68 25 105 61 22 105 61 25 122 72 29 125 73 29 
109 61 19 111 62 20 122 73 30 127 74 31 121 71 27 118 70 31 115 68 29 
125 75 31 117 68 28 126 73 30 128 75 30 126 73 28 126 74 30 125 74 30 
122 73 29 128 75 30 127 75 30 114 69 27 87 53 20 112 72 27 122 77 30 125 76 30 
122 71 29 122 73 29 126 73 29 125 73 29 121 74 30 118 68 24 120 71 28 
115 67 27 126 75 31 128 75 30 123 72 29 121 70 26 123 71 28 119 78 30 
124 74 31 125 74 31 124 74 31 126 75 30 118 70 31 125 74 30 120 71 31 
73 53 21 86 51 21 124 75 31 121 72 30 124 76 30 101 79 28 121 71 28 99 59 23 
120 72 31 127 75 30 110 63 23 111 62 21 91 51 15 113 63 21 128 75 30 122 71 28 
109 63 23 122 71 29 90 60 24 109 64 25 128 75 30 126 73 29 120 72 33 113 70 33 
124 72 28 118 67 23 124 73 30 119 71 31 119 70 29 125 73 29 128 75 30 
123 71 26 117 66 23 124 73 29 126 76 31 112 76 29 120 70 27 124 72 29 
123 73 29 103 59 21 119 69 25 117 74 29 127 74 29 125 73 29 111 65 26 
113 68 27 108 64 25 110 67 27 92 53 18 84 53 18 76 55 19 117 75 29 125 74 30 
121 72 29 108 63 23 101 66 24 123 72 29 126 75 30 122 73 29 99 59 23 64 46 18 
97 62 27 113 69 29 123 73 29 100 59 25 89 54 23 124 74 31 116 71 29 123 72 29 
117 71 27 119 69 28 119 70 28 118 70 30 127 75 30 114 65 23 112 64 23 
81 47 17 118 67 25 124 72 29 120 71 27 54 31 12 106 63 26 89 52 21 104 62 27 
127 74 30 128 75 30 124 74 32 110 66 29 105 62 26 112 65 25 123 70 26 
128 75 30 128 75 30 123 72 28 120 70 28 110 63 24 118 68 24 126 73 28 
125 76 30 109 66 24 99 57 20 117 66 23 125 73 28 125 72 28 124 72 27 126 75 30 
128 75 30 100 59 23 105 62 25 98 58 23 119 71 28 123 73 29 109 64 25 73 43 17 
103 63 25 127 74 30 122 75 32 118 71 33 107 64 26 105 79 31 95 57 23 105 66 26 
115 70 29 73 43 17 106 62 25 50 33 15 109 67 29 117 70 30 121 74 32 121 72 31 
122 74 31 115 68 27 126 76 30 109 63 24 114 67 27 118 68 25 124 72 29 
128 75 30 125 73 29 115 68 27 93 54 22 103 60 21 100 58 22 106 62 25 68 41 17 
109 64 25 89 52 20 111 66 29 124 74 29 120 68 25 119 69 26 119 70 30 121 72 29 
102 60 23 102 61 24 126 75 30 121 70 27 126 73 29 119 69 27 116 68 27 
119 68 24 116 67 25 97 56 21 116 68 26 113 67 26 121 69 26 119 73 28 123 71 27 
127 74 29 128 75 30 128 75 30 125 73 29 127 74 30 127 74 30 124 73 29 
125 75 29 124 75 31 112 66 27 127 74 30 122 75 31 128 75 30 125 74 31 
96 57 24 121 72 31 75 45 19 40 24 11 68 56 21 75 45 19 94 54 23 95 59 25 
106 78 29 113 72 30 102 68 27 123 71 27 108 62 21 81 47 18 111 66 26 121 71 29 
90 53 20 89 51 19 94 55 22 120 71 29 127 75 30 121 73 29 86 51 18 90 52 19 
94 55 21 99 59 24 109 73 33 115 70 29 110 63 24 121 69 26 121 70 27 123 72 27 
122 71 28 101 61 27 113 66 26 78 45 19 73 43 17 118 69 28 101 58 21 126 73 28 
126 73 29 125 73 28 125 72 28 109 64 24 81 47 17 102 60 22 117 71 28 126 76 30 
109 70 27 119 75 29 90 54 21 112 72 29 121 77 30 123 72 29 115 67 27 128 75 30 
101 59 22 94 54 21 121 72 28 125 72 28 127 74 29 126 74 29 128 75 30 126 74 30 
125 73 30 128 75 30 114 76 31 124 73 30 118 74 28 128 75 30 127 75 30 
121 71 28 125 73 28 122 74 33 118 70 27 120 68 24 96 53 17 64 37 12 83 49 19 
121 73 29 115 69 27 99 59 23 92 55 23 108 63 24 118 69 26 103 60 23 97 57 21 
109 62 23 75 44 18 115 69 28 126 74 29 105 61 24 109 60 21 115 65 23 98 56 22 
114 67 26 116 68 29 113 65 26 124 71 30 121 70 26 104 59 20 120 70 26 
119 68 26 120 69 26 126 73 28 119 69 26 92 54 21 113 68 25 118 70 26 126 75 30 
122 72 29 125 74 30 124 72 29 121 73 28 60 36 14 84 50 19 126 74 30 128 75 30 
127 74 31 119 70 28 79 46 17 70 41 16 106 62 24 122 72 29 123 74 29 101 59 23 
118 70 28 116 69 30 128 75 30 124 73 30 114 68 27 116 68 27 128 75 30 
128 75 30 128 75 30 107 63 25 113 69 28 118 67 25 118 73 27 121 73 28 
100 67 23 79 46 17 101 58 23 120 73 27 115 77 30 116 73 30 114 69 31 122 72 27 
127 74 29 96 56 21 96 54 19 116 66 25 108 63 25 112 65 23 120 69 26 85 49 19 
102 58 20 116 65 22 114 66 24 108 62 23 108 62 22 106 62 22 110 64 25 
126 74 29 119 69 25 118 67 23 112 62 19 116 65 22 120 69 25 113 65 23 
101 58 21 108 65 26 121 70 26 125 75 29 114 67 27 100 58 23 91 52 20 115 67 27 
102 59 22 108 63 25 122 73 32 125 73 29 125 73 28 109 64 25 105 62 23 
99 58 23 117 71 28 102 61 24 84 50 19 68 45 17 71 76 24 119 73 30 126 74 30 
117 71 32 128 75 30 125 74 30 127 75 31 126 75 30 127 74 30 125 75 30 
117 74 29 115 67 26 112 67 24 79 48 18 93 60 21 117 67 24 123 71 28 127 76 30 
119 71 29 122 72 28 128 75 30 126 74 29 127 74 29 125 73 29 121 70 27 
125 73 29 99 58 23 88 57 19 107 66 21 113 65 23 109 61 23 106 58 17 111 62 20 
105 60 22 107 61 22 121 71 27 115 67 27 113 63 21 124 72 28 117 68 25 
115 65 22 120 70 25 120 69 26 103 60 21 115 66 24 123 73 29 127 75 30 
127 74 29 124 72 28 92 55 21 78 46 16 85 49 17 99 56 19 88 50 18 108 63 25 
126 74 31 119 70 28 90 53 21 121 71 28 127 75 30 107 81 29 112 72 27 73 43 16 
79 46 17 118 70 28 122 77 30 123 75 31 121 73 32 128 75 30 128 75 30 128 75 30 
128 75 30 125 73 29 125 73 28 125 74 29 118 69 27 118 68 26 95 55 21 80 46 16 
107 61 21 119 69 24 110 64 25 103 62 24 93 54 21 109 64 26 112 66 25 122 72 28 
122 72 28 125 73 29 128 75 30 113 66 26 107 66 25 119 70 25 99 57 21 107 61 20 
107 58 16 106 66 23 88 54 20 106 61 23 111 64 24 104 61 22 82 45 13 94 54 20 
94 54 19 112 64 21 112 64 23 121 71 28 117 68 27 115 67 26 125 73 29 125 72 28 
120 69 24 111 64 21 89 53 21 81 47 17 80 47 17 83 48 18 84 48 17 88 52 20 
117 68 27 124 74 30 123 72 29 127 75 30 124 75 30 117 69 26 117 70 27 
77 44 16 79 45 17 105 62 24 118 69 27 113 67 29 115 70 32 105 83 30 113 78 32 
127 75 30 127 75 30 112 65 25 115 65 23 126 73 28 127 75 30 128 75 30 
116 68 26 85 49 18 88 50 16 110 63 24 93 60 23 94 56 21 87 51 20 82 48 18 
70 40 13 74 44 16 71 42 16 79 47 19 104 60 23 93 54 20 88 51 19 100 67 24 
90 62 22 114 65 23 113 62 20 116 67 27 118 71 31 116 68 28 113 65 23 95 54 18 
108 60 21 106 61 23 120 70 26 121 69 25 118 69 25 123 73 28 123 71 27 
121 69 27 122 71 27 122 70 26 112 64 22 106 61 21 120 71 29 101 59 22 
92 54 20 100 57 20 69 41 15 89 53 21 117 70 28 126 75 30 125 74 29 124 73 28 
100 58 22 80 46 17 98 55 21 71 41 15 81 47 16 83 48 18 91 54 21 87 52 21 
97 57 23 109 80 30 116 78 31 127 75 31 121 71 30 84 52 20 87 50 18 113 67 26 
127 75 30 125 73 28 125 73 29 111 64 25 100 57 19 63 37 13 69 42 15 84 50 20 
75 45 17 82 47 17 68 38 13 69 41 16 61 36 13 78 46 19 86 51 19 82 48 18 
64 37 15 65 38 13 107 64 22 122 75 28 121 69 26 119 68 25 119 67 25 118 68 27 
116 67 25 114 64 21 113 62 19 117 66 22 122 70 26 122 71 28 107 63 25 
117 67 25 99 56 19 98 56 21 126 73 30 114 67 25 113 64 24 106 61 23 120 70 27 
103 60 24 112 66 26 121 71 28 77 44 16 81 49 19 106 63 25 100 59 23 112 66 24 
119 68 25 88 51 18 71 42 14 99 62 24 99 60 24 87 50 18 88 50 19 84 52 20 
78 48 21 86 52 22 101 81 32 122 75 31 114 68 30 108 72 31 98 61 23 101 58 23 
103 63 25 115 74 28 123 73 28 104 60 21 103 60 21 94 54 20 70 41 15 80 46 18 
122 71 27 105 59 21 92 52 17 97 56 19 86 49 17 85 50 19 98 58 22 102 59 23 
87 52 20 63 37 11 75 41 11 109 59 18 121 72 26 111 68 25 109 64 25 118 67 26 
124 72 28 121 69 25 120 68 24 120 69 25 119 69 26 126 74 29 123 71 28 
114 64 22 117 68 26 106 61 22 106 62 22 103 60 22 87 50 18 113 69 28 127 75 30 
116 66 24 93 54 20 101 60 24 121 69 27 96 58 21 71 41 16 80 48 18 103 60 24 
87 51 19 102 59 20 106 60 20 101 56 19 94 53 18 116 68 28 110 65 25 112 66 26 
100 60 23 69 41 17 90 53 20 93 61 27 122 73 31 120 72 32 105 69 28 73 72 23 
108 74 28 106 73 27 120 73 29 103 61 23 84 50 17 115 67 24 115 68 26 93 55 20 
111 65 24 122 70 26 92 53 19 95 54 20 103 60 21 115 65 23 118 70 26 122 71 28 
87 50 18 94 55 19 95 53 16 96 53 14 102 57 18 88 50 17 74 44 15 70 52 19 
61 36 14 88 53 20 122 70 26 120 69 25 125 73 28 111 61 19 119 68 23 120 69 25 
109 62 22 68 39 14 102 60 23 91 51 19 108 63 24 105 61 23 120 69 26 125 73 29 
126 73 29 122 77 30 125 75 30 115 69 28 97 57 22 86 52 20 79 47 18 69 40 14 
69 39 14 112 63 23 120 69 25 121 70 25 120 70 26 117 70 28 74 43 17 89 53 20 
95 58 23 104 61 24 112 64 21 81 75 29 106 69 33 110 68 31 110 70 29 103 79 26 
112 77 28 121 73 28 125 74 29 106 64 21 113 66 23 109 62 23 111 64 25 
115 67 26 127 74 29 126 73 30 104 61 24 97 57 21 121 71 27 121 69 25 124 72 28 
120 71 26 108 64 22 111 63 20 118 67 25 121 71 27 102 62 23 69 42 16 52 30 10 
71 45 16 62 38 14 83 49 19 124 73 29 125 72 29 115 68 26 108 59 17 114 63 20 
115 65 21 107 61 19 81 46 15 95 53 19 108 60 21 97 56 21 118 68 23 121 69 25 
127 75 30 113 68 28 90 61 23 126 74 29 126 74 29 119 68 25 112 64 24 83 48 17 
60 35 12 95 58 22 126 74 29 126 75 31 127 75 30 123 76 31 117 76 32 110 65 26 
116 68 27 114 68 26 105 63 25 110 64 25 103 76 33 119 75 32 116 72 28 
101 72 29 86 81 26 98 77 26 127 75 30 123 71 27 109 62 22 94 56 20 117 70 27 
121 71 28 125 73 29 122 72 29 128 75 30 120 71 27 115 66 24 122 72 27 
126 74 29 110 69 24 104 68 22 110 65 22 117 66 24 122 71 28 108 63 25 
86 62 23 63 40 14 57 35 13 76 45 16 86 50 17 86 51 19 97 57 22 123 73 29 
106 62 24 119 71 28 119 68 23 116 65 22 102 58 20 112 64 23 119 68 24 
115 66 22 117 68 27 121 70 26 125 73 28 127 74 29 118 69 28 117 67 25 
125 72 28 123 71 27 103 58 20 107 61 22 107 61 23 95 55 20 122 72 29 125 73 28 
128 75 30 126 75 31 127 75 30 119 68 26 116 67 27 90 53 21 117 69 27 104 76 29 
116 68 26 101 81 31 92 86 31 115 78 29 110 77 30 124 75 31 123 76 30 128 75 30 
124 74 28 109 64 24 86 55 20 102 70 24 119 76 28 120 71 27 103 60 23 125 72 29 
117 70 28 114 66 26 115 69 26 102 63 23 93 57 19 85 50 18 119 70 25 118 67 24 
119 69 26 114 66 25 113 66 23 87 50 15 72 42 14 72 42 15 85 50 20 77 46 17 
82 47 15 126 73 28 124 72 27 127 74 29 124 72 27 117 68 27 118 69 27 119 68 24 
119 67 24 121 70 25 122 72 28 121 70 28 110 64 24 117 68 25 123 71 26 
127 74 30 124 72 27 116 66 22 79 45 15 79 46 17 118 69 25 124 73 28 124 73 29 
115 67 25 112 65 25 121 74 30 124 72 28 122 70 26 122 72 28 95 63 24 105 62 25 
115 73 33 113 68 29 96 84 30 122 76 31 120 76 32 122 75 30 126 74 29 128 75 30 
114 67 27 109 65 26 90 53 21 109 64 24 119 69 25 123 70 26 119 69 25 123 73 29 
98 59 23 71 43 16 89 53 21 97 58 23 86 55 19 76 45 16 79 51 17 99 58 21 
112 69 24 117 66 23 114 64 21 93 52 16 111 61 19 103 59 19 96 55 19 116 67 24 
96 54 18 94 51 13 121 70 27 120 69 26 121 69 25 125 73 28 110 65 26 110 63 24 
104 58 17 119 69 25 122 70 26 117 67 25 97 56 21 83 48 17 101 58 20 116 65 21 
124 72 28 126 73 28 117 67 24 90 52 18 83 46 16 109 62 22 118 67 24 121 69 25 
107 63 24 83 49 19 89 55 21 107 60 20 107 61 22 97 59 21 81 55 21 73 45 19 
94 65 28 69 43 17 107 76 28 126 74 30 127 75 30 118 77 31 128 75 30 128 75 30 
123 72 29 121 71 29 93 54 21 109 63 23 120 71 26 123 71 28 125 72 28 128 75 30 
101 58 20 76 45 17 98 57 23 117 72 28 88 49 17 77 45 16 84 50 18 87 51 19 
113 69 25 112 66 24 115 65 22 107 60 18 110 61 21 88 50 17 81 45 13 114 65 22 
114 63 20 113 62 20 126 73 28 116 67 23 116 65 22 122 71 27 121 70 26 
121 70 26 121 69 25 121 75 28 118 67 24 120 69 26 105 59 20 105 59 18 
111 63 22 126 73 28 124 72 27 127 74 29 115 66 24 91 52 18 100 57 21 119 68 25 
116 66 23 108 61 22 87 51 20 85 50 19 82 51 19 86 51 20 85 50 19 46 27 10 
75 45 18 116 71 32 73 60 23 71 53 20 100 82 29 123 74 30 128 75 30 120 75 30 
120 73 31 124 74 31 128 75 30 127 74 29 119 68 25 119 67 24 113 66 23 
115 65 23 119 69 25 118 67 23 115 67 23 96 60 21 101 58 21 121 71 28 96 56 21 
80 47 17 66 38 13 103 60 23 120 72 29 114 68 26 123 71 26 115 66 22 117 66 24 
95 52 14 92 50 13 107 58 16 107 58 16 107 58 16 110 61 19 123 71 27 105 61 23 
113 64 23 115 68 25 117 69 25 127 74 29 127 75 30 120 68 24 115 66 23 
105 59 19 112 62 20 115 63 21 123 71 26 117 69 27 106 62 24 121 71 28 
119 70 27 124 72 27 125 73 28 92 53 19 75 44 16 114 66 26 104 61 24 91 54 21 
100 58 23 88 52 20 24 15 5 64 57 21 106 68 32 97 61 27 107 65 28 79 69 25 
102 80 31 127 75 30 126 74 30 120 74 31 125 74 30 126 75 30 119 71 28 
100 58 21 111 62 21 63 37 12 76 43 13 109 61 19 114 65 21 120 71 26 123 71 26 
88 49 16 100 59 22 126 74 29 116 66 24 80 45 14 108 60 20 117 67 23 118 67 24 
125 74 30 122 71 27 124 73 28 113 64 20 107 58 16 108 58 16 108 59 17 
106 57 15 106 57 15 112 63 21 115 65 24 115 66 23 115 73 26 122 71 26 
123 72 28 119 69 26 121 69 24 111 62 20 82 48 16 118 67 24 119 68 24 120 69 25 
97 57 21 89 51 19 115 67 25 91 53 20 114 64 23 117 68 27 100 59 23 73 42 16 
123 72 28 122 71 28 113 65 27 122 71 28 106 71 24 102 70 29 127 75 30 
100 59 24 81 49 23 89 56 26 78 77 29 101 81 31 125 74 29 126 74 30 127 75 30 
124 72 29 124 73 28 125 74 30 113 68 27 102 58 22 66 38 13 69 38 12 106 58 17 
117 65 23 123 75 28 113 66 25 91 52 18 105 61 23 117 67 24 126 73 28 110 61 22 
114 63 20 115 64 21 121 70 26 128 75 30 125 73 29 124 73 28 124 71 27 
111 62 19 116 65 22 118 68 25 108 59 16 104 60 16 111 64 21 110 62 20 
115 64 22 123 72 27 120 70 25 118 67 24 110 65 25 116 67 25 114 63 22 
113 68 26 125 72 28 101 58 20 97 56 20 118 70 26 121 70 27 117 69 26 104 61 25 
98 57 22 80 47 18 121 69 26 118 68 25 126 73 30 101 60 22 78 45 16 119 69 27 
124 72 27 125 76 30 128 75 30 124 73 29 108 63 25 102 60 25 105 76 35 
115 75 30 85 51 20 108 64 26 126 73 29 122 71 27 121 70 26 126 74 29 117 69 27 
87 52 20 86 49 20 89 51 17 102 57 20 121 69 26 85 50 19 107 63 25 121 71 28 
117 66 25 111 62 18 117 66 22 118 66 24 120 68 25 122 70 26 121 71 29 
122 71 28 117 67 24 118 67 24 120 69 24 113 62 20 120 69 25 123 72 28 
118 69 25 116 69 25 116 65 22 113 61 19 115 65 22 121 70 26 100 54 15 
108 61 19 101 57 21 113 64 22 116 66 23 115 68 25 128 75 30 115 67 25 
109 64 24 121 71 28 121 70 27 118 68 25 117 68 24 113 65 23 114 65 23 
125 73 28 104 62 24 62 39 14 66 48 16 63 42 14 78 47 18 118 69 28 122 73 28 
124 73 29 127 75 30 125 72 28 125 73 29 118 75 29 114 68 27 99 58 23 112 66 25 
120 72 29 125 73 29 109 65 27 110 67 26 126 74 30 109 64 25 113 66 26 
106 62 24 85 49 19 114 66 26 74 43 16 79 46 17 121 70 25 118 67 24 115 63 22 
117 66 22 113 62 20 85 48 15 90 50 17 95 55 19 91 53 20 108 61 22 117 65 22 
113 63 20 112 63 20 111 68 22 83 52 17 114 67 25 117 67 24 118 66 22 118 68 24 
109 59 18 101 57 17 69 39 13 68 38 12 82 48 16 112 64 22 118 68 24 124 71 27 
127 74 29 121 71 26 113 64 22 111 62 21 118 68 25 119 68 24 117 66 24 
115 66 22 114 70 24 117 69 29 96 57 22 118 68 26 91 55 20 64 38 14 40 40 13 
60 46 16 59 39 13 69 43 18 102 60 24 123 73 30 55 32 13 115 79 31 124 73 29 
124 73 28 112 66 24 111 65 27 91 56 22 61 57 19 71 66 21 110 78 28 117 68 25 
123 71 28 123 75 29 106 62 24 124 74 29 104 61 24 85 50 19 113 63 20 116 65 23 
117 66 22 120 68 24 107 60 21 72 41 12 61 34 11 73 42 15 95 55 21 116 65 23 
116 66 23 116 65 22 113 63 20 118 67 24 101 58 21 120 70 28 104 60 21 
123 71 26 119 67 25 105 57 16 79 43 13 66 38 13 72 41 13 106 61 22 114 66 26 
105 59 18 117 67 25 101 57 20 111 62 21 119 68 25 117 68 26 119 72 30 
119 69 26 104 61 24 116 69 27 114 69 27 61 50 17 119 70 29 125 72 28 105 61 23 
62 38 12 46 36 11 63 38 14 64 40 14 68 39 14 81 47 18 117 70 32 89 56 28 
119 72 32 104 61 24 118 69 26 111 65 25 91 55 24 85 53 21 78 53 20 107 65 26 
115 66 22 111 63 21 113 64 23 115 66 22 120 68 24 123 73 29 108 63 26 
120 70 28 110 62 21 108 63 23 120 68 25 119 68 25 123 72 29 106 61 22 
86 49 19 106 63 23 114 65 22 112 62 19 112 63 20 120 69 24 115 64 21 122 70 26 
125 72 28 120 69 27 115 66 24 128 75 30 124 71 28 116 66 22 106 61 23 
93 53 20 108 61 22 112 67 23 110 64 23 113 64 22 108 61 21 88 50 18 104 63 22 
119 73 29 104 60 22 96 58 24 100 61 28 114 71 34 109 64 26 82 50 21 67 54 18 
111 66 26 96 56 22 99 57 21 111 66 23 91 54 19 103 60 22 103 58 19 82 46 15 
107 61 21 80 48 22 103 63 31 95 56 26 109 65 25 102 68 25 114 68 26 98 56 21 
115 66 25 113 65 23 121 70 26 113 68 23 123 71 27 120 69 27 117 65 23 
120 68 26 128 75 30 117 68 27 124 74 30 124 74 30 125 73 29 122 70 26 
111 63 21 108 62 22 87 50 18 103 60 22 107 59 18 109 61 19 101 55 15 109 66 22 
118 71 26 121 70 26 109 63 22 108 63 23 75 44 15 78 48 17 122 72 29 112 64 23 
108 60 20 92 53 18 122 70 25 122 70 26 123 72 27 98 56 19 103 59 20 111 63 22 
81 49 16 102 60 21 119 68 25 87 49 17 77 45 18 113 68 30 116 75 33 82 49 20 
106 63 26 92 54 21 107 62 25 107 63 25 115 69 27 103 61 26 74 42 16 107 62 23 
118 66 22 112 63 22 116 67 25 127 74 30 101 61 27 72 44 18 114 69 29 118 68 27 
117 70 28 122 74 29 121 73 29 126 74 29 127 74 29 120 70 26 124 72 27 
122 71 27 121 70 28 116 67 25 110 65 26 124 72 29 128 75 30 128 75 30 
127 74 29 126 73 30 97 56 22 74 41 15 85 49 17 94 53 19 88 51 17 91 53 21 
100 58 21 100 59 21 123 71 28 112 66 26 94 56 18 81 47 16 61 37 13 69 46 16 
116 65 24 113 64 24 102 74 24 117 69 27 124 74 31 125 74 31 116 67 25 
119 68 24 120 68 25 120 69 25 110 66 24 94 55 20 90 53 19 99 57 20 71 41 16 
110 63 23 122 73 30 105 64 25 124 73 29 126 74 30 87 51 19 77 44 16 118 69 27 
116 69 29 92 53 21 116 68 28 127 74 29 109 65 29 94 57 27 109 66 30 92 56 27 
87 52 22 110 64 23 123 73 29 124 73 29 123 73 29 111 77 32 101 74 27 109 66 30 
118 70 30 120 69 26 109 62 22 120 69 26 115 66 24 80 47 18 109 63 25 106 61 23 
118 67 25 124 72 28 96 56 23 87 51 19 89 51 19 115 67 25 106 61 22 111 64 23 
108 63 24 117 67 25 116 67 24 117 67 23 119 73 27 89 50 16 90 52 19 72 42 16 
93 54 21 121 70 26 123 71 27 110 63 21 119 68 27 125 74 31 125 73 28 117 67 25 
119 71 29 124 72 29 125 73 28 126 74 30 113 67 27 109 65 26 119 70 27 
98 58 22 113 64 23 109 62 24 84 49 17 100 57 21 124 73 29 98 56 20 71 41 15 
109 64 25 123 72 29 111 64 24 108 64 30 118 72 33 111 66 29 79 47 19 75 48 23 
33 21 11 111 67 30 113 66 27 119 69 27 124 72 29 121 70 28 111 69 33 70 43 19 
73 43 19 112 65 26 122 70 26 123 72 28 123 71 28 114 65 24 82 47 17 84 49 18 
68 39 14 95 55 20 107 62 22 83 49 19 95 54 20 116 65 24 122 70 26 117 66 23 
110 62 21 92 51 17 118 69 25 109 67 25 100 61 21 115 70 25 120 70 25 126 74 29 
111 64 25 117 69 27 124 73 29 117 67 24 110 62 21 120 69 26 117 68 26 
121 68 24 117 69 27 114 68 26 110 67 26 111 66 25 120 75 28 126 74 29 
128 75 30 116 73 28 121 69 26 121 70 27 106 61 24 87 51 20 80 46 15 98 57 22 
80 47 18 79 47 19 114 67 27 120 70 27 115 66 27 99 59 26 111 65 28 106 62 26 
77 43 15 35 21 9 10 6 4 117 71 33 102 63 28 110 66 29 114 68 27 105 61 25 
122 72 29 87 52 25 48 29 11 120 70 28 124 71 27 113 65 26 112 65 26 115 67 26 
104 60 24 110 64 25 92 54 20 119 70 26 105 62 25 92 56 22 118 74 28 125 73 28 
125 72 28 125 73 29 113 68 26 111 65 26 119 68 24 126 74 30 119 69 25 
118 67 23 123 71 27 122 70 26 122 71 26 125 73 28 125 73 29 119 68 24 
107 62 22 112 61 20 110 61 19 113 63 20 118 67 25 126 74 30 118 70 31 
111 62 22 104 61 24 88 51 19 118 67 26 118 67 24 119 69 25 112 61 21 107 62 25 
82 47 18 76 44 17 84 48 18 77 44 16 79 47 20 95 58 26 119 72 32 102 61 28 
60 36 18 109 64 26 89 53 23 33 18 7 6 4 2 6 4 2 95 57 26 83 48 21 118 71 33 
120 72 33 124 73 30 114 67 26 104 61 24 104 62 24 119 70 28 125 72 28 
113 66 26 86 50 19 102 59 21 109 64 26 92 53 20 119 70 27 116 67 25 115 67 27 
124 73 29 128 75 30 116 68 27 116 67 26 127 75 30 113 67 27 126 74 29 
121 70 27 123 74 29 120 69 25 123 71 27 120 70 25 117 66 23 124 71 28 
121 69 26 121 69 25 121 70 27 111 64 22 99 54 17 113 63 20 110 61 20 111 68 22 
122 74 29 118 69 29 114 64 24 110 63 24 90 52 19 115 66 24 99 57 23 110 64 23 
81 47 18 89 52 20 89 54 21 87 51 19 106 62 24 89 51 19 89 52 21 103 63 28 
103 65 28 62 35 14 97 58 22 105 65 31 56 32 15 18 11 3 5 3 1 11 7 3 115 71 33 
116 70 30 117 71 33 122 73 31 127 75 30 112 68 29 125 73 31 127 74 30 
109 63 24 121 70 25 121 69 25 108 61 21 121 69 25 93 53 19 91 52 19 120 69 25 
84 48 18 82 47 18 99 58 23 115 65 25 89 52 19 103 60 23 116 68 27 110 64 25 
126 74 29 122 74 29 121 73 27 122 71 27 120 70 26 113 63 20 118 68 23 
124 72 27 111 61 18 112 62 20 128 75 30 117 67 23 114 64 21 125 73 28 
111 63 21 107 64 22 100 59 23 82 48 19 97 57 22 90 52 19 58 33 11 93 53 19 
113 65 25 109 62 21 78 45 16 70 41 16 61 36 13 87 50 18 114 64 24 115 66 24 
100 56 21 88 52 19 81 49 21 76 46 20 102 59 23 32 19 9 17 9 4 10 6 3 45 26 11 
59 36 17 112 70 35 111 66 28 113 69 30 107 65 30 112 66 24 124 73 29 124 71 28 
124 73 29 116 67 26 125 72 28 103 59 23 85 49 18 107 61 23 86 49 16 98 56 22 
104 59 20 78 45 16 78 45 16 86 50 20 89 52 19 85 51 19 85 48 17 102 67 24 
124 73 29 124 73 30 96 60 22 92 85 29 108 70 23 109 65 21 115 65 22 123 71 27 
122 71 27 103 57 16 114 68 23 121 71 28 119 68 24 119 67 23 128 75 30 
120 68 24 115 64 21 84 48 15 79 45 16 80 46 17 84 49 19 72 42 15 82 48 17 
113 65 26 110 65 26 109 65 26 102 59 21 101 58 21 85 50 18 105 59 20 91 51 18 
87 50 18 73 42 14 83 49 19 90 53 22 54 33 12 42 25 10 93 54 22 66 38 16 
84 49 20 58 35 13 112 68 30 109 62 22 110 65 27 63 38 16 81 46 17 108 60 21 
106 60 19 119 68 24 125 73 28 104 59 23 72 42 16 77 46 17 84 49 18 82 47 16 
83 48 17 85 50 20 99 58 21 91 53 20 87 51 20 93 54 21 87 52 20 88 52 20 
69 45 16 106 65 24 126 74 30 92 60 23 77 69 22 91 60 19 100 59 21 116 67 26 
118 69 26 119 70 27 109 64 24 107 61 23 118 68 25 123 73 30 125 74 30 
126 73 29 124 71 28 119 68 27 101 58 21 96 55 19 99 56 19 94 55 20 81 46 16 
89 50 17 110 64 24 64 38 16 63 37 14 89 50 17 111 64 23 119 68 26 120 69 26 
106 62 22 90 53 21 86 52 21 88 54 25 104 61 26 76 45 17 90 52 20 100 58 22 
65 38 14 72 41 14 71 41 15 106 64 24 110 64 27 123 72 29 110 65 27 101 61 28 
93 52 19 103 58 19 106 60 21 110 63 25 106 63 25 95 54 20 76 45 17 110 65 26 
90 52 21 79 45 16 80 47 18 121 71 29 118 70 28 102 59 21 119 69 25 106 62 23 
107 62 23 114 66 25 125 72 28 123 74 29 75 49 18 104 62 23 89 53 18 121 69 25 
111 63 20 110 60 17 116 67 24 108 63 25 120 70 29 125 73 30 121 70 30 
117 68 25 121 69 25 119 68 24 117 67 23 93 53 19 111 63 23 110 61 21 108 63 23 
101 58 20 101 57 18 94 53 19 74 43 17 75 42 16 106 61 25 87 51 20 113 67 27 
120 69 25 128 75 30 117 68 27 95 56 22 95 57 24 105 64 29 111 65 26 63 37 14 
84 48 17 65 39 15 101 56 20 79 46 19 77 46 18 96 56 21 109 66 28 111 68 32 
115 71 33 109 61 20 110 63 21 96 56 22 125 72 29 116 67 26 96 55 18 81 46 16 
121 70 26 117 68 26 110 64 25 110 64 25 101 59 24 83 49 18 83 48 17 110 63 23 
94 54 20 122 72 29 108 64 25 120 69 26 126 74 29 125 74 29 123 72 29 120 69 26 
116 65 23 107 57 15 99 54 16 111 66 22 121 72 29 109 76 27 122 75 31 97 58 23 
119 67 25 123 71 26 110 63 21 93 54 18 110 62 21 116 65 22 107 59 19 108 61 20 
108 61 21 103 59 21 104 60 24 93 56 22 98 55 17 117 68 27 97 56 20 105 60 22 
92 53 20 122 71 29 114 67 26 108 63 25 106 62 25 117 68 26 112 65 24 106 61 25 
84 49 19 91 53 21 95 54 21 121 71 28 107 62 23 120 71 27 106 64 27 102 62 29 
115 67 26 109 62 21 87 49 16 90 52 19 117 68 26 91 52 17 99 55 20 104 58 20 
119 68 25 120 70 26 124 73 29 109 76 29 94 57 22 87 50 19 93 56 20 111 65 25 
98 56 21 119 69 26 124 72 27 121 69 25 119 69 26 128 75 30 127 74 30 126 75 30 
114 65 25 98 57 19 63 41 14 80 61 20 114 67 27 127 75 30 123 76 30 117 68 25 
123 73 28 128 75 30 97 56 22 64 36 11 91 51 15 116 65 22 109 60 19 110 62 20 
106 60 20 81 46 15 101 59 23 107 62 25 77 45 16 94 53 19 110 64 25 60 41 14 
77 43 14 106 63 25 96 56 22 108 62 22 106 62 27 103 62 25 110 66 27 69 38 12 
100 59 24 81 48 19 97 58 24 117 68 27 115 66 26 122 70 26 104 59 22 44 27 11 
121 72 29 115 68 26 124 72 29 122 71 27 125 72 28 123 72 29 119 69 27 
117 68 24 123 72 28 125 73 30 97 58 23 71 71 23 90 85 28 102 61 23 81 48 17 
109 64 24 119 69 26 113 64 23 118 68 24 116 67 24 109 63 24 126 73 29 
102 64 24 98 58 22 118 69 27 109 68 23 83 66 23 110 64 24 127 75 30 119 69 25 
123 73 29 122 73 29 115 68 25 115 66 24 116 68 27 90 52 18 110 62 21 118 68 25 
114 64 21 113 64 21 111 63 21 102 57 20 107 60 20 113 65 24 111 64 25 
113 65 24 110 64 27 91 53 18 99 57 19 122 70 26 120 70 28 116 66 24 80 45 17 
59 36 15 105 62 26 32 18 7 41 25 10 111 67 30 114 70 32 86 52 24 114 68 30 
115 65 25 108 62 23 98 58 25 117 70 31 127 74 29 127 75 30 121 71 27 118 67 25 
121 71 28 126 73 28 112 65 26 110 65 26 122 72 29 114 67 27 115 69 27 
123 74 30 106 62 24 99 58 23 103 61 24 93 55 21 95 54 20 115 65 22 120 69 25 
126 74 29 126 73 29 104 60 22 91 52 19 118 69 26 109 68 27 113 76 28 126 73 28 
127 74 29 121 70 26 125 73 28 116 67 26 68 50 18 76 46 17 81 48 18 97 67 24 
100 72 23 113 73 31 121 70 26 122 70 27 108 73 28 110 63 23 119 68 25 
115 68 29 108 62 23 108 63 25 110 64 23 106 58 19 109 61 20 103 59 22 
120 70 28 128 75 30 89 52 20 70 41 16 114 68 28 79 48 24 86 53 25 71 42 17 
112 67 29 96 55 21 104 62 27 113 68 29 108 62 25 112 66 29 99 60 27 89 54 23 
101 59 24 100 57 22 78 45 17 106 62 23 122 71 27 92 53 20 107 61 24 119 70 30 
124 74 31 126 74 30 126 74 30 91 55 19 118 69 27 85 48 19 75 44 16 67 50 16 
96 54 19 88 50 18 89 52 20 121 70 27 119 69 25 115 66 24 111 63 22 118 68 25 
128 75 30 115 65 22 125 74 29 127 75 30 127 74 29 118 70 28 94 55 22 84 49 18 
90 53 21 116 70 27 119 72 27 120 73 31 125 74 31 121 73 32 108 68 25 94 55 21 
115 67 25 115 66 28 112 68 30 95 57 26 108 62 23 114 64 21 114 67 25 91 54 21 
102 60 24 127 75 30 103 60 24 108 61 22 117 68 26 82 48 19 106 60 20 107 62 22 
103 57 19 103 58 17 73 43 16 105 64 26 113 65 27 114 67 26 116 67 27 84 51 23 
106 62 25 113 64 24 67 39 13 87 49 18 115 67 25 102 59 19 96 57 22 127 74 30 
127 75 30 126 74 30 126 73 28 117 68 24 114 66 24 97 58 22 79 47 18 70 49 17 
82 49 18 82 47 17 84 50 18 121 71 28 125 72 28 120 68 24 120 68 24 123 71 26 
128 75 30 122 71 27 120 71 26 115 77 32 122 76 30 127 75 30 111 66 26 
91 52 19 116 66 24 114 66 24 111 67 26 111 64 25 113 68 26 121 72 31 115 69 33 
107 65 28 114 69 32 115 67 29 107 62 25 121 70 30 113 65 25 113 64 21 
124 71 28 113 67 27 121 71 29 126 73 29 122 71 29 119 69 25 112 64 25 
88 49 17 107 60 20 104 56 15 91 50 14 81 47 17 115 66 26 105 60 20 89 48 13 
100 57 20 85 48 18 104 62 26 95 56 23 101 59 24 51 30 10 62 36 11 111 63 22 
106 59 19 102 58 21 118 71 32 111 63 24 121 70 26 126 73 29 116 65 24 
99 56 18 122 71 28 113 67 26 95 58 23 118 70 28 96 57 22 102 60 24 126 76 30 
122 70 26 123 71 26 121 70 26 126 74 29 127 74 30 124 73 28 123 71 26 
118 74 29 106 70 26 95 74 25 106 64 22 110 64 23 109 63 19 106 66 21 115 66 24 
112 64 23 112 66 26 114 69 32 115 70 33 116 70 32 117 72 34 125 73 29 
117 69 28 110 62 21 109 63 22 122 71 27 128 75 30 127 74 30 128 75 30 
124 72 27 124 72 28 109 66 30 83 48 18 87 49 18 99 54 18 104 57 16 101 55 15 
73 40 11 105 57 17 105 61 24 109 63 25 102 60 25 90 50 16 102 62 27 68 42 19 
38 22 8 49 29 10 70 41 15 120 71 28 109 61 20 95 54 21 86 51 22 46 27 10 
115 67 25 121 70 25 121 71 26 112 66 25 121 76 28 104 61 23 97 58 22 124 73 30 
125 72 29 120 75 29 107 81 30 103 60 24 117 69 27 103 61 24 115 66 25 
80 49 19 85 51 20 124 72 29 128 75 30 86 52 20 97 61 21 96 66 23 88 71 27 
87 66 22 108 60 19 124 72 28 126 74 29 110 61 19 88 51 18 109 65 26 108 62 22 
113 66 25 113 66 25 87 51 22 56 32 10 113 66 25 110 62 21 117 65 22 120 70 27 
124 72 28 126 73 30 117 67 27 112 67 27 76 43 14 61 34 10 63 35 11 72 39 11 
105 56 13 99 52 12 107 60 21 93 56 22 114 67 28 109 64 26 103 58 19 91 53 19 
64 37 15 61 36 14 22 13 5 37 22 9 123 71 28 126 74 29 106 61 23 106 62 25 
121 71 28 87 59 23 100 60 22 106 60 22 118 78 29 121 76 29 104 62 23 96 57 22 
124 75 29 125 75 30 76 93 29 121 77 30 120 72 28 118 69 28 100 59 23 126 75 30 
109 63 25 126 73 30 127 75 30 108 65 25 83 48 20 74 46 16 103 61 24 90 54 24 
94 56 23 71 41 16 89 50 18 112 65 23 104 57 18 70 40 12 101 59 22 101 59 23 
114 66 26 109 60 18 80 43 11 55 30 8 105 61 22 97 58 24 107 59 21 107 61 21 
86 48 14 106 60 23 115 69 29 113 67 28 89 51 17 84 46 12 75 40 9 77 42 11 
106 59 19 103 57 17 59 35 12 50 30 13 63 37 15 57 31 9 88 47 13 105 58 18 
98 55 18 53 38 14 54 43 15 98 58 26 116 66 23 117 67 24 109 63 21 113 65 22 
122 71 28 117 69 26 115 66 24 102 62 28 111 78 28 119 75 30 121 77 30 
106 73 27 90 73 25 94 74 25 118 72 27 128 75 30 114 71 27 114 68 25 122 74 29 
126 74 29 122 72 28 128 75 30 127 75 30 120 70 27 84 49 18 69 40 16 72 43 16 
103 59 22 104 60 24 56 33 13 113 66 26 111 65 23 94 51 15 84 50 19 64 38 18 
83 49 20 93 53 20 108 60 18 92 50 16 78 43 12 99 57 23 82 49 21 99 58 25 
111 63 23 81 45 14 96 53 15 109 61 22 108 60 18 105 57 14 102 54 12 84 46 13 
82 45 13 103 55 16 103 57 20 23 13 5 12 7 3 12 7 3 26 13 4 70 38 10 77 43 12 
102 56 16 111 61 19 103 60 23 121 71 28 123 71 27 122 70 26 117 68 26 
119 70 30 114 67 26 72 41 14 96 55 19 117 69 27 108 67 25 119 69 28 121 73 28 
76 51 18 100 59 23 81 48 19 127 74 30 126 74 29 114 68 26 62 88 23 108 61 21 
116 66 23 121 71 27 128 75 30 127 74 29 118 67 23 81 46 16 71 41 15 100 61 26 
110 67 27 86 51 20 113 67 29 119 68 24 114 64 21 97 54 18 95 55 22 104 63 29 
77 43 13 92 52 16 108 59 18 84 48 15 73 40 10 92 51 17 85 51 21 87 52 21 
93 54 19 103 54 15 106 58 17 113 68 30 108 59 17 105 55 13 108 60 20 106 63 27 
104 58 17 75 43 15 112 68 30 117 68 27 25 15 6 22 13 6 33 18 5 44 25 8 105 58 18 
109 62 23 114 65 22 128 75 30 127 75 30 124 72 29 126 73 29 124 73 29 
116 68 27 101 57 18 58 33 9 114 65 24 124 73 29 113 73 28 124 72 28 116 66 25 
85 49 18 110 63 23 82 47 19 38 23 9 71 42 15 97 76 26 103 64 22 124 74 29 
125 74 29 119 68 25 127 74 29 127 75 30 124 73 28 115 67 26 110 63 25 
117 69 28 119 69 26 109 65 25 103 58 15 102 58 18 106 57 16 105 57 18 
101 57 18 92 53 20 76 42 11 75 41 11 80 44 11 96 54 14 87 45 10 105 56 14 
108 60 19 102 56 16 106 57 16 107 58 16 107 58 15 109 61 20 107 59 18 
107 58 16 110 63 23 95 53 17 101 57 19 45 26 8 104 60 22 93 54 22 40 23 8 
107 62 23 108 59 19 107 60 19 105 58 16 108 60 19 110 63 22 119 69 26 
116 66 23 109 59 19 122 71 27 101 58 24 120 71 28 116 65 22 110 63 22 
127 74 29 119 69 26 57 33 12 87 51 19 120 69 25 75 43 14 74 41 14 92 54 20 
42 25 9 97 57 23 101 82 28 113 77 28 124 71 27 127 75 30 115 66 24 113 69 25 
112 63 21 105 58 17 98 57 23 127 74 30 124 72 28 126 74 29 113 64 21 93 49 13 
76 42 14 93 54 22 80 46 16 71 41 14 74 42 12 79 44 13 90 48 12 89 48 11 
83 45 12 76 43 14 98 52 13 99 53 14 77 42 10 85 46 12 104 57 15 101 55 15 
98 55 19 105 56 13 106 57 15 108 59 18 93 49 11 102 55 13 107 58 17 114 68 30 
101 53 13 96 51 12 92 54 22 63 37 16 93 52 16 99 54 15 104 57 15 71 39 11 
101 55 15 94 52 14 95 54 19 125 73 29 87 49 17 91 52 16 109 61 18 113 64 22 
118 68 26 118 70 28 74 43 18 61 34 11 70 40 13 53 30 9 64 34 10 68 51 16 
88 51 21 109 63 23 118 77 29 126 76 30 104 59 20 122 70 26 110 61 19 106 59 20 
125 73 29 95 53 18 109 62 22 125 74 29 115 66 23 119 69 27 106 59 18 103 54 13 
97 57 23 85 52 22 77 46 19 66 40 15 71 40 12 96 50 11 100 53 11 104 55 12 
102 54 13 96 52 15 104 56 14 92 50 13 70 39 12 70 38 10 85 48 15 77 41 10 
74 40 9 96 55 18 105 57 14 105 56 13 105 55 12 102 54 12 104 56 17 110 63 23 
93 49 11 90 48 13 93 50 15 113 67 29 108 62 22 102 56 17 99 53 13 20 11 3 
91 50 14 110 62 20 115 65 23 102 57 20 82 47 16 94 54 18 94 50 12 106 60 21 
108 60 18 89 52 21 101 58 22 119 69 26 64 37 12 94 53 20 80 47 17 88 51 18 
92 52 19 83 47 16 124 72 29 125 74 29 121 70 28 127 75 30 113 64 22 103 58 20 
113 65 23 102 60 25 114 67 30 112 65 25 105 56 15 109 60 19 105 58 16 
105 55 12 105 59 21 83 49 20 71 40 13 86 47 15 91 48 13 105 55 12 104 54 13 
103 57 13 105 55 12 107 57 14 105 55 12 95 50 13 61 33 8 59 32 8 74 40 9 
73 40 9 72 38 9 83 46 13 100 55 13 103 53 13 107 58 16 101 55 16 103 57 17 
113 67 28 51 28 7 65 36 9 97 53 13 107 62 23 108 61 19 110 62 20 98 52 12 
100 52 12 101 56 18 105 58 19 105 58 17 100 54 15 89 48 12 107 59 18 104 56 17 
111 62 20 108 59 17 106 60 20 95 55 22 85 50 19 42 25 10 88 49 19 77 47 16 
81 45 11 105 58 17 98 52 14 111 62 20 121 70 27 115 68 27 125 73 28 127 74 30 
100 58 22 98 56 21 123 72 30 113 67 29 103 56 13 104 55 12 108 60 18 107 60 18 
105 56 13 96 53 16 101 55 15 98 54 17 106 59 18 100 54 13 107 58 16 99 54 17 
92 48 12 105 56 13 107 60 20 98 52 12 100 53 12 97 53 15 72 39 9 72 38 8 
83 44 11 77 41 10 88 48 12 35 19 5 92 50 14 95 54 20 85 50 20 100 53 12 
108 60 19 90 48 12 87 46 10 84 45 10 92 48 11 70 38 10 97 53 14 106 57 14 
105 57 16 98 52 12 105 55 14 105 57 14 107 58 16 105 56 14 110 61 19 106 56 14 
104 55 13 104 60 21 116 68 27 126 74 29 120 69 26 104 60 20 109 62 20 
97 62 19 103 63 19 106 63 18 89 47 12 91 51 16 87 48 15 108 67 24 125 73 29 
112 66 26 80 46 15 84 45 10 104 58 17 100 56 17 103 56 15 103 56 15 104 56 14 
107 59 18 107 59 19 106 56 15 106 57 16 106 56 14 105 55 13 92 50 14 106 58 15 
81 45 13 92 48 10 103 54 12 105 55 12 101 53 12 101 54 13 98 52 13 79 43 13 
73 39 10 94 50 11 104 57 15 103 59 20 90 49 16 106 59 17 91 49 13 75 42 14 
91 51 17 111 64 24 
