P3
64 64
255
139 81 44 131 74 37 115 56 22 139 82 45 203 150 113 241 188 151 251 199 162 
245 193 156 220 169 133 206 156 120 202 151 116 204 153 119 212 161 128 
211 161 128 202 154 120 203 156 121 211 166 133 211 165 132 199 154 120 
195 152 118 201 159 126 211 170 138 226 187 154 236 197 164 239 201 169 
238 202 170 236 200 167 234 200 167 235 200 168 235 201 168 236 202 167 
232 198 162 223 188 152 236 202 167 235 201 168 235 200 168 234 200 167 
236 200 167 238 202 170 239 201 169 236 197 164 226 187 154 211 170 138 
201 159 126 195 152 118 199 154 120 211 165 132 211 166 133 203 156 121 
202 154 120 211 161 128 212 161 128 204 153 119 202 151 116 206 156 120 
220 169 133 245 193 156 251 199 162 241 188 151 203 150 113 139 82 45 
115 56 22 131 74 37 139 81 44 146 90 53 136 81 43 116 59 25 137 81 44 
197 144 106 233 182 144 246 195 157 242 190 154 221 169 134 207 156 120 
200 149 114 200 149 114 206 158 123 208 160 126 205 159 124 205 159 125 
208 163 129 206 161 128 200 155 121 200 156 123 207 164 132 216 175 143 
229 190 156 236 197 164 236 199 166 234 198 166 229 194 162 228 193 161 
227 194 161 228 195 162 230 197 162 229 193 158 222 186 150 230 197 162 
228 195 162 227 194 161 228 193 161 229 194 162 234 198 166 236 199 166 
236 197 164 229 190 156 216 175 143 207 164 132 200 156 123 200 155 121 
206 161 128 208 163 129 205 159 125 205 159 124 208 160 126 206 158 123 
200 149 114 200 149 114 207 156 120 221 169 134 242 190 154 246 195 157 
233 182 144 197 144 106 137 81 44 116 59 25 136 81 43 146 90 53 162 107 69 
148 94 57 121 65 27 132 78 40 184 131 93 218 167 128 235 184 147 236 186 148 
222 171 135 208 158 122 195 145 108 191 142 106 196 149 114 203 157 122 
212 167 131 211 167 131 201 157 122 197 153 119 202 157 122 209 165 131 
218 177 144 227 187 154 234 195 162 235 197 164 229 193 161 224 188 156 
217 181 150 214 179 147 214 179 147 215 181 147 218 183 149 220 184 149 
221 183 147 218 183 149 215 181 147 214 179 147 214 179 147 217 181 150 
224 188 156 229 193 161 235 197 164 234 195 162 227 187 154 218 177 144 
209 165 131 202 157 122 197 153 119 201 157 122 211 167 131 212 167 131 
203 157 122 196 149 114 191 142 106 195 145 108 208 158 122 222 171 135 
236 186 148 235 184 147 218 167 128 184 131 93 132 78 40 121 65 27 148 94 57 
162 107 69 169 116 78 157 103 65 128 73 35 133 80 42 174 121 83 201 148 111 
214 163 126 217 167 130 212 160 125 203 152 117 191 142 106 187 139 102 
189 142 107 195 150 114 205 160 125 206 162 127 199 155 121 199 155 121 
206 161 127 212 170 135 219 178 144 225 183 151 227 188 154 228 189 155 
225 188 155 221 185 153 217 181 149 214 179 146 211 176 144 211 175 142 
210 175 141 211 176 141 216 179 142 210 175 141 211 175 142 211 176 144 
214 179 146 217 181 149 221 185 153 225 188 155 228 189 155 227 188 154 
225 183 151 219 178 144 212 170 135 206 161 127 199 155 121 199 155 121 
206 162 127 205 160 125 195 150 114 189 142 107 187 139 102 191 142 106 
203 152 117 212 160 125 217 167 130 214 163 126 201 148 111 174 121 83 
133 80 42 128 73 35 157 103 65 169 116 78 169 116 78 159 105 68 137 84 46 
139 87 49 167 115 77 182 129 92 182 131 94 186 134 97 190 139 103 191 141 106 
189 140 104 188 139 103 185 138 102 184 137 102 183 138 102 190 145 110 
203 160 125 211 168 133 213 169 134 212 169 135 209 167 135 207 167 135 
208 169 135 213 173 140 221 181 148 226 189 155 229 193 160 229 192 159 
222 186 152 215 179 144 207 171 136 205 169 134 212 173 138 207 171 136 
215 179 144 222 186 152 229 192 159 229 193 160 226 189 155 221 181 148 
213 173 140 208 169 135 207 167 135 209 167 135 212 169 135 213 169 134 
211 168 133 203 160 125 190 145 110 183 138 102 184 137 102 185 138 102 
188 139 103 189 140 104 191 141 106 190 139 103 186 134 97 182 131 94 
182 129 92 167 115 77 139 87 49 137 84 46 159 105 68 169 116 78 150 97 59 
144 91 54 131 79 41 135 83 44 155 105 67 164 113 75 160 109 70 163 113 75 
175 124 87 181 130 95 182 133 96 181 133 97 179 132 97 178 132 98 179 134 99 
187 142 107 201 158 122 210 167 132 215 171 137 214 171 137 209 167 134 
205 163 131 202 162 129 207 167 135 220 180 146 230 190 157 236 199 164 
236 199 164 228 190 156 218 181 146 207 170 135 204 167 132 210 171 135 
207 170 135 218 181 146 228 190 156 236 199 164 236 199 164 230 190 157 
220 180 146 207 167 135 202 162 129 205 163 131 209 167 134 214 171 137 
215 171 137 210 167 132 201 158 122 187 142 107 179 134 99 178 132 98 
179 132 97 181 133 97 182 133 96 181 130 95 175 124 87 163 113 75 160 109 70 
164 113 75 155 105 67 135 83 44 131 79 41 144 91 54 150 97 59 112 60 26 
111 59 26 109 57 21 119 68 29 141 91 52 151 100 61 147 96 57 153 102 63 
165 116 78 171 121 85 169 120 84 169 122 85 172 126 90 180 135 99 193 149 113 
198 153 118 192 149 113 197 153 119 211 169 133 218 176 142 218 176 143 
216 173 141 210 169 136 212 171 139 222 181 149 231 190 157 237 198 164 
236 198 164 227 189 155 215 178 145 204 167 133 200 162 128 203 165 130 
202 165 132 213 176 143 224 186 154 236 198 164 237 198 164 231 190 157 
222 181 149 212 171 139 210 169 136 216 173 141 218 176 143 218 176 142 
211 169 133 197 153 119 192 149 113 198 153 118 193 149 113 180 135 99 
172 126 90 169 122 85 169 120 84 171 121 85 165 116 78 153 102 63 147 96 57 
151 100 61 141 91 52 119 68 29 109 57 21 111 59 26 112 60 26 107 56 24 
112 62 27 123 73 35 138 88 49 157 107 70 159 109 71 144 94 56 139 89 51 
145 95 59 148 99 62 146 98 61 151 105 68 161 116 80 176 131 96 196 151 116 
198 153 118 182 138 103 184 140 106 206 161 127 219 174 141 222 178 145 
220 177 144 212 170 137 212 170 137 218 176 144 218 178 146 215 178 148 
209 173 143 197 162 133 183 150 122 172 140 112 167 136 108 169 139 111 
167 136 109 175 143 117 184 153 125 195 163 134 205 169 141 213 173 143 
216 173 142 212 170 137 212 170 137 220 177 144 222 178 145 219 174 141 
206 161 127 184 140 106 182 138 103 198 153 118 196 151 116 176 131 96 
161 116 80 151 105 68 146 98 61 148 99 62 145 95 59 139 89 51 144 94 56 
159 109 71 157 107 70 138 88 49 123 73 35 112 62 27 107 56 24 135 86 50 
147 99 62 174 126 89 193 145 108 204 157 119 190 142 105 149 101 63 124 75 38 
115 65 28 112 63 27 116 68 30 127 81 44 149 103 66 167 123 87 186 141 106 
187 142 107 171 125 91 174 129 95 197 151 118 211 167 133 219 174 141 
219 173 140 209 166 133 198 157 125 190 152 121 179 143 117 157 127 104 
136 110 90 121 98 81 109 90 74 101 84 70 100 82 69 105 87 72 104 86 71 
115 93 78 128 104 88 144 118 97 153 123 101 160 129 105 170 136 109 
183 145 116 204 161 129 219 173 140 219 174 141 211 167 133 197 151 118 
174 129 95 171 125 91 187 142 107 186 141 106 167 123 87 149 103 66 127 81 44 
116 68 30 112 63 27 115 65 28 124 75 38 149 101 63 190 142 105 204 157 119 
193 145 108 174 126 89 147 99 62 135 86 50 178 132 96 190 144 107 215 169 132 
230 186 149 236 194 157 219 176 140 178 133 97 149 102 65 131 83 47 118 70 33 
112 65 28 116 70 31 132 85 49 146 100 64 158 113 77 160 115 79 152 106 72 
159 111 78 178 132 100 195 150 115 208 161 127 205 160 127 190 149 117 
154 121 95 118 95 78 96 79 64 81 66 56 0 0 0 0 0 0 0 0 0 0 0 0 0 0 0 0 0 0 
0 0 0 0 0 0 0 0 0 0 0 0 92 75 61 113 90 74 133 106 85 147 117 93 165 130 102 
187 147 117 204 159 125 195 150 115 178 132 100 159 111 78 152 106 72 
160 115 79 158 113 77 146 100 64 132 85 49 116 70 31 112 65 28 118 70 33 
131 83 47 149 102 65 178 133 97 219 176 140 236 194 157 230 186 149 
215 169 132 190 144 107 178 132 96 236 194 156 240 197 158 246 203 165 
251 210 173 252 219 182 247 213 175 232 191 153 214 170 132 193 151 112 
167 123 85 136 90 51 117 70 32 113 66 29 111 64 28 112 65 29 117 70 34 
126 79 44 137 90 56 151 105 71 168 121 88 177 131 100 151 116 89 114 89 71 
86 69 58 0 0 0 0 0 0 0 0 0 0 0 0 0 0 0 0 0 0 0 0 0 0 0 0 0 0 0 0 0 0 0 0 0 
0 0 0 0 0 0 0 0 0 0 0 0 81 64 54 105 82 68 133 104 83 146 111 87 154 115 88 
155 112 81 151 105 71 137 90 56 126 79 44 117 70 34 112 65 29 111 64 28 
113 66 29 117 70 32 136 90 51 167 123 85 193 151 112 214 170 132 232 191 153 
247 213 175 252 219 182 251 210 173 246 203 165 240 197 158 236 194 156 
255 218 180 254 216 178 252 212 175 253 216 178 255 226 189 255 228 189 
255 219 182 251 208 170 235 194 156 210 167 129 174 130 92 149 103 66 
134 88 51 121 74 38 107 60 26 104 57 24 113 65 29 123 74 39 133 85 49 
120 82 56 89 68 52 0 0 0 0 0 0 0 0 0 0 0 0 0 0 0 0 0 0 0 0 0 0 0 0 0 0 0 0 0 0 
0 0 0 0 0 0 0 0 0 0 0 0 0 0 0 0 0 0 0 0 0 0 0 0 0 0 0 0 0 0 0 0 0 85 66 52 
99 75 57 110 76 52 118 77 46 123 74 39 113 65 29 104 57 24 107 60 26 121 74 38 
134 88 51 149 103 66 174 130 92 210 167 129 235 194 156 251 208 170 
255 219 182 255 228 189 255 226 189 253 216 178 252 212 175 254 216 178 
255 218 180 247 207 169 244 204 167 239 198 161 241 201 164 251 213 176 
254 218 182 255 218 182 255 217 181 254 215 179 245 203 167 226 182 147 
210 165 130 198 152 117 175 130 95 144 98 62 123 76 40 114 64 28 114 63 27 
99 60 32 0 0 0 0 0 0 0 0 0 0 0 0 0 0 0 0 0 0 0 0 0 0 0 0 0 0 0 0 0 0 0 0 0 
0 0 0 0 0 0 0 0 0 0 0 0 0 0 0 0 0 0 0 0 0 0 0 0 0 0 0 0 0 0 0 0 0 0 0 0 0 0 0 
0 0 0 77 52 34 97 60 31 100 57 26 113 64 28 123 76 40 144 98 62 175 130 95 
198 152 117 210 165 130 226 182 147 245 203 167 254 215 179 255 217 181 
255 218 182 254 218 182 251 213 176 241 201 164 239 198 161 244 204 167 
247 207 169 239 199 163 235 196 160 228 189 152 232 191 155 245 205 169 
252 213 177 253 215 179 254 216 180 254 216 180 252 212 177 247 205 170 
242 200 165 237 199 163 221 181 146 193 150 113 156 111 76 105 65 35 0 0 0 
0 0 0 0 0 0 0 0 0 0 0 0 0 0 0 0 0 0 0 0 0 0 0 0 0 0 0 0 0 0 0 0 0 0 0 0 0 0 0 
0 0 0 0 0 0 0 0 0 0 0 0 0 0 0 0 0 0 0 0 0 0 0 0 0 0 0 0 0 0 0 0 0 0 0 0 0 0 0 
0 0 0 0 0 0 0 0 0 92 59 32 155 110 77 193 150 113 221 181 146 237 199 163 
242 200 165 247 205 170 252 212 177 254 216 180 254 216 180 253 215 179 
252 213 177 245 205 169 232 191 155 228 189 152 235 196 160 239 199 163 
236 197 160 231 193 156 223 184 148 227 188 150 242 203 166 249 209 173 
247 207 170 243 202 167 236 196 160 235 194 158 238 196 160 243 207 172 
250 227 192 253 229 192 254 214 175 202 161 129 0 0 0 0 0 0 0 0 0 0 0 0 0 0 0 
0 0 0 0 0 0 0 0 0 0 0 0 0 0 0 0 0 0 0 0 0 0 0 0 0 0 0 0 0 0 0 0 0 0 0 0 0 0 0 
0 0 0 0 0 0 0 0 0 0 0 0 0 0 0 0 0 0 0 0 0 0 0 0 0 0 0 0 0 0 0 0 0 0 0 0 0 0 0 
0 0 0 176 141 113 254 214 175 253 229 192 250 227 192 243 207 172 238 196 160 
235 194 158 236 196 160 243 202 167 247 207 170 249 209 173 242 203 166 
227 188 150 223 184 148 231 193 156 236 197 160 232 195 158 231 192 156 
227 189 151 229 190 153 237 199 161 238 199 162 231 190 154 224 184 148 
219 179 142 221 180 144 231 189 153 244 208 171 255 235 199 255 232 197 
234 200 167 127 106 91 0 0 0 0 0 0 0 0 0 0 0 0 0 0 0 0 0 0 0 0 0 0 0 0 0 0 0 
0 0 0 0 0 0 0 0 0 0 0 0 0 0 0 0 0 0 0 0 0 0 0 0 0 0 0 0 0 0 0 0 0 0 0 0 0 0 0 
0 0 0 0 0 0 0 0 0 0 0 0 0 0 0 0 0 0 0 0 0 0 0 0 0 0 0 0 0 0 130 109 93 
212 182 152 255 232 197 255 235 199 244 208 171 231 189 153 221 180 144 
219 179 142 224 184 148 231 190 154 238 199 162 237 199 161 229 190 153 
227 189 151 231 192 156 232 195 158 230 192 156 232 195 159 239 200 164 
238 199 162 231 192 155 219 181 144 205 166 130 199 161 124 205 164 129 
213 172 137 225 185 150 243 202 166 255 225 186 227 192 160 102 89 76 
0 0 0 0 0 0 0 0 0 0 0 0 0 0 0 0 0 0 0 0 0 0 0 0 0 0 0 0 0 0 0 0 0 0 0 0 0 0 0 
0 0 0 0 0 0 0 0 0 0 0 0 0 0 0 0 0 0 0 0 0 0 0 0 0 0 0 0 0 0 0 0 0 0 0 0 0 0 0 
0 0 0 0 0 0 0 0 0 0 0 0 0 0 0 0 0 0 0 0 0 0 0 0 100 86 75 218 185 154 
255 225 186 243 202 166 225 185 150 213 172 137 205 164 129 199 161 124 
205 166 130 219 181 144 231 192 155 238 199 162 239 200 164 232 195 159 
230 192 156 223 187 151 228 191 155 239 201 165 238 199 163 225 187 151 
211 172 136 194 156 120 190 152 115 200 160 124 211 171 135 225 185 149 
227 187 153 217 177 146 149 125 103 0 0 0 0 0 0 0 0 0 0 0 0 0 0 0 0 0 0 0 0 0 
0 0 0 0 0 0 0 0 0 0 0 0 0 0 0 0 0 0 0 0 0 0 0 0 0 0 0 0 0 0 0 0 0 0 0 0 0 0 0 
0 0 0 0 0 0 0 0 0 0 0 0 0 0 0 0 0 0 0 0 0 0 0 0 0 0 0 0 0 0 0 0 0 0 0 0 0 0 0 
0 0 0 0 0 0 0 0 0 139 114 96 217 177 146 227 187 153 225 185 149 211 171 135 
200 160 124 190 152 115 194 156 120 211 172 136 225 187 151 238 199 163 
239 201 165 228 191 155 223 187 151 213 177 141 218 181 145 228 191 155 
229 192 156 222 183 147 211 172 136 199 161 124 197 158 121 205 164 129 
216 174 139 230 188 150 195 161 131 111 93 79 0 0 0 0 0 0 0 0 0 0 0 0 0 0 0 
0 0 0 0 0 0 0 0 0 0 0 0 0 0 0 0 0 0 0 0 0 0 0 0 0 0 0 0 0 0 0 0 0 0 0 0 0 0 0 
0 0 0 0 0 0 0 0 0 0 0 0 0 0 0 0 0 0 0 0 0 0 0 0 0 0 0 0 0 0 0 0 0 0 0 0 0 0 0 
0 0 0 0 0 0 0 0 0 0 0 0 0 0 0 0 0 0 0 0 0 106 89 75 195 161 131 230 188 150 
216 174 139 205 164 129 197 158 121 199 161 124 211 172 136 222 183 147 
229 192 156 228 191 155 218 181 145 213 177 141 208 171 135 213 175 140 
222 184 149 223 186 151 219 181 145 213 173 138 204 165 130 203 164 129 
210 170 134 221 180 143 236 193 154 184 152 123 0 0 0 0 0 0 0 0 0 0 0 0 0 0 0 
0 0 0 0 0 0 0 0 0 0 0 0 0 0 0 0 0 0 0 0 0 0 0 0 0 0 0 0 0 0 0 0 0 0 0 0 0 0 0 
0 0 0 0 0 0 0 0 0 0 0 0 0 0 0 0 0 0 0 0 0 0 0 0 0 0 0 0 0 0 0 0 0 0 0 0 0 0 0 
0 0 0 0 0 0 0 0 0 0 0 0 0 0 0 0 0 0 0 0 0 0 0 0 0 0 0 184 152 123 236 193 154 
221 180 143 210 170 134 203 164 129 204 165 130 213 173 138 219 181 145 
223 186 151 222 184 149 213 175 140 208 171 135 207 169 134 211 172 138 
218 180 145 221 181 148 218 179 144 214 175 141 209 171 136 210 171 136 
215 176 141 227 186 149 246 199 160 193 159 129 0 0 0 0 0 0 0 0 0 0 0 0 0 0 0 
0 0 0 0 0 0 0 0 0 0 0 0 0 0 0 0 0 0 0 0 0 0 0 0 0 0 0 0 0 0 0 0 0 0 0 0 0 0 0 
0 0 0 0 0 0 0 0 0 0 0 0 0 0 0 0 0 0 0 0 0 0 0 0 0 0 0 0 0 0 0 0 0 0 0 0 0 0 0 
0 0 0 0 0 0 0 0 0 0 0 0 0 0 0 0 0 0 0 0 0 0 0 0 0 0 0 185 153 123 246 199 160 
227 186 149 215 176 141 210 171 136 209 171 136 214 175 141 218 179 144 
221 181 148 218 180 145 211 172 138 207 169 134 207 168 135 210 171 137 
215 176 143 217 178 144 215 176 143 213 173 141 212 171 139 215 174 141 
222 181 146 218 179 144 203 166 134 141 118 96 0 0 0 0 0 0 0 0 0 0 0 0 0 0 0 
0 0 0 0 0 0 0 0 0 0 0 0 0 0 0 0 0 0 0 0 0 0 0 0 0 0 0 0 0 0 0 0 0 0 0 0 0 0 0 
0 0 0 0 0 0 0 0 0 0 0 0 0 0 0 0 0 0 0 0 0 0 0 0 0 0 0 0 0 0 0 0 0 0 0 0 0 0 0 
0 0 0 0 0 0 0 0 0 0 0 0 0 0 0 0 0 0 0 0 0 0 0 0 0 0 0 138 114 94 203 166 134 
218 179 144 222 181 146 215 174 141 212 171 139 213 173 141 215 176 143 
217 178 144 215 176 143 210 171 137 207 168 135 209 170 136 211 171 138 
214 174 141 214 174 141 211 171 138 210 171 137 210 170 137 216 175 142 
229 187 150 193 159 129 107 91 76 0 0 0 0 0 0 0 0 0 0 0 0 0 0 0 0 0 0 0 0 0 
0 0 0 0 0 0 0 0 0 0 0 0 0 0 0 0 0 0 0 0 0 0 0 0 0 0 0 0 0 0 0 0 0 0 0 0 0 0 0 
0 0 0 0 0 0 0 0 0 0 0 0 0 0 0 0 0 0 0 0 0 0 0 0 0 0 0 0 0 0 0 0 0 0 0 0 0 0 0 
0 0 0 0 0 0 0 0 0 0 0 0 0 0 0 0 0 0 0 0 0 0 0 0 0 0 0 107 91 76 193 159 129 
229 187 150 216 175 142 210 170 137 210 171 137 211 171 138 214 174 141 
214 174 141 211 171 138 209 170 136 210 170 136 210 171 137 211 171 137 
210 170 136 207 167 134 207 165 133 208 165 133 215 172 139 229 186 149 
179 146 119 0 0 0 0 0 0 0 0 0 0 0 0 0 0 0 0 0 0 0 0 0 0 0 0 0 0 0 0 0 0 0 0 0 
0 0 0 0 0 0 0 0 0 0 0 0 0 0 0 0 0 0 0 0 0 0 0 0 0 0 0 0 0 0 0 0 0 0 0 0 0 0 0 
0 0 0 0 0 0 0 0 0 0 0 0 0 0 0 0 0 0 0 0 0 0 0 0 0 0 0 0 0 0 0 0 0 0 0 0 0 0 0 
0 0 0 0 0 0 0 0 0 0 0 0 0 0 0 0 0 0 0 0 0 179 146 119 229 186 149 215 172 139 
208 165 133 207 165 133 207 167 134 210 170 136 211 171 137 210 171 137 
210 170 136 210 168 135 209 167 135 209 165 133 206 163 131 203 160 128 
202 160 127 202 160 127 210 165 132 223 177 141 175 141 114 0 0 0 0 0 0 0 0 0 
0 0 0 0 0 0 0 0 0 0 0 0 0 0 0 0 0 0 0 0 0 0 0 0 0 0 0 0 0 0 0 0 0 0 0 0 0 0 0 
0 0 0 0 0 0 0 0 0 0 0 0 0 0 0 0 0 0 0 0 0 0 0 0 0 0 0 0 0 0 0 0 0 0 0 0 0 0 0 
0 0 0 0 0 0 0 0 0 0 0 0 0 0 0 0 0 0 0 0 0 0 0 0 0 0 0 0 0 0 0 0 0 0 0 0 0 0 0 
0 0 0 0 0 0 175 141 114 223 177 141 210 165 132 202 160 127 202 160 127 
203 160 128 206 163 131 209 165 133 209 167 135 210 168 135 211 168 135 
210 167 134 209 165 133 207 162 130 204 160 128 202 159 126 202 159 126 
208 163 130 220 173 139 174 138 113 0 0 0 0 0 0 0 0 0 0 0 0 0 0 0 0 0 0 0 0 0 
0 0 0 0 0 0 0 0 0 0 0 0 0 0 0 0 0 0 0 0 0 0 0 0 0 0 0 0 0 0 0 0 0 0 0 0 0 0 0 
0 0 0 0 0 0 0 0 0 0 0 0 0 0 0 0 0 0 0 0 0 0 0 0 0 0 0 0 0 0 0 0 0 0 0 0 0 0 0 
0 0 0 0 0 0 0 0 0 0 0 0 0 0 0 0 0 0 0 0 0 0 0 0 0 0 0 0 0 0 0 0 0 174 138 113 
220 173 139 208 163 130 202 159 126 202 159 126 204 160 128 207 162 130 
209 165 133 210 167 134 211 168 135 213 170 137 213 170 137 212 169 135 
210 167 134 209 165 133 208 164 132 207 163 130 210 166 133 220 173 139 
173 138 112 0 0 0 0 0 0 0 0 0 0 0 0 0 0 0 0 0 0 0 0 0 0 0 0 0 0 0 0 0 0 0 0 0 
0 0 0 0 0 0 0 0 0 0 0 0 0 0 0 0 0 0 0 0 0 0 0 0 0 0 0 0 0 0 0 0 0 0 0 0 0 0 0 
0 0 0 0 0 0 0 0 0 0 0 0 0 0 0 0 0 0 0 0 0 0 0 0 0 0 0 0 0 0 0 0 0 0 0 0 0 0 0 
0 0 0 0 0 0 0 0 0 0 0 0 0 0 0 0 0 0 0 0 0 173 138 112 220 173 139 210 166 133 
207 163 130 208 164 132 209 165 133 210 167 134 212 169 135 213 170 137 
213 170 137 218 174 142 218 174 142 218 174 142 218 173 142 216 172 141 
215 170 139 212 169 136 215 170 137 222 176 141 175 139 112 0 0 0 0 0 0 0 0 0 
0 0 0 0 0 0 0 0 0 0 0 0 0 0 0 0 0 0 0 0 0 0 0 0 0 0 0 0 0 0 0 0 0 0 0 0 0 0 0 
0 0 0 0 0 0 0 0 0 0 0 0 0 0 0 0 0 0 0 0 0 0 0 0 0 0 0 0 0 0 0 0 0 0 0 0 0 0 0 
0 0 0 0 0 0 0 0 0 0 0 0 0 0 0 0 0 0 0 0 0 0 0 0 0 0 0 0 0 0 0 0 0 0 0 0 0 0 0 
0 0 0 0 0 0 175 139 112 222 176 141 215 170 137 212 169 136 215 170 139 
216 172 141 218 173 142 218 174 142 218 174 142 218 174 142 225 179 150 
225 180 150 227 181 152 227 182 152 227 181 152 224 179 149 220 175 146 
221 175 144 227 179 146 177 141 115 0 0 0 0 0 0 0 0 0 0 0 0 0 0 0 0 0 0 0 0 0 
0 0 0 0 0 0 0 0 0 0 0 0 0 0 0 0 0 0 0 0 0 0 0 0 0 0 0 0 0 0 0 0 0 0 0 0 0 0 0 
0 0 0 0 0 0 0 0 0 0 0 0 0 0 0 0 0 0 0 0 0 0 0 0 0 0 0 0 0 0 0 0 0 0 0 0 0 0 0 
0 0 0 0 0 0 0 0 0 0 0 0 0 0 0 0 0 0 0 0 0 0 0 0 0 0 0 0 0 0 0 0 0 177 141 115 
227 179 146 221 175 144 220 175 146 224 179 149 227 181 152 227 182 152 
227 181 152 225 180 150 225 179 150 229 183 155 230 184 156 232 187 157 
233 188 158 232 187 157 229 184 155 223 178 148 223 177 145 228 179 146 
177 141 115 0 0 0 0 0 0 0 0 0 0 0 0 0 0 0 0 0 0 0 0 0 0 0 0 0 0 0 0 0 0 0 0 0 
0 0 0 0 0 0 0 0 0 0 0 0 0 0 0 0 0 0 0 0 0 0 0 0 0 0 0 0 0 0 0 0 0 0 0 0 0 0 0 
0 0 0 0 0 0 0 0 0 0 0 0 0 0 0 0 0 0 0 0 0 0 0 0 0 0 0 0 0 0 0 0 0 0 0 0 0 0 0 
0 0 0 0 0 0 0 0 0 0 0 0 0 0 0 0 0 0 0 0 0 177 141 115 228 179 146 223 177 145 
223 178 148 229 184 155 232 187 157 233 188 158 232 187 157 230 184 156 
229 183 155 231 185 157 232 187 157 234 188 160 235 189 160 234 188 159 
229 184 155 222 177 146 220 174 143 225 177 143 175 138 113 0 0 0 0 0 0 0 0 0 
0 0 0 0 0 0 0 0 0 0 0 0 0 0 0 0 0 0 0 0 0 0 0 0 0 0 0 0 0 0 0 0 0 0 0 0 0 0 0 
0 0 0 0 0 0 0 0 0 0 0 0 0 0 0 0 0 0 0 0 0 0 0 0 0 0 0 0 0 0 0 0 0 0 0 0 0 0 0 
0 0 0 0 0 0 0 0 0 0 0 0 0 0 0 0 0 0 0 0 0 0 0 0 0 0 0 0 0 0 0 0 0 0 0 0 0 0 0 
0 0 0 0 0 0 175 138 113 225 177 143 220 174 143 222 177 146 229 184 155 
234 188 159 235 189 160 234 188 160 232 187 157 231 185 157 233 188 158 
234 189 159 235 191 161 236 191 162 236 190 161 231 187 156 225 179 148 
224 178 145 229 180 146 177 141 115 0 0 0 0 0 0 0 0 0 0 0 0 0 0 0 0 0 0 0 0 0 
0 0 0 0 0 0 0 0 0 0 0 0 0 0 0 0 0 0 0 0 0 0 0 0 0 0 0 0 0 0 0 0 0 0 0 0 0 0 0 
0 0 0 0 0 0 0 0 0 0 0 0 0 0 0 0 0 0 0 0 0 0 0 0 0 0 0 0 0 0 0 0 0 0 0 0 0 0 0 
0 0 0 0 0 0 0 0 0 0 0 0 0 0 0 0 0 0 0 0 0 0 0 0 0 0 0 0 0 0 0 0 0 177 141 115 
229 180 146 224 178 145 225 179 148 231 187 156 236 190 161 236 191 162 
235 191 161 234 189 159 233 188 158 235 192 161 236 192 161 237 193 162 
237 193 162 236 192 161 235 190 159 231 188 154 232 188 152 237 191 155 
184 149 121 0 0 0 0 0 0 0 0 0 0 0 0 0 0 0 0 0 0 0 0 0 0 0 0 0 0 0 0 0 0 0 0 0 
0 0 0 0 0 0 0 0 0 0 0 0 0 0 0 0 0 0 0 0 0 0 0 0 0 0 0 0 0 0 0 0 0 0 0 0 0 0 0 
0 0 0 0 0 0 0 0 0 0 0 0 0 0 0 0 0 0 0 0 0 0 0 0 0 0 0 0 0 0 0 0 0 0 0 0 0 0 0 
0 0 0 0 0 0 0 0 0 0 0 0 0 0 0 0 0 0 0 0 0 184 149 121 237 191 155 232 188 152 
231 188 154 235 190 159 236 192 161 237 193 162 237 193 162 236 192 161 
235 192 161 235 192 160 236 193 160 236 193 161 236 193 161 235 192 160 
234 190 157 231 188 153 233 188 152 238 193 154 184 150 120 0 0 0 0 0 0 0 0 0 
0 0 0 0 0 0 0 0 0 0 0 0 0 0 0 0 0 0 0 0 0 0 0 0 0 0 0 0 0 0 0 0 0 0 0 0 0 0 0 
0 0 0 0 0 0 0 0 0 0 0 0 0 0 0 0 0 0 0 0 0 0 0 0 0 0 0 0 0 0 0 0 0 0 0 0 0 0 0 
0 0 0 0 0 0 0 0 0 0 0 0 0 0 0 0 0 0 0 0 0 0 0 0 0 0 0 0 0 0 0 0 0 0 0 0 0 0 0 
0 0 0 0 0 0 184 150 120 238 193 154 233 188 152 231 188 153 234 190 157 
235 192 160 236 193 161 236 193 161 236 193 160 235 192 160 233 189 157 
233 190 157 235 191 159 235 191 158 232 189 155 229 186 152 224 180 146 
225 180 144 230 185 145 176 143 112 0 0 0 0 0 0 0 0 0 0 0 0 0 0 0 0 0 0 0 0 0 
0 0 0 0 0 0 0 0 0 0 0 0 0 0 0 0 0 0 0 0 0 0 0 0 0 0 0 0 0 0 0 0 0 0 0 0 0 0 0 
0 0 0 0 0 0 0 0 0 0 0 0 0 0 0 0 0 0 0 0 0 0 0 0 0 0 0 0 0 0 0 0 0 0 0 0 0 0 0 
0 0 0 0 0 0 0 0 0 0 0 0 0 0 0 0 0 0 0 0 0 0 0 0 0 0 0 0 0 0 0 0 0 176 143 112 
230 185 145 225 180 144 224 180 146 229 186 152 232 189 155 235 191 158 
235 191 159 233 190 157 233 189 157 232 188 156 234 190 158 235 192 160 
235 192 160 233 189 156 228 185 151 221 178 143 219 176 139 223 178 138 
185 148 117 105 87 72 0 0 0 0 0 0 0 0 0 0 0 0 0 0 0 0 0 0 0 0 0 0 0 0 0 0 0 
0 0 0 0 0 0 0 0 0 0 0 0 0 0 0 0 0 0 0 0 0 0 0 0 0 0 0 0 0 0 0 0 0 0 0 0 0 0 0 
0 0 0 0 0 0 0 0 0 0 0 0 0 0 0 0 0 0 0 0 0 0 0 0 0 0 0 0 0 0 0 0 0 0 0 0 0 0 0 
0 0 0 0 0 0 0 0 0 0 0 0 0 0 0 0 0 0 0 0 0 105 87 72 185 148 117 223 178 138 
219 176 139 221 178 143 228 185 151 233 189 156 235 192 160 235 192 160 
234 190 158 232 188 156 235 191 159 236 193 161 240 197 164 241 198 164 
237 194 161 232 188 153 222 179 144 217 173 138 215 171 135 209 167 131 
199 161 127 0 0 0 0 0 0 0 0 0 0 0 0 0 0 0 0 0 0 0 0 0 0 0 0 0 0 0 0 0 0 0 0 0 
0 0 0 0 0 0 0 0 0 0 0 0 0 0 0 0 0 0 0 0 0 0 0 0 0 0 0 0 0 0 0 0 0 0 0 0 0 0 0 
0 0 0 0 0 0 0 0 0 0 0 0 0 0 0 0 0 0 0 0 0 0 0 0 0 0 0 0 0 0 0 0 0 0 0 0 0 0 0 
0 0 0 0 0 0 0 0 0 0 0 0 150 123 98 199 161 127 209 167 131 215 171 135 
217 173 138 222 179 144 232 188 153 237 194 161 241 198 164 240 197 164 
236 193 161 235 191 159 231 188 155 234 190 158 238 195 164 239 196 164 
236 193 159 229 186 152 218 175 141 211 168 133 208 164 130 218 172 135 
240 192 149 127 105 84 0 0 0 0 0 0 0 0 0 0 0 0 0 0 0 0 0 0 0 0 0 0 0 0 0 0 0 
0 0 0 0 0 0 0 0 0 0 0 0 0 0 0 0 0 0 0 0 0 0 0 0 0 0 0 0 0 0 0 0 0 0 0 0 0 0 0 
0 0 0 0 0 0 0 0 0 0 0 0 0 0 0 0 0 0 0 0 0 0 0 0 0 0 0 0 0 0 0 0 0 0 0 0 0 0 0 
0 0 0 0 0 0 0 0 0 0 0 0 0 0 0 192 155 122 240 192 149 218 172 135 208 164 130 
211 168 133 218 175 141 229 186 152 236 193 159 239 196 164 238 195 164 
234 190 158 231 188 155 221 178 145 225 181 149 231 188 155 232 188 156 
229 186 152 222 179 143 210 167 131 203 160 124 200 158 120 209 165 126 
229 182 140 180 145 115 0 0 0 0 0 0 0 0 0 0 0 0 0 0 0 0 0 0 0 0 0 0 0 0 0 0 0 
0 0 0 0 0 0 0 0 0 0 0 0 0 0 0 0 0 0 0 0 0 0 0 0 0 0 0 0 0 0 0 0 0 0 0 0 0 0 0 
0 0 0 0 0 0 0 0 0 0 0 0 0 0 0 0 0 0 0 0 0 0 0 0 0 0 0 0 0 0 0 0 0 0 0 0 0 0 0 
0 0 0 0 0 0 0 0 0 0 0 0 0 0 0 180 145 115 229 182 140 209 165 126 200 158 120 
203 160 124 210 167 131 222 179 143 229 186 152 232 188 156 231 188 155 
225 181 149 221 178 145 219 176 144 222 179 146 229 186 154 231 188 154 
227 184 150 219 176 142 208 164 129 201 158 121 200 157 119 206 163 124 
221 177 136 187 152 119 0 0 0 0 0 0 0 0 0 0 0 0 0 0 0 0 0 0 0 0 0 0 0 0 0 0 0 
0 0 0 0 0 0 0 0 0 0 0 0 0 0 0 0 0 0 0 0 0 0 0 0 0 0 0 0 0 0 0 0 0 0 0 0 0 0 0 
0 0 0 0 0 0 0 0 0 0 0 0 0 0 0 0 0 0 0 0 0 0 0 0 0 0 0 0 0 0 0 0 0 0 0 0 0 0 0 
0 0 0 0 0 0 0 0 0 0 0 0 105 87 72 187 152 119 221 177 136 206 163 124 
200 157 119 201 158 121 208 164 129 219 176 142 227 184 150 231 188 154 
229 186 154 222 179 146 219 176 144 224 180 148 226 183 151 234 190 158 
235 191 159 231 188 153 223 179 145 211 168 133 205 161 127 204 160 125 
209 165 129 219 176 138 216 174 136 180 141 115 0 0 0 0 0 0 0 0 0 0 0 0 0 0 0 
0 0 0 0 0 0 0 0 0 0 0 0 0 0 0 0 0 0 0 0 0 0 0 0 0 0 0 0 0 0 0 0 0 0 0 0 0 0 0 
0 0 0 0 0 0 0 0 0 0 0 0 0 0 0 0 0 0 0 0 0 0 0 0 0 0 0 0 0 0 0 0 0 0 0 0 0 0 0 
0 0 0 0 0 0 0 0 0 0 0 0 0 0 0 0 0 0 145 118 94 198 160 123 216 174 136 
219 176 138 209 165 129 204 160 125 205 161 127 211 168 133 223 179 145 
231 188 153 235 191 159 234 190 158 226 183 151 224 180 148 224 180 148 
226 183 151 232 188 156 233 189 156 227 184 151 219 176 142 209 165 131 
203 160 124 202 159 123 206 163 127 214 171 133 222 178 138 231 184 140 
115 93 73 0 0 0 0 0 0 0 0 0 0 0 0 0 0 0 0 0 0 0 0 0 0 0 0 0 0 0 0 0 0 0 0 0 
0 0 0 0 0 0 0 0 0 0 0 0 0 0 0 0 0 0 0 0 0 0 0 0 0 0 0 0 0 0 0 0 0 0 0 0 0 0 0 
0 0 0 0 0 0 0 0 0 0 0 0 0 0 0 0 0 0 0 0 0 0 0 0 0 0 0 0 0 0 0 0 0 97 79 63 
190 152 115 231 184 140 222 178 138 214 171 133 206 163 127 202 159 123 
203 160 124 209 165 131 219 176 142 227 184 151 233 189 156 232 188 156 
226 183 151 224 180 148 219 176 144 220 177 145 225 181 149 224 180 147 
218 174 141 209 166 132 199 155 121 194 150 114 194 151 114 198 155 117 
205 162 124 208 165 126 206 162 121 191 148 106 0 0 0 0 0 0 0 0 0 0 0 0 0 0 0 
0 0 0 0 0 0 0 0 0 0 0 0 0 0 0 0 0 0 0 0 0 0 0 0 0 0 0 0 0 0 0 0 0 0 0 0 0 0 0 
0 0 0 0 0 0 0 0 0 0 0 0 0 0 0 0 0 0 0 0 0 0 0 0 0 0 0 0 0 0 0 0 0 0 0 0 0 0 0 
0 0 0 0 0 0 0 0 0 111 84 59 160 121 84 191 148 106 206 162 121 208 165 126 
205 162 124 198 155 117 194 151 114 194 150 114 199 155 121 209 166 132 
218 174 141 224 180 147 225 181 149 220 177 145 219 176 144 220 177 144 
221 178 145 222 179 146 219 176 144 213 170 135 204 160 126 195 151 116 
191 148 111 192 150 112 197 154 116 203 160 122 203 160 122 196 153 114 
191 147 104 164 121 86 0 0 0 0 0 0 0 0 0 0 0 0 0 0 0 0 0 0 0 0 0 0 0 0 0 0 0 
0 0 0 0 0 0 0 0 0 0 0 0 0 0 0 0 0 0 0 0 0 0 0 0 0 0 0 0 0 0 0 0 0 0 0 0 0 0 0 
0 0 0 0 0 0 0 0 0 0 0 0 0 0 0 0 0 0 0 0 0 0 0 0 0 0 0 0 0 0 82 71 56 154 115 78 
188 139 94 191 147 104 196 153 114 203 160 122 203 160 122 197 154 116 
192 150 112 191 148 111 195 151 116 204 160 126 213 170 135 219 176 144 
222 179 146 221 178 145 220 177 144 227 184 152 226 183 151 226 182 150 
220 177 144 212 169 135 204 160 126 197 153 119 194 150 116 197 154 119 
202 159 122 209 166 129 209 166 128 201 159 119 193 149 108 181 136 94 
127 97 69 0 0 0 0 0 0 0 0 0 0 0 0 0 0 0 0 0 0 0 0 0 0 0 0 0 0 0 0 0 0 0 0 0 
0 0 0 0 0 0 0 0 0 0 0 0 0 0 0 0 0 0 0 0 0 0 0 0 0 0 0 0 0 0 0 0 0 0 0 0 0 0 0 
0 0 0 0 0 0 0 0 0 0 0 0 0 0 0 0 0 0 137 109 81 162 125 91 171 128 88 
181 136 94 193 149 108 201 159 119 209 166 128 209 166 129 202 159 122 
197 154 119 194 150 116 197 153 119 204 160 126 212 169 135 220 177 144 
226 182 150 226 183 151 227 184 152 230 187 154 228 185 153 226 182 150 
219 176 144 209 166 133 201 158 123 195 151 117 194 150 116 200 156 121 
205 161 125 212 170 131 212 170 131 205 162 123 194 152 111 180 137 96 
181 137 96 141 109 80 0 0 0 0 0 0 0 0 0 0 0 0 0 0 0 0 0 0 0 0 0 0 0 0 0 0 0 
0 0 0 0 0 0 0 0 0 0 0 0 0 0 0 0 0 0 0 0 0 0 0 0 0 0 0 0 0 0 0 0 0 0 0 0 0 0 0 
0 0 0 0 0 0 0 0 0 0 0 0 0 0 0 0 0 0 182 146 111 214 168 123 197 151 109 
181 137 96 180 137 96 194 152 111 205 162 123 212 170 131 212 170 131 
205 161 125 200 156 121 194 150 116 195 151 117 201 158 123 209 166 133 
219 176 144 226 182 150 228 185 153 230 187 154 228 185 153 226 183 151 
223 179 147 216 172 139 205 161 127 197 153 118 191 147 111 192 148 111 
198 155 118 206 162 125 213 170 133 214 171 133 208 165 125 198 155 115 
185 142 102 185 141 101 196 152 111 155 123 94 82 67 55 0 0 0 0 0 0 0 0 0 
0 0 0 0 0 0 0 0 0 0 0 0 0 0 0 0 0 0 0 0 0 0 0 0 0 0 0 0 0 0 0 0 0 0 0 0 0 0 0 
0 0 0 0 0 0 0 0 0 0 0 0 0 0 0 0 0 0 0 0 0 0 0 0 0 0 0 175 138 108 213 169 127 
205 161 120 196 152 111 185 141 101 185 142 102 198 155 115 208 165 125 
214 171 133 213 170 133 206 162 125 198 155 118 192 148 111 191 147 111 
197 153 118 205 161 127 216 172 139 223 179 147 226 183 151 228 185 153 
231 188 155 226 183 151 217 173 141 208 164 132 201 157 122 196 152 118 
194 150 116 196 153 117 201 159 121 208 165 127 216 173 135 216 173 135 
209 167 127 198 155 115 181 138 97 180 137 96 194 151 111 203 160 120 
188 145 115 103 84 66 0 0 0 0 0 0 0 0 0 0 0 0 0 0 0 0 0 0 0 0 0 0 0 0 0 0 0 
0 0 0 0 0 0 0 0 0 0 0 0 0 0 0 0 0 0 0 0 0 0 0 0 0 0 0 0 0 0 0 0 0 0 0 0 0 0 0 
117 96 77 219 175 134 211 168 127 206 163 123 203 160 120 194 151 111 
180 137 96 181 138 97 198 155 115 209 167 127 216 173 135 216 173 135 
208 165 127 201 159 121 196 153 117 194 150 116 196 152 118 201 157 122 
208 164 132 217 173 141 226 183 151 231 188 155 238 195 163 228 185 153 
209 165 133 198 154 121 197 153 119 200 156 122 207 163 129 210 167 131 
209 165 130 211 169 132 218 175 138 218 176 137 213 170 130 195 152 112 
165 122 82 165 121 81 193 151 110 209 166 126 209 167 126 210 167 127 
142 115 89 83 68 55 0 0 0 0 0 0 0 0 0 0 0 0 0 0 0 0 0 0 0 0 0 0 0 0 0 0 0 
0 0 0 0 0 0 0 0 0 0 0 0 0 0 0 0 0 0 0 0 0 0 0 0 0 0 0 88 70 59 144 114 90 
206 162 124 209 166 126 210 167 127 209 167 126 209 166 126 193 151 110 
165 121 81 165 122 82 195 152 112 213 170 130 218 176 137 218 175 138 
211 169 132 209 165 130 210 167 131 207 163 129 200 156 122 197 153 119 
198 154 121 209 165 133 228 185 153 238 195 163 230 187 154 221 178 145 
200 157 125 194 150 117 200 156 122 208 164 130 218 174 140 220 177 141 
214 170 135 213 170 133 218 174 137 217 175 137 214 171 132 198 155 115 
168 125 84 167 124 83 194 151 111 209 167 126 210 168 127 209 166 126 
203 160 121 197 154 116 128 100 77 82 66 54 0 0 0 0 0 0 0 0 0 0 0 0 0 0 0 
0 0 0 0 0 0 0 0 0 0 0 0 0 0 0 0 0 0 0 0 0 0 0 0 0 0 0 95 78 62 136 107 84 
190 146 110 191 147 110 197 154 116 203 160 121 209 166 126 210 168 127 
209 167 126 194 151 111 167 124 83 168 125 84 198 155 115 214 171 132 
217 175 137 218 174 137 213 170 133 214 170 135 220 177 141 218 174 140 
208 164 130 200 156 122 194 150 117 200 157 125 221 178 145 230 187 154 
206 162 130 202 159 126 195 151 119 197 153 121 209 165 132 218 175 141 
227 183 149 226 182 147 216 173 136 212 170 131 213 170 132 214 171 132 
215 172 132 206 163 123 189 146 105 186 143 103 199 156 116 206 163 123 
208 165 125 207 164 125 202 160 120 197 154 116 191 148 109 191 147 109 
159 124 99 121 97 77 100 81 66 80 67 56 0 0 0 0 0 0 0 0 0 0 0 0 0 0 0 0 0 0 
81 67 57 101 81 70 132 107 88 182 148 114 201 158 123 195 151 116 191 147 109 
191 148 109 197 154 116 202 160 120 207 164 125 208 165 125 206 163 123 
199 156 116 186 143 103 189 146 105 206 163 123 215 172 132 214 171 132 
213 170 132 212 170 131 216 173 136 226 182 147 227 183 149 218 175 141 
209 165 132 197 153 121 195 151 119 202 159 126 206 162 130 196 152 120 
195 151 120 195 151 119 201 158 125 215 171 138 226 182 148 233 189 154 
232 188 153 223 180 143 218 176 138 217 174 136 217 174 135 218 175 135 
212 170 129 201 159 118 200 157 116 205 162 122 209 167 126 211 169 128 
210 168 127 206 163 124 200 158 120 196 153 115 196 152 115 200 156 120 
204 160 125 209 166 132 212 169 134 210 167 134 208 164 132 204 160 128 
209 165 133 223 178 144 204 160 128 208 164 132 210 167 134 212 169 134 
209 166 132 204 160 125 200 156 120 196 152 115 196 153 115 200 158 120 
206 163 124 210 168 127 211 169 128 209 167 126 205 162 122 200 157 116 
201 159 118 212 170 129 218 175 135 217 174 135 217 174 136 218 176 138 
223 180 143 232 188 153 233 189 154 226 182 148 215 171 138 201 158 125 
195 151 119 195 151 120 196 152 120 200 156 124 200 156 125 201 158 126 
208 164 132 218 175 141 227 184 150 235 191 157 237 194 160 235 191 156 
232 189 152 229 187 149 226 184 145 222 180 140 216 173 133 207 164 124 
207 164 124 216 173 133 220 178 137 221 179 138 218 176 137 214 171 132 
209 167 129 206 162 126 206 162 127 209 166 131 213 170 134 216 172 138 
217 173 139 215 171 138 212 169 136 210 165 134 211 166 135 218 172 139 
210 165 134 212 169 136 215 171 138 217 173 139 216 172 138 213 170 134 
209 166 131 206 162 127 206 162 126 209 167 129 214 171 132 218 176 137 
221 179 138 220 178 137 216 173 133 207 164 124 207 164 124 216 173 133 
222 180 140 226 184 145 229 187 149 232 189 152 235 191 156 237 194 160 
235 191 157 227 184 150 218 175 141 208 164 132 201 158 126 200 156 125 
200 156 124 205 161 129 207 163 131 209 166 134 215 171 138 221 178 143 
227 184 150 234 190 156 238 195 160 239 196 161 238 195 159 234 191 154 
228 186 147 220 178 137 213 170 130 206 163 123 208 165 125 218 176 136 
223 180 140 222 180 139 218 176 137 213 170 132 209 167 128 207 163 127 
208 164 129 212 169 134 216 172 138 218 174 140 218 175 141 216 172 140 
213 170 137 211 167 135 212 167 134 216 169 137 211 167 135 213 170 137 
216 172 140 218 175 141 218 174 140 216 172 138 212 169 134 208 164 129 
207 163 127 209 167 128 213 170 132 218 176 137 222 180 139 223 180 140 
218 176 136 208 165 125 206 163 123 213 170 130 220 178 137 228 186 147 
234 191 154 238 195 159 239 196 161 238 195 160 234 190 156 227 184 150 
221 178 143 215 171 138 209 166 134 207 163 131 205 161 129 214 170 138 
216 172 140 219 176 144 221 178 145 223 179 145 225 181 147 229 186 151 
233 189 154 237 195 158 236 194 156 231 189 150 222 180 141 211 169 129 
204 161 121 200 157 116 203 160 120 213 170 130 217 174 134 215 172 132 
210 168 127 204 161 122 200 158 119 199 156 119 201 159 121 208 164 129 
212 169 134 216 172 138 217 173 139 214 170 138 212 168 136 210 165 134 
211 166 135 217 171 138 210 165 134 212 168 136 214 170 138 217 173 139 
216 172 138 212 169 134 208 164 129 201 159 121 199 156 119 200 158 119 
204 161 122 210 168 127 215 172 132 217 174 134 213 170 130 203 160 120 
200 157 116 204 161 121 211 169 129 222 180 141 231 189 150 236 194 156 
237 195 158 233 189 154 229 186 151 225 181 147 223 179 145 221 178 145 
219 176 144 216 172 140 214 170 138 212 169 136 215 171 139 221 178 145 
224 180 148 223 179 145 222 179 144 223 179 144 225 181 146 228 186 149 
226 183 146 218 176 138 209 167 127 200 157 116 195 152 112 197 154 114 
202 160 119 210 168 127 213 170 130 209 167 126 205 162 122 198 155 117 
194 151 113 194 151 113 199 155 118 207 163 128 214 170 135 219 176 142 
221 178 144 219 176 143 218 173 142 216 170 139 217 171 140 221 175 143 
216 170 139 218 173 142 219 176 143 221 178 144 219 176 142 214 170 135 
207 163 128 199 155 118 194 151 113 194 151 113 198 155 117 205 162 122 
209 167 126 213 170 130 210 168 127 202 160 119 197 154 114 195 152 112 
200 157 116 209 167 127 218 176 138 226 183 146 228 186 149 225 181 146 
223 179 144 222 179 144 223 179 145 224 180 148 221 178 145 215 171 139 
212 169 136 199 155 123 204 160 128 216 172 140 222 179 145 221 178 144 
219 176 142 216 172 138 213 170 135 211 169 133 206 163 127 196 153 116 
189 146 106 184 141 101 187 144 104 198 155 115 206 163 123 210 168 127 
210 168 127 207 164 124 201 159 119 195 152 113 191 149 111 192 149 112 
199 155 120 210 167 131 220 177 142 228 185 151 232 188 155 231 188 155 
230 187 154 228 184 153 229 182 151 230 182 150 228 184 153 230 187 154 
231 188 155 232 188 155 228 185 151 220 177 142 210 167 131 199 155 120 
192 149 112 191 149 111 195 152 113 201 159 119 207 164 124 210 168 127 
210 168 127 206 163 123 198 155 115 187 144 104 184 141 101 189 146 106 
196 153 116 206 163 127 211 169 133 213 170 135 216 172 138 219 176 142 
221 178 144 222 179 145 216 172 140 204 160 128 199 155 123 192 149 116 
198 154 122 210 167 134 216 172 140 215 171 138 212 169 134 207 163 129 
204 160 125 202 159 123 196 153 117 187 144 106 181 138 99 179 136 95 
185 142 102 200 158 117 208 165 125 207 164 124 205 162 122 202 160 119 
198 155 116 192 149 109 188 145 108 188 145 109 195 151 116 208 164 130 
219 176 142 230 187 152 235 192 159 235 193 160 236 191 160 234 189 158 
233 187 155 232 184 152 234 189 158 236 191 160 235 193 160 235 192 159 
230 187 152 219 176 142 208 164 130 195 151 116 188 145 109 188 145 108 
192 149 109 198 155 116 202 160 119 205 162 122 207 164 124 208 165 125 
200 158 117 185 142 102 179 136 95 181 138 99 187 144 106 196 153 117 
202 159 123 204 160 125 207 163 129 212 169 134 215 171 138 216 172 140 
210 167 134 198 154 122 192 149 116 192 149 116 197 153 121 205 161 129 
208 164 131 204 160 126 201 157 122 198 153 119 197 153 118 199 156 119 
197 154 116 190 147 108 185 142 104 184 141 101 191 148 107 205 162 122 
209 166 126 200 158 117 197 154 114 197 154 113 193 151 110 187 144 105 
183 141 102 182 139 100 187 144 107 200 157 120 212 169 134 225 181 147 
232 188 154 233 190 157 233 189 157 231 187 155 229 183 152 227 178 146 
231 187 155 233 189 157 233 190 157 232 188 154 225 181 147 212 169 134 
200 157 120 187 144 107 182 139 100 183 141 102 187 144 105 193 151 110 
197 154 113 197 154 114 200 158 117 209 166 126 205 162 122 191 148 107 
184 141 101 185 142 104 190 147 108 197 154 116 199 156 119 197 153 118 
198 153 119 201 157 122 204 160 126 208 164 131 205 161 129 197 153 121 
192 149 116 199 155 123 200 157 124 204 160 128 203 160 126 198 154 120 
194 150 116 193 150 114 196 152 116 201 158 120 201 159 120 197 154 116 
194 151 112 192 149 108 196 153 113 208 165 125 209 167 126 200 158 117 
198 155 115 200 158 117 199 156 116 192 150 111 187 144 106 183 140 101 
186 142 105 196 152 117 208 163 129 219 176 142 226 183 150 228 185 153 
228 185 153 226 181 150 223 177 145 220 170 139 226 181 150 228 185 153 
228 185 153 226 183 150 219 176 142 208 163 129 196 152 117 186 142 105 
183 140 101 187 144 106 192 150 111 199 156 116 200 158 117 198 155 115 
200 158 117 209 167 126 208 165 125 196 153 113 192 149 108 194 151 112 
197 154 116 201 159 120 201 158 120 196 152 116 193 150 114 194 150 116 
198 154 120 203 160 126 204 160 128 200 157 124 199 155 123 209 166 134 
209 166 134 208 164 132 203 160 127 196 152 119 193 150 115 195 151 117 
201 156 122 209 165 130 211 168 131 209 166 129 205 162 124 201 159 118 
201 160 118 208 165 125 209 167 126 208 165 125 209 166 126 214 171 131 
213 171 131 208 165 127 200 158 120 191 149 112 191 147 110 195 151 117 
203 160 125 214 170 136 220 177 143 222 179 145 221 178 145 218 173 142 
214 168 136 210 159 128 218 173 142 221 178 145 222 179 145 220 177 143 
214 170 136 203 160 125 195 151 117 191 147 110 191 149 112 200 158 120 
208 165 127 213 171 131 214 171 131 209 166 126 208 165 125 209 167 126 
208 165 125 201 160 118 201 159 118 205 162 124 209 166 129 211 168 131 
209 165 130 201 156 122 195 151 117 193 150 115 196 152 119 203 160 127 
208 164 132 209 166 134 209 166 134 214 170 138 213 170 137 211 169 135 
208 165 132 202 160 125 200 158 122 202 159 124 206 162 128 211 168 132 
212 169 132 209 166 128 205 162 124 202 159 119 203 160 119 209 165 125 
210 168 127 210 168 127 214 171 131 222 179 138 223 179 140 218 174 136 
208 165 128 195 151 115 189 144 110 189 145 110 193 150 114 201 158 123 
207 162 129 207 163 131 205 161 129 202 156 124 198 151 120 196 146 114 
202 156 124 205 161 129 207 163 131 207 162 129 201 158 123 193 150 114 
189 145 110 189 144 110 195 151 115 208 165 128 218 174 136 223 179 140 
222 179 138 214 171 131 210 168 127 210 168 127 209 165 125 203 160 119 
202 159 119 205 162 124 209 166 128 212 169 132 211 168 132 206 162 128 
202 159 124 200 158 122 202 160 125 208 165 132 211 169 135 213 170 137 
214 170 138 210 169 134 211 171 135 215 173 139 216 175 140 216 175 140 
216 174 139 214 173 137 212 170 134 209 167 129 204 160 123 197 154 116 
193 151 111 194 150 111 200 155 116 210 165 126 213 169 129 211 166 127 
214 170 130 224 180 140 227 182 143 220 177 138 210 165 128 193 148 111 
181 136 101 176 131 96 176 131 97 182 137 102 185 139 106 185 139 106 
182 137 103 176 130 98 175 128 96 177 128 98 176 130 98 182 137 103 
185 139 106 185 139 106 182 137 102 176 131 97 176 131 96 181 136 101 
193 148 111 210 165 128 220 177 138 227 182 143 224 180 140 214 170 130 
211 166 127 213 169 129 210 165 126 200 155 116 194 150 111 193 151 111 
197 154 116 204 160 123 209 167 129 212 170 134 214 173 137 216 174 139 
216 175 140 216 175 140 215 173 139 211 171 135 210 169 134 208 168 132 
211 171 135 215 176 140 220 180 143 223 182 146 223 182 146 220 180 143 
215 174 138 209 166 128 201 157 118 191 148 109 188 144 106 191 146 107 
198 153 114 210 165 126 214 170 130 211 166 127 214 170 130 225 180 141 
228 183 145 222 178 139 210 165 129 191 146 110 177 132 97 170 125 89 
168 123 87 173 128 93 176 129 96 175 129 95 171 125 91 165 118 86 163 117 86 
168 121 91 165 118 86 171 125 91 175 129 95 176 129 96 173 128 93 168 123 87 
170 125 89 177 132 97 191 146 110 210 165 129 222 178 139 228 183 145 
225 180 141 214 170 130 211 166 127 214 170 130 210 165 126 198 153 114 
191 146 107 188 144 106 191 148 109 201 157 118 209 166 128 215 174 138 
220 180 143 223 182 146 223 182 146 220 180 143 215 176 140 211 171 135 
208 168 132 
