P3
64 64
255
94 84 76 98 91 84 108 108 102 115 119 114 119 122 121 124 128 127 130 135 133 
135 139 137 138 139 139 130 128 128 111 108 106 108 105 102 122 122 119 
118 118 115 96 96 91 93 91 86 108 103 99 122 118 115 135 134 133 139 140 140 
134 136 134 130 133 131 128 132 130 123 126 124 116 115 112 116 114 112 
124 123 123 128 128 130 131 131 131 134 135 135 136 141 143 137 142 144 
137 139 140 136 137 139 135 137 141 134 138 142 134 139 142 133 138 139 
133 135 134 135 137 135 140 144 144 140 145 146 135 139 141 137 141 142 
145 150 151 145 149 150 135 137 140 127 128 130 118 120 122 113 114 115 
111 111 112 109 109 108 107 108 104 111 111 108 121 120 119 124 123 125 
121 122 123 120 122 123 121 122 123 121 123 124 121 123 125 119 121 123 
115 117 117 113 115 115 101 93 87 105 100 94 113 114 109 117 120 116 
116 117 115 117 117 115 120 121 117 123 123 119 125 122 120 121 117 115 
109 106 103 108 107 103 118 118 115 114 115 111 99 98 93 97 94 90 109 104 100 
118 113 109 123 120 117 128 126 124 131 132 130 129 131 129 123 125 123 
118 118 116 115 112 110 117 114 112 125 124 125 130 130 131 131 130 130 
133 134 134 136 140 141 136 141 142 135 137 137 135 136 137 136 139 142 
135 139 142 132 136 139 130 134 135 131 134 132 134 137 136 139 144 145 
141 146 148 138 144 146 137 142 143 138 140 140 133 133 132 123 120 120 
116 113 112 112 110 110 109 108 108 108 106 106 110 109 108 115 117 114 
120 122 120 123 124 125 124 124 126 122 123 124 121 123 124 122 126 126 
120 124 124 115 118 117 113 115 114 113 115 114 113 115 114 115 114 110 
118 118 115 125 126 125 122 122 121 109 106 103 101 95 90 99 91 83 98 88 79 
98 87 79 101 92 85 106 104 98 108 110 105 107 110 105 106 107 103 105 102 97 
106 101 97 111 106 102 108 102 97 98 88 81 104 95 89 124 123 121 127 128 127 
112 109 108 107 102 100 112 105 104 119 114 113 129 128 127 133 133 133 
130 129 129 130 131 131 135 138 137 134 139 137 130 132 131 131 133 133 
139 142 144 137 141 144 126 130 132 123 126 127 129 130 130 133 136 136 
138 144 145 142 150 152 145 154 157 138 144 145 122 120 117 107 100 94 
95 83 76 93 80 73 99 90 85 102 96 92 101 97 94 111 110 109 132 136 137 
138 143 146 129 133 136 124 127 129 124 124 125 124 126 126 126 133 131 
119 126 123 102 105 101 99 99 96 110 110 107 115 115 112 124 126 125 
126 128 127 131 132 132 123 121 120 102 95 90 92 82 75 93 81 73 92 80 71 
91 78 68 97 88 80 112 110 105 113 115 110 102 102 96 101 99 94 110 106 102 
113 108 104 109 104 100 101 93 87 88 75 66 93 82 73 115 112 108 122 121 120 
113 110 108 111 106 104 116 110 108 122 117 116 129 127 126 132 132 132 
131 131 132 132 133 133 134 137 136 133 136 135 127 130 129 129 132 132 
139 143 144 137 141 143 124 128 129 123 125 126 132 135 136 136 140 141 
135 140 141 138 145 146 145 154 156 139 146 147 121 120 117 106 99 93 
95 84 76 94 82 75 103 95 90 106 100 96 103 99 96 110 108 106 127 126 126 
133 134 136 129 132 135 124 128 130 120 121 121 119 120 119 120 127 124 
113 119 115 97 97 92 93 90 85 103 98 93 107 102 97 127 129 129 128 131 130 
131 133 132 120 118 115 96 86 77 90 78 68 101 94 87 105 100 94 102 95 88 
109 104 98 126 125 122 123 122 119 101 94 87 99 91 84 116 112 108 118 114 111 
105 97 92 96 86 80 92 81 72 95 85 76 104 98 91 114 111 107 125 125 124 
130 130 130 127 126 124 125 123 122 124 123 122 127 127 127 135 136 137 
138 139 141 135 137 138 132 134 135 128 129 131 130 132 133 137 141 141 
135 140 140 126 129 130 128 132 133 142 148 150 143 148 149 130 134 132 
129 132 131 138 144 145 140 146 148 136 140 140 130 132 131 122 123 121 
120 120 118 124 123 122 122 121 120 114 113 111 107 102 98 98 88 82 104 95 89 
122 121 120 125 127 128 112 113 112 105 106 105 105 106 104 103 102 100 
99 94 91 95 87 82 91 80 73 90 77 68 128 130 130 128 131 131 130 133 132 
119 118 114 95 85 77 92 81 72 110 106 100 116 114 110 110 106 101 115 111 106 
130 129 127 128 125 123 107 100 94 105 97 91 120 116 113 120 117 113 
105 98 93 98 90 84 101 92 86 102 94 87 101 94 88 109 105 100 124 124 123 
131 132 132 128 128 126 125 125 123 122 122 121 124 124 124 130 130 130 
132 132 133 130 132 133 128 129 130 125 125 127 126 127 128 131 134 134 
132 136 136 129 134 134 132 136 137 139 143 145 137 140 140 125 127 124 
123 124 121 129 131 131 133 136 137 135 139 140 134 139 140 132 137 138 
131 135 136 131 134 134 129 130 130 123 123 123 110 107 103 91 79 72 93 82 75 
117 115 113 122 123 123 107 107 106 100 98 96 99 96 94 99 95 93 101 96 92 
99 91 86 92 82 74 90 77 68 125 128 127 126 129 129 129 132 132 120 121 118 
100 94 88 100 93 86 119 118 112 123 123 118 114 110 105 115 110 105 
124 122 120 126 125 124 120 118 117 118 116 115 122 119 117 119 115 112 
109 106 101 107 103 99 114 109 107 114 108 106 108 102 97 107 101 96 
111 107 104 115 112 110 118 118 114 122 122 119 124 125 124 122 122 122 
116 113 111 115 113 111 121 120 120 122 122 122 119 117 116 119 117 115 
122 122 121 128 130 130 136 141 141 134 138 138 122 121 120 118 115 113 
119 119 117 119 119 117 117 116 113 117 115 113 118 117 116 120 121 120 
125 128 127 126 129 128 125 125 125 126 126 126 128 131 131 121 122 122 
104 99 97 102 96 94 114 112 112 116 115 115 107 104 102 102 99 95 101 98 94 
102 98 94 104 101 95 105 102 96 106 103 96 106 104 97 121 123 122 122 124 123 
124 127 126 119 121 118 107 105 100 108 104 99 121 120 115 124 124 119 
119 116 111 118 114 111 121 120 118 124 123 123 125 125 126 123 123 123 
120 117 115 117 113 110 115 113 110 116 114 112 120 117 116 118 114 113 
112 107 103 109 102 98 108 102 99 110 106 103 115 114 110 121 122 118 
128 128 127 125 124 124 113 109 107 110 106 104 117 114 113 119 117 115 
116 113 110 116 114 110 119 118 117 124 125 125 131 135 134 129 132 131 
119 116 114 117 113 111 123 123 122 124 125 123 119 117 115 117 114 112 
118 116 115 119 119 118 122 123 121 123 124 123 123 122 121 123 122 122 
122 125 125 119 121 120 112 110 109 112 109 109 119 118 119 119 118 119 
112 109 107 108 105 101 108 104 100 107 103 99 106 104 98 107 106 100 
110 109 104 111 110 106 116 117 117 116 117 116 116 117 114 116 118 113 
116 117 113 116 116 112 116 114 110 119 116 112 124 122 120 125 124 123 
122 122 122 122 121 121 122 122 119 120 118 115 113 110 107 115 111 109 
123 120 121 125 122 123 119 116 114 116 112 108 115 109 105 115 109 105 
116 110 108 117 113 111 118 117 113 123 124 120 131 132 131 131 130 131 
120 117 118 116 112 112 118 114 112 118 114 111 116 114 110 117 116 113 
122 121 120 120 121 121 113 116 114 116 118 117 128 128 128 135 135 136 
137 140 140 137 140 140 134 135 136 133 133 135 134 135 137 131 132 132 
124 124 121 122 121 118 125 124 124 119 118 119 106 105 103 104 102 100 
114 111 109 123 120 120 130 131 133 130 132 134 123 122 121 118 116 115 
117 114 113 114 110 109 108 105 101 105 101 97 105 98 96 105 97 96 116 116 116 
116 115 114 114 115 111 115 115 110 116 117 112 117 115 111 115 112 108 
118 114 111 125 124 122 126 126 126 121 122 122 120 119 119 121 119 116 
119 116 112 113 109 106 114 110 107 121 117 117 120 115 114 110 104 99 
107 101 96 112 107 103 116 112 109 120 115 112 122 117 115 121 120 117 
124 124 121 129 128 127 130 129 129 128 125 127 122 118 119 114 107 103 
110 103 97 110 105 100 114 112 108 123 122 121 121 121 120 108 109 106 
110 111 108 127 127 126 135 136 136 134 137 136 137 140 139 141 143 146 
143 145 149 143 145 148 137 139 140 127 127 124 124 122 119 126 125 125 
121 120 120 107 106 104 105 103 101 115 111 110 124 122 122 133 134 137 
134 136 138 127 127 127 123 122 121 122 120 120 118 116 115 112 109 107 
107 103 101 104 97 96 103 94 93 121 121 121 120 120 120 120 119 116 
115 113 109 108 103 98 109 103 98 118 114 109 122 119 116 122 120 118 
121 119 118 119 118 117 119 117 116 121 118 116 122 117 115 120 115 112 
116 110 106 109 103 99 101 93 87 92 80 72 93 83 75 104 102 97 113 112 109 
120 115 113 124 119 116 124 122 120 122 122 119 119 116 114 123 120 118 
134 134 133 128 125 123 105 96 89 94 83 75 97 87 80 107 100 94 123 120 117 
125 125 122 115 114 109 112 110 105 115 112 109 116 114 111 116 114 110 
124 124 121 140 144 144 146 150 153 142 144 147 137 138 140 132 132 130 
129 128 125 128 127 124 128 126 125 128 127 127 123 122 123 115 112 112 
116 114 115 127 127 130 130 130 133 126 124 126 124 120 121 123 121 120 
121 119 118 117 116 116 113 112 110 109 105 102 107 102 99 125 125 126 
124 124 124 122 121 120 119 116 114 113 107 104 113 107 103 119 114 110 
122 119 115 123 120 117 122 120 117 120 118 114 120 118 115 124 120 119 
125 121 120 125 121 118 119 115 110 107 101 97 97 89 83 89 76 68 92 82 74 
107 105 102 118 119 117 126 124 121 128 126 123 126 124 122 122 120 118 
117 113 110 118 113 111 125 122 119 119 114 109 99 89 81 92 79 71 98 86 79 
108 99 93 121 116 113 125 122 119 120 116 112 115 111 106 110 105 101 
109 104 100 111 107 102 117 116 112 129 130 129 135 137 137 135 136 138 
134 135 136 131 131 131 131 131 130 134 134 133 138 139 138 143 144 147 
137 138 140 119 119 119 114 112 112 120 118 120 123 120 122 122 118 120 
119 114 114 115 109 106 114 110 106 117 116 116 116 116 116 111 109 106 
109 106 102 130 129 130 127 127 127 123 123 122 124 123 123 130 129 129 
129 126 125 119 113 110 119 114 109 127 126 122 129 129 124 124 122 115 
124 121 115 128 126 124 129 129 127 127 128 123 123 122 118 115 111 110 
107 102 100 99 93 88 103 98 93 122 118 117 133 132 132 137 140 139 135 138 136 
127 125 123 123 118 116 122 117 116 115 108 106 102 92 85 96 84 76 98 86 78 
103 92 86 112 102 98 118 108 105 120 111 108 121 114 110 121 117 114 
119 115 111 112 106 103 112 107 103 118 116 112 116 115 110 107 103 99 
109 104 102 122 121 120 128 127 127 126 125 125 131 132 132 144 148 149 
152 157 159 155 158 162 147 149 152 129 130 130 117 116 115 112 109 107 
111 106 105 114 109 108 109 102 99 96 84 77 97 87 80 112 109 108 116 116 117 
112 109 107 109 105 102 131 131 131 129 129 129 124 125 125 127 127 127 
136 136 137 134 132 131 120 114 111 117 111 107 126 123 119 129 127 122 
127 123 116 127 124 118 130 129 127 130 130 129 127 128 124 125 124 121 
122 119 119 117 114 114 110 108 104 113 111 107 127 123 123 134 131 132 
133 136 134 131 133 130 126 124 121 124 119 116 123 118 117 115 108 106 
99 89 82 96 84 76 104 95 88 114 106 100 123 116 114 127 120 118 124 116 114 
124 117 115 126 123 120 125 122 120 121 117 114 121 117 115 125 124 121 
119 116 112 101 94 89 100 92 88 115 111 110 121 119 118 119 116 115 
124 123 122 136 138 139 144 148 150 148 151 153 143 145 147 130 130 130 
118 116 114 108 104 100 105 99 95 108 102 99 102 94 89 89 75 67 92 79 72 
111 108 106 119 119 119 115 114 113 114 111 109 129 131 130 128 129 129 
126 127 127 127 127 127 131 128 127 129 125 123 121 116 113 117 112 108 
117 111 107 121 115 111 127 123 119 129 127 124 129 128 126 127 126 125 
125 123 120 125 122 119 129 125 123 129 125 123 123 121 119 122 120 117 
123 120 119 120 117 115 114 110 107 115 111 107 124 120 116 126 122 119 
122 117 114 119 114 111 118 113 110 119 113 109 120 114 109 124 119 115 
131 129 126 135 134 132 136 133 133 135 133 133 133 132 131 134 134 132 
137 137 136 136 136 135 132 130 129 124 119 117 111 104 99 108 101 96 
114 108 107 114 109 109 109 104 101 108 102 98 111 105 102 116 111 110 
123 123 122 125 126 125 122 120 119 116 112 110 108 103 99 104 98 93 103 97 91 
99 91 85 92 81 74 97 88 83 115 112 111 123 124 125 123 124 123 123 123 123 
120 119 117 122 122 120 126 126 126 127 125 124 123 118 115 122 116 113 
123 120 117 121 117 115 115 108 105 117 109 106 126 122 119 129 126 123 
124 121 119 120 116 114 117 111 108 121 115 112 131 127 125 135 132 130 
131 128 127 127 125 123 123 120 118 117 114 111 110 104 101 112 106 103 
123 119 116 128 124 122 125 121 118 125 122 119 129 127 125 130 127 126 
127 123 120 128 125 122 134 134 131 138 139 138 142 142 142 141 141 142 
137 136 136 137 138 137 142 144 143 140 141 140 130 128 128 122 118 116 
116 110 105 114 109 104 118 114 112 116 111 110 106 101 97 101 94 90 102 92 89 
105 97 94 111 108 105 115 114 112 118 114 112 116 112 109 110 106 102 
106 101 96 104 97 92 100 92 86 96 86 80 102 94 89 117 115 114 124 125 125 
122 122 122 122 121 121 105 98 93 111 105 101 124 122 121 124 121 120 
111 104 100 112 105 101 127 125 124 129 128 127 119 114 111 117 112 108 
125 120 117 124 119 116 115 108 104 108 100 94 104 95 88 111 103 98 129 126 125 
136 134 135 133 129 128 130 126 124 126 124 122 124 121 119 122 119 116 
123 119 117 125 122 122 128 125 126 131 129 129 133 130 130 132 130 129 
130 127 125 126 122 119 127 124 121 133 131 129 138 137 136 142 142 143 
142 142 142 136 136 135 135 134 133 138 138 138 134 133 132 120 119 116 
114 111 108 114 110 108 119 116 113 129 128 125 126 125 122 110 106 105 
104 98 97 109 102 99 111 104 101 111 107 104 113 110 107 118 114 111 
118 114 112 114 110 110 111 107 106 110 102 100 106 97 92 100 90 83 104 96 90 
118 116 114 122 121 120 114 109 108 111 104 103 95 84 77 104 95 90 122 119 118 
125 123 122 112 106 103 114 108 105 129 128 127 131 130 129 118 114 110 
113 106 101 115 107 101 114 105 100 110 102 97 107 99 93 105 95 88 111 103 98 
125 123 122 131 129 130 128 123 121 127 121 119 127 124 122 125 123 121 
122 119 117 123 120 119 129 127 128 133 131 133 135 133 135 135 134 135 
133 132 132 131 129 128 126 123 121 124 119 116 122 116 113 126 122 119 
137 135 133 139 138 138 134 132 132 132 130 130 134 132 132 130 129 127 
121 119 116 114 111 108 110 106 103 113 109 106 123 122 117 123 123 119 
115 113 111 111 107 106 113 108 105 112 107 104 111 106 103 113 109 106 
120 115 111 119 115 112 112 108 108 110 106 106 112 106 104 110 103 99 
104 94 88 107 99 93 118 115 112 120 118 117 113 108 107 110 103 102 
92 79 71 100 92 86 119 119 117 127 130 130 125 125 124 126 124 124 131 128 129 
127 122 121 115 106 102 103 92 85 94 81 72 96 84 76 109 102 97 117 112 109 
119 113 110 121 115 112 122 119 116 121 117 114 117 110 106 118 112 108 
125 122 119 122 120 117 108 105 102 113 110 108 135 134 134 142 143 144 
135 135 135 132 132 133 134 135 135 133 132 132 129 125 124 118 111 107 
100 90 83 103 92 85 125 119 115 134 130 128 130 127 126 129 126 125 
129 127 126 130 128 127 132 130 129 123 119 117 104 95 90 96 88 81 100 96 89 
108 107 101 121 120 115 123 121 117 113 110 105 110 106 101 112 107 104 
116 111 108 122 118 115 118 114 110 106 99 96 103 98 94 111 109 105 
112 110 105 108 100 94 109 101 96 117 112 108 120 118 116 120 118 118 
120 119 119 95 85 79 101 94 89 114 113 111 122 123 123 124 124 124 127 126 126 
131 128 128 128 124 123 119 112 109 108 98 92 94 82 73 96 85 77 113 107 103 
123 120 118 127 123 122 126 122 120 121 117 114 114 108 104 105 96 90 
106 97 91 115 110 105 115 110 106 103 98 94 107 103 100 128 126 124 
138 137 136 136 136 135 133 132 132 128 126 125 126 124 123 129 125 124 
119 112 109 98 86 79 99 88 80 123 118 114 132 128 126 124 119 117 120 115 112 
119 114 111 124 119 117 133 131 130 127 123 121 105 97 90 95 87 79 98 93 86 
104 101 95 115 111 104 117 112 106 109 106 100 107 104 100 111 107 103 
115 110 107 118 114 111 114 109 105 102 94 88 102 94 89 113 111 107 
117 116 113 115 110 106 116 109 106 119 114 111 120 117 114 118 116 115 
118 116 115 106 102 99 106 103 99 107 103 99 108 104 100 110 105 101 
117 113 110 128 127 126 133 133 133 132 132 131 126 124 122 115 109 106 
113 107 103 121 117 114 126 123 121 129 125 123 127 123 122 122 118 116 
111 104 100 94 82 74 90 76 68 99 88 81 104 94 89 105 97 93 107 100 96 
109 104 98 120 116 110 138 136 135 136 133 132 114 107 102 111 103 98 
127 121 119 128 121 120 114 105 100 116 109 104 133 131 130 133 132 130 
116 110 105 106 97 91 104 95 88 110 103 97 125 121 118 126 124 120 115 110 103 
112 106 98 117 112 107 112 105 100 97 86 77 93 82 74 99 94 91 105 102 100 
109 106 102 111 106 102 109 105 102 106 100 96 100 91 85 104 96 90 118 114 111 
125 123 123 126 124 123 126 124 123 125 122 121 119 115 113 108 102 97 
103 96 90 111 112 110 109 108 105 104 99 94 104 97 91 108 101 97 115 111 108 
127 125 124 132 131 131 130 130 130 128 128 127 125 123 121 125 122 119 
127 123 121 127 122 121 125 120 117 122 116 113 118 112 108 107 98 92 
89 75 66 83 67 57 88 74 65 94 81 74 100 89 83 100 90 84 95 86 77 104 96 88 
127 122 118 126 120 116 101 90 83 98 85 78 115 105 101 119 111 107 112 102 97 
114 106 101 124 121 118 124 121 118 113 106 101 107 98 91 106 96 90 112 105 99 
125 122 119 130 128 125 126 124 118 126 122 116 128 124 120 120 113 108 
100 88 81 95 84 77 104 99 97 109 106 105 107 104 101 106 102 99 105 101 99 
103 98 95 101 93 87 106 98 92 119 114 111 125 123 123 127 127 127 125 126 126 
121 120 119 113 107 105 99 89 82 93 80 72 111 112 111 109 109 106 106 101 96 
108 103 98 117 114 111 123 120 119 127 122 122 124 118 118 115 108 105 
116 110 106 126 123 119 131 128 125 130 126 126 125 119 118 115 108 104 
110 101 95 108 99 91 101 90 81 89 75 65 84 68 58 84 69 59 86 71 61 88 74 64 
88 74 65 86 72 62 91 79 69 103 93 86 102 92 85 89 75 66 86 71 61 91 77 68 
93 79 71 91 77 68 93 80 71 98 86 78 105 96 89 115 108 103 122 116 112 
126 120 116 130 125 122 135 132 131 138 136 136 139 137 137 137 135 134 
133 129 126 128 124 120 122 118 115 121 117 115 124 120 119 119 115 115 
106 102 101 101 98 97 104 104 103 104 104 102 103 98 95 106 100 96 115 110 107 
119 116 114 118 119 118 115 115 115 109 106 106 101 94 91 91 78 70 86 71 60 
108 110 107 109 109 106 110 106 102 114 110 107 122 121 119 125 123 123 
123 117 117 119 111 110 112 104 101 112 105 100 118 111 106 123 117 113 
127 121 121 124 117 116 112 104 100 106 96 89 104 93 84 98 86 76 89 74 64 
85 70 60 87 73 63 89 76 66 91 78 69 89 76 66 85 69 59 87 73 63 97 86 78 
98 88 81 91 79 70 89 76 67 92 80 71 90 77 68 84 69 59 83 67 57 87 72 62 
98 86 78 117 109 105 127 121 118 128 121 118 128 122 119 128 122 121 
131 126 126 137 134 134 139 136 136 137 133 131 135 132 129 133 131 130 
133 131 130 133 129 128 125 121 120 111 106 106 105 102 102 110 109 108 
110 109 107 106 102 100 106 101 98 110 106 102 112 109 105 110 110 108 
106 106 104 99 96 94 93 85 82 87 74 66 84 69 59 104 103 100 108 107 104 
117 114 113 121 119 119 122 122 123 120 119 119 117 111 108 118 111 108 
124 119 117 118 111 109 100 89 81 100 88 81 117 109 107 123 116 115 
117 108 106 111 101 97 105 94 87 98 85 76 88 73 63 88 73 64 97 86 78 104 96 88 
109 102 96 105 96 90 90 77 68 91 79 70 108 101 95 113 108 103 108 100 95 
109 102 96 118 113 108 112 105 99 91 78 69 84 69 59 92 79 70 103 92 85 
117 109 106 120 112 109 111 102 95 106 95 88 104 93 87 108 99 94 119 114 110 
129 126 123 139 136 135 140 137 137 133 129 128 129 125 123 129 126 123 
126 123 120 121 116 114 120 114 112 123 116 115 119 113 111 109 105 103 
104 101 98 104 100 97 104 101 97 103 101 98 100 97 94 93 88 85 89 81 78 
87 77 70 86 75 67 107 107 104 111 110 108 119 118 117 122 121 121 120 119 120 
117 115 114 113 108 104 117 112 108 129 126 126 123 117 116 98 86 79 97 84 77 
119 112 110 128 122 122 123 115 114 117 108 105 111 101 96 104 92 85 95 82 73 
94 81 72 100 89 82 108 100 94 118 113 110 116 111 108 102 93 87 103 94 88 
119 115 111 124 122 119 120 116 113 123 118 116 132 130 128 126 121 118 
104 94 87 96 84 76 102 91 84 110 102 96 122 115 112 121 114 111 108 97 91 
98 85 77 91 77 68 94 81 73 106 97 91 118 114 109 131 129 128 135 133 132 
129 124 122 127 122 120 130 126 124 128 125 122 123 118 115 123 116 114 
128 121 118 123 116 113 108 102 98 102 97 92 104 100 96 104 100 96 101 97 93 
96 91 87 88 81 77 84 76 72 86 77 72 86 77 71 119 119 120 119 118 118 
119 116 115 118 114 112 116 111 110 114 109 108 113 108 105 118 114 111 
130 127 127 128 123 123 111 102 98 113 104 100 133 130 129 139 137 137 
130 126 124 125 118 115 122 113 111 117 108 104 111 101 95 104 93 86 96 84 76 
100 90 84 116 111 110 122 120 120 121 117 114 123 119 116 130 126 125 
132 129 128 129 126 126 130 126 127 134 130 130 132 127 126 124 118 115 
119 112 108 116 110 106 120 116 112 132 129 125 131 126 123 117 109 105 
103 92 86 89 74 65 87 72 62 96 85 78 105 98 93 115 112 109 120 118 116 
122 117 114 126 121 119 134 131 130 131 128 127 117 112 108 115 110 105 
126 122 119 121 117 113 102 93 87 98 89 82 110 105 99 112 108 103 105 98 94 
95 88 83 83 76 70 79 72 65 83 75 69 84 76 71 121 121 121 119 118 117 
115 111 108 111 104 101 107 98 94 108 100 96 114 109 106 121 118 116 
129 126 126 129 125 124 121 115 112 123 117 115 135 133 133 135 132 132 
123 116 113 118 110 106 122 114 112 122 114 111 117 109 105 111 103 97 
104 94 88 107 98 94 119 115 114 126 125 125 128 126 125 129 127 127 
131 129 129 132 130 131 134 131 133 134 132 132 134 131 130 135 130 129 
136 131 130 135 131 129 132 129 127 131 128 126 133 129 126 127 121 117 
113 104 100 102 90 84 93 80 71 93 80 71 100 91 84 106 100 95 110 107 103 
112 109 106 113 106 103 118 112 109 129 125 124 127 124 123 115 109 105 
113 108 103 124 121 118 120 117 113 104 94 87 102 91 84 115 109 104 
116 112 107 106 99 93 97 89 82 90 82 75 87 79 72 89 81 75 90 81 76 112 111 107 
111 108 104 108 102 98 102 92 87 93 80 72 98 86 79 117 111 108 126 123 123 
126 123 122 126 123 121 126 123 120 126 122 120 125 122 120 116 110 106 
99 88 80 98 86 77 113 104 98 118 111 107 113 107 102 116 110 106 125 119 118 
130 125 124 129 125 124 127 124 123 123 120 121 122 119 120 123 122 122 
126 126 126 133 132 133 135 134 134 133 130 129 134 130 128 139 134 132 
145 139 139 150 147 147 143 140 139 125 117 115 109 98 93 95 82 74 93 81 72 
102 93 87 111 105 100 120 114 110 122 118 114 117 114 111 111 106 102 
102 92 87 102 93 88 112 108 106 117 113 112 116 108 107 117 110 108 
122 118 115 121 116 112 113 105 99 113 104 98 119 113 110 117 112 107 
106 99 90 103 94 85 107 99 92 108 99 93 104 95 89 102 93 87 113 111 106 
111 108 104 109 102 98 103 92 87 93 80 72 99 87 80 119 113 111 127 124 123 
122 119 117 123 119 117 128 125 124 126 123 121 118 112 110 107 98 94 
93 80 72 94 82 73 111 104 97 119 113 109 117 112 108 122 117 115 133 129 130 
136 133 133 130 126 125 125 120 118 118 114 113 114 109 109 111 107 105 
115 112 110 126 125 124 131 130 130 131 129 127 133 130 128 138 132 132 
143 138 138 150 146 147 140 134 134 112 102 98 96 83 76 90 76 67 97 86 77 
116 111 108 127 124 123 129 126 123 127 123 120 121 117 114 113 107 103 
103 93 88 101 93 88 109 105 102 115 111 110 119 112 110 122 114 112 
123 118 115 121 116 112 116 108 103 117 108 103 122 114 111 119 112 107 
109 101 91 108 100 89 117 108 102 118 109 103 113 102 95 110 99 91 122 120 119 
121 117 115 117 111 107 112 104 100 107 98 94 110 102 98 121 116 114 
124 120 119 119 115 113 119 115 114 126 121 121 124 118 118 115 105 103 
108 98 94 104 95 89 107 100 94 117 114 108 124 122 117 129 124 121 130 125 123 
128 124 122 125 121 120 122 118 116 118 113 110 112 107 103 105 97 92 
95 84 77 98 88 81 113 108 106 123 121 120 129 127 125 132 129 127 131 127 127 
131 126 127 132 127 127 120 113 110 96 83 76 89 74 66 99 86 79 114 106 101 
135 133 134 139 139 141 126 124 123 120 116 113 120 115 113 118 113 110 
116 110 106 116 111 107 119 116 113 122 119 116 126 119 115 127 120 116 
125 121 118 121 116 113 113 105 100 113 104 99 121 112 108 122 113 108 
115 106 98 114 105 96 118 109 103 118 108 102 114 102 94 112 99 90 126 124 124 
126 123 122 125 120 118 122 117 115 119 114 113 119 114 113 121 117 115 
121 117 114 118 114 111 119 115 113 125 120 120 124 118 118 117 108 106 
114 105 101 115 108 104 117 112 108 120 117 113 125 123 119 133 128 126 
131 126 124 121 115 112 115 110 106 114 108 105 112 105 101 108 101 95 
102 93 86 94 82 73 96 86 78 111 105 102 121 118 116 126 123 121 128 124 122 
125 120 121 121 116 116 116 110 107 106 99 93 93 81 73 94 82 74 111 102 97 
126 121 119 140 139 141 140 140 142 127 124 123 120 115 113 120 115 112 
118 112 109 114 108 104 115 110 106 121 117 114 123 119 116 122 116 112 
122 116 110 121 117 112 117 112 108 110 102 97 109 100 94 114 104 98 
116 107 100 117 108 100 119 110 102 120 111 105 120 110 104 117 106 98 
116 104 95 124 123 122 127 125 124 132 130 130 133 131 132 130 129 129 
126 125 124 121 118 115 119 115 111 120 115 112 122 118 115 125 123 120 
126 124 121 125 121 118 125 119 117 125 119 117 123 118 115 119 115 112 
121 117 115 128 124 123 125 120 118 113 105 100 106 97 91 105 96 91 105 96 91 
106 97 91 106 98 92 107 99 95 112 105 101 120 116 112 123 120 117 121 117 115 
120 115 113 121 113 111 115 106 104 101 95 90 97 91 85 102 94 88 112 105 100 
127 123 122 133 131 131 132 128 127 131 127 125 130 126 124 126 122 119 
120 115 111 111 103 98 99 88 80 100 90 83 115 109 105 117 113 111 107 103 99 
105 100 95 109 104 97 110 104 97 106 99 94 103 94 89 100 89 82 104 92 85 
115 106 99 122 113 107 123 114 108 123 114 108 121 113 107 120 112 107 
123 122 121 125 124 124 130 129 130 131 130 132 129 129 129 126 125 123 
120 117 114 120 116 112 124 120 117 126 123 120 127 126 122 127 126 121 
125 121 117 126 120 118 128 123 121 127 122 121 122 118 116 121 118 116 
125 122 120 121 118 115 111 104 99 106 97 91 107 98 92 107 99 93 108 99 94 
111 104 99 116 112 109 121 118 115 126 121 119 125 120 118 119 115 113 
118 112 110 121 113 111 116 108 105 105 97 92 104 97 92 113 108 103 
123 119 116 132 131 130 133 131 131 125 119 117 122 115 111 123 118 114 
122 117 113 118 111 108 109 100 95 96 84 76 97 86 78 112 106 103 115 110 109 
105 99 96 102 96 91 107 100 93 109 102 96 109 103 99 106 99 95 100 90 83 
103 92 84 115 105 99 121 112 106 121 112 106 120 111 106 118 111 106 
117 111 107 123 123 123 121 121 121 118 117 117 116 115 114 116 114 111 
117 114 111 120 116 114 123 121 119 128 127 126 131 130 129 132 130 126 
127 123 118 118 109 105 117 108 105 126 120 117 129 125 123 128 126 123 
126 124 122 124 122 119 121 117 114 115 111 107 114 109 105 118 113 110 
119 113 110 115 109 106 116 111 108 122 119 116 126 123 121 127 123 121 
126 121 119 121 116 114 121 116 114 125 120 118 126 121 119 126 117 115 
126 117 115 126 121 119 127 124 122 128 125 123 125 121 119 118 112 108 
112 104 100 108 99 94 108 100 94 113 105 100 112 104 99 106 97 91 107 99 93 
114 110 107 117 112 110 114 106 104 114 103 100 115 104 100 116 107 103 
118 113 110 118 113 110 116 107 101 115 105 97 117 106 99 116 106 100 
114 104 99 112 102 97 110 101 96 109 100 96 123 123 123 121 120 119 
116 115 113 114 112 109 114 111 108 117 113 110 121 117 115 124 122 121 
128 128 126 130 129 128 131 128 124 127 121 117 118 109 105 118 109 105 
127 120 118 131 127 125 131 129 126 129 128 125 126 123 120 122 119 117 
119 116 114 119 116 113 122 118 115 122 119 116 121 117 115 122 119 116 
126 123 121 128 124 122 127 123 121 125 120 118 122 117 114 122 118 116 
126 124 122 130 127 125 133 125 124 133 125 124 131 126 125 129 125 124 
127 123 121 120 115 112 110 102 97 102 91 85 95 84 76 96 84 76 103 93 86 
105 96 90 104 94 88 105 97 90 109 103 98 114 108 105 121 112 110 123 113 111 
120 110 107 120 112 109 123 118 116 124 119 116 123 116 109 121 112 104 
118 108 101 115 106 100 114 105 100 111 104 99 109 101 96 107 99 94 124 122 122 
123 122 120 123 121 118 123 121 118 123 121 120 124 121 120 123 119 119 
123 119 118 124 120 118 124 120 117 124 120 116 124 120 116 126 120 117 
128 122 119 131 126 123 132 128 125 132 128 125 130 127 125 129 125 124 
127 123 122 123 121 118 120 117 114 117 113 110 119 114 113 127 123 121 
130 125 125 130 123 123 128 122 121 125 121 119 123 119 116 121 116 114 
122 118 116 126 123 122 127 125 123 126 122 121 126 122 120 128 123 121 
128 123 122 128 124 123 119 113 110 101 90 83 90 76 67 86 71 62 85 71 61 
88 74 65 89 76 66 89 75 66 92 79 70 97 86 78 108 99 93 125 118 115 130 124 122 
124 118 115 122 116 114 123 118 117 123 118 115 122 116 107 120 113 104 
119 110 104 119 111 106 120 115 111 119 115 110 115 110 105 113 108 102 
124 122 121 124 122 120 125 122 118 125 123 119 126 124 123 126 124 124 
126 122 122 123 119 118 120 114 112 119 113 110 120 116 112 123 120 116 
129 125 122 132 128 125 133 129 127 133 129 126 132 128 125 131 126 124 
129 125 125 127 124 123 125 122 119 121 117 115 117 111 109 116 110 108 
120 114 111 122 114 112 121 113 110 120 112 109 118 112 109 120 115 112 
125 121 119 127 123 122 125 122 120 124 121 119 123 120 118 124 120 118 
126 122 120 127 123 121 128 124 124 120 115 112 104 94 87 94 82 73 91 78 69 
90 77 68 91 78 69 88 75 66 84 69 58 85 69 59 91 77 68 103 93 86 122 117 112 
129 126 123 125 121 118 122 117 115 120 116 114 118 112 108 115 107 98 
115 106 96 118 110 102 121 115 109 124 121 117 123 120 117 117 113 109 
114 110 106 122 122 122 122 121 120 121 118 115 121 117 114 122 119 117 
124 122 120 127 126 124 125 121 120 117 110 108 115 108 106 120 115 113 
124 120 118 127 123 120 130 127 124 132 131 130 133 132 131 132 129 127 
130 126 124 125 123 122 123 120 119 123 119 117 123 117 115 123 114 113 
115 105 103 101 90 85 96 86 79 102 91 84 105 95 88 106 97 91 116 109 105 
134 130 129 137 134 133 125 121 118 120 116 113 124 119 117 127 121 120 
127 123 121 127 124 122 127 124 123 125 121 119 118 113 109 114 107 102 
111 103 98 110 102 97 111 103 98 103 94 88 88 74 65 83 68 58 89 77 68 99 90 83 
112 107 103 119 116 113 121 117 114 119 115 112 114 110 107 108 102 97 
101 91 82 104 92 82 115 107 96 123 117 108 126 122 118 123 120 119 114 110 109 
109 105 105 120 119 118 120 118 116 119 115 112 119 114 111 120 116 113 
123 121 118 129 128 126 127 125 124 118 112 111 115 108 106 116 111 109 
121 117 115 129 126 123 133 130 128 131 130 129 130 128 127 128 125 122 
125 120 119 119 116 115 118 116 115 124 121 120 125 121 119 124 116 114 
117 107 104 104 94 89 99 90 84 103 94 87 106 97 90 106 98 92 116 109 105 
136 131 130 140 137 136 130 125 124 123 117 115 121 113 110 121 113 111 
123 119 116 124 122 119 124 121 119 124 121 119 124 121 119 122 119 116 
118 113 110 117 111 108 118 113 110 110 102 98 92 79 70 85 71 61 90 79 70 
97 89 81 107 101 96 115 111 107 121 117 115 118 114 111 108 101 97 101 92 86 
99 86 80 104 91 83 116 107 96 122 116 107 123 118 113 120 116 114 114 110 110 
111 107 108 116 112 109 117 113 109 119 114 110 119 114 110 119 114 110 
123 119 116 130 128 128 131 129 130 124 121 120 117 112 110 110 103 99 
116 110 107 136 134 133 140 139 138 130 126 124 123 118 115 120 115 112 
116 111 108 110 106 105 114 111 111 128 126 126 130 129 127 121 117 113 
121 117 112 128 126 124 130 128 127 125 122 120 122 117 114 118 114 111 
121 117 113 129 124 121 136 131 129 140 137 137 132 127 127 112 102 99 
107 96 92 116 110 106 119 116 113 117 114 111 117 115 112 121 118 116 
120 116 113 114 107 104 112 105 101 114 108 104 108 100 96 95 83 75 90 77 68 
94 83 75 99 90 82 107 98 92 115 108 104 124 121 119 119 115 112 101 90 83 
97 84 76 108 95 91 115 104 100 119 110 103 118 111 104 113 106 101 112 107 103 
116 112 111 118 115 115 110 104 99 112 107 102 117 112 108 120 115 112 
121 116 113 124 120 118 129 127 127 129 127 128 124 121 120 116 111 107 
105 96 91 110 103 98 132 131 129 139 138 138 129 126 123 122 118 114 
118 114 110 116 111 109 114 111 110 119 117 117 130 129 129 131 131 129 
122 120 116 124 122 119 137 137 136 139 140 140 132 130 130 126 123 122 
121 118 115 119 115 112 121 115 112 126 121 118 136 132 132 128 123 121 
104 93 88 100 89 84 117 112 108 123 121 118 119 118 115 119 117 115 
122 120 118 121 117 114 114 107 104 111 103 99 113 105 102 110 102 97 
103 93 86 101 91 83 104 95 89 107 99 93 110 101 96 113 105 101 116 110 106 
113 106 101 103 93 85 105 94 87 119 109 107 125 116 115 123 115 111 
117 109 104 108 99 94 108 101 96 118 114 112 122 120 119 102 94 88 106 99 94 
115 109 107 122 118 116 125 123 121 126 125 123 125 124 123 122 119 118 
118 113 110 110 103 98 100 90 83 103 95 88 120 116 113 128 127 126 129 128 126 
128 126 124 124 121 119 126 123 121 132 131 130 133 133 133 130 130 130 
127 127 126 127 124 123 128 124 122 129 126 125 127 125 123 124 120 118 
119 114 112 113 107 105 109 104 102 110 104 101 112 106 103 118 111 107 
113 104 99 97 85 78 102 92 86 126 124 122 136 137 136 132 131 130 129 128 126 
129 127 125 125 121 119 119 112 108 115 107 103 114 106 103 114 107 102 
116 109 102 119 112 106 122 117 113 121 117 114 117 111 108 109 101 95 
96 85 77 98 87 80 115 109 105 127 123 121 133 129 129 134 128 129 127 120 120 
118 109 108 107 96 92 107 98 93 118 114 111 124 121 120 100 92 86 103 96 92 
112 106 104 117 114 113 120 119 117 119 117 115 113 109 106 112 106 103 
114 109 106 110 104 100 101 91 84 101 93 86 112 108 105 119 118 116 
122 121 118 123 121 118 123 119 117 128 125 124 139 139 139 142 142 143 
135 136 136 131 130 130 129 125 124 128 124 123 130 127 126 128 126 124 
123 119 117 119 114 111 115 109 108 111 105 102 106 99 96 104 97 91 105 96 90 
104 94 87 100 90 83 108 100 94 126 124 121 133 134 132 131 130 128 130 127 125 
129 126 124 127 123 121 123 118 114 122 116 113 123 118 116 125 121 118 
129 125 121 131 128 125 132 130 129 130 127 126 123 119 116 112 105 100 
97 86 78 102 92 85 126 124 122 137 137 137 134 132 131 131 127 127 129 123 124 
123 115 115 113 104 101 112 105 101 121 116 114 124 122 120 103 98 95 
104 99 96 106 102 99 107 103 101 106 103 100 101 96 93 94 83 77 98 88 82 
113 109 107 116 113 111 107 99 94 105 98 92 109 107 105 110 109 107 
108 103 98 109 103 97 114 109 104 123 119 117 137 135 137 144 144 147 
146 147 149 140 140 140 126 122 120 127 122 119 141 140 140 142 142 142 
130 128 127 125 122 120 128 124 123 123 117 115 109 101 96 100 92 85 97 88 79 
101 93 86 113 108 103 118 113 110 115 110 106 115 110 106 118 113 109 
121 116 113 124 119 117 127 122 120 128 124 122 133 131 129 141 141 141 
144 144 145 141 141 142 138 138 139 136 135 136 132 131 131 127 124 122 
122 118 115 119 113 111 123 119 118 137 137 137 136 136 135 120 115 112 
118 111 108 127 123 123 131 127 128 127 123 122 125 121 120 125 121 120 
124 121 120 110 107 104 110 106 103 108 104 101 106 102 99 103 99 96 97 91 88 
90 79 72 93 84 77 107 104 103 112 111 111 110 104 101 109 103 99 108 106 105 
105 103 100 99 91 85 98 88 80 103 94 87 112 105 100 126 122 122 134 131 133 
136 134 133 133 130 127 124 118 115 127 122 120 142 140 140 144 143 144 
132 131 130 126 123 121 125 119 116 117 109 104 102 92 85 96 86 78 100 91 84 
107 100 94 117 113 109 117 113 109 107 99 93 105 95 90 111 103 98 118 112 109 
127 122 121 131 128 128 132 130 129 137 136 135 144 146 146 146 148 149 
142 144 145 137 137 139 131 129 130 127 124 123 124 121 118 126 124 121 
132 131 133 137 137 140 141 143 145 135 136 136 120 116 113 119 114 112 
132 130 132 138 138 141 138 138 140 135 135 136 131 129 130 129 127 127 
121 119 115 120 117 113 118 114 110 115 110 108 110 106 105 106 102 100 
102 97 93 99 94 90 95 94 93 99 98 97 110 106 104 113 108 106 110 106 104 
104 98 94 95 84 77 90 77 67 89 75 65 95 83 75 108 99 95 111 104 99 105 96 89 
108 100 93 120 115 112 128 125 123 132 129 128 133 130 129 131 129 127 
122 117 113 106 96 89 93 80 71 85 70 60 92 79 71 114 107 102 120 116 112 
112 106 100 105 97 90 100 89 82 101 91 84 110 102 96 122 117 114 137 136 137 
142 142 144 136 136 137 133 133 133 133 132 131 133 132 131 133 132 131 
128 126 124 118 113 110 114 108 104 116 111 106 124 121 119 138 139 143 
143 146 152 140 142 145 137 138 139 134 133 133 136 135 137 143 145 149 
145 149 155 144 148 153 142 145 149 140 140 144 139 138 141 123 121 117 
121 118 114 117 112 108 115 109 106 115 110 109 114 111 110 113 112 110 
108 107 105 99 97 96 99 96 94 108 103 100 110 103 100 105 98 93 99 90 84 
92 80 71 86 72 62 83 67 57 86 71 62 96 85 77 96 86 78 87 74 64 93 81 72 
113 107 102 125 121 119 127 123 121 129 126 124 131 129 127 122 118 114 
103 93 85 92 79 70 91 78 69 101 91 83 122 117 114 127 123 121 115 109 104 
105 96 88 96 83 75 95 82 74 102 92 85 114 108 103 131 130 129 136 136 136 
127 125 125 121 117 115 116 111 108 116 111 107 120 115 112 120 115 112 
116 110 106 114 108 104 115 110 106 124 121 119 139 141 145 141 144 148 
129 128 129 127 125 125 135 134 136 140 141 144 143 146 150 144 147 152 
142 146 150 140 142 146 137 137 140 135 135 138 116 113 110 113 109 105 
106 99 94 107 100 95 116 111 109 122 119 118 124 124 124 122 122 122 
117 114 111 110 105 101 103 96 90 98 88 81 94 82 74 91 78 69 90 77 68 88 74 65 
85 70 61 86 72 62 90 78 69 89 77 67 83 68 58 87 74 64 103 94 87 116 110 105 
126 123 120 132 130 129 132 133 131 127 126 123 116 110 106 113 106 101 
120 114 110 124 120 116 125 122 119 125 122 121 126 122 120 115 108 104 
94 81 73 85 70 59 87 73 63 96 84 76 110 103 98 114 108 104 106 97 92 99 89 82 
95 83 75 96 85 77 103 93 88 112 105 101 123 120 117 127 125 122 124 120 117 
127 124 122 136 137 137 131 130 129 109 102 98 107 99 95 123 120 120 
132 132 133 134 133 134 134 133 133 132 131 131 128 127 127 122 120 119 
119 117 116 117 113 111 112 107 103 102 93 87 102 93 88 114 108 105 
119 115 113 117 114 112 119 116 114 124 120 117 120 114 109 106 98 92 
95 85 77 88 74 64 88 74 64 96 84 76 97 86 79 92 79 72 92 79 71 97 86 78 
97 86 78 92 79 71 96 85 77 109 102 97 122 118 115 133 132 131 137 137 137 
132 133 132 129 128 127 126 123 121 127 124 122 133 132 129 133 132 130 
127 124 122 126 123 121 130 127 126 120 114 111 96 83 75 83 67 56 81 65 55 
87 72 63 98 87 79 99 89 82 91 78 69 88 75 65 91 79 70 97 85 78 104 95 90 
114 109 105 127 126 124 133 133 132 132 129 128 132 129 128 134 133 132 
124 122 119 103 93 88 101 91 86 119 115 114 128 127 127 128 126 125 
128 126 124 129 127 126 125 123 122 118 115 112 114 111 108 124 121 120 
118 112 110 105 93 88 102 89 84 108 100 97 105 98 94 93 82 75 98 88 81 
122 116 112 128 124 120 115 110 107 101 93 88 87 73 64 90 76 67 110 101 96 
115 107 104 104 95 89 104 95 90 116 108 104 119 112 109 114 106 104 
118 113 112 133 133 133 142 146 147 148 151 154 144 146 149 132 129 131 
127 124 125 132 131 131 133 133 132 131 130 128 129 127 125 128 125 124 
127 125 123 128 125 123 118 113 109 100 89 82 88 74 65 85 70 60 86 72 62 
93 81 72 92 79 70 83 68 57 88 74 65 107 97 93 118 113 111 123 121 119 
126 126 124 128 128 127 132 132 132 139 138 140 139 138 139 132 131 131 
122 119 117 110 103 98 110 103 98 123 119 118 128 126 126 127 124 122 
129 126 125 134 134 133 133 132 132 125 122 120 121 117 115 125 123 123 
120 116 115 110 100 97 106 96 92 108 102 100 104 97 93 92 81 73 95 83 75 
114 105 99 121 115 111 118 113 110 110 104 100 99 88 82 102 91 85 120 113 111 
121 116 114 107 99 94 109 101 96 126 121 119 131 128 127 126 121 121 
129 127 127 142 144 145 146 150 152 143 145 146 137 137 139 130 128 128 
126 123 123 126 124 122 126 124 122 127 125 124 125 123 122 123 119 116 
121 116 112 119 114 110 114 108 104 107 98 93 100 89 83 93 81 74 94 82 74 
100 91 84 100 90 83 93 81 73 99 89 82 119 113 112 130 128 128 132 133 132 
131 133 132 128 128 126 131 130 130 140 140 142 139 139 141 128 127 127 
121 119 117 118 114 110 121 117 114 130 128 128 134 133 135 133 133 133 
133 134 135 137 139 139 135 137 137 130 129 127 127 125 123 119 120 120 
119 119 118 117 115 114 116 112 112 114 111 112 114 111 110 115 110 107 
109 103 97 98 87 79 99 88 81 113 105 102 121 115 115 123 119 117 124 121 120 
125 122 122 117 112 111 102 92 87 105 96 90 128 124 122 135 134 133 
127 125 123 127 125 124 136 135 135 133 131 130 118 112 108 116 111 107 
128 128 125 126 125 121 108 100 93 106 97 92 119 117 116 121 119 119 
112 105 100 106 97 90 104 94 87 107 99 93 117 111 107 117 111 108 108 100 96 
109 102 98 119 117 115 123 122 121 120 119 116 122 120 118 128 126 126 
131 130 131 132 131 131 131 130 129 128 126 124 129 127 126 134 134 136 
132 132 134 122 122 122 120 120 119 125 125 125 132 133 134 141 142 145 
146 149 153 146 152 157 143 150 154 137 141 143 133 136 137 133 135 134 
133 134 134 115 115 114 117 117 117 121 121 122 121 120 121 116 114 114 
116 114 113 123 121 119 114 108 104 90 77 68 89 75 67 112 103 100 126 122 122 
133 132 133 134 134 135 129 127 127 120 115 114 107 99 93 109 102 97 
128 126 124 134 134 134 129 128 127 127 125 123 128 124 123 118 112 108 
99 88 80 101 92 84 124 124 119 126 126 122 107 99 92 105 95 90 119 116 116 
122 121 121 113 108 104 107 99 93 102 93 86 107 99 94 122 117 115 123 118 116 
110 103 98 112 106 102 128 128 128 135 138 139 133 135 134 131 132 131 
129 129 129 129 127 127 128 127 126 125 123 120 120 115 111 121 116 113 
128 127 127 128 129 130 121 122 122 123 125 125 134 137 140 138 141 144 
136 137 139 139 141 145 147 155 161 145 155 160 134 140 142 130 134 134 
132 134 134 134 135 134 111 107 105 114 111 110 121 121 121 121 120 120 
113 108 105 112 105 101 116 111 107 109 101 95 89 75 66 90 77 68 113 106 102 
125 123 122 128 128 128 130 130 130 131 128 129 128 124 123 122 117 114 
121 117 115 125 125 124 129 129 130 132 131 132 127 125 125 116 111 108 
102 93 87 87 72 62 92 79 70 118 115 110 129 128 126 124 120 117 123 118 116 
127 124 123 128 128 127 127 128 128 123 122 121 115 111 107 114 109 105 
121 118 115 116 111 107 99 88 82 103 93 87 127 125 124 136 137 138 130 129 128 
126 124 122 125 122 120 123 120 118 121 118 116 115 110 106 105 94 88 
107 97 92 121 119 116 127 128 128 124 127 126 130 134 135 143 150 154 
138 143 146 117 112 110 116 111 110 135 140 145 139 148 154 129 136 137 
126 129 128 128 128 126 129 128 126 105 99 96 107 103 101 113 112 111 
113 112 111 108 103 99 108 101 96 112 106 102 108 100 95 95 84 75 97 87 79 
115 110 106 124 123 121 126 126 126 128 128 128 131 128 128 132 128 128 
130 127 126 127 126 124 124 124 123 126 126 126 133 132 133 129 127 127 
114 111 108 103 96 91 94 82 74 100 89 82 122 119 116 133 133 133 133 133 133 
133 131 131 131 129 127 131 130 129 133 135 136 127 128 128 112 107 103 
110 103 98 120 116 113 118 113 109 103 93 88 105 97 92 126 124 122 134 133 133 
128 126 124 125 122 119 124 121 118 121 118 115 117 113 110 110 104 100 
101 90 84 105 95 89 121 119 116 130 132 131 131 135 135 135 141 142 
143 149 153 134 136 137 108 100 96 107 100 96 131 134 138 140 147 153 
134 140 141 129 132 131 126 126 124 125 123 120 96 92 89 97 93 90 98 94 93 
99 96 94 101 97 95 105 101 98 111 107 104 112 108 104 107 102 97 109 104 99 
118 114 111 124 121 119 126 126 125 128 127 127 130 126 127 130 126 127 
129 128 128 128 127 126 124 122 121 126 123 122 131 129 129 130 130 130 
124 124 124 120 120 119 120 117 115 125 122 120 136 136 136 139 141 143 
135 139 140 132 135 135 130 129 127 129 127 125 131 130 129 119 115 112 
94 83 75 94 82 74 119 113 109 127 125 123 120 118 116 120 118 116 126 124 123 
128 126 125 127 124 123 127 124 122 127 125 124 124 120 119 116 111 107 
111 105 100 109 102 98 115 110 106 127 127 126 136 139 139 140 146 148 
139 145 147 134 135 135 124 120 118 109 101 95 113 107 103 136 138 140 
148 153 157 147 152 155 141 143 145 127 128 126 121 120 118 98 94 91 97 93 90 
95 91 88 96 91 89 99 95 93 104 100 98 109 105 103 112 108 106 112 109 106 
113 110 106 115 110 106 118 114 111 122 121 121 126 125 126 128 126 127 
129 126 127 127 125 126 126 124 124 125 122 121 123 120 118 122 117 115 
124 121 120 129 130 132 132 135 138 134 136 138 136 138 139 139 139 140 
138 139 140 134 138 139 132 135 136 131 131 130 131 129 127 131 128 127 
118 113 109 94 82 74 94 83 74 120 115 112 131 130 130 129 129 129 127 127 127 
126 124 123 125 123 122 126 123 122 125 122 121 124 120 119 121 117 115 
118 112 109 117 112 109 119 116 114 124 123 123 131 134 135 137 142 144 
141 148 152 138 143 146 130 129 128 122 117 114 115 108 104 120 115 112 
137 137 138 143 144 146 137 136 137 131 129 129 125 124 123 122 122 121 
110 106 104 108 105 102 104 100 98 103 98 95 104 97 94 105 98 96 106 100 100 
108 103 103 112 106 104 111 105 100 106 97 92 107 100 96 115 112 113 
121 122 123 127 128 128 127 127 127 122 119 119 121 117 118 125 121 122 
119 114 113 105 96 91 109 101 97 130 129 131 139 143 147 136 141 144 
133 136 138 130 129 128 129 127 125 129 130 129 131 133 133 135 136 137 
135 135 136 132 131 131 123 120 118 110 103 98 110 104 99 124 123 122 
130 130 131 128 126 126 127 124 123 126 124 122 125 123 122 124 123 121 
120 117 115 113 107 104 114 108 104 122 118 116 128 126 126 130 131 133 
132 135 138 134 139 142 134 140 145 133 140 146 132 137 142 131 132 133 
128 127 126 125 122 121 127 124 123 132 132 132 124 121 120 103 92 86 
101 91 85 119 116 115 127 127 129 114 111 110 112 109 107 108 105 102 
106 101 98 106 100 96 106 99 97 106 100 100 108 103 103 113 108 106 
110 104 100 101 92 86 101 93 88 110 107 108 117 117 119 122 122 121 
123 122 121 121 117 118 121 115 117 122 117 118 115 109 108 100 90 84 
105 96 91 129 128 129 139 142 146 136 140 143 132 134 136 127 126 125 
126 124 122 129 128 127 131 132 132 134 135 137 134 134 136 130 130 129 
125 124 122 119 117 115 120 119 118 129 131 132 132 134 135 129 128 128 
128 125 124 128 126 124 124 121 119 117 113 109 110 103 99 102 93 87 106 98 93 
121 118 116 130 130 132 132 135 139 134 140 144 137 143 148 137 143 149 
134 141 147 133 137 143 132 134 136 131 131 131 130 129 128 129 128 127 
128 129 128 116 114 111 93 82 73 92 80 73 115 110 108 125 124 124 109 109 109 
109 107 106 107 104 101 106 102 98 106 102 98 107 103 99 108 105 102 
111 108 106 115 113 112 112 108 106 101 93 88 100 93 88 109 106 106 
113 112 112 112 109 107 115 112 110 124 119 121 125 119 121 116 111 110 
111 104 101 108 99 95 113 106 102 126 125 124 133 134 135 133 133 134 
132 133 133 130 132 131 131 132 131 133 134 133 133 133 133 130 130 130 
127 127 127 125 125 124 123 123 122 120 122 124 124 127 130 135 140 142 
138 142 143 132 133 134 130 129 128 130 129 127 121 117 113 103 93 86 
92 80 71 90 77 69 98 88 81 115 111 109 125 125 126 126 130 132 131 137 141 
140 147 152 144 152 157 144 150 156 140 144 149 133 134 137 129 128 129 
129 127 126 128 127 125 125 129 128 118 121 119 108 103 98 106 99 93 112 108 103 
115 112 107 108 109 109 108 108 108 108 106 104 108 105 102 108 105 102 
108 105 102 107 105 102 109 108 106 115 114 113 114 111 110 104 99 96 
103 99 95 111 109 108 114 112 112 111 108 106 116 112 110 126 122 123 
126 121 122 115 110 108 111 105 102 113 107 103 118 113 111 126 125 124 
129 129 130 127 127 127 128 128 127 129 131 131 132 134 134 135 136 136 
133 134 134 126 127 127 124 124 124 125 126 125 125 126 127 123 125 129 
125 127 130 130 132 132 133 134 134 133 135 135 132 133 133 131 130 128 
121 116 112 101 90 83 92 79 70 94 83 75 102 94 88 115 111 109 123 122 122 
124 125 126 128 132 134 135 141 144 140 146 151 142 148 153 139 143 147 
132 132 135 128 127 128 129 127 126 124 123 121 114 115 112 112 112 109 
117 115 112 117 115 111 114 111 106 112 110 104 111 111 111 111 111 111 
111 111 111 111 110 110 111 109 109 108 106 105 102 101 99 103 102 101 
113 109 109 115 112 112 112 110 109 112 111 110 116 116 116 120 119 119 
121 120 120 124 122 121 126 124 124 124 122 121 120 116 114 117 112 110 
116 112 110 119 116 116 126 127 128 126 128 130 118 120 120 118 119 119 
125 124 125 131 130 131 135 137 137 133 135 136 123 126 128 122 126 127 
129 133 135 131 133 135 126 127 129 121 119 118 113 108 104 116 112 108 
130 131 131 135 137 138 130 129 127 122 118 114 111 103 98 108 101 96 
114 110 106 119 116 113 122 118 116 124 121 118 126 123 121 125 124 123 
122 124 125 123 127 129 130 134 136 131 135 137 129 129 130 128 126 127 
129 128 128 119 115 113 97 88 81 97 89 82 119 117 116 127 128 128 120 120 119 
117 116 115 112 112 112 112 112 113 112 113 114 112 112 113 112 111 111 
108 106 106 100 99 98 101 99 98 111 107 107 116 113 113 115 115 115 
116 117 117 119 119 119 122 122 122 126 125 126 127 126 126 126 125 124 
124 122 121 122 118 116 119 115 114 117 114 113 120 118 118 127 128 130 
125 128 130 114 117 117 113 115 115 123 121 122 130 128 129 135 137 137 
132 136 136 122 126 128 122 126 129 131 136 139 133 137 139 128 128 129 
119 115 113 105 96 90 109 101 96 129 130 129 136 139 140 129 128 127 
123 118 116 116 109 106 116 111 107 124 122 120 127 126 124 125 122 119 
125 120 117 126 121 119 123 120 118 116 116 116 116 119 119 124 128 129 
128 131 132 127 127 128 128 126 127 129 128 129 116 111 109 89 75 67 90 78 70 
120 118 117 131 134 136 123 124 125 119 119 120 
