P3
64 64
255
65 26 0 40 17 0 67 26 0 72 27 0 65 30 0 80 36 0 19 7 2 44 21 0 75 32 0 74 30 0 
79 35 0 53 25 0 72 34 2 78 37 1 79 35 0 74 33 0 55 26 0 73 35 0 76 37 2 
76 39 3 78 39 2 66 32 2 79 38 1 76 37 2 61 29 0 52 26 0 66 31 2 81 39 1 
76 45 0 79 41 0 69 44 1 48 48 2 51 42 1 64 49 0 71 44 0 60 50 1 65 48 0 
68 44 1 51 46 2 64 35 3 65 48 1 71 46 0 67 49 0 87 40 0 87 40 0 78 37 0 
76 43 0 54 26 0 65 31 0 75 35 1 66 36 0 64 31 0 61 29 0 59 27 0 56 26 0 
55 26 0 53 24 0 54 25 0 56 26 0 58 27 0 61 29 0 65 30 0 70 32 0 76 35 1 
63 25 0 49 21 0 65 26 0 69 27 0 33 14 0 21 8 2 9 4 2 38 19 0 65 31 0 73 33 0 
73 32 0 72 35 1 77 37 1 79 34 0 83 37 0 82 38 0 67 31 0 76 34 1 76 33 0 
76 36 1 79 38 1 59 27 0 70 35 2 78 35 1 76 34 0 78 38 1 75 35 1 72 33 0 
84 39 0 78 37 0 77 42 0 65 48 0 66 47 0 83 40 0 85 39 0 82 41 0 56 52 0 
80 41 0 72 39 3 83 39 0 82 41 0 77 44 0 75 44 0 87 40 0 85 39 0 79 36 0 
84 39 0 32 15 0 72 37 1 85 40 0 82 38 0 77 36 1 73 34 0 71 31 0 68 32 0 
66 30 0 55 25 0 66 31 0 68 31 0 69 32 0 72 33 0 77 36 0 82 38 0 87 40 0 
61 24 0 69 28 0 67 27 0 65 30 0 74 33 0 18 7 3 9 4 2 47 22 0 78 36 1 75 34 1 
64 26 0 78 35 1 75 33 1 75 33 0 73 32 0 73 35 2 75 36 2 84 38 0 76 35 1 
77 38 1 79 38 1 80 38 1 75 36 2 81 37 0 83 39 0 81 36 0 69 39 0 81 37 0 
84 39 0 69 32 0 60 29 0 85 39 0 86 40 0 87 40 0 86 40 0 81 42 0 76 44 0 
79 39 0 75 37 2 81 39 1 78 37 1 86 40 0 86 40 0 87 40 0 86 40 0 87 40 0 
80 41 0 46 35 0 78 38 0 83 39 0 85 39 0 84 41 0 78 35 0 77 35 0 79 35 0 
79 37 0 79 37 0 79 36 0 81 37 0 83 37 0 86 39 0 85 38 0 76 35 1 87 40 0 
66 25 0 74 33 0 77 36 1 47 22 1 76 31 0 28 10 0 23 6 1 44 19 0 75 35 1 71 33 1 
70 31 0 78 36 0 77 36 2 68 32 1 35 17 0 70 34 3 76 37 2 76 35 1 47 23 0 
73 36 3 83 39 0 81 39 1 78 37 0 84 38 0 84 39 0 80 38 0 78 37 0 76 35 0 
77 36 0 77 36 0 74 35 1 85 39 0 85 39 0 81 41 0 79 43 0 82 41 0 73 44 0 
67 42 0 74 39 1 71 39 1 72 41 1 82 38 0 86 40 0 87 40 0 85 40 0 87 40 0 
87 40 0 54 26 0 53 25 0 69 32 0 84 39 0 81 39 1 80 38 1 83 37 0 83 39 0 
86 40 0 84 40 0 87 40 0 86 40 0 87 40 0 87 40 0 86 40 0 84 39 0 87 40 0 
52 21 0 75 32 0 75 33 0 66 28 0 75 32 0 35 15 0 52 21 0 64 25 0 72 31 0 
64 27 0 61 26 0 80 36 0 68 33 2 80 38 1 82 38 0 79 36 0 78 39 2 70 34 2 
58 26 0 77 36 0 86 40 0 84 39 0 73 33 1 83 37 0 83 39 0 82 40 0 69 30 0 
64 31 1 76 35 1 81 39 0 86 38 0 86 40 0 81 40 0 81 39 0 87 40 0 85 39 0 
84 40 0 53 49 0 67 46 0 45 45 0 68 34 0 59 30 0 77 35 0 85 38 0 86 39 0 
87 40 0 86 40 0 66 29 0 73 34 1 45 28 0 85 40 0 82 40 0 73 44 0 73 36 1 
82 39 0 86 40 0 86 40 0 78 36 0 84 38 0 87 40 0 87 40 0 87 40 0 87 40 0 
87 40 0 69 28 0 76 33 0 72 30 0 70 29 0 74 31 0 74 31 0 56 24 0 74 31 0 
64 29 0 70 34 2 72 34 1 59 29 0 62 30 0 86 39 0 79 37 0 76 33 0 76 32 0 
66 28 0 75 32 0 84 39 0 76 37 1 78 36 0 83 38 0 75 38 3 73 44 0 82 39 0 
79 35 0 60 30 0 63 32 0 85 38 0 83 37 0 84 38 0 85 39 0 84 39 0 87 40 0 
87 40 0 83 41 0 64 46 0 74 44 0 72 42 0 71 31 0 62 28 0 79 34 0 85 38 0 
84 40 0 74 34 1 82 38 0 66 33 1 38 21 1 66 35 2 80 37 1 80 40 1 63 38 3 
32 15 0 38 18 0 75 35 1 86 40 0 85 39 0 86 39 0 87 40 0 87 40 0 87 40 0 
87 40 0 87 40 0 75 30 0 70 27 0 70 28 0 73 30 0 75 32 0 76 33 0 72 30 0 
69 30 0 48 22 0 49 25 0 66 31 0 73 34 1 70 32 0 86 40 0 84 38 0 62 27 0 
76 34 0 72 31 0 74 32 0 85 37 0 85 38 0 72 33 0 61 29 1 51 25 0 67 43 0 
85 39 0 78 35 0 54 31 0 40 36 0 75 35 1 83 37 0 84 39 0 85 40 0 87 40 0 
84 38 0 78 36 0 87 40 0 86 40 0 82 39 0 71 42 0 71 35 1 77 36 0 86 38 0 
85 39 0 79 41 0 77 38 1 85 38 0 69 45 0 74 37 2 77 38 1 85 39 0 82 40 0 
41 48 1 26 16 0 15 6 2 46 22 1 77 38 2 85 39 0 84 38 0 75 35 1 84 38 0 87 40 0 
87 40 0 87 40 0 74 30 0 71 27 0 16 6 1 53 22 0 76 34 0 79 34 0 77 32 0 39 24 0 
46 21 0 31 13 0 70 32 0 78 34 0 70 31 0 82 38 0 83 37 0 64 29 0 67 31 0 
74 32 0 82 36 0 84 39 0 86 39 0 72 34 0 37 18 0 53 25 0 75 36 2 86 39 0 
83 37 0 73 36 1 45 41 0 75 37 0 85 39 0 85 39 0 81 38 0 86 39 0 82 38 0 
75 35 1 84 39 0 84 37 0 85 39 0 81 39 0 77 41 0 86 40 0 86 40 0 81 37 0 
79 36 0 81 35 0 82 40 0 76 40 0 80 38 0 83 39 0 82 38 0 81 39 1 74 37 2 
27 12 0 27 12 0 53 26 0 78 38 2 85 39 0 75 34 1 66 30 0 81 37 0 87 40 0 
87 40 0 87 40 0 70 27 0 71 30 0 65 27 0 71 29 0 81 37 0 87 40 0 72 33 0 
38 27 0 18 7 2 38 18 0 39 19 0 50 23 0 56 25 0 81 35 0 85 38 0 80 36 0 85 38 0 
76 34 1 85 38 0 80 36 0 75 34 0 81 37 0 82 37 0 77 35 0 80 37 0 82 37 0 
77 37 0 79 35 0 73 45 0 85 39 0 80 37 0 77 37 0 70 32 0 82 36 0 65 30 0 
63 29 0 75 35 0 76 33 0 73 35 0 71 33 0 83 39 0 85 38 0 87 40 0 81 36 0 
77 36 0 80 40 0 80 38 0 69 39 0 82 40 0 69 32 1 50 32 0 77 38 1 55 26 0 
50 25 0 48 24 1 64 33 1 85 39 0 86 39 0 79 36 0 82 38 0 86 40 0 87 40 0 
87 40 0 87 40 0 74 28 0 74 31 0 76 33 0 67 28 0 80 35 0 86 40 0 82 38 0 
68 32 1 31 13 0 51 24 0 47 21 0 62 27 0 73 34 0 82 38 0 84 38 0 65 29 0 
80 36 0 73 34 1 73 32 0 85 38 0 83 37 0 85 38 0 85 37 0 83 37 0 82 36 0 
84 38 0 84 37 0 77 33 0 80 36 0 75 35 1 61 29 0 71 31 0 77 33 0 82 35 0 
75 34 0 75 35 0 60 32 0 66 31 0 78 35 0 60 28 0 72 32 0 85 38 0 79 36 0 
67 30 0 56 28 0 82 39 0 82 36 0 84 37 0 82 38 0 62 30 0 61 29 0 76 39 0 
26 11 0 27 10 0 82 38 0 81 38 0 84 39 0 87 40 0 74 34 0 84 38 0 87 40 0 
87 40 0 87 40 0 87 40 0 74 30 0 74 31 0 79 34 0 67 29 0 76 31 0 84 38 0 
84 37 0 80 35 0 84 37 0 82 38 0 77 33 0 79 36 0 83 37 0 86 38 0 81 37 0 
70 29 0 68 30 0 67 29 0 53 24 0 72 32 0 83 36 0 78 35 0 78 35 0 84 38 0 
76 33 0 83 37 0 82 36 0 78 34 0 84 37 0 78 35 0 61 27 0 49 22 0 47 22 0 
78 35 0 82 38 0 81 37 0 68 40 0 80 38 0 76 33 0 79 36 0 72 33 0 77 34 0 
61 27 0 58 26 0 64 34 0 68 38 0 68 28 0 75 33 0 82 40 0 84 39 0 84 40 0 
80 38 0 54 26 0 69 33 0 80 36 0 80 38 0 86 40 0 82 38 1 83 36 0 86 38 0 
87 40 0 87 40 0 87 40 0 87 40 0 75 30 0 71 28 0 72 30 0 85 38 0 83 37 0 
86 38 0 83 37 0 80 35 0 85 39 0 76 32 0 74 31 0 71 32 0 65 29 0 77 35 0 
80 36 0 73 31 0 58 26 0 55 26 0 55 26 0 61 27 0 75 32 0 61 28 0 77 35 0 
84 37 0 82 36 0 83 37 0 81 34 0 79 35 0 83 40 0 73 34 0 63 28 0 51 22 0 
55 24 0 79 34 0 84 37 0 84 37 0 80 42 0 82 38 0 77 34 0 79 37 0 66 30 0 
70 31 0 63 28 0 74 33 0 80 35 0 57 26 0 48 22 0 58 26 0 79 37 0 79 39 0 
82 38 0 82 37 0 84 39 0 84 40 0 84 41 0 85 39 0 86 40 0 87 40 0 86 38 0 
87 40 0 87 40 0 85 38 0 81 37 0 87 40 0 74 29 0 64 26 0 59 26 0 62 27 0 
70 31 0 84 39 0 80 36 0 75 34 0 74 33 0 67 29 0 71 31 0 67 31 0 74 33 0 
76 35 1 84 38 0 82 36 0 83 37 0 76 35 1 60 27 0 74 33 0 83 36 0 71 32 0 
79 36 0 79 34 0 79 35 0 80 36 0 82 36 0 82 36 0 73 34 0 61 27 0 72 30 0 
74 30 0 76 32 0 81 37 0 85 38 0 81 37 0 82 38 0 85 38 0 79 36 0 65 30 0 
51 24 0 47 22 0 76 34 0 81 37 0 84 37 0 71 31 0 59 28 0 76 36 1 85 41 0 
84 38 0 84 41 0 81 41 0 85 40 0 87 40 0 83 39 0 83 40 0 85 40 0 87 40 0 
87 40 0 87 40 0 87 40 0 86 39 0 84 38 0 87 40 0 77 32 0 75 31 0 66 30 0 
65 29 0 82 38 0 79 36 0 81 37 0 78 35 0 73 34 1 61 29 0 80 38 1 86 39 0 
81 37 0 83 38 0 85 38 0 82 37 0 80 36 0 64 29 0 59 26 0 62 27 0 66 29 0 
75 35 1 72 32 0 59 26 0 57 27 0 76 35 1 87 40 0 83 39 0 84 39 0 78 35 0 
83 36 0 81 34 0 79 34 0 81 35 0 87 40 0 83 39 0 72 33 0 83 38 0 86 39 0 
76 35 0 58 26 0 50 25 0 64 34 0 76 34 1 86 40 0 81 39 0 82 39 0 82 38 0 
75 34 0 79 38 0 65 47 0 80 40 0 82 38 0 79 36 0 77 36 1 82 38 0 86 40 0 
87 40 0 87 40 0 85 38 0 84 38 0 87 40 0 87 40 0 87 40 0 75 29 0 73 29 0 
67 26 0 76 32 0 80 34 0 71 31 0 78 36 0 83 37 0 82 38 0 36 17 0 77 33 0 
86 40 0 84 39 0 78 36 0 67 32 0 84 39 0 76 34 1 57 25 0 59 27 0 69 30 0 
64 29 0 65 29 0 76 34 1 60 27 0 75 34 1 84 38 0 80 36 0 75 34 1 72 33 0 
54 25 0 60 28 0 83 40 0 82 38 0 79 36 0 71 31 0 68 33 0 85 38 0 87 40 0 
86 38 0 83 37 0 83 37 0 60 28 0 66 31 0 71 34 0 81 38 0 77 43 0 78 37 0 
63 29 0 78 36 0 81 37 0 82 38 0 42 20 0 63 28 0 71 32 0 63 30 0 68 31 0 
85 39 0 79 36 0 84 39 0 82 38 0 85 39 0 87 40 0 87 40 0 87 40 0 74 28 0 
77 33 0 74 32 0 78 34 0 76 34 0 44 20 0 53 23 0 80 37 0 60 34 0 79 36 0 
83 37 0 85 39 0 85 39 0 78 37 0 44 44 0 72 43 0 76 34 1 57 27 0 60 28 0 
73 32 0 82 36 0 81 37 0 65 30 0 50 23 0 74 33 0 87 40 0 84 39 0 82 37 0 
60 28 0 57 26 0 74 34 1 78 35 0 84 37 0 66 34 0 55 26 0 52 25 0 80 38 0 
82 38 0 72 33 0 65 29 0 73 31 0 54 26 0 62 28 0 65 30 0 83 38 0 78 40 0 
69 32 0 63 28 0 81 36 0 81 37 0 69 32 0 62 28 0 44 21 0 80 38 0 63 30 0 
54 25 0 78 36 0 75 35 1 70 32 0 66 30 0 85 38 0 82 37 0 79 36 0 87 40 0 
72 32 0 76 31 0 75 32 0 81 36 0 86 39 0 79 34 0 68 30 0 79 35 0 69 33 0 
83 37 0 86 38 0 86 38 0 85 39 0 83 40 0 55 52 0 65 32 0 70 32 0 82 38 0 
69 32 0 56 25 0 60 27 0 80 36 0 81 37 0 67 30 0 81 35 0 87 40 0 84 39 0 
76 33 0 78 33 0 83 37 0 82 38 0 65 29 0 63 27 0 71 31 0 68 31 0 63 30 0 
78 35 0 79 35 0 68 31 0 67 29 0 65 28 0 59 26 0 59 27 0 75 35 1 87 40 0 
78 37 2 64 31 0 66 30 0 84 38 0 80 37 0 81 39 0 83 38 1 79 38 1 79 38 1 
72 37 1 61 29 0 77 36 0 74 33 1 65 29 0 78 35 0 87 40 0 87 40 0 86 40 0 
87 40 0 79 36 0 74 32 0 63 29 0 80 38 0 81 37 0 84 39 0 80 37 0 70 34 2 
74 32 0 82 38 0 80 34 0 80 36 0 64 31 0 73 34 0 71 34 0 62 28 0 59 28 0 
80 38 0 64 29 0 56 25 0 59 26 0 79 36 0 73 34 1 74 33 0 84 38 0 86 39 0 
85 38 0 75 34 0 80 34 0 81 35 0 81 35 0 73 33 0 70 32 0 82 38 0 79 39 0 
67 32 0 78 37 0 83 38 0 82 38 0 72 33 0 68 31 0 51 22 0 52 23 0 77 36 0 
85 39 0 83 38 0 75 34 0 82 38 0 87 40 0 86 40 0 86 40 0 85 39 0 76 38 2 
81 39 0 85 40 0 84 38 0 81 37 0 56 26 0 62 29 0 82 37 0 87 40 0 87 40 0 
87 40 0 87 40 0 85 39 0 67 30 0 71 31 0 54 25 0 43 20 0 76 41 0 74 37 0 
73 45 0 79 44 0 77 36 0 70 30 0 78 35 0 81 37 0 69 32 0 58 27 0 65 31 0 
59 27 0 71 32 0 62 28 0 61 28 0 69 32 0 84 39 0 64 31 0 59 28 0 67 31 0 
86 38 0 83 37 0 82 36 0 81 35 0 80 33 0 77 33 0 80 35 0 85 39 0 67 31 0 
63 27 0 60 32 0 70 35 0 85 39 0 83 36 0 79 34 0 62 27 0 51 24 0 54 25 0 
83 38 0 86 39 0 86 39 0 81 37 0 86 40 0 85 38 0 79 34 0 76 34 0 85 39 0 
77 38 1 85 38 0 79 37 0 83 37 0 87 40 0 76 35 1 63 29 0 79 37 0 85 39 0 
83 39 0 87 40 0 87 40 0 82 36 0 60 28 0 81 37 0 46 20 0 62 28 0 84 38 0 
81 37 0 80 41 0 81 42 0 81 42 0 83 37 0 68 32 0 61 26 0 71 33 0 75 35 0 
76 35 0 76 34 0 81 37 0 65 30 0 63 29 0 79 34 0 87 40 0 80 41 0 67 29 0 
62 28 0 68 31 0 77 33 0 82 36 0 82 36 0 81 35 0 81 35 0 86 38 0 80 35 0 
57 27 0 56 26 0 55 26 0 65 32 0 75 38 0 84 38 0 80 38 0 60 28 0 46 21 0 
52 24 0 83 38 0 85 38 0 67 31 0 72 33 0 82 39 0 79 37 0 77 34 0 77 33 0 
83 38 0 84 39 0 76 37 2 62 30 0 65 30 0 85 40 0 86 40 0 85 39 0 87 40 0 
83 38 0 81 37 0 87 40 0 87 40 0 72 32 0 34 16 0 48 22 0 52 23 0 82 36 0 
80 35 0 82 39 0 81 42 0 72 34 0 72 33 0 77 36 0 57 27 0 54 25 0 65 30 0 
81 37 0 69 30 0 66 30 0 73 34 0 61 29 0 60 29 0 63 29 0 79 36 0 85 38 0 
80 34 0 63 28 0 54 23 0 75 33 0 84 38 0 75 32 0 79 32 0 81 34 0 77 32 0 
58 25 0 49 22 0 60 28 0 56 30 0 61 28 0 70 38 0 82 38 0 83 37 0 68 32 0 
56 26 0 57 27 0 85 38 0 83 37 0 68 29 0 68 31 0 61 29 0 65 30 0 58 26 0 
65 28 0 81 37 0 84 38 0 85 38 0 73 34 1 84 39 0 86 40 0 87 40 0 85 39 0 
82 40 0 81 39 1 85 39 0 85 38 0 87 40 0 76 33 0 63 27 0 66 29 0 41 18 0 
55 24 0 61 27 0 53 30 0 71 42 0 67 31 0 68 32 0 66 32 0 49 30 0 47 31 0 
67 29 0 78 34 0 81 37 0 83 38 0 74 33 0 62 29 0 61 26 0 72 33 0 80 36 0 
85 38 0 83 37 0 79 36 0 61 27 0 62 28 0 74 33 0 53 23 0 61 27 0 82 36 0 
79 33 0 75 32 0 72 33 0 62 28 0 69 32 0 81 37 0 76 35 0 74 35 0 62 28 0 
71 32 0 61 29 0 72 32 0 87 40 0 85 38 0 80 35 0 76 33 0 64 29 0 72 33 0 
81 35 0 78 33 0 81 37 0 83 39 0 84 39 0 67 32 0 85 39 0 85 40 0 87 40 0 
68 33 3 64 32 3 78 39 2 85 39 0 87 40 0 87 40 0 67 35 0 55 27 0 57 27 0 
49 20 0 54 23 0 76 34 0 70 32 0 58 44 0 84 40 0 84 39 0 80 38 0 58 28 0 
68 29 0 79 34 0 81 36 0 84 38 0 74 35 1 78 35 0 50 27 0 69 38 0 79 36 0 
86 40 0 85 38 0 81 35 0 74 33 0 67 29 0 72 33 0 61 27 0 46 20 0 64 27 0 
83 37 0 80 33 0 80 35 0 81 39 0 77 38 0 76 38 0 81 35 0 81 35 0 77 33 0 
66 30 0 61 29 0 59 27 0 65 30 0 78 35 0 69 32 0 75 34 1 54 25 0 66 30 0 
70 32 0 84 38 0 87 40 0 84 38 0 78 35 0 82 38 0 83 40 0 80 35 0 77 31 0 
79 34 0 77 36 1 74 35 3 83 39 1 86 40 0 87 40 0 87 40 0 71 35 0 59 25 0 
63 28 0 47 31 0 65 30 0 59 26 0 58 27 0 61 44 0 84 40 0 85 38 0 67 31 0 
59 26 0 63 28 0 82 36 0 80 36 0 83 36 0 82 36 0 85 38 0 73 36 0 84 39 0 
76 34 1 77 36 0 77 37 0 76 33 0 77 34 0 63 28 0 75 31 0 73 34 0 53 24 0 
67 30 0 82 38 0 83 37 0 81 35 0 78 37 0 77 36 0 81 35 0 81 37 0 83 37 0 
81 35 0 67 29 0 47 22 0 48 22 0 62 28 0 73 36 0 61 33 0 77 35 0 78 37 0 
69 32 0 73 34 1 82 38 0 83 37 0 83 37 0 82 36 0 82 36 0 83 37 0 78 33 0 
75 30 0 75 30 0 84 38 0 76 34 1 48 22 0 85 39 0 86 40 0 87 40 0 73 34 0 
74 31 0 65 28 0 62 28 0 34 16 0 31 14 0 86 39 0 80 39 0 41 58 0 81 41 0 
71 33 0 60 28 0 63 29 0 85 39 0 75 34 0 81 37 0 85 39 0 83 40 0 85 39 0 
84 39 0 85 39 0 85 39 0 76 35 1 66 28 0 75 34 0 64 29 0 76 32 0 79 34 0 
67 30 0 64 29 0 83 37 0 87 40 0 85 39 0 84 37 0 79 34 0 79 34 0 78 35 0 
75 34 1 82 38 0 68 28 0 55 23 0 48 22 0 68 38 0 81 37 0 73 36 0 82 36 0 
85 39 0 73 41 1 50 24 0 41 19 0 75 34 0 82 36 0 80 35 0 82 36 0 83 37 0 
76 33 0 75 30 0 82 36 0 86 40 0 83 37 0 72 32 0 81 37 0 84 39 0 87 40 0 
64 25 0 70 27 0 60 26 0 75 34 0 68 31 0 52 24 0 85 39 0 87 40 0 81 42 0 
69 47 0 85 41 0 82 38 0 83 37 0 86 38 0 86 38 0 87 40 0 85 39 0 53 29 0 
63 34 0 66 34 0 82 40 0 83 37 0 82 36 0 81 37 0 80 35 0 70 32 0 71 29 0 
78 32 0 80 34 0 75 32 0 80 35 0 85 38 0 83 37 0 79 35 0 75 32 0 66 28 0 
78 35 0 58 37 0 70 34 0 72 30 0 76 31 0 74 35 0 61 36 0 69 31 0 78 35 0 
61 27 0 73 33 0 78 38 0 75 35 1 73 34 1 83 37 0 73 33 0 61 28 0 81 37 0 
72 40 0 74 33 0 75 30 0 78 32 0 83 37 0 75 32 0 60 27 0 68 31 0 87 40 0 
87 40 0 65 28 0 77 33 0 84 38 0 79 43 0 65 49 0 63 45 0 78 37 0 77 39 0 
81 39 0 72 33 0 83 37 0 85 38 0 81 37 0 72 32 0 70 36 0 86 39 0 84 38 0 
72 34 0 49 42 0 57 51 0 82 39 0 83 40 0 85 39 0 74 37 0 80 36 0 70 32 0 
75 36 0 78 33 0 80 35 0 81 34 0 81 35 0 84 39 0 84 39 0 81 35 0 77 32 0 
77 32 0 62 28 0 46 24 0 50 25 0 63 28 0 82 38 0 82 41 0 79 34 0 74 33 0 
76 32 0 71 31 0 76 31 0 76 34 0 63 29 0 63 29 0 62 35 1 73 33 1 62 29 0 
80 37 0 79 35 0 74 29 0 75 30 0 79 34 0 81 35 0 74 30 0 62 29 0 74 35 1 
87 40 0 87 40 0 63 26 0 83 37 0 85 39 0 85 41 0 75 44 0 71 36 0 30 55 0 
78 37 0 81 37 0 80 37 0 84 37 0 82 36 0 79 35 0 64 29 0 68 32 0 85 40 0 
82 36 0 63 30 0 63 35 0 73 39 0 83 37 0 82 36 0 81 37 0 69 34 0 80 35 0 
84 37 0 80 38 0 82 36 0 80 34 0 78 33 0 82 36 0 85 37 0 78 34 0 68 28 0 
63 28 0 72 32 0 53 24 0 43 21 0 40 19 0 54 25 0 76 37 0 83 36 0 79 32 0 
75 30 0 74 30 0 80 34 0 79 34 0 83 36 0 76 36 2 72 34 2 75 35 1 83 38 0 
84 39 0 62 30 0 71 32 0 77 32 0 73 30 0 72 33 0 85 38 0 77 35 0 62 29 0 
83 37 0 87 40 0 87 40 0 74 37 0 79 37 0 83 37 0 73 32 0 85 37 0 84 39 0 
75 32 0 82 40 0 70 32 0 71 33 0 83 37 0 82 36 0 77 33 0 81 37 0 81 37 0 
79 34 0 80 34 0 83 36 0 70 32 0 75 35 0 82 37 0 84 37 0 81 35 0 78 38 0 
81 40 0 77 36 0 83 37 0 80 33 0 78 33 0 78 33 0 79 32 0 77 33 0 75 30 0 
66 27 0 59 25 0 68 30 0 53 24 0 55 26 0 51 27 0 49 32 0 75 35 1 82 36 0 
80 36 0 72 37 0 77 33 0 78 35 0 69 30 0 83 37 0 84 39 0 86 39 0 87 40 0 
85 38 0 75 34 2 62 29 0 77 37 1 83 39 0 84 37 0 83 36 0 75 32 0 81 37 0 
83 37 0 85 39 0 87 40 0 87 40 0 85 38 0 85 38 0 86 40 0 83 37 0 86 40 0 
85 39 0 80 35 0 85 39 0 85 40 0 79 35 0 85 39 0 84 37 0 81 36 0 74 38 0 
74 38 0 69 31 0 75 29 0 77 33 0 80 36 0 79 34 0 78 33 0 82 37 0 84 37 0 
82 37 0 64 27 0 66 31 0 75 34 0 83 37 0 81 35 0 76 37 0 82 36 0 80 34 0 
76 30 0 75 30 0 79 34 0 80 36 0 60 28 0 61 28 0 46 23 0 46 21 0 81 35 0 
82 35 0 80 38 1 62 31 0 73 32 0 75 33 0 78 36 0 84 38 0 82 36 0 87 40 0 
86 38 0 76 32 0 58 25 0 60 27 0 71 34 0 85 39 0 87 40 0 85 39 0 80 36 0 
86 39 0 74 34 1 69 32 0 85 38 0 87 40 0 77 36 0 86 39 0 78 34 0 77 32 0 
79 35 0 82 36 0 82 38 0 83 38 0 75 34 1 57 28 0 86 39 0 87 40 0 87 40 0 
75 43 0 55 40 0 46 25 0 70 29 0 77 31 0 81 37 0 84 37 0 81 36 0 81 35 0 
83 37 0 85 39 0 64 29 0 58 26 0 75 34 0 85 38 0 71 31 0 59 30 0 84 38 0 
81 36 0 76 31 0 75 30 0 79 33 0 68 29 0 55 26 0 61 29 0 59 28 0 62 30 0 
84 38 0 81 36 0 79 36 0 74 33 0 74 33 0 75 33 0 79 36 1 83 37 0 81 37 0 
84 39 0 81 39 1 77 33 0 73 29 0 64 29 0 72 33 1 85 39 0 85 38 0 87 40 0 
81 37 0 80 37 0 64 30 0 66 31 0 84 38 0 86 40 0 58 26 0 70 32 0 72 31 0 
74 31 0 77 38 0 86 39 0 87 40 0 87 40 0 86 38 0 60 29 0 84 39 0 83 37 0 
79 34 0 86 38 0 76 34 0 54 37 0 76 36 0 80 36 0 81 37 0 83 37 0 84 38 0 
85 37 0 83 38 0 77 34 0 53 24 0 45 22 0 54 25 0 82 36 0 82 37 0 78 36 0 
81 37 0 76 31 0 75 30 0 75 30 0 79 32 0 67 27 0 59 26 0 68 31 0 84 39 0 
83 37 0 83 36 0 80 36 0 78 35 0 77 34 0 82 38 0 73 34 0 78 35 0 70 34 2 
81 37 0 75 36 2 77 38 2 83 39 0 76 34 0 81 36 0 83 37 0 85 38 0 85 38 0 
87 40 0 85 39 0 69 47 0 79 36 0 81 37 0 87 40 0 79 36 0 61 24 0 69 30 0 
78 35 0 85 38 0 78 33 0 86 40 0 86 39 0 86 40 0 86 40 0 84 38 0 84 37 0 
82 38 0 85 39 0 86 39 0 86 40 0 78 36 0 82 38 0 75 34 1 75 35 0 72 30 0 
77 32 0 83 36 0 85 38 0 80 37 0 65 30 0 49 28 0 56 28 0 79 35 0 72 32 0 
80 35 0 79 37 0 72 32 0 75 30 0 77 32 0 86 38 0 83 37 0 86 38 0 83 39 0 
85 38 0 82 36 0 82 36 0 79 34 0 67 29 0 72 33 0 79 36 0 76 34 1 85 37 0 
78 35 0 82 38 0 73 34 1 84 38 0 86 39 0 86 39 0 77 32 0 78 33 0 85 40 0 
85 39 0 74 34 1 75 30 0 83 36 0 87 40 0 84 38 0 85 38 0 84 39 0 73 31 0 
84 38 0 71 33 1 67 29 0 74 31 0 84 39 0 81 35 0 82 37 0 74 36 1 87 40 0 
80 41 0 77 43 0 86 40 0 83 37 0 81 37 0 86 40 0 72 43 0 82 37 0 74 33 0 
78 37 0 78 32 0 83 36 0 85 38 0 84 39 0 83 37 0 80 34 0 83 38 0 87 40 0 
84 37 0 81 34 0 80 34 0 77 34 0 78 33 0 84 37 0 80 36 0 82 36 0 84 38 0 
73 34 0 79 37 0 85 38 0 82 36 0 79 32 0 75 32 0 60 25 0 78 33 0 85 39 0 
83 37 0 56 25 0 71 33 0 77 35 0 81 35 0 82 38 0 70 33 1 70 32 0 73 33 0 
75 42 0 75 45 0 78 36 0 82 36 0 84 37 0 87 40 0 87 40 0 87 40 0 82 38 0 
70 30 0 77 36 1 78 36 2 76 33 0 68 31 0 79 36 0 58 26 0 60 27 0 59 27 0 
61 29 0 71 40 0 82 41 0 86 39 0 85 38 0 83 39 0 83 41 0 82 41 0 85 38 0 
81 36 0 82 38 0 87 40 0 83 37 0 82 36 0 80 35 0 84 37 0 78 34 0 77 34 0 
85 37 0 82 35 0 81 36 0 79 31 0 76 33 0 79 34 0 73 33 0 80 34 0 83 36 0 
86 39 0 81 38 0 76 31 0 77 32 0 81 37 0 81 35 0 74 33 0 66 30 0 84 38 0 
81 37 0 73 32 0 53 25 0 71 34 0 84 37 0 84 39 0 80 37 1 50 25 0 58 26 0 
67 30 0 78 38 0 75 38 0 85 38 0 83 37 0 87 40 0 87 40 0 84 41 0 87 40 0 
86 39 0 73 29 0 73 29 0 77 35 0 85 39 0 86 39 0 76 34 1 52 24 0 51 23 0 
53 27 0 67 34 0 62 44 0 86 40 0 80 38 0 80 36 0 83 39 0 80 36 0 67 32 0 
83 37 0 83 39 0 82 36 0 80 35 0 77 34 0 74 33 0 76 33 0 76 34 0 67 43 0 
75 32 0 80 35 0 74 30 0 76 31 0 79 34 0 80 33 0 79 35 0 78 34 0 83 37 0 
85 38 0 84 38 0 82 36 0 79 33 0 82 36 0 85 39 0 83 37 0 82 37 0 66 30 0 
80 36 0 81 35 0 82 37 0 81 37 0 85 40 0 87 40 0 81 38 0 79 37 1 66 31 0 
81 37 0 86 39 0 83 40 0 68 49 0 85 40 0 82 36 0 76 35 1 86 40 0 87 40 0 
87 40 0 87 40 0 73 29 0 74 28 0 74 29 0 79 35 0 84 38 0 80 37 0 69 34 1 
52 25 0 71 33 0 65 38 0 73 35 0 76 36 1 66 30 0 48 31 0 79 37 0 83 39 0 
82 35 0 80 36 0 85 39 0 82 35 0 79 34 0 70 29 0 78 32 0 82 36 0 82 36 0 
80 37 0 65 29 0 74 33 0 58 24 0 71 31 0 83 37 0 84 38 0 78 40 0 79 37 0 
83 37 0 76 35 1 80 36 0 80 34 0 79 34 0 82 36 0 84 37 0 83 37 0 83 36 0 
77 34 0 79 34 0 78 32 0 82 36 0 71 31 0 83 37 0 87 40 0 81 37 0 84 40 0 
81 35 0 86 39 0 85 38 0 84 38 0 83 38 0 85 39 0 87 40 0 85 39 0 87 40 0 
87 40 0 87 40 0 87 40 0 73 29 0 75 32 0 76 31 0 81 37 0 85 39 0 81 37 0 
75 37 1 72 32 0 63 30 1 57 43 1 76 34 0 64 29 0 60 27 0 55 27 0 79 35 0 
87 40 0 84 37 0 83 36 0 86 38 0 87 40 0 85 38 0 78 33 0 77 32 0 80 36 0 
85 39 0 84 39 0 83 37 0 66 29 0 49 22 0 51 22 0 71 28 0 82 37 0 83 38 0 
80 37 0 83 37 0 76 34 0 81 37 0 71 31 0 74 33 0 76 33 0 79 34 0 74 34 1 
81 37 0 77 34 0 82 37 0 80 34 0 82 36 0 86 38 0 86 38 0 84 38 0 85 38 0 
80 36 0 86 39 0 85 38 0 87 40 0 83 36 0 74 33 0 76 35 0 87 40 0 87 40 0 
81 37 0 67 35 0 84 40 0 87 40 0 75 31 0 75 32 0 74 31 0 74 31 0 78 34 0 
75 35 1 61 29 0 72 32 0 66 31 0 58 39 0 75 34 0 80 35 0 63 29 0 58 27 0 
79 36 0 68 31 0 76 34 0 82 36 0 85 37 0 82 36 0 77 33 0 77 32 0 78 33 0 
83 35 0 85 38 0 85 39 0 83 37 0 75 32 0 53 23 0 51 22 0 75 32 0 81 35 0 
84 38 0 86 39 0 83 36 0 73 31 0 82 36 0 77 34 0 58 26 0 50 23 0 80 36 0 
80 35 0 83 39 0 82 38 0 82 36 0 82 36 0 86 38 0 86 38 0 81 37 0 82 37 0 
87 40 0 86 38 0 85 37 0 87 40 0 87 40 0 82 37 0 73 34 0 82 36 0 87 40 0 
87 40 0 75 36 1 71 33 0 84 40 0 85 41 0 75 31 0 74 29 0 74 28 0 73 28 0 
67 26 0 72 31 0 77 36 1 43 20 0 52 24 0 75 32 0 72 37 0 78 35 0 79 38 0 
65 39 0 64 29 0 48 21 0 66 30 0 80 35 0 82 36 0 80 33 0 74 35 0 76 37 0 
81 35 0 80 37 0 80 35 0 80 36 0 84 38 0 77 36 0 74 33 0 59 27 0 71 31 0 
76 35 0 81 37 0 86 40 0 82 41 0 81 37 0 82 35 0 82 36 0 67 29 0 71 33 0 
74 33 0 70 30 0 84 37 0 80 36 0 72 33 0 78 35 0 81 37 0 85 38 0 79 36 0 
76 34 0 84 37 0 87 40 0 87 40 0 87 40 0 87 40 0 77 36 0 66 31 0 83 37 0 
87 40 0 87 40 0 86 40 0 85 40 0 87 40 0 85 39 0 75 29 0 68 28 0 73 31 0 
68 31 0 56 23 0 71 31 0 82 36 0 78 35 0 63 27 0 84 38 0 79 35 0 76 37 0 
81 39 0 66 42 0 76 33 0 65 28 0 76 33 0 66 29 0 71 31 0 60 27 0 70 32 0 
82 40 0 85 39 0 78 37 0 81 38 0 82 36 0 69 30 0 76 34 0 78 35 0 77 34 0 
78 34 0 80 36 0 83 36 0 82 36 0 81 35 0 83 37 0 83 37 0 79 35 0 75 32 0 
65 28 0 73 34 0 69 30 0 83 36 0 79 36 0 79 35 0 71 31 0 65 30 0 85 38 0 
82 36 0 81 36 0 81 35 0 86 38 0 82 36 0 86 38 0 87 40 0 87 40 0 87 40 0 
85 38 0 87 40 0 87 40 0 84 41 0 87 40 0 87 40 0 86 40 0 75 30 0 71 29 0 
59 28 0 60 30 0 65 30 0 75 30 0 79 34 0 76 35 0 77 35 0 85 39 0 77 34 0 
77 34 0 81 39 0 76 41 0 81 36 0 80 34 0 80 34 0 77 33 0 68 30 0 57 25 0 
59 27 0 81 37 0 80 37 1 75 37 0 84 38 0 82 36 0 72 32 0 78 34 0 73 31 0 
81 36 0 80 35 0 79 33 0 77 33 0 79 35 0 82 36 0 80 35 0 83 38 0 80 36 0 
68 31 0 75 34 0 72 33 0 86 38 0 83 37 0 85 38 0 83 39 0 74 36 1 77 37 0 
75 35 0 80 36 0 86 38 0 84 39 0 85 39 0 84 38 0 86 38 0 87 40 0 86 39 0 
85 39 0 86 39 0 86 38 0 85 38 0 83 39 0 87 40 0 87 40 0 87 40 0 75 29 0 
69 29 0 52 23 0 55 26 0 58 26 0 74 30 0 69 29 0 67 27 0 73 30 0 77 32 0 
77 36 0 77 37 0 85 39 0 83 37 0 79 34 0 76 31 0 75 31 0 77 32 0 70 30 0 
58 26 0 68 31 0 79 34 0 77 33 0 76 36 0 85 38 0 82 36 0 77 33 0 75 32 0 
80 35 0 85 37 0 79 37 0 77 37 0 59 27 0 73 31 0 73 31 0 68 31 0 83 37 0 
83 37 0 81 36 0 73 33 0 62 28 0 78 36 0 83 37 0 85 38 0 86 40 0 83 37 0 
80 38 0 58 26 0 68 31 0 84 41 0 85 41 0 85 39 0 77 36 0 82 37 0 78 36 0 
87 40 0 84 38 0 84 39 0 86 40 0 86 38 0 85 38 0 87 40 0 86 40 0 87 40 0 
74 28 0 74 31 0 62 26 0 49 24 0 52 24 0 71 31 0 67 30 0 60 28 0 52 23 0 
63 28 0 78 37 2 82 38 0 82 39 0 83 37 0 78 34 0 76 33 0 75 32 0 75 34 0 
66 30 0 60 27 0 64 29 0 76 34 0 72 33 0 81 41 0 85 39 0 75 36 0 58 28 0 
63 28 0 71 31 0 86 39 0 87 40 0 85 38 0 81 35 0 78 32 0 73 31 0 59 27 0 
76 34 0 85 38 0 83 36 0 82 36 0 77 38 1 78 34 0 77 34 0 82 36 0 86 39 0 
85 40 0 85 40 0 71 33 0 79 36 0 75 36 0 75 43 0 83 39 0 82 38 0 84 37 0 
84 38 0 87 40 0 84 37 0 84 38 0 87 40 0 87 40 0 87 40 0 87 40 0 87 40 0 
87 40 0 66 27 0 71 28 0 66 25 0 52 23 0 54 24 0 65 29 0 72 35 3 47 22 1 
70 32 0 75 35 1 78 38 2 78 37 2 73 38 0 72 41 0 77 33 0 74 32 0 75 32 0 
71 31 0 58 26 0 53 24 0 44 20 0 64 29 0 62 28 0 85 39 0 77 36 0 66 30 0 
71 33 0 72 35 0 77 33 0 82 38 0 79 36 0 71 31 0 82 36 0 80 33 0 77 33 0 
71 31 0 80 36 0 86 39 0 86 40 0 85 38 0 86 40 0 74 33 0 74 33 0 77 34 0 
84 38 0 78 36 0 83 38 0 79 38 0 77 36 0 69 31 0 82 37 0 87 40 0 85 40 0 
82 37 0 86 40 0 75 35 1 78 35 0 84 38 0 86 40 0 87 40 0 85 39 0 83 37 0 
85 39 0 87 40 0 74 30 0 75 30 0 74 28 0 69 26 0 58 24 0 56 23 0 56 24 0 
59 28 0 70 32 0 75 33 0 79 38 1 73 36 2 66 30 0 76 34 0 72 30 0 58 26 0 
72 32 0 71 31 0 64 27 0 59 27 0 66 29 0 79 35 0 81 35 0 87 40 0 75 35 1 
64 29 0 82 36 0 80 40 0 82 36 0 78 34 0 75 35 0 68 31 0 82 36 0 84 37 0 
86 38 0 80 34 0 84 37 0 81 37 0 77 37 1 86 38 0 80 35 0 82 37 0 82 38 0 
63 30 0 64 31 0 70 32 0 85 39 0 85 41 0 83 36 0 81 35 0 84 38 0 86 40 0 
80 43 0 82 43 0 85 39 0 73 34 0 63 29 0 70 36 1 86 40 0 87 40 0 81 37 0 
82 36 0 84 38 0 86 39 0 59 25 0 70 29 0 74 28 0 71 28 0 65 26 0 55 23 0 
65 28 0 66 29 0 78 35 0 78 35 0 79 39 2 78 37 2 79 36 0 82 36 0 75 32 0 
70 32 0 72 32 0 67 29 0 76 34 0 78 35 0 78 35 0 69 31 0 81 35 0 78 40 0 
81 37 0 69 31 0 62 27 0 72 32 0 80 36 0 77 33 0 82 38 0 80 38 0 68 31 0 
80 37 0 84 38 0 84 38 0 86 39 0 80 35 0 61 35 0 82 42 0 65 30 0 72 33 0 
70 32 0 58 26 0 56 26 0 64 29 0 84 38 0 74 39 0 81 40 0 85 38 0 83 39 0 
78 38 0 84 38 0 86 40 0 87 40 0 85 39 0 71 38 0 82 38 0 83 42 0 79 43 0 
72 35 1 82 41 0 76 35 1 73 34 1 66 25 0 66 25 0 72 30 0 74 28 0 64 26 0 
58 24 0 76 31 0 75 32 0 76 31 0 78 35 0 85 38 0 79 36 1 79 35 1 79 37 1 
78 35 0 74 33 1 65 31 0 54 25 0 47 22 0 76 35 1 76 33 0 76 34 0 81 37 0 
83 36 0 68 32 0 52 24 0 56 26 0 67 32 0 81 39 0 81 36 0 83 37 0 83 37 0 
63 28 0 73 34 0 86 39 0 86 38 0 84 38 0 85 38 0 85 39 0 84 40 0 70 33 0 
77 36 0 65 30 0 57 27 0 61 27 0 79 36 0 82 39 0 80 41 0 84 37 0 85 38 0 
72 32 0 61 30 0 81 37 0 87 40 0 87 40 0 86 40 0 68 48 0 81 43 0 79 39 0 
69 33 0 58 35 0 70 47 0 85 39 0 86 40 0 73 28 0 74 29 0 74 28 0 72 28 0 
60 24 0 68 29 0 60 27 0 66 27 0 59 23 0 62 28 0 80 37 0 74 33 1 76 37 2 
75 33 0 77 34 0 56 26 0 69 30 0 55 24 0 47 22 0 75 35 1 56 25 0 58 26 0 
78 32 0 83 37 0 78 34 0 76 34 0 77 37 2 69 34 2 81 37 0 82 36 0 81 36 0 
80 37 0 79 36 0 82 38 0 79 35 0 80 35 0 80 35 0 84 37 0 85 39 0 78 37 0 
83 36 0 82 38 0 70 31 0 59 27 0 70 30 0 71 32 0 45 22 0 63 30 0 86 39 0 
84 38 0 81 37 0 75 40 0 85 39 0 86 40 0 87 40 0 86 40 0 81 42 0 74 42 0 
69 34 0 61 28 0 62 30 0 81 37 0 86 39 0 84 38 0 74 28 0 75 32 0 75 29 0 
68 28 0 55 24 0 63 24 0 54 22 0 57 24 0 43 18 0 43 19 0 76 33 0 83 37 0 
66 32 2 75 34 1 78 35 0 67 29 0 80 36 0 74 33 1 64 27 0 71 32 0 51 24 0 
63 29 0 74 33 1 74 33 0 76 33 0 83 39 0 78 42 0 77 39 2 72 33 0 81 35 0 
80 36 0 72 33 1 64 29 0 81 37 0 65 29 0 64 29 0 57 25 0 72 31 0 82 36 0 
68 31 0 67 32 0 56 25 0 51 24 0 60 27 0 63 28 0 75 34 1 60 28 0 75 40 0 
87 40 0 85 40 0 79 41 0 82 42 0 87 40 0 87 40 0 84 41 0 82 41 0 85 39 0 
84 39 0 82 38 0 75 35 1 68 31 0 82 38 0 87 40 0 87 40 0 72 27 0 70 27 0 
74 28 0 73 29 0 70 27 0 74 29 0 66 28 0 69 31 0 73 33 0 78 35 0 75 34 0 
78 35 0 75 33 0 76 34 0 76 34 1 76 34 1 68 31 0 62 28 0 77 34 0 71 31 0 
46 21 0 62 30 0 59 26 0 62 28 0 60 27 0 72 35 1 58 28 0 75 35 1 79 37 0 
79 35 0 78 35 0 68 31 0 79 34 0 84 38 0 70 31 0 60 25 0 57 26 0 74 33 0 
77 34 0 61 29 0 52 24 0 58 28 0 63 30 0 62 29 0 75 34 1 83 39 0 85 39 0 
81 42 0 87 40 0 87 40 0 86 39 0 84 41 0 87 40 0 87 40 0 73 45 0 69 32 1 
82 38 0 86 39 0 83 37 0 73 34 0 70 37 0 83 36 0 85 39 0 87 40 0 72 28 0 
71 28 0 68 26 0 66 27 0 70 28 0 75 32 0 60 29 0 58 28 0 67 32 0 76 33 0 
83 37 0 78 34 0 79 34 0 74 30 0 64 29 0 44 25 0 73 32 0 77 36 0 82 36 0 
61 28 0 62 28 0 62 28 0 55 25 0 58 26 0 70 31 0 84 39 0 73 34 1 58 29 0 
78 38 0 78 38 0 79 34 0 57 27 0 80 36 0 85 38 0 82 36 0 76 33 0 81 37 0 
74 33 0 59 27 0 57 27 0 57 27 0 73 34 1 80 38 0 80 36 0 85 39 0 85 38 0 
87 40 0 84 38 0 85 38 0 70 32 0 85 38 0 83 37 0 84 38 0 82 37 0 77 36 0 
75 35 1 86 40 0 87 40 0 81 35 0 69 32 0 76 35 0 85 38 0 86 39 0 87 40 0 
70 27 0 69 28 0 47 19 0 52 22 0 57 23 0 72 30 0 61 29 0 69 32 1 75 31 0 
81 34 0 87 40 0 85 37 0 78 36 0 76 32 0 69 31 0 56 24 0 65 29 0 82 36 0 
82 36 0 73 31 0 79 34 0 73 34 0 60 27 0 68 31 0 84 39 0 85 39 0 65 30 0 
46 33 0 42 31 0 80 37 0 85 38 0 83 36 0 70 32 0 65 29 0 80 35 0 81 35 0 
84 39 0 67 30 0 45 21 0 51 23 0 72 33 0 70 32 0 85 40 0 84 39 0 81 37 0 
85 38 0 86 39 0 79 36 0 86 39 0 73 34 1 76 35 1 83 39 0 83 37 0 80 36 0 
61 34 0 59 39 0 80 43 0 85 39 0 82 36 0 83 37 0 87 40 0 87 40 0 84 41 0 
86 40 0 58 24 0 54 22 0 45 19 0 52 21 0 62 25 0 75 30 0 66 30 0 77 33 0 
74 33 0 82 37 0 86 39 0 77 36 0 64 30 0 72 32 0 83 37 0 73 34 1 83 37 0 
87 40 0 73 34 0 65 28 0 79 35 0 63 28 0 56 25 0 57 27 0 69 30 0 62 28 0 
74 33 1 76 36 1 81 37 0 67 31 0 72 34 0 81 36 0 53 24 0 54 25 0 75 32 0 
83 36 0 84 39 0 83 38 0 66 32 0 51 22 0 62 28 0 77 36 0 85 39 0 84 38 0 
63 29 0 75 35 1 81 37 0 87 40 0 86 39 0 68 32 0 77 37 0 86 38 0 84 38 0 
75 44 0 63 49 0 79 43 0 79 44 0 87 40 0 85 38 0 86 39 0 86 40 0 85 39 0 
69 48 0 81 43 0 54 22 0 54 21 0 55 22 0 61 27 0 73 30 0 75 30 0 73 28 0 
59 25 0 62 26 0 84 38 0 87 40 0 82 38 0 71 33 0 82 37 0 82 37 0 67 31 0 
78 36 0 80 36 0 63 29 0 62 28 0 70 30 0 63 29 0 57 27 0 57 27 0 52 24 0 
56 25 0 74 34 1 67 31 0 85 38 0 81 36 0 46 23 0 86 38 0 84 38 0 78 35 0 
62 28 0 74 34 0 79 36 0 85 38 0 85 39 0 78 33 0 71 32 0 82 36 0 84 39 0 
86 40 0 82 38 0 73 34 0 57 26 0 70 32 0 84 39 0 81 38 0 74 35 1 85 38 0 
77 45 0 57 51 0 80 38 0 83 37 0 82 41 0 85 41 0 87 40 0 85 38 0 85 38 0 
85 39 0 86 40 0 87 40 0 67 27 0 61 24 0 54 22 0 57 22 0 71 29 0 75 30 0 
74 30 0 68 28 0 74 32 0 86 38 0 84 38 0 86 38 0 86 40 0 87 40 0 80 35 0 
75 33 0 75 34 1 66 31 0 61 29 0 53 24 0 62 29 0 71 35 2 66 32 2 78 36 0 
75 35 1 81 37 0 78 37 0 69 31 0 73 33 0 64 31 0 47 29 0 70 33 0 83 37 0 
72 33 0 60 28 0 59 28 0 77 35 0 87 40 0 85 40 0 82 36 0 74 32 0 63 28 0 
70 32 0 84 40 0 86 40 0 69 32 0 51 24 0 66 30 0 85 40 0 83 39 0 75 37 1 
82 40 0 79 43 0 67 44 0 77 34 0 81 35 0 85 38 0 87 40 0 86 40 0 86 40 0 
85 40 0 85 38 0 86 38 0 87 40 0 73 30 0 57 22 0 54 21 0 55 22 0 69 30 0 
76 32 0 77 37 2 76 32 0 78 37 1 80 35 0 84 38 0 83 37 0 72 33 0 63 29 0 
58 25 0 73 34 2 73 34 1 66 32 0 62 31 1 59 28 0 58 28 0 70 36 2 81 39 1 
82 37 0 84 38 0 79 37 0 71 33 1 76 36 0 46 23 0 48 22 0 46 26 0 56 25 0 
78 35 1 64 30 0 58 29 0 62 31 0 82 40 0 85 40 0 86 40 0 83 37 0 71 30 0 
52 24 0 58 26 0 80 37 0 69 47 0 79 38 0 73 34 0 82 38 0 84 40 0 75 35 1 
65 29 0 81 36 0 87 40 0 82 41 0 80 41 0 86 38 0 87 40 0 69 48 0 55 53 0 
85 41 0 81 42 0 81 36 0 83 37 0 87 40 0 72 32 0 63 26 0 60 25 0 68 30 0 
74 29 0 75 31 0 76 31 0 75 32 0 77 36 1 77 36 1 75 36 2 81 37 0 75 32 0 
51 24 0 44 22 0 71 34 1 80 36 0 72 35 3 72 33 1 63 29 0 55 27 0 47 21 0 
71 33 2 79 35 1 77 34 0 65 29 0 54 24 0 64 30 0 34 24 0 28 27 0 56 27 0 
81 37 0 83 37 0 70 32 0 61 29 0 75 32 0 84 38 0 86 40 0 83 41 0 82 37 0 
67 29 0 68 35 0 69 30 0 80 38 0 75 40 0 71 34 0 83 38 0 85 38 0 77 36 1 
53 25 0 59 31 0 82 38 0 87 40 0 84 39 0 75 35 1 80 37 0 50 24 0 38 29 0 
66 48 0 84 41 0 84 38 0 82 36 0 84 38 0 86 39 0 65 26 0 30 10 0 71 29 0 
74 30 0 75 30 0 75 30 0 74 28 0 74 30 0 63 28 0 55 24 0 59 27 0 77 34 0 
80 36 0 78 37 1 73 34 1 75 36 1 77 35 0 76 35 1 55 26 0 41 20 0 71 32 0 
68 32 0 45 22 2 69 32 1 74 35 3 79 36 0 74 33 0 72 33 0 47 23 0 42 29 0 
81 37 0 84 38 0 71 40 0 62 29 0 60 28 0 74 33 0 83 37 0 82 36 0 78 42 0 
80 38 0 79 36 0 69 33 0 52 24 0 56 25 0 53 25 0 60 28 0 83 40 0 86 39 0 
86 39 0 71 35 1 52 33 0 79 36 0 87 40 0 84 39 0 67 31 0 65 30 0 79 37 0 
62 30 0 50 25 0 81 37 0 83 40 0 86 40 0 75 34 1 81 36 0 74 31 0 66 27 0 
73 27 0 74 29 0 76 31 0 76 34 0 75 32 0 72 28 0 61 25 0 46 20 0 62 27 0 
63 27 0 59 27 0 56 28 1 27 10 0 51 22 0 74 33 1 47 22 0 64 29 0 34 16 0 
27 11 0 72 36 3 75 35 1 76 35 2 80 39 1 86 39 0 81 34 0 72 31 0 47 24 0 
43 24 0 83 39 0 84 41 0 68 40 1 20 8 2 36 17 0 67 33 0 83 38 0 80 36 0 76 35 1 
54 25 0 76 35 0 62 28 0 58 26 0 57 25 0 57 26 0 49 27 0 70 32 0 85 39 0 
82 41 0 86 39 0 79 42 0 85 40 0 87 40 0 82 38 0 75 35 1 78 36 0 84 39 0 
34 20 0 68 34 0 65 35 0 85 41 0 82 39 0 57 34 0 80 35 0 65 26 0 67 29 0 
75 30 0 74 28 0 67 26 0 67 29 0 73 34 2 61 25 0 56 22 0 48 20 0 70 29 0 
75 32 0 74 32 0 60 30 1 33 16 0 70 32 0 60 27 0 60 27 0 70 32 0 65 30 0 
14 5 2 43 19 1 63 30 0 73 34 1 76 36 2 75 35 2 78 33 0 59 25 0 50 23 0 50 25 0 
84 39 0 87 40 0 86 40 0 42 36 0 54 26 0 56 32 0 65 36 0 63 29 0 79 36 0 
63 30 0 77 36 0 63 28 0 59 27 0 73 34 0 80 38 0 42 47 0 80 38 0 87 40 0 
87 40 0 82 41 0 85 39 0 87 40 0 82 41 0 75 40 0 78 38 0 87 40 0 83 38 0 
52 25 0 70 32 0 73 34 1 85 41 0 83 42 0 62 46 1 35 16 0 55 24 0 60 28 0 
71 29 0 72 28 0 72 29 0 71 31 0 73 31 0 60 25 0 57 23 0 53 22 0 73 30 0 
73 29 0 74 33 0 52 24 0 76 37 2 58 27 0 64 29 0 48 23 0 48 22 0 49 22 0 
7 4 2 14 6 1 28 10 0 56 24 0 57 27 0 65 32 3 80 36 0 74 33 0 58 26 0 71 33 0 
86 40 0 84 39 0 70 32 0 72 38 3 79 39 1 53 26 0 73 34 1 80 37 0 78 37 0 
66 32 0 69 33 0 59 30 0 64 30 0 81 37 0 82 42 0 80 40 0 79 37 1 85 39 0 
85 39 0 80 38 1 82 38 0 84 38 0 83 39 0 78 38 0 78 39 1 83 39 1 85 38 0 
66 31 0 62 28 0 73 33 1 85 40 0 84 41 0 48 24 0 8 4 1 65 28 0 71 28 0 72 30 0 
73 29 0 75 30 0 36 16 0 55 24 0 73 29 0 74 31 0 74 29 0 71 29 0 65 27 0 
72 30 0 77 36 1 77 38 2 67 32 0 67 29 0 71 30 0 53 23 0 60 27 0 36 16 0 
4 2 1 4 2 1 29 12 0 53 28 0 75 36 2 86 39 0 57 27 0 80 38 1 83 39 0 85 38 0 
75 34 1 57 28 0 67 34 2 49 37 0 63 38 3 77 40 1 68 44 0 72 35 1 72 33 0 
51 24 0 56 28 0 61 29 0 77 36 1 83 40 0 85 39 0 87 40 0 85 38 0 67 31 0 
74 35 1 75 34 0 83 37 0 76 45 0 73 45 0 84 40 0 83 40 0 86 39 0 84 39 0 
70 32 0 74 35 1 86 40 0 86 40 0 60 28 0 9 4 1 77 34 0 75 32 0 77 36 1 76 34 0 
78 37 1 72 32 0 76 37 2 72 30 0 72 30 0 71 27 0 54 22 0 58 26 0 72 31 0 
67 30 0 61 29 1 80 36 0 82 38 0 57 26 0 52 24 0 44 21 0 44 22 1 8 4 2 4 2 1 
7 4 2 27 13 0 64 31 3 70 34 2 71 35 4 62 32 3 42 20 0 85 38 0 71 33 1 62 32 2 
73 36 2 49 32 0 50 25 0 77 37 1 79 36 0 76 34 1 77 34 0 63 29 0 61 29 0 
68 31 0 78 38 2 82 39 0 79 38 1 84 39 0 87 40 0 82 38 0 68 46 0 69 37 0 
84 37 0 73 47 0 69 47 0 65 43 0 83 38 0 87 40 0 86 39 0 84 38 0 86 40 0 
87 40 0 86 40 0 81 37 0 74 33 1 
