P3
64 64
255
228 183 151 228 183 151 215 167 134 236 189 158 239 193 162 238 192 160 
239 193 161 238 192 160 236 189 157 220 172 139 208 161 125 205 156 121 
207 159 124 211 161 127 219 172 137 225 178 146 219 172 139 218 170 136 
219 172 138 220 172 139 219 171 137 216 168 135 224 177 143 240 199 165 
245 208 175 246 208 176 245 208 175 245 209 177 245 210 178 244 210 177 
244 209 173 242 207 171 236 200 163 236 199 163 222 177 141 215 167 132 
214 166 130 227 182 147 238 194 162 219 171 136 208 157 121 208 156 120 
208 156 120 208 156 120 208 156 120 206 155 119 204 154 118 202 153 116 
204 152 116 204 152 116 203 153 116 206 155 119 208 158 122 208 156 120 
208 156 120 208 158 122 227 176 141 254 204 167 251 199 161 223 169 131 
178 117 79 165 104 66 185 129 92 205 151 116 228 182 150 225 179 146 
220 172 139 239 193 161 241 194 163 238 193 161 239 193 160 240 193 159 
234 185 152 216 166 133 207 159 123 213 166 131 215 166 133 205 158 122 
214 166 131 223 177 142 215 168 134 217 170 135 224 176 143 222 178 144 
224 177 145 224 178 145 230 185 151 243 200 168 244 203 170 241 204 171 
240 204 172 239 204 172 240 205 172 240 205 172 239 205 169 239 202 167 
231 192 156 216 170 134 209 160 124 208 156 120 208 157 121 221 176 141 
240 200 167 231 189 155 215 167 132 208 158 122 208 157 121 208 159 123 
208 159 123 210 160 125 208 160 124 204 152 116 203 151 115 203 153 117 
203 153 117 205 154 119 212 160 126 208 157 121 212 160 125 221 171 136 
244 192 157 254 202 166 241 190 151 219 164 126 174 115 76 169 109 71 
192 137 99 194 139 102 226 180 147 227 179 146 236 189 157 242 196 164 
242 197 166 240 194 162 237 192 159 239 191 156 234 185 151 218 170 134 
205 155 120 229 182 148 225 177 144 215 167 132 223 178 145 227 181 147 
223 176 142 224 178 146 224 178 145 224 176 143 227 182 149 233 190 157 
219 175 140 243 200 168 243 199 168 234 194 161 228 190 157 230 193 160 
229 194 161 230 195 161 233 196 162 233 196 161 228 185 152 212 164 129 
208 158 122 208 156 120 208 156 120 215 169 135 233 193 160 239 201 169 
232 189 155 220 171 136 216 169 134 222 176 141 221 175 140 219 172 137 
212 165 129 208 159 123 204 155 119 205 154 119 204 154 119 205 154 119 
212 160 126 208 157 121 217 166 131 237 187 152 246 195 159 241 190 153 
237 186 149 211 155 117 172 113 73 166 106 66 187 130 91 194 138 99 224 177 144 
225 177 143 219 171 136 232 186 153 244 199 167 242 197 165 235 188 156 
230 182 147 231 180 145 224 173 138 208 157 119 211 162 127 210 162 128 
219 172 138 227 182 148 231 185 153 230 184 153 227 182 149 226 180 147 
215 169 134 211 164 129 225 180 147 229 185 151 236 193 159 235 192 159 
220 177 141 217 176 142 229 191 158 226 189 156 226 186 153 226 188 153 
226 186 150 228 186 150 218 175 140 210 163 128 209 160 124 211 162 128 
222 179 146 233 194 161 237 199 165 239 195 164 236 192 160 232 189 155 
234 191 157 230 187 153 225 179 144 219 174 139 215 169 134 211 161 125 
208 156 120 206 155 119 208 156 120 211 160 126 208 156 120 212 160 124 
232 182 148 234 184 147 228 176 138 221 169 130 201 148 110 177 121 82 
169 110 70 191 135 95 199 143 105 226 179 146 209 159 123 189 137 98 
220 172 138 241 197 164 237 190 157 220 171 136 206 154 118 220 170 133 
222 171 136 217 169 133 219 173 140 216 169 135 219 171 137 227 182 149 
232 187 155 232 187 154 228 182 150 226 180 147 215 166 133 220 175 141 
225 181 148 226 182 148 225 180 146 226 183 149 230 188 154 231 190 157 
232 194 158 222 178 144 218 171 135 220 172 138 223 178 145 224 181 146 
224 183 148 223 178 144 222 178 144 228 184 151 237 198 164 237 199 165 
233 193 159 229 188 154 229 187 153 225 182 148 227 184 151 230 185 151 
228 182 147 219 172 138 218 171 136 210 163 128 206 156 120 206 155 118 
208 156 120 211 160 126 208 157 121 209 160 123 226 176 141 219 168 131 
219 169 132 234 188 154 224 176 142 203 154 118 186 132 94 193 138 99 
201 146 107 220 173 140 198 145 109 181 126 88 200 149 113 227 179 146 
218 169 134 211 161 126 202 150 114 203 150 113 216 166 132 222 176 142 
225 179 146 225 180 147 226 181 148 228 182 150 229 183 152 230 184 153 
228 183 151 225 179 146 218 172 138 227 182 148 227 183 150 223 178 145 
217 170 135 218 172 137 223 178 144 232 189 157 222 177 142 212 161 126 
208 157 121 208 158 122 216 166 132 225 181 146 227 185 152 234 189 157 
237 197 162 244 204 171 244 204 171 238 198 165 230 187 153 226 182 148 
221 178 144 221 175 142 224 178 145 228 183 149 228 182 147 215 165 130 
211 160 126 212 165 128 206 160 123 205 155 120 204 154 119 212 163 128 
216 166 131 214 164 129 224 176 141 229 181 146 229 182 148 230 182 150 
213 164 129 208 156 120 199 147 110 196 142 105 211 162 127 203 155 121 
173 119 83 187 137 99 173 119 79 193 143 104 200 149 111 202 154 117 
199 149 111 197 147 110 209 161 126 223 177 143 226 182 148 227 183 150 
228 183 151 228 183 151 228 183 151 227 182 148 226 181 148 222 176 142 
218 173 139 225 180 147 228 183 151 219 173 140 214 167 133 216 170 135 
219 173 138 226 182 147 215 166 131 208 158 122 208 157 121 208 157 121 
212 163 128 222 177 143 225 183 149 229 186 153 233 192 158 240 197 165 
239 197 164 234 191 158 228 183 151 225 181 147 218 171 137 212 165 129 
213 165 130 220 175 140 225 176 141 209 160 124 208 158 122 215 168 133 
215 167 131 206 157 120 202 154 118 223 176 142 235 189 157 225 178 145 
229 183 150 237 191 158 208 159 123 192 140 101 199 147 110 202 150 113 
198 147 110 220 172 139 234 188 155 198 150 116 165 111 74 182 131 94 
201 151 113 220 171 137 195 144 106 188 137 98 187 135 98 195 144 107 
213 166 131 225 179 145 227 183 150 228 183 151 228 183 151 228 183 151 
228 183 151 226 180 147 222 177 142 219 174 140 216 169 135 210 161 126 
215 168 134 214 166 130 215 167 132 214 166 130 211 163 127 218 173 139 
214 166 130 208 159 123 208 158 122 208 158 122 216 166 133 223 177 144 
227 184 153 229 186 155 228 183 152 222 178 147 227 183 151 229 184 153 
227 183 150 227 181 147 220 173 140 214 166 132 214 167 133 222 175 140 
216 166 132 210 161 126 209 160 126 206 158 122 210 162 127 205 159 122 
210 160 126 233 186 150 240 194 162 240 193 162 240 194 161 232 186 153 
190 139 100 181 130 90 185 133 94 190 138 100 206 159 123 223 176 142 
207 160 125 203 155 121 196 147 110 210 161 125 233 187 153 233 187 152 
216 166 129 192 141 104 200 151 114 215 166 134 220 175 141 226 181 148 
228 183 151 227 183 150 228 183 151 228 183 151 227 182 149 222 177 143 
223 178 146 223 177 143 222 176 141 208 160 124 197 147 110 219 172 138 
219 172 138 209 161 127 210 160 126 219 171 136 222 174 140 216 166 132 
210 160 124 209 160 124 221 172 139 227 180 147 230 184 153 226 180 148 
215 166 132 201 153 117 216 171 136 227 181 147 227 182 149 228 182 149 
227 182 149 231 184 151 227 182 148 214 167 133 203 154 118 212 165 130 
219 171 136 219 171 138 218 172 139 194 149 112 219 173 138 238 192 160 
240 194 163 240 194 162 241 195 162 234 188 156 198 149 114 187 136 96 
189 138 99 192 140 102 202 153 117 205 155 121 191 140 103 235 189 157 
228 183 150 234 188 154 238 193 160 237 192 158 237 192 157 225 179 146 
226 182 148 228 182 150 228 182 150 230 185 152 228 183 151 232 186 154 
230 184 153 227 182 149 227 181 147 221 175 142 220 174 140 223 177 144 
232 187 153 222 175 140 201 153 117 221 174 139 218 172 137 214 166 131 
227 180 146 232 187 154 232 187 154 227 180 147 220 171 136 217 168 134 
224 175 141 224 176 142 227 181 147 220 171 137 197 145 108 197 146 109 
211 164 129 216 168 134 224 177 144 223 178 146 228 183 151 235 189 158 
228 182 149 207 159 123 211 161 127 233 188 155 227 180 146 213 166 131 
207 159 124 198 150 113 232 185 152 243 196 164 240 195 163 242 197 165 
242 197 166 239 193 162 211 161 126 193 143 107 200 149 113 207 155 119 
208 156 120 208 156 120 208 156 120 232 187 153 235 190 155 241 197 163 
230 183 150 224 177 142 227 181 146 228 182 150 228 183 150 228 183 151 
228 183 151 228 183 151 229 183 151 240 195 163 240 194 163 230 185 152 
227 182 149 223 178 146 220 174 140 219 173 141 202 151 115 192 141 104 
195 144 106 199 150 113 196 147 109 221 173 140 230 184 153 229 183 152 
228 182 150 224 177 144 221 171 138 219 171 136 219 172 137 220 171 137 
220 172 139 220 172 138 212 161 126 206 159 123 208 160 124 220 173 140 
228 182 149 224 177 146 227 181 147 227 182 148 222 176 141 207 158 123 
206 155 121 224 177 143 196 145 107 188 138 100 193 144 107 217 169 134 
240 195 161 242 197 166 241 196 164 243 198 166 242 197 166 228 181 146 
213 166 130 219 173 140 228 181 147 210 160 124 208 157 121 208 157 121 
207 158 121 220 172 136 226 179 144 233 187 153 222 174 140 213 164 128 
223 177 142 228 182 150 228 183 151 228 183 151 228 183 151 228 183 151 
227 181 148 235 189 158 234 189 157 227 182 149 227 183 150 226 182 147 
223 178 145 220 174 140 197 149 114 189 139 101 199 149 112 199 150 112 
217 169 134 232 186 153 229 183 152 228 182 149 224 176 143 219 170 135 
217 169 134 219 170 135 218 170 135 216 168 133 217 170 135 219 173 140 
219 172 139 220 174 139 211 161 127 211 163 128 223 177 144 222 178 145 
227 182 149 226 182 148 222 176 141 219 172 140 214 166 133 213 166 131 
192 142 105 190 137 100 213 166 130 237 190 158 241 195 163 241 196 163 
241 196 163 241 197 165 237 191 159 218 171 134 225 178 146 231 187 151 
224 176 142 209 159 123 208 158 122 208 159 122 208 159 122 208 157 121 
211 161 125 224 176 141 230 182 150 225 177 145 224 178 145 228 182 150 
228 182 150 228 183 151 228 183 151 228 183 151 227 182 149 229 184 152 
227 183 150 229 184 152 231 187 153 233 189 156 229 184 152 223 177 143 
204 156 119 203 155 119 208 160 124 205 156 120 229 182 149 237 192 160 
232 187 153 228 182 149 220 172 138 217 169 134 216 168 134 217 169 134 
219 171 136 215 167 132 217 171 136 223 178 144 223 178 146 222 176 142 
222 178 144 214 166 131 218 171 136 222 176 140 227 182 148 228 182 149 
220 173 139 223 177 142 224 176 143 219 171 137 204 155 119 215 167 132 
236 190 157 241 197 164 241 197 164 241 196 163 242 196 164 241 197 165 
232 185 152 215 168 133 230 184 152 233 188 155 218 169 134 208 158 122 
209 160 123 209 159 123 208 160 124 208 156 120 208 157 121 218 169 134 
221 173 139 224 177 143 223 177 143 227 181 147 228 183 151 228 183 151 
228 183 150 227 182 149 227 182 149 229 184 152 230 185 152 235 191 158 
240 194 163 244 199 167 238 193 161 233 188 155 220 173 140 210 161 126 
203 155 120 208 160 124 229 183 150 236 192 160 232 186 153 227 180 147 
219 171 137 217 169 134 218 170 134 219 171 137 221 173 139 210 160 126 
214 166 131 224 178 146 218 173 139 216 169 136 222 177 144 221 174 140 
219 173 140 221 175 142 227 182 148 227 182 149 222 177 143 210 162 127 
210 161 126 209 161 126 219 171 137 237 192 159 242 197 166 244 199 166 
243 198 166 242 197 166 243 198 166 241 197 165 237 192 159 233 189 155 
233 188 154 235 191 157 227 181 144 214 166 130 215 168 132 215 167 132 
218 170 134 217 169 133 219 172 137 221 176 139 207 161 124 222 174 141 
224 178 144 219 173 138 228 183 151 228 183 151 227 181 148 225 179 146 
226 181 148 227 182 149 230 185 152 235 191 158 242 197 166 241 196 164 
233 188 156 230 184 153 229 183 151 220 173 140 218 172 137 206 157 123 
205 156 121 224 177 145 223 178 145 224 176 142 220 172 138 220 172 138 
220 172 139 219 172 138 218 171 135 206 155 119 201 149 114 210 163 129 
212 165 130 213 165 129 220 173 139 222 176 141 227 182 148 227 181 147 
227 182 149 226 181 147 226 180 147 215 167 131 212 164 129 231 184 151 
240 195 163 245 199 168 243 198 166 241 195 163 244 198 166 244 199 167 
242 197 166 230 183 151 223 177 142 235 191 157 236 190 156 234 189 155 
235 191 155 212 168 131 218 172 135 229 186 149 238 196 158 218 173 138 
226 183 146 227 184 148 228 185 149 236 192 160 229 184 150 218 173 138 
224 179 147 227 182 149 227 182 149 226 181 148 226 182 148 227 182 149 
228 183 151 231 187 153 240 195 163 236 190 158 228 182 150 224 176 143 
223 178 145 228 182 149 227 182 149 217 170 136 198 150 113 219 171 136 
223 177 143 221 175 141 219 171 136 221 173 138 222 174 140 216 166 133 
212 162 127 210 160 125 206 155 119 215 168 133 216 166 134 214 166 131 
220 171 139 224 178 147 228 183 151 229 183 152 228 183 151 227 182 148 
229 183 151 214 166 132 224 176 143 242 196 164 245 200 169 245 200 169 
245 199 168 244 199 167 245 199 168 244 199 167 239 193 161 215 167 132 
210 164 128 234 189 156 239 193 162 239 195 162 233 190 154 217 173 136 
224 181 143 236 195 159 240 202 164 231 190 154 232 189 155 236 193 159 
237 194 160 232 187 152 206 160 122 199 150 113 221 175 141 227 183 150 
236 191 159 233 189 156 228 183 151 228 183 151 231 186 153 231 187 153 
232 187 154 232 186 154 228 181 148 218 170 136 219 172 139 228 183 151 
230 184 153 229 183 151 221 176 141 227 182 149 223 177 143 218 170 136 
211 163 127 216 167 133 224 176 141 216 166 133 208 158 122 207 157 121 
208 157 121 214 165 129 220 172 138 220 172 140 225 178 147 228 183 151 
228 183 151 228 182 149 225 180 147 228 182 149 227 182 148 214 166 132 
234 188 157 244 199 167 245 200 169 245 200 169 245 199 168 245 200 169 
245 200 169 241 196 163 218 170 134 216 169 135 223 179 145 236 192 158 
233 189 156 230 185 152 227 184 148 214 168 132 238 198 162 238 199 162 
239 200 163 220 175 140 225 183 148 233 189 156 231 186 153 227 182 148 
214 167 133 210 164 128 217 171 136 234 189 156 245 200 169 241 196 164 
232 187 154 230 185 152 230 185 152 231 186 153 231 187 153 229 184 152 
230 184 153 222 175 141 224 176 143 233 188 156 240 195 163 243 198 166 
241 197 165 235 190 157 227 183 150 219 172 139 211 160 125 210 160 125 
227 180 146 228 180 147 213 163 128 207 157 121 208 156 120 208 157 121 
219 171 136 221 173 141 227 181 148 228 183 151 228 182 150 225 180 146 
227 182 148 226 181 146 225 179 146 232 185 152 234 188 157 241 196 164 
245 199 168 245 200 169 245 200 169 245 199 168 245 199 168 237 192 159 
211 164 127 228 182 149 236 190 158 234 189 156 224 180 146 226 182 147 
222 178 145 227 182 148 227 184 150 231 192 155 223 182 145 208 161 126 
223 178 145 230 185 152 229 184 152 227 183 150 225 180 146 221 175 141 
223 178 145 237 192 160 244 199 167 239 194 162 232 187 154 228 183 151 
228 183 151 234 189 157 240 194 163 232 188 155 234 189 157 233 188 156 
235 189 158 241 196 164 246 201 169 245 200 169 245 199 168 240 194 163 
230 184 153 227 180 148 218 170 135 209 160 124 225 177 143 233 187 153 
225 176 142 213 164 128 211 162 127 214 165 130 222 176 142 224 177 145 
228 182 150 228 182 150 229 183 152 228 182 149 228 182 149 224 177 145 
227 182 149 228 182 150 232 187 154 234 188 156 240 194 163 240 197 164 
243 198 166 245 199 169 246 201 169 238 192 160 219 173 140 226 179 146 
237 190 158 231 187 152 218 173 140 221 175 143 226 182 147 227 182 149 
227 182 149 220 177 141 207 162 126 201 156 120 225 181 147 226 182 148 
229 184 152 230 185 152 227 183 150 227 183 150 228 183 151 233 189 156 
234 188 157 232 187 155 232 186 154 228 183 151 230 185 152 238 194 161 
244 199 167 237 192 160 232 188 155 241 196 164 244 199 167 246 201 168 
246 201 169 245 199 168 245 199 168 241 197 165 232 187 154 229 183 152 
228 181 147 221 173 140 233 187 154 237 190 158 235 189 157 228 182 147 
225 178 146 226 180 146 223 177 144 228 182 149 229 183 152 231 185 153 
232 187 155 232 187 155 228 183 151 226 181 147 228 182 149 225 179 146 
223 176 142 236 192 160 238 193 161 241 197 165 241 196 164 244 199 168 
246 202 170 240 194 164 234 188 157 232 188 155 232 187 154 223 178 145 
215 170 135 215 170 135 218 174 139 224 179 145 227 182 149 224 181 147 
223 184 148 209 161 127 222 177 142 227 182 148 227 183 150 227 183 150 
227 182 149 229 183 152 227 183 150 231 185 153 229 183 152 228 183 151 
229 183 152 230 184 153 228 183 151 236 191 159 241 196 164 235 189 158 
231 185 153 235 189 158 238 193 161 241 196 164 244 199 167 245 200 169 
245 200 169 245 199 168 240 194 163 235 189 158 236 190 158 241 196 164 
244 199 167 242 197 166 240 194 163 241 197 165 237 193 160 238 193 160 
242 197 165 243 197 165 239 193 162 235 191 159 232 187 154 232 186 154 
228 183 150 228 183 150 227 182 149 226 181 147 219 171 138 236 192 160 
239 193 162 244 199 168 246 201 170 245 199 168 245 199 169 240 195 164 
241 197 165 236 191 159 217 170 135 208 161 124 210 162 127 212 165 129 
210 161 126 215 166 133 222 178 145 223 180 146 224 183 148 227 182 148 
228 182 149 228 183 151 228 183 151 227 183 150 227 182 149 228 182 150 
229 183 152 228 183 151 228 183 151 228 183 151 228 183 151 229 183 152 
228 183 151 231 186 153 233 188 156 229 183 152 228 183 151 228 183 151 
230 184 153 232 187 155 237 192 160 243 198 166 245 200 169 245 199 168 
244 199 167 244 199 167 245 199 168 246 201 169 245 200 169 245 200 169 
240 195 163 236 192 160 237 192 160 245 199 168 245 200 169 245 199 168 
244 199 167 237 192 161 230 185 152 230 185 152 235 190 157 236 192 160 
224 178 146 214 166 132 214 168 134 230 185 152 237 192 160 238 193 161 
245 199 168 245 199 168 242 197 166 234 189 158 234 188 157 231 185 152 
202 152 115 193 142 106 202 151 114 204 155 120 203 152 116 204 155 119 
213 167 132 205 159 123 223 179 147 241 197 165 238 194 161 235 190 157 
234 189 157 231 185 153 231 186 153 230 184 153 229 183 152 228 183 151 
228 183 151 228 183 151 228 183 151 228 183 151 228 183 151 228 183 151 
229 183 152 229 183 152 228 183 151 228 183 151 228 183 151 228 183 151 
230 184 153 235 189 158 240 194 163 243 198 166 244 199 167 245 200 169 
246 201 169 246 201 169 246 201 169 245 200 169 240 197 164 232 187 154 
232 188 155 242 198 165 241 197 164 240 195 163 241 197 164 237 192 160 
233 189 156 239 193 162 232 187 155 229 184 152 230 185 152 222 174 140 
228 181 147 228 183 150 234 188 157 238 194 161 245 199 168 245 200 169 
242 197 166 232 187 154 231 186 154 235 188 158 217 169 134 214 166 131 
205 155 120 205 155 119 205 158 121 207 157 121 208 161 125 208 161 127 
224 179 145 238 193 161 236 191 159 231 187 153 229 184 152 227 183 150 
236 192 159 240 194 163 232 186 154 228 183 151 228 183 151 228 183 151 
228 183 151 228 183 151 228 183 151 228 183 151 229 183 152 229 183 152 
228 183 151 228 183 151 228 183 151 228 183 151 228 183 151 228 183 151 
232 186 154 236 192 160 242 197 166 246 201 169 246 201 169 245 200 169 
245 199 168 245 200 169 244 199 167 236 190 158 231 186 152 237 192 159 
232 185 152 230 183 151 233 187 153 235 188 157 236 190 158 244 199 167 
235 191 158 228 183 151 229 184 152 236 192 160 238 193 161 231 186 153 
235 190 157 232 187 155 239 193 162 242 197 166 240 195 163 241 196 165 
238 194 161 236 192 160 238 193 161 235 188 156 224 178 144 213 165 129 
207 160 123 216 169 135 215 169 134 222 177 142 224 177 143 229 184 152 
228 183 151 227 182 149 228 183 151 228 183 151 231 186 153 237 193 160 
234 188 157 228 183 151 228 183 151 228 183 151 228 183 151 228 183 151 
228 183 151 228 183 151 229 183 152 228 183 151 228 183 151 228 183 151 
228 183 151 228 183 151 228 183 151 228 183 151 228 183 151 232 186 154 
240 194 163 246 201 169 246 201 169 245 199 168 244 199 167 244 200 168 
243 198 166 235 191 158 227 182 149 225 177 144 223 175 140 222 174 140 
224 177 143 230 184 151 237 193 160 241 196 164 232 187 154 231 185 153 
234 189 157 238 194 161 236 192 160 230 184 152 230 185 152 228 183 151 
231 186 153 231 187 153 235 189 158 242 197 166 244 199 168 240 194 163 
240 195 163 242 196 164 233 187 153 220 172 139 215 166 132 216 168 134 
215 167 132 215 167 133 215 167 132 227 183 150 227 182 149 227 182 149 
229 184 152 229 184 152 227 183 150 232 186 154 232 187 154 229 183 152 
228 183 151 228 183 151 228 183 151 228 183 151 228 183 151 229 183 152 
232 186 154 229 183 152 228 183 151 228 183 151 228 183 151 228 183 151 
228 183 151 228 183 151 230 184 153 234 188 157 241 197 165 246 201 169 
246 201 169 245 199 168 244 199 167 245 199 168 242 197 166 233 189 156 
223 178 144 219 171 136 223 175 140 220 172 138 220 172 138 225 178 145 
233 189 156 232 188 155 231 187 153 232 187 154 237 193 160 240 194 163 
232 187 155 225 179 146 226 181 148 229 184 152 231 186 153 229 184 152 
229 184 153 239 193 162 244 199 167 243 198 166 243 198 167 241 195 163 
224 176 142 217 169 135 216 166 132 217 170 135 203 157 126 209 161 129 
214 166 131 227 182 149 227 182 149 228 182 149 228 183 151 229 184 152 
230 185 152 232 188 155 233 188 156 233 188 156 231 186 153 229 183 152 
229 183 152 230 184 153 230 184 153 229 184 152 233 188 156 232 186 154 
228 183 151 228 183 151 228 183 151 228 183 151 228 183 151 230 184 153 
235 189 158 240 195 163 245 199 168 245 200 169 245 199 168 245 199 168 
245 199 168 245 199 168 241 197 165 236 192 159 225 179 145 219 171 137 
224 176 141 222 174 141 219 172 139 223 175 140 233 187 155 231 186 153 
232 188 155 234 189 157 238 194 161 236 191 159 227 183 150 223 177 143 
223 177 144 232 187 154 235 191 158 231 186 153 231 185 153 241 196 163 
245 200 169 245 199 168 245 200 169 241 196 163 219 172 138 211 163 127 
214 167 131 197 154 122 171 135 109 190 147 118 213 166 132 231 187 153 
227 182 148 224 178 146 227 182 149 229 184 152 232 188 155 236 192 159 
242 197 166 242 198 165 240 195 163 232 187 154 235 189 158 239 193 162 
238 193 161 233 189 156 240 196 163 237 192 160 230 184 153 228 183 151 
228 183 151 228 183 151 228 183 151 231 184 152 236 190 158 242 197 166 
244 199 167 245 199 168 245 199 168 245 199 168 245 199 168 245 199 168 
239 194 162 234 189 157 227 182 148 225 177 144 223 175 140 223 175 141 
223 175 140 223 177 142 234 188 157 231 187 153 233 188 156 235 189 158 
237 193 160 232 187 154 227 182 149 226 181 148 227 182 148 233 188 156 
232 187 154 229 184 152 231 187 153 241 197 165 245 199 168 245 199 168 
244 199 167 244 199 167 240 195 162 219 171 137 229 183 152 201 160 131 
165 131 109 189 148 119 217 172 138 240 196 163 234 188 156 230 184 152 
232 188 155 237 193 160 237 192 160 241 196 164 239 194 163 236 191 159 
242 197 166 241 197 165 243 198 166 243 198 166 240 194 163 241 196 164 
245 200 169 243 198 166 236 192 160 231 185 153 228 183 151 228 183 151 
228 183 151 228 183 151 225 179 146 236 189 158 238 193 161 239 194 162 
245 200 169 246 201 169 246 201 169 246 201 169 241 197 165 232 187 155 
228 183 151 234 188 156 225 178 146 223 176 141 228 182 147 230 182 151 
233 188 155 239 193 162 241 197 165 240 197 164 240 196 163 232 187 154 
228 183 151 231 187 153 232 187 153 227 182 148 224 179 147 226 182 148 
233 189 156 243 198 166 245 200 169 245 199 168 245 199 168 245 199 168 
244 199 167 238 193 160 234 188 156 227 182 149 208 168 141 223 178 149 
228 183 150 235 190 157 234 188 157 240 197 164 240 196 163 237 193 160 
239 193 162 245 199 168 243 198 166 236 192 160 242 197 166 242 198 165 
240 195 163 234 189 157 232 187 155 236 192 160 242 197 166 245 200 169 
244 199 167 236 190 158 227 182 149 227 180 148 227 182 148 227 180 147 
219 171 137 228 180 147 233 189 156 235 189 158 245 199 168 246 201 169 
246 201 169 245 200 169 240 194 163 231 186 153 230 185 152 234 189 157 
231 187 153 228 181 148 228 181 148 221 173 140 216 166 133 231 183 151 
243 198 166 246 201 169 238 193 161 232 187 154 236 190 158 241 196 163 
240 194 163 221 172 140 222 178 145 227 182 149 236 192 159 244 199 167 
245 200 167 245 200 169 245 199 168 245 199 168 245 199 168 241 197 165 
241 196 164 239 193 163 241 196 165 240 193 164 237 191 160 229 183 152 
232 187 154 240 194 162 239 193 162 235 191 158 242 197 166 245 200 169 
245 200 169 244 200 168 245 199 168 245 200 169 245 200 169 240 196 163 
232 187 154 232 187 155 242 197 166 245 200 169 245 200 169 230 183 151 
217 168 134 215 165 131 216 167 133 216 169 135 211 161 126 221 173 138 
231 186 152 232 188 155 242 198 165 245 200 169 246 201 169 245 200 169 
238 193 161 232 188 155 235 189 158 234 188 157 231 185 153 228 183 151 
228 183 151 224 176 143 213 163 128 215 165 130 238 192 159 245 200 169 
236 191 159 230 184 153 237 192 160 241 197 165 241 196 163 229 184 152 
225 180 147 227 183 150 237 192 159 244 199 167 245 200 169 246 201 169 
245 200 169 245 200 169 245 200 169 242 197 166 236 192 160 207 168 142 
208 170 145 237 192 162 238 191 162 238 193 161 240 194 163 235 191 158 
236 192 161 241 196 165 245 200 169 245 200 169 245 200 169 245 200 169 
245 200 169 245 200 169 245 199 168 240 194 163 233 188 156 235 190 157 
241 196 164 244 199 167 244 199 167 223 176 141 210 160 125 208 157 121 
208 158 122 213 164 128 214 166 130 221 174 141 229 184 152 238 193 161 
243 198 166 243 198 166 245 200 169 245 200 169 240 195 163 232 187 153 
232 185 152 233 188 156 230 184 153 228 183 151 228 183 151 224 177 145 
213 164 129 208 159 123 233 187 154 245 199 168 237 191 158 232 186 153 
237 190 158 236 192 160 237 192 160 227 182 148 222 176 141 227 183 150 
236 191 159 245 200 169 246 201 169 246 201 169 241 196 163 242 197 166 
244 199 167 244 199 167 216 177 150 150 126 111 153 128 111 218 178 150 
239 193 162 244 199 168 240 195 163 236 191 159 236 192 160 240 195 163 
245 200 169 245 200 169 245 200 169 245 200 169 245 200 169 243 198 166 
236 192 160 232 187 154 236 192 159 241 197 165 242 197 166 245 199 168 
241 196 164 220 173 139 210 160 124 209 160 124 209 159 123 215 165 130 
226 179 145 229 184 152 234 188 157 240 195 163 240 194 163 236 192 159 
241 197 165 244 199 167 240 194 163 228 181 146 229 181 147 234 188 155 
232 187 154 230 184 153 228 183 150 220 172 141 210 160 125 211 160 125 
237 190 157 244 199 166 225 177 143 216 167 134 228 182 147 229 184 152 
228 183 151 226 179 147 223 177 143 229 183 151 237 193 160 243 198 166 
241 197 165 244 198 166 227 179 145 229 182 149 238 192 160 236 190 158 
227 185 155 190 157 130 198 160 134 227 182 150 236 190 157 238 193 161 
232 187 154 230 184 153 232 188 154 240 194 163 245 199 168 245 200 169 
245 200 169 246 201 169 245 200 169 240 196 163 233 188 156 236 192 159 
241 197 165 244 199 167 245 200 169 245 199 168 237 192 160 224 177 145 
214 165 130 211 162 128 212 163 128 220 172 138 233 187 153 236 191 159 
239 193 162 236 192 159 238 194 161 232 187 154 235 189 158 236 190 158 
233 188 156 227 180 147 229 183 149 241 194 163 238 193 161 234 188 157 
232 187 154 223 175 141 212 163 127 225 177 145 243 196 165 245 200 169 
233 187 153 221 173 139 235 188 156 232 187 154 227 182 149 230 185 152 
232 186 154 232 188 155 239 193 161 230 182 150 225 176 143 228 182 147 
212 163 127 213 163 128 229 183 151 227 183 149 229 184 152 222 178 145 
219 171 137 219 172 139 226 179 145 231 185 153 229 184 152 228 183 151 
235 189 158 243 198 166 245 199 168 245 200 169 245 200 169 245 200 169 
243 198 166 236 191 159 238 193 161 242 198 165 241 197 165 240 197 164 
245 200 169 241 196 164 232 187 154 229 183 152 223 178 144 218 170 136 
220 171 137 224 177 145 236 191 159 241 197 165 239 194 162 235 189 158 
236 190 158 231 185 153 232 186 154 229 183 152 229 183 151 228 183 150 
235 188 157 243 198 166 242 197 166 236 192 160 235 189 158 234 188 156 
233 187 153 237 192 160 243 198 166 245 199 168 241 197 165 239 193 161 
241 196 164 232 187 154 227 182 149 228 182 150 232 187 155 232 187 154 
227 181 147 213 164 129 208 159 123 209 159 123 208 158 122 208 158 122 
228 180 147 232 187 154 230 184 152 219 172 139 215 166 133 217 169 133 
223 176 141 228 183 151 229 183 152 229 183 152 237 192 160 244 199 167 
245 199 168 245 200 169 245 200 169 245 199 168 241 196 164 237 192 160 
241 196 164 240 197 164 236 192 159 240 197 164 245 199 168 235 189 158 
229 183 152 228 183 151 229 183 152 226 180 147 225 179 146 228 183 150 
232 187 154 238 194 161 236 192 160 237 193 161 235 189 158 232 187 154 
229 183 152 228 183 151 229 183 152 229 183 152 234 188 157 242 197 166 
241 196 164 236 192 160 231 185 152 232 187 154 232 187 154 236 191 159 
243 198 166 243 198 166 242 197 166 240 195 163 236 190 157 228 183 151 
227 181 147 228 182 149 233 188 157 233 188 156 218 169 134 208 158 122 
208 156 120 205 154 119 212 163 128 218 170 135 233 187 155 240 195 163 
238 191 159 224 176 142 216 168 135 220 171 137 222 175 139 228 183 151 
231 185 153 235 189 158 240 195 163 244 200 168 245 200 169 245 200 169 
245 199 168 244 199 167 241 197 165 243 198 166 242 197 166 238 193 161 
236 192 160 241 197 165 245 199 168 233 188 156 229 183 152 228 183 151 
229 183 152 232 186 154 228 183 151 232 186 154 237 192 160 242 197 166 
241 196 164 241 197 165 235 190 157 230 184 153 229 183 152 229 183 152 
229 183 152 229 183 152 235 189 158 244 199 167 240 194 163 236 190 158 
228 183 150 223 178 145 217 171 137 232 187 154 243 198 166 242 197 166 
241 197 165 237 192 159 235 190 157 228 183 151 227 182 149 228 183 151 
235 189 158 234 188 157 216 166 133 208 158 122 209 159 123 208 156 120 
221 172 138 237 190 158 243 198 166 245 200 167 236 192 161 234 188 155 
224 177 143 220 172 139 219 172 138 228 183 151 232 187 155 240 195 163 
242 197 166 245 199 168 246 201 169 245 201 168 243 198 166 236 192 160 
240 195 163 245 199 168 240 195 163 231 185 152 227 179 146 223 174 141 
234 188 155 236 191 159 230 184 153 228 183 151 229 183 152 235 189 158 
230 185 152 230 184 153 232 186 154 240 194 163 244 199 167 245 199 168 
240 195 162 230 184 153 229 184 152 228 183 151 229 183 152 228 183 151 
227 181 147 234 188 155 238 193 161 233 188 156 227 181 147 214 167 134 
202 151 114 232 187 153 239 193 162 239 193 162 241 197 165 240 194 163 
241 196 164 240 195 163 232 186 154 228 183 151 233 189 157 232 187 154 
218 171 136 210 160 124 209 159 123 207 157 122 226 178 144 243 196 166 
243 198 166 246 202 171 241 197 165 234 189 157 224 177 144 217 170 135 
218 171 135 228 183 151 232 187 155 234 188 156 232 186 153 235 189 157 
243 196 165 241 195 163 234 188 156 229 182 149 234 188 156 240 197 164 
232 187 153 218 170 135 211 160 126 209 160 123 221 173 139 234 188 157 
231 185 153 228 183 151 231 185 153 234 188 157 232 186 154 234 188 157 
235 189 158 241 196 164 243 198 166 242 197 166 237 192 159 228 183 151 
237 192 159 232 187 154 228 181 148 224 177 144 215 169 133 207 160 123 
223 178 144 224 178 145 215 167 132 206 156 122 210 164 129 222 176 142 
230 184 153 236 191 159 240 194 163 240 194 163 243 198 166 245 199 168 
233 189 157 229 183 152 236 190 158 236 192 159 231 185 152 216 166 133 
212 161 126 213 164 129 236 189 158 245 200 169 246 201 170 246 202 170 
239 194 162 220 175 141 223 177 144 222 176 142 223 177 143 228 182 150 
227 182 149 228 181 147 224 178 144 224 176 142 227 181 147 227 179 146 
226 179 145 225 177 143 227 179 146 229 181 148 216 168 134 208 158 122 
208 156 120 208 156 119 214 165 130 222 175 140 232 187 154 223 178 146 
219 172 139 236 190 157 239 193 162 243 198 166 242 197 166 244 199 167 
243 198 165 234 188 156 226 180 147 227 182 148 233 189 156 234 189 157 
238 193 160 237 192 160 230 185 151 223 178 145 210 163 127 205 158 122 
206 159 122 198 149 115 216 170 135 228 182 150 227 182 148 232 186 153 
236 190 157 240 195 163 241 197 165 241 196 164 229 184 152 226 180 147 
221 173 139 236 190 156 241 196 165 233 187 155 225 177 144 229 181 147 
244 198 167 242 198 167 214 176 152 240 196 164 229 183 150 212 166 130 
216 170 135 219 173 140 228 182 149 228 182 150 228 182 150 223 176 141 
221 173 139 219 172 138 217 169 135 219 172 138 224 176 141 224 176 142 
221 173 139 212 163 128 208 156 120 208 156 120 208 156 120 207 155 120 
212 160 126 205 155 120 218 170 136 212 161 128 219 172 139 241 196 164 
244 199 167 245 199 168 240 195 162 241 197 165 240 195 162 231 186 153 
222 177 143 223 178 146 228 183 151 231 187 153 236 191 159 236 192 160 
228 183 151 223 178 145 225 179 146 209 160 125 223 177 141 207 157 121 
202 151 116 224 177 144 223 178 145 222 175 140 222 175 141 236 192 160 
244 199 167 243 196 165 229 184 152 220 172 139 209 159 123 215 165 131 
237 190 158 244 199 168 241 197 165 243 198 167 239 193 162 192 153 127 
142 121 107 200 164 138 210 161 126 206 156 121 222 178 144 228 183 150 
230 185 151 228 183 151 228 183 151 224 177 144 220 173 140 226 179 145 
223 175 140 222 174 141 224 176 142 223 175 140 216 166 132 205 154 119 
205 154 118 208 156 120 206 155 119 206 155 119 210 160 125 204 154 119 
204 155 119 209 161 126 230 184 151 241 196 163 241 197 165 244 199 166 
239 193 161 240 194 163 237 193 160 233 188 156 233 188 156 232 187 154 
229 183 151 232 187 154 224 177 144 218 173 139 222 177 143 218 172 140 
225 179 146 225 178 145 232 187 155 217 171 135 189 137 100 193 143 107 
207 159 123 216 169 136 224 176 142 241 196 163 237 192 159 231 184 150 
222 175 140 219 172 138 207 158 122 205 155 118 219 171 137 223 176 142 
231 184 152 238 193 161 242 197 167 206 169 146 142 122 109 196 158 132 
197 146 109 205 155 121 224 177 145 225 179 147 232 187 154 228 183 151 
228 183 151 228 182 149 228 182 150 240 194 162 237 192 159 229 183 149 
221 173 139 221 171 137 211 162 127 204 154 118 210 160 126 211 162 127 
207 155 121 205 154 118 202 153 116 204 154 119 206 155 120 216 166 134 
232 187 154 240 195 163 241 197 165 245 199 168 244 199 167 243 198 166 
243 198 166 235 191 158 243 198 166 237 192 160 225 180 147 214 166 131 
201 153 117 209 161 126 215 168 134 206 158 122 202 154 118 232 187 154 
236 192 160 224 178 144 197 147 110 185 134 95 204 155 120 224 176 141 
234 188 154 236 190 157 227 180 148 222 174 141 213 164 128 218 172 138 
217 173 139 207 157 121 200 150 113 218 172 139 217 171 136 207 157 122 
217 169 134 224 177 147 208 169 145 225 179 147 194 143 105 199 150 114 
209 160 126 211 161 127 219 173 138 229 184 152 229 184 152 231 185 153 
236 191 159 244 199 167 244 199 167 238 193 160 224 176 141 219 171 135 
212 164 128 208 159 123 216 166 133 214 167 133 211 160 127 208 159 124 
194 144 107 206 155 119 208 157 121 219 171 135 233 188 154 239 193 161 
242 197 165 245 199 168 243 198 166 245 200 169 243 198 166 233 189 156 
231 187 153 230 185 152 222 178 144 211 161 127 217 171 137 216 170 134 
225 177 145 221 174 140 215 167 132 224 177 143 230 184 151 220 171 137 
206 156 121 203 154 118 207 158 122 209 159 123 216 167 133 219 171 137 
217 168 134 216 166 133 208 159 123 216 168 133 217 171 136 220 172 139 
224 177 145 223 178 145 217 172 137 200 149 114 203 155 119 220 173 140 
224 176 142 216 166 133 210 161 126 224 176 142 213 166 131 208 161 125 
208 160 124 226 182 148 231 187 153 235 191 158 241 196 164 244 199 167 
241 197 164 240 195 162 234 188 157 230 182 151 224 177 143 215 167 133 
216 168 135 216 168 134 215 166 132 201 153 116 192 143 105 213 165 130 
215 167 132 218 171 135 224 176 143 231 185 152 233 187 153 235 189 157 
239 193 162 243 198 166 237 193 160 230 185 152 226 182 148 226 182 148 
220 174 141 219 171 137 222 177 142 217 170 135 238 193 160 239 193 161 
238 192 160 234 188 155 218 173 138 216 166 133 204 156 120 207 157 121 
208 156 120 208 156 120 208 157 121 208 158 122 207 157 122 209 160 125 
209 160 124 213 164 129 222 176 141 227 182 148 230 183 151 224 179 145 
221 176 141 211 165 129 204 155 120 197 149 112 203 155 117 194 143 104 
190 138 101 208 160 124 227 182 148 206 158 121 202 151 115 226 181 148 
232 187 154 240 195 163 244 199 167 243 198 166 241 197 165 241 195 163 
240 195 163 239 193 161 236 190 158 224 176 143 217 169 135 212 164 129 
228 181 148 220 173 139 203 155 118 214 167 133 231 185 152 228 183 150 
223 177 143 237 192 159 236 190 157 226 180 146 229 183 151 232 187 155 
225 179 146 226 182 148 227 182 149 228 182 150 219 172 140 211 164 128 
211 164 130 199 150 113 233 187 153 245 199 168 245 199 168 244 199 167 
240 193 162 224 177 145 216 169 135 211 162 127 208 157 121 208 157 121 
208 156 120 208 156 120 208 156 120 210 160 125 212 161 127 215 166 132 
220 171 138 221 174 140 210 161 125 202 155 119 208 161 125 219 173 140 
212 166 130 190 140 103 182 131 91 195 146 108 190 140 102 202 154 117 
223 177 141 227 180 146 219 172 138 222 176 140 232 187 153 242 197 165 
245 200 169 244 199 167 240 194 163 235 188 157 238 193 161 237 192 160 
233 188 156 217 170 135 213 166 130 215 166 133 215 168 134 229 183 150 
239 193 161 237 192 159 230 184 152 225 180 146 220 171 138 228 183 149 
240 195 162 240 194 163 230 184 152 222 174 139 217 171 135 226 180 148 
223 177 144 222 175 142 212 166 131 216 170 135 213 166 130 207 159 123 
224 177 143 244 199 167 244 199 167 244 199 167 245 200 169 243 197 165 
233 187 154 217 169 134 211 160 125 208 156 120 208 156 120 208 156 120 
208 156 120 209 160 124 216 166 133 216 169 134 211 162 128 211 162 127 
205 158 122 211 162 129 207 157 121 207 157 122 216 170 135 214 168 134 
197 148 111 191 140 102 191 140 103 186 135 97 221 175 141 234 188 155 
217 169 134 219 172 138 230 184 152 240 195 163 244 199 167 241 197 165 
236 191 159 232 187 153 230 183 152 232 187 154 225 178 146 211 161 126 
206 159 123 219 172 139 226 179 146 232 186 154 236 190 158 239 193 161 
237 193 160 227 182 147 227 182 147 224 178 146 228 181 150 233 188 155 
224 178 145 225 179 146 224 178 146 222 176 142 210 160 124 202 154 119 
215 167 132 228 182 149 227 182 148 228 183 150 229 184 151 237 192 159 
238 192 160 241 196 164 244 198 166 244 199 167 242 197 166 232 187 153 
221 174 139 208 158 122 207 157 121 207 157 121 208 157 121 212 161 127 
222 174 140 219 172 138 210 160 125 207 158 122 222 175 139 234 186 154 
221 174 141 202 152 115 201 155 118 218 173 139 214 166 131 201 150 114 
194 142 105 182 130 91 203 155 119 211 160 126 214 166 130 228 181 146 
223 177 142 231 185 152 240 196 163 236 190 158 229 184 151 222 176 141 
218 172 137 215 165 132 214 166 131 214 167 133 214 167 133 230 183 152 
236 190 158 229 183 152 227 181 147 229 184 151 227 181 147 222 178 144 
226 179 146 227 182 148 228 182 150 229 183 152 232 186 154 235 191 158 
232 186 153 227 183 149 224 178 144 223 177 144 232 187 154 232 187 153 
231 185 152 231 185 152 227 180 147 228 180 147 228 180 147 232 185 152 
238 193 160 242 197 166 240 194 163 234 188 157 233 187 155 225 177 144 
212 163 127 210 160 125 213 164 128 222 174 140 227 182 149 226 181 147 
218 171 136 216 169 134 232 185 153 235 189 157 234 188 157 202 154 117 
211 162 127 209 163 127 214 167 132 201 150 115 196 147 109 193 142 105 
187 136 98 198 149 111 205 156 120 230 184 152 221 176 141 224 178 146 
238 193 161 232 187 154 223 178 146 202 152 116 194 143 107 200 149 113 
206 159 123 217 170 135 220 173 139 236 191 158 240 194 162 228 183 150 
214 166 131 220 173 140 228 183 150 221 175 139 227 180 148 228 183 151 
228 183 151 229 183 152 236 192 160 243 198 166 240 195 163 236 192 160 
241 197 165 242 197 166 241 196 164 235 190 157 232 187 154 228 182 148 
221 174 140 223 175 140 223 175 140 224 177 143 231 185 151 236 192 160 
236 192 160 232 187 154 232 188 156 237 192 159 225 177 145 220 171 138 
224 177 143 231 185 152 239 193 162 241 196 164 232 186 153 233 187 153 
234 188 157 236 190 159 228 182 150 209 161 126 214 167 132 225 179 144 
223 177 142 216 169 134 212 166 130 203 156 120 195 146 109 210 161 126 
203 155 118 225 179 146 226 180 147 228 181 147 235 189 157 229 183 151 
211 165 129 193 143 105 196 146 108 207 156 121 214 166 131 217 169 134 
219 172 138 217 170 134 223 176 141 214 166 131 201 154 116 209 161 126 
217 172 136 216 166 132 227 182 148 228 182 150 228 183 151 228 183 151 
236 192 160 243 198 166 245 199 168 242 197 166 244 199 167 244 199 167 
240 196 163 239 193 162 236 191 158 227 180 147 220 172 139 223 175 140 
223 175 140 223 175 140 229 181 147 234 189 156 237 192 160 233 188 156 
232 188 156 238 193 162 233 188 156 228 182 150 230 184 153 237 193 161 
246 201 169 246 202 170 245 199 169 240 194 163 236 192 160 231 184 151 
221 171 137 214 167 131 224 179 145 229 184 151 224 177 143 225 179 145 
223 177 142 211 165 130 208 161 126 209 161 127 193 142 105 209 160 125 
208 160 125 232 187 153 233 187 154 224 176 143 215 168 134 211 164 127 
206 159 122 219 171 135 219 171 136 213 166 130 206 159 122 206 159 121 
203 155 117 212 166 130 211 164 127 201 151 113 210 160 124 215 167 131 
217 171 136 227 182 149 228 183 151 228 183 151 232 186 154 236 191 159 
243 198 166 240 195 163 236 191 159 237 193 160 235 190 157 238 193 161 
237 193 160 229 183 150 222 174 140 223 175 140 223 175 140 224 176 141 
228 181 147 237 192 159 239 193 162 236 192 160 230 185 152 232 187 154 
233 189 157 231 187 153 235 190 157 238 193 161 245 199 168 245 200 169 
241 197 164 239 193 162 231 184 151 214 166 131 199 150 113 222 178 143 
227 183 149 229 184 152 231 185 152 233 186 152 234 189 156 236 190 157 
223 177 143 210 164 129 218 173 139 206 159 125 198 150 113 229 183 150 
236 189 158 220 174 140 223 178 144 227 183 149 220 173 139 221 174 140 
219 172 139 213 165 129 206 155 119 204 155 120 206 158 121 216 169 134 
211 164 127 202 153 115 214 166 130 207 158 122 213 165 129 226 180 147 
228 182 150 227 181 147 227 182 149 229 184 152 232 188 155 236 192 160 
236 192 160 232 187 154 232 186 154 231 187 154 231 187 153 229 183 151 
224 177 145 224 176 143 224 176 142 227 180 146 228 181 147 239 193 162 
240 197 165 238 193 161 232 187 155 232 187 154 240 194 163 241 197 165 
236 192 160 241 196 164 242 197 166 241 197 165 237 193 160 235 188 155 
213 166 131 201 154 117 219 173 138 230 183 150 220 171 137 226 180 148 
237 192 160 238 192 159 240 193 160 241 196 164 232 186 154 224 179 147 
221 175 141 228 182 149 201 151 115 208 161 124 233 187 153 232 187 152 
233 188 154 233 188 155 232 187 151 227 181 145 220 173 139 212 164 127 
211 162 127 213 165 130 216 166 133 220 172 138 210 163 127 199 149 111 
212 164 127 209 160 124 215 168 133 226 181 148 231 186 152 232 187 153 
226 182 148 228 183 151 234 188 156 243 198 166 245 200 169 240 194 163 
235 191 158 232 186 154 230 185 152 232 186 154 227 182 148 229 183 150 
232 187 154 238 192 159 241 195 163 245 200 169 245 200 169 241 196 164 
232 188 155 237 193 160 245 199 168 245 199 168 236 192 160 233 189 156 
236 191 159 240 195 162 237 192 157 234 189 154 215 167 129 216 169 132 
243 198 165 218 170 134 208 158 122 218 170 135 237 193 159 240 195 161 
238 194 160 232 187 154 223 178 146 221 176 142 221 176 141 231 185 151 
222 177 142 212 166 130 219 172 139 225 180 144 235 190 157 237 192 159 
238 194 160 238 194 157 219 171 135 222 176 141 219 171 136 214 166 131 
217 169 134 222 174 140 227 181 146 198 150 112 202 153 115 211 165 128 
213 166 128 222 178 143 223 177 142 220 174 141 220 174 139 224 178 146 
234 188 157 245 199 168 245 200 169 241 197 165 234 189 157 232 187 154 
230 185 152 233 189 157 229 184 152 227 183 150 233 189 156 240 195 163 
244 199 167 245 200 169 245 199 168 236 192 160 232 187 154 241 196 164 
244 200 168 245 200 169 240 194 163 230 185 152 230 185 152 232 186 151 
232 186 150 227 182 143 224 179 140 232 187 150 244 200 166 229 182 148 
212 163 127 229 181 147 242 197 165 243 198 165 242 198 165 241 196 164 
234 189 156 232 188 154 232 187 153 229 184 152 224 179 145 220 173 139 
223 177 142 228 182 149 232 188 155 235 189 157 235 191 156 238 194 158 
232 186 150 228 182 149 221 175 141 216 169 134 221 173 139 223 175 141 
228 181 147 224 179 144 220 174 140 221 176 141 220 174 139 219 172 135 
211 162 124 211 164 128 218 172 137 216 169 135 223 178 144 242 197 166 
245 200 167 243 198 166 236 191 159 233 188 156 231 187 154 234 189 157 
229 184 152 227 183 150 228 183 151 232 188 155 236 191 159 238 193 161 
235 190 157 228 183 151 230 185 152 238 193 161 244 199 167 245 199 168 
239 193 161 229 184 152 229 184 150 223 178 139 220 176 135 214 167 128 
214 167 131 227 183 146 241 197 164 244 199 166 241 194 162 243 199 166 
245 199 168 245 199 167 241 197 164 239 193 161 208 160 125 221 174 141 
230 184 152 222 178 145 224 178 147 227 183 149 227 182 148 227 183 150 
231 185 153 233 189 156 234 189 156 234 189 155 226 183 147 226 180 146 
219 173 140 224 178 145 226 178 146 229 181 147 236 191 158 235 189 158 
231 186 153 231 187 153 231 187 153 222 177 139 219 174 138 226 181 147 
227 182 148 218 172 140 210 164 127 236 191 158 242 197 166 241 196 164 
232 188 155 236 190 158 239 194 162 238 194 161 230 185 152 227 183 150 
230 185 152 232 188 155 234 189 157 233 188 156 230 185 152 228 182 149 
229 184 152 238 193 160 239 194 161 235 190 155 232 188 151 233 189 152 
228 184 145 228 184 145 219 174 135 210 161 124 208 159 123 215 168 131 
236 191 158 244 199 167 244 199 167 245 199 168 245 199 168 244 199 166 
243 198 166 240 194 162 199 150 113 203 155 121 223 177 144 215 170 136 
220 175 142 227 182 149 229 184 151 231 185 153 236 192 159 239 194 162 
240 194 163 241 196 163 238 194 161 241 197 165 237 192 159 222 177 140 
232 186 153 234 188 157 237 192 160 236 192 160 234 189 157 235 190 157 
235 191 158 226 181 147 221 177 141 221 176 142 227 181 146 226 180 147 
225 179 145 240 194 162 238 192 159 238 193 161 235 191 158 238 193 161 
241 197 164 236 191 159 230 184 153 229 183 152 231 186 153 231 187 153 
231 186 153 230 184 152 226 182 148 227 182 149 227 182 148 234 189 156 
232 188 154 223 178 141 228 183 147 230 185 147 225 181 143 225 181 142 
214 167 129 209 160 124 208 158 122 214 167 133 231 186 152 240 196 163 
243 198 166 243 198 166 242 197 165 237 192 159 236 191 159 237 192 159 
218 173 139 213 166 132 218 172 138 217 172 138 219 174 141 225 180 147 
227 182 149 232 188 154 241 196 164 243 198 166 244 199 167 245 199 168 
245 199 168 245 200 169 242 197 166 229 184 151 231 185 152 230 185 152 
230 184 153 232 187 155 238 193 161 239 193 162 232 188 155 222 176 140 
221 176 141 222 176 142 224 179 147 228 182 150 226 180 147 230 185 151 
237 192 159 239 196 162 240 197 164 241 197 165 238 192 159 230 182 148 
227 182 149 228 182 150 227 182 149 229 184 152 228 183 151 222 178 145 
226 182 147 227 182 149 225 179 146 222 176 140 228 184 147 222 177 138 
227 183 145 222 178 139 221 177 136 222 176 138 214 168 130 212 166 128 
213 166 129 222 177 143 232 186 152 239 194 162 241 197 164 239 193 161 
230 184 152 227 181 147 226 179 145 232 187 154 227 183 150 222 177 144 
220 175 142 225 180 147 226 181 148 226 181 148 225 180 147 232 186 153 
240 194 163 244 199 167 245 199 168 245 199 167 244 199 167 245 199 168 
242 197 166 228 183 150 218 173 139 228 182 147 231 185 153 228 183 151 
235 190 157 242 197 166 233 188 156 225 180 146 227 182 149 227 182 149 
227 182 148 226 180 148 223 176 142 232 187 153 240 196 162 237 193 160 
233 189 156 237 192 160 229 183 150 228 179 145 229 183 151 227 181 148 
227 181 148 231 186 152 232 188 154 228 182 148 228 182 149 228 182 150 
226 180 148 219 171 136 217 173 138 220 175 136 220 176 134 212 166 127 
211 165 125 222 179 140 229 184 150 235 188 155 223 177 141 218 173 138 
224 177 145 237 192 158 239 193 161 224 177 143 217 171 135 219 174 139 
221 176 140 227 182 148 224 178 146 227 182 149 225 179 146 227 183 150 
227 182 149 227 182 149 226 182 148 231 185 153 240 195 163 244 199 167 
245 200 169 245 200 169 240 195 163 239 193 162 243 198 166 236 192 160 
229 184 150 238 193 158 237 192 159 228 183 151 235 189 157 236 192 160 
230 187 152 227 183 150 228 183 151 228 183 150 227 182 148 224 178 147 
218 173 139 222 178 143 235 191 158 237 192 158 231 187 153 232 186 154 
221 173 140 240 193 161 239 193 162 237 192 159 239 194 162 237 192 159 
232 188 153 227 181 146 227 182 149 224 177 144 219 172 138 214 166 131 
216 166 131 222 175 138 224 178 141 204 158 120 205 156 117 227 182 148 
238 193 160 245 198 167 232 186 152 218 172 137 221 175 141 233 187 153 
231 187 151 213 165 130 214 167 133 219 174 140 220 175 140 225 180 147 
234 189 157 242 197 166 241 196 164 229 183 152 227 182 149 227 182 149 
228 183 151 236 192 159 242 197 166 243 198 166 244 198 166 240 197 164 
224 178 145 227 181 145 228 183 149 236 190 157 232 186 153 231 187 152 
232 187 152 229 184 150 232 187 151 231 186 151 228 183 150 228 183 151 
228 183 151 228 182 150 225 179 147 214 168 133 214 168 133 219 174 139 
227 181 146 228 183 151 225 179 147 222 174 142 227 180 148 235 188 157 
241 197 165 245 199 168 241 197 165 241 197 165 230 184 152 218 173 140 
218 172 137 215 166 133 215 166 132 210 163 128 215 167 129 220 172 138 
226 179 146 223 177 143 223 177 141 228 183 150 234 188 157 240 197 164 
235 191 158 226 182 147 227 181 146 228 183 150 223 177 143 223 177 143 
229 184 151 229 183 152 224 180 145 230 187 153 242 197 166 245 200 169 
245 199 168 228 183 151 227 183 149 226 183 149 227 183 150 233 189 156 
239 193 161 233 187 154 232 185 152 228 183 149 213 166 131 213 166 129 
212 166 129 208 161 123 220 174 138 227 182 148 227 183 148 227 183 146 
228 183 149 229 184 151 227 183 150 228 183 151 228 183 151 228 182 150 
223 177 145 208 161 126 203 156 121 207 161 125 212 166 130 217 170 136 
216 170 135 205 159 124 212 165 131 222 175 142 241 197 165 239 193 162 
228 182 147 236 189 156 224 176 143 203 156 121 207 159 123 212 164 129 
211 163 127 211 162 126 215 167 131 220 173 136 226 180 146 228 182 149 
230 185 151 228 182 149 231 185 152 236 192 160 239 194 162 231 186 152 
225 180 145 227 181 145 222 177 139 230 185 151 229 185 151 227 183 150 
227 184 150 233 190 156 243 198 166 245 200 169 245 200 169 226 184 149 
228 184 151 227 184 150 227 182 149 229 184 152 232 186 154 221 174 139 
219 173 138 225 180 147 222 176 140 222 177 141 222 177 140 220 174 139 
222 177 141 226 180 144 228 183 148 228 184 147 229 184 151 228 183 151 
227 183 149 228 183 150 227 183 150 227 182 148 220 174 141 210 165 129 
211 165 129 212 166 131 212 166 131 208 160 127 218 171 137 229 183 150 
223 175 141 220 171 138 233 187 155 237 192 159 227 179 146 232 186 153 
213 166 132 199 150 113 201 151 115 204 155 120 207 159 123 213 165 127 
218 170 132 222 174 136 232 185 149 228 183 147 228 183 148 232 187 154 
238 193 160 240 196 163 237 192 159 222 177 140 218 174 137 228 184 147 
227 183 146 232 189 155 235 191 158 235 190 157 234 189 157 236 193 159 
243 199 166 245 200 169 245 200 169 
