P3
# CREATOR: GIMP PNM Filter Version 1.1
64 64
255
122 122 122 128 128 128 138 138 138 148 148 148 158 158 158 163 163 163 
165 165 165 162 162 162 157 157 157 149 149 149 141 141 141 134 134 134 
130 130 130 129 129 129 129 129 129 129 129 129 126 126 126 117 117 117 
104 104 104 91 91 91 80 80 80 73 73 73 71 71 71 74 74 74 82 82 82 94 94 94 
106 106 106 117 117 117 124 124 124 127 127 127 128 128 128 126 126 126 
126 126 126 121 121 121 114 114 114 108 108 108 102 102 102 100 100 100 
101 101 101 104 104 104 106 106 106 107 107 107 107 107 107 106 106 106 
105 105 105 106 106 106 109 109 109 116 116 116 127 127 127 141 141 141 
154 154 154 164 164 164 170 170 170 171 171 171 169 169 169 164 164 164 
158 158 158 152 152 152 145 145 145 138 138 138 132 132 132 127 127 127 
124 124 124 122 122 122 105 105 105 110 110 110 120 120 120 132 132 132 
142 142 142 150 150 150 153 153 153 153 153 153 149 149 149 143 143 143 
137 137 137 132 132 132 130 130 130 132 132 132 133 133 133 135 135 135 
132 132 132 123 123 123 111 111 111 99 99 99 89 89 89 82 82 82 79 79 79 
82 82 82 90 90 90 101 101 101 112 112 112 121 121 121 127 127 127 130 130 130 
130 130 130 129 129 129 129 129 129 125 125 125 119 119 119 112 112 112 
108 108 108 105 105 105 105 105 105 107 107 107 110 110 110 110 110 110 
108 108 108 105 105 105 103 103 103 102 102 102 104 104 104 109 109 109 
121 121 121 135 135 135 149 149 149 162 162 162 171 171 171 175 175 175 
175 175 175 172 172 172 166 166 166 158 158 158 148 148 148 137 137 137 
127 127 127 118 118 118 110 110 110 106 106 106 91 91 91 95 95 95 103 103 103 
112 112 112 123 123 123 131 131 131 136 136 136 138 138 138 136 136 136 
132 132 132 129 129 129 127 127 127 127 127 127 130 130 130 133 133 133 
135 135 135 134 134 134 127 127 127 117 117 117 107 107 107 98 98 98 92 92 92 
88 88 88 91 91 91 98 98 98 108 108 108 117 117 117 124 124 124 129 129 129 
132 132 132 133 133 133 133 133 133 134 134 134 132 132 132 127 127 127 
122 122 122 117 117 117 115 115 115 115 115 115 116 116 116 118 118 118 
118 118 118 115 115 115 111 111 111 106 106 106 103 103 103 103 103 103 
106 106 106 115 115 115 129 129 129 145 145 145 159 159 159 171 171 171 
179 179 179 181 181 181 180 180 180 174 174 174 165 165 165 152 152 152 
139 139 139 125 125 125 112 112 112 101 101 101 94 94 94 81 81 81 81 81 81 
87 87 87 94 94 94 103 103 103 111 111 111 118 118 118 122 122 122 122 122 122 
120 120 120 119 119 119 119 119 119 121 121 121 124 124 124 129 129 129 
132 132 132 131 131 131 127 127 127 120 120 120 113 113 113 106 106 106 
100 100 100 97 97 97 99 99 99 105 105 105 112 112 112 119 119 119 125 125 125 
130 130 130 133 133 133 136 136 136 139 139 139 141 141 141 142 142 142 
138 138 138 135 135 135 130 130 130 128 128 128 127 127 127 128 128 128 
130 130 130 129 129 129 126 126 126 120 120 120 114 114 114 109 109 109 
105 105 105 106 106 106 113 113 113 126 126 126 141 141 141 157 157 157 
170 170 170 180 180 180 185 185 185 185 185 185 179 179 179 170 170 170 
157 157 157 142 142 142 126 126 126 110 110 110 96 96 96 86 86 86 75 75 75 
73 73 73 74 74 74 79 79 79 85 85 85 93 93 93 101 101 101 107 107 107 
109 109 109 110 110 110 110 110 110 110 110 110 113 113 113 116 116 116 
121 121 121 125 125 125 126 126 126 124 124 124 121 121 121 117 117 117 
112 112 112 107 107 107 104 104 104 104 104 104 108 108 108 113 113 113 
119 119 119 123 123 123 128 128 128 133 133 133 138 138 138 144 144 144 
150 150 150 152 152 152 151 151 151 147 147 147 144 144 144 142 142 142 
140 140 140 141 141 141 142 142 142 142 142 142 138 138 138 133 133 133 
126 126 126 119 119 119 113 113 113 112 112 112 117 117 117 128 128 128 
141 141 141 156 156 156 169 169 169 180 180 180 186 186 186 186 186 186 
181 181 181 171 171 171 159 159 159 144 144 144 128 128 128 112 112 112 
95 95 95 83 83 83 76 76 76 69 69 69 67 67 67 68 68 68 71 71 71 79 79 79 
87 87 87 95 95 95 99 99 99 101 101 101 102 102 102 102 102 102 104 104 104 
108 108 108 112 112 112 115 115 115 118 118 118 119 119 119 119 119 119 
118 118 118 115 115 115 111 111 111 107 107 107 105 105 105 108 108 108 
111 111 111 115 115 115 119 119 119 124 124 124 131 131 131 139 139 139 
148 148 148 156 156 156 161 161 161 161 161 161 160 160 160 157 157 157 
155 155 155 153 153 153 152 152 152 154 154 154 155 155 155 152 152 152 
147 147 147 141 141 141 133 133 133 127 127 127 123 123 123 126 126 126 
133 133 133 144 144 144 155 155 155 167 167 167 176 176 176 181 181 181 
181 181 181 176 176 176 167 167 167 157 157 157 145 145 145 130 130 130 
114 114 114 98 98 98 84 84 84 79 79 79 69 69 69 63 63 63 60 60 60 62 62 62 
69 69 69 77 77 77 87 87 87 93 93 93 95 95 95 95 95 95 95 95 95 96 96 96 
98 98 98 101 101 101 106 106 106 109 109 109 112 112 112 116 116 116 
116 116 116 114 114 114 111 111 111 107 107 107 104 104 104 104 104 104 
106 106 106 107 107 107 112 112 112 118 118 118 127 127 127 138 138 138 
150 150 150 160 160 160 166 166 166 169 169 169 168 168 168 167 167 167 
165 165 165 163 163 163 162 162 162 164 164 164 165 165 165 165 165 165 
162 162 162 156 156 156 149 149 149 141 141 141 137 137 137 138 138 138 
142 142 142 149 149 149 156 156 156 164 164 164 170 170 170 173 173 173 
172 172 172 167 167 167 160 160 160 153 153 153 144 144 144 132 132 132 
119 119 119 104 104 104 89 89 89 83 83 83 71 71 71 63 63 63 58 58 58 58 58 58 
63 63 63 72 72 72 82 82 82 89 89 89 91 91 91 91 91 91 91 91 91 90 90 90 
91 91 91 93 93 93 97 97 97 102 102 102 107 107 107 112 112 112 114 114 114 
112 112 112 108 108 108 103 103 103 98 98 98 98 98 98 98 98 98 99 99 99 
103 103 103 110 110 110 120 120 120 134 134 134 148 148 148 160 160 160 
167 167 167 172 172 172 172 172 172 171 171 171 169 169 169 168 168 168 
168 168 168 170 170 170 173 173 173 174 174 174 173 173 173 169 169 169 
163 163 163 157 157 157 153 153 153 151 151 151 153 153 153 155 155 155 
158 158 158 161 161 161 163 163 163 164 164 164 162 162 162 156 156 156 
151 151 151 147 147 147 141 141 141 133 133 133 122 122 122 109 109 109 
95 95 95 87 87 87 74 74 74 64 64 64 58 58 58 58 58 58 63 63 63 72 72 72 
81 81 81 88 88 88 91 91 91 90 90 90 88 88 88 87 87 87 87 87 87 89 89 89 
93 93 93 99 99 99 105 105 105 110 110 110 111 111 111 109 109 109 103 103 103 
97 97 97 92 92 92 90 90 90 90 90 90 91 91 91 95 95 95 101 101 101 112 112 112 
126 126 126 141 141 141 154 154 154 162 162 162 168 168 168 170 170 170 
170 170 170 169 169 169 167 167 167 168 168 168 171 171 171 175 175 175 
178 178 178 179 179 179 178 178 178 174 174 174 169 169 169 164 164 164 
162 162 162 161 161 161 160 160 160 160 160 160 159 159 159 158 158 158 
156 156 156 153 153 153 148 148 148 144 144 144 141 141 141 138 138 138 
133 133 133 124 124 124 113 113 113 99 99 99 88 88 88 75 75 75 65 65 65 
59 59 59 59 59 59 64 64 64 73 73 73 83 83 83 90 90 90 92 92 92 90 90 90 
88 88 88 85 85 85 84 84 84 86 86 86 90 90 90 95 95 95 102 102 102 106 106 106 
107 107 107 105 105 105 99 99 99 93 93 93 88 88 88 87 87 87 86 86 86 87 87 87 
91 91 91 97 97 97 108 108 108 121 121 121 135 135 135 148 148 148 157 157 157 
163 163 163 167 167 167 167 167 167 167 167 167 166 166 166 166 166 166 
168 168 168 173 173 173 178 178 178 182 182 182 183 183 183 182 182 182 
179 179 179 175 175 175 173 173 173 170 170 170 167 167 167 163 163 163 
160 160 160 156 156 156 153 153 153 149 149 149 144 144 144 141 141 141 
140 140 140 138 138 138 134 134 134 126 126 126 115 115 115 101 101 101 
90 90 90 76 76 76 65 65 65 60 60 60 59 59 59 65 65 65 75 75 75 84 84 84 
92 92 92 94 94 94 92 92 92 90 90 90 86 86 86 84 84 84 83 83 83 86 86 86 
92 92 92 97 97 97 101 101 101 101 101 101 100 100 100 96 96 96 91 91 91 
88 88 88 87 87 87 87 87 87 88 88 88 91 91 91 97 97 97 107 107 107 119 119 119 
132 132 132 146 146 146 156 156 156 163 163 163 167 167 167 168 168 168 
167 167 167 165 165 165 165 165 165 166 166 166 170 170 170 176 176 176 
182 182 182 186 186 186 187 187 187 186 186 186 184 184 184 181 181 181 
177 177 177 172 172 172 166 166 166 161 161 161 156 156 156 152 152 152 
148 148 148 145 145 145 143 143 143 143 143 143 141 141 141 136 136 136 
129 129 129 117 117 117 104 104 104 93 93 93 78 78 78 66 66 66 60 60 60 
59 59 59 65 65 65 74 74 74 85 85 85 92 92 92 95 95 95 94 94 94 92 92 92 
88 88 88 85 85 85 83 83 83 83 83 83 88 88 88 93 93 93 95 95 95 97 97 97 
96 96 96 94 94 94 91 91 91 90 90 90 90 90 90 91 91 91 92 92 92 94 94 94 
100 100 100 108 108 108 119 119 119 131 131 131 143 143 143 155 155 155 
163 163 163 169 169 169 171 171 171 170 170 170 167 167 167 165 165 165 
164 164 164 167 167 167 172 172 172 179 179 179 184 184 184 188 188 188 
189 189 189 188 188 188 185 185 185 179 179 179 173 173 173 167 167 167 
161 161 161 157 157 157 153 153 153 150 150 150 148 148 148 147 147 147 
148 148 148 147 147 147 142 142 142 133 133 133 121 121 121 107 107 107 
97 97 97 81 81 81 69 69 69 61 61 61 59 59 59 63 63 63 72 72 72 83 83 83 
91 91 91 95 95 95 96 96 96 95 95 95 92 92 92 89 89 89 86 86 86 85 85 85 
88 88 88 91 91 91 93 93 93 94 94 94 94 94 94 94 94 94 94 94 94 94 94 94 
95 95 95 96 96 96 97 97 97 99 99 99 103 103 103 111 111 111 120 120 120 
130 130 130 143 143 143 154 154 154 165 165 165 172 172 172 175 175 175 
175 175 175 171 171 171 167 167 167 164 164 164 165 165 165 169 169 169 
174 174 174 180 180 180 184 184 184 186 186 186 185 185 185 181 181 181 
175 175 175 169 169 169 163 163 163 158 158 158 155 155 155 153 153 153 
153 153 153 152 152 152 153 153 153 155 155 155 153 153 153 148 148 148 
139 139 139 126 126 126 111 111 111 103 103 103 86 86 86 72 72 72 62 62 62 
59 59 59 61 61 61 70 70 70 80 80 80 88 88 88 94 94 94 97 97 97 99 99 99 
97 97 97 95 95 95 92 92 92 91 91 91 93 93 93 95 95 95 95 95 95 94 94 94 
94 94 94 95 95 95 96 96 96 99 99 99 101 101 101 102 102 102 103 103 103 
105 105 105 107 107 107 112 112 112 119 119 119 129 129 129 140 140 140 
154 154 154 166 166 166 176 176 176 180 180 180 180 180 180 177 177 177 
171 171 171 166 166 166 164 164 164 165 165 165 168 168 168 172 172 172 
175 175 175 176 176 176 176 176 176 171 171 171 165 165 165 159 159 159 
154 154 154 151 151 151 151 151 151 152 152 152 154 154 154 156 156 156 
158 158 158 160 160 160 160 160 160 155 155 155 146 146 146 133 133 133 
117 117 117 110 110 110 92 92 92 76 76 76 64 64 64 58 58 58 59 59 59 65 65 65 
74 74 74 84 84 84 92 92 92 98 98 98 103 103 103 105 105 105 104 104 104 
102 102 102 101 101 101 102 102 102 101 101 101 100 100 100 98 98 98 97 97 97 
97 97 97 99 99 99 102 102 102 105 105 105 106 106 106 107 107 107 108 108 108 
109 109 109 113 113 113 118 118 118 126 126 126 138 138 138 152 152 152 
167 167 167 178 178 178 184 184 184 186 186 186 182 182 182 175 175 175 
168 168 168 164 164 164 161 161 161 161 161 161 162 162 162 162 162 162 
162 162 162 160 160 160 155 155 155 149 149 149 144 144 144 142 142 142 
142 142 142 144 144 144 149 149 149 153 153 153 157 157 157 161 161 161 
164 164 164 165 165 165 161 161 161 153 153 153 140 140 140 125 125 125 
117 117 117 99 99 99 80 80 80 66 66 66 58 58 58 57 57 57 62 62 62 72 72 72 
81 81 81 91 91 91 101 101 101 108 108 108 113 113 113 115 115 115 115 115 115 
114 114 114 115 115 115 113 113 113 109 109 109 105 105 105 102 102 102 
101 101 101 102 102 102 105 105 105 107 107 107 108 108 108 108 108 108 
109 109 109 109 109 109 111 111 111 115 115 115 122 122 122 133 133 133 
149 149 149 165 165 165 179 179 179 187 187 187 189 189 189 186 186 186 
179 179 179 170 170 170 163 163 163 157 157 157 153 153 153 151 151 151 
148 148 148 146 146 146 142 142 142 137 137 137 131 131 131 127 127 127 
127 127 127 129 129 129 135 135 135 141 141 141 148 148 148 153 153 153 
159 159 159 165 165 165 167 167 167 165 165 165 158 158 158 147 147 147 
132 132 132 123 123 123 104 104 104 85 85 85 70 70 70 61 61 61 58 58 58 
63 63 63 72 72 72 81 81 81 93 93 93 105 105 105 115 115 115 123 123 123 
127 127 127 129 129 129 129 129 129 130 130 130 127 127 127 121 121 121 
114 114 114 108 108 108 105 105 105 103 103 103 104 104 104 106 106 106 
106 106 106 106 106 106 105 105 105 105 105 105 106 106 106 109 109 109 
116 116 116 127 127 127 143 143 143 160 160 160 175 175 175 185 185 185 
189 189 189 186 186 186 179 179 179 170 170 170 161 161 161 153 153 153 
146 146 146 140 140 140 135 135 135 132 132 132 127 127 127 121 121 121 
115 115 115 112 112 112 112 112 112 116 116 116 122 122 122 130 130 130 
138 138 138 144 144 144 152 152 152 159 159 159 165 165 165 165 165 165 
161 161 161 151 151 151 138 138 138 127 127 127 109 109 109 91 91 91 77 77 77 
67 67 67 65 65 65 68 68 68 76 76 76 86 86 86 98 98 98 111 111 111 123 123 123 
133 133 133 140 140 140 144 144 144 146 146 146 148 148 148 145 145 145 
137 137 137 128 128 128 119 119 119 112 112 112 108 108 108 106 106 106 
107 107 107 106 106 106 104 104 104 102 102 102 100 100 100 99 99 99 100 100 100 
105 105 105 116 116 116 132 132 132 150 150 150 166 166 166 179 179 179 
184 184 184 185 185 185 179 179 179 171 171 171 160 160 160 151 151 151 
142 142 142 134 134 134 128 128 128 122 122 122 116 116 116 111 111 111 
105 105 105 103 103 103 103 103 103 106 106 106 113 113 113 120 120 120 
128 128 128 136 136 136 144 144 144 153 153 153 160 160 160 162 162 162 
160 160 160 153 153 153 140 140 140 129 129 129 113 113 113 98 98 98 85 85 85 
77 77 77 74 74 74 77 77 77 83 83 83 92 92 92 104 104 104 117 117 117 
129 129 129 141 141 141 150 150 150 158 158 158 163 163 163 166 166 166 
163 163 163 154 154 154 143 143 143 133 133 133 123 123 123 116 116 116 
112 112 112 111 111 111 110 110 110 106 106 106 101 101 101 96 96 96 92 92 92 
91 91 91 94 94 94 102 102 102 118 118 118 136 136 136 154 154 154 169 169 169 
178 178 178 181 181 181 179 179 179 171 171 171 162 162 162 151 151 151 
140 140 140 131 131 131 123 123 123 117 117 117 111 111 111 106 106 106 
103 103 103 100 100 100 100 100 100 103 103 103 109 109 109 115 115 115 
124 124 124 131 131 131 140 140 140 149 149 149 155 155 155 158 158 158 
156 156 156 150 150 150 140 140 140 127 127 127 116 116 116 104 104 104 
94 94 94 87 87 87 84 84 84 85 85 85 91 91 91 98 98 98 108 108 108 120 120 120 
132 132 132 145 145 145 157 157 157 167 167 167 174 174 174 180 180 180 
177 177 177 170 170 170 159 159 159 146 146 146 136 136 136 126 126 126 
121 121 121 119 119 119 115 115 115 110 110 110 102 102 102 95 95 95 88 88 88 
84 84 84 84 84 84 91 91 91 104 104 104 123 123 123 141 141 141 157 157 157 
169 169 169 175 175 175 176 176 176 171 171 171 161 161 161 150 150 150 
140 140 140 130 130 130 121 121 121 115 115 115 110 110 110 107 107 107 
104 104 104 103 103 103 103 103 103 105 105 105 109 109 109 115 115 115 
123 123 123 131 131 131 139 139 139 147 147 147 151 151 151 153 153 153 
151 151 151 145 145 145 137 137 137 125 125 125 117 117 117 109 109 109 
102 102 102 97 97 97 93 93 93 93 93 93 96 96 96 101 101 101 109 109 109 
119 119 119 131 131 131 144 144 144 157 157 157 169 169 169 180 180 180 
187 187 187 187 187 187 181 181 181 170 170 170 159 159 159 146 146 146 
136 136 136 129 129 129 126 126 126 122 122 122 116 116 116 107 107 107 
97 97 97 88 88 88 81 81 81 79 79 79 84 84 84 95 95 95 111 111 111 129 129 129 
145 145 145 158 158 158 166 166 166 169 169 169 165 165 165 158 158 158 
148 148 148 138 138 138 128 128 128 121 121 121 115 115 115 112 112 112 
111 111 111 110 110 110 109 109 109 108 108 108 110 110 110 113 113 113 
119 119 119 126 126 126 134 134 134 141 141 141 146 146 146 149 149 149 
148 148 148 144 144 144 138 138 138 131 131 131 120 120 120 116 116 116 
112 112 112 108 108 108 103 103 103 100 100 100 98 98 98 98 98 98 102 102 102 
108 108 108 115 115 115 126 126 126 138 138 138 152 152 152 166 166 166 
178 178 178 188 188 188 190 190 190 186 186 186 178 178 178 167 167 167 
156 156 156 146 146 146 137 137 137 133 133 133 129 129 129 122 122 122 
114 114 114 103 103 103 93 93 93 84 84 84 79 79 79 82 82 82 91 91 91 104 104 104 
118 118 118 133 133 133 145 145 145 154 154 154 158 158 158 157 157 157 
151 151 151 143 143 143 134 134 134 126 126 126 120 120 120 116 116 116 
115 115 115 116 116 116 117 117 117 116 116 116 116 116 116 118 118 118 
120 120 120 124 124 124 131 131 131 138 138 138 145 145 145 147 147 147 
146 146 146 143 143 143 137 137 137 130 130 130 124 124 124 115 115 115 
114 114 114 113 113 113 111 111 111 107 107 107 103 103 103 99 99 99 96 96 96 
99 99 99 103 103 103 108 108 108 116 116 116 128 128 128 142 142 142 
158 158 158 172 172 172 183 183 183 187 187 187 186 186 186 180 180 180 
171 171 171 162 162 162 151 151 151 144 144 144 139 139 139 135 135 135 
129 129 129 120 120 120 110 110 110 100 100 100 91 91 91 85 85 85 86 86 86 
91 91 91 100 100 100 110 110 110 121 121 121 131 131 131 139 139 139 
144 144 144 145 145 145 141 141 141 134 134 134 127 127 127 122 122 122 
118 118 118 117 117 117 118 118 118 121 121 121 123 123 123 124 124 124 
124 124 124 125 125 125 127 127 127 131 131 131 137 137 137 145 145 145 
149 149 149 149 149 149 145 145 145 139 139 139 130 130 130 123 123 123 
117 117 117 111 111 111 112 112 112 112 112 112 111 111 111 107 107 107 
101 101 101 95 95 95 91 91 91 91 91 91 94 94 94 98 98 98 106 106 106 
116 116 116 131 131 131 146 146 146 163 163 163 175 175 175 181 181 181 
181 181 181 178 178 178 171 171 171 163 163 163 154 154 154 147 147 147 
142 142 142 138 138 138 133 133 133 126 126 126 118 118 118 108 108 108 
99 99 99 93 93 93 92 92 92 95 95 95 99 99 99 105 105 105 112 112 112 
118 118 118 125 125 125 129 129 129 130 130 130 128 128 128 123 123 123 
119 119 119 115 115 115 114 114 114 116 116 116 119 119 119 124 124 124 
127 127 127 129 129 129 130 130 130 131 131 131 133 133 133 136 136 136 
142 142 142 150 150 150 153 153 153 150 150 150 144 144 144 135 135 135 
126 126 126 118 118 118 112 112 112 110 110 110 111 111 111 111 111 111 
108 108 108 102 102 102 95 95 95 88 88 88 82 82 82 82 82 82 85 85 85 88 88 88 
95 95 95 106 106 106 120 120 120 137 137 137 154 154 154 167 167 167 
174 174 174 176 176 176 173 173 173 168 168 168 160 160 160 152 152 152 
144 144 144 140 140 140 137 137 137 134 134 134 129 129 129 122 122 122 
114 114 114 106 106 106 100 100 100 98 98 98 98 98 98 99 99 99 101 101 101 
103 103 103 107 107 107 111 111 111 113 113 113 115 115 115 114 114 114 
111 111 111 109 109 109 108 108 108 109 109 109 112 112 112 117 117 117 
123 123 123 127 127 127 130 130 130 132 132 132 133 133 133 136 136 136 
139 139 139 144 144 144 151 151 151 154 154 154 150 150 150 144 144 144 
134 134 134 124 124 124 116 116 116 110 110 110 113 113 113 113 113 113 
111 111 111 107 107 107 100 100 100 91 91 91 82 82 82 76 76 76 76 76 76 
77 77 77 80 80 80 87 87 87 97 97 97 111 111 111 127 127 127 144 144 144 
157 157 157 165 165 165 168 168 168 167 167 167 162 162 162 154 154 154 
146 146 146 139 139 139 134 134 134 132 132 132 130 130 130 126 126 126 
122 122 122 116 116 116 109 109 109 103 103 103 101 101 101 100 100 100 
97 97 97 96 96 96 95 95 95 96 96 96 97 97 97 99 99 99 100 100 100 99 99 99 
97 97 97 96 96 96 96 96 96 99 99 99 104 104 104 110 110 110 117 117 117 
123 123 123 128 128 128 131 131 131 134 134 134 138 138 138 143 143 143 
148 148 148 155 155 155 157 157 157 154 154 154 146 146 146 137 137 137 
128 128 128 119 119 119 114 114 114 119 119 119 117 117 117 115 115 115 
109 109 109 100 100 100 90 90 90 81 81 81 73 73 73 72 72 72 73 73 73 75 75 75 
79 79 79 88 88 88 101 101 101 117 117 117 134 134 134 148 148 148 157 157 157 
161 161 161 161 161 161 156 156 156 150 150 150 142 142 142 134 134 134 
128 128 128 126 126 126 124 124 124 122 122 122 119 119 119 115 115 115 
110 110 110 105 105 105 101 101 101 99 99 99 95 95 95 91 91 91 89 89 89 
87 87 87 86 86 86 86 86 86 87 87 87 85 85 85 84 84 84 84 84 84 85 85 85 
89 89 89 96 96 96 104 104 104 112 112 112 119 119 119 125 125 125 132 132 132 
138 138 138 144 144 144 150 150 150 156 156 156 162 162 162 163 163 163 
159 159 159 152 152 152 144 144 144 134 134 134 126 126 126 120 120 120 
124 124 124 123 123 123 118 118 118 112 112 112 102 102 102 91 91 91 81 81 81 
73 73 73 71 71 71 70 70 70 71 71 71 74 74 74 81 81 81 93 93 93 108 108 108 
124 124 124 139 139 139 150 150 150 155 155 155 157 157 157 154 154 154 
148 148 148 140 140 140 131 131 131 125 125 125 122 122 122 121 121 121 
120 120 120 118 118 118 115 115 115 110 110 110 106 106 106 101 101 101 
97 97 97 92 92 92 88 88 88 85 85 85 82 82 82 79 79 79 79 79 79 78 78 78 
76 76 76 74 74 74 74 74 74 77 77 77 83 83 83 91 91 91 100 100 100 108 108 108 
117 117 117 125 125 125 135 135 135 143 143 143 151 151 151 159 159 159 
165 165 165 170 170 170 170 170 170 166 166 166 160 160 160 151 151 151 
141 141 141 133 133 133 127 127 127 129 129 129 126 126 126 121 121 121 
113 113 113 103 103 103 92 92 92 82 82 82 74 74 74 72 72 72 70 70 70 68 68 68 
69 69 69 75 75 75 86 86 86 101 101 101 118 118 118 132 132 132 145 145 145 
153 153 153 156 156 156 156 156 156 150 150 150 142 142 142 133 133 133 
126 126 126 123 123 123 122 122 122 120 120 120 119 119 119 115 115 115 
111 111 111 106 106 106 101 101 101 96 96 96 92 92 92 88 88 88 84 84 84 
81 81 81 79 79 79 76 76 76 74 74 74 72 72 72 69 69 69 70 70 70 73 73 73 
80 80 80 89 89 89 99 99 99 108 108 108 118 118 118 128 128 128 139 139 139 
149 149 149 159 159 159 166 166 166 172 172 172 176 176 176 176 176 176 
172 172 172 165 165 165 157 157 157 147 147 147 139 139 139 132 132 132 
131 131 131 127 127 127 121 121 121 113 113 113 103 103 103 93 93 93 83 83 83 
75 75 75 72 72 72 68 68 68 66 66 66 66 66 66 71 71 71 82 82 82 96 96 96 
113 113 113 129 129 129 143 143 143 154 154 154 160 160 160 160 160 160 
157 157 157 149 149 149 140 140 140 132 132 132 129 129 129 126 126 126 
125 125 125 122 122 122 118 118 118 114 114 114 108 108 108 103 103 103 
97 97 97 94 94 94 90 90 90 88 88 88 85 85 85 83 83 83 80 80 80 77 77 77 
72 72 72 70 70 70 70 70 70 74 74 74 81 81 81 92 92 92 103 103 103 112 112 112 
122 122 122 134 134 134 144 144 144 155 155 155 165 165 165 172 172 172 
178 178 178 181 181 181 180 180 180 176 176 176 169 169 169 160 160 160 
151 151 151 141 141 141 135 135 135 130 130 130 125 125 125 119 119 119 
111 111 111 103 103 103 93 93 93 83 83 83 75 75 75 71 71 71 67 67 67 64 64 64 
64 64 64 69 69 69 79 79 79 95 95 95 112 112 112 128 128 128 144 144 144 
157 157 157 165 165 165 168 168 168 166 166 166 159 159 159 150 150 150 
143 143 143 139 139 139 136 136 136 132 132 132 129 129 129 125 125 125 
119 119 119 113 113 113 107 107 107 101 101 101 99 99 99 96 96 96 95 95 95 
93 93 93 91 91 91 87 87 87 83 83 83 77 77 77 74 74 74 73 73 73 78 78 78 
86 86 86 98 98 98 109 109 109 119 119 119 129 129 129 139 139 139 150 150 150 
160 160 160 168 168 168 175 175 175 179 179 179 181 181 181 181 181 181 
176 176 176 170 170 170 161 161 161 151 151 151 142 142 142 134 134 134 
127 127 127 122 122 122 116 116 116 109 109 109 100 100 100 91 91 91 82 82 82 
74 74 74 69 69 69 64 64 64 60 60 60 61 61 61 67 67 67 78 78 78 94 94 94 
112 112 112 129 129 129 146 146 146 161 161 161 171 171 171 177 177 177 
176 176 176 170 170 170 163 163 163 156 156 156 151 151 151 148 148 148 
144 144 144 139 139 139 134 134 134 128 128 128 122 122 122 115 115 115 
110 110 110 107 107 107 106 106 106 105 105 105 103 103 103 101 101 101 
97 97 97 90 90 90 84 84 84 79 79 79 78 78 78 82 82 82 92 92 92 103 103 103 
115 115 115 125 125 125 135 135 135 144 144 144 153 153 153 161 161 161 
168 168 168 172 172 172 176 176 176 178 178 178 178 178 178 174 174 174 
167 167 167 159 159 159 149 149 149 140 140 140 132 132 132 124 124 124 
119 119 119 113 113 113 105 105 105 97 97 97 87 87 87 78 78 78 69 69 69 
64 64 64 59 59 59 56 56 56 57 57 57 64 64 64 77 77 77 93 93 93 113 113 113 
130 130 130 147 147 147 163 163 163 175 175 175 182 182 182 183 183 183 
180 180 180 174 174 174 168 168 168 164 164 164 160 160 160 157 157 157 
153 153 153 148 148 148 141 141 141 135 135 135 128 128 128 123 123 123 
120 120 120 118 118 118 116 116 116 113 113 113 110 110 110 104 104 104 
96 96 96 89 89 89 83 83 83 82 82 82 86 86 86 94 94 94 106 106 106 118 118 118 
128 128 128 136 136 136 145 145 145 152 152 152 157 157 157 162 162 162 
166 166 166 168 168 168 172 172 172 171 171 171 168 168 168 162 162 162 
155 155 155 146 146 146 137 137 137 129 129 129 123 123 123 119 119 119 
113 113 113 105 105 105 97 97 97 87 87 87 77 77 77 69 69 69 64 64 64 59 59 59 
57 57 57 58 58 58 65 65 65 78 78 78 94 94 94 112 112 112 129 129 129 
145 145 145 163 163 163 177 177 177 187 187 187 190 190 190 190 190 190 
186 186 186 182 182 182 179 179 179 176 176 176 172 172 172 169 169 169 
164 164 164 159 159 159 153 153 153 146 146 146 141 141 141 137 137 137 
133 133 133 129 129 129 125 125 125 120 120 120 112 112 112 104 104 104 
96 96 96 90 90 90 89 89 89 91 91 91 99 99 99 109 109 109 120 120 120 
128 128 128 136 136 136 142 142 142 147 147 147 151 151 151 156 156 156 
158 158 158 162 162 162 166 166 166 167 167 167 165 165 165 159 159 159 
152 152 152 144 144 144 136 136 136 128 128 128 127 127 127 123 123 123 
117 117 117 109 109 109 101 101 101 91 91 91 82 82 82 75 75 75 70 70 70 
67 67 67 65 65 65 66 66 66 72 72 72 83 83 83 97 97 97 112 112 112 126 126 126 
143 143 143 160 160 160 175 175 175 188 188 188 195 195 195 198 198 198 
198 198 198 196 196 196 193 193 193 190 190 190 187 187 187 184 184 184 
180 180 180 175 175 175 170 170 170 166 166 166 161 161 161 155 155 155 
150 150 150 144 144 144 137 137 137 130 130 130 123 123 123 114 114 114 
107 107 107 102 102 102 100 100 100 102 102 102 106 106 106 113 113 113 
121 121 121 128 128 128 134 134 134 138 138 138 142 142 142 145 145 145 
149 149 149 154 154 154 158 158 158 162 162 162 165 165 165 163 163 163 
159 159 159 152 152 152 144 144 144 137 137 137 130 130 130 132 132 132 
128 128 128 124 124 124 116 116 116 108 108 108 99 99 99 91 91 91 85 85 85 
81 81 81 79 79 79 78 78 78 79 79 79 84 84 84 92 92 92 102 102 102 113 113 113 
124 124 124 139 139 139 156 156 156 172 172 172 186 186 186 197 197 197 
203 203 203 205 205 205 205 205 205 203 203 203 200 200 200 197 197 197 
194 194 194 191 191 191 187 187 187 184 184 184 181 181 181 178 178 178 
171 171 171 164 164 164 156 156 156 148 148 148 139 139 139 132 132 132 
124 124 124 119 119 119 115 115 115 113 113 113 113 113 113 115 115 115 
118 118 118 122 122 122 127 127 127 130 130 130 133 133 133 137 137 137 
141 141 141 145 145 145 151 151 151 156 156 156 162 162 162 165 165 165 
164 164 164 160 160 160 154 154 154 147 147 147 140 140 140 135 135 135 
138 138 138 136 136 136 132 132 132 125 125 125 117 117 117 109 109 109 
102 102 102 97 97 97 95 95 95 95 95 95 95 95 95 96 96 96 99 99 99 103 103 103 
109 109 109 116 116 116 125 125 125 136 136 136 151 151 151 166 166 166 
181 181 181 194 194 194 202 202 202 207 207 207 208 208 208 207 207 207 
204 204 204 201 201 201 198 198 198 195 195 195 194 194 194 193 193 193 
193 193 193 189 189 189 183 183 183 174 174 174 165 165 165 155 155 155 
146 146 146 138 138 138 133 133 133 129 129 129 127 127 127 126 126 126 
124 124 124 123 123 123 122 122 122 123 123 123 124 124 124 126 126 126 
127 127 127 130 130 130 134 134 134 141 141 141 149 149 149 156 156 156 
163 163 163 166 166 166 165 165 165 162 162 162 156 156 156 149 149 149 
143 143 143 139 139 139 143 143 143 143 143 143 139 139 139 134 134 134 
126 126 126 120 120 120 114 114 114 110 110 110 110 110 110 112 112 112 
113 113 113 115 115 115 116 116 116 117 117 117 119 119 119 122 122 122 
127 127 127 135 135 135 147 147 147 161 161 161 174 174 174 186 186 186 
196 196 196 202 202 202 204 204 204 203 203 203 200 200 200 198 198 198 
195 195 195 194 194 194 193 193 193 195 195 195 197 197 197 195 195 195 
188 188 188 179 179 179 169 169 169 158 158 158 148 148 148 142 142 142 
138 138 138 137 137 137 137 137 137 136 136 136 134 134 134 131 131 131 
127 127 127 123 123 123 122 122 122 121 121 121 121 121 121 124 124 124 
129 129 129 137 137 137 146 146 146 156 156 156 164 164 164 167 167 167 
166 166 166 162 162 162 157 157 157 151 151 151 146 146 146 143 143 143 
147 147 147 147 147 147 145 145 145 140 140 140 135 135 135 129 129 129 
125 125 125 122 122 122 124 124 124 127 127 127 130 130 130 132 132 132 
132 132 132 132 132 132 130 130 130 130 130 130 132 132 132 136 136 136 
145 145 145 154 154 154 165 165 165 176 176 176 184 184 184 191 191 191 
194 194 194 193 193 193 190 190 190 188 188 188 186 186 186 186 186 186 
187 187 187 191 191 191 195 195 195 195 195 195 189 189 189 179 179 179 
168 168 168 158 158 158 149 149 149 143 143 143 140 140 140 142 142 142 
144 144 144 144 144 144 142 142 142 137 137 137 130 130 130 124 124 124 
120 120 120 118 118 118 117 117 117 119 119 119 124 124 124 132 132 132 
144 144 144 155 155 155 162 162 162 166 166 166 165 165 165 161 161 161 
156 156 156 151 151 151 147 147 147 145 145 145 147 147 147 149 149 149 
148 148 148 145 145 145 140 140 140 136 136 136 132 132 132 132 132 132 
134 134 134 139 139 139 143 143 143 146 146 146 146 146 146 145 145 145 
142 142 142 140 140 140 139 139 139 141 141 141 145 145 145 150 150 150 
156 156 156 163 163 163 170 170 170 176 176 176 179 179 179 178 178 178 
176 176 176 174 174 174 173 173 173 175 175 175 178 178 178 184 184 184 
189 189 189 190 190 190 185 185 185 176 176 176 166 166 166 156 156 156 
148 148 148 143 143 143 142 142 142 144 144 144 148 148 148 150 150 150 
148 148 148 142 142 142 134 134 134 126 126 126 122 122 122 117 117 117 
115 115 115 116 116 116 120 120 120 128 128 128 139 139 139 150 150 150 
158 158 158 161 161 161 160 160 160 156 156 156 151 151 151 147 147 147 
143 143 143 143 143 143 141 141 141 146 146 146 146 146 146 145 145 145 
141 141 141 139 139 139 136 136 136 136 136 136 140 140 140 146 146 146 
152 152 152 156 156 156 157 157 157 156 156 156 154 154 154 150 150 150 
149 149 149 148 148 148 148 148 148 149 149 149 151 151 151 154 154 154 
157 157 157 160 160 160 163 163 163 163 163 163 162 162 162 160 160 160 
161 161 161 164 164 164 169 169 169 175 175 175 182 182 182 184 184 184 
180 180 180 173 173 173 163 163 163 154 154 154 147 147 147 143 143 143 
143 143 143 146 146 146 151 151 151 154 154 154 153 153 153 147 147 147 
139 139 139 132 132 132 127 127 127 122 122 122 118 118 118 115 115 115 
117 117 117 123 123 123 132 132 132 142 142 142 149 149 149 151 151 151 
150 150 150 146 146 146 142 142 142 138 138 138 135 135 135 137 137 137 
137 137 137 142 142 142 144 144 144 144 144 144 143 143 143 141 141 141 
141 141 141 142 142 142 146 146 146 152 152 152 160 160 160 165 165 165 
167 167 167 167 167 167 166 166 166 162 162 162 161 161 161 158 158 158 
154 154 154 150 150 150 146 146 146 144 144 144 143 143 143 143 143 143 
145 145 145 145 145 145 145 145 145 146 146 146 149 149 149 154 154 154 
161 161 161 170 170 170 178 178 178 180 180 180 177 177 177 170 170 170 
163 163 163 155 155 155 149 149 149 145 145 145 145 145 145 149 149 149 
154 154 154 157 157 157 156 156 156 152 152 152 145 145 145 138 138 138 
134 134 134 130 130 130 124 124 124 120 120 120 119 119 119 121 121 121 
125 125 125 132 132 132 137 137 137 137 137 137 137 137 137 134 134 134 
131 131 131 129 129 129 129 129 129 131 131 131 136 136 136 141 141 141 
144 144 144 145 145 145 146 146 146 146 146 146 147 147 147 150 150 150 
154 154 154 161 161 161 167 167 167 173 173 173 176 176 176 177 177 177 
175 175 175 173 173 173 171 171 171 166 166 166 159 159 159 151 151 151 
143 143 143 134 134 134 128 128 128 125 125 125 125 125 125 125 125 125 
127 127 127 132 132 132 138 138 138 146 146 146 156 156 156 166 166 166 
174 174 174 177 177 177 175 175 175 169 169 169 163 163 163 156 156 156 
152 152 152 149 149 149 150 150 150 152 152 152 157 157 157 159 159 159 
158 158 158 155 155 155 149 149 149 144 144 144 142 142 142 139 139 139 
134 134 134 128 128 128 123 123 123 122 122 122 122 122 122 123 123 123 
125 125 125 125 125 125 123 123 123 123 123 123 122 122 122 123 123 123 
125 125 125 129 129 129 136 136 136 141 141 141 144 144 144 147 147 147 
149 149 149 151 151 151 154 154 154 158 158 158 164 164 164 170 170 170 
175 175 175 180 180 180 182 182 182 182 182 182 180 180 180 178 178 178 
176 176 176 171 171 171 162 162 162 151 151 151 138 138 138 126 126 126 
116 116 116 109 109 109 107 107 107 108 108 108 112 112 112 119 119 119 
128 128 128 139 139 139 151 151 151 162 162 162 171 171 171 173 173 173 
171 171 171 167 167 167 161 161 161 156 156 156 153 153 153 152 152 152 
152 152 152 155 155 155 158 158 158 159 159 159 157 157 157 153 153 153 
150 150 150 148 148 148 148 148 148 148 148 148 144 144 144 138 138 138 
132 132 132 125 125 125 120 120 120 117 117 117 115 115 115 113 113 113 
112 112 112 113 113 113 115 115 115 118 118 118 123 123 123 129 129 129 
136 136 136 142 142 142 145 145 145 148 148 148 151 151 151 155 155 155 
160 160 160 166 166 166 172 172 172 177 177 177 181 181 181 183 183 183 
184 184 184 182 182 182 179 179 179 176 176 176 175 175 175 170 170 170 
161 161 161 149 149 149 134 134 134 120 120 120 106 106 106 98 98 98 94 94 94 
96 96 96 100 100 100 108 108 108 119 119 119 132 132 132 146 146 146 
157 157 157 165 165 165 168 168 168 166 166 166 163 163 163 158 158 158 
155 155 155 152 152 152 152 152 152 154 154 154 155 155 155 156 156 156 
155 155 155 153 153 153 150 150 150 148 148 148 147 147 147 151 151 151 
154 154 154 152 152 152 147 147 147 140 140 140 132 132 132 123 123 123 
114 114 114 109 109 109 105 105 105 104 104 104 106 106 106 109 109 109 
115 115 115 122 122 122 129 129 129 136 136 136 141 141 141 144 144 144 
148 148 148 152 152 152 158 158 158 165 165 165 172 172 172 178 178 178 
182 182 182 184 184 184 183 183 183 180 180 180 176 176 176 172 172 172 
168 168 168 167 167 167 164 164 164 156 156 156 144 144 144 130 130 130 
115 115 115 102 102 102 92 92 92 87 87 87 88 88 88 93 93 93 101 101 101 
112 112 112 126 126 126 139 139 139 151 151 151 158 158 158 161 161 161 
160 160 160 156 156 156 153 153 153 150 150 150 150 150 150 150 150 150 
152 152 152 153 153 153 151 151 151 149 149 149 145 145 145 143 143 143 
141 141 141 144 144 144 150 150 150 156 156 156 158 158 158 155 155 155 
149 149 149 139 139 139 127 127 127 114 114 114 106 106 106 101 101 101 
99 99 99 101 101 101 105 105 105 112 112 112 121 121 121 130 130 130 
135 135 135 139 139 139 142 142 142 146 146 146 152 152 152 159 159 159 
166 166 166 174 174 174 181 181 181 184 184 184 183 183 183 178 178 178 
173 173 173 166 166 166 159 159 159 155 155 155 154 154 154 152 152 152 
147 147 147 138 138 138 126 126 126 113 113 113 101 101 101 90 90 90 85 85 85 
85 85 85 89 89 89 97 97 97 107 107 107 119 119 119 131 131 131 142 142 142 
149 149 149 151 151 151 150 150 150 147 147 147 145 145 145 143 143 143 
143 143 143 144 144 144 147 147 147 147 147 147 144 144 144 140 140 140 
135 135 135 133 133 133 132 132 132 136 136 136 145 145 145 154 154 154 
159 159 159 160 160 160 155 155 155 145 145 145 132 132 132 118 118 118 
106 106 106 99 99 99 97 97 97 98 98 98 103 103 103 110 110 110 120 120 120 
129 129 129 131 131 131 135 135 135 138 138 138 142 142 142 148 148 148 
156 156 156 165 165 165 173 173 173 179 179 179 180 180 180 177 177 177 
170 170 170 162 162 162 152 152 152 144 144 144 138 138 138 138 138 138 
138 138 138 135 135 135 130 130 130 121 121 121 111 111 111 101 101 101 
92 92 92 87 87 87 86 86 86 88 88 88 93 93 93 101 101 101 111 111 111 
121 121 121 130 130 130 137 137 137 139 139 139 138 138 138 136 136 136 
134 134 134 133 133 133 134 134 134 136 136 136 138 138 138 137 137 137 
134 134 134 129 129 129 124 124 124 120 120 120 121 121 121 125 125 125 
137 137 137 148 148 148 157 157 157 161 161 161 158 158 158 149 149 149 
135 135 135 120 120 120 108 108 108 100 100 100 96 96 96 97 97 97 101 101 101 
108 108 108 117 117 117 125 125 125 125 125 125 128 128 128 131 131 131 
136 136 136 142 142 142 149 149 149 158 158 158 166 166 166 172 172 172 
172 172 172 167 167 167 159 159 159 149 149 149 138 138 138 129 129 129 
123 123 123 123 123 123 124 124 124 123 123 123 121 121 121 116 116 116 
108 108 108 100 100 100 93 93 93 89 89 89 86 86 86 87 87 87 89 89 89 94 94 94 
101 101 101 109 109 109 117 117 117 123 123 123 125 125 125 124 124 124 
122 122 122 121 121 121 121 121 121 121 121 121 124 124 124 127 127 127 
126 126 126 121 121 121 117 117 117 112 112 112 109 109 109 110 110 110 
115 115 115 126 126 126 139 139 139 150 150 150 156 156 156 155 155 155 
147 147 147 135 135 135 121 121 121 109 109 109 100 100 100 96 96 96 95 95 95 
98 98 98 104 104 104 111 111 111 120 120 120 117 117 117 121 121 121 
126 126 126 131 131 131 137 137 137 146 146 146 155 155 155 162 162 162 
166 166 166 165 165 165 159 159 159 150 150 150 139 139 139 128 128 128 
118 118 118 112 112 112 111 111 111 113 113 113 114 114 114 113 113 113 
110 110 110 105 105 105 99 99 99 93 93 93 90 90 90 87 87 87 86 86 86 86 86 86 
88 88 88 91 91 91 96 96 96 101 101 101 106 106 106 108 108 108 107 107 107 
106 106 106 106 106 106 107 107 107 109 109 109 112 112 112 115 115 115 
115 115 115 111 111 111 105 105 105 100 100 100 97 97 97 97 97 97 103 103 103 
113 113 113 127 127 127 139 139 139 146 146 146 147 147 147 141 141 141 
131 131 131 119 119 119 108 108 108 100 100 100 95 95 95 93 93 93 95 95 95 
99 99 99 106 106 106 112 112 112 112 112 112 117 117 117 122 122 122 
129 129 129 138 138 138 147 147 147 156 156 156 163 163 163 166 166 166 
163 163 163 155 155 155 144 144 144 132 132 132 120 120 120 110 110 110 
104 104 104 104 104 104 105 105 105 106 106 106 105 105 105 103 103 103 
100 100 100 94 94 94 91 91 91 88 88 88 87 87 87 85 85 85 83 83 83 83 83 83 
83 83 83 84 84 84 86 86 86 89 89 89 90 90 90 90 90 90 90 90 90 91 91 91 
94 94 94 98 98 98 103 103 103 107 107 107 106 106 106 102 102 102 95 95 95 
90 90 90 86 86 86 85 85 85 90 90 90 100 100 100 115 115 115 126 126 126 
135 135 135 137 137 137 134 134 134 126 126 126 116 116 116 107 107 107 
99 99 99 95 95 95 93 93 93 93 93 93 96 96 96 102 102 102 107 107 107 
111 111 111 117 117 117 123 123 123 132 132 132 141 141 141 152 152 152 
160 160 160 167 167 167 168 168 168 163 163 163 153 153 153 142 142 142 
128 128 128 116 116 116 106 106 106 100 100 100 99 99 99 100 100 100 
100 100 100 98 98 98 95 95 95 92 92 92 88 88 88 86 86 86 85 85 85 84 84 84 
83 83 83 81 81 81 79 79 79 76 76 76 74 74 74 73 73 73 75 75 75 75 75 75 
75 75 75 76 76 76 78 78 78 83 83 83 89 89 89 95 95 95 100 100 100 99 99 99 
94 94 94 88 88 88 81 81 81 77 77 77 76 76 76 80 80 80 90 90 90 104 104 104 
117 117 117 126 126 126 130 130 130 128 128 128 122 122 122 114 114 114 
106 106 106 101 101 101 97 97 97 95 95 95 95 95 95 98 98 98 102 102 102 
107 107 107 116 116 116 121 121 121 129 129 129 138 138 138 149 149 149 
158 158 158 167 167 167 172 172 172 171 171 171 164 164 164 153 153 153 
140 140 140 126 126 126 113 113 113 104 104 104 98 98 98 97 97 97 96 96 96 
94 94 94 90 90 90 86 86 86 82 82 82 78 78 78 77 77 77 77 77 77 79 79 79 
80 80 80 80 80 80 77 77 77 73 73 73 69 69 69 66 66 66 66 66 66 65 65 65 
64 64 64 65 65 65 68 68 68 74 74 74 82 82 82 90 90 90 95 95 95 94 94 94 
90 90 90 83 83 83 76 76 76 72 72 72 70 70 70 74 74 74 84 84 84 97 97 97 
110 110 110 120 120 120 125 125 125 125 125 125 121 121 121 114 114 114 
108 108 108 104 104 104 101 101 101 100 100 100 100 100 100 103 103 103 
107 107 107 112 112 112 126 126 126 131 131 131 138 138 138 147 147 147 
157 157 157 166 166 166 173 173 173 175 175 175 173 173 173 164 164 164 
152 152 152 138 138 138 125 125 125 112 112 112 103 103 103 97 97 97 96 96 96 
94 94 94 89 89 89 83 83 83 76 76 76 70 70 70 66 66 66 65 65 65 67 67 67 
72 72 72 75 75 75 78 78 78 77 77 77 73 73 73 69 69 69 64 64 64 62 62 62 
60 60 60 57 57 57 57 57 57 61 61 61 67 67 67 76 76 76 85 85 85 90 90 90 
91 91 91 86 86 86 81 81 81 74 74 74 70 70 70 68 68 68 72 72 72 82 82 82 
96 96 96 109 109 109 119 119 119 124 124 124 125 125 125 121 121 121 
116 116 116 112 112 112 109 109 109 108 108 108 108 108 108 110 110 110 
114 114 114 118 118 118 123 123 123 140 140 140 144 144 144 150 150 150 
158 158 158 165 165 165 172 172 172 176 176 176 178 178 178 173 173 173 
164 164 164 150 150 150 136 136 136 122 122 122 111 111 111 102 102 102 
97 97 97 96 96 96 92 92 92 85 85 85 75 75 75 66 66 66 59 59 59 53 53 53 
52 52 52 56 56 56 63 63 63 70 70 70 76 76 76 78 78 78 76 76 76 72 72 72 
66 66 66 63 63 63 59 59 59 55 55 55 54 54 54 56 56 56 62 62 62 71 71 71 
80 80 80 86 86 86 87 87 87 84 84 84 79 79 79 75 75 75 71 71 71 71 71 71 
76 76 76 86 86 86 99 99 99 112 112 112 121 121 121 127 127 127 128 128 128 
126 126 126 122 122 122 119 119 119 118 118 118 118 118 118 120 120 120 
123 123 123 127 127 127 132 132 132 137 137 137 154 154 154 157 157 157 
162 162 162 166 166 166 171 171 171 174 174 174 177 177 177 176 176 176 
170 170 170 160 160 160 147 147 147 133 133 133 120 120 120 108 108 108 
100 100 100 95 95 95 94 94 94 89 89 89 80 80 80 68 68 68 58 58 58 49 49 49 
43 43 43 41 41 41 46 46 46 55 55 55 66 66 66 74 74 74 79 79 79 79 79 79 
76 76 76 71 71 71 67 67 67 61 61 61 56 56 56 52 52 52 53 53 53 58 58 58 
65 65 65 75 75 75 81 81 81 83 83 83 82 82 82 79 79 79 76 76 76 75 75 75 
76 76 76 81 81 81 92 92 92 105 105 105 119 119 119 129 129 129 135 135 135 
136 136 136 135 135 135 131 131 131 129 129 129 129 129 129 130 130 130 
134 134 134 137 137 137 143 143 143 147 147 147 152 152 152 165 165 165 
167 167 167 169 169 169 170 170 170 172 172 172 173 173 173 172 172 172 
170 170 170 164 164 164 154 154 154 141 141 141 128 128 128 114 114 114 
104 104 104 96 96 96 92 92 92 90 90 90 85 85 85 75 75 75 63 63 63 52 52 52 
43 43 43 37 37 37 35 35 35 40 40 40 50 50 50 63 63 63 73 73 73 79 79 79 
82 82 82 79 79 79 75 75 75 71 71 71 64 64 64 57 57 57 51 51 51 50 50 50 
53 53 53 60 60 60 68 68 68 75 75 75 77 77 77 78 78 78 77 77 77 77 77 77 
78 78 78 82 82 82 89 89 89 100 100 100 114 114 114 128 128 128 138 138 138 
145 145 145 147 147 147 146 146 146 143 143 143 141 141 141 141 141 141 
143 143 143 146 146 146 151 151 151 156 156 156 160 160 160 164 164 164 
177 177 177 177 177 177 176 176 176 175 175 175 173 173 173 170 170 170 
167 167 167 162 162 162 157 157 157 147 147 147 134 134 134 121 121 121 
108 108 108 98 98 98 91 91 91 86 86 86 84 84 84 78 78 78 68 68 68 58 58 58 
46 46 46 38 38 38 33 33 33 33 33 33 38 38 38 49 49 49 62 62 62 74 74 74 
82 82 82 86 86 86 85 85 85 82 82 82 78 78 78 72 72 72 63 63 63 55 55 55 
52 52 52 53 53 53 58 58 58 65 65 65 71 71 71 75 75 75 77 77 77 79 79 79 
82 82 82 85 85 85 91 91 91 99 99 99 111 111 111 125 125 125 138 138 138 
149 149 149 155 155 155 156 156 156 155 155 155 152 152 152 150 150 150 
150 150 150 153 153 153 156 156 156 161 161 161 167 167 167 172 172 172 
175 175 175 186 186 186 185 185 185 183 183 183 180 180 180 176 176 176 
170 170 170 164 164 164 157 157 157 150 150 150 140 140 140 128 128 128 
115 115 115 103 103 103 93 93 93 85 85 85 81 81 81 78 78 78 73 73 73 64 64 64 
53 53 53 43 43 43 36 36 36 32 32 32 33 33 33 38 38 38 50 50 50 64 64 64 
78 78 78 88 88 88 94 94 94 95 95 95 93 93 93 89 89 89 83 83 83 73 73 73 
64 64 64 59 59 59 58 58 58 62 62 62 67 67 67 73 73 73 77 77 77 81 81 81 
84 84 84 89 89 89 94 94 94 101 101 101 111 111 111 123 123 123 137 137 137 
149 149 149 158 158 158 163 163 163 163 163 163 160 160 160 156 156 156 
155 155 155 155 155 155 158 158 158 163 163 163 169 169 169 175 175 175 
181 181 181 185 185 185 190 190 190 189 189 189 187 187 187 183 183 183 
178 178 178 171 171 171 163 163 163 155 155 155 147 147 147 138 138 138 
125 125 125 112 112 112 100 100 100 91 91 91 85 85 85 80 80 80 77 77 77 
71 71 71 61 61 61 52 52 52 43 43 43 37 37 37 34 34 34 36 36 36 41 41 41 
54 54 54 68 68 68 83 83 83 95 95 95 102 102 102 105 105 105 104 104 104 
101 101 101 94 94 94 85 85 85 75 75 75 69 69 69 67 67 67 69 69 69 73 73 73 
79 79 79 83 83 83 88 88 88 92 92 92 97 97 97 103 103 103 111 111 111 
121 121 121 134 134 134 147 147 147 158 158 158 165 165 165 168 168 168 
167 167 167 163 163 163 158 158 158 156 156 156 156 156 156 160 160 160 
165 165 165 172 172 172 179 179 179 185 185 185 189 189 189 186 186 186 
187 187 187 186 186 186 184 184 184 179 179 179 172 172 172 164 164 164 
156 156 156 148 148 148 137 137 137 125 125 125 112 112 112 102 102 102 
94 94 94 88 88 88 84 84 84 81 81 81 74 74 74 65 65 65 55 55 55 47 47 47 
41 41 41 39 39 39 42 42 42 48 48 48 60 60 60 76 76 76 91 91 91 103 103 103 
110 110 110 114 114 114 114 114 114 112 112 112 105 105 105 96 96 96 87 87 87 
79 79 79 76 76 76 78 78 78 82 82 82 86 86 86 91 91 91 95 95 95 99 99 99 
104 104 104 110 110 110 118 118 118 128 128 128 140 140 140 153 153 153 
163 163 163 170 170 170 172 172 172 169 169 169 165 165 165 159 159 159 
156 156 156 156 156 156 158 158 158 163 163 163 169 169 169 175 175 175 
181 181 181 185 185 185 176 176 176 178 178 178 179 179 179 179 179 179 
177 177 177 174 174 174 167 167 167 159 159 159 151 151 151 141 141 141 
128 128 128 117 117 117 108 108 108 101 101 101 97 97 97 94 94 94 90 90 90 
83 83 83 72 72 72 62 62 62 54 54 54 49 49 49 47 47 47 50 50 50 57 57 57 
69 69 69 84 84 84 98 98 98 110 110 110 117 117 117 120 120 120 121 121 121 
119 119 119 114 114 114 105 105 105 96 96 96 89 89 89 86 86 86 87 87 87 
90 90 90 95 95 95 98 98 98 102 102 102 105 105 105 108 108 108 113 113 113 
120 120 120 130 130 130 142 142 142 154 154 154 164 164 164 170 170 170 
172 172 172 170 170 170 164 164 164 158 158 158 155 155 155 154 154 154 
155 155 155 158 158 158 162 162 162 167 167 167 171 171 171 175 175 175 
159 159 159 163 163 163 168 168 168 172 172 172 174 174 174 173 173 173 
169 169 169 163 163 163 155 155 155 145 145 145 134 134 134 124 124 124 
116 116 116 111 111 111 108 108 108 106 106 106 103 103 103 94 94 94 83 83 83 
72 72 72 63 63 63 57 57 57 56 56 56 59 59 59 67 67 67 79 79 79 93 93 93 
106 106 106 116 116 116 122 122 122 124 124 124 125 125 125 124 124 124 
119 119 119 111 111 111 102 102 102 96 96 96 94 94 94 95 95 95 98 98 98 
102 102 102 105 105 105 107 107 107 108 108 108 110 110 110 114 114 114 
119 119 119 128 128 128 139 139 139 152 152 152 162 162 162 169 169 169 
171 171 171 169 169 169 165 165 165 158 158 158 154 154 154 152 152 152 
150 150 150 151 151 151 152 152 152 154 154 154 157 157 157 158 158 158 
139 139 139 144 144 144 153 153 153 161 161 161 167 167 167 170 170 170 
169 169 169 165 165 165 158 158 158 149 149 149 139 139 139 131 131 131 
125 125 125 122 122 122 121 121 121 120 120 120 116 116 116 108 108 108 
95 95 95 83 83 83 73 73 73 67 67 67 65 65 65 68 68 68 76 76 76 88 88 88 
101 101 101 112 112 112 121 121 121 125 125 125 127 127 127 126 126 126 
125 125 125 121 121 121 114 114 114 107 107 107 102 102 102 99 99 99 100 100 100 
103 103 103 106 106 106 108 108 108 108 108 108 108 108 108 109 109 109 
110 110 110 114 114 114 122 122 122 134 134 134 147 147 147 158 158 158 
166 166 166 170 170 170 170 170 170 166 166 166 160 160 160 155 155 155 
151 151 151 147 147 147 142 142 142 140 140 140 139 139 139 139 139 139 
138 138 138 
