P3
64 64
255
0 0 0 0 0 0 0 0 0 0 0 0 0 0 0 0 0 0 0 0 0 0 0 0 0 0 0 0 0 0 0 0 0 145 139 60 
145 139 60 145 139 60 145 139 60 145 139 60 146 139 60 146 139 60 145 138 59 
145 138 58 145 138 57 0 0 0 0 0 0 0 0 0 0 0 0 0 0 0 0 0 0 0 0 0 0 0 0 0 0 0 
0 0 0 0 0 0 0 0 0 0 0 0 0 0 0 110 103 42 110 103 42 110 104 42 110 104 42 
110 105 42 110 105 42 0 0 0 0 0 0 160 163 51 155 156 53 143 141 57 124 116 63 
116 105 66 116 104 66 115 102 66 113 100 67 114 101 67 123 114 63 191 208 34 
0 0 0 0 0 0 0 0 0 142 141 56 142 141 56 0 0 0 0 0 0 0 0 0 0 0 0 0 0 0 0 0 0 
0 0 0 0 0 0 0 0 0 0 0 0 0 0 0 0 0 0 0 0 0 0 0 0 0 0 0 0 0 0 145 139 60 
145 139 60 145 139 60 145 139 60 145 139 60 0 0 0 0 0 0 0 0 0 0 0 0 0 0 0 
0 0 0 0 0 0 150 148 135 153 151 139 0 0 0 0 0 0 0 0 0 0 0 0 0 0 0 0 0 0 0 0 0 
0 0 0 0 0 0 0 0 0 99 94 38 99 94 38 99 94 38 99 95 38 99 95 38 98 93 38 
0 0 0 0 0 0 141 137 57 135 129 59 126 117 62 112 99 67 108 93 69 113 101 67 
116 104 66 113 100 67 114 101 67 123 114 63 174 184 42 150 152 52 145 146 55 
0 0 0 0 0 0 0 0 0 115 102 65 115 102 65 0 0 0 0 0 0 0 0 0 0 0 0 0 0 0 0 0 0 
0 0 0 0 0 0 0 0 0 0 0 0 0 0 0 0 0 0 0 0 0 0 0 0 145 140 61 145 140 61 
145 139 60 145 138 59 145 138 59 0 0 0 0 0 0 0 0 0 0 0 0 0 0 0 0 0 0 141 140 130 
154 153 146 126 125 117 0 0 0 0 0 0 0 0 0 0 0 0 253 253 253 253 253 253 
0 0 0 0 0 0 0 0 0 0 0 0 0 0 0 77 74 30 78 74 30 78 74 30 77 74 30 70 66 28 
0 0 0 177 182 50 133 127 59 113 99 66 104 87 70 96 77 73 93 73 74 100 83 72 
131 124 61 116 104 66 113 100 67 117 105 65 148 149 53 142 141 56 144 144 55 
0 0 0 0 0 0 0 0 0 115 102 65 115 102 65 0 0 0 0 0 0 0 0 0 0 0 0 0 0 0 0 0 0 
0 0 0 0 0 0 0 0 0 0 0 0 0 0 0 0 0 0 145 139 60 145 139 60 0 0 0 0 0 0 145 137 58 
145 138 59 145 138 59 0 0 0 0 0 0 0 0 0 0 0 0 165 164 153 160 159 151 
145 144 138 128 127 116 0 0 0 0 0 0 16 16 16 142 142 142 138 138 138 
137 137 137 137 137 137 140 140 140 114 114 114 102 102 102 0 0 0 0 0 0 0 0 0 
0 0 0 0 0 0 0 0 0 53 51 20 255 255 229 149 145 58 124 114 62 104 87 69 
96 77 72 93 72 74 90 68 75 76 50 81 0 0 0 0 0 0 0 0 0 0 0 0 167 176 48 
152 155 53 141 139 56 122 112 63 112 98 66 111 97 66 0 0 0 0 0 0 0 0 0 0 0 0 
0 0 0 0 0 0 0 0 0 0 0 0 0 0 0 0 0 0 0 0 0 0 0 0 0 0 0 0 0 0 145 139 60 
145 139 60 0 0 0 0 0 0 0 0 0 0 0 0 0 0 0 0 0 0 0 0 0 216 216 211 170 168 158 
142 141 134 111 110 99 107 105 92 0 0 0 0 0 0 112 112 112 136 136 136 
137 137 137 136 136 135 125 125 123 92 92 90 63 63 63 50 50 50 102 102 102 
0 0 0 0 0 0 0 0 0 0 0 0 0 0 0 0 0 0 47 48 11 212 187 128 125 114 64 113 99 66 
99 81 71 95 75 73 100 83 71 105 90 69 0 0 131 0 0 0 0 0 0 0 0 0 0 0 0 0 0 0 
0 0 0 133 126 59 116 104 65 115 102 65 115 101 65 0 0 0 0 0 0 0 0 0 0 0 0 
0 0 0 0 0 0 0 0 0 0 0 0 0 0 0 0 0 0 0 0 0 0 0 0 0 0 0 0 0 0 0 0 0 0 0 0 0 0 0 
0 0 0 0 0 0 0 0 0 0 0 0 253 253 253 178 177 168 151 151 143 92 92 83 103 102 89 
125 123 107 0 0 0 0 0 0 0 0 0 101 101 101 165 165 164 128 127 122 123 122 115 
120 120 112 142 141 132 141 140 131 140 139 131 122 122 117 0 0 0 0 0 0 0 0 0 
0 0 0 0 0 0 0 0 0 0 0 0 0 0 0 0 0 0 0 0 0 97 78 72 94 74 73 105 89 69 
126 117 61 144 143 55 169 177 44 186 199 34 154 155 46 127 119 59 105 89 69 
76 50 80 98 80 72 113 99 66 116 103 65 116 103 65 0 0 0 0 0 0 0 0 0 0 0 0 
0 0 0 0 0 0 0 0 0 0 0 0 0 0 0 0 0 0 0 0 0 0 0 0 0 0 0 0 0 0 0 0 0 0 0 0 0 0 0 
0 0 0 0 0 0 0 0 0 253 253 253 179 178 170 124 123 115 97 96 84 102 100 88 
0 0 0 0 0 0 0 0 0 0 0 0 0 0 0 149 149 148 161 160 153 130 128 116 108 106 91 
146 145 137 142 141 132 142 141 132 142 141 132 122 121 117 0 0 0 0 0 0 0 0 0 
0 0 0 0 0 0 0 0 0 0 0 0 0 0 0 0 0 0 0 0 0 97 78 72 94 75 73 101 83 71 
114 101 66 140 137 56 162 167 47 173 181 40 148 147 49 125 117 60 107 92 68 
90 69 75 87 65 76 100 82 71 129 121 60 136 129 57 0 0 0 0 0 0 0 0 0 0 0 0 
0 0 0 0 0 0 0 0 0 0 0 0 0 0 0 0 0 0 0 0 0 0 0 0 0 0 0 0 0 0 0 0 0 0 0 0 0 0 0 
0 0 0 0 0 0 188 187 179 169 168 159 115 114 105 104 103 90 125 123 107 
0 0 0 0 0 0 0 0 0 0 0 0 0 0 0 0 0 0 175 174 169 161 160 153 74 70 35 81 77 37 
118 117 109 125 124 116 118 117 110 135 134 126 134 133 126 0 0 0 0 0 0 0 0 0 
0 0 0 0 0 0 0 0 0 0 0 0 0 0 0 0 0 0 0 0 0 99 80 72 93 72 74 100 80 73 
109 93 70 125 116 62 134 128 59 130 120 64 121 108 67 116 103 65 106 91 68 
92 71 74 84 61 77 70 42 83 0 0 0 0 0 0 115 102 65 115 102 65 0 0 0 0 0 0 0 0 0 
0 0 0 0 0 0 0 0 0 0 0 0 0 0 0 0 0 0 0 0 0 0 0 0 0 0 0 0 0 0 0 0 0 0 0 0 0 0 0 
172 170 160 162 160 153 103 102 93 117 116 101 0 0 0 0 0 0 0 0 0 0 0 0 0 0 0 
0 0 0 0 0 0 102 102 102 178 177 171 9 9 8 22 20 10 97 92 45 72 68 40 109 105 66 
50 48 38 157 156 149 138 137 129 0 0 0 0 0 0 0 0 0 0 0 0 0 0 0 0 0 0 0 0 0 
0 0 0 0 0 0 0 0 0 103 85 71 90 68 77 99 78 78 103 82 77 100 82 72 100 81 73 
103 81 80 105 84 78 106 89 70 105 89 67 97 78 71 75 50 81 0 0 119 0 0 0 0 0 0 
115 102 65 115 102 65 0 0 0 0 0 0 0 0 0 0 0 0 0 0 0 0 0 0 0 0 0 0 0 0 0 0 0 
0 0 0 0 0 0 0 0 0 0 0 0 0 0 0 253 253 253 168 167 158 143 142 135 98 96 85 
97 96 85 0 0 0 0 0 0 0 0 0 0 0 0 0 0 0 0 0 0 0 0 0 0 0 0 126 126 126 
164 163 162 23 23 21 1 1 1 71 67 33 53 51 26 63 61 43 142 141 135 149 148 141 
140 140 131 142 141 132 0 0 0 0 0 0 0 0 0 0 0 0 0 0 0 0 0 0 0 0 0 0 0 0 0 0 0 
103 84 73 85 64 74 83 64 67 83 65 67 87 66 73 85 64 72 77 57 65 82 64 64 
100 83 67 110 94 69 122 108 65 0 0 0 0 0 0 87 65 76 87 65 76 0 0 0 0 0 0 0 0 0 
0 0 0 0 0 0 0 0 0 0 0 0 0 0 0 0 0 0 0 0 0 0 0 0 0 0 0 0 0 0 0 0 0 0 0 0 172 171 161 
170 169 160 105 104 95 91 90 79 125 123 107 0 0 0 0 0 0 0 0 0 0 0 0 0 0 0 
0 0 0 0 0 0 0 0 0 0 0 0 165 165 165 126 125 123 142 141 132 57 56 46 103 97 47 
124 120 87 172 172 165 142 141 132 135 135 127 142 141 132 142 141 132 
0 0 0 0 0 0 0 0 0 0 0 0 0 0 0 0 0 0 0 0 0 0 0 0 0 0 0 0 0 0 0 0 0 0 0 0 0 0 0 
81 63 65 76 58 61 35 26 29 35 28 25 90 78 54 130 114 75 143 128 78 0 0 0 0 0 0 
87 65 76 87 65 76 0 0 0 0 0 0 0 0 0 0 0 0 0 0 0 0 0 0 0 0 0 0 0 0 173 168 106 
216 214 186 253 253 253 0 0 0 0 0 0 0 0 0 146 144 131 166 165 157 114 113 105 
105 104 91 0 0 0 0 0 0 0 0 0 0 0 0 0 0 0 0 0 0 0 0 0 0 0 0 0 0 0 0 0 0 0 0 0 
157 157 157 133 132 125 142 141 132 104 103 97 44 41 21 126 124 99 162 161 154 
142 141 132 141 140 131 142 141 132 142 141 132 0 0 0 0 0 0 0 0 0 0 0 0 0 0 0 
144 150 123 144 150 123 0 0 0 0 0 0 0 0 0 0 0 0 0 0 0 0 0 0 62 49 49 52 41 41 
18 14 15 21 18 12 85 76 46 147 132 79 155 140 84 0 0 0 0 0 0 0 0 0 0 0 0 0 0 0 
0 0 0 0 0 0 0 0 0 0 0 0 0 0 0 0 0 0 0 0 0 173 168 106 197 193 149 173 168 106 
0 0 0 0 0 0 157 156 144 161 160 154 113 112 104 108 106 93 0 0 0 0 0 0 0 0 0 
0 0 0 0 0 0 0 0 0 0 0 0 0 0 0 0 0 0 0 0 0 0 0 0 0 0 0 141 141 141 91 91 89 
102 102 96 91 91 86 39 37 19 90 90 85 146 145 137 94 93 89 76 76 72 93 93 87 
138 137 129 0 0 0 0 0 0 0 0 0 0 0 0 0 0 0 74 77 64 135 141 115 144 150 123 
90 94 77 107 125 48 119 139 54 90 105 41 0 0 0 0 0 0 0 0 0 0 0 0 0 0 0 91 80 53 
140 126 74 147 132 78 0 0 0 0 0 0 0 0 0 0 0 0 0 0 0 0 0 0 0 0 0 0 0 0 0 0 0 
0 0 0 0 0 0 0 0 0 0 0 0 173 168 106 173 168 106 137 134 107 177 176 166 
151 150 143 93 91 81 122 120 105 0 0 0 0 0 0 0 0 0 0 0 0 0 0 0 0 0 0 0 0 0 
0 0 0 0 0 0 0 0 0 190 159 150 177 113 95 177 112 94 159 76 51 101 95 93 
84 84 80 83 83 79 26 26 21 64 64 61 90 90 85 57 57 55 83 82 79 93 93 88 
146 87 67 162 61 32 162 61 32 162 61 32 162 61 32 0 0 0 0 0 0 0 0 0 0 0 0 
0 0 0 115 134 52 119 139 54 119 139 54 0 0 0 0 0 0 0 0 0 0 0 0 0 0 0 0 0 0 
0 0 0 0 0 0 0 0 0 0 0 0 0 0 0 0 0 0 0 0 0 0 0 0 0 0 0 0 0 0 0 0 0 0 0 0 0 0 0 
0 0 0 0 0 0 125 124 103 156 152 105 173 168 106 121 119 104 87 85 76 31 31 31 
0 0 0 0 0 0 0 0 0 0 0 0 0 0 0 0 0 0 0 0 0 0 0 0 0 0 0 0 0 0 0 0 0 0 0 0 155 95 78 
162 77 52 139 54 30 103 94 92 95 94 94 81 81 81 104 104 101 78 78 75 72 72 70 
125 123 119 89 88 85 35 35 33 71 48 41 162 61 32 159 63 35 162 61 32 162 61 32 
162 61 32 162 61 32 0 0 0 0 0 0 0 0 0 0 0 0 0 0 0 0 0 0 0 0 0 0 0 0 0 0 0 
0 0 0 0 0 0 0 0 0 0 0 0 0 0 0 0 0 0 0 0 0 0 0 0 0 0 0 0 0 0 0 0 0 0 0 0 0 0 0 
0 0 0 0 0 0 0 0 0 0 0 0 102 102 102 102 102 102 65 65 65 142 139 100 
129 125 83 0 0 0 0 0 0 0 0 0 0 0 0 0 0 0 0 0 0 0 0 0 0 0 0 0 0 0 0 0 0 0 0 0 
102 102 102 123 123 123 168 168 168 178 178 178 74 70 68 88 88 85 96 95 90 
90 89 85 83 82 77 60 60 55 64 63 59 39 38 36 33 33 31 35 35 32 11 11 11 
39 39 39 160 64 36 162 61 33 162 61 33 139 51 25 97 32 13 155 58 29 162 61 32 
162 61 32 0 0 0 0 0 0 0 0 0 0 0 0 0 0 0 57 67 26 0 0 0 0 0 0 0 0 0 0 0 0 0 0 0 
0 0 0 0 0 0 119 106 65 0 0 0 0 0 0 0 0 0 0 0 0 0 0 0 0 0 0 0 0 0 0 0 0 0 0 0 
116 116 116 97 97 97 121 121 121 78 78 78 66 65 64 125 121 81 114 111 75 
31 31 31 31 31 31 0 0 0 0 0 0 0 0 0 0 0 0 0 0 0 0 0 0 0 0 0 123 123 123 
151 151 151 174 174 174 165 165 165 99 98 94 120 120 120 110 110 110 
143 142 141 144 143 134 80 79 74 63 63 59 68 68 64 77 77 72 71 71 66 40 40 37 
124 124 124 184 184 184 164 158 156 125 79 66 119 91 83 104 101 100 
61 28 19 55 13 1 89 28 11 156 58 30 162 61 32 0 0 0 0 0 0 0 0 0 0 0 0 119 139 54 
62 73 28 0 0 0 0 0 0 0 0 0 0 0 0 0 0 0 0 0 0 119 106 65 0 0 0 0 0 0 0 0 0 
0 0 0 0 0 0 0 0 0 0 0 0 0 0 0 102 102 102 152 152 152 132 132 132 113 113 113 
39 39 39 37 37 37 152 147 95 113 110 74 89 87 62 31 31 31 0 0 0 0 0 0 0 0 0 
0 0 0 0 0 0 102 102 102 97 97 97 142 142 142 168 168 168 153 153 152 
131 131 126 145 145 143 178 178 178 213 213 213 244 244 243 183 182 177 
143 142 133 147 145 138 143 142 134 143 142 134 255 255 255 236 236 236 
251 251 251 215 215 215 198 198 198 68 68 68 137 137 137 119 119 119 
115 115 115 104 103 102 64 30 21 72 21 6 157 58 30 162 61 32 0 0 0 0 0 0 0 0 0 
0 0 0 0 0 0 0 0 0 0 0 0 0 0 0 0 0 0 0 0 0 0 0 0 0 0 0 0 0 0 0 0 0 0 0 0 0 0 0 
0 0 0 0 0 0 0 0 0 0 0 0 68 68 68 126 126 126 92 92 92 33 33 33 31 31 31 
39 39 39 102 102 102 155 151 96 117 114 77 60 59 46 0 0 0 0 0 0 0 0 0 0 0 0 
89 89 89 138 138 134 167 167 165 152 152 152 122 122 122 122 122 121 
91 90 88 167 167 167 186 186 186 254 254 254 249 249 249 227 227 225 
142 141 132 142 141 132 142 141 132 171 175 212 255 255 255 255 255 255 
255 255 255 236 236 236 171 171 171 85 85 85 130 130 130 152 152 152 
119 119 119 119 119 119 111 111 111 68 41 34 84 28 12 158 59 30 162 61 32 
0 0 0 0 0 0 0 0 0 0 0 0 162 157 157 162 157 157 0 0 0 0 0 0 0 0 0 0 0 0 0 0 0 
0 0 0 0 0 0 0 0 0 0 0 0 0 0 0 0 0 0 0 0 0 0 0 0 49 49 49 32 32 32 31 31 31 
31 31 31 34 34 34 80 80 80 104 104 98 0 0 0 0 0 0 0 0 0 0 0 0 0 0 0 0 0 0 
98 98 98 123 122 118 147 147 139 145 144 138 129 129 125 122 122 121 
97 97 96 84 84 84 181 181 181 182 182 182 255 255 255 254 254 254 106 114 185 
55 66 162 56 67 163 68 78 168 130 137 197 255 255 255 255 255 255 255 255 255 
255 255 255 165 165 165 73 73 73 79 79 79 127 127 127 163 163 163 149 149 149 
134 134 134 105 105 105 53 14 4 147 54 27 162 61 32 0 0 0 0 0 0 0 0 0 0 0 0 
162 157 157 162 157 157 0 0 0 0 0 0 0 0 0 0 0 0 0 0 0 0 0 0 0 0 0 0 0 0 0 0 0 
0 0 0 0 0 0 0 0 0 0 0 0 58 58 58 37 37 37 39 39 39 35 35 35 70 70 66 110 110 86 
110 110 86 103 103 100 0 0 0 0 0 0 0 0 0 0 0 0 0 0 0 54 54 54 122 121 113 
105 105 103 116 116 116 142 141 132 137 136 127 84 84 84 83 83 83 180 180 180 
204 204 204 254 254 254 250 249 249 237 238 247 137 144 200 54 65 162 
60 71 165 255 255 255 255 255 255 255 255 255 255 255 255 202 202 202 
157 157 157 62 62 62 81 81 81 84 84 84 105 105 105 166 166 166 131 131 131 
102 102 102 51 11 0 106 36 16 162 61 32 162 61 32 0 0 0 0 0 0 0 0 0 0 0 0 
0 0 0 0 0 0 0 0 0 0 0 0 0 0 0 0 0 0 0 0 0 0 0 0 0 0 0 0 0 0 0 0 0 0 0 0 0 0 0 
0 0 0 0 0 0 31 31 31 80 80 80 102 102 102 110 110 86 110 110 86 110 110 86 
110 110 86 109 109 88 0 0 0 0 0 0 0 0 0 0 0 0 31 31 31 70 70 67 89 89 86 
78 78 78 86 86 85 133 132 123 83 83 83 93 93 93 185 185 185 165 165 165 
244 244 243 255 255 255 255 255 255 243 243 243 141 148 199 241 242 244 
244 244 244 251 251 251 254 254 254 255 255 255 182 182 182 158 158 158 
69 69 69 83 83 83 82 82 82 69 69 69 80 80 67 79 79 64 74 74 67 52 13 2 53 12 0 
159 60 31 162 61 32 0 0 0 0 0 0 0 0 0 0 0 0 0 0 0 0 0 0 0 0 0 0 0 0 0 0 0 
0 0 0 0 0 0 0 0 0 0 0 0 0 0 0 0 0 0 0 0 0 0 0 0 0 0 0 0 0 0 0 0 0 0 0 0 102 102 102 
107 107 92 110 110 86 110 110 86 110 110 86 110 110 86 109 109 88 0 0 0 0 0 0 
0 0 0 31 31 31 101 101 84 130 130 115 103 103 83 83 83 83 84 84 83 110 110 110 
92 92 92 187 187 187 127 132 177 195 197 209 243 243 243 251 251 251 
249 249 249 200 203 224 247 247 247 251 251 251 242 242 242 253 253 253 
113 119 174 166 166 166 163 163 163 66 66 66 80 80 80 63 63 63 68 68 57 
80 80 65 83 83 67 106 106 83 73 50 41 51 11 0 52 11 0 162 61 32 0 0 0 0 0 0 
0 0 0 0 0 0 0 0 0 0 0 0 0 0 0 0 0 0 0 0 0 0 0 0 0 0 0 0 0 0 0 0 0 0 0 0 0 0 0 
0 0 0 0 0 0 0 0 0 0 0 0 0 0 0 0 0 0 102 102 102 108 108 89 110 110 86 
110 110 86 110 110 86 110 110 86 110 110 86 109 109 89 0 0 0 102 102 102 
137 137 121 165 165 151 164 164 149 122 122 98 65 64 40 80 80 78 79 79 79 
74 74 74 202 202 202 72 81 164 64 73 143 161 165 209 230 231 237 56 67 163 
54 65 162 63 73 166 229 230 237 107 115 185 53 63 151 49 58 132 126 127 146 
165 165 165 83 83 83 107 81 73 96 38 21 79 79 68 125 105 80 120 106 82 
110 110 86 110 110 87 54 13 2 51 11 0 62 16 3 162 61 32 0 0 0 0 0 0 0 0 0 
0 0 0 92 107 42 107 125 48 0 0 0 0 0 0 0 0 0 0 0 0 0 0 0 0 0 0 0 0 0 0 0 0 
0 0 0 0 0 0 0 0 0 0 0 0 0 0 0 0 0 0 0 0 0 106 106 93 110 110 86 110 110 86 
110 110 86 110 110 86 110 110 86 109 109 88 85 85 85 105 105 105 163 163 147 
138 138 119 110 110 86 110 110 86 101 101 78 106 103 82 84 77 70 117 95 85 
191 182 180 71 79 155 53 62 150 57 63 115 146 150 188 213 214 229 55 66 162 
113 121 187 231 231 237 188 192 217 88 96 163 68 76 140 145 146 155 
163 163 163 80 80 80 90 90 90 98 37 19 74 30 17 112 87 67 128 104 79 
114 109 85 110 110 86 103 89 72 51 11 0 51 11 0 85 26 10 162 61 32 0 0 0 0 0 0 
0 0 0 119 139 54 117 137 53 0 0 0 0 0 0 0 0 0 0 0 0 0 0 0 0 0 0 0 0 0 0 0 0 
0 0 0 0 0 0 0 0 0 0 0 0 0 0 0 0 0 0 0 0 0 0 0 0 105 105 96 110 110 86 
110 110 86 110 110 86 110 110 86 35 35 35 72 72 72 79 79 79 45 45 43 101 101 79 
110 110 86 117 107 83 119 107 82 128 104 79 136 98 83 141 95 80 188 164 157 
128 119 154 116 117 159 197 197 196 242 242 242 242 242 242 233 234 238 
228 228 233 231 231 231 239 239 239 240 240 240 192 194 211 221 221 222 
116 116 116 67 67 67 99 38 21 52 19 10 47 17 9 95 39 24 122 98 74 126 105 80 
110 110 86 109 109 88 52 12 0 51 11 0 51 11 0 124 44 21 162 61 32 0 0 0 0 0 0 
119 139 54 118 138 54 0 0 0 0 0 0 0 0 0 0 0 0 0 0 0 0 0 0 0 0 0 0 0 0 0 0 0 
0 0 0 0 0 0 0 0 0 0 0 0 0 0 0 0 0 0 0 0 0 102 102 102 105 105 96 110 110 86 
110 110 86 40 40 38 31 31 31 31 31 31 31 31 31 48 48 45 59 59 49 110 110 86 
128 104 79 126 105 80 104 51 33 82 33 19 154 62 36 154 130 123 191 162 155 
167 167 167 206 206 206 230 230 230 238 238 238 161 165 199 227 227 231 
222 222 222 221 221 221 224 224 224 190 190 190 183 183 183 67 67 67 93 93 93 
65 24 13 48 18 9 50 18 9 57 22 13 128 57 35 127 104 79 123 105 81 115 108 85 
88 77 73 51 11 0 51 11 0 52 11 0 162 61 32 162 61 32 0 0 0 0 0 0 119 139 54 
0 0 0 0 0 0 0 0 0 0 0 0 0 0 0 0 0 0 0 0 0 0 0 0 0 0 0 0 0 0 0 0 0 0 0 0 0 0 0 
0 0 0 0 0 0 0 0 0 0 0 0 102 102 102 109 109 87 95 95 76 32 32 32 31 31 31 
31 31 31 31 31 31 45 45 45 37 37 37 107 107 96 129 102 82 164 65 36 85 32 17 
42 15 8 113 45 26 156 133 125 165 141 134 175 154 148 222 222 222 235 235 235 
153 157 191 53 63 144 209 211 223 236 236 236 224 224 224 213 213 213 
216 216 216 180 180 180 78 78 78 150 150 150 59 22 12 66 27 15 35 13 7 28 10 5 
67 27 16 111 108 87 105 83 66 50 39 36 42 42 42 52 15 5 51 11 0 51 11 0 
162 61 32 162 61 32 0 0 0 0 0 0 119 139 54 42 49 19 0 0 0 0 0 0 0 0 0 0 0 0 
0 0 0 0 0 0 0 0 0 0 0 0 0 0 0 0 0 0 0 0 0 0 0 0 0 0 0 0 0 0 0 0 0 0 0 0 0 0 0 
103 103 99 42 42 41 33 33 33 31 31 31 31 31 31 31 31 31 31 31 31 35 35 35 
103 103 102 182 85 57 162 61 32 85 32 17 53 26 19 116 62 45 110 95 90 
147 119 110 149 127 121 209 209 209 221 221 221 56 67 160 53 63 157 82 91 173 
136 141 190 182 182 182 221 221 221 206 206 206 172 172 172 65 65 65 62 62 62 
92 40 26 83 36 23 39 14 9 43 16 8 66 24 13 50 50 50 56 40 35 31 31 31 122 122 121 
105 84 74 51 11 0 51 11 0 62 16 3 162 61 32 0 0 0 0 0 0 119 139 54 12 14 5 
0 0 0 0 0 0 0 0 0 0 0 0 0 0 0 0 0 0 0 0 0 0 0 0 0 0 0 0 0 0 0 0 0 0 0 0 0 0 0 
0 0 0 0 0 0 0 0 0 0 0 0 0 0 0 37 37 37 32 32 32 31 31 31 31 31 31 31 31 31 
31 31 31 35 35 35 60 60 60 0 0 0 162 61 32 84 35 21 64 43 37 107 73 64 
115 100 94 124 112 109 126 126 126 114 114 114 217 217 217 86 95 172 56 66 155 
128 133 182 196 198 216 220 220 220 199 199 199 140 140 140 117 117 117 
70 70 70 83 73 69 100 58 45 102 44 28 39 15 8 47 17 9 52 19 10 85 32 17 
38 38 38 96 96 77 160 160 144 165 165 150 65 29 18 51 11 0 51 11 0 162 61 32 
162 61 32 0 0 0 0 0 0 0 0 0 0 0 0 0 0 0 0 0 0 0 0 0 0 0 0 0 0 0 0 0 0 0 0 0 
0 0 0 0 0 0 0 0 0 0 0 0 0 0 0 0 0 0 0 0 0 0 0 0 0 0 0 0 0 0 31 31 31 42 42 42 
35 35 35 33 33 33 38 38 38 65 65 65 89 89 89 0 0 0 0 0 0 162 61 32 90 38 24 
74 46 39 127 108 102 139 120 115 107 99 97 117 117 117 116 116 116 125 125 125 
179 179 179 177 177 177 243 243 243 224 224 224 163 163 163 115 115 115 
96 96 96 94 94 94 78 78 78 80 67 61 95 63 52 72 29 18 43 16 8 45 16 8 48 18 9 
53 20 10 81 39 27 110 110 86 120 120 98 163 163 148 161 161 145 59 25 12 
51 11 0 74 21 7 162 61 32 0 0 0 0 0 0 0 0 0 253 253 253 253 253 253 
0 0 0 0 0 0 0 0 0 0 0 0 0 0 0 0 0 0 0 0 0 0 0 0 0 0 0 0 0 0 0 0 0 0 0 0 0 0 0 
0 0 0 0 0 0 0 0 0 0 0 0 0 0 0 0 0 0 0 0 0 0 0 0 0 0 0 0 0 0 0 0 0 162 61 32 
153 58 30 47 18 10 87 54 45 132 112 107 144 126 121 125 104 98 109 109 108 
110 110 110 107 107 107 121 121 121 117 117 116 118 118 117 119 119 118 
118 118 118 118 118 118 91 91 91 85 85 85 76 76 76 78 73 68 90 65 57 95 42 27 
61 25 14 42 16 8 48 18 9 76 28 15 41 15 8 57 56 44 110 110 86 110 110 86 
110 110 86 110 110 86 54 15 4 51 11 0 162 61 32 0 0 0 0 0 0 162 162 162 
154 154 154 138 137 78 125 122 42 0 0 0 0 0 0 0 0 0 0 0 0 0 0 0 0 0 0 0 0 0 
0 0 0 0 0 0 0 0 0 0 0 0 0 0 0 0 0 0 0 0 0 0 0 0 0 0 0 0 0 0 0 0 0 0 0 0 0 0 0 
0 0 0 0 0 0 0 0 0 162 61 32 111 41 22 32 12 6 101 59 47 128 108 102 
138 121 116 125 108 102 120 118 118 119 119 119 119 119 119 117 117 117 
116 116 114 117 117 116 117 117 115 118 118 118 118 118 118 115 115 115 
112 111 110 87 87 86 77 76 72 89 66 57 98 75 67 105 44 26 30 10 5 53 20 10 
49 18 9 35 13 7 44 21 14 77 76 60 110 110 86 110 110 86 110 110 87 107 106 82 
56 13 2 140 52 27 138 138 138 158 157 152 149 148 92 122 119 20 96 94 23 
94 92 24 78 76 26 0 0 0 0 0 0 0 0 0 0 0 0 0 0 0 0 0 0 0 0 0 0 0 0 0 0 0 0 0 0 
0 0 0 0 0 0 0 0 0 0 0 0 0 0 0 0 0 0 0 0 0 0 0 0 0 0 0 0 0 0 0 0 0 170 88 64 
175 107 87 54 20 11 44 16 8 98 53 41 137 119 115 133 114 108 129 111 105 
119 119 119 119 119 119 119 119 119 119 119 119 119 119 119 117 117 116 
118 118 118 119 119 119 119 119 119 119 119 119 119 119 119 113 113 113 
82 82 81 79 66 60 100 74 66 111 46 27 41 16 9 41 15 8 26 9 5 34 12 6 34 12 6 
43 21 14 65 64 51 123 123 106 108 108 105 51 51 51 98 98 98 109 104 98 
177 176 109 125 123 29 94 92 24 92 91 24 96 94 23 31 31 31 0 0 0 0 0 0 0 0 0 
0 0 0 0 0 0 0 0 0 0 0 0 0 0 0 0 0 0 0 0 0 0 0 0 0 0 0 0 0 0 0 0 0 0 0 0 0 0 0 
0 0 0 0 0 0 0 0 0 0 0 0 0 0 0 190 159 150 176 111 93 168 82 58 55 20 11 
51 19 10 97 55 43 140 125 119 155 139 134 127 123 122 119 119 119 119 119 119 
119 119 119 119 119 118 114 113 110 115 114 112 119 119 119 119 119 119 
119 119 119 119 119 119 119 119 119 119 119 119 73 73 72 59 59 57 115 94 83 
114 48 29 77 32 19 26 9 5 38 14 7 31 11 6 41 15 8 68 25 13 82 81 78 99 99 98 
108 108 108 97 97 97 58 58 58 31 31 31 53 52 30 82 80 38 48 48 29 0 0 0 0 0 0 
0 0 0 0 0 0 0 0 0 0 0 0 0 0 0 0 0 0 0 0 0 0 0 0 0 0 0 0 0 0 0 0 0 0 0 0 0 0 0 
0 0 0 0 0 0 0 0 0 0 0 0 0 0 0 0 0 0 0 0 0 0 0 0 0 0 0 174 102 82 176 112 93 
132 53 30 48 18 9 54 23 14 124 62 45 144 128 123 135 121 116 118 115 114 
118 116 115 119 119 119 119 119 119 117 117 116 92 91 90 83 83 82 83 83 83 
99 99 98 102 102 102 108 108 103 105 105 100 102 102 98 83 83 79 69 69 67 
119 96 87 110 45 27 48 18 10 41 15 8 49 18 10 46 17 9 48 18 9 70 36 26 
69 69 69 116 116 116 66 66 66 31 31 31 32 32 32 34 34 34 31 31 31 31 31 31 
0 0 0 0 0 0 0 0 0 0 0 0 0 0 0 0 0 0 0 0 0 0 0 0 0 0 0 0 0 0 0 0 0 0 0 0 0 0 0 
0 0 0 0 0 0 0 0 0 0 0 0 0 0 0 0 0 0 0 0 0 0 0 0 0 0 0 0 0 0 0 0 0 179 122 105 
177 114 96 168 82 57 105 40 21 46 17 9 52 20 11 116 54 37 110 85 79 112 98 94 
109 106 99 102 100 94 111 111 108 97 97 97 79 79 79 83 83 83 83 83 83 81 81 79 
75 75 72 105 105 100 105 105 100 105 105 100 105 105 100 107 107 102 
106 101 95 125 101 90 91 35 19 27 10 5 50 18 10 47 17 9 48 18 9 85 69 64 
132 132 132 32 32 32 34 34 34 32 32 32 31 31 31 32 32 32 34 34 34 31 31 31 
31 31 31 0 0 0 0 0 0 0 0 0 0 0 0 0 0 0 0 0 0 0 0 0 0 0 0 0 0 0 0 0 0 0 0 0 
0 0 0 0 0 0 0 0 0 0 0 0 0 0 0 0 0 0 145 136 50 0 0 0 0 0 0 0 0 0 0 0 0 0 0 0 
190 159 150 183 132 118 166 75 48 120 45 24 87 32 17 50 18 9 45 16 8 103 55 41 
109 89 81 114 100 93 113 108 104 107 107 102 108 108 103 110 110 105 
105 105 100 109 109 107 86 86 86 81 81 78 99 99 95 106 106 101 127 127 121 
156 156 148 156 156 148 156 156 148 155 149 140 111 65 51 46 17 9 33 12 6 
80 30 15 98 71 63 140 140 140 152 151 82 148 145 48 75 73 27 37 37 31 49 49 47 
39 39 39 28 28 28 22 21 21 157 60 32 162 61 32 0 0 0 0 0 0 0 0 0 0 0 0 0 0 0 
0 0 0 0 0 0 0 0 0 0 0 0 0 0 0 0 0 0 0 0 0 0 0 0 0 0 0 0 0 0 0 0 0 0 0 0 145 136 50 
0 0 0 0 0 0 0 0 0 0 0 0 0 0 0 190 159 150 172 96 74 162 61 32 94 35 18 
86 32 17 49 18 9 47 17 9 106 47 31 151 130 121 146 127 120 140 132 126 
153 152 144 156 156 148 156 156 148 146 146 139 105 105 101 98 98 95 113 112 105 
134 134 128 185 185 179 171 171 165 156 156 148 156 156 148 156 156 148 
139 125 116 106 49 33 65 26 15 95 40 24 156 155 120 158 156 79 124 121 21 
98 95 24 114 112 22 98 96 24 65 64 29 41 41 36 24 24 24 81 31 16 82 31 16 
115 43 22 162 61 32 162 61 32 0 0 0 0 0 0 0 0 0 0 0 0 0 0 0 0 0 0 0 0 0 0 0 0 
0 0 0 145 136 50 145 136 50 145 136 50 145 136 50 145 136 50 145 136 50 
145 136 50 0 0 0 0 0 0 0 0 0 0 0 0 0 0 0 0 0 0 183 135 121 174 102 82 
162 61 32 87 32 17 79 29 16 49 18 9 53 19 10 99 38 21 154 134 128 145 127 119 
143 127 118 156 156 148 156 156 148 156 156 148 110 110 105 105 105 100 
83 83 83 104 104 101 187 187 182 204 204 201 161 161 155 156 156 148 
156 156 148 156 156 148 107 86 77 122 72 56 37 14 8 71 42 20 130 127 40 
107 105 23 63 62 27 50 49 28 53 53 28 54 52 28 79 77 25 127 94 26 92 35 18 
86 32 17 85 31 17 53 19 10 153 58 30 162 61 32 0 0 0 0 0 0 0 0 0 0 0 0 0 0 0 
0 0 0 0 0 0 0 0 0 0 0 0 145 136 50 145 136 50 145 136 50 145 136 50 145 136 50 
145 136 50 145 136 50 0 0 0 0 0 0 0 0 0 0 0 0 0 0 0 0 0 0 184 136 123 
173 100 78 162 61 32 88 33 17 79 29 15 47 17 9 51 19 10 67 25 13 146 132 126 
155 136 129 149 134 125 156 156 148 156 156 148 131 131 125 105 105 101 
105 105 100 90 90 88 136 136 136 195 195 191 201 201 196 156 156 148 
156 156 148 156 156 148 126 126 120 119 101 92 123 99 89 59 26 16 30 12 7 
71 48 28 89 88 53 73 71 26 57 56 27 47 47 29 51 51 29 68 67 27 109 106 22 
139 106 33 86 32 17 86 32 17 64 24 12 113 43 22 167 79 54 162 61 32 0 0 0 
0 0 0 0 0 0 0 0 0 0 0 0 0 0 0 0 0 0 0 0 0 145 136 50 145 136 50 145 136 50 
145 136 50 145 136 50 145 136 50 145 136 50 0 0 0 0 0 0 0 0 0 0 0 0 0 0 0 
190 159 150 183 136 122 167 79 54 162 61 32 96 36 19 54 20 11 48 18 9 50 18 9 
88 34 20 154 113 100 151 130 121 162 144 132 156 156 148 127 127 121 
106 106 101 105 105 101 107 107 102 117 117 114 132 132 132 155 155 151 
181 181 175 156 156 148 156 156 148 130 130 124 105 105 100 110 104 97 
137 111 99 88 37 23 26 9 5 49 18 9 65 35 27 87 85 25 50 50 29 71 70 26 
89 86 25 120 117 21 133 130 19 133 130 19 135 104 29 109 44 24 64 24 13 
114 75 64 172 96 74 162 61 32 162 61 32 0 0 0 0 0 0 0 0 0 0 0 0 0 0 0 0 0 0 
0 0 0 145 136 50 145 136 50 145 136 50 145 136 50 145 136 50 145 136 50 
145 136 50 0 0 0 0 0 0 0 0 0 0 0 0 0 0 0 190 159 150 181 129 114 162 61 32 
162 61 32 92 34 18 64 24 12 47 17 9 46 17 9 56 21 11 99 46 30 184 164 155 
158 157 150 111 111 105 126 126 120 107 107 102 106 106 101 108 108 103 
107 107 106 118 118 118 159 159 155 176 176 169 164 164 157 156 156 148 
136 135 129 75 75 72 105 87 80 119 94 83 107 45 28 44 19 12 27 9 5 58 21 11 
126 123 21 109 107 22 133 130 19 133 130 19 133 130 19 133 130 19 133 130 19 
133 130 19 132 129 23 52 29 10 139 97 85 165 70 43 162 61 32 162 61 32 
0 0 0 0 0 0 0 0 0 0 0 0 0 0 0 0 0 0 0 0 0 0 0 0 0 0 0 0 0 0 0 0 0 0 0 0 0 0 0 
0 0 0 0 0 0 0 0 0 0 0 0 0 0 0 0 0 0 190 159 150 181 128 113 162 61 32 
162 61 32 130 49 26 72 27 14 47 17 9 48 18 9 83 31 16 131 60 40 91 82 77 
61 61 61 71 71 71 31 31 31 61 61 59 125 125 119 107 107 102 89 89 89 98 98 98 
123 123 119 167 167 162 107 106 104 108 108 107 120 120 120 97 97 97 41 41 40 
64 48 42 113 51 34 50 21 12 26 9 5 42 15 8 82 48 15 133 130 19 133 130 19 
133 130 19 133 130 19 133 130 19 103 86 16 73 33 14 88 33 17 81 50 41 157 104 88 
161 61 32 153 58 30 162 61 32 162 61 32 0 0 0 0 0 0 0 0 0 0 0 0 0 0 0 0 0 0 
0 0 0 0 0 0 0 0 0 0 0 0 0 0 0 0 0 0 97 79 71 0 0 0 0 0 0 0 0 0 0 0 0 0 0 0 
190 159 150 182 131 116 162 61 32 162 61 32 129 49 25 74 27 14 48 18 9 46 17 9 
55 20 11 97 40 24 90 89 89 120 120 120 120 120 120 110 110 110 37 37 37 
53 53 51 84 84 80 80 80 80 87 32 17 140 140 139 117 117 117 121 121 121 
118 118 118 79 79 79 42 42 42 31 31 31 58 42 37 99 56 44 66 28 18 25 9 4 
33 12 6 68 28 15 126 106 19 133 130 19 135 125 20 92 46 17 47 17 9 45 17 9 
46 17 9 32 11 6 121 88 80 168 100 80 150 57 29 151 57 29 162 61 32 162 61 32 
162 61 32 0 0 0 0 0 0 0 0 0 0 0 0 0 0 0 0 0 0 103 85 69 103 85 69 0 0 0 0 0 0 
0 0 0 0 0 0 255 255 255 0 0 0 0 0 0 0 0 0 0 0 0 178 116 99 182 129 114 
167 77 51 162 61 32 113 42 22 54 20 11 46 17 9 44 16 8 60 22 12 84 34 19 
109 109 109 95 95 95 35 35 35 31 31 31 31 31 31 40 40 40 57 57 54 89 37 21 
85 32 17 163 163 163 148 148 148 73 73 73 31 31 31 31 31 31 31 31 31 31 31 31 
50 39 36 67 45 39 77 32 19 35 13 6 25 9 5 41 15 8 57 32 10 49 24 9 64 24 12 
46 17 9 46 17 9 38 14 7 29 10 5 70 45 38 150 101 86 163 90 68 151 57 29 
153 58 30 162 61 32 162 61 32 162 61 32 0 0 0 0 0 0 0 0 0 0 0 0 0 0 0 0 0 0 
103 85 69 103 85 69 0 0 0 0 0 0 0 0 0 0 0 0 118 103 65 0 0 0 0 0 0 0 0 0 0 0 0 
190 159 150 180 127 111 171 92 69 162 61 32 130 49 26 69 25 13 45 17 9 45 17 9 
51 19 10 79 36 24 64 64 64 31 31 31 31 31 31 31 31 31 31 31 31 31 31 31 
35 35 35 72 29 17 83 31 17 99 84 81 151 151 151 116 116 116 69 69 69 31 31 31 
32 32 32 32 32 32 38 34 32 110 87 78 99 48 34 58 22 12 49 18 9 33 11 6 29 10 5 
41 15 8 31 11 6 30 11 6 32 11 6 29 10 6 72 27 14 128 79 65 171 109 91 
166 97 76 150 57 29 150 57 29 162 61 32 162 61 32 0 0 0 0 0 0 0 0 0 0 0 0 
0 0 0 0 0 0 103 85 69 0 0 0 0 0 0 108 91 67 105 88 68 101 83 70 90 70 75 
97 79 71 0 0 0 0 0 0 0 0 0 0 0 0 0 0 0 181 125 110 179 120 103 162 61 32 
151 57 29 128 49 25 77 29 15 47 17 9 40 14 8 76 30 17 31 31 31 32 32 32 
33 33 33 31 31 31 31 31 31 35 35 35 49 48 47 83 31 17 48 18 9 71 27 14 
148 148 148 129 129 129 78 78 78 40 40 40 40 40 40 34 34 34 79 79 76 151 147 139 
95 61 50 89 33 17 75 28 15 83 31 16 78 29 15 52 19 10 55 20 11 25 9 5 33 13 6 
45 17 8 123 46 24 150 57 29 171 110 91 155 71 45 150 57 29 0 0 0 0 0 0 0 0 0 
0 0 0 0 0 0 0 0 0 0 0 0 0 0 0 0 0 0 103 85 69 0 0 0 0 0 0 106 89 67 105 87 68 
101 83 70 94 75 73 92 72 74 0 0 0 0 0 0 0 0 0 0 0 0 162 61 32 175 109 90 
177 113 94 162 61 32 150 57 29 149 57 29 150 57 29 72 27 14 76 28 14 156 59 31 
132 83 69 47 47 47 35 35 35 35 35 35 37 37 37 46 46 45 80 79 75 97 36 19 
94 35 18 76 28 15 133 100 90 133 133 133 124 124 124 39 39 39 48 48 48 
80 80 78 106 106 101 127 127 121 156 156 148 2 0 0 2 0 0 2 0 0 0 0 0 0 0 0 
0 0 0 0 0 0 0 0 0 0 0 0 0 0 0 0 0 0 171 110 91 151 60 32 0 0 0 0 0 0 0 0 0 
0 0 0 0 0 0 0 0 0 0 0 0 0 0 0 0 0 0 0 0 0 0 0 0 108 92 67 107 90 67 103 85 69 
102 84 69 100 81 71 94 75 73 92 72 74 0 0 0 0 0 0 0 0 0 0 0 0 162 61 32 
171 91 68 177 113 95 162 61 32 155 59 30 150 57 29 150 57 29 150 57 29 
0 0 0 162 61 32 157 148 142 169 169 166 119 119 115 94 94 91 102 102 98 
104 104 99 130 130 123 0 0 0 0 0 0 0 0 0 0 0 0 92 92 92 172 172 170 
141 141 139 83 83 79 92 92 88 105 105 100 104 104 100 148 148 141 0 0 0 0 0 0 
0 0 0 0 0 0 0 0 0 0 0 0 0 0 0 0 0 0 0 0 0 0 0 0 0 0 0 159 79 55 0 0 0 0 0 0 
0 0 0 0 0 0 0 0 0 0 0 0 0 0 0 0 0 0 0 0 0 0 0 0 0 0 0 0 0 0 105 88 68 
105 88 68 102 84 69 98 78 71 95 75 72 94 74 73 93 73 74 0 0 0 0 0 0 0 0 0 
0 0 0 0 0 0 157 60 32 157 70 43 151 57 29 150 57 29 150 57 29 150 57 29 
150 57 29 0 0 0 0 0 0 159 159 157 175 175 172 152 152 148 105 105 100 
105 105 100 105 105 100 135 135 128 0 0 0 0 0 0 0 0 0 0 0 0 102 102 102 
117 117 112 183 183 181 101 101 96 102 102 97 103 103 99 105 105 101 
117 117 111 156 156 148 0 0 0 0 0 0 0 0 0 0 0 0 0 0 0 0 0 0 0 0 0 0 0 0 0 0 0 
0 0 0 150 57 29 0 0 0 0 0 0 0 0 0 0 0 0 0 0 0 0 0 0 0 0 0 0 0 0 0 0 0 0 0 0 
0 0 0 0 0 0 101 83 70 101 83 70 99 80 71 95 75 73 93 73 74 94 74 73 93 73 73 
92 71 74 90 69 75 90 68 76 89 67 76 83 59 79 0 0 0 0 0 0 0 0 0 0 0 0 0 0 0 
150 57 29 150 57 29 150 57 29 0 0 0 164 164 161 167 167 164 140 140 136 
117 117 113 105 105 100 105 105 100 154 154 146 0 0 0 0 0 0 0 0 0 0 0 0 0 0 0 
0 0 0 175 175 170 117 117 113 105 105 100 107 107 102 105 105 100 104 104 100 
124 124 118 0 0 0 102 102 102 0 0 0 0 0 0 0 0 0 0 0 0 0 0 0 0 0 0 0 0 0 0 0 0 
0 0 0 0 0 0 0 0 0 0 0 0 0 0 0 0 0 0 0 0 0 0 0 0 0 0 0 0 0 0 0 0 0 0 0 0 0 0 0 
93 73 73 93 73 74 93 73 74 94 74 74 94 74 74 93 73 74 92 72 74 92 72 74 
90 68 76 90 68 76 87 64 78 0 0 0 0 0 0 0 0 0 0 0 0 0 0 0 0 0 0 0 0 0 150 57 29 
0 0 0 0 0 0 0 0 0 128 128 122 107 107 102 104 104 100 105 105 100 106 106 101 
153 153 145 0 0 0 0 0 0 0 0 0 0 0 0 0 0 0 0 0 0 156 156 148 151 151 143 
106 106 101 105 105 100 106 106 102 105 105 100 105 105 101 111 111 106 
0 0 0 0 0 0 0 0 0 0 0 0 0 0 0 0 0 0 0 0 0 0 0 0 0 0 0 0 0 0 0 0 0 0 0 0 0 0 0 
0 0 0 0 0 0 0 0 0 0 0 0 0 0 0 0 0 0 0 0 0 0 0 0 0 0 0 88 66 76 88 66 76 
89 68 76 92 72 75 94 73 74 93 73 74 92 72 74 91 70 75 80 49 84 0 0 0 0 0 0 
0 0 0 0 0 0 0 0 0 0 0 0 0 0 0 0 0 0 0 0 0 0 0 0 0 0 0 0 0 0 0 0 0 156 156 148 
129 129 123 113 113 108 112 112 107 105 105 100 88 88 84 0 0 0 0 0 0 0 0 0 
0 0 0 0 0 0 0 0 0 144 150 123 0 0 0 140 140 133 115 115 110 106 106 101 
114 114 109 105 105 100 102 102 98 119 119 116 0 0 0 0 0 0 0 0 0 0 0 0 0 0 0 
0 0 0 0 0 0 0 0 0 0 0 0 0 0 0 0 0 0 0 0 0 0 0 0 0 0 0 0 0 0 0 0 0 0 0 0 0 0 0 
0 0 0 0 0 0 0 0 0 87 65 77 87 65 77 88 66 76 91 70 75 93 72 74 94 74 74 
93 73 74 91 69 76 89 67 77 82 58 80 0 0 0 0 0 0 0 0 0 0 0 0 0 0 0 0 0 0 0 0 0 
0 0 0 0 0 0 0 0 0 0 0 0 0 0 0 154 154 147 156 156 148 142 142 135 111 111 106 
105 105 100 33 33 32 0 0 0 0 0 0 0 0 0 0 0 0 0 0 0 0 0 0 0 0 0 0 0 0 155 155 147 
156 156 148 110 110 105 134 134 128 135 135 129 105 105 100 100 100 96 
107 107 102 0 0 0 0 0 0 0 0 0 0 0 0 0 0 0 0 0 0 0 0 0 0 0 0 0 0 0 0 0 0 0 0 0 
0 0 0 0 0 0 0 0 0 0 0 0 0 0 0 0 0 0 0 0 0 0 0 0 0 0 0 86 64 78 86 64 78 
88 66 76 92 71 74 94 74 73 94 74 74 92 72 75 90 69 76 89 67 76 84 60 79 
0 0 0 0 0 0 0 0 0 0 0 0 0 0 0 0 0 0 0 0 0 0 0 0 0 0 0 0 0 0 0 0 0 0 0 0 151 151 144 
156 156 148 156 156 148 153 153 145 105 105 100 31 31 31 0 0 0 0 0 0 0 0 0 
0 0 0 0 0 0 0 0 0 0 0 0 0 0 0 0 0 0 155 155 147 150 150 143 152 152 144 
156 156 148 140 140 133 108 108 103 108 108 103 45 45 44 0 0 0 0 0 0 0 0 0 
0 0 0 0 0 0 0 0 0 0 0 0 0 0 0 0 0 0 0 0 0 0 0 0 0 0 0 0 0 0 0 0 0 0 0 0 0 0 0 
0 0 0 0 0 0 0 0 0 81 57 80 82 59 79 94 74 73 108 91 67 101 83 70 93 72 74 
90 69 75 89 68 76 89 67 76 83 61 79 0 0 0 0 0 0 0 0 0 0 0 0 0 0 0 0 0 0 0 0 0 
0 0 0 0 0 0 0 0 0 0 0 0 0 0 0 154 154 146 156 156 148 156 156 148 156 156 148 
96 96 92 31 31 31 0 0 0 0 0 0 0 0 0 0 0 0 0 0 0 0 0 0 0 0 0 0 0 0 0 0 0 148 148 141 
156 156 148 156 156 148 156 156 148 156 156 148 156 156 148 69 69 66 37 37 36 
0 0 0 0 0 0 0 0 0 0 0 0 0 0 0 0 0 0 0 0 0 0 0 0 0 0 0 0 0 0 0 0 0 0 0 0 0 0 0 
0 0 0 0 0 0 0 0 0 0 0 0 0 0 0 87 65 77 0 0 0 0 0 0 0 0 0 178 181 34 109 93 66 
92 72 74 89 68 76 89 68 76 88 67 76 83 61 79 0 0 0 0 0 0 0 0 0 0 0 0 0 0 0 
0 0 0 0 0 0 0 0 0 0 0 0 0 0 0 0 0 0 67 67 65 61 61 59 105 105 100 156 156 148 
156 156 148 99 99 94 31 31 31 0 0 0 0 0 0 0 0 0 0 0 0 0 0 0 0 0 0 0 0 0 0 0 0 
0 0 0 44 44 43 79 79 76 122 122 116 113 113 108 67 67 65 35 35 35 38 38 38 
39 39 38 50 50 49 0 0 0 0 0 0 0 0 0 0 0 0 0 0 0 0 0 0 0 0 0 0 0 0 0 0 0 0 0 0 
0 0 0 0 0 0 0 0 0 0 0 0 0 0 0 0 0 0 0 0 0 87 65 77 0 0 0 0 0 0 0 0 0 215 228 17 
110 95 66 92 71 74 89 68 76 89 68 76 88 67 76 83 61 79 0 0 0 0 0 0 0 0 0 0 0 0 
0 0 0 0 0 0 0 0 0 0 0 0 0 0 0 38 38 38 33 33 33 32 32 32 31 31 31 35 35 35 
85 85 81 142 142 136 139 139 133 34 34 34 0 0 0 0 0 0 0 0 0 0 0 0 0 0 0 0 0 0 
0 0 0 0 0 0 31 31 31 47 47 46 34 34 34 31 31 31 34 34 34 32 32 32 33 33 33 
32 32 32 45 45 44 80 80 77 0 0 0 0 0 0 0 0 0 0 0 0 0 0 0 0 0 0 0 0 0 0 0 0 
0 0 0 0 0 0 0 0 0 0 0 0 0 0 0 0 0 0 0 0 0 0 0 0 0 0 0 0 0 0 120 107 61 
120 107 61 0 0 0 0 0 0 0 0 0 0 0 0 0 0 0 0 0 0 0 0 0 0 0 0 0 0 253 0 0 0 0 0 0 
0 0 0 0 0 0 0 0 0 0 0 0 43 43 42 35 35 34 31 31 31 31 31 31 31 31 31 31 31 31 
31 31 31 32 32 32 41 41 41 147 147 140 153 153 145 0 0 0 0 0 0 0 0 0 0 0 0 
0 0 0 0 0 0 0 0 0 31 31 31 36 36 36 31 31 31 31 31 31 35 35 35 33 33 33 
31 31 31 31 31 31 35 35 35 31 31 31 0 0 0 0 0 0 0 0 0 0 0 0 0 0 0 0 0 0 0 0 0 
0 0 0 0 0 0 0 0 0 0 0 0 0 0 0 0 0 0 0 0 0 0 0 0 0 0 0 0 0 0 0 0 0 0 0 0 120 107 61 
120 107 61 0 0 0 0 0 0 0 0 0 0 0 0 0 0 0 0 0 0 0 0 0 0 0 0 0 0 253 0 0 0 0 0 0 
0 0 0 0 0 0 31 31 31 56 56 55 32 32 32 31 31 31 31 31 31 31 31 31 31 31 31 
31 31 31 31 31 31 31 31 31 34 34 34 34 34 34 50 50 49 128 128 122 0 0 0 0 0 0 
0 0 0 0 0 0 0 0 0 156 156 148 41 41 41 44 44 43 31 31 31 31 31 31 31 31 31 
33 33 33 41 41 41 43 43 42 31 31 31 0 0 0 0 0 0 0 0 0 0 0 0 0 0 0 0 0 0 0 0 0 
0 0 0 0 0 0 0 0 0 0 0 0 0 0 0 0 0 0 0 0 0 0 0 0 0 0 0 0 0 0 0 0 0 0 0 0 0 0 0 
0 0 0 0 0 0 0 0 0 0 0 0 0 0 0 0 0 0 0 0 0 0 0 0 0 0 0 0 0 0 0 0 0 0 0 0 0 0 0 
0 0 0 0 0 0 31 31 31 59 59 59 41 41 40 48 48 47 56 56 54 47 47 46 46 46 45 
48 48 47 43 43 42 42 42 41 46 46 45 49 49 48 58 58 56 31 31 31 0 0 0 0 0 0 
0 0 0 0 0 0 0 0 0 156 156 148 97 97 92 50 50 48 35 35 35 38 38 38 43 43 42 
64 64 62 31 31 31 0 0 0 0 0 0 0 0 0 0 0 0 0 0 0 0 0 0 0 0 0 0 0 0 0 0 0 0 0 0 
0 0 0 0 0 0 0 0 0 0 0 0 0 0 0 0 0 0 0 0 0 0 0 0 0 0 0 0 0 0 0 0 0 0 0 0 0 0 0 
0 0 0 0 0 0 0 0 0 0 0 0 0 0 0 0 0 0 0 0 0 0 0 0 0 0 0 0 0 0 0 0 0 0 0 0 0 0 0 
0 0 0 0 0 0 0 0 0 0 0 0 0 0 0 76 75 71 76 75 71 77 76 72 81 80 75 108 107 100 
0 0 0 0 0 0 0 0 0 0 0 0 0 0 0 0 0 0 0 0 0 144 141 44 148 146 42 150 149 40 
151 151 40 154 155 39 157 160 37 158 161 37 0 0 0 0 0 0 0 0 0 0 0 0 0 0 0 
0 0 0 0 0 0 0 0 0 0 0 0 0 0 0 0 0 0 0 0 0 0 0 0 0 0 0 0 0 0 0 0 0 0 0 0 0 0 0 
0 0 0 0 0 0 0 0 0 0 0 0 0 0 0 0 0 0 0 0 0 0 0 0 0 0 0 0 0 0 0 0 0 0 0 0 0 0 0 
0 0 0 0 0 0 0 0 0 0 0 0 0 0 0 0 0 0 0 0 0 0 0 0 0 0 0 0 0 0 0 0 0 144 150 123 
61 63 52 0 0 0 0 0 0 0 0 0 0 0 0 0 0 0 143 140 44 143 140 44 143 141 44 
143 141 44 143 141 44 143 141 44 143 141 44 143 141 44 143 140 45 143 140 45 
142 139 45 141 137 44 0 0 0 0 0 0 0 0 0 145 143 44 145 143 44 0 0 0 0 0 0 
0 0 0 0 0 0 0 0 0 0 0 0 0 0 0 0 0 0 0 0 0 0 0 0 0 0 0 0 0 0 0 0 0 0 0 0 0 0 0 
0 0 0 0 0 0 0 0 0 0 0 0 0 0 0 0 0 0 0 0 0 0 0 0 
