P3
64 64
255
0 0 0 0 0 0 0 0 0 0 0 0 0 0 0 0 0 0 0 0 0 0 0 0 0 0 0 0 0 0 0 0 0 145 139 60 
145 139 60 145 139 60 145 139 60 145 139 60 0 0 0 0 0 0 0 0 0 0 0 0 0 0 0 
0 0 0 0 0 0 0 0 0 0 0 0 142 140 63 142 140 63 142 140 63 142 140 63 142 140 63 
142 140 63 0 0 0 0 0 0 0 0 0 0 0 0 0 0 0 0 0 0 0 0 0 0 0 0 0 0 0 0 0 0 144 142 64 
144 142 64 144 142 64 144 142 64 0 0 0 0 0 0 0 0 0 0 0 0 145 141 63 145 141 63 
145 141 63 145 140 62 145 140 62 145 140 62 0 0 0 0 0 0 0 0 0 0 0 0 0 0 0 
0 0 0 0 0 0 0 0 0 0 0 0 0 0 0 0 0 0 0 0 0 0 0 0 0 0 0 0 0 0 0 0 0 0 0 0 0 0 0 
0 0 0 0 0 0 0 0 0 0 0 0 0 0 0 0 0 0 0 0 0 0 0 0 0 0 0 0 0 0 0 0 0 0 0 0 0 0 0 
0 0 0 0 0 0 0 0 0 0 0 0 0 0 0 0 0 0 0 0 0 0 0 0 0 0 0 0 0 0 0 0 0 0 0 0 0 0 0 
0 0 0 0 0 0 0 0 0 0 0 0 0 0 0 0 0 0 0 0 0 0 0 0 0 0 0 0 0 0 0 0 0 0 0 0 0 0 0 
0 0 0 145 141 63 145 141 63 145 141 63 145 140 62 145 140 62 145 140 62 
0 0 0 0 0 0 0 0 0 0 0 0 0 0 0 0 0 0 0 0 0 0 0 0 0 0 0 0 0 0 0 0 0 0 0 0 0 0 0 
0 0 0 0 0 0 0 0 0 0 0 0 0 0 0 0 0 0 0 0 0 0 0 0 0 0 0 0 0 0 0 0 0 0 0 0 0 0 0 
0 0 0 0 0 0 0 0 0 0 0 0 0 0 0 0 0 0 0 0 0 0 0 0 0 0 0 0 0 0 0 0 0 0 0 0 0 0 0 
0 0 0 0 0 0 0 0 0 0 0 0 0 0 0 0 0 0 0 0 0 0 0 0 0 0 0 0 0 0 0 0 0 0 0 0 0 0 0 
0 0 0 0 0 0 0 0 0 0 0 0 0 0 0 0 0 0 145 141 63 145 141 63 145 141 63 
145 140 62 145 140 62 145 140 62 0 0 0 0 0 0 0 0 0 0 0 0 0 0 0 0 0 0 0 0 0 
0 0 0 0 0 0 0 0 0 0 0 0 0 0 0 0 0 0 0 0 0 0 0 0 0 0 0 0 0 0 0 0 0 0 0 0 0 0 0 
0 0 0 0 0 0 0 0 0 0 0 0 0 0 0 0 0 0 0 0 0 0 0 0 0 0 0 0 0 0 0 0 0 0 0 0 0 0 0 
0 0 0 255 255 255 202 202 202 160 160 160 119 119 119 119 119 119 119 119 119 
0 0 0 0 0 0 0 0 0 0 0 0 0 0 0 0 0 0 0 0 0 0 0 0 0 0 0 0 0 0 0 0 0 0 0 0 0 0 0 
0 0 0 0 0 0 0 0 0 0 0 0 0 0 0 0 0 0 0 0 0 0 0 0 0 0 0 0 0 0 0 0 0 0 0 0 0 0 0 
0 0 0 0 0 0 0 0 0 0 0 0 0 0 0 0 0 0 0 0 0 0 0 0 0 0 0 0 0 0 0 0 0 0 0 0 0 0 0 
0 0 0 0 0 0 0 0 0 0 0 0 0 0 0 0 0 0 0 0 0 0 0 0 0 0 0 0 0 0 0 0 0 0 0 0 0 0 0 
0 0 0 0 0 0 0 0 0 0 0 0 0 0 0 0 0 0 163 163 163 154 154 154 147 147 147 
119 119 119 119 119 119 119 119 119 119 119 119 119 119 119 0 0 0 0 0 0 133 130 19 
133 130 19 133 130 19 133 130 19 133 130 19 0 0 0 0 0 0 0 0 0 0 0 0 0 0 0 
0 0 0 0 0 0 0 0 0 0 0 0 0 0 0 0 0 0 0 0 0 0 0 0 0 0 0 0 0 0 0 0 0 0 0 0 0 0 0 
0 0 0 0 0 0 0 0 0 0 0 0 0 0 0 0 0 0 0 0 0 0 0 0 0 0 0 0 0 0 0 0 0 0 0 0 0 0 0 
0 0 0 0 0 0 0 0 0 0 0 0 0 0 0 0 0 0 0 0 0 0 0 0 0 0 0 0 0 0 0 0 0 0 0 0 0 0 0 
0 0 0 0 0 0 0 0 0 0 0 0 0 0 0 155 155 155 154 154 154 154 154 154 131 131 131 
123 123 123 104 104 104 88 88 88 82 82 82 119 119 119 0 0 0 0 0 0 133 130 19 
133 130 19 133 130 19 133 130 19 0 0 0 0 0 0 0 0 0 0 0 0 0 0 0 0 0 0 0 0 0 
0 0 0 0 0 0 0 0 0 0 0 0 0 0 0 0 0 0 0 0 0 0 0 0 0 0 0 0 0 0 0 0 0 0 0 0 0 0 0 
0 0 0 0 0 0 0 0 0 0 0 0 0 0 0 0 0 0 0 0 0 0 0 0 0 0 0 0 0 0 0 0 0 0 0 0 0 0 0 
0 0 0 0 0 0 0 0 0 0 0 0 0 0 0 0 0 0 0 0 0 0 0 0 0 0 0 0 0 0 0 0 0 0 0 0 0 0 0 
0 0 0 0 0 0 0 0 0 139 139 139 154 154 154 147 147 147 131 131 131 153 153 153 
103 103 103 62 62 62 81 81 81 119 119 119 0 0 0 0 0 0 133 130 19 133 130 19 
133 130 19 133 130 19 0 0 0 0 0 0 0 0 0 0 0 0 0 0 0 0 0 0 0 0 0 0 0 0 0 0 0 
0 0 0 0 0 0 0 0 0 0 0 0 0 0 0 0 0 0 0 0 0 0 0 0 0 0 0 0 0 0 0 0 0 0 0 0 0 0 0 
0 0 0 0 0 0 0 0 0 0 0 0 0 0 0 0 0 0 0 0 0 0 0 0 0 0 0 0 0 0 0 0 0 0 0 0 0 0 0 
0 0 0 0 0 0 0 0 0 0 0 0 0 0 0 0 0 0 0 0 0 0 0 0 0 0 0 0 0 0 0 0 0 0 0 0 0 0 0 
0 0 0 148 148 148 143 143 143 119 119 119 34 34 34 99 99 99 147 147 147 
87 87 87 82 82 82 109 109 109 0 0 0 0 0 0 133 130 19 133 130 19 133 130 19 
133 130 19 0 0 0 0 0 0 0 0 0 0 0 0 0 0 0 0 0 0 0 0 0 0 0 0 0 0 0 0 0 0 0 0 0 
0 0 0 0 0 0 0 0 0 0 0 0 0 0 0 0 0 0 0 0 0 0 0 0 0 0 0 0 0 0 0 0 0 0 0 0 0 0 0 
0 0 0 0 0 0 0 0 0 0 0 0 0 0 0 0 0 0 0 0 0 0 0 0 0 0 0 0 0 0 0 0 0 0 0 0 0 0 0 
0 0 0 0 0 0 0 0 0 0 0 0 0 0 0 0 0 0 0 0 0 0 0 0 0 0 0 0 0 0 0 0 0 0 0 0 155 155 155 
120 120 120 96 96 96 3 3 3 104 104 104 107 107 107 55 55 55 78 78 78 92 92 92 
0 0 0 0 0 0 0 0 0 133 130 19 133 130 19 133 130 19 0 0 0 0 0 0 0 0 0 0 0 0 
0 0 0 0 0 0 0 0 0 0 0 0 0 0 0 0 0 0 0 0 0 0 0 0 0 0 0 0 0 0 0 0 0 0 0 0 0 0 0 
0 0 0 0 0 0 0 0 0 0 0 0 0 0 0 0 0 0 0 0 0 0 0 0 0 0 0 0 0 0 0 0 0 0 0 0 0 0 0 
0 0 0 0 0 0 0 0 0 0 0 0 0 0 0 0 0 0 0 0 0 0 0 0 0 0 0 0 0 0 0 0 0 0 0 0 0 0 0 
0 0 0 0 0 0 0 0 0 0 0 0 0 0 0 0 0 0 160 160 160 92 92 92 6 6 6 16 16 6 32 32 22 
23 23 13 74 74 68 92 92 92 107 107 107 0 0 0 0 0 0 0 0 0 0 0 0 133 130 19 
133 130 19 0 0 0 0 0 0 0 0 0 0 0 0 0 0 0 0 0 0 0 0 0 0 0 0 0 0 0 0 0 0 0 0 0 
0 0 0 0 0 0 0 0 0 0 0 0 0 0 0 0 0 0 0 0 0 0 0 0 0 0 0 0 0 0 0 0 0 0 0 0 0 0 0 
0 0 0 0 0 0 0 0 0 0 0 0 0 0 0 0 0 0 0 0 0 0 0 0 0 0 0 0 0 0 0 0 0 0 0 0 0 0 0 
0 0 0 0 0 0 0 0 0 0 0 0 0 0 0 0 0 0 0 0 0 0 0 0 0 0 0 0 0 0 0 0 0 0 0 0 119 119 119 
153 153 153 87 87 87 43 43 33 46 46 36 139 139 129 117 117 115 88 88 88 
81 81 81 0 0 0 0 0 0 0 0 0 0 0 0 0 0 0 0 0 0 0 0 0 0 0 0 0 0 0 0 0 0 0 0 0 
0 0 0 0 0 0 0 0 0 0 0 0 0 0 0 0 0 0 0 0 0 0 0 0 0 0 0 0 0 0 0 0 0 0 0 0 0 0 0 
0 0 0 0 0 0 0 0 0 0 0 0 0 0 0 0 0 0 0 0 0 0 0 0 0 0 0 0 0 0 0 0 0 0 0 0 0 0 0 
0 0 0 0 0 0 0 0 0 0 0 0 0 0 0 0 0 0 0 0 0 0 0 0 0 0 0 0 0 0 0 0 0 0 0 0 0 0 0 
0 0 0 0 0 0 0 0 0 0 0 0 0 0 0 145 145 145 145 145 145 119 119 119 70 70 59 
47 47 37 133 133 133 86 86 86 84 84 84 119 119 119 0 0 0 0 0 0 0 0 0 0 0 0 
0 0 0 0 0 0 0 0 0 0 0 0 0 0 0 0 0 0 0 0 0 0 0 0 0 0 0 0 0 0 0 0 0 0 0 0 0 0 0 
0 0 0 0 0 0 0 0 0 0 0 0 0 0 0 0 0 0 0 0 0 0 0 0 0 0 0 0 0 0 0 0 0 0 0 0 0 0 0 
0 0 0 0 0 0 0 0 0 0 0 0 0 0 0 0 0 0 0 0 0 0 0 0 0 0 0 0 0 0 0 0 0 0 0 0 0 0 0 
0 0 0 0 0 0 0 0 0 0 0 0 0 0 0 0 0 0 0 0 0 0 0 0 0 0 0 0 0 0 0 0 0 0 0 0 141 141 141 
132 132 132 119 119 119 55 55 45 37 37 27 131 131 131 90 82 80 86 72 68 
88 33 17 76 29 15 28 11 5 0 0 0 0 0 0 0 0 0 0 0 0 0 0 0 0 0 0 0 0 0 0 0 0 
0 0 0 0 0 0 0 0 0 0 0 0 0 0 0 0 0 0 0 0 0 0 0 0 0 0 0 0 0 0 0 0 0 0 0 0 0 0 0 
0 0 0 0 0 0 0 0 0 0 0 0 0 0 0 0 0 0 0 0 0 0 0 0 0 0 0 0 0 0 0 0 0 0 0 0 0 0 0 
0 0 0 0 0 0 0 0 0 0 0 0 0 0 0 0 0 0 0 0 0 0 0 0 0 0 0 0 0 0 0 0 0 0 0 0 0 0 0 
0 0 0 0 0 0 0 0 0 0 0 0 162 77 52 174 101 79 144 71 50 130 98 88 119 118 118 
118 118 118 93 93 93 88 84 82 90 67 61 90 34 17 92 34 17 83 31 16 83 31 16 
85 32 16 75 28 14 12 4 2 0 0 0 0 0 0 0 0 0 0 0 0 0 0 0 0 0 0 0 0 0 0 0 0 0 0 0 
0 0 0 0 0 0 0 0 0 0 0 0 0 0 0 0 0 0 0 0 0 0 0 0 0 0 0 0 0 0 0 0 0 0 0 0 0 0 0 
0 0 0 0 0 0 0 0 0 0 0 0 0 0 0 0 0 0 0 0 0 0 0 0 0 0 0 0 0 0 0 0 0 0 0 0 0 0 0 
0 0 0 0 0 0 0 0 0 0 0 0 0 0 0 0 0 0 0 0 0 0 0 0 0 0 0 0 0 0 0 0 0 0 0 0 189 130 113 
184 119 100 185 120 100 151 57 29 151 57 29 143 73 52 133 93 81 109 93 89 
78 36 23 71 27 13 66 25 13 88 33 16 98 37 18 90 34 17 57 21 11 73 28 13 
100 38 19 0 0 0 0 0 0 0 0 0 0 0 0 0 0 0 0 0 0 0 0 0 0 0 0 0 0 0 0 0 0 0 0 0 
0 0 0 0 0 0 0 0 0 0 0 0 0 0 0 0 0 0 0 0 0 0 0 0 0 0 0 0 0 0 0 0 0 0 0 0 0 0 0 
0 0 0 0 0 0 0 0 0 0 0 0 0 0 0 0 0 0 0 0 0 0 0 0 0 0 0 0 0 0 0 0 0 0 0 0 0 0 0 
0 0 0 0 0 0 0 0 0 0 0 0 0 0 0 0 0 0 0 0 0 0 0 0 209 168 155 189 130 112 
186 124 105 169 93 70 157 67 41 151 57 29 151 57 29 151 57 29 151 57 29 
114 43 22 83 31 16 77 29 15 83 31 16 81 30 15 79 30 15 65 24 13 51 19 10 
93 36 18 72 28 13 88 34 17 0 0 0 0 0 0 0 0 0 0 0 0 0 0 0 0 0 0 0 0 0 0 0 0 
0 0 0 0 0 0 0 0 0 0 0 0 0 0 0 0 0 0 0 0 0 0 0 0 0 0 0 0 0 0 0 0 0 0 0 0 0 0 0 
0 0 0 0 0 0 0 0 0 0 0 0 0 0 0 0 0 0 0 0 0 0 0 0 0 0 0 0 0 0 0 0 0 0 0 0 0 0 0 
0 0 0 0 0 0 0 0 0 0 0 0 0 0 0 0 0 0 0 0 0 0 0 0 0 0 0 200 151 136 196 140 125 
186 121 104 173 98 76 169 91 67 151 57 29 151 57 29 151 57 29 151 57 29 
151 57 29 151 57 29 135 51 26 135 51 25 100 39 20 64 24 12 63 23 12 86 32 17 
87 33 16 49 19 10 49 19 10 102 38 20 0 0 0 0 0 0 0 0 0 0 0 0 0 0 0 0 0 0 0 0 0 
0 0 0 0 0 0 0 0 0 0 0 0 0 0 0 0 0 0 0 0 0 0 0 0 0 0 0 0 0 0 0 0 0 0 0 0 0 0 0 
0 0 0 0 0 0 0 0 0 0 0 0 0 0 0 0 0 0 0 0 0 0 0 0 0 0 0 0 0 0 0 0 0 0 0 0 0 0 0 
0 0 0 0 0 0 0 0 0 0 0 0 0 0 0 0 0 0 0 0 0 0 0 0 0 0 0 255 255 255 173 98 76 
171 96 74 169 92 69 168 90 66 158 71 45 151 57 29 151 57 29 151 57 29 
151 57 29 151 57 29 142 69 48 94 52 40 118 44 23 88 33 16 87 33 17 92 35 17 
100 38 19 83 31 16 61 23 11 65 25 12 77 29 15 61 23 12 0 0 0 0 0 0 0 0 0 0 0 0 
0 0 0 0 0 0 0 0 0 0 0 0 0 0 0 0 0 0 0 0 0 0 0 0 0 0 0 0 0 0 0 0 0 0 0 0 0 0 0 
0 0 0 0 0 0 0 0 0 0 0 0 0 0 0 0 0 0 0 0 0 0 0 0 0 0 0 0 0 0 0 0 0 0 0 0 0 0 0 
0 0 0 0 0 0 0 0 0 0 0 0 0 0 0 0 0 0 0 0 0 0 0 0 0 0 0 0 0 0 0 0 0 255 255 255 
172 98 76 172 98 76 163 79 54 151 57 29 151 57 29 151 57 29 151 57 29 
151 57 29 151 57 29 148 56 28 99 98 98 67 67 67 81 30 16 129 58 37 128 48 24 
91 34 18 83 31 16 112 42 21 70 26 13 81 30 15 92 35 18 151 57 29 151 57 29 
0 0 0 0 0 0 0 0 0 0 0 0 0 0 0 0 0 0 0 0 0 0 0 0 0 0 0 0 0 0 0 0 0 0 0 0 0 0 0 
0 0 0 0 0 0 0 0 0 0 0 0 0 0 0 0 0 0 0 0 0 0 0 0 0 0 0 0 0 0 0 0 0 0 0 0 0 0 0 
0 0 0 0 0 0 0 0 0 0 0 0 0 0 0 0 0 0 0 0 0 0 0 0 0 0 0 0 0 0 0 0 0 0 0 0 0 0 0 
0 0 0 0 0 0 151 57 29 171 95 73 160 75 49 140 53 27 151 57 29 147 56 28 
147 56 28 151 57 29 151 57 29 129 48 25 28 21 62 23 17 53 67 26 13 169 90 67 
151 57 29 88 33 17 83 31 16 84 31 16 65 24 12 64 24 12 91 34 17 134 50 26 
151 57 29 0 0 0 0 0 0 0 0 0 0 0 0 0 0 0 0 0 0 0 0 0 0 0 0 0 0 0 0 0 0 0 0 0 
0 0 0 0 0 0 0 0 0 0 0 0 0 0 0 0 0 0 0 0 0 0 0 0 0 0 0 0 0 0 0 0 0 0 0 0 0 0 0 
0 0 0 0 0 0 0 0 0 0 0 0 0 0 0 0 0 0 0 0 0 0 0 0 0 0 0 0 0 0 0 0 0 0 0 0 0 0 0 
0 0 0 0 0 0 0 0 0 151 57 29 151 57 29 170 93 70 155 66 39 140 53 27 151 57 29 
142 54 27 144 54 28 142 54 27 134 50 26 125 47 24 19 14 43 27 21 64 30 11 6 
126 54 31 159 71 46 143 71 49 107 40 20 95 36 18 85 32 16 48 18 9 68 26 14 
77 29 15 151 57 29 151 57 29 0 0 0 0 0 0 0 0 0 0 0 0 0 0 0 0 0 0 0 0 0 0 0 0 
0 0 0 0 0 0 0 0 0 0 0 0 0 0 0 0 0 0 0 0 0 0 0 0 0 0 0 0 0 0 0 0 0 0 0 0 0 0 0 
0 0 0 0 0 0 0 0 0 0 0 0 0 0 0 0 0 0 0 0 0 0 0 0 0 0 0 0 0 0 0 0 0 0 0 0 0 0 0 
0 0 0 0 0 0 0 0 0 0 0 0 0 0 0 151 57 29 159 73 47 168 90 67 155 64 37 
140 53 27 151 57 29 142 54 27 144 54 28 112 42 21 98 37 19 94 35 18 33 30 54 
71 68 92 112 112 112 77 29 15 138 52 27 155 64 37 114 43 22 95 36 18 95 36 18 
57 21 11 72 27 14 95 36 18 151 57 29 151 57 29 151 57 29 0 0 0 0 0 0 0 0 0 
0 0 0 0 0 0 0 0 0 0 0 0 0 0 0 0 0 0 0 0 0 0 0 0 0 0 0 0 0 0 0 0 0 0 0 0 0 0 0 
0 0 0 0 0 0 0 0 0 0 0 0 0 0 0 0 0 0 0 0 0 0 0 0 0 0 0 0 0 0 0 0 0 0 0 0 0 0 0 
0 0 0 0 0 0 0 0 0 0 0 0 0 0 0 0 0 0 0 0 0 0 0 0 0 0 0 159 73 47 167 87 63 
164 82 58 151 57 29 140 53 27 151 57 29 142 54 27 144 54 28 103 39 19 
106 40 21 67 47 41 91 91 91 112 112 112 100 100 100 96 39 21 113 43 22 
151 57 29 140 53 27 117 45 23 109 41 21 66 24 13 81 30 16 85 33 16 60 23 11 
0 0 0 151 57 29 0 0 0 0 0 0 0 0 0 0 0 0 0 0 0 0 0 0 0 0 0 0 0 0 0 0 0 0 0 0 
0 0 0 0 0 0 0 0 0 0 0 0 0 0 0 0 0 0 0 0 0 0 0 0 0 0 0 0 0 0 0 0 0 0 0 0 0 0 0 
0 0 0 0 0 0 0 0 0 0 0 0 0 0 0 0 0 0 0 0 0 0 0 0 0 0 0 0 0 0 0 0 0 0 0 0 0 0 0 
0 0 0 0 0 0 162 79 54 167 87 63 153 62 34 151 57 29 140 53 27 151 57 29 
142 54 27 123 46 24 105 39 20 117 44 22 69 63 105 17 12 54 27 19 68 58 53 83 
94 38 22 97 36 19 138 52 27 160 75 51 140 53 27 119 45 23 81 31 15 96 36 19 
80 31 16 94 35 18 100 38 19 151 57 29 151 57 29 0 0 0 0 0 0 0 0 0 0 0 0 0 0 0 
0 0 0 0 0 0 0 0 0 0 0 0 0 0 0 0 0 0 0 0 0 0 0 0 0 0 0 0 0 0 0 0 0 0 0 0 0 0 0 
0 0 0 0 0 0 0 0 0 0 0 0 0 0 0 0 0 0 0 0 0 0 0 0 0 0 0 0 0 0 0 0 0 0 0 0 0 0 0 
0 0 0 0 0 0 0 0 0 0 0 0 0 0 0 255 255 255 171 96 74 158 70 44 151 57 29 
144 55 28 141 53 27 151 57 29 142 54 27 123 46 23 112 42 22 113 43 22 
104 102 118 37 23 115 26 18 71 85 84 99 89 54 44 90 34 17 109 41 21 151 57 29 
144 54 28 132 50 25 97 37 18 87 33 17 61 23 12 65 25 13 35 13 7 151 57 29 
151 57 29 0 0 0 0 0 0 0 0 0 0 0 0 0 0 0 0 0 0 0 0 0 0 0 0 0 0 0 0 0 0 0 0 0 
0 0 0 0 0 0 0 0 0 0 0 0 0 0 0 0 0 0 0 0 0 0 0 0 0 0 0 0 0 0 0 0 0 0 0 0 0 0 0 
0 0 0 0 0 0 0 0 0 0 0 0 0 0 0 0 0 0 0 0 0 0 0 0 0 0 0 0 0 0 0 0 0 0 0 0 255 255 255 
178 108 88 158 71 46 152 59 32 141 53 27 145 55 28 151 57 29 145 55 28 
110 41 21 113 43 22 111 42 22 141 141 141 140 134 173 88 82 130 142 142 142 
93 84 81 93 35 18 106 40 20 151 57 29 151 57 29 143 54 27 105 39 20 105 40 20 
68 26 13 64 24 12 98 37 19 22 8 4 151 57 29 0 0 0 0 0 0 0 0 0 0 0 0 0 0 0 
0 0 0 0 0 0 0 0 0 0 0 0 0 0 0 0 0 0 0 0 0 0 0 0 0 0 0 0 0 0 0 0 0 0 0 0 0 0 0 
0 0 0 0 0 0 0 0 0 0 0 0 0 0 0 0 0 0 0 0 0 0 0 0 0 0 0 0 0 0 0 0 0 0 0 0 0 0 0 
0 0 0 0 0 0 0 0 0 0 0 0 0 0 0 255 255 255 176 106 86 164 82 57 161 76 51 
140 53 27 150 56 29 151 57 29 145 55 28 105 39 20 112 42 22 100 38 19 
176 176 176 210 210 210 183 183 183 173 173 173 109 109 109 82 43 31 95 36 18 
151 57 29 151 57 29 134 50 26 108 41 20 94 36 18 92 35 18 82 30 16 64 24 13 
99 37 19 0 0 0 0 0 0 0 0 0 0 0 0 0 0 0 0 0 0 0 0 0 0 0 0 0 0 0 0 0 0 0 0 0 
0 0 0 0 0 0 0 0 0 0 0 0 0 0 0 0 0 0 0 0 0 0 0 0 0 0 0 0 0 0 0 0 0 0 0 0 0 0 0 
0 0 0 0 0 0 0 0 0 0 0 0 0 0 0 0 0 0 0 0 0 0 0 0 0 0 0 0 0 0 0 0 0 0 0 0 0 0 0 
255 255 255 168 89 65 174 101 79 163 81 57 143 58 33 151 57 29 151 57 29 
145 55 28 118 44 23 92 34 18 102 39 20 179 179 179 174 172 192 132 127 164 
183 183 183 109 109 109 45 18 10 96 36 18 145 55 28 151 57 29 151 57 29 
116 44 22 105 40 20 81 30 16 94 36 18 68 25 13 70 27 13 82 31 16 0 0 0 0 0 0 
0 0 0 0 0 0 0 0 0 0 0 0 0 0 0 0 0 0 0 0 0 0 0 0 0 0 0 0 0 0 0 0 0 0 0 0 0 0 0 
0 0 0 0 0 0 0 0 0 0 0 0 0 0 0 0 0 0 0 0 0 0 0 0 0 0 0 0 0 0 0 0 0 0 0 0 0 0 0 
0 0 0 0 0 0 0 0 0 0 0 0 0 0 0 0 0 0 0 0 0 0 0 0 183 118 98 183 118 98 
180 113 92 170 92 70 140 53 27 151 57 29 151 57 29 133 51 26 105 39 20 
112 42 21 102 38 20 173 173 173 80 67 155 40 26 121 179 179 179 112 112 112 
40 15 8 88 33 17 120 45 23 151 57 29 123 46 24 112 42 22 111 42 22 76 29 14 
81 31 16 92 34 18 75 28 14 98 38 19 22 8 4 0 0 0 0 0 0 0 0 0 0 0 0 0 0 0 0 0 0 
0 0 0 0 0 0 0 0 0 0 0 0 0 0 0 0 0 0 0 0 0 0 0 0 0 0 0 0 0 0 0 0 0 0 0 0 0 0 0 
0 0 0 0 0 0 0 0 0 0 0 0 0 0 0 0 0 0 0 0 0 0 0 0 0 0 0 0 0 0 0 0 0 0 0 0 0 0 0 
0 0 0 0 0 0 255 255 255 194 138 121 181 116 96 175 103 81 170 94 72 137 70 49 
158 71 45 151 57 29 135 51 26 87 32 17 112 42 21 151 116 105 162 162 162 
78 66 146 64 50 140 98 88 148 185 185 185 94 94 94 104 66 54 113 43 22 
151 57 29 112 42 22 111 42 22 109 41 21 97 36 19 81 30 16 100 38 19 101 38 19 
107 41 20 77 29 15 0 0 0 0 0 0 0 0 0 0 0 0 0 0 0 0 0 0 0 0 0 0 0 0 0 0 0 0 0 0 
0 0 0 0 0 0 0 0 0 0 0 0 0 0 0 0 0 0 0 0 0 0 0 0 0 0 0 0 0 0 0 0 0 0 0 0 0 0 0 
0 0 0 0 0 0 0 0 0 0 0 0 0 0 0 0 0 0 0 0 0 0 0 0 0 0 0 0 0 0 0 0 0 255 255 255 
174 102 81 168 90 67 168 91 67 173 100 78 138 71 52 159 72 47 151 57 29 
151 57 29 122 46 23 87 33 16 119 74 61 151 151 151 173 172 182 67 66 77 
91 91 91 122 122 122 81 81 81 43 29 25 116 44 22 151 57 29 130 52 28 145 68 45 
121 46 23 127 48 24 131 49 25 116 44 22 100 38 19 106 40 20 73 27 14 0 0 0 
0 0 0 0 0 0 0 0 0 0 0 0 0 0 0 0 0 0 0 0 0 0 0 0 0 0 0 0 0 0 0 0 0 0 0 0 0 0 0 
0 0 0 0 0 0 0 0 0 0 0 0 0 0 0 0 0 0 0 0 0 0 0 0 0 0 0 0 0 0 0 0 0 0 0 0 0 0 0 
0 0 0 0 0 0 0 0 0 0 0 0 0 0 0 0 0 0 0 0 0 0 0 0 163 81 56 162 78 54 162 78 53 
156 79 57 146 72 51 162 79 54 161 77 51 151 57 29 130 49 25 77 29 15 130 55 33 
50 50 50 22 22 22 28 28 28 42 42 42 70 70 70 72 72 72 86 51 40 128 48 25 
173 106 85 160 90 70 146 68 46 136 51 26 127 48 24 133 50 26 111 42 21 
102 39 19 111 42 22 133 50 25 0 0 0 0 0 0 0 0 0 0 0 0 0 0 0 0 0 0 0 0 0 0 0 0 
0 0 0 0 0 0 0 0 0 0 0 0 0 0 0 0 0 0 0 0 0 0 0 0 0 0 0 0 0 0 0 0 0 0 0 0 0 0 0 
0 0 0 0 0 0 0 0 0 0 0 0 0 0 0 0 0 0 0 0 0 0 0 0 0 0 0 0 0 0 0 0 0 0 0 0 0 0 0 
255 255 255 163 80 55 151 57 29 134 51 26 121 45 23 138 52 26 157 69 42 
152 59 32 151 57 29 151 57 29 151 57 29 151 57 29 119 119 119 103 103 103 
106 106 106 79 79 79 86 86 86 64 64 64 138 63 39 170 94 72 156 85 64 137 54 29 
136 51 26 135 51 26 134 50 26 135 51 26 100 37 19 93 36 18 94 36 18 113 43 22 
0 0 0 0 0 0 0 0 0 0 0 0 0 0 0 0 0 0 0 0 0 0 0 0 0 0 0 0 0 0 0 0 0 0 0 0 0 0 0 
0 0 0 0 0 0 0 0 0 0 0 0 0 0 0 0 0 0 0 0 0 0 0 0 0 0 0 0 0 0 0 0 0 0 0 0 0 0 0 
0 0 0 0 0 0 0 0 0 0 0 0 0 0 0 0 0 0 0 0 0 0 0 0 255 255 255 133 68 47 
128 48 24 116 44 22 114 42 22 141 53 27 151 57 29 151 57 29 151 57 29 
151 57 29 151 57 29 151 57 29 127 127 126 119 119 119 119 119 119 109 109 109 
91 91 91 71 71 71 155 76 52 152 59 32 151 57 29 144 54 28 129 48 24 119 45 23 
110 42 21 111 42 22 88 34 18 89 33 17 94 36 18 112 42 22 151 57 29 0 0 0 0 0 0 
0 0 0 0 0 0 0 0 0 0 0 0 0 0 0 0 0 0 0 0 0 0 0 0 0 0 0 0 0 0 0 0 0 0 0 0 0 0 0 
0 0 0 0 0 0 0 0 0 0 0 0 0 0 0 0 0 0 0 0 0 0 0 0 0 0 0 0 0 0 0 0 0 0 0 0 0 0 0 
0 0 0 0 0 0 0 0 0 0 0 0 0 0 0 255 255 255 137 69 48 102 39 19 122 46 24 
114 43 22 130 49 25 149 56 29 151 57 29 151 57 29 151 57 29 151 57 29 
151 57 29 156 156 148 143 143 138 119 119 119 121 120 107 142 139 45 
146 144 45 156 100 50 154 62 35 151 57 29 138 53 26 125 48 24 103 39 19 
80 30 17 92 34 19 99 37 18 83 32 15 97 37 19 103 39 20 110 42 21 0 0 0 0 0 0 
0 0 0 0 0 0 0 0 0 0 0 0 0 0 0 0 0 0 0 0 0 0 0 0 0 0 0 0 0 0 0 0 0 0 0 0 0 0 0 
0 0 0 0 0 0 0 0 0 0 0 0 0 0 0 0 0 0 0 0 0 0 0 0 0 0 0 0 0 0 0 0 0 0 0 0 0 0 0 
0 0 0 0 0 0 0 0 0 0 0 0 0 0 0 255 255 255 160 76 52 110 42 21 99 36 19 
115 43 23 132 50 25 128 49 24 130 49 25 151 57 29 151 57 29 151 57 29 
151 57 29 152 152 145 163 163 155 165 165 153 146 143 44 143 140 38 95 93 18 
86 37 22 150 58 31 151 57 29 136 52 26 118 44 23 99 38 19 105 40 20 97 36 18 
103 39 20 104 39 20 88 33 17 100 38 19 104 39 20 125 47 24 0 0 0 0 0 0 0 0 0 
0 0 0 0 0 0 0 0 0 0 0 0 0 0 0 0 0 0 0 0 0 0 0 0 0 0 0 0 0 0 0 0 0 0 0 0 0 0 0 
0 0 0 0 0 0 0 0 0 0 0 0 0 0 0 0 0 0 0 0 0 0 0 0 0 0 0 0 0 0 0 0 0 0 0 0 0 0 0 
0 0 0 0 0 0 0 0 0 255 255 255 162 78 53 109 42 21 102 39 19 124 47 24 
119 45 22 129 48 25 132 50 25 129 49 25 151 57 29 158 71 45 155 103 49 
145 142 42 143 141 39 142 140 55 67 66 10 77 75 16 48 47 34 67 67 66 143 73 52 
156 75 50 119 48 25 116 44 23 124 47 24 129 49 24 122 46 24 109 40 21 
113 43 21 99 37 19 99 38 19 103 39 20 113 42 22 151 57 29 0 0 0 0 0 0 0 0 0 
0 0 0 0 0 0 0 0 0 0 0 0 0 0 0 0 0 0 0 0 0 0 0 0 0 0 0 0 0 0 0 0 0 0 0 0 0 0 0 
0 0 0 0 0 0 0 0 0 0 0 0 0 0 0 0 0 0 0 0 0 0 0 0 0 0 0 0 0 0 0 0 0 0 0 0 0 0 0 
0 0 0 0 0 0 255 255 255 154 76 52 129 49 25 94 35 18 95 35 18 125 47 24 
109 41 21 116 44 22 147 70 47 152 118 48 143 140 38 136 133 25 133 130 19 
109 106 16 62 60 9 73 72 27 143 142 133 111 111 109 93 93 93 155 76 53 
168 89 66 158 79 55 149 62 36 151 57 29 129 49 25 80 30 16 100 38 20 115 43 23 
117 45 23 98 37 19 110 42 21 112 42 22 135 51 26 151 57 29 0 0 0 0 0 0 0 0 0 
0 0 0 0 0 0 0 0 0 0 0 0 0 0 0 0 0 0 0 0 0 0 0 0 0 0 0 0 0 0 0 0 0 0 0 0 0 0 0 
0 0 0 0 0 0 0 0 0 0 0 0 0 0 0 0 0 0 0 0 0 0 0 0 0 0 0 0 0 0 0 0 0 0 0 0 0 0 0 
0 0 0 255 255 255 162 78 53 133 50 26 91 34 18 115 43 23 97 37 19 97 36 19 
126 62 43 142 134 35 133 130 19 133 130 19 105 103 15 83 81 12 89 87 13 
122 119 19 89 89 87 88 88 84 149 149 142 149 149 142 143 77 57 173 99 77 
165 84 60 151 57 29 151 57 29 96 36 18 109 42 21 102 38 19 98 37 19 137 51 26 
112 42 22 97 36 19 105 39 20 110 42 21 113 43 22 0 0 0 0 0 0 0 0 0 0 0 0 0 0 0 
0 0 0 0 0 0 0 0 0 0 0 0 0 0 0 0 0 0 0 0 0 0 0 0 0 0 0 145 136 50 145 136 50 
145 136 50 145 136 50 145 136 50 145 136 50 145 136 50 0 0 0 0 0 0 0 0 0 0 0 0 
0 0 0 0 0 0 0 0 0 0 0 0 0 0 0 255 255 255 147 73 51 111 43 21 95 36 18 
111 42 22 110 41 22 121 46 23 128 49 24 135 50 26 133 50 25 145 142 45 
133 130 19 133 130 19 133 130 19 133 130 19 134 131 25 60 59 51 96 96 91 
156 156 148 156 155 147 162 87 65 155 64 37 151 57 29 115 43 22 112 42 21 
113 43 22 81 31 16 91 34 18 98 37 19 122 47 23 94 36 18 83 31 16 90 34 17 
112 42 22 151 57 29 0 0 0 0 0 0 0 0 0 0 0 0 0 0 0 0 0 0 0 0 0 0 0 0 0 0 0 
0 0 0 0 0 0 0 0 0 0 0 0 145 136 50 145 136 50 145 136 50 145 136 50 145 136 50 
145 136 50 145 136 50 0 0 0 0 0 0 0 0 0 0 0 0 0 0 0 0 0 0 0 0 0 0 0 0 0 0 0 
241 228 224 148 70 46 115 43 22 94 35 18 101 39 19 121 46 23 118 45 23 
116 44 23 117 44 23 113 44 21 132 125 44 149 146 49 133 130 19 133 130 19 
133 130 19 133 130 19 133 130 19 100 99 72 106 106 100 149 148 141 156 156 148 
154 109 92 151 57 29 112 42 22 113 43 22 113 43 22 81 31 16 96 36 19 89 34 17 
96 36 19 147 55 28 73 28 14 86 32 17 90 34 18 151 57 29 0 0 0 0 0 0 0 0 0 
0 0 0 0 0 0 0 0 0 0 0 0 0 0 0 0 0 0 0 0 0 0 0 0 0 0 0 0 0 0 145 136 50 
145 136 50 145 136 50 145 136 50 145 136 50 145 136 50 145 136 50 0 0 0 0 0 0 
0 0 0 0 0 0 0 0 0 0 0 0 0 0 0 0 0 0 255 255 255 172 97 75 152 59 32 145 54 28 
97 37 18 109 41 21 130 49 25 121 46 23 113 43 21 100 38 20 108 41 20 134 68 41 
162 159 80 138 136 30 133 130 19 133 130 19 133 130 19 134 131 29 116 114 17 
108 108 102 100 100 95 127 114 105 156 156 148 155 132 120 151 57 29 97 37 18 
90 34 17 63 24 13 85 32 16 76 29 14 98 37 19 119 45 22 79 30 15 98 37 19 
112 42 22 138 52 26 0 0 0 0 0 0 0 0 0 0 0 0 0 0 0 0 0 0 0 0 0 0 0 0 0 0 0 
0 0 0 0 0 0 0 0 0 0 0 0 145 136 50 145 136 50 145 136 50 145 136 50 145 136 50 
145 136 50 145 136 50 0 0 0 0 0 0 0 0 0 0 0 0 0 0 0 0 0 0 0 0 0 0 0 0 255 255 255 
167 88 65 167 86 63 137 55 32 121 45 23 105 40 21 124 47 23 131 50 25 
132 50 25 127 47 24 101 39 19 116 43 23 147 146 66 148 145 47 133 130 19 
113 111 16 87 85 12 85 83 12 97 96 47 156 156 148 129 129 123 122 46 23 
152 78 55 156 156 148 156 155 147 144 64 41 130 49 25 142 54 27 112 42 22 
105 40 20 113 43 22 78 29 15 106 40 20 112 42 22 112 42 21 126 48 24 151 57 29 
0 0 0 0 0 0 0 0 0 0 0 0 0 0 0 0 0 0 0 0 0 0 0 0 0 0 0 0 0 0 0 0 0 0 0 0 0 0 0 
0 0 0 0 0 0 0 0 0 0 0 0 0 0 0 0 0 0 0 0 0 0 0 0 0 0 0 0 0 0 0 0 0 0 0 0 0 0 0 
255 255 255 231 210 204 170 94 71 164 87 64 144 70 47 133 50 25 127 47 25 
142 53 27 145 55 28 144 55 28 123 46 23 110 41 21 110 42 21 119 112 25 
145 142 52 88 86 13 87 85 12 20 19 11 153 153 145 152 152 145 156 156 148 
156 156 148 154 68 43 163 81 56 154 62 35 156 146 136 156 156 148 155 146 135 
151 57 29 112 42 22 113 43 22 103 39 20 71 27 14 111 42 21 112 42 22 112 42 21 
112 42 22 136 51 26 0 0 0 0 0 0 0 0 0 0 0 0 0 0 0 0 0 0 0 0 0 0 0 0 0 0 0 
0 0 0 0 0 0 0 0 0 0 0 0 0 0 0 0 0 0 0 0 0 0 0 0 0 0 0 0 0 0 0 0 0 0 0 0 0 0 0 
0 0 0 0 0 0 0 0 0 0 0 0 255 255 255 170 94 71 177 108 86 163 100 82 170 102 82 
145 62 37 133 50 25 151 57 29 151 57 29 151 57 29 129 49 24 96 36 18 111 42 21 
93 60 16 110 107 23 78 50 13 125 47 24 1 1 1 136 136 130 154 154 146 
156 156 148 116 116 111 68 68 66 141 85 70 152 59 32 151 57 29 153 96 76 
156 154 146 135 85 67 112 42 22 118 44 23 105 40 21 84 31 16 86 32 16 112 42 21 
112 42 21 112 42 21 116 44 22 0 0 0 0 0 0 0 0 0 0 0 0 0 0 0 0 0 0 0 0 0 0 0 0 
0 0 0 0 0 0 0 0 0 0 0 0 0 0 0 0 0 0 0 0 0 0 0 0 0 0 0 0 0 0 0 0 0 0 0 0 0 0 0 
0 0 0 0 0 0 0 0 0 0 0 0 255 255 255 223 194 185 171 96 74 171 107 87 
154 84 63 163 80 57 151 74 51 149 73 51 162 79 54 154 62 35 151 57 29 
107 41 21 103 39 20 107 41 21 96 35 18 56 21 11 69 26 13 115 44 23 0 0 0 23 23 21 
76 76 74 44 44 43 31 31 31 37 37 37 163 90 68 160 75 50 153 62 34 151 57 29 
151 57 29 114 43 22 127 48 24 151 57 29 131 48 25 82 31 16 100 38 19 112 42 21 
80 31 15 81 30 16 83 31 16 0 0 0 0 0 0 0 0 0 0 0 0 0 0 0 0 0 0 0 0 0 0 0 0 
0 0 0 0 0 0 0 0 0 0 0 0 0 0 0 0 0 0 0 0 0 0 0 0 0 0 0 0 0 0 0 0 0 0 0 0 0 0 0 
0 0 0 0 0 0 0 0 0 0 0 0 255 255 255 165 84 59 167 87 63 163 81 56 162 79 54 
162 79 54 147 73 51 150 67 43 151 57 29 151 57 29 151 57 29 104 39 20 
108 41 21 112 42 22 94 36 18 87 32 17 82 31 16 115 43 23 1 1 1 4 4 4 35 35 35 
32 32 32 31 31 31 55 55 55 151 94 76 171 96 73 152 59 32 151 57 29 142 54 27 
114 43 22 125 47 24 142 54 27 68 26 14 110 42 21 112 43 22 94 36 18 71 27 13 
70 26 14 19 7 4 0 0 0 0 0 0 0 0 0 0 0 0 0 0 0 0 0 0 0 0 0 0 0 0 0 0 0 0 0 0 
0 0 0 0 0 0 0 0 0 0 0 0 0 0 0 0 0 0 0 0 0 0 0 0 0 0 0 0 0 0 0 0 0 0 0 0 0 0 0 
0 0 0 255 255 255 214 177 166 163 81 57 170 95 72 180 113 93 173 100 78 
169 91 67 140 53 27 151 57 29 151 57 29 151 57 29 151 57 29 124 47 24 
113 43 22 114 43 22 113 43 22 106 40 20 102 39 20 119 45 23 1 1 1 19 19 19 
31 31 31 34 34 34 31 31 31 42 42 42 158 103 86 169 91 67 151 57 29 120 45 23 
113 43 22 117 44 22 110 42 21 77 29 15 76 29 15 98 37 18 95 36 18 63 24 13 
7 2 1 0 0 0 0 0 0 0 0 0 0 0 0 0 0 0 0 0 0 0 0 0 0 0 0 0 0 0 0 0 0 0 0 0 0 0 0 
0 0 0 0 0 0 0 0 0 0 0 0 0 0 0 0 0 0 0 0 0 0 0 0 0 0 0 0 0 0 0 0 0 0 0 0 0 0 0 
0 0 0 255 255 255 184 118 99 183 117 98 178 108 88 158 71 46 167 88 64 
160 73 48 151 57 29 151 57 29 151 57 29 151 57 29 151 57 29 133 50 26 
126 47 24 122 46 23 113 43 22 112 42 22 112 42 22 135 59 36 2 2 2 61 61 58 
121 121 116 49 49 48 24 24 24 21 21 21 171 94 73 159 73 47 129 49 25 113 42 22 
94 35 18 69 26 13 86 32 16 90 35 17 95 36 18 59 22 11 6 3 1 0 0 0 0 0 0 0 0 0 
0 0 0 0 0 0 0 0 0 0 0 0 0 0 0 0 0 0 0 0 0 0 0 0 0 0 0 0 0 0 0 0 0 0 0 0 0 0 0 
0 0 0 0 0 0 0 0 0 0 0 0 0 0 0 0 0 0 0 0 0 0 0 0 0 0 0 0 0 0 0 0 0 0 0 0 255 255 255 
173 99 77 188 126 108 179 109 89 159 71 46 165 82 58 151 57 29 151 57 29 
151 57 29 151 57 29 151 57 29 151 57 29 151 57 29 151 57 29 112 42 22 
112 42 22 112 42 21 113 43 22 139 80 63 0 0 0 4 4 3 153 153 146 104 104 99 
112 112 106 0 0 0 164 82 57 157 67 41 151 57 29 120 45 23 95 36 18 115 43 22 
76 29 15 71 27 13 8 3 2 0 0 0 0 0 0 0 0 0 0 0 0 0 0 0 0 0 0 0 0 0 0 0 0 0 0 0 
0 0 0 0 0 0 0 0 0 0 0 0 0 0 0 0 0 0 0 0 0 0 0 0 0 0 0 0 0 0 0 0 0 0 0 0 0 0 0 
0 0 0 0 0 0 0 0 0 0 0 0 0 0 0 0 0 0 0 0 0 0 0 0 255 255 255 172 97 75 
179 110 90 157 69 43 151 57 29 151 57 29 151 57 29 151 57 29 151 57 29 
151 57 29 151 57 29 151 57 29 151 57 29 151 57 29 113 42 22 112 42 21 
116 44 22 117 44 22 139 80 63 0 0 0 0 0 0 155 155 147 115 115 109 114 114 108 
5 5 5 167 89 66 157 69 43 151 57 29 151 57 29 147 55 28 95 36 18 69 26 13 
7 3 1 0 0 0 0 0 0 0 0 0 0 0 0 0 0 0 0 0 0 0 0 0 0 0 0 0 0 0 0 0 0 0 0 0 0 0 0 
0 0 0 0 0 0 0 0 0 0 0 0 0 0 0 0 0 0 0 0 0 0 0 0 0 0 0 0 0 0 0 0 0 0 0 0 0 0 0 
0 0 0 0 0 0 0 0 0 0 0 0 0 0 0 0 0 0 255 255 255 171 96 73 158 70 44 151 57 29 
151 57 29 151 57 29 151 57 29 151 57 29 151 57 29 151 57 29 151 57 29 
151 57 29 151 57 29 151 57 29 114 43 22 113 43 22 112 42 21 116 44 22 
135 88 74 2 2 2 4 4 3 155 155 147 120 120 114 111 111 105 45 45 43 138 76 58 
152 59 32 151 57 29 151 57 29 101 38 19 95 36 18 15 6 3 0 0 0 0 0 0 0 0 0 
0 0 0 0 0 0 0 0 0 0 0 0 0 0 0 0 0 0 0 0 0 0 0 0 0 0 0 0 0 0 0 0 0 0 0 0 0 0 0 
0 0 0 0 0 0 0 0 0 0 0 0 0 0 0 0 0 0 0 0 0 0 0 0 0 0 0 0 0 0 0 0 0 0 0 0 0 0 0 
0 0 0 0 0 0 0 0 0 255 255 255 160 74 48 151 57 29 151 57 29 151 57 29 
151 57 29 151 57 29 151 57 29 151 57 29 151 57 29 151 57 29 151 57 29 
151 57 29 151 57 29 119 45 23 113 43 22 114 43 22 125 47 24 129 100 92 
0 0 0 156 156 148 154 154 147 143 143 135 115 115 109 128 58 36 152 59 32 
151 57 29 145 55 28 102 38 19 95 36 18 27 10 5 0 0 0 0 0 0 0 0 0 0 0 0 0 0 0 
0 0 0 0 0 0 0 0 0 0 0 0 0 0 0 0 0 0 0 0 0 0 0 0 0 0 0 0 0 0 0 0 0 0 0 0 0 0 0 
0 0 0 0 0 0 0 0 0 0 0 0 0 0 0 0 0 0 0 0 0 0 0 0 0 0 0 0 0 0 0 0 0 0 0 0 0 0 0 
0 0 0 0 0 0 0 0 0 0 0 0 0 0 0 0 0 0 151 57 29 151 57 29 151 57 29 151 57 29 
151 57 29 151 57 29 151 57 29 151 57 29 151 57 29 151 57 29 129 49 25 
112 42 22 114 43 22 127 48 24 129 126 122 0 0 0 0 0 0 153 153 146 124 124 117 
113 113 107 123 47 24 151 57 29 132 50 25 96 36 18 98 37 19 28 11 5 0 0 0 
0 0 0 0 0 0 0 0 0 0 0 0 0 0 0 0 0 0 0 0 0 0 0 0 0 0 0 0 0 0 0 0 0 0 0 0 0 0 0 
0 0 0 0 0 0 0 0 0 0 0 0 0 0 0 0 0 0 0 0 0 0 0 0 0 0 0 0 0 0 0 0 0 0 0 0 0 0 0 
0 0 0 0 0 0 0 0 0 0 0 0 0 0 0 0 0 0 0 0 0 0 0 0 0 0 0 0 0 0 0 0 0 0 0 0 0 0 0 
0 0 0 0 0 0 0 0 0 151 57 29 151 57 29 151 57 29 151 57 29 151 57 29 113 43 22 
113 43 22 112 42 21 109 85 74 9 9 9 0 0 0 0 0 0 155 155 147 135 135 129 
114 114 108 151 57 29 138 52 27 95 36 18 88 33 17 4 1 1 0 0 0 0 0 0 0 0 0 
0 0 0 0 0 0 0 0 0 0 0 0 0 0 0 0 0 0 0 0 0 0 0 0 0 0 0 0 0 0 0 0 0 0 0 0 0 0 0 
0 0 0 0 0 0 0 0 0 0 0 0 0 0 0 0 0 0 0 0 0 0 0 0 0 0 0 0 0 0 0 0 0 0 0 0 0 0 0 
0 0 0 0 0 0 0 0 0 0 0 0 0 0 0 0 0 0 0 0 0 0 0 0 0 0 0 0 0 0 0 0 0 0 0 0 0 0 0 
0 0 0 0 0 0 0 0 0 0 0 0 119 119 119 154 153 145 152 74 49 135 51 26 112 42 21 
113 43 22 110 109 104 13 13 12 0 0 0 0 0 0 154 154 146 135 135 128 113 113 107 
105 39 21 83 31 16 87 33 16 11 4 2 0 0 0 0 0 0 0 0 0 0 0 0 0 0 0 0 0 0 0 0 0 
0 0 0 0 0 0 0 0 0 0 0 0 0 0 0 0 0 0 0 0 0 0 0 0 0 0 0 0 0 0 0 0 0 0 0 0 0 0 0 
0 0 0 0 0 0 0 0 0 0 0 0 0 0 0 0 0 0 0 0 0 0 0 0 0 0 0 0 0 0 0 0 0 0 0 0 0 0 0 
0 0 0 0 0 0 0 0 0 0 0 0 0 0 0 0 0 0 0 0 0 0 0 0 0 0 0 0 0 0 0 0 0 0 0 0 0 0 0 
0 0 0 119 119 119 152 152 145 156 156 148 147 66 41 106 40 20 103 39 20 
87 87 83 134 134 127 0 0 0 0 0 0 124 124 123 152 152 144 115 115 109 
100 100 95 57 57 57 32 32 32 0 0 0 0 0 0 0 0 0 0 0 0 0 0 0 0 0 0 0 0 0 0 0 0 
0 0 0 0 0 0 0 0 0 0 0 0 0 0 0 0 0 0 0 0 0 0 0 0 0 0 0 0 0 0 0 0 0 0 0 0 0 0 0 
0 0 0 0 0 0 0 0 0 0 0 0 0 0 0 0 0 0 0 0 0 0 0 0 0 0 0 0 0 0 0 0 0 0 0 0 0 0 0 
0 0 0 0 0 0 0 0 0 0 0 0 0 0 0 0 0 0 0 0 0 0 0 0 0 0 0 0 0 0 0 0 0 0 0 0 0 0 0 
0 0 0 0 0 0 148 148 142 156 156 148 117 117 111 115 115 109 114 114 108 
37 37 36 58 58 56 0 0 0 0 0 0 74 74 74 95 95 94 138 138 131 120 120 114 
26 26 26 49 49 49 0 0 0 0 0 0 0 0 0 0 0 0 0 0 0 0 0 0 0 0 0 0 0 0 0 0 0 0 0 0 
0 0 0 0 0 0 0 0 0 0 0 0 0 0 0 0 0 0 0 0 0 0 0 0 0 0 0 0 0 0 0 0 0 0 0 0 0 0 0 
0 0 0 0 0 0 0 0 0 0 0 0 0 0 0 0 0 0 0 0 0 0 0 0 0 0 0 0 0 0 0 0 0 0 0 0 0 0 0 
0 0 0 0 0 0 0 0 0 0 0 0 0 0 0 0 0 0 0 0 0 0 0 0 0 0 0 0 0 0 0 0 0 0 0 0 0 0 0 
124 124 123 156 156 148 156 156 148 116 116 110 84 84 80 32 32 31 68 68 65 
0 0 0 0 0 0 31 31 31 37 37 37 60 60 59 44 44 43 31 31 31 31 31 31 0 0 0 0 0 0 
0 0 0 0 0 0 0 0 0 0 0 0 0 0 0 0 0 0 0 0 0 0 0 0 0 0 0 0 0 0 0 0 0 0 0 0 0 0 0 
0 0 0 0 0 0 0 0 0 0 0 0 0 0 0 0 0 0 0 0 0 0 0 0 0 0 0 0 0 0 0 0 0 0 0 0 0 0 0 
0 0 0 0 0 0 0 0 0 0 0 0 0 0 0 0 0 0 0 0 0 0 0 0 0 0 0 0 0 0 0 0 0 0 0 0 0 0 0 
0 0 0 0 0 0 0 0 0 0 0 0 0 0 0 0 0 0 0 0 0 31 31 31 35 35 35 153 153 146 
146 146 139 113 113 108 30 30 30 76 76 72 156 156 148 0 0 0 0 0 0 31 31 31 
33 33 33 32 32 32 32 32 32 32 32 32 31 31 31 31 31 31 0 0 0 0 0 0 0 0 0 0 0 0 
0 0 0 0 0 0 0 0 0 0 0 0 0 0 0 0 0 0 0 0 0 0 0 0 0 0 0 0 0 0 0 0 0 0 0 0 0 0 0 
0 0 0 0 0 0 0 0 0 0 0 0 0 0 0 0 0 0 0 0 0 0 0 0 0 0 0 0 0 0 0 0 0 0 0 0 0 0 0 
0 0 0 0 0 0 0 0 0 0 0 0 0 0 0 0 0 0 0 0 0 0 0 0 0 0 0 0 0 0 0 0 0 0 0 0 0 0 0 
0 0 0 0 0 0 0 0 0 0 0 0 31 31 31 31 31 31 35 35 35 118 118 116 34 34 34 
27 27 27 76 76 73 0 0 0 0 0 0 0 0 0 31 31 31 31 31 31 31 31 31 31 31 31 
31 31 31 31 31 31 31 31 31 0 0 0 0 0 0 0 0 0 0 0 0 0 0 0 0 0 0 0 0 0 0 0 0 
0 0 0 0 0 0 0 0 0 0 0 0 0 0 0 0 0 0 0 0 0 0 0 0 0 0 0 0 0 0 0 0 0 0 0 0 0 0 0 
0 0 0 0 0 0 0 0 0 0 0 0 0 0 0 0 0 0 0 0 0 0 0 0 0 0 0 0 0 0 0 0 0 0 0 0 0 0 0 
0 0 0 0 0 0 0 0 0 0 0 0 0 0 0 0 0 0 0 0 0 0 0 0 0 0 0 0 0 0 0 0 0 0 0 0 31 31 31 
31 31 31 31 31 31 31 31 31 31 31 31 31 31 31 31 31 31 0 0 0 0 0 0 0 0 0 0 0 0 
31 31 31 31 31 31 31 31 31 31 31 31 31 31 31 31 31 31 31 31 31 0 0 0 0 0 0 
0 0 0 0 0 0 0 0 0 0 0 0 0 0 0 0 0 0 0 0 0 0 0 0 0 0 0 0 0 0 0 0 0 0 0 0 0 0 0 
0 0 0 0 0 0 0 0 0 0 0 0 0 0 0 0 0 0 0 0 0 0 0 0 0 0 0 161 151 63 160 153 64 
159 156 65 158 157 65 156 156 64 156 156 63 156 156 63 0 0 0 0 0 0 0 0 0 0 0 0 
0 0 0 0 0 0 0 0 0 0 0 0 0 0 0 0 0 0 0 0 0 0 0 0 0 0 0 0 0 0 31 31 31 31 31 31 
31 31 31 31 31 31 31 31 31 31 31 31 31 31 31 31 31 31 0 0 0 0 0 0 0 0 0 0 0 0 
0 0 0 31 31 31 31 31 31 31 31 31 31 31 31 31 31 31 31 31 31 0 0 0 0 0 0 0 0 0 
0 0 0 0 0 0 0 0 0 0 0 0 0 0 0 0 0 0 0 0 0 0 0 0 0 0 0 0 0 0 0 0 0 0 0 0 0 0 0 
0 0 0 0 0 0 0 0 0 0 0 0 0 0 0 0 0 0 0 0 0 0 0 0 161 151 63 160 153 64 
159 156 65 158 157 65 156 156 64 156 156 63 156 156 63 0 0 0 0 0 0 0 0 0 0 0 0 
0 0 0 0 0 0 0 0 0 0 0 0 0 0 0 0 0 0 0 0 0 0 0 0 0 0 0 31 31 31 31 31 31 
31 31 31 31 31 31 31 31 31 31 31 31 31 31 31 31 31 31 0 0 0 0 0 0 0 0 0 0 0 0 
143 140 45 143 140 45 142 139 45 141 137 44 31 31 31 31 31 31 31 31 31 
31 31 31 0 0 0 0 0 0 0 0 0 0 0 0 0 0 0 0 0 0 0 0 0 0 0 0 0 0 0 0 0 0 0 0 0 
0 0 0 0 0 0 0 0 0 0 0 0 0 0 0 0 0 0 0 0 0 0 0 0 0 0 0 0 0 0 0 0 0 0 0 0 0 0 0 
