P3
64 64
255
0 0 0 0 0 0 0 0 0 0 0 0 0 0 0 0 0 0 0 0 0 0 0 0 0 0 0 0 0 0 0 0 0 0 0 0 0 0 0 
0 0 0 0 0 0 0 0 0 0 0 0 0 0 0 0 0 0 0 0 0 0 0 0 0 0 0 0 0 0 0 0 0 0 0 0 0 0 0 
0 0 0 0 0 0 0 0 0 0 0 0 0 0 0 0 0 0 0 0 0 0 0 0 0 0 0 0 0 0 0 0 0 0 0 0 0 0 0 
0 0 0 0 0 0 0 0 0 0 0 0 0 0 0 0 0 0 0 0 0 0 0 0 0 0 0 0 0 0 0 0 0 0 0 0 0 0 0 
0 0 0 0 0 0 0 0 0 0 0 0 0 0 0 0 0 0 0 0 0 0 0 0 0 0 0 0 0 0 0 0 0 0 0 0 0 0 0 
0 0 0 0 0 0 0 0 0 0 0 0 0 0 0 0 0 0 0 0 0 0 0 0 0 0 0 0 0 0 0 0 0 0 0 0 149 146 67 
149 146 67 149 146 67 151 145 67 151 145 67 151 145 67 0 0 0 0 0 0 0 0 0 0 0 0 
0 0 0 0 0 0 0 0 0 0 0 0 0 0 0 0 0 0 0 0 0 0 0 0 133 23 14 133 23 14 133 23 14 
0 0 0 0 0 0 0 0 0 0 0 0 0 0 0 0 0 0 0 0 0 0 0 0 0 0 0 0 0 0 0 0 0 0 0 0 0 0 0 
0 0 0 0 0 0 0 0 0 0 0 0 0 0 0 0 0 0 0 0 0 0 0 0 0 0 0 0 0 0 0 0 0 0 0 0 0 0 0 
0 0 0 0 0 0 0 0 0 0 0 0 0 0 0 0 0 0 0 0 0 0 0 0 0 0 0 0 0 0 0 0 0 0 0 0 0 0 0 
0 0 0 0 0 0 0 0 0 0 0 0 149 146 67 149 146 67 149 146 67 151 145 67 151 145 67 
151 145 67 0 0 0 0 0 0 0 0 0 0 0 0 0 0 0 0 0 0 0 0 0 133 23 14 133 23 14 
133 23 14 133 23 14 133 23 14 133 23 14 133 23 14 133 23 14 0 0 0 0 0 0 0 0 0 
0 0 0 0 0 0 0 0 0 0 0 0 133 23 14 133 23 14 133 23 14 133 23 14 133 23 14 
133 23 14 133 23 14 133 23 14 0 0 0 0 0 0 0 0 0 0 0 0 0 0 0 0 0 0 0 0 0 0 0 0 
0 0 0 0 0 0 0 0 0 0 0 0 0 0 0 0 0 0 0 0 0 0 0 0 0 0 0 0 0 0 0 0 0 0 0 0 0 0 0 
0 0 0 0 0 0 0 0 0 0 0 0 0 0 0 0 0 0 0 0 0 149 146 67 149 146 67 149 146 67 
151 145 67 151 145 67 151 145 67 0 0 0 0 0 0 0 0 0 0 0 0 0 0 0 0 0 0 133 23 14 
133 23 14 133 23 14 133 23 14 133 23 14 133 23 14 33 110 29 33 110 29 
33 110 29 0 0 0 133 23 14 133 23 14 133 23 14 133 23 14 133 23 14 133 23 14 
133 23 14 133 23 14 133 23 14 133 23 14 133 23 14 133 23 14 133 23 14 
133 23 14 0 0 0 0 0 0 0 0 0 0 0 0 0 0 0 0 0 0 0 0 0 0 0 0 0 0 0 0 0 0 0 0 0 
0 0 0 0 0 0 0 0 0 0 0 0 0 0 0 0 0 0 0 0 0 0 0 0 0 0 0 0 0 0 0 0 0 0 0 0 0 0 0 
0 0 0 0 0 0 149 146 67 149 146 67 0 0 0 0 0 0 0 0 0 0 0 0 0 0 0 0 0 0 151 145 67 
151 145 67 0 0 0 0 0 0 0 0 0 133 23 14 133 23 14 133 23 14 133 23 14 133 23 14 
133 23 14 0 0 0 33 110 29 33 110 29 33 110 29 133 23 14 133 23 14 133 23 14 
133 23 14 133 23 14 133 23 14 133 23 14 133 23 14 0 0 0 133 23 14 133 23 14 
0 0 0 0 0 0 0 0 0 0 0 0 0 0 0 0 0 0 0 0 0 0 0 0 0 0 0 0 0 0 0 0 0 0 0 0 0 0 0 
0 0 0 0 0 0 0 0 0 0 0 0 0 0 0 0 0 0 0 0 0 0 0 0 0 0 0 0 0 0 0 0 0 0 0 0 0 0 0 
0 0 0 0 0 0 0 0 0 0 0 0 149 146 67 149 146 67 0 0 0 0 0 0 0 0 0 0 0 0 0 0 0 
0 0 0 151 145 67 151 145 67 0 0 0 0 0 0 0 0 0 133 23 14 133 23 14 133 23 14 
133 23 14 216 191 151 174 124 60 150 103 45 100 91 35 111 81 34 133 92 40 
126 87 38 89 15 9 133 23 14 133 23 14 133 23 14 133 23 14 133 23 14 133 23 14 
133 23 14 133 23 14 0 0 0 0 0 0 0 0 0 0 0 0 0 0 0 0 0 0 0 0 0 0 0 0 0 0 0 
0 0 0 0 0 0 0 0 0 0 0 0 0 0 0 0 0 0 0 0 0 0 0 0 0 0 0 0 0 0 0 0 0 0 0 0 0 0 0 
0 0 0 0 0 0 0 0 0 0 0 0 0 0 0 0 0 0 0 0 0 0 0 0 0 0 0 0 0 0 0 0 0 0 0 0 0 0 0 
0 0 0 0 0 0 0 0 0 0 0 0 0 0 0 0 0 0 0 0 0 0 0 0 133 23 14 133 23 14 189 129 116 
182 131 82 184 140 84 183 138 80 170 120 56 145 100 44 131 91 43 137 101 55 
129 88 38 125 86 37 141 98 43 124 85 37 119 82 35 0 0 0 0 0 0 0 0 0 133 23 14 
133 23 14 0 0 0 0 0 0 0 0 0 0 0 0 0 0 0 0 0 0 0 0 0 0 0 0 0 0 0 0 0 0 0 0 0 
0 0 0 0 0 0 0 0 0 0 0 0 0 0 0 0 0 0 0 0 0 0 0 0 0 0 0 0 0 0 0 0 0 0 0 0 0 0 0 
0 0 0 0 0 0 0 0 0 0 0 0 0 0 0 0 0 0 0 0 0 0 0 0 0 0 0 0 0 0 0 0 0 0 0 0 0 0 0 
0 0 0 0 0 0 0 0 0 0 0 0 0 0 0 0 0 0 0 0 0 133 23 14 176 118 70 184 140 82 
165 121 64 145 100 44 158 109 47 145 100 44 159 111 51 184 139 81 174 123 59 
163 112 49 153 112 57 148 101 45 131 91 40 133 91 40 151 104 46 136 94 41 
134 92 40 133 23 14 133 23 14 0 0 0 0 0 0 0 0 0 0 0 0 0 0 0 0 0 0 0 0 0 0 0 0 
0 0 0 0 0 0 0 0 0 0 0 0 0 0 0 0 0 0 0 0 0 0 0 0 0 0 0 0 0 0 0 0 0 0 0 0 0 0 0 
0 0 0 0 0 0 0 0 0 0 0 0 0 0 0 0 0 0 0 0 0 0 0 0 0 0 0 0 0 0 0 0 0 0 0 0 0 0 0 
0 0 0 0 0 0 0 0 0 0 0 0 0 0 0 0 0 0 0 0 0 0 0 0 0 0 0 170 117 51 182 137 78 
178 133 75 146 100 44 162 130 54 182 153 62 125 86 37 150 103 45 189 148 92 
181 135 75 170 117 51 181 146 60 179 134 77 145 100 44 146 101 43 157 120 70 
143 100 45 132 91 39 123 85 37 141 97 42 0 0 0 0 0 0 0 0 0 0 0 0 0 0 0 222 164 40 
222 164 40 0 0 0 0 0 0 0 0 0 0 0 0 0 0 0 0 0 0 0 0 0 0 0 0 0 0 0 0 0 0 0 0 0 
0 0 0 0 0 0 0 0 0 0 0 0 0 0 0 0 0 0 0 0 0 0 0 0 0 0 0 0 0 0 0 0 0 0 0 0 0 0 0 
0 0 0 0 0 0 0 0 0 0 0 0 0 0 0 0 0 0 0 0 0 0 0 0 0 0 0 0 0 0 0 0 0 0 0 0 170 117 51 
183 138 79 167 124 69 145 100 44 154 105 49 138 89 47 183 165 66 116 80 35 
170 117 51 190 148 94 170 117 51 182 149 61 168 138 60 182 136 76 158 110 50 
147 101 44 168 122 65 167 125 70 144 99 43 135 94 41 122 84 36 156 107 47 
0 0 0 0 0 0 0 0 0 0 0 0 0 0 0 0 0 0 0 0 0 0 0 0 0 0 0 0 0 0 0 0 0 0 0 0 0 0 0 
0 0 0 0 0 0 0 0 0 0 0 0 0 0 0 0 0 0 0 0 0 0 0 0 0 0 0 0 0 0 0 0 0 0 0 0 0 0 0 
0 0 0 0 0 0 0 0 0 0 0 0 0 0 0 0 0 0 0 0 0 0 0 0 0 0 0 0 0 0 0 0 0 0 0 0 0 0 0 
0 0 0 0 0 0 0 0 0 177 128 66 185 141 83 152 108 53 168 116 51 184 164 67 
158 122 56 175 158 63 114 79 34 172 122 53 191 154 92 170 117 51 190 170 67 
196 184 72 186 142 84 171 118 52 147 101 44 170 117 51 182 137 77 170 117 51 
145 100 43 138 95 42 144 99 43 0 0 0 0 0 0 0 0 0 0 0 0 0 0 0 0 0 0 0 0 0 0 0 0 
0 0 0 0 0 0 0 0 0 0 0 0 0 0 0 0 0 0 0 0 0 0 0 0 0 0 0 0 0 0 0 0 0 0 0 0 0 0 0 
0 0 0 0 0 0 0 0 0 0 0 0 0 0 0 0 0 0 0 0 0 0 0 0 0 0 0 0 0 0 0 0 0 0 0 0 0 0 0 
0 0 0 0 0 0 0 0 0 0 0 0 0 0 0 0 0 0 0 0 0 175 126 63 185 141 83 173 122 58 
147 101 44 170 117 51 179 142 59 176 135 57 172 136 57 119 83 36 194 179 70 
194 180 71 170 117 51 170 117 51 180 138 67 185 141 83 170 117 51 146 101 44 
172 123 60 181 135 75 170 117 51 152 105 46 140 96 42 142 98 43 170 117 51 
0 0 0 0 0 0 0 0 0 0 0 0 0 0 0 0 0 0 0 0 0 0 0 0 0 0 0 0 0 0 0 0 0 133 23 14 
133 23 14 0 0 0 0 0 0 0 0 0 0 0 0 0 0 0 0 0 0 0 0 0 0 0 0 0 0 0 0 0 0 0 0 0 
0 0 0 0 0 0 0 0 0 0 0 0 0 0 0 0 0 0 0 0 0 0 0 0 0 0 0 0 0 0 0 0 0 0 0 0 0 0 0 
0 0 0 0 0 0 0 0 0 184 140 82 183 138 79 170 117 51 146 101 44 170 117 51 
182 135 76 170 117 51 168 116 50 144 99 43 184 148 69 185 155 68 170 117 51 
170 117 51 176 127 65 182 136 77 170 117 51 170 117 51 179 130 71 170 113 57 
164 102 45 152 97 43 117 81 35 140 91 40 139 38 20 133 23 14 133 23 14 
133 23 14 133 23 14 133 23 14 133 23 14 133 23 14 0 0 0 133 23 14 133 23 14 
0 0 0 133 23 14 133 23 14 0 0 0 0 0 0 0 0 0 0 0 0 0 0 0 0 0 0 0 0 0 0 0 0 
0 0 0 0 0 0 0 0 0 0 0 0 0 0 0 0 0 0 0 0 0 0 0 0 0 0 0 0 0 0 0 0 0 0 0 0 0 0 0 
0 0 0 0 0 0 0 0 0 0 0 0 0 0 0 0 0 0 171 118 53 185 140 83 173 122 57 
148 102 44 173 125 64 182 136 77 170 117 51 170 117 51 170 117 51 171 119 54 
171 118 53 170 117 51 170 117 51 179 141 58 149 106 51 176 147 62 191 171 68 
180 132 75 161 91 42 158 87 39 141 79 35 138 80 36 157 91 41 133 23 14 
133 23 14 133 23 14 133 23 14 133 23 14 133 23 14 133 23 14 133 23 14 
0 0 0 0 0 0 0 0 0 0 0 0 0 0 0 0 0 0 0 0 0 0 0 0 0 0 0 0 0 0 0 0 0 0 0 0 0 0 0 
0 0 0 0 0 0 0 0 0 0 0 0 0 0 0 0 0 0 0 0 0 0 0 0 0 0 0 0 0 0 0 0 0 0 0 0 0 0 0 
0 0 0 0 0 0 0 0 0 0 0 0 0 0 0 0 0 0 0 0 0 170 117 51 181 135 75 182 137 78 
150 103 45 162 112 50 182 145 61 190 169 67 180 142 59 186 160 64 156 117 54 
171 139 60 191 173 68 196 185 72 192 174 69 147 103 51 183 163 67 195 183 71 
182 136 77 164 113 49 135 93 41 137 94 41 146 97 43 137 33 18 133 23 14 
133 23 14 133 23 14 133 23 14 0 0 0 0 0 0 0 0 0 0 0 0 0 0 0 0 0 0 0 0 0 0 0 0 
0 0 0 0 0 0 0 0 0 0 0 0 0 0 0 0 0 0 0 0 0 0 0 0 0 0 0 0 0 0 0 0 0 0 0 0 0 0 0 
0 0 0 0 0 0 0 0 0 0 0 0 0 0 0 0 0 0 0 0 0 0 0 0 0 0 0 0 0 0 0 0 0 0 0 0 0 0 0 
0 0 0 0 0 0 0 0 0 0 0 0 170 117 51 184 139 81 167 123 68 152 104 45 184 155 63 
197 186 75 142 96 49 178 155 64 159 121 55 187 169 68 196 185 72 196 185 72 
149 108 52 177 153 68 185 157 63 171 119 52 162 104 49 142 84 37 137 81 36 
139 82 37 151 82 37 133 23 14 133 23 14 0 0 0 0 0 0 222 164 40 0 0 0 0 0 0 
0 0 0 0 0 0 0 0 0 0 0 0 0 0 0 0 0 0 0 0 0 0 0 0 0 0 0 0 0 0 0 0 0 0 0 0 0 0 0 
0 0 0 0 0 0 0 0 0 0 0 0 0 0 0 0 0 0 0 0 0 0 0 0 0 0 0 0 0 0 0 0 0 0 0 0 0 0 0 
0 0 0 0 0 0 0 0 0 0 0 0 0 0 0 0 0 0 0 0 0 0 0 0 0 0 0 0 0 0 170 117 51 
171 118 53 182 136 76 160 121 69 156 107 47 182 145 66 179 150 73 194 180 70 
195 182 71 203 193 95 186 157 65 175 131 55 179 141 58 169 122 57 149 102 45 
145 100 43 128 88 38 139 95 41 140 97 42 156 107 47 0 0 0 0 0 0 0 0 0 0 0 0 
0 0 0 222 164 40 0 0 0 0 0 0 0 0 0 0 0 0 0 0 0 0 0 0 0 0 0 0 0 0 0 0 0 0 0 0 
0 0 0 0 0 0 0 0 0 0 0 0 0 0 0 0 0 0 0 0 0 0 0 0 0 0 0 0 0 0 0 0 0 0 0 0 0 0 0 
0 0 0 0 0 0 0 0 0 0 0 0 0 0 0 0 0 0 0 0 0 0 0 0 0 0 0 0 0 0 0 0 0 0 0 0 0 0 0 
0 0 0 0 0 0 0 0 0 0 0 0 0 0 0 182 139 82 158 119 68 159 110 48 170 117 51 
170 117 51 147 101 44 172 124 63 173 121 57 167 120 50 145 101 43 122 84 36 
106 73 32 135 93 41 151 104 45 151 104 45 0 0 0 0 0 0 0 0 0 0 0 0 0 0 0 0 0 0 
0 0 0 222 164 40 0 0 0 0 0 0 0 0 0 0 0 0 0 0 0 0 0 0 0 0 0 0 0 0 0 0 0 0 0 0 
0 0 0 0 0 0 0 0 0 0 0 0 0 0 0 0 0 0 0 0 0 0 0 0 0 0 0 0 0 0 0 0 0 0 0 0 0 0 0 
0 0 0 0 0 0 0 0 0 0 0 0 0 0 0 0 0 0 0 0 0 0 0 0 0 0 0 0 0 0 0 0 0 0 0 0 0 0 0 
0 0 0 0 0 0 0 0 0 0 0 0 0 0 0 160 115 102 159 116 103 120 81 55 128 88 41 
103 71 31 116 80 35 126 87 38 112 78 34 116 81 35 91 64 27 64 47 22 88 59 50 
126 85 74 99 65 58 108 72 64 100 67 58 102 68 59 107 71 62 126 84 74 92 61 54 
0 0 0 0 0 0 0 0 0 0 0 0 0 0 0 0 0 0 0 0 0 0 0 0 0 0 0 0 0 0 0 0 0 0 0 0 0 0 0 
0 0 0 0 0 0 0 0 0 0 0 0 0 0 0 0 0 0 0 0 0 0 0 0 0 0 0 0 0 0 0 0 0 0 0 0 0 0 0 
0 0 0 0 0 0 0 0 0 0 0 0 0 0 0 0 0 0 0 0 0 0 0 0 0 0 0 0 0 0 0 0 0 0 0 0 0 0 0 
0 0 0 0 0 0 0 0 0 255 254 236 164 120 107 165 122 109 151 102 90 146 101 89 
116 85 75 78 52 45 89 59 53 97 81 29 103 86 31 116 98 34 102 85 30 79 53 46 
100 68 59 128 92 83 95 64 56 99 66 59 103 69 60 95 64 56 98 66 57 58 38 34 
82 54 46 112 75 66 104 69 61 0 0 0 0 0 0 0 0 0 0 0 0 0 0 0 0 0 0 0 0 0 0 0 0 
0 0 0 0 0 0 0 0 0 0 0 0 0 0 0 0 0 0 0 0 0 0 0 0 0 0 0 0 0 0 0 0 0 0 0 0 0 0 0 
0 0 0 0 0 0 0 0 0 0 0 0 0 0 0 0 0 0 0 0 0 0 0 0 0 0 0 0 0 0 0 0 0 0 0 0 0 0 0 
0 0 0 0 0 0 0 0 0 0 0 0 0 0 0 156 108 96 185 150 136 160 114 102 150 100 88 
153 104 92 172 133 120 140 97 85 100 66 58 102 68 60 115 96 35 112 93 33 
104 87 31 125 105 37 127 95 57 130 92 83 105 73 65 131 88 77 124 83 73 
130 87 76 115 76 67 129 87 76 107 71 63 86 58 51 98 66 57 106 70 62 129 86 76 
54 36 32 0 0 0 0 0 0 0 0 0 0 0 0 0 0 0 0 0 0 0 0 0 0 0 0 0 0 0 0 0 0 0 0 0 
0 0 0 0 0 0 0 0 0 0 0 0 0 0 0 0 0 0 0 0 0 0 0 0 0 0 0 0 0 0 0 0 0 0 0 0 0 0 0 
0 0 0 0 0 0 0 0 0 0 0 0 0 0 0 0 0 0 0 0 0 0 0 0 0 0 0 0 0 0 0 0 0 150 100 88 
167 125 112 182 146 132 167 125 113 150 100 88 150 100 88 160 113 101 
166 124 111 150 100 88 144 96 85 144 98 80 141 117 43 167 140 50 166 139 50 
139 116 42 146 111 72 127 91 82 133 88 78 150 100 88 150 100 88 150 100 88 
150 100 88 150 100 88 150 100 88 128 86 75 116 77 68 104 69 60 98 66 58 
101 68 59 69 47 41 0 0 0 0 0 0 0 0 0 0 0 0 0 0 0 0 0 0 0 0 0 0 0 0 0 0 0 0 0 0 
0 0 0 0 0 0 0 0 0 0 0 0 0 0 0 0 0 0 0 0 0 0 0 0 0 0 0 0 0 0 0 0 0 0 0 0 0 0 0 
0 0 0 0 0 0 0 0 0 0 0 0 0 0 0 0 0 0 0 0 0 0 0 0 0 0 0 159 113 100 159 113 101 
177 140 127 170 130 117 152 103 91 150 100 88 150 100 88 150 100 88 160 114 102 
164 120 107 167 125 112 152 102 90 145 114 55 147 123 44 170 142 51 170 142 51 
170 142 51 155 108 96 170 130 116 162 117 105 150 100 88 150 100 88 150 100 88 
150 100 88 150 100 88 150 100 88 150 100 88 150 100 88 121 81 71 80 53 46 
124 82 72 113 75 66 0 0 0 0 0 0 0 0 0 0 0 0 0 0 0 0 0 0 0 0 0 0 0 0 0 0 0 
0 0 0 0 0 0 0 0 0 0 0 0 0 0 0 0 0 0 0 0 0 0 0 0 0 0 0 0 0 0 0 0 0 0 0 0 0 0 0 
0 0 0 0 0 0 0 0 0 0 0 0 0 0 0 0 0 0 0 0 0 0 0 0 0 0 0 255 254 236 180 143 130 
178 141 127 157 110 97 150 100 88 150 100 88 150 100 88 150 100 88 150 100 88 
150 100 88 164 120 107 157 110 98 150 100 88 140 116 43 170 142 51 170 142 51 
170 142 51 170 142 51 166 123 110 170 129 116 154 107 94 150 100 88 150 100 88 
150 100 88 150 100 88 150 100 88 150 100 88 150 100 88 150 100 88 142 94 83 
109 73 64 123 82 73 131 86 78 94 63 55 0 0 0 0 0 0 0 0 0 0 0 0 0 0 0 0 0 0 
0 0 0 0 0 0 0 0 0 0 0 0 0 0 0 0 0 0 0 0 0 0 0 0 0 0 0 0 0 0 0 0 0 0 0 0 0 0 0 
0 0 0 0 0 0 0 0 0 0 0 0 0 0 0 0 0 0 0 0 0 0 0 0 0 0 0 0 0 0 0 0 0 186 153 138 
177 139 125 151 102 90 150 100 88 150 100 88 150 100 88 150 100 88 150 100 88 
150 100 88 150 100 88 157 109 97 156 109 96 150 100 88 140 117 42 165 138 49 
170 142 51 170 142 51 170 142 51 177 144 105 171 131 118 165 122 109 
150 100 88 150 100 88 150 100 88 161 117 105 160 119 107 166 123 110 
166 123 110 161 116 103 154 105 93 150 100 88 138 92 81 141 93 83 132 88 77 
47 31 27 0 0 0 0 0 0 0 0 0 0 0 0 0 0 0 0 0 0 0 0 0 0 0 0 0 0 0 0 0 0 0 0 0 
0 0 0 0 0 0 0 0 0 0 0 0 0 0 0 0 0 0 0 0 0 0 0 0 0 0 0 0 0 0 0 0 0 0 0 0 0 0 0 
0 0 0 0 0 0 0 0 0 169 128 115 175 136 123 173 134 121 150 100 88 150 100 88 
150 100 88 150 100 88 117 78 68 117 78 69 98 66 58 139 93 81 144 96 85 
150 100 88 150 100 88 150 100 88 141 118 42 164 137 49 170 142 51 170 142 51 
170 142 51 158 132 53 164 124 111 167 125 112 134 89 79 74 48 42 82 54 49 
103 68 60 106 71 62 125 83 73 136 96 86 168 127 114 177 141 127 156 109 96 
150 100 88 150 100 88 139 92 81 108 72 63 0 0 0 0 0 0 0 0 0 0 0 0 0 0 0 0 0 0 
0 0 0 0 0 0 0 0 0 0 0 0 0 0 0 0 0 0 0 0 0 0 0 0 0 0 0 0 0 0 0 0 0 0 0 0 0 0 0 
148 128 84 0 0 0 0 0 0 0 0 0 0 0 0 0 0 0 0 0 0 0 0 0 166 123 110 167 125 112 
152 103 91 150 100 88 150 100 88 135 90 79 108 72 64 98 66 58 106 71 62 
121 80 70 123 82 72 134 89 79 161 115 103 167 125 112 157 111 98 146 122 44 
126 106 38 121 101 36 123 103 37 122 102 37 133 111 40 142 105 88 165 122 109 
115 77 69 67 44 40 97 64 57 93 62 54 0 0 0 114 76 67 122 82 72 129 86 76 
162 118 105 188 154 141 157 109 97 150 100 88 144 96 85 131 87 77 0 0 0 0 0 0 
0 0 0 0 0 0 0 0 0 0 0 0 0 0 0 148 128 84 0 0 0 0 0 0 0 0 0 0 0 0 0 0 0 0 0 0 
0 0 0 0 0 0 0 0 0 0 0 0 0 0 0 0 0 0 0 0 0 0 0 0 0 0 0 0 0 0 0 0 0 0 0 0 171 131 117 
170 129 115 159 112 100 150 100 88 150 100 88 120 80 70 110 73 64 93 62 55 
108 72 63 110 73 64 0 0 0 138 104 93 128 85 75 157 110 98 169 127 114 
160 115 102 125 96 52 113 95 34 116 97 35 114 95 35 114 95 34 108 89 33 
132 100 59 164 123 110 122 84 75 74 49 43 91 60 53 114 76 67 0 0 0 0 0 0 72 48 42 
117 78 69 128 85 75 162 119 105 171 132 118 142 95 83 127 85 75 114 76 67 
49 33 29 0 0 0 0 0 0 0 0 0 0 0 0 0 0 0 0 0 0 148 128 84 0 0 0 0 0 0 0 0 0 
0 0 0 0 0 0 0 0 0 0 0 0 0 0 0 0 0 0 0 0 0 0 0 0 0 0 0 0 0 0 0 0 0 0 0 0 0 0 0 
0 0 0 255 254 236 163 118 106 163 120 107 150 100 88 150 100 88 113 75 66 
103 68 60 94 62 55 113 75 66 0 0 0 0 0 0 118 92 83 135 97 86 137 92 81 
155 107 94 171 131 117 154 106 94 123 82 72 115 96 35 119 99 36 116 97 35 
116 97 35 133 111 40 126 105 38 158 115 103 165 122 109 126 86 76 84 56 50 
112 75 66 0 0 0 0 0 0 0 0 0 0 0 0 125 84 74 152 116 104 171 131 118 
145 97 85 115 76 67 102 68 59 117 78 69 0 0 0 0 0 0 0 0 0 0 0 0 0 0 0 0 0 0 
0 0 0 148 128 84 148 128 84 0 0 0 0 0 0 0 0 0 0 0 0 0 0 0 0 0 0 0 0 0 0 0 0 
0 0 0 0 0 0 0 0 0 0 0 0 0 0 0 0 0 0 255 254 236 198 170 155 164 121 108 
153 104 92 150 100 88 108 73 64 70 46 41 82 55 48 95 63 55 0 0 0 0 0 0 0 0 0 
141 111 100 137 99 88 138 92 81 153 104 92 162 118 104 151 101 89 150 100 88 
120 101 36 144 120 43 123 102 37 148 124 45 170 142 51 132 111 40 146 120 66 
168 126 113 122 83 74 82 54 48 94 63 55 104 69 61 0 0 0 0 0 0 0 0 0 108 72 64 
147 113 101 169 128 115 137 91 80 109 73 64 85 57 50 107 71 62 0 0 0 0 0 0 
0 0 0 0 0 0 0 0 0 0 0 0 0 0 0 148 128 84 148 128 84 0 0 0 0 0 0 0 0 0 0 0 0 
0 0 0 0 0 0 0 0 0 0 0 0 0 0 0 0 0 0 0 0 0 0 0 0 0 0 0 0 0 0 255 254 236 
165 122 108 162 118 105 150 100 88 123 82 73 100 67 59 89 59 51 94 63 55 
0 0 0 0 0 0 0 0 0 0 0 0 140 106 95 127 86 76 140 93 82 155 107 95 164 121 108 
151 101 89 154 109 80 132 111 40 170 142 51 170 142 51 170 142 51 170 142 51 
170 142 51 156 131 49 165 122 109 154 109 96 91 61 53 95 64 56 93 62 54 
0 0 0 0 0 0 0 0 0 0 0 0 143 102 92 168 126 113 127 85 75 111 74 65 99 65 58 
85 56 50 0 0 0 0 0 0 0 0 0 0 0 0 0 0 0 0 0 0 148 128 84 0 0 0 0 0 0 0 0 0 
0 0 0 0 0 0 0 0 0 0 0 0 0 0 0 0 0 0 0 0 0 0 0 0 0 0 0 0 0 0 0 0 0 0 0 0 0 0 0 
170 130 117 169 128 115 152 102 90 117 78 69 110 73 64 93 62 54 93 62 54 
74 49 43 0 0 0 0 0 0 0 0 0 0 0 0 143 105 93 125 84 74 149 99 87 167 125 112 
164 120 108 153 104 92 153 107 82 141 118 42 150 126 45 170 142 51 170 142 51 
170 142 51 170 142 51 170 142 51 168 129 108 162 118 105 134 89 78 104 69 61 
95 64 56 126 84 74 0 0 0 0 0 0 0 0 0 127 84 74 174 135 122 154 105 93 
115 77 67 101 67 59 91 61 54 125 83 73 0 0 0 0 0 0 0 0 0 0 0 0 0 0 0 148 128 84 
0 0 0 0 0 0 0 0 0 0 0 0 0 0 0 0 0 0 0 0 0 0 0 0 0 0 0 0 0 0 0 0 0 0 0 0 0 0 0 
0 0 0 0 0 0 0 0 0 167 124 111 165 123 110 150 100 88 114 76 67 102 67 60 
94 62 55 92 61 54 0 0 0 0 0 0 0 0 0 0 0 0 0 0 0 141 105 94 128 85 75 150 100 88 
161 116 103 167 126 113 153 104 92 150 100 88 140 117 42 145 121 43 170 142 51 
170 142 51 170 142 51 170 142 51 170 142 51 168 127 112 165 122 110 
136 90 80 111 74 65 109 73 64 112 75 66 150 100 88 0 0 0 0 0 0 123 82 72 
172 135 122 144 100 89 112 75 66 97 65 56 98 65 57 147 98 86 0 0 0 0 0 0 0 0 0 
0 0 0 0 0 0 167 144 95 0 0 0 0 0 0 0 0 0 0 0 0 0 0 0 0 0 0 0 0 0 0 0 0 0 0 0 
0 0 0 0 0 0 0 0 0 0 0 0 0 0 0 0 0 0 150 100 88 166 123 110 154 105 93 
131 88 77 118 79 69 96 64 56 113 75 65 0 0 0 0 0 0 0 0 0 0 0 0 0 0 0 255 254 236 
149 115 104 130 91 81 150 100 88 158 112 99 167 124 111 151 102 90 150 100 88 
141 118 42 146 122 44 170 142 51 170 142 51 170 142 51 170 142 51 170 142 51 
162 118 106 162 118 105 113 76 67 111 74 65 110 73 65 108 72 64 150 100 88 
0 0 0 0 0 0 150 100 88 172 132 119 133 93 83 111 74 65 95 63 56 87 58 51 
150 100 88 0 0 0 0 0 0 0 0 0 0 0 0 0 0 0 224 193 127 0 0 0 0 0 0 0 0 0 0 0 0 
0 0 0 0 0 0 0 0 0 0 0 0 0 0 0 0 0 0 0 0 0 0 0 0 0 0 0 0 0 0 0 0 0 150 100 88 
166 124 111 150 100 88 122 81 71 100 67 59 105 70 62 150 100 88 0 0 0 0 0 0 
0 0 0 0 0 0 0 0 0 196 167 152 161 129 117 133 93 83 135 90 79 167 126 113 
167 125 112 150 100 88 150 100 88 161 134 48 166 139 50 170 142 51 170 142 51 
170 142 51 170 142 51 170 142 51 165 122 109 156 109 97 140 93 82 111 74 65 
111 74 65 111 74 65 150 100 88 0 0 0 0 0 0 0 0 0 164 120 108 137 95 84 
111 74 65 92 61 54 98 65 57 150 100 88 0 0 0 0 0 0 0 0 0 0 0 0 0 0 0 63 55 36 
0 0 0 0 0 0 0 0 0 0 0 0 0 0 0 0 0 0 0 0 0 0 0 0 0 0 0 0 0 0 0 0 0 0 0 0 0 0 0 
0 0 0 0 0 0 150 100 88 151 102 90 150 100 88 112 74 65 117 78 69 150 100 88 
0 0 0 0 0 0 0 0 0 0 0 0 0 0 0 0 0 0 159 113 100 156 124 113 126 84 76 
147 99 92 165 122 109 152 103 92 147 98 86 95 74 112 94 77 131 123 101 127 
151 126 81 141 117 97 108 88 150 116 95 137 100 82 139 148 117 125 156 109 96 
127 84 74 111 74 65 111 74 65 107 71 63 0 0 0 0 0 0 170 142 51 173 146 57 
189 165 103 156 113 99 112 75 66 79 53 47 70 47 41 140 93 82 0 0 0 0 0 0 0 0 0 
0 0 0 0 0 0 7 6 4 0 0 0 0 0 0 0 0 0 0 0 0 0 0 0 0 0 0 0 0 0 0 0 0 0 0 0 0 0 0 
0 0 0 0 0 0 0 0 0 0 0 0 170 142 51 170 142 51 128 100 51 116 77 68 150 100 88 
150 100 88 0 0 0 0 0 0 0 0 0 0 0 0 0 0 0 0 0 0 0 0 0 157 110 98 147 113 101 
131 89 84 152 105 93 165 123 110 154 106 94 85 66 104 75 61 104 98 80 137 
108 88 150 108 88 150 108 88 150 108 88 150 98 80 136 64 52 89 73 61 96 
160 117 105 140 94 83 111 74 65 119 80 70 0 0 0 0 0 0 255 254 236 183 159 79 
185 161 83 199 180 114 186 164 86 170 142 51 80 67 24 75 62 23 0 0 0 0 0 0 
0 0 0 0 0 0 0 0 0 0 0 0 0 0 0 1 1 0 1 1 1 0 0 0 0 0 0 0 0 0 0 0 0 0 0 0 0 0 0 
0 0 0 0 0 0 0 0 0 0 0 0 0 0 0 170 142 51 170 142 51 170 142 51 128 107 39 
104 86 31 122 102 37 0 0 0 0 0 0 0 0 0 0 0 0 0 0 0 0 0 0 0 0 0 0 0 0 156 108 96 
142 104 92 157 110 98 176 140 128 157 119 121 109 88 149 92 74 127 99 81 137 
108 88 150 108 88 150 108 88 150 108 88 150 108 88 150 99 81 138 71 58 99 
67 54 93 151 112 105 150 100 88 139 93 85 110 89 147 0 0 0 0 0 0 192 171 98 
178 153 69 197 178 110 191 169 96 179 154 70 161 135 48 118 98 35 117 97 35 
48 40 14 0 0 0 0 0 0 0 0 0 0 0 0 0 0 0 0 0 0 0 0 0 1 0 0 0 0 0 0 0 0 0 0 0 
0 0 0 0 0 0 0 0 0 0 0 0 0 0 0 0 0 0 0 0 0 0 0 0 170 142 51 170 142 51 
154 129 46 120 100 36 118 99 35 161 135 49 125 104 37 0 0 0 0 0 0 0 0 0 0 0 0 
0 0 0 0 0 0 0 0 0 108 88 150 132 115 164 142 126 170 141 125 169 111 92 152 
108 88 150 108 88 150 108 88 150 108 88 150 108 88 150 108 88 150 108 88 150 
108 88 150 108 88 150 98 80 136 82 67 113 142 105 99 85 63 82 69 57 97 
83 68 116 100 81 139 0 0 0 170 142 51 172 144 55 0 0 0 191 170 99 174 147 60 
150 125 45 111 94 34 133 111 40 130 109 39 0 0 0 0 0 0 0 0 0 0 0 0 0 0 0 0 0 0 
0 0 0 0 0 0 0 0 0 0 0 0 0 0 0 0 0 0 0 0 0 0 0 0 0 0 0 0 0 0 0 0 0 0 0 0 0 0 0 
170 142 51 170 142 51 91 76 27 124 104 37 61 51 18 170 142 51 166 139 50 
0 0 0 0 0 0 0 0 0 0 0 0 0 0 0 0 0 0 108 88 150 132 115 164 134 118 165 
134 117 165 117 98 155 108 88 150 108 88 150 108 88 150 108 88 150 108 88 150 
108 88 150 108 88 150 108 88 150 108 88 150 108 88 150 108 88 150 97 79 134 
80 65 111 76 62 105 66 54 92 81 66 113 89 72 123 108 88 150 0 0 0 0 0 0 0 0 0 
188 166 91 171 144 53 159 133 48 139 116 42 135 113 41 132 109 39 0 0 0 0 0 0 
0 0 0 0 0 0 0 0 0 0 0 0 0 0 0 0 0 0 0 0 0 0 0 0 0 0 0 0 0 0 0 0 0 0 0 0 0 0 0 
0 0 0 0 0 0 0 0 0 0 0 0 170 142 51 170 142 51 131 109 39 127 106 38 170 142 51 
0 0 0 170 142 51 0 0 0 0 0 0 0 0 0 0 0 0 0 0 0 0 0 0 108 88 150 135 118 166 
134 117 165 129 112 162 108 88 150 108 88 150 108 88 150 108 88 150 108 88 150 
108 88 150 108 88 150 108 88 150 108 88 150 108 88 150 108 88 150 108 88 150 
107 88 149 107 88 149 80 65 112 72 59 101 67 55 93 72 59 100 96 78 133 
0 0 0 0 0 0 182 158 78 192 171 99 171 144 54 168 140 50 130 109 39 144 120 43 
0 0 0 0 0 0 0 0 0 0 0 0 0 0 0 0 0 0 0 0 0 0 0 0 0 0 0 0 0 0 0 0 0 0 0 0 0 0 0 
0 0 0 0 0 0 0 0 0 0 0 0 0 0 0 0 0 0 0 0 0 0 0 0 170 142 51 140 117 42 
120 100 36 142 119 43 0 0 0 0 0 0 0 0 0 0 0 0 0 0 0 0 0 0 0 0 0 0 0 0 138 121 167 
134 117 165 133 117 165 114 94 153 108 88 150 108 88 150 108 88 150 108 88 150 
108 88 150 108 88 150 108 88 150 108 88 150 108 88 150 126 109 161 134 117 165 
117 98 155 112 92 152 108 88 150 81 66 113 80 65 111 67 54 93 67 55 93 
69 56 96 89 72 123 0 0 0 178 153 69 184 161 82 170 142 51 151 126 45 
115 96 34 167 140 50 170 142 51 0 0 0 0 0 0 0 0 0 0 0 0 0 0 0 0 0 0 0 0 0 
0 0 0 0 0 0 0 0 0 0 0 0 0 0 0 0 0 0 0 0 0 0 0 0 0 0 0 0 0 0 0 0 0 0 0 0 0 0 0 
170 142 51 170 142 51 157 131 47 0 0 0 0 0 0 0 0 0 0 0 0 0 0 0 0 0 0 0 0 0 
0 0 0 142 127 170 135 119 166 134 117 165 129 111 162 108 88 150 108 88 150 
108 88 150 108 88 150 108 88 150 98 80 137 84 69 116 76 62 105 89 73 124 
104 85 145 133 116 165 134 117 165 134 117 165 131 114 164 108 88 150 
107 87 148 81 66 113 80 65 111 66 54 92 66 54 92 81 65 112 92 75 128 166 139 50 
170 142 51 170 142 51 165 138 49 0 0 0 170 142 51 170 142 51 0 0 0 0 0 0 0 0 0 
0 0 0 0 0 0 0 0 0 0 0 0 0 0 0 0 0 0 0 0 0 0 0 0 0 0 0 0 0 0 0 0 0 0 0 0 0 0 0 
0 0 0 0 0 0 255 255 255 255 255 255 255 255 255 255 255 237 255 255 255 
0 0 0 0 0 0 0 0 0 0 0 0 0 0 0 0 0 0 0 0 0 255 254 236 131 114 164 134 117 165 
131 114 164 109 89 150 108 88 150 108 88 150 105 85 146 84 69 117 81 66 113 
74 59 102 68 56 95 86 71 119 46 38 64 108 88 150 123 104 159 134 117 165 
133 116 165 133 117 165 124 106 159 108 88 150 108 88 150 88 72 123 69 56 96 
67 54 93 69 56 95 86 70 119 136 114 41 0 0 0 0 0 0 170 142 51 0 0 0 0 0 0 
0 0 0 0 0 0 0 0 0 1 1 0 0 0 0 0 0 0 0 0 0 0 0 0 0 0 0 0 0 0 0 0 0 0 0 0 0 0 0 
0 0 0 0 0 0 0 0 0 0 0 0 0 0 0 146 139 65 0 0 0 0 0 0 0 0 0 0 0 0 0 0 0 0 0 0 
149 141 65 0 0 0 0 0 0 0 0 0 0 0 0 0 0 0 151 136 175 134 117 165 134 117 165 
114 95 153 108 88 150 108 88 150 97 79 135 83 68 116 80 65 111 79 64 109 
67 55 93 88 73 123 52 43 73 0 0 0 0 0 0 108 88 150 108 88 150 124 106 159 
134 117 165 129 111 162 110 91 151 108 88 150 108 88 150 68 55 94 66 54 92 
67 55 93 86 70 119 104 85 144 0 0 0 0 0 0 0 0 0 0 0 0 23 22 8 33 32 12 
26 25 10 7 7 3 0 0 0 0 0 0 0 0 0 0 0 0 0 0 0 0 0 0 0 0 0 0 0 0 0 0 0 0 0 0 
0 0 0 0 0 0 0 0 0 0 0 0 0 0 0 146 139 65 0 0 0 0 0 0 0 0 0 0 0 0 0 0 0 0 0 0 
149 141 65 0 0 0 0 0 0 0 0 0 0 0 0 255 254 236 132 115 164 134 117 165 
124 106 159 108 88 150 108 88 150 99 81 138 80 65 112 80 65 111 73 59 102 
74 61 103 89 72 123 85 69 118 0 0 0 0 0 0 0 0 0 108 88 150 108 88 150 
126 108 160 133 116 165 133 116 165 127 109 161 108 88 150 108 88 150 
83 68 116 70 58 98 74 60 103 89 72 124 98 80 136 0 0 0 0 0 0 0 0 0 0 0 0 0 0 0 
0 0 0 0 0 0 28 27 10 0 0 0 0 0 0 0 0 0 0 0 0 0 0 0 0 0 0 0 0 0 0 0 0 0 0 0 
0 0 0 0 0 0 0 0 0 0 0 0 0 0 0 0 0 0 0 0 0 0 0 0 0 0 0 0 0 0 0 0 0 0 0 0 0 0 0 
0 0 0 0 0 0 0 0 0 0 0 0 255 254 236 135 119 166 132 115 164 132 115 164 
110 90 151 108 88 150 100 81 139 83 68 115 78 64 108 67 54 93 67 54 93 
90 73 124 108 88 150 0 0 0 0 0 0 0 0 0 0 0 0 0 0 0 0 0 0 108 88 150 129 112 162 
133 117 165 133 116 164 112 92 152 108 88 150 108 88 150 76 62 107 89 72 123 
85 70 118 88 72 122 0 0 0 0 0 0 0 0 0 0 0 0 0 0 0 0 0 0 0 0 0 27 26 10 
0 0 0 0 0 0 0 0 0 0 0 0 0 0 0 0 0 0 0 0 0 0 0 0 0 0 0 0 0 0 0 0 0 0 0 0 0 0 0 
0 0 0 0 0 0 0 0 0 0 0 0 0 0 0 0 0 0 0 0 0 0 0 0 0 0 0 0 0 0 0 0 0 0 0 0 255 254 236 
156 142 178 135 118 166 132 115 164 108 88 150 108 88 150 108 88 150 
85 69 117 80 65 111 67 55 94 66 54 92 66 53 91 96 78 134 0 0 0 0 0 0 0 0 0 
0 0 0 0 0 0 0 0 0 0 0 0 108 88 150 120 101 157 133 117 165 134 117 165 
131 114 163 112 92 152 108 88 150 107 87 148 77 63 107 70 57 97 70 56 97 
0 0 0 0 0 0 0 0 0 0 0 0 0 0 0 0 0 0 0 0 0 6 6 2 0 0 0 0 0 0 0 0 0 0 0 0 0 0 0 
0 0 0 0 0 0 0 0 0 0 0 0 0 0 0 0 0 0 0 0 0 0 0 0 0 0 0 0 0 0 0 0 0 0 0 0 0 0 0 
0 0 0 0 0 0 0 0 0 0 0 0 0 0 0 0 0 0 0 0 0 0 0 0 135 119 166 135 118 166 
124 106 160 108 88 150 108 88 150 88 72 122 80 65 111 70 58 99 67 55 93 
79 64 109 86 70 120 101 83 141 0 0 0 0 0 0 0 0 0 0 0 0 0 0 0 0 0 0 0 0 0 0 0 0 
108 88 150 108 88 150 133 116 165 134 117 165 130 113 163 108 88 150 
99 81 138 69 56 96 67 55 93 66 54 92 0 0 0 0 0 0 0 0 0 0 0 0 0 0 0 0 0 0 0 0 0 
0 0 0 1 1 0 2 2 1 0 0 0 0 0 0 0 0 0 0 0 0 0 0 0 0 0 0 0 0 0 0 0 0 0 0 0 0 0 0 
0 0 0 0 0 0 0 0 0 0 0 0 0 0 0 0 0 0 0 0 0 0 0 0 0 0 0 0 0 0 0 0 0 0 0 0 0 0 0 
255 254 236 136 120 167 133 116 165 108 88 150 108 88 150 98 80 136 80 65 111 
76 62 106 67 54 93 77 63 107 86 70 119 105 86 146 0 0 0 0 0 0 0 0 0 0 0 0 
0 0 0 0 0 0 0 0 0 0 0 0 0 0 0 108 88 150 108 88 150 119 100 156 133 117 165 
124 106 159 108 88 150 102 83 142 71 59 100 66 54 92 76 62 106 0 0 0 0 0 0 
0 0 0 0 0 0 0 0 0 0 0 0 0 0 0 0 0 0 1 1 1 3 3 1 0 0 0 0 0 0 0 0 0 0 0 0 0 0 0 
0 0 0 0 0 0 0 0 0 0 0 0 0 0 0 0 0 0 0 0 0 0 0 0 0 0 0 0 0 0 0 0 0 0 0 0 0 0 0 
0 0 0 0 0 0 0 0 0 0 0 0 0 0 0 255 254 236 135 118 166 124 107 160 108 88 150 
108 88 150 87 71 120 79 65 110 69 56 96 67 55 94 80 65 110 88 72 123 0 0 0 
0 0 0 0 0 0 0 0 0 0 0 0 0 0 0 0 0 0 0 0 0 0 0 0 0 0 0 108 88 150 108 88 150 
117 98 155 133 117 165 132 115 164 108 88 150 97 79 135 70 57 97 69 56 96 
74 60 102 0 0 0 0 0 0 0 0 0 0 0 0 0 0 0 0 0 0 0 0 0 0 0 0 0 0 0 0 0 0 0 0 0 
0 0 0 0 0 0 0 0 0 0 0 0 0 0 0 0 0 0 0 0 0 0 0 0 0 0 0 0 0 0 0 0 0 0 0 0 0 0 0 
0 0 0 0 0 0 0 0 0 0 0 0 0 0 0 0 0 0 0 0 0 0 0 0 0 0 0 255 254 236 133 116 164 
132 116 164 108 88 150 84 69 117 80 65 111 73 60 102 68 55 95 85 69 118 
104 84 144 108 88 150 0 0 0 0 0 0 0 0 0 0 0 0 0 0 0 0 0 0 0 0 0 0 0 0 0 0 0 
0 0 0 0 0 0 108 88 150 113 94 153 134 117 165 123 105 159 95 78 132 82 67 114 
68 55 95 67 55 94 78 64 109 0 0 0 0 0 0 0 0 0 0 0 0 0 0 0 0 0 0 0 0 0 0 0 0 
0 0 0 0 0 0 0 0 0 0 0 0 0 0 0 0 0 0 0 0 0 0 0 0 0 0 0 0 0 0 0 0 0 0 0 0 0 0 0 
0 0 0 0 0 0 0 0 0 0 0 0 0 0 0 0 0 0 0 0 0 0 0 0 0 0 0 0 0 0 0 0 0 0 0 0 0 0 0 
134 117 165 132 115 164 123 104 159 85 69 118 80 66 112 72 58 99 82 67 115 
99 81 138 108 88 150 0 0 0 0 0 0 0 0 0 0 0 0 59 50 78 0 0 0 0 0 0 0 0 0 0 0 0 
0 0 0 0 0 0 0 0 0 108 88 150 117 98 155 134 117 165 128 111 162 91 75 127 
77 63 107 67 55 94 67 55 93 77 62 106 0 0 0 0 0 0 0 0 0 0 0 0 0 0 0 0 0 0 
0 0 0 0 0 0 0 0 0 0 0 0 0 0 0 0 0 0 0 0 0 0 0 0 0 0 0 0 0 0 0 0 0 0 0 0 0 0 0 
0 0 0 0 0 0 0 0 0 0 0 0 0 0 0 0 0 0 0 0 0 0 0 0 0 0 0 0 0 0 0 0 0 0 0 0 0 0 0 
0 0 0 255 254 236 132 115 164 133 116 164 120 102 157 80 65 111 74 60 103 
66 54 92 66 54 92 92 75 127 108 88 150 0 0 0 0 0 0 0 0 0 0 0 0 59 50 78 
0 0 0 0 0 0 0 0 0 0 0 0 0 0 0 0 0 0 0 0 0 0 0 0 120 101 157 133 116 165 
125 107 160 108 88 150 71 58 99 67 55 93 67 55 94 86 70 119 108 88 150 
0 0 0 0 0 0 0 0 0 0 0 0 0 0 0 0 0 0 0 0 0 0 0 0 0 0 0 0 0 0 0 0 0 0 0 0 0 0 0 
0 0 0 0 0 0 0 0 0 0 0 0 0 0 0 0 0 0 0 0 0 0 0 0 0 0 0 0 0 0 0 0 0 0 0 0 0 0 0 
0 0 0 0 0 0 0 0 0 0 0 0 0 0 0 0 0 0 0 0 0 149 135 174 134 117 165 133 116 165 
95 77 132 68 55 95 66 53 91 67 54 92 85 69 118 93 76 129 0 0 0 0 0 0 0 0 0 
0 0 0 59 50 78 0 0 0 0 0 0 59 50 78 0 0 0 0 0 0 0 0 0 0 0 0 0 0 0 108 88 150 
131 114 163 133 116 164 123 105 159 81 66 112 67 55 93 69 56 96 91 74 127 
108 88 150 0 0 0 0 0 0 0 0 0 0 0 0 0 0 0 0 0 0 0 0 0 0 0 0 0 0 0 0 0 0 0 0 0 
0 0 0 0 0 0 0 0 0 0 0 0 0 0 0 0 0 0 0 0 0 0 0 0 0 0 0 0 0 0 0 0 0 0 0 0 0 0 0 
0 0 0 0 0 0 0 0 0 0 0 0 0 0 0 0 0 0 0 0 0 0 0 0 0 0 0 255 254 236 133 116 164 
130 113 163 128 110 162 89 75 117 68 55 94 66 54 92 71 58 99 84 68 116 
0 0 0 0 0 0 0 0 0 0 0 0 0 0 0 0 0 0 0 0 0 0 0 0 0 0 0 0 0 0 0 0 0 0 0 0 0 0 0 
0 0 0 112 93 153 131 114 164 113 93 153 86 70 120 68 55 94 73 60 101 102 83 141 
108 88 150 0 0 0 0 0 0 0 0 0 0 0 0 0 0 0 0 0 0 0 0 0 0 0 0 0 0 0 0 0 0 0 0 0 
0 0 0 0 0 0 0 0 0 0 0 0 0 0 0 0 0 0 0 0 0 0 0 0 0 0 0 0 0 0 0 0 0 0 0 0 0 0 0 
0 0 0 0 0 0 0 0 0 0 0 0 0 0 0 0 0 0 0 0 0 0 0 0 0 0 0 0 0 0 113 94 153 
132 115 164 132 116 164 127 109 161 94 76 130 69 56 95 69 56 96 87 71 121 
0 0 0 0 0 0 0 0 0 0 0 0 0 0 0 0 0 0 0 0 0 0 0 0 0 0 0 0 0 0 0 0 0 0 0 0 0 0 0 
0 0 0 112 92 152 129 111 162 121 102 157 75 61 103 65 53 90 68 55 94 107 87 148 
108 88 150 0 0 0 0 0 0 0 0 0 0 0 0 0 0 0 0 0 0 0 0 0 0 0 0 0 0 0 0 0 0 0 0 0 
0 0 0 0 0 0 0 0 0 0 0 0 0 0 0 0 0 0 0 0 0 0 0 0 0 0 0 0 0 0 0 0 0 0 0 0 0 0 0 
0 0 0 0 0 0 0 0 0 0 0 0 0 0 0 0 0 0 0 0 0 0 0 0 0 0 0 0 0 0 0 0 0 109 89 150 
129 112 162 129 111 162 132 115 163 94 80 119 75 61 103 87 70 120 0 0 0 0 0 0 
0 0 0 0 0 0 0 0 0 0 0 0 0 0 0 0 0 0 0 0 0 0 0 0 0 0 0 0 0 0 0 0 0 0 0 0 108 88 150 
132 115 164 117 99 156 76 62 106 66 53 91 86 71 78 103 86 70 0 0 0 0 0 0 0 0 0 
64 55 85 0 0 0 0 0 0 0 0 0 0 0 0 0 0 0 0 0 0 0 0 0 0 0 0 0 0 0 0 0 0 0 0 0 
0 0 0 0 0 0 0 0 0 0 0 0 0 0 0 0 0 0 0 0 0 0 0 0 0 0 0 0 0 0 0 0 0 0 0 0 0 0 0 
0 0 0 0 0 0 0 0 0 0 0 0 0 0 0 0 0 0 0 0 0 0 0 0 108 88 150 108 88 150 
112 93 152 92 78 121 98 86 121 93 80 119 69 56 96 0 0 0 0 0 0 0 0 0 0 0 0 
0 0 0 0 0 0 0 0 0 0 0 0 0 0 0 0 0 0 0 0 0 0 0 0 0 0 0 0 0 0 112 93 153 
129 112 162 118 100 156 91 73 125 55 44 77 102 85 30 122 102 36 0 0 0 0 0 0 
0 0 0 0 0 0 0 0 0 0 0 0 0 0 0 0 0 0 0 0 0 0 0 0 0 0 0 0 0 0 0 0 0 0 0 0 0 0 0 
0 0 0 0 0 0 0 0 0 0 0 0 0 0 0 0 0 0 0 0 0 0 0 0 0 0 0 0 0 0 0 0 0 0 0 0 0 0 0 
0 0 0 0 0 0 0 0 0 0 0 0 255 254 236 255 254 236 255 254 236 255 254 236 
255 254 236 193 181 173 174 162 175 139 123 168 97 82 126 115 96 36 107 89 32 
106 89 32 124 104 37 0 0 0 0 0 0 0 0 0 0 0 0 0 0 0 0 0 0 0 0 0 0 0 0 0 0 0 
0 0 0 0 0 0 0 0 0 168 156 185 135 119 166 173 150 95 149 124 57 105 88 31 
104 87 31 108 90 32 0 0 0 0 0 0 0 0 0 0 0 0 0 0 0 0 0 0 0 0 0 0 0 0 0 0 0 
0 0 0 0 0 0 0 0 0 0 0 0 0 0 0 0 0 0 0 0 0 0 0 0 0 0 0 0 0 0 0 0 0 0 0 0 0 0 0 
0 0 0 0 0 0 0 0 0 0 0 0 0 0 0 0 0 0 0 0 0 0 0 0 0 0 0 211 196 140 188 165 90 
188 166 90 187 164 88 195 175 107 192 171 99 191 169 95 188 165 90 175 149 62 
147 123 44 102 85 30 80 67 24 98 82 29 117 97 35 0 0 0 0 0 0 0 0 0 0 0 0 0 0 0 
0 0 0 0 0 0 0 0 0 0 0 0 0 0 0 0 0 0 255 254 236 255 254 236 185 162 84 
153 130 55 110 92 33 111 93 34 118 99 35 113 95 34 0 0 0 0 0 0 0 0 0 0 0 0 
0 0 0 0 0 0 0 0 0 0 0 0 0 0 0 0 0 0 0 0 0 0 0 0 0 0 0 0 0 0 0 0 0 0 0 0 0 0 0 
0 0 0 0 0 0 0 0 0 0 0 0 0 0 0 0 0 0 0 0 0 0 0 0 0 0 0 0 0 0 0 0 0 0 0 0 0 0 0 
170 142 51 175 148 61 178 153 69 185 162 84 183 159 79 183 158 78 181 156 74 
172 145 56 167 139 50 120 101 37 93 78 28 89 75 27 92 76 27 108 89 32 
142 118 42 0 0 0 0 0 0 0 0 0 0 0 0 0 0 0 0 0 0 0 0 0 0 0 0 0 0 0 0 0 0 0 0 0 
255 254 236 190 169 96 184 161 82 123 103 37 85 71 25 103 87 31 104 87 31 
136 114 41 116 97 35 0 0 0 0 0 0 0 0 0 0 0 0 0 0 0 0 0 0 0 0 0 0 0 0 0 0 0 
0 0 0 0 0 0 0 0 0 0 0 0 0 0 0 0 0 0 0 0 0 0 0 0 0 0 0 0 0 0 0 0 0 0 0 0 0 0 0 
0 0 0 0 0 0 0 0 0 0 0 0 0 0 0 0 0 0 0 0 0 170 142 51 170 142 51 170 142 51 
179 154 70 170 142 51 170 142 51 156 130 47 131 109 39 111 92 33 110 93 33 
101 84 30 106 89 32 121 101 36 151 126 46 170 142 51 0 0 0 0 0 0 0 0 0 0 0 0 
0 0 0 0 0 0 0 0 0 0 0 0 0 0 0 170 142 51 170 142 51 184 160 81 184 161 82 
173 146 57 170 142 51 161 134 48 141 118 42 114 96 34 124 104 37 115 96 35 
124 103 37 0 0 0 0 0 0 0 0 0 0 0 0 0 0 0 0 0 0 0 0 0 0 0 0 0 0 0 0 0 0 0 0 0 
0 0 0 0 0 0 0 0 0 0 0 0 0 0 0 0 0 0 0 0 0 0 0 0 0 0 0 0 0 0 0 0 0 0 0 0 0 0 0 
0 0 0 0 0 0 0 0 0 0 0 0 0 0 0 170 142 51 170 142 51 170 142 51 170 142 51 
170 142 51 160 134 48 160 134 48 168 140 50 0 0 0 0 0 0 0 0 0 0 0 0 0 0 0 
0 0 0 0 0 0 0 0 0 0 0 0 0 0 0 0 0 0 0 0 0 0 0 0 0 0 0 170 142 51 170 142 51 
177 151 66 184 160 81 190 168 94 170 142 52 170 142 51 170 142 51 170 142 51 
170 142 51 170 142 51 163 136 49 170 142 51 0 0 0 0 0 0 0 0 0 0 0 0 0 0 0 
0 0 0 0 0 0 0 0 0 0 0 0 0 0 0 0 0 0 0 0 0 0 0 0 0 0 0 0 0 0 
