P3
64 64
255
0 0 0 0 0 0 0 0 0 0 0 0 0 0 0 0 0 0 0 0 0 0 0 0 0 0 0 0 0 0 0 0 0 0 0 0 0 0 0 
0 0 0 0 0 0 0 0 0 0 0 0 0 0 0 0 0 0 0 0 0 0 0 0 0 0 0 0 0 0 0 0 0 0 0 0 0 0 0 
0 0 0 0 0 0 0 0 0 0 0 0 0 0 0 0 0 0 0 0 0 0 0 0 0 0 0 0 0 0 0 0 0 0 0 0 0 0 0 
0 0 0 0 0 0 0 0 0 0 0 0 0 0 0 0 0 0 0 0 0 0 0 0 0 0 0 0 0 0 0 0 0 0 0 0 0 0 0 
0 0 0 0 0 0 0 0 0 0 0 0 0 0 0 0 0 0 0 0 0 0 0 0 0 0 0 0 0 0 0 0 0 0 0 0 0 0 0 
0 0 0 0 0 0 0 0 0 0 0 0 0 0 0 0 0 0 0 0 0 0 0 0 0 0 0 0 0 0 0 0 0 0 0 0 0 0 0 
0 0 0 0 0 0 0 0 0 0 0 0 0 0 0 0 0 0 0 0 0 0 0 0 0 0 0 0 0 0 0 0 0 0 0 0 0 0 0 
0 0 0 0 0 0 0 0 0 0 0 0 0 0 0 0 0 0 0 0 0 0 0 0 0 0 0 0 0 0 0 0 0 0 0 0 0 0 0 
0 0 0 0 0 0 0 0 0 0 0 0 0 0 0 0 0 0 0 0 0 0 0 0 0 0 0 0 0 0 0 0 0 0 0 0 0 0 0 
0 0 0 0 0 0 0 0 0 0 0 0 0 0 0 0 0 0 0 0 0 0 0 0 0 0 0 0 0 0 0 0 0 0 0 0 0 0 0 
0 0 0 0 0 0 0 0 0 0 0 0 0 0 0 0 0 0 0 0 0 0 0 0 0 0 0 0 0 0 0 0 0 0 0 0 0 0 0 
0 0 0 0 0 0 0 0 0 0 0 0 0 0 0 0 0 0 0 0 0 0 0 0 0 0 0 0 0 0 0 0 0 0 0 0 0 0 0 
0 0 0 0 0 0 0 0 0 0 0 0 0 0 0 0 0 0 0 0 0 0 0 0 0 0 0 0 0 0 0 0 0 0 0 0 0 0 0 
0 0 0 0 0 0 0 0 0 0 0 0 0 0 0 0 0 0 0 0 0 0 0 0 0 0 0 0 0 0 0 0 0 0 0 0 0 0 0 
0 0 0 0 0 0 0 0 0 0 0 0 0 0 0 0 0 0 0 0 0 0 0 0 0 0 0 0 0 0 0 0 0 0 0 0 0 0 0 
0 0 0 0 0 0 0 0 0 0 0 0 0 0 0 0 0 0 0 0 0 0 0 0 0 0 0 0 0 0 0 0 0 0 0 0 0 0 0 
0 0 0 0 0 0 0 0 0 0 0 0 0 0 0 0 0 0 0 0 0 0 0 0 0 0 0 0 0 0 0 0 0 0 0 0 0 0 0 
0 0 0 0 0 0 0 0 0 0 0 0 0 0 0 0 0 0 0 0 0 0 0 0 0 0 0 0 0 0 0 0 0 0 0 0 0 0 0 
0 0 0 0 0 0 0 0 0 0 0 0 0 0 0 0 0 0 0 0 0 0 0 0 0 0 0 0 0 0 0 0 0 0 0 0 0 0 0 
0 0 0 0 0 0 0 0 0 0 0 0 0 0 0 0 0 0 0 0 0 0 0 0 0 0 0 0 0 0 0 0 0 0 0 0 0 0 0 
0 0 0 0 0 0 0 0 0 0 0 0 0 0 0 0 0 0 0 0 0 0 0 0 0 0 0 0 0 0 0 0 0 0 0 0 0 0 0 
0 0 0 0 0 0 0 0 0 0 0 0 0 0 0 0 0 0 0 0 0 0 0 0 0 0 0 0 0 0 255 43 0 255 43 0 
255 43 0 0 0 0 0 0 0 0 0 0 0 0 0 0 0 0 0 0 0 0 0 0 0 0 0 0 0 0 0 0 0 0 0 0 
0 0 0 0 0 0 0 0 0 0 0 0 0 0 0 0 0 0 0 0 0 0 0 0 0 0 0 0 0 0 0 0 0 0 0 0 0 0 0 
0 0 0 0 0 0 0 0 0 0 0 0 0 0 0 0 0 0 0 0 0 0 0 0 0 0 0 0 0 0 0 0 0 0 0 0 0 0 0 
0 0 0 0 0 0 0 0 0 0 0 0 0 0 0 0 0 0 0 0 0 0 0 0 0 0 0 0 0 0 0 0 0 0 0 0 0 0 0 
0 0 0 0 0 0 0 0 0 0 0 0 0 0 0 0 0 0 0 0 0 0 0 0 0 0 0 0 0 0 0 0 0 255 43 0 
255 43 0 255 43 0 255 43 0 255 43 0 255 43 0 0 0 0 0 0 0 0 0 0 133 23 14 
133 23 14 133 23 14 133 23 14 0 0 0 0 0 0 0 0 0 0 0 0 0 0 0 0 0 0 0 0 0 0 0 0 
0 0 0 0 0 0 0 0 0 0 0 0 0 0 0 0 0 0 0 0 0 0 0 0 0 0 0 0 0 0 0 0 0 0 0 0 0 0 0 
0 0 0 0 0 0 0 0 0 0 0 0 0 0 0 0 0 0 0 0 0 0 0 0 0 0 0 0 0 0 0 0 0 0 0 0 0 0 0 
0 0 0 0 0 0 0 0 0 0 0 0 0 0 0 0 0 0 0 0 0 0 0 0 0 0 0 0 0 0 0 0 0 0 0 0 0 0 0 
255 43 0 255 43 0 255 43 0 255 43 0 255 43 0 0 0 0 0 0 0 255 43 0 234 68 13 
180 130 45 184 161 85 192 172 105 191 170 102 196 177 115 196 176 113 
189 167 96 189 167 97 188 166 95 188 165 94 187 165 92 0 0 0 0 0 0 0 0 0 0 0 0 
0 0 0 0 0 0 0 0 0 0 0 0 0 0 0 0 0 0 0 0 0 0 0 0 0 0 0 0 0 0 0 0 0 0 0 0 0 0 0 
0 0 0 0 0 0 0 0 0 0 0 0 0 0 0 0 0 0 0 0 0 0 0 0 0 0 0 0 0 0 0 0 0 0 0 0 0 0 0 
0 0 0 0 0 0 0 0 0 0 0 0 0 0 0 0 0 0 0 0 0 0 0 0 0 0 0 39 113 24 39 113 24 
39 113 24 39 113 24 0 0 0 255 43 0 199 92 34 198 93 34 199 91 33 180 108 45 
166 113 59 175 148 62 185 162 88 190 169 100 193 173 107 188 166 95 171 143 53 
170 142 51 164 137 49 162 135 49 146 122 44 115 96 34 110 91 33 118 99 35 
91 76 27 0 0 0 0 0 0 0 0 0 0 0 0 0 0 0 0 0 0 0 0 0 0 0 0 0 0 0 0 0 0 0 0 0 
0 0 0 0 0 0 0 0 0 0 0 0 0 0 0 0 0 0 0 0 0 0 0 0 0 0 0 0 0 0 0 0 0 0 0 0 0 0 0 
0 0 0 0 0 0 0 0 0 0 0 0 0 0 0 0 0 0 0 0 0 0 0 0 0 0 0 0 0 0 0 0 0 0 0 0 0 0 0 
0 0 0 0 0 0 39 113 24 39 113 24 39 113 24 76 114 32 185 141 87 175 125 63 
170 117 51 170 117 52 153 103 82 154 106 95 150 100 88 192 172 106 186 164 91 
176 150 65 170 142 51 163 136 49 156 130 47 114 96 34 108 90 32 107 89 32 
112 94 34 127 106 38 162 135 48 170 142 51 0 0 0 0 0 0 0 0 0 0 0 0 0 0 0 222 164 40 
0 0 0 0 0 0 0 0 0 0 0 0 0 0 0 0 0 0 0 0 0 0 0 0 0 0 0 0 0 0 0 0 0 0 0 0 0 0 0 
0 0 0 0 0 0 0 0 0 0 0 0 0 0 0 0 0 0 0 0 0 0 0 0 0 0 0 0 0 0 0 0 0 0 0 0 0 0 0 
0 0 0 0 0 0 0 0 0 0 0 0 0 0 0 0 0 0 0 0 0 0 0 0 223 71 19 203 95 40 204 125 76 
192 153 104 180 134 76 174 123 61 175 137 127 183 149 142 167 125 115 
159 113 102 150 100 88 162 125 66 170 142 51 170 142 51 170 142 51 166 138 50 
170 142 51 162 135 49 125 104 37 131 110 39 170 142 51 170 142 51 0 0 0 0 0 0 
0 0 0 0 0 0 0 0 0 0 0 0 0 0 0 0 0 0 0 0 0 0 0 0 0 0 0 0 0 0 0 0 0 0 0 0 0 0 0 
0 0 0 0 0 0 0 0 0 0 0 0 0 0 0 0 0 0 0 0 0 0 0 0 0 0 0 0 0 0 0 0 0 0 0 0 0 0 0 
0 0 0 0 0 0 0 0 0 0 0 0 0 0 0 0 0 0 0 0 0 0 0 0 0 0 0 0 0 0 0 0 0 0 0 0 0 0 0 
177 129 68 210 113 64 211 117 69 201 104 49 181 135 78 198 171 164 190 160 152 
180 145 136 155 107 96 150 100 88 150 100 88 150 100 88 161 124 67 170 142 51 
170 142 51 170 142 51 170 142 51 170 142 51 170 142 51 170 142 51 170 142 51 
170 142 51 170 142 51 0 0 0 0 0 0 0 0 0 0 0 0 0 0 0 0 0 0 0 0 0 0 0 0 0 0 0 
0 0 0 0 0 0 0 0 0 0 0 0 0 0 0 0 0 0 0 0 0 0 0 0 0 0 0 0 0 0 0 0 0 0 0 0 0 0 0 
0 0 0 0 0 0 0 0 0 0 0 0 0 0 0 0 0 0 0 0 0 0 0 0 0 0 0 0 0 0 0 0 0 0 0 0 0 0 0 
0 0 0 0 0 0 0 0 0 0 0 0 253 253 253 183 139 83 188 147 95 205 111 60 
200 104 49 192 142 128 193 163 156 176 140 131 153 105 94 150 100 88 
150 100 88 150 100 88 150 100 88 130 87 76 110 74 65 93 66 28 107 89 32 
127 106 38 132 111 39 174 91 28 123 103 37 131 109 39 149 124 45 150 125 45 
163 137 49 0 0 0 0 0 0 0 0 0 0 0 0 0 0 0 0 0 0 0 0 0 0 0 0 0 0 0 0 0 0 0 0 0 
0 0 0 0 0 0 0 0 0 0 0 0 0 0 0 0 0 0 0 0 0 0 0 0 0 0 0 0 0 0 0 0 0 0 0 0 0 0 0 
0 0 0 0 0 0 0 0 0 0 0 0 0 0 0 0 0 0 0 0 0 0 0 0 0 0 0 0 0 0 0 0 0 0 0 0 0 0 0 
0 0 0 253 253 253 196 160 115 187 145 93 182 137 80 181 144 127 184 150 142 
173 134 124 152 103 91 150 100 88 150 100 88 150 100 88 117 78 69 104 69 61 
94 63 55 118 60 47 153 56 36 174 78 28 170 90 35 170 117 51 134 92 40 
150 82 33 152 104 46 170 117 51 0 0 0 0 0 0 0 0 0 0 0 0 0 0 0 0 0 0 0 0 0 
0 0 0 0 0 0 0 0 0 0 0 0 0 0 0 0 0 0 0 0 0 0 0 0 0 0 0 0 0 0 0 0 0 0 0 0 0 0 0 
0 0 0 0 0 0 0 0 0 0 0 0 0 0 0 0 0 0 0 0 0 0 0 0 0 0 0 0 0 0 0 0 0 0 0 0 0 0 0 
0 0 0 0 0 0 0 0 0 0 0 0 0 0 0 0 0 0 0 0 0 0 0 0 0 0 0 170 117 51 152 103 88 
168 127 117 176 139 130 168 127 117 150 100 88 150 100 88 150 100 88 
142 95 83 112 75 66 102 68 60 100 66 58 99 66 58 112 65 51 189 87 32 191 91 34 
149 103 45 156 107 47 143 99 43 158 66 23 160 87 35 146 100 44 114 78 34 
0 0 0 0 0 0 0 0 0 0 0 0 0 0 0 0 0 0 0 0 0 0 0 0 0 0 0 0 0 0 0 0 0 0 0 0 0 0 0 
0 0 0 0 0 0 0 0 0 0 0 0 0 0 0 0 0 0 0 0 0 0 0 0 0 0 0 0 0 0 0 0 0 0 0 0 0 0 0 
0 0 0 0 0 0 0 0 0 0 0 0 0 0 0 0 0 0 0 0 0 0 0 0 0 0 0 0 0 0 0 0 0 0 0 0 0 0 0 
0 0 0 150 100 88 171 131 122 175 138 129 169 129 119 154 107 95 150 100 88 
150 100 88 137 91 80 112 75 66 109 73 64 103 69 61 98 66 58 112 75 60 
147 101 44 170 130 47 197 97 33 174 114 49 144 99 43 155 107 46 131 90 39 
166 75 27 186 85 31 146 75 29 114 79 34 0 0 0 0 0 0 0 0 0 0 0 0 0 0 0 0 0 0 
0 0 0 0 0 0 0 0 0 0 0 0 0 0 0 0 0 0 0 0 0 0 0 0 0 0 0 0 0 0 0 0 0 0 0 0 0 0 0 
0 0 0 0 0 0 0 0 0 0 0 0 0 0 0 0 0 0 0 0 0 0 0 0 0 0 0 0 0 0 0 0 0 0 0 0 0 0 0 
0 0 0 0 0 0 0 0 0 0 0 0 0 0 0 0 0 0 0 0 0 171 131 121 165 123 113 173 133 124 
157 110 99 150 100 88 150 100 88 150 100 88 150 100 88 113 75 66 106 71 62 
104 69 61 112 75 66 159 109 59 157 108 47 170 117 51 170 152 40 184 58 31 
170 88 44 135 93 40 169 116 51 179 104 43 176 79 28 163 70 25 135 63 23 
139 95 42 170 117 51 0 0 0 0 0 0 0 0 0 0 0 0 0 0 0 0 0 0 0 0 0 0 0 0 0 0 0 
0 0 0 0 0 0 0 0 0 0 0 0 0 0 0 0 0 0 0 0 0 0 0 0 0 0 0 0 0 0 0 0 0 0 0 0 0 0 0 
0 0 0 0 0 0 0 0 0 0 0 0 0 0 0 0 0 0 0 0 0 0 0 0 0 0 0 0 0 0 0 0 0 0 0 0 0 0 0 
0 0 0 253 253 253 181 99 81 159 95 81 150 100 88 150 100 88 150 100 88 
150 100 88 150 100 88 138 92 81 115 77 67 103 69 60 96 64 56 158 67 45 
197 93 35 130 89 39 133 92 40 170 117 51 170 154 39 170 60 37 170 97 46 
132 91 39 170 117 51 170 117 51 189 102 33 177 74 26 131 80 33 142 97 42 
127 88 38 0 0 0 0 0 0 0 0 0 0 0 0 0 0 0 0 0 0 0 0 0 0 0 0 0 0 0 0 0 0 0 0 0 
0 0 0 0 0 0 0 0 0 0 0 0 0 0 0 0 0 0 0 0 0 0 0 0 0 0 0 0 0 0 0 0 0 0 0 0 182 158 81 
253 253 253 0 0 0 0 0 0 0 0 0 0 0 0 0 0 0 0 0 0 0 0 0 0 0 0 0 0 0 0 0 0 253 253 253 
203 113 94 192 96 74 170 89 71 150 100 88 150 100 88 150 100 88 150 100 88 
135 90 79 100 67 59 98 65 58 89 60 52 145 96 85 197 94 35 197 93 35 124 73 30 
142 98 43 170 117 51 170 138 45 170 129 47 170 117 51 117 81 35 170 117 51 
170 117 51 170 61 37 170 59 37 128 88 38 120 82 36 132 91 40 0 0 0 0 0 0 0 0 0 
0 0 0 0 0 0 0 0 0 0 0 0 0 0 0 0 0 0 0 0 0 0 0 0 0 0 0 0 0 0 0 0 0 253 253 253 
253 253 253 253 253 253 193 173 108 196 176 113 198 179 119 199 180 121 
196 177 115 186 164 90 179 154 73 232 225 202 0 0 0 0 0 0 0 0 0 0 0 0 0 0 0 
0 0 0 0 0 0 0 0 0 0 0 0 254 120 93 208 107 85 188 87 64 183 82 60 174 87 68 
150 100 88 172 88 69 167 91 74 162 71 51 135 63 47 101 67 59 101 67 59 
124 69 58 187 57 30 198 53 25 185 59 31 166 60 37 166 124 47 170 117 51 
170 118 51 170 123 49 151 67 37 170 59 37 170 135 38 147 101 44 154 130 38 
147 127 37 114 78 34 128 88 38 132 91 40 0 0 0 0 0 0 0 0 0 0 0 0 0 0 0 0 0 0 
0 0 0 0 0 0 0 0 0 0 0 0 0 0 0 150 100 88 150 100 88 152 103 92 186 162 94 
183 159 82 183 160 83 182 158 80 187 165 93 185 162 88 177 156 84 161 140 69 
152 128 48 166 138 50 150 125 45 0 0 0 0 0 0 0 0 0 0 0 0 0 0 0 0 0 0 0 0 0 
0 0 0 253 253 253 170 130 121 170 108 94 163 119 108 171 89 70 178 85 65 
182 83 61 179 84 64 179 79 58 155 63 44 153 62 42 144 56 37 147 58 39 
179 82 40 197 67 26 194 55 27 170 59 37 170 92 37 170 73 37 170 72 40 
170 117 51 138 98 41 129 85 32 169 134 38 153 123 41 147 101 44 156 108 47 
132 91 39 131 90 39 123 84 37 106 73 32 0 0 0 0 0 0 0 0 0 0 0 0 0 0 0 0 0 0 
0 0 0 150 100 88 150 100 88 150 100 88 150 100 88 156 109 97 175 137 128 
194 173 114 190 169 100 191 170 101 179 154 72 170 142 51 128 107 38 
113 94 34 109 91 33 98 82 29 112 93 34 98 81 29 120 100 36 0 0 0 0 0 0 0 0 0 
0 0 0 0 0 0 0 0 0 0 0 0 253 253 253 253 253 253 177 141 132 170 130 121 
150 100 88 150 100 88 150 100 88 150 100 88 150 100 88 135 84 72 153 83 67 
136 53 35 142 55 36 125 61 48 172 110 45 174 113 48 155 90 37 156 71 26 
170 96 40 170 59 37 170 59 37 170 59 37 140 100 35 164 123 46 167 117 49 
158 95 39 118 73 31 121 83 36 119 82 36 120 82 36 120 83 36 0 0 0 0 0 0 130 86 76 
126 84 74 117 78 69 112 75 66 136 90 80 150 100 88 154 107 95 170 130 120 
164 120 110 161 116 106 159 113 102 151 102 90 156 130 47 131 110 39 
169 141 51 170 142 51 170 142 51 162 135 48 137 114 41 145 121 44 0 0 0 0 0 0 
0 0 0 0 0 0 0 0 0 0 0 0 0 0 0 0 0 0 0 0 0 0 0 0 0 0 0 253 253 253 253 253 253 
169 128 118 171 132 122 164 121 110 150 100 88 150 100 88 150 100 88 
150 100 88 150 100 88 129 86 75 110 73 64 93 62 54 97 65 57 148 87 68 
189 93 44 173 78 36 154 73 29 170 98 46 170 61 37 170 59 37 170 59 37 
167 89 36 170 107 37 168 107 37 182 90 31 199 78 23 156 108 36 87 60 31 
68 45 39 92 60 54 112 75 66 119 79 70 108 72 63 105 71 62 151 104 93 
160 114 103 150 100 88 150 100 88 150 100 88 150 100 88 137 92 80 118 79 69 
105 71 62 106 71 62 129 108 39 130 109 39 131 109 39 163 136 49 170 142 51 
165 138 49 170 142 51 170 142 51 170 142 51 170 142 51 0 0 0 0 0 0 0 0 0 0 0 0 
0 0 0 0 0 0 0 0 0 0 0 0 0 0 0 253 253 253 254 110 81 189 106 88 189 100 80 
192 96 75 181 83 62 164 92 76 150 100 88 150 100 88 148 99 87 117 78 69 
115 77 67 125 69 56 153 65 46 151 62 42 147 68 51 115 72 62 121 81 57 
143 98 43 124 89 36 154 99 36 161 130 36 167 119 37 158 114 36 141 89 34 
158 85 25 152 69 19 49 33 14 43 29 22 60 40 35 86 56 51 102 68 60 99 66 58 
141 99 89 162 118 107 160 115 105 150 100 88 148 99 87 121 81 71 99 66 58 
89 59 52 96 64 57 119 79 70 125 84 73 133 89 78 131 99 55 142 118 42 
144 120 43 151 126 45 142 119 43 145 121 43 147 123 44 170 142 51 170 142 51 
170 142 51 0 0 0 0 0 0 0 0 0 0 0 0 0 0 0 0 0 0 0 0 0 0 0 0 0 0 0 253 253 253 
254 116 88 188 102 84 184 101 82 158 98 84 181 83 62 183 82 60 181 83 62 
171 88 70 179 84 63 179 79 58 165 71 51 151 61 42 121 54 39 80 51 44 97 65 57 
103 69 60 123 83 64 125 86 38 126 88 38 113 81 34 133 92 40 91 62 27 91 63 27 
128 56 20 110 35 10 54 31 17 60 40 34 89 59 52 84 57 49 117 82 73 154 119 110 
162 121 111 158 112 100 150 100 88 147 98 86 106 70 62 95 63 56 112 75 66 
123 83 73 106 71 62 109 73 64 97 64 57 102 68 60 104 69 61 150 100 88 
0 0 0 0 0 0 0 0 0 0 0 0 0 0 0 170 142 51 170 142 51 0 0 0 0 0 0 0 0 0 0 0 0 
0 0 0 0 0 0 0 0 0 0 0 0 0 0 0 0 0 0 0 0 0 253 253 253 253 253 253 172 133 124 
169 128 118 150 100 88 150 100 88 170 89 71 168 90 73 183 82 60 178 85 65 
159 95 80 130 73 60 108 72 63 98 66 57 100 66 58 100 66 59 97 65 57 118 88 43 
81 56 24 94 65 29 79 54 24 101 54 22 117 51 18 132 48 26 115 43 28 81 49 42 
101 68 60 105 70 62 94 62 54 88 59 51 118 83 76 155 107 96 148 98 86 112 75 66 
79 53 47 64 43 38 80 53 46 102 68 60 118 79 69 126 84 74 149 99 87 149 100 88 
0 0 0 0 0 0 150 100 88 150 100 88 0 0 0 0 0 0 0 0 0 0 0 0 0 0 0 0 0 0 0 0 0 
0 0 0 0 0 0 0 0 0 0 0 0 0 0 0 0 0 0 0 0 0 0 0 0 0 0 0 0 0 0 0 0 0 253 253 253 
253 253 253 157 111 100 166 124 114 166 124 114 150 100 88 150 100 88 
150 100 88 150 100 88 150 100 88 150 100 88 121 81 71 111 74 65 101 67 59 
88 59 51 99 66 58 95 76 34 79 66 23 91 75 27 163 92 29 160 81 24 151 74 22 
136 69 21 87 36 25 68 45 39 79 53 46 102 68 60 93 62 55 89 60 52 97 64 57 
104 70 61 105 70 62 92 61 54 71 48 42 93 61 54 110 73 65 127 85 74 150 100 88 
150 100 88 0 0 0 0 0 0 0 0 0 0 0 0 0 0 0 0 0 0 0 0 0 0 0 0 0 0 0 0 0 0 0 0 0 
0 0 0 0 0 0 0 0 0 0 0 0 0 0 0 0 0 0 0 0 0 0 0 0 0 0 0 0 0 0 0 0 0 0 0 0 0 0 0 
0 0 0 253 253 253 253 253 253 253 253 253 169 128 118 171 131 121 153 105 93 
150 100 88 150 100 88 150 100 88 150 100 88 121 81 71 118 79 69 125 83 73 
110 73 64 97 65 57 78 56 38 98 82 29 122 89 32 191 108 34 195 113 36 
184 126 43 170 142 51 121 100 36 124 84 69 122 81 71 98 66 58 82 54 48 
83 55 49 97 64 57 91 61 53 109 72 64 109 73 64 112 75 66 116 77 68 121 81 71 
150 100 88 0 0 0 0 0 0 0 0 0 0 0 0 0 0 0 0 0 0 0 0 0 0 0 0 0 0 0 0 0 0 0 0 0 
0 0 0 0 0 0 0 0 0 0 0 0 0 0 0 0 0 0 0 0 0 0 0 0 0 0 0 0 0 0 0 0 0 0 0 0 0 0 0 
0 0 0 0 0 0 0 0 0 0 0 0 0 0 0 0 0 0 253 253 253 174 135 126 172 133 124 
168 126 117 154 106 94 150 100 88 150 100 88 150 100 88 145 97 85 124 83 73 
119 79 70 119 80 70 107 72 63 96 65 55 102 85 31 167 99 32 188 121 40 
170 142 51 170 142 51 170 142 51 154 129 46 130 103 49 113 75 66 114 76 67 
106 70 62 90 60 53 104 70 61 108 72 63 111 74 65 111 74 65 141 94 83 150 100 88 
0 0 0 0 0 0 0 0 0 150 100 88 0 0 0 0 0 0 0 0 0 0 0 0 0 0 0 0 0 0 0 0 0 0 0 0 
0 0 0 0 0 0 0 0 0 0 0 0 0 0 0 0 0 0 0 0 0 0 0 0 0 0 0 0 0 0 0 0 0 0 0 0 0 0 0 
0 0 0 0 0 0 0 0 0 0 0 0 0 0 0 0 0 0 0 0 0 0 0 0 176 139 130 164 120 110 
172 133 124 165 122 112 150 100 88 172 88 69 183 82 61 183 82 60 161 72 52 
147 70 53 145 69 52 121 72 60 98 67 56 114 95 35 130 108 39 151 126 45 
170 142 51 170 142 51 170 142 51 170 142 51 156 130 46 111 77 60 130 87 76 
111 74 65 107 71 63 106 70 62 116 77 68 122 82 72 150 100 88 150 100 88 
0 0 0 0 0 0 0 0 0 0 0 0 0 0 0 0 0 0 0 0 0 0 0 0 0 0 0 0 0 0 0 0 0 0 0 0 0 0 0 
0 0 0 0 0 0 0 0 0 0 0 0 0 0 0 0 0 0 0 0 0 0 0 0 0 0 0 0 0 0 0 0 0 0 0 0 0 0 0 
0 0 0 0 0 0 0 0 0 0 0 0 0 0 0 0 0 0 0 0 0 0 0 0 153 105 93 196 103 84 
193 98 78 197 106 87 189 93 73 179 84 63 161 94 78 154 98 85 162 78 61 
156 69 51 157 71 52 127 74 62 83 57 46 116 97 35 131 110 39 127 106 38 
165 138 49 170 142 51 170 142 51 150 125 45 144 120 43 124 90 60 111 74 65 
115 77 68 120 80 70 122 81 72 117 78 69 148 99 87 150 100 88 150 100 88 
0 0 0 0 0 0 0 0 0 0 0 0 0 0 0 0 0 0 0 0 0 0 0 0 0 0 0 0 0 0 0 0 0 0 0 0 0 0 0 
0 0 0 0 0 0 0 0 0 0 0 0 0 0 0 0 0 0 0 0 0 0 0 0 0 0 0 0 0 0 0 0 0 0 0 0 0 0 0 
0 0 0 0 0 0 0 0 0 0 0 0 0 0 0 0 0 0 0 0 0 0 0 0 0 0 0 159 113 102 161 116 106 
160 114 104 167 125 115 150 100 88 150 100 88 150 100 88 150 100 88 131 87 77 
127 84 74 121 81 71 120 84 65 118 98 35 115 96 34 132 110 40 170 142 51 
170 142 51 165 137 49 126 105 38 102 85 30 115 77 67 130 87 76 128 85 75 
130 86 76 125 83 73 118 79 69 137 91 80 150 100 88 0 0 0 0 0 0 0 0 0 0 0 0 
0 0 0 0 0 0 0 0 0 0 0 0 0 0 0 0 0 0 0 0 0 0 0 0 0 0 0 0 0 0 0 0 0 0 0 0 0 0 0 
0 0 0 0 0 0 0 0 0 0 0 0 0 0 0 0 0 0 0 0 0 0 0 0 0 0 0 0 0 0 0 0 0 0 0 0 0 0 0 
0 0 0 0 0 0 0 0 0 0 0 0 0 0 0 0 0 0 253 253 253 164 121 110 168 126 116 
155 107 95 150 100 88 150 100 88 150 100 88 150 100 88 135 90 79 126 84 74 
107 72 63 76 53 41 90 75 27 99 83 29 153 127 46 170 142 51 143 120 43 
111 93 33 106 88 32 117 99 36 113 75 66 121 81 71 119 79 70 122 82 72 
122 81 72 126 84 74 150 100 88 0 0 0 0 0 0 0 0 0 0 0 0 0 0 0 0 0 0 0 0 0 0 0 0 
0 0 0 0 0 0 0 0 0 0 0 0 0 0 0 0 0 0 0 0 0 0 0 0 0 0 0 0 0 0 0 0 0 0 0 0 0 0 0 
0 0 0 0 0 0 0 0 0 0 0 0 0 0 0 0 0 0 0 0 0 0 0 0 0 0 0 0 0 0 0 0 0 0 0 0 0 0 0 
0 0 0 0 0 0 0 0 0 0 0 0 187 156 148 169 128 118 169 129 119 156 108 97 
150 100 88 150 100 88 150 100 88 139 93 81 101 68 60 76 51 45 44 31 25 
76 63 22 107 89 32 170 142 51 170 142 51 135 113 41 128 107 38 106 89 32 
108 91 32 117 79 69 122 81 71 119 79 70 122 82 72 140 93 82 146 97 86 
150 100 88 0 0 0 0 0 0 0 0 0 0 0 0 0 0 0 0 0 0 0 0 0 0 0 0 0 0 0 0 0 0 0 0 0 
0 0 0 0 0 0 0 0 0 0 0 0 0 0 0 0 0 0 0 0 0 0 0 0 0 0 0 0 0 0 0 0 0 0 0 0 0 0 0 
0 0 0 0 0 0 0 0 0 0 0 0 0 0 0 0 0 0 0 0 0 0 0 0 0 0 0 0 0 0 0 0 0 0 0 0 0 0 0 
0 0 0 253 253 253 172 133 124 172 133 124 161 116 105 150 100 88 150 100 88 
150 100 88 147 98 86 126 83 73 100 67 59 58 39 34 86 71 26 151 126 45 
170 142 51 170 142 51 165 138 50 152 127 46 121 102 36 103 85 32 116 83 61 
126 84 74 124 83 73 118 79 69 123 82 72 131 87 77 150 100 88 0 0 0 0 0 0 0 0 0 
0 0 0 0 0 0 0 0 0 0 0 0 0 0 0 0 0 0 0 0 0 0 0 0 0 0 0 0 0 0 0 0 0 0 0 0 0 0 0 
0 0 0 0 0 0 0 0 0 0 0 0 0 0 0 0 0 0 0 0 0 0 0 0 0 0 0 0 0 0 0 0 0 0 0 0 0 0 0 
0 0 0 0 0 0 0 0 0 0 0 0 0 0 0 0 0 0 0 0 0 0 0 0 0 0 0 253 253 253 169 129 119 
167 126 116 165 122 112 150 100 88 150 100 88 150 100 88 150 100 88 90 60 52 
62 41 35 43 28 24 85 70 26 152 127 46 170 142 51 170 142 51 170 142 51 
170 142 51 114 95 35 110 91 33 109 74 63 131 87 77 129 86 75 120 80 70 
119 80 70 132 88 78 150 100 88 0 0 0 0 0 0 0 0 0 0 0 0 0 0 0 0 0 0 0 0 0 0 0 0 
0 0 0 0 0 0 0 0 0 0 0 0 0 0 0 0 0 0 0 0 0 0 0 0 0 0 0 0 0 0 0 0 0 0 0 0 0 0 0 
0 0 0 0 0 0 0 0 0 0 0 0 0 0 0 0 0 0 0 0 0 0 0 0 0 0 0 0 0 0 0 0 0 0 0 0 0 0 0 
0 0 0 0 0 0 0 0 0 0 0 0 0 0 0 158 112 101 161 116 105 166 124 114 162 118 107 
150 100 88 150 100 88 130 87 76 78 51 46 69 46 41 77 51 45 141 117 42 
165 138 50 170 142 51 170 142 51 170 142 51 170 142 51 116 97 35 97 82 29 
119 87 59 119 79 70 129 86 76 131 87 77 119 79 70 118 79 69 136 91 80 
150 100 88 0 0 0 0 0 0 0 0 0 0 0 0 0 0 0 0 0 0 0 0 0 0 0 0 0 0 0 0 0 0 0 0 0 
0 0 0 0 0 0 0 0 0 0 0 0 0 0 0 0 0 0 0 0 0 0 0 0 0 0 0 0 0 0 0 0 0 0 0 0 0 0 0 
0 0 0 0 0 0 0 0 0 0 0 0 0 0 0 0 0 0 0 0 0 0 0 0 0 0 0 0 0 0 0 0 0 0 0 0 0 0 0 
0 0 0 163 119 108 170 130 120 157 111 100 150 100 88 150 100 88 150 100 88 
103 70 61 78 52 45 96 63 56 84 57 47 131 109 39 156 131 47 170 142 51 
170 142 51 170 142 51 170 142 51 118 99 36 123 103 37 129 98 55 120 80 70 
118 79 69 120 80 70 120 80 70 111 74 65 110 73 65 130 87 76 0 0 0 0 0 0 0 0 0 
0 0 0 0 0 0 0 0 0 0 0 0 0 0 0 0 0 0 0 0 0 0 0 0 0 0 0 0 0 0 0 0 0 0 0 0 0 0 0 
0 0 0 0 0 0 0 0 0 0 0 0 0 0 0 0 0 0 0 0 0 0 0 0 0 0 0 0 0 0 0 0 0 0 0 0 0 0 0 
0 0 0 0 0 0 0 0 0 0 0 0 0 0 0 0 0 0 0 0 0 0 0 0 0 0 0 171 132 122 164 121 110 
167 125 115 150 100 88 150 100 88 131 87 77 105 71 61 99 66 58 107 71 63 
76 50 45 145 122 44 170 142 51 170 142 51 170 142 51 170 142 51 170 142 51 
137 115 41 113 93 36 103 69 60 97 64 57 92 62 54 104 69 61 92 61 54 112 75 66 
119 80 70 149 99 87 150 100 88 0 0 0 0 0 0 0 0 0 0 0 0 0 0 0 0 0 0 0 0 0 0 0 0 
0 0 0 0 0 0 0 0 0 0 0 0 0 0 0 0 0 0 0 0 0 0 0 0 0 0 0 0 0 0 0 0 0 0 0 0 0 0 0 
0 0 0 0 0 0 0 0 0 0 0 0 0 0 0 0 0 0 0 0 0 0 0 0 0 0 0 0 0 0 0 0 0 0 0 0 0 0 0 
0 0 0 0 0 0 0 0 0 150 100 88 162 118 107 159 113 102 150 100 88 150 100 88 
150 100 88 137 91 80 101 67 59 101 67 59 76 51 45 157 115 75 170 142 51 
170 142 51 170 142 51 170 142 51 170 142 51 170 141 52 110 73 63 93 63 54 
102 68 59 109 73 64 99 66 58 103 69 61 103 69 61 108 72 63 112 75 66 135 90 79 
0 0 0 0 0 0 0 0 0 0 0 0 0 0 0 0 0 0 0 0 0 0 0 0 0 0 0 0 0 0 0 0 0 0 0 0 0 0 0 
0 0 0 0 0 0 0 0 0 0 0 0 0 0 0 0 0 0 0 0 0 0 0 0 0 0 0 0 0 0 0 0 0 0 0 0 0 0 0 
0 0 0 0 0 0 0 0 0 0 0 0 0 0 0 0 0 0 0 0 0 0 0 0 0 0 0 0 0 0 150 100 88 
155 107 95 174 135 126 173 134 125 153 105 93 133 89 78 106 70 62 102 68 60 
103 69 61 101 67 59 105 70 61 114 77 67 150 118 58 170 142 51 161 135 48 
129 108 39 119 100 36 104 70 60 105 70 62 110 73 64 127 85 74 133 89 78 
110 74 65 110 73 64 120 80 70 116 77 67 112 74 65 120 80 70 123 82 72 
0 0 0 0 0 0 0 0 0 0 0 0 0 0 0 0 0 0 0 0 0 0 0 0 0 0 0 0 0 0 0 0 0 0 0 0 0 0 0 
0 0 0 0 0 0 0 0 0 0 0 0 0 0 0 0 0 0 0 0 0 0 0 0 0 0 0 0 0 0 0 0 0 0 0 0 0 0 0 
0 0 0 0 0 0 0 0 0 0 0 0 0 0 0 0 0 0 0 0 0 0 0 0 0 0 0 150 100 88 163 119 108 
176 138 129 165 123 112 150 100 88 137 91 80 124 83 73 123 82 72 118 79 69 
116 78 68 108 72 63 129 86 76 129 86 76 135 90 79 111 89 145 79 64 110 
73 59 101 71 58 98 72 58 99 72 59 100 74 60 102 75 61 104 74 60 100 88 70 112 
121 89 118 138 93 83 132 88 77 130 87 76 102 68 59 123 82 72 144 96 84 
0 0 0 0 0 0 0 0 0 0 0 0 0 0 0 0 0 0 0 0 0 0 0 0 0 0 0 0 0 0 0 0 0 0 0 0 0 0 0 
0 0 0 0 0 0 0 0 0 0 0 0 0 0 0 0 0 0 0 0 0 0 0 0 0 0 0 0 0 0 0 0 0 0 0 0 0 0 0 
0 0 0 0 0 0 0 0 0 0 0 0 0 0 0 0 0 0 0 0 0 155 107 96 168 127 117 166 124 114 
164 120 110 150 100 88 150 100 88 133 89 78 116 78 68 109 73 64 108 72 64 
96 63 56 131 88 77 123 82 72 123 82 72 112 83 105 93 75 124 108 88 150 
94 77 131 89 72 123 79 64 109 77 63 107 75 61 104 74 60 103 72 58 99 73 59 101 
81 65 110 83 65 101 150 100 88 121 81 71 111 74 65 117 78 69 139 93 82 
150 100 88 150 100 88 0 0 0 0 0 0 0 0 0 0 0 0 0 0 0 0 0 0 0 0 0 0 0 0 0 0 0 
0 0 0 0 0 0 0 0 0 0 0 0 0 0 0 0 0 0 0 0 0 0 0 0 0 0 0 0 0 0 0 0 0 0 0 0 0 0 0 
0 0 0 0 0 0 0 0 0 0 0 0 0 0 0 0 0 0 0 0 0 0 0 0 154 106 94 137 120 168 
142 124 168 120 94 137 132 95 115 150 100 88 150 100 88 150 100 88 144 96 85 
150 100 88 150 100 88 139 97 104 122 92 129 129 94 119 150 100 88 144 96 84 
144 96 84 109 88 148 108 88 150 108 88 150 108 88 150 108 88 150 76 62 105 
73 59 101 69 56 96 70 57 97 74 60 102 82 66 113 125 89 97 147 98 86 147 98 86 
150 100 88 150 100 88 150 100 88 0 0 0 0 0 0 0 0 0 0 0 0 0 0 0 0 0 0 0 0 0 
0 0 0 0 0 0 0 0 0 0 0 0 0 0 0 0 0 0 0 0 0 0 0 0 0 0 0 0 0 0 0 0 0 0 0 0 0 0 0 
0 0 0 0 0 0 0 0 0 0 0 0 0 0 0 0 0 0 0 0 0 0 0 0 0 0 0 108 88 150 201 194 216 
142 127 174 137 121 171 114 95 154 108 88 150 109 88 149 110 88 148 109 88 148 
110 89 147 109 88 148 109 88 148 110 88 148 108 88 150 108 88 150 108 88 150 
110 89 147 116 90 139 108 88 150 108 88 150 108 88 150 108 88 150 108 88 150 
104 85 145 102 83 142 84 69 117 78 63 108 76 62 105 75 61 105 79 64 110 
71 57 98 0 0 0 0 0 0 0 0 0 0 0 0 0 0 0 0 0 0 0 0 0 0 0 0 0 0 0 0 0 0 0 0 0 
0 0 0 0 0 0 0 0 0 0 0 0 0 0 0 0 0 0 0 0 0 0 0 0 0 0 0 0 0 0 0 0 0 0 0 0 0 0 0 
0 0 0 0 0 0 0 0 0 0 0 0 0 0 0 0 0 0 0 0 0 253 253 253 253 253 253 140 124 173 
124 106 161 108 88 150 115 96 155 108 88 150 108 88 150 108 88 150 108 88 150 
108 88 150 108 88 150 108 88 150 108 88 150 108 88 150 108 88 150 109 88 149 
108 88 149 108 88 149 109 88 148 109 88 148 108 88 150 108 88 150 108 88 150 
108 88 150 108 88 150 108 88 150 108 88 150 108 88 150 95 77 132 80 65 111 
74 60 103 73 59 101 76 62 105 27 22 38 0 0 0 0 0 0 0 0 0 0 0 0 0 0 0 0 0 0 
0 0 0 0 0 0 0 0 0 0 0 0 0 0 0 0 0 0 0 0 0 0 0 0 0 0 0 0 0 0 0 0 0 0 0 0 0 0 0 
0 0 0 0 0 0 0 0 0 0 0 0 0 0 0 0 0 0 0 0 0 0 0 0 0 0 0 0 0 0 253 253 253 
253 253 253 146 132 177 136 120 170 140 124 173 136 119 170 108 88 150 
108 88 150 108 88 150 108 88 150 108 88 150 108 88 150 108 88 150 108 88 150 
99 80 137 93 76 129 108 88 150 118 100 157 130 113 166 141 125 172 138 120 168 
129 110 160 122 104 160 108 88 150 108 88 150 108 88 150 108 88 150 108 88 150 
108 88 150 108 88 150 108 88 150 92 75 128 77 62 106 72 59 101 76 62 106 
78 64 109 0 0 0 0 0 0 0 0 0 0 0 0 0 0 0 0 0 0 0 0 0 0 0 0 0 0 0 0 0 0 0 0 0 
0 0 0 0 0 0 0 0 0 0 0 0 0 0 0 0 0 0 0 0 0 0 0 0 0 0 0 0 0 0 0 0 0 0 0 0 0 0 0 
0 0 0 0 0 0 0 0 0 0 0 0 0 0 0 195 187 212 127 110 164 135 118 169 137 121 171 
119 100 158 108 88 150 108 88 150 108 88 150 108 88 150 107 87 149 96 78 134 
83 68 116 75 61 104 75 61 104 75 61 104 0 0 0 108 88 150 108 88 150 150 136 180 
139 124 172 150 135 180 147 132 178 143 128 175 142 127 174 141 125 173 
124 106 161 108 88 150 108 88 150 108 88 150 108 88 150 106 86 147 84 69 117 
77 63 107 76 62 105 71 58 99 91 74 126 0 0 0 0 0 0 0 0 0 0 0 0 0 0 0 0 0 0 
0 0 0 0 0 0 0 0 0 0 0 0 0 0 0 0 0 0 0 0 0 0 0 0 0 0 0 0 0 0 0 0 0 0 0 0 0 0 0 
0 0 0 0 0 0 0 0 0 0 0 0 0 0 0 0 0 0 0 0 0 253 253 253 253 253 253 152 138 181 
133 117 168 117 98 156 108 88 150 108 88 150 108 88 150 108 88 150 108 88 150 
108 88 150 82 67 114 85 69 117 81 66 113 83 68 115 92 75 128 0 0 0 0 0 0 0 0 0 
0 0 0 0 0 0 0 0 0 139 123 172 118 100 157 110 90 151 135 119 169 144 129 175 
141 125 173 108 88 150 108 88 150 108 88 150 108 88 150 108 88 150 108 88 150 
96 78 133 81 66 112 74 61 103 79 64 110 106 86 147 0 0 0 0 0 0 0 0 0 0 0 0 
0 0 0 0 0 0 0 0 0 0 0 0 0 0 0 0 0 0 0 0 0 0 0 0 0 0 0 0 0 0 0 0 0 0 0 0 0 0 0 
0 0 0 0 0 0 0 0 0 0 0 0 0 0 0 0 0 0 0 0 0 253 253 253 253 253 253 253 253 253 
148 134 178 129 112 165 108 88 150 108 88 150 108 88 150 108 88 150 108 88 150 
106 86 147 92 75 127 86 70 119 80 65 110 81 66 113 93 76 129 0 0 0 0 0 0 0 0 0 
0 0 0 0 0 0 0 0 0 0 0 0 0 0 0 0 0 0 0 0 0 253 253 253 187 178 206 141 126 173 
108 88 150 108 88 150 108 88 150 108 88 150 108 88 150 108 88 150 97 79 134 
81 66 113 79 64 109 82 67 114 93 76 129 35 29 49 0 0 0 0 0 0 0 0 0 0 0 0 0 0 0 
0 0 0 0 0 0 0 0 0 0 0 0 0 0 0 0 0 0 0 0 0 0 0 0 0 0 0 0 0 0 0 0 0 0 0 0 0 0 0 
0 0 0 0 0 0 0 0 0 0 0 0 0 0 0 253 253 253 211 206 223 148 134 179 141 125 173 
132 116 167 108 88 150 108 88 150 108 88 150 108 88 150 108 88 150 85 69 118 
82 67 114 81 66 112 80 65 111 90 74 126 108 88 150 0 0 0 0 0 0 0 0 0 0 0 0 
0 0 0 0 0 0 0 0 0 0 0 0 0 0 0 253 253 253 253 253 253 253 253 253 120 102 159 
108 88 150 108 88 150 108 88 150 108 88 150 108 88 150 83 67 115 79 64 109 
75 61 104 75 61 104 74 61 102 64 52 89 0 0 0 0 0 0 0 0 0 0 0 0 0 0 0 0 0 0 
0 0 0 0 0 0 0 0 0 0 0 0 0 0 0 0 0 0 0 0 0 0 0 0 0 0 0 0 0 0 0 0 0 0 0 0 0 0 0 
0 0 0 0 0 0 0 0 0 0 0 0 0 0 0 223 219 232 156 143 184 135 118 169 133 117 168 
108 88 150 108 88 150 108 88 150 108 88 150 108 88 150 96 78 134 88 71 122 
85 69 118 82 66 113 100 82 139 108 88 150 0 0 0 0 0 0 0 0 0 0 0 0 0 0 0 0 0 0 
0 0 0 0 0 0 0 0 0 0 0 0 0 0 0 253 253 253 253 253 253 144 129 176 130 113 166 
108 88 150 108 88 150 108 88 150 91 74 126 83 68 116 85 69 118 88 72 122 
95 77 132 63 51 87 65 53 90 0 0 0 0 0 0 0 0 0 0 0 0 0 0 0 0 0 0 0 0 0 0 0 0 
0 0 0 0 0 0 0 0 0 0 0 0 0 0 0 0 0 0 0 0 0 0 0 0 0 0 0 0 0 0 0 0 0 0 0 0 0 0 0 
0 0 0 253 253 253 253 253 253 136 120 170 135 119 169 138 122 171 111 92 152 
108 88 150 108 88 150 108 88 150 108 88 150 92 75 127 85 69 118 82 66 113 
82 67 114 106 87 148 108 88 150 0 0 0 0 0 0 0 0 0 0 0 0 0 0 0 0 0 0 0 0 0 
0 0 0 0 0 0 0 0 0 0 0 0 0 0 0 253 253 253 253 253 253 145 131 177 123 105 161 
109 89 150 108 88 150 98 80 137 85 69 117 81 66 112 78 64 108 80 65 110 
66 54 92 59 48 82 0 0 0 0 0 0 0 0 0 0 0 0 0 0 0 0 0 0 0 0 0 0 0 0 0 0 0 0 0 0 
0 0 0 0 0 0 0 0 0 0 0 0 0 0 0 0 0 0 0 0 0 0 0 0 0 0 0 0 0 0 0 0 0 0 0 0 253 253 253 
253 253 253 149 135 179 126 109 163 110 91 152 108 88 150 108 88 150 
108 88 150 108 88 150 104 84 144 82 67 114 80 65 111 76 62 105 87 71 121 
102 83 142 108 88 150 0 0 0 0 0 0 0 0 0 0 0 0 0 0 0 0 0 0 0 0 0 0 0 0 0 0 0 
0 0 0 0 0 0 0 0 0 0 0 0 0 0 0 253 253 253 132 115 167 131 114 166 110 90 151 
103 84 143 82 67 114 80 65 111 79 64 109 83 68 115 62 51 86 61 50 85 0 0 0 
0 0 0 0 0 0 0 0 0 0 0 0 0 0 0 0 0 0 0 0 0 0 0 0 0 0 0 0 0 0 0 0 0 0 0 0 0 0 0 
0 0 0 0 0 0 0 0 0 0 0 0 0 0 0 0 0 0 0 0 0 0 0 0 253 253 253 213 208 225 
142 127 174 138 123 172 120 101 158 108 88 150 108 88 150 108 88 150 
108 88 150 100 81 139 81 66 113 82 67 114 76 62 106 91 74 126 108 88 150 
108 88 150 0 0 0 0 0 0 0 0 0 0 0 0 0 0 0 0 0 0 0 0 0 0 0 0 0 0 0 0 0 0 0 0 0 
0 0 0 0 0 0 0 0 0 0 0 0 253 253 253 129 112 165 108 88 150 106 86 147 
94 76 130 91 74 126 85 70 119 94 77 131 81 66 113 64 52 89 0 0 0 0 0 0 0 0 0 
0 0 0 0 0 0 0 0 0 0 0 0 0 0 0 0 0 0 0 0 0 0 0 0 0 0 0 0 0 0 0 0 0 0 0 0 0 0 0 
0 0 0 0 0 0 0 0 0 0 0 0 0 0 0 0 0 0 253 253 253 191 182 209 142 127 174 
138 122 171 126 108 162 108 88 150 108 88 150 108 88 150 108 88 150 90 73 124 
80 65 111 83 68 116 83 67 115 107 87 148 108 88 150 108 88 150 0 0 0 0 0 0 
0 0 0 0 0 0 0 0 0 0 0 0 0 0 0 0 0 0 0 0 0 0 0 0 0 0 0 0 0 0 0 0 0 0 0 0 0 0 0 
253 253 253 182 172 202 137 121 170 114 94 154 87 71 121 77 63 107 74 60 103 
76 62 105 87 71 121 67 55 94 92 75 127 0 0 0 0 0 0 0 0 0 0 0 0 0 0 0 0 0 0 
0 0 0 0 0 0 0 0 0 0 0 0 0 0 0 0 0 0 0 0 0 0 0 0 0 0 0 0 0 0 0 0 0 0 0 0 0 0 0 
0 0 0 0 0 0 0 0 0 253 253 253 138 122 171 138 122 171 132 116 167 108 88 150 
108 88 150 108 88 150 108 88 150 85 69 118 81 66 113 79 65 110 76 62 106 
103 84 143 108 88 150 0 0 0 0 0 0 0 0 0 0 0 0 0 0 0 0 0 0 0 0 0 0 0 0 0 0 0 
0 0 0 0 0 0 0 0 0 0 0 0 0 0 0 0 0 0 0 0 0 253 253 253 253 253 253 135 118 169 
113 94 154 108 88 150 95 77 132 87 71 121 85 69 117 83 68 116 76 62 106 
69 56 95 108 88 150 0 0 0 0 0 0 0 0 0 0 0 0 0 0 0 0 0 0 0 0 0 0 0 0 0 0 0 
0 0 0 0 0 0 0 0 0 0 0 0 0 0 0 0 0 0 0 0 0 0 0 0 0 0 0 0 0 0 0 0 0 0 0 0 170 142 51 
180 155 75 144 126 159 142 126 174 108 88 150 108 88 150 108 88 150 108 88 150 
95 77 131 77 62 106 74 60 103 78 64 109 108 88 150 108 88 150 0 0 0 0 0 0 
0 0 0 0 0 0 0 0 0 0 0 0 0 0 0 0 0 0 0 0 0 0 0 0 0 0 0 0 0 0 0 0 0 0 0 0 0 0 0 
0 0 0 253 253 253 221 210 175 159 141 137 123 106 161 112 93 153 100 81 138 
80 65 111 80 65 110 80 65 111 81 66 112 69 56 96 79 65 109 0 0 0 0 0 0 0 0 0 
0 0 0 0 0 0 0 0 0 0 0 0 0 0 0 0 0 0 0 0 0 0 0 0 0 0 0 0 0 0 0 0 0 0 0 0 0 0 0 
0 0 0 0 0 0 0 0 0 0 0 0 0 0 0 253 253 253 192 171 104 190 169 101 161 143 132 
123 105 161 108 88 150 108 88 150 108 88 150 96 78 133 74 60 103 72 59 101 
70 58 98 90 73 125 108 88 150 0 0 0 0 0 0 0 0 0 0 0 0 0 0 0 0 0 0 0 0 0 0 0 0 
0 0 0 0 0 0 0 0 0 0 0 0 0 0 0 0 0 0 0 0 0 0 0 0 0 0 0 211 197 151 186 164 91 
167 147 126 108 88 150 108 88 150 94 76 130 87 71 119 76 62 106 63 51 87 
62 51 87 67 54 78 108 89 97 0 0 0 170 142 51 170 142 51 170 142 51 0 0 0 0 0 0 
0 0 0 0 0 0 0 0 0 0 0 0 0 0 0 0 0 0 0 0 0 0 0 0 0 0 0 0 0 0 0 0 0 0 0 0 0 0 0 
0 0 0 0 0 0 253 253 253 183 159 82 170 142 51 160 133 67 108 88 150 108 88 150 
108 88 150 91 74 126 72 59 100 75 61 104 75 61 104 84 69 69 110 92 33 
114 95 34 147 123 44 143 120 43 129 108 39 128 107 39 167 139 50 170 142 51 
0 0 0 0 0 0 0 0 0 0 0 0 0 0 0 0 0 0 0 0 0 0 0 0 0 0 0 0 0 0 193 173 107 
192 171 105 188 166 96 176 150 65 169 141 53 166 138 58 115 96 65 79 65 63 
73 60 82 73 59 102 67 55 93 75 62 58 99 82 29 104 87 32 114 95 34 113 95 34 
117 98 35 129 107 39 136 114 41 170 142 51 170 142 51 0 0 0 0 0 0 0 0 0 0 0 0 
0 0 0 0 0 0 0 0 0 0 0 0 0 0 0 0 0 0 0 0 0 0 0 0 0 0 0 0 0 0 172 144 56 
170 142 51 168 140 55 144 119 93 108 88 150 108 88 150 108 88 150 84 69 74 
104 86 34 109 91 33 113 94 34 121 101 36 118 99 35 112 94 34 121 101 36 
125 104 37 116 97 35 122 102 37 170 142 51 0 0 0 0 0 0 0 0 0 0 0 0 0 0 0 0 0 0 
0 0 0 0 0 0 0 0 0 253 253 253 201 184 127 182 159 81 170 142 51 170 142 51 
170 142 51 170 142 51 170 142 51 170 142 51 170 142 51 168 140 54 142 118 59 
138 115 41 126 105 38 122 102 37 117 98 35 117 98 35 102 86 30 100 83 30 
111 92 33 145 121 44 170 142 51 0 0 0 0 0 0 0 0 0 0 0 0 0 0 0 0 0 0 0 0 0 
0 0 0 0 0 0 0 0 0 0 0 0 0 0 0 0 0 0 0 0 0 170 142 51 170 142 51 170 142 51 
170 142 51 169 141 52 158 132 51 118 99 36 117 97 35 138 116 41 129 108 39 
127 106 38 124 104 37 131 109 39 126 106 38 128 107 38 116 97 35 114 95 34 
131 110 39 0 0 0 0 0 0 0 0 0 0 0 0 0 0 0 0 0 0 0 0 0 0 0 0 0 0 0 0 0 0 253 253 253 
253 253 253 180 155 76 170 142 51 170 142 51 170 142 51 170 142 51 170 142 51 
170 142 51 170 142 51 170 142 51 170 142 51 170 142 51 170 142 51 170 142 51 
156 131 47 155 130 47 155 130 47 155 130 47 160 134 48 170 142 51 0 0 0 0 0 0 
0 0 0 0 0 0 0 0 0 0 0 0 0 0 0 0 0 0 0 0 0 0 0 0 0 0 0 0 0 0 0 0 0 0 0 0 0 0 0 
0 0 0 170 142 51 170 142 51 170 142 51 170 142 51 170 142 51 170 142 51 
170 142 51 161 134 48 141 118 42 152 127 46 144 120 43 147 123 44 163 136 49 
170 142 51 168 141 51 170 142 51 0 0 0 0 0 0 0 0 0 0 0 0 0 0 0 0 0 0 0 0 0 
0 0 0 0 0 0 0 0 0 0 0 0 0 0 0 0 0 0 0 0 0 170 142 51 170 142 51 170 142 51 
170 142 51 170 142 51 170 142 51 170 142 51 170 142 51 170 142 51 170 142 51 
170 142 51 170 142 51 170 142 51 170 142 51 0 0 0 0 0 0 0 0 0 0 0 0 0 0 0 
0 0 0 0 0 0 0 0 0 0 0 0 0 0 0 0 0 0 0 0 0 0 0 0 0 0 0 0 0 0 0 0 0 0 0 0 0 0 0 
0 0 0 0 0 0 0 0 0 0 0 0 170 142 51 170 142 51 170 142 51 170 142 51 170 142 51 
170 142 51 170 142 51 170 142 51 170 142 51 0 0 0 0 0 0 0 0 0 0 0 0 0 0 0 
0 0 0 0 0 0 0 0 0 0 0 0 0 0 0 0 0 0 0 0 0 0 0 0 0 0 0 0 0 0 0 0 0 0 0 0 0 0 0 
0 0 0 0 0 0 0 0 0 0 0 0 0 0 0 0 0 0 0 0 0 0 0 0 0 0 0 0 0 0 0 0 0 0 0 0 0 0 0 
0 0 0 0 0 0 0 0 0 0 0 0 0 0 0 0 0 0 0 0 0 0 0 0 0 0 0 0 0 0 0 0 0 0 0 0 0 0 0 
0 0 0 0 0 0 0 0 0 0 0 0 0 0 0 0 0 0 0 0 0 0 0 0 0 0 0 0 0 0 0 0 0 0 0 0 0 0 0 
0 0 0 0 0 0 0 0 0 0 0 0 0 0 0 0 0 0 0 0 0 0 0 0 0 0 0 0 0 0 0 0 0 0 0 0 0 0 0 
0 0 0 0 0 0 0 0 0 0 0 0 0 0 0 0 0 0 0 0 0 0 0 0 0 0 0 0 0 0 0 0 0 0 0 0 0 0 0 
0 0 0 0 0 0 0 0 0 0 0 0 0 0 0 0 0 0 0 0 0 0 0 0 0 0 0 0 0 0 0 0 0 0 0 0 0 0 0 
0 0 0 0 0 0 0 0 0 0 0 0 0 0 0 0 0 0 0 0 0 0 0 0 0 0 0 0 0 0 0 0 0 0 0 0 0 0 0 
0 0 0 0 0 0 0 0 0 0 0 0 0 0 0 0 0 0 
