P3
64 64
255
113 107 44 121 114 45 138 129 47 148 138 48 149 140 49 140 132 48 121 114 45 
117 110 44 126 118 46 127 120 47 120 113 46 115 109 45 113 107 44 117 111 44 
128 122 46 144 117 46 166 96 44 186 75 41 206 52 39 215 42 37 215 43 38 
214 44 38 214 44 38 214 44 38 214 44 38 214 44 38 214 44 38 214 44 38 
214 44 38 214 44 38 214 44 38 214 44 38 214 44 38 214 44 38 214 44 38 
214 44 38 214 44 38 214 44 38 214 44 38 214 44 38 214 44 38 214 44 38 
214 44 38 215 43 38 215 42 37 206 53 39 187 76 42 162 93 43 129 103 44 
112 107 44 111 106 44 115 109 44 122 115 45 122 115 45 115 109 44 113 107 44 
114 108 44 114 108 44 114 108 44 114 108 44 114 109 44 115 109 44 114 108 44 
114 108 44 120 113 44 127 119 45 141 132 48 149 139 49 149 140 50 140 133 48 
124 117 45 120 113 45 128 120 46 128 120 47 120 114 45 115 109 44 113 108 44 
118 112 45 128 122 46 142 120 46 159 105 45 176 85 43 194 61 40 206 48 38 
212 45 38 215 43 38 214 44 38 214 44 38 214 44 38 214 44 38 214 44 38 
214 44 38 214 44 38 214 44 38 214 44 38 214 44 38 214 44 38 214 44 38 
214 44 38 214 44 38 214 44 38 214 44 38 214 44 38 214 44 38 214 44 38 
214 44 38 215 43 38 213 45 38 208 50 38 196 64 40 176 85 43 152 99 44 
125 105 44 113 108 44 116 110 45 120 114 45 126 119 45 125 118 45 118 112 44 
114 108 44 114 108 44 114 108 44 114 108 44 115 109 44 115 109 44 115 109 44 
114 108 44 114 108 44 134 125 46 138 130 47 148 139 50 151 142 51 149 140 50 
142 134 49 131 124 47 127 120 46 131 124 46 129 122 46 120 114 44 115 110 44 
115 109 44 119 113 45 129 122 46 137 125 46 143 123 47 154 108 45 169 82 42 
187 62 40 206 49 38 215 42 38 215 43 38 214 44 38 214 44 38 214 44 38 
214 44 38 214 44 38 214 44 38 214 44 38 214 44 38 214 44 38 214 44 38 
214 44 38 214 44 38 214 44 38 214 44 38 214 44 38 214 44 38 214 44 38 
214 44 38 215 43 38 216 42 37 208 50 38 193 68 41 174 86 43 150 105 45 
131 112 45 118 109 44 116 111 45 127 119 47 133 124 47 135 127 47 132 124 46 
124 116 45 118 111 44 114 108 45 113 108 45 115 109 45 116 110 45 117 111 45 
116 111 44 114 108 44 113 107 44 142 133 47 145 136 48 151 142 50 152 143 51 
147 138 50 139 132 49 130 123 47 126 119 45 127 121 45 126 119 45 122 116 44 
120 114 44 120 114 45 124 117 45 130 123 46 133 127 46 133 129 47 139 121 46 
151 101 44 169 82 42 194 63 40 209 51 38 213 45 38 215 43 38 214 44 38 
214 44 38 214 44 38 214 44 38 214 44 38 214 43 37 214 43 37 214 43 37 
214 43 37 214 43 37 214 43 37 214 44 38 214 44 38 214 44 38 214 44 38 
214 44 38 215 43 38 213 45 38 208 50 38 196 64 40 177 89 43 157 107 45 
136 118 46 123 119 46 116 111 44 119 113 45 132 124 47 138 129 48 138 130 47 
136 128 47 131 122 46 127 119 46 123 116 46 122 115 46 125 117 46 126 118 46 
127 120 46 124 118 45 119 112 45 116 110 44 145 135 47 147 137 48 151 142 50 
149 141 51 143 134 49 133 126 48 122 115 45 116 110 44 116 110 44 119 113 44 
126 119 45 130 122 46 130 122 46 131 122 46 132 124 46 131 124 46 130 124 46 
132 122 46 138 119 45 153 107 44 176 87 42 195 68 40 209 50 38 216 42 38 
215 43 38 214 44 38 214 44 38 214 44 37 214 43 37 214 42 36 214 42 36 
214 42 36 214 42 36 214 42 36 214 42 36 214 43 37 214 44 37 214 44 38 
214 44 38 215 43 38 216 42 38 208 50 38 191 66 40 175 88 42 159 114 46 
146 126 47 135 124 47 126 119 46 119 113 45 121 114 45 132 124 47 136 129 48 
135 127 47 136 127 47 139 130 47 140 131 47 140 130 47 140 131 47 142 133 47 
144 134 47 144 135 48 139 130 47 129 121 46 124 116 46 140 130 46 140 131 47 
142 134 48 141 133 49 137 129 48 130 122 47 118 112 45 114 108 44 116 110 44 
122 115 45 132 124 46 137 128 47 137 128 47 137 127 46 135 126 46 131 123 46 
124 117 44 122 117 44 126 122 44 136 117 44 154 103 43 174 85 41 195 62 39 
208 49 38 212 45 38 214 44 38 214 44 38 214 44 38 214 45 39 214 46 40 
214 46 40 214 46 40 214 46 40 214 46 40 214 46 40 214 45 39 214 44 38 
214 44 38 214 44 38 212 45 38 207 48 38 194 62 39 173 85 41 156 106 44 
144 124 46 135 129 47 129 122 46 123 116 45 118 111 45 122 115 46 135 128 48 
140 133 49 138 130 48 139 130 48 143 133 48 146 136 48 148 138 48 150 140 49 
151 141 48 151 140 48 147 137 48 140 131 47 130 121 46 125 117 46 127 119 45 
126 118 45 124 116 45 125 118 45 129 122 46 128 121 45 120 114 45 120 113 45 
128 120 46 134 126 47 139 131 47 142 133 48 142 133 48 141 132 47 141 131 47 
133 124 45 116 109 43 110 105 42 114 110 42 120 111 42 128 110 42 145 100 42 
171 82 40 191 65 39 206 50 38 214 43 38 214 44 38 214 47 41 215 51 46 
216 54 48 216 54 49 216 55 49 216 55 49 216 54 49 216 54 48 215 51 46 
214 47 41 214 44 38 214 43 38 205 49 38 187 62 39 169 81 41 151 107 42 
138 119 43 131 120 44 124 117 44 118 111 44 114 108 44 113 107 44 122 115 45 
141 134 49 150 142 50 147 140 50 145 137 49 143 133 48 144 134 48 148 138 49 
151 141 50 152 142 49 147 137 48 136 127 47 128 120 46 122 115 45 119 113 45 
121 114 45 119 112 44 114 107 44 115 109 44 122 116 44 125 118 45 123 116 45 
126 118 46 134 126 47 140 131 48 143 134 48 145 136 48 146 137 49 144 134 48 
138 128 46 127 118 44 109 102 41 104 98 40 111 106 41 114 110 41 113 110 41 
123 104 41 144 91 40 169 74 39 198 53 38 213 44 38 214 46 41 217 60 55 
222 86 82 224 100 96 225 103 99 225 105 101 225 105 101 225 103 99 224 100 96 
222 86 82 217 60 55 214 46 41 212 44 38 197 53 38 167 73 39 146 94 40 
135 116 42 126 122 43 121 115 42 116 109 42 111 105 42 110 104 43 113 107 43 
124 118 45 143 135 49 151 143 50 149 141 50 146 138 49 143 134 47 144 135 48 
150 141 50 154 144 51 155 145 50 149 139 49 135 127 47 126 118 46 120 113 45 
117 111 45 122 115 45 119 112 44 113 107 44 112 106 43 116 110 44 120 114 44 
125 119 45 131 123 46 136 128 47 140 131 48 144 134 48 147 137 49 150 140 49 
143 134 47 127 118 44 114 106 41 103 96 40 104 98 40 117 109 41 118 111 41 
108 104 39 106 96 38 114 90 38 141 76 37 186 55 37 210 47 39 214 51 46 
222 86 82 234 151 147 241 186 184 242 193 191 243 196 194 243 196 194 
242 193 191 241 186 184 234 151 147 222 86 82 214 51 46 209 46 39 186 56 37 
146 81 38 125 99 39 124 112 41 120 115 42 114 108 41 110 104 41 108 102 41 
112 105 42 120 113 43 130 122 45 141 133 47 145 137 48 143 135 48 142 134 48 
143 135 48 147 139 49 154 146 51 158 149 51 159 149 51 155 145 50 144 136 48 
134 127 47 125 117 46 120 113 46 130 122 46 127 120 46 123 116 45 121 114 45 
121 115 45 124 118 45 130 123 46 132 125 47 132 124 46 133 125 47 136 127 47 
139 129 47 141 132 47 134 125 45 117 109 41 105 98 39 99 93 39 103 97 39 
117 109 40 118 110 40 107 102 38 101 95 37 101 90 37 127 77 36 179 56 36 
209 48 40 215 54 48 225 100 96 241 186 184 250 233 232 252 242 241 253 246 246 
253 246 246 252 242 241 250 233 232 241 186 184 226 100 96 214 54 48 207 48 40 
181 58 36 136 85 37 115 102 38 118 109 40 115 110 41 108 102 40 105 99 39 
107 101 40 114 107 41 126 118 43 133 125 45 134 127 46 135 128 46 135 128 47 
136 129 47 139 131 47 143 135 48 148 140 50 152 143 50 155 145 50 154 144 50 
148 139 49 140 132 48 131 123 47 127 118 46 143 135 48 144 135 48 144 136 49 
142 134 49 139 131 48 137 129 47 135 128 48 130 124 47 123 115 45 119 112 44 
120 113 44 120 113 44 119 112 43 115 108 42 107 100 39 101 95 38 98 93 38 
102 96 38 111 104 39 114 107 39 110 104 38 106 99 37 103 90 36 127 75 35 
179 54 35 208 48 39 215 55 49 226 103 99 243 192 191 252 242 241 254 251 251 
255 255 255 255 255 255 254 251 251 252 242 241 243 192 191 226 103 99 
215 55 49 208 48 40 182 57 36 137 84 37 116 101 38 117 108 40 112 107 40 
101 96 38 99 94 38 106 100 39 117 110 41 131 123 43 134 126 44 125 118 44 
122 116 44 127 120 46 129 121 47 129 121 46 130 122 46 131 124 47 136 128 47 
143 133 47 146 137 47 145 137 49 143 135 49 139 130 48 137 128 48 153 144 50 
153 144 50 154 145 50 152 142 50 147 138 49 143 134 48 141 133 49 133 126 48 
119 113 45 113 106 43 113 107 43 111 105 42 108 101 41 104 98 39 100 94 38 
98 93 37 98 93 38 101 96 38 108 101 38 110 104 38 109 104 38 107 99 37 
103 89 35 127 74 34 178 54 34 208 47 39 215 55 49 227 104 100 243 195 194 
253 245 245 255 255 255 255 255 255 255 255 255 255 255 255 253 245 245 
243 195 194 227 104 100 215 55 49 207 47 40 182 57 36 137 83 36 116 101 37 
117 109 39 111 106 39 98 93 37 96 90 37 105 99 38 115 108 40 127 119 42 
127 120 43 117 111 42 114 108 43 120 113 45 125 117 46 129 120 46 129 121 46 
126 118 46 129 121 46 137 128 46 142 133 47 144 135 48 144 136 49 143 135 48 
143 134 48 158 149 52 157 148 51 153 143 50 149 139 49 145 135 48 144 135 48 
146 137 49 139 131 48 122 116 45 114 109 43 115 108 43 113 105 42 106 100 40 
101 96 39 97 92 37 96 91 37 98 92 37 102 96 37 108 101 37 109 102 37 
104 99 37 102 94 36 101 87 35 127 74 34 179 54 34 208 47 39 215 55 49 
226 104 100 243 194 193 252 244 244 255 254 254 255 255 255 255 255 255 
255 254 254 252 244 244 243 194 193 227 104 100 214 55 49 206 47 39 180 56 35 
136 82 36 115 101 37 119 111 39 113 108 39 98 92 36 94 88 36 103 97 37 
109 103 39 113 107 41 114 107 41 110 104 41 111 105 42 116 109 43 124 117 45 
137 128 46 140 130 47 132 123 46 132 123 46 138 130 47 142 134 47 143 135 48 
144 136 48 144 136 48 144 136 48 156 148 52 154 146 51 151 142 49 149 139 48 
146 136 48 144 135 48 144 135 49 136 128 47 120 114 45 112 107 43 113 105 42 
110 102 41 103 98 39 100 95 38 100 95 38 100 95 37 101 95 37 103 97 37 
107 101 37 107 101 37 102 97 36 99 92 35 98 84 34 125 72 33 178 53 34 
208 48 39 215 55 49 226 104 100 243 194 192 252 244 243 254 253 253 
255 255 255 255 255 255 254 253 253 252 244 243 243 194 192 226 104 100 
214 55 49 207 47 39 179 55 35 133 80 35 110 96 36 111 104 37 106 102 37 
95 89 35 92 86 35 98 93 37 102 96 38 103 98 39 104 99 39 105 99 40 107 101 41 
111 104 41 120 113 43 136 127 46 139 130 47 132 122 46 129 121 46 133 125 46 
136 128 47 138 130 47 140 133 48 143 136 48 144 137 48 145 139 50 147 140 50 
149 141 49 150 141 48 150 141 48 145 136 48 135 127 47 124 117 46 114 108 43 
107 101 41 105 98 40 102 96 39 99 94 38 101 96 38 109 103 39 111 104 39 
107 101 38 105 99 37 106 100 37 105 99 37 102 98 36 99 92 35 95 81 33 121 68 32 
177 52 34 208 48 39 215 55 49 226 104 100 243 194 192 252 244 243 254 253 253 
255 255 255 255 255 255 254 253 253 252 244 243 243 194 192 226 104 100 
215 55 49 208 48 39 179 55 34 128 76 34 100 87 33 94 88 33 90 87 34 88 85 34 
89 84 35 92 87 35 95 90 36 98 93 37 100 94 38 100 95 38 102 96 39 105 99 40 
112 106 41 123 116 44 127 119 45 124 116 45 122 115 45 122 115 45 124 117 46 
128 121 46 133 127 47 141 134 48 145 137 49 146 120 47 145 123 47 144 132 48 
144 137 48 146 138 48 142 133 47 131 123 46 121 115 45 113 107 42 108 102 41 
106 100 40 103 97 39 97 92 37 100 94 37 110 103 39 113 106 39 109 103 37 
107 101 37 108 102 37 106 100 37 100 96 35 97 89 34 95 80 32 122 68 32 
177 52 34 208 48 40 215 55 49 226 104 100 243 194 192 252 244 243 254 253 253 
255 255 255 255 255 255 254 253 253 252 244 243 243 194 192 226 104 100 
215 55 49 209 49 39 179 55 34 126 73 33 94 81 32 85 80 31 82 80 32 84 81 33 
86 83 34 88 84 34 92 87 35 97 92 36 99 94 37 98 93 37 100 94 38 104 98 39 
109 103 41 115 109 43 119 112 44 118 111 44 118 111 45 116 109 44 118 112 45 
124 119 46 134 123 46 146 123 47 152 123 47 158 89 42 151 97 44 135 116 46 
130 126 47 134 128 47 135 127 46 132 124 46 127 120 45 119 113 43 116 110 42 
118 111 42 112 106 40 98 93 37 95 90 36 103 97 38 106 100 38 106 100 37 
108 102 36 112 106 37 108 103 36 96 92 34 93 85 32 98 83 32 127 72 32 
178 53 34 207 47 39 215 55 49 226 104 100 243 194 192 252 244 243 254 253 253 
255 255 255 255 255 255 254 253 253 252 244 243 243 194 192 226 104 100 
215 55 49 209 49 39 179 54 34 125 71 33 93 79 32 85 78 32 81 78 32 83 79 32 
85 81 33 87 83 33 92 88 35 100 94 36 102 96 37 99 93 37 101 95 38 106 100 40 
110 104 41 112 106 42 114 107 43 115 108 43 115 108 43 114 107 44 118 113 45 
127 124 47 141 121 47 159 103 44 167 95 43 178 65 39 167 75 41 143 98 44 
130 112 45 129 119 46 131 125 46 136 128 47 135 127 46 128 121 44 123 117 43 
121 114 42 113 107 40 99 94 37 94 88 36 97 91 36 101 95 36 105 99 36 109 102 36 
112 106 37 107 101 35 91 88 32 89 82 31 99 84 31 129 74 32 178 53 34 207 47 39 
214 55 49 227 104 100 243 194 192 252 244 243 254 253 253 255 255 255 
255 255 255 254 253 253 252 244 243 243 194 192 226 104 100 215 55 49 
209 49 40 178 53 34 122 68 32 91 77 31 85 78 32 83 80 32 84 81 32 88 84 33 
93 89 34 98 94 35 104 99 37 105 99 37 99 93 37 100 94 37 105 99 40 109 103 41 
111 104 41 113 106 42 117 110 43 119 113 43 119 114 44 126 116 45 139 121 46 
155 109 45 176 83 42 185 71 40 204 50 38 192 59 39 166 78 41 146 96 43 
130 112 45 129 125 46 141 135 48 145 137 47 140 132 46 131 123 44 117 109 41 
106 100 39 99 94 37 95 90 36 92 87 35 96 90 35 105 99 36 109 103 36 108 101 35 
101 94 34 87 83 31 85 79 30 96 83 31 127 74 33 178 54 34 207 47 39 215 55 49 
226 104 100 243 194 192 252 244 243 254 253 253 255 255 255 255 255 255 
254 253 253 252 244 243 243 194 192 226 104 100 215 55 49 209 49 40 176 52 34 
117 64 31 87 74 30 87 80 32 88 84 32 90 86 32 96 91 34 105 100 36 110 105 37 
111 105 37 107 101 37 99 93 36 97 91 36 101 95 38 105 99 39 110 103 41 
117 109 42 125 117 43 130 124 45 133 129 46 143 123 46 160 108 44 178 88 42 
197 62 40 205 51 38 217 42 38 208 48 38 188 62 39 166 78 41 142 98 43 
135 117 45 143 133 47 146 139 47 142 135 46 132 124 43 115 108 40 103 97 38 
98 93 36 92 88 35 87 83 34 91 86 34 104 99 35 108 102 36 104 98 34 95 90 33 
81 78 30 80 74 29 90 78 30 122 71 32 176 53 34 207 48 40 215 55 49 227 104 100 
243 194 192 252 244 243 254 253 253 255 255 255 255 255 255 254 253 253 
252 244 243 243 194 192 226 104 100 215 55 49 209 48 40 175 51 33 113 62 30 
84 71 29 85 79 31 88 84 32 91 87 32 99 94 34 110 105 36 114 109 37 111 105 37 
106 101 37 100 95 36 98 93 36 100 95 37 105 99 38 112 104 40 119 111 42 
126 120 43 136 126 45 148 128 47 162 116 46 180 90 43 196 68 40 209 50 38 
215 41 37 215 43 38 213 45 38 207 49 38 192 60 39 166 78 41 149 100 43 
142 124 46 136 133 46 133 128 44 126 120 42 115 109 39 105 100 37 95 91 35 
87 84 34 81 79 32 86 83 33 102 98 35 107 102 35 101 97 34 91 88 32 75 74 29 
72 68 28 81 71 29 115 65 30 173 50 33 206 47 40 214 55 49 227 104 100 
243 194 192 252 244 243 254 253 253 255 255 255 255 255 255 254 253 253 
252 244 243 243 194 192 226 104 100 215 55 49 208 48 40 174 50 33 112 61 30 
80 69 28 79 74 29 82 79 30 88 84 31 96 92 33 107 103 36 110 105 37 105 100 36 
103 98 36 104 99 36 104 100 37 104 99 37 108 102 39 115 108 40 120 114 42 
123 120 44 137 119 45 163 112 45 184 94 44 200 66 41 209 50 39 213 45 38 
215 43 38 214 44 38 215 43 38 217 43 38 207 49 38 187 62 39 168 81 41 
151 107 43 139 120 44 133 121 42 125 116 41 115 106 39 104 97 36 94 88 35 
87 82 33 84 78 32 88 82 32 100 93 34 103 96 34 98 91 33 89 83 31 77 73 29 
74 67 28 81 67 28 114 61 30 173 49 33 207 47 40 214 55 49 227 104 100 
243 194 192 252 244 243 254 253 253 255 255 255 255 255 255 254 253 253 
252 244 243 243 194 192 226 104 100 215 55 49 208 47 40 175 51 33 118 65 30 
86 73 29 82 74 29 83 77 29 89 82 31 96 89 33 105 97 35 108 100 36 105 97 36 
106 98 36 110 103 37 112 104 38 111 103 38 112 104 39 117 108 40 122 110 41 
127 109 43 146 102 43 179 90 43 200 73 42 211 51 39 215 42 38 215 43 38 
214 44 38 214 44 38 214 44 38 215 43 38 213 45 38 207 48 38 193 61 39 
171 83 41 153 100 41 140 114 42 126 113 40 112 99 37 102 89 35 97 84 34 
94 81 33 94 81 33 95 83 33 98 86 33 98 85 33 95 81 31 91 78 31 86 75 30 
85 72 30 88 67 29 118 60 30 175 49 33 207 47 40 215 55 49 227 104 100 
243 194 192 252 244 243 254 253 253 255 255 255 255 255 255 254 253 253 
252 244 243 243 194 192 226 104 100 215 55 49 207 47 39 179 53 34 131 73 32 
102 82 31 93 78 30 90 78 30 94 80 31 98 84 32 104 89 34 108 93 35 111 96 35 
115 100 37 119 104 38 121 106 39 120 105 39 119 104 39 117 103 39 124 98 39 
141 87 40 164 75 40 194 62 39 211 52 39 214 46 38 215 43 38 214 44 38 
214 44 38 214 44 38 214 44 38 214 44 38 215 43 38 216 42 38 208 49 38 
189 64 39 173 78 39 160 94 40 147 95 39 135 83 37 127 75 35 125 73 34 
124 72 34 126 73 33 125 73 33 124 73 33 122 71 33 121 68 32 120 67 31 
119 68 32 119 67 31 120 62 31 141 55 31 185 47 33 209 46 39 215 54 48 
226 103 99 243 194 192 252 244 243 254 253 253 255 255 255 255 255 255 
254 253 253 252 244 243 243 194 192 226 103 99 215 54 48 209 46 39 189 51 34 
155 69 33 134 76 33 126 72 32 122 70 32 124 71 32 126 73 33 129 76 34 
132 79 34 137 83 35 141 87 36 144 90 38 146 92 38 145 91 38 143 90 38 
139 87 37 146 80 37 164 68 38 183 57 38 205 47 38 216 42 38 215 43 38 
214 44 38 214 44 38 214 44 38 214 44 38 214 44 38 214 44 38 214 44 38 
215 43 38 212 45 38 206 50 38 200 55 38 193 62 37 187 63 37 182 58 36 
179 55 35 178 54 35 178 53 34 178 54 34 178 55 34 177 54 34 176 53 34 
176 51 34 176 52 34 177 53 34 177 53 34 177 51 33 185 47 33 202 43 33 
212 45 38 215 53 47 225 103 98 243 193 192 252 244 243 254 253 253 255 255 255 
255 255 255 254 253 253 252 244 243 243 193 192 225 102 98 215 53 47 212 44 38 
204 44 34 190 52 34 182 56 34 179 55 34 178 55 34 178 55 34 179 55 34 
180 56 35 182 57 35 183 58 36 185 60 36 186 61 36 186 61 36 185 60 36 
184 60 36 183 59 36 187 57 37 196 52 38 204 48 38 211 45 38 215 43 38 
214 44 38 214 44 38 214 44 38 214 44 38 214 44 38 214 44 38 214 44 38 
214 44 38 214 44 38 214 44 38 215 43 38 214 44 38 211 48 39 209 49 40 
209 49 40 208 49 40 208 48 40 208 48 39 208 48 39 208 48 39 207 48 39 
207 47 39 207 47 40 208 48 40 209 49 40 209 49 40 209 48 40 210 47 39 
212 45 38 214 48 42 216 56 51 225 105 101 243 194 193 252 244 243 254 253 253 
255 255 255 255 255 255 254 253 253 252 244 243 243 194 193 225 105 101 
216 56 51 214 48 42 212 45 38 210 47 39 209 49 39 209 49 40 209 50 40 
209 50 39 209 49 40 209 49 40 209 49 40 210 49 40 209 49 40 209 49 40 
209 48 40 208 48 40 208 48 40 209 48 40 210 47 39 213 45 38 215 44 38 
214 44 38 214 44 38 214 44 38 214 44 38 214 44 38 214 44 38 214 44 38 
214 44 38 214 44 38 214 44 38 214 44 38 214 44 38 214 44 38 214 46 41 
214 51 45 215 54 48 215 55 49 215 55 49 215 55 49 215 55 49 215 55 49 
215 55 49 215 55 49 215 55 49 215 55 49 215 55 49 215 55 49 215 55 49 
215 55 49 215 54 48 215 53 47 216 56 51 217 64 59 226 111 107 243 196 195 
252 244 243 254 253 253 255 255 255 255 255 255 254 253 253 252 244 243 
243 196 195 226 111 107 217 64 59 216 56 51 215 53 47 215 54 48 215 55 49 
215 55 49 215 55 49 215 55 49 215 55 49 215 55 49 215 55 49 215 55 49 
215 55 49 215 55 49 215 55 49 215 55 49 215 55 49 215 54 48 214 51 46 
214 47 41 214 44 38 214 44 38 214 44 38 214 44 38 214 44 38 214 44 38 
214 44 38 214 44 38 214 44 38 214 44 38 214 44 38 214 44 37 214 44 38 
214 47 41 217 60 55 222 86 82 225 100 96 226 103 99 227 104 100 226 104 100 
226 104 100 226 104 100 226 104 100 226 104 100 227 104 100 227 104 100 
226 104 100 226 104 100 226 104 100 226 104 100 226 103 99 225 102 98 
226 105 101 226 111 108 233 146 144 245 211 209 253 246 246 254 253 253 
255 255 255 255 255 255 254 253 253 253 246 246 245 211 209 233 146 144 
226 111 108 226 105 101 225 102 98 226 103 99 226 103 100 226 103 100 
226 103 100 226 103 100 226 103 100 226 103 100 226 103 100 226 103 100 
226 103 100 226 103 100 226 104 100 226 104 100 226 103 99 225 100 96 
222 86 82 217 60 55 214 47 41 214 44 38 214 44 37 214 44 38 214 44 38 
214 44 38 214 44 38 214 44 38 214 44 38 214 44 38 214 44 38 214 43 37 
214 45 39 215 51 46 222 86 82 234 150 147 241 186 184 243 192 191 243 195 194 
243 194 193 243 194 192 243 194 192 243 194 192 243 194 192 243 194 192 
243 194 192 243 194 192 243 194 192 243 194 192 243 194 192 243 194 192 
243 193 192 243 195 193 243 197 195 246 211 210 251 237 237 254 251 251 
255 254 254 255 255 255 255 255 255 255 254 254 254 251 251 251 237 237 
246 211 210 243 197 195 243 195 193 243 193 192 243 194 192 243 194 192 
243 194 192 243 194 192 243 194 192 243 194 192 243 194 192 243 194 192 
243 194 192 243 194 192 243 194 192 243 194 193 243 195 194 243 192 191 
241 186 184 234 150 147 222 86 82 215 51 46 214 45 39 214 43 37 214 44 38 
214 44 38 214 44 38 214 44 38 214 44 38 214 44 38 214 44 38 214 43 37 
214 42 36 214 46 40 216 54 48 224 100 96 241 186 184 250 233 232 252 242 241 
253 245 245 252 244 244 252 244 243 252 244 243 252 244 243 252 244 243 
252 244 243 252 244 243 252 244 243 252 244 243 252 244 243 252 244 243 
252 244 243 252 244 243 252 244 243 253 245 244 253 247 247 254 252 252 
255 254 254 255 255 255 255 255 255 255 255 255 255 255 255 255 254 254 
254 252 252 253 247 247 253 245 244 252 244 243 252 244 243 252 244 243 
252 244 243 252 244 243 252 244 243 252 244 243 252 244 243 252 244 243 
252 244 243 252 244 243 252 244 243 252 244 243 252 244 244 253 245 245 
252 242 241 250 233 232 241 186 184 224 100 96 216 54 48 214 46 40 214 42 36 
214 43 37 214 44 38 214 44 38 214 44 38 214 44 38 214 44 38 214 44 38 
214 43 37 214 42 36 214 46 40 216 54 49 225 103 99 242 193 191 252 242 241 
254 251 251 255 255 255 255 254 254 254 253 253 254 253 253 254 253 253 
254 253 253 254 253 253 254 253 253 254 253 253 254 253 253 254 253 253 
254 253 253 254 253 253 254 253 253 255 253 253 255 253 253 255 254 254 
255 254 254 255 255 255 255 255 255 255 255 255 255 255 255 255 255 255 
255 255 255 255 254 254 255 254 254 255 253 253 255 253 253 254 253 253 
254 253 253 254 253 253 254 253 253 254 253 253 254 253 253 254 253 253 
254 253 253 254 253 253 254 253 253 254 253 253 254 253 253 255 254 254 
255 255 255 254 251 251 252 242 241 242 193 191 225 103 99 216 54 49 214 46 40 
214 42 36 214 43 37 214 44 38 214 44 38 214 44 38 214 44 38 214 44 38 
214 44 38 214 43 37 214 42 36 214 46 40 216 55 49 225 105 101 243 196 194 
253 246 246 255 255 255 255 255 255 255 255 255 255 255 255 255 255 255 
255 255 255 255 255 255 255 255 255 255 255 255 255 255 255 255 255 255 
255 255 255 255 255 255 255 255 255 255 255 255 255 255 255 255 255 255 
255 255 255 255 255 255 255 255 255 255 255 255 255 255 255 255 255 255 
255 255 255 255 255 255 255 255 255 255 255 255 255 255 255 255 255 255 
255 255 255 255 255 255 255 255 255 255 255 255 255 255 255 255 255 255 
255 255 255 255 255 255 255 255 255 255 255 255 255 255 255 255 255 255 
255 255 255 255 255 255 255 255 255 253 246 246 243 196 194 225 105 101 
216 55 49 214 46 40 214 42 36 214 43 37 214 44 38 214 44 38 214 44 38 
214 44 38 214 44 38 214 44 38 214 43 37 214 42 36 214 46 40 216 55 49 
225 105 101 243 196 194 253 246 246 255 255 255 255 255 255 255 255 255 
255 255 255 255 255 255 255 255 255 255 255 255 255 255 255 255 255 255 
255 255 255 255 255 255 255 255 255 255 255 255 255 255 255 255 255 255 
255 255 255 255 255 255 255 255 255 255 255 255 255 255 255 255 255 255 
255 255 255 255 255 255 255 255 255 255 255 255 255 255 255 255 255 255 
255 255 255 255 255 255 255 255 255 255 255 255 255 255 255 255 255 255 
255 255 255 255 255 255 255 255 255 255 255 255 255 255 255 255 255 255 
255 255 255 255 255 255 255 255 255 255 255 255 255 255 255 253 246 246 
243 196 194 225 105 101 216 55 49 214 46 40 214 42 36 214 43 37 214 44 38 
214 44 38 214 44 38 214 44 38 214 44 38 214 44 38 214 43 37 214 42 36 
214 46 40 216 54 49 225 103 99 242 193 191 252 242 241 254 251 251 255 255 255 
255 254 254 254 253 253 254 253 253 254 253 253 254 253 253 254 253 253 
254 253 253 254 253 253 254 253 253 254 253 253 254 253 253 254 253 253 
254 253 253 255 253 253 255 253 253 255 254 254 255 254 254 255 255 255 
255 255 255 255 255 255 255 255 255 255 255 255 255 255 255 255 254 254 
255 254 254 255 253 253 255 253 253 254 253 253 254 253 253 254 253 253 
254 253 253 254 253 253 254 253 253 254 253 253 254 253 253 254 253 253 
254 253 253 254 253 253 254 253 253 255 254 254 255 255 255 254 251 251 
252 242 241 242 193 191 225 103 99 216 54 49 214 46 40 214 42 36 214 43 37 
214 44 38 214 44 38 214 44 38 214 44 38 214 44 38 214 44 38 214 43 37 
214 42 36 214 46 40 216 54 48 224 100 96 241 186 184 250 233 232 252 242 241 
253 245 245 252 244 244 252 244 243 252 244 243 252 244 243 252 244 243 
252 244 243 252 244 243 252 244 243 252 244 243 252 244 243 252 244 243 
252 244 243 252 244 243 252 244 243 253 245 244 253 247 247 254 252 252 
255 254 254 255 255 255 255 255 255 255 255 255 255 255 255 255 254 254 
254 252 252 253 247 247 253 245 244 252 244 243 252 244 243 252 244 243 
252 244 243 252 244 243 252 244 243 252 244 243 252 244 243 252 244 243 
252 244 243 252 244 243 252 244 243 252 244 243 252 244 244 253 245 245 
252 242 241 250 233 232 241 186 184 224 100 96 216 54 48 214 46 40 214 42 36 
214 43 37 214 44 38 214 44 38 214 44 38 214 44 38 214 44 38 214 44 38 
214 44 38 214 43 37 214 45 39 215 51 46 222 86 82 234 150 147 241 186 184 
243 192 191 243 195 194 243 194 193 243 194 192 243 194 192 243 194 192 
243 194 192 243 194 192 243 194 192 243 194 192 243 194 192 243 194 192 
243 194 192 243 194 192 243 193 192 243 195 193 243 197 195 246 211 210 
251 237 237 254 251 251 255 254 254 255 255 255 255 255 255 255 254 254 
254 251 251 251 237 237 246 211 210 243 197 195 243 195 193 243 193 192 
243 194 192 243 194 192 243 194 192 243 194 192 243 194 192 243 194 192 
243 194 192 243 194 192 243 194 192 243 194 192 243 194 192 243 194 193 
243 195 194 243 192 191 241 186 184 234 150 147 222 86 82 215 51 46 214 45 39 
214 43 37 214 44 38 214 44 38 214 44 38 214 44 38 214 44 38 214 44 38 
214 44 38 214 44 38 214 44 37 214 44 38 214 47 41 217 60 55 222 86 82 
225 100 96 226 103 99 226 104 100 226 104 100 226 103 100 226 103 100 
226 104 100 226 104 100 227 104 100 227 104 100 227 104 100 227 104 100 
226 104 100 226 104 100 226 103 99 225 102 98 226 105 101 226 111 108 
233 146 144 245 211 209 253 246 246 254 253 253 255 255 255 255 255 255 
254 253 253 253 246 246 245 211 209 233 146 144 226 111 108 226 105 101 
225 103 98 226 103 99 226 104 100 226 104 100 226 104 100 226 104 100 
226 104 100 226 103 100 226 103 100 226 103 100 226 103 100 226 103 100 
226 104 100 226 104 100 226 103 99 225 100 96 222 86 82 217 60 55 214 47 41 
214 44 38 214 44 37 214 44 38 214 44 38 214 44 38 214 44 38 214 44 38 
214 44 38 214 44 38 214 44 38 214 44 38 214 44 38 214 44 38 214 46 41 
214 51 45 215 54 48 215 55 49 215 55 49 215 55 49 215 55 49 215 55 49 
215 55 49 215 55 49 215 55 49 215 55 49 215 55 49 215 55 49 215 55 49 
215 55 49 215 54 48 215 53 47 216 56 51 217 64 59 226 111 107 243 196 195 
252 244 243 254 253 253 255 255 255 255 255 255 254 253 253 252 244 243 
243 196 195 226 111 107 217 64 59 216 56 51 215 53 47 215 54 48 215 55 49 
215 55 49 215 55 49 215 55 49 215 55 49 215 55 49 215 55 49 215 55 49 
215 55 49 215 55 49 215 55 49 215 55 49 215 55 49 214 54 48 214 51 45 
214 46 41 214 44 38 214 44 38 214 44 38 214 44 38 214 44 38 214 44 38 
214 44 38 214 44 38 214 44 38 214 44 38 214 44 38 214 44 38 214 43 38 
214 43 38 213 44 38 211 47 39 209 49 40 209 49 40 209 49 40 210 50 40 
210 49 40 209 48 39 208 48 39 208 48 39 208 48 40 207 47 40 207 47 40 
207 48 40 207 48 39 208 47 39 209 46 39 212 45 38 214 48 42 216 56 51 
225 105 101 243 194 193 252 244 243 254 253 253 255 255 255 255 255 255 
254 253 253 252 244 243 243 194 193 226 105 101 216 56 51 214 47 42 212 44 38 
210 47 39 209 49 40 209 49 40 209 49 40 209 49 40 209 49 40 209 49 40 
210 49 40 210 49 40 210 49 40 209 49 40 209 49 40 209 49 40 209 49 40 
207 48 40 209 46 39 212 44 38 214 43 38 214 44 38 214 44 38 214 44 38 
214 44 38 214 44 38 214 44 38 214 44 38 214 44 38 214 44 38 214 44 38 
215 43 38 212 46 38 206 50 38 198 55 38 189 59 37 184 60 36 182 58 36 
181 56 35 179 55 35 179 55 35 181 56 35 180 55 34 177 53 34 174 51 34 
173 49 33 174 49 33 175 52 34 178 54 34 181 54 34 190 51 34 203 44 34 
212 45 38 215 53 47 225 102 98 243 193 192 252 244 243 254 253 253 255 255 255 
255 255 255 254 253 253 252 244 243 243 193 192 225 103 98 215 53 47 211 44 38 
202 42 33 186 48 34 177 52 34 176 52 33 175 52 33 175 51 33 177 52 34 
179 55 35 182 57 35 183 58 35 183 58 35 180 56 35 182 58 36 187 62 36 
188 63 37 186 62 37 189 59 37 198 54 38 206 50 38 212 45 38 215 43 38 
214 44 38 214 44 38 214 44 38 214 44 38 214 44 38 214 44 38 214 44 38 
215 43 38 216 42 38 208 50 38 190 66 40 171 79 40 151 86 39 139 87 38 
135 82 36 130 77 35 123 71 34 124 71 34 131 77 35 130 77 34 121 69 33 
115 64 32 112 61 30 114 62 30 119 68 31 126 73 32 135 76 33 156 69 34 
189 51 34 209 46 39 215 54 48 226 103 99 243 194 192 252 244 243 254 253 253 
255 255 255 255 255 255 254 253 253 252 244 243 243 194 192 226 103 99 
215 54 48 209 46 39 185 47 34 143 57 32 120 63 31 116 63 30 114 63 30 
114 62 30 117 65 31 125 72 33 131 78 35 135 82 35 135 82 35 129 77 35 
134 81 36 147 94 39 153 99 40 149 97 40 156 90 40 172 77 39 189 63 39 
207 48 38 216 42 38 215 43 38 214 44 38 214 44 38 214 44 38 214 44 38 
214 44 38 215 43 38 212 45 38 206 48 38 192 61 39 172 86 41 152 102 42 
133 108 42 121 109 40 117 103 38 110 95 36 101 87 35 98 84 34 102 88 35 
100 86 34 92 79 32 86 74 31 82 70 29 83 71 29 90 78 30 98 84 31 109 88 33 
136 78 34 181 54 34 207 47 39 214 55 49 226 104 100 243 194 192 252 244 243 
254 253 253 255 255 255 255 255 255 254 253 253 252 244 243 243 194 192 
226 104 100 215 55 49 208 47 40 177 50 34 122 64 31 91 71 30 85 71 29 82 70 28 
81 69 29 85 73 30 95 82 33 101 88 34 104 91 34 104 91 34 100 87 34 106 92 36 
121 106 39 127 113 41 127 113 41 134 108 41 149 97 41 170 82 41 195 63 40 
210 51 39 213 45 38 215 43 38 214 44 38 214 44 38 214 44 38 215 43 38 
217 43 38 207 48 38 185 60 39 167 80 41 151 109 44 141 124 45 136 125 44 
132 124 43 128 119 42 121 113 40 112 104 37 103 95 36 94 88 34 90 84 33 
89 83 32 86 80 31 82 76 30 82 77 30 87 83 30 94 86 31 103 88 33 132 77 34 
179 54 34 207 46 39 214 54 49 226 104 100 243 194 192 252 244 243 254 253 253 
255 255 255 255 255 255 254 253 253 252 244 243 243 194 192 226 104 100 
215 55 49 208 48 40 177 52 34 122 68 31 90 76 30 82 75 29 77 74 29 76 71 29 
80 75 30 90 84 32 93 87 33 91 84 33 91 84 34 93 87 34 98 92 36 106 99 38 
113 106 39 118 111 40 124 113 42 130 113 44 148 104 44 177 89 43 197 71 42 
209 51 39 215 42 37 215 43 38 214 44 38 215 43 38 213 45 38 208 50 38 
192 60 39 162 75 41 143 94 42 133 116 44 130 128 45 133 128 44 133 127 44 
129 124 43 122 117 41 112 107 38 101 97 36 89 86 34 85 83 32 88 85 32 88 85 32 
85 82 31 84 81 30 85 83 31 89 84 31 96 84 32 126 74 33 177 53 34 207 47 39 
215 55 49 227 104 100 243 194 192 252 244 243 254 253 253 255 255 255 
255 255 255 254 253 253 252 244 243 243 194 192 226 104 100 215 55 49 
208 48 40 178 53 34 124 71 32 93 81 31 86 82 31 81 80 31 77 75 30 79 76 31 
87 84 32 88 86 33 84 81 33 85 81 33 90 87 35 97 93 36 105 101 38 113 108 39 
122 116 41 124 120 43 121 119 44 131 114 45 153 103 45 173 86 43 192 61 40 
205 47 38 212 44 38 215 43 38 215 41 37 207 49 38 190 66 40 167 81 42 
137 94 42 121 104 43 118 109 43 119 114 43 123 118 43 124 118 43 122 115 42 
114 108 40 101 96 37 92 88 34 87 83 33 87 82 33 91 86 33 92 88 33 92 86 32 
88 84 31 83 79 31 83 77 31 88 75 30 119 67 31 176 52 34 208 48 40 215 55 49 
227 104 100 243 194 192 252 244 243 254 253 253 255 255 255 255 255 255 
254 253 253 252 244 243 243 194 192 226 104 100 215 55 49 207 48 39 178 54 34 
127 74 33 100 86 32 97 91 33 92 89 33 83 80 32 81 78 32 86 81 32 87 82 33 
85 80 33 86 82 34 92 88 35 102 98 37 117 110 40 128 121 42 137 130 45 
135 128 46 121 117 44 118 110 43 123 106 44 138 95 43 163 76 41 186 60 39 
206 48 38 215 42 38 206 52 39 194 62 40 170 83 42 146 98 43 122 106 43 
111 108 43 111 106 42 113 106 42 115 109 41 117 111 41 119 112 42 112 106 40 
98 93 37 90 85 34 88 83 34 89 84 33 92 87 33 93 88 33 92 86 32 88 83 32 
82 78 31 81 75 30 86 73 30 117 65 31 176 52 34 208 48 40 215 55 49 226 104 100 
243 194 192 252 244 243 254 253 253 255 255 255 255 255 255 254 253 253 
252 244 243 243 194 192 226 104 100 214 55 49 207 47 39 178 54 34 128 75 33 
104 90 33 105 97 35 101 96 35 91 87 33 87 82 33 88 82 33 89 84 34 92 87 34 
96 91 36 102 96 37 112 106 39 127 119 42 138 129 44 145 137 47 141 134 47 
127 120 45 119 114 44 116 114 44 126 109 44 148 99 44 171 83 42 195 62 40 
206 52 38 188 76 41 175 84 42 147 102 44 128 111 45 118 110 44 113 109 44 
113 108 43 111 105 42 108 102 40 111 104 40 120 112 42 117 109 41 101 96 38 
93 89 36 93 87 35 93 87 34 93 88 34 91 86 33 86 82 32 83 80 32 82 79 31 
85 79 31 91 77 31 122 69 32 177 53 34 208 48 40 215 55 49 226 104 100 
243 194 192 252 244 243 254 253 253 255 255 255 255 255 255 254 253 253 
252 244 243 243 194 192 226 104 100 215 55 49 207 47 39 179 54 34 129 76 34 
106 92 34 110 102 36 108 103 36 102 96 35 96 90 34 91 86 34 95 90 35 107 101 37 
115 108 38 119 111 40 125 117 42 134 126 43 141 133 45 145 137 47 144 136 48 
138 129 47 134 125 46 131 125 46 136 127 47 149 130 48 163 117 47 179 88 42 
186 74 40 172 102 44 160 106 45 134 114 45 119 116 45 115 111 44 114 109 44 
116 110 44 114 108 43 109 102 41 112 105 41 124 116 43 123 115 42 109 103 39 
101 96 37 99 93 36 96 90 35 93 88 35 89 85 34 84 80 33 84 81 32 88 86 32 
92 86 32 96 83 32 125 72 33 178 53 34 208 48 39 215 55 49 226 104 100 
243 194 192 252 244 243 254 253 253 255 255 255 255 255 255 254 253 253 
252 244 243 243 194 192 226 104 100 215 55 49 208 47 39 179 54 34 128 75 34 
105 90 34 109 101 36 110 104 37 107 100 36 103 96 35 97 92 35 102 97 37 
118 111 39 127 119 41 129 121 42 133 125 44 140 132 45 143 135 47 143 135 48 
142 134 48 141 132 47 140 130 47 139 131 47 142 136 48 151 146 51 157 136 50 
161 107 45 163 93 43 158 129 48 149 126 47 131 120 46 119 114 45 114 109 44 
114 109 44 119 113 45 121 114 45 118 111 43 121 114 43 131 123 44 131 124 43 
121 115 40 113 107 39 106 99 38 99 93 37 92 87 35 87 84 34 86 82 34 90 87 34 
100 97 35 104 97 35 102 88 34 127 74 33 179 54 34 208 48 39 215 55 49 
226 104 100 243 194 192 252 244 243 254 253 253 255 255 255 255 255 255 
254 253 253 252 244 243 243 194 192 226 104 100 215 55 49 208 48 39 178 53 34 
124 72 34 99 86 34 103 95 36 106 101 36 108 101 37 108 101 37 106 99 37 
111 105 38 125 118 42 132 125 44 133 125 44 137 129 45 145 137 47 145 137 48 
137 130 47 135 127 47 137 128 47 138 129 47 138 129 47 143 135 48 154 147 51 
153 142 51 141 119 47 135 109 46 153 145 50 147 139 49 134 127 47 124 117 46 
117 111 45 116 110 45 122 115 46 125 117 46 124 117 45 128 120 45 136 128 46 
136 128 45 130 122 42 121 114 40 112 104 39 102 96 38 92 88 36 88 84 35 
88 84 34 95 91 35 107 103 36 111 104 36 107 93 35 130 77 34 180 56 35 
209 48 40 215 55 49 226 103 100 243 194 192 252 244 243 254 253 253 
255 255 255 255 255 255 254 253 253 252 244 243 243 194 192 226 104 100 
215 55 49 208 48 39 178 54 34 124 72 34 99 86 34 101 94 36 104 99 36 108 101 37 
111 103 37 113 105 38 119 112 40 130 123 43 136 128 45 136 128 45 139 131 46 
144 136 47 143 135 48 136 128 47 134 126 47 138 130 47 139 130 47 136 127 47 
138 129 47 146 138 49 142 135 49 127 121 47 119 115 47 158 149 51 153 145 50 
142 135 48 132 125 46 122 116 46 119 112 46 123 116 46 126 118 46 128 120 46 
132 124 46 137 129 46 138 130 45 134 125 43 126 118 42 115 108 40 104 99 38 
95 90 36 90 86 35 91 87 35 97 93 36 108 104 38 113 105 37 112 98 35 135 82 35 
182 57 35 209 48 40 215 55 49 226 103 100 243 194 192 252 244 243 254 253 253 
255 255 255 255 255 255 254 253 253 252 244 243 243 194 192 226 104 100 
215 55 49 208 48 39 179 55 34 128 76 34 103 90 35 104 96 36 105 99 37 
105 99 36 110 103 37 119 111 39 126 119 41 133 126 43 137 130 45 138 130 45 
138 130 45 138 130 45 138 130 46 137 129 47 140 132 47 144 136 48 142 134 47 
132 124 46 127 119 45 126 119 45 123 116 45 118 112 45 115 110 45 156 147 51 
153 144 50 147 138 48 139 131 47 128 121 46 124 117 46 126 118 46 128 120 46 
130 122 46 134 126 46 139 131 46 139 131 46 135 126 44 128 119 42 117 111 40 
108 103 39 100 95 37 96 91 37 97 92 37 100 95 37 105 101 38 108 101 37 
110 96 35 134 81 35 182 57 35 209 49 40 215 55 49 226 104 100 243 194 193 
252 244 244 255 254 254 255 255 255 255 255 255 255 254 254 252 244 244 
243 194 193 226 104 100 215 55 49 209 48 39 181 56 35 131 80 35 106 94 36 
106 98 37 107 102 38 110 103 38 114 107 39 120 112 39 124 116 41 126 120 43 
130 123 44 135 127 45 136 128 45 133 125 45 134 126 45 140 132 47 143 135 48 
144 136 48 140 132 47 129 121 46 121 114 44 117 110 44 114 108 43 114 108 44 
114 109 44 147 138 48 147 138 48 147 138 48 143 134 48 135 127 47 130 123 46 
129 122 46 129 121 46 129 121 46 133 125 46 141 132 47 141 132 46 132 124 44 
125 117 42 119 112 42 114 107 41 109 103 40 106 100 39 106 99 38 103 97 38 
98 94 37 97 91 36 101 87 35 129 76 35 181 56 35 210 49 40 215 55 49 226 104 100 
243 195 194 253 245 245 255 255 255 255 255 255 255 255 255 255 255 255 
253 245 245 243 195 194 226 104 100 215 55 49 209 48 40 182 57 36 135 82 36 
110 96 37 108 101 38 112 107 39 121 114 41 122 115 41 116 109 40 111 105 40 
109 104 41 114 108 42 126 118 44 130 122 45 128 119 45 132 124 46 143 135 48 
145 137 48 138 130 47 132 124 46 126 118 45 121 114 45 117 111 44 116 110 44 
116 110 44 116 110 45 142 133 47 142 133 47 143 134 48 140 131 47 133 125 46 
130 122 46 131 124 46 131 124 46 127 120 46 130 122 46 138 129 47 139 130 46 
132 124 44 127 119 43 121 114 43 117 110 42 114 107 41 113 106 40 115 107 40 
109 103 39 97 93 37 93 87 36 97 84 35 126 74 35 180 55 36 209 49 40 215 55 49 
226 103 99 243 192 191 252 242 241 254 251 251 255 255 255 255 255 255 
254 251 251 252 242 241 243 192 191 226 103 99 215 55 49 209 48 40 182 57 36 
134 82 37 112 98 38 114 107 39 121 116 41 131 123 44 129 121 44 117 110 41 
109 103 40 105 100 41 109 103 42 121 113 43 126 118 45 126 118 46 132 124 47 
143 134 48 142 134 47 131 123 46 125 117 45 125 117 45 124 116 45 121 115 44 
121 115 45 123 115 45 123 116 46 139 130 47 138 129 47 135 127 47 130 122 46 
122 114 45 123 116 45 133 126 47 134 127 47 125 118 46 124 116 46 130 122 47 
133 125 47 135 127 46 132 124 45 124 116 44 118 110 43 115 107 42 117 109 42 
124 117 42 119 113 41 101 97 38 95 89 37 99 87 36 127 76 36 179 55 36 
208 48 40 215 54 48 226 100 96 241 186 184 250 233 232 252 242 241 253 246 246 
253 246 246 252 242 241 250 233 232 241 186 184 225 100 96 215 54 48 209 48 40 
180 56 36 129 78 37 111 99 39 125 118 42 134 129 45 139 132 46 135 127 45 
123 116 43 116 109 42 114 108 43 115 109 44 119 112 44 124 116 45 129 121 46 
134 126 47 139 131 47 135 127 47 122 114 45 118 111 44 125 118 45 128 121 46 
128 121 45 130 123 46 133 125 47 135 126 47 136 127 47 134 126 47 130 122 46 
124 117 45 117 110 44 118 111 44 129 122 46 130 123 46 121 114 45 119 112 45 
125 117 46 130 123 47 137 129 47 136 127 46 127 119 45 121 113 44 116 108 43 
118 110 43 126 119 44 121 116 43 103 101 40 100 91 38 111 86 37 139 74 37 
185 54 36 210 46 39 214 51 46 222 86 82 234 151 147 241 186 184 242 193 191 
243 196 194 243 196 194 242 193 191 241 186 184 234 151 147 222 86 82 
214 51 46 210 47 39 185 54 37 139 74 37 121 96 40 131 121 44 136 132 46 
136 130 46 133 125 45 126 119 44 122 115 44 122 115 44 122 115 45 121 114 45 
124 117 46 131 123 47 136 128 47 140 131 47 136 127 47 124 117 45 121 114 45 
126 119 46 130 123 46 134 126 46 138 130 47 143 134 48 145 136 49 134 125 46 
132 124 46 128 121 46 123 116 45 117 111 45 115 110 44 119 113 44 118 112 44 
115 109 44 116 110 44 123 116 46 130 123 46 138 130 47 139 130 47 131 123 46 
124 117 45 117 111 44 116 111 44 122 116 44 117 113 43 103 103 41 108 93 39 
133 81 38 163 67 38 196 51 37 214 45 38 214 46 41 217 60 55 222 86 82 
224 100 96 225 103 99 225 105 101 225 105 101 225 103 99 224 100 96 222 86 82 
217 60 55 214 46 41 214 45 38 196 52 38 162 67 38 141 89 40 133 116 44 
127 126 45 122 118 44 122 116 44 126 120 44 129 122 45 129 122 45 129 121 46 
127 119 46 128 120 46 133 125 46 138 129 47 144 134 48 144 134 48 139 130 47 
134 125 46 127 120 46 129 122 46 139 130 47 147 137 48 152 143 50 154 145 51 
134 126 46 135 127 47 135 128 47 133 126 47 127 121 47 123 117 46 121 114 45 
118 112 44 115 110 44 118 112 45 125 119 46 132 124 46 137 128 47 138 129 47 
134 126 46 128 121 46 120 115 45 116 112 44 118 114 44 117 109 43 115 99 41 
129 86 39 160 71 38 185 59 38 206 49 38 215 44 38 214 44 38 214 46 41 
215 51 46 216 54 48 216 54 49 216 55 49 216 55 49 216 54 49 216 54 48 
215 51 46 214 47 41 214 44 38 215 44 38 205 48 38 184 59 38 164 76 40 
145 102 43 129 113 44 118 110 43 116 112 44 125 118 45 130 123 46 133 125 46 
133 125 47 131 123 46 131 123 46 133 126 46 136 128 46 140 130 47 142 132 48 
142 133 47 137 128 47 126 119 46 128 120 46 141 132 47 151 141 49 155 146 51 
157 148 51 139 130 47 143 134 48 152 143 50 153 145 51 148 139 50 142 133 49 
136 127 47 130 122 46 123 117 46 124 118 46 132 125 47 136 127 47 134 125 46 
134 125 46 136 127 46 133 124 46 124 118 45 118 114 45 114 112 45 121 104 43 
138 88 41 161 73 39 190 57 38 207 48 38 212 45 38 215 44 38 214 44 38 
214 44 38 214 45 39 214 46 40 214 46 40 214 46 40 214 46 40 214 46 40 
214 46 40 214 45 39 214 44 38 214 44 38 215 44 38 212 45 38 207 48 38 
191 59 39 167 79 41 144 94 43 124 106 44 116 113 45 121 115 45 126 119 45 
132 124 47 134 126 47 132 125 47 132 125 47 134 126 46 132 124 46 128 120 46 
128 120 46 133 125 47 131 123 47 121 114 45 124 116 45 140 131 47 150 141 49 
153 144 50 155 146 51 143 134 48 147 138 49 156 147 51 157 148 51 149 141 50 
143 134 49 136 127 47 131 123 46 127 120 46 129 122 46 138 129 47 140 131 47 
137 128 47 136 127 47 137 128 46 134 125 46 125 119 45 121 113 45 123 106 44 
137 93 43 164 75 40 187 60 39 208 49 38 217 43 38 215 44 38 214 44 38 
214 44 38 214 44 37 214 43 37 214 42 36 214 42 36 214 42 36 214 42 36 
214 42 36 214 42 36 214 43 37 214 44 37 214 44 38 214 44 38 215 43 38 
217 43 38 208 49 38 187 61 39 164 76 41 139 95 44 125 107 45 123 113 45 
127 121 46 138 130 48 140 132 49 135 127 48 132 125 47 133 125 46 129 121 46 
120 113 45 119 112 45 127 119 46 129 121 47 125 117 46 131 122 46 145 136 48 
151 142 49 147 138 49 145 137 49 146 138 50 146 138 50 147 138 49 142 134 48 
133 126 47 126 119 46 122 115 46 122 115 46 125 118 46 132 124 46 141 132 47 
146 136 48 147 137 49 144 135 49 137 129 47 129 123 46 121 118 46 126 109 45 
145 95 43 167 79 41 191 59 39 207 48 38 213 45 38 215 43 38 214 44 38 
214 44 38 214 44 38 214 44 38 214 44 38 214 43 37 214 43 37 214 43 37 
214 43 37 214 43 37 214 43 37 214 44 38 214 44 38 214 44 38 214 44 38 
214 44 38 215 43 38 213 45 38 207 48 38 190 59 39 163 76 41 143 94 43 
130 113 46 132 129 48 149 142 51 151 143 51 138 130 49 131 124 47 131 123 46 
126 118 45 116 109 44 115 109 44 123 116 46 131 123 47 138 129 48 146 137 49 
156 147 51 153 144 50 137 129 48 129 122 47 149 140 50 146 137 49 140 131 48 
132 124 47 122 116 45 117 111 44 115 110 44 119 112 45 126 118 46 134 126 46 
144 134 47 150 140 48 153 144 50 150 142 50 141 133 48 134 123 46 131 112 45 
143 97 43 169 80 41 191 64 39 208 49 38 216 42 38 215 43 38 214 44 38 
214 44 38 214 44 38 214 44 38 214 44 38 214 44 38 214 44 38 214 44 38 
214 44 38 214 44 38 214 44 38 214 44 38 214 44 38 214 44 38 214 44 38 
214 44 38 214 44 38 214 44 38 215 43 38 216 43 38 206 48 38 185 60 39 
166 78 41 147 103 45 144 125 48 155 143 51 153 145 51 138 130 49 131 123 47 
133 124 47 129 121 46 120 113 45 118 112 44 124 117 45 131 124 47 139 131 48 
145 137 49 150 141 50 144 136 49 129 122 46 122 115 45 150 140 49 145 136 48 
134 126 47 125 118 46 118 112 44 115 109 44 117 111 44 121 114 44 128 121 46 
137 128 46 146 137 47 153 143 49 157 148 51 156 147 51 149 141 50 149 125 47 
156 100 44 171 79 41 195 61 39 209 49 38 213 45 38 215 43 38 214 44 38 
214 44 38 214 44 38 214 44 38 214 44 38 214 44 38 214 44 38 214 44 38 
214 44 38 214 44 38 214 44 38 214 44 38 214 44 38 214 44 38 214 44 38 
214 44 38 214 44 38 214 44 38 214 44 38 214 44 38 215 43 38 212 45 38 
206 47 38 194 61 39 176 84 42 163 109 46 157 133 50 147 139 50 134 127 47 
131 123 46 138 129 47 138 129 47 132 123 46 129 121 46 129 122 46 129 122 46 
128 121 46 128 120 46 127 121 46 126 119 46 123 116 45 122 115 45 151 140 48 
145 135 47 132 123 46 122 115 45 116 110 44 115 108 44 118 111 44 123 116 44 
129 122 45 138 129 46 147 138 47 154 145 49 159 150 52 158 150 52 152 145 50 
155 126 48 167 95 44 184 70 40 206 52 38 217 43 38 215 43 38 214 44 38 
214 44 38 214 44 38 214 44 38 214 44 38 214 44 38 214 44 38 214 44 38 
214 44 38 214 44 38 214 44 38 214 44 38 214 44 38 214 44 38 214 44 38 
214 44 38 214 44 38 214 44 38 214 44 38 214 44 38 214 44 38 214 44 38 
215 43 38 216 42 37 207 53 39 189 76 41 172 101 45 157 128 49 144 136 50 
132 125 47 131 123 46 140 132 47 142 133 47 138 128 46 134 125 46 132 124 46 
128 121 46 123 117 45 120 113 45 117 111 45 117 111 45 121 114 45 122 115 45 
