P3
64 64
255
134 132 56 141 139 59 155 154 65 160 159 66 156 155 63 152 152 60 149 150 57 
147 148 55 147 148 55 147 149 55 148 151 57 148 153 59 149 153 59 149 153 59 
148 152 58 147 150 56 146 148 55 145 147 53 145 146 53 145 145 53 146 144 52 
147 142 52 146 142 51 146 141 51 147 140 50 147 140 50 148 139 49 148 139 49 
150 139 49 150 139 49 150 138 50 150 138 50 149 137 51 149 137 51 149 139 53 
149 139 53 149 137 50 149 137 49 148 138 49 148 138 49 147 139 50 147 139 50 
147 140 50 147 140 50 147 141 51 146 141 51 145 143 52 145 143 52 145 143 54 
146 143 54 147 145 55 148 147 55 149 149 56 149 149 56 148 149 57 148 149 57 
147 148 55 147 148 55 147 149 55 148 149 56 150 150 57 152 152 59 154 154 61 
155 154 62 134 132 56 141 139 59 154 153 64 159 158 65 156 154 62 152 152 60 
150 150 57 148 149 56 148 149 56 148 149 56 148 151 57 148 152 58 149 152 58 
148 152 58 147 151 57 147 150 56 147 148 55 146 147 54 146 147 54 146 146 53 
147 144 53 147 143 52 147 143 51 146 142 51 147 141 50 147 140 50 148 140 49 
148 139 49 150 139 49 150 139 49 150 138 50 150 138 50 149 137 51 149 137 52 
149 138 52 149 138 52 149 137 50 149 137 49 148 138 49 148 138 49 147 139 50 
147 139 50 147 140 50 147 140 50 147 141 51 147 141 51 146 143 52 146 143 53 
146 143 54 147 144 54 147 145 55 147 147 55 148 148 56 149 149 56 148 149 57 
148 149 57 148 148 56 148 148 55 148 149 56 149 150 57 150 150 58 152 152 59 
154 153 61 155 154 62 135 133 57 140 138 58 151 150 61 156 155 62 154 153 61 
153 152 60 151 152 59 150 151 58 149 151 58 149 150 57 148 150 57 148 150 56 
148 149 56 147 150 56 146 150 56 147 150 56 148 148 56 148 148 55 147 147 55 
148 146 54 148 145 54 148 144 53 148 144 52 147 143 51 147 142 51 147 141 50 
148 141 50 149 140 50 150 140 50 150 140 50 150 139 50 150 138 51 149 138 52 
149 138 53 148 137 51 148 137 50 149 137 49 149 137 49 148 138 49 148 138 49 
147 139 50 147 140 50 148 141 50 148 141 50 148 141 51 148 141 52 147 143 53 
148 143 53 148 144 54 148 144 54 146 146 55 146 146 55 147 147 55 148 147 56 
148 148 56 148 148 56 149 148 57 150 148 57 150 150 57 151 150 58 151 150 59 
152 151 59 153 152 60 154 153 61 135 133 57 139 137 57 149 147 58 153 152 59 
153 151 59 153 152 60 152 152 60 151 152 59 151 151 59 150 151 58 149 149 56 
148 148 55 147 147 54 146 147 54 146 149 55 147 149 56 149 148 56 149 148 56 
149 147 56 149 147 55 149 146 55 149 145 54 149 145 53 148 144 52 148 143 52 
147 142 51 148 141 50 148 141 50 149 140 50 150 140 50 150 139 50 150 139 51 
149 138 52 149 138 52 148 137 51 148 137 49 149 137 49 149 137 49 148 138 49 
148 138 49 147 139 50 147 139 50 148 140 50 148 141 51 148 141 51 148 141 52 
148 142 53 149 143 53 149 144 54 149 144 54 147 145 55 146 146 55 147 145 54 
147 146 55 148 147 55 148 147 56 150 147 57 150 148 57 151 149 58 151 150 58 
152 149 58 152 150 59 152 151 59 152 151 59 135 133 58 139 137 57 147 144 55 
151 148 56 153 149 58 153 150 59 153 151 60 153 152 60 152 151 60 151 150 58 
149 148 56 147 147 54 146 145 53 146 145 53 146 147 54 147 148 55 149 148 55 
150 147 56 149 147 56 149 147 56 150 146 55 150 146 55 149 145 53 149 144 53 
149 143 52 148 143 51 148 142 50 148 141 50 149 139 50 149 139 50 149 140 50 
149 140 50 149 138 51 149 138 51 149 138 50 149 138 50 149 137 50 149 137 50 
149 138 50 149 138 50 148 138 50 148 139 50 148 139 51 148 140 51 149 140 51 
149 141 51 149 142 52 149 143 53 150 143 54 150 144 54 148 144 54 147 145 53 
148 145 53 148 145 54 148 145 54 148 145 55 149 146 56 150 147 57 150 148 57 
151 148 57 151 148 57 151 148 57 151 148 57 151 148 57 138 136 60 140 138 58 
146 142 54 150 145 54 152 147 56 153 149 58 153 150 59 153 150 59 152 150 59 
151 149 58 149 147 56 147 146 54 146 144 52 146 144 52 146 146 53 147 146 54 
149 146 54 150 146 55 149 146 55 149 146 55 150 146 55 150 145 54 149 144 53 
149 144 53 149 143 52 149 142 52 149 141 51 149 140 50 149 139 50 149 139 50 
149 140 50 149 139 50 149 138 50 149 138 50 149 138 50 149 138 50 149 137 50 
149 137 50 149 138 50 149 138 50 148 138 50 148 138 50 148 138 51 148 139 51 
149 139 51 149 140 51 149 141 51 149 142 52 150 142 53 150 143 54 149 143 53 
148 143 53 148 143 53 148 143 53 148 143 53 148 144 54 149 145 55 149 146 56 
150 146 56 150 147 56 151 146 56 151 146 56 150 146 55 150 146 55 142 140 64 
143 141 61 146 142 54 148 144 52 150 146 55 151 147 56 152 147 57 152 147 57 
151 148 56 150 148 55 149 146 54 148 145 53 147 144 52 147 144 52 147 144 53 
148 145 53 149 145 53 149 145 54 149 145 54 149 144 54 149 144 53 149 144 53 
149 144 52 149 143 52 149 142 52 149 141 51 149 140 51 150 140 51 150 140 50 
150 140 50 150 139 49 150 138 49 149 138 49 149 138 50 150 137 50 150 137 50 
148 137 49 148 137 49 149 137 49 149 137 49 148 137 50 148 137 50 148 138 50 
148 138 50 149 139 51 149 139 51 149 139 51 149 140 51 149 141 52 149 142 52 
148 142 52 148 142 52 148 142 53 148 143 53 148 143 53 148 143 53 149 144 54 
149 145 55 149 145 55 150 146 55 150 146 55 150 146 55 149 145 55 149 145 54 
145 143 65 145 143 62 147 143 54 148 144 52 149 145 53 150 145 54 150 145 55 
150 145 55 150 146 54 149 146 54 148 145 53 148 144 52 148 144 52 148 144 52 
148 144 52 148 144 53 149 143 53 149 143 52 149 144 52 149 143 52 149 143 52 
149 143 51 149 143 52 149 142 51 149 142 51 149 141 51 150 140 51 151 140 51 
150 140 50 150 140 49 151 139 49 150 138 49 150 138 49 150 138 49 150 137 50 
150 137 50 149 137 49 148 137 49 149 137 49 149 137 49 148 137 50 148 137 50 
148 138 50 148 138 50 149 139 51 149 139 51 149 139 51 149 139 51 149 140 52 
148 141 52 148 141 52 148 141 52 148 141 53 148 142 53 148 142 53 148 143 53 
149 143 54 149 144 54 149 144 54 149 145 54 149 144 54 149 144 54 149 145 54 
149 145 54 145 143 65 146 144 62 148 144 55 149 144 52 148 143 52 148 143 52 
148 143 52 148 143 52 149 143 53 149 143 52 148 143 52 148 143 51 149 143 52 
149 143 52 148 143 52 148 143 51 148 143 51 148 143 52 148 143 52 148 143 51 
148 143 51 148 142 50 149 142 51 149 142 50 149 142 50 150 141 50 151 140 50 
151 140 50 151 140 49 151 139 49 152 139 49 152 139 49 151 138 49 151 138 49 
151 138 49 150 137 50 149 137 50 149 136 50 150 136 50 150 136 50 149 137 50 
149 137 50 149 137 51 149 137 51 148 138 51 148 138 51 148 138 52 148 138 52 
147 139 51 147 140 52 148 140 53 148 140 53 148 140 52 148 141 53 149 142 54 
149 142 54 149 142 53 149 142 53 148 143 53 148 143 53 148 143 53 149 143 53 
149 144 53 149 144 53 143 142 63 145 142 61 148 143 55 149 143 52 147 142 51 
146 141 50 146 141 50 147 141 50 148 141 51 149 141 51 148 142 51 148 142 51 
149 142 52 149 143 51 148 143 51 148 143 50 148 142 50 148 142 51 148 142 51 
148 143 51 148 142 50 148 141 50 149 141 50 148 140 49 148 139 49 147 139 48 
148 137 48 148 136 48 147 136 47 148 135 47 148 135 47 148 135 47 148 135 48 
148 135 48 148 135 48 148 135 49 148 135 49 149 135 50 150 136 50 150 136 50 
149 137 50 149 137 50 149 137 51 149 137 51 148 138 51 148 138 51 148 138 52 
148 138 52 147 138 51 147 139 51 148 140 53 148 140 53 148 140 52 148 140 52 
149 141 53 149 141 54 149 141 53 149 141 53 148 142 53 148 142 52 148 142 52 
148 142 52 149 143 52 149 143 53 140 137 59 142 139 58 147 142 54 148 142 51 
147 140 50 146 139 49 145 139 48 146 139 48 147 140 49 148 141 50 148 142 50 
148 142 50 148 141 51 148 142 50 148 142 50 148 142 49 147 141 49 147 141 50 
148 142 50 148 142 50 149 141 50 148 141 50 147 139 49 146 137 48 144 134 47 
142 132 47 141 131 46 140 130 45 140 128 44 140 127 44 140 127 44 140 127 45 
140 128 46 141 129 46 142 129 47 144 130 47 145 132 48 147 134 49 150 136 50 
151 137 50 150 137 50 149 137 50 150 137 50 150 137 50 149 137 51 149 137 51 
149 138 51 149 138 51 148 138 50 148 138 51 148 139 52 148 139 52 149 139 51 
149 139 51 149 140 52 149 140 52 148 140 52 148 140 51 148 140 52 148 141 51 
147 141 51 147 141 51 148 142 52 148 142 53 138 135 55 141 137 54 146 140 52 
148 141 51 147 139 49 146 138 48 145 138 47 145 138 47 146 139 48 147 140 49 
148 142 49 148 142 50 148 141 50 148 141 49 148 142 49 148 142 49 148 141 49 
148 141 49 148 141 50 148 140 50 147 139 49 145 137 49 143 134 48 141 131 46 
138 128 45 136 126 44 134 124 43 133 123 42 133 121 42 132 120 42 132 119 42 
132 120 42 133 121 43 134 122 44 136 122 45 138 124 45 140 127 46 143 130 47 
146 133 48 148 134 49 148 135 50 149 136 50 150 137 50 150 137 50 149 137 51 
149 137 51 149 138 51 149 138 51 148 138 50 148 138 50 148 139 51 148 139 51 
149 139 51 149 139 51 149 140 51 149 140 51 148 140 51 148 140 50 148 140 51 
148 140 50 147 140 50 147 141 50 148 140 51 148 140 52 139 135 52 142 136 51 
146 139 50 149 140 49 148 139 49 147 139 48 146 139 47 146 140 47 147 140 47 
147 140 48 148 141 48 148 141 49 148 141 48 148 141 48 148 141 48 148 141 48 
149 141 49 149 141 49 148 140 49 146 138 48 143 134 47 139 130 46 136 126 45 
133 124 44 131 121 42 129 119 41 127 117 40 126 115 40 126 114 39 125 113 39 
125 112 39 125 112 40 125 113 41 126 114 42 128 115 42 130 116 43 132 119 44 
135 122 45 139 125 45 142 128 46 145 132 48 147 135 49 150 137 50 151 138 50 
149 138 50 149 138 50 149 138 51 149 138 51 149 139 51 149 139 51 148 139 51 
148 139 50 149 140 50 149 140 50 148 140 51 148 140 50 148 140 50 148 140 49 
147 140 49 147 140 49 148 139 48 148 139 49 147 139 49 147 139 50 142 137 52 
144 138 51 146 138 49 148 139 48 148 139 48 148 139 48 147 140 47 146 140 47 
147 140 47 147 140 47 148 141 47 148 141 48 148 141 48 148 141 48 148 141 48 
148 141 48 149 140 48 147 138 48 145 137 48 142 133 46 137 128 45 133 124 43 
129 119 42 126 116 41 124 114 39 122 112 38 120 110 38 119 108 38 119 107 37 
118 107 37 117 106 37 117 106 37 118 106 38 119 107 39 121 108 39 122 110 40 
124 113 41 127 115 42 131 118 42 135 122 44 139 127 46 143 131 48 147 134 49 
149 137 50 149 138 50 149 139 50 149 138 51 149 138 51 149 139 51 149 139 50 
148 139 50 148 139 50 149 140 50 149 140 50 148 140 50 148 140 49 148 140 49 
148 140 48 147 140 49 147 140 49 148 139 48 148 139 48 147 139 48 147 139 48 
147 142 55 147 141 53 146 139 49 147 138 48 148 139 48 148 140 48 148 141 48 
148 141 48 147 140 47 147 140 47 147 140 47 147 140 47 148 139 48 148 140 48 
149 141 48 149 141 48 146 138 47 143 134 47 139 130 46 135 125 44 130 121 43 
126 117 41 123 113 40 120 110 39 117 107 37 115 105 37 113 103 36 112 102 36 
111 101 36 111 101 36 110 100 35 111 100 35 112 100 37 113 101 37 114 102 37 
115 104 38 118 107 39 121 110 40 124 112 41 128 116 42 132 121 43 137 125 45 
142 129 46 146 134 48 150 138 50 151 140 51 150 138 50 149 138 50 149 139 50 
149 140 49 148 139 49 148 139 49 148 140 49 148 140 48 147 140 48 147 140 48 
147 139 48 147 139 48 147 141 48 147 140 48 147 139 48 147 139 48 146 139 47 
146 140 47 149 144 55 148 142 53 147 139 49 146 139 47 147 140 48 148 141 48 
148 141 48 148 141 48 147 140 47 147 140 47 147 140 47 147 140 47 148 139 48 
148 139 48 149 140 48 147 139 47 143 134 46 138 129 44 133 124 43 129 119 42 
124 115 41 120 111 39 117 107 38 114 104 36 111 101 35 109 99 35 107 97 34 
106 96 34 105 95 34 105 95 34 104 94 33 104 94 33 105 95 35 106 96 35 
107 97 35 109 99 36 112 102 37 115 105 38 118 107 39 122 110 40 126 115 41 
130 120 43 135 124 44 141 130 46 146 136 48 149 139 50 149 138 50 149 139 49 
149 140 49 148 140 49 148 140 49 148 139 48 148 140 48 147 140 48 147 140 48 
147 140 47 146 139 47 146 140 47 147 141 47 147 141 48 147 140 48 147 140 48 
146 140 47 146 141 47 148 143 53 148 142 52 148 141 48 147 140 47 147 141 47 
147 141 47 147 141 46 147 141 46 147 140 47 147 140 47 148 140 47 148 140 47 
148 140 47 148 139 47 148 138 47 144 135 46 138 129 44 132 124 42 127 118 41 
123 113 39 119 109 38 115 106 37 111 102 35 108 99 34 106 96 33 104 94 33 
101 92 32 100 91 32 100 89 32 99 89 32 99 88 32 99 89 32 99 90 33 100 91 33 
102 92 33 104 94 34 106 97 35 109 100 36 112 102 37 116 106 38 119 110 39 
123 115 41 128 120 42 134 125 44 140 131 46 144 135 48 148 139 48 149 141 49 
148 141 48 147 141 48 147 141 47 147 140 47 147 140 47 146 140 47 146 140 47 
146 140 47 145 140 46 145 140 46 145 141 46 146 141 46 146 141 47 146 141 47 
146 142 47 146 142 47 148 141 51 148 141 50 148 141 48 148 141 47 147 141 47 
147 141 47 147 141 46 147 141 46 147 140 47 147 140 47 148 140 47 148 140 47 
149 141 47 147 139 47 145 135 46 140 130 44 133 124 42 127 119 40 122 113 39 
117 108 37 113 104 36 110 101 35 106 97 33 103 94 32 100 91 32 98 89 31 
96 87 30 95 86 30 94 84 30 94 83 30 93 83 30 93 84 30 94 85 31 95 86 31 
96 88 32 98 90 33 101 92 34 104 95 34 107 98 35 110 102 36 113 106 37 
118 110 39 123 115 40 128 120 42 134 126 44 139 132 46 145 137 47 147 141 48 
147 141 48 147 141 48 147 141 47 147 141 47 146 140 47 146 140 47 146 140 47 
146 140 47 145 140 47 145 140 46 145 141 47 145 141 47 146 141 47 146 141 47 
146 142 47 146 142 47 146 139 50 147 140 49 147 141 48 147 141 48 147 141 47 
147 141 47 148 141 47 148 141 47 148 141 47 148 141 47 149 140 47 149 140 47 
149 141 48 146 138 47 140 131 44 134 125 42 128 119 40 122 114 38 117 109 37 
112 104 35 108 99 34 104 95 33 101 92 31 98 89 30 95 86 30 92 84 29 91 82 29 
89 80 29 89 79 29 88 78 29 88 78 29 88 79 29 89 80 29 90 81 30 91 83 30 
93 85 30 96 88 32 99 91 33 101 94 33 104 98 34 109 101 36 113 105 38 
118 110 39 123 116 40 129 121 42 134 128 44 141 135 46 145 139 47 147 141 48 
147 141 48 146 141 48 146 141 48 146 141 48 146 141 48 147 140 48 147 140 48 
147 140 48 146 140 48 146 140 49 146 140 49 147 140 49 147 141 48 146 141 48 
146 141 48 146 139 49 146 139 48 146 141 48 147 141 48 147 141 47 147 141 47 
148 141 47 148 141 47 148 141 47 148 141 47 149 141 47 149 140 47 148 139 48 
144 135 46 136 127 43 129 121 40 123 115 38 118 109 36 112 104 35 108 100 34 
104 95 33 100 91 32 96 88 30 93 85 29 90 82 29 88 80 28 87 78 28 86 77 28 
85 76 28 84 76 28 85 76 28 85 76 28 85 77 28 86 78 29 87 80 28 89 81 29 
91 84 30 94 87 31 96 90 31 100 94 32 104 97 34 109 101 36 113 106 37 
118 112 39 124 117 40 130 124 42 136 131 45 142 137 46 146 140 48 147 142 48 
146 141 48 146 141 48 146 141 48 146 141 49 147 140 49 147 140 49 148 140 49 
147 140 50 147 140 50 147 140 50 147 139 50 147 139 50 147 139 50 146 140 50 
145 140 48 145 140 48 146 141 47 147 142 47 147 142 47 148 142 47 148 141 47 
148 141 47 149 141 47 149 141 47 149 141 48 148 140 48 144 136 47 139 130 45 
132 123 42 125 117 39 119 111 37 113 105 35 108 100 33 104 96 32 100 92 31 
96 88 30 92 84 29 89 81 28 86 78 28 85 77 27 85 77 27 84 76 27 84 75 27 
83 75 27 83 76 27 83 76 27 83 76 28 84 77 28 84 77 27 85 79 28 87 80 28 
89 83 29 92 87 30 96 90 31 100 94 32 104 98 34 109 103 36 114 108 37 
119 114 39 125 120 41 132 127 43 138 133 46 144 139 48 147 142 49 147 141 49 
147 141 49 147 141 49 147 141 49 148 140 50 148 140 50 149 140 50 149 140 50 
149 140 50 148 139 51 148 138 51 148 138 52 148 138 52 148 139 53 145 140 48 
145 141 48 146 142 47 147 142 47 148 142 47 148 142 47 148 141 47 148 141 47 
149 141 47 150 141 47 150 142 48 147 139 48 141 133 46 135 126 43 129 120 41 
122 113 38 115 107 36 110 102 35 105 97 33 100 92 31 96 88 30 92 84 29 
89 81 28 86 78 27 84 76 27 83 75 27 84 76 27 84 76 27 83 75 27 83 75 27 
83 76 27 83 76 27 83 76 28 83 76 28 82 76 27 83 77 27 84 78 27 86 80 28 
89 83 29 92 87 30 96 90 31 100 95 32 106 100 34 111 105 36 116 110 38 
121 116 40 128 123 42 135 130 44 142 138 47 146 141 48 147 141 49 147 141 49 
147 141 49 147 141 49 148 140 49 148 140 50 149 140 50 149 139 50 149 139 50 
149 138 50 149 137 51 148 137 52 148 137 53 148 137 53 145 141 47 145 141 47 
146 141 46 147 141 46 148 142 46 148 142 46 149 142 47 149 142 47 150 141 47 
150 141 47 151 142 48 147 139 47 139 130 45 132 123 42 126 117 40 119 110 37 
112 104 35 107 99 34 102 94 33 97 89 31 93 84 30 90 81 29 86 78 28 84 76 27 
84 76 27 84 76 27 84 76 27 84 76 27 83 76 27 83 76 27 83 76 27 83 76 27 
83 76 27 83 76 27 83 76 27 83 76 27 82 77 27 83 78 27 86 80 28 89 83 29 
92 87 30 97 92 31 102 97 33 107 102 35 112 107 36 118 113 39 125 120 41 
132 127 43 139 135 45 144 139 46 146 140 47 147 140 48 147 140 47 147 140 47 
148 140 48 148 139 48 148 139 48 148 138 49 148 138 48 149 138 49 149 137 50 
150 137 51 149 136 51 149 136 51 145 141 47 145 141 47 147 141 46 147 141 46 
148 142 46 148 142 46 149 142 47 149 142 47 150 141 47 150 141 47 150 141 48 
146 137 47 137 128 44 129 120 41 123 114 39 116 108 37 110 102 35 104 96 33 
99 91 32 94 86 31 90 82 29 87 78 28 84 76 27 83 76 27 84 76 27 84 76 27 
84 76 27 84 76 27 83 76 27 83 76 27 83 76 27 83 76 27 83 76 27 83 76 27 
83 76 27 83 76 27 82 76 27 82 77 27 84 78 27 86 80 28 90 85 29 94 89 30 
99 94 32 104 99 33 110 105 35 116 111 37 122 117 39 129 124 41 137 132 43 
142 137 45 146 139 46 147 140 47 147 140 47 147 140 47 148 139 47 148 138 47 
148 138 47 148 138 47 148 138 47 148 138 48 150 137 49 150 137 49 150 136 49 
149 136 49 144 141 47 145 141 47 146 141 46 147 141 46 148 141 46 148 141 46 
149 141 46 149 141 47 150 141 48 150 141 48 148 139 47 143 134 45 135 126 43 
127 118 40 120 111 38 114 105 36 107 100 34 101 94 33 96 89 31 92 85 30 
87 80 28 84 78 27 83 77 27 83 77 27 83 77 27 83 77 27 84 76 27 84 76 27 
84 77 27 84 77 27 83 76 27 83 76 27 83 76 27 83 76 27 83 76 27 83 76 27 
83 77 27 82 77 27 82 77 27 84 79 28 88 83 29 92 87 30 96 92 31 102 97 32 
108 103 34 114 109 36 120 114 38 127 121 40 135 128 42 141 134 44 145 138 46 
147 140 46 147 140 47 147 139 47 147 138 47 147 138 47 148 138 46 148 138 46 
148 138 46 148 138 47 150 137 47 150 136 48 150 136 48 150 136 48 144 141 47 
145 141 47 147 141 46 148 141 46 148 141 46 148 141 46 149 141 46 150 141 47 
151 141 48 150 140 48 147 137 47 141 132 45 133 124 42 126 117 40 119 110 38 
112 103 36 105 98 33 99 92 32 94 87 30 90 83 29 85 79 27 83 77 27 83 77 27 
83 77 27 83 77 27 83 77 27 84 76 27 84 76 27 84 77 27 84 77 27 83 76 27 
83 76 27 83 76 27 83 76 27 83 76 27 83 76 27 83 77 27 83 77 27 82 76 27 
83 78 27 86 81 28 90 85 29 95 90 30 100 95 32 106 101 34 112 107 35 118 112 37 
125 118 39 133 126 42 139 132 44 144 137 46 147 140 47 147 139 47 147 139 47 
147 138 47 147 138 47 148 138 46 148 138 46 148 138 46 148 137 46 149 136 47 
150 136 47 150 136 47 150 136 47 145 140 46 146 140 46 147 141 45 148 141 45 
148 141 46 149 141 46 150 141 47 151 141 47 152 141 48 150 140 48 146 136 46 
140 130 44 132 122 42 124 115 40 117 109 37 110 102 35 104 96 32 98 90 30 
93 86 29 88 82 28 84 78 27 82 77 27 83 76 27 83 76 27 83 76 27 83 76 27 
83 76 27 83 76 27 83 77 27 83 77 27 83 77 27 83 77 27 84 77 26 84 77 26 
83 76 27 83 76 27 83 76 27 83 76 27 82 76 27 83 77 27 86 79 28 89 83 29 
94 88 30 99 93 31 105 99 33 111 105 35 117 110 37 124 117 39 132 124 42 
139 131 44 145 137 46 148 140 47 147 139 47 147 138 47 147 139 48 147 139 48 
147 138 47 147 138 47 147 137 47 148 137 47 149 137 47 150 137 47 150 136 47 
150 136 47 146 140 46 146 140 46 148 141 45 148 141 45 149 141 46 150 141 46 
151 141 47 152 141 47 152 142 48 150 140 48 146 136 46 139 129 44 131 121 42 
123 114 40 116 108 37 109 101 35 103 94 32 97 89 30 92 84 28 88 81 27 84 78 27 
83 76 27 83 76 27 83 76 27 83 76 27 83 76 27 83 76 27 83 76 27 83 77 27 
83 77 27 83 77 27 83 77 27 84 77 26 84 77 26 83 76 27 83 76 27 83 76 27 
83 76 27 83 76 27 84 76 27 85 78 28 88 81 28 93 87 29 98 92 31 104 97 33 
110 103 35 116 109 37 123 116 39 131 123 42 138 130 44 145 137 47 148 140 48 
148 138 47 147 138 48 147 139 48 147 139 48 147 138 48 147 138 47 147 137 48 
147 137 48 148 137 47 149 137 47 149 136 47 150 136 47 146 140 47 146 140 47 
147 141 46 148 142 46 149 141 47 150 141 47 151 142 47 151 142 47 152 142 49 
150 140 48 145 136 47 139 129 45 130 121 42 122 114 40 115 107 37 108 100 35 
102 94 32 96 88 30 91 83 28 87 80 28 85 77 27 83 76 27 84 76 27 84 76 27 
83 76 27 83 76 27 83 76 27 83 76 27 83 77 27 83 77 27 84 77 28 84 77 28 
84 76 27 84 76 27 83 76 28 83 76 28 84 76 27 84 76 27 83 76 27 83 76 27 
85 77 28 88 80 28 93 86 29 98 91 31 104 96 33 110 102 35 116 108 37 123 115 39 
130 121 42 138 128 45 145 136 47 149 139 48 149 138 48 148 138 49 148 138 49 
148 138 49 148 137 49 148 137 49 148 138 49 148 138 49 148 138 48 148 138 47 
148 137 48 148 137 48 146 140 47 146 140 46 148 142 46 149 142 46 149 141 47 
150 141 47 151 142 47 151 142 48 152 143 49 149 141 49 145 136 47 138 129 45 
130 121 43 122 113 40 114 106 37 108 100 34 102 94 32 96 88 30 91 83 29 
87 79 28 85 77 27 84 76 27 84 76 27 84 76 27 83 76 27 83 76 27 83 76 27 
83 76 27 83 77 27 83 77 27 84 77 28 84 77 28 84 76 27 84 76 27 83 76 28 
83 76 28 84 76 27 84 76 27 83 76 27 84 76 27 85 77 28 88 80 28 92 85 30 
98 90 31 104 96 33 110 102 35 116 108 37 123 114 39 130 120 43 138 127 45 
146 135 47 149 139 49 149 138 49 149 138 49 149 138 49 149 137 49 149 137 49 
149 137 50 149 138 50 148 138 50 148 138 49 148 138 49 148 137 49 148 137 49 
146 140 45 147 140 45 148 142 46 149 142 46 149 142 47 149 142 47 150 142 48 
151 142 48 152 143 49 149 140 49 144 136 48 138 129 46 130 121 43 122 113 40 
115 106 37 109 100 34 103 94 32 97 88 31 91 83 29 87 79 27 85 77 27 84 76 27 
84 76 27 84 76 27 84 76 27 84 76 27 83 75 27 83 75 27 83 76 27 83 76 27 
84 76 28 84 76 28 84 76 27 84 76 27 83 75 28 83 75 28 84 76 27 84 76 27 
84 75 27 84 75 27 85 77 28 88 80 29 93 84 30 99 90 32 105 96 33 111 102 35 
117 107 37 124 113 39 132 120 43 139 127 45 146 134 47 150 137 49 150 137 50 
150 136 50 150 136 50 150 137 50 150 137 50 150 137 50 150 137 50 149 138 50 
149 139 50 149 139 51 149 137 50 149 137 50 146 140 45 147 141 45 148 142 46 
149 142 46 149 142 47 149 142 47 150 142 48 150 142 48 152 143 49 149 141 49 
144 136 48 138 130 46 130 121 43 123 114 40 116 107 37 109 100 35 104 94 33 
98 89 31 92 83 29 88 79 28 85 77 27 84 76 27 84 76 27 84 76 27 84 76 27 
84 76 27 83 75 27 83 75 27 83 76 27 83 76 27 84 76 28 84 76 28 84 76 27 
84 76 27 83 75 28 83 75 28 84 76 27 84 76 27 84 75 27 85 76 27 86 77 28 
89 80 29 94 85 30 100 90 32 106 96 34 113 102 35 118 107 37 125 114 39 
133 121 43 141 128 45 147 134 47 151 137 49 151 136 49 151 136 50 151 136 50 
150 136 50 150 137 50 150 137 50 150 137 50 150 137 50 149 139 51 149 139 51 
149 138 51 149 137 51 147 141 46 147 141 46 149 142 47 149 142 47 150 142 48 
150 142 48 150 143 48 151 143 48 152 143 50 150 141 50 145 137 48 139 131 46 
131 122 42 124 115 40 117 108 38 110 102 36 104 95 34 99 89 32 93 84 29 
89 80 28 86 77 27 84 75 27 85 76 27 85 76 27 84 76 27 84 76 27 84 75 27 
84 75 27 84 76 27 84 76 27 85 76 27 85 76 27 85 76 27 85 76 27 84 76 27 
84 76 27 84 76 27 84 76 27 84 76 27 85 76 27 87 78 28 90 81 29 95 87 30 
101 92 32 108 97 35 114 102 36 120 108 37 127 115 39 135 122 43 143 129 45 
149 134 47 152 137 48 152 136 48 152 136 49 152 135 49 151 135 49 151 136 49 
151 136 50 151 136 50 150 137 50 149 139 50 149 139 50 149 139 50 149 139 50 
147 141 46 147 141 46 149 142 47 149 142 47 150 142 48 150 142 48 150 143 48 
150 143 48 151 144 50 150 142 50 146 138 49 140 132 46 132 124 43 125 116 41 
118 110 39 112 104 37 106 97 35 100 91 32 95 86 30 90 82 29 86 78 28 85 76 27 
85 76 27 85 76 27 84 76 27 84 76 27 84 75 27 84 75 27 84 76 27 84 76 27 
85 76 27 85 76 27 85 76 27 85 76 27 84 76 27 84 76 27 84 76 27 84 76 27 
84 76 27 85 77 27 88 79 29 92 83 30 97 88 30 103 93 32 109 98 35 116 103 37 
122 109 37 129 116 39 137 123 43 144 129 45 151 134 47 153 137 48 153 136 48 
152 136 48 152 135 48 152 135 49 151 136 48 151 136 49 151 136 49 151 137 50 
150 138 50 149 139 50 149 139 50 149 139 50 146 141 46 147 141 46 149 142 46 
149 143 47 149 143 48 148 143 48 148 143 48 149 143 48 150 143 49 149 142 49 
146 139 50 141 134 48 134 126 45 127 118 42 120 112 39 114 106 37 108 100 35 
102 94 33 97 89 31 92 84 30 87 80 28 85 77 27 84 77 27 84 77 27 83 76 27 
83 76 27 84 75 27 84 75 27 84 75 27 84 75 27 84 76 27 84 76 27 84 75 27 
84 75 27 84 76 27 84 76 27 84 75 27 84 75 27 84 75 27 86 77 27 90 80 29 
94 84 30 100 90 31 105 95 33 111 99 35 117 105 37 124 111 38 131 117 40 
139 124 43 145 130 45 152 135 46 154 136 47 153 135 47 153 135 47 153 135 47 
153 135 47 152 136 47 152 136 48 152 137 48 151 137 49 150 138 49 150 138 49 
150 139 50 150 139 50 146 141 46 147 142 46 148 143 46 149 143 46 148 143 48 
148 143 48 148 143 48 148 143 48 149 143 49 149 143 49 148 141 50 143 136 49 
136 128 46 129 121 43 122 115 40 116 108 38 110 102 36 104 97 35 99 92 33 
94 87 31 89 82 29 86 79 28 84 77 27 84 77 27 83 76 27 83 76 27 84 75 27 
84 75 27 84 75 27 84 75 27 84 76 27 84 76 27 84 75 27 84 75 27 84 76 27 
84 76 27 84 75 27 84 75 27 85 76 27 87 78 28 92 82 30 97 87 31 102 91 32 
108 97 33 113 102 35 120 107 37 127 113 39 134 120 41 141 127 43 147 132 45 
152 135 46 154 136 46 154 136 47 153 135 47 153 135 47 153 135 47 152 136 47 
152 136 47 152 137 48 151 137 48 150 138 49 150 138 49 150 139 50 150 139 50 
147 142 45 147 142 45 148 143 46 148 143 46 148 143 48 148 143 48 149 143 48 
149 143 48 149 144 49 149 144 49 149 143 50 146 139 49 138 131 46 131 124 43 
125 118 41 118 111 39 112 105 37 106 99 36 101 94 34 96 89 32 91 85 30 
88 81 29 85 78 28 84 76 27 84 76 27 83 76 27 83 76 27 83 76 27 83 76 27 
83 76 27 83 75 27 83 75 27 84 76 27 84 76 27 84 75 27 84 75 27 83 75 27 
84 76 27 87 78 28 90 81 29 94 85 31 99 89 32 105 94 33 111 99 34 116 105 36 
123 111 38 130 116 40 137 123 42 145 131 45 151 135 46 153 136 46 154 137 46 
154 137 47 154 136 47 153 136 47 152 136 47 153 136 47 153 136 47 152 137 48 
151 137 48 150 138 49 150 139 50 151 139 50 151 139 50 147 142 45 147 142 45 
148 143 46 148 143 47 148 143 48 148 143 48 148 143 48 149 143 48 149 144 49 
149 144 49 150 144 50 147 141 49 141 134 47 134 127 45 128 121 43 121 114 40 
115 108 38 109 102 37 104 97 35 99 92 34 95 89 32 91 84 30 87 80 29 85 78 28 
85 78 27 84 77 27 83 76 27 83 76 27 83 76 27 83 76 27 83 75 27 83 75 27 
83 76 27 84 76 27 84 75 27 84 75 27 84 76 27 86 78 28 90 81 29 93 84 30 
98 89 32 102 93 33 108 97 34 113 103 36 119 109 38 126 114 39 133 120 41 
140 126 43 148 134 45 152 137 47 153 138 46 153 138 46 154 137 47 153 137 47 
152 137 47 152 136 47 152 136 47 152 136 47 151 137 48 151 138 48 150 139 49 
150 139 50 151 139 50 151 139 50 145 142 45 146 142 45 147 143 46 147 143 47 
147 144 47 147 144 47 147 144 47 148 144 47 148 143 48 149 143 49 150 144 50 
148 141 50 143 136 48 138 130 46 131 124 44 125 117 41 119 111 39 113 105 38 
108 100 36 103 96 35 98 92 33 94 88 31 91 84 30 88 82 29 86 80 28 84 78 27 
83 76 27 82 75 27 83 75 27 83 76 27 83 75 27 83 75 27 83 76 27 83 76 27 
84 76 27 85 77 27 87 78 27 90 81 28 93 83 30 97 87 31 102 92 33 106 97 34 
111 101 35 116 106 37 123 112 39 129 118 40 136 124 42 143 130 44 149 136 46 
153 139 47 153 139 47 153 138 47 152 138 47 152 138 47 152 138 48 152 137 48 
151 137 48 151 137 48 151 137 48 151 138 48 150 139 49 149 140 49 150 140 50 
150 140 50 144 142 45 145 142 46 146 143 47 147 143 47 146 144 47 146 144 47 
147 144 47 147 144 47 148 143 48 148 143 48 149 143 50 148 142 50 146 139 49 
141 134 48 135 127 45 129 121 43 123 115 41 117 110 39 111 104 38 106 100 36 
102 96 35 98 92 33 94 89 32 91 86 30 89 83 29 87 80 28 85 78 28 84 77 27 
84 77 27 84 77 27 84 77 27 84 77 27 84 77 27 85 77 27 86 78 27 88 79 28 
90 81 28 93 84 29 97 87 31 101 91 32 106 96 34 110 101 36 114 106 37 
120 111 38 127 116 40 133 122 42 140 129 44 146 134 46 151 138 47 153 140 47 
153 139 47 152 139 47 151 138 47 151 138 47 152 138 48 151 138 48 150 137 48 
150 137 48 151 138 48 150 139 49 149 140 49 149 140 49 150 140 50 150 140 50 
144 141 46 145 142 46 146 143 46 146 143 46 146 144 47 146 144 47 147 143 47 
147 143 47 147 144 48 147 144 48 148 143 49 148 143 49 148 142 50 145 138 49 
139 131 46 133 125 44 128 120 43 122 115 41 115 109 40 110 104 38 107 100 37 
103 97 35 99 93 34 95 90 32 94 87 31 92 85 30 90 83 29 88 82 29 87 80 28 
86 80 28 86 79 28 87 79 28 87 80 28 89 81 28 91 82 29 93 84 29 94 85 30 
98 88 31 102 92 33 106 96 34 110 100 36 114 105 38 119 110 39 124 115 40 
131 121 41 138 127 43 146 135 45 151 139 47 152 139 48 152 139 48 152 139 47 
152 139 47 151 138 48 151 138 48 151 139 48 151 139 48 150 138 48 150 138 49 
150 139 49 150 140 50 149 140 50 149 141 50 149 141 50 149 141 50 144 141 46 
144 141 46 145 143 46 146 143 46 146 144 47 146 144 47 146 143 47 147 143 47 
147 144 48 147 144 48 148 143 49 148 143 49 149 143 50 147 141 49 143 135 47 
138 130 46 132 125 45 126 119 43 120 114 42 115 109 40 111 105 39 107 102 37 
103 98 36 100 95 34 98 92 33 96 90 32 94 88 31 92 87 31 91 85 30 90 84 30 
90 83 30 90 83 30 92 84 30 93 85 30 95 86 31 97 88 31 99 90 32 102 93 33 
106 96 34 110 100 36 114 105 38 119 110 39 124 115 40 129 120 41 135 126 43 
142 132 45 149 139 47 153 141 48 152 140 48 152 139 48 152 139 48 151 139 47 
151 138 48 151 138 48 151 139 48 150 139 49 150 139 49 150 139 50 150 140 50 
150 141 51 149 141 51 149 142 51 148 142 51 148 141 50 145 141 46 145 141 46 
145 143 46 145 143 46 145 143 46 145 143 46 145 143 46 146 143 46 146 144 47 
147 144 48 148 143 49 148 142 49 148 142 49 147 142 49 146 140 48 142 136 47 
136 130 46 131 124 45 126 119 43 121 114 42 116 110 41 112 106 39 108 103 38 
105 100 36 103 97 35 101 95 34 99 94 33 98 92 33 96 91 32 96 89 32 95 88 31 
96 88 31 97 89 32 98 90 32 100 91 33 101 93 33 104 96 34 107 99 35 111 102 36 
115 105 37 119 110 39 124 115 41 129 119 42 135 124 43 140 131 45 145 136 46 
150 140 48 153 141 49 152 140 50 151 139 49 151 139 49 150 139 48 150 138 49 
149 138 49 149 138 49 149 139 50 149 141 51 149 141 52 149 141 52 149 142 53 
148 143 53 148 143 52 147 143 52 146 142 51 145 141 46 145 141 46 145 142 46 
145 143 46 145 143 46 145 143 46 145 143 46 145 143 46 146 144 47 146 144 47 
147 143 48 148 142 49 147 142 49 147 142 49 148 143 49 146 140 48 141 135 47 
136 129 46 131 124 45 126 120 44 121 116 43 117 112 41 113 108 40 110 105 38 
108 103 38 106 101 37 104 100 36 103 98 35 102 97 34 102 95 34 101 94 33 
101 94 33 102 94 34 103 95 34 105 97 35 107 99 35 110 101 36 113 104 36 
117 107 37 121 111 39 125 115 41 129 120 42 135 125 43 140 130 45 144 135 46 
147 139 47 151 141 49 152 141 50 151 141 50 151 140 50 150 140 50 150 139 49 
149 138 49 149 138 49 149 139 50 149 140 51 149 142 52 149 143 53 149 143 53 
149 143 54 149 144 53 148 144 53 146 144 53 146 143 52 144 140 46 144 141 46 
144 142 45 144 142 44 144 142 45 144 142 45 145 143 46 145 143 46 146 144 47 
146 144 47 146 143 48 147 143 48 147 142 49 147 142 49 148 142 49 148 142 49 
146 140 49 143 137 48 138 131 47 132 126 46 127 122 45 123 118 43 119 114 41 
116 111 40 113 109 40 111 107 39 110 106 38 109 104 37 108 102 37 108 101 36 
107 101 36 107 101 36 108 101 36 110 101 36 112 102 37 114 104 37 116 107 38 
119 109 38 122 112 39 126 116 41 130 121 42 136 126 44 141 132 46 145 136 46 
147 139 47 149 140 47 151 141 48 152 141 50 151 141 50 151 141 51 150 141 50 
150 140 50 149 140 50 149 140 50 148 141 50 148 142 51 149 142 52 150 143 53 
150 144 54 150 145 54 149 145 54 148 145 54 147 144 53 147 144 53 144 140 46 
144 140 45 143 142 44 143 142 44 143 142 45 144 142 45 145 143 46 145 143 46 
146 143 47 146 144 47 146 143 48 146 143 48 147 142 49 147 142 49 148 142 49 
148 142 49 148 143 49 147 141 49 143 137 49 139 133 48 134 129 47 129 125 46 
126 121 44 123 118 43 120 116 43 117 114 42 116 112 41 115 110 40 114 109 39 
114 108 39 113 108 39 114 107 38 114 107 38 116 108 38 118 108 39 120 110 39 
123 113 40 126 116 41 128 119 41 132 123 43 137 127 44 142 132 46 146 137 47 
148 140 48 149 140 47 150 141 48 151 141 48 152 142 50 151 142 51 151 142 51 
150 142 51 150 141 50 149 140 50 149 141 50 148 142 51 148 143 52 149 143 52 
150 144 53 150 145 54 150 145 54 149 145 54 148 145 54 147 144 53 147 144 53 
143 139 45 143 140 44 142 141 44 142 142 44 143 142 45 144 142 45 144 142 45 
145 142 45 145 142 46 145 143 47 146 143 48 146 143 48 147 142 48 147 141 48 
146 141 49 147 142 49 148 143 50 148 143 50 148 142 51 146 140 50 141 136 49 
137 132 49 133 130 48 129 127 47 126 124 46 124 121 45 123 118 43 122 117 42 
121 116 42 120 115 42 120 114 42 121 114 41 121 114 40 122 115 40 125 116 41 
127 117 41 129 120 42 132 123 43 135 126 44 140 130 45 145 135 47 149 139 49 
149 140 49 149 141 49 149 140 49 150 140 49 151 141 49 152 142 50 151 144 52 
151 143 53 150 142 51 149 141 51 148 141 51 148 141 51 148 142 52 148 143 52 
149 144 52 149 144 52 149 145 53 149 145 53 149 146 54 148 145 54 147 144 53 
146 144 53 143 139 44 142 140 44 142 141 44 142 142 44 142 142 45 143 142 45 
143 142 45 144 142 45 145 142 46 145 142 46 146 143 47 146 143 48 147 142 48 
147 141 48 146 141 49 146 141 49 147 142 50 148 143 50 150 144 51 149 143 51 
146 141 51 143 138 51 139 137 50 136 134 50 134 131 49 132 129 48 131 126 46 
129 124 45 128 123 45 128 123 45 128 122 45 128 122 44 128 122 43 129 122 42 
131 123 43 134 125 44 136 128 45 139 130 46 141 132 46 145 135 47 149 140 48 
151 142 49 151 141 49 150 141 49 149 140 49 149 141 49 150 142 49 151 143 50 
151 144 52 150 144 53 149 143 52 149 142 51 148 141 51 148 142 51 148 143 52 
148 143 52 149 144 52 149 145 52 149 145 53 149 145 53 148 146 54 148 146 54 
146 145 53 146 144 53 141 139 43 141 140 43 141 141 44 141 141 44 142 141 44 
142 141 44 143 142 45 144 142 45 145 143 46 145 143 46 145 143 47 145 143 47 
146 142 48 146 142 48 147 142 49 147 142 49 147 142 49 148 143 50 148 144 51 
149 144 51 148 143 51 148 143 51 146 142 52 144 141 52 142 139 52 140 137 51 
139 135 49 138 133 49 136 132 49 135 131 49 136 131 48 136 130 47 136 130 46 
137 131 46 138 132 46 141 134 46 144 136 48 146 138 48 147 137 48 148 138 48 
149 140 48 150 141 48 150 141 49 150 141 49 149 141 50 149 142 50 149 142 50 
149 142 50 150 143 52 149 143 52 149 143 51 149 143 51 148 143 51 148 143 51 
147 143 52 147 143 52 148 144 52 148 145 52 148 145 53 148 145 53 148 146 53 
148 146 53 147 145 53 147 145 53 141 138 43 141 139 43 141 141 44 141 141 44 
141 141 44 142 141 44 142 142 44 143 142 45 144 143 46 145 143 46 145 143 46 
145 143 47 145 142 48 146 142 48 147 142 49 147 142 49 147 142 49 147 142 50 
147 143 50 148 144 51 149 144 51 149 144 52 149 145 53 148 144 53 147 143 53 
145 142 52 145 140 51 144 139 51 142 138 51 142 137 50 142 137 50 142 137 49 
142 137 48 143 137 48 144 138 48 145 139 48 148 141 49 150 141 49 150 140 48 
150 140 48 149 140 48 149 140 48 150 141 49 150 141 49 149 142 50 149 142 50 
149 142 50 149 142 50 149 143 51 149 143 52 149 143 51 149 143 51 148 143 51 
148 143 51 147 143 52 147 144 52 148 145 52 148 145 52 148 145 53 148 145 53 
148 146 53 148 146 53 147 145 53 147 145 53 140 137 43 140 138 43 141 142 45 
141 143 45 141 141 44 141 141 43 142 141 44 142 141 44 143 141 45 144 142 45 
144 142 46 144 142 46 145 143 47 146 143 47 146 142 48 146 142 49 146 142 50 
146 142 50 147 142 50 148 143 50 148 143 51 149 143 51 148 143 52 148 144 52 
148 144 52 148 143 52 148 142 51 148 142 51 147 142 51 146 141 51 146 141 50 
147 141 50 147 141 50 147 141 49 147 140 49 147 140 49 148 141 49 149 141 49 
149 141 48 149 141 48 148 141 48 148 141 49 149 142 49 149 142 49 149 142 50 
149 142 50 148 143 50 148 143 50 148 143 51 148 143 51 148 144 51 148 144 51 
148 144 51 148 144 51 148 144 52 148 144 52 148 144 52 148 144 52 148 145 53 
148 145 53 147 145 52 147 145 52 148 146 53 148 146 54 140 137 43 140 138 44 
141 142 46 141 143 46 141 142 44 141 141 43 142 141 44 142 141 44 143 141 45 
143 141 45 144 142 46 144 142 46 144 143 46 145 143 47 146 142 48 146 142 48 
146 142 49 146 142 50 147 142 50 147 142 50 148 143 51 148 143 51 148 143 52 
148 143 52 148 144 52 149 144 52 149 144 51 149 144 51 149 144 51 149 144 51 
149 143 50 149 143 50 148 143 50 148 143 50 148 142 50 148 141 49 148 141 49 
148 141 49 148 141 49 149 141 49 148 141 49 148 141 49 148 142 49 149 142 49 
149 142 50 149 142 50 148 143 50 148 143 50 148 143 51 148 143 51 148 144 51 
148 144 51 148 144 51 148 144 51 148 144 52 148 144 52 148 144 52 148 144 52 
148 145 53 148 145 53 147 145 52 147 145 52 148 146 54 148 146 54 140 137 43 
141 139 44 142 143 46 142 144 46 141 142 44 141 141 43 142 140 44 142 140 44 
143 141 45 143 141 45 144 142 46 144 142 46 144 142 46 145 142 47 146 142 48 
146 142 48 146 142 48 146 142 49 146 142 50 146 142 50 147 143 50 147 143 50 
147 143 51 147 143 51 148 144 51 148 144 51 149 144 52 149 144 52 148 144 52 
148 144 52 148 143 51 148 143 51 147 143 51 147 143 51 147 142 50 147 142 50 
147 142 50 147 142 50 147 142 50 148 142 50 148 142 50 148 142 50 147 142 49 
148 142 49 149 142 50 149 142 50 148 142 49 148 142 49 148 142 50 148 142 50 
148 143 50 148 143 50 148 143 51 148 143 51 147 144 51 147 144 51 147 144 51 
147 144 51 147 145 52 147 145 52 147 145 52 147 145 52 148 145 54 149 145 54 
143 138 45 143 140 46 143 143 47 143 144 47 141 142 44 141 141 43 141 140 43 
142 140 44 143 141 45 143 141 45 144 141 46 144 142 46 144 142 46 144 142 46 
145 142 47 146 142 48 146 142 48 146 142 48 146 142 49 146 142 50 147 142 50 
147 143 50 147 143 51 147 143 51 148 143 51 148 144 51 149 144 52 149 144 52 
148 144 52 148 144 52 148 143 51 148 143 51 147 143 51 147 143 51 147 142 50 
147 142 50 147 142 50 147 142 50 147 142 50 147 142 50 148 142 50 148 142 50 
147 142 49 147 142 49 148 142 50 149 142 50 148 142 49 148 142 49 148 142 50 
148 142 50 148 143 50 148 143 50 148 143 51 148 143 51 147 144 51 147 144 51 
147 144 51 147 144 51 147 145 52 147 145 52 147 145 52 148 145 52 149 145 53 
149 145 54 147 141 50 147 142 49 145 144 48 143 144 47 141 142 45 141 141 43 
141 141 43 142 141 44 143 141 45 143 141 45 144 140 46 144 141 46 145 142 47 
145 142 47 145 142 47 145 142 47 146 141 48 146 141 49 145 141 49 145 141 49 
146 141 50 146 142 50 146 142 50 146 142 50 147 142 51 147 143 51 147 143 51 
148 143 51 148 143 52 148 143 52 148 144 52 148 144 52 148 144 52 148 144 52 
147 143 51 147 143 51 147 143 51 147 143 51 147 142 50 147 142 50 147 143 51 
147 143 51 147 142 50 147 142 50 147 142 50 147 142 50 147 143 50 147 143 50 
147 142 49 147 142 49 147 143 50 147 143 50 147 143 50 147 143 50 147 144 51 
147 144 51 147 144 51 147 144 51 148 145 52 148 145 52 148 144 52 148 144 52 
149 144 53 149 144 53 151 143 52 149 143 51 146 144 49 143 144 47 142 142 45 
141 141 44 141 141 43 141 141 43 143 141 44 143 141 45 144 140 46 145 140 46 
145 141 47 145 142 47 145 142 47 145 142 48 146 141 49 146 141 49 145 141 49 
145 141 49 146 141 50 146 141 50 146 142 50 146 142 50 147 142 51 147 142 51 
147 143 51 147 143 51 148 143 52 148 143 52 148 144 52 148 144 52 148 144 52 
148 144 52 147 143 51 147 143 51 147 143 51 147 143 51 147 143 50 147 142 50 
147 143 51 147 143 51 147 143 50 147 142 50 147 142 50 147 142 50 147 143 50 
147 143 50 147 142 49 147 142 49 147 143 50 147 143 50 147 143 50 147 143 50 
147 144 51 147 144 51 147 144 51 147 144 51 148 145 52 148 145 52 148 144 52 
148 144 52 149 144 53 149 144 53 152 145 54 150 145 53 146 144 49 143 144 47 
142 142 46 142 141 44 142 140 43 142 139 43 143 140 44 143 140 45 144 141 46 
145 141 47 146 141 47 146 141 47 146 141 48 146 141 48 147 142 49 147 142 49 
146 141 48 146 141 49 146 141 50 146 141 50 146 142 49 146 142 50 146 142 51 
146 142 51 147 143 50 147 143 51 147 143 52 147 143 52 148 144 51 148 144 52 
148 144 53 148 144 53 148 144 52 148 144 52 147 144 52 147 144 52 147 144 51 
147 143 51 146 143 51 146 143 51 147 144 51 147 143 51 147 143 50 147 143 50 
146 143 50 146 143 50 146 142 49 146 142 49 146 142 50 146 142 50 146 142 50 
146 142 50 147 143 51 147 143 51 147 143 51 147 143 51 148 144 52 148 144 52 
148 144 53 148 144 53 149 144 54 149 144 54 152 145 54 150 144 52 145 144 49 
143 144 47 142 143 45 142 141 44 142 140 44 142 139 44 143 140 45 144 140 46 
145 141 47 145 141 47 146 141 47 146 141 47 146 141 48 146 141 48 147 142 49 
147 142 49 146 141 48 146 141 48 146 141 49 146 141 50 146 142 49 146 142 49 
146 142 50 146 142 51 147 143 50 147 143 50 147 143 51 147 143 52 148 144 51 
148 144 51 148 144 53 148 144 53 148 144 52 148 144 52 147 144 52 147 144 52 
147 144 51 147 144 51 146 143 51 146 143 51 147 144 51 147 144 51 147 143 50 
147 143 50 146 143 50 146 143 50 146 142 49 146 142 49 146 142 50 146 142 50 
146 142 50 146 142 50 147 143 51 147 143 51 147 143 51 147 143 51 148 144 52 
148 144 52 148 144 53 149 144 53 149 144 54 149 144 54 150 142 51 148 142 50 
144 143 48 143 143 46 143 143 45 143 141 44 143 140 45 143 140 46 143 140 46 
144 141 46 145 142 47 145 142 47 146 141 47 146 141 47 146 142 48 146 142 48 
146 141 48 146 141 48 147 141 48 146 141 48 145 141 49 145 141 49 146 142 49 
146 142 49 146 142 50 146 142 50 147 143 50 147 143 50 147 143 51 147 143 51 
148 144 51 148 144 51 148 144 52 148 144 52 148 145 52 148 145 52 147 143 52 
147 143 52 147 145 51 147 145 51 146 144 51 146 144 51 146 144 50 146 144 50 
146 143 50 146 143 50 146 143 49 146 143 49 147 143 50 147 143 50 146 142 50 
146 142 50 147 143 50 147 143 50 147 143 51 147 143 51 148 143 51 148 144 51 
148 144 52 148 144 52 149 144 53 150 145 54 149 145 54 149 145 54 147 140 49 
146 140 49 144 142 47 143 143 46 143 142 44 143 141 44 143 140 45 143 140 46 
144 141 46 144 141 46 145 142 47 145 142 47 146 141 47 146 141 47 146 142 48 
146 142 48 146 141 48 146 141 48 147 141 48 147 141 48 146 141 49 145 141 49 
146 142 49 146 142 49 146 142 50 146 142 50 147 143 50 147 143 50 147 143 51 
147 143 51 148 144 51 148 144 51 148 144 52 148 144 52 148 145 52 148 145 52 
147 143 52 147 143 52 147 145 51 147 145 51 146 144 51 146 144 51 146 144 50 
146 144 50 146 143 50 146 143 50 146 143 49 146 143 49 147 143 50 147 143 50 
146 142 50 146 142 50 147 143 50 147 143 50 147 143 51 147 143 51 148 144 51 
148 145 52 148 144 52 148 144 53 150 145 54 150 146 55 149 146 54 149 145 54 
145 137 47 145 138 47 144 141 47 143 142 46 142 141 44 142 141 44 143 141 45 
144 141 45 144 141 46 144 141 46 145 141 47 145 141 47 146 142 48 147 142 48 
147 142 48 147 142 48 147 142 49 147 142 49 147 142 49 147 142 49 147 141 49 
147 141 49 147 141 49 147 141 49 146 141 50 146 141 50 147 142 49 147 142 49 
147 142 51 147 142 51 148 143 50 148 143 50 148 143 52 148 143 52 148 144 51 
148 144 51 147 144 52 147 144 52 147 144 51 147 144 51 147 144 51 147 144 51 
146 143 50 146 143 50 147 144 51 147 144 51 146 143 49 146 143 49 147 143 50 
147 143 50 147 142 50 147 142 50 147 143 50 147 143 50 147 143 51 147 144 51 
148 145 52 148 146 53 148 145 53 148 145 53 150 147 55 150 147 56 150 147 55 
150 147 55 144 136 46 144 138 46 144 140 46 143 141 45 142 141 44 142 141 44 
144 141 45 145 141 46 144 141 46 145 141 46 145 141 47 146 141 47 147 142 48 
147 142 48 147 142 48 147 142 48 147 142 49 147 142 49 147 142 49 147 142 49 
147 141 49 147 141 49 147 141 49 147 141 49 147 141 50 147 141 50 147 142 49 
147 142 49 147 142 51 148 142 51 148 143 50 148 143 50 148 143 52 148 143 52 
148 144 51 148 144 51 148 144 52 147 144 52 147 144 51 147 144 51 147 144 51 
147 144 51 146 143 50 146 143 50 147 144 51 147 144 51 146 143 49 146 143 49 
147 143 50 147 143 50 147 142 50 147 142 50 147 143 50 147 143 50 147 143 51 
147 144 52 148 145 53 148 146 53 148 145 53 149 146 54 150 148 56 150 148 56 
150 147 55 150 147 55 144 137 46 144 138 46 143 139 45 143 141 45 143 141 45 
143 142 45 145 142 46 146 143 47 146 143 47 146 142 47 146 142 48 147 142 48 
146 143 48 147 143 48 148 142 48 148 142 48 147 143 49 147 143 49 147 142 49 
147 141 49 148 142 49 148 142 49 148 141 49 148 141 49 148 142 50 148 142 50 
148 142 50 148 142 50 148 143 51 149 143 51 148 143 51 148 143 51 149 144 52 
149 144 52 148 144 52 148 144 52 149 144 52 148 144 52 147 144 51 147 144 51 
148 144 51 148 144 51 147 144 50 147 144 50 148 143 50 148 143 50 147 143 49 
147 143 49 147 142 49 147 142 49 148 142 50 148 142 50 148 143 50 148 143 50 
148 144 51 148 144 52 149 145 53 149 145 53 149 145 53 149 146 54 150 148 56 
150 148 56 150 147 55 150 146 55 144 137 46 144 138 46 143 139 45 143 141 45 
143 142 45 144 142 46 146 143 47 146 143 47 146 143 47 146 143 47 147 142 48 
147 142 48 146 143 48 146 143 48 148 142 48 148 142 48 147 143 49 147 143 49 
147 141 49 147 141 49 148 142 49 148 142 49 148 141 49 148 141 49 149 142 50 
149 142 50 148 142 50 148 142 50 149 143 51 149 143 51 148 143 51 148 143 51 
149 144 52 149 144 52 148 144 52 148 144 52 149 144 52 149 144 52 147 144 51 
147 144 51 148 144 51 148 144 51 147 144 50 147 144 50 148 143 50 148 143 50 
147 143 49 147 143 49 147 142 49 147 142 49 148 142 50 148 142 50 148 143 50 
148 143 50 148 144 52 148 144 52 149 145 53 149 145 53 149 145 53 149 146 54 
150 148 55 150 148 56 150 146 55 150 146 55 
