P3
64 64
255
113 107 44 121 114 45 138 129 47 148 138 48 149 140 49 140 132 48 121 114 45 
117 110 44 126 118 46 127 120 47 120 113 46 115 109 45 113 107 44 117 111 44 
129 121 45 136 127 47 138 130 48 137 129 48 134 126 47 129 121 46 123 116 45 
118 111 45 114 108 44 120 114 45 135 129 48 135 128 48 119 111 45 118 110 44 
133 125 46 141 133 47 142 134 47 144 135 47 145 136 47 147 137 47 150 139 47 
147 137 47 138 131 47 133 127 47 131 124 46 132 125 46 137 129 47 132 124 46 
117 111 44 116 110 44 129 121 46 136 128 48 139 131 48 133 126 47 119 113 45 
112 106 44 112 106 44 115 109 44 122 115 45 122 115 45 115 109 44 113 107 44 
114 108 44 114 108 44 114 108 44 114 108 44 114 109 44 115 109 44 114 108 44 
114 108 44 120 113 44 127 119 45 141 132 48 149 139 49 149 140 50 140 133 48 
124 117 45 120 113 45 128 120 46 128 120 47 120 114 45 115 109 44 113 108 44 
118 112 44 129 121 45 136 127 47 138 130 48 137 128 48 131 123 46 127 120 46 
125 117 45 122 114 45 118 112 44 122 116 45 134 127 47 133 126 47 121 113 45 
120 112 44 133 124 46 138 130 47 136 129 46 136 128 46 137 128 46 139 129 46 
141 131 46 140 131 47 136 129 47 133 126 47 132 124 46 133 126 46 139 131 47 
136 128 47 123 116 45 122 115 45 131 124 46 137 128 47 137 129 48 131 123 47 
118 112 45 113 107 44 116 110 45 121 114 45 126 119 45 125 118 45 118 112 44 
114 108 44 114 108 44 114 108 44 114 108 44 115 109 44 115 109 44 115 109 44 
114 108 44 114 108 44 134 125 46 138 130 47 148 139 50 151 142 51 149 140 50 
142 134 49 131 124 47 127 120 46 131 124 46 129 122 46 120 114 44 115 110 44 
115 109 44 119 113 45 129 122 46 136 127 46 138 129 47 135 126 47 126 118 46 
123 116 45 129 120 46 130 121 46 127 120 46 128 120 46 131 123 46 130 122 45 
124 116 44 124 117 44 132 123 45 132 123 45 124 116 44 119 112 43 119 111 43 
120 112 43 122 114 44 126 119 45 132 124 46 134 126 46 133 124 46 136 127 47 
144 135 48 144 136 48 137 129 47 134 127 46 137 129 47 137 128 47 132 124 47 
126 118 46 116 110 44 117 110 44 127 119 47 133 124 47 135 127 47 132 124 46 
124 116 45 118 111 44 114 108 45 113 108 45 115 109 45 116 110 45 117 111 45 
116 111 44 114 108 44 113 107 44 142 133 47 145 136 48 151 142 50 152 143 51 
147 138 50 139 132 49 130 123 47 126 119 45 127 121 45 126 119 45 122 116 44 
120 114 44 120 114 45 124 117 45 130 123 46 134 126 46 136 127 47 133 125 46 
126 118 45 126 118 45 133 124 46 136 127 46 134 125 46 131 122 46 128 120 45 
126 118 44 124 118 44 125 118 44 128 119 44 124 116 44 115 108 42 110 103 41 
108 101 41 109 102 42 113 107 43 120 113 44 129 121 45 132 124 46 131 122 45 
135 126 46 143 134 47 145 136 48 141 133 47 140 132 47 141 132 47 138 129 47 
132 123 46 124 117 45 117 110 44 119 113 45 132 124 47 138 129 48 138 130 47 
136 128 47 131 122 46 127 119 46 123 116 46 122 115 46 125 117 46 126 118 46 
127 120 46 124 118 45 119 112 45 116 110 44 145 135 47 147 137 48 151 142 50 
149 141 51 143 134 49 133 126 48 122 115 45 116 110 44 116 110 44 119 113 44 
126 119 45 130 122 46 130 122 46 131 122 46 132 124 46 132 124 46 131 123 46 
131 123 46 132 123 45 135 125 45 139 129 46 140 130 46 137 127 46 132 123 45 
124 116 44 121 114 43 123 116 43 123 116 43 120 113 43 115 109 42 110 105 42 
106 101 41 104 97 40 106 100 41 114 108 42 120 114 44 126 118 44 128 120 44 
127 118 44 129 121 44 135 127 45 137 129 46 136 128 46 138 130 47 142 134 47 
141 132 47 134 125 47 127 118 46 119 112 45 121 114 45 132 124 47 136 129 48 
135 127 47 136 127 47 139 130 47 140 131 47 140 130 47 140 131 47 142 133 47 
144 134 47 144 135 48 139 130 47 129 121 46 124 116 46 140 130 46 140 131 47 
142 134 48 141 133 49 137 129 48 130 122 47 118 112 45 114 108 44 116 110 44 
122 115 45 132 124 46 137 128 47 137 128 47 137 127 46 135 126 46 131 123 46 
124 117 44 123 116 44 128 120 44 133 123 44 136 126 45 137 127 45 136 126 45 
131 122 44 124 116 43 121 114 43 123 116 43 122 115 42 118 111 42 114 108 41 
111 105 41 108 103 41 108 101 40 111 104 41 119 113 43 125 118 44 128 120 44 
127 119 44 121 113 42 121 114 42 127 119 44 131 123 45 134 125 45 136 128 46 
139 130 46 137 128 46 130 121 46 124 115 45 118 111 45 122 115 46 135 128 48 
140 133 49 138 130 48 139 130 48 143 133 48 146 136 48 148 138 48 150 140 49 
151 141 48 151 140 48 147 137 48 140 131 47 130 121 46 125 117 46 127 119 45 
126 118 45 124 116 45 125 118 45 129 122 46 128 121 45 120 114 45 120 113 45 
128 120 46 134 126 47 139 131 47 142 133 48 142 133 48 141 132 47 141 131 47 
133 124 45 116 109 43 111 105 42 115 109 42 120 113 42 124 116 43 127 118 43 
129 120 43 129 120 43 128 119 43 126 117 42 124 115 41 123 114 41 122 114 41 
119 112 40 116 109 40 116 109 40 118 110 41 123 115 42 130 122 44 134 126 45 
135 126 45 128 120 43 113 107 41 110 104 40 118 112 42 126 118 43 133 124 44 
134 125 44 130 121 44 125 116 44 118 111 44 114 108 44 113 107 44 122 115 45 
141 134 49 150 142 50 147 140 50 145 137 49 143 133 48 144 134 48 148 138 49 
151 141 50 152 142 49 147 137 48 136 127 47 128 120 46 122 115 45 119 113 45 
121 114 45 119 112 44 114 107 44 115 109 44 122 116 44 125 118 45 123 116 45 
126 118 46 134 126 47 140 131 48 143 134 48 145 136 48 146 137 49 144 134 48 
138 128 46 127 118 44 109 103 41 104 98 40 112 106 41 115 109 41 115 108 41 
116 108 41 118 110 41 120 112 41 123 114 41 121 113 41 116 107 39 116 107 39 
120 112 39 121 113 39 117 110 39 118 110 39 122 114 40 126 117 41 130 121 42 
131 123 43 130 122 43 122 115 42 106 101 39 102 98 38 111 105 40 120 113 41 
129 120 42 129 120 42 122 114 42 116 109 42 111 105 42 110 104 43 113 107 43 
124 118 45 143 135 49 151 143 50 149 141 50 146 138 49 143 134 47 144 135 48 
150 141 50 154 144 51 155 145 50 149 139 49 135 127 47 126 118 46 120 113 45 
117 111 45 122 115 45 119 112 44 113 107 44 112 106 43 116 110 44 120 114 44 
125 119 45 131 123 46 136 128 47 140 131 48 144 134 48 147 137 49 150 140 49 
143 134 47 127 118 44 114 106 41 103 96 40 104 98 40 117 109 41 119 111 41 
109 102 39 104 98 38 102 97 38 104 98 38 109 101 38 106 99 38 98 91 36 
100 94 36 114 107 37 119 111 38 115 107 38 115 107 38 119 111 38 120 112 39 
118 110 39 116 109 40 115 108 40 110 104 39 99 94 37 98 93 37 107 100 38 
114 107 40 121 113 41 122 114 41 115 108 41 111 104 41 108 102 41 112 105 42 
120 113 43 130 122 45 141 133 47 145 137 48 143 135 48 142 134 48 143 135 48 
147 139 49 154 146 51 158 149 51 159 149 51 155 145 50 144 136 48 134 127 47 
125 117 46 120 113 46 130 122 46 127 120 46 123 116 45 121 114 45 121 115 45 
124 118 45 130 123 46 132 125 47 132 124 46 133 125 47 136 127 47 139 129 47 
141 132 47 134 125 45 117 109 41 105 98 39 99 93 39 103 97 39 117 109 40 
119 110 40 108 101 38 100 95 37 96 91 37 95 90 36 98 92 36 96 90 36 88 83 35 
91 86 35 106 99 36 113 106 36 112 105 37 114 106 37 117 109 38 115 107 38 
108 101 37 104 97 37 103 97 37 100 95 37 97 91 36 98 93 36 105 99 37 111 104 38 
117 110 40 116 109 41 108 102 40 105 99 39 107 101 40 114 107 41 126 118 43 
133 125 45 134 127 46 135 128 46 135 128 47 136 129 47 139 131 47 143 135 48 
148 140 50 152 143 50 155 145 50 154 144 50 148 139 49 140 132 48 131 123 47 
127 118 46 143 135 48 144 135 48 144 136 49 142 134 49 139 131 48 137 129 47 
135 128 48 130 124 47 123 115 45 119 112 44 120 113 44 120 113 44 119 112 43 
115 108 42 107 100 39 101 95 38 98 93 38 102 96 38 111 104 39 114 106 39 
111 104 38 106 99 37 97 92 36 92 88 35 91 87 35 89 85 34 86 82 34 89 84 34 
97 91 34 103 97 35 109 103 37 113 106 37 115 108 38 111 104 37 100 95 36 
94 89 35 93 88 35 94 88 35 98 91 35 102 95 36 106 100 37 111 104 38 116 109 40 
113 106 40 101 96 38 99 94 38 106 100 39 117 110 41 131 123 43 134 126 44 
125 118 44 122 116 44 127 120 46 129 121 47 129 121 46 130 122 46 131 124 47 
136 128 47 143 133 47 146 137 47 145 137 49 143 135 49 139 130 48 137 128 48 
153 144 50 153 144 50 154 145 50 152 142 50 147 138 49 143 134 48 141 133 49 
133 126 48 119 113 45 113 106 43 113 107 43 111 105 42 108 101 41 104 98 39 
100 94 38 98 93 37 98 93 38 101 96 38 108 101 38 111 104 38 110 103 38 
106 99 37 97 92 35 91 87 34 88 84 34 86 82 33 84 81 33 86 82 33 90 85 33 
97 91 34 105 99 36 109 103 37 108 103 36 103 98 36 93 88 35 88 83 34 88 83 33 
90 85 33 95 88 34 100 93 35 105 99 36 111 105 38 117 110 40 112 106 39 
98 93 37 96 90 37 105 99 38 115 108 40 127 119 42 127 120 43 117 111 42 
114 108 43 120 113 45 125 117 46 129 120 46 129 121 46 126 118 46 129 121 46 
137 128 46 142 133 47 144 135 48 144 136 49 143 135 48 143 134 48 158 149 52 
157 147 51 153 143 50 149 139 49 145 135 48 144 135 48 146 137 49 139 131 48 
122 116 45 114 109 43 115 108 43 113 105 42 106 100 40 101 96 39 97 92 37 
96 91 37 98 92 37 102 96 37 108 101 37 109 102 37 105 99 37 101 95 36 
95 90 34 91 86 33 89 84 33 86 81 33 82 79 32 83 79 31 87 82 32 93 87 33 
101 94 34 102 96 35 97 92 34 92 87 34 87 82 33 85 80 32 87 83 32 88 83 32 
87 82 32 92 86 33 102 96 35 111 105 37 119 112 39 114 107 39 98 92 36 94 88 36 
103 97 37 109 103 39 113 107 41 114 107 41 110 104 41 111 105 42 116 109 43 
124 117 45 137 128 46 140 130 47 132 123 46 132 123 46 138 130 47 142 134 47 
143 135 48 144 136 48 144 136 48 144 136 48 156 148 52 155 146 51 152 142 49 
149 139 48 146 136 48 144 135 48 144 135 49 136 128 47 120 114 45 112 107 43 
113 105 42 110 102 41 103 98 39 100 95 38 100 95 38 101 95 37 101 95 37 
104 97 37 108 101 37 108 101 37 103 97 36 98 93 35 92 87 33 90 85 32 90 85 33 
87 82 33 81 78 31 81 77 31 84 81 32 89 85 32 95 91 33 95 90 33 87 84 33 
83 81 32 83 79 32 85 81 32 89 85 32 90 86 32 88 83 32 90 85 33 99 93 34 
106 100 36 111 105 37 108 101 37 95 90 35 92 87 35 99 93 37 102 97 38 
104 98 39 104 99 39 105 99 40 107 101 41 111 104 41 120 113 43 136 127 46 
139 130 47 132 122 46 129 121 46 133 125 46 136 128 47 138 130 47 140 132 48 
143 135 48 145 136 48 147 139 50 148 139 50 150 140 49 150 141 48 150 141 48 
145 136 48 135 127 47 124 117 46 114 108 43 107 101 41 105 98 40 102 96 39 
99 94 38 101 96 38 109 103 39 111 105 39 109 102 38 107 101 37 107 101 37 
106 100 37 104 98 36 98 93 35 88 83 32 86 81 32 92 86 33 90 85 32 81 78 31 
79 77 31 83 81 32 86 85 32 89 89 33 87 87 32 79 80 31 78 78 31 82 81 32 
87 85 33 94 91 33 97 92 34 96 91 33 96 90 33 95 90 33 95 89 33 94 89 34 
92 88 34 90 85 34 90 85 35 93 88 36 96 90 36 98 93 37 99 94 38 100 95 38 
102 96 39 105 99 40 112 106 41 123 116 44 127 119 45 124 116 45 122 115 45 
122 115 45 124 117 46 128 121 46 134 126 47 142 133 48 146 136 48 135 128 48 
137 130 48 142 133 48 145 136 48 146 138 48 142 133 47 131 123 46 121 115 45 
113 107 42 108 102 41 106 100 40 103 97 39 97 92 37 100 94 37 110 104 39 
112 105 39 104 98 36 102 96 35 104 98 36 103 98 36 99 93 34 93 88 33 85 80 31 
83 78 30 87 81 30 86 79 30 80 71 28 79 68 27 84 70 28 88 72 28 92 74 28 
90 72 27 84 66 26 83 65 26 88 71 27 91 77 29 94 82 30 95 86 31 96 88 32 
94 88 32 89 84 31 85 81 31 82 78 30 81 77 31 83 79 32 84 80 33 86 81 33 
90 85 34 96 91 36 99 94 37 98 93 37 100 94 38 104 98 39 109 103 41 115 109 43 
119 112 44 118 112 44 118 111 45 116 109 44 119 112 45 125 118 46 132 124 46 
139 130 47 143 133 48 121 115 45 124 117 45 129 121 46 133 124 47 135 127 47 
135 127 46 132 124 46 127 120 45 119 113 43 116 110 42 118 111 42 112 106 40 
98 93 37 96 91 36 104 98 38 102 96 36 88 83 30 87 82 29 98 93 33 98 93 33 
87 83 30 82 78 29 82 78 28 80 75 28 76 70 26 74 63 24 76 55 22 81 50 20 
88 48 19 95 47 18 103 48 18 105 46 18 101 42 17 100 44 17 100 51 19 97 56 21 
89 59 22 85 65 24 85 75 27 84 78 28 80 76 28 77 73 28 74 71 28 74 70 28 
74 71 29 76 72 29 77 73 30 85 80 32 98 92 36 103 97 37 99 94 37 101 95 38 
106 100 40 110 104 41 112 106 42 114 107 43 115 108 43 115 108 43 114 107 44 
119 112 45 129 121 46 134 127 47 135 127 47 136 127 46 113 108 43 116 109 44 
120 113 45 124 117 46 128 120 46 132 124 46 136 128 47 135 127 46 128 121 44 
123 117 43 121 114 42 113 107 40 99 94 37 94 89 36 99 93 37 95 90 34 84 79 29 
84 80 28 97 92 32 96 91 32 82 79 29 78 73 28 83 75 27 85 70 25 84 59 22 
87 51 20 94 44 17 102 40 16 112 39 14 120 38 14 126 37 14 128 36 14 126 33 13 
125 35 14 124 42 15 118 45 16 107 47 17 99 52 19 94 62 22 87 68 25 78 68 26 
74 69 27 75 71 28 75 72 29 76 72 29 79 75 29 83 79 30 91 86 32 103 97 36 
105 99 37 100 94 37 100 94 37 105 99 40 109 103 41 111 104 41 113 106 42 
117 110 43 120 112 43 120 113 44 125 118 45 134 126 47 137 129 47 133 125 46 
131 123 46 112 106 44 113 107 44 117 110 44 120 113 44 124 116 45 131 124 46 
142 134 48 145 137 48 140 132 46 131 123 44 117 109 41 106 100 39 99 94 37 
95 90 36 93 88 35 92 87 34 91 86 31 94 89 31 102 96 33 98 93 34 84 82 32 
80 75 29 88 71 26 99 63 22 112 51 18 123 42 16 133 37 15 143 38 15 155 42 15 
161 44 15 161 43 15 161 41 15 159 39 15 159 39 15 160 43 15 157 45 15 
148 44 15 137 46 16 122 51 18 104 55 20 85 60 23 77 67 27 82 78 31 86 84 32 
88 84 32 93 89 33 103 97 35 108 103 36 110 104 37 107 101 37 99 93 36 97 91 36 
101 95 38 105 99 39 110 103 41 117 109 42 125 117 43 131 123 44 134 126 46 
138 129 46 141 133 47 139 131 47 132 124 46 129 121 46 119 112 45 120 113 45 
122 115 44 123 116 44 122 115 44 128 121 45 142 134 47 147 139 47 143 134 46 
132 124 43 115 107 40 104 97 38 98 93 36 93 88 35 88 84 34 88 84 33 93 89 32 
98 93 32 102 96 34 98 90 33 86 76 30 88 66 26 102 60 23 117 52 19 135 42 15 
147 36 14 155 34 13 164 36 14 175 43 16 180 47 16 179 47 16 177 45 16 
174 41 15 173 40 15 174 42 15 173 43 15 170 43 15 160 43 15 145 44 15 
125 46 17 102 50 20 90 58 24 90 72 28 91 82 31 92 87 32 99 95 34 111 106 37 
115 109 38 111 105 37 106 100 37 100 95 36 99 93 36 101 95 37 105 98 38 
112 104 40 119 111 42 128 119 43 136 127 45 144 135 47 148 139 48 147 139 48 
142 133 47 132 124 46 127 119 46 135 127 46 135 127 46 136 128 47 132 125 46 
123 116 45 124 118 45 136 128 46 140 131 45 135 127 44 127 119 42 116 109 39 
106 99 37 96 91 35 88 84 34 83 79 33 84 80 32 90 86 31 94 91 31 97 93 33 
95 82 30 90 60 24 99 46 19 123 42 17 141 38 15 152 35 14 159 33 14 160 33 14 
164 36 14 172 42 16 176 46 17 179 48 17 177 47 17 170 41 16 167 38 15 
167 38 14 169 39 14 171 42 15 170 43 15 164 41 15 151 39 15 130 38 15 
113 42 17 98 53 21 90 66 25 90 81 30 95 93 34 108 103 36 111 106 37 106 100 36 
104 98 36 105 99 36 105 99 37 105 98 37 109 101 39 116 108 40 122 113 42 
125 117 43 135 126 46 150 141 49 156 146 50 152 143 49 144 135 48 133 124 46 
127 118 46 145 135 47 144 134 47 141 133 47 134 127 46 122 116 44 121 115 44 
130 123 44 134 126 44 131 123 43 124 117 41 114 107 39 103 97 36 93 89 34 
87 83 33 83 80 32 83 79 31 86 82 29 91 82 29 97 80 29 101 69 26 104 48 19 
117 37 15 141 34 14 155 32 13 162 33 14 164 33 14 163 33 14 164 36 14 
168 40 15 172 43 16 175 46 17 173 45 16 167 39 15 164 36 14 164 36 14 
166 37 14 170 41 15 172 42 15 171 39 15 165 37 14 153 35 14 137 37 14 
117 43 16 103 53 20 97 69 26 97 83 30 104 96 34 106 101 36 104 98 36 105 99 36 
109 103 37 111 105 38 110 103 38 112 104 39 117 108 40 119 111 41 119 112 42 
127 120 45 143 135 48 149 140 49 145 137 49 141 132 48 135 126 47 133 123 46 
148 138 47 144 135 47 137 128 47 129 121 46 121 113 44 120 112 43 126 118 43 
129 122 43 130 123 43 123 116 41 107 101 38 96 91 35 91 86 34 88 84 33 
88 84 33 86 81 31 81 75 27 87 67 24 103 58 21 117 50 19 129 42 16 141 37 15 
154 35 14 161 34 14 163 34 14 163 34 14 163 34 14 163 35 14 165 37 14 
167 39 15 168 40 15 168 40 15 165 37 15 163 35 14 163 35 14 165 37 14 
167 39 15 168 39 15 167 37 15 168 39 15 170 43 15 162 44 15 146 42 15 
129 44 17 113 51 20 104 64 24 100 83 30 101 94 33 104 98 35 109 103 37 
115 108 38 117 110 39 116 109 39 115 107 39 113 106 39 111 104 39 109 103 40 
113 107 42 123 117 44 128 121 45 127 120 45 131 123 46 140 131 47 143 134 48 
143 134 47 140 130 46 132 123 46 124 116 45 117 109 43 116 108 42 120 113 42 
124 117 42 129 122 42 123 116 41 105 99 37 94 89 35 90 85 33 89 84 33 91 87 33 
89 81 30 84 65 24 92 53 20 113 44 16 129 40 15 140 40 15 150 39 15 161 37 14 
166 36 14 167 38 14 166 38 14 165 37 14 164 36 14 163 36 14 163 36 14 
164 36 15 164 36 15 163 35 14 163 35 14 164 36 14 166 38 14 168 40 15 
168 40 15 168 39 15 171 41 15 178 47 16 174 47 16 158 43 15 143 42 15 
129 44 17 117 53 20 107 69 25 104 84 30 107 97 34 111 106 37 117 110 39 
118 111 39 116 109 39 113 107 38 110 103 38 106 100 38 103 98 39 105 100 40 
112 107 42 118 112 43 122 115 44 130 122 46 141 133 47 146 137 48 131 122 45 
130 121 45 126 118 45 120 113 44 111 104 42 108 102 41 112 106 41 118 112 41 
127 120 42 124 117 41 107 101 37 96 90 35 90 85 33 88 84 32 91 89 32 94 79 28 
95 54 20 106 41 16 129 38 14 140 39 14 138 43 15 145 43 16 160 40 15 170 41 15 
173 44 16 173 44 16 170 41 15 167 38 15 163 35 14 162 34 14 162 34 14 
162 34 14 162 34 14 164 35 14 166 37 15 169 40 15 173 44 16 173 45 16 
172 44 16 173 44 16 178 47 17 171 48 17 153 47 17 144 47 17 143 47 17 
136 50 18 123 56 20 115 71 25 111 96 34 111 108 38 115 109 38 115 108 38 
111 105 38 108 102 38 106 100 38 104 98 38 101 96 39 103 98 40 110 104 42 
119 112 44 130 123 45 137 129 46 140 132 47 141 133 47 127 119 45 126 118 45 
122 114 44 116 109 43 107 101 41 104 98 40 106 100 40 111 105 40 120 113 40 
118 112 39 106 100 37 97 91 35 92 87 33 90 86 32 91 89 32 93 76 28 97 49 19 
111 36 14 133 37 14 144 41 14 142 45 16 148 45 16 163 42 15 171 42 15 
174 45 16 174 45 16 170 41 15 167 38 15 163 35 14 161 33 14 162 34 14 
162 34 14 163 35 14 165 36 14 166 37 15 169 40 15 174 45 16 175 47 16 
174 46 16 175 46 16 177 47 17 170 47 17 155 48 17 146 47 17 144 46 16 
138 47 17 127 51 18 119 67 23 113 95 33 110 109 38 111 106 38 110 103 37 
106 100 37 104 98 37 103 97 37 102 97 38 102 97 39 105 99 40 112 105 42 
122 114 44 135 127 46 140 132 47 138 130 47 137 129 47 132 125 46 128 121 45 
118 112 43 111 104 42 105 99 41 101 96 40 100 95 39 102 97 38 107 101 38 
107 101 37 102 95 36 98 92 35 97 91 33 94 89 33 88 87 32 88 73 28 93 48 19 
105 37 14 126 42 15 141 45 16 152 47 16 161 46 16 168 43 16 171 41 16 
170 41 15 168 40 15 166 38 14 164 36 14 162 34 14 162 34 14 162 34 14 
164 35 14 166 37 15 166 37 15 164 36 14 166 37 15 171 42 16 174 46 16 
176 47 17 176 47 17 175 46 16 171 45 16 162 44 16 150 43 16 133 41 15 
123 45 16 120 55 19 116 72 25 112 96 34 108 106 38 104 100 37 102 96 36 
101 95 36 100 94 36 100 94 37 101 95 38 105 98 39 109 103 40 116 109 42 
125 118 44 135 127 46 139 131 47 135 127 46 133 125 46 139 130 47 132 125 46 
119 113 43 111 106 42 109 103 41 105 99 40 100 95 39 98 93 38 100 94 37 
99 93 36 96 91 35 96 90 34 99 92 33 96 91 33 89 86 32 85 73 28 85 50 20 
95 41 16 115 45 16 134 47 16 153 47 16 165 46 16 172 44 16 173 42 16 169 39 15 
166 37 14 165 36 14 164 35 14 163 34 14 162 34 14 163 34 14 164 36 14 
166 37 15 166 37 15 164 35 14 165 36 14 169 40 15 173 43 16 176 46 17 
177 46 17 175 44 16 170 42 16 162 41 16 147 40 15 124 39 15 112 46 17 
111 61 22 110 77 27 108 96 33 104 101 36 98 94 36 95 90 35 95 89 35 96 90 35 
98 93 36 102 96 38 109 101 39 116 108 41 124 116 43 129 122 44 133 125 46 
135 127 47 135 126 46 135 126 46 146 136 48 139 130 47 124 118 45 118 112 43 
120 113 42 115 109 41 105 99 39 99 94 38 98 94 37 96 90 35 91 85 34 91 85 33 
97 91 33 97 92 33 91 88 31 84 76 28 75 57 23 80 47 19 101 46 17 123 46 16 
146 47 16 163 47 16 174 47 16 177 44 16 171 39 15 167 36 14 166 35 14 
165 34 14 164 34 14 163 34 14 162 34 14 162 34 14 163 35 14 164 35 14 
165 35 14 166 36 14 168 37 14 171 39 15 176 43 16 177 44 16 176 42 15 
168 40 15 155 37 14 137 38 14 116 40 15 104 51 19 101 70 26 100 84 30 
102 93 33 99 94 34 92 87 34 88 84 34 89 84 34 92 87 35 98 93 37 105 99 39 
114 107 40 123 115 42 134 126 45 135 127 46 127 121 45 128 121 46 137 129 47 
141 132 48 148 138 48 141 132 47 126 119 45 120 114 43 122 115 42 119 112 41 
111 105 40 104 98 39 99 94 37 94 89 35 89 83 33 89 83 33 95 90 33 95 90 33 
89 85 31 81 75 28 69 61 25 72 52 21 90 48 19 112 46 17 138 45 16 155 45 16 
164 45 16 165 43 15 159 39 14 155 36 14 153 35 14 154 34 14 156 35 14 
158 35 14 161 34 14 162 34 14 163 35 14 162 36 14 159 36 14 157 37 14 
156 37 14 158 39 15 163 44 16 165 45 16 165 43 16 159 40 15 148 35 14 
131 37 14 108 43 16 96 56 21 93 75 28 94 87 32 97 91 32 95 90 33 88 83 33 
85 80 33 86 82 33 90 86 35 98 94 37 106 101 39 115 108 40 125 117 42 
137 129 45 138 131 46 128 122 45 129 122 46 141 132 48 146 137 48 146 136 48 
139 130 47 124 117 45 116 110 43 117 110 42 117 110 41 118 111 40 113 106 39 
101 95 37 94 88 35 91 85 33 91 85 33 94 88 33 91 85 33 83 78 31 75 71 29 
68 65 25 70 59 23 83 53 20 103 47 18 131 42 16 143 40 15 141 41 15 138 40 15 
132 38 14 129 36 14 127 36 14 130 36 14 138 38 15 148 37 15 157 35 14 
164 34 14 167 37 15 161 38 15 145 38 15 137 39 15 134 41 15 135 43 16 
139 47 17 142 47 17 143 45 16 144 40 15 142 35 14 128 37 15 100 47 18 
86 60 23 87 76 29 90 86 32 95 90 32 94 88 32 86 81 32 84 79 32 86 82 33 
92 87 35 100 95 37 106 101 38 111 105 39 121 114 42 135 127 45 140 132 46 
135 128 46 137 130 47 145 136 48 148 139 49 147 137 49 139 130 47 122 115 45 
114 109 43 117 110 42 118 111 41 119 111 40 114 106 39 102 96 37 96 90 35 
95 89 34 93 87 33 92 86 33 87 82 32 79 74 31 72 69 29 66 65 26 68 60 23 
80 54 21 101 48 19 131 41 16 141 37 14 130 38 15 120 37 15 112 36 14 108 37 14 
109 38 14 117 40 15 132 42 15 146 41 15 160 38 15 168 38 15 172 40 15 
162 41 15 141 40 15 126 40 15 119 42 16 116 44 16 118 47 17 122 46 17 
128 43 16 135 39 15 143 34 14 130 37 15 97 48 19 83 62 24 87 79 30 91 88 32 
93 88 32 91 86 32 86 80 32 85 80 32 89 84 34 97 92 36 107 102 38 112 106 39 
111 105 39 118 112 41 134 127 45 142 134 47 140 133 47 143 135 48 149 141 49 
153 143 50 149 140 49 140 132 48 120 114 44 115 109 43 123 116 44 123 115 43 
114 106 40 107 100 37 101 96 36 99 94 36 100 94 35 97 91 34 91 84 32 84 79 31 
78 73 30 71 68 28 63 62 25 66 57 23 81 52 21 105 47 18 139 40 15 147 37 14 
129 36 14 112 35 14 98 34 14 94 37 14 101 42 15 115 46 16 136 47 17 154 46 17 
168 44 16 176 44 16 177 45 16 168 45 16 146 42 16 127 41 16 109 42 15 
101 43 15 101 44 16 108 43 16 121 39 15 134 36 14 149 34 13 137 37 15 
100 46 19 86 62 24 94 84 31 95 92 33 91 87 32 87 83 32 85 80 32 88 83 32 
94 89 35 105 100 37 120 114 41 123 116 41 113 107 40 117 111 41 135 128 45 
144 136 48 142 135 48 146 138 49 155 146 51 159 150 52 144 135 49 136 128 47 
118 113 44 114 108 43 122 115 43 122 114 42 113 106 39 107 101 38 104 99 37 
103 98 36 103 97 36 100 94 35 92 86 32 85 79 31 79 74 30 71 68 28 62 61 25 
66 56 23 82 53 21 106 48 19 139 41 15 150 37 14 137 35 14 123 35 14 108 35 14 
104 38 15 111 44 16 126 47 16 147 48 17 162 48 17 171 47 16 176 47 16 
176 48 16 169 47 16 155 44 16 138 42 16 119 42 15 108 42 15 107 41 16 
115 40 16 131 39 15 143 37 14 151 35 13 137 38 15 101 48 19 87 63 24 95 85 31 
95 92 33 88 84 32 86 81 32 87 82 32 90 85 33 95 90 35 105 100 37 120 114 41 
123 116 41 113 107 40 116 110 41 132 125 45 140 132 47 139 132 47 143 136 49 
154 145 51 159 150 52 131 124 46 126 119 45 116 111 43 112 106 42 114 107 41 
115 108 40 117 109 40 116 108 39 111 104 37 108 101 36 105 99 36 101 96 35 
97 91 34 90 84 32 81 76 30 72 68 28 63 61 25 66 57 23 81 57 22 103 52 20 
131 43 16 149 38 14 156 37 15 153 37 15 142 40 16 138 41 16 141 42 15 
149 43 16 164 45 16 171 46 16 171 47 16 169 47 16 167 48 16 167 47 16 
169 44 15 162 43 15 147 42 15 138 41 15 137 40 15 144 40 15 159 42 16 
161 41 15 151 37 14 130 41 16 99 53 21 86 67 26 90 81 30 90 86 32 86 82 31 
87 82 31 91 87 33 93 89 34 92 88 34 97 92 35 108 102 38 112 106 39 110 104 40 
115 107 41 125 117 44 131 123 46 131 123 46 136 128 47 146 138 49 151 142 50 
129 122 45 128 121 45 125 118 45 121 114 43 114 107 41 113 106 40 117 110 40 
118 110 39 114 107 38 109 102 37 103 97 36 99 93 35 97 91 34 91 86 32 83 78 30 
74 70 28 65 62 25 66 59 24 78 61 24 95 57 22 117 46 17 136 40 15 153 39 15 
159 40 15 155 41 16 154 41 16 157 40 15 163 40 15 172 42 15 170 43 16 
158 44 16 150 45 16 147 46 16 154 46 16 169 45 15 173 44 15 166 44 15 
158 42 15 152 39 15 154 39 15 163 43 16 158 45 16 140 45 16 120 51 19 
99 65 25 90 76 29 91 84 31 92 88 32 91 86 32 92 87 32 95 90 34 95 90 34 
92 87 34 93 88 35 99 94 36 104 98 38 109 102 39 114 107 41 120 112 43 
122 115 45 123 116 45 127 120 46 136 128 47 140 131 48 138 130 47 140 132 48 
145 136 48 139 131 47 124 117 44 116 109 41 114 108 40 113 107 39 113 106 38 
108 101 37 98 92 35 93 87 34 93 86 33 90 84 32 86 81 31 78 74 29 68 64 26 
65 61 25 71 66 27 82 62 25 96 50 19 112 43 16 129 43 15 140 42 15 146 40 15 
153 38 15 162 37 14 168 37 14 171 39 15 159 40 15 133 39 14 118 40 15 
115 44 16 128 46 16 157 46 16 173 46 16 176 46 16 170 43 15 154 38 14 
145 38 14 142 43 16 134 50 18 120 58 20 109 69 24 100 83 30 97 91 33 100 94 33 
102 96 34 103 97 34 102 96 34 99 93 34 96 90 34 94 89 35 93 88 35 93 89 36 
99 93 37 110 102 39 115 107 41 115 108 42 116 109 43 116 109 44 118 111 45 
122 115 45 124 116 45 143 135 48 147 138 49 154 145 50 149 140 49 131 123 45 
119 112 42 113 107 40 111 105 39 114 107 39 110 103 38 98 92 35 93 87 33 
95 88 33 94 87 32 91 86 32 84 80 30 71 67 26 67 64 26 70 69 28 76 66 27 
86 56 22 99 49 18 113 45 16 126 42 15 137 40 15 147 38 15 156 37 14 163 37 14 
167 39 15 152 39 15 119 36 14 102 37 14 100 41 15 115 43 16 146 45 16 
165 46 16 170 46 16 164 43 15 146 37 14 133 37 14 126 43 16 118 53 19 
107 67 23 100 79 28 98 89 32 99 96 34 104 98 34 107 101 35 109 103 35 
107 101 35 101 95 34 99 93 35 101 96 36 100 95 37 95 90 36 98 93 37 109 102 39 
114 106 40 111 104 41 111 105 42 113 107 43 114 108 44 115 108 44 115 109 44 
144 135 48 147 138 49 154 144 50 150 141 49 136 128 46 124 116 43 113 107 40 
111 105 39 117 110 40 115 107 39 105 98 36 101 94 34 103 96 35 103 96 34 
100 94 33 92 86 31 77 72 27 70 67 26 72 70 28 78 70 28 87 66 25 96 57 21 
106 45 16 116 40 14 126 41 15 134 41 15 141 41 15 149 41 15 160 41 15 
149 40 15 117 37 14 101 36 14 102 37 15 114 40 15 138 44 16 150 45 16 
150 43 15 142 40 15 128 35 14 119 36 14 116 43 15 111 55 19 102 73 26 
96 83 30 91 84 31 93 89 33 103 98 34 109 103 35 111 105 36 108 102 36 
102 96 36 104 98 36 115 108 39 115 108 39 103 98 38 101 96 38 108 101 39 
110 103 40 107 102 41 109 103 42 115 108 43 117 110 44 114 108 44 113 107 44 
135 127 47 139 130 48 146 137 49 144 135 48 133 124 45 124 116 43 117 111 41 
116 109 41 118 111 40 116 108 39 107 100 36 103 96 35 102 95 35 102 95 35 
103 96 34 95 89 32 78 73 28 71 67 26 72 70 28 77 71 28 85 73 28 94 66 24 
104 50 18 115 42 15 129 42 15 134 42 15 132 42 15 138 42 15 152 41 15 
148 39 15 127 37 14 118 36 14 120 36 15 128 39 15 142 44 16 145 45 16 
136 42 15 130 38 15 126 35 14 120 37 14 110 43 16 102 55 20 94 74 27 88 82 30 
83 79 30 87 83 31 99 93 34 106 100 35 109 103 36 107 102 36 100 95 36 
105 100 37 122 114 40 124 116 41 113 107 39 108 103 39 111 104 40 112 106 41 
112 106 42 114 108 43 118 112 44 119 112 44 117 110 44 115 109 44 119 111 45 
123 115 45 132 124 47 131 124 46 120 114 43 118 112 42 125 118 43 125 118 43 
118 112 41 112 105 39 106 99 36 99 92 35 91 85 33 91 86 33 100 93 34 95 88 32 
76 71 28 68 64 27 70 67 27 75 72 28 83 78 30 93 74 27 105 60 21 123 49 17 
145 42 15 147 39 15 129 40 15 128 39 15 143 37 14 151 36 14 151 36 14 
152 37 14 156 39 15 157 42 16 158 47 17 149 46 17 130 41 15 128 38 15 
142 36 14 136 37 14 109 42 17 91 53 20 82 69 26 77 75 29 76 72 29 80 76 30 
91 86 32 99 94 34 105 99 35 104 99 35 97 92 35 103 97 36 122 115 40 128 121 42 
123 115 41 120 112 41 120 112 42 121 114 43 125 119 45 126 120 46 124 118 45 
123 116 45 122 115 45 122 115 45 115 108 44 119 112 45 130 122 46 129 122 45 
116 109 43 116 110 42 129 122 44 132 125 44 123 117 42 117 110 40 112 105 38 
105 98 36 94 88 34 91 86 34 97 91 34 92 86 32 75 71 28 69 65 27 72 68 28 
77 74 29 83 82 31 92 80 29 104 69 24 122 56 20 146 43 16 151 37 14 135 38 15 
131 37 15 138 35 14 145 35 14 153 36 14 158 38 14 161 39 15 161 43 15 
159 47 17 151 47 17 137 42 15 136 38 15 149 37 14 139 40 15 106 48 19 
85 57 22 78 68 27 73 73 29 73 70 29 78 74 30 88 83 32 95 90 33 98 93 34 
98 93 35 94 89 34 100 95 36 116 110 39 124 117 41 124 117 42 124 116 42 
124 117 43 127 120 45 135 128 47 135 128 48 127 121 46 123 117 45 122 115 45 
122 115 45 123 115 45 129 121 46 140 132 48 137 128 47 118 111 44 116 110 43 
131 124 45 137 130 45 135 127 44 131 124 43 127 120 42 120 113 40 111 104 37 
102 96 35 94 89 34 86 81 32 77 73 28 74 70 27 78 73 29 82 78 30 87 84 31 
93 84 30 100 77 27 113 63 22 134 44 16 146 35 14 150 35 14 147 36 14 136 35 14 
132 36 14 134 37 15 135 37 15 135 37 14 138 40 15 144 46 16 150 47 16 
155 43 15 154 40 15 147 39 14 129 46 17 102 59 22 85 69 26 80 73 28 76 74 30 
75 72 29 79 75 30 88 84 32 92 88 33 90 85 33 90 85 34 92 87 34 97 92 36 
106 100 37 113 106 39 118 111 40 122 115 42 124 117 44 131 124 46 142 134 49 
141 133 49 128 121 46 120 113 45 117 111 44 116 109 44 125 117 46 130 122 46 
140 132 48 137 128 47 119 111 44 115 109 43 127 120 44 133 126 44 135 127 44 
134 126 44 130 123 43 123 116 41 113 106 38 103 96 36 91 87 34 83 79 31 
78 74 28 78 74 27 84 79 30 87 82 31 87 83 31 89 83 31 92 79 29 101 68 25 
117 50 19 132 40 15 148 37 14 150 36 14 141 37 14 136 37 14 135 37 15 
135 37 15 134 36 14 137 38 14 143 43 15 149 44 15 155 41 15 150 42 15 
132 45 17 115 55 20 98 71 26 88 79 29 86 81 30 83 79 31 79 75 30 80 76 31 
88 84 32 90 85 33 85 80 33 86 81 33 91 86 35 98 93 36 106 100 38 114 107 39 
123 116 41 126 119 43 124 117 44 127 120 46 137 129 48 136 128 48 125 118 45 
117 111 44 114 108 44 112 106 44 119 112 45 123 116 45 130 123 46 128 121 46 
117 111 44 113 107 43 117 110 43 120 113 43 124 117 43 125 118 43 122 115 42 
115 108 40 102 96 37 93 88 35 88 84 34 84 80 32 80 76 28 81 77 28 89 84 31 
90 84 32 85 80 31 81 77 31 80 76 29 85 70 27 95 61 23 109 52 19 128 44 16 
142 39 14 152 39 14 157 38 14 157 37 14 157 36 14 156 36 14 155 36 14 
154 36 14 148 36 14 136 36 14 121 43 17 105 56 21 95 69 26 94 81 29 94 89 32 
97 91 33 93 88 33 84 80 32 82 78 32 87 81 32 88 82 33 85 80 33 87 82 34 
93 88 35 103 97 37 117 110 40 129 121 42 137 129 45 135 128 45 122 116 44 
117 111 43 119 113 45 119 113 45 117 111 44 115 109 44 113 107 44 112 106 44 
124 116 45 124 117 45 126 119 46 123 116 45 117 111 44 113 107 43 112 106 42 
113 106 42 115 109 41 117 111 41 119 112 42 112 106 40 98 93 37 90 85 35 
89 84 34 86 81 32 81 77 29 82 77 29 89 84 31 89 84 32 83 78 31 79 75 31 
78 76 30 80 74 29 85 71 26 95 65 23 111 57 20 126 50 18 139 46 17 148 42 16 
151 39 15 152 37 14 152 36 14 149 37 14 142 38 15 131 40 16 114 43 17 
100 51 20 89 66 25 87 78 29 93 87 32 99 94 33 104 98 35 102 96 35 92 87 33 
87 82 33 88 82 33 89 84 34 92 87 34 96 91 36 102 96 37 112 106 39 127 119 42 
138 129 44 145 137 47 141 134 47 127 120 45 119 113 43 117 111 44 119 113 44 
123 117 45 124 117 45 120 114 45 119 112 44 138 129 47 135 126 46 128 120 45 
122 115 45 117 110 44 114 108 44 113 107 43 111 105 42 108 102 40 111 104 40 
120 112 42 117 109 41 101 96 38 94 89 36 94 88 35 89 84 33 81 77 29 79 75 29 
83 79 31 85 80 32 83 79 31 83 79 31 84 80 31 85 80 30 87 79 29 91 78 28 
98 76 27 102 69 25 103 58 22 107 49 19 116 43 17 121 39 16 122 38 15 117 40 16 
107 48 19 98 55 21 89 60 23 85 68 26 85 76 29 88 83 31 94 89 32 101 95 34 
109 103 36 110 103 36 102 96 35 96 90 34 91 86 34 95 90 35 107 101 37 
115 108 38 119 111 40 125 117 42 134 126 43 141 133 45 145 137 47 144 136 48 
138 129 47 134 125 46 132 124 46 135 128 47 143 135 48 144 135 48 137 128 46 
133 125 45 146 137 48 141 132 47 129 121 46 121 114 45 116 110 44 114 109 44 
116 110 44 114 108 43 109 102 41 112 105 41 124 116 43 123 115 42 109 103 39 
101 96 37 99 93 36 94 88 34 84 79 31 80 76 30 82 78 32 85 81 32 90 85 32 
91 87 32 90 85 32 90 84 31 91 86 31 91 87 31 91 86 31 89 80 29 85 69 27 
87 61 24 95 55 22 100 52 20 103 52 20 101 56 22 93 65 25 87 72 27 84 77 29 
84 81 30 85 82 31 88 84 32 93 87 32 99 93 34 108 102 36 111 104 37 108 100 36 
103 96 35 97 92 35 102 97 37 118 111 39 127 119 41 129 121 42 133 125 44 
140 132 45 143 135 47 143 135 48 142 134 48 141 132 47 140 130 47 139 130 47 
143 135 48 154 145 50 153 144 50 141 132 47 136 127 46 150 141 49 144 135 48 
130 122 46 120 113 45 115 109 44 115 109 44 119 113 45 121 114 45 118 111 43 
121 114 43 131 123 44 131 124 43 121 115 40 113 107 39 106 99 38 98 92 37 
90 85 34 85 81 33 85 82 33 91 87 34 102 96 35 103 98 34 96 90 33 94 88 32 
98 91 32 97 90 32 91 86 31 88 82 31 88 80 31 87 77 30 87 74 29 90 74 29 
97 80 30 100 84 31 100 89 32 100 92 32 99 93 33 96 91 33 89 85 32 87 82 32 
88 83 32 93 88 34 102 96 36 107 100 37 109 101 37 108 101 37 106 99 37 
111 105 38 125 118 42 132 125 44 133 125 44 137 129 45 145 137 47 145 137 48 
137 130 47 135 127 47 137 128 47 138 129 47 138 129 47 144 135 48 155 146 51 
152 144 51 135 127 48 127 120 47 154 145 50 148 139 49 134 126 47 124 117 46 
117 110 45 116 110 45 122 115 46 125 117 46 124 117 45 128 120 45 136 128 46 
136 128 45 130 122 42 121 114 40 111 104 39 102 96 38 93 89 36 89 85 35 
88 85 34 95 91 35 108 102 37 110 104 36 101 95 34 99 93 33 103 96 34 101 94 33 
91 86 32 87 82 31 87 83 32 85 83 32 82 81 32 84 84 32 91 90 34 96 94 35 
98 95 34 100 96 34 102 96 34 99 93 34 92 87 33 88 83 32 89 84 33 92 87 34 
100 94 35 105 98 36 108 101 37 111 103 37 113 105 38 119 112 40 130 123 43 
136 128 45 136 128 45 139 131 46 144 136 47 143 135 48 136 128 47 134 126 47 
138 130 47 139 130 47 136 127 47 138 129 47 146 137 49 143 134 49 127 120 47 
120 114 46 158 149 51 153 144 50 143 135 48 132 125 46 122 116 46 119 112 46 
123 116 46 126 118 46 128 120 46 132 124 46 137 129 46 138 130 45 134 125 43 
126 118 42 115 108 40 104 99 38 95 90 36 91 86 35 91 87 35 97 93 36 109 103 38 
112 106 37 106 100 35 105 98 34 108 101 35 103 97 34 92 86 32 85 80 31 
83 79 31 81 78 31 80 78 31 82 80 31 87 84 32 89 85 33 87 83 33 88 84 33 
92 88 33 94 89 33 94 88 33 94 88 34 94 89 34 97 92 35 103 96 36 106 99 37 
106 99 36 110 103 37 119 111 39 126 119 41 133 126 43 137 130 45 138 130 45 
138 130 45 138 130 45 138 130 46 137 129 47 140 132 47 144 136 48 142 134 47 
132 124 46 127 119 45 126 119 45 123 116 45 118 112 45 116 110 45 156 147 51 
153 144 50 147 138 48 139 131 47 128 121 46 124 117 46 126 118 46 128 120 46 
130 122 46 134 126 46 139 131 46 139 131 46 135 126 44 128 119 42 117 111 40 
108 103 39 100 95 37 96 91 37 97 92 37 100 95 37 106 100 38 107 101 37 
104 98 36 104 98 35 108 102 36 104 98 35 92 86 33 85 80 32 82 78 31 81 77 31 
81 77 31 83 78 31 85 81 32 85 81 32 83 79 32 83 79 32 87 82 33 92 86 33 
97 91 35 99 94 35 99 94 35 101 96 36 105 99 37 108 101 38 110 103 38 
114 107 39 120 112 39 124 116 41 126 120 43 130 123 44 135 127 45 136 128 45 
133 125 45 134 126 45 140 132 47 143 135 48 144 136 48 140 132 47 129 121 46 
121 114 44 117 110 44 114 108 43 115 108 44 115 109 44 147 138 48 147 138 48 
147 138 48 143 134 48 135 127 47 130 123 46 129 122 46 129 121 46 129 121 46 
133 125 46 141 132 47 141 132 46 132 124 44 125 117 42 119 112 42 114 107 41 
109 103 40 106 100 39 106 99 38 103 97 38 99 93 37 96 91 36 94 89 35 97 92 35 
105 98 37 103 97 36 92 87 34 87 81 33 85 80 32 84 80 32 84 79 32 85 80 32 
85 81 33 86 81 33 85 81 33 85 80 33 86 81 33 92 86 34 102 96 37 106 100 37 
104 99 37 105 99 37 107 101 38 113 106 39 121 114 41 122 115 41 116 109 40 
111 105 40 109 104 41 114 108 42 126 118 44 130 122 45 128 119 45 132 124 46 
143 135 48 145 137 48 138 130 47 132 124 46 126 118 45 121 114 45 117 111 44 
116 110 44 116 110 44 116 110 45 142 133 47 142 133 47 143 134 48 140 131 47 
133 125 46 130 122 46 131 124 46 131 124 46 127 120 46 130 122 46 138 129 47 
139 130 46 132 124 44 127 119 43 121 114 43 117 110 42 114 107 41 113 106 40 
115 107 40 110 103 39 98 92 37 91 87 36 91 86 35 94 89 36 100 95 37 100 94 37 
94 88 35 92 86 34 93 87 34 92 87 34 89 84 34 87 83 34 87 83 33 87 83 34 
87 83 34 89 83 35 91 84 35 96 89 36 104 98 38 107 101 38 104 98 37 107 100 38 
114 108 39 122 115 41 131 123 44 129 121 44 117 110 41 109 103 40 105 100 41 
109 103 42 121 113 43 126 118 45 126 118 46 132 124 47 143 134 48 142 134 47 
131 123 46 125 117 45 125 117 45 124 116 45 121 115 44 121 115 45 123 115 45 
123 116 46 139 130 47 138 129 47 135 127 47 130 122 46 122 114 45 123 116 45 
133 126 47 134 127 47 125 118 46 124 116 46 130 122 47 133 125 47 135 127 46 
132 124 45 124 116 44 118 110 43 115 107 42 117 109 42 124 117 42 119 113 41 
102 97 38 94 89 37 94 89 37 94 89 36 95 90 36 96 90 36 98 91 36 101 94 37 
105 99 37 103 97 37 96 90 36 92 87 35 91 87 34 90 86 34 89 85 35 93 87 36 
101 94 37 104 97 38 103 97 38 101 95 38 99 93 37 107 100 39 124 118 42 
135 128 45 139 131 46 135 127 45 123 116 43 116 109 42 114 108 43 115 109 44 
119 112 44 124 116 45 129 121 46 134 126 47 139 131 47 135 127 47 122 114 45 
118 111 44 125 118 45 128 121 46 128 121 45 130 123 46 133 125 47 135 126 47 
136 127 47 134 126 47 130 122 46 124 117 45 117 110 44 118 111 44 129 122 46 
130 123 46 121 114 45 119 112 45 125 117 46 130 123 47 137 129 47 136 127 46 
127 119 45 121 113 44 116 108 43 118 110 43 126 119 44 122 116 43 105 100 40 
97 92 38 97 92 38 96 91 37 95 89 37 97 92 37 105 98 38 110 103 39 115 108 40 
112 106 40 101 95 37 95 90 36 93 89 36 94 89 36 96 91 37 101 95 38 110 103 39 
111 104 40 107 100 39 103 96 38 99 93 38 107 101 40 128 122 44 138 131 46 
137 129 46 133 125 45 126 119 44 122 115 44 122 115 44 122 115 45 121 114 45 
124 117 46 131 123 47 136 128 47 140 131 47 136 127 47 124 117 45 121 114 45 
126 119 46 130 123 46 134 126 46 138 130 47 143 134 48 145 136 49 134 125 46 
132 124 46 128 121 46 123 116 45 117 111 45 115 110 44 119 113 44 118 112 44 
115 109 44 116 110 44 123 116 46 130 123 46 138 130 47 139 130 47 131 123 46 
124 117 45 117 111 44 116 111 44 122 116 44 119 113 43 107 102 40 100 95 39 
100 94 38 100 94 38 100 93 39 105 98 39 114 107 40 120 113 41 123 116 42 
118 111 41 104 99 38 97 92 37 95 90 37 99 93 38 107 101 39 114 107 40 
118 110 40 118 110 41 116 109 40 111 104 40 104 98 39 109 103 41 126 120 44 
131 124 45 124 117 44 122 116 44 126 120 44 129 122 45 129 122 45 129 121 46 
127 119 46 128 120 46 133 125 46 138 129 47 144 134 48 144 134 48 139 130 47 
134 125 46 127 120 46 129 122 46 139 130 47 147 137 48 152 143 50 154 145 51 
134 126 46 135 127 47 135 128 47 133 126 47 127 121 47 123 117 46 121 114 45 
118 112 44 115 110 44 118 112 45 125 119 46 132 124 46 137 128 47 138 129 47 
134 126 46 128 121 46 120 114 45 117 112 44 119 113 44 116 110 43 108 103 41 
105 100 40 108 102 40 109 102 40 109 102 41 111 104 41 117 110 41 120 113 41 
122 115 42 117 110 41 106 100 39 101 96 38 102 96 39 108 101 40 119 112 41 
124 116 42 124 116 42 123 115 42 120 112 41 115 108 41 109 103 41 111 105 41 
122 116 44 124 118 45 117 111 43 117 111 43 125 118 45 130 123 46 133 125 46 
133 125 47 131 123 46 131 123 46 133 126 46 136 128 46 140 130 47 142 132 48 
142 133 47 137 128 47 126 119 46 128 120 46 141 132 47 151 141 49 155 146 51 
157 148 51 139 130 47 143 134 48 152 143 50 153 145 51 148 139 50 142 133 49 
136 127 47 130 122 46 123 117 46 124 118 46 132 125 47 136 127 47 134 125 46 
134 125 46 136 127 46 133 124 46 124 118 45 119 113 45 116 111 44 113 107 44 
109 104 43 112 106 43 121 115 44 124 117 44 121 114 43 117 110 42 112 106 41 
110 104 41 110 103 40 108 102 40 104 99 40 106 100 40 114 107 41 122 114 42 
131 122 43 133 125 43 129 121 44 124 117 43 120 112 42 116 109 42 113 107 42 
114 107 43 118 111 43 119 112 44 118 111 44 119 111 45 122 114 45 126 118 45 
132 124 47 134 126 47 132 125 47 132 125 47 134 126 46 132 124 46 128 120 46 
128 120 46 133 125 47 131 123 47 121 114 45 124 116 45 140 131 47 150 141 49 
153 144 50 155 146 51 143 134 48 147 138 49 156 147 51 157 148 51 149 141 50 
143 134 49 136 127 47 131 123 46 127 120 46 129 122 46 138 129 47 140 131 47 
137 128 47 136 127 47 137 127 46 134 125 46 125 118 45 120 114 45 117 111 44 
114 108 44 112 106 43 115 109 44 124 118 45 128 121 45 125 118 44 120 113 43 
111 105 42 106 100 41 105 100 40 106 101 41 109 103 42 115 108 42 122 114 43 
130 122 44 138 129 45 138 129 45 130 122 45 123 116 44 118 111 43 115 109 43 
115 108 43 115 108 43 116 109 43 116 109 43 117 110 44 118 111 45 121 114 45 
128 120 46 138 130 48 140 132 49 135 127 48 132 125 47 133 125 46 129 121 46 
120 113 45 119 112 45 127 119 46 129 121 47 125 117 46 131 122 46 145 136 48 
151 142 49 147 138 49 145 137 49 146 138 50 146 138 50 147 138 49 142 134 48 
133 126 47 126 119 46 122 115 46 122 115 46 125 118 46 132 124 46 141 132 47 
146 136 48 147 137 49 144 135 49 137 129 47 130 122 45 123 116 45 120 113 45 
121 114 45 119 113 44 115 109 44 115 109 44 117 111 44 119 113 44 122 115 45 
120 113 44 113 107 43 109 104 42 108 103 42 112 106 43 121 113 44 126 117 44 
128 119 44 133 124 45 141 131 46 139 130 46 127 119 45 119 112 45 116 110 44 
115 109 44 114 108 44 114 108 44 116 109 44 116 109 44 114 108 44 116 110 45 
123 116 46 134 127 48 150 141 51 151 142 51 138 130 49 131 124 47 131 123 46 
126 118 45 116 109 44 115 109 44 123 116 46 131 123 47 138 129 48 146 137 49 
156 147 51 153 144 50 137 129 48 129 122 47 149 140 50 146 137 49 140 131 48 
132 124 47 122 116 45 117 111 44 115 110 44 119 112 45 126 118 46 134 126 46 
144 134 47 150 140 48 153 144 50 150 142 50 141 133 48 133 125 46 125 117 45 
122 115 45 126 118 45 124 117 45 118 111 44 114 108 44 114 108 44 116 110 44 
120 113 45 120 113 45 115 108 44 112 106 43 111 106 43 117 111 44 128 119 45 
133 124 46 133 123 45 135 126 46 140 130 47 136 127 47 123 116 45 116 110 45 
115 109 44 115 109 44 115 109 44 116 109 44 116 109 44 115 108 44 113 107 44 
118 111 45 127 121 46 140 132 49 154 145 51 154 145 51 138 130 49 131 123 47 
133 124 47 129 121 46 120 113 45 118 112 44 124 117 45 131 124 47 139 131 48 
145 137 49 150 141 50 144 136 49 129 122 46 122 115 45 150 140 49 145 136 48 
134 126 47 125 118 46 118 112 44 115 109 44 117 111 44 121 114 44 128 121 46 
137 128 46 146 137 47 153 143 49 157 148 51 156 147 51 150 141 49 141 133 48 
131 123 46 127 120 46 132 124 47 129 122 46 119 113 45 115 109 44 115 109 44 
117 111 44 121 114 45 121 114 45 116 110 44 114 108 44 116 109 44 121 114 45 
131 122 46 136 127 47 136 127 46 136 127 46 135 126 46 129 121 45 119 112 44 
114 108 44 114 108 44 115 109 44 119 113 45 119 113 45 116 110 44 115 108 44 
115 108 44 122 114 45 134 126 47 144 135 49 151 142 50 148 139 50 134 126 47 
131 123 46 138 129 47 138 129 47 132 123 46 129 121 46 129 122 46 129 122 46 
128 121 46 128 120 46 127 121 46 126 119 46 123 116 45 122 115 45 151 140 48 
145 135 47 132 123 46 122 115 45 116 110 44 115 108 44 118 111 44 123 116 44 
129 122 45 138 129 46 147 138 47 155 145 49 159 150 52 159 150 52 154 145 50 
145 136 48 133 125 47 130 122 46 135 126 47 131 124 47 120 114 45 115 109 44 
115 109 44 117 111 44 121 114 45 121 114 45 116 110 44 115 109 44 117 111 45 
123 115 46 132 124 47 137 128 47 138 129 46 136 127 46 132 124 45 125 118 45 
117 110 44 112 107 44 113 107 44 116 110 44 120 114 45 121 115 45 116 110 44 
115 108 44 116 109 45 123 116 46 138 129 47 146 137 49 149 140 50 145 136 49 
133 125 47 131 123 46 140 131 47 142 133 47 138 128 46 134 125 46 132 124 46 
128 121 46 123 117 45 120 113 45 117 111 45 117 111 45 121 114 45 122 115 45 
