P3
64 64
255
0 0 0 0 0 0 0 0 0 0 0 0 0 0 0 0 0 0 0 0 0 0 0 0 0 0 0 0 0 0 0 0 0 0 0 0 0 0 0 
0 0 0 0 0 0 0 0 0 0 0 0 0 0 0 0 0 0 0 0 0 0 0 0 0 0 0 0 0 0 0 0 0 0 0 0 0 0 0 
0 0 0 0 0 0 0 0 0 0 0 0 0 0 0 0 0 0 0 0 0 0 0 0 0 0 0 0 0 0 0 0 0 0 0 0 0 0 0 
0 0 0 0 0 0 0 0 0 0 0 0 0 0 0 0 0 0 0 0 0 0 0 0 0 0 0 0 0 0 0 0 0 0 0 0 0 0 0 
0 0 0 0 0 0 0 0 0 0 0 0 0 0 0 0 0 0 0 0 0 0 0 0 0 0 0 0 0 0 0 0 0 0 0 0 0 0 0 
0 0 0 0 0 0 0 0 0 0 0 0 0 0 0 0 0 0 0 0 0 0 0 0 0 0 0 0 0 0 0 0 0 0 0 0 0 0 0 
0 0 0 0 0 0 0 0 0 0 0 0 0 0 0 0 0 0 0 0 0 0 0 0 0 0 0 0 0 0 0 0 0 0 0 0 0 0 0 
0 0 0 0 0 0 0 0 0 0 0 0 0 0 0 0 0 0 0 0 0 0 0 0 0 0 0 0 0 0 0 0 0 0 0 0 0 0 0 
0 0 0 0 0 0 0 0 0 0 0 0 0 0 0 0 0 0 0 0 0 0 0 0 0 0 0 0 0 0 0 0 0 0 0 0 0 0 0 
0 0 0 0 0 0 0 0 0 0 0 0 0 0 0 0 0 0 0 0 0 0 0 0 0 0 0 0 0 0 0 0 0 0 0 0 0 0 0 
0 0 0 0 0 0 0 0 0 0 0 0 0 0 0 0 0 0 0 0 0 0 0 0 0 0 0 0 0 0 0 0 0 0 0 0 0 0 0 
0 0 0 0 0 0 0 0 0 0 0 0 0 0 0 0 0 0 0 0 0 0 0 0 0 0 0 0 0 0 0 0 0 0 0 0 0 0 0 
0 0 0 0 0 0 0 0 0 0 0 0 0 0 0 0 0 0 0 0 0 0 0 0 0 0 0 0 0 0 0 0 0 0 0 0 0 0 0 
0 0 0 0 0 0 0 0 0 0 0 0 0 0 0 0 0 0 0 0 0 0 0 0 0 0 0 0 0 0 0 0 0 0 0 0 0 0 0 
0 0 0 0 0 0 0 0 0 0 0 0 0 0 0 0 0 0 0 0 0 0 0 0 0 0 0 0 0 0 0 0 0 0 0 0 0 0 0 
0 0 0 0 0 0 0 0 0 0 0 0 0 0 0 0 0 0 0 0 0 0 0 0 0 0 0 0 0 0 0 0 0 0 0 0 0 0 0 
0 0 0 243 50 53 243 50 53 0 0 0 0 0 0 0 0 0 0 0 0 243 50 53 243 50 53 
0 0 0 0 0 0 0 0 0 0 0 0 243 50 53 243 50 53 0 0 0 0 0 0 0 0 0 0 0 0 243 50 53 
243 50 53 0 0 0 0 0 0 0 0 0 0 0 0 0 0 0 0 0 0 0 0 0 0 0 0 0 0 0 0 0 0 0 0 0 
0 0 0 0 0 0 0 0 0 0 0 0 0 0 0 0 0 0 0 0 0 0 0 0 0 0 0 0 0 0 0 0 0 0 0 0 0 0 0 
0 0 0 0 0 0 0 0 0 0 0 0 0 0 0 0 0 0 0 0 0 0 0 0 0 0 0 0 0 0 0 0 0 0 0 0 0 0 0 
0 0 0 0 0 0 0 0 0 0 0 0 0 0 0 0 0 0 0 0 0 243 50 53 243 50 53 0 0 0 0 0 0 
0 0 0 0 0 0 243 50 53 243 50 53 0 0 0 0 0 0 0 0 0 0 0 0 243 50 53 243 50 53 
0 0 0 0 0 0 0 0 0 0 0 0 243 50 53 243 50 53 0 0 0 0 0 0 0 0 0 0 0 0 0 0 0 
0 0 0 0 0 0 0 0 0 0 0 0 0 0 0 0 0 0 0 0 0 0 0 0 0 0 0 0 0 0 0 0 0 0 0 0 0 0 0 
0 0 0 0 0 0 0 0 0 0 0 0 0 0 0 0 0 0 0 0 0 0 0 0 0 0 0 0 0 0 0 0 0 0 0 0 0 0 0 
0 0 0 0 0 0 0 0 0 0 0 0 0 0 0 0 0 0 0 0 0 0 0 0 0 0 0 0 0 0 0 0 0 0 0 0 0 0 0 
0 0 0 0 0 0 243 50 53 243 50 53 243 50 53 243 50 53 0 0 0 0 0 0 0 0 0 0 0 0 
243 50 53 243 50 53 0 0 0 0 0 0 243 50 53 243 50 53 243 50 53 243 50 53 
0 0 0 0 0 0 0 0 0 0 0 0 0 0 0 0 0 0 0 0 0 0 0 0 0 0 0 0 0 0 0 0 0 0 0 0 0 0 0 
0 0 0 0 0 0 0 0 0 0 0 0 0 0 0 0 0 0 0 0 0 0 0 0 0 0 0 0 0 0 0 0 0 0 0 0 0 0 0 
0 0 0 0 0 0 0 0 0 0 0 0 0 0 0 0 0 0 0 0 0 0 0 0 0 0 0 0 0 0 0 0 0 0 0 0 0 0 0 
0 0 0 0 0 0 0 0 0 0 0 0 0 0 0 0 0 0 0 0 0 0 0 0 0 0 0 243 50 53 243 50 53 
243 50 53 243 50 53 0 0 0 0 0 0 0 0 0 0 0 0 243 50 53 243 50 53 0 0 0 0 0 0 
243 50 53 243 50 53 243 50 53 243 50 53 0 0 0 0 0 0 0 0 0 0 0 0 0 0 0 0 0 0 
0 0 0 0 0 0 0 0 0 0 0 0 0 0 0 0 0 0 0 0 0 0 0 0 0 0 0 0 0 0 0 0 0 0 0 0 0 0 0 
0 0 0 0 0 0 0 0 0 0 0 0 0 0 0 0 0 0 0 0 0 0 0 0 0 0 0 0 0 0 0 0 0 0 0 0 0 0 0 
0 0 0 0 0 0 0 0 0 0 0 0 0 0 0 0 0 0 0 0 0 0 0 0 0 0 0 0 0 0 0 0 0 0 0 0 0 0 0 
0 0 0 0 0 0 0 0 0 243 50 53 243 50 53 243 50 53 243 50 53 0 0 0 0 0 0 0 0 0 
0 0 0 0 0 0 0 0 0 243 50 53 243 50 53 243 50 53 243 50 53 243 50 53 243 50 53 
0 0 0 0 0 0 0 0 0 0 0 0 0 0 0 0 0 0 0 0 0 0 0 0 0 0 0 0 0 0 0 0 0 0 0 0 0 0 0 
0 0 0 0 0 0 0 0 0 0 0 0 0 0 0 0 0 0 0 0 0 0 0 0 0 0 0 0 0 0 0 0 0 0 0 0 0 0 0 
0 0 0 0 0 0 0 0 0 0 0 0 0 0 0 0 0 0 0 0 0 0 0 0 0 0 0 0 0 0 0 0 0 0 0 0 0 0 0 
0 0 0 0 0 0 0 0 0 0 0 0 0 0 0 0 0 0 132 4 4 96 5 5 121 4 4 94 3 3 116 2 2 
66 4 4 39 2 2 0 0 0 0 0 0 0 0 0 0 0 0 0 0 0 0 0 0 243 50 53 243 50 53 
243 50 53 0 0 0 0 0 0 0 0 0 0 0 0 0 0 0 0 0 0 0 0 0 253 253 253 253 253 253 
0 0 0 0 0 0 0 0 0 0 0 0 0 0 0 0 0 0 0 0 0 0 0 0 0 0 0 0 0 0 0 0 0 0 0 0 0 0 0 
0 0 0 0 0 0 0 0 0 0 0 0 0 0 0 0 0 0 0 0 0 0 0 0 0 0 0 0 0 0 0 0 0 0 0 0 0 0 0 
0 0 0 0 0 0 0 0 0 0 0 0 0 0 0 0 0 0 0 0 0 0 0 0 0 0 0 0 0 0 0 0 0 0 0 0 120 31 31 
47 16 16 81 4 4 54 3 3 117 1 1 96 1 1 84 1 1 49 1 1 16 1 1 0 0 0 0 0 0 0 0 0 
0 0 0 243 50 53 243 50 53 243 50 53 243 50 53 164 120 120 253 253 253 
0 0 0 0 0 0 0 0 0 0 0 0 138 83 83 134 77 77 253 253 253 0 0 0 0 0 0 0 0 0 
0 0 0 195 168 168 123 59 59 86 5 5 0 0 0 0 0 0 0 0 0 0 0 0 0 0 0 0 0 0 0 0 0 
0 0 0 0 0 0 0 0 0 0 0 0 0 0 0 0 0 0 0 0 0 0 0 0 0 0 0 0 0 0 0 0 0 0 0 0 0 0 0 
0 0 0 0 0 0 0 0 0 0 0 0 0 0 0 0 0 0 0 0 0 0 0 0 0 0 0 0 0 0 200 70 70 
128 40 40 106 27 27 82 3 3 32 2 2 95 1 1 77 1 1 81 1 1 67 1 1 51 0 0 0 0 0 
0 0 0 0 0 0 0 0 0 0 0 0 0 0 0 143 89 89 136 79 79 132 74 74 253 253 253 
0 0 0 0 0 0 0 0 0 134 73 73 131 71 71 108 28 28 121 4 4 86 5 5 0 0 0 86 5 5 
133 74 74 131 71 71 125 63 63 0 0 0 0 0 0 0 0 0 0 0 0 0 0 0 0 0 0 0 0 0 0 0 0 
0 0 0 0 0 0 0 0 0 0 0 0 0 0 0 0 0 0 0 0 0 0 0 0 0 0 0 0 0 0 0 0 0 0 0 0 0 0 0 
0 0 0 0 0 0 0 0 0 0 0 0 0 0 0 0 0 0 0 0 0 0 0 0 0 0 0 253 253 253 227 73 73 
153 42 42 180 38 38 55 3 3 74 2 2 144 1 1 117 2 2 92 1 1 59 1 1 68 0 0 144 0 0 
0 0 0 0 0 0 0 0 0 0 0 0 158 45 45 135 72 72 130 70 70 86 5 5 0 0 0 0 0 0 86 5 5 
132 66 66 121 55 55 103 29 29 86 5 5 96 5 5 93 5 5 86 5 5 149 84 84 134 72 72 
135 70 70 88 5 5 148 3 3 0 0 0 0 0 0 0 0 0 0 0 0 0 0 0 0 0 0 0 0 0 0 0 0 0 0 0 
0 0 0 0 0 0 0 0 0 0 0 0 0 0 0 0 0 0 0 0 0 0 0 0 0 0 0 0 0 0 0 0 0 0 0 0 0 0 0 
0 0 0 0 0 0 0 0 0 0 0 0 0 0 0 0 0 0 0 0 0 254 68 68 254 70 70 254 74 74 
255 1 1 65 3 3 184 2 2 220 3 3 119 1 1 96 1 1 84 1 1 65 0 0 56 2 2 72 3 3 
38 2 2 0 0 0 120 4 4 138 73 73 131 72 72 93 13 13 94 5 5 86 5 5 86 5 5 158 39 39 
120 49 49 109 37 37 91 11 11 91 11 11 91 11 11 86 5 5 91 5 5 132 72 72 
120 56 56 86 5 5 86 5 5 120 4 4 0 0 0 0 0 0 0 0 0 0 0 0 0 0 0 0 0 0 0 0 0 
0 0 0 0 0 0 0 0 0 0 0 0 0 0 0 0 0 0 0 0 0 0 0 0 0 0 0 0 0 0 0 0 0 0 0 0 0 0 0 
0 0 0 0 0 0 0 0 0 0 0 0 0 0 0 0 0 0 0 0 0 0 0 0 0 0 0 254 98 98 254 83 83 
254 87 87 254 67 67 198 4 4 255 3 3 185 6 6 136 1 1 119 1 1 101 1 1 75 0 0 
54 6 6 65 9 9 60 7 7 65 4 4 122 65 65 134 76 76 104 31 31 65 4 4 64 4 4 73 6 6 
91 11 11 106 33 33 93 25 25 79 11 11 80 11 11 85 13 13 88 13 13 86 13 13 
95 12 12 86 13 13 78 12 12 64 6 6 86 5 5 88 5 5 86 5 5 0 0 0 0 0 0 0 0 0 0 0 0 
0 0 0 0 0 0 0 0 0 0 0 0 0 0 0 0 0 0 0 0 0 0 0 0 0 0 0 0 0 0 0 0 0 0 0 0 0 0 0 
0 0 0 0 0 0 0 0 0 0 0 0 0 0 0 0 0 0 0 0 0 0 0 0 0 0 0 0 0 0 255 0 0 138 3 3 
199 97 97 165 66 66 254 71 71 255 3 3 242 5 5 110 24 24 130 1 1 98 1 1 83 1 1 
71 8 8 79 11 11 91 11 11 78 11 11 106 25 25 118 32 32 93 20 20 89 11 11 
86 14 14 84 14 14 87 15 15 98 16 16 99 17 17 101 18 18 105 17 17 106 18 18 
103 17 17 101 15 15 108 14 14 107 12 12 108 12 12 105 12 12 116 12 12 
104 13 13 104 9 9 88 4 4 112 4 4 122 4 4 113 4 4 98 5 5 86 5 5 102 5 5 111 4 4 
0 0 0 0 0 0 0 0 0 0 0 0 0 0 0 0 0 0 0 0 0 0 0 0 0 0 0 0 0 0 0 0 0 0 0 0 0 0 0 
0 0 0 0 0 0 0 0 0 0 0 0 0 0 0 0 0 0 255 0 0 105 4 4 88 5 5 155 47 47 139 52 52 
159 52 52 255 56 56 119 23 23 134 21 21 139 2 2 94 1 1 98 1 1 71 11 11 
86 14 14 87 15 15 116 30 30 104 28 28 104 21 21 101 18 18 105 17 17 104 17 17 
104 17 17 107 17 17 110 16 16 102 18 18 100 18 18 102 18 18 103 18 18 
101 17 17 103 16 16 107 15 15 106 15 15 115 15 15 131 12 12 131 12 12 
133 12 12 107 12 12 94 13 13 96 12 12 89 9 9 86 5 5 86 5 5 86 5 5 90 5 5 
106 4 4 0 0 0 0 0 0 0 0 0 0 0 0 0 0 0 0 0 0 0 0 0 0 0 0 0 0 0 0 0 0 0 0 0 
0 0 0 0 0 0 0 0 0 0 0 0 0 0 0 0 0 0 0 0 0 255 0 0 109 4 4 86 5 5 86 5 5 117 8 8 
209 65 65 145 49 49 254 68 68 155 18 18 214 9 9 124 1 1 131 1 1 101 1 1 
87 15 15 94 15 15 110 23 23 113 25 25 110 18 18 106 18 18 105 18 18 111 17 17 
112 17 17 120 16 16 122 16 16 111 18 18 108 18 18 105 18 18 107 18 18 
111 18 18 112 17 17 108 17 17 115 17 17 106 17 17 107 17 17 107 17 17 
109 15 15 111 12 12 116 12 12 131 12 12 116 13 13 88 13 13 89 9 9 88 8 8 
86 5 5 94 5 5 101 5 5 0 0 0 0 0 0 0 0 0 0 0 0 0 0 0 0 0 0 0 0 0 0 0 0 0 0 0 
0 0 0 0 0 0 0 0 0 0 0 0 0 0 0 0 0 0 0 0 0 0 0 0 0 0 0 214 1 1 86 5 5 73 4 4 
56 3 3 69 16 16 255 43 43 214 62 62 149 52 52 197 55 55 255 3 3 114 1 1 
68 1 1 103 7 7 90 16 16 115 17 17 111 18 18 111 17 17 110 17 17 105 18 18 
103 18 18 107 17 17 118 17 17 120 17 17 133 15 15 122 16 16 119 17 17 
128 16 16 113 17 17 103 18 18 103 18 18 112 17 17 108 18 18 107 18 18 
107 18 18 112 17 17 114 15 15 127 13 13 126 13 13 126 13 13 128 13 13 
128 13 13 86 13 13 93 14 14 87 6 6 86 5 5 95 5 5 0 0 0 0 0 0 0 0 0 0 0 0 0 0 0 
0 0 0 0 0 0 0 0 0 0 0 0 0 0 0 0 0 0 0 0 0 0 0 0 0 0 0 0 0 0 0 0 0 0 0 0 0 0 0 
184 2 2 136 50 50 166 59 59 169 2 2 126 5 5 110 22 22 225 58 58 122 45 45 
148 41 41 255 3 3 103 1 1 101 1 1 92 10 10 125 14 14 119 17 17 118 17 17 
127 16 16 131 15 15 108 14 14 110 12 12 158 60 60 189 76 76 196 55 55 
240 5 5 213 7 7 162 12 12 126 16 16 118 17 17 107 18 18 101 18 18 101 18 18 
107 18 18 105 18 18 104 18 18 109 18 18 124 16 16 119 16 16 114 15 15 
121 13 13 130 13 13 123 13 13 128 12 12 88 13 13 91 11 11 87 6 6 111 4 4 
0 0 0 0 0 0 0 0 0 0 0 0 0 0 0 0 0 0 0 0 0 0 0 0 0 0 0 0 0 0 0 0 0 0 0 0 0 0 0 
0 0 0 0 0 0 0 0 0 0 0 0 0 0 0 255 0 0 254 87 87 186 50 50 182 2 2 182 2 2 
121 9 9 107 12 12 229 65 65 227 67 67 191 3 3 80 1 1 109 1 1 81 11 11 120 15 15 
138 15 15 143 14 14 120 14 14 85 10 10 96 18 18 160 71 71 238 110 110 
239 78 78 240 19 19 251 7 7 255 3 3 255 3 3 184 10 10 144 14 14 111 17 17 
107 18 18 102 18 18 108 17 17 116 17 17 109 18 18 109 18 18 122 17 17 
129 16 16 129 16 16 138 14 14 125 13 13 126 13 13 130 13 13 110 15 15 
94 15 15 93 14 14 105 11 11 255 0 0 0 0 0 0 0 0 0 0 0 0 0 0 0 0 0 0 0 0 0 0 0 
0 0 0 0 0 0 0 0 0 0 0 0 0 0 0 0 0 0 0 0 0 0 0 0 0 0 0 0 0 0 255 0 0 254 72 72 
185 52 52 184 2 2 178 2 2 166 1 1 70 15 15 215 62 62 254 69 69 96 1 1 91 1 1 
138 2 2 167 11 11 152 13 13 162 12 12 100 9 9 83 9 9 81 20 20 139 64 64 
239 134 134 238 33 33 240 18 18 240 18 18 247 12 12 255 3 3 255 3 3 191 10 10 
145 14 14 116 17 17 111 17 17 113 17 17 129 16 16 117 16 16 131 16 16 
130 16 16 125 16 16 130 16 16 132 15 15 143 14 14 152 13 13 128 13 13 
130 13 13 113 16 16 91 16 16 94 15 15 62 25 25 115 11 11 86 5 5 0 0 0 0 0 0 
0 0 0 0 0 0 0 0 0 0 0 0 0 0 0 0 0 0 0 0 0 0 0 0 0 0 0 0 0 0 0 0 0 243 50 53 
0 0 0 0 0 0 0 0 0 254 72 72 195 57 57 151 38 38 162 7 7 166 2 2 124 4 4 
207 55 55 255 24 24 134 2 2 203 2 2 194 8 8 177 11 11 175 11 11 99 9 9 86 9 9 
95 27 27 140 64 64 220 130 130 239 128 128 240 69 69 240 44 44 240 22 22 
247 11 11 255 3 3 255 3 3 255 3 3 181 10 10 156 13 13 111 17 17 116 15 15 
142 10 10 69 11 11 42 7 7 49 8 8 84 11 11 51 8 8 84 11 11 158 12 12 150 13 13 
159 13 13 113 12 12 106 14 14 100 16 16 90 15 15 62 25 25 62 25 25 117 11 11 
86 5 5 0 0 0 0 0 0 0 0 0 0 0 0 0 0 0 0 0 0 0 0 0 0 0 0 0 0 0 0 0 0 0 0 0 0 0 0 
243 50 53 0 0 0 0 0 0 0 0 0 254 82 82 183 47 47 169 56 56 169 12 12 171 7 7 
131 1 1 151 0 0 197 2 2 255 1 1 245 4 4 179 11 11 166 11 11 116 9 9 99 9 9 
78 4 4 163 68 68 198 107 107 239 141 141 240 125 125 240 105 105 240 93 93 
240 57 57 247 12 12 248 10 10 254 4 4 255 3 3 174 11 11 151 10 10 131 12 12 
135 10 10 54 8 8 37 7 7 38 7 7 38 7 7 45 9 9 50 11 11 161 21 21 167 12 12 
159 12 12 141 12 12 131 12 12 116 12 12 109 16 16 90 15 15 74 20 20 62 25 25 
63 25 25 121 10 10 111 4 4 0 0 0 0 0 0 0 0 0 0 0 0 0 0 0 0 0 0 0 0 0 0 0 0 
0 0 0 0 0 0 0 0 0 0 0 0 0 0 0 0 0 0 0 0 0 255 45 45 182 48 48 183 47 47 
151 39 39 134 10 10 138 5 5 183 2 2 232 3 3 233 5 5 168 10 10 136 10 10 
145 10 10 90 9 9 74 7 7 35 3 3 184 66 66 216 130 130 240 127 127 240 107 107 
240 105 105 240 107 107 240 105 105 246 65 65 247 27 27 247 11 11 252 6 6 
162 7 7 119 15 15 96 16 16 71 12 12 47 4 4 66 4 4 47 5 5 58 20 20 94 29 29 
180 48 48 212 55 55 197 9 9 152 13 13 161 12 12 131 12 12 124 14 14 101 15 15 
96 17 17 93 13 13 63 25 25 62 25 25 63 25 25 103 11 11 0 0 0 0 0 0 0 0 0 0 0 0 
0 0 0 0 0 0 0 0 0 0 0 0 0 0 0 0 0 0 0 0 0 0 0 0 0 0 0 0 0 0 0 0 0 255 1 1 
210 81 81 146 37 37 146 37 37 146 37 37 146 32 32 179 6 6 233 5 5 130 10 10 
112 10 10 146 10 10 100 9 9 95 9 9 39 1 1 39 8 8 212 109 109 239 149 149 
239 143 143 239 135 135 240 109 109 240 107 107 240 105 105 240 104 104 
240 50 50 244 41 41 182 22 22 124 18 18 103 17 17 80 14 14 82 14 14 77 8 8 
62 4 4 40 9 9 57 19 19 194 54 54 254 70 70 213 48 48 175 11 11 160 12 12 
144 14 14 116 16 16 112 16 16 111 16 16 57 10 10 53 9 9 91 11 11 62 25 25 
62 25 25 67 23 23 141 3 3 0 0 0 0 0 0 0 0 0 0 0 0 0 0 0 0 0 0 0 0 0 0 0 0 
0 0 0 0 0 0 0 0 0 0 0 0 0 0 0 0 0 0 255 2 2 194 74 74 134 46 46 118 37 37 
119 39 39 146 37 37 147 28 28 126 13 13 114 9 9 119 9 9 98 9 9 102 9 9 38 3 3 
37 7 7 41 11 11 239 146 146 239 154 154 239 148 148 239 154 154 239 145 145 
240 105 105 240 107 107 239 109 109 238 76 76 186 42 42 126 20 20 115 18 18 
96 18 18 81 14 14 84 14 14 69 7 7 38 8 8 42 11 11 183 54 54 246 68 68 
254 72 72 233 47 47 163 12 12 130 15 15 123 16 16 124 16 16 118 16 16 
116 15 15 49 9 9 45 9 9 94 11 11 84 14 14 62 25 25 62 25 25 131 4 4 0 0 0 
0 0 0 0 0 0 0 0 0 0 0 0 0 0 0 0 0 0 0 0 0 243 50 53 243 50 53 0 0 0 0 0 0 
0 0 0 0 0 0 255 0 0 254 71 71 180 53 53 146 29 29 138 10 10 119 23 23 
118 14 14 99 15 15 110 9 9 103 10 10 96 9 9 36 5 5 37 6 6 38 7 7 66 25 25 
239 141 141 239 132 132 239 133 133 237 137 137 235 151 151 237 143 143 
239 108 108 234 92 92 160 48 48 127 28 28 126 20 20 111 18 18 90 18 18 
83 14 14 73 10 10 38 8 8 46 11 11 186 53 53 254 70 70 254 71 71 254 67 67 
229 12 12 155 13 13 129 15 15 130 15 15 131 15 15 118 15 15 107 15 15 
43 7 7 29 5 5 96 17 17 93 11 11 62 25 25 62 25 25 124 4 4 0 0 0 0 0 0 0 0 0 
0 0 0 0 0 0 0 0 0 0 0 0 0 0 0 0 0 0 0 0 0 243 50 53 0 0 0 0 0 0 0 0 0 255 0 0 
255 49 49 175 59 59 181 2 2 123 12 12 100 14 14 107 14 14 108 14 14 81 8 8 
46 6 6 37 6 6 37 6 6 38 7 7 38 7 7 239 103 103 239 129 129 239 124 124 
238 128 128 233 132 132 233 143 143 229 121 121 233 88 88 150 45 45 138 36 36 
127 27 27 118 20 20 100 18 18 78 14 14 57 6 6 37 7 7 47 11 11 181 54 54 
254 70 70 254 71 71 255 26 26 189 10 10 187 10 10 139 15 15 126 16 16 
115 16 16 108 16 16 109 17 17 51 8 8 39 7 7 0 0 0 97 19 19 110 14 14 62 25 25 
62 25 25 83 16 16 0 0 0 0 0 0 0 0 0 0 0 0 0 0 0 0 0 0 0 0 0 0 0 0 0 0 0 0 0 0 
243 50 53 0 0 0 0 0 0 0 0 0 0 0 0 254 71 71 188 53 53 156 4 4 131 10 10 
78 11 11 84 10 10 85 11 11 40 2 2 44 3 3 37 7 7 38 7 7 40 7 7 58 6 6 239 115 115 
239 129 129 239 129 129 233 113 113 232 118 118 228 100 100 220 107 107 
156 62 62 137 47 47 138 30 30 118 21 21 101 18 18 85 13 13 43 6 6 38 7 7 
61 16 16 161 46 46 254 70 70 255 49 49 255 3 3 246 4 4 157 13 13 152 13 13 
126 16 16 121 15 15 112 16 16 112 16 16 110 16 16 46 8 8 41 8 8 0 0 0 0 0 0 
0 0 0 63 25 25 62 25 25 86 12 12 0 0 0 0 0 0 0 0 0 0 0 0 0 0 0 0 0 0 243 50 53 
0 0 0 0 0 0 0 0 0 0 0 0 0 0 0 0 0 0 0 0 0 255 3 3 254 72 72 231 64 64 
145 9 9 118 10 10 68 10 10 106 10 10 45 7 7 39 6 6 36 7 7 36 7 7 38 7 7 39 7 7 
48 6 6 240 129 129 239 139 139 235 110 110 232 121 121 228 105 105 209 105 105 
169 73 73 137 44 44 137 42 42 132 28 28 104 17 17 94 12 12 36 7 7 37 7 7 
45 10 10 136 37 37 186 52 52 254 72 72 255 3 3 185 10 10 157 13 13 159 12 12 
125 15 15 112 16 16 106 17 17 105 17 17 105 17 17 54 10 10 43 8 8 52 10 10 
0 0 0 0 0 0 0 0 0 93 5 5 62 25 25 70 22 22 0 0 0 0 0 0 0 0 0 0 0 0 0 0 0 0 0 0 
243 50 53 0 0 0 0 0 0 0 0 0 0 0 0 0 0 0 0 0 0 0 0 0 255 60 60 254 71 71 
255 57 57 145 9 9 143 10 10 67 10 10 118 11 11 35 7 7 42 7 7 47 6 6 45 6 6 
45 6 6 40 7 7 48 6 6 245 98 98 236 137 137 230 110 110 227 96 96 206 85 85 
141 46 46 128 35 35 131 30 30 128 22 22 105 17 17 99 9 9 39 7 7 37 7 7 42 6 6 
124 42 42 151 42 42 254 74 74 254 79 79 182 10 10 154 13 13 135 13 13 
125 14 14 111 17 17 103 18 18 105 17 17 104 17 17 51 9 9 38 7 7 44 8 8 97 19 19 
0 0 0 0 0 0 86 5 5 87 5 5 62 25 25 62 25 25 0 0 0 0 0 0 0 0 0 0 0 0 0 0 0 
0 0 0 0 0 0 0 0 0 0 0 0 0 0 0 0 0 0 0 0 0 0 0 0 0 0 0 255 25 25 254 70 70 
254 70 70 163 27 27 131 10 10 80 14 14 98 15 15 38 7 7 37 7 7 0 0 0 0 0 0 
0 0 0 255 0 0 255 0 0 246 92 92 233 98 98 228 109 109 228 108 108 140 37 37 
134 32 32 118 26 26 121 20 20 112 16 16 61 8 8 37 7 7 38 7 7 37 6 6 122 41 41 
136 37 37 176 50 50 255 62 62 255 3 3 183 10 10 143 10 10 126 14 14 112 16 16 
107 17 17 104 17 17 98 18 18 44 8 8 38 7 7 38 7 7 37 7 7 0 0 0 0 0 0 0 0 0 
123 4 4 63 25 25 62 25 25 0 0 0 0 0 0 0 0 0 0 0 0 0 0 0 0 0 0 0 0 0 0 0 0 
0 0 0 0 0 0 0 0 0 0 0 0 0 0 0 0 0 0 0 0 0 255 2 2 255 65 65 254 70 70 
183 44 44 76 12 12 81 14 14 75 12 12 41 8 8 0 0 0 0 0 0 0 0 0 0 0 0 0 0 0 
255 1 1 241 85 85 233 98 98 233 117 117 228 109 109 137 33 33 122 23 23 
113 18 18 113 16 16 69 8 8 37 7 7 38 7 7 39 7 7 50 3 3 133 40 40 184 51 51 
254 74 74 224 6 6 147 9 9 152 8 8 120 15 15 112 16 16 110 16 16 103 17 17 
94 18 18 44 8 8 44 8 8 41 7 7 43 7 7 37 7 7 0 0 0 0 0 0 0 0 0 73 16 16 
62 25 25 66 21 21 0 0 0 0 0 0 0 0 0 0 0 0 0 0 0 243 50 53 243 50 53 0 0 0 
0 0 0 243 50 53 243 50 53 243 50 53 0 0 0 0 0 0 0 0 0 255 0 0 254 73 73 
222 65 65 142 40 40 86 13 13 82 14 14 57 10 10 42 8 8 0 0 0 0 0 0 0 0 0 0 0 0 
0 0 0 249 53 53 241 91 91 233 114 114 233 117 117 225 81 81 139 21 21 
114 18 18 101 17 17 43 8 8 37 7 7 37 7 7 39 7 7 38 7 7 120 59 59 185 89 89 
232 65 65 255 23 23 169 11 11 130 13 13 125 14 14 116 15 15 104 17 17 
96 18 18 96 18 18 44 8 8 44 8 8 39 7 7 44 7 7 37 7 7 0 0 0 0 0 0 0 0 0 86 5 5 
62 25 25 62 25 25 0 0 0 0 0 0 0 0 0 0 0 0 0 0 0 0 0 0 243 50 53 243 50 53 
0 0 0 0 0 0 243 50 53 243 50 53 243 50 53 0 0 0 0 0 0 0 0 0 255 0 0 254 73 73 
192 56 56 131 6 6 84 14 14 81 14 14 96 15 15 42 8 8 0 0 0 0 0 0 0 0 0 0 0 0 
255 0 0 249 70 70 242 76 76 238 85 85 235 77 77 177 25 25 137 14 14 127 13 13 
66 10 10 37 7 7 37 7 7 37 7 7 38 7 7 53 18 18 134 65 65 186 63 63 255 3 3 
255 3 3 170 11 11 136 12 12 129 14 14 105 16 16 93 17 17 94 18 18 47 9 9 
40 8 8 38 7 7 48 7 7 37 7 7 0 0 0 0 0 0 0 0 0 0 0 0 0 0 0 62 25 25 62 25 25 
0 0 0 0 0 0 0 0 0 0 0 0 0 0 0 150 143 69 0 0 0 0 0 0 251 42 52 243 50 53 
243 50 53 243 50 53 243 50 53 0 0 0 0 0 0 0 0 0 255 0 0 254 72 72 216 60 60 
96 1 1 86 15 15 87 16 16 53 9 9 41 8 8 0 0 0 0 0 0 0 0 0 0 0 0 255 47 47 
253 72 72 248 69 69 247 11 11 227 10 10 159 11 11 146 10 10 140 10 10 
42 7 7 37 7 7 37 7 7 37 7 7 55 6 6 80 41 41 135 61 61 209 9 9 206 7 7 162 12 12 
141 11 11 132 12 12 113 14 14 103 16 16 96 17 17 44 8 8 41 8 8 38 7 7 45 7 7 
109 5 5 0 0 0 0 0 0 0 0 0 0 0 0 0 0 0 0 0 0 0 0 0 0 0 0 0 0 0 0 0 0 0 0 0 
0 0 0 0 0 0 150 143 69 0 0 0 0 0 0 247 46 52 243 50 53 243 50 53 243 50 53 
243 50 53 0 0 0 0 0 0 0 0 0 255 0 0 254 76 76 191 44 44 100 9 9 89 16 16 
88 17 17 53 9 9 40 8 8 0 0 0 0 0 0 0 0 0 255 57 57 254 72 72 254 70 70 
255 18 18 250 3 3 139 12 12 120 14 14 88 11 11 77 10 10 37 7 7 37 7 7 37 7 7 
38 7 7 48 3 3 121 1 1 145 1 1 170 8 8 152 13 13 142 13 13 139 12 12 118 12 12 
109 13 13 107 13 13 45 8 8 45 8 8 44 7 7 38 7 7 102 5 5 0 0 0 0 0 0 0 0 0 
0 0 0 0 0 0 0 0 0 0 0 0 0 0 0 0 0 0 0 0 0 0 0 0 0 0 0 0 0 0 0 0 0 0 0 0 0 0 0 
0 0 0 232 61 55 242 51 53 243 50 53 243 50 53 0 0 0 0 0 0 0 0 0 0 0 0 255 0 0 
243 71 71 171 50 50 94 16 16 88 16 16 63 12 12 43 8 8 54 10 10 0 0 0 0 0 0 
255 2 2 254 73 73 254 70 70 255 3 3 255 3 3 192 9 9 124 14 14 123 14 14 
52 9 9 38 7 7 37 7 7 37 7 7 37 7 7 40 7 7 51 3 3 138 1 1 187 2 2 216 5 5 
168 12 12 154 13 13 167 10 10 197 9 9 112 14 14 110 12 12 106 13 13 80 11 11 
45 8 8 48 6 6 46 6 6 51 7 7 0 0 0 0 0 0 0 0 0 0 0 0 0 0 0 0 0 0 0 0 0 0 0 0 
0 0 0 0 0 0 0 0 0 0 0 0 0 0 0 0 0 0 126 167 73 132 161 72 182 111 64 
232 61 55 247 46 52 251 42 52 0 0 0 0 0 0 0 0 0 0 0 0 255 0 0 187 52 52 
98 27 27 88 16 16 88 17 17 43 8 8 45 7 7 97 19 19 0 0 0 255 2 2 254 72 72 
254 74 74 255 18 18 255 3 3 224 6 6 139 11 11 124 14 14 110 14 14 42 8 8 
38 7 7 37 7 7 37 7 7 37 7 7 41 7 7 89 3 3 182 49 49 180 32 32 182 2 2 243 4 4 
224 6 6 251 3 3 191 2 2 117 10 10 129 10 10 135 11 11 107 13 13 64 10 10 
49 7 7 48 7 7 48 7 7 48 6 6 0 0 0 0 0 0 0 0 0 0 0 0 0 0 0 0 0 0 0 0 0 0 0 0 
0 0 0 0 0 0 0 0 0 0 0 0 0 0 0 156 137 68 154 139 68 132 161 72 0 0 0 0 0 0 
0 0 0 0 0 0 0 0 0 0 0 0 255 0 0 248 68 68 150 48 48 94 23 23 88 17 17 73 14 14 
43 8 8 244 1 1 0 0 0 254 87 87 254 71 71 254 73 73 255 3 3 255 3 3 236 5 5 
138 11 11 123 14 14 110 14 14 74 11 11 38 8 8 37 7 7 37 7 7 37 7 7 37 7 7 
38 7 7 71 20 20 185 52 52 105 13 13 188 2 2 209 8 8 184 10 10 205 8 8 190 9 9 
132 13 13 131 13 13 118 15 15 125 14 14 104 15 15 101 14 14 49 7 7 47 7 7 
49 6 6 49 6 6 35 7 7 0 0 0 0 0 0 0 0 0 0 0 0 0 0 0 0 0 0 0 0 0 0 0 0 0 0 0 
0 0 0 0 0 0 157 136 68 156 137 68 126 167 73 0 0 0 0 0 0 0 0 0 0 0 0 0 0 0 
0 0 0 254 89 89 202 86 86 126 39 39 88 17 17 88 16 16 43 8 8 52 7 7 0 0 0 
255 0 0 254 81 81 254 74 74 255 11 11 255 3 3 198 9 9 116 15 15 111 16 16 
119 15 15 109 13 13 39 8 8 38 8 8 38 8 8 37 7 7 37 7 7 39 9 9 41 6 6 40 8 8 
101 12 12 98 5 5 188 2 2 234 5 5 210 7 7 191 9 9 190 10 10 100 8 8 87 8 8 
80 10 10 104 11 11 73 11 11 95 15 15 45 8 8 46 8 8 47 7 7 41 7 7 37 7 7 37 7 7 
0 0 0 0 0 0 0 0 0 0 0 0 0 0 0 0 0 0 0 0 0 0 0 0 0 0 0 150 143 69 0 0 0 0 0 0 
0 0 0 0 0 0 0 0 0 0 0 0 0 0 0 0 0 0 254 153 153 254 119 119 169 48 48 
104 22 22 89 16 16 44 8 8 45 7 7 108 5 5 255 0 0 254 94 94 254 71 71 255 43 43 
255 3 3 230 6 6 141 14 14 111 16 16 106 16 16 115 15 15 45 8 8 37 7 7 37 7 7 
37 7 7 41 11 11 39 9 9 39 8 8 40 6 6 39 7 7 99 35 35 100 29 29 100 5 5 255 3 3 
181 4 4 126 6 6 104 8 8 103 8 8 75 8 8 62 8 8 56 8 8 70 11 11 112 15 15 
91 13 13 45 8 8 45 8 8 49 6 6 39 7 7 37 7 7 0 0 0 0 0 0 0 0 0 0 0 0 0 0 0 
0 0 0 0 0 0 0 0 0 0 0 0 150 143 69 0 0 0 0 0 0 0 0 0 0 0 0 0 0 0 0 0 0 0 0 0 
0 0 0 254 107 107 254 107 107 106 27 27 87 15 15 57 11 11 43 8 8 73 6 6 0 0 0 
254 116 116 254 70 70 255 36 36 255 3 3 245 4 4 157 13 13 117 16 16 104 16 16 
104 16 16 46 8 8 39 7 7 37 7 7 39 9 9 39 9 9 39 9 9 40 10 10 38 7 7 38 7 7 
38 7 7 41 7 7 70 18 18 55 8 8 86 6 6 46 7 7 135 5 5 113 6 6 41 7 7 56 7 7 
72 8 8 56 7 7 65 8 8 119 15 15 122 15 15 47 8 8 43 8 8 43 7 7 40 7 7 37 7 7 
37 7 7 0 0 0 0 0 0 0 0 0 0 0 0 0 0 0 0 0 0 0 0 0 0 0 0 0 0 0 0 0 0 0 0 0 0 0 0 
0 0 0 0 0 0 0 0 0 0 0 0 254 100 100 254 72 72 176 31 31 87 15 15 84 14 14 
43 8 8 49 7 7 0 0 0 254 157 157 254 128 128 255 48 48 255 3 3 255 3 3 158 13 13 
122 16 16 112 16 16 104 16 16 45 8 8 39 7 7 39 7 7 49 7 7 45 7 7 41 6 6 37 6 6 
37 7 7 37 7 7 37 7 7 41 6 6 43 9 9 126 33 33 75 6 6 85 6 6 79 6 6 60 7 7 
101 6 6 57 6 6 57 7 7 53 6 6 70 8 8 121 11 11 113 16 16 113 16 16 45 8 8 
44 8 8 38 7 7 43 7 7 37 7 7 37 7 7 0 0 0 0 0 0 0 0 0 0 0 0 0 0 0 0 0 0 0 0 0 
0 0 0 0 0 0 0 0 0 0 0 0 0 0 0 0 0 0 0 0 0 0 0 0 0 0 0 254 73 73 254 68 68 
132 10 10 78 13 13 59 11 11 45 8 8 102 8 8 255 0 0 254 103 103 254 76 76 
255 3 3 255 3 3 196 9 9 117 16 16 109 16 16 112 16 16 56 10 10 40 7 7 39 7 7 
75 5 5 58 6 6 53 6 6 48 6 6 40 6 6 39 6 6 38 6 6 38 6 6 41 6 6 39 7 7 110 32 32 
91 19 19 79 6 6 124 5 5 58 6 6 49 7 7 55 7 7 62 6 6 78 6 6 159 39 39 147 9 9 
114 16 16 113 16 16 45 8 8 44 8 8 41 7 7 39 7 7 37 7 7 0 0 0 0 0 0 0 0 0 0 0 0 
0 0 0 0 0 0 0 0 0 0 0 0 0 0 0 0 0 0 0 0 0 0 0 0 0 0 0 0 0 0 0 0 0 0 0 0 254 89 89 
254 73 73 230 31 31 94 11 11 70 11 11 42 8 8 49 8 8 253 253 253 254 97 97 
254 105 105 254 71 71 255 3 3 202 8 8 127 13 13 110 16 16 111 16 16 52 9 9 
44 8 8 38 7 7 37 7 7 0 0 0 86 5 5 86 5 5 91 5 5 89 5 5 87 5 5 45 6 6 41 6 6 
44 6 6 38 7 7 41 9 9 86 23 23 82 6 6 88 6 6 50 7 7 43 7 7 42 7 7 43 8 8 240 66 66 
201 58 58 156 22 22 120 15 15 120 15 15 48 8 8 45 8 8 50 7 7 44 7 7 37 7 7 
0 0 0 0 0 0 0 0 0 0 0 0 0 0 0 0 0 0 0 0 0 0 0 0 0 0 0 0 0 0 0 0 0 0 0 0 0 0 0 
0 0 0 0 0 0 253 253 253 254 71 71 254 69 69 183 2 2 78 11 11 77 11 11 42 7 7 
44 8 8 253 253 253 254 85 85 254 81 81 255 39 39 237 5 5 146 13 13 118 14 14 
112 16 16 112 16 16 46 8 8 39 7 7 37 7 7 0 0 0 0 0 0 0 0 0 0 0 0 0 0 0 0 0 0 
86 5 5 49 6 6 47 6 6 44 6 6 39 7 7 40 7 7 104 2 2 64 6 6 72 6 6 69 6 6 53 6 6 
80 20 20 195 64 64 239 69 69 185 45 45 138 12 12 119 16 16 118 15 15 44 7 7 
45 7 7 42 7 7 36 7 7 37 7 7 0 0 0 0 0 0 0 0 0 0 0 0 0 0 0 0 0 0 0 0 0 0 0 0 
0 0 0 0 0 0 0 0 0 0 0 0 0 0 0 0 0 0 255 3 3 254 87 87 254 75 75 186 2 2 
186 2 2 69 10 10 88 11 11 42 7 7 41 8 8 253 253 253 254 92 92 254 76 76 
243 4 4 182 10 10 122 14 14 125 14 14 124 14 14 45 8 8 39 7 7 39 7 7 0 0 0 
0 0 0 0 0 0 0 0 0 0 0 0 0 0 0 0 0 0 86 5 5 70 6 6 50 6 6 42 7 7 39 7 7 38 7 7 
74 4 4 0 0 0 37 7 7 37 7 7 254 153 153 254 78 78 254 79 79 187 47 47 164 37 37 
132 13 13 122 15 15 109 14 14 45 8 8 42 7 7 42 6 6 37 7 7 0 0 0 0 0 0 0 0 0 
0 0 0 0 0 0 0 0 0 0 0 0 0 0 0 0 0 0 0 0 0 0 0 0 0 0 0 0 0 0 0 0 0 0 0 0 254 111 111 
254 76 76 254 65 65 255 3 3 181 2 2 75 10 10 81 10 10 43 8 8 41 8 8 255 44 44 
254 80 80 252 69 69 184 10 10 158 13 13 124 14 14 123 14 14 47 8 8 38 7 7 
46 7 7 0 0 0 0 0 0 0 0 0 0 0 0 0 0 0 0 0 0 0 0 0 0 0 0 86 5 5 69 6 6 51 6 6 
43 7 7 38 7 7 39 7 7 90 5 5 0 0 0 0 0 0 0 0 0 253 253 253 254 82 82 196 50 50 
186 47 47 150 13 13 124 15 15 121 13 13 45 7 7 42 7 7 42 7 7 36 7 7 0 0 0 
0 0 0 0 0 0 0 0 0 0 0 0 0 0 0 0 0 0 0 0 0 0 0 0 0 0 0 0 0 0 0 0 0 0 0 0 0 0 0 
0 0 0 0 0 0 254 132 132 254 76 76 254 70 70 255 3 3 178 2 2 99 9 9 73 10 10 
42 7 7 41 8 8 251 144 144 254 105 105 204 54 54 182 10 10 133 13 13 124 14 14 
47 8 8 38 7 7 37 7 7 255 0 0 0 0 0 0 0 0 0 0 0 0 0 0 0 0 0 0 0 0 0 0 0 0 0 0 
0 0 0 109 4 4 50 6 6 39 7 7 38 7 7 48 6 6 91 5 5 86 5 5 0 0 0 0 0 0 253 253 253 
254 76 76 183 43 43 153 13 13 134 15 15 119 15 15 90 13 13 38 7 7 40 7 7 
38 7 7 37 7 7 0 0 0 0 0 0 0 0 0 0 0 0 0 0 0 0 0 0 0 0 0 0 0 0 0 0 0 0 0 0 
0 0 0 0 0 0 0 0 0 0 0 0 0 0 0 0 0 0 254 99 99 254 73 73 254 71 71 255 53 53 
192 2 2 122 5 5 82 10 10 75 10 10 45 12 12 175 101 101 254 134 134 184 47 47 
179 11 11 147 11 11 69 10 10 39 7 7 37 7 7 37 7 7 255 0 0 0 0 0 0 0 0 0 0 0 
0 0 0 0 0 0 0 0 0 37 7 7 37 7 7 37 7 7 62 6 6 50 6 6 38 7 7 38 7 7 42 7 7 
54 6 6 51 6 6 43 7 7 47 7 7 152 116 116 235 70 70 182 43 43 152 13 13 
129 14 14 118 14 14 47 8 8 42 7 7 44 6 6 36 7 7 0 0 0 0 0 0 0 0 0 0 0 0 0 0 0 
0 0 0 0 0 0 0 0 0 0 0 0 0 0 0 0 0 0 0 0 0 0 0 0 0 0 0 0 0 0 0 0 0 0 0 0 0 0 0 
254 73 73 254 74 74 254 66 66 193 2 2 165 2 2 93 10 10 72 10 10 46 12 12 
106 51 51 226 104 104 183 15 15 183 10 10 165 10 10 81 8 8 38 7 7 37 7 7 
37 7 7 255 0 0 0 0 0 0 0 0 0 0 0 0 0 0 37 7 7 37 7 7 37 7 7 37 7 7 45 7 7 
44 7 7 42 7 7 38 7 7 38 7 7 38 7 7 38 7 7 39 7 7 42 7 7 58 15 15 127 60 60 
232 65 65 189 29 29 139 15 15 125 15 15 93 12 12 45 8 8 47 6 6 46 6 6 0 0 0 
0 0 0 0 0 0 0 0 0 0 0 0 0 0 0 0 0 0 0 0 0 0 0 0 0 0 0 0 0 0 0 0 0 0 0 0 0 0 0 
0 0 0 0 0 0 0 0 0 0 0 0 0 0 0 255 46 46 254 78 78 254 70 70 255 35 35 
170 2 2 107 5 5 80 10 10 66 23 23 77 31 31 202 86 86 183 53 53 184 34 34 
183 10 10 105 9 9 38 7 7 37 7 7 0 0 0 255 0 0 0 0 0 0 0 0 41 7 7 40 7 7 41 7 7 
40 7 7 41 7 7 55 6 6 52 6 6 47 7 7 39 7 7 38 7 7 38 7 7 38 7 7 39 7 7 43 7 7 
50 6 6 92 46 46 208 76 76 242 60 60 187 10 10 160 13 13 135 14 14 46 8 8 
46 7 7 40 6 6 95 0 0 0 0 0 0 0 0 0 0 0 0 0 0 0 0 0 0 0 0 0 0 0 0 0 0 0 0 0 
0 0 0 0 0 0 0 0 0 0 0 0 0 0 0 0 0 0 0 0 0 0 0 0 0 0 0 0 0 0 255 52 52 
254 70 70 254 74 74 254 72 72 213 3 3 153 2 2 75 8 8 82 29 29 123 50 50 
216 84 84 187 48 48 184 36 36 171 10 10 119 10 10 44 7 7 37 7 7 0 0 0 255 0 0 
46 7 7 43 7 7 46 7 7 47 7 7 46 7 7 45 7 7 42 7 7 52 6 6 50 6 6 39 7 7 38 7 7 
38 7 7 40 7 7 46 6 6 79 5 5 86 5 5 188 4 4 172 67 67 92 15 15 252 3 3 164 12 12 
151 12 12 127 12 12 111 11 11 39 7 7 51 6 6 255 0 0 0 0 0 0 0 0 0 0 0 0 0 0 
0 0 0 0 0 0 0 0 0 0 0 0 0 0 0 0 0 0 0 0 0 0 0 0 0 0 0 0 0 0 0 0 0 0 0 0 0 0 0 
0 0 0 0 0 0 253 253 253 254 72 72 254 72 72 254 71 71 255 59 59 255 3 3 
214 3 3 110 2 2 141 58 58 254 72 72 238 66 66 179 46 46 167 10 10 122 9 9 
50 8 8 39 8 8 43 7 7 255 0 0 63 6 6 43 7 7 42 7 7 42 7 7 42 7 7 40 7 7 40 7 7 
51 6 6 49 7 7 47 7 7 47 7 7 62 6 6 100 5 5 142 4 4 192 4 4 176 4 4 185 4 4 
227 3 3 246 3 3 255 3 3 165 12 12 147 12 12 121 11 11 107 12 12 47 7 7 44 6 6 
50 6 6 48 7 7 0 0 0 0 0 0 0 0 0 0 0 0 0 0 0 0 0 0 0 0 0 0 0 0 0 0 0 0 0 0 
0 0 0 0 0 0 0 0 0 0 0 0 0 0 0 0 0 0 0 0 0 0 0 0 0 0 0 254 78 78 254 75 75 
254 74 74 254 71 71 254 67 67 255 3 3 202 2 2 157 56 56 254 71 71 254 74 74 
226 62 62 184 10 10 146 10 10 121 11 11 59 10 10 47 7 7 50 7 7 86 5 5 86 5 5 
86 5 5 86 5 5 46 7 7 48 7 7 49 7 7 49 7 7 61 6 6 131 4 4 186 3 3 181 4 4 
185 3 3 234 3 3 255 3 3 234 3 3 197 4 4 236 3 3 255 3 3 200 8 8 160 12 12 
164 12 12 121 12 12 115 11 11 112 6 6 116 3 3 75 4 4 44 6 6 57 6 6 0 0 0 0 0 0 
0 0 0 0 0 0 0 0 0 0 0 0 0 0 0 0 0 0 0 0 0 0 0 0 0 0 0 0 0 0 0 0 0 0 0 0 0 0 0 
0 0 0 243 50 53 243 50 53 0 0 0 255 2 2 255 32 32 254 71 71 254 71 71 
254 70 70 246 3 3 177 0 0 254 73 73 254 71 71 254 70 70 236 60 60 167 11 11 
133 10 10 118 9 9 59 10 10 44 9 9 73 14 14 69 13 13 0 0 0 86 5 5 86 5 5 86 5 5 
109 5 5 136 4 4 249 3 3 255 3 3 255 3 3 255 3 3 253 3 3 255 3 3 255 3 3 
255 3 3 255 3 3 236 5 5 189 10 10 165 12 12 164 12 12 165 12 12 165 12 12 
141 12 12 123 11 11 125 10 10 106 9 9 46 7 7 44 7 7 51 6 6 255 0 0 0 0 0 0 0 0 
0 0 0 0 0 0 0 0 0 0 0 0 0 0 0 0 0 0 0 0 0 0 0 0 0 0 0 0 0 0 243 50 53 
243 50 53 0 0 0 0 0 0 243 50 53 0 0 0 255 2 2 255 2 2 254 67 67 254 70 70 
254 70 70 255 2 2 255 58 58 254 72 72 254 73 73 254 68 68 229 40 40 183 10 10 
154 10 10 124 10 10 98 10 10 99 10 10 103 10 10 87 2 2 27 2 2 86 5 5 148 4 4 
255 3 3 255 3 3 255 3 3 255 3 3 255 3 3 255 3 3 255 1 1 255 3 3 255 3 3 
255 3 3 255 3 3 196 9 9 189 10 10 164 12 12 160 12 12 164 12 12 165 12 12 
162 12 12 164 12 12 139 10 10 118 8 8 44 7 7 39 7 7 39 7 7 255 0 0 0 0 0 0 0 0 
0 0 0 0 0 0 0 0 0 0 0 0 0 0 0 0 0 0 0 0 0 0 0 0 0 0 0 0 0 0 243 50 53 
243 50 53 0 0 0 0 0 0 243 50 53 0 0 0 0 0 0 255 3 3 255 3 3 255 3 3 254 78 78 
255 54 54 255 2 2 255 45 45 254 83 83 254 71 71 254 71 71 239 5 5 188 10 10 
183 10 10 171 10 10 150 10 10 176 6 6 189 0 0 210 0 0 255 0 0 255 3 3 255 3 3 
255 3 3 255 3 3 255 1 1 255 1 1 255 0 0 255 3 3 255 3 3 255 3 3 255 3 3 
255 3 3 228 6 6 189 10 10 164 12 12 164 12 12 164 12 12 161 12 12 164 12 12 
171 11 11 86 8 8 55 7 7 52 7 7 58 6 6 24 5 5 0 0 0 0 0 0 0 0 0 0 0 0 0 0 0 
0 0 0 0 0 0 0 0 0 0 0 0 0 0 0 0 0 0 0 0 0 0 0 0 0 0 0 0 0 0 243 50 53 
243 50 53 243 50 53 0 0 0 0 0 0 0 0 0 0 0 0 0 0 0 0 0 0 0 0 0 255 0 0 255 0 0 
255 1 1 254 75 75 254 81 81 254 71 71 255 56 56 255 2 2 255 0 0 255 0 0 
0 0 0 0 0 0 0 0 0 255 2 2 255 3 3 255 3 3 0 0 0 0 0 0 0 0 0 255 1 1 255 3 3 
255 3 3 255 3 3 255 3 3 255 3 3 255 3 3 255 3 3 255 3 3 204 6 6 64 7 7 79 8 8 
187 10 10 189 10 10 54 7 7 54 7 7 58 7 7 170 5 5 0 0 0 0 0 0 0 0 0 0 0 0 0 0 0 
0 0 0 0 0 0 0 0 0 0 0 0 0 0 0 0 0 0 0 0 0 0 0 0 0 0 0 0 0 0 0 0 0 0 0 0 243 50 53 
243 50 53 243 50 53 243 50 53 248 51 54 255 53 56 202 42 44 88 18 19 22 5 5 
0 0 0 0 0 0 0 0 0 255 0 0 254 84 84 254 99 99 254 72 72 255 14 14 255 0 0 
0 0 0 0 0 0 0 0 0 0 0 0 0 0 0 0 0 0 0 0 0 0 0 0 0 0 0 0 0 0 255 3 3 255 3 3 
255 3 3 255 1 1 255 0 0 255 2 2 255 2 2 255 3 3 120 5 5 57 7 7 61 7 7 57 7 7 
46 7 7 46 7 7 48 7 7 57 7 7 56 6 6 0 0 0 0 0 0 0 0 0 0 0 0 0 0 0 0 0 0 0 0 0 
0 0 0 0 0 0 0 0 0 0 0 0 0 0 0 0 0 0 0 0 0 0 0 0 0 0 0 0 0 0 0 0 0 0 0 0 243 50 53 
243 50 53 243 50 53 243 50 53 248 51 54 255 53 56 198 41 43 41 8 9 0 0 0 0 0 0 
2 0 0 4 1 1 0 0 0 0 0 0 0 0 0 0 0 0 0 0 0 0 0 0 0 0 0 0 0 0 0 0 0 0 0 0 0 0 0 
0 0 0 0 0 0 0 0 0 0 0 0 0 0 0 255 3 3 255 3 3 255 3 3 0 0 0 0 0 0 0 0 0 255 3 3 
62 7 7 55 6 6 51 7 7 42 7 7 47 7 7 57 6 6 255 0 0 0 0 0 0 0 0 0 0 0 0 0 0 
0 0 0 243 50 53 0 0 0 0 0 0 0 0 0 0 0 0 0 0 0 0 0 0 0 0 0 0 0 0 0 0 0 0 0 0 
0 0 0 0 0 0 0 0 0 0 0 0 0 0 0 0 0 0 243 50 53 243 50 53 243 50 53 243 50 53 
244 50 53 247 51 54 229 47 50 122 25 27 0 0 0 0 0 0 3 1 1 6 1 1 0 0 0 0 0 0 
0 0 0 0 0 0 0 0 0 0 0 0 0 0 0 0 0 0 0 0 0 0 0 0 0 0 0 0 0 0 0 0 0 0 0 0 0 0 0 
0 0 0 0 0 0 0 0 0 0 0 0 0 0 0 0 0 0 255 3 3 89 6 6 37 7 7 37 7 7 0 0 0 0 0 0 
0 0 0 0 0 0 0 0 0 0 0 0 0 0 0 0 0 0 0 0 0 243 50 53 243 50 53 0 0 0 0 0 0 
0 0 0 0 0 0 0 0 0 0 0 0 0 0 0 0 0 0 0 0 0 0 0 0 0 0 0 0 0 0 0 0 0 0 0 0 0 0 0 
0 0 0 243 50 53 243 50 53 243 50 53 243 50 53 243 50 53 242 50 53 247 51 54 
255 69 73 0 0 0 0 0 0 0 0 0 0 0 0 0 0 0 0 0 0 0 0 0 0 0 0 0 0 0 0 0 0 0 0 0 
0 0 0 0 0 0 0 0 0 0 0 0 0 0 0 0 0 0 0 0 0 0 0 0 0 0 0 0 0 0 0 0 0 0 0 0 0 0 0 
0 0 0 0 0 0 0 0 0 0 0 0 0 0 0 0 0 0 0 0 0 0 0 0 0 0 0 0 0 0 0 0 0 0 0 0 0 0 0 
0 0 0 0 0 0 0 0 0 0 0 0 0 0 0 0 0 0 0 0 0 0 0 0 0 0 0 0 0 0 0 0 0 0 0 0 0 0 0 
0 0 0 
