P3
64 64
255
0 0 0 0 0 0 0 0 0 0 0 0 0 0 0 0 0 0 0 0 0 0 0 0 0 0 0 0 0 0 0 0 0 0 0 0 0 0 0 
0 0 0 0 0 0 0 0 0 0 0 0 0 0 0 0 0 0 0 0 0 0 0 0 0 0 0 0 0 0 0 0 0 0 0 0 0 0 0 
0 0 0 0 0 0 0 0 0 0 0 0 0 0 0 0 0 0 0 0 0 0 0 0 0 0 0 0 0 0 0 0 0 0 0 0 0 0 0 
0 0 0 0 0 0 0 0 0 0 0 0 0 0 0 0 0 0 0 0 0 0 0 0 0 0 0 0 0 0 0 0 0 0 0 0 0 0 0 
0 0 0 0 0 0 0 0 0 0 0 0 0 0 0 0 0 0 0 0 0 0 0 0 0 0 0 0 0 0 0 0 0 0 0 0 0 0 0 
0 0 0 0 0 0 0 0 0 0 0 0 0 0 0 0 0 0 0 0 0 0 0 0 0 0 0 0 0 0 0 0 0 0 0 0 0 0 0 
0 0 0 0 0 0 0 0 0 0 0 0 0 0 0 0 0 0 0 0 0 0 0 0 0 0 0 0 0 0 0 0 0 0 0 0 0 0 0 
0 0 0 0 0 0 0 0 0 0 0 0 0 0 0 0 0 0 0 0 0 0 0 0 0 0 0 0 0 0 0 0 0 0 0 0 0 0 0 
0 0 0 0 0 0 0 0 0 0 0 0 0 0 0 0 0 0 0 0 0 0 0 0 0 0 0 0 0 0 0 0 0 0 0 0 0 0 0 
0 0 0 0 0 0 0 0 0 0 0 0 0 0 0 0 0 0 0 0 0 0 0 0 0 0 0 0 0 0 0 0 0 0 0 0 0 0 0 
0 0 0 0 0 0 0 0 0 0 0 0 0 0 0 0 0 0 0 0 0 0 0 0 0 0 0 0 0 0 0 0 0 0 0 0 0 0 0 
0 0 0 0 0 0 0 0 0 0 0 0 0 0 0 0 0 0 0 0 0 0 0 0 0 0 0 0 0 0 0 0 0 0 0 0 0 0 0 
0 0 0 0 0 0 0 0 0 0 0 0 0 0 0 0 0 0 0 0 0 0 0 0 0 0 0 0 0 0 0 0 0 0 0 0 0 0 0 
0 0 0 0 0 0 0 0 0 0 0 0 0 0 0 0 0 0 0 0 0 0 0 0 0 0 0 0 0 0 0 0 0 0 0 0 0 0 0 
0 0 0 0 0 0 0 0 0 0 0 0 0 0 0 0 0 0 0 0 0 0 0 0 0 0 0 0 0 0 0 0 0 0 0 0 0 0 0 
0 0 0 0 0 0 0 0 0 0 0 0 0 0 0 0 0 0 0 0 0 0 0 0 0 0 0 0 0 0 0 0 0 0 0 0 0 0 0 
0 0 0 0 0 0 0 0 0 0 0 0 0 0 0 0 0 0 0 0 0 0 0 0 0 0 0 0 0 0 0 0 0 0 0 0 0 0 0 
0 0 0 0 0 0 0 0 0 0 0 0 0 0 0 0 0 0 0 0 0 0 0 0 0 0 0 0 0 0 0 0 0 0 0 0 0 0 0 
0 0 0 0 0 0 0 0 0 0 0 0 0 0 0 0 0 0 0 0 0 0 0 0 0 0 0 0 0 0 0 0 0 0 0 0 0 0 0 
0 0 0 0 0 0 0 0 0 0 0 0 0 0 0 0 0 0 0 0 0 0 0 0 0 0 0 0 0 0 0 0 0 0 0 0 0 0 0 
0 0 0 0 0 0 0 0 0 0 0 0 0 0 0 0 0 0 0 0 0 0 0 0 0 0 0 0 0 0 0 0 0 0 0 0 0 0 0 
0 0 0 0 0 0 0 0 0 0 0 0 0 0 0 0 0 0 0 0 0 0 0 0 0 0 0 0 0 0 0 0 0 0 0 0 0 0 0 
0 0 0 0 0 0 0 0 0 0 0 0 0 0 0 0 0 0 0 0 0 0 0 0 0 0 0 0 0 0 0 0 0 0 0 0 0 0 0 
0 0 0 0 0 0 0 0 0 0 0 0 0 0 0 0 0 0 0 0 0 0 0 0 0 0 0 0 0 0 0 0 0 0 0 0 0 0 0 
0 0 0 0 0 0 0 0 0 0 0 0 0 0 0 0 0 0 0 0 0 0 0 0 0 0 0 0 0 0 0 0 0 0 0 0 0 0 0 
0 0 0 0 0 0 0 0 0 0 0 0 0 0 0 0 0 0 0 0 0 0 0 0 0 0 0 0 0 0 0 0 0 0 0 0 0 0 0 
0 0 0 0 0 0 0 0 0 0 0 0 0 0 0 0 0 0 0 0 0 0 0 0 0 0 0 0 0 0 0 0 0 0 0 0 0 0 0 
0 0 0 0 0 0 0 0 0 0 0 0 0 0 0 0 0 0 0 0 0 0 0 0 0 0 0 0 0 0 0 0 0 0 0 0 0 0 0 
0 0 0 0 0 0 0 0 0 0 0 0 0 0 0 0 0 0 0 0 0 0 0 0 0 0 0 0 0 0 0 0 0 0 0 0 0 0 0 
0 0 0 0 0 0 0 0 0 0 0 0 0 0 0 0 0 0 0 0 0 0 0 0 0 0 0 0 0 0 0 0 0 0 0 0 0 0 0 
0 0 0 0 0 0 0 0 0 0 0 0 0 0 0 0 0 0 0 0 0 0 0 0 0 0 0 0 0 0 0 0 0 0 0 0 0 0 0 
0 0 0 0 0 0 0 0 0 0 0 0 0 0 0 0 0 0 0 0 0 0 0 0 0 0 0 0 0 0 0 0 0 0 0 0 0 0 0 
0 0 0 0 0 0 0 0 0 0 0 0 0 0 0 0 0 0 0 0 0 0 0 0 0 0 0 0 0 0 0 0 0 0 0 0 0 0 0 
0 0 0 0 0 0 0 0 0 0 0 0 0 0 0 0 0 0 0 0 0 0 0 0 0 0 0 0 0 0 0 0 0 0 0 0 0 0 0 
0 0 0 0 0 0 0 0 0 0 0 0 0 0 0 0 0 0 0 0 0 0 0 0 0 0 0 0 0 0 0 0 0 0 0 0 0 0 0 
0 0 0 0 0 0 0 0 0 0 0 0 0 0 0 0 0 0 0 0 0 0 0 0 0 0 0 0 0 0 23 31 200 
23 31 200 23 31 200 0 0 0 0 0 0 0 0 0 0 0 0 0 0 0 0 0 0 0 0 0 0 0 0 0 0 0 
0 0 0 0 0 0 0 0 0 0 0 0 0 0 0 0 0 0 0 0 0 0 0 0 0 0 0 0 0 0 0 0 0 0 0 0 0 0 0 
0 0 0 0 0 0 0 0 0 0 0 0 0 0 0 0 0 0 0 0 0 0 0 0 0 0 0 0 0 0 0 0 0 0 0 0 0 0 0 
0 0 0 0 0 0 0 0 0 0 0 0 0 0 0 0 0 0 0 0 0 0 0 0 0 0 0 0 0 0 0 0 0 0 0 0 0 0 0 
0 0 0 0 0 0 0 0 0 0 0 0 0 0 0 0 0 0 0 0 0 0 0 0 0 0 0 144 42 36 126 40 61 
83 34 32 62 29 27 86 31 28 95 33 30 92 33 45 52 18 20 0 0 0 0 0 0 0 0 0 0 0 0 
0 0 0 0 0 0 0 0 0 0 0 0 0 0 0 0 0 0 0 0 0 0 0 0 0 0 0 0 0 0 0 0 0 0 0 0 0 0 0 
0 0 0 253 253 253 253 253 253 0 0 0 0 0 0 0 0 0 0 0 0 0 0 0 0 0 0 0 0 0 0 0 0 
0 0 0 0 0 0 0 0 0 0 0 0 0 0 0 0 0 0 0 0 0 0 0 0 0 0 0 0 0 0 0 0 0 0 0 0 0 0 0 
0 0 0 0 0 0 0 0 0 0 0 0 0 0 0 0 0 0 0 0 0 0 0 0 0 0 0 0 0 0 0 0 0 0 0 0 0 0 0 
0 0 0 135 41 48 79 33 31 77 33 31 77 33 31 59 28 27 93 33 29 86 31 28 86 31 28 
86 32 34 77 19 17 0 0 0 0 0 0 0 0 0 0 0 0 0 0 0 0 0 0 243 50 53 243 50 53 
243 50 53 243 50 53 164 120 120 253 253 253 0 0 0 0 0 0 0 0 0 0 0 0 138 83 83 
134 77 77 253 253 253 0 0 0 0 0 0 0 0 0 0 0 0 0 0 0 0 0 0 0 0 0 0 0 0 0 0 0 
0 0 0 0 0 0 0 0 0 249 249 249 223 148 145 189 14 7 189 14 7 189 14 7 0 0 0 
0 0 0 0 0 0 0 0 0 0 0 0 0 0 0 0 0 0 0 0 0 0 0 0 0 0 0 0 0 0 0 0 0 0 0 0 0 0 0 
0 0 0 0 0 0 0 0 0 249 249 249 161 75 70 217 31 30 167 18 16 64 28 26 65 28 26 
108 32 28 76 28 25 78 29 26 89 32 28 122 38 38 73 4 4 51 0 0 0 0 0 0 0 0 0 0 0 
0 0 0 0 0 0 0 0 0 143 89 89 136 79 79 132 74 74 253 253 253 0 0 0 0 0 0 0 0 0 
134 73 73 131 71 71 108 28 28 121 4 4 86 5 5 0 0 0 86 5 5 0 0 0 0 0 0 0 0 0 
0 0 0 0 0 0 0 0 0 0 0 0 189 14 7 204 22 18 230 111 111 198 60 54 177 15 16 
189 14 7 189 14 7 189 14 7 0 0 0 0 0 0 0 0 0 0 0 0 0 0 0 0 0 0 0 0 0 0 0 0 
0 0 0 0 0 0 0 0 0 0 0 0 0 0 0 0 0 0 0 0 0 0 0 0 221 222 243 187 128 124 
236 45 45 230 6 6 198 5 5 147 13 12 111 32 28 105 31 27 77 29 26 85 31 28 
68 30 28 92 34 32 68 0 0 144 0 0 0 0 0 0 0 0 0 0 0 0 0 0 158 45 45 135 72 72 
130 70 70 86 5 5 0 0 0 0 0 0 86 5 5 132 66 66 121 55 55 103 29 29 86 5 5 
96 5 5 93 5 5 36 22 21 149 84 84 134 72 72 135 70 70 0 0 0 0 0 0 0 0 0 249 249 249 
189 117 114 194 61 61 190 52 52 183 46 46 61 24 23 67 26 25 105 21 17 
134 17 12 189 14 7 180 13 8 0 0 0 0 0 0 0 0 0 0 0 0 0 0 0 0 0 0 0 0 0 0 0 0 
0 0 0 0 0 0 0 0 0 0 0 0 0 0 0 0 0 0 0 0 0 157 161 229 221 139 138 239 97 97 
234 19 19 199 4 4 179 5 4 173 6 5 110 32 27 83 30 27 86 31 28 86 32 28 
77 33 31 104 29 26 56 2 2 72 3 3 38 2 2 0 0 0 120 4 4 138 73 73 131 72 72 
93 13 13 94 5 5 86 5 5 86 5 5 158 39 39 109 45 45 38 23 22 43 20 20 35 22 21 
40 21 20 35 22 21 35 22 21 35 22 21 35 22 21 35 22 21 72 10 9 120 4 4 0 0 0 
186 54 52 215 18 18 188 4 4 148 14 13 62 26 25 64 28 26 68 29 28 71 30 29 
62 27 25 62 27 25 63 27 25 40 17 16 0 0 0 0 0 0 0 0 0 0 0 0 0 0 0 0 0 0 0 0 0 
0 0 0 0 0 0 0 0 0 0 0 0 0 0 0 0 0 0 0 0 0 23 31 200 223 113 112 238 84 84 
233 5 5 233 5 5 209 4 4 178 4 4 160 11 10 107 32 28 91 32 28 88 32 29 65 30 28 
79 33 31 54 6 6 65 9 9 50 13 13 53 11 11 40 25 24 79 46 45 41 23 22 35 22 21 
37 21 20 35 22 21 38 21 20 35 22 21 35 22 21 35 22 21 35 22 21 35 22 21 
35 22 21 35 22 21 35 22 21 35 22 21 35 22 21 35 22 21 36 22 21 75 9 9 37 21 20 
42 24 23 177 15 14 0 0 0 0 0 0 0 0 0 0 0 0 0 0 0 77 33 31 77 33 31 77 33 31 
77 33 31 66 29 27 39 15 13 0 0 0 0 0 0 0 0 0 0 0 0 0 0 0 0 0 0 0 0 0 0 0 0 
0 0 0 0 0 0 0 0 0 0 0 0 0 0 0 249 249 249 184 75 73 233 5 5 206 8 8 153 12 11 
137 13 12 149 8 8 175 5 5 111 32 28 91 32 28 86 31 28 66 30 28 78 32 30 
42 21 20 37 22 21 35 22 21 35 22 21 35 22 21 35 22 21 35 22 21 35 22 21 
35 22 21 35 22 21 35 22 21 38 22 21 42 21 20 56 20 20 60 21 20 58 21 20 
67 19 18 72 18 17 71 17 16 42 21 20 36 22 21 42 21 20 35 22 21 36 22 21 
35 22 21 36 22 21 35 22 21 37 22 21 34 21 20 33 21 20 32 15 14 75 3 3 0 0 0 
77 33 31 212 9 9 90 23 22 61 26 24 46 17 16 10 4 4 0 0 0 0 0 0 0 0 0 0 0 0 
0 0 0 0 0 0 0 0 0 0 0 0 0 0 0 0 0 0 0 0 0 0 0 0 0 0 0 130 41 54 214 13 12 
135 13 13 131 14 13 131 14 13 169 10 10 180 4 4 100 31 27 85 31 28 87 32 28 
66 30 28 37 22 21 35 22 21 35 22 21 41 23 22 36 22 21 35 22 21 35 22 21 
35 22 21 46 21 20 57 21 20 67 20 19 75 19 18 74 20 19 68 20 19 81 19 19 
93 19 18 79 19 18 102 16 16 107 15 15 100 16 16 100 16 16 96 16 15 86 17 16 
87 17 16 70 17 17 50 20 19 44 20 20 37 21 21 38 21 20 11 7 6 13 8 7 17 10 10 
70 3 3 0 0 0 0 0 0 232 5 5 134 13 13 61 26 24 44 18 17 36 15 15 0 0 0 0 0 0 
0 0 0 0 0 0 0 0 0 0 0 0 0 0 0 0 0 0 0 0 0 0 0 0 0 0 0 0 0 0 0 0 0 106 24 37 
149 52 46 221 80 78 237 78 78 239 106 106 234 33 33 158 8 8 74 27 25 86 31 27 
88 32 28 73 31 30 43 24 23 35 22 21 35 22 21 35 22 21 35 22 21 46 21 20 
75 20 19 74 19 19 83 19 18 83 19 18 96 18 17 106 18 18 78 20 19 77 20 19 
70 20 20 111 18 18 112 17 17 108 17 17 115 17 17 106 17 17 107 17 17 107 17 17 
109 15 15 79 16 16 46 20 19 64 19 18 90 16 16 78 11 11 49 5 5 17 2 2 13 9 8 
13 8 8 87 4 4 0 0 0 233 5 5 232 5 5 71 22 21 53 24 22 53 23 21 33 14 13 
0 0 0 0 0 0 0 0 0 0 0 0 0 0 0 0 0 0 0 0 0 0 0 0 0 0 0 0 0 0 0 0 0 0 0 0 0 0 0 
73 4 4 98 43 48 154 85 81 212 124 122 234 36 36 233 5 5 182 6 6 91 29 26 
87 30 26 85 31 28 57 28 26 53 27 25 35 22 21 35 22 21 37 22 21 73 20 19 
95 22 20 93 23 21 93 23 21 93 23 21 109 26 25 99 24 22 65 22 21 35 22 21 
35 22 21 35 22 21 41 22 21 52 21 20 56 21 20 94 19 19 39 22 21 43 22 21 
42 22 21 37 22 21 35 22 21 35 22 21 29 18 17 52 15 14 147 3 3 68 6 6 45 7 5 
22 4 3 6 3 3 53 3 3 0 0 0 233 5 5 134 11 10 33 16 16 32 15 14 37 16 15 
10 4 4 0 0 0 0 0 0 0 0 0 0 0 0 0 0 0 0 0 0 0 0 0 0 0 0 0 0 0 0 0 0 0 0 0 0 0 0 
0 0 0 166 59 59 134 14 13 78 33 31 146 71 67 196 77 74 230 32 32 229 7 6 
186 9 9 81 28 26 86 30 27 79 33 31 56 27 26 46 21 20 100 18 18 127 16 16 
131 15 15 100 19 18 93 23 21 93 23 21 76 19 17 77 19 17 93 23 21 85 23 21 
41 22 21 35 22 21 35 22 21 35 22 21 35 22 21 35 22 21 35 22 21 35 22 21 
35 22 21 37 22 21 36 22 21 35 22 21 30 19 18 49 15 14 174 4 4 164 4 4 55 8 6 
33 7 6 13 3 2 17 2 2 43 2 2 189 4 6 147 8 9 29 14 13 27 13 12 37 16 15 
37 16 15 0 0 0 0 0 0 0 0 0 0 0 0 0 0 0 0 0 0 0 0 0 0 0 0 0 0 0 0 0 0 0 0 0 
0 0 0 0 0 0 0 0 0 186 50 50 182 2 2 79 19 18 37 22 21 78 36 34 135 49 45 
229 7 6 232 5 5 142 19 18 102 33 29 93 35 35 100 58 56 164 69 69 151 31 31 
120 14 14 77 9 9 57 12 18 72 15 13 78 16 13 83 18 23 102 23 20 73 18 16 
90 22 20 93 23 21 93 23 21 46 22 21 35 22 21 35 22 21 35 22 21 35 22 21 
35 22 21 35 22 21 35 22 21 35 22 21 35 22 21 29 18 18 133 20 19 175 42 42 
130 9 7 58 13 11 72 16 14 22 5 4 14 2 2 16 6 6 28 12 11 30 13 12 36 16 15 
37 16 15 37 16 15 78 25 24 0 0 0 0 0 0 0 0 0 0 0 0 0 0 0 235 37 37 231 21 21 
200 25 25 0 0 0 0 0 0 0 0 0 0 0 0 0 0 0 0 0 0 233 5 5 95 16 15 35 22 21 
35 22 21 47 25 23 74 32 30 78 33 31 227 6 6 216 5 5 170 26 25 167 11 11 
165 45 45 166 22 22 100 9 9 83 9 9 62 17 23 89 18 16 83 16 14 76 15 13 
91 19 16 112 23 19 111 22 19 83 18 16 60 15 13 80 20 18 83 21 19 94 23 21 
97 22 20 63 20 20 36 22 21 35 22 21 35 22 21 35 22 21 35 22 21 35 22 21 
113 48 47 199 73 73 182 40 40 75 14 11 42 10 8 68 15 12 23 6 5 15 7 6 19 8 8 
17 7 7 19 8 8 33 14 14 20 9 8 87 27 24 0 0 0 0 0 0 0 0 0 0 0 0 0 0 0 236 54 54 
237 73 73 110 33 31 96 23 21 200 25 25 0 0 0 0 0 0 0 0 0 0 0 0 235 32 32 
237 70 70 185 15 15 40 22 21 35 22 21 35 22 21 35 22 21 35 22 21 65 30 28 
158 36 36 218 107 107 208 113 113 182 36 36 99 9 9 86 9 9 93 25 24 79 20 18 
86 18 15 109 22 19 110 22 19 90 18 15 91 18 16 93 19 15 88 17 14 102 20 18 
121 25 21 57 14 12 65 16 15 90 22 21 109 18 21 107 14 14 35 22 21 35 22 21 
35 22 21 35 22 21 109 93 92 210 74 74 192 63 63 134 9 9 79 13 10 43 9 7 23 5 4 
11 5 5 16 8 7 11 5 4 16 7 7 30 12 12 38 16 15 53 23 21 136 23 21 0 0 0 0 0 0 
0 0 0 0 0 0 237 68 68 238 75 75 141 44 43 93 23 21 99 23 21 200 25 25 
200 25 25 200 25 25 0 0 0 249 249 249 240 129 129 238 87 87 233 7 7 210 7 7 
40 22 21 36 22 21 37 22 21 41 21 20 202 51 50 239 69 69 193 58 58 166 11 11 
116 9 9 99 9 9 80 12 12 75 18 17 69 18 16 108 27 23 117 12 11 139 3 3 155 40 40 
167 103 101 131 54 52 133 58 55 121 33 29 91 18 16 106 21 18 59 15 13 57 14 13 
58 14 13 70 22 20 36 22 21 43 21 20 47 24 23 121 66 65 237 85 85 203 33 33 
162 6 6 123 11 9 77 17 13 52 12 10 28 6 5 23 11 10 14 6 5 13 6 5 21 9 8 28 12 11 
47 20 19 92 29 27 0 0 0 0 0 0 0 0 0 0 0 0 249 249 249 234 82 82 236 53 53 
106 23 21 96 23 21 176 22 22 163 24 24 98 23 21 200 25 25 0 0 0 239 107 107 
242 146 146 234 22 22 233 5 5 232 5 5 233 5 5 222 5 5 230 5 5 233 5 5 233 12 12 
226 6 6 136 10 10 145 10 10 78 12 12 48 15 15 49 20 19 62 20 18 62 22 21 
125 14 13 147 12 11 200 55 55 215 107 107 201 98 98 195 89 89 216 100 100 
182 105 104 154 85 84 131 63 61 99 30 36 78 17 15 95 21 17 83 20 18 64 20 19 
47 22 21 71 59 58 67 46 45 134 12 11 195 4 4 162 10 8 113 12 7 78 16 13 
64 13 11 24 6 4 13 6 6 18 8 7 17 7 7 20 9 8 54 23 22 82 32 30 0 0 0 0 0 0 
0 0 0 0 0 0 0 0 0 227 148 148 235 41 41 233 5 5 140 17 17 107 13 13 104 15 15 
93 23 21 111 23 22 0 0 0 249 249 249 243 154 154 240 115 115 233 6 6 204 4 4 
157 3 3 167 14 14 146 32 32 179 6 6 233 5 5 130 10 10 112 10 10 118 13 13 
68 15 15 56 18 17 36 22 21 36 22 21 38 22 21 89 18 17 114 15 15 132 14 13 
135 13 13 171 22 21 204 50 50 235 59 59 236 48 48 228 120 120 222 109 109 
191 96 95 149 78 82 107 22 19 124 14 10 118 23 20 73 18 16 79 23 21 37 23 22 
41 24 23 36 22 21 106 16 16 167 11 10 114 12 7 79 16 13 74 17 14 63 14 12 
22 6 5 14 6 5 29 13 12 38 16 15 54 18 20 0 0 0 0 0 0 0 0 0 0 0 0 0 0 0 0 0 0 
228 77 77 235 42 42 179 7 7 120 15 15 120 15 15 69 16 15 95 23 21 200 25 25 
200 25 25 248 245 245 243 152 152 238 80 80 211 5 5 125 6 6 143 3 3 120 12 12 
146 37 37 147 28 28 126 13 13 114 9 9 114 10 10 72 14 14 50 19 18 35 21 20 
35 22 21 35 22 21 35 22 21 35 22 21 39 22 21 79 19 18 145 12 12 131 14 13 
134 13 13 190 9 8 207 8 8 216 12 12 236 52 52 235 87 87 225 84 84 197 29 29 
148 11 5 128 12 11 78 20 18 78 23 21 35 22 21 35 22 21 35 22 21 35 22 21 
50 21 20 113 12 7 98 14 10 75 17 14 74 17 14 22 5 4 18 8 8 37 15 15 23 12 29 
0 0 0 0 0 0 62 25 25 0 0 0 0 0 0 0 0 0 0 0 0 237 75 75 235 29 29 165 7 7 
125 16 16 121 15 15 93 15 14 115 14 14 141 17 17 131 16 16 229 83 83 239 109 109 
236 51 51 145 12 12 112 10 9 126 6 6 88 6 6 110 23 23 95 16 16 84 17 16 
71 16 15 52 19 18 45 20 19 35 22 21 35 22 21 35 22 21 35 22 21 35 22 21 
35 22 21 35 22 21 35 22 21 88 18 17 88 18 17 127 14 14 136 13 13 138 13 13 
135 13 13 164 11 11 215 31 30 118 50 48 109 19 16 149 11 6 144 11 5 90 17 21 
73 18 16 64 21 19 64 22 21 35 22 21 35 22 21 35 22 21 95 15 12 113 12 7 
83 16 12 53 12 10 25 8 6 36 15 15 54 26 40 0 0 0 0 0 0 0 0 0 0 0 0 0 0 0 0 0 0 
0 0 0 0 0 0 234 107 107 233 8 8 135 9 9 120 15 15 120 15 15 111 14 14 
74 9 9 53 13 12 78 19 17 233 18 18 237 63 63 175 56 56 89 16 15 58 18 17 
72 15 15 79 15 14 65 18 18 67 18 18 44 21 20 35 22 21 35 22 21 35 22 21 
35 22 21 35 22 21 35 22 21 35 22 21 35 22 21 35 22 21 35 22 21 35 22 21 
35 22 21 35 22 21 36 22 21 37 22 21 36 22 21 35 22 21 155 13 13 93 23 21 
93 23 21 107 31 29 186 60 56 190 79 75 155 30 24 126 10 15 85 21 19 84 21 19 
78 19 18 60 20 19 35 22 21 43 21 20 109 13 9 76 17 14 65 16 14 35 15 14 
27 12 11 0 0 0 0 0 0 0 0 0 0 0 0 0 0 0 0 0 0 0 0 0 0 0 0 0 0 0 240 116 116 
235 33 33 131 11 11 114 15 15 120 15 15 83 10 10 48 11 11 92 23 21 93 23 21 
0 0 0 237 65 65 210 56 56 114 14 13 81 14 13 93 11 10 73 13 12 61 15 15 
37 22 21 35 22 21 35 22 21 35 22 21 35 22 21 35 22 21 35 22 21 35 22 21 
36 22 21 35 22 21 36 22 21 35 22 21 35 22 21 35 22 21 35 22 21 36 22 21 
35 22 21 35 22 21 65 21 19 93 23 21 116 20 18 212 76 77 239 103 103 
239 113 113 232 75 75 208 43 43 174 8 6 158 12 6 145 11 5 121 14 18 82 20 18 
53 24 23 35 22 21 36 23 22 81 16 13 79 15 12 39 17 16 10 4 4 0 0 0 0 0 0 0 0 0 
0 0 0 0 0 0 0 0 0 0 0 0 0 0 0 0 0 0 239 96 96 207 45 45 111 12 12 96 12 12 
83 10 10 118 17 17 44 22 21 45 22 21 0 0 0 0 0 0 242 146 146 198 77 77 
96 15 14 63 17 17 84 10 9 93 6 6 36 20 19 35 22 21 35 22 21 35 22 21 35 22 21 
35 22 21 35 22 21 35 22 21 35 22 21 38 22 21 35 22 21 35 22 21 35 22 21 
35 22 21 35 22 21 35 22 21 35 22 21 35 22 21 54 22 20 93 23 21 206 10 8 
238 97 97 243 170 170 239 106 106 237 82 82 221 92 90 204 62 57 188 14 8 
184 14 7 148 11 5 144 11 5 145 12 10 86 23 21 43 22 21 36 23 22 83 16 12 
90 11 7 24 10 10 7 3 3 0 0 0 0 0 0 0 0 0 0 0 0 0 0 0 0 0 0 0 0 0 0 0 0 0 0 0 
238 93 93 229 83 83 198 7 7 142 17 17 134 16 16 48 11 9 33 21 20 35 22 21 
0 0 0 0 0 0 249 249 249 209 98 98 132 14 14 99 10 10 69 10 10 56 10 9 31 19 18 
35 22 21 35 22 21 35 22 21 35 22 21 35 22 21 35 22 21 35 22 21 35 22 21 
35 22 21 35 22 21 35 22 21 35 22 21 35 22 21 35 22 21 35 22 21 110 18 14 
105 22 24 93 23 21 125 55 53 242 152 152 244 183 183 245 193 193 229 128 126 
220 135 132 226 160 157 215 116 112 197 47 41 206 78 73 180 15 9 150 11 6 
107 15 18 93 23 21 48 22 21 40 25 24 113 12 7 108 14 9 19 8 8 0 0 0 0 0 0 
0 0 0 0 0 0 0 0 0 0 0 0 0 0 0 0 0 0 0 0 0 0 0 0 237 77 77 238 81 81 149 16 16 
71 12 12 68 8 8 51 13 12 35 22 21 36 22 21 0 0 0 0 0 0 249 249 249 219 104 104 
128 14 14 89 11 11 85 4 4 59 12 12 33 20 19 21 13 13 36 22 21 0 0 0 0 0 0 
35 22 21 35 22 21 35 22 21 35 22 21 35 22 21 35 22 21 0 0 0 0 0 0 0 0 0 0 0 0 
0 0 0 93 23 21 97 29 27 170 106 105 243 156 156 245 195 195 241 130 130 
239 123 123 213 95 92 219 129 128 217 121 117 212 101 96 224 147 144 
205 77 72 181 17 11 142 10 6 101 11 9 67 18 17 36 22 21 112 13 8 113 12 7 
59 10 7 25 11 10 0 0 0 0 0 0 0 0 0 0 0 0 0 0 0 0 0 0 0 0 0 0 0 0 0 0 0 0 0 0 
238 97 97 239 104 104 173 37 37 130 6 6 87 11 11 51 13 11 36 21 20 44 22 21 
0 0 0 0 0 0 249 249 249 213 119 119 122 15 14 84 15 14 79 14 14 45 15 14 
26 12 12 30 19 18 42 22 21 0 0 0 0 0 0 0 0 0 0 0 0 0 0 0 0 0 0 0 0 0 0 0 0 
0 0 0 0 0 0 0 0 0 0 0 0 97 29 27 125 70 68 149 76 74 241 156 156 243 165 165 
239 112 112 238 101 101 221 86 84 206 80 75 207 85 80 196 39 34 191 67 72 
191 38 31 170 13 6 133 9 5 104 12 14 71 22 20 35 22 21 110 13 8 113 12 7 
107 11 7 40 14 14 37 16 15 0 0 0 0 0 0 0 0 0 0 0 0 0 0 0 0 0 0 0 0 0 0 0 0 
0 0 0 0 0 0 236 102 102 242 142 142 237 77 77 179 14 13 101 12 12 51 12 11 
63 16 14 35 22 21 37 22 21 200 25 25 249 249 249 185 95 95 183 9 9 87 11 11 
72 16 15 49 14 13 26 16 15 35 22 21 76 20 20 0 0 0 0 0 0 0 0 0 0 0 0 0 0 0 
0 0 0 0 0 0 0 0 0 0 0 0 0 0 0 0 0 0 117 57 56 166 80 79 239 110 110 
239 106 106 240 120 120 235 60 60 223 58 55 205 69 64 207 84 79 199 73 68 
178 35 29 173 52 47 150 16 10 152 11 6 139 11 10 83 18 17 40 22 21 36 22 21 
112 12 7 113 12 7 97 10 6 28 10 10 16 10 10 15 8 8 42 18 17 0 0 0 0 0 0 0 0 0 
0 0 0 0 0 0 0 0 0 0 0 0 0 0 0 0 0 0 249 249 249 236 109 109 241 127 127 
223 104 104 172 33 32 53 11 11 71 17 16 73 23 21 35 22 21 50 22 21 149 84 84 
231 32 32 210 7 7 100 10 9 98 7 6 27 8 8 24 15 14 35 22 21 97 19 19 0 0 0 
0 0 0 0 0 0 0 0 0 0 0 0 0 0 0 0 0 0 0 0 0 0 0 0 162 26 42 89 43 84 173 99 98 
237 103 103 238 91 91 234 38 38 230 61 60 208 59 55 200 57 51 176 37 31 
150 15 9 144 11 5 145 11 5 137 11 14 131 12 9 66 21 19 39 21 20 37 22 21 
102 17 16 113 12 7 113 12 7 86 11 8 14 8 8 11 7 7 10 6 6 13 7 7 20 11 11 
63 27 26 0 0 0 0 0 0 0 0 0 0 0 0 0 0 0 0 0 0 0 0 0 0 0 0 0 0 0 207 60 60 
233 89 89 239 95 95 210 88 87 128 7 7 94 13 13 61 14 13 42 15 14 34 21 20 
35 22 21 233 7 7 233 5 5 120 8 8 36 10 10 29 9 9 35 21 20 35 22 21 97 19 19 
0 0 0 0 0 0 239 100 100 237 72 72 227 90 88 228 117 114 222 145 143 
229 141 140 238 134 133 235 110 109 238 95 95 233 33 33 232 11 11 206 11 7 
189 14 7 189 14 7 177 13 7 145 11 5 138 11 13 78 18 26 76 19 17 88 22 20 
64 22 20 38 22 21 38 22 21 91 19 19 126 11 7 113 12 7 113 12 7 109 14 10 
18 10 10 16 10 10 35 10 9 24 6 6 10 6 6 18 11 11 52 26 25 77 33 31 0 0 0 0 0 0 
0 0 0 0 0 0 0 0 0 0 0 0 0 0 0 0 0 0 228 152 152 212 80 80 233 115 115 
242 137 137 162 32 32 140 4 4 119 12 12 68 14 14 57 14 13 26 15 14 38 16 15 
233 5 5 120 7 7 33 9 9 25 12 12 32 20 19 143 75 75 237 97 96 240 135 135 
239 112 112 239 114 114 237 84 84 239 128 128 239 117 117 239 108 108 
237 76 76 233 19 19 232 9 9 225 7 6 202 12 7 191 14 7 189 14 7 175 13 6 
146 11 5 117 14 26 74 18 17 86 21 19 52 22 21 31 18 17 28 17 16 37 21 20 
112 14 9 117 12 7 115 12 7 113 12 7 113 12 7 110 13 9 50 12 11 35 8 7 66 11 9 
44 10 8 37 8 7 18 5 4 19 12 12 34 20 20 77 33 31 0 0 0 0 0 0 0 0 0 0 0 0 0 0 0 
0 0 0 0 0 0 0 0 0 0 0 0 200 25 25 210 71 71 230 112 112 240 110 110 
232 44 44 182 4 4 140 4 4 125 12 12 61 14 13 24 13 13 25 15 15 148 9 9 53 20 19 
24 15 14 32 20 19 233 45 44 231 41 40 211 28 25 221 9 7 226 12 12 235 69 69 
233 23 23 232 6 6 231 6 6 225 7 6 197 13 7 189 14 7 189 14 7 168 12 6 165 12 6 
144 11 5 143 12 8 105 16 13 74 21 19 45 22 21 30 18 17 28 13 13 107 10 10 
134 7 5 113 12 7 113 12 7 113 12 7 113 12 7 113 12 7 88 17 14 46 11 10 
68 14 14 172 62 62 101 63 60 36 8 7 34 8 6 17 4 3 12 8 8 32 19 19 47 26 25 
0 0 0 0 0 0 0 0 0 0 0 0 0 0 0 0 0 0 0 0 0 0 0 0 0 0 0 0 0 0 200 25 25 
201 32 32 238 92 92 240 108 108 232 12 12 186 4 4 135 9 9 109 15 15 64 14 13 
38 14 14 36 22 21 42 14 14 23 14 14 88 21 19 221 13 12 179 37 38 218 50 48 
236 71 71 236 75 75 235 52 52 231 6 6 224 7 6 191 14 7 166 12 6 176 13 7 
147 14 8 144 18 13 143 29 24 75 18 16 76 19 17 88 22 20 43 20 19 33 20 19 
46 13 14 102 6 5 134 3 3 90 9 5 105 11 7 113 12 7 113 12 7 116 12 7 105 21 18 
48 11 10 45 11 10 14 4 3 184 75 75 152 77 76 86 42 40 62 14 12 36 8 7 16 5 5 
12 7 7 28 17 17 40 24 24 0 0 0 0 0 0 0 0 0 0 0 0 0 0 0 0 0 0 0 0 0 0 0 0 0 0 0 
0 0 0 0 0 0 200 25 25 201 29 29 231 88 88 239 96 96 234 20 20 173 4 4 134 8 8 
126 16 16 59 15 13 57 20 20 30 18 17 35 22 21 38 22 21 241 24 24 235 75 75 
236 75 75 233 59 58 226 9 8 230 6 6 230 6 6 212 10 6 189 14 7 147 11 5 
152 27 21 107 23 19 80 19 17 74 21 19 47 22 21 37 20 19 30 17 16 55 12 12 
109 3 3 129 3 3 136 3 3 105 11 7 113 12 7 115 12 7 114 12 7 79 16 13 46 11 10 
45 11 10 39 10 9 0 0 0 0 0 0 179 35 35 99 14 13 63 16 13 67 17 14 32 7 6 
19 5 4 19 11 11 20 12 13 0 0 0 0 0 0 0 0 0 0 0 0 0 0 0 0 0 0 0 0 0 0 0 0 0 0 0 
0 0 0 0 0 0 0 0 0 0 0 0 200 25 25 207 32 32 233 104 104 237 70 70 235 34 34 
189 4 4 148 3 3 113 9 9 62 15 14 44 21 20 35 22 21 71 35 38 237 72 72 
236 69 69 232 8 8 232 6 6 232 6 6 232 6 6 216 9 6 188 14 8 171 13 6 146 25 20 
93 22 20 49 22 21 37 22 21 40 23 22 59 20 19 87 13 13 100 11 10 70 11 11 
101 3 3 100 5 4 71 8 5 110 12 7 114 16 12 79 19 18 45 11 10 45 11 10 36 9 8 
2 0 0 0 0 0 0 0 0 249 249 249 213 65 65 191 4 4 133 10 9 64 15 13 59 14 11 
54 12 9 19 12 12 25 15 16 40 24 24 77 33 31 0 0 0 0 0 0 0 0 0 0 0 0 0 0 0 
0 0 0 0 0 0 0 0 0 0 0 0 0 0 0 0 0 0 0 0 0 0 0 0 209 62 62 229 108 108 
238 90 90 234 24 24 170 4 4 147 3 3 57 14 12 38 21 20 35 22 21 236 68 68 
234 47 47 202 11 7 215 9 6 231 6 6 232 6 6 208 21 23 189 14 7 189 14 7 
189 38 32 93 23 21 93 23 21 118 94 99 197 42 41 146 12 12 107 12 12 85 12 12 
61 13 13 92 9 8 134 3 3 67 7 4 110 12 7 69 13 11 44 11 10 45 11 10 35 9 8 
0 0 0 0 0 0 0 0 0 0 0 0 0 0 0 249 249 249 236 86 86 206 7 7 143 8 8 97 13 12 
61 16 13 63 16 13 26 10 9 24 15 14 28 17 16 0 0 0 0 0 0 0 0 0 0 0 0 0 0 0 
0 0 0 0 0 0 0 0 0 0 0 0 0 0 0 0 0 0 0 0 0 0 0 0 0 0 0 0 0 0 218 106 106 
237 97 97 238 79 79 233 10 10 148 3 3 58 10 10 35 22 21 77 17 17 232 6 6 
251 100 100 190 15 8 231 6 6 232 6 6 215 9 6 189 14 7 189 18 11 189 38 32 
173 37 48 166 12 43 226 96 95 239 104 104 233 16 16 149 12 12 94 13 12 
67 12 12 81 11 11 128 4 4 80 6 4 76 8 4 31 7 6 31 7 7 42 10 9 0 0 0 0 0 0 
0 0 0 0 0 0 0 0 0 0 0 0 0 0 0 249 249 249 249 249 249 220 6 6 233 5 5 108 6 6 
49 13 13 59 16 14 28 10 9 18 11 11 15 9 9 0 0 0 0 0 0 0 0 0 0 0 0 0 0 0 0 0 0 
0 0 0 0 0 0 0 0 0 0 0 0 0 0 0 0 0 0 0 0 0 0 0 0 0 0 0 254 100 100 254 76 76 
236 62 62 235 39 39 184 4 4 33 13 12 39 22 21 0 0 0 254 157 157 168 92 155 
230 7 7 232 6 6 208 10 7 189 14 7 189 14 7 189 38 32 151 36 67 23 28 124 
237 65 65 241 119 119 237 61 61 189 15 15 118 13 12 113 12 12 97 11 11 
83 12 12 95 10 10 57 6 3 41 5 3 55 22 20 29 12 11 11 0 0 255 3 3 0 0 0 0 0 0 
0 0 0 0 0 0 0 0 0 0 0 0 0 0 0 0 0 0 232 5 5 141 3 3 86 4 4 119 8 8 82 14 13 
89 14 13 35 11 10 19 11 11 0 0 0 0 0 0 0 0 0 0 0 0 0 0 0 0 0 0 0 0 0 0 0 0 
0 0 0 0 0 0 0 0 0 0 0 0 0 0 0 0 0 0 0 0 0 0 0 0 254 68 68 216 10 10 237 64 64 
218 5 5 104 14 14 173 10 10 0 0 0 165 75 140 219 15 14 232 6 6 205 11 7 
189 14 7 189 16 9 189 38 32 24 31 199 249 249 249 228 90 92 242 128 128 
218 61 61 152 3 3 94 9 9 114 12 12 110 13 12 94 11 11 96 10 10 85 11 11 
40 4 2 40 9 7 43 13 12 48 13 12 53 16 14 70 22 21 80 30 29 9 1 3 0 0 0 0 0 0 
0 0 0 0 0 0 0 0 0 0 0 0 160 12 12 158 3 3 62 1 1 71 2 2 89 12 11 97 14 13 
67 9 9 41 6 7 7 4 4 0 0 0 0 0 0 0 0 0 0 0 0 0 0 0 0 0 0 0 0 0 0 0 0 0 0 0 
0 0 0 0 0 0 0 0 0 0 0 0 0 0 0 0 0 0 0 0 0 0 0 0 210 34 34 78 11 11 151 13 13 
253 253 253 254 97 97 0 0 0 215 18 16 206 25 22 155 14 59 166 37 54 189 38 32 
158 37 63 59 25 124 249 249 249 242 130 130 222 62 62 123 3 3 123 3 3 111 4 4 
59 7 7 90 16 16 89 12 12 82 11 11 39 8 7 32 8 6 35 11 10 32 9 8 32 8 7 45 11 10 
45 11 10 44 11 10 36 9 8 75 27 25 0 0 0 0 0 0 0 0 0 0 0 0 0 0 0 40 24 24 
202 7 7 77 2 2 129 4 4 112 10 9 60 7 7 57 8 8 29 8 8 24 14 14 0 0 0 0 0 0 
0 0 0 0 0 0 0 0 0 0 0 0 0 0 0 0 0 0 0 0 0 0 0 0 0 0 0 0 0 0 0 0 0 0 0 0 0 0 0 
0 0 0 0 0 0 0 0 0 82 11 11 134 15 15 253 253 253 254 85 85 0 0 0 0 0 0 0 0 0 
24 31 199 189 38 32 189 38 32 54 26 137 0 0 0 241 126 126 235 46 46 230 5 5 
115 3 3 119 3 3 114 3 3 72 5 5 101 12 11 47 6 5 9 3 3 20 7 6 30 4 3 27 7 6 
23 6 5 32 8 7 31 8 7 25 6 5 32 8 7 26 6 6 45 11 10 87 25 22 0 0 0 0 0 0 0 0 0 
0 0 0 0 0 0 115 4 4 122 3 3 78 2 2 101 4 4 54 8 8 40 6 7 14 8 8 22 13 17 
34 21 21 0 0 0 0 0 0 0 0 0 0 0 0 0 0 0 0 0 0 0 0 0 0 0 0 0 0 0 0 0 0 0 0 0 
0 0 0 0 0 0 0 0 0 0 0 0 0 0 0 0 0 0 80 11 11 97 19 19 253 253 253 254 92 92 
0 0 0 0 0 0 0 0 0 173 37 48 189 38 32 0 0 0 0 0 0 249 249 249 225 71 70 
234 22 22 140 3 3 103 2 2 63 1 1 59 1 1 80 3 3 28 3 3 11 3 2 11 3 2 13 3 3 
30 8 7 29 7 7 38 9 9 34 9 7 29 7 6 45 11 10 64 16 15 37 14 13 39 9 9 47 11 10 
0 0 0 0 0 0 0 0 0 0 0 0 0 0 0 111 2 2 67 2 2 79 5 5 104 3 3 36 12 12 49 11 10 
23 8 7 20 12 12 22 13 13 27 13 13 0 0 0 0 0 0 0 0 0 0 0 0 0 0 0 0 0 0 0 0 0 
0 0 0 0 0 0 0 0 0 0 0 0 0 0 0 0 0 0 0 0 0 0 0 0 0 0 0 78 11 11 97 19 19 
255 44 44 254 80 80 0 0 0 0 0 0 0 0 0 124 14 14 0 0 0 0 0 0 0 0 0 249 249 249 
235 29 29 101 5 5 70 8 7 101 2 2 62 2 2 35 1 1 14 4 3 16 4 3 22 6 5 22 5 5 
38 9 8 45 11 10 47 12 11 48 13 12 48 12 11 64 16 14 109 19 18 111 12 12 
78 16 16 33 10 9 45 11 10 0 0 0 0 0 0 0 0 0 0 0 0 0 0 0 174 12 11 57 7 7 
40 9 8 36 9 8 46 11 10 60 8 6 38 4 3 34 7 6 20 12 12 22 13 13 37 17 17 
0 0 0 0 0 0 0 0 0 0 0 0 0 0 0 0 0 0 0 0 0 0 0 0 0 0 0 0 0 0 0 0 0 0 0 0 0 0 0 
0 0 0 0 0 0 0 0 0 0 0 0 0 0 0 0 0 0 0 0 0 0 0 0 0 0 0 0 0 0 0 0 0 0 0 0 0 0 0 
249 249 249 62 12 11 19 5 5 44 11 10 39 7 6 45 10 9 46 11 10 37 9 9 24 6 5 
27 7 6 44 11 10 48 12 11 48 12 11 46 11 10 71 17 17 88 23 29 94 17 17 104 33 31 
113 28 28 91 11 10 40 10 9 47 12 11 125 48 44 0 0 0 93 23 21 134 52 48 
0 0 0 233 5 5 106 14 13 103 4 4 91 2 2 36 8 7 56 7 4 59 6 4 49 5 3 25 11 11 
21 13 13 42 24 24 61 30 43 0 0 0 0 0 0 0 0 0 0 0 0 0 0 0 0 0 0 0 0 0 0 0 0 
0 0 0 0 0 0 0 0 0 0 0 0 0 0 0 0 0 0 0 0 0 0 0 0 0 0 0 0 0 0 0 0 0 0 0 0 0 0 0 
0 0 0 0 0 0 0 0 0 0 0 0 0 0 0 50 21 24 78 23 23 74 18 17 74 18 17 54 13 12 
63 16 14 72 18 16 36 9 8 54 13 12 69 17 16 65 16 15 84 21 19 89 28 39 23 28 124 
233 5 5 182 39 39 148 67 67 114 25 24 97 13 12 50 13 11 46 11 10 46 11 10 
46 11 10 45 11 10 47 12 11 87 21 20 0 0 0 0 0 0 0 0 0 48 23 28 57 7 7 63 2 2 
46 5 3 55 6 3 25 4 3 17 8 8 21 12 12 34 20 22 0 0 0 0 0 0 0 0 0 0 0 0 0 0 0 
0 0 0 0 0 0 0 0 0 0 0 0 0 0 0 0 0 0 0 0 0 0 0 0 0 0 0 0 0 0 0 0 0 0 0 0 0 0 0 
0 0 0 0 0 0 0 0 0 0 0 0 0 0 0 0 0 0 0 0 0 0 0 0 0 0 0 0 0 0 23 28 124 
23 28 124 73 42 103 111 52 87 104 36 48 94 25 26 92 23 22 93 23 21 0 0 0 0 0 0 
0 0 0 226 27 31 198 60 60 181 52 52 72 12 12 63 7 7 33 11 11 44 10 10 45 11 10 
52 15 14 46 12 10 48 12 11 82 20 19 93 23 21 0 0 0 0 0 0 0 0 0 0 0 0 33 17 29 
35 2 1 44 4 3 48 5 3 31 3 2 20 9 9 20 12 12 31 19 19 32 14 16 0 0 0 0 0 0 
0 0 0 0 0 0 0 0 0 0 0 0 0 0 0 0 0 0 0 0 0 0 0 0 0 0 0 0 0 0 0 0 0 0 0 0 0 0 0 
0 0 0 0 0 0 0 0 0 0 0 0 0 0 0 0 0 0 0 0 0 0 0 0 0 0 0 0 0 0 0 0 0 0 0 0 0 0 0 
0 0 0 0 0 0 0 0 0 0 0 0 0 0 0 249 249 249 249 249 249 249 249 249 215 97 95 
238 107 107 236 57 57 188 19 19 98 2 2 75 2 2 16 5 5 50 13 13 69 17 16 
45 11 10 65 16 15 75 19 17 104 29 27 0 0 0 0 0 0 0 0 0 0 0 0 0 0 0 0 0 0 56 4 3 
26 1 1 38 2 2 41 4 2 35 4 2 14 9 9 22 13 14 21 13 13 38 16 16 0 0 0 0 0 0 
0 0 0 0 0 0 0 0 0 0 0 0 0 0 0 0 0 0 0 0 0 0 0 0 0 0 0 0 0 0 0 0 0 0 0 0 0 0 0 
0 0 0 0 0 0 0 0 0 0 0 0 0 0 0 0 0 0 0 0 0 0 0 0 0 0 0 0 0 0 0 0 0 0 0 0 0 0 0 
0 0 0 0 0 0 0 0 0 0 0 0 249 249 249 208 157 154 215 134 134 240 132 132 
240 116 116 236 48 48 233 5 5 184 4 4 125 3 3 87 3 3 39 7 7 52 13 12 73 18 16 
69 17 16 94 23 21 115 36 33 0 0 0 0 0 0 0 0 0 0 0 0 0 0 0 0 0 0 40 24 24 
69 6 3 43 2 2 35 4 2 27 3 1 30 3 1 26 3 2 10 6 6 12 7 7 33 14 14 0 0 0 0 0 0 
0 0 0 0 0 0 0 0 0 0 0 0 0 0 0 0 0 0 0 0 0 0 0 0 0 0 0 0 0 0 0 0 0 0 0 0 0 0 0 
0 0 0 0 0 0 0 0 0 0 0 0 0 0 0 0 0 0 0 0 0 0 0 0 0 0 0 0 0 0 0 0 0 0 0 0 0 0 0 
0 0 0 0 0 0 0 0 0 239 102 102 237 73 73 236 61 61 233 5 5 233 11 11 231 7 7 
226 12 11 232 6 6 190 6 6 114 5 5 89 2 2 38 8 7 52 13 12 92 23 21 95 24 22 
93 23 21 0 0 0 0 0 0 0 0 0 0 0 0 0 0 0 0 0 0 0 0 0 113 12 7 39 3 2 54 2 2 
27 3 1 31 3 2 43 5 2 50 5 3 17 10 10 22 13 13 69 30 28 0 0 0 0 0 0 0 0 0 0 0 0 
0 0 0 0 0 0 0 0 0 0 0 0 0 0 0 0 0 0 0 0 0 0 0 0 0 0 0 0 0 0 0 0 0 0 0 0 0 0 0 
0 0 0 0 0 0 0 0 0 0 0 0 0 0 0 0 0 0 0 0 0 0 0 0 0 0 0 0 0 0 0 0 0 0 0 0 249 249 249 
215 90 93 238 74 74 236 46 46 233 5 5 230 7 7 231 6 6 233 5 5 232 6 6 232 6 6 
197 19 18 119 3 3 89 2 2 39 9 8 64 15 14 95 24 22 0 0 0 0 0 0 0 0 0 0 0 0 
0 0 0 0 0 0 0 0 0 0 0 0 226 2 2 74 8 4 70 2 2 88 2 2 50 6 5 0 0 0 0 0 0 0 0 0 
0 0 0 0 0 0 0 0 0 0 0 0 0 0 0 0 0 0 0 0 0 0 0 0 0 0 0 0 0 0 0 0 0 0 0 0 0 0 0 
0 0 0 0 0 0 0 0 0 0 0 0 0 0 0 0 0 0 0 0 0 0 0 0 0 0 0 0 0 0 0 0 0 0 0 0 0 0 0 
0 0 0 0 0 0 0 0 0 0 0 0 0 0 0 0 0 0 217 92 93 238 75 75 235 39 39 233 5 5 
233 5 5 182 12 11 231 7 7 228 10 9 202 35 32 223 14 13 226 5 5 168 5 5 93 2 2 
89 4 4 76 18 17 93 23 21 0 0 0 0 0 0 0 0 0 0 0 0 0 0 0 0 0 0 0 0 0 0 0 0 121 4 4 
110 4 4 0 0 0 0 0 0 0 0 0 0 0 0 0 0 0 0 0 0 0 0 0 0 0 0 0 0 0 0 0 0 0 0 0 
0 0 0 0 0 0 0 0 0 0 0 0 0 0 0 0 0 0 0 0 0 0 0 0 0 0 0 0 0 0 0 0 0 0 0 0 0 0 0 
0 0 0 0 0 0 0 0 0 0 0 0 0 0 0 0 0 0 0 0 0 0 0 0 0 0 0 0 0 0 0 0 0 0 0 0 0 0 0 
249 249 249 235 77 77 235 32 32 228 10 10 97 23 21 93 23 21 98 24 39 233 5 5 
226 12 11 204 9 8 93 23 21 94 23 21 181 39 36 93 2 2 73 7 6 88 22 20 93 23 21 
0 0 0 0 0 0 0 0 0 0 0 0 0 0 0 0 0 0 0 0 0 0 0 0 0 0 0 0 0 0 0 0 0 0 0 0 0 0 0 
0 0 0 0 0 0 0 0 0 0 0 0 0 0 0 0 0 0 0 0 0 0 0 0 0 0 0 0 0 0 0 0 0 0 0 0 0 0 0 
0 0 0 0 0 0 0 0 0 0 0 0 0 0 0 0 0 0 0 0 0 0 0 0 0 0 0 0 0 0 0 0 0 0 0 0 0 0 0 
0 0 0 0 0 0 0 0 0 0 0 0 0 0 0 0 0 0 0 0 0 249 249 249 249 249 249 222 52 51 
231 6 6 96 23 21 93 23 21 93 23 21 46 25 112 233 5 5 228 10 10 94 23 21 
93 23 21 93 23 21 220 7 7 104 2 2 54 12 10 86 21 19 93 23 21 0 0 0 0 0 0 0 0 0 
0 0 0 0 0 0 0 0 0 0 0 0 0 0 0 0 0 0 0 0 0 0 0 0 0 0 0 0 0 0 0 0 0 0 0 0 0 0 0 
0 0 0 0 0 0 0 0 0 0 0 0 0 0 0 0 0 0 0 0 0 0 0 0 0 0 0 0 0 0 0 0 0 0 0 0 0 0 0 
0 0 0 0 0 0 0 0 0 0 0 0 0 0 0 0 0 0 0 0 0 0 0 0 0 0 0 0 0 0 0 0 0 0 0 0 0 0 0 
0 0 0 0 0 0 0 0 0 0 0 0 249 249 249 249 249 249 214 24 22 125 28 25 93 23 21 
93 23 21 0 0 0 23 28 124 227 11 10 182 11 11 93 23 21 93 23 21 246 4 8 222 5 5 
106 5 5 80 19 17 93 23 21 0 0 0 0 0 0 0 0 0 0 0 0 0 0 0 0 0 0 0 0 0 0 0 0 
0 0 0 0 0 0 0 0 0 0 0 0 0 0 0 0 0 0 0 0 0 0 0 0 0 0 0 0 0 0 0 0 0 0 0 0 0 0 0 
0 0 0 0 0 0 0 0 0 0 0 0 0 0 0 0 0 0 0 0 0 0 0 0 0 0 0 0 0 0 0 0 0 0 0 0 0 0 0 
0 0 0 0 0 0 0 0 0 0 0 0 0 0 0 0 0 0 0 0 0 0 0 0 0 0 0 0 0 0 0 0 0 0 0 0 0 0 0 
0 0 0 0 0 0 169 68 62 108 32 29 93 23 21 0 0 0 0 0 0 218 7 22 152 45 65 
219 19 17 102 28 26 0 0 0 255 2 2 198 7 7 87 6 5 94 23 21 93 23 21 0 0 0 0 0 0 
0 0 0 0 0 0 0 0 0 0 0 0 0 0 0 0 0 0 0 0 0 0 0 0 0 0 0 0 0 0 0 0 0 0 0 0 0 0 0 
0 0 0 0 0 0 0 0 0 0 0 0 0 0 0 0 0 0 0 0 0 0 0 0 0 0 0 0 0 0 0 0 0 0 0 0 0 0 0 
0 0 0 0 0 0 0 0 0 0 0 0 0 0 0 0 0 0 0 0 0 0 0 0 0 0 0 0 0 0 0 0 0 0 0 0 0 0 0 
0 0 0 0 0 0 0 0 0 0 0 0 0 0 0 0 0 0 0 0 0 0 0 0 0 0 0 0 0 0 0 0 0 0 0 0 0 0 0 
255 3 3 255 3 3 0 0 0 0 0 0 0 0 0 0 0 0 201 38 35 210 27 25 97 22 21 93 23 21 
0 0 0 0 0 0 0 0 0 255 0 0 0 0 0 255 0 0 0 0 0 0 0 0 0 0 0 0 0 0 0 0 0 0 0 0 
0 0 0 0 0 0 0 0 0 0 0 0 0 0 0 0 0 0 0 0 0 0 0 0 0 0 0 0 0 0 0 0 0 0 0 0 0 0 0 
0 0 0 0 0 0 0 0 0 0 0 0 0 0 0 0 0 0 0 0 0 0 0 0 0 0 0 0 0 0 0 0 0 0 0 0 0 0 0 
0 0 0 0 0 0 0 0 0 0 0 0 0 0 0 0 0 0 0 0 0 0 0 0 0 0 0 0 0 0 0 0 0 0 0 0 0 0 0 
0 0 0 0 0 0 0 0 0 0 0 0 0 0 0 0 0 0 0 0 0 0 0 0 0 0 0 0 0 0 0 0 0 0 0 0 0 0 0 
0 0 0 0 0 0 0 0 0 0 0 0 0 0 0 0 0 0 0 0 0 0 0 0 0 0 0 0 0 0 0 0 0 0 0 0 0 0 0 
0 0 0 0 0 0 0 0 0 0 0 0 0 0 0 0 0 0 0 0 0 0 0 0 0 0 0 0 0 0 0 0 0 0 0 0 0 0 0 
0 0 0 0 0 0 0 0 0 0 0 0 0 0 0 0 0 0 0 0 0 0 0 0 0 0 0 0 0 0 0 0 0 0 0 0 0 0 0 
0 0 0 0 0 0 0 0 0 0 0 0 0 0 0 0 0 0 0 0 0 0 0 0 0 0 0 0 0 0 0 0 0 0 0 0 0 0 0 
0 0 0 0 0 0 0 0 0 0 0 0 0 0 0 0 0 0 0 0 0 0 0 0 0 0 0 0 0 0 0 0 0 0 0 0 0 0 0 
0 0 0 0 0 0 0 0 0 0 0 0 0 0 0 0 0 0 0 0 0 0 0 0 0 0 0 0 0 0 0 0 0 0 0 0 0 0 0 
0 0 0 0 0 0 0 0 0 0 0 0 0 0 0 0 0 0 0 0 0 
