P3
64 64
255
120 65 29 128 74 38 146 93 56 154 102 65 154 102 65 133 82 45 91 42 8 85 38 4 
117 70 35 165 120 84 230 188 150 255 215 177 242 202 165 233 194 158 
230 191 154 226 189 152 223 186 150 216 180 144 205 169 133 199 162 127 
198 160 126 198 159 127 200 161 128 201 161 128 201 159 127 202 159 127 
204 161 129 209 166 134 217 172 143 222 176 148 224 178 150 226 182 152 
229 186 155 229 186 154 226 183 151 225 182 150 228 185 153 224 181 149 
213 170 138 211 168 136 216 173 141 216 173 141 211 168 136 212 169 137 
220 177 145 223 180 148 221 178 146 224 181 149 232 189 157 223 180 148 
196 153 121 185 142 110 189 146 114 195 152 120 205 162 130 203 160 128 
188 145 113 181 138 106 181 138 106 188 145 113 200 157 125 205 162 130 
201 160 126 199 159 124 111 57 21 117 64 27 131 79 42 140 88 51 143 91 54 
126 75 39 90 41 6 91 44 9 130 84 48 178 133 96 234 191 153 254 213 175 
239 199 162 229 190 154 225 187 150 224 186 150 226 189 153 221 185 149 
210 174 138 204 167 132 202 164 130 201 162 129 202 163 130 201 162 129 
200 158 126 201 158 126 204 161 129 209 166 134 217 173 143 223 177 149 
225 180 151 227 183 153 230 186 155 230 187 154 226 184 151 227 184 152 
230 187 155 227 184 152 217 174 142 214 171 139 219 176 144 219 176 144 
212 169 138 213 170 138 219 176 144 221 178 146 219 176 144 219 176 144 
221 178 146 213 170 138 192 149 117 184 141 110 189 146 115 197 154 122 
207 164 132 206 163 131 194 151 119 187 144 112 186 143 111 190 147 115 
200 157 125 204 162 129 202 162 127 202 162 127 93 38 2 95 41 5 100 47 10 
108 56 19 118 68 31 112 62 25 87 39 1 103 56 19 160 113 77 206 160 124 
241 198 160 250 208 171 233 192 156 221 182 146 216 177 141 220 182 145 
233 195 159 233 196 160 221 185 149 214 177 142 210 172 138 207 168 135 
205 166 133 202 162 129 199 156 124 199 156 124 203 160 127 209 166 134 
219 174 145 225 180 151 227 182 154 229 185 155 231 187 156 230 187 155 
228 185 153 229 186 154 234 191 159 232 189 158 224 181 149 222 179 147 
227 184 152 225 182 150 217 174 142 214 171 139 218 175 143 218 175 143 
215 172 140 208 165 133 199 156 124 190 147 116 184 141 109 184 141 109 
191 148 117 200 157 125 211 168 136 213 170 138 207 164 132 201 158 126 
195 152 120 194 151 119 198 155 123 202 160 127 206 165 131 207 168 132 
120 66 30 118 64 28 113 61 24 114 63 26 121 71 34 116 67 29 98 50 12 120 72 34 
181 134 98 223 179 142 247 206 169 251 212 174 235 196 159 225 185 149 
220 181 144 222 184 147 232 194 157 232 194 158 222 186 150 216 179 144 
213 174 141 209 170 137 205 166 133 201 161 128 196 154 122 197 153 121 
201 158 126 209 165 134 219 175 145 226 181 152 228 183 154 230 185 156 
231 187 156 230 187 155 228 185 152 229 186 154 235 192 159 233 190 158 
225 182 150 224 181 148 228 185 153 226 183 150 216 173 140 211 168 136 
212 169 137 211 168 136 207 164 131 198 155 123 187 144 111 183 140 107 
186 143 111 191 148 116 198 155 123 206 163 130 213 170 138 216 173 141 
214 171 138 207 164 132 198 155 122 193 150 117 193 150 118 198 156 123 
207 167 132 212 172 136 192 140 103 185 133 96 171 119 82 160 108 71 
152 101 64 139 90 53 123 75 37 141 93 56 194 147 110 230 188 151 250 216 179 
255 223 186 247 209 172 240 200 164 237 198 161 231 193 156 224 186 149 
218 180 144 214 176 140 211 173 138 210 171 137 207 168 135 202 163 130 
198 158 125 193 151 119 194 151 119 199 156 124 207 164 133 219 174 145 
225 180 151 227 182 153 229 184 155 230 186 155 229 186 154 225 183 149 
226 183 150 231 188 155 230 187 153 222 179 145 220 177 143 224 181 147 
220 177 144 209 166 133 204 161 127 203 160 127 200 157 124 195 152 118 
190 147 113 186 143 109 189 146 112 199 156 123 206 163 130 210 167 133 
213 170 136 215 172 138 215 172 138 213 170 137 206 163 130 194 151 117 
187 144 110 185 142 109 192 150 116 208 167 132 215 175 139 234 182 145 
226 175 137 209 158 120 190 138 101 168 117 80 149 99 62 134 85 47 143 95 58 
178 131 94 211 168 132 243 209 171 255 225 187 254 215 179 249 209 173 
244 205 169 232 194 157 211 173 137 202 164 128 202 164 128 204 165 130 
205 167 133 204 165 133 201 162 129 197 156 124 192 150 118 192 149 117 
198 155 123 206 162 131 216 172 142 222 177 148 222 177 148 224 180 150 
228 184 153 227 184 151 222 179 145 221 178 144 225 182 147 222 179 145 
214 171 136 211 168 134 215 172 138 211 168 134 200 157 123 194 151 117 
194 151 117 191 148 114 186 143 108 185 142 108 189 146 112 198 155 121 
210 167 133 218 175 141 220 177 143 220 177 143 217 174 140 214 171 137 
211 168 134 203 160 126 190 147 113 183 140 106 182 139 105 190 148 113 
207 166 131 215 175 139 246 194 157 240 189 152 228 177 140 204 154 117 
169 119 82 144 95 57 130 81 43 126 78 41 132 86 49 165 121 85 225 185 147 
255 216 179 255 215 179 252 211 175 242 202 166 224 184 148 195 157 121 
183 146 110 189 151 115 194 156 121 200 162 128 203 163 131 201 161 129 
198 156 124 192 150 118 192 149 117 197 154 121 203 160 128 212 167 138 
215 170 141 214 169 139 217 172 141 224 181 148 224 181 147 216 173 139 
213 170 136 214 171 137 210 167 133 201 158 123 198 155 120 202 159 125 
199 156 122 188 145 111 184 141 106 186 143 109 184 141 107 179 136 101 
183 140 106 197 154 120 209 166 132 219 176 142 226 183 148 228 185 151 
227 184 150 222 179 144 215 172 137 207 164 130 197 154 120 187 143 109 
182 139 104 184 141 107 192 149 115 205 165 129 212 172 136 239 187 150 
236 184 148 229 179 142 208 158 122 173 122 86 148 99 62 136 87 49 121 73 36 
104 58 22 132 87 51 205 162 124 246 204 166 255 214 178 253 212 177 
238 197 162 217 177 141 189 151 115 179 141 105 186 148 112 193 155 120 
201 162 128 206 166 133 209 167 134 206 164 130 198 155 123 195 153 121 
198 156 124 203 160 129 211 166 136 213 168 138 210 165 134 214 169 137 
225 181 146 226 182 146 217 173 137 211 168 131 208 165 130 202 159 125 
193 150 115 191 148 112 195 152 118 193 150 115 183 140 104 179 137 101 
183 140 106 183 140 106 180 137 101 185 143 107 201 158 123 212 169 134 
218 175 140 225 182 147 231 188 154 232 189 154 226 183 148 217 174 139 
204 161 127 194 151 116 186 143 108 185 142 106 190 146 112 196 153 119 
203 162 126 206 166 130 211 161 125 212 161 126 213 163 127 202 151 116 
178 128 92 161 111 75 150 102 65 128 80 44 94 47 11 112 67 31 182 140 102 
229 188 150 253 211 175 253 212 177 230 190 154 211 171 135 195 155 120 
190 150 115 195 155 120 201 161 126 207 168 133 215 174 139 223 181 144 
221 178 142 208 166 133 202 161 129 203 161 130 191 151 122 167 132 107 
167 131 106 168 132 106 210 166 132 231 185 148 233 187 149 224 178 138 
215 170 131 206 163 127 198 155 121 190 148 111 189 147 110 194 151 116 
192 149 114 183 141 104 181 139 102 186 144 109 189 146 111 187 145 108 
191 149 112 199 156 121 205 162 127 207 165 128 215 173 136 228 185 150 
233 190 155 231 189 152 221 179 142 202 160 125 192 149 114 188 146 109 
191 148 111 199 156 121 202 159 124 200 158 121 199 157 119 195 146 111 
196 146 111 198 148 113 192 142 107 179 130 95 168 118 83 157 108 73 
131 84 48 91 45 9 98 53 17 153 110 73 201 158 121 240 198 162 250 208 173 
229 188 152 213 173 137 204 164 129 202 162 127 207 166 131 213 172 136 
221 179 142 209 170 136 177 146 118 168 135 107 177 135 104 150 112 84 
121 89 68 113 84 64 113 85 69 122 93 77 139 104 85 147 112 91 136 109 87 
131 106 84 126 101 78 134 107 82 183 145 113 209 164 127 199 156 117 
196 154 115 199 156 120 196 154 118 187 145 107 186 144 106 192 149 113 
195 152 116 196 153 116 198 156 118 202 160 124 204 161 125 203 161 123 
210 168 130 225 182 146 232 189 153 230 188 150 218 176 139 196 154 118 
185 143 107 186 144 106 191 149 111 202 159 123 203 160 124 194 151 114 
190 147 109 191 141 106 189 139 104 183 134 98 179 131 95 177 129 93 
169 121 85 154 107 71 129 83 47 95 50 13 91 47 10 118 74 36 160 117 80 
218 175 140 242 200 165 232 190 154 224 183 147 218 178 143 218 178 142 
223 181 144 231 187 148 241 195 155 187 154 124 65 60 50 31 25 19 69 42 25 
89 52 29 90 51 27 83 47 29 66 40 32 62 39 36 71 45 41 64 42 37 41 33 28 
25 25 19 28 24 19 68 55 43 154 123 96 234 186 143 221 175 133 213 169 129 
211 168 130 205 163 125 195 153 115 193 151 113 199 157 120 203 161 123 
204 162 125 207 165 127 210 167 130 209 166 129 204 162 124 208 166 128 
222 180 143 227 185 148 224 182 144 210 168 130 185 143 106 175 133 95 
178 136 98 186 144 106 199 157 120 199 157 119 186 144 106 179 137 99 
193 143 109 189 139 104 179 131 95 174 127 91 175 127 92 168 121 86 155 109 73 
135 90 54 108 64 28 96 52 15 97 53 16 132 88 52 199 155 121 235 194 159 
237 201 166 238 202 166 237 196 160 219 179 145 185 150 122 171 140 112 
178 145 117 126 104 84 37 24 15 85 42 15 87 43 15 87 43 15 87 43 15 87 43 15 
87 43 15 87 43 15 82 41 16 38 19 17 8 4 5 0 0 0 0 0 0 23 20 17 118 95 74 
181 145 112 168 134 104 176 141 109 207 166 128 214 170 131 198 156 117 
193 151 113 199 157 119 203 161 123 205 163 125 207 165 127 210 168 129 
209 167 129 205 163 124 208 166 127 219 177 138 221 179 140 214 172 134 
200 158 119 177 135 96 168 126 88 173 131 93 183 141 102 195 153 115 
195 153 115 182 140 101 176 133 95 202 152 119 196 148 114 185 138 104 
177 131 96 172 126 91 166 120 85 158 113 78 146 102 67 132 88 52 113 69 34 
92 48 12 116 72 36 187 142 107 231 193 158 247 224 189 255 233 197 255 222 183 
209 170 138 95 77 64 36 32 27 29 28 24 40 29 21 87 43 16 87 43 15 87 43 15 
87 43 15 87 43 15 87 43 15 87 43 15 87 43 15 87 43 15 87 43 15 73 36 15 
25 14 13 2 0 1 1 3 2 30 25 20 39 32 26 32 26 22 67 54 43 150 120 91 224 177 133 
196 153 112 185 143 104 191 149 110 195 153 114 198 156 116 200 158 119 
204 162 122 205 163 124 206 164 124 209 167 127 214 172 133 212 170 130 
202 160 121 189 147 107 172 130 90 166 124 84 172 130 90 180 138 98 191 149 109 
192 149 110 183 140 101 179 135 97 201 152 119 198 151 117 193 147 113 
184 139 104 171 125 91 165 120 86 167 123 88 163 119 84 153 110 75 129 85 50 
90 46 11 101 57 22 162 118 83 213 174 139 252 226 190 255 230 195 220 186 154 
146 118 97 31 27 24 0 0 0 0 0 0 97 47 18 104 51 18 90 45 16 89 44 16 89 44 16 
87 43 15 87 43 15 87 43 15 87 43 15 87 43 15 87 43 15 87 43 15 87 42 15 
43 22 11 2 2 2 0 0 0 0 0 0 0 0 0 23 19 16 101 80 62 179 141 105 179 137 96 
179 136 94 181 138 98 183 142 101 187 145 105 187 145 105 184 142 102 
187 145 105 196 154 114 203 161 121 207 165 125 204 162 122 194 152 112 
184 142 102 175 133 93 173 131 91 179 137 97 185 143 103 191 150 109 
193 150 110 189 145 106 187 143 104 191 144 110 195 149 115 203 158 123 
195 151 116 170 126 91 166 122 87 182 138 103 185 141 106 174 130 95 
143 99 64 91 47 12 86 42 7 127 83 48 182 139 103 253 210 171 228 194 162 
106 90 76 29 25 22 0 1 2 5 1 1 72 36 18 112 55 20 106 53 19 104 52 19 
97 48 19 113 56 20 109 54 19 92 46 16 87 43 15 87 43 15 87 43 15 87 43 15 
87 43 15 87 43 15 87 43 15 40 21 13 5 2 2 0 0 0 0 0 0 5 5 5 26 22 19 79 62 46 
145 107 71 175 128 83 168 124 83 167 125 85 173 131 91 168 126 86 151 109 69 
154 112 72 177 135 95 191 149 109 197 155 115 196 154 114 189 147 107 
186 144 104 187 145 105 190 148 108 195 153 113 198 156 116 198 156 116 
199 156 116 200 156 117 200 156 117 192 146 112 195 150 116 202 158 123 
196 153 118 178 134 99 175 131 96 187 143 108 187 143 108 175 131 96 
145 101 66 97 52 18 83 39 4 103 59 24 140 97 63 192 152 120 157 130 108 
35 30 27 0 0 0 5 3 2 26 13 10 78 39 17 111 55 20 110 55 20 110 54 20 107 53 20 
113 56 20 113 56 20 113 56 20 105 52 19 87 43 15 87 43 15 87 43 15 87 43 15 
87 43 15 87 43 15 76 38 16 8 4 4 0 0 0 0 0 0 0 0 0 0 0 0 20 16 12 93 67 43 
139 101 65 157 115 76 168 125 85 173 130 90 167 125 85 150 108 68 153 111 71 
174 132 92 189 147 107 197 155 115 198 156 116 193 151 111 192 150 110 
196 154 114 198 156 116 199 157 117 200 158 118 200 158 118 201 159 119 
204 160 121 205 161 122 202 157 124 198 154 120 190 147 113 188 145 111 
193 150 116 191 148 113 181 138 103 169 126 92 157 112 79 136 91 58 107 62 28 
92 47 12 93 46 10 85 48 18 69 51 38 43 38 34 7 7 7 0 0 0 16 9 9 41 21 14 
89 45 18 104 52 19 113 56 20 113 56 20 113 56 20 113 56 20 107 53 20 109 54 20 
113 56 20 109 54 19 88 44 16 87 43 15 87 43 15 87 43 15 87 43 15 86 42 15 
8 5 5 0 0 0 0 0 0 0 0 0 0 0 0 2 2 2 17 13 10 54 41 29 127 96 67 186 141 99 
185 142 101 183 141 101 182 140 100 183 141 101 188 146 106 195 153 113 
207 165 125 210 168 128 204 162 122 201 159 119 201 159 119 197 155 115 
190 148 108 190 148 108 198 156 116 201 159 119 201 157 118 201 157 118 
201 156 123 196 152 119 186 143 109 188 145 111 202 159 125 201 158 124 
186 143 109 172 129 95 160 116 83 143 97 65 119 74 41 103 57 23 95 46 9 
65 29 1 13 5 0 0 0 0 0 0 0 3 2 2 31 17 12 98 49 19 109 54 20 111 55 20 
113 56 20 113 56 20 112 56 20 110 55 20 110 55 20 112 56 20 113 56 20 
112 56 20 92 46 18 91 45 16 87 43 15 87 43 15 88 43 15 87 43 15 46 22 9 
0 0 0 0 0 0 0 0 0 0 0 0 0 0 0 0 0 0 31 25 21 124 97 71 205 159 115 195 152 111 
193 151 111 199 157 117 200 158 118 196 154 114 200 158 118 212 170 130 
215 173 133 208 166 126 204 162 122 201 159 119 195 153 113 186 144 104 
187 145 105 199 157 117 205 163 123 205 162 122 205 161 122 188 144 110 
189 145 111 191 147 113 196 152 118 204 160 126 206 163 129 202 160 125 
196 152 118 186 141 108 165 120 88 135 90 57 116 70 35 110 60 21 79 41 11 
23 14 7 0 0 2 0 0 0 8 5 5 100 49 21 113 56 20 113 56 20 113 56 20 113 56 20 
113 56 20 103 51 19 75 38 17 89 45 18 113 56 20 113 56 20 88 44 18 48 25 15 
112 55 20 90 44 16 87 43 15 87 43 15 87 43 15 86 42 15 8 4 2 0 0 0 0 0 0 0 0 0 
0 0 0 0 0 0 38 31 25 159 126 95 225 178 132 204 160 119 196 154 114 
200 158 118 201 159 119 198 156 116 202 160 120 213 171 131 214 172 132 
206 164 124 200 158 118 197 155 115 192 150 110 186 144 103 190 148 108 
205 163 123 214 171 131 216 173 133 217 173 134 184 142 108 189 146 113 
199 156 122 203 161 127 203 160 127 205 163 129 210 168 134 210 166 133 
202 158 125 184 139 105 154 108 75 125 81 49 97 58 27 62 35 13 17 11 6 0 0 2 
0 0 0 42 22 10 113 56 20 113 56 20 113 56 20 113 56 20 113 56 20 113 56 20 
112 56 20 106 53 19 108 54 20 113 56 20 113 56 20 105 52 19 56 29 15 107 53 20 
110 55 19 88 43 16 87 43 15 87 43 15 87 43 15 65 32 12 2 1 1 0 0 0 0 0 0 0 0 0 
0 0 0 38 30 25 133 106 81 185 148 112 197 156 117 202 159 119 201 158 119 
199 157 117 197 155 116 201 159 119 210 168 129 210 168 129 201 159 119 
195 153 113 191 149 110 187 145 106 182 140 100 188 146 106 204 163 123 
215 172 133 219 175 136 220 176 138 191 149 117 197 155 123 210 169 136 
211 170 137 200 158 126 200 158 125 210 168 135 214 170 138 210 166 133 
198 152 118 177 129 95 130 92 64 57 40 27 15 10 6 4 2 2 0 0 0 0 0 0 97 48 18 
111 55 20 113 56 20 113 56 20 113 56 20 112 56 20 111 55 20 113 56 20 
112 56 20 111 55 20 112 56 20 113 56 20 112 56 20 109 54 20 113 56 20 
113 56 20 104 52 18 87 43 15 87 43 15 87 43 15 85 42 15 6 4 4 0 0 0 0 0 0 
0 0 0 0 0 0 8 7 6 31 26 22 86 70 55 174 138 106 211 167 126 199 157 117 
193 151 112 192 150 111 196 154 115 205 163 124 204 162 124 194 152 113 
187 145 107 184 142 103 180 138 99 175 133 94 181 139 101 198 156 118 
209 166 128 212 169 131 214 170 132 202 162 130 208 167 135 220 180 147 
217 176 144 198 158 126 195 154 122 207 165 133 212 169 137 210 165 132 
203 157 123 192 144 108 137 102 76 39 32 27 0 0 1 0 0 0 0 0 0 2 2 3 112 56 20 
113 56 20 113 56 20 113 56 20 113 56 20 113 56 20 111 55 20 113 56 20 
101 50 19 58 30 16 64 33 16 104 52 19 113 56 20 113 56 20 113 56 20 113 56 20 
113 56 20 92 45 16 87 43 15 88 43 15 90 44 16 8 5 5 0 0 0 0 0 0 0 0 0 0 0 0 
0 0 0 0 0 0 40 33 28 165 132 103 217 172 132 196 153 115 186 144 106 
186 144 106 190 148 111 200 158 121 200 158 120 190 148 110 183 141 103 
180 138 101 176 134 97 171 129 91 175 133 95 190 148 111 198 156 119 
200 156 119 200 156 120 219 180 147 222 183 150 228 189 156 220 181 148 
199 160 127 192 153 120 201 160 128 203 161 129 200 157 124 199 154 119 
199 151 115 147 111 85 43 34 28 0 0 0 0 0 0 6 2 3 62 32 16 113 56 20 113 56 20 
113 56 20 113 56 20 112 56 20 113 56 20 113 56 20 113 56 20 111 55 20 
93 47 18 83 42 18 105 52 19 111 55 20 112 56 20 112 56 20 112 55 20 113 56 20 
112 55 20 87 43 15 87 43 15 86 42 15 7 4 4 0 0 0 0 0 0 0 0 0 0 0 0 0 0 0 0 0 0 
47 39 32 172 139 108 220 175 135 192 149 112 179 136 100 179 137 99 185 143 105 
196 153 117 197 154 118 188 146 109 183 141 103 181 138 102 176 134 98 
169 127 89 170 128 90 180 138 102 184 141 105 181 137 101 179 135 100 
230 191 158 230 191 158 229 191 158 221 182 149 204 165 132 198 158 126 
203 163 131 203 161 129 196 154 121 196 152 117 202 154 119 152 115 89 
45 35 28 0 0 0 1 1 1 10 6 6 99 49 19 113 56 20 113 56 20 113 56 20 109 54 20 
99 49 19 113 56 20 113 56 20 113 56 20 113 56 20 113 56 20 113 56 20 112 55 20 
104 52 19 101 50 19 93 46 19 84 42 18 113 56 20 113 56 20 89 44 16 87 43 15 
85 42 15 8 4 4 0 0 0 0 0 0 0 0 0 0 0 0 0 0 0 0 0 0 52 42 34 176 142 112 
223 178 139 193 149 114 178 135 100 179 136 99 185 142 105 196 153 118 
198 155 120 191 149 112 188 145 108 188 145 110 184 141 106 175 133 96 
174 131 94 179 136 100 177 133 99 168 124 90 164 120 85 233 196 164 
230 193 161 223 187 155 218 181 148 213 174 141 212 172 139 214 174 142 
210 168 136 198 156 123 195 151 118 201 153 119 151 115 90 46 35 29 1 1 1 
2 1 1 6 4 4 112 55 20 113 56 20 113 56 20 109 54 20 94 47 18 109 54 20 
113 56 20 113 56 20 113 56 20 113 56 20 97 49 19 69 35 17 68 35 16 109 54 20 
111 55 20 97 49 19 108 54 20 112 56 20 113 56 20 96 48 17 87 43 15 86 42 15 
11 6 6 0 0 0 0 0 0 0 0 0 0 0 0 0 0 0 0 0 0 53 43 36 178 143 115 227 181 143 
200 156 121 186 143 108 184 141 106 189 146 110 200 157 122 203 160 126 
198 155 120 197 154 119 201 158 123 198 155 121 189 147 111 185 142 107 
184 141 107 177 134 99 163 119 84 156 112 77 233 197 165 228 192 160 
217 181 149 214 178 146 219 182 149 223 184 151 224 184 151 216 175 143 
201 159 127 196 151 119 200 153 119 150 114 89 46 36 29 6 3 3 12 7 6 8 5 5 
113 56 20 113 56 20 113 56 20 92 46 18 45 23 15 109 54 20 113 56 20 113 56 20 
113 56 20 113 56 20 66 34 16 44 23 14 86 43 18 101 50 19 113 56 20 108 54 20 
95 47 19 113 56 20 108 54 20 103 52 19 87 43 15 86 42 15 11 6 6 0 0 0 0 0 0 
0 0 0 0 0 0 0 0 0 0 0 0 52 42 35 173 138 111 225 179 142 206 162 127 
195 152 118 191 148 114 194 151 116 204 161 126 207 164 130 203 160 126 
205 162 127 212 169 135 211 168 134 203 160 126 198 154 120 193 150 116 
182 139 104 163 119 85 154 110 75 230 194 162 223 188 156 209 174 143 
209 174 142 223 187 154 230 193 159 231 192 159 222 182 150 206 163 131 
198 153 121 200 152 119 149 113 88 45 35 29 1 0 0 2 1 1 6 3 4 113 56 20 
113 56 20 113 56 20 112 56 20 103 51 19 113 56 20 113 56 20 112 55 20 
111 55 20 113 56 20 104 52 19 107 53 20 113 56 20 113 56 20 108 54 20 
95 47 19 51 26 15 110 55 20 111 55 20 113 56 20 92 46 16 86 42 15 13 7 7 
1 1 1 0 0 0 0 0 0 0 0 0 0 0 0 0 0 0 49 39 32 162 127 100 216 170 134 
213 169 134 207 164 130 200 157 123 200 157 123 207 164 130 209 166 132 
207 164 130 211 168 134 221 178 144 223 180 146 217 174 140 211 168 134 
205 162 128 191 148 114 169 125 91 159 115 81 228 194 162 221 187 155 
206 171 139 206 171 138 222 186 153 230 193 159 230 192 159 222 183 150 
207 165 133 200 155 123 202 154 120 150 114 89 45 35 29 0 0 0 0 0 0 6 4 5 
113 56 20 113 56 20 113 56 20 113 56 20 110 55 20 113 56 20 113 56 20 
109 54 20 105 52 19 112 56 20 106 53 19 107 53 20 112 56 20 113 56 20 
99 49 19 99 49 19 82 40 18 77 39 17 74 38 17 113 56 20 118 58 21 105 52 21 
21 12 11 4 2 2 0 0 0 0 0 0 0 0 0 0 0 0 0 0 0 47 37 30 156 122 95 213 167 131 
216 172 138 214 171 137 204 161 128 203 160 126 208 165 131 210 167 133 
208 165 131 213 170 137 225 182 149 229 186 153 225 182 148 219 176 143 
212 169 136 197 153 120 173 128 95 162 117 84 229 195 163 221 188 155 
206 171 139 203 168 136 215 179 145 221 184 150 221 183 150 217 177 144 
206 164 131 202 157 125 205 157 123 153 116 92 46 36 30 0 0 0 0 0 0 9 5 6 
113 56 20 113 56 20 112 56 20 113 56 20 112 55 20 113 56 20 112 55 20 
108 54 20 111 55 20 112 56 20 112 56 20 112 56 20 113 56 20 113 56 20 
113 56 20 112 56 20 113 56 20 110 55 20 112 56 21 140 69 25 146 72 26 
139 69 25 18 10 10 4 2 2 0 0 0 0 0 0 0 0 0 0 0 0 0 0 0 46 37 30 156 122 96 
213 167 133 218 174 141 215 172 139 204 161 129 201 158 126 206 163 130 
207 164 132 205 162 130 211 168 135 224 181 149 229 187 154 226 184 151 
221 178 146 214 171 138 197 154 122 173 128 95 161 116 83 229 196 163 
222 189 156 207 173 140 202 167 134 207 171 137 210 173 139 212 174 140 
210 170 137 203 161 129 202 157 125 205 158 124 154 118 92 46 36 30 0 0 0 
0 0 0 13 7 6 111 55 20 112 55 20 104 52 19 110 55 20 113 56 20 113 56 20 
105 52 19 90 45 18 113 56 20 105 52 19 97 48 19 100 50 19 110 54 20 106 53 19 
105 52 19 93 47 19 115 57 20 134 66 24 137 67 25 134 66 25 143 71 26 144 71 26 
14 8 7 0 0 0 0 0 0 0 0 0 0 0 0 0 0 0 0 0 0 49 39 33 166 132 106 223 177 143 
219 175 142 212 169 137 201 158 126 198 155 123 203 160 128 204 161 129 
203 159 128 209 165 134 223 180 148 229 185 154 226 183 151 221 178 146 
213 170 138 195 152 120 169 125 92 157 112 79 231 197 162 224 191 156 
210 176 142 201 167 133 198 162 128 198 161 127 202 164 129 202 163 128 
199 158 126 200 157 124 204 158 123 153 118 91 41 32 27 0 0 0 0 0 0 17 8 5 
101 49 19 85 42 18 95 47 19 106 53 19 113 56 20 116 57 21 103 51 19 86 43 18 
109 54 20 93 47 19 63 33 16 70 35 16 108 54 20 110 54 20 109 54 20 118 58 22 
146 72 26 137 68 25 92 46 20 71 36 18 125 62 24 143 71 26 18 10 8 0 0 0 0 0 0 
0 0 0 0 0 0 0 0 0 0 0 0 54 45 38 186 152 126 242 196 162 220 176 144 
205 162 130 195 153 121 194 151 119 200 156 125 202 158 127 200 156 125 
207 162 131 221 177 146 227 183 152 224 180 149 218 174 143 209 165 134 
191 146 115 163 118 86 150 105 73 226 192 156 222 187 152 212 177 142 
203 168 133 196 160 126 195 158 123 199 161 125 201 162 126 201 161 128 
204 162 129 209 164 128 157 122 95 37 30 24 0 0 0 0 0 0 19 9 4 95 46 18 
65 33 16 102 51 19 111 55 20 114 56 20 113 56 20 112 56 20 109 54 20 103 51 20 
60 31 16 47 25 15 86 43 18 105 52 19 118 58 22 144 71 26 146 72 26 146 72 26 
138 68 25 125 62 23 109 54 22 130 64 24 140 69 26 19 11 8 1 0 0 0 0 0 0 0 0 
0 0 0 0 0 0 0 0 0 52 44 37 188 154 128 243 197 162 218 174 141 204 161 128 
200 157 124 199 156 124 202 157 126 203 158 126 202 157 126 208 163 132 
221 175 144 226 180 149 222 176 145 215 169 138 205 159 128 187 141 110 
161 115 84 148 103 73 216 181 145 215 179 143 213 176 140 208 171 135 
203 165 130 201 163 127 203 164 128 206 167 131 210 170 136 215 174 139 
222 176 139 167 132 104 39 31 25 0 0 0 0 0 0 19 9 4 109 54 20 103 51 19 
111 55 20 113 56 20 113 56 20 113 56 20 111 55 20 102 51 19 104 52 19 
91 45 18 94 47 18 110 55 20 130 64 25 127 63 24 146 72 26 145 71 26 143 70 26 
142 70 26 144 71 26 146 72 26 145 71 26 114 56 22 18 10 6 4 2 2 1 0 0 0 0 0 
0 0 0 0 0 0 0 0 0 45 36 29 171 137 110 228 181 145 214 168 135 209 165 132 
215 170 137 215 170 137 209 164 131 207 161 129 208 163 130 213 167 135 
223 175 143 225 177 145 219 171 139 211 162 131 200 150 119 184 135 104 
163 116 86 154 108 78 210 173 137 211 174 138 212 174 138 211 173 137 
207 169 133 206 167 131 208 168 132 211 171 135 216 176 140 221 180 144 
228 183 145 171 136 108 39 32 26 0 0 0 0 0 0 19 9 4 112 55 20 113 56 20 
113 56 20 113 56 20 113 56 20 109 54 20 97 48 19 104 51 19 113 56 20 111 55 20 
128 64 23 137 67 25 103 52 21 137 67 25 146 72 26 135 67 25 97 49 21 115 57 23 
146 72 26 146 72 26 114 57 23 61 31 17 17 10 6 3 2 1 1 1 1 0 0 0 0 0 0 0 0 0 
0 0 0 41 33 26 165 131 103 222 176 139 214 168 134 214 169 136 223 178 145 
223 177 144 213 167 134 209 162 130 211 164 131 215 168 135 223 173 141 
222 173 141 215 166 134 206 156 124 195 143 112 180 129 98 161 113 82 
153 105 75 208 171 134 209 172 135 211 174 137 212 173 137 210 171 134 
210 170 134 212 172 136 214 174 138 218 178 142 222 181 144 226 183 144 
169 136 108 39 32 26 0 0 0 0 0 0 19 9 4 110 54 20 113 56 20 113 56 20 
113 56 20 113 56 20 103 51 19 75 38 17 94 47 18 117 58 21 142 70 25 146 72 26 
127 63 24 67 34 17 135 67 25 146 72 26 144 71 26 133 66 25 137 68 25 146 72 26 
146 72 26 134 66 25 67 34 17 17 9 6 1 1 1 8 4 4 0 0 0 0 0 0 0 0 0 0 0 0 42 34 27 
168 134 107 227 181 145 219 173 139 219 173 140 226 180 147 225 178 145 
214 166 134 210 161 129 211 163 130 214 165 133 220 169 138 218 168 137 
210 160 129 201 150 119 190 138 107 175 123 92 154 104 73 144 96 65 207 169 132 
209 170 133 211 173 136 213 174 137 212 172 136 213 172 136 214 174 138 
216 176 140 219 179 143 222 181 144 225 182 144 168 136 107 39 32 27 0 0 0 
0 0 0 19 9 4 94 47 19 113 56 20 113 56 20 113 56 20 113 56 20 111 55 20 
106 53 19 121 60 22 133 66 25 144 71 26 146 72 26 146 72 26 134 66 25 
144 70 26 143 70 26 145 71 26 138 69 25 142 71 26 142 69 26 140 69 25 
144 70 26 136 67 25 19 10 6 5 3 2 17 10 9 0 0 0 0 0 0 0 0 0 0 0 0 44 36 29 
169 135 108 228 182 145 221 175 141 220 175 141 226 180 147 224 177 144 
214 166 133 210 161 129 212 162 130 214 165 133 219 168 137 217 166 134 
208 157 126 199 147 116 188 135 104 172 119 88 150 100 68 140 91 59 207 169 132 
209 171 134 212 174 137 214 175 139 214 174 138 214 174 138 215 175 139 
216 176 140 218 178 142 221 180 143 224 182 143 167 135 107 45 37 31 0 0 0 
0 0 0 19 10 5 76 40 19 113 56 20 113 56 20 112 56 20 110 55 20 114 56 20 
139 69 25 146 72 26 144 71 26 146 72 26 146 72 26 146 72 26 144 71 26 
145 71 26 143 70 26 144 71 26 119 59 23 75 38 18 81 41 19 126 62 24 144 71 26 
146 72 26 22 11 7 3 2 2 6 4 3 0 0 0 0 0 0 0 0 0 0 0 0 47 38 31 167 133 105 
224 178 141 219 174 138 218 174 139 223 177 143 221 174 141 213 165 132 
211 161 129 213 164 131 216 166 134 219 169 137 217 166 134 208 158 125 
198 147 115 188 135 103 171 119 87 149 99 67 138 90 58 209 171 134 211 173 136 
214 176 139 215 177 140 214 175 138 214 174 138 214 174 138 214 174 138 
216 176 140 218 177 140 221 178 140 165 133 105 50 41 33 0 0 0 3 2 1 19 9 6 
73 38 19 113 56 20 113 56 20 113 56 20 116 57 21 143 71 25 142 69 26 131 65 25 
137 68 25 146 72 26 144 71 26 145 72 26 146 72 26 146 72 26 145 72 26 
137 67 25 141 69 26 117 58 23 101 51 21 134 66 25 144 71 26 145 72 26 
23 12 6 0 0 0 0 0 0 0 0 0 0 0 0 0 0 0 0 0 0 49 40 33 168 133 105 224 177 140 
217 172 136 215 171 136 218 173 138 216 170 136 210 162 128 208 159 126 
212 163 129 214 165 132 216 167 134 213 163 130 204 155 121 195 145 111 
185 133 100 169 116 84 146 96 64 135 86 54 213 176 138 214 176 139 216 179 141 
216 178 141 214 174 138 212 172 136 210 170 134 211 171 135 213 173 137 
216 175 139 220 178 140 165 134 105 49 41 33 0 0 0 1 1 1 17 8 4 69 34 18 
111 55 20 110 55 20 120 59 21 145 72 26 141 70 25 121 61 23 132 65 25 
143 70 26 144 71 26 134 66 25 134 66 25 123 62 24 146 72 26 141 70 25 
99 49 21 146 72 26 146 72 26 130 64 24 118 59 23 128 64 24 144 71 26 23 12 7 
0 0 0 0 0 0 0 0 0 0 0 0 0 0 0 0 0 0 49 41 33 171 136 107 227 179 141 
216 170 134 211 165 131 212 166 131 210 163 128 204 156 123 203 154 121 
207 159 124 210 161 126 210 160 127 206 156 123 197 148 114 189 138 104 
180 128 95 164 112 80 141 91 58 130 81 48 216 177 140 216 178 141 217 179 142 
216 177 141 213 173 137 210 170 134 209 169 133 210 170 134 213 173 137 
217 176 139 222 179 141 166 134 105 50 41 33 0 0 0 1 0 0 17 8 4 68 33 18 
89 45 18 70 36 17 146 72 26 144 71 26 139 69 25 143 70 26 139 69 25 112 56 22 
85 43 20 108 53 23 117 58 23 140 68 25 146 72 26 143 70 26 113 56 22 143 70 26 
135 67 25 133 66 25 123 61 24 142 70 26 145 72 26 24 12 7 0 0 0 0 0 0 0 0 0 
0 0 0 0 0 0 0 0 0 50 41 33 174 139 108 229 181 142 216 170 134 210 163 129 
209 162 126 205 158 122 199 150 116 198 149 115 201 153 117 202 153 117 
200 150 116 195 145 111 188 138 102 181 130 95 175 122 89 161 108 76 
138 88 54 127 78 45 216 176 140 216 177 140 216 177 141 215 175 139 
211 171 135 209 169 133 208 169 133 211 171 135 217 175 139 221 178 142 
226 180 143 168 134 106 50 41 34 0 0 0 0 0 0 18 8 4 60 31 16 115 57 21 
134 67 25 146 72 26 117 58 23 85 43 19 126 62 24 123 61 24 53 27 16 57 29 16 
92 46 20 45 24 15 139 69 25 146 72 26 146 72 26 146 72 26 144 71 26 138 68 25 
146 72 26 146 72 26 146 72 26 145 71 26 25 13 6 4 2 2 0 0 0 0 0 0 0 0 0 0 0 0 
0 0 0 50 41 33 175 140 109 232 184 143 219 172 136 211 165 129 208 161 123 
202 154 117 194 145 110 191 141 107 193 144 107 192 141 105 187 135 101 
182 129 95 176 124 88 171 119 83 169 116 82 158 105 71 137 86 52 127 77 43 
213 173 137 213 173 137 214 174 138 212 172 136 209 170 134 209 169 133 
210 170 134 214 174 138 221 178 143 226 181 146 229 183 145 166 132 105 
49 39 33 1 0 0 0 0 0 18 8 4 70 36 17 141 70 25 144 71 26 145 71 26 141 70 25 
132 65 25 137 67 25 140 69 25 116 57 23 124 62 24 141 70 26 130 64 24 
146 72 26 146 72 26 145 72 26 144 71 26 146 72 26 144 71 26 145 71 26 
146 72 26 146 72 26 142 69 26 24 13 7 20 11 11 0 0 0 0 0 0 0 0 0 0 0 0 0 0 0 
49 40 32 169 134 102 226 178 136 218 171 134 212 165 128 206 158 120 
198 149 112 189 140 104 186 135 100 186 136 100 184 133 97 178 125 90 
173 120 85 168 116 79 168 115 79 171 117 82 163 110 76 145 94 59 136 86 51 
206 167 131 207 167 131 209 169 133 209 169 133 208 169 133 210 170 134 
214 174 138 219 179 143 226 184 148 230 186 150 232 186 149 173 138 110 
51 42 35 0 0 0 0 0 0 17 9 4 78 41 22 124 62 24 110 55 22 123 61 24 146 72 26 
144 71 26 105 52 22 96 48 21 140 69 25 146 72 26 146 72 26 141 70 26 146 72 26 
146 72 26 140 69 25 134 66 25 145 72 26 136 67 25 137 68 25 145 71 26 
146 72 26 124 61 24 23 12 7 9 5 5 0 0 0 0 0 0 0 0 0 0 0 0 0 0 0 45 36 28 
156 120 89 212 164 122 215 167 128 211 163 126 202 154 116 193 144 107 
184 135 98 181 130 94 182 132 95 179 128 92 172 120 84 168 115 79 166 114 77 
170 118 81 180 126 90 178 124 89 162 111 76 155 106 71 202 161 125 203 163 127 
206 165 130 208 167 131 209 168 132 211 171 135 217 176 140 222 181 146 
229 186 151 233 189 153 234 188 150 173 139 111 50 41 34 1 0 0 0 0 0 22 11 5 
88 45 22 146 72 26 125 62 24 128 63 24 146 72 26 139 69 25 114 57 23 118 59 23 
144 71 26 145 71 26 146 72 26 143 70 26 146 72 26 144 71 26 140 69 25 
143 70 26 146 72 26 145 72 26 145 72 26 146 72 26 146 72 26 145 72 26 
22 11 6 0 0 0 0 0 0 0 0 0 0 0 0 0 0 0 0 0 0 42 33 25 143 107 76 196 147 105 
202 153 114 200 151 113 189 141 103 181 133 95 175 126 88 174 124 86 
177 127 89 175 124 87 167 116 78 164 112 74 165 113 75 172 119 82 186 132 95 
186 133 97 173 123 87 167 118 82 199 157 122 201 159 123 205 163 128 
208 166 131 210 168 132 213 171 136 218 176 141 224 181 146 229 186 151 
232 188 153 233 187 150 173 138 110 48 39 32 2 1 1 0 0 0 27 13 5 106 51 20 
145 71 26 146 72 26 146 72 26 146 72 26 146 72 26 146 72 26 146 72 26 
144 71 26 135 67 25 142 70 26 146 72 26 146 72 26 135 67 25 117 58 23 
146 72 26 146 72 26 130 64 24 132 65 25 144 71 26 146 72 26 146 72 26 
24 12 6 0 0 0 0 0 0 0 0 0 0 0 0 0 0 0 0 0 1 40 29 21 132 94 62 178 127 85 
180 131 90 177 129 89 168 120 81 164 115 76 162 113 74 165 116 76 171 122 83 
171 121 82 164 112 73 161 109 70 163 111 73 172 120 81 188 135 97 190 138 100 
178 127 90 172 122 86 198 155 120 200 157 122 205 162 127 209 166 131 
211 167 132 214 170 136 218 175 140 223 180 145 227 184 149 230 186 150 
231 185 148 172 137 109 51 41 34 0 0 0 0 0 0 29 13 4 113 54 19 145 71 26 
146 72 26 146 72 26 144 71 26 143 70 26 145 72 26 133 66 25 113 56 22 
121 60 23 136 67 25 146 72 26 145 71 26 129 64 24 105 52 22 142 70 26 
141 70 25 116 58 23 119 59 23 142 70 26 146 72 26 146 72 26 25 12 5 0 0 0 
0 0 0 0 0 0 0 0 0 0 0 0 0 0 1 38 27 19 123 85 53 162 111 68 155 106 65 
149 101 61 143 95 55 142 94 54 146 98 57 153 104 64 164 115 75 165 115 75 
157 106 66 154 102 63 155 104 64 164 112 73 180 128 89 182 131 92 170 119 82 
164 114 77 198 155 120 201 158 123 207 164 129 210 167 132 210 167 132 
212 169 134 216 173 138 219 176 141 222 179 144 225 181 145 227 182 144 
170 135 107 52 41 34 2 1 1 1 0 0 27 13 4 110 52 20 144 71 26 144 71 26 
144 71 26 143 70 26 143 70 26 145 72 26 121 60 23 75 38 18 127 63 24 135 67 25 
109 54 22 111 55 22 127 63 24 146 72 26 139 69 25 137 68 25 146 72 26 
146 72 26 146 72 26 146 72 26 146 72 26 23 10 3 0 0 0 0 0 0 0 0 0 0 0 0 0 0 0 
0 0 0 37 27 19 118 80 48 149 97 54 128 79 38 116 69 28 114 66 26 118 70 30 
127 79 38 139 90 50 154 105 65 156 107 67 146 97 57 141 91 51 139 90 50 
147 96 57 162 111 71 163 111 73 148 99 61 141 93 55 202 159 124 203 160 125 
206 162 127 209 166 131 214 171 136 216 173 138 215 172 137 215 172 137 
218 174 139 222 178 142 229 183 145 173 138 110 53 43 36 2 1 1 1 0 0 28 13 5 
105 50 21 139 68 27 137 68 25 135 67 25 128 64 24 120 60 23 145 71 26 
144 71 26 130 64 24 142 70 26 135 67 25 115 57 23 118 59 23 133 66 25 
146 72 26 146 72 26 146 72 26 146 72 26 146 72 26 146 72 26 146 72 26 
145 72 26 23 14 8 1 4 6 9 10 11 15 15 15 19 19 19 14 15 16 1 3 5 35 27 18 
127 90 58 159 108 65 132 83 42 120 71 32 123 75 35 128 80 40 137 88 48 
145 96 56 153 104 64 153 104 64 144 95 55 139 91 51 140 91 51 145 96 56 
156 105 66 154 103 64 139 91 52 132 85 47 211 168 133 208 164 129 201 157 122 
206 162 127 223 179 144 226 183 148 216 172 137 211 168 133 213 169 134 
221 176 140 235 188 150 171 136 110 55 44 37 4 2 2 1 1 1 29 14 7 93 46 21 
126 63 24 141 70 25 127 63 24 108 54 22 99 50 21 144 71 26 146 72 26 146 72 26 
146 72 26 143 70 26 144 71 26 145 71 26 146 72 26 146 72 26 146 72 26 
146 72 26 139 69 25 137 68 25 145 72 26 146 72 26 145 72 26 34 26 20 23 26 28 
41 41 42 57 57 57 75 75 75 59 60 60 11 13 14 34 24 16 151 114 82 194 145 101 
167 118 77 158 110 70 168 120 80 174 125 86 174 126 86 171 122 82 162 114 74 
155 107 67 149 101 61 149 101 61 155 107 67 159 111 71 161 112 72 156 106 67 
143 94 56 137 89 51 222 178 143 215 171 136 201 157 122 204 160 125 
225 181 146 228 184 149 215 170 135 209 165 130 210 166 131 220 175 139 
235 189 151 177 142 115 57 46 38 1 1 1 0 0 0 30 15 7 102 52 22 141 70 25 
143 70 26 100 50 21 115 57 23 137 67 25 128 63 24 111 55 22 134 66 25 
146 72 26 134 66 25 144 71 26 146 72 26 146 72 26 146 72 26 145 72 26 
142 70 26 112 56 22 96 48 21 135 67 25 146 72 26 145 72 26 45 37 32 38 41 43 
52 54 54 70 70 70 92 93 93 74 74 75 14 16 18 35 26 18 162 126 93 212 163 120 
188 140 99 182 135 94 195 147 107 200 153 113 199 151 111 191 143 103 
176 129 89 167 120 80 165 117 77 167 119 79 175 127 87 177 129 89 174 126 86 
167 118 79 155 107 68 149 102 64 235 191 156 225 181 146 204 160 125 
202 158 123 219 175 140 222 178 143 211 167 132 207 163 128 210 166 131 
219 175 139 229 183 147 174 139 112 57 46 39 0 0 0 0 0 0 32 16 7 112 57 22 
146 72 26 146 72 26 139 69 25 142 70 26 143 71 26 99 50 21 42 22 15 52 27 16 
64 33 17 104 52 21 141 70 26 92 46 20 145 71 26 146 72 26 144 71 26 133 66 25 
115 57 23 114 57 23 138 68 25 146 72 26 145 72 26 63 55 50 46 49 50 46 46 47 
54 54 54 72 72 72 59 59 60 14 17 19 39 30 21 161 125 92 213 165 121 
195 149 107 192 146 105 202 157 116 208 162 121 210 163 122 206 158 118 
195 149 109 190 144 103 190 142 102 192 144 104 197 151 110 198 152 111 
196 148 107 188 140 100 175 129 90 169 124 85 233 189 154 224 179 145 
204 159 125 202 157 123 218 173 139 221 177 142 211 167 132 207 162 127 
207 163 128 212 167 132 221 175 139 172 137 110 55 44 37 0 0 0 0 0 0 34 17 7 
119 60 22 145 72 26 144 71 26 145 71 26 146 72 26 141 70 25 116 57 23 
65 33 17 49 25 16 37 20 14 87 44 20 141 69 25 103 52 21 145 72 26 146 72 26 
145 72 26 139 69 25 138 68 25 145 71 26 146 72 26 146 72 26 146 72 26 
105 94 87 74 77 80 52 53 53 58 58 58 93 93 93 77 78 79 13 16 19 40 31 23 
158 123 90 213 165 122 204 158 116 203 158 118 210 166 125 215 170 129 
218 171 131 215 168 129 208 163 123 205 160 119 206 159 119 207 160 120 
210 165 125 210 165 124 206 159 119 198 151 112 186 141 102 181 136 97 
218 172 138 212 166 132 200 155 120 204 158 124 223 177 143 226 181 147 
215 169 135 207 161 127 202 157 123 204 157 122 212 163 126 161 124 97 
52 40 33 0 0 1 0 0 1 35 18 7 126 62 21 126 62 24 128 64 24 79 40 19 142 70 26 
133 66 25 122 61 23 107 53 22 116 58 23 135 67 25 142 70 26 141 70 25 
142 70 26 146 72 26 146 72 26 146 72 26 146 72 26 145 72 26 146 72 26 
146 72 26 146 72 26 146 72 26 130 117 109 117 121 124 92 94 95 85 85 85 
94 94 94 70 70 71 12 15 17 40 31 23 154 119 88 212 165 123 213 168 128 
216 171 132 219 174 135 220 176 136 221 176 136 219 174 134 215 170 131 
213 168 129 213 168 128 214 168 129 214 169 130 211 167 127 206 161 121 
199 153 114 189 144 105 185 140 101 203 157 123 200 154 120 194 148 114 
198 152 118 214 168 134 217 171 137 206 160 126 200 154 120 199 153 119 
200 153 118 203 154 117 153 115 88 50 38 31 0 0 2 0 0 1 36 18 7 128 62 20 
146 72 26 138 69 25 93 47 20 123 61 24 131 65 24 144 71 26 119 59 23 116 57 22 
140 69 25 145 71 26 128 64 24 146 72 26 146 72 26 145 72 26 143 70 26 
146 72 26 146 72 26 146 72 26 146 72 26 146 72 26 146 72 26 137 123 115 
127 132 134 105 107 107 96 96 96 99 99 99 72 72 73 13 15 18 41 31 23 155 120 89 
215 168 126 221 176 136 223 179 141 222 178 139 220 176 137 218 174 135 
216 171 133 213 169 130 212 168 129 212 168 129 211 167 128 210 166 127 
206 163 124 201 157 118 194 150 111 187 142 103 184 139 100 191 145 111 
189 143 109 185 139 105 186 140 106 193 147 113 192 146 112 184 138 104 
186 140 106 197 151 117 202 155 120 200 151 114 149 112 85 49 37 31 0 0 3 
0 0 1 35 17 6 126 60 19 146 72 26 132 65 24 51 27 16 129 64 24 146 72 26 
146 72 26 146 72 26 146 72 26 146 72 26 146 72 26 146 72 26 146 72 26 
146 72 26 142 70 26 132 65 24 145 72 26 146 72 26 146 72 26 146 72 26 
133 66 25 132 65 24 125 112 107 123 128 130 114 115 116 111 111 111 
114 114 114 82 83 84 15 17 20 41 31 23 159 125 93 221 175 133 225 182 142 
225 182 144 219 176 137 213 171 131 208 165 127 204 162 123 203 160 120 
202 159 120 202 159 121 201 158 120 198 156 116 195 152 113 190 147 108 
185 142 103 180 136 98 178 134 95 174 127 94 175 129 95 178 132 98 180 133 99 
179 132 98 174 127 93 164 118 84 168 122 88 186 140 106 189 142 108 
181 133 97 133 96 69 44 32 25 0 0 3 0 0 1 33 16 7 116 56 20 146 72 26 
145 71 26 138 68 25 145 71 26 146 72 26 146 72 26 146 72 26 146 72 26 
146 72 26 146 72 26 146 72 26 146 72 26 145 72 26 118 59 23 54 28 16 123 61 24 
146 72 26 146 72 26 146 72 26 108 54 22 79 40 19 107 96 91 116 120 122 
116 118 118 118 118 118 125 125 125 94 94 95 18 20 22 42 32 24 166 133 101 
227 183 141 227 184 146 222 181 143 214 173 133 206 165 125 199 158 120 
196 155 117 196 154 115 196 155 115 197 155 118 196 155 117 194 152 113 
190 149 109 186 144 106 182 140 103 180 137 99 179 136 97 154 106 72 
160 112 79 175 126 93 179 130 97 173 124 91 162 113 80 147 98 65 148 100 66 
164 118 84 165 118 83 149 100 64 106 68 41 34 22 15 0 0 2 0 0 1 29 15 8 
100 50 23 146 72 26 146 72 26 142 70 26 130 64 24 145 72 26 145 71 26 
146 72 26 146 72 26 146 72 26 146 72 26 146 72 26 146 72 26 145 72 26 
137 68 25 136 67 25 145 71 26 146 72 26 146 72 26 143 71 26 144 71 26 
145 72 26 99 89 84 102 104 106 112 113 113 122 122 122 134 134 134 104 105 106 
20 22 25 43 34 26 174 142 110 234 192 150 225 183 146 215 175 138 207 167 128 
199 159 120 193 152 115 190 150 113 192 152 113 194 154 116 197 156 119 
197 157 120 195 155 116 192 153 114 189 149 112 187 146 109 187 144 107 
187 144 106 139 90 57 149 100 67 171 122 89 178 129 96 170 121 88 155 106 73 
133 84 51 128 80 46 140 93 59 137 90 55 121 72 35 84 47 20 27 15 8 0 0 2 0 0 1 
28 15 8 97 49 25 146 72 26 146 72 26 143 70 26 135 67 25 140 69 25 137 67 25 
140 69 25 135 67 25 142 70 26 146 72 26 146 72 26 146 72 26 145 71 26 
130 64 24 145 71 26 146 72 26 146 72 26 146 72 26 130 64 24 133 66 25 
143 71 26 94 85 81 98 102 102 114 115 115 129 129 129 144 144 144 112 113 114 
23 24 27 42 34 26 174 143 112 234 192 151 221 181 143 211 171 135 202 163 125 
195 157 118 190 151 114 189 150 113 192 154 116 196 157 119 199 159 123 
199 160 124 197 159 121 194 156 118 191 152 116 189 150 113 190 149 111 
190 148 110 130 81 48 142 93 60 169 120 87 179 130 97 171 122 89 153 103 70 
124 75 42 110 62 29 111 65 31 107 60 25 96 48 11 69 31 4 23 12 5 0 0 4 0 0 2 
31 16 8 107 54 23 146 72 26 146 72 26 146 72 26 146 72 26 145 72 26 145 71 26 
121 60 23 88 44 20 119 59 23 143 71 26 146 72 26 144 71 26 146 72 26 146 72 26 
146 72 26 146 72 26 146 72 26 146 72 26 144 71 26 145 71 26 142 72 28 
97 88 83 102 105 107 135 136 136 152 152 152 155 155 155 120 121 122 
25 27 30 40 31 24 167 136 107 226 185 145 216 177 139 208 169 132 201 162 125 
196 157 120 192 154 117 193 154 117 197 158 121 200 162 125 204 165 128 
203 166 128 200 164 126 196 160 122 193 155 118 190 151 114 189 150 111 
189 149 110 136 87 54 145 96 63 165 116 83 170 121 88 161 112 79 144 95 62 
117 68 35 103 55 21 101 54 20 100 53 18 101 52 16 77 39 12 26 14 7 0 0 3 0 0 1 
31 16 8 108 55 23 146 72 26 146 72 26 146 72 26 146 72 26 146 72 26 146 72 26 
130 64 24 97 48 21 116 57 23 142 70 26 146 72 26 141 70 25 146 72 26 146 72 26 
146 72 26 146 72 26 142 70 26 141 70 25 146 72 26 146 72 26 142 72 28 
116 109 104 130 133 134 157 157 157 158 158 158 158 158 158 123 124 125 
26 28 31 38 30 22 161 131 102 219 179 140 213 175 137 207 170 133 201 164 127 
197 159 123 194 157 120 195 157 120 198 161 124 201 164 127 204 166 129 
203 166 129 199 164 126 195 160 122 191 154 117 188 150 113 187 148 110 
186 147 108 158 109 76 158 109 76 157 108 75 152 102 69 141 92 59 129 80 47 
114 65 32 107 58 25 107 61 27 117 70 35 135 86 50 108 70 43 34 22 15 0 0 1 
0 0 1 29 15 8 100 52 24 146 72 26 146 72 26 145 72 26 130 64 24 118 59 23 
143 70 26 146 72 26 145 71 26 141 70 25 145 71 26 146 72 26 144 71 26 
146 72 26 146 72 26 146 72 26 146 72 26 142 70 26 141 70 25 146 72 26 
146 72 26 143 72 30 156 156 155 158 158 158 158 158 158 158 158 158 
158 158 158 120 120 121 26 28 30 37 28 21 156 126 98 214 176 137 213 176 139 
209 173 137 203 167 131 199 163 126 196 160 124 195 159 123 197 160 124 
198 162 125 199 163 127 198 162 126 194 160 123 190 156 119 186 150 114 
183 146 110 182 143 107 182 142 105 167 118 85 160 111 78 147 98 65 138 90 56 
134 86 53 131 82 49 126 78 44 123 75 42 121 74 40 133 86 51 159 110 74 
128 91 64 39 27 20 0 0 0 0 0 0 28 15 8 97 51 24 146 72 26 146 72 26 145 72 26 
114 57 23 75 38 18 127 63 24 146 72 26 146 72 26 103 52 21 118 59 23 143 71 26 
146 72 26 146 72 26 146 72 26 146 72 26 146 72 26 146 72 26 146 72 26 
146 72 26 146 72 26 139 73 32 158 158 158 158 158 158 158 158 158 158 158 158 
158 158 158 115 116 117 25 27 29 38 30 22 158 129 100 217 178 140 215 178 141 
212 176 140 206 170 134 202 166 129 198 162 126 196 160 124 195 159 123 
195 159 123 195 160 123 194 159 123 192 158 121 189 155 118 185 150 114 
183 146 110 182 143 107 182 142 106 162 113 80 153 105 71 133 87 53 129 82 49 
141 92 59 149 100 67 154 107 74 152 105 71 141 95 61 148 101 66 173 125 88 
137 101 73 41 30 23 0 0 0 0 0 0 28 15 8 97 51 24 146 72 26 146 72 26 146 72 26 
128 63 24 105 52 22 137 67 25 146 72 26 146 72 26 124 61 24 129 64 24 
144 71 26 146 72 26 146 72 26 146 72 26 146 72 26 142 70 26 141 69 25 
146 72 26 146 72 26 146 72 26 139 73 32 158 158 158 158 158 158 158 158 158 
158 158 158 157 157 157 109 110 111 23 25 27 41 33 25 168 138 109 228 188 149 
221 183 146 215 178 142 211 173 137 206 168 132 201 163 126 197 159 122 
194 157 120 193 156 119 192 157 119 192 157 119 192 157 119 191 156 118 
189 154 117 188 152 114 188 150 111 188 148 110 160 111 78 150 101 68 
127 81 47 125 79 45 143 95 62 157 109 76 167 121 87 165 119 85 150 104 70 
155 108 73 179 131 94 141 106 78 42 31 24 0 0 0 0 0 0 28 15 8 98 52 24 
146 72 26 146 72 26 146 72 26 143 71 26 140 69 25 146 72 26 145 72 26 
137 67 25 142 70 26 145 72 26 146 72 26 146 72 26 145 72 26 131 65 24 
110 55 22 66 34 17 100 50 21 146 72 26 146 72 26 146 72 26 139 72 30 156 156 156 
158 158 158 158 158 158 157 157 157 128 128 128 108 108 109 22 24 26 43 34 27 
173 142 113 233 193 153 224 185 148 217 179 143 213 175 138 208 170 133 
202 164 127 197 159 122 194 156 119 192 154 117 191 155 117 191 156 118 
192 157 119 192 157 119 191 156 118 190 155 116 191 152 113 191 151 112 
