P3
64 64
255
0 0 0 65 64 28 65 64 28 0 0 0 0 0 0 93 91 41 83 81 36 61 59 26 14 14 6 1 1 1 
25 24 11 47 46 20 68 66 29 91 89 40 116 113 52 130 127 58 174 170 78 
0 0 0 0 0 0 26 25 11 26 25 11 0 0 0 0 0 0 0 0 0 0 0 0 132 121 96 132 121 96 
0 0 0 0 0 0 0 0 0 108 52 22 108 52 22 108 52 22 108 52 22 108 52 22 108 52 22 
94 57 239 95 57 237 95 57 237 95 58 239 97 59 245 95 56 246 89 50 245 
94 60 216 111 88 159 123 107 121 128 117 101 131 121 92 131 122 91 0 0 0 0 0 0 
0 0 0 0 0 0 125 128 50 125 128 50 0 0 0 0 0 0 0 0 0 0 0 0 125 128 50 
125 128 50 0 0 0 0 0 0 0 0 0 0 0 0 0 0 0 0 0 0 66 66 28 68 67 29 78 76 34 
81 79 35 60 58 26 14 14 6 0 0 0 18 17 8 35 34 15 50 49 22 68 66 30 88 85 39 
91 89 41 59 63 28 0 0 0 0 0 0 0 0 0 0 0 0 171 118 53 171 118 53 0 0 0 0 0 0 
0 0 0 0 0 0 152 145 79 0 0 0 108 52 22 108 52 22 109 54 25 110 56 28 109 56 27 
108 52 22 108 52 22 83 51 202 84 52 201 83 52 201 84 52 202 84 52 203 
86 53 212 91 55 228 97 64 210 105 82 156 112 96 124 118 103 114 120 107 109 
120 107 108 0 0 0 0 0 0 0 0 0 0 0 0 0 0 0 0 0 0 125 128 50 125 128 50 
125 128 50 125 128 50 0 0 0 0 0 0 0 0 0 0 0 0 0 0 0 0 0 0 0 0 0 0 0 0 69 68 30 
69 68 30 72 71 31 77 76 33 57 56 25 14 14 6 0 0 0 1 1 1 7 7 3 12 12 5 17 17 8 
22 21 10 23 24 11 20 26 11 12 25 10 0 0 0 0 0 0 0 0 0 171 118 53 171 118 53 
0 0 0 0 0 0 0 0 0 0 0 0 144 134 90 0 0 0 108 52 22 108 53 23 110 57 29 
110 57 29 110 57 29 110 57 28 108 52 23 108 52 22 0 0 0 0 0 0 0 0 0 0 0 0 
0 0 0 0 0 0 0 0 0 93 71 150 90 71 129 94 74 139 96 75 144 97 75 144 0 0 0 
0 0 0 0 0 0 0 0 0 0 0 0 0 0 0 125 128 50 125 128 50 125 128 50 125 128 50 
0 0 0 0 0 0 0 0 0 0 0 0 0 0 0 0 0 0 0 0 0 0 0 0 52 51 22 52 52 23 61 60 26 
81 79 35 70 69 30 19 19 8 0 0 0 2 1 1 1 1 0 0 0 0 0 0 0 0 0 0 2 0 0 31 15 7 
53 29 14 99 72 32 255 216 93 255 255 255 0 0 0 0 0 0 164 117 52 164 117 52 
0 0 0 0 0 0 137 125 101 108 52 22 108 52 22 108 53 23 110 57 29 110 57 29 
110 57 29 110 57 29 110 57 29 108 53 23 108 52 22 0 0 0 0 0 0 0 0 0 0 0 0 
0 0 0 0 0 0 94 77 123 87 72 106 83 66 117 81 63 122 81 62 123 0 0 0 0 0 0 
0 0 0 0 0 0 0 0 0 0 0 0 125 128 50 125 128 50 125 128 50 125 128 50 0 0 0 
0 0 0 0 0 0 0 0 0 0 0 0 0 0 0 0 0 0 0 0 0 16 16 7 18 18 8 38 37 16 95 93 40 
129 126 54 70 68 30 0 0 0 21 21 9 16 15 7 0 0 0 0 0 0 0 0 0 15 0 0 72 1 5 
116 32 19 151 100 45 172 141 62 0 0 0 0 0 0 0 0 0 0 0 0 0 0 0 0 0 0 0 0 0 
108 52 22 117 63 32 178 141 107 181 144 110 181 144 110 181 144 110 
118 67 39 110 57 29 110 57 29 110 56 28 108 52 22 0 0 0 0 0 0 0 0 0 0 0 0 
0 0 0 0 0 0 112 105 67 102 95 59 84 77 52 75 69 49 75 68 49 0 0 0 0 0 0 0 0 0 
0 0 0 0 0 0 0 0 0 125 128 50 125 128 50 125 128 50 125 128 50 0 0 0 0 0 0 
0 0 0 0 0 0 0 0 0 111 108 48 0 0 0 0 0 0 9 10 4 19 19 8 37 36 16 106 103 44 
245 238 102 0 0 0 44 42 18 41 40 17 38 37 16 30 30 13 19 19 8 2 3 1 38 0 1 
126 0 7 176 31 21 185 82 41 187 107 50 0 0 0 0 0 0 0 0 0 0 0 0 0 0 0 0 0 0 
0 0 0 108 52 22 117 63 32 143 107 79 59 28 12 53 25 11 127 96 71 182 146 112 
162 121 88 110 57 29 109 55 26 108 52 22 0 0 0 0 0 0 0 0 0 0 0 0 0 0 0 0 0 0 
121 120 32 108 106 38 85 83 22 73 71 14 71 70 14 0 0 0 0 0 0 0 0 0 0 0 0 125 128 50 
125 128 50 0 0 0 0 0 0 0 0 0 0 0 0 125 128 50 125 128 50 0 0 0 0 0 0 0 0 0 
111 108 48 0 0 0 0 0 0 38 38 16 57 56 24 63 62 27 105 103 44 0 0 0 0 0 0 82 80 35 
56 54 24 67 66 29 92 92 40 83 76 33 37 16 6 69 0 0 187 12 15 246 25 23 
242 30 25 221 54 32 0 0 0 0 0 0 0 0 0 0 0 0 0 0 0 0 0 0 0 0 0 108 52 22 
108 52 22 20 10 4 34 20 10 61 51 28 49 42 23 58 42 26 163 127 96 158 117 84 
108 52 22 108 52 22 108 52 22 0 0 0 0 0 0 0 0 0 0 0 0 0 0 0 104 104 0 
109 106 36 84 83 19 72 72 11 71 70 10 0 0 0 0 0 0 0 0 0 0 0 0 125 128 50 
125 128 50 0 0 0 0 0 0 0 0 0 0 0 0 125 128 50 125 128 50 0 0 0 0 0 0 0 0 0 
0 0 0 181 175 81 158 153 70 83 81 35 59 58 24 50 49 20 20 20 8 0 0 0 0 0 0 
30 29 13 51 50 21 72 71 31 117 116 50 114 106 46 56 34 13 101 6 6 226 18 19 
255 17 22 255 6 18 239 28 24 0 0 0 0 0 0 0 0 0 0 0 0 0 0 0 0 0 0 0 0 0 108 52 22 
108 52 22 1 0 0 36 32 18 102 89 51 84 74 42 92 81 46 92 78 44 58 29 12 
102 49 21 108 52 22 108 52 22 0 0 0 0 0 0 0 0 0 0 0 0 0 0 0 0 0 0 0 0 0 0 0 0 
0 0 0 0 0 0 77 74 27 77 74 27 0 0 0 0 0 0 0 0 0 0 0 0 0 0 0 0 0 0 0 0 0 0 0 0 
0 0 0 0 0 0 0 0 0 0 0 0 0 0 0 0 0 0 131 127 57 127 124 56 91 89 39 30 29 11 
2 2 0 0 0 0 0 0 0 0 0 0 10 10 4 33 32 14 48 47 20 84 82 36 135 154 64 
77 109 43 160 55 29 246 16 20 255 8 19 255 15 20 245 24 23 0 0 0 0 0 0 0 0 0 
0 0 0 0 0 0 0 0 0 0 0 0 108 52 22 108 52 22 1 1 0 2 2 1 102 89 51 102 90 52 
170 150 86 180 158 91 86 69 39 96 46 20 108 52 22 108 52 22 0 0 0 0 0 0 0 0 0 
0 0 0 0 0 0 0 0 0 0 0 0 0 0 0 0 0 0 0 0 0 77 74 27 77 74 27 0 0 0 0 0 0 0 0 0 
0 0 0 0 0 0 0 0 0 0 0 0 0 0 0 0 0 0 0 0 0 0 0 0 0 0 0 0 0 0 0 0 0 113 110 47 
110 107 46 85 83 37 27 27 16 0 0 1 0 0 0 0 0 0 0 0 0 0 0 0 17 17 6 22 21 8 
0 0 0 0 0 0 240 255 255 220 106 52 239 34 27 243 23 23 244 24 23 248 21 22 
0 0 0 0 0 0 0 0 0 0 0 0 0 0 0 0 0 0 0 0 0 108 52 22 108 52 22 14 7 3 0 0 0 
69 60 35 77 68 39 99 87 50 190 167 96 189 166 95 108 52 22 108 52 22 102 49 21 
13 7 4 34 23 18 34 23 18 108 52 22 0 0 0 0 0 0 0 0 0 0 0 0 0 0 0 0 0 0 0 0 0 
0 0 0 0 0 0 0 0 0 0 0 0 0 0 0 0 0 0 0 0 0 0 0 0 0 0 0 0 0 0 0 0 0 0 0 0 0 0 0 
0 0 0 0 0 0 79 77 28 78 76 28 68 67 32 48 47 38 21 22 25 0 0 0 0 0 0 0 0 0 
0 0 0 0 0 0 3 3 0 0 0 0 0 0 0 0 0 0 203 96 47 203 73 39 213 59 34 235 34 27 
248 20 22 0 0 0 0 0 0 0 0 0 0 0 0 0 0 0 0 0 0 108 52 22 108 52 22 108 52 22 
68 33 14 0 0 0 2 2 1 73 64 37 93 82 47 190 167 96 190 167 96 108 52 22 
108 52 22 102 49 21 26 15 10 8 5 4 0 0 0 0 0 0 0 0 0 0 0 0 0 0 0 0 0 0 0 0 0 
0 0 0 0 0 0 0 0 0 0 0 0 0 0 0 0 0 0 0 0 0 0 0 0 0 0 0 0 0 0 0 0 0 0 0 0 0 0 0 
0 0 0 0 0 0 0 0 0 0 0 0 51 50 9 53 52 11 69 68 38 103 103 95 103 104 106 
67 68 68 52 52 52 57 57 57 44 44 45 16 16 18 3 3 5 2 2 4 0 0 0 0 0 0 185 90 44 
183 94 45 203 72 38 238 31 25 251 16 21 247 21 22 246 23 23 247 23 23 
251 17 21 0 0 0 0 0 0 108 52 22 108 53 23 109 55 26 62 34 20 4 2 2 0 0 0 7 7 4 
149 131 75 57 50 29 1 1 0 63 30 13 108 52 22 103 51 24 93 48 25 53 28 14 
20 11 7 0 0 0 0 0 0 0 0 0 0 0 0 0 0 0 0 0 0 0 0 0 0 0 0 0 0 0 0 0 0 0 0 0 
0 0 0 0 0 0 0 0 0 0 0 0 0 0 0 0 0 0 0 0 0 0 0 0 0 0 0 0 0 0 0 0 0 0 0 0 34 32 0 
39 37 0 88 87 56 194 193 185 240 240 243 220 220 221 215 215 215 224 224 224 
173 173 174 68 69 72 19 20 24 14 15 20 0 0 0 0 0 0 106 178 71 142 143 60 
226 45 30 255 11 19 255 10 19 249 20 22 245 24 23 246 23 23 247 21 22 
0 0 0 0 0 0 0 0 0 110 56 28 110 57 29 185 148 114 117 92 71 1 1 1 0 0 0 0 0 0 
0 0 0 0 0 0 186 149 115 108 52 22 98 51 26 98 51 26 98 51 26 62 32 16 36 20 12 
27 13 7 0 0 0 0 0 0 0 0 0 0 0 0 0 0 0 0 0 0 0 0 0 0 0 0 0 0 0 0 0 0 0 0 0 
0 0 0 0 0 0 0 0 0 0 0 0 0 0 0 0 0 0 0 0 0 0 0 0 0 0 0 0 0 0 37 35 0 42 40 0 
89 88 57 189 189 181 245 245 248 250 250 251 255 255 255 255 255 255 
206 206 207 88 89 94 33 34 41 28 29 35 0 0 0 0 0 0 0 0 0 0 0 0 0 0 0 0 0 0 
0 0 0 0 0 0 0 0 0 0 0 0 108 52 22 0 0 0 0 0 0 0 0 0 110 57 29 172 132 99 
186 149 115 34 23 18 29 20 15 4 2 2 6 2 3 12 5 6 40 15 19 176 141 109 
171 131 98 98 51 26 98 51 26 98 51 26 98 51 26 79 41 21 41 22 13 7 5 4 0 0 0 
0 0 0 0 0 0 0 0 0 0 0 0 0 0 0 0 0 0 0 0 0 0 0 0 0 0 0 0 0 0 0 0 0 0 0 0 0 0 0 
0 0 0 0 0 0 0 0 0 0 0 0 0 0 0 0 0 0 62 60 19 63 61 21 72 70 41 91 90 82 
119 119 122 156 156 157 175 175 175 177 177 177 143 143 145 76 77 83 45 46 53 
42 43 51 0 0 0 0 0 0 0 0 0 0 0 0 0 0 0 0 0 0 0 0 0 0 0 0 0 0 0 108 52 22 
108 52 22 0 0 0 0 0 0 110 57 29 110 57 29 185 148 114 180 144 111 34 23 18 
30 17 15 28 11 14 50 19 24 47 18 22 51 20 24 143 109 85 186 149 115 
87 46 24 98 51 26 98 51 26 98 51 26 98 51 26 67 35 18 43 23 13 34 23 18 
0 0 0 0 0 0 0 0 0 0 0 0 0 0 0 0 0 0 0 0 0 0 0 0 0 0 0 0 0 0 0 0 0 0 0 0 0 0 0 
0 0 0 0 0 0 0 0 0 0 0 0 0 0 0 0 0 0 89 86 39 87 85 39 71 69 35 35 35 26 
36 36 40 76 77 78 96 96 97 95 95 96 81 81 82 56 57 58 44 45 47 43 44 45 
0 0 0 0 0 0 0 0 0 0 0 0 0 0 0 0 0 0 0 0 0 0 0 0 0 0 0 108 52 22 108 52 22 
0 0 0 110 57 29 110 57 29 110 57 29 178 139 106 184 148 114 34 23 18 30 14 15 
45 18 21 48 19 23 77 30 37 93 41 40 180 141 108 183 147 113 103 70 48 
98 51 26 98 51 26 98 51 26 98 51 26 98 51 26 54 28 14 62 35 21 0 0 0 0 0 0 
0 0 0 0 0 0 0 0 0 0 0 0 0 0 0 0 0 0 0 0 0 0 0 0 0 0 0 0 0 0 0 0 0 0 0 0 0 0 0 
0 0 0 0 0 0 0 0 0 0 0 0 115 112 51 113 110 50 85 83 38 24 24 13 0 0 4 12 12 16 
19 19 22 17 18 21 21 21 21 28 27 20 32 30 20 32 31 20 0 0 0 0 0 0 0 0 0 0 0 0 
0 0 0 0 0 0 0 0 0 0 0 0 108 52 22 108 52 22 108 52 22 0 0 0 0 0 0 110 57 29 
110 57 29 174 135 102 183 147 113 23 16 12 29 13 14 51 19 24 50 19 24 91 35 43 
95 40 46 184 146 113 187 150 116 181 145 112 99 56 32 98 51 26 98 51 26 
98 51 26 98 51 26 67 35 18 65 34 17 106 52 23 0 0 0 0 0 0 0 0 0 0 0 0 0 0 0 
0 0 0 0 0 0 0 0 0 0 0 0 0 0 0 0 0 0 0 0 0 0 0 0 0 0 0 0 0 0 0 0 0 0 0 0 0 0 0 
130 127 58 126 123 56 91 88 40 30 29 12 5 4 0 6 5 0 6 5 0 4 3 0 15 14 1 
38 36 12 49 46 17 50 47 17 0 0 0 0 0 0 0 0 0 0 0 0 0 0 0 0 0 0 0 0 0 0 0 0 
108 52 22 108 52 22 108 52 22 0 0 0 0 0 0 110 57 29 110 57 29 182 145 112 
124 99 77 13 8 7 22 12 11 61 23 29 81 31 38 91 35 43 91 35 43 120 70 65 
187 150 116 187 150 116 174 137 104 98 52 28 98 51 26 98 51 26 98 51 26 
83 43 22 51 27 14 98 50 25 0 0 0 0 0 0 0 0 0 0 0 0 0 0 0 0 0 0 0 0 0 0 0 0 
0 0 0 0 0 0 0 0 0 0 0 0 0 0 0 0 0 0 0 0 0 0 0 0 0 0 0 0 0 0 190 186 85 
162 158 72 81 78 35 56 54 24 53 50 22 54 52 21 54 51 20 52 49 19 62 59 23 
84 80 32 94 90 36 95 91 36 0 0 0 0 0 0 0 0 0 0 0 0 0 0 0 0 0 0 0 0 0 108 52 22 
108 52 22 108 52 22 109 56 27 0 0 0 0 0 0 110 57 29 145 105 76 186 149 115 
45 30 26 15 6 7 29 11 14 91 35 43 91 35 43 91 35 43 91 35 43 91 35 43 104 50 53 
187 150 116 187 150 116 164 127 96 98 51 26 98 51 26 98 51 26 98 51 26 
53 27 14 82 43 22 100 51 25 0 0 0 0 0 0 0 0 0 0 0 0 0 0 0 0 0 0 0 0 0 0 0 0 
0 0 0 0 0 0 0 0 0 0 0 0 0 0 0 0 0 0 0 0 0 0 0 0 34 37 11 0 0 0 0 0 0 49 46 21 
72 68 31 74 71 32 76 73 32 77 73 31 74 71 30 84 80 33 105 101 41 115 110 45 
116 111 45 0 0 0 0 0 0 166 114 51 0 0 0 0 0 0 0 0 0 0 0 0 108 52 22 108 52 22 
108 52 23 110 57 29 0 0 0 0 0 0 110 57 29 180 144 111 171 137 106 22 9 10 
21 8 10 53 20 25 91 35 43 91 35 43 91 35 43 85 33 41 53 21 25 53 20 25 
147 105 87 187 150 116 187 150 116 106 61 36 98 51 26 98 51 26 98 51 26 
83 43 22 54 28 14 98 51 26 98 51 26 0 0 0 0 0 0 0 0 0 0 0 0 0 0 0 0 0 0 0 0 0 
0 0 0 0 0 0 0 0 0 0 0 0 0 0 0 0 0 0 0 0 0 0 0 0 0 0 0 0 0 0 0 0 0 42 38 18 
73 70 32 76 73 32 78 75 32 78 75 32 76 73 31 86 82 34 107 103 42 117 112 46 
118 113 46 0 0 0 0 0 0 166 114 51 0 0 0 0 0 0 0 0 0 0 0 0 108 52 22 108 52 22 
110 57 29 110 57 29 0 0 0 0 0 0 110 57 29 180 144 111 115 93 71 13 5 6 53 20 25 
70 27 32 91 35 43 91 35 43 91 35 43 55 21 26 40 15 19 32 12 15 45 17 21 
185 148 114 187 150 116 167 127 96 98 51 26 98 51 26 98 51 26 98 51 26 
58 30 15 65 34 17 98 51 26 0 0 0 0 0 0 0 0 0 0 0 0 0 0 0 0 0 0 0 0 0 0 0 0 
0 0 0 0 0 0 0 0 0 0 0 0 0 0 0 0 0 0 0 0 0 147 142 66 140 135 63 105 101 47 
0 0 0 0 0 0 0 0 0 0 0 0 0 0 0 0 0 0 0 0 0 0 0 0 0 0 0 0 0 0 105 101 41 
105 101 41 0 0 0 0 0 0 0 0 0 0 0 0 108 52 22 108 52 22 108 53 24 110 57 29 
110 57 29 0 0 0 110 57 29 110 57 29 186 149 115 40 31 24 27 10 12 56 21 26 
49 19 23 91 35 43 91 35 43 83 32 39 42 16 19 40 15 19 31 12 15 48 18 23 
134 84 53 187 150 116 187 150 116 106 60 34 98 51 26 98 51 26 98 51 26 
76 40 20 60 31 16 95 49 25 0 0 0 0 0 0 0 0 0 0 0 0 0 0 0 0 0 0 0 0 0 0 0 0 
0 0 0 0 0 0 0 0 0 0 0 0 0 0 0 0 0 0 0 0 0 147 142 66 147 141 66 141 135 63 
0 0 0 0 0 0 0 0 0 0 0 0 0 0 0 0 0 0 0 0 0 0 0 0 0 0 0 0 0 0 105 101 41 
105 101 41 0 0 0 0 0 0 0 0 0 0 0 0 108 52 22 0 0 0 0 0 0 0 0 0 0 0 0 0 0 0 
110 57 29 171 132 99 156 125 96 24 13 13 77 29 37 50 19 23 49 19 23 91 35 43 
91 35 43 62 24 30 40 15 19 40 15 19 28 11 13 59 23 28 106 50 25 183 145 111 
187 150 116 151 110 80 98 51 26 98 51 26 98 51 26 83 43 22 55 29 15 91 48 25 
0 0 0 0 0 0 0 0 0 0 0 0 0 0 0 0 0 0 0 0 0 0 0 0 0 0 0 0 0 0 0 0 0 0 0 0 0 0 0 
0 0 0 0 0 0 149 142 68 149 142 68 149 142 68 0 0 0 0 0 0 0 0 0 0 0 0 0 0 0 
0 0 0 0 0 0 0 0 0 0 0 0 0 0 0 0 0 0 0 0 0 0 0 0 0 0 0 0 0 0 0 0 0 108 52 22 
0 0 0 0 0 0 0 0 0 0 0 0 110 57 29 110 57 29 182 145 112 83 66 51 33 13 15 
86 33 41 49 19 23 50 19 24 112 67 73 91 35 43 59 22 28 41 16 19 40 15 19 
34 14 16 48 18 23 97 41 36 123 71 40 187 150 116 187 150 116 101 55 30 
98 51 26 98 51 26 98 51 26 55 29 15 33 18 9 0 0 0 0 0 0 0 0 0 0 0 0 0 0 0 
0 0 0 0 0 0 0 0 0 0 0 0 0 0 0 0 0 0 0 0 0 0 0 0 0 0 0 0 0 0 150 143 69 
150 143 69 150 143 69 0 0 0 0 0 0 0 0 0 0 0 0 0 0 0 0 0 0 0 0 0 0 0 0 0 0 0 
0 0 0 0 0 0 0 0 0 0 0 0 0 0 0 0 0 0 0 0 0 108 52 22 0 0 0 0 0 0 0 0 0 0 0 0 
110 57 29 144 98 67 186 149 115 64 42 36 45 17 22 61 23 29 49 19 23 57 22 27 
141 111 114 128 91 95 67 26 32 56 22 26 46 18 22 46 18 22 48 19 23 96 40 37 
108 52 22 185 148 114 187 150 116 147 106 76 98 51 26 98 51 26 98 51 26 
73 38 19 28 15 8 0 0 0 0 0 0 0 0 0 0 0 0 0 0 0 0 0 0 0 0 0 0 0 0 0 0 0 0 0 0 
0 0 0 0 0 0 0 0 0 0 0 0 0 0 0 150 143 69 150 143 69 150 143 69 0 0 0 0 0 0 
0 0 0 0 0 0 0 0 0 0 0 0 0 0 0 0 0 0 0 0 0 0 0 0 0 0 0 0 0 0 0 0 0 0 0 0 0 0 0 
108 52 22 108 52 22 0 0 0 0 0 0 0 0 0 0 0 0 110 57 29 186 149 115 90 71 55 
47 18 22 52 20 25 48 19 23 48 19 23 85 33 40 95 41 49 193 188 185 117 74 79 
84 32 40 76 29 36 50 19 24 91 35 43 83 38 24 96 46 20 181 143 109 187 150 116 
186 149 115 101 57 33 98 51 26 98 51 26 80 41 21 38 20 10 0 0 0 0 0 0 0 0 0 
0 0 0 0 0 0 0 0 0 0 0 0 0 0 0 0 0 0 0 0 0 0 0 0 0 0 0 0 0 0 0 0 0 0 0 0 150 143 69 
150 143 69 150 143 69 0 0 0 0 0 0 0 0 0 0 0 0 0 0 0 0 0 0 0 0 0 0 0 0 0 0 0 
0 0 0 0 0 0 0 0 0 0 0 0 0 0 0 0 0 0 108 52 22 108 52 22 0 0 0 0 0 0 0 0 0 
110 57 29 174 134 101 119 95 74 42 17 20 47 18 22 70 27 33 42 17 20 30 16 15 
91 35 43 91 35 43 112 67 72 193 188 185 125 87 91 91 35 43 91 35 43 91 35 43 
59 28 12 66 32 13 186 149 115 187 150 116 187 150 116 143 111 85 98 51 26 
98 51 26 80 41 21 52 27 14 0 0 0 0 0 0 0 0 0 0 0 0 0 0 0 0 0 0 0 0 0 0 0 0 
0 0 0 0 0 0 0 0 0 0 0 0 0 0 0 0 0 0 0 0 0 0 0 0 0 0 0 0 0 0 150 143 69 
150 143 69 0 0 0 0 0 0 0 0 0 0 0 0 0 0 0 0 0 0 0 0 0 0 0 0 0 0 0 0 0 0 0 0 0 
0 0 0 0 0 0 108 52 22 108 52 22 0 0 0 0 0 0 0 0 0 110 57 29 166 133 103 
75 59 46 47 18 22 54 21 26 62 24 29 21 13 11 60 23 29 91 35 43 91 35 43 
91 35 43 173 157 157 193 188 185 105 55 62 91 35 43 92 36 41 57 27 12 60 29 12 
187 150 115 187 150 116 187 150 116 150 121 93 98 53 28 98 51 26 93 48 25 
55 29 15 0 0 0 0 0 0 0 0 0 0 0 0 0 0 0 0 0 0 0 0 0 65 62 24 0 0 0 0 0 0 0 0 0 
0 0 0 0 0 0 0 0 0 0 0 0 0 0 0 0 0 0 0 0 0 150 143 69 150 143 69 0 0 0 0 0 0 
0 0 0 0 0 0 0 0 0 0 0 0 0 0 0 0 0 0 0 0 0 0 0 0 0 0 0 0 0 0 0 0 0 108 52 22 
108 52 22 0 0 0 110 57 29 110 57 29 110 57 29 186 149 115 32 18 16 48 18 23 
91 35 43 48 19 23 16 11 9 69 31 35 112 74 67 100 51 53 91 35 43 94 40 48 
193 188 185 193 188 185 193 188 185 142 102 79 65 40 27 57 28 12 187 150 116 
187 150 116 187 150 116 149 120 92 98 52 27 98 51 26 98 51 26 54 28 14 
98 51 26 0 0 0 0 0 0 0 0 0 0 0 0 0 0 0 0 0 0 65 62 24 0 0 0 0 0 0 0 0 0 0 0 0 
0 0 0 0 0 0 0 0 0 0 0 0 0 0 0 0 0 0 0 0 0 0 0 0 0 0 0 0 0 0 0 0 0 0 0 0 0 0 0 
0 0 0 0 0 0 0 0 0 0 0 0 0 0 0 0 0 0 0 0 0 0 0 0 0 0 0 0 0 0 110 57 29 
110 57 29 110 57 29 185 148 114 186 149 115 63 28 30 86 33 41 91 35 43 
40 17 19 18 13 11 48 41 34 89 75 61 133 112 91 133 112 91 99 50 53 193 188 185 
193 188 185 181 168 161 109 81 65 75 54 42 88 42 18 187 150 116 187 150 116 
187 150 116 145 114 86 98 51 26 98 51 26 98 51 26 54 28 14 98 51 26 0 0 0 
0 0 0 0 0 0 0 0 0 0 0 0 0 0 0 0 0 0 0 0 0 0 0 0 0 0 0 0 0 0 0 0 0 0 0 0 0 0 0 
0 0 0 0 0 0 0 0 0 0 0 0 0 0 0 0 0 0 0 0 0 0 0 0 0 0 0 0 0 0 0 0 0 0 0 0 0 0 0 
0 0 0 0 0 0 0 0 0 0 0 0 0 0 0 0 0 0 0 0 0 110 57 29 110 57 29 180 142 109 
186 149 115 78 59 44 98 47 47 91 35 43 70 27 33 21 10 10 18 15 12 19 17 13 
80 67 55 133 112 91 133 112 91 133 112 91 147 109 88 82 61 49 102 76 61 
53 39 32 45 26 17 109 54 23 187 150 116 187 150 116 187 150 116 144 113 86 
98 51 26 98 51 26 98 51 26 54 28 14 89 46 24 0 0 0 0 0 0 0 0 0 0 0 0 0 0 0 
0 0 0 0 0 0 0 0 0 0 0 0 0 0 0 0 0 0 0 0 0 0 0 0 0 0 0 0 0 0 0 0 0 0 0 0 0 0 0 
0 0 0 0 0 0 0 0 0 0 0 0 0 0 0 0 0 0 0 0 0 0 0 0 0 0 0 0 0 0 0 0 0 0 0 0 0 0 0 
0 0 0 0 0 0 110 57 29 110 57 29 110 57 29 186 149 115 131 108 74 190 167 96 
190 166 96 123 77 60 57 21 26 0 0 0 12 11 8 22 19 15 107 90 73 133 112 91 
133 112 91 133 112 91 137 111 90 93 73 59 23 18 14 13 11 8 69 56 44 91 66 49 
187 150 116 187 150 116 187 150 116 160 127 99 98 51 26 98 51 26 98 51 26 
66 35 18 63 33 17 0 0 0 0 0 0 0 0 0 0 0 0 0 0 0 0 0 0 0 0 0 105 100 38 
105 100 38 0 0 0 0 0 0 0 0 0 0 0 0 0 0 0 0 0 0 0 0 0 0 0 0 0 0 0 0 0 0 0 0 0 
0 0 0 0 0 0 0 0 0 0 0 0 0 0 0 0 0 0 0 0 0 0 0 0 0 0 0 0 0 0 0 0 0 0 0 0 110 57 29 
110 57 29 109 57 29 185 148 114 182 145 112 185 162 93 190 167 96 190 167 96 
159 126 79 37 14 17 0 0 0 29 25 20 69 58 47 108 91 74 133 112 91 133 112 91 
133 112 91 133 112 91 133 112 91 72 61 49 52 44 35 68 57 46 71 60 49 175 140 109 
187 150 116 187 150 116 164 132 102 98 51 26 98 51 26 98 51 26 76 39 20 
58 30 15 0 0 0 0 0 0 0 0 0 0 0 0 0 0 0 0 0 0 0 0 0 105 100 38 105 100 38 
0 0 0 0 0 0 0 0 0 0 0 0 0 0 0 0 0 0 0 0 0 0 0 0 0 0 0 0 0 0 0 0 0 0 0 0 0 0 0 
0 0 0 0 0 0 0 0 0 0 0 0 0 0 0 0 0 0 0 0 0 0 0 0 0 0 0 110 57 29 110 57 29 
110 57 29 184 147 114 182 146 112 51 37 29 170 145 86 190 167 96 190 167 96 
110 64 54 0 0 0 4 3 3 52 44 36 71 60 49 133 112 91 133 112 91 133 112 91 
133 112 91 133 112 91 133 112 91 133 112 91 133 112 91 91 77 63 71 60 49 
144 115 89 187 150 116 187 150 116 152 122 95 98 54 30 98 51 26 98 51 26 
76 39 20 56 29 15 0 0 0 0 0 0 0 0 0 0 0 0 0 0 0 0 0 0 201 191 73 0 0 0 0 0 0 
0 0 0 0 0 0 0 0 0 0 0 0 0 0 0 0 0 0 0 0 0 0 0 0 0 0 0 0 0 0 0 0 0 0 0 0 0 0 0 
0 0 0 0 0 0 0 0 0 0 0 0 0 0 0 0 0 0 0 0 0 0 0 0 0 0 0 110 57 29 110 57 29 
186 149 115 181 145 112 34 23 18 34 23 18 65 38 32 136 96 67 112 64 54 
24 9 11 0 0 0 44 38 30 45 38 31 74 62 51 133 112 91 133 112 91 133 112 91 
133 112 91 133 112 91 133 112 91 133 112 91 133 112 91 94 79 64 71 59 47 
141 113 88 187 150 116 187 150 116 150 121 93 98 62 39 98 51 26 98 51 26 
84 44 22 50 26 13 98 51 26 0 0 0 0 0 0 0 0 0 0 0 0 0 0 0 0 0 0 0 0 0 0 0 0 
0 0 0 0 0 0 0 0 0 0 0 0 0 0 0 0 0 0 0 0 0 0 0 0 0 0 0 0 0 0 0 0 0 0 0 0 0 0 0 
0 0 0 0 0 0 0 0 0 0 0 0 0 0 0 0 0 0 0 0 0 0 0 0 110 57 29 110 57 29 178 139 106 
186 149 115 34 23 18 27 18 14 20 13 10 20 14 11 17 8 8 10 4 5 0 0 0 4 3 2 
47 40 32 64 53 43 126 106 86 133 112 91 133 112 91 133 112 91 133 112 91 
133 112 91 133 112 91 133 112 91 133 112 91 94 79 64 71 59 47 141 113 88 
187 150 116 187 150 116 150 121 93 99 64 42 98 51 26 98 51 26 86 45 23 
48 25 12 98 51 26 0 0 0 0 0 0 0 0 0 0 0 0 0 0 0 0 0 0 0 0 0 0 0 0 0 0 0 0 0 0 
0 0 0 0 0 0 0 0 0 0 0 0 0 0 0 0 0 0 0 0 0 0 0 0 0 0 0 0 0 0 0 0 0 0 0 0 0 0 0 
0 0 0 0 0 0 0 0 0 0 0 0 0 0 0 110 57 29 110 57 29 171 131 98 186 149 115 
85 65 50 34 23 18 20 13 10 20 14 11 16 11 9 0 0 0 0 0 0 0 0 0 30 24 19 
77 65 53 126 106 86 133 112 91 133 112 91 133 112 91 133 112 91 133 112 91 
133 112 91 133 112 91 133 112 91 133 112 91 93 79 64 72 60 49 142 114 88 
187 150 116 187 150 116 150 121 93 98 53 29 98 51 26 94 49 25 85 44 23 
49 25 13 98 51 26 0 0 0 0 0 0 0 0 0 0 0 0 0 0 0 0 0 0 0 0 0 0 0 0 0 0 0 0 0 0 
0 0 0 0 0 0 0 0 0 0 0 0 0 0 0 0 0 0 0 0 0 0 0 0 0 0 0 0 0 0 0 0 0 0 0 0 0 0 0 
0 0 0 0 0 0 0 0 0 0 0 0 110 57 29 110 57 29 110 57 29 186 149 115 134 100 74 
34 23 18 23 15 12 20 14 11 20 13 11 3 2 2 0 0 0 0 0 0 5 3 2 116 97 78 
133 112 91 132 111 90 133 112 91 133 112 91 133 112 91 132 111 91 133 112 91 
133 112 91 133 112 91 133 112 91 133 112 91 84 71 57 77 63 51 165 132 102 
187 150 116 187 150 116 143 112 84 98 51 26 91 47 24 85 44 23 85 44 23 
51 27 14 58 30 15 0 0 0 0 0 0 0 0 0 0 0 0 0 0 0 0 0 0 0 0 0 0 0 0 0 0 0 0 0 0 
0 0 0 0 0 0 0 0 0 0 0 0 0 0 0 0 0 0 0 0 0 0 0 0 0 0 0 0 0 0 0 0 0 0 0 0 0 0 0 
0 0 0 0 0 0 0 0 0 110 57 29 110 57 29 110 57 29 179 140 107 186 149 115 
34 23 18 34 23 18 20 13 10 20 13 10 18 12 10 0 0 0 0 0 0 0 0 0 31 21 17 
132 111 90 133 112 91 132 111 91 133 112 91 133 112 91 116 98 79 92 77 63 
133 112 91 133 112 91 133 112 91 133 112 91 133 112 91 75 63 51 93 75 59 
187 150 116 187 150 116 187 150 116 116 76 50 98 51 26 87 45 23 85 44 23 
85 44 23 72 38 19 49 26 13 0 0 0 0 0 0 0 0 0 0 0 0 0 0 0 0 0 0 0 0 0 0 0 0 
0 0 0 0 0 0 0 0 0 0 0 0 0 0 0 0 0 0 0 0 0 0 0 0 0 0 0 0 0 0 0 0 0 0 0 0 0 0 0 
0 0 0 0 0 0 0 0 0 0 0 0 110 57 29 110 57 29 110 57 29 178 139 106 186 149 115 
85 65 50 34 23 18 20 14 11 21 14 11 22 15 11 6 4 3 0 0 0 0 0 0 6 4 3 91 74 60 
133 112 91 133 112 91 133 112 91 132 111 90 101 85 69 88 74 60 88 74 60 
122 103 84 133 112 91 133 112 91 133 112 91 133 112 91 73 61 50 101 81 63 
187 150 116 187 150 116 182 145 111 98 52 27 95 50 25 85 44 23 85 44 23 
74 38 20 64 33 17 49 25 13 28 15 8 0 0 0 0 0 0 0 0 0 0 0 0 0 0 0 0 0 0 0 0 0 
0 0 0 0 0 0 0 0 0 0 0 0 0 0 0 0 0 0 0 0 0 0 0 0 0 0 0 0 0 0 0 0 0 0 0 0 0 0 0 
0 0 0 0 0 0 0 0 0 110 57 29 110 57 29 110 57 29 178 139 105 186 149 115 
130 103 79 34 23 18 34 23 18 20 14 11 34 23 18 20 13 10 1 1 1 0 0 0 0 0 0 
28 19 15 129 108 88 133 112 91 131 111 90 133 112 91 106 89 73 88 74 60 
88 74 60 88 74 60 94 79 65 133 112 91 133 112 91 133 112 91 115 97 79 
82 67 53 107 86 66 187 150 116 187 150 116 163 123 92 98 51 26 87 45 23 
85 44 23 85 44 23 82 43 22 60 31 16 57 30 15 16 8 4 0 0 0 0 0 0 0 0 0 0 0 0 
0 0 0 0 0 0 0 0 0 0 0 0 0 0 0 0 0 0 0 0 0 0 0 0 0 0 0 0 0 0 0 0 0 0 0 0 0 0 0 
0 0 0 0 0 0 0 0 0 0 0 0 0 0 0 110 57 29 110 57 29 110 57 29 135 88 58 
186 149 115 68 51 40 34 23 18 34 23 18 34 23 18 23 16 12 20 14 11 18 12 9 
0 0 0 0 0 0 1 1 1 34 23 18 132 111 90 133 112 91 132 111 90 120 101 82 
88 74 60 88 74 60 88 74 60 103 87 71 132 111 90 133 112 91 133 112 91 
133 112 91 92 77 63 96 77 60 131 105 81 187 150 116 187 150 116 117 73 46 
98 51 26 85 44 23 85 44 23 85 44 23 79 41 21 63 32 17 57 30 15 32 17 9 0 0 0 
0 0 0 0 0 0 0 0 0 0 0 0 0 0 0 0 0 0 0 0 0 0 0 0 0 0 0 0 0 0 0 0 0 0 0 0 0 0 0 
0 0 0 0 0 0 0 0 0 0 0 0 0 0 0 0 0 0 0 0 0 0 0 0 110 57 29 110 57 29 110 57 29 
185 148 114 180 144 111 34 23 18 34 23 18 34 23 18 26 17 14 20 13 11 20 13 10 
7 5 4 0 0 0 0 0 0 9 6 5 34 23 18 133 112 91 133 112 91 133 112 91 92 77 63 
88 74 60 88 74 60 71 60 49 0 0 0 88 74 61 133 112 91 133 112 91 133 112 91 
76 64 52 100 80 62 173 138 107 187 150 116 187 150 116 98 52 27 87 45 23 
85 44 23 85 44 23 85 44 23 48 25 12 44 24 11 62 32 17 47 25 13 0 0 0 0 0 0 
0 0 0 0 0 0 0 0 0 0 0 0 0 0 0 0 0 0 0 0 0 0 0 0 0 0 0 0 0 0 0 0 0 0 0 0 0 0 0 
0 0 0 0 0 0 0 0 0 0 0 0 0 0 0 0 0 0 110 57 29 110 57 29 110 57 29 158 114 82 
186 149 115 34 23 18 34 23 18 24 16 13 32 22 17 20 14 11 20 13 10 18 12 9 
0 0 0 0 0 0 0 0 0 17 12 9 67 53 42 133 112 91 133 112 91 131 110 90 88 74 60 
88 74 60 77 65 53 0 0 0 0 0 0 2 1 1 133 112 91 133 112 91 126 106 86 
76 63 51 102 82 63 187 150 116 187 150 116 121 77 50 97 50 26 85 44 23 
85 44 23 79 41 21 63 32 17 35 19 10 39 21 10 59 31 15 38 20 10 0 0 0 0 0 0 
0 0 0 0 0 0 0 0 0 0 0 0 0 0 0 0 0 0 0 0 0 0 0 0 0 0 0 0 0 0 0 0 0 0 0 0 0 0 0 
0 0 0 0 0 0 0 0 0 0 0 0 0 0 0 0 0 0 110 57 29 110 57 29 110 57 29 185 148 114 
161 128 99 34 23 18 34 23 18 25 17 13 20 13 10 20 14 11 20 13 10 6 4 3 0 0 0 
0 0 0 0 0 0 1 1 1 113 94 76 133 112 91 133 112 91 120 101 82 88 74 60 88 74 60 
27 22 18 0 0 0 0 0 0 13 11 9 133 112 91 133 112 91 74 62 51 93 75 59 119 96 74 
187 150 116 130 86 58 98 51 26 91 48 24 85 44 23 82 43 22 77 40 20 63 32 17 
39 21 10 32 17 9 51 27 13 41 21 11 5 3 1 0 0 0 0 0 0 0 0 0 0 0 0 0 0 0 0 0 0 
0 0 0 0 0 0 0 0 0 0 0 0 0 0 0 0 0 0 0 0 0 0 0 0 0 0 0 0 0 0 0 0 0 0 0 0 0 0 0 
0 0 0 105 54 28 64 33 17 135 87 57 186 149 115 34 23 18 34 23 18 34 23 18 
22 15 12 20 13 11 20 13 11 17 12 9 0 0 0 0 0 0 0 0 0 0 0 0 2 2 1 131 110 89 
133 112 91 133 112 91 111 93 76 88 74 60 88 74 60 2 2 2 0 0 0 0 0 0 5 4 3 
133 111 90 122 103 84 71 60 49 101 81 63 184 148 114 140 98 68 98 51 26 
87 45 23 86 45 23 86 45 23 82 43 22 44 23 12 49 25 13 28 15 8 50 25 13 
21 12 6 52 27 14 21 11 6 0 0 0 0 0 0 0 0 0 0 0 0 0 0 0 0 0 0 0 0 0 0 0 0 0 0 0 
0 0 0 0 0 0 0 0 0 0 0 0 0 0 0 0 0 0 0 0 0 0 0 0 0 0 0 0 0 0 0 0 0 66 34 17 
64 33 17 186 149 115 156 124 96 34 23 18 34 23 18 34 23 18 21 14 11 20 13 10 
19 13 10 0 0 0 0 0 0 0 0 0 0 0 0 0 0 0 37 27 21 133 112 91 133 112 91 
133 112 91 96 81 66 88 74 60 88 74 60 0 0 0 0 0 0 0 0 0 18 15 12 133 112 91 
73 52 38 83 63 48 115 92 71 147 105 75 98 51 26 87 45 23 85 44 23 86 45 23 
75 39 20 65 34 18 64 33 17 39 21 11 37 19 10 57 29 15 20 10 6 31 16 8 14 7 4 
1 1 0 0 0 0 0 0 0 0 0 0 0 0 0 0 0 0 0 0 0 0 0 0 0 0 0 0 0 0 0 0 0 0 0 0 0 0 0 
0 0 0 0 0 0 0 0 0 0 0 0 0 0 0 0 0 0 0 0 0 64 33 17 111 84 62 186 149 115 
34 23 18 34 23 18 25 17 13 20 13 10 20 13 10 20 13 10 13 9 7 0 0 0 0 0 0 0 0 0 
0 0 0 3 2 1 85 53 22 85 53 22 109 83 57 133 112 91 94 79 65 88 74 60 83 69 56 
0 0 0 0 0 0 0 0 0 82 69 56 133 112 91 86 64 47 115 93 72 173 135 102 
98 51 26 93 48 25 85 44 23 85 44 23 85 44 23 75 39 20 59 31 16 84 44 22 
47 24 13 59 31 16 36 19 9 23 12 6 28 15 8 5 3 2 18 9 5 0 0 0 0 0 0 0 0 0 0 0 0 
0 0 0 0 0 0 34 23 18 34 23 18 0 0 0 0 0 0 0 0 0 0 0 0 0 0 0 0 0 0 0 0 0 0 0 0 
0 0 0 0 0 0 110 57 29 64 33 17 177 139 105 181 145 112 34 23 18 34 23 18 
20 14 11 20 13 10 20 13 11 28 19 15 29 20 15 0 0 0 44 36 27 95 77 59 97 78 60 
97 78 60 85 53 22 85 53 22 85 53 22 85 53 22 77 48 20 65 41 17 58 46 35 
54 43 33 51 40 31 24 20 15 15 13 10 126 102 79 172 136 102 187 150 116 
114 68 42 93 48 25 85 44 23 85 44 23 85 44 23 86 45 23 59 31 16 63 33 17 
70 36 19 53 27 14 36 19 10 32 17 9 18 9 5 21 11 5 6 3 1 33 17 9 0 0 0 0 0 0 
0 0 0 0 0 0 0 0 0 0 0 0 34 23 18 34 23 18 34 23 18 0 0 0 0 0 0 0 0 0 0 0 0 
0 0 0 0 0 0 0 0 0 0 0 0 0 0 0 69 36 18 76 39 20 179 141 108 165 131 102 
34 23 18 34 23 18 34 23 18 24 16 12 27 18 14 89 45 21 64 48 37 97 78 60 
97 78 60 93 74 57 98 74 55 135 161 70 96 66 38 85 53 22 85 53 22 85 53 22 
85 53 22 85 53 22 131 104 80 148 118 92 59 48 37 77 61 47 14 12 10 165 129 96 
187 150 116 145 103 74 88 46 23 86 45 23 85 44 23 85 44 23 82 43 22 71 37 18 
44 23 11 61 32 16 52 27 14 50 26 14 26 14 6 23 12 6 13 7 4 17 9 5 7 4 2 31 16 8 
98 51 26 0 0 0 0 0 0 0 0 0 0 0 0 0 0 0 35 23 18 34 23 18 34 23 18 47 28 19 
0 0 0 0 0 0 0 0 0 0 0 0 0 0 0 0 0 0 0 0 0 0 0 0 64 33 17 64 33 17 183 145 112 
163 130 100 34 23 18 34 23 18 34 23 18 34 23 18 183 146 113 186 149 115 
186 149 115 175 140 108 0 0 0 0 0 0 0 0 0 0 0 0 95 65 36 85 53 22 85 53 22 
85 53 22 85 53 22 85 53 22 125 103 80 133 112 91 0 0 0 0 0 0 166 133 102 
187 150 116 144 102 72 91 47 24 86 45 23 85 44 23 85 44 23 86 45 23 73 38 19 
60 31 16 25 14 7 33 17 9 42 22 11 27 15 7 25 13 7 17 9 4 20 10 6 22 12 6 
8 4 2 16 8 4 98 51 26 0 0 0 0 0 0 0 0 0 0 0 0 0 0 0 37 24 18 36 24 18 34 23 18 
34 23 18 0 0 0 0 0 0 0 0 0 0 0 0 0 0 0 0 0 0 0 0 0 0 0 0 68 35 18 64 33 17 
186 149 115 68 51 40 34 23 18 156 124 96 186 149 115 186 149 115 186 149 115 
186 149 115 0 0 0 0 0 0 148 104 46 148 103 46 150 98 44 0 0 0 85 53 22 
85 53 22 85 53 22 85 53 22 85 53 22 85 53 22 133 112 91 133 112 91 0 0 0 187 150 116 
187 150 116 162 122 91 98 51 26 88 46 23 85 44 23 79 42 21 62 32 17 74 39 19 
75 39 20 52 28 13 24 13 6 46 24 12 41 21 11 26 13 7 18 9 5 14 7 4 29 15 8 
10 5 3 21 11 5 14 7 3 98 51 26 0 0 0 0 0 0 0 0 0 0 0 0 0 0 0 41 26 18 50 29 19 
34 23 18 34 23 18 0 0 0 0 0 0 0 0 0 0 0 0 0 0 0 0 0 0 0 0 0 0 0 0 64 33 17 
64 33 17 186 149 115 85 65 50 186 149 115 186 149 115 0 0 0 0 0 0 0 0 0 0 0 0 
0 0 0 0 0 0 148 104 46 148 103 46 149 101 45 0 0 0 85 53 22 85 53 22 85 53 22 
85 53 22 85 53 22 85 53 22 0 0 0 133 112 91 187 150 116 187 150 116 
181 143 110 100 54 28 98 51 26 87 45 23 78 41 20 60 32 16 59 31 16 58 31 16 
72 38 19 46 24 12 31 16 8 53 27 14 25 13 7 15 8 4 15 8 3 18 9 5 30 16 8 
9 4 2 24 13 6 21 12 6 98 51 26 0 0 0 0 0 0 0 0 0 0 0 0 0 0 0 47 29 20 34 23 18 
34 23 18 38 24 18 0 0 0 0 0 0 0 0 0 0 0 0 0 0 0 0 0 0 0 0 0 0 0 0 64 33 17 
80 41 21 186 149 115 186 149 115 179 141 107 0 0 0 0 0 0 0 0 0 0 0 0 0 0 0 
0 0 0 0 0 0 0 0 0 0 0 0 0 0 0 85 53 22 85 53 22 85 53 22 85 53 22 85 53 22 
85 53 22 87 55 24 133 112 91 155 128 101 187 150 116 186 149 115 166 127 95 
98 51 26 85 44 23 86 45 23 73 38 19 59 30 16 58 30 16 57 30 15 43 22 11 
41 22 11 70 37 19 39 20 10 19 9 5 12 6 3 13 6 3 29 15 8 17 9 5 25 13 7 31 16 8 
83 65 49 156 125 97 186 149 115 0 0 0 0 0 0 0 0 0 0 0 0 49 29 20 34 23 18 
34 23 18 0 0 0 0 0 0 0 0 0 0 0 0 0 0 0 0 0 0 0 0 0 0 0 0 0 0 0 65 33 17 
77 40 20 184 147 113 167 126 94 0 0 0 0 0 0 0 0 0 0 0 0 0 0 0 0 0 0 0 0 0 
0 0 0 0 0 0 0 0 0 0 0 0 85 53 22 85 53 22 85 53 22 85 53 22 88 57 27 85 53 22 
92 62 33 0 0 0 187 150 116 186 149 115 186 149 115 151 120 93 77 40 20 
60 31 16 75 39 20 64 33 17 66 34 17 38 19 10 46 24 12 40 21 10 26 14 7 39 20 11 
40 21 11 24 12 6 14 7 3 15 8 4 10 5 2 26 14 7 29 15 7 44 32 23 86 69 53 
78 58 42 0 0 0 0 0 0 0 0 0 0 0 0 0 0 0 35 23 18 34 23 18 0 0 0 0 0 0 0 0 0 
0 0 0 0 0 0 0 0 0 0 0 0 0 0 0 0 0 0 0 0 0 110 57 29 110 57 29 0 0 0 0 0 0 
0 0 0 0 0 0 0 0 0 0 0 0 0 0 0 0 0 0 0 0 0 0 0 0 0 0 0 0 0 0 0 0 0 85 53 22 
85 53 22 85 53 22 85 53 22 85 53 22 85 53 22 85 53 22 55 35 15 78 62 48 
186 149 115 184 148 114 155 123 94 77 40 20 86 44 23 83 44 22 66 34 17 
35 18 9 26 13 7 39 20 11 42 22 11 39 21 11 40 21 10 28 15 7 27 14 8 23 12 6 
25 13 7 15 8 4 45 23 12 29 15 8 71 57 43 98 77 59 98 51 26 0 0 0 0 0 0 0 0 0 
0 0 0 0 0 0 0 0 0 0 0 0 0 0 0 0 0 0 0 0 0 0 0 0 0 0 0 0 0 0 0 0 0 0 0 0 0 0 0 
0 0 0 0 0 0 0 0 0 0 0 0 146 123 53 146 123 53 0 0 0 0 0 0 148 102 46 
148 103 46 148 103 46 148 105 47 148 106 47 147 105 47 147 107 47 147 111 49 
147 114 50 86 54 23 85 53 22 85 53 22 85 53 22 85 53 22 85 53 22 58 36 15 
15 12 9 186 149 115 179 143 111 185 148 114 103 61 37 57 30 15 52 27 14 
49 25 12 35 18 9 40 21 11 43 23 12 40 21 11 33 17 9 37 20 10 34 18 9 24 13 6 
26 13 7 13 7 3 42 22 11 73 49 32 97 78 60 96 76 59 6 3 2 0 0 0 0 0 0 0 0 0 
0 0 0 0 0 0 0 0 0 0 0 0 0 0 0 0 0 0 0 0 0 0 0 0 0 0 0 0 0 0 0 0 0 0 0 0 0 0 0 
0 0 0 0 0 0 0 0 0 0 0 0 0 0 0 145 120 49 145 120 49 0 0 0 0 0 0 148 102 46 
148 103 46 148 104 46 148 105 47 148 106 47 147 106 47 147 107 47 147 110 48 
147 111 48 89 58 27 85 53 22 85 53 22 85 53 22 85 53 22 85 53 23 0 0 0 0 0 0 
186 149 115 182 144 110 186 149 115 171 131 98 73 38 19 58 30 15 40 21 11 
43 23 12 46 24 12 29 15 8 29 14 8 27 13 8 25 14 7 18 9 5 29 15 7 51 26 13 
61 32 16 54 28 14 110 89 68 95 76 58 0 0 0 0 0 0 0 0 0 0 0 0 110 57 29 
0 0 0 0 0 0 0 0 0 0 0 0 0 0 0 0 0 0 0 0 0 0 0 0 0 0 0 0 0 0 0 0 0 0 0 0 0 0 0 
0 0 0 0 0 0 0 0 0 0 0 0 0 0 0 145 120 49 145 120 49 0 0 0 0 0 0 149 99 45 
148 103 46 148 104 46 148 105 47 148 106 47 148 106 47 148 106 47 148 105 47 
148 105 46 97 68 39 85 53 22 85 53 22 85 53 22 85 53 22 85 53 22 0 0 0 0 0 0 
165 124 92 186 149 115 186 149 115 186 149 115 182 145 111 110 57 29 72 38 19 
58 30 15 52 27 14 22 12 6 39 21 11 50 26 13 62 32 17 42 22 11 52 27 13 
53 28 14 84 54 36 149 119 92 102 82 63 0 0 0 0 0 0 0 0 0 0 0 0 0 0 0 0 0 0 
0 0 0 0 0 0 0 0 0 0 0 0 0 0 0 0 0 0 0 0 0 0 0 0 0 0 0 0 0 0 0 0 0 0 0 0 0 0 0 
0 0 0 0 0 0 0 0 0 0 0 0 0 0 0 0 0 0 0 0 0 138 155 55 141 139 52 147 110 47 
0 0 0 0 0 0 0 0 0 0 0 0 0 0 0 0 0 0 85 53 22 85 53 22 85 53 22 85 53 22 
85 53 22 85 53 22 85 53 22 85 53 22 0 0 0 0 0 0 0 0 0 148 102 71 173 133 100 
186 149 115 186 149 115 186 149 115 155 124 96 106 84 64 108 86 67 91 71 53 
77 58 43 52 25 11 51 27 14 79 54 37 86 68 51 96 76 58 99 80 61 103 81 62 
43 22 11 0 0 0 0 0 0 0 0 0 0 0 0 0 0 0 0 0 0 0 0 0 0 0 0 0 0 0 0 0 0 0 0 0 
0 0 0 0 0 0 0 0 0 0 0 0 0 0 0 0 0 0 0 0 0 0 0 0 0 0 0 0 0 0 0 0 0 0 0 0 0 0 0 
0 0 0 0 0 0 144 123 50 144 123 49 146 116 48 0 0 0 0 0 0 0 0 0 0 0 0 0 0 0 
85 53 22 85 53 22 85 53 22 85 53 22 85 53 22 85 53 22 85 53 22 85 53 22 
85 53 22 0 0 0 0 0 0 0 0 0 0 0 0 108 52 22 108 52 22 166 124 91 186 149 115 
185 148 114 170 135 103 107 84 63 103 82 63 61 49 38 88 71 54 99 79 61 
99 80 61 125 100 77 149 119 92 186 149 115 0 0 0 0 0 0 0 0 0 146 112 48 
0 0 0 0 0 0 0 0 0 0 0 0 0 0 0 0 0 0 0 0 0 0 0 0 0 0 0 0 0 0 0 0 0 0 0 0 0 0 0 
0 0 0 0 0 0 0 0 0 0 0 0 0 0 0 0 0 0 0 0 0 0 0 0 0 0 0 0 0 0 0 0 0 144 122 49 
145 122 49 146 117 49 0 0 0 0 0 0 0 0 0 0 0 0 0 0 0 85 53 22 85 53 22 85 53 22 
85 53 22 85 53 22 85 53 22 85 53 22 85 53 22 85 53 22 0 0 0 0 0 0 0 0 0 0 0 0 
0 0 0 0 0 0 0 0 0 0 0 0 85 53 22 85 53 22 76 47 20 85 53 22 85 53 22 0 0 0 
0 0 0 0 0 0 0 0 0 0 0 0 148 104 46 148 105 46 146 109 47 146 111 48 146 112 48 
0 0 0 0 0 0 0 0 0 0 0 0 0 0 0 0 0 0 0 0 0 0 0 0 0 0 0 0 0 0 0 0 0 0 0 0 0 0 0 
0 0 0 0 0 0 0 0 0 0 0 0 0 0 0 0 0 0 0 0 0 0 0 0 0 0 0 0 0 0 0 0 0 144 123 49 
145 122 49 145 118 49 0 0 0 0 0 0 0 0 0 0 0 0 0 0 0 85 53 22 85 53 22 85 53 22 
85 53 22 85 53 22 85 53 22 85 53 22 85 53 22 0 0 0 0 0 0 0 0 0 0 0 0 0 0 0 
0 0 0 0 0 0 0 0 0 0 0 0 85 53 22 85 53 22 85 53 22 85 53 22 85 53 22 0 0 0 
0 0 0 0 0 0 0 0 0 0 0 0 146 110 48 149 101 45 146 109 47 146 111 48 146 112 48 
0 0 0 0 0 0 0 0 0 0 0 0 0 0 0 0 0 0 0 0 0 0 0 0 0 0 0 0 0 0 0 0 0 0 0 0 0 0 0 
0 0 0 0 0 0 0 0 0 0 0 0 0 0 0 0 0 0 0 0 0 0 0 0 0 0 0 145 120 49 145 120 49 
0 0 0 0 0 0 144 125 49 0 0 0 0 0 0 0 0 0 0 0 0 0 0 0 85 53 22 85 53 22 
85 53 22 85 53 22 85 53 22 85 53 22 85 53 22 0 0 0 0 0 0 0 0 0 0 0 0 0 0 0 
0 0 0 0 0 0 0 0 0 0 0 0 0 0 0 85 53 22 85 53 22 85 53 22 85 53 22 85 53 22 
0 0 0 0 0 0 0 0 0 0 0 0 0 0 0 141 129 53 0 0 0 0 0 0 0 0 0 0 0 0 146 111 48 
146 111 48 0 0 0 0 0 0 0 0 0 0 0 0 0 0 0 0 0 0 0 0 0 0 0 0 0 0 0 
