P3
64 64
255
0 0 0 0 0 0 0 0 0 0 0 0 0 0 0 0 0 0 0 0 0 0 0 0 0 0 0 0 0 0 0 0 0 0 0 0 0 0 0 
0 0 0 0 0 0 0 0 0 0 0 0 0 0 0 0 0 0 0 0 0 0 0 0 0 0 0 0 0 0 0 0 0 0 0 0 0 0 0 
103 70 48 103 70 48 103 70 48 103 70 48 103 70 48 103 70 48 103 70 48 
92 62 43 0 0 0 0 0 0 0 0 0 0 0 0 0 0 0 0 0 0 0 0 0 0 0 0 0 0 0 0 0 0 0 0 0 
0 0 0 0 0 0 0 0 0 0 0 0 0 0 0 0 0 0 0 0 0 0 0 0 0 0 0 0 0 0 0 0 0 0 0 0 0 0 0 
0 0 0 0 0 0 0 0 0 0 0 0 0 0 0 0 0 0 0 0 0 0 0 0 0 0 0 0 0 0 0 0 0 0 0 0 0 0 0 
0 0 0 0 0 0 0 0 0 0 0 0 0 0 0 0 0 0 0 0 0 0 0 0 0 0 0 0 0 0 0 0 0 0 0 0 0 0 0 
0 0 0 0 0 0 0 0 0 0 0 0 0 0 0 103 70 48 103 70 48 103 70 48 103 70 48 
103 70 48 103 70 48 103 70 48 103 70 48 97 66 45 81 55 38 0 0 0 0 0 0 0 0 0 
0 0 0 0 0 0 0 0 0 0 0 0 0 0 0 0 0 0 0 0 0 0 0 0 0 0 0 0 0 0 0 0 0 0 0 0 0 0 0 
0 0 0 0 0 0 0 0 0 0 0 0 0 0 0 0 0 0 0 0 0 0 0 0 0 0 0 0 0 0 0 0 0 0 0 0 0 0 0 
0 0 0 0 0 0 0 0 0 0 0 0 0 0 0 0 0 0 0 0 0 0 0 0 0 0 0 0 0 0 0 0 0 0 0 0 0 0 0 
0 0 0 0 0 0 0 0 0 0 0 0 0 0 0 0 0 0 0 0 0 0 0 0 0 0 0 0 0 0 0 0 0 103 70 48 
103 70 48 82 55 38 103 70 48 103 70 48 103 70 48 103 70 48 103 70 48 103 70 48 
103 70 48 83 56 39 74 50 34 0 0 0 0 0 0 0 0 0 0 0 0 0 0 0 0 0 0 0 0 0 0 0 0 
0 0 0 0 0 0 0 0 0 0 0 0 0 0 0 0 0 0 0 0 0 0 0 0 0 0 0 0 0 0 0 0 0 0 0 0 0 0 0 
0 0 0 0 0 0 0 0 0 0 0 0 0 0 0 0 0 0 0 0 0 0 0 0 0 0 0 0 0 0 0 0 0 0 0 0 0 0 0 
0 0 0 0 0 0 0 0 0 0 0 0 0 0 0 0 0 0 0 0 0 0 0 0 0 0 0 0 0 0 0 0 0 0 0 0 0 0 0 
0 0 0 0 0 0 0 0 0 0 0 0 0 0 0 103 70 48 82 56 38 82 56 38 103 70 48 103 70 48 
103 70 48 103 70 48 103 70 48 103 70 48 103 70 48 103 70 48 81 55 38 52 36 24 
0 0 0 0 0 0 0 0 0 0 0 0 0 0 0 0 0 0 0 0 0 0 0 0 0 0 0 0 0 0 0 0 0 0 0 0 0 0 0 
0 0 0 0 0 0 0 0 0 0 0 0 0 0 0 0 0 0 0 0 0 0 0 0 0 0 0 0 0 0 0 0 0 0 0 0 0 0 0 
0 0 0 0 0 0 0 0 0 0 0 0 0 0 0 0 0 0 0 0 0 0 0 0 0 0 0 0 0 0 0 0 0 0 0 0 0 0 0 
0 0 0 0 0 0 0 0 0 0 0 0 0 0 0 0 0 0 0 0 0 0 0 0 0 0 0 0 0 0 0 0 0 0 0 0 103 70 48 
82 55 38 83 56 39 103 70 48 103 70 48 103 70 48 103 70 48 103 70 48 106 73 50 
142 108 80 114 81 57 82 56 38 80 54 37 0 0 0 0 0 0 0 0 0 0 0 0 0 0 0 0 0 0 
0 0 0 0 0 0 0 0 0 0 0 0 0 0 0 0 0 0 0 0 0 0 0 0 0 0 0 0 0 0 0 0 0 0 0 0 0 0 0 
0 0 0 0 0 0 0 0 0 0 0 0 0 0 0 0 0 0 0 0 0 0 0 0 0 0 0 0 0 0 0 0 0 0 0 0 0 0 0 
0 0 0 0 0 0 0 0 0 0 0 0 0 0 0 0 0 0 0 0 0 0 0 0 0 0 0 0 0 0 0 0 0 0 0 0 0 0 0 
0 0 0 0 0 0 0 0 0 0 0 0 0 0 0 0 0 0 115 82 58 82 55 38 97 68 48 188 156 108 
103 70 48 103 70 48 103 70 48 157 125 87 187 150 116 187 150 116 183 148 110 
88 60 41 82 55 38 0 0 0 0 0 0 0 0 0 0 0 0 0 0 0 0 0 0 0 0 0 0 0 0 0 0 0 0 0 0 
0 0 0 0 0 0 0 0 0 0 0 0 0 0 0 0 0 0 0 0 0 0 0 0 0 0 0 0 0 0 0 0 0 0 0 0 0 0 0 
0 0 0 0 0 0 0 0 0 0 0 0 0 0 0 0 0 0 0 0 0 0 0 0 0 0 0 0 0 0 0 0 0 0 0 0 0 0 0 
0 0 0 0 0 0 0 0 0 0 0 0 0 0 0 0 0 0 0 0 0 0 0 0 0 0 0 0 0 0 0 0 0 0 0 0 0 0 0 
0 0 0 0 0 0 103 70 48 85 58 40 122 92 68 187 150 116 181 155 93 165 131 95 
187 150 116 187 150 116 187 150 116 185 148 115 187 150 116 104 71 48 
103 70 48 0 0 0 0 0 0 0 0 0 0 0 0 0 0 0 0 0 0 0 0 0 0 0 0 0 0 0 0 0 0 0 0 0 
0 0 0 0 0 0 0 0 0 0 0 0 0 0 0 0 0 0 0 0 0 0 0 0 0 0 0 0 0 0 0 0 0 0 0 0 0 0 0 
0 0 0 0 0 0 0 0 0 0 0 0 0 0 0 0 0 0 0 0 0 0 0 0 0 0 0 0 0 0 0 0 0 0 0 0 0 0 0 
0 0 0 0 0 0 0 0 0 0 0 0 0 0 0 0 0 0 0 0 0 0 0 0 0 0 0 0 0 0 0 0 0 0 0 0 0 0 0 
0 0 0 103 70 48 95 65 44 157 123 93 108 89 64 92 81 47 189 159 105 187 150 116 
84 74 43 89 79 45 125 100 77 187 150 116 111 78 53 103 70 48 83 57 39 103 70 48 
0 0 0 0 0 0 0 0 0 0 0 0 0 0 0 0 0 0 0 0 0 0 0 0 0 0 0 0 0 0 0 0 0 0 0 0 0 0 0 
0 0 0 0 0 0 0 0 0 0 0 0 0 0 0 0 0 0 0 0 0 0 0 0 0 0 0 0 0 0 0 0 0 0 0 0 0 0 0 
0 0 0 0 0 0 0 0 0 0 0 0 0 0 0 0 0 0 0 0 0 0 0 0 0 0 0 0 0 0 0 0 0 0 0 0 0 0 0 
0 0 0 0 0 0 0 0 0 0 0 0 0 0 0 0 0 0 0 0 0 0 0 0 0 0 0 0 0 0 105 72 49 
109 76 53 186 150 113 104 90 55 21 18 11 23 20 12 17 15 9 11 9 5 48 41 24 
3 2 2 144 116 90 153 117 88 103 70 48 82 56 38 82 56 38 96 65 45 0 0 0 0 0 0 
0 0 0 0 0 0 0 0 0 0 0 0 0 0 0 0 0 0 0 0 0 0 0 0 0 0 0 0 0 0 0 0 0 0 0 0 0 0 0 
0 0 0 0 0 0 0 0 0 0 0 0 0 0 0 0 0 0 0 0 0 0 0 0 0 0 0 0 0 0 0 0 0 0 0 0 0 0 0 
0 0 0 0 0 0 0 0 0 0 0 0 0 0 0 0 0 0 0 0 0 0 0 0 0 0 0 0 0 0 0 0 0 0 0 0 0 0 0 
0 0 0 0 0 0 0 0 0 0 0 0 0 0 0 0 0 0 110 87 53 130 101 73 180 143 110 
176 143 100 110 97 55 32 28 16 49 43 25 80 71 40 67 58 34 61 53 31 0 0 0 187 150 116 
167 131 100 103 70 48 91 62 42 82 55 38 82 55 38 87 59 40 0 0 0 0 0 0 0 0 0 
0 0 0 0 0 0 0 0 0 0 0 0 0 0 0 0 0 0 0 0 0 0 0 0 0 0 0 0 0 0 0 0 0 0 0 0 0 0 0 
0 0 0 0 0 0 0 0 0 0 0 0 0 0 0 0 0 0 0 0 0 0 0 0 0 0 0 0 0 0 0 0 0 0 0 0 0 0 0 
0 0 0 0 0 0 0 0 0 0 0 0 0 0 0 0 0 0 0 0 0 0 0 0 0 0 0 0 0 0 0 0 0 0 0 0 0 0 0 
0 0 0 0 0 0 73 50 34 81 55 38 82 55 38 99 70 49 187 150 116 116 83 59 
150 132 76 108 95 54 35 30 18 87 76 44 99 87 50 113 99 57 17 15 9 122 100 74 
187 150 116 187 150 116 108 75 52 91 62 43 82 55 38 82 55 38 0 0 0 0 0 0 0 0 0 
0 0 0 0 0 0 0 0 0 0 0 0 0 0 0 0 0 0 0 0 0 0 0 0 0 0 0 0 0 0 0 0 0 0 0 0 0 0 0 
0 0 0 0 0 0 0 0 0 0 0 0 0 0 0 0 0 0 0 0 0 0 0 0 0 0 0 0 0 0 0 0 0 0 0 0 0 0 0 
0 0 0 0 0 0 0 0 0 0 0 0 0 0 0 0 0 0 0 0 0 0 0 0 0 0 0 0 0 0 0 0 0 0 0 0 103 70 48 
103 70 48 81 55 38 81 55 38 82 55 38 99 68 47 163 127 96 139 112 86 73 50 34 
69 61 35 190 167 96 169 149 86 138 122 70 188 165 95 133 117 67 128 112 65 
55 47 28 135 108 84 187 150 116 164 128 98 104 71 49 84 57 39 82 56 38 
0 0 0 0 0 0 0 0 0 0 0 0 0 0 0 0 0 0 0 0 0 0 0 0 0 0 0 0 0 0 0 0 0 0 0 0 0 0 0 
0 0 0 0 0 0 0 0 0 0 0 0 0 0 0 0 0 0 0 0 0 0 0 0 0 0 0 0 0 0 0 0 0 0 0 0 0 0 0 
0 0 0 0 0 0 0 0 0 0 0 0 0 0 0 0 0 0 0 0 0 0 0 0 0 0 0 0 0 0 0 0 0 0 0 0 0 0 0 
0 0 0 0 0 0 103 70 48 82 56 38 82 55 38 82 55 38 98 67 46 170 134 102 
187 150 116 94 76 57 49 33 23 6 4 3 54 47 27 189 166 96 190 167 96 187 164 94 
36 31 18 78 66 39 47 38 28 169 136 105 178 142 109 104 71 49 103 70 48 
87 59 41 86 58 40 0 0 0 0 0 0 0 0 0 0 0 0 0 0 0 0 0 0 0 0 0 0 0 0 0 0 0 0 0 0 
0 0 0 0 0 0 0 0 0 0 0 0 0 0 0 0 0 0 0 0 0 0 0 0 0 0 0 0 0 0 0 0 0 0 0 0 0 0 0 
0 0 0 0 0 0 0 0 0 0 0 0 0 0 0 0 0 0 0 0 0 0 0 0 0 0 0 0 0 0 0 0 0 0 0 0 0 0 0 
0 0 0 0 0 0 0 0 0 0 0 0 0 0 0 103 70 48 82 56 38 88 60 41 103 70 48 96 65 45 
167 133 104 187 150 116 97 78 59 50 34 23 52 35 24 30 21 14 116 102 59 
188 165 95 54 47 27 46 31 21 19 14 11 81 65 50 187 150 116 128 93 68 87 59 41 
103 70 48 98 67 46 97 66 45 0 0 0 0 0 0 0 0 0 0 0 0 0 0 0 0 0 0 0 0 0 0 0 0 
0 0 0 0 0 0 0 0 0 0 0 0 0 0 0 0 0 0 0 0 0 0 0 0 0 0 0 0 0 0 0 0 0 0 0 0 0 0 0 
0 0 0 0 0 0 0 0 0 0 0 0 0 0 0 0 0 0 0 0 0 0 0 0 0 0 0 0 0 0 0 0 0 0 0 0 0 0 0 
0 0 0 0 0 0 0 0 0 0 0 0 0 0 0 0 0 0 0 0 0 82 56 38 75 51 35 95 65 44 103 70 48 
92 62 43 144 114 88 187 150 116 121 97 75 82 68 41 51 35 24 53 36 25 53 36 25 
53 36 25 53 36 25 42 28 20 52 41 32 176 141 109 187 151 115 104 71 49 
82 56 38 103 70 48 103 70 48 103 70 48 0 0 0 0 0 0 0 0 0 0 0 0 0 0 0 0 0 0 
0 0 0 0 0 0 0 0 0 0 0 0 0 0 0 0 0 0 0 0 0 0 0 0 0 0 0 0 0 0 0 0 0 0 0 0 0 0 0 
0 0 0 0 0 0 0 0 0 0 0 0 0 0 0 0 0 0 0 0 0 0 0 0 0 0 0 0 0 0 0 0 0 0 0 0 0 0 0 
0 0 0 0 0 0 0 0 0 0 0 0 0 0 0 0 0 0 0 0 0 0 0 0 0 0 0 45 31 21 65 44 30 
103 70 48 103 70 48 103 70 48 111 83 61 170 136 105 187 150 116 96 79 55 
63 43 29 86 58 40 53 36 25 55 37 25 90 61 42 45 35 26 130 104 80 187 150 116 
131 100 66 79 53 36 83 56 38 103 70 48 103 70 48 103 70 48 103 70 48 0 0 0 
0 0 0 0 0 0 0 0 0 0 0 0 0 0 0 0 0 0 0 0 0 0 0 0 0 0 0 0 0 0 0 0 0 0 0 0 0 0 0 
0 0 0 0 0 0 0 0 0 0 0 0 0 0 0 0 0 0 0 0 0 0 0 0 0 0 0 0 0 0 0 0 0 0 0 0 0 0 0 
0 0 0 0 0 0 0 0 0 0 0 0 0 0 0 0 0 0 0 0 0 0 0 0 0 0 0 0 0 0 0 0 0 0 0 0 0 0 0 
0 0 0 65 44 30 103 70 48 103 70 48 95 64 44 87 58 40 168 134 103 187 150 116 
187 150 116 88 69 50 76 51 35 103 70 48 103 70 48 78 55 38 57 46 35 187 150 116 
184 148 113 83 57 39 61 42 28 84 57 39 103 70 48 103 70 48 103 70 48 103 70 48 
0 0 0 0 0 0 0 0 0 0 0 0 0 0 0 0 0 0 0 0 0 0 0 0 0 0 0 0 0 0 0 0 0 0 0 0 0 0 0 
0 0 0 0 0 0 0 0 0 0 0 0 0 0 0 0 0 0 0 0 0 0 0 0 0 0 0 0 0 0 0 0 0 0 0 0 0 0 0 
0 0 0 0 0 0 0 0 0 0 0 0 0 0 0 0 0 0 0 0 0 0 0 0 0 0 0 0 0 0 0 0 0 0 0 0 0 0 0 
0 0 0 60 41 28 65 44 30 103 70 48 103 70 48 86 58 40 88 60 41 106 77 57 
166 133 103 187 150 116 187 150 116 169 138 92 103 70 48 103 70 48 49 38 29 
42 34 26 187 150 116 107 75 52 66 45 31 61 42 28 85 58 40 103 70 48 103 70 48 
103 70 48 103 70 48 0 0 0 0 0 0 0 0 0 0 0 0 0 0 0 0 0 0 0 0 0 0 0 0 0 0 0 
0 0 0 0 0 0 0 0 0 0 0 0 0 0 0 0 0 0 0 0 0 0 0 0 0 0 0 0 0 0 0 0 0 0 0 0 0 0 0 
0 0 0 0 0 0 0 0 0 0 0 0 0 0 0 0 0 0 0 0 0 0 0 0 0 0 0 0 0 0 0 0 0 0 0 0 0 0 0 
0 0 0 0 0 0 0 0 0 0 0 0 103 70 48 70 48 33 69 46 32 103 70 48 103 70 48 
86 58 40 71 48 33 72 49 32 126 99 76 174 139 108 187 150 116 187 150 116 
129 95 69 108 74 52 91 73 57 169 135 105 187 151 115 83 56 39 62 42 29 
72 49 34 88 60 41 103 70 48 103 70 48 103 70 48 103 70 48 0 0 0 0 0 0 0 0 0 
0 0 0 0 0 0 0 0 0 0 0 0 0 0 0 0 0 0 0 0 0 0 0 0 0 0 0 0 0 0 0 0 0 0 0 0 0 0 0 
0 0 0 0 0 0 0 0 0 0 0 0 0 0 0 0 0 0 0 0 0 0 0 0 0 0 0 0 0 0 0 0 0 0 0 0 0 0 0 
0 0 0 0 0 0 0 0 0 0 0 0 0 0 0 0 0 0 0 0 0 0 0 0 0 0 0 0 0 0 103 70 48 
82 56 38 82 55 38 103 70 48 103 70 48 99 67 46 65 45 30 60 41 29 72 50 35 
135 108 84 187 150 116 187 150 116 151 120 93 77 58 43 101 81 63 187 150 116 
188 154 111 86 58 40 83 56 39 76 51 36 92 63 43 103 70 48 103 70 48 103 70 48 
103 70 48 0 0 0 0 0 0 0 0 0 0 0 0 0 0 0 0 0 0 0 0 0 0 0 0 0 0 0 0 0 0 0 0 0 
0 0 0 0 0 0 0 0 0 0 0 0 0 0 0 0 0 0 0 0 0 0 0 0 0 0 0 0 0 0 0 0 0 0 0 0 0 0 0 
0 0 0 0 0 0 0 0 0 0 0 0 0 0 0 0 0 0 0 0 0 0 0 0 0 0 0 0 0 0 0 0 0 0 0 0 0 0 0 
0 0 0 0 0 0 103 70 48 82 56 38 82 55 38 103 70 48 103 70 48 103 70 48 
68 46 32 64 44 29 62 42 28 122 96 74 176 141 109 187 150 115 187 150 116 
50 40 30 132 106 81 187 150 116 185 155 103 91 62 43 83 56 39 82 56 38 
102 69 48 103 70 48 103 70 48 103 70 48 103 70 48 0 0 0 0 0 0 0 0 0 0 0 0 
0 0 0 0 0 0 0 0 0 0 0 0 0 0 0 0 0 0 0 0 0 0 0 0 0 0 0 0 0 0 0 0 0 0 0 0 0 0 0 
0 0 0 0 0 0 0 0 0 0 0 0 0 0 0 0 0 0 0 0 0 0 0 0 0 0 0 0 0 0 0 0 0 0 0 0 0 0 0 
0 0 0 0 0 0 0 0 0 0 0 0 0 0 0 0 0 0 0 0 0 0 0 0 0 0 0 103 70 48 82 55 38 
84 57 39 103 70 48 103 70 48 103 70 48 103 70 48 83 56 39 73 49 34 110 85 65 
152 122 94 187 150 116 187 150 116 77 62 47 126 101 78 187 150 116 136 105 69 
95 65 44 85 58 39 87 59 41 103 70 48 103 70 48 103 70 48 94 64 44 95 65 44 
0 0 0 0 0 0 0 0 0 0 0 0 0 0 0 0 0 0 0 0 0 0 0 0 0 0 0 0 0 0 0 0 0 0 0 0 0 0 0 
0 0 0 0 0 0 0 0 0 0 0 0 0 0 0 0 0 0 0 0 0 0 0 0 0 0 0 0 0 0 0 0 0 0 0 0 0 0 0 
0 0 0 0 0 0 0 0 0 0 0 0 0 0 0 0 0 0 0 0 0 0 0 0 0 0 0 0 0 0 0 0 0 0 0 0 0 0 0 
83 56 39 82 55 38 103 70 48 103 70 48 103 70 48 103 70 48 103 70 48 103 70 48 
98 66 46 97 68 48 146 116 89 187 150 116 187 150 116 107 87 66 131 105 80 
187 150 116 114 82 55 103 70 48 103 70 48 103 70 48 103 70 48 103 70 48 
103 70 48 85 58 40 87 59 40 0 0 0 0 0 0 0 0 0 0 0 0 0 0 0 0 0 0 0 0 0 0 0 0 
0 0 0 0 0 0 0 0 0 0 0 0 0 0 0 0 0 0 0 0 0 0 0 0 0 0 0 0 0 0 0 0 0 0 0 0 0 0 0 
0 0 0 0 0 0 0 0 0 0 0 0 0 0 0 0 0 0 0 0 0 0 0 0 0 0 0 0 0 0 0 0 0 0 0 0 0 0 0 
0 0 0 0 0 0 0 0 0 0 0 0 0 0 0 81 55 38 82 56 38 103 70 48 103 70 48 103 70 48 
103 70 48 103 70 48 103 70 48 103 70 48 103 70 48 132 97 71 187 150 116 
187 150 116 108 87 67 129 104 79 187 150 116 107 74 51 103 70 48 103 70 48 
103 70 48 103 70 48 103 70 48 103 70 48 85 58 40 87 59 41 0 0 0 0 0 0 0 0 0 
0 0 0 0 0 0 0 0 0 0 0 0 0 0 0 0 0 0 0 0 0 0 0 0 0 0 0 0 0 0 0 0 0 0 0 0 0 0 0 
0 0 0 0 0 0 0 0 0 0 0 0 0 0 0 0 0 0 0 0 0 0 0 0 0 0 0 0 0 0 0 0 0 0 0 0 0 0 0 
0 0 0 0 0 0 0 0 0 0 0 0 0 0 0 0 0 0 0 0 0 0 0 0 0 0 0 0 0 0 82 55 38 88 60 41 
103 70 48 103 70 48 103 70 48 103 70 48 103 70 48 103 70 48 103 70 48 
103 70 48 143 108 80 187 150 116 187 150 116 108 87 67 129 104 80 187 150 116 
103 70 48 103 70 48 103 70 48 103 70 48 103 70 48 103 70 48 103 70 48 
84 57 39 86 58 40 0 0 0 0 0 0 0 0 0 0 0 0 0 0 0 0 0 0 0 0 0 0 0 0 0 0 0 0 0 0 
0 0 0 0 0 0 0 0 0 0 0 0 0 0 0 0 0 0 0 0 0 0 0 0 0 0 0 0 0 0 0 0 0 0 0 0 0 0 0 
0 0 0 0 0 0 0 0 0 0 0 0 0 0 0 0 0 0 0 0 0 0 0 0 0 0 0 0 0 0 0 0 0 0 0 0 0 0 0 
0 0 0 0 0 0 0 0 0 82 55 38 92 63 43 103 70 48 103 70 48 103 70 48 103 70 48 
103 70 48 103 70 48 103 70 48 103 70 48 168 133 101 187 150 116 187 150 116 
103 82 64 140 112 87 187 151 115 103 70 48 103 70 48 103 70 48 103 70 48 
103 70 48 103 70 48 98 66 45 82 55 38 77 52 36 103 70 48 0 0 0 0 0 0 0 0 0 
0 0 0 0 0 0 0 0 0 0 0 0 0 0 0 0 0 0 0 0 0 0 0 0 0 0 0 0 0 0 0 0 0 0 0 0 0 0 0 
0 0 0 0 0 0 0 0 0 0 0 0 0 0 0 0 0 0 0 0 0 0 0 0 0 0 0 0 0 0 0 0 0 0 0 0 0 0 0 
0 0 0 0 0 0 0 0 0 0 0 0 0 0 0 0 0 0 0 0 0 0 0 0 83 56 39 74 50 34 97 66 45 
103 70 48 103 70 48 103 70 48 103 70 48 103 70 48 103 70 48 103 70 48 
104 71 49 184 147 114 187 150 116 187 150 116 98 79 61 176 141 109 183 149 108 
103 70 48 103 70 48 103 70 48 103 70 48 103 70 48 103 70 48 84 57 39 82 55 38 
68 46 31 103 70 48 0 0 0 0 0 0 0 0 0 0 0 0 0 0 0 0 0 0 0 0 0 0 0 0 0 0 0 0 0 0 
0 0 0 0 0 0 0 0 0 0 0 0 0 0 0 0 0 0 0 0 0 0 0 0 0 0 0 0 0 0 0 0 0 0 0 0 0 0 0 
0 0 0 0 0 0 0 0 0 0 0 0 0 0 0 0 0 0 0 0 0 0 0 0 0 0 0 0 0 0 0 0 0 0 0 0 0 0 0 
103 70 48 82 56 38 76 52 35 103 70 48 103 70 48 103 70 48 103 70 48 103 70 48 
103 70 48 103 70 48 103 70 48 133 99 73 187 150 116 187 150 116 187 150 116 
97 77 60 187 150 116 159 127 88 103 70 48 103 70 48 103 70 48 103 70 48 
103 70 48 98 66 46 82 56 38 82 55 38 69 47 32 103 70 48 0 0 0 0 0 0 0 0 0 
0 0 0 0 0 0 0 0 0 0 0 0 0 0 0 0 0 0 0 0 0 0 0 0 0 0 0 0 0 0 0 0 0 0 0 0 0 0 0 
0 0 0 0 0 0 0 0 0 0 0 0 0 0 0 0 0 0 0 0 0 0 0 0 0 0 0 0 0 0 0 0 0 0 0 0 0 0 0 
0 0 0 0 0 0 0 0 0 0 0 0 0 0 0 0 0 0 0 0 0 103 70 48 71 48 33 66 44 31 103 70 48 
103 70 48 103 70 48 103 70 48 103 70 48 103 70 48 103 70 48 108 74 52 
187 150 116 187 150 116 187 151 115 140 113 87 81 65 50 187 150 116 
139 108 73 103 70 48 103 70 48 103 70 48 103 70 48 103 70 48 82 56 38 82 55 38 
82 55 38 68 46 32 103 70 48 0 0 0 0 0 0 0 0 0 0 0 0 0 0 0 0 0 0 0 0 0 0 0 0 
0 0 0 0 0 0 0 0 0 0 0 0 0 0 0 0 0 0 0 0 0 0 0 0 0 0 0 0 0 0 0 0 0 0 0 0 0 0 0 
0 0 0 0 0 0 0 0 0 0 0 0 0 0 0 0 0 0 0 0 0 0 0 0 0 0 0 0 0 0 0 0 0 0 0 0 0 0 0 
0 0 0 103 70 48 71 48 33 65 44 30 79 54 36 103 70 48 103 70 48 103 70 48 
103 70 48 103 70 48 103 70 48 103 70 48 184 147 114 187 150 116 187 150 116 
187 153 113 123 98 76 101 81 62 187 150 116 136 105 68 103 70 48 103 70 48 
103 70 48 103 70 48 103 70 48 82 55 38 82 55 38 71 49 33 65 45 30 103 70 48 
0 0 0 0 0 0 0 0 0 0 0 0 0 0 0 0 0 0 0 0 0 0 0 0 0 0 0 0 0 0 0 0 0 0 0 0 0 0 0 
0 0 0 0 0 0 0 0 0 0 0 0 0 0 0 0 0 0 0 0 0 0 0 0 0 0 0 0 0 0 0 0 0 0 0 0 0 0 0 
0 0 0 0 0 0 0 0 0 0 0 0 0 0 0 0 0 0 0 0 0 0 0 0 0 0 0 92 63 43 68 47 32 
68 46 32 86 59 40 82 56 38 103 70 48 103 70 48 103 70 48 103 70 48 103 70 48 
136 101 74 187 150 116 187 150 116 187 150 116 161 129 100 53 42 33 145 116 89 
187 150 116 136 106 68 103 70 48 103 70 48 103 70 48 103 70 48 103 70 48 
82 55 38 73 49 34 65 44 30 67 45 31 103 70 48 103 70 48 0 0 0 0 0 0 0 0 0 
0 0 0 0 0 0 0 0 0 0 0 0 0 0 0 0 0 0 0 0 0 0 0 0 0 0 0 0 0 0 0 0 0 0 0 0 0 0 0 
0 0 0 0 0 0 0 0 0 0 0 0 0 0 0 0 0 0 0 0 0 0 0 0 0 0 0 0 0 0 0 0 0 0 0 0 0 0 0 
0 0 0 0 0 0 0 0 0 0 0 0 103 70 48 78 53 36 65 44 30 81 56 38 82 55 38 82 56 38 
103 70 48 103 70 48 103 70 48 103 70 48 107 74 51 187 150 116 187 150 116 
187 150 116 188 156 109 81 65 50 48 37 28 184 147 113 187 150 116 150 122 76 
103 70 48 103 70 48 103 70 48 103 70 48 96 65 45 76 51 35 65 44 30 68 47 32 
82 56 38 103 70 48 103 70 48 0 0 0 0 0 0 0 0 0 0 0 0 0 0 0 0 0 0 0 0 0 0 0 0 
0 0 0 0 0 0 0 0 0 0 0 0 0 0 0 0 0 0 0 0 0 0 0 0 0 0 0 0 0 0 0 0 0 0 0 0 0 0 0 
0 0 0 0 0 0 0 0 0 0 0 0 0 0 0 0 0 0 0 0 0 0 0 0 0 0 0 0 0 0 0 0 0 0 0 0 82 56 38 
65 44 30 65 44 30 82 55 38 82 55 38 82 56 38 100 68 47 103 70 48 103 70 48 
103 70 48 173 137 105 187 150 116 187 150 116 187 150 115 189 162 132 
159 153 149 30 24 19 185 148 114 187 150 116 174 146 94 103 70 48 103 70 48 
103 70 48 103 70 48 86 59 41 65 44 30 75 51 35 82 55 38 82 56 38 83 56 38 
103 70 48 0 0 0 0 0 0 0 0 0 0 0 0 0 0 0 0 0 0 0 0 0 0 0 0 0 0 0 0 0 0 0 0 0 
0 0 0 0 0 0 0 0 0 0 0 0 0 0 0 0 0 0 0 0 0 0 0 0 0 0 0 0 0 0 0 0 0 0 0 0 0 0 0 
0 0 0 0 0 0 0 0 0 0 0 0 0 0 0 0 0 0 0 0 0 0 0 0 103 70 48 79 54 37 69 47 32 
72 48 33 82 55 38 82 55 38 82 56 38 82 56 38 84 57 39 96 66 45 103 70 48 
183 146 113 187 150 116 187 150 116 163 134 96 149 140 133 193 188 185 
180 175 172 184 148 115 187 150 116 177 145 99 103 70 48 103 70 48 103 70 48 
98 67 46 82 56 38 82 55 38 81 55 38 82 56 38 82 55 38 71 49 33 90 61 42 
103 70 48 0 0 0 0 0 0 0 0 0 0 0 0 0 0 0 0 0 0 0 0 0 0 0 0 0 0 0 0 0 0 0 0 0 
0 0 0 0 0 0 0 0 0 0 0 0 0 0 0 0 0 0 0 0 0 0 0 0 0 0 0 0 0 0 0 0 0 0 0 0 0 0 0 
0 0 0 0 0 0 0 0 0 0 0 0 0 0 0 0 0 0 103 70 48 91 62 42 65 45 30 58 40 27 
82 56 38 77 52 36 72 49 33 82 55 38 82 55 38 82 56 38 98 67 46 103 70 48 
185 148 115 187 150 116 187 150 115 111 93 64 114 110 107 153 149 147 
193 188 185 190 172 156 187 150 116 181 148 106 103 70 48 103 70 48 103 70 48 
90 61 42 82 56 38 82 55 38 81 55 38 79 53 37 66 45 31 74 50 34 88 59 41 
103 70 48 0 0 0 0 0 0 0 0 0 0 0 0 0 0 0 0 0 0 0 0 0 0 0 0 0 0 0 0 0 0 0 0 0 
0 0 0 0 0 0 0 0 0 0 0 0 0 0 0 0 0 0 0 0 0 0 0 0 0 0 0 0 0 0 0 0 0 0 0 0 0 0 0 
0 0 0 0 0 0 0 0 0 0 0 0 0 0 0 0 0 0 103 70 48 66 45 30 67 45 31 71 48 33 
59 40 27 62 42 29 62 42 29 71 48 33 94 64 44 103 70 48 103 70 48 103 70 48 
186 149 115 187 151 115 179 153 93 74 59 45 44 35 27 111 107 105 138 135 132 
186 181 179 189 164 142 186 149 113 119 86 61 103 70 48 103 70 48 103 70 48 
86 59 40 87 59 40 97 66 45 79 53 37 82 56 38 87 59 41 90 61 42 88 60 41 
103 70 48 0 0 0 0 0 0 0 0 0 0 0 0 0 0 0 0 0 0 0 0 0 0 0 0 0 0 0 0 0 0 0 0 0 
0 0 0 0 0 0 0 0 0 0 0 0 0 0 0 0 0 0 0 0 0 0 0 0 0 0 0 0 0 0 0 0 0 0 0 0 0 0 0 
0 0 0 0 0 0 0 0 0 187 150 116 182 145 112 78 54 38 52 35 24 64 43 30 74 50 34 
89 61 41 95 64 44 102 69 47 103 70 48 103 70 48 103 70 48 103 70 48 113 79 56 
187 150 116 188 155 111 182 150 104 51 41 32 35 28 22 87 73 59 92 86 81 
130 127 125 160 155 150 189 164 142 141 106 78 109 75 53 103 70 48 103 70 48 
103 70 48 103 70 48 103 70 48 95 64 44 92 62 43 102 69 48 103 70 48 87 59 41 
96 65 45 0 0 0 0 0 0 0 0 0 0 0 0 0 0 0 0 0 0 0 0 0 0 0 0 0 0 0 0 0 0 0 0 0 
0 0 0 0 0 0 0 0 0 0 0 0 0 0 0 0 0 0 0 0 0 0 0 0 0 0 0 0 0 0 0 0 0 0 0 0 0 0 0 
0 0 0 0 0 0 187 150 116 187 150 116 108 76 54 63 42 29 64 43 30 88 60 41 
103 70 48 103 70 48 103 70 48 103 70 48 103 70 48 103 70 48 103 70 48 
103 70 48 135 101 75 187 150 116 189 161 103 167 135 102 53 42 33 77 64 52 
133 112 91 71 59 48 72 60 49 131 126 121 156 147 141 157 129 105 103 70 48 
103 70 48 103 70 48 103 70 48 103 70 48 103 70 48 103 70 48 103 70 48 
103 70 48 103 70 48 103 70 48 103 70 48 103 70 48 0 0 0 0 0 0 0 0 0 0 0 0 
0 0 0 0 0 0 0 0 0 0 0 0 0 0 0 0 0 0 0 0 0 0 0 0 0 0 0 0 0 0 0 0 0 0 0 0 0 0 0 
0 0 0 0 0 0 0 0 0 0 0 0 0 0 0 0 0 0 187 150 116 187 150 116 187 150 116 
138 104 77 65 45 30 65 44 30 89 60 41 103 70 48 103 70 48 103 70 48 103 70 48 
103 70 48 103 70 48 103 70 48 103 70 48 103 70 48 128 95 69 187 150 116 
189 160 104 123 99 76 51 41 31 90 75 61 133 112 91 98 83 67 69 58 47 166 134 103 
177 142 110 174 137 105 103 70 48 103 70 48 103 70 48 103 70 48 103 70 48 
103 70 48 103 70 48 103 70 48 103 70 48 103 70 48 103 70 48 103 70 48 
103 70 48 103 70 48 103 70 48 0 0 0 0 0 0 0 0 0 0 0 0 0 0 0 0 0 0 0 0 0 0 0 0 
0 0 0 0 0 0 0 0 0 0 0 0 0 0 0 0 0 0 0 0 0 0 0 0 0 0 0 0 0 0 0 0 0 0 0 0 0 0 0 
187 150 116 187 150 116 167 134 104 65 44 30 65 44 30 88 60 41 103 70 48 
103 70 48 103 70 48 103 70 48 103 70 48 103 70 48 103 70 48 103 70 48 
103 70 48 103 70 48 118 84 60 187 150 116 188 155 110 117 94 73 84 70 48 
105 89 72 129 109 88 133 112 91 69 58 47 88 70 51 187 150 116 186 150 115 
103 70 48 103 70 48 103 70 48 103 70 48 103 70 48 103 70 48 103 70 48 
103 70 48 103 70 48 103 70 48 103 70 48 103 70 48 103 70 48 103 70 48 
103 70 48 103 70 48 0 0 0 0 0 0 0 0 0 0 0 0 0 0 0 0 0 0 0 0 0 0 0 0 0 0 0 
0 0 0 0 0 0 0 0 0 0 0 0 0 0 0 0 0 0 0 0 0 0 0 0 0 0 0 0 0 0 187 150 116 
187 150 116 187 150 116 110 80 55 69 46 32 91 62 43 103 70 48 103 70 48 
103 70 48 103 70 48 103 70 48 103 70 48 103 70 48 103 70 48 103 70 48 
103 70 48 103 70 48 106 73 50 187 150 116 187 151 115 117 94 73 70 59 45 
105 89 72 106 89 72 133 112 91 68 56 46 52 41 31 173 139 108 187 150 116 
110 77 54 103 70 48 103 70 48 103 70 48 103 70 48 103 70 48 103 70 48 
103 70 48 103 70 48 103 70 48 103 70 48 103 70 48 103 70 48 103 70 48 
103 70 48 103 70 48 103 70 48 103 70 48 0 0 0 0 0 0 0 0 0 0 0 0 0 0 0 0 0 0 
0 0 0 0 0 0 0 0 0 0 0 0 0 0 0 0 0 0 0 0 0 0 0 0 0 0 0 0 0 0 187 150 116 
187 150 116 187 150 116 149 114 85 103 70 48 103 70 48 103 70 48 103 70 48 
103 70 48 103 70 48 103 70 48 103 70 48 103 70 48 103 70 48 103 70 48 
103 70 48 103 70 48 103 70 48 103 70 48 173 136 104 187 150 116 123 100 74 
72 61 45 105 89 72 105 89 72 105 89 72 105 89 72 55 46 36 127 102 78 
187 150 116 153 118 87 103 70 48 103 70 48 103 70 48 103 70 48 103 70 48 
103 70 48 103 70 48 103 70 48 103 70 48 103 70 48 103 70 48 103 70 48 
103 70 48 103 70 48 103 70 48 103 70 48 181 145 111 183 146 113 0 0 0 0 0 0 
0 0 0 0 0 0 85 53 22 85 53 22 85 53 22 0 0 0 0 0 0 0 0 0 0 0 0 0 0 0 0 0 0 
0 0 0 0 0 0 187 150 116 187 150 116 187 150 116 106 73 50 103 70 48 103 70 48 
103 70 48 103 70 48 103 70 48 103 70 48 103 70 48 103 70 48 103 70 48 
103 70 48 103 70 48 103 70 48 103 70 48 103 70 48 103 70 48 137 102 75 
187 150 116 178 147 100 61 46 25 67 42 18 68 43 19 71 47 22 40 26 13 32 24 15 
105 87 60 187 150 116 180 144 110 103 70 48 103 70 48 103 70 48 103 70 48 
103 70 48 103 70 48 103 70 48 103 70 48 103 70 48 103 70 48 103 70 48 
103 70 48 103 70 48 103 70 48 103 70 48 129 95 69 187 150 116 187 150 116 
163 136 81 0 0 0 0 0 0 0 0 0 85 53 22 85 53 22 85 53 22 0 0 0 0 0 0 0 0 0 
0 0 0 0 0 0 0 0 0 0 0 0 0 0 0 187 150 116 187 150 116 187 150 116 114 82 55 
103 70 48 103 70 48 103 70 48 103 70 48 103 70 48 103 70 48 103 70 48 
103 70 48 103 70 48 103 70 48 103 70 48 103 70 48 103 70 48 103 70 48 
103 70 48 106 72 50 186 149 115 187 150 116 92 74 51 53 33 14 67 42 17 
71 44 18 42 26 10 18 11 4 93 73 45 187 150 116 187 150 116 103 70 48 103 70 48 
103 70 48 103 70 48 103 70 48 103 70 48 103 70 48 103 70 48 103 70 48 
103 70 48 103 70 48 103 70 48 103 70 48 103 70 48 103 70 48 124 90 65 
187 150 116 187 150 116 187 151 115 104 71 49 0 0 0 0 0 0 85 53 22 85 53 22 
85 53 22 0 0 0 0 0 0 0 0 0 0 0 0 0 0 0 0 0 0 0 0 0 0 0 0 187 150 116 
187 150 116 187 150 116 116 83 57 103 70 48 103 70 48 103 70 48 103 70 48 
103 70 48 103 70 48 103 70 48 103 70 48 103 70 48 103 70 48 103 70 48 
103 70 48 103 70 48 103 70 48 103 70 48 103 70 48 129 94 68 186 150 115 
139 111 86 84 65 48 72 45 19 84 52 22 44 27 11 0 0 0 19 12 6 187 150 116 
187 150 116 150 115 86 103 70 48 103 70 48 103 70 48 103 70 48 103 70 48 
103 70 48 103 70 48 103 70 48 103 70 48 103 70 48 103 70 48 103 70 48 
103 70 48 103 70 48 103 70 48 126 92 67 187 150 116 187 150 116 157 127 94 
0 0 0 0 0 0 85 53 22 85 53 22 85 53 22 0 0 0 0 0 0 0 0 0 0 0 0 0 0 0 0 0 0 
0 0 0 0 0 0 143 114 88 151 121 94 187 150 116 126 93 64 103 70 48 103 70 48 
103 70 48 103 70 48 103 70 48 103 70 48 103 70 48 103 70 48 103 70 48 
103 70 48 103 70 48 103 70 48 103 70 48 103 70 48 103 70 48 103 70 48 
103 70 48 167 140 86 186 150 115 105 84 65 67 44 23 85 53 22 44 27 11 0 0 0 
0 0 0 128 104 79 187 150 116 185 149 114 104 71 49 103 70 48 103 70 48 
103 70 48 103 70 48 103 70 48 103 70 48 103 70 48 103 70 48 103 70 48 
103 70 48 103 70 48 103 70 48 103 70 48 103 70 48 103 70 48 184 148 114 
187 150 116 152 122 94 103 76 55 0 0 0 85 53 22 85 53 22 85 53 22 0 0 0 0 0 0 
0 0 0 0 0 0 0 0 0 0 0 0 0 0 0 0 0 0 135 108 84 148 119 92 187 150 116 
151 117 84 103 70 48 103 70 48 103 70 48 103 70 48 103 70 48 103 70 48 
103 70 48 103 70 48 103 70 48 103 70 48 103 70 48 103 70 48 103 70 48 
103 70 48 103 70 48 103 70 48 103 70 48 105 73 49 183 153 102 173 139 107 
90 71 53 58 36 15 44 27 11 4 3 1 0 0 0 21 17 12 187 150 116 187 150 116 
146 111 83 103 70 48 103 70 48 103 70 48 103 70 48 103 70 48 103 70 48 
103 70 48 103 70 48 103 70 48 103 70 48 103 70 48 103 70 48 103 70 48 
103 70 48 103 70 48 160 125 94 187 150 116 171 138 106 144 116 88 61 42 29 
0 0 0 85 53 22 85 53 22 0 0 0 0 0 0 0 0 0 0 0 0 0 0 0 0 0 0 0 0 0 0 0 0 174 140 108 
148 119 92 151 121 93 175 139 107 103 70 48 103 70 48 103 70 48 103 70 48 
103 70 48 103 70 48 103 70 48 103 70 48 103 70 48 103 70 48 103 70 48 
103 70 48 103 70 48 103 70 48 103 70 48 103 70 48 103 70 48 103 70 48 
151 123 75 186 149 114 174 139 108 45 29 13 41 25 10 18 11 5 0 0 0 4 3 2 187 150 116 
187 150 116 186 149 115 114 81 57 103 70 48 103 70 48 103 70 48 103 70 48 
103 70 48 103 70 48 103 70 48 103 70 48 103 70 48 103 70 48 103 70 48 
103 70 48 103 70 48 103 70 48 163 128 97 187 150 116 187 150 116 148 119 91 
71 48 33 0 0 0 85 53 22 85 53 22 0 0 0 0 0 0 0 0 0 0 0 0 0 0 0 0 0 0 0 0 0 
0 0 0 0 0 0 148 119 92 148 119 92 187 150 116 104 71 48 103 70 48 103 70 48 
103 70 48 103 70 48 103 70 48 103 70 48 103 70 48 103 70 48 103 70 48 
103 70 48 103 70 48 103 70 48 103 70 48 103 70 48 103 70 48 103 70 48 
103 70 48 105 72 49 183 150 107 187 150 116 102 78 56 26 16 7 44 27 11 
1 1 0 0 0 0 88 71 55 187 150 116 187 150 116 168 132 101 103 70 48 103 70 48 
103 70 48 103 70 48 103 70 48 103 70 48 103 70 48 103 70 48 103 70 48 
103 70 48 103 70 48 103 70 48 103 70 48 103 70 48 182 145 112 187 150 116 
187 150 116 148 120 91 76 51 35 0 0 0 0 0 0 0 0 0 0 0 0 0 0 0 0 0 0 0 0 0 
47 28 19 0 0 0 0 0 0 0 0 0 0 0 0 178 147 104 148 119 92 158 127 98 135 101 74 
103 70 48 103 70 48 103 70 48 103 70 48 103 70 48 103 70 48 103 70 48 
103 70 48 103 70 48 103 70 48 103 70 48 103 70 48 103 70 48 103 70 48 
103 70 48 103 70 48 103 70 48 103 70 48 119 88 58 187 150 115 186 149 115 
64 43 23 27 17 7 3 2 1 0 0 0 0 0 0 100 80 62 187 150 116 187 150 116 
127 93 67 103 70 48 103 70 48 103 70 48 103 70 48 103 70 48 103 70 48 
103 70 48 103 70 48 103 70 48 103 70 48 103 70 48 103 70 48 103 70 48 
186 150 115 187 150 115 187 150 116 148 120 91 78 53 36 0 0 0 0 0 0 0 0 0 
0 0 0 0 0 0 0 0 0 0 0 0 34 23 18 0 0 0 0 0 0 0 0 0 0 0 0 0 0 0 150 123 89 
148 119 92 170 136 105 127 94 66 103 70 48 103 70 48 103 70 48 103 70 48 
103 70 48 103 70 48 103 70 48 103 70 48 103 70 48 103 70 48 103 70 48 
103 70 48 103 70 48 103 70 48 103 70 48 103 70 48 103 70 48 103 70 48 
166 134 91 187 150 116 179 143 107 38 24 10 6 4 2 0 0 0 0 0 0 3 2 2 187 150 116 
187 150 116 185 148 114 107 74 51 103 70 48 103 70 48 103 70 48 103 70 48 
103 70 48 103 70 48 103 70 48 103 70 48 103 70 48 103 70 48 103 70 48 
122 89 63 187 150 116 187 150 116 175 140 109 145 119 85 86 58 40 0 0 0 0 0 0 
0 0 0 0 0 0 0 0 0 0 0 0 0 0 0 34 23 18 0 0 0 0 0 0 0 0 0 0 0 0 0 0 0 146 119 87 
148 119 92 150 121 93 187 150 116 114 81 54 103 70 48 103 70 48 103 70 48 
103 70 48 103 70 48 103 70 48 103 70 48 103 70 48 103 70 48 103 70 48 
103 70 48 103 70 48 103 70 48 103 70 48 103 70 48 103 70 48 103 70 48 
103 70 48 185 149 112 187 150 116 77 56 36 0 0 0 0 0 0 0 0 0 0 0 0 152 123 92 
187 150 116 187 150 116 163 127 97 103 70 48 103 70 48 103 70 48 103 70 48 
103 70 48 103 70 48 103 70 48 103 70 48 103 70 48 103 70 48 103 70 48 
183 147 110 187 150 116 187 150 116 149 119 92 126 105 65 94 64 44 0 0 0 0 0 0 
0 0 0 0 0 0 0 0 0 0 0 0 0 0 0 38 24 18 0 0 0 0 0 0 0 0 0 0 0 0 0 0 0 187 150 116 
149 119 92 148 119 92 158 127 98 184 149 110 103 70 48 103 70 48 103 70 48 
103 70 48 104 71 49 103 70 48 103 70 48 103 70 48 103 70 48 103 70 48 
103 70 48 103 70 48 103 70 48 103 70 48 103 70 48 103 70 48 103 70 48 
103 70 48 117 84 60 187 150 116 187 150 115 8 7 4 0 0 0 0 0 0 0 0 0 24 21 12 
187 150 116 187 150 116 186 149 115 119 86 61 103 70 48 103 70 48 103 70 48 
103 70 48 103 70 48 103 70 48 103 70 48 103 70 48 103 70 48 167 133 96 
187 150 116 187 150 116 170 137 106 148 120 91 113 88 55 0 0 0 0 0 0 0 0 0 
0 0 0 0 0 0 0 0 0 0 0 0 0 0 0 0 0 0 0 0 0 0 0 0 0 0 0 0 0 0 0 0 0 0 0 0 187 150 116 
152 122 94 150 121 93 150 120 93 147 114 84 103 70 48 103 70 48 103 70 48 
103 70 48 103 71 48 103 70 48 103 70 48 103 70 48 103 70 48 103 70 48 
103 70 48 103 70 48 103 70 48 103 70 48 103 70 48 103 70 48 103 70 48 
103 70 48 166 131 98 187 150 116 169 136 101 0 0 0 0 0 0 0 0 0 0 0 0 172 138 106 
187 150 116 187 150 116 153 117 88 103 70 48 103 70 48 103 70 48 103 70 48 
103 70 48 103 70 48 103 70 48 134 100 73 183 146 112 187 150 116 187 150 116 
187 150 116 148 119 92 146 125 78 91 62 42 0 0 0 0 0 0 0 0 0 0 0 0 0 0 0 0 0 0 
0 0 0 0 0 0 0 0 0 0 0 0 0 0 0 0 0 0 0 0 0 0 0 0 0 0 0 0 0 0 187 150 116 
148 119 92 148 119 92 148 119 92 126 94 69 103 70 48 103 70 48 103 70 48 
103 70 48 103 70 48 103 70 48 103 70 48 103 70 48 103 70 48 103 70 48 
103 70 48 103 70 48 103 70 48 103 70 48 103 70 48 103 70 48 103 70 48 
103 70 48 186 150 113 187 150 116 70 59 38 0 0 0 0 0 0 0 0 0 153 123 95 
187 150 116 187 150 116 155 119 90 103 70 48 103 70 48 103 70 48 103 70 48 
103 70 48 105 72 50 157 122 92 187 150 116 187 150 116 187 150 116 187 150 116 
148 119 92 148 119 92 97 71 47 0 0 0 0 0 0 0 0 0 0 0 0 0 0 0 0 0 0 0 0 0 0 0 0 
0 0 0 0 0 0 0 0 0 0 0 0 0 0 0 0 0 0 0 0 0 0 0 0 0 0 0 0 0 0 135 108 84 
148 119 92 148 119 92 153 123 95 165 129 98 103 70 48 103 70 48 103 70 48 
103 70 48 103 70 48 103 70 48 103 70 48 103 70 48 103 70 48 103 70 48 
103 70 48 103 70 48 103 70 48 103 70 48 103 70 48 103 70 48 103 70 48 
125 91 65 187 150 116 141 114 87 5 5 3 0 0 0 0 0 0 182 146 113 187 150 116 
187 150 116 155 119 90 103 70 48 103 70 48 103 70 48 103 70 48 140 105 78 
184 147 113 187 150 116 187 150 116 187 150 116 163 131 101 148 119 92 
148 119 92 138 114 71 0 0 0 0 0 0 0 0 0 0 0 0 0 0 0 0 0 0 0 0 0 0 0 0 0 0 0 
0 0 0 0 0 0 0 0 0 0 0 0 0 0 0 0 0 0 0 0 0 0 0 0 0 0 0 0 0 0 0 0 0 187 150 116 
175 140 109 148 119 92 149 120 92 176 139 106 108 75 52 103 70 48 103 70 48 
103 70 48 103 70 48 103 70 48 103 70 48 103 70 48 103 70 48 103 70 48 
103 70 48 103 70 48 103 70 48 103 70 48 103 70 48 103 70 48 103 70 48 
172 138 100 187 150 116 133 109 76 0 0 0 0 0 0 157 126 98 187 150 116 
187 150 116 155 119 90 103 70 48 103 70 48 107 73 51 172 135 103 187 150 116 
187 150 116 187 150 116 162 130 100 148 119 92 148 119 92 148 121 89 
113 88 56 103 70 48 0 0 0 0 0 0 0 0 0 0 0 0 0 0 0 0 0 0 0 0 0 0 0 0 0 0 0 
0 0 0 0 0 0 0 0 0 0 0 0 0 0 0 0 0 0 0 0 0 0 0 0 110 57 29 0 0 0 0 0 0 0 0 0 
187 150 116 151 121 94 148 119 92 149 119 92 184 148 114 184 147 112 
149 114 84 111 78 54 103 70 48 103 70 48 103 70 48 103 70 48 103 70 48 
103 70 48 103 70 48 103 70 48 103 70 48 103 70 48 103 70 48 103 70 48 
103 70 48 117 84 59 187 150 116 144 117 87 0 0 0 0 0 0 148 119 92 187 150 116 
187 150 116 153 117 88 103 70 48 142 107 79 184 147 113 178 143 111 
158 127 98 160 129 100 172 138 107 148 119 92 148 120 91 147 127 76 117 86 56 
0 0 0 0 0 0 0 0 0 0 0 0 0 0 0 0 0 0 0 0 0 0 0 0 0 0 0 0 0 0 0 0 0 0 0 0 0 0 0 
0 0 0 0 0 0 0 0 0 0 0 0 0 0 0 0 0 0 0 0 0 0 0 0 0 0 0 0 0 0 0 0 0 0 0 0 143 115 89 
148 119 92 148 119 92 166 133 103 187 150 116 187 150 116 181 144 110 
120 87 62 103 70 48 103 70 48 104 71 49 103 70 48 103 70 48 103 70 48 
103 70 48 103 70 48 103 70 48 103 70 48 103 70 48 167 131 100 164 131 102 
147 118 90 0 0 0 1 1 1 148 119 92 170 137 105 187 150 116 149 115 84 
177 141 108 182 146 113 148 119 92 148 119 92 148 119 92 148 119 92 148 119 92 
149 125 85 159 134 79 103 70 48 0 0 0 0 0 0 0 0 0 0 0 0 0 0 0 0 0 0 0 0 0 
0 0 0 0 0 0 0 0 0 0 0 0 0 0 0 0 0 0 0 0 0 0 0 0 0 0 0 0 0 0 0 0 0 0 0 0 0 0 0 
0 0 0 0 0 0 0 0 0 0 0 0 0 0 0 0 0 0 0 0 0 187 150 116 148 118 91 148 119 92 
148 121 89 181 148 108 187 151 115 187 150 116 162 126 96 134 100 73 
105 72 49 103 70 48 105 72 49 105 72 50 105 72 50 109 76 53 109 76 53 
108 74 52 157 121 92 187 150 116 148 119 92 146 118 89 0 0 0 34 28 21 148 119 92 
147 120 88 187 150 116 187 150 116 148 119 92 148 119 92 148 119 92 148 119 92 
148 120 90 145 121 83 112 88 56 105 73 49 103 70 48 0 0 0 0 0 0 0 0 0 0 0 0 
0 0 0 0 0 0 0 0 0 0 0 0 0 0 0 0 0 0 0 0 0 0 0 0 0 0 0 0 0 0 0 0 0 0 0 0 0 0 0 
0 0 0 0 0 0 0 0 0 0 0 0 0 0 0 0 0 0 0 0 0 0 0 0 0 0 0 0 0 0 0 0 0 0 0 0 187 150 116 
180 144 112 152 122 94 148 119 92 149 123 87 156 133 85 173 148 93 149 123 84 
185 153 106 183 149 108 151 123 90 156 127 95 187 151 114 187 151 114 
187 151 114 166 133 102 187 150 115 151 121 94 148 119 92 141 116 75 
78 61 46 148 119 92 148 119 92 148 119 92 148 119 92 148 119 92 148 119 92 
148 119 92 148 120 90 135 112 75 81 55 38 87 59 41 103 70 48 0 0 0 0 0 0 0 0 0 
0 0 0 0 0 0 0 0 0 0 0 0 0 0 0 0 0 0 0 0 0 0 0 0 0 0 0 0 0 0 0 0 0 0 0 0 0 0 0 
0 0 0 0 0 0 0 0 0 0 0 0 0 0 0 0 0 0 0 0 0 0 0 0 0 0 0 0 0 0 0 0 0 0 0 0 0 0 0 
0 0 0 0 0 0 0 0 0 0 0 0 187 150 116 164 132 102 148 119 92 148 119 92 
148 119 92 148 119 92 148 119 92 148 119 92 148 119 92 148 119 92 148 119 92 
148 119 92 148 119 92 144 116 89 148 119 92 147 120 90 141 118 77 146 118 72 
161 129 99 150 120 93 149 122 85 186 149 114 163 131 100 167 131 100 
152 117 88 118 84 60 93 63 44 0 0 0 0 0 0 0 0 0 0 0 0 146 117 49 145 122 49 
144 122 49 0 0 0 0 0 0 0 0 0 0 0 0 0 0 0 0 0 0 0 0 0 0 0 0 0 0 0 0 0 0 0 0 0 
0 0 0 0 0 0 0 0 0 0 0 0 0 0 0 0 0 0 0 0 0 0 0 0 0 0 0 0 0 0 0 0 0 0 0 0 0 0 0 
0 0 0 146 111 48 146 109 47 149 101 45 146 110 48 0 0 0 0 0 0 187 150 116 
187 150 116 148 118 92 144 115 89 145 115 89 145 115 89 152 120 93 150 120 91 
146 117 89 149 120 90 158 127 97 169 133 101 121 93 70 104 77 57 96 65 45 
151 123 75 103 70 48 153 118 89 147 112 83 103 70 48 0 0 0 0 0 0 85 53 22 
85 53 22 85 53 22 0 0 0 0 0 0 0 0 0 0 0 0 0 0 0 0 0 0 0 0 0 0 0 0 0 0 0 0 0 0 
0 0 0 0 0 0 0 0 0 0 0 0 0 0 0 0 0 0 0 0 0 0 0 0 0 0 0 0 0 0 0 0 0 0 0 0 0 0 0 
0 0 0 0 0 0 0 0 0 0 0 0 0 0 0 0 0 0 0 0 0 0 0 0 0 0 0 0 0 0 0 0 0 0 0 0 0 0 0 
0 0 0 0 0 0 0 0 0 0 0 0 0 0 0 0 0 0 0 0 0 0 0 0 0 0 0 0 0 0 0 0 0 0 0 0 0 0 0 
0 0 0 0 0 0 0 0 0 0 0 0 0 0 0 0 0 0 0 0 0 0 0 0 0 0 0 0 0 0 0 0 0 0 0 0 0 0 0 
0 0 0 0 0 0 0 0 0 0 0 0 0 0 0 0 0 0 0 0 0 0 0 0 0 0 0 0 0 0 0 0 0 0 0 0 0 0 0 
0 0 0 0 0 0 0 0 0 0 0 0 0 0 0 0 0 0 0 0 0 0 0 0 0 0 0 0 0 0 
