P3
64 64
255
0 0 0 0 0 0 0 0 0 0 0 0 0 0 0 0 0 0 0 0 0 0 0 0 0 0 0 0 0 0 0 0 0 0 0 0 0 0 0 
0 0 0 0 0 0 0 0 0 0 0 0 0 0 0 0 0 0 0 0 0 0 0 0 0 0 0 0 0 0 0 0 0 0 0 0 0 0 0 
0 0 0 0 0 0 0 0 0 0 0 0 0 0 0 0 0 0 0 0 0 0 0 0 0 0 0 0 0 0 0 0 0 0 0 0 0 0 0 
0 0 0 0 0 0 0 0 0 0 0 0 0 0 0 0 0 0 0 0 0 0 0 0 0 0 0 0 0 0 0 0 0 0 0 0 0 0 0 
0 0 0 0 0 0 0 0 0 0 0 0 0 0 0 0 0 0 0 0 0 0 0 0 0 0 0 0 0 0 0 0 0 0 0 0 0 0 0 
0 0 0 0 0 0 0 0 0 0 0 0 0 0 0 0 0 0 0 0 0 0 0 0 0 0 0 0 0 0 0 0 0 0 0 0 0 0 0 
0 0 0 0 0 0 0 0 0 0 0 0 0 0 0 0 0 0 0 0 0 0 0 0 0 0 0 0 0 0 0 0 0 0 0 0 0 0 0 
0 0 0 0 0 0 0 0 0 133 23 14 133 23 14 133 23 14 0 0 0 0 0 0 0 0 0 0 0 0 0 0 0 
0 0 0 0 0 0 0 0 0 0 0 0 0 0 0 0 0 0 0 0 0 0 0 0 0 0 0 0 0 0 0 0 0 0 0 0 0 0 0 
0 0 0 0 0 0 0 0 0 0 0 0 0 0 0 0 0 0 0 0 0 0 0 0 0 0 0 0 0 0 0 0 0 0 0 0 0 0 0 
0 0 0 0 0 0 0 0 0 0 0 0 0 0 0 0 0 0 0 0 0 0 0 0 0 0 0 0 0 0 0 0 0 0 0 0 0 0 0 
0 0 0 0 0 0 133 23 14 133 23 14 133 23 14 133 23 14 133 23 14 133 23 14 
133 23 14 133 23 14 0 0 0 0 0 0 0 0 0 0 0 0 0 0 0 0 0 0 0 0 0 133 23 14 
133 23 14 133 23 14 133 23 14 133 23 14 133 23 14 133 23 14 133 23 14 
0 0 0 0 0 0 0 0 0 0 0 0 0 0 0 0 0 0 0 0 0 0 0 0 0 0 0 0 0 0 0 0 0 0 0 0 0 0 0 
0 0 0 0 0 0 0 0 0 0 0 0 0 0 0 0 0 0 0 0 0 0 0 0 0 0 0 0 0 0 0 0 0 0 0 0 0 0 0 
0 0 0 0 0 0 0 0 0 0 0 0 0 0 0 0 0 0 0 0 0 0 0 0 0 0 0 0 0 0 0 0 0 0 0 0 0 0 0 
0 0 0 0 0 0 133 23 14 133 23 14 133 23 14 133 23 14 133 23 14 133 23 14 
133 23 14 133 23 14 133 23 14 133 23 14 133 23 14 133 23 14 133 23 14 
133 23 14 0 0 0 33 110 29 33 110 29 33 110 29 133 23 14 133 23 14 133 23 14 
133 23 14 133 23 14 133 23 14 0 0 0 0 0 0 0 0 0 0 0 0 0 0 0 0 0 0 0 0 0 0 0 0 
0 0 0 0 0 0 0 0 0 0 0 0 0 0 0 0 0 0 0 0 0 0 0 0 0 0 0 0 0 0 0 0 0 0 0 0 0 0 0 
0 0 0 0 0 0 0 0 0 0 0 0 0 0 0 0 0 0 0 0 0 0 0 0 0 0 0 0 0 0 0 0 0 0 0 0 0 0 0 
0 0 0 0 0 0 0 0 0 0 0 0 0 0 0 0 0 0 0 0 0 0 0 0 0 0 0 0 0 0 133 23 14 
133 23 14 0 0 0 133 23 14 133 23 14 133 23 14 133 23 14 133 23 14 133 23 14 
133 23 14 133 23 14 33 110 29 33 110 29 33 110 29 0 0 0 133 23 14 133 23 14 
133 23 14 133 23 14 133 23 14 133 23 14 0 0 0 0 0 0 0 0 0 0 0 0 0 0 0 0 0 0 
0 0 0 0 0 0 0 0 0 0 0 0 0 0 0 0 0 0 0 0 0 0 0 0 0 0 0 0 0 0 0 0 0 0 0 0 0 0 0 
0 0 0 0 0 0 0 0 0 0 0 0 0 0 0 0 0 0 0 0 0 0 0 0 0 0 0 0 0 0 0 0 0 0 0 0 0 0 0 
0 0 0 0 0 0 0 0 0 0 0 0 0 0 0 0 0 0 0 0 0 0 0 0 0 0 0 0 0 0 0 0 0 0 0 0 133 23 14 
133 23 14 133 23 14 133 23 14 133 23 14 133 23 14 133 23 14 133 23 14 
89 15 9 126 87 38 133 92 40 111 81 34 100 91 35 150 103 45 174 124 60 
216 191 151 133 23 14 133 23 14 133 23 14 133 23 14 0 0 0 0 0 0 0 0 0 0 0 0 
0 0 0 0 0 0 0 0 0 0 0 0 0 0 0 0 0 0 0 0 0 0 0 0 0 0 0 0 0 0 0 0 0 0 0 0 0 0 0 
0 0 0 0 0 0 0 0 0 0 0 0 0 0 0 0 0 0 0 0 0 0 0 0 0 0 0 0 0 0 0 0 0 0 0 0 0 0 0 
0 0 0 0 0 0 0 0 0 0 0 0 0 0 0 0 0 0 0 0 0 0 0 0 0 0 0 0 0 0 0 0 0 0 0 0 0 0 0 
0 0 0 0 0 0 133 23 14 133 23 14 0 0 0 0 0 0 0 0 0 119 82 35 124 85 37 
141 98 43 125 86 37 129 88 38 137 101 55 131 91 43 145 100 44 170 120 56 
183 138 80 184 140 84 182 131 82 189 129 116 133 23 14 133 23 14 0 0 0 0 0 0 
0 0 0 0 0 0 0 0 0 0 0 0 0 0 0 0 0 0 0 0 0 0 0 0 0 0 0 0 0 0 0 0 0 0 0 0 0 0 0 
0 0 0 0 0 0 0 0 0 0 0 0 0 0 0 0 0 0 0 0 0 0 0 0 0 0 0 0 0 0 0 0 0 0 0 0 0 0 0 
0 0 0 0 0 0 0 0 0 0 0 0 0 0 0 0 0 0 0 0 0 0 0 0 0 0 0 0 0 0 0 0 0 0 0 0 0 0 0 
0 0 0 0 0 0 0 0 0 133 23 14 133 23 14 134 92 40 136 94 41 151 104 46 
133 91 40 131 91 40 148 101 45 153 112 57 163 112 49 174 123 59 184 139 81 
159 111 51 145 100 44 158 109 47 145 100 44 165 121 64 184 140 82 176 118 70 
133 23 14 0 0 0 0 0 0 0 0 0 0 0 0 0 0 0 0 0 0 0 0 0 0 0 0 0 0 0 0 0 0 0 0 0 
0 0 0 0 0 0 0 0 0 0 0 0 0 0 0 0 0 0 0 0 0 0 0 0 0 0 0 0 0 0 0 0 0 0 0 0 0 0 0 
0 0 0 0 0 0 0 0 0 0 0 0 0 0 0 0 0 0 0 0 0 0 0 0 0 0 0 0 0 0 0 0 0 0 0 0 0 0 0 
0 0 0 0 0 0 0 0 0 0 0 0 0 0 0 0 0 0 0 0 0 0 0 0 141 97 42 123 85 37 132 91 39 
143 100 45 157 120 70 146 101 43 145 100 44 179 134 77 181 146 60 170 117 51 
181 135 75 189 148 92 150 103 45 125 86 37 182 153 62 162 130 54 146 100 44 
178 133 75 182 137 78 170 117 51 0 0 0 0 0 0 0 0 0 0 0 0 0 0 0 0 0 0 0 0 0 
0 0 0 0 0 0 0 0 0 0 0 0 0 0 0 0 0 0 0 0 0 0 0 0 0 0 0 0 0 0 0 0 0 0 0 0 0 0 0 
0 0 0 0 0 0 0 0 0 0 0 0 0 0 0 0 0 0 0 0 0 0 0 0 0 0 0 0 0 0 0 0 0 0 0 0 0 0 0 
0 0 0 0 0 0 0 0 0 0 0 0 0 0 0 0 0 0 0 0 0 0 0 0 0 0 0 0 0 0 156 107 47 
122 84 36 135 94 41 144 99 43 167 125 70 168 122 65 147 101 44 158 110 50 
182 136 76 168 138 60 182 149 61 170 117 51 190 148 94 170 117 51 116 80 35 
183 165 66 138 89 47 154 105 49 145 100 44 167 124 69 183 138 79 170 117 51 
0 0 0 0 0 0 0 0 0 0 0 0 0 0 0 0 0 0 0 0 0 0 0 0 0 0 0 0 0 0 0 0 0 0 0 0 0 0 0 
0 0 0 0 0 0 0 0 0 0 0 0 0 0 0 0 0 0 0 0 0 0 0 0 0 0 0 0 0 0 0 0 0 0 0 0 0 0 0 
0 0 0 0 0 0 0 0 0 0 0 0 0 0 0 0 0 0 0 0 0 0 0 0 0 0 0 0 0 0 0 0 0 0 0 0 0 0 0 
0 0 0 0 0 0 0 0 0 144 99 43 138 95 42 145 100 43 170 117 51 182 137 77 
170 117 51 147 101 44 171 118 52 186 142 84 196 184 72 190 170 67 170 117 51 
191 154 92 172 122 53 114 79 34 175 158 63 158 122 56 184 164 67 168 116 51 
152 108 53 185 141 83 177 128 66 0 0 0 0 0 0 0 0 0 0 0 0 0 0 0 0 0 0 0 0 0 
0 0 0 0 0 0 0 0 0 0 0 0 0 0 0 0 0 0 0 0 0 0 0 0 0 0 0 0 0 0 0 0 0 0 0 0 0 0 0 
0 0 0 0 0 0 0 0 0 0 0 0 0 0 0 0 0 0 0 0 0 0 0 0 133 23 14 133 23 14 0 0 0 
0 0 0 0 0 0 0 0 0 0 0 0 0 0 0 0 0 0 0 0 0 0 0 0 0 0 0 0 0 0 170 117 51 
142 98 43 140 96 42 152 105 46 170 117 51 181 135 75 172 123 60 146 101 44 
170 117 51 185 141 83 180 138 67 170 117 51 170 117 51 194 180 71 194 179 70 
119 83 36 172 136 57 176 135 57 179 142 59 170 117 51 147 101 44 173 122 58 
185 141 83 175 126 63 0 0 0 0 0 0 0 0 0 0 0 0 0 0 0 0 0 0 0 0 0 0 0 0 0 0 0 
0 0 0 0 0 0 0 0 0 0 0 0 0 0 0 0 0 0 0 0 0 0 0 0 0 0 0 0 0 0 0 0 0 0 0 0 0 0 0 
0 0 0 0 0 0 0 0 0 0 0 0 0 0 0 133 23 14 133 23 14 0 0 0 133 23 14 133 23 14 
0 0 0 133 23 14 133 23 14 133 23 14 133 23 14 133 23 14 133 23 14 133 23 14 
139 38 20 140 91 40 117 81 35 152 97 43 164 102 45 170 113 57 179 130 71 
170 117 51 170 117 51 182 136 77 176 127 65 170 117 51 170 117 51 185 155 68 
184 148 69 144 99 43 168 116 50 170 117 51 182 135 76 170 117 51 146 101 44 
170 117 51 183 138 79 184 140 82 0 0 0 0 0 0 0 0 0 0 0 0 0 0 0 0 0 0 0 0 0 
0 0 0 0 0 0 0 0 0 0 0 0 0 0 0 0 0 0 0 0 0 0 0 0 0 0 0 0 0 0 0 0 0 0 0 0 0 0 0 
0 0 0 0 0 0 0 0 0 0 0 0 0 0 0 0 0 0 0 0 0 0 0 0 0 0 0 0 0 0 0 0 0 0 0 0 0 0 0 
133 23 14 133 23 14 133 23 14 133 23 14 133 23 14 133 23 14 133 23 14 
133 23 14 157 91 41 138 80 36 141 79 35 158 87 39 161 91 42 180 132 75 
191 171 68 176 147 62 149 106 51 179 141 58 170 117 51 170 117 51 171 118 53 
171 119 54 170 117 51 170 117 51 170 117 51 182 136 77 173 125 64 148 102 44 
173 122 57 185 140 83 171 118 53 0 0 0 0 0 0 0 0 0 0 0 0 0 0 0 0 0 0 0 0 0 
0 0 0 0 0 0 0 0 0 0 0 0 0 0 0 0 0 0 0 0 0 0 0 0 0 0 0 0 0 0 0 0 0 0 0 0 0 0 0 
0 0 0 0 0 0 0 0 0 0 0 0 0 0 0 0 0 0 0 0 0 0 0 0 0 0 0 0 0 0 0 0 0 0 0 0 0 0 0 
0 0 0 0 0 0 0 0 0 0 0 0 133 23 14 133 23 14 133 23 14 133 23 14 137 33 18 
146 97 43 137 94 41 135 93 41 164 113 49 182 136 77 195 183 71 183 163 67 
147 103 51 192 174 69 196 185 72 191 173 68 171 139 60 156 117 54 186 160 64 
180 142 59 190 169 67 182 145 61 162 112 50 150 103 45 182 137 78 181 135 75 
170 117 51 0 0 0 0 0 0 0 0 0 0 0 0 0 0 0 0 0 0 0 0 0 0 0 0 0 0 0 0 0 0 0 0 0 
0 0 0 0 0 0 0 0 0 0 0 0 0 0 0 0 0 0 0 0 0 0 0 0 0 0 0 0 0 0 0 0 0 0 0 0 0 0 0 
0 0 0 0 0 0 0 0 0 0 0 0 0 0 0 0 0 0 0 0 0 0 0 0 0 0 0 0 0 0 0 0 0 0 0 0 0 0 0 
0 0 0 0 0 0 0 0 0 133 23 14 133 23 14 151 82 37 139 82 37 137 81 36 142 84 37 
162 104 49 171 119 52 185 157 63 177 153 68 149 108 52 196 185 72 196 185 72 
187 169 68 159 121 55 178 155 64 142 96 49 197 186 75 184 155 63 152 104 45 
167 123 68 184 139 81 170 117 51 0 0 0 0 0 0 0 0 0 0 0 0 0 0 0 0 0 0 0 0 0 
0 0 0 0 0 0 0 0 0 0 0 0 0 0 0 0 0 0 0 0 0 0 0 0 0 0 0 0 0 0 0 0 0 0 0 0 0 0 0 
0 0 0 0 0 0 0 0 0 0 0 0 0 0 0 0 0 0 0 0 0 0 0 0 0 0 0 0 0 0 0 0 0 0 0 0 0 0 0 
0 0 0 0 0 0 0 0 0 0 0 0 0 0 0 0 0 0 0 0 0 0 0 0 0 0 0 0 0 0 0 0 0 156 107 47 
140 97 42 139 95 41 128 88 38 145 100 43 149 102 45 169 122 57 179 141 58 
175 131 55 186 157 65 203 193 95 195 182 71 194 180 70 179 150 73 182 145 66 
156 107 47 160 121 69 182 136 76 171 118 53 170 117 51 0 0 0 0 0 0 0 0 0 0 0 0 
0 0 0 0 0 0 0 0 0 0 0 0 0 0 0 0 0 0 0 0 0 0 0 0 0 0 0 0 0 0 0 0 0 0 0 0 0 0 0 
0 0 0 0 0 0 0 0 0 0 0 0 0 0 0 0 0 0 0 0 0 0 0 0 0 0 0 0 0 0 0 0 0 0 0 0 0 0 0 
0 0 0 0 0 0 0 0 0 0 0 0 0 0 0 0 0 0 0 0 0 0 0 0 0 0 0 0 0 0 0 0 0 0 0 0 0 0 0 
0 0 0 0 0 0 0 0 0 151 104 45 151 104 45 135 93 41 106 73 32 122 84 36 
145 101 43 167 120 50 173 121 57 172 124 63 147 101 44 170 117 51 170 117 51 
159 110 48 158 119 68 182 139 82 0 0 0 0 0 0 0 0 0 0 0 0 0 0 0 0 0 0 0 0 0 
0 0 0 0 0 0 0 0 0 0 0 0 0 0 0 0 0 0 0 0 0 0 0 0 0 0 0 0 0 0 0 0 0 0 0 0 0 0 0 
0 0 0 0 0 0 0 0 0 0 0 0 0 0 0 0 0 0 0 0 0 0 0 0 0 0 0 0 0 0 0 0 0 0 0 0 0 0 0 
0 0 0 0 0 0 0 0 0 0 0 0 0 0 0 0 0 0 0 0 0 0 0 0 0 0 0 0 0 0 0 0 0 92 61 54 
126 84 74 107 71 62 102 68 59 100 67 58 108 72 64 99 65 58 126 85 74 88 59 50 
64 47 22 91 64 27 116 81 35 112 78 34 126 87 38 116 80 35 103 71 31 128 88 41 
120 81 55 159 116 103 160 115 102 0 0 0 0 0 0 0 0 0 0 0 0 0 0 0 0 0 0 0 0 0 
0 0 0 0 0 0 0 0 0 0 0 0 0 0 0 0 0 0 0 0 0 0 0 0 0 0 0 0 0 0 0 0 0 0 0 0 0 0 0 
0 0 0 0 0 0 0 0 0 0 0 0 0 0 0 0 0 0 0 0 0 0 0 0 0 0 0 0 0 0 0 0 0 0 0 0 0 0 0 
0 0 0 0 0 0 0 0 0 0 0 0 0 0 0 0 0 0 0 0 0 0 0 0 0 0 0 104 69 61 112 75 66 
82 54 46 58 38 34 98 66 57 95 64 56 103 69 60 99 66 59 95 64 56 128 92 83 
100 68 59 79 53 46 102 85 30 116 98 34 103 86 31 97 81 29 89 59 53 78 52 45 
116 85 75 146 101 89 151 102 90 165 122 109 164 120 107 255 254 236 
0 0 0 0 0 0 0 0 0 0 0 0 0 0 0 0 0 0 0 0 0 0 0 0 0 0 0 0 0 0 0 0 0 0 0 0 0 0 0 
0 0 0 0 0 0 0 0 0 0 0 0 0 0 0 0 0 0 0 0 0 0 0 0 0 0 0 0 0 0 0 0 0 0 0 0 0 0 0 
0 0 0 0 0 0 0 0 0 0 0 0 0 0 0 0 0 0 0 0 0 0 0 0 0 0 0 0 0 0 0 0 0 0 0 0 54 36 32 
129 86 76 106 70 62 98 66 57 86 58 51 107 71 63 129 87 76 115 76 67 130 87 76 
124 83 73 131 88 77 105 73 65 130 92 83 127 95 57 125 105 37 104 87 31 
112 93 33 115 96 35 102 68 60 100 66 58 140 97 85 172 133 120 153 104 92 
150 100 88 160 114 102 185 150 136 156 108 96 0 0 0 0 0 0 0 0 0 0 0 0 0 0 0 
0 0 0 0 0 0 0 0 0 0 0 0 0 0 0 0 0 0 0 0 0 0 0 0 0 0 0 0 0 0 0 0 0 0 0 0 0 0 0 
0 0 0 0 0 0 0 0 0 0 0 0 0 0 0 0 0 0 0 0 0 0 0 0 0 0 0 0 0 0 0 0 0 0 0 0 0 0 0 
0 0 0 0 0 0 0 0 0 0 0 0 0 0 0 69 47 41 101 68 59 98 66 58 104 69 60 116 77 68 
128 86 75 150 100 88 150 100 88 150 100 88 150 100 88 150 100 88 150 100 88 
133 88 78 127 91 82 146 111 72 139 116 42 166 139 50 167 140 50 141 117 43 
144 98 80 144 96 85 150 100 88 166 124 111 160 113 101 150 100 88 150 100 88 
167 125 113 182 146 132 167 125 112 150 100 88 0 0 0 0 0 0 0 0 0 0 0 0 0 0 0 
0 0 0 0 0 0 0 0 0 0 0 0 0 0 0 0 0 0 0 0 0 0 0 0 0 0 0 0 0 0 0 0 0 0 0 0 0 0 0 
0 0 0 0 0 0 0 0 0 0 0 0 0 0 0 0 0 0 0 0 0 0 0 0 0 0 0 0 0 0 0 0 0 0 0 0 0 0 0 
0 0 0 0 0 0 0 0 0 113 75 66 124 82 72 80 53 46 121 81 71 150 100 88 150 100 88 
150 100 88 150 100 88 150 100 88 150 100 88 150 100 88 150 100 88 162 117 105 
170 130 116 155 108 96 170 142 51 170 142 51 170 142 51 147 123 44 145 114 55 
152 102 90 167 125 112 164 120 107 160 114 102 150 100 88 150 100 88 
150 100 88 152 103 91 170 130 117 177 140 127 159 113 101 159 113 100 
0 0 0 0 0 0 0 0 0 0 0 0 0 0 0 0 0 0 0 0 0 0 0 0 0 0 0 0 0 0 0 0 0 0 0 0 0 0 0 
0 0 0 0 0 0 0 0 0 0 0 0 0 0 0 0 0 0 0 0 0 0 0 0 0 0 0 0 0 0 0 0 0 0 0 0 0 0 0 
0 0 0 0 0 0 0 0 0 0 0 0 0 0 0 94 63 55 131 86 78 123 82 73 109 73 64 142 94 83 
150 100 88 150 100 88 150 100 88 150 100 88 150 100 88 150 100 88 150 100 88 
150 100 88 154 107 94 170 129 116 166 123 110 170 142 51 170 142 51 170 142 51 
170 142 51 140 116 43 150 100 88 157 110 98 164 120 107 150 100 88 150 100 88 
150 100 88 150 100 88 150 100 88 150 100 88 157 110 97 178 141 127 180 143 130 
255 254 236 0 0 0 0 0 0 0 0 0 0 0 0 0 0 0 0 0 0 0 0 0 0 0 0 0 0 0 0 0 0 0 0 0 
0 0 0 0 0 0 0 0 0 0 0 0 0 0 0 0 0 0 0 0 0 0 0 0 0 0 0 0 0 0 0 0 0 0 0 0 0 0 0 
0 0 0 0 0 0 0 0 0 0 0 0 0 0 0 47 31 27 132 88 77 141 93 83 138 92 81 150 100 88 
154 105 93 161 116 103 166 123 110 166 123 110 160 119 107 161 117 105 
150 100 88 150 100 88 150 100 88 165 122 109 171 131 118 177 144 105 
170 142 51 170 142 51 170 142 51 165 138 49 140 117 42 150 100 88 156 109 96 
157 109 97 150 100 88 150 100 88 150 100 88 150 100 88 150 100 88 150 100 88 
150 100 88 151 102 90 177 139 125 186 153 138 0 0 0 0 0 0 0 0 0 0 0 0 0 0 0 
0 0 0 0 0 0 0 0 0 0 0 0 0 0 0 0 0 0 0 0 0 0 0 0 0 0 0 0 0 0 0 0 0 0 0 0 0 0 0 
0 0 0 0 0 0 0 0 0 0 0 0 0 0 0 0 0 0 0 0 0 0 0 0 0 0 0 0 0 0 0 0 0 108 72 63 
139 92 81 150 100 88 150 100 88 156 109 96 177 141 127 168 127 114 136 96 86 
125 83 73 106 71 62 103 68 60 82 54 49 74 48 42 134 89 79 167 125 112 
164 124 111 158 132 53 170 142 51 170 142 51 170 142 51 164 137 49 141 118 42 
150 100 88 150 100 88 150 100 88 144 96 85 139 93 81 98 66 58 117 78 69 
117 78 68 150 100 88 150 100 88 150 100 88 150 100 88 173 134 121 175 136 123 
169 128 115 0 0 0 0 0 0 0 0 0 0 0 0 0 0 0 0 0 0 0 0 0 0 0 0 0 0 0 0 0 0 0 0 0 
0 0 0 0 0 0 0 0 0 0 0 0 0 0 0 0 0 0 0 0 0 0 0 0 0 0 0 0 0 0 0 0 0 0 0 0 0 0 0 
0 0 0 0 0 0 0 0 0 131 87 77 144 96 85 150 100 88 157 109 97 188 154 141 
162 118 105 129 86 76 122 82 72 114 76 67 0 0 0 93 62 54 97 64 57 67 44 40 
115 77 69 165 122 109 142 105 88 133 111 40 122 102 37 123 103 37 121 101 36 
126 106 38 146 122 44 157 111 98 167 125 112 161 115 103 134 89 79 123 82 72 
121 80 70 106 71 62 98 66 58 108 72 64 135 90 79 150 100 88 150 100 88 
152 103 91 167 125 112 166 123 110 0 0 0 0 0 0 0 0 0 0 0 0 0 0 0 0 0 0 0 0 0 
0 0 0 0 0 0 0 0 0 0 0 0 0 0 0 0 0 0 0 0 0 0 0 0 0 0 0 0 0 0 0 0 0 0 0 0 0 0 0 
0 0 0 0 0 0 0 0 0 0 0 0 0 0 0 0 0 0 49 33 29 114 76 67 127 85 75 142 95 83 
171 132 118 162 119 105 128 85 75 117 78 69 72 48 42 0 0 0 0 0 0 114 76 67 
91 60 53 74 49 43 122 84 75 164 123 110 132 100 59 108 89 33 114 95 34 
114 95 35 116 97 35 113 95 34 125 96 52 160 115 102 169 127 114 157 110 98 
128 85 75 138 104 93 0 0 0 110 73 64 108 72 63 93 62 55 110 73 64 120 80 70 
150 100 88 150 100 88 159 112 100 170 129 115 171 131 117 0 0 0 0 0 0 0 0 0 
0 0 0 0 0 0 0 0 0 0 0 0 0 0 0 0 0 0 0 0 0 0 0 0 0 0 0 0 0 0 0 0 0 0 0 0 0 0 0 
0 0 0 0 0 0 0 0 0 0 0 0 0 0 0 0 0 0 0 0 0 0 0 0 0 0 0 117 78 69 102 68 59 
115 76 67 145 97 85 171 131 118 152 116 104 125 84 74 0 0 0 0 0 0 0 0 0 0 0 0 
112 75 66 84 56 50 126 86 76 165 122 109 158 115 103 126 105 38 133 111 40 
116 97 35 116 97 35 119 99 36 115 96 35 123 82 72 154 106 94 171 131 117 
155 107 94 137 92 81 135 97 86 118 92 83 0 0 0 0 0 0 113 75 66 94 62 55 
103 68 60 113 75 66 150 100 88 150 100 88 163 120 107 163 118 106 255 254 236 
0 0 0 0 0 0 0 0 0 0 0 0 0 0 0 0 0 0 0 0 0 0 0 0 0 0 0 0 0 0 0 0 0 0 0 0 0 0 0 
0 0 0 0 0 0 0 0 0 0 0 0 0 0 0 0 0 0 0 0 0 0 0 0 0 0 0 0 0 0 0 0 0 107 71 62 
85 57 50 109 73 64 137 91 80 169 128 115 147 113 101 108 72 64 0 0 0 0 0 0 
0 0 0 104 69 61 94 63 55 82 54 48 122 83 74 168 126 113 146 120 66 132 111 40 
170 142 51 148 124 45 123 102 37 144 120 43 120 101 36 150 100 88 151 101 89 
162 118 104 153 104 92 138 92 81 137 99 88 141 111 100 0 0 0 0 0 0 0 0 0 95 63 55 
82 55 48 70 46 41 108 73 64 150 100 88 153 104 92 164 121 108 198 170 155 
255 254 236 0 0 0 0 0 0 0 0 0 0 0 0 0 0 0 0 0 0 0 0 0 0 0 0 0 0 0 0 0 0 0 0 0 
0 0 0 0 0 0 0 0 0 0 0 0 0 0 0 0 0 0 0 0 0 0 0 0 0 0 0 0 0 0 0 0 0 0 0 0 85 56 50 
99 65 58 111 74 65 127 85 75 168 126 113 143 102 92 0 0 0 0 0 0 0 0 0 0 0 0 
93 62 54 95 64 56 91 61 53 154 109 96 165 122 109 156 131 49 170 142 51 
170 142 51 170 142 51 170 142 51 170 142 51 132 111 40 154 109 80 151 101 89 
164 121 108 155 107 95 140 93 82 127 86 76 140 106 95 0 0 0 0 0 0 0 0 0 0 0 0 
94 63 55 89 59 51 100 67 59 123 82 73 150 100 88 162 118 105 165 122 108 
255 254 236 0 0 0 0 0 0 0 0 0 0 0 0 0 0 0 0 0 0 0 0 0 0 0 0 0 0 0 0 0 0 0 0 0 
0 0 0 0 0 0 0 0 0 0 0 0 0 0 0 0 0 0 0 0 0 0 0 0 0 0 0 0 0 0 0 0 0 125 83 73 
91 61 54 101 67 59 115 77 67 154 105 93 174 135 122 127 84 74 0 0 0 0 0 0 
0 0 0 126 84 74 95 64 56 104 69 61 134 89 78 162 118 105 168 129 108 
170 142 51 170 142 51 170 142 51 170 142 51 170 142 51 150 126 45 141 118 42 
153 107 82 153 104 92 164 120 108 167 125 112 149 99 87 125 84 74 143 105 93 
0 0 0 0 0 0 0 0 0 0 0 0 74 49 43 93 62 54 93 62 54 110 73 64 117 78 69 
152 102 90 169 128 115 170 130 117 0 0 0 0 0 0 0 0 0 0 0 0 0 0 0 0 0 0 0 0 0 
0 0 0 0 0 0 0 0 0 0 0 0 0 0 0 0 0 0 0 0 0 0 0 0 0 0 0 0 0 0 0 0 0 0 0 0 0 0 0 
0 0 0 0 0 0 147 98 86 98 65 57 97 65 56 112 75 66 144 100 89 172 135 122 
123 82 72 0 0 0 0 0 0 150 100 88 112 75 66 109 73 64 111 74 65 136 90 80 
165 122 110 168 127 112 170 142 51 170 142 51 170 142 51 170 142 51 170 142 51 
145 121 43 140 117 42 150 100 88 153 104 92 167 126 113 161 116 103 
150 100 88 128 85 75 141 105 94 0 0 0 0 0 0 0 0 0 0 0 0 0 0 0 92 61 54 
94 62 55 102 67 60 114 76 67 150 100 88 165 123 110 167 124 111 0 0 0 0 0 0 
0 0 0 0 0 0 0 0 0 0 0 0 0 0 0 0 0 0 0 0 0 0 0 0 0 0 0 0 0 0 0 0 0 0 0 0 0 0 0 
0 0 0 0 0 0 0 0 0 0 0 0 0 0 0 0 0 0 0 0 0 150 100 88 87 58 51 95 63 56 
111 74 65 133 93 83 172 132 119 150 100 88 0 0 0 0 0 0 150 100 88 108 72 64 
110 73 65 111 74 65 113 76 67 162 118 105 162 118 106 170 142 51 170 142 51 
170 142 51 170 142 51 170 142 51 146 122 44 141 118 42 150 100 88 151 102 90 
167 124 111 158 112 99 150 100 88 130 91 81 149 115 104 255 254 236 
0 0 0 0 0 0 0 0 0 0 0 0 0 0 0 113 75 65 96 64 56 118 79 69 131 88 77 154 105 93 
166 123 110 150 100 88 0 0 0 0 0 0 0 0 0 0 0 0 0 0 0 0 0 0 0 0 0 0 0 0 0 0 0 
0 0 0 0 0 0 0 0 0 0 0 0 0 0 0 0 0 0 0 0 0 0 0 0 0 0 0 0 0 0 0 0 0 0 0 0 150 100 88 
98 65 57 92 61 54 111 74 65 137 95 84 164 120 108 0 0 0 0 0 0 0 0 0 150 100 88 
111 74 65 111 74 65 111 74 65 140 93 82 156 109 97 165 122 109 170 142 51 
170 142 51 170 142 51 170 142 51 170 142 51 166 139 50 161 134 48 150 100 88 
150 100 88 167 125 112 167 126 113 135 90 79 133 93 83 161 129 117 196 167 152 
0 0 0 0 0 0 0 0 0 0 0 0 0 0 0 150 100 88 105 70 62 100 67 59 122 81 71 
150 100 88 166 124 111 150 100 88 0 0 0 0 0 0 0 0 0 0 0 0 0 0 0 0 0 0 0 0 0 
0 0 0 0 0 0 0 0 0 0 0 0 0 0 0 0 0 0 0 0 0 0 0 0 0 0 0 0 0 0 0 0 0 0 0 0 0 0 0 
0 0 0 140 93 82 70 47 41 79 53 47 112 75 66 156 113 99 189 165 103 173 146 57 
170 142 51 0 0 0 0 0 0 107 71 63 111 74 65 111 74 65 127 84 74 156 109 96 
148 117 125 100 82 139 116 95 137 108 88 150 141 117 97 151 126 81 123 101 127 
94 77 131 95 74 112 147 98 86 152 103 92 165 122 109 147 99 92 126 84 76 
156 124 113 159 113 100 0 0 0 0 0 0 0 0 0 0 0 0 0 0 0 0 0 0 150 100 88 
117 78 69 112 74 65 150 100 88 151 102 90 150 100 88 0 0 0 0 0 0 0 0 0 0 0 0 
0 0 0 0 0 0 0 0 0 0 0 0 0 0 0 0 0 0 0 0 0 0 0 0 0 0 0 0 0 0 0 0 0 0 0 0 0 0 0 
0 0 0 0 0 0 0 0 0 0 0 0 0 0 0 75 62 23 80 67 24 170 142 51 186 164 86 
199 180 114 185 161 83 183 159 79 255 254 236 0 0 0 0 0 0 119 80 70 111 74 65 
140 94 83 160 117 105 73 61 96 64 52 89 98 80 136 108 88 150 108 88 150 
108 88 150 108 88 150 98 80 137 75 61 104 85 66 104 154 106 94 165 123 110 
152 105 93 131 89 84 147 113 101 157 110 98 0 0 0 0 0 0 0 0 0 0 0 0 0 0 0 
0 0 0 0 0 0 150 100 88 150 100 88 116 77 68 128 100 51 170 142 51 170 142 51 
0 0 0 0 0 0 0 0 0 0 0 0 0 0 0 0 0 0 0 0 0 0 0 0 0 0 0 0 0 0 0 0 0 0 0 0 0 0 0 
0 0 0 0 0 0 0 0 0 0 0 0 0 0 0 0 0 0 0 0 0 48 40 14 117 97 35 118 98 35 
161 135 48 179 154 70 191 169 96 197 178 110 178 153 69 192 171 98 0 0 0 0 0 0 
110 89 147 139 93 85 150 100 88 151 112 105 67 54 93 71 58 99 99 81 138 
108 88 150 108 88 150 108 88 150 108 88 150 108 88 150 99 81 137 92 74 127 
109 88 149 157 119 121 176 140 128 157 110 98 142 104 92 156 108 96 0 0 0 
0 0 0 0 0 0 0 0 0 0 0 0 0 0 0 0 0 0 0 0 0 122 102 37 104 86 31 128 107 39 
170 142 51 170 142 51 170 142 51 0 0 0 0 0 0 0 0 0 0 0 0 0 0 0 0 0 0 0 0 0 
0 0 0 0 0 0 0 0 0 0 0 0 0 0 0 0 0 0 0 0 0 0 0 0 0 0 0 0 0 0 0 0 0 0 0 0 130 109 39 
133 111 40 111 94 34 150 125 45 174 147 60 191 170 99 0 0 0 172 144 55 
170 142 51 0 0 0 100 81 139 83 68 116 69 57 97 85 63 82 142 105 99 82 67 113 
98 80 136 108 88 150 108 88 150 108 88 150 108 88 150 108 88 150 108 88 150 
108 88 150 108 88 150 108 88 150 111 92 152 141 125 169 142 126 170 
132 115 164 108 88 150 0 0 0 0 0 0 0 0 0 0 0 0 0 0 0 0 0 0 0 0 0 125 104 37 
161 135 49 118 99 35 120 100 36 154 129 46 170 142 51 170 142 51 0 0 0 0 0 0 
0 0 0 0 0 0 0 0 0 0 0 0 0 0 0 0 0 0 0 0 0 0 0 0 0 0 0 0 0 0 0 0 0 0 0 0 0 0 0 
0 0 0 0 0 0 0 0 0 0 0 0 132 109 39 135 113 41 139 116 42 159 133 48 171 144 53 
188 166 91 0 0 0 0 0 0 0 0 0 108 88 150 89 72 123 81 66 113 66 54 92 76 62 105 
80 65 111 97 79 134 108 88 150 108 88 150 108 88 150 108 88 150 108 88 150 
108 88 150 108 88 150 108 88 150 108 88 150 108 88 150 108 88 150 117 98 155 
134 117 165 134 118 165 132 115 164 108 88 150 0 0 0 0 0 0 0 0 0 0 0 0 0 0 0 
0 0 0 166 139 50 170 142 51 61 51 18 124 104 37 91 76 27 170 142 51 170 142 51 
0 0 0 0 0 0 0 0 0 0 0 0 0 0 0 0 0 0 0 0 0 0 0 0 0 0 0 0 0 0 0 0 0 0 0 0 0 0 0 
0 0 0 0 0 0 0 0 0 0 0 0 0 0 0 0 0 0 0 0 0 144 120 43 130 109 39 168 140 50 
171 144 54 192 171 99 182 158 78 0 0 0 0 0 0 96 78 133 72 59 100 67 55 93 
72 59 101 80 65 112 107 88 149 107 88 149 108 88 150 108 88 150 108 88 150 
108 88 150 108 88 150 108 88 150 108 88 150 108 88 150 108 88 150 108 88 150 
108 88 150 108 88 150 129 112 162 134 117 165 135 118 166 108 88 150 
0 0 0 0 0 0 0 0 0 0 0 0 0 0 0 0 0 0 170 142 51 0 0 0 170 142 51 127 106 38 
131 109 39 170 142 51 170 142 51 0 0 0 0 0 0 0 0 0 0 0 0 0 0 0 0 0 0 0 0 0 
0 0 0 0 0 0 0 0 0 0 0 0 0 0 0 0 0 0 0 0 0 0 0 0 0 0 0 0 0 0 0 0 0 0 0 0 170 142 51 
167 140 50 115 96 34 151 126 45 170 142 51 184 161 82 178 153 69 0 0 0 89 72 123 
69 56 96 67 55 93 67 54 93 80 65 111 81 66 113 108 88 150 112 92 152 
117 98 155 134 117 165 126 109 161 108 88 150 108 88 150 108 88 150 108 88 150 
108 88 150 108 88 150 108 88 150 108 88 150 108 88 150 114 94 153 133 117 165 
134 117 165 138 121 167 0 0 0 0 0 0 0 0 0 0 0 0 0 0 0 0 0 0 0 0 0 0 0 0 142 119 43 
120 100 36 140 117 42 170 142 51 0 0 0 0 0 0 0 0 0 0 0 0 0 0 0 0 0 0 0 0 0 
0 0 0 0 0 0 0 0 0 0 0 0 0 0 0 0 0 0 0 0 0 0 0 0 0 0 0 0 0 0 0 0 0 0 0 0 0 0 0 
170 142 51 170 142 51 0 0 0 165 138 49 170 142 51 170 142 51 166 139 50 
92 75 128 81 65 112 66 54 92 66 54 92 80 65 111 81 66 113 107 87 148 
108 88 150 131 114 164 134 117 165 134 117 165 133 116 165 104 85 145 
89 73 124 76 62 105 84 69 116 98 80 137 108 88 150 108 88 150 108 88 150 
108 88 150 108 88 150 129 111 162 134 117 165 135 119 166 142 127 170 
0 0 0 0 0 0 0 0 0 0 0 0 0 0 0 0 0 0 0 0 0 0 0 0 157 131 47 170 142 51 
170 142 51 0 0 0 0 0 0 0 0 0 0 0 0 0 0 0 0 0 0 0 0 0 0 0 0 0 0 0 0 0 0 0 0 0 
0 0 0 0 0 0 0 0 0 0 0 0 0 0 0 0 0 0 0 0 0 0 0 0 0 0 0 0 0 0 0 0 0 0 0 0 170 142 51 
0 0 0 0 0 0 136 114 41 86 70 119 69 56 95 67 54 93 69 56 96 88 72 123 
108 88 150 108 88 150 124 106 159 133 117 165 133 116 165 134 117 165 
123 104 159 108 88 150 46 38 64 86 71 119 68 56 95 74 59 102 81 66 113 
84 69 117 105 85 146 108 88 150 108 88 150 109 89 150 131 114 164 134 117 165 
131 114 164 255 254 236 0 0 0 0 0 0 0 0 0 0 0 0 0 0 0 0 0 0 0 0 0 0 0 0 0 0 0 
0 0 0 0 0 0 0 0 0 0 0 0 0 0 0 0 0 0 0 0 0 0 0 0 0 0 0 0 0 0 0 0 0 0 0 0 0 0 0 
0 0 0 0 0 0 0 0 0 0 0 0 0 0 0 0 0 0 0 0 0 0 0 0 0 0 0 0 0 0 0 0 0 0 0 0 0 0 0 
0 0 0 104 85 144 86 70 119 67 55 93 66 54 92 68 55 94 108 88 150 108 88 150 
110 91 151 129 111 162 134 117 165 124 106 159 108 88 150 108 88 150 
0 0 0 0 0 0 52 43 73 88 73 123 67 55 93 79 64 109 80 65 111 83 68 116 
97 79 135 108 88 150 108 88 150 114 95 153 134 117 165 134 117 165 151 136 175 
0 0 0 0 0 0 0 0 0 0 0 0 0 0 0 0 0 0 0 0 0 0 0 0 0 0 0 0 0 0 0 0 0 0 0 0 0 0 0 
0 0 0 0 0 0 0 0 0 0 0 0 0 0 0 0 0 0 0 0 0 0 0 0 0 0 0 0 0 0 0 0 0 0 0 0 0 0 0 
0 0 0 0 0 0 0 0 0 0 0 0 0 0 0 0 0 0 0 0 0 0 0 0 0 0 0 0 0 0 98 80 136 
89 72 124 74 60 103 70 58 98 83 68 116 108 88 150 108 88 150 127 109 161 
133 116 165 133 116 165 126 108 160 108 88 150 108 88 150 0 0 0 0 0 0 0 0 0 
85 69 118 89 72 123 74 61 103 73 59 102 80 65 111 80 65 112 99 81 138 
108 88 150 108 88 150 124 106 159 134 117 165 132 115 164 255 254 236 
0 0 0 0 0 0 0 0 0 0 0 0 0 0 0 0 0 0 0 0 0 0 0 0 0 0 0 0 0 0 0 0 0 0 0 0 0 0 0 
0 0 0 0 0 0 0 0 0 0 0 0 0 0 0 0 0 0 0 0 0 0 0 0 0 0 0 0 0 0 0 0 0 0 0 0 0 0 0 
0 0 0 0 0 0 0 0 0 0 0 0 0 0 0 0 0 0 0 0 0 0 0 0 0 0 0 88 72 122 85 70 118 
89 72 123 76 62 107 108 88 150 108 88 150 112 92 152 133 116 164 133 117 165 
129 112 162 108 88 150 0 0 0 0 0 0 0 0 0 0 0 0 0 0 0 0 0 0 108 88 150 
90 73 124 67 54 93 67 54 93 78 64 108 83 68 115 100 81 139 108 88 150 
110 90 151 132 115 164 132 115 164 135 119 166 255 254 236 0 0 0 0 0 0 0 0 0 
0 0 0 0 0 0 0 0 0 0 0 0 0 0 0 0 0 0 0 0 0 0 0 0 0 0 0 0 0 0 0 0 0 0 0 0 0 0 0 
0 0 0 0 0 0 0 0 0 0 0 0 0 0 0 0 0 0 0 0 0 0 0 0 0 0 0 0 0 0 0 0 0 0 0 0 0 0 0 
0 0 0 0 0 0 0 0 0 0 0 0 0 0 0 70 56 97 70 57 97 77 63 107 107 87 148 
108 88 150 112 92 152 131 114 163 134 117 165 133 117 165 120 101 157 
108 88 150 0 0 0 0 0 0 0 0 0 0 0 0 0 0 0 0 0 0 0 0 0 96 78 134 66 53 91 
66 54 92 67 55 94 80 65 111 85 69 117 108 88 150 108 88 150 108 88 150 
132 115 164 135 118 166 156 142 178 255 254 236 0 0 0 0 0 0 0 0 0 0 0 0 0 0 0 
0 0 0 0 0 0 0 0 0 0 0 0 0 0 0 0 0 0 0 0 0 0 0 0 0 0 0 0 0 0 0 0 0 0 0 0 0 0 0 
0 0 0 0 0 0 0 0 0 0 0 0 0 0 0 0 0 0 0 0 0 0 0 0 0 0 0 0 0 0 0 0 0 0 0 0 0 0 0 
0 0 0 0 0 0 66 54 92 67 55 93 69 56 96 99 81 138 108 88 150 130 113 163 
134 117 165 133 116 165 108 88 150 108 88 150 0 0 0 0 0 0 0 0 0 0 0 0 0 0 0 
0 0 0 0 0 0 0 0 0 101 83 141 86 70 120 79 64 109 67 55 93 70 58 99 80 65 111 
88 72 122 108 88 150 108 88 150 124 106 160 135 118 166 135 119 166 
0 0 0 0 0 0 0 0 0 0 0 0 0 0 0 0 0 0 0 0 0 0 0 0 0 0 0 0 0 0 0 0 0 0 0 0 0 0 0 
0 0 0 0 0 0 0 0 0 0 0 0 0 0 0 0 0 0 0 0 0 0 0 0 0 0 0 0 0 0 0 0 0 0 0 0 0 0 0 
0 0 0 0 0 0 0 0 0 0 0 0 0 0 0 0 0 0 0 0 0 0 0 0 76 62 106 66 54 92 71 59 100 
102 83 142 108 88 150 124 106 159 133 117 165 119 100 156 108 88 150 
108 88 150 0 0 0 0 0 0 0 0 0 0 0 0 0 0 0 0 0 0 0 0 0 0 0 0 0 0 0 105 86 146 
86 70 119 77 63 107 67 54 93 76 62 106 80 65 111 98 80 136 108 88 150 
108 88 150 133 116 165 136 120 167 255 254 236 0 0 0 0 0 0 0 0 0 0 0 0 0 0 0 
0 0 0 0 0 0 0 0 0 0 0 0 0 0 0 0 0 0 0 0 0 0 0 0 0 0 0 0 0 0 0 0 0 0 0 0 0 0 0 
0 0 0 0 0 0 0 0 0 0 0 0 0 0 0 0 0 0 0 0 0 0 0 0 0 0 0 0 0 0 0 0 0 0 0 0 0 0 0 
0 0 0 0 0 0 74 60 102 69 56 96 70 57 97 97 79 135 108 88 150 132 115 164 
133 117 165 117 98 155 108 88 150 108 88 150 0 0 0 0 0 0 0 0 0 0 0 0 0 0 0 
0 0 0 0 0 0 0 0 0 0 0 0 0 0 0 88 72 123 80 65 110 67 55 94 69 56 96 79 65 110 
87 71 120 108 88 150 108 88 150 124 107 160 135 118 166 255 254 236 
0 0 0 0 0 0 0 0 0 0 0 0 0 0 0 0 0 0 0 0 0 0 0 0 0 0 0 0 0 0 0 0 0 0 0 0 0 0 0 
0 0 0 0 0 0 0 0 0 0 0 0 0 0 0 0 0 0 0 0 0 0 0 0 0 0 0 0 0 0 0 0 0 0 0 0 0 0 0 
0 0 0 0 0 0 0 0 0 0 0 0 0 0 0 0 0 0 0 0 0 78 64 109 67 55 94 68 55 95 82 67 114 
95 78 132 123 105 159 134 117 165 113 94 153 108 88 150 0 0 0 0 0 0 0 0 0 
0 0 0 0 0 0 0 0 0 0 0 0 0 0 0 0 0 0 0 0 0 0 0 0 108 88 150 104 84 144 
85 69 118 68 55 95 73 60 102 80 65 111 84 69 117 108 88 150 132 116 164 
133 116 164 255 254 236 0 0 0 0 0 0 0 0 0 0 0 0 0 0 0 0 0 0 0 0 0 0 0 0 0 0 0 
0 0 0 0 0 0 0 0 0 0 0 0 0 0 0 0 0 0 0 0 0 0 0 0 0 0 0 0 0 0 0 0 0 0 0 0 0 0 0 
0 0 0 0 0 0 0 0 0 0 0 0 0 0 0 0 0 0 0 0 0 0 0 0 0 0 0 0 0 0 0 0 0 77 62 106 
67 55 93 67 55 94 77 63 107 91 75 127 128 111 162 134 117 165 117 98 155 
108 88 150 0 0 0 0 0 0 0 0 0 0 0 0 0 0 0 0 0 0 0 0 0 0 0 0 0 0 0 0 0 0 0 0 0 
0 0 0 108 88 150 99 81 138 82 67 115 72 58 99 80 66 112 85 69 118 123 104 159 
132 115 164 134 117 165 0 0 0 0 0 0 0 0 0 0 0 0 0 0 0 0 0 0 0 0 0 0 0 0 0 0 0 
0 0 0 0 0 0 0 0 0 0 0 0 0 0 0 0 0 0 0 0 0 0 0 0 0 0 0 0 0 0 0 0 0 0 0 0 0 0 0 
0 0 0 0 0 0 0 0 0 0 0 0 0 0 0 0 0 0 0 0 0 0 0 0 0 0 0 0 0 0 0 0 0 108 88 150 
86 70 119 67 55 94 67 55 93 71 58 99 108 88 150 125 107 160 133 116 165 
120 101 157 0 0 0 0 0 0 0 0 0 0 0 0 0 0 0 0 0 0 0 0 0 0 0 0 0 0 0 0 0 0 0 0 0 
0 0 0 0 0 0 108 88 150 92 75 127 66 54 92 66 54 92 74 60 103 80 65 111 
120 102 157 133 116 164 132 115 164 255 254 236 0 0 0 0 0 0 0 0 0 0 0 0 0 0 0 
0 0 0 0 0 0 0 0 0 0 0 0 0 0 0 0 0 0 0 0 0 0 0 0 0 0 0 0 0 0 0 0 0 0 0 0 0 0 0 
0 0 0 0 0 0 0 0 0 0 0 0 0 0 0 0 0 0 0 0 0 0 0 0 0 0 0 0 0 0 0 0 0 0 0 0 0 0 0 
0 0 0 108 88 150 91 74 127 69 56 96 67 55 93 81 66 112 123 105 159 133 116 164 
131 114 163 108 88 150 0 0 0 0 0 0 0 0 0 0 0 0 0 0 0 0 0 0 0 0 0 0 0 0 0 0 0 
0 0 0 0 0 0 0 0 0 0 0 0 93 76 129 85 69 118 67 54 92 66 53 91 68 55 95 
95 77 132 133 116 165 134 117 165 149 135 174 0 0 0 0 0 0 0 0 0 0 0 0 0 0 0 
0 0 0 0 0 0 0 0 0 0 0 0 0 0 0 0 0 0 0 0 0 0 0 0 0 0 0 0 0 0 0 0 0 0 0 0 0 0 0 
0 0 0 0 0 0 0 0 0 0 0 0 0 0 0 0 0 0 0 0 0 0 0 0 0 0 0 0 0 0 0 0 0 0 0 0 0 0 0 
0 0 0 0 0 0 108 88 150 102 83 141 73 60 101 68 55 94 86 70 120 113 93 153 
131 114 164 112 93 153 0 0 0 0 0 0 0 0 0 0 0 0 0 0 0 0 0 0 0 0 0 0 0 0 0 0 0 
0 0 0 0 0 0 0 0 0 0 0 0 0 0 0 84 68 116 71 58 99 66 54 92 68 55 94 89 75 117 
128 110 162 130 113 163 133 116 164 255 254 236 0 0 0 0 0 0 0 0 0 0 0 0 0 0 0 
0 0 0 0 0 0 0 0 0 0 0 0 0 0 0 0 0 0 0 0 0 0 0 0 0 0 0 0 0 0 0 0 0 0 0 0 0 0 0 
0 0 0 0 0 0 0 0 0 0 0 0 0 0 0 0 0 0 0 0 0 0 0 0 0 0 0 0 0 0 0 0 0 0 0 0 0 0 0 
0 0 0 0 0 0 108 88 150 107 87 148 68 55 94 65 53 90 75 61 103 121 102 157 
129 111 162 112 92 152 0 0 0 0 0 0 0 0 0 0 0 0 0 0 0 0 0 0 0 0 0 0 0 0 0 0 0 
0 0 0 0 0 0 0 0 0 0 0 0 0 0 0 87 71 121 69 56 96 69 56 95 94 76 130 127 109 161 
132 116 164 132 115 164 113 94 153 0 0 0 0 0 0 0 0 0 0 0 0 0 0 0 0 0 0 0 0 0 
0 0 0 0 0 0 0 0 0 0 0 0 0 0 0 0 0 0 0 0 0 0 0 0 0 0 0 0 0 0 0 0 0 0 0 0 0 0 0 
0 0 0 0 0 0 0 0 0 0 0 0 0 0 0 0 0 0 0 0 0 0 0 0 0 0 0 0 0 0 0 0 0 0 0 0 0 0 0 
0 0 0 0 0 0 103 86 70 86 71 78 66 53 91 76 62 106 117 99 156 132 115 164 
108 88 150 0 0 0 0 0 0 0 0 0 0 0 0 0 0 0 0 0 0 0 0 0 0 0 0 0 0 0 0 0 0 0 0 0 
0 0 0 0 0 0 0 0 0 87 70 120 75 61 103 94 80 119 132 115 163 129 111 162 
129 112 162 109 89 150 0 0 0 0 0 0 0 0 0 0 0 0 0 0 0 0 0 0 0 0 0 0 0 0 0 0 0 
0 0 0 0 0 0 0 0 0 0 0 0 0 0 0 0 0 0 0 0 0 0 0 0 0 0 0 0 0 0 0 0 0 0 0 0 0 0 0 
0 0 0 0 0 0 0 0 0 0 0 0 0 0 0 0 0 0 0 0 0 0 0 0 0 0 0 0 0 0 0 0 0 0 0 0 0 0 0 
0 0 0 122 102 36 102 85 30 55 44 77 91 73 125 118 100 156 129 112 162 
112 93 153 0 0 0 0 0 0 0 0 0 0 0 0 0 0 0 0 0 0 0 0 0 0 0 0 0 0 0 0 0 0 0 0 0 
0 0 0 0 0 0 0 0 0 69 56 96 93 80 119 98 86 121 92 78 121 112 93 152 108 88 150 
108 88 150 0 0 0 0 0 0 0 0 0 0 0 0 0 0 0 0 0 0 0 0 0 0 0 0 0 0 0 0 0 0 0 0 0 
0 0 0 0 0 0 0 0 0 0 0 0 0 0 0 0 0 0 0 0 0 0 0 0 0 0 0 0 0 0 0 0 0 0 0 0 0 0 0 
0 0 0 0 0 0 0 0 0 0 0 0 0 0 0 0 0 0 0 0 0 0 0 0 0 0 0 0 0 0 0 0 0 0 0 0 108 90 32 
104 87 31 105 88 31 149 124 57 173 150 95 135 119 166 168 156 185 0 0 0 0 0 0 
0 0 0 0 0 0 0 0 0 0 0 0 0 0 0 0 0 0 0 0 0 0 0 0 0 0 0 0 0 0 124 104 37 
106 89 32 107 89 32 115 96 36 97 82 126 139 123 168 174 162 175 193 181 173 
255 254 236 255 254 236 255 254 236 255 254 236 255 254 236 0 0 0 0 0 0 0 0 0 
0 0 0 0 0 0 0 0 0 0 0 0 0 0 0 0 0 0 0 0 0 0 0 0 0 0 0 0 0 0 0 0 0 0 0 0 0 0 0 
0 0 0 0 0 0 0 0 0 0 0 0 0 0 0 0 0 0 0 0 0 0 0 0 0 0 0 0 0 0 0 0 0 0 0 0 0 0 0 
0 0 0 0 0 0 0 0 0 113 95 34 118 99 35 111 93 34 110 92 33 153 130 55 
185 162 84 255 254 236 255 254 236 0 0 0 0 0 0 0 0 0 0 0 0 0 0 0 0 0 0 0 0 0 
0 0 0 0 0 0 0 0 0 0 0 0 117 97 35 98 82 29 80 67 24 102 85 30 147 123 44 
175 149 62 188 165 90 191 169 95 192 171 99 195 175 107 187 164 88 188 166 90 
188 165 90 211 196 140 0 0 0 0 0 0 0 0 0 0 0 0 0 0 0 0 0 0 0 0 0 0 0 0 0 0 0 
0 0 0 0 0 0 0 0 0 0 0 0 0 0 0 0 0 0 0 0 0 0 0 0 0 0 0 0 0 0 0 0 0 0 0 0 0 0 0 
0 0 0 0 0 0 0 0 0 0 0 0 0 0 0 0 0 0 0 0 0 0 0 0 116 97 35 136 114 41 
104 87 31 103 87 31 85 71 25 123 103 37 184 161 82 190 169 96 255 254 236 
0 0 0 0 0 0 0 0 0 0 0 0 0 0 0 0 0 0 0 0 0 0 0 0 0 0 0 0 0 0 0 0 0 142 118 42 
108 89 32 92 76 27 89 75 27 93 78 28 120 101 37 167 139 50 172 145 56 
181 156 74 183 158 78 183 159 79 185 162 84 178 153 69 175 148 61 170 142 51 
0 0 0 0 0 0 0 0 0 0 0 0 0 0 0 0 0 0 0 0 0 0 0 0 0 0 0 0 0 0 0 0 0 0 0 0 0 0 0 
0 0 0 0 0 0 0 0 0 0 0 0 0 0 0 0 0 0 0 0 0 0 0 0 0 0 0 0 0 0 0 0 0 0 0 0 0 0 0 
0 0 0 0 0 0 124 103 37 115 96 35 124 104 37 114 96 34 141 118 42 161 134 48 
170 142 51 173 146 57 184 161 82 184 160 81 170 142 51 170 142 51 0 0 0 0 0 0 
0 0 0 0 0 0 0 0 0 0 0 0 0 0 0 0 0 0 0 0 0 170 142 51 151 126 46 121 101 36 
106 89 32 101 84 30 110 93 33 111 92 33 131 109 39 156 130 47 170 142 51 
170 142 51 179 154 70 170 142 51 170 142 51 170 142 51 0 0 0 0 0 0 0 0 0 0 0 0 
0 0 0 0 0 0 0 0 0 0 0 0 0 0 0 0 0 0 0 0 0 0 0 0 0 0 0 0 0 0 0 0 0 0 0 0 0 0 0 
0 0 0 0 0 0 0 0 0 0 0 0 0 0 0 0 0 0 0 0 0 0 0 0 0 0 0 0 0 0 0 0 0 170 142 51 
163 136 49 170 142 51 170 142 51 170 142 51 170 142 51 170 142 51 170 142 52 
190 168 94 184 160 81 177 151 66 170 142 51 170 142 51 0 0 0 0 0 0 0 0 0 0 0 0 
0 0 0 0 0 0 0 0 0 0 0 0 0 0 0 0 0 0 0 0 0 0 0 0 0 0 0 0 0 0 168 140 50 
160 134 48 160 134 48 170 142 51 170 142 51 170 142 51 170 142 51 170 142 51 
0 0 0 0 0 0 0 0 0 0 0 0 0 0 0 0 0 0 0 0 0 0 0 0 0 0 0 0 0 0 0 0 0 0 0 0 0 0 0 
0 0 0 
