P3
64 64
255
0 0 0 0 0 0 0 0 0 0 0 0 0 0 0 0 0 0 0 0 0 0 0 0 0 0 0 0 0 0 0 0 0 0 0 0 0 0 0 
0 0 0 0 0 0 0 0 0 0 0 0 0 0 0 0 0 0 0 0 0 0 0 0 0 0 0 0 0 0 0 0 0 0 0 0 0 0 0 
0 0 0 0 0 0 0 0 0 0 0 0 0 0 0 0 0 0 0 0 0 0 0 0 0 0 0 0 0 0 0 0 0 0 0 0 0 0 0 
0 0 0 0 0 0 0 0 0 0 0 0 0 0 0 0 0 0 0 0 0 0 0 0 0 0 0 0 0 0 0 0 0 0 0 0 0 0 0 
0 0 0 0 0 0 0 0 0 0 0 0 0 0 0 0 0 0 0 0 0 0 0 0 0 0 0 0 0 0 0 0 0 0 0 0 0 0 0 
0 0 0 0 0 0 0 0 0 0 0 0 0 0 0 0 0 0 0 0 0 0 0 0 0 0 0 0 0 0 0 0 0 0 0 0 0 0 0 
0 0 0 0 0 0 0 0 0 0 0 0 0 0 0 0 0 0 0 0 0 0 0 0 0 0 0 0 0 0 0 0 0 0 0 0 0 0 0 
0 0 0 0 0 0 0 0 0 0 0 0 0 0 0 0 0 0 0 0 0 0 0 0 0 0 0 0 0 0 0 0 0 0 0 0 0 0 0 
0 0 0 0 0 0 0 0 0 0 0 0 0 0 0 0 0 0 0 0 0 0 0 0 0 0 0 0 0 0 0 0 0 0 0 0 0 0 0 
0 0 0 0 0 0 0 0 0 0 0 0 0 0 0 0 0 0 0 0 0 0 0 0 0 0 0 0 0 0 0 0 0 0 0 0 0 0 0 
0 0 0 0 0 0 0 0 0 0 0 0 0 0 0 0 0 0 0 0 0 0 0 0 0 0 0 0 0 0 0 0 0 0 0 0 0 0 0 
0 0 0 0 0 0 0 0 0 0 0 0 0 0 0 0 0 0 0 0 0 0 0 0 0 0 0 0 0 0 0 0 0 0 0 0 0 0 0 
0 0 0 0 0 0 0 0 0 0 0 0 0 0 0 0 0 0 0 0 0 0 0 0 0 0 0 0 0 0 0 0 0 0 0 0 0 0 0 
0 0 0 0 0 0 0 0 0 0 0 0 0 0 0 0 0 0 0 0 0 0 0 0 0 0 0 0 0 0 0 0 0 0 0 0 0 0 0 
0 0 0 0 0 0 0 0 0 0 0 0 0 0 0 0 0 0 0 0 0 0 0 0 0 0 0 0 0 0 0 0 0 0 0 0 0 0 0 
0 0 0 0 0 0 0 0 0 0 0 0 0 0 0 0 0 0 0 0 0 0 0 0 0 0 0 0 0 0 0 0 0 0 0 0 0 0 0 
0 0 0 0 0 0 0 0 0 0 0 0 0 0 0 0 0 0 0 0 0 0 0 0 0 0 0 0 0 0 0 0 0 0 0 0 0 0 0 
0 0 0 0 0 0 0 0 0 0 0 0 0 0 0 0 0 0 0 0 0 0 0 0 0 0 0 0 0 0 0 0 0 0 0 0 0 0 0 
0 0 0 0 0 0 0 0 0 0 0 0 0 0 0 0 0 0 0 0 0 0 0 0 0 0 0 0 0 0 0 0 0 0 0 0 0 0 0 
0 0 0 0 0 0 0 0 0 0 0 0 0 0 0 0 0 0 0 0 0 0 0 0 0 0 0 0 0 0 0 0 0 0 0 0 0 0 0 
0 0 0 0 0 0 0 0 0 0 0 0 0 0 0 0 0 0 0 0 0 0 0 0 0 0 0 0 0 0 0 0 0 0 0 0 0 0 0 
0 0 0 0 0 0 0 0 0 0 0 0 0 0 0 0 0 0 0 0 0 0 0 0 0 0 0 0 0 0 0 0 0 0 0 0 0 0 0 
0 0 0 0 0 0 0 0 0 0 0 0 255 43 0 255 43 0 255 43 0 0 0 0 0 0 0 0 0 0 0 0 0 
0 0 0 0 0 0 0 0 0 0 0 0 0 0 0 0 0 0 0 0 0 0 0 0 0 0 0 0 0 0 0 0 0 0 0 0 0 0 0 
0 0 0 0 0 0 0 0 0 0 0 0 0 0 0 0 0 0 0 0 0 0 0 0 0 0 0 0 0 0 0 0 0 0 0 0 0 0 0 
0 0 0 0 0 0 0 0 0 0 0 0 0 0 0 0 0 0 0 0 0 0 0 0 0 0 0 0 0 0 0 0 0 0 0 0 0 0 0 
0 0 0 0 0 0 0 0 0 0 0 0 0 0 0 0 0 0 0 0 0 0 0 0 0 0 0 0 0 0 0 0 0 0 0 0 0 0 0 
0 0 0 0 0 0 255 43 0 255 43 0 255 43 0 255 43 0 255 43 0 255 43 0 0 0 0 0 0 0 
0 0 0 0 0 0 0 0 0 0 0 0 0 0 0 0 0 0 0 0 0 0 0 0 0 0 0 0 0 0 0 0 0 0 0 0 0 0 0 
0 0 0 0 0 0 0 0 0 0 0 0 0 0 0 0 0 0 0 0 0 0 0 0 0 0 0 0 0 0 0 0 0 0 0 0 0 0 0 
0 0 0 0 0 0 0 0 0 0 0 0 0 0 0 0 0 0 0 0 0 0 0 0 0 0 0 0 0 0 0 0 0 0 0 0 0 0 0 
0 0 0 0 0 0 0 0 0 0 0 0 0 0 0 0 0 0 0 0 0 187 165 92 188 165 94 188 166 95 
189 167 97 189 167 96 196 176 113 196 177 115 191 170 102 192 172 105 
184 161 85 180 130 45 234 68 13 255 43 0 0 0 0 0 0 0 255 43 0 255 43 0 
255 43 0 255 43 0 255 43 0 0 0 0 0 0 0 0 0 0 0 0 0 0 0 0 0 0 0 0 0 0 0 0 0 
0 0 0 0 0 0 0 0 0 0 0 0 0 0 0 0 0 0 0 0 0 0 0 0 0 0 0 0 0 0 0 0 0 0 0 0 0 0 0 
0 0 0 0 0 0 0 0 0 0 0 0 0 0 0 0 0 0 0 0 0 0 0 0 0 0 0 0 0 0 0 0 0 0 0 0 0 0 0 
0 0 0 0 0 0 0 0 0 0 0 0 0 0 0 0 0 0 0 0 0 0 0 0 0 0 0 0 0 0 91 76 27 118 99 35 
110 91 33 115 96 34 146 122 44 162 135 49 164 137 49 170 142 51 171 143 53 
188 166 95 193 173 107 190 169 100 185 162 88 175 148 62 166 113 59 180 108 45 
199 91 33 198 93 34 199 92 34 255 43 0 0 0 0 39 113 24 39 113 24 39 113 24 
39 113 24 0 0 0 0 0 0 0 0 0 0 0 0 0 0 0 0 0 0 0 0 0 0 0 0 0 0 0 0 0 0 0 0 0 
0 0 0 0 0 0 0 0 0 0 0 0 0 0 0 0 0 0 0 0 0 0 0 0 0 0 0 0 0 0 0 0 0 0 0 0 0 0 0 
0 0 0 0 0 0 0 0 0 0 0 0 0 0 0 0 0 0 0 0 0 0 0 0 0 0 0 0 0 0 0 0 0 0 0 0 0 0 0 
0 0 0 0 0 0 0 0 0 170 142 51 162 135 48 127 106 38 112 94 34 107 89 32 
108 90 32 114 96 34 156 130 47 163 136 49 170 142 51 176 150 65 186 164 91 
192 172 106 150 100 88 154 106 95 153 103 82 170 117 52 170 117 51 175 125 63 
185 141 87 76 114 32 39 113 24 39 113 24 39 113 24 0 0 0 0 0 0 0 0 0 0 0 0 
0 0 0 0 0 0 0 0 0 0 0 0 0 0 0 0 0 0 0 0 0 0 0 0 0 0 0 0 0 0 0 0 0 0 0 0 0 0 0 
0 0 0 0 0 0 0 0 0 0 0 0 0 0 0 0 0 0 0 0 0 0 0 0 0 0 0 0 0 0 0 0 0 0 0 0 0 0 0 
0 0 0 0 0 0 0 0 0 0 0 0 0 0 0 0 0 0 0 0 0 0 0 0 0 0 0 0 0 0 0 0 0 0 0 0 170 142 51 
170 142 51 131 110 39 125 104 37 162 135 49 170 142 51 166 138 50 170 142 51 
170 142 51 170 142 51 162 125 66 150 100 88 159 113 102 167 125 115 
183 149 142 175 137 127 174 123 61 180 134 76 192 153 104 204 125 76 
203 95 40 223 71 19 0 0 0 0 0 0 0 0 0 0 0 0 0 0 0 0 0 0 0 0 0 0 0 0 0 0 0 
0 0 0 0 0 0 0 0 0 0 0 0 0 0 0 0 0 0 0 0 0 0 0 0 0 0 0 0 0 0 0 0 0 0 0 0 0 0 0 
0 0 0 0 0 0 0 0 0 0 0 0 0 0 0 0 0 0 0 0 0 0 0 0 0 0 0 0 0 0 0 0 0 0 0 0 0 0 0 
0 0 0 0 0 0 0 0 0 0 0 0 0 0 0 0 0 0 0 0 0 170 142 51 170 142 51 170 142 51 
170 142 51 170 142 51 170 142 51 170 142 51 170 142 51 170 142 51 170 142 51 
161 124 67 150 100 88 150 100 88 150 100 88 155 107 96 180 145 136 190 160 152 
198 171 164 181 135 78 201 104 49 211 117 69 210 113 64 177 129 68 0 0 0 0 0 0 
0 0 0 0 0 0 0 0 0 0 0 0 0 0 0 0 0 0 0 0 0 0 0 0 0 0 0 0 0 0 0 0 0 0 0 0 0 0 0 
0 0 0 0 0 0 0 0 0 0 0 0 0 0 0 0 0 0 0 0 0 0 0 0 0 0 0 0 0 0 0 0 0 0 0 0 0 0 0 
0 0 0 0 0 0 0 0 0 0 0 0 0 0 0 0 0 0 0 0 0 0 0 0 0 0 0 0 0 0 0 0 0 0 0 0 0 0 0 
163 137 49 150 125 45 149 124 45 131 109 39 123 103 37 174 91 28 132 111 39 
127 106 38 107 89 32 93 66 28 110 74 65 130 87 76 150 100 88 150 100 88 
150 100 88 150 100 88 153 105 94 176 140 131 193 163 156 192 142 128 
200 104 49 205 111 60 188 147 95 183 139 83 253 253 253 0 0 0 0 0 0 0 0 0 
0 0 0 0 0 0 0 0 0 0 0 0 0 0 0 0 0 0 0 0 0 0 0 0 0 0 0 0 0 0 0 0 0 0 0 0 0 0 0 
0 0 0 0 0 0 0 0 0 0 0 0 0 0 0 0 0 0 0 0 0 0 0 0 0 0 0 0 0 0 0 0 0 0 0 0 0 0 0 
0 0 0 0 0 0 0 0 0 0 0 0 0 0 0 0 0 0 0 0 0 0 0 0 0 0 0 0 0 0 0 0 0 0 0 0 0 0 0 
170 117 51 152 104 46 150 82 33 134 92 40 170 117 51 170 90 35 174 78 28 
153 56 36 118 60 47 94 63 55 104 69 61 117 78 69 150 100 88 150 100 88 
150 100 88 152 103 91 173 134 124 184 150 142 181 144 127 182 137 80 
187 145 93 196 160 115 253 253 253 0 0 0 0 0 0 0 0 0 0 0 0 0 0 0 0 0 0 0 0 0 
0 0 0 0 0 0 0 0 0 0 0 0 0 0 0 0 0 0 0 0 0 0 0 0 0 0 0 0 0 0 0 0 0 0 0 0 0 0 0 
0 0 0 0 0 0 0 0 0 0 0 0 0 0 0 0 0 0 0 0 0 0 0 0 0 0 0 0 0 0 0 0 0 0 0 0 0 0 0 
0 0 0 0 0 0 0 0 0 0 0 0 0 0 0 0 0 0 0 0 0 114 78 34 146 100 44 160 87 35 
158 66 23 143 99 43 156 107 47 149 103 45 191 91 34 189 87 32 112 65 51 
99 66 58 100 66 58 102 68 60 112 75 66 142 95 83 150 100 88 150 100 88 
150 100 88 168 127 117 176 139 130 168 127 117 152 103 88 170 117 51 
0 0 0 0 0 0 0 0 0 0 0 0 0 0 0 0 0 0 0 0 0 0 0 0 0 0 0 0 0 0 0 0 0 0 0 0 0 0 0 
0 0 0 0 0 0 0 0 0 0 0 0 0 0 0 0 0 0 0 0 0 0 0 0 0 0 0 0 0 0 0 0 0 0 0 0 0 0 0 
0 0 0 0 0 0 0 0 0 0 0 0 0 0 0 0 0 0 0 0 0 0 0 0 0 0 0 0 0 0 0 0 0 0 0 0 0 0 0 
0 0 0 0 0 0 114 79 34 146 75 29 186 85 31 166 75 27 131 90 39 155 107 46 
144 99 43 174 114 49 197 97 33 170 130 47 147 101 44 112 75 60 98 66 58 
103 69 61 109 73 64 112 75 66 137 91 80 150 100 88 150 100 88 154 107 95 
169 129 119 175 138 129 171 131 122 150 100 88 0 0 0 0 0 0 0 0 0 0 0 0 0 0 0 
0 0 0 0 0 0 0 0 0 0 0 0 0 0 0 0 0 0 0 0 0 0 0 0 0 0 0 0 0 0 0 0 0 0 0 0 0 0 0 
0 0 0 0 0 0 0 0 0 0 0 0 0 0 0 0 0 0 0 0 0 0 0 0 0 0 0 0 0 0 0 0 0 0 0 0 0 0 0 
0 0 0 0 0 0 0 0 0 0 0 0 0 0 0 0 0 0 0 0 0 0 0 0 170 117 51 139 95 42 135 63 23 
163 70 25 176 79 28 179 104 43 169 116 51 135 93 40 170 88 44 184 58 31 
170 152 40 170 117 51 157 108 47 159 109 59 112 75 66 104 69 61 106 71 62 
113 75 66 150 100 88 150 100 88 150 100 88 150 100 88 157 110 99 173 133 124 
165 123 113 171 131 121 0 0 0 0 0 0 0 0 0 0 0 0 0 0 0 0 0 0 0 0 0 0 0 0 0 0 0 
0 0 0 0 0 0 0 0 0 0 0 0 253 253 253 182 158 81 0 0 0 0 0 0 0 0 0 0 0 0 0 0 0 
0 0 0 0 0 0 0 0 0 0 0 0 0 0 0 0 0 0 0 0 0 0 0 0 0 0 0 0 0 0 0 0 0 0 0 0 0 0 0 
0 0 0 0 0 0 0 0 0 0 0 0 0 0 0 127 88 38 142 97 42 131 80 33 177 74 26 
189 102 33 170 117 51 170 117 51 132 91 39 170 97 46 170 60 37 170 154 39 
170 117 51 133 92 40 130 89 39 197 93 35 158 67 45 96 64 56 103 69 60 
115 77 67 138 92 81 150 100 88 150 100 88 150 100 88 150 100 88 150 100 88 
159 95 81 181 99 81 253 253 253 0 0 0 0 0 0 0 0 0 0 0 0 0 0 0 0 0 0 0 0 0 
0 0 0 0 0 0 0 0 0 0 0 0 232 225 202 179 154 73 186 164 90 196 177 115 
199 180 121 198 179 119 196 176 113 193 173 108 253 253 253 253 253 253 
253 253 253 0 0 0 0 0 0 0 0 0 0 0 0 0 0 0 0 0 0 0 0 0 0 0 0 0 0 0 0 0 0 0 0 0 
0 0 0 0 0 0 0 0 0 132 91 40 120 82 36 128 88 38 170 59 37 170 61 37 170 117 51 
170 117 51 117 81 35 170 117 51 170 129 47 170 138 45 170 117 51 142 98 43 
124 73 30 197 93 35 197 94 35 145 96 85 89 60 52 98 65 58 100 67 59 135 90 79 
150 100 88 150 100 88 150 100 88 150 100 88 170 89 71 192 96 74 203 113 94 
253 253 253 0 0 0 0 0 0 0 0 0 0 0 0 0 0 0 0 0 0 0 0 0 0 0 0 0 0 0 0 0 0 150 125 45 
166 138 50 152 128 48 161 140 69 177 156 84 185 162 88 187 165 93 182 158 80 
183 160 83 183 159 82 186 162 94 152 103 92 150 100 88 150 100 88 0 0 0 0 0 0 
0 0 0 0 0 0 0 0 0 0 0 0 0 0 0 0 0 0 0 0 0 0 0 0 0 0 0 132 91 40 128 88 38 
114 78 34 147 127 37 154 130 38 147 101 44 170 135 38 170 59 37 151 67 37 
170 123 49 170 118 51 170 117 51 166 124 47 166 60 37 185 59 31 198 53 25 
187 57 30 124 69 58 101 67 59 101 67 59 135 63 47 162 71 51 167 91 74 
172 88 69 150 100 88 174 87 68 183 82 60 188 87 64 208 107 85 254 120 93 
0 0 0 0 0 0 0 0 0 0 0 0 0 0 0 0 0 0 0 0 0 0 0 0 0 0 0 120 100 36 98 81 29 
112 93 34 98 82 29 109 91 33 113 94 34 128 107 38 170 142 51 179 154 72 
191 170 101 190 169 100 194 173 114 175 137 128 156 109 97 150 100 88 
150 100 88 150 100 88 150 100 88 0 0 0 0 0 0 0 0 0 0 0 0 0 0 0 0 0 0 0 0 0 
106 73 32 123 84 37 131 90 39 132 91 39 156 108 47 147 101 44 153 123 41 
169 134 38 129 85 32 138 98 41 170 117 51 170 72 40 170 73 37 170 92 37 
170 59 37 194 55 27 197 67 26 179 82 40 147 58 39 144 56 37 153 62 42 
155 63 44 179 79 58 179 84 64 182 83 61 178 85 65 171 89 70 163 119 108 
170 108 94 170 130 121 253 253 253 0 0 0 0 0 0 0 0 0 0 0 0 0 0 0 0 0 0 0 0 0 
0 0 0 0 0 0 0 0 0 0 0 0 0 0 0 145 121 44 137 114 41 162 135 48 170 142 51 
170 142 51 169 141 51 131 110 39 156 130 47 151 102 90 159 113 102 161 116 106 
164 120 110 170 130 120 154 107 95 150 100 88 136 90 80 112 75 66 117 78 69 
126 84 74 130 86 76 0 0 0 0 0 0 120 83 36 120 82 36 119 82 36 121 83 36 
118 73 31 158 95 39 167 117 49 164 123 46 140 100 35 170 59 37 170 59 37 
170 59 37 170 96 40 156 71 26 155 90 37 174 113 48 172 110 45 125 61 48 
142 55 36 136 53 35 153 83 67 135 84 72 150 100 88 150 100 88 150 100 88 
150 100 88 150 100 88 170 130 121 177 141 132 253 253 253 253 253 253 
0 0 0 0 0 0 0 0 0 0 0 0 0 0 0 0 0 0 0 0 0 0 0 0 0 0 0 170 142 51 170 142 51 
170 142 51 170 142 51 165 138 49 170 142 51 163 136 49 131 109 39 130 109 39 
129 108 39 106 71 62 105 71 62 118 79 69 137 92 80 150 100 88 150 100 88 
150 100 88 150 100 88 160 114 103 151 104 93 105 71 62 108 72 63 119 79 70 
112 75 66 92 60 54 68 45 39 87 60 31 156 108 36 199 78 23 182 90 31 168 107 37 
170 107 37 167 89 36 170 59 37 170 59 37 170 61 37 170 98 46 154 73 29 
173 78 36 189 93 44 148 87 68 97 65 57 93 62 54 110 73 64 129 86 75 150 100 88 
150 100 88 150 100 88 150 100 88 150 100 88 164 121 110 171 132 122 
169 128 118 253 253 253 253 253 253 0 0 0 0 0 0 0 0 0 0 0 0 0 0 0 0 0 0 0 0 0 
0 0 0 0 0 0 170 142 51 170 142 51 170 142 51 147 123 44 145 121 43 142 119 43 
151 126 45 144 120 43 142 118 42 131 99 55 133 89 78 125 84 73 119 79 70 
96 64 57 89 59 52 99 66 58 121 81 71 148 99 87 150 100 88 160 115 105 
162 118 107 141 99 89 99 66 58 102 68 60 86 56 51 60 40 35 43 29 22 49 33 14 
152 69 19 158 85 25 141 89 34 158 114 36 167 119 37 161 130 36 154 99 36 
124 89 36 143 98 43 121 81 57 115 72 62 147 68 51 151 62 42 153 65 46 
125 69 56 115 77 67 117 78 69 148 99 87 150 100 88 150 100 88 164 92 76 
181 83 62 192 96 75 189 100 80 189 106 88 254 110 81 253 253 253 0 0 0 0 0 0 
0 0 0 0 0 0 0 0 0 0 0 0 0 0 0 0 0 0 0 0 0 0 0 0 0 0 0 0 0 0 170 142 51 
0 0 0 0 0 0 0 0 0 0 0 0 0 0 0 150 100 88 104 69 61 102 68 60 97 64 57 109 73 64 
106 71 62 123 83 73 112 75 66 95 63 56 106 70 62 147 98 86 150 100 88 
158 112 100 162 121 111 154 119 110 117 82 73 84 57 49 89 59 52 60 40 34 
54 31 17 110 35 10 128 56 20 91 63 27 91 62 27 133 92 40 113 81 34 126 88 38 
125 86 38 123 83 64 103 69 60 97 65 57 80 51 44 121 54 39 151 61 42 165 71 51 
179 79 58 179 84 63 171 88 70 181 83 62 183 82 60 181 83 62 158 98 84 
184 101 82 188 102 84 254 116 88 253 253 253 0 0 0 0 0 0 0 0 0 0 0 0 0 0 0 
0 0 0 0 0 0 0 0 0 0 0 0 0 0 0 0 0 0 0 0 0 0 0 0 0 0 0 0 0 0 0 0 0 0 0 0 0 0 0 
150 100 88 150 100 88 0 0 0 0 0 0 149 100 88 149 99 87 126 84 74 118 79 69 
102 68 60 80 53 46 64 43 38 79 53 47 112 75 66 148 98 86 155 107 96 118 83 76 
88 59 51 94 62 54 105 70 62 101 68 60 81 49 42 115 43 28 132 48 26 117 51 18 
101 54 22 79 54 24 94 65 29 81 56 24 118 88 43 97 65 57 100 66 59 100 66 58 
98 66 57 108 72 63 130 73 60 159 95 80 178 85 65 183 82 60 168 90 73 170 89 71 
150 100 88 150 100 88 169 128 118 172 133 124 253 253 253 253 253 253 
0 0 0 0 0 0 0 0 0 0 0 0 0 0 0 0 0 0 0 0 0 0 0 0 0 0 0 0 0 0 0 0 0 0 0 0 0 0 0 
0 0 0 0 0 0 0 0 0 0 0 0 0 0 0 0 0 0 0 0 0 0 0 0 0 0 0 0 0 0 0 0 0 0 0 0 150 100 88 
150 100 88 127 85 74 110 73 65 93 61 54 71 48 42 92 61 54 105 70 62 104 70 61 
97 64 57 89 60 52 93 62 55 102 68 60 79 53 46 68 45 39 87 36 25 136 69 21 
151 74 22 160 81 24 163 92 29 91 75 27 79 66 23 95 76 34 99 66 58 88 59 51 
101 67 59 111 74 65 121 81 71 150 100 88 150 100 88 150 100 88 150 100 88 
150 100 88 150 100 88 166 124 114 166 124 114 157 111 100 253 253 253 
253 253 253 0 0 0 0 0 0 0 0 0 0 0 0 0 0 0 0 0 0 0 0 0 0 0 0 0 0 0 0 0 0 0 0 0 
0 0 0 0 0 0 0 0 0 0 0 0 0 0 0 0 0 0 0 0 0 0 0 0 0 0 0 0 0 0 0 0 0 0 0 0 0 0 0 
0 0 0 0 0 0 0 0 0 0 0 0 150 100 88 121 81 71 116 77 68 112 75 66 109 73 64 
109 72 64 91 61 53 97 64 57 83 55 49 82 54 48 98 66 58 122 81 71 124 84 69 
121 100 36 170 142 51 184 126 43 195 113 36 191 108 34 122 89 32 98 82 29 
78 56 38 97 65 57 110 73 64 125 83 73 118 79 69 121 81 71 150 100 88 
150 100 88 150 100 88 150 100 88 153 105 93 171 131 121 169 128 118 
253 253 253 253 253 253 253 253 253 0 0 0 0 0 0 0 0 0 0 0 0 0 0 0 0 0 0 0 0 0 
0 0 0 0 0 0 0 0 0 0 0 0 0 0 0 0 0 0 0 0 0 0 0 0 0 0 0 0 0 0 0 0 0 0 0 0 0 0 0 
0 0 0 0 0 0 0 0 0 0 0 0 0 0 0 0 0 0 0 0 0 0 0 0 0 0 0 0 0 0 150 100 88 
141 94 83 111 74 65 111 74 65 108 72 63 104 70 61 90 60 53 106 70 62 114 76 67 
113 75 66 130 103 49 154 129 46 170 142 51 170 142 51 170 142 51 188 121 40 
167 99 32 102 85 31 96 65 55 107 72 63 119 80 70 119 79 70 124 83 73 145 97 85 
150 100 88 150 100 88 150 100 88 154 106 94 168 126 117 172 133 124 
174 135 126 253 253 253 0 0 0 0 0 0 0 0 0 0 0 0 0 0 0 0 0 0 0 0 0 0 0 0 0 0 0 
0 0 0 0 0 0 0 0 0 0 0 0 0 0 0 0 0 0 0 0 0 0 0 0 0 0 0 0 0 0 0 0 0 0 0 0 0 0 0 
0 0 0 0 0 0 0 0 0 0 0 0 0 0 0 0 0 0 0 0 0 0 0 0 0 0 0 0 0 0 0 0 0 150 100 88 
150 100 88 122 82 72 116 77 68 106 70 62 107 71 63 111 74 65 130 87 76 
111 77 60 156 130 46 170 142 51 170 142 51 170 142 51 170 142 51 151 126 45 
130 108 39 114 95 35 98 67 56 121 72 60 145 69 52 147 70 53 161 72 52 
183 82 60 183 82 61 172 88 69 150 100 88 165 122 112 172 133 124 164 120 110 
176 139 130 0 0 0 0 0 0 0 0 0 0 0 0 0 0 0 0 0 0 0 0 0 0 0 0 0 0 0 0 0 0 0 0 0 
0 0 0 0 0 0 0 0 0 0 0 0 0 0 0 0 0 0 0 0 0 0 0 0 0 0 0 0 0 0 0 0 0 0 0 0 0 0 0 
0 0 0 0 0 0 0 0 0 0 0 0 0 0 0 0 0 0 0 0 0 0 0 0 0 0 0 0 0 0 150 100 88 
150 100 88 148 99 87 117 78 69 122 81 72 120 80 70 115 77 68 111 74 65 
124 90 60 144 120 43 150 125 45 170 142 51 170 142 51 165 138 49 127 106 38 
131 110 39 116 97 35 83 57 46 127 74 62 157 71 52 156 69 51 162 78 61 
154 98 85 161 94 78 179 84 63 189 93 73 197 106 87 193 98 78 196 103 84 
153 105 93 0 0 0 0 0 0 0 0 0 0 0 0 0 0 0 0 0 0 0 0 0 0 0 0 0 0 0 0 0 0 0 0 0 
0 0 0 0 0 0 0 0 0 0 0 0 0 0 0 0 0 0 0 0 0 0 0 0 0 0 0 0 0 0 0 0 0 0 0 0 0 0 0 
0 0 0 0 0 0 0 0 0 0 0 0 0 0 0 0 0 0 0 0 0 0 0 0 0 0 0 0 0 0 0 0 0 150 100 88 
137 91 80 118 79 69 125 83 73 130 86 76 128 85 75 130 87 76 115 77 67 
102 85 30 126 105 38 165 137 49 170 142 51 170 142 51 132 110 40 115 96 34 
118 98 35 120 84 65 121 81 71 127 84 74 131 87 77 150 100 88 150 100 88 
150 100 88 150 100 88 167 125 115 160 114 104 161 116 106 159 113 102 
0 0 0 0 0 0 0 0 0 0 0 0 0 0 0 0 0 0 0 0 0 0 0 0 0 0 0 0 0 0 0 0 0 0 0 0 0 0 0 
0 0 0 0 0 0 0 0 0 0 0 0 0 0 0 0 0 0 0 0 0 0 0 0 0 0 0 0 0 0 0 0 0 0 0 0 0 0 0 
0 0 0 0 0 0 0 0 0 0 0 0 0 0 0 0 0 0 0 0 0 0 0 0 0 0 0 0 0 0 0 0 0 150 100 88 
126 84 74 122 81 72 122 82 72 119 79 70 121 81 71 113 75 66 117 99 36 
106 88 32 111 93 33 143 120 43 170 142 51 153 127 46 99 83 29 90 75 27 
76 53 41 107 72 63 126 84 74 135 90 79 150 100 88 150 100 88 150 100 88 
150 100 88 155 107 95 168 126 116 164 121 110 253 253 253 0 0 0 0 0 0 0 0 0 
0 0 0 0 0 0 0 0 0 0 0 0 0 0 0 0 0 0 0 0 0 0 0 0 0 0 0 0 0 0 0 0 0 0 0 0 0 0 0 
0 0 0 0 0 0 0 0 0 0 0 0 0 0 0 0 0 0 0 0 0 0 0 0 0 0 0 0 0 0 0 0 0 0 0 0 0 0 0 
0 0 0 0 0 0 0 0 0 0 0 0 0 0 0 0 0 0 0 0 0 0 0 0 150 100 88 146 97 86 140 93 82 
122 82 72 119 79 70 122 81 71 117 79 69 108 91 32 106 89 32 128 107 38 
135 113 41 170 142 51 170 142 51 107 89 32 76 63 22 44 31 25 76 51 45 101 68 60 
139 93 81 150 100 88 150 100 88 150 100 88 156 108 97 169 129 119 169 128 118 
187 156 148 0 0 0 0 0 0 0 0 0 0 0 0 0 0 0 0 0 0 0 0 0 0 0 0 0 0 0 0 0 0 0 0 0 
0 0 0 0 0 0 0 0 0 0 0 0 0 0 0 0 0 0 0 0 0 0 0 0 0 0 0 0 0 0 0 0 0 0 0 0 0 0 0 
0 0 0 0 0 0 0 0 0 0 0 0 0 0 0 0 0 0 0 0 0 0 0 0 0 0 0 0 0 0 0 0 0 0 0 0 0 0 0 
0 0 0 150 100 88 131 87 77 123 82 72 118 79 69 124 83 73 126 84 74 116 83 61 
103 85 32 121 102 36 152 127 46 165 138 50 170 142 51 170 142 51 151 126 45 
86 71 26 58 39 34 100 67 59 126 83 73 147 98 86 150 100 88 150 100 88 
150 100 88 161 116 105 172 133 124 172 133 124 253 253 253 0 0 0 0 0 0 0 0 0 
0 0 0 0 0 0 0 0 0 0 0 0 0 0 0 0 0 0 0 0 0 0 0 0 0 0 0 0 0 0 0 0 0 0 0 0 0 0 0 
0 0 0 0 0 0 0 0 0 0 0 0 0 0 0 0 0 0 0 0 0 0 0 0 0 0 0 0 0 0 0 0 0 0 0 0 0 0 0 
0 0 0 0 0 0 0 0 0 0 0 0 0 0 0 0 0 0 0 0 0 0 0 0 0 0 0 150 100 88 132 88 78 
119 80 70 120 80 70 129 86 75 131 87 77 109 74 63 110 91 33 114 95 35 
170 142 51 170 142 51 170 142 51 170 142 51 152 127 46 85 70 26 43 28 24 
62 41 35 90 60 52 150 100 88 150 100 88 150 100 88 150 100 88 165 122 112 
167 126 116 169 129 119 253 253 253 0 0 0 0 0 0 0 0 0 0 0 0 0 0 0 0 0 0 0 0 0 
0 0 0 0 0 0 0 0 0 0 0 0 0 0 0 0 0 0 0 0 0 0 0 0 0 0 0 0 0 0 0 0 0 0 0 0 0 0 0 
0 0 0 0 0 0 0 0 0 0 0 0 0 0 0 0 0 0 0 0 0 0 0 0 0 0 0 0 0 0 0 0 0 0 0 0 0 0 0 
0 0 0 0 0 0 0 0 0 0 0 0 150 100 88 136 91 80 118 79 69 119 79 70 131 87 77 
129 86 76 119 79 70 119 87 59 97 82 29 116 97 35 170 142 51 170 142 51 
170 142 51 170 142 51 165 138 50 141 117 42 77 51 45 69 46 41 78 51 46 
130 87 76 150 100 88 150 100 88 162 118 107 166 124 114 161 116 105 
158 112 101 0 0 0 0 0 0 0 0 0 0 0 0 0 0 0 0 0 0 0 0 0 0 0 0 0 0 0 0 0 0 0 0 0 
0 0 0 0 0 0 0 0 0 0 0 0 0 0 0 0 0 0 0 0 0 0 0 0 0 0 0 0 0 0 0 0 0 0 0 0 0 0 0 
0 0 0 0 0 0 0 0 0 0 0 0 0 0 0 0 0 0 0 0 0 0 0 0 0 0 0 0 0 0 0 0 0 0 0 0 0 0 0 
0 0 0 130 87 76 110 73 65 111 74 65 120 80 70 120 80 70 118 79 69 120 80 70 
129 98 55 123 103 37 118 99 36 170 142 51 170 142 51 170 142 51 170 142 51 
156 131 47 131 109 39 84 57 47 96 63 56 78 52 45 103 70 61 150 100 88 
150 100 88 150 100 88 157 111 100 170 130 120 163 119 108 0 0 0 0 0 0 0 0 0 
0 0 0 0 0 0 0 0 0 0 0 0 0 0 0 0 0 0 0 0 0 0 0 0 0 0 0 0 0 0 0 0 0 0 0 0 0 0 0 
0 0 0 0 0 0 0 0 0 0 0 0 0 0 0 0 0 0 0 0 0 0 0 0 0 0 0 0 0 0 0 0 0 0 0 0 0 0 0 
0 0 0 0 0 0 0 0 0 0 0 0 0 0 0 0 0 0 0 0 0 0 0 0 150 100 88 149 99 87 119 80 70 
112 75 66 92 61 54 104 69 61 92 62 54 97 64 57 103 69 60 113 93 36 137 115 41 
170 142 51 170 142 51 170 142 51 170 142 51 170 142 51 145 122 44 76 50 45 
107 71 63 99 66 58 105 71 61 131 87 77 150 100 88 150 100 88 167 125 115 
164 121 110 171 132 122 0 0 0 0 0 0 0 0 0 0 0 0 0 0 0 0 0 0 0 0 0 0 0 0 0 0 0 
0 0 0 0 0 0 0 0 0 0 0 0 0 0 0 0 0 0 0 0 0 0 0 0 0 0 0 0 0 0 0 0 0 0 0 0 0 0 0 
0 0 0 0 0 0 0 0 0 0 0 0 0 0 0 0 0 0 0 0 0 0 0 0 0 0 0 0 0 0 0 0 0 0 0 0 0 0 0 
0 0 0 0 0 0 135 90 79 112 75 66 108 72 63 103 69 61 103 69 61 99 66 58 
109 73 64 102 68 59 93 63 54 110 73 63 170 141 52 170 142 51 170 142 51 
170 142 51 170 142 51 170 142 51 157 115 75 76 51 45 101 67 59 101 67 59 
137 91 80 150 100 88 150 100 88 150 100 88 159 113 102 162 118 107 150 100 88 
0 0 0 0 0 0 0 0 0 0 0 0 0 0 0 0 0 0 0 0 0 0 0 0 0 0 0 0 0 0 0 0 0 0 0 0 0 0 0 
0 0 0 0 0 0 0 0 0 0 0 0 0 0 0 0 0 0 0 0 0 0 0 0 0 0 0 0 0 0 0 0 0 0 0 0 0 0 0 
0 0 0 0 0 0 0 0 0 0 0 0 0 0 0 0 0 0 0 0 0 0 0 0 0 0 0 0 0 0 123 82 72 
120 80 70 112 74 65 116 77 67 120 80 70 110 73 64 110 74 65 133 89 78 
127 85 74 110 73 64 105 70 62 104 70 60 119 100 36 129 108 39 161 135 48 
170 142 51 150 118 58 114 77 67 105 70 61 101 67 59 103 69 61 102 68 60 
106 70 62 133 89 78 153 105 93 173 134 125 174 135 126 155 107 95 150 100 88 
0 0 0 0 0 0 0 0 0 0 0 0 0 0 0 0 0 0 0 0 0 0 0 0 0 0 0 0 0 0 0 0 0 0 0 0 0 0 0 
0 0 0 0 0 0 0 0 0 0 0 0 0 0 0 0 0 0 0 0 0 0 0 0 0 0 0 0 0 0 0 0 0 0 0 0 0 0 0 
0 0 0 0 0 0 0 0 0 0 0 0 0 0 0 0 0 0 0 0 0 144 96 84 123 82 72 102 68 59 
130 87 76 132 88 77 138 93 83 121 89 118 88 70 112 74 60 100 75 61 104 
74 60 102 72 59 100 72 58 99 71 58 98 73 59 101 79 64 110 111 89 145 
135 90 79 129 86 76 129 86 76 108 72 63 116 78 68 118 79 69 123 82 72 
124 83 73 137 91 80 150 100 88 165 123 112 176 138 129 163 119 108 150 100 88 
0 0 0 0 0 0 0 0 0 0 0 0 0 0 0 0 0 0 0 0 0 0 0 0 0 0 0 0 0 0 0 0 0 0 0 0 0 0 0 
0 0 0 0 0 0 0 0 0 0 0 0 0 0 0 0 0 0 0 0 0 0 0 0 0 0 0 0 0 0 0 0 0 0 0 0 0 0 0 
0 0 0 0 0 0 0 0 0 0 0 0 150 100 88 150 100 88 139 93 82 117 78 69 111 74 65 
121 81 71 150 100 88 83 65 101 81 65 110 73 59 101 72 58 99 74 60 103 
75 61 104 77 63 107 79 64 109 89 72 123 94 77 131 108 88 150 93 75 124 
112 83 105 123 82 72 123 82 72 131 88 77 96 63 56 108 72 64 109 73 64 
116 78 68 133 89 78 150 100 88 150 100 88 164 120 110 166 124 114 168 127 117 
155 107 96 0 0 0 0 0 0 0 0 0 0 0 0 0 0 0 0 0 0 0 0 0 0 0 0 0 0 0 0 0 0 0 0 0 
0 0 0 0 0 0 0 0 0 0 0 0 0 0 0 0 0 0 0 0 0 0 0 0 0 0 0 0 0 0 0 0 0 0 0 0 0 0 0 
0 0 0 0 0 0 0 0 0 0 0 0 0 0 0 0 0 0 150 100 88 150 100 88 150 100 88 
147 98 86 147 98 86 125 89 97 82 66 113 74 60 102 70 57 97 69 56 96 73 59 101 
76 62 105 108 88 150 108 88 150 108 88 150 108 88 150 109 88 148 144 96 84 
144 96 84 150 100 88 129 94 119 122 92 129 139 97 104 150 100 88 150 100 88 
144 96 85 150 100 88 150 100 88 150 100 88 132 95 115 120 94 137 142 124 168 
137 120 168 154 106 94 0 0 0 0 0 0 0 0 0 0 0 0 0 0 0 0 0 0 0 0 0 0 0 0 0 0 0 
0 0 0 0 0 0 0 0 0 0 0 0 0 0 0 0 0 0 0 0 0 0 0 0 0 0 0 0 0 0 0 0 0 0 0 0 0 0 0 
0 0 0 0 0 0 0 0 0 0 0 0 0 0 0 0 0 0 0 0 0 0 0 0 0 0 0 0 0 0 0 0 0 0 0 0 71 57 98 
79 64 110 75 61 105 76 62 105 78 63 108 84 69 117 102 83 142 104 85 145 
108 88 150 108 88 150 108 88 150 108 88 150 108 88 150 116 90 139 110 89 147 
108 88 150 108 88 150 108 88 150 110 88 148 109 88 148 109 88 148 110 89 147 
109 88 148 110 88 148 109 88 149 108 88 150 114 95 154 137 121 171 142 127 174 
201 194 216 108 88 150 0 0 0 0 0 0 0 0 0 0 0 0 0 0 0 0 0 0 0 0 0 0 0 0 0 0 0 
0 0 0 0 0 0 0 0 0 0 0 0 0 0 0 0 0 0 0 0 0 0 0 0 0 0 0 0 0 0 0 0 0 0 0 0 0 0 0 
0 0 0 0 0 0 0 0 0 0 0 0 0 0 0 0 0 0 0 0 0 0 0 0 0 0 0 27 22 38 76 62 105 
73 59 101 74 60 103 80 65 111 95 77 132 108 88 150 108 88 150 108 88 150 
108 88 150 108 88 150 108 88 150 108 88 150 108 88 150 109 88 148 109 88 148 
108 88 149 108 88 149 109 88 149 108 88 150 108 88 150 108 88 150 108 88 150 
108 88 150 108 88 150 108 88 150 108 88 150 108 88 150 108 88 150 115 96 155 
108 88 150 124 106 161 140 124 173 253 253 253 253 253 253 0 0 0 0 0 0 0 0 0 
0 0 0 0 0 0 0 0 0 0 0 0 0 0 0 0 0 0 0 0 0 0 0 0 0 0 0 0 0 0 0 0 0 0 0 0 0 0 0 
0 0 0 0 0 0 0 0 0 0 0 0 0 0 0 0 0 0 0 0 0 0 0 0 0 0 0 0 0 0 0 0 0 0 0 0 78 64 109 
76 62 106 72 59 101 77 62 106 92 75 128 108 88 150 108 88 150 108 88 150 
108 88 150 108 88 150 108 88 150 108 88 150 108 88 150 122 104 160 129 110 160 
138 120 168 141 125 172 130 113 166 118 100 157 108 88 150 93 76 129 99 80 137 
108 88 150 108 88 150 108 88 150 108 88 150 108 88 150 108 88 150 108 88 150 
108 88 150 136 119 170 140 124 173 136 120 170 146 132 177 253 253 253 
253 253 253 0 0 0 0 0 0 0 0 0 0 0 0 0 0 0 0 0 0 0 0 0 0 0 0 0 0 0 0 0 0 0 0 0 
0 0 0 0 0 0 0 0 0 0 0 0 0 0 0 0 0 0 0 0 0 0 0 0 0 0 0 0 0 0 0 0 0 0 0 0 0 0 0 
0 0 0 0 0 0 0 0 0 91 74 126 71 58 99 76 62 105 77 63 107 84 69 117 106 86 147 
108 88 150 108 88 150 108 88 150 108 88 150 124 106 161 141 125 173 
142 127 174 143 128 175 147 132 178 150 135 180 139 124 172 150 136 180 
108 88 150 108 88 150 0 0 0 75 61 104 75 61 104 75 61 104 83 68 116 96 78 134 
107 87 149 108 88 150 108 88 150 108 88 150 108 88 150 119 100 158 137 121 171 
135 118 169 127 110 164 195 187 212 0 0 0 0 0 0 0 0 0 0 0 0 0 0 0 0 0 0 0 0 0 
0 0 0 0 0 0 0 0 0 0 0 0 0 0 0 0 0 0 0 0 0 0 0 0 0 0 0 0 0 0 0 0 0 0 0 0 0 0 0 
0 0 0 0 0 0 0 0 0 0 0 0 0 0 0 0 0 0 0 0 0 106 86 147 79 64 110 74 61 103 
81 66 112 96 78 133 108 88 150 108 88 150 108 88 150 108 88 150 108 88 150 
108 88 150 141 125 173 144 129 175 135 119 169 110 90 151 118 100 157 
139 123 172 0 0 0 0 0 0 0 0 0 0 0 0 0 0 0 0 0 0 92 75 128 83 68 115 81 66 113 
85 69 117 82 67 114 108 88 150 108 88 150 108 88 150 108 88 150 108 88 150 
108 88 150 117 98 156 133 117 168 152 138 181 253 253 253 253 253 253 
0 0 0 0 0 0 0 0 0 0 0 0 0 0 0 0 0 0 0 0 0 0 0 0 0 0 0 0 0 0 0 0 0 0 0 0 0 0 0 
0 0 0 0 0 0 0 0 0 0 0 0 0 0 0 0 0 0 0 0 0 0 0 0 0 0 0 0 0 0 0 0 0 35 29 49 
93 76 129 82 67 114 79 64 109 81 66 113 97 79 134 108 88 150 108 88 150 
108 88 150 108 88 150 108 88 150 108 88 150 141 126 173 187 178 206 
253 253 253 0 0 0 0 0 0 0 0 0 0 0 0 0 0 0 0 0 0 0 0 0 0 0 0 0 0 0 0 0 0 93 76 129 
81 66 113 80 65 110 86 70 119 92 75 127 106 86 147 108 88 150 108 88 150 
108 88 150 108 88 150 108 88 150 129 112 165 148 134 178 253 253 253 
253 253 253 253 253 253 0 0 0 0 0 0 0 0 0 0 0 0 0 0 0 0 0 0 0 0 0 0 0 0 0 0 0 
0 0 0 0 0 0 0 0 0 0 0 0 0 0 0 0 0 0 0 0 0 0 0 0 0 0 0 0 0 0 0 0 0 0 0 0 0 0 0 
0 0 0 0 0 0 64 52 89 74 61 102 75 61 104 75 61 104 79 64 109 83 67 115 
108 88 150 108 88 150 108 88 150 108 88 150 108 88 150 120 102 159 253 253 253 
253 253 253 253 253 253 0 0 0 0 0 0 0 0 0 0 0 0 0 0 0 0 0 0 0 0 0 0 0 0 0 0 0 
108 88 150 90 74 126 80 65 111 81 66 112 82 67 114 85 69 118 108 88 150 
108 88 150 108 88 150 108 88 150 108 88 150 132 116 167 141 125 173 
148 134 179 211 206 223 253 253 253 0 0 0 0 0 0 0 0 0 0 0 0 0 0 0 0 0 0 0 0 0 
0 0 0 0 0 0 0 0 0 0 0 0 0 0 0 0 0 0 0 0 0 0 0 0 0 0 0 0 0 0 0 0 0 0 0 0 0 0 0 
0 0 0 0 0 0 0 0 0 0 0 0 65 53 90 63 51 87 95 77 132 88 72 122 85 69 118 
83 68 116 91 74 126 108 88 150 108 88 150 108 88 150 130 113 166 144 129 176 
253 253 253 253 253 253 0 0 0 0 0 0 0 0 0 0 0 0 0 0 0 0 0 0 0 0 0 0 0 0 0 0 0 
0 0 0 0 0 0 108 88 150 100 82 139 82 66 113 85 69 118 88 71 122 96 78 134 
108 88 150 108 88 150 108 88 150 108 88 150 108 88 150 133 117 168 135 118 169 
156 143 184 223 219 232 0 0 0 0 0 0 0 0 0 0 0 0 0 0 0 0 0 0 0 0 0 0 0 0 0 0 0 
0 0 0 0 0 0 0 0 0 0 0 0 0 0 0 0 0 0 0 0 0 0 0 0 0 0 0 0 0 0 0 0 0 0 0 0 0 0 0 
0 0 0 0 0 0 0 0 0 59 48 82 66 54 92 80 65 110 78 64 108 81 66 112 85 69 117 
98 80 137 108 88 150 109 89 150 123 105 161 145 131 177 253 253 253 
253 253 253 0 0 0 0 0 0 0 0 0 0 0 0 0 0 0 0 0 0 0 0 0 0 0 0 0 0 0 0 0 0 0 0 0 
0 0 0 108 88 150 106 87 148 82 67 114 82 66 113 85 69 118 92 75 127 108 88 150 
108 88 150 108 88 150 108 88 150 111 92 152 138 122 171 135 119 169 
136 120 170 253 253 253 253 253 253 0 0 0 0 0 0 0 0 0 0 0 0 0 0 0 0 0 0 0 0 0 
0 0 0 0 0 0 0 0 0 0 0 0 0 0 0 0 0 0 0 0 0 0 0 0 0 0 0 0 0 0 0 0 0 0 0 0 0 0 0 
0 0 0 0 0 0 0 0 0 0 0 0 61 50 85 62 51 86 83 68 115 79 64 109 80 65 111 
82 67 114 103 84 143 110 90 151 131 114 166 132 115 167 253 253 253 
0 0 0 0 0 0 0 0 0 0 0 0 0 0 0 0 0 0 0 0 0 0 0 0 0 0 0 0 0 0 0 0 0 0 0 0 0 0 0 
0 0 0 108 88 150 102 83 142 87 71 121 76 62 105 80 65 111 82 67 114 104 84 144 
108 88 150 108 88 150 108 88 150 108 88 150 110 91 152 126 109 163 149 135 179 
253 253 253 253 253 253 0 0 0 0 0 0 0 0 0 0 0 0 0 0 0 0 0 0 0 0 0 0 0 0 0 0 0 
0 0 0 0 0 0 0 0 0 0 0 0 0 0 0 0 0 0 0 0 0 0 0 0 0 0 0 0 0 0 0 0 0 0 0 0 0 0 0 
0 0 0 0 0 0 64 52 89 81 66 113 94 77 131 85 70 119 91 74 126 94 76 130 
106 86 147 108 88 150 129 112 165 253 253 253 0 0 0 0 0 0 0 0 0 0 0 0 0 0 0 
0 0 0 0 0 0 0 0 0 0 0 0 0 0 0 0 0 0 0 0 0 0 0 0 0 0 0 0 0 0 108 88 150 
108 88 150 91 74 126 76 62 106 82 67 114 81 66 113 100 81 139 108 88 150 
108 88 150 108 88 150 108 88 150 120 101 158 138 123 172 142 127 174 
213 208 225 253 253 253 0 0 0 0 0 0 0 0 0 0 0 0 0 0 0 0 0 0 0 0 0 0 0 0 0 0 0 
0 0 0 0 0 0 0 0 0 0 0 0 0 0 0 0 0 0 0 0 0 0 0 0 0 0 0 0 0 0 0 0 0 0 0 0 0 0 0 
0 0 0 92 75 127 67 55 94 87 71 121 76 62 105 74 60 103 77 63 107 87 71 121 
114 94 154 137 121 170 182 172 202 253 253 253 0 0 0 0 0 0 0 0 0 0 0 0 0 0 0 
0 0 0 0 0 0 0 0 0 0 0 0 0 0 0 0 0 0 0 0 0 0 0 0 0 0 0 0 0 0 108 88 150 
108 88 150 107 87 148 83 67 115 83 68 116 80 65 111 90 73 124 108 88 150 
108 88 150 108 88 150 108 88 150 126 108 162 138 122 171 142 127 174 
191 182 209 253 253 253 0 0 0 0 0 0 0 0 0 0 0 0 0 0 0 0 0 0 0 0 0 0 0 0 0 0 0 
0 0 0 0 0 0 0 0 0 0 0 0 0 0 0 0 0 0 0 0 0 0 0 0 0 0 0 0 0 0 0 0 0 0 0 0 0 0 0 
108 88 150 69 56 95 76 62 106 83 68 116 85 69 117 87 71 121 95 77 132 
108 88 150 113 94 154 135 118 169 253 253 253 253 253 253 0 0 0 0 0 0 0 0 0 
0 0 0 0 0 0 0 0 0 0 0 0 0 0 0 0 0 0 0 0 0 0 0 0 0 0 0 0 0 0 0 0 0 0 0 0 0 0 0 
108 88 150 103 84 143 76 62 106 79 65 110 81 66 113 85 69 118 108 88 150 
108 88 150 108 88 150 108 88 150 132 116 167 138 122 171 138 122 171 
253 253 253 0 0 0 0 0 0 0 0 0 0 0 0 0 0 0 0 0 0 0 0 0 0 0 0 0 0 0 0 0 0 0 0 0 
0 0 0 0 0 0 0 0 0 0 0 0 0 0 0 0 0 0 0 0 0 0 0 0 0 0 0 0 0 0 0 0 0 0 0 0 79 65 109 
69 56 96 81 66 112 80 65 111 80 65 110 80 65 111 100 81 138 112 93 153 
123 106 161 159 141 137 221 210 175 253 253 253 0 0 0 0 0 0 0 0 0 0 0 0 0 0 0 
0 0 0 0 0 0 0 0 0 0 0 0 0 0 0 0 0 0 0 0 0 0 0 0 0 0 0 0 0 0 0 0 0 108 88 150 
108 88 150 78 64 109 74 60 103 77 62 106 95 77 131 108 88 150 108 88 150 
108 88 150 108 88 150 142 126 174 144 126 159 180 155 75 170 142 51 0 0 0 
0 0 0 0 0 0 0 0 0 0 0 0 0 0 0 0 0 0 0 0 0 0 0 0 0 0 0 0 0 0 0 0 0 0 0 0 0 0 0 
0 0 0 0 0 0 0 0 0 0 0 0 170 142 51 170 142 51 170 142 51 0 0 0 108 89 97 
67 54 78 62 51 87 63 51 87 76 62 106 87 71 119 94 76 130 108 88 150 108 88 150 
167 147 126 186 164 91 211 197 151 0 0 0 0 0 0 0 0 0 0 0 0 0 0 0 0 0 0 0 0 0 
0 0 0 0 0 0 0 0 0 0 0 0 0 0 0 0 0 0 0 0 0 0 0 0 0 0 0 0 0 0 108 88 150 
90 73 125 70 58 98 72 59 101 74 60 103 96 78 133 108 88 150 108 88 150 
108 88 150 123 105 161 161 143 132 190 169 101 192 171 104 253 253 253 
0 0 0 0 0 0 0 0 0 0 0 0 0 0 0 0 0 0 0 0 0 0 0 0 0 0 0 0 0 0 0 0 0 0 0 0 0 0 0 
170 142 51 170 142 51 136 114 41 129 107 39 117 98 35 113 95 34 114 95 34 
104 87 32 99 82 29 75 62 58 67 55 93 73 59 102 73 60 82 79 65 63 115 96 65 
166 138 58 169 141 53 176 150 65 188 166 96 192 171 105 193 173 107 
0 0 0 0 0 0 0 0 0 0 0 0 0 0 0 0 0 0 0 0 0 0 0 0 0 0 0 0 0 0 170 142 51 
167 139 50 128 107 39 129 108 39 143 120 43 147 123 44 114 95 34 110 92 33 
84 69 69 75 61 104 75 61 104 72 59 100 91 74 126 108 88 150 108 88 150 
108 88 150 160 133 67 170 142 51 183 159 82 0 0 0 0 0 0 0 0 0 0 0 0 0 0 0 
0 0 0 0 0 0 0 0 0 0 0 0 0 0 0 0 0 0 0 0 0 0 0 0 0 0 0 170 142 51 145 121 44 
111 92 33 100 83 30 102 86 30 117 98 35 117 98 35 122 102 37 126 105 38 
138 115 41 142 118 59 168 140 54 170 142 51 170 142 51 170 142 51 170 142 51 
170 142 51 170 142 51 170 142 51 182 159 81 201 184 127 253 253 253 
0 0 0 0 0 0 0 0 0 0 0 0 0 0 0 0 0 0 0 0 0 0 0 0 0 0 0 170 142 51 122 102 37 
116 97 35 125 104 37 121 101 36 112 94 34 118 99 35 121 101 36 113 94 34 
109 91 33 104 86 34 84 69 74 108 88 150 108 88 150 108 88 150 144 119 93 
168 140 55 170 142 51 172 144 56 0 0 0 0 0 0 0 0 0 0 0 0 0 0 0 0 0 0 0 0 0 
0 0 0 0 0 0 0 0 0 0 0 0 0 0 0 0 0 0 0 0 0 0 0 0 170 142 51 160 134 48 
155 130 47 155 130 47 155 130 47 156 131 47 170 142 51 170 142 51 170 142 51 
170 142 51 170 142 51 170 142 51 170 142 51 170 142 51 170 142 51 170 142 51 
170 142 51 170 142 51 180 155 76 253 253 253 253 253 253 0 0 0 0 0 0 0 0 0 
0 0 0 0 0 0 0 0 0 0 0 0 0 0 0 0 0 0 0 0 0 131 110 39 114 95 34 116 97 35 
128 107 38 126 106 38 131 109 39 124 104 37 127 106 38 129 108 39 138 116 41 
117 97 35 118 99 36 158 132 51 169 141 52 170 142 51 170 142 51 170 142 51 
170 142 51 0 0 0 0 0 0 0 0 0 0 0 0 0 0 0 0 0 0 0 0 0 0 0 0 0 0 0 0 0 0 0 0 0 
0 0 0 0 0 0 0 0 0 0 0 0 0 0 0 0 0 0 0 0 0 0 0 0 170 142 51 170 142 51 
170 142 51 170 142 51 170 142 51 170 142 51 170 142 51 170 142 51 170 142 51 
170 142 51 170 142 51 170 142 51 170 142 51 170 142 51 0 0 0 0 0 0 0 0 0 0 0 0 
0 0 0 0 0 0 0 0 0 0 0 0 0 0 0 0 0 0 0 0 0 0 0 0 0 0 0 0 0 0 170 142 51 
168 141 51 170 142 51 163 136 49 147 123 44 144 120 43 152 127 46 141 118 42 
161 134 48 170 142 51 170 142 51 170 142 51 170 142 51 170 142 51 170 142 51 
170 142 51 0 0 0 0 0 0 0 0 0 0 0 0 0 0 0 0 0 0 0 0 0 0 0 0 0 0 0 0 0 0 0 0 0 
0 0 0 0 0 0 0 0 0 0 0 0 0 0 0 0 0 0 0 0 0 0 0 0 0 0 0 0 0 0 0 0 0 0 0 0 0 0 0 
0 0 0 0 0 0 0 0 0 0 0 0 0 0 0 0 0 0 0 0 0 0 0 0 0 0 0 0 0 0 0 0 0 0 0 0 0 0 0 
0 0 0 0 0 0 0 0 0 0 0 0 0 0 0 0 0 0 0 0 0 0 0 0 0 0 0 0 0 0 0 0 0 0 0 0 0 0 0 
0 0 0 0 0 0 0 0 0 170 142 51 170 142 51 170 142 51 170 142 51 170 142 51 
170 142 51 170 142 51 170 142 51 170 142 51 0 0 0 0 0 0 0 0 0 0 0 0 0 0 0 
0 0 0 0 0 0 0 0 0 0 0 0 0 0 0 0 0 0 0 0 0 0 0 0 0 0 0 0 0 0 0 0 0 0 0 0 0 0 0 
0 0 0 0 0 0 0 0 0 0 0 0 0 0 0 0 0 0 0 0 0 0 0 0 0 0 0 0 0 0 0 0 0 0 0 0 0 0 0 
0 0 0 0 0 0 0 0 0 0 0 0 0 0 0 0 0 0 0 0 0 0 0 0 0 0 0 0 0 0 0 0 0 0 0 0 0 0 0 
0 0 0 0 0 0 0 0 0 0 0 0 0 0 0 0 0 0 0 0 0 0 0 0 0 0 0 0 0 0 0 0 0 0 0 0 0 0 0 
0 0 0 0 0 0 0 0 0 0 0 0 0 0 0 0 0 0 0 0 0 0 0 0 0 0 0 0 0 0 0 0 0 
