P3
64 64
255
113 107 44 121 114 45 138 129 47 148 138 48 149 140 49 140 132 48 121 114 45 
117 110 44 126 118 46 127 120 47 120 113 46 115 109 45 113 107 44 117 111 44 
129 121 45 136 127 47 138 130 48 137 129 48 134 126 47 129 121 46 123 116 45 
118 111 45 114 108 44 120 114 45 135 129 48 135 128 48 119 111 45 118 110 44 
133 125 46 141 133 47 142 134 47 143 135 47 145 135 47 147 137 47 149 139 47 
146 137 47 138 131 47 133 126 47 131 124 46 132 125 46 137 129 47 132 124 46 
117 111 44 116 110 44 129 121 46 136 128 48 139 131 48 133 126 47 119 113 45 
112 106 44 112 106 44 115 109 44 122 115 45 122 115 45 115 109 44 113 107 44 
114 108 44 114 108 44 114 108 44 114 108 44 114 109 44 115 109 44 114 108 44 
114 108 44 120 113 44 127 119 45 141 132 48 149 139 49 149 140 50 140 133 48 
124 117 45 120 113 45 128 120 46 128 120 47 120 114 45 115 109 44 113 108 44 
118 112 44 129 121 45 136 127 47 138 130 48 137 128 48 131 123 46 127 120 46 
124 117 45 121 114 45 118 112 44 122 116 45 134 127 47 134 126 47 121 113 45 
121 113 45 133 125 46 139 131 47 137 129 47 137 129 46 138 129 46 139 130 46 
142 132 46 141 132 47 137 129 47 134 127 47 132 124 46 133 126 46 139 131 47 
135 128 47 123 116 45 122 115 45 131 124 46 137 128 47 137 129 48 131 123 47 
118 112 45 113 107 44 116 110 45 121 114 45 126 119 45 125 118 45 118 112 44 
114 108 44 114 108 44 114 108 44 114 108 44 115 109 44 115 109 44 115 109 44 
114 108 44 114 108 44 134 125 46 138 130 47 148 139 50 151 142 51 149 140 50 
142 134 49 131 124 47 127 120 46 131 124 46 129 122 46 120 114 44 115 110 44 
115 109 44 119 113 45 129 122 46 136 127 46 138 129 47 135 126 47 126 118 46 
123 116 45 128 120 46 129 121 46 127 119 45 127 120 46 132 124 46 131 123 46 
125 118 45 127 119 45 135 126 47 135 126 47 127 119 45 122 115 44 121 114 44 
122 114 45 125 116 45 129 120 46 134 126 47 136 128 47 133 125 46 136 127 46 
144 135 48 144 135 48 136 129 47 134 127 46 137 129 47 137 128 47 132 124 47 
126 118 46 116 110 44 117 110 44 127 119 47 133 124 47 135 127 47 132 124 46 
124 116 45 118 111 44 114 108 45 113 108 45 115 109 45 116 110 45 117 111 45 
116 111 44 114 108 44 113 107 44 142 133 47 145 136 48 151 142 50 152 143 51 
147 138 50 139 132 49 130 123 47 126 119 45 127 121 45 126 119 45 122 116 44 
120 114 44 120 114 45 124 117 45 130 123 46 134 126 46 136 127 47 133 125 46 
126 118 45 126 118 45 134 125 46 137 128 47 135 126 47 133 124 46 131 122 46 
129 122 46 129 122 45 130 123 46 134 125 47 131 122 46 121 114 45 115 109 44 
113 107 44 114 107 44 119 111 45 125 117 46 133 126 47 137 128 47 134 125 46 
137 128 46 144 135 48 146 137 48 142 134 47 140 132 47 141 132 47 138 129 47 
131 123 46 124 117 45 117 110 44 119 113 45 132 124 47 138 129 48 138 130 47 
136 128 47 131 122 46 127 119 46 123 116 46 122 115 46 125 117 46 126 118 46 
127 120 46 124 118 45 119 112 45 116 110 44 145 135 47 147 137 48 151 142 50 
149 141 51 143 134 49 133 126 48 122 115 45 116 110 44 116 110 44 119 113 44 
126 119 45 130 122 46 130 122 46 131 122 46 132 124 46 131 124 46 130 123 46 
130 123 46 132 123 46 136 126 46 142 132 47 144 134 48 142 133 48 138 129 47 
131 123 46 129 121 46 132 125 46 133 125 47 130 122 46 125 118 46 120 114 45 
116 110 44 113 107 44 115 109 44 123 116 46 130 123 47 135 127 47 137 128 47 
134 125 46 136 126 46 141 132 47 142 133 47 140 131 47 140 131 47 142 134 47 
140 131 47 134 125 46 127 118 46 119 112 45 121 114 45 132 124 47 136 129 48 
135 127 47 136 127 47 139 130 47 140 131 47 140 130 47 140 131 47 142 133 47 
144 134 47 144 135 48 139 130 47 129 121 46 124 116 46 140 130 46 140 131 47 
142 134 48 141 133 49 137 129 48 130 122 47 118 112 45 114 108 44 116 110 44 
122 115 45 132 124 46 137 128 47 137 128 47 137 127 46 135 126 46 131 123 46 
125 118 45 125 117 45 131 122 45 137 127 46 142 132 47 144 135 48 145 135 48 
142 132 48 136 127 47 134 125 47 137 128 47 136 128 47 132 124 46 128 121 46 
125 118 46 123 116 45 121 114 45 125 117 45 134 127 48 140 132 49 142 134 49 
140 131 48 132 124 46 131 123 46 136 127 47 139 130 47 140 131 47 141 131 47 
141 132 47 138 129 46 130 122 46 124 116 45 118 111 45 122 115 46 135 128 48 
140 133 49 138 130 48 139 130 48 143 133 48 146 136 48 148 138 48 150 140 49 
151 141 48 151 140 48 147 137 48 140 131 47 130 121 46 125 117 46 127 119 45 
126 118 45 124 116 45 125 118 45 129 122 46 128 121 45 120 114 45 120 113 45 
128 120 46 134 126 47 139 131 47 142 133 48 142 133 48 141 132 47 141 131 47 
134 124 45 119 111 44 115 108 43 122 114 44 128 120 45 133 125 46 138 129 47 
142 133 47 144 135 48 144 135 48 144 134 48 143 133 47 142 132 47 141 131 47 
139 130 47 135 127 47 134 127 47 138 129 47 143 134 48 151 142 51 155 146 52 
154 145 51 145 137 50 128 121 46 123 116 45 131 123 47 138 129 47 143 134 47 
143 133 47 137 127 46 129 121 45 121 114 45 115 109 44 113 107 44 121 115 45 
141 134 49 150 142 50 147 140 50 145 137 49 143 133 48 144 134 48 148 138 49 
151 141 50 152 142 49 147 137 48 136 127 47 128 120 46 122 115 45 119 113 45 
121 114 45 119 112 44 114 107 44 115 109 44 122 116 44 125 118 45 123 116 45 
126 118 46 134 126 47 140 131 48 143 134 48 145 136 48 146 137 49 144 135 48 
140 130 46 130 121 45 114 107 43 112 105 43 122 114 44 127 119 45 128 120 45 
130 122 46 134 126 46 138 129 47 143 133 47 142 132 47 137 127 46 137 128 46 
144 134 47 145 135 47 141 132 47 141 132 47 146 136 48 151 140 49 154 145 51 
155 146 52 154 145 51 143 135 49 123 117 46 118 112 45 127 120 46 135 127 47 
143 133 47 142 132 47 132 123 45 124 116 45 116 110 44 113 108 44 115 109 44 
125 118 45 143 135 49 151 143 50 149 141 50 146 138 49 143 134 47 144 135 48 
150 141 50 154 144 51 155 145 50 149 139 49 135 127 47 126 118 46 120 113 45 
117 111 45 122 115 45 119 112 44 113 107 44 112 106 43 116 110 44 120 114 44 
125 119 45 131 123 46 136 128 47 140 131 48 144 134 48 147 137 49 151 142 49 
146 137 48 132 123 46 120 112 44 110 104 43 114 107 44 131 122 46 135 126 46 
125 118 45 121 114 45 121 114 44 124 117 45 130 122 46 129 120 45 119 112 44 
123 115 44 140 131 46 146 137 47 142 133 47 142 133 47 147 137 48 148 138 48 
145 135 48 142 134 48 140 132 48 132 125 47 119 113 45 117 111 44 125 118 45 
133 124 46 139 129 47 138 128 47 128 120 46 121 114 45 117 110 44 118 111 44 
125 117 45 132 125 46 141 133 47 144 136 48 143 135 48 142 134 48 143 135 48 
147 139 49 154 146 51 158 149 51 159 149 51 155 145 50 144 136 48 134 127 47 
125 117 46 120 113 46 130 122 46 127 120 46 123 116 45 121 114 45 121 115 45 
124 118 45 130 123 46 132 125 47 132 124 46 133 125 47 136 127 47 140 130 48 
144 135 48 139 130 47 124 116 45 114 107 43 110 104 43 116 110 44 134 125 46 
138 128 47 128 120 46 121 114 45 117 111 44 117 111 44 122 114 45 120 112 44 
111 105 43 116 109 44 134 126 46 143 134 47 143 134 47 145 135 48 149 139 48 
146 137 48 138 129 47 132 124 46 129 122 46 125 118 46 119 113 45 120 113 44 
127 119 45 133 125 46 139 129 47 135 126 47 124 117 45 118 112 44 118 111 44 
124 116 45 134 126 46 139 130 47 137 129 46 136 128 46 135 128 46 136 129 47 
139 131 47 143 135 48 148 140 50 152 143 50 155 145 50 154 144 50 148 139 49 
140 132 48 131 123 47 127 118 46 143 135 48 144 135 48 144 136 49 142 134 49 
139 131 48 137 129 47 135 128 48 130 124 47 122 115 45 119 112 44 121 114 45 
123 116 45 125 118 45 123 115 45 116 109 43 113 106 43 112 106 43 118 111 44 
130 122 46 136 127 46 135 127 47 131 123 46 122 115 45 117 111 44 117 111 44 
115 109 44 112 106 44 116 110 44 127 119 45 136 127 46 144 135 48 149 140 49 
151 142 49 145 137 48 132 124 47 124 116 46 120 113 45 121 113 45 124 117 45 
128 120 45 132 124 46 136 128 47 141 132 48 135 127 48 120 113 45 115 109 44 
121 114 44 131 122 46 144 135 47 144 135 47 131 123 46 125 118 45 127 120 46 
128 121 46 129 121 46 130 122 47 131 124 47 136 128 47 143 133 47 146 137 47 
145 137 49 143 135 49 139 130 48 137 128 48 153 144 50 153 144 50 154 145 50 
152 142 50 147 138 49 143 134 48 141 133 49 133 126 48 120 113 45 114 107 44 
116 110 44 116 110 44 116 109 44 114 108 43 112 106 43 112 106 43 114 108 44 
120 114 45 130 122 46 136 127 46 138 129 47 134 126 47 125 118 46 119 113 45 
116 110 44 114 108 44 113 107 44 116 110 44 122 115 44 131 123 46 144 135 48 
149 140 49 147 139 49 139 132 48 126 119 46 119 112 45 117 111 45 119 112 45 
123 116 45 129 121 45 135 127 47 140 132 48 145 137 50 138 130 48 119 113 45 
114 108 44 123 115 45 132 124 46 142 133 47 140 132 47 126 119 45 120 113 45 
122 115 45 125 118 46 129 120 46 129 121 46 126 118 46 129 121 46 137 128 46 
142 133 47 144 135 48 144 136 49 143 135 48 143 134 48 158 149 52 157 147 51 
153 143 50 149 139 49 145 135 48 144 135 48 146 137 49 139 131 48 123 117 46 
117 111 45 121 114 45 121 113 45 117 110 44 114 108 44 112 106 43 113 107 44 
117 110 44 124 116 45 134 125 46 137 129 47 135 127 47 132 124 47 126 119 46 
122 115 45 120 113 45 117 111 45 114 108 44 115 109 44 121 114 44 129 122 46 
141 132 48 143 135 48 136 129 48 128 122 47 120 114 46 118 111 45 120 114 45 
120 113 44 117 110 44 122 115 45 135 127 47 145 137 49 152 143 50 145 136 49 
122 114 45 115 108 44 123 116 45 128 121 45 130 122 46 128 120 46 122 114 45 
119 112 45 121 114 45 127 119 46 138 128 47 140 130 47 132 123 46 132 123 46 
138 130 47 142 134 47 143 135 48 144 136 48 144 136 48 144 136 48 156 148 52 
155 146 51 152 142 49 149 139 48 146 136 48 144 135 48 144 135 49 137 129 48 
123 116 46 117 111 45 120 113 45 120 112 45 116 109 44 115 109 44 118 112 45 
121 114 45 123 117 45 129 121 46 136 128 47 139 130 48 136 128 47 132 124 47 
125 118 45 123 115 45 124 117 45 122 115 45 116 109 44 116 109 44 121 114 45 
129 121 46 138 130 47 138 130 48 127 121 47 121 115 46 119 112 45 121 114 45 
127 120 46 127 120 45 122 114 45 124 116 45 134 126 47 141 133 48 146 137 49 
139 131 48 121 113 45 115 108 44 121 114 44 123 116 45 122 115 46 120 113 46 
118 111 45 117 111 45 118 112 45 125 117 45 137 128 46 140 130 47 132 122 46 
129 121 46 133 125 46 136 128 47 138 130 47 140 132 48 143 135 48 145 136 48 
147 139 50 148 139 50 150 140 49 150 141 48 150 141 48 145 136 48 135 127 47 
126 119 46 118 112 44 114 108 44 114 108 44 114 107 44 113 107 44 119 113 45 
131 124 47 136 129 48 134 127 48 135 128 48 138 131 48 140 132 48 140 132 48 
134 126 47 122 115 45 121 113 44 130 122 46 130 121 46 119 111 44 117 110 44 
124 117 45 131 123 46 136 128 47 133 125 47 121 115 45 118 111 45 123 115 45 
130 121 46 138 129 47 140 131 47 137 128 47 134 125 46 131 124 46 128 122 45 
126 119 45 122 115 45 116 110 44 114 108 44 115 109 44 116 110 44 118 112 45 
117 111 45 115 109 44 114 108 44 114 108 44 119 112 44 127 120 45 129 121 45 
124 117 45 122 115 45 122 115 45 124 117 46 128 121 46 134 126 47 142 133 48 
146 136 48 135 128 48 137 130 48 142 133 48 145 136 48 146 137 48 142 134 47 
132 124 47 125 118 46 120 114 45 118 112 44 119 113 45 117 111 45 114 108 44 
120 113 45 135 127 48 142 134 49 139 132 49 140 133 49 144 137 50 144 137 50 
140 133 49 134 126 47 126 117 45 125 116 45 132 123 46 130 121 46 120 112 44 
118 110 44 123 116 45 128 121 46 132 125 47 129 122 46 119 112 44 119 111 44 
129 120 46 136 127 47 140 131 48 143 134 48 144 134 48 140 130 47 131 123 46 
123 116 45 117 110 44 113 108 44 113 108 44 113 108 44 113 107 44 115 109 44 
119 113 45 119 113 45 115 109 44 114 108 44 115 109 44 118 112 45 122 115 45 
122 115 45 119 113 45 117 111 45 116 109 44 119 112 45 125 118 46 132 124 46 
139 130 47 143 133 48 121 115 45 124 117 45 129 121 46 133 124 47 135 127 46 
136 128 47 136 128 47 133 126 47 129 122 46 129 122 46 135 128 48 131 124 47 
117 111 45 117 110 44 129 121 47 137 129 48 140 132 48 146 138 50 155 146 51 
152 144 51 137 130 48 132 124 47 135 126 46 134 124 46 128 120 45 123 115 45 
118 111 44 117 110 44 118 112 44 122 116 45 128 121 47 127 121 46 119 113 45 
122 115 45 136 127 46 140 131 47 135 126 46 136 127 47 143 133 48 142 132 48 
132 123 46 124 116 45 118 111 45 115 108 44 113 107 44 113 108 44 115 109 44 
119 113 45 125 119 46 125 118 46 119 112 44 117 111 44 121 114 45 122 116 46 
121 114 45 119 113 45 118 111 44 116 109 44 114 107 44 119 112 45 129 121 46 
134 127 47 135 127 47 136 127 46 113 108 43 116 109 44 120 113 45 124 116 46 
128 120 46 133 126 47 142 133 48 144 136 49 141 133 48 140 132 48 141 133 49 
135 127 48 121 114 45 117 111 44 124 117 46 132 124 47 141 133 49 150 141 50 
158 149 52 153 144 51 134 127 48 129 122 46 140 131 48 140 130 47 130 122 46 
123 115 45 118 111 44 118 112 44 123 117 46 128 122 47 132 125 47 131 124 47 
124 117 46 127 120 46 141 132 47 144 134 47 136 128 46 136 128 46 144 134 48 
142 132 48 130 121 46 123 115 46 122 114 46 120 113 45 119 112 45 121 114 45 
125 119 46 130 123 47 134 126 47 131 123 47 121 114 45 118 111 44 122 115 45 
123 116 46 121 114 45 121 113 45 121 114 44 121 114 44 121 113 44 125 117 45 
134 126 47 137 129 47 133 125 46 131 123 46 112 106 44 113 107 44 117 110 44 
120 113 44 124 117 45 134 127 47 150 142 50 158 149 52 157 148 52 150 142 51 
137 129 48 128 121 47 123 117 46 120 115 45 120 114 45 128 121 46 144 136 49 
152 144 50 154 145 51 147 138 49 130 123 46 127 120 46 139 131 48 142 134 49 
138 129 47 130 122 45 119 112 44 122 115 45 139 132 49 147 139 50 145 137 50 
140 132 49 133 124 47 134 125 47 143 135 48 147 138 48 144 135 47 144 135 47 
147 139 48 140 132 48 124 117 46 119 113 45 128 119 46 131 122 47 130 122 46 
134 127 47 145 137 49 148 140 50 144 136 49 136 128 47 123 116 45 117 110 44 
119 112 44 121 114 44 123 115 45 126 118 45 131 124 45 134 126 46 135 127 46 
137 129 46 141 133 47 139 131 47 132 124 46 129 121 46 119 112 45 120 113 45 
122 115 44 123 116 45 123 117 45 133 126 47 152 144 51 162 153 52 162 153 52 
154 145 51 138 129 48 128 120 46 124 118 46 120 115 45 116 110 44 125 118 46 
146 138 49 155 147 51 152 144 51 143 134 49 126 119 45 122 116 45 132 126 48 
136 129 48 134 125 46 127 119 45 117 111 44 123 116 45 145 137 50 155 146 52 
153 145 51 147 139 50 137 128 48 134 125 47 138 131 47 142 134 47 146 137 47 
147 138 47 145 137 48 136 129 47 120 114 45 117 110 45 128 119 46 134 125 47 
135 126 47 142 133 48 155 146 51 157 148 51 148 139 49 138 130 47 127 120 45 
122 114 44 121 114 44 123 115 44 127 118 45 131 123 46 136 128 46 141 133 47 
146 137 48 148 139 48 147 138 48 142 133 47 132 124 46 127 119 46 135 127 46 
135 127 46 136 128 46 133 125 46 126 119 46 131 124 47 148 139 50 156 147 51 
156 146 50 151 142 49 142 133 48 133 125 47 124 117 46 116 111 45 112 106 44 
122 116 45 147 139 50 157 149 51 152 144 51 140 132 49 121 114 45 114 108 44 
120 114 46 121 115 45 117 111 43 114 108 43 112 106 43 121 114 45 140 132 49 
153 144 51 159 150 52 153 145 51 136 129 48 127 120 46 125 119 46 131 123 46 
143 133 47 145 135 47 137 129 47 127 121 46 117 111 45 115 109 45 122 114 45 
128 119 46 134 125 47 142 133 49 154 145 51 155 146 51 144 136 50 137 129 48 
134 127 47 131 124 46 128 120 45 129 120 46 134 124 46 136 126 47 136 127 47 
142 133 48 153 144 50 156 147 51 152 143 50 144 135 48 133 124 46 127 118 46 
145 135 47 144 134 47 141 133 47 135 128 47 127 120 46 130 122 47 144 135 49 
151 143 50 153 144 50 149 141 49 141 132 47 132 124 46 123 116 45 116 110 45 
114 108 44 123 117 46 144 136 49 152 144 51 147 139 50 137 129 48 121 115 45 
114 108 44 115 109 44 114 108 44 111 105 43 110 104 42 111 105 43 119 112 45 
133 125 47 144 136 49 153 144 51 148 140 50 130 124 47 121 115 45 119 112 45 
124 117 45 137 128 46 139 130 47 130 123 46 126 119 46 125 118 46 124 118 46 
124 117 45 127 119 46 133 124 47 141 132 49 150 141 50 151 142 50 143 135 50 
141 132 49 143 134 48 141 133 48 136 127 47 134 125 47 136 126 47 135 126 47 
132 123 46 135 127 47 147 139 49 150 142 50 146 137 49 141 132 48 135 126 47 
133 123 46 148 138 47 144 135 47 137 128 47 131 123 46 126 119 46 130 122 46 
140 132 48 148 140 49 154 145 50 149 141 50 134 127 47 125 118 46 121 114 45 
120 114 45 122 116 45 128 121 46 136 129 48 139 132 49 137 129 48 133 125 47 
127 120 47 122 115 46 117 110 44 114 108 44 114 109 44 114 108 44 113 107 44 
116 110 44 123 116 45 129 122 46 134 128 47 131 125 47 121 115 45 116 110 44 
118 112 45 122 115 45 128 121 46 129 122 46 126 119 46 131 124 47 143 136 49 
145 137 49 135 128 48 131 124 47 133 125 47 137 129 48 142 134 49 145 137 49 
146 138 50 149 140 50 152 143 50 151 142 50 145 136 49 140 130 48 134 125 46 
128 120 45 121 114 45 121 115 45 128 122 46 130 123 46 128 121 46 131 123 46 
139 131 47 143 134 48 143 133 47 140 130 46 132 124 46 127 119 46 124 116 46 
126 118 46 135 127 47 144 136 48 154 146 51 151 143 50 133 126 47 123 116 46 
121 114 45 123 116 45 129 121 46 132 124 47 132 125 47 132 124 47 130 122 46 
131 123 47 134 127 48 132 124 47 123 116 45 121 114 45 126 119 46 126 119 46 
122 114 45 119 112 44 118 112 44 119 113 44 122 116 45 121 115 45 115 109 44 
115 109 44 121 114 45 126 119 46 131 124 47 132 126 47 130 123 47 137 130 49 
154 145 51 157 148 51 146 138 50 140 133 49 140 132 49 142 133 49 144 136 49 
147 139 50 151 142 50 154 145 51 156 147 51 154 145 51 147 138 50 140 131 48 
131 123 46 124 116 44 116 110 44 114 109 44 118 112 44 121 115 45 123 116 45 
130 122 46 141 133 47 146 137 48 131 122 45 130 122 45 128 120 45 124 116 45 
119 111 45 120 113 45 127 120 46 139 131 48 155 146 51 154 145 51 137 129 48 
127 119 46 122 115 45 124 117 45 133 125 46 135 127 46 132 124 46 130 122 46 
128 119 45 132 123 46 143 134 49 144 136 49 135 127 47 135 127 48 145 137 50 
145 137 50 136 128 48 127 119 46 118 111 44 114 108 44 115 110 44 115 109 44 
114 107 44 117 110 44 126 118 45 135 127 47 146 138 49 149 141 50 144 135 49 
146 138 50 157 148 52 160 151 52 156 148 52 155 147 51 155 146 51 155 146 51 
155 147 51 156 147 51 157 148 52 157 148 52 157 147 52 152 143 51 143 134 49 
135 127 47 128 121 45 122 115 45 116 110 44 114 108 44 117 111 45 123 116 45 
131 124 45 137 129 46 140 132 47 141 133 47 127 119 45 126 118 45 124 116 45 
121 113 45 115 108 45 116 109 45 121 115 45 132 125 47 147 139 50 149 140 50 
137 129 48 130 122 46 127 119 46 128 120 45 134 126 46 134 126 46 130 122 46 
129 121 46 132 123 46 139 130 47 150 141 50 150 142 50 141 133 49 140 132 49 
149 140 50 148 139 50 138 130 48 127 120 46 117 111 44 112 106 44 113 107 44 
114 108 44 117 110 44 121 113 45 125 117 45 134 126 47 149 140 50 155 146 51 
152 143 51 152 143 51 156 147 51 157 148 52 157 149 52 156 148 52 155 147 51 
156 147 52 159 150 52 161 151 52 160 151 52 157 148 52 153 144 51 146 138 50 
137 130 47 131 123 46 125 118 45 121 114 45 117 111 44 117 110 44 120 113 45 
126 119 45 136 128 46 140 132 46 138 130 47 137 129 47 132 124 46 129 121 45 
121 114 44 116 109 44 114 107 44 114 107 44 116 110 45 123 116 46 132 124 48 
135 127 48 132 125 47 132 125 46 135 126 47 135 126 47 132 124 46 128 120 46 
124 116 45 129 121 46 144 135 49 153 143 50 155 146 51 151 143 51 142 134 49 
137 129 49 137 129 48 133 126 48 127 120 46 121 115 45 116 109 44 113 107 44 
113 107 44 117 111 44 125 117 45 125 117 45 118 112 44 123 116 45 140 132 49 
150 142 51 155 147 52 155 147 52 150 142 51 147 139 50 146 139 50 144 137 50 
142 134 49 146 137 50 156 147 52 161 152 53 161 152 53 156 147 52 145 137 51 
137 130 49 131 124 46 126 119 45 122 115 45 121 113 45 121 113 45 122 115 45 
126 119 45 130 123 46 137 129 47 138 130 47 135 127 46 133 125 46 138 130 47 
133 125 46 122 116 45 117 111 44 119 112 44 119 112 45 117 111 45 118 112 45 
124 116 46 126 119 46 126 119 46 130 123 46 138 129 47 139 130 47 133 124 46 
126 119 46 120 113 44 127 119 46 147 137 50 157 147 52 156 148 51 152 144 51 
146 137 50 138 130 49 130 123 47 124 118 46 119 113 45 116 110 44 114 108 44 
113 107 44 114 108 44 117 111 44 124 117 45 124 116 45 115 109 44 118 112 45 
131 123 47 142 134 49 152 144 51 153 145 51 146 138 50 140 132 49 136 129 48 
134 127 48 135 127 47 141 132 48 152 143 51 157 148 52 158 148 52 151 142 51 
137 130 49 128 122 47 124 118 45 122 115 44 121 114 45 122 115 45 126 118 45 
130 121 46 134 127 47 136 128 47 135 127 47 134 126 47 134 126 46 134 126 46 
145 135 48 140 131 47 128 121 46 125 119 46 131 123 46 130 123 46 122 116 46 
119 113 46 123 116 45 123 115 45 119 112 44 124 117 45 136 128 47 140 132 47 
136 128 46 129 121 45 118 111 44 122 115 45 140 132 49 151 142 51 154 145 51 
155 146 51 153 144 51 144 136 49 129 122 46 119 114 45 116 110 44 113 107 44 
113 107 44 113 107 44 114 108 44 115 109 44 116 110 44 117 111 44 117 111 44 
118 112 45 121 115 45 130 122 46 143 134 49 147 138 50 142 134 49 135 127 48 
125 119 46 125 118 46 136 126 47 142 133 48 146 137 49 149 140 50 150 141 50 
143 135 49 129 121 47 120 113 45 117 111 44 117 111 44 121 115 45 126 120 46 
133 124 46 139 130 47 146 137 49 143 135 49 130 123 46 128 121 45 137 129 47 
141 132 48 148 137 48 142 133 48 130 123 47 128 121 46 134 127 47 135 127 47 
129 122 47 125 119 46 124 117 45 121 114 45 118 111 44 122 115 45 134 127 46 
138 130 47 133 125 46 126 119 45 118 112 44 120 114 45 132 124 47 141 132 49 
147 138 50 150 141 50 151 141 50 143 135 48 128 121 46 118 113 44 115 109 44 
115 109 44 117 111 45 117 111 45 114 108 44 114 108 44 116 110 44 118 112 45 
120 114 45 121 115 45 122 116 45 130 122 46 144 135 49 148 139 50 143 134 49 
133 126 47 120 113 45 118 112 45 130 121 46 137 128 47 140 131 48 143 134 49 
145 136 49 138 130 48 124 116 46 115 109 44 114 108 44 116 111 44 123 117 46 
129 122 46 134 126 47 142 133 48 150 141 50 147 139 49 131 125 46 129 123 46 
141 132 48 146 137 48 146 136 48 140 131 48 128 121 46 124 118 46 129 121 46 
133 125 46 139 130 48 136 128 47 127 119 46 122 114 45 121 114 45 125 117 45 
133 125 47 132 124 47 123 116 46 120 113 45 121 114 45 122 115 45 122 115 45 
125 118 46 133 124 48 137 128 48 138 130 47 135 127 47 126 120 45 121 115 45 
118 112 44 120 114 45 127 120 47 126 119 46 116 109 44 115 108 44 123 115 45 
126 119 46 125 119 46 127 121 47 134 127 48 143 135 49 155 146 51 156 147 51 
149 140 50 136 129 48 119 113 45 114 108 44 119 112 44 126 118 45 134 126 47 
139 131 48 143 134 48 137 128 47 122 115 45 115 108 45 115 109 45 118 112 45 
125 119 46 129 123 46 130 124 46 136 129 47 148 140 49 148 140 50 139 132 48 
138 131 47 145 136 48 148 139 49 146 136 48 140 131 48 126 119 46 122 116 46 
129 121 46 135 126 47 140 131 48 138 129 47 128 120 46 124 116 46 127 119 45 
129 121 46 131 122 46 127 119 46 118 111 45 116 109 45 120 113 45 121 114 45 
117 111 45 119 112 45 126 118 46 129 121 46 128 120 46 125 118 45 122 115 45 
122 116 45 126 119 46 132 125 47 140 132 49 138 130 49 126 119 46 125 117 46 
134 126 47 136 128 48 131 125 48 132 126 48 139 132 49 147 139 50 155 146 51 
154 146 51 144 137 49 132 125 47 118 112 45 112 106 43 114 108 43 122 115 45 
136 128 48 142 133 49 140 131 47 133 125 46 121 114 45 116 110 45 119 112 45 
125 118 46 135 127 48 136 129 48 130 124 46 133 127 47 147 139 49 151 143 50 
144 137 49 144 136 49 150 141 49 152 143 50 149 139 49 141 132 48 124 118 46 
123 116 46 136 128 48 139 131 48 134 125 47 130 122 46 127 120 46 129 121 46 
134 125 47 134 125 46 128 120 46 123 115 45 116 110 44 114 108 44 115 109 44 
116 110 44 118 111 45 121 114 45 127 119 45 126 118 45 120 113 44 115 109 44 
113 107 43 121 115 45 139 131 49 150 142 51 154 146 51 153 144 51 146 138 50 
145 137 50 149 140 50 147 139 50 139 131 49 136 129 48 139 132 48 142 134 49 
145 137 50 141 134 49 131 124 47 122 116 45 116 109 44 113 107 44 114 108 44 
125 118 46 145 137 50 149 140 50 137 129 48 127 120 46 121 114 45 120 113 45 
125 118 46 135 128 48 151 142 51 150 142 51 133 126 47 133 126 47 149 140 50 
153 145 51 146 139 49 147 139 49 155 147 51 159 150 52 144 135 48 137 129 47 
122 116 45 122 115 45 134 126 48 138 129 48 133 124 47 130 122 46 131 124 46 
134 126 47 138 129 47 137 128 47 130 122 46 123 116 45 116 110 44 113 107 44 
113 107 44 115 109 44 119 112 45 124 116 45 129 121 45 127 119 45 118 112 44 
115 109 44 116 110 44 126 119 46 144 135 50 154 145 52 157 148 52 157 148 52 
155 147 52 155 146 52 157 148 52 154 145 51 145 136 49 140 132 48 139 132 48 
139 131 48 138 130 48 135 127 48 128 122 46 124 117 45 120 113 45 119 112 45 
118 112 45 128 121 47 146 138 50 148 140 50 133 126 48 125 118 46 123 116 46 
124 117 45 127 120 46 136 128 48 151 142 51 150 141 50 133 125 47 131 124 47 
145 137 50 149 141 50 143 135 49 144 137 49 154 145 51 159 149 52 131 123 46 
127 120 45 120 114 45 119 113 45 125 117 45 131 122 46 138 128 47 140 131 47 
139 130 47 139 131 47 140 132 48 139 131 48 136 128 47 129 122 46 119 112 44 
114 107 44 113 107 44 116 110 44 122 114 45 127 119 45 133 124 46 131 124 46 
124 117 45 124 118 46 132 125 48 137 130 48 140 132 49 144 135 49 148 139 50 
151 142 51 154 145 51 156 147 52 158 149 51 156 146 51 148 139 49 143 134 48 
140 132 48 137 130 48 134 127 47 135 127 48 138 130 49 137 130 48 132 125 47 
129 121 47 126 120 46 130 123 47 139 131 48 139 131 48 129 121 46 126 118 46 
128 121 47 127 121 46 123 116 45 125 118 45 135 127 47 136 128 47 129 121 46 
129 121 47 137 128 48 138 130 49 133 126 47 136 129 47 146 138 49 151 142 50 
129 122 45 129 122 46 129 122 46 127 120 46 125 117 45 128 120 45 138 128 46 
142 132 47 142 133 47 140 132 47 137 129 47 135 128 47 135 127 47 131 123 46 
122 115 45 117 110 44 116 109 44 117 110 44 121 114 45 126 118 45 131 123 46 
133 125 46 132 124 46 133 126 47 137 130 48 137 130 48 133 125 47 133 126 47 
139 131 49 142 134 49 145 136 50 149 140 50 154 145 51 155 146 50 151 141 49 
147 138 48 145 136 49 139 131 48 131 123 47 132 124 47 145 136 50 148 140 51 
144 136 50 141 133 49 138 130 48 138 131 48 142 134 49 141 132 48 135 127 47 
133 125 47 133 126 47 129 123 46 121 115 45 119 113 44 123 116 45 126 118 45 
127 119 46 128 120 46 130 122 47 129 121 47 125 118 46 127 120 46 136 127 47 
140 131 48 138 130 47 141 133 48 148 140 50 146 138 49 134 127 47 130 123 46 
133 125 46 136 127 46 140 131 47 137 129 47 128 121 46 125 118 45 129 120 45 
129 120 45 125 118 45 122 116 45 119 113 45 117 111 45 116 110 44 119 112 44 
124 117 45 132 124 46 142 132 47 142 133 48 133 125 47 126 120 46 122 116 46 
123 117 46 130 123 46 132 124 47 128 120 46 132 125 47 145 137 50 152 143 51 
152 143 51 152 143 51 153 144 51 144 136 49 127 119 46 128 120 46 148 140 50 
158 149 52 156 147 52 155 146 51 154 145 51 154 145 51 155 146 51 154 145 51 
152 143 50 146 137 49 138 129 47 130 122 46 123 116 45 118 112 45 115 109 44 
118 112 45 127 119 46 129 121 46 125 117 46 121 114 45 117 111 45 117 111 44 
122 115 45 124 116 45 143 134 48 147 139 49 157 148 51 155 146 51 141 133 48 
133 126 47 130 123 46 133 125 46 140 131 47 138 130 47 128 120 45 125 117 45 
131 122 46 133 124 46 133 125 47 130 123 46 125 118 46 120 113 45 116 110 44 
116 110 44 123 116 45 132 124 46 144 134 48 145 135 48 134 126 47 127 120 46 
123 117 45 124 118 45 130 122 46 128 121 46 120 113 44 122 116 45 135 128 48 
144 136 50 149 141 51 152 143 51 153 143 51 143 134 49 123 116 45 125 118 46 
149 140 50 161 151 53 160 151 52 158 149 52 156 147 52 156 147 52 160 151 52 
161 152 52 160 151 52 153 144 50 140 132 47 133 125 46 131 124 47 126 120 47 
116 111 45 116 110 44 125 118 45 127 119 46 120 113 45 116 109 44 114 108 44 
114 107 44 115 108 44 115 109 44 143 134 48 147 138 49 156 146 51 156 146 51 
145 137 49 137 129 47 130 123 46 132 124 46 143 134 48 144 135 48 135 127 46 
135 126 46 141 132 48 144 135 49 144 135 48 140 131 47 133 125 46 126 119 45 
119 112 45 119 113 45 127 120 46 134 126 47 139 130 48 141 132 48 139 131 48 
138 130 47 137 128 47 137 128 47 138 129 47 133 125 46 121 115 44 118 112 44 
123 117 46 131 125 48 144 136 50 148 139 50 144 135 49 134 126 47 118 112 44 
122 116 45 146 139 50 157 149 52 155 146 51 150 142 50 144 136 49 146 138 50 
158 149 52 162 153 52 160 151 52 153 144 50 140 132 48 138 131 48 148 139 50 
144 136 49 126 120 46 119 113 44 123 115 45 122 114 45 115 109 44 113 107 44 
116 109 44 116 109 44 114 108 44 113 107 44 135 127 47 139 130 48 148 138 50 
148 139 50 141 133 48 136 128 47 133 126 47 135 128 47 143 134 49 143 134 48 
137 128 46 136 127 46 138 130 48 142 133 48 147 137 48 144 134 48 134 125 47 
125 118 46 118 112 45 120 113 45 130 122 47 137 129 48 142 133 49 143 135 49 
141 133 48 139 131 48 140 131 47 139 130 47 136 128 47 130 123 46 121 115 44 
118 112 44 121 115 45 131 124 47 145 138 50 148 140 50 140 131 48 129 121 46 
118 112 44 121 115 45 138 131 49 146 138 50 144 136 49 139 131 48 131 124 47 
135 127 48 149 141 50 156 148 51 156 147 51 149 141 50 137 129 48 138 131 48 
155 146 51 154 145 51 136 129 47 126 119 45 126 118 45 123 116 45 119 113 45 
118 112 45 119 113 44 119 112 44 117 110 44 115 109 44 119 111 45 123 115 45 
132 124 47 133 126 47 127 120 46 129 122 46 140 132 49 144 136 49 141 133 48 
137 129 47 133 125 46 128 120 45 121 114 45 126 118 45 141 131 48 141 131 48 
127 119 47 118 112 45 113 108 44 118 112 45 130 123 47 142 134 49 154 145 51 
152 143 51 137 129 48 131 124 46 134 126 46 132 124 46 125 117 45 121 114 44 
121 114 44 124 117 44 131 123 47 141 133 49 155 146 51 154 145 51 138 130 48 
128 120 46 123 116 45 121 115 45 125 118 46 126 120 47 127 120 46 124 117 45 
118 112 45 122 115 45 135 128 48 144 136 49 148 140 50 143 135 49 130 123 47 
134 126 47 153 144 51 157 148 51 145 137 49 138 129 48 134 126 47 132 124 47 
131 124 47 129 123 47 125 118 45 122 116 45 122 115 45 122 115 45 115 108 44 
119 112 45 129 122 46 130 122 46 121 114 45 125 118 46 143 136 49 150 142 51 
145 137 49 142 134 48 140 132 48 134 126 47 123 116 45 124 116 45 135 126 47 
135 126 48 124 118 47 117 112 45 115 109 44 120 113 45 133 126 47 145 138 49 
158 149 52 155 146 51 135 127 47 126 119 45 128 121 46 125 119 45 118 111 44 
117 110 44 121 114 44 126 119 45 132 124 47 142 134 49 157 148 52 156 147 51 
140 132 48 131 123 47 129 121 46 126 119 46 123 117 46 121 115 46 120 113 45 
117 111 44 112 106 44 116 110 44 128 121 47 135 128 48 137 129 48 134 126 47 
125 118 46 129 121 46 145 137 49 151 142 50 146 137 49 142 133 48 137 129 48 
137 129 48 140 133 49 137 130 48 128 121 46 123 116 45 122 115 45 122 115 45 
123 115 45 128 120 46 140 131 47 138 129 47 122 115 45 124 117 46 144 136 49 
154 146 51 156 147 51 157 148 51 156 147 51 152 143 50 144 135 49 136 128 48 
129 121 47 125 119 46 126 120 46 125 119 46 121 115 45 126 119 46 137 130 47 
147 139 49 156 147 51 151 143 51 134 127 47 124 118 45 122 116 45 120 113 45 
117 110 45 117 111 45 122 115 45 124 117 46 124 118 45 134 126 47 153 144 51 
156 147 51 144 136 49 138 130 48 137 128 48 136 127 47 135 126 47 131 123 46 
125 117 46 119 112 45 113 107 44 116 110 44 127 121 47 129 123 47 123 116 45 
120 113 45 120 113 45 123 116 45 130 123 46 135 127 47 138 129 47 138 129 47 
136 128 48 138 131 48 145 138 49 142 134 49 128 121 46 120 113 45 117 111 44 
116 109 44 125 117 46 130 122 46 140 131 48 137 129 47 122 114 45 121 114 45 
137 130 48 148 140 50 154 146 51 158 149 52 158 149 52 154 145 51 145 136 49 
135 127 47 122 116 46 120 114 45 127 121 46 129 123 46 128 120 46 130 122 47 
136 128 47 141 133 48 145 137 50 142 134 49 133 125 47 127 120 46 125 117 45 
123 116 45 122 116 45 123 116 46 124 117 46 123 116 46 120 114 45 126 120 46 
142 134 49 146 138 50 139 131 48 136 128 47 138 130 48 140 131 48 141 132 48 
139 130 47 133 126 47 126 119 46 117 111 44 116 110 44 124 118 46 124 117 46 
115 109 44 113 106 44 117 110 44 122 115 45 128 121 46 134 127 47 141 132 48 
140 132 48 134 127 48 133 127 48 139 131 48 136 128 47 125 118 45 117 111 44 
114 108 44 112 106 44 119 112 45 123 116 45 130 122 46 129 121 46 119 112 45 
118 110 44 124 117 45 132 124 47 140 132 49 144 137 50 146 138 50 140 132 49 
129 121 46 120 113 45 116 110 44 118 112 45 126 120 46 131 124 46 134 125 47 
132 124 47 128 120 47 125 118 46 126 119 46 128 121 46 131 123 46 134 125 46 
134 126 46 135 127 47 136 127 47 132 124 46 125 118 46 121 114 45 119 112 45 
120 113 45 124 117 46 125 118 46 123 117 46 126 119 46 132 125 47 137 130 48 
143 134 48 145 136 49 146 138 49 138 131 48 122 116 45 116 110 44 120 113 45 
119 112 45 113 107 44 112 106 44 117 111 44 126 119 45 139 131 47 149 140 49 
155 146 51 149 140 50 131 124 47 121 115 45 120 114 45 119 113 45 117 111 44 
115 109 44 113 107 44 112 106 44 124 116 45 124 117 45 126 119 46 123 116 45 
117 111 44 115 109 44 117 111 44 121 115 45 127 121 46 133 126 48 139 131 49 
135 127 48 121 114 45 114 108 43 114 108 44 118 112 44 125 119 46 130 122 46 
131 123 46 129 121 46 123 115 46 119 113 45 119 113 45 123 116 45 131 123 46 
137 128 46 141 131 47 141 132 47 139 129 47 133 125 46 125 117 45 120 113 45 
119 112 45 118 111 45 116 110 45 116 110 45 117 111 45 121 115 45 129 122 46 
135 128 48 142 134 49 148 139 50 154 145 51 148 140 50 130 123 47 120 114 45 
119 112 45 119 112 45 120 113 45 122 115 45 125 119 46 134 127 47 148 139 49 
157 147 51 161 152 52 153 145 51 133 126 47 122 115 44 118 112 44 119 112 44 
123 117 45 124 117 45 120 114 45 119 112 44 138 129 47 135 126 46 128 120 45 
122 115 45 117 110 44 115 109 44 117 111 45 118 112 45 118 111 44 124 117 46 
138 129 48 137 129 48 123 116 46 117 110 44 118 111 44 120 114 45 124 117 46 
124 117 46 121 114 45 120 113 44 120 114 45 123 116 45 126 118 45 129 121 46 
132 124 46 137 128 46 144 134 48 142 132 48 131 122 46 124 117 45 122 115 46 
120 114 46 119 113 45 119 113 45 120 113 45 120 113 45 120 114 45 123 116 45 
128 121 46 134 126 47 140 132 48 148 139 49 157 148 52 155 146 51 142 133 49 
131 123 46 122 115 45 124 117 45 136 128 47 142 134 48 143 135 49 147 138 49 
154 145 50 158 148 51 159 150 52 153 144 51 142 132 48 135 126 46 132 124 46 
135 128 47 143 135 48 144 135 48 137 128 46 133 125 45 146 137 48 141 132 47 
129 121 46 121 114 45 116 110 44 115 109 44 118 112 45 118 112 45 116 110 44 
124 116 45 140 131 48 142 133 49 130 122 46 124 117 45 123 116 45 122 115 45 
122 115 46 119 113 45 115 109 44 118 112 44 126 120 46 131 124 46 132 123 46 
133 124 46 136 127 46 139 129 47 142 132 48 139 129 47 129 120 46 123 116 45 
122 116 46 123 117 46 125 119 46 127 121 46 130 123 47 131 123 47 130 123 46 
129 122 46 128 121 46 130 123 47 134 127 47 142 134 48 152 144 51 154 145 51 
146 137 49 138 129 47 127 120 46 131 123 46 147 138 49 154 145 50 153 144 51 
154 145 51 158 149 51 157 149 51 153 145 51 149 140 50 143 133 48 140 130 47 
139 130 47 143 135 48 154 145 50 153 144 50 141 132 47 136 127 46 150 141 49 
144 135 48 130 122 46 120 113 45 115 108 44 114 108 44 120 113 45 123 116 46 
124 116 45 131 123 46 146 137 49 149 140 50 141 133 47 135 127 46 129 121 46 
124 116 45 118 111 45 115 109 44 115 109 44 123 117 46 140 132 48 145 136 49 
136 128 47 135 127 46 141 132 47 142 132 47 136 127 47 132 124 47 131 124 47 
129 122 47 126 119 46 128 121 47 137 130 49 143 136 50 146 139 50 148 140 50 
148 139 50 141 133 48 130 123 46 124 118 45 125 118 46 130 123 47 140 132 48 
145 136 49 145 135 49 141 132 48 135 127 46 139 131 47 153 144 51 158 149 52 
155 146 51 156 146 51 160 151 52 157 148 52 145 136 50 139 130 48 138 129 47 
138 129 47 138 129 47 144 135 48 155 146 51 152 144 51 135 127 48 127 120 47 
154 145 50 148 139 49 134 126 47 124 117 46 117 110 45 116 110 45 121 114 46 
125 118 46 128 120 46 136 127 47 148 139 49 152 143 50 148 139 48 141 133 47 
133 125 46 124 117 45 115 109 44 112 107 44 115 109 44 126 119 46 146 137 50 
150 141 50 140 132 47 138 130 46 146 136 47 143 134 47 131 123 46 126 119 46 
128 121 46 127 120 46 124 117 46 127 120 46 137 130 49 143 136 50 145 137 49 
146 138 49 147 139 50 142 134 49 130 123 46 123 117 45 123 116 45 126 119 46 
134 126 47 139 130 48 140 131 48 141 131 47 141 132 47 146 137 48 156 147 51 
159 150 52 155 146 51 154 145 51 156 148 51 152 143 50 140 132 48 136 128 47 
139 130 47 139 130 47 136 127 47 138 129 47 146 137 49 143 134 49 127 120 47 
120 114 46 158 149 51 153 144 50 143 135 48 132 125 46 122 116 46 119 112 46 
123 116 46 127 119 46 130 122 47 137 128 47 146 137 49 150 141 49 149 139 48 
144 134 48 134 126 46 124 117 45 115 109 44 112 107 44 115 110 44 125 119 46 
143 135 49 148 140 49 142 134 48 142 134 47 149 139 48 144 134 47 129 121 45 
120 113 44 118 112 45 117 111 45 116 110 44 119 113 45 126 119 46 127 121 46 
124 118 45 125 118 46 130 123 47 131 124 47 129 122 46 128 120 46 126 120 46 
128 122 46 134 125 47 135 126 47 133 124 46 136 127 46 144 135 47 150 141 49 
156 146 50 157 148 51 154 145 50 150 142 49 147 138 48 143 135 48 139 131 47 
140 132 47 144 136 48 142 134 47 132 124 46 127 119 45 126 119 45 123 116 45 
118 112 45 116 110 45 156 147 51 153 144 50 147 138 48 139 131 47 128 121 46 
124 117 46 126 118 46 128 120 46 130 123 47 136 128 47 145 136 48 148 139 49 
147 137 48 142 133 47 134 126 47 126 119 46 119 112 45 117 110 44 119 113 45 
126 119 46 135 128 47 138 131 48 136 128 47 138 130 47 146 136 48 141 132 47 
126 118 45 116 110 43 113 107 44 112 106 44 112 106 44 114 108 44 118 112 44 
118 112 44 114 108 44 114 108 44 118 112 45 124 117 46 130 122 46 132 124 47 
130 123 46 130 123 46 133 125 47 135 126 47 135 126 47 137 128 47 141 133 47 
144 135 48 144 136 48 145 137 49 147 138 49 144 136 48 138 130 47 136 128 46 
140 132 47 143 135 47 144 136 48 140 132 47 129 121 46 121 114 44 117 110 44 
114 108 43 115 108 44 115 109 44 147 138 48 147 138 48 147 138 48 143 134 48 
135 127 47 130 123 46 129 122 46 129 121 46 129 121 46 134 126 47 143 134 48 
146 136 48 141 132 47 136 128 46 133 125 47 129 121 47 126 119 46 125 118 46 
127 119 46 126 119 45 123 116 45 121 115 45 120 114 44 125 118 45 136 128 47 
135 127 47 123 115 45 116 108 44 114 107 44 113 107 44 113 107 44 114 108 44 
115 109 44 115 109 44 114 108 44 113 107 44 113 107 44 120 113 45 133 125 47 
137 129 48 133 125 47 131 124 46 133 125 46 137 129 47 145 136 49 144 135 49 
134 126 46 126 119 45 121 115 45 124 117 45 134 126 46 135 127 47 129 121 46 
132 124 46 143 135 48 145 137 48 138 130 47 132 124 46 126 118 45 121 114 45 
117 111 44 116 110 44 116 110 44 116 110 45 142 133 47 142 133 47 143 134 48 
140 131 47 133 125 46 130 122 46 132 124 46 131 124 46 127 120 46 130 122 46 
138 130 47 141 132 48 137 129 46 134 126 46 132 124 47 130 121 47 128 120 46 
130 122 46 134 126 47 130 122 46 118 111 44 112 106 43 112 107 44 117 111 44 
126 119 46 128 120 46 121 113 45 119 111 44 120 113 45 119 112 45 116 110 44 
114 108 44 114 108 44 113 107 44 113 107 44 114 108 44 116 109 44 121 114 45 
131 124 47 134 126 47 129 121 46 130 122 46 137 129 47 144 136 49 152 143 51 
148 139 50 131 124 46 120 113 44 113 107 44 115 109 44 125 118 45 129 121 46 
127 119 46 131 123 47 142 134 48 142 134 47 131 123 46 125 117 45 125 117 45 
124 116 45 121 115 44 121 115 45 123 115 45 123 116 46 139 130 47 138 129 47 
135 127 47 130 122 46 122 114 45 123 116 45 133 126 47 134 127 47 125 118 46 
124 116 46 130 122 47 134 126 47 137 129 47 136 128 47 131 123 46 127 119 46 
125 117 46 130 122 47 140 132 48 137 129 48 120 113 45 112 106 44 113 107 44 
114 108 44 116 110 44 119 112 45 122 114 45 126 118 46 132 124 47 130 123 47 
121 114 45 116 110 44 115 109 44 114 108 44 112 107 44 116 110 44 125 117 46 
128 120 46 126 118 46 123 116 45 119 111 44 126 119 46 145 137 49 155 147 51 
158 149 52 151 142 50 134 127 47 124 117 45 120 113 45 119 112 45 121 114 45 
124 117 45 129 121 46 134 126 47 139 131 47 135 127 47 122 114 45 118 111 44 
125 118 45 128 121 46 128 121 45 130 123 46 133 125 47 135 126 47 136 127 47 
134 126 47 130 122 46 124 117 45 117 110 44 118 111 44 129 122 46 130 123 46 
121 114 45 119 112 45 124 117 46 130 123 47 137 129 47 137 129 47 131 123 46 
126 118 46 123 115 46 128 120 47 139 132 49 137 129 48 120 113 45 112 106 44 
113 107 44 113 107 44 112 106 44 116 110 44 125 118 46 133 125 47 140 132 48 
137 129 48 123 117 46 116 110 45 115 109 44 115 109 44 117 111 44 123 116 45 
132 124 47 134 125 47 126 119 46 120 113 44 115 108 44 123 116 45 145 138 49 
155 147 51 151 143 50 144 136 49 134 127 47 128 121 46 126 118 45 124 116 45 
122 114 45 124 117 45 131 123 46 136 128 47 140 131 47 136 127 47 124 117 45 
121 114 45 126 119 46 130 123 46 134 126 46 138 130 47 143 134 48 145 136 49 
134 125 46 132 124 46 128 121 46 123 116 45 117 111 45 115 110 44 119 113 44 
118 112 44 115 109 44 116 110 44 123 116 46 130 123 46 138 130 47 139 130 47 
131 124 46 126 119 46 121 115 45 123 116 46 131 124 47 129 122 47 118 112 45 
112 107 44 113 107 44 114 108 44 115 108 44 121 114 45 133 125 46 141 132 48 
145 137 49 139 132 49 124 117 46 115 109 44 113 107 44 117 111 44 127 120 46 
134 126 47 138 129 47 137 128 47 133 125 46 126 119 45 117 110 44 121 114 45 
138 131 48 142 135 49 132 126 47 128 122 46 131 124 46 131 124 46 131 123 46 
129 121 46 127 119 46 128 120 46 132 125 46 138 129 47 144 134 48 144 134 48 
139 130 47 134 125 46 127 120 46 129 122 46 139 130 47 147 137 48 152 143 50 
154 145 51 134 126 46 135 127 47 135 128 47 133 126 47 127 121 47 123 117 46 
121 114 45 118 112 44 115 110 44 118 112 45 125 119 46 132 124 46 137 128 47 
138 129 47 133 125 46 128 121 46 122 116 45 120 114 45 124 117 46 122 116 46 
116 110 44 114 108 44 118 112 44 120 114 45 121 114 45 125 117 46 132 124 46 
137 129 47 139 131 48 134 127 48 122 115 46 116 110 45 117 110 44 124 116 45 
136 128 47 142 133 48 141 132 47 138 129 47 134 126 46 128 120 45 119 112 44 
120 113 45 131 124 47 131 124 47 122 115 45 120 114 45 127 120 45 131 123 46 
133 125 46 133 125 46 130 123 46 131 123 46 133 126 46 136 128 46 140 130 47 
142 132 48 142 133 47 137 128 47 126 119 46 128 120 46 141 132 47 151 141 49 
155 146 51 157 148 51 139 130 47 143 134 48 152 143 50 153 145 51 148 139 50 
142 133 49 136 127 47 130 122 46 123 117 46 124 118 46 132 125 47 136 127 47 
134 125 46 134 125 46 136 126 46 133 124 46 125 118 45 120 114 45 118 112 45 
115 109 44 113 107 44 117 111 45 128 121 46 132 125 47 131 123 46 128 120 46 
123 116 45 121 114 45 122 115 45 120 113 45 116 110 45 118 112 45 127 119 46 
136 127 47 145 135 48 147 137 48 142 132 47 136 127 47 129 122 46 124 117 45 
119 113 45 119 112 45 122 115 45 122 115 45 119 112 45 119 112 45 122 115 45 
127 119 46 132 124 47 134 126 47 132 125 47 132 125 47 134 126 46 132 124 46 
128 120 46 128 120 46 133 125 47 131 123 47 121 114 45 124 116 45 140 131 47 
150 141 49 153 144 50 155 146 51 143 134 48 147 138 49 156 147 51 157 148 51 
149 141 50 143 134 49 136 127 47 131 123 46 127 120 46 129 122 46 138 129 47 
140 131 47 137 128 47 136 127 47 137 127 46 134 125 46 125 118 45 119 114 45 
116 110 44 114 108 44 113 107 44 118 111 45 128 121 46 133 126 47 132 124 46 
127 119 45 118 111 44 113 107 44 113 106 44 114 108 44 117 111 45 123 116 46 
132 123 47 140 131 47 148 138 48 147 138 48 138 129 47 130 122 46 124 117 45 
120 113 45 118 112 45 117 111 45 117 110 44 117 110 44 116 110 44 118 111 45 
121 113 45 128 120 46 138 130 48 140 132 49 135 127 48 132 125 47 133 125 46 
129 121 46 120 113 45 119 112 45 127 119 46 129 121 47 125 117 46 131 122 46 
145 136 48 151 142 49 147 138 49 145 137 49 146 138 50 146 138 50 147 138 49 
142 134 48 133 126 47 126 119 46 122 115 46 122 115 46 125 118 46 132 124 46 
141 132 47 146 136 48 147 137 49 144 135 49 137 129 47 130 122 45 123 116 45 
120 113 45 120 114 45 119 112 44 116 109 44 115 109 44 118 112 44 121 114 45 
123 116 45 122 115 45 116 110 44 113 107 44 112 106 44 116 110 44 125 117 45 
131 122 46 133 124 46 138 129 47 146 136 48 144 134 48 130 122 46 122 115 45 
118 112 44 116 110 44 115 109 44 115 108 44 116 109 44 116 109 44 114 108 44 
116 110 45 123 116 46 134 127 48 150 141 51 151 142 51 138 130 49 131 124 47 
131 123 46 126 118 45 116 109 44 115 109 44 123 116 46 131 123 47 138 129 48 
146 137 49 156 147 51 153 144 50 137 129 48 129 122 47 149 140 50 146 137 49 
140 131 48 132 124 47 122 116 45 117 111 44 115 110 44 119 112 45 126 118 46 
134 126 46 144 134 47 150 140 48 153 144 50 150 142 50 141 133 48 133 125 46 
125 117 45 122 115 45 126 118 45 124 117 45 118 111 44 114 108 44 113 108 44 
115 109 44 120 113 45 120 113 45 115 109 44 113 107 44 113 107 44 119 112 45 
130 121 46 135 126 46 134 125 46 137 127 46 142 132 47 138 129 47 124 116 45 
116 110 44 114 108 44 114 108 44 115 109 44 115 109 44 116 109 44 115 108 44 
113 107 44 118 111 45 127 121 46 140 132 49 154 145 51 154 145 51 138 130 49 
131 123 47 133 124 47 129 121 46 120 113 45 118 112 44 124 117 45 131 124 47 
139 131 48 145 137 49 150 141 50 144 136 49 129 122 46 122 115 45 150 140 49 
145 136 48 134 126 47 125 118 46 118 112 44 115 109 44 117 111 44 121 114 44 
128 121 46 137 128 46 146 137 47 153 143 49 157 148 51 156 147 51 150 141 49 
141 133 48 131 123 46 127 120 46 132 124 47 129 122 46 119 113 45 114 109 44 
115 109 44 117 111 44 121 114 45 121 114 45 116 110 44 115 108 44 116 110 44 
122 114 45 131 123 46 136 127 47 137 128 46 136 127 46 135 126 46 129 121 45 
119 112 44 113 107 44 113 107 44 115 109 44 119 113 45 119 113 45 116 110 44 
115 108 44 115 108 44 122 114 45 134 126 47 144 135 49 151 142 50 148 139 50 
134 126 47 131 123 46 138 129 47 138 129 47 132 123 46 129 121 46 129 122 46 
129 122 46 128 121 46 128 120 46 127 121 46 126 119 46 123 116 45 122 115 45 
151 140 48 145 135 47 132 123 46 122 115 45 116 110 44 115 108 44 118 111 44 
123 116 44 129 122 45 138 129 46 147 138 47 155 145 49 159 150 52 159 150 52 
154 145 50 145 136 48 133 125 47 130 122 46 135 126 47 131 124 47 120 114 45 
115 109 44 115 109 44 117 111 44 121 114 45 121 114 45 116 110 44 115 109 44 
117 111 45 123 115 46 132 123 47 137 128 47 138 129 46 136 127 46 132 124 45 
125 118 45 116 110 44 112 107 44 113 107 44 116 110 44 120 114 45 121 115 45 
116 110 44 115 108 44 116 109 45 123 116 46 138 129 47 146 137 49 149 140 50 
145 136 49 133 125 47 131 123 46 140 131 47 142 133 47 138 128 46 134 125 46 
132 124 46 128 121 46 123 117 45 120 113 45 117 111 45 117 111 45 121 114 45 
122 115 45 
