P3
64 64
255
132 121 112 134 127 119 141 141 134 146 150 145 149 152 151 153 157 156 
157 162 160 161 166 163 164 165 165 159 156 156 144 141 138 141 138 135 
152 152 149 149 149 146 131 131 126 129 127 122 142 136 132 153 148 145 
162 161 160 165 166 166 161 163 161 159 163 161 158 163 162 152 155 153 
147 146 143 147 145 143 154 153 153 157 157 159 159 159 159 161 162 162 
162 167 169 163 168 170 163 165 166 163 164 166 162 164 168 161 165 169 
160 165 169 160 165 166 160 162 161 162 164 162 165 169 169 165 169 170 
161 165 168 163 167 168 169 174 175 169 173 174 162 164 167 156 157 159 
148 150 152 144 146 147 143 143 144 141 141 140 140 141 137 143 143 140 
148 147 146 148 149 149 145 147 145 143 145 143 144 143 141 147 141 134 
146 134 119 147 128 106 143 129 90 142 120 90 140 134 129 145 141 137 
145 145 140 147 150 146 147 148 146 148 148 146 149 150 146 149 147 142 
155 152 150 152 148 146 142 139 136 138 134 129 149 149 146 146 147 144 
144 146 142 136 133 130 150 150 148 150 145 141 152 150 147 157 156 154 
159 160 158 157 160 158 153 156 154 149 149 147 147 144 142 148 145 143 
154 153 153 155 154 154 159 158 158 160 161 161 162 165 166 162 167 168 
158 158 157 146 137 134 157 157 158 161 165 169 159 163 166 157 162 163 
158 162 159 161 164 163 164 169 170 166 171 173 163 169 172 163 168 169 
164 166 166 160 160 159 146 139 136 148 144 143 144 142 142 142 141 141 
141 139 139 142 141 140 145 147 144 148 150 148 149 150 149 147 148 147 
145 146 145 145 145 141 145 142 134 146 136 123 147 128 108 144 127 87 
141 124 79 132 126 71 135 124 117 149 149 146 142 136 131 152 152 151 
142 139 136 136 130 125 134 126 117 132 119 109 135 123 115 137 127 120 
140 137 131 139 138 131 139 143 137 147 149 147 159 166 167 159 164 164 
153 154 153 143 138 134 137 127 120 139 130 123 154 153 151 156 157 156 
144 141 140 141 136 134 146 141 140 151 146 145 157 157 156 161 161 161 
158 157 157 157 157 157 151 149 144 160 165 163 154 153 151 142 133 127 
163 165 166 162 167 169 157 162 164 152 155 156 157 158 158 160 163 163 
163 170 171 166 174 176 168 177 181 163 170 171 152 150 147 141 134 127 
131 117 108 131 117 110 135 126 120 137 131 127 136 132 128 143 142 141 
154 158 158 157 160 161 152 154 154 148 148 149 147 147 142 146 143 135 
146 138 126 145 130 110 143 125 89 140 123 76 136 126 68 131 126 69 139 132 126 
155 157 156 157 157 156 153 151 150 138 131 125 136 130 125 132 122 113 
130 117 108 130 116 105 134 124 116 144 142 137 144 146 141 137 137 130 
154 157 157 161 167 168 155 156 155 147 144 141 139 132 125 130 117 109 
131 119 110 147 144 140 152 151 150 145 142 140 144 139 137 150 145 143 
143 132 128 145 139 134 140 129 122 153 150 149 160 160 160 160 163 162 
160 163 162 154 157 155 156 159 158 165 169 170 161 167 168 160 166 167 
152 153 153 153 153 152 161 165 167 161 166 167 163 170 171 168 177 180 
164 171 172 150 149 146 141 133 127 133 121 112 132 119 112 138 130 125 
140 134 130 138 134 131 144 143 141 153 153 153 155 154 156 151 152 152 
150 148 146 148 144 136 147 139 126 144 132 113 143 125 95 141 122 79 
136 123 66 131 125 62 129 125 67 146 141 137 156 159 158 159 161 160 
151 149 145 135 126 117 154 156 154 144 142 137 137 129 123 137 130 123 
143 137 131 155 154 151 153 152 149 137 130 123 142 136 131 153 153 151 
150 146 143 147 144 141 132 119 112 128 114 104 133 121 111 142 136 130 
155 158 157 155 155 154 158 158 158 143 135 129 127 109 98 130 116 106 
148 146 143 153 148 147 153 148 147 162 164 165 160 162 163 157 159 161 
158 159 160 163 167 167 161 166 166 155 159 160 142 138 134 129 113 103 
161 162 162 157 162 160 157 160 159 163 170 171 165 170 172 160 163 163 
158 160 159 150 150 148 149 148 146 147 142 139 146 142 140 146 145 144 
144 142 139 144 140 137 147 143 141 150 147 145 149 145 137 147 139 126 
145 133 114 142 127 97 140 120 83 135 120 66 132 124 59 131 124 60 128 123 65 
156 158 158 156 159 159 158 161 160 150 150 146 133 122 114 141 135 130 
144 141 134 146 143 138 143 139 134 147 143 138 158 157 155 157 154 152 
141 134 128 140 131 125 156 158 157 158 161 161 160 166 166 138 128 122 
128 112 103 137 128 121 139 132 125 152 154 151 154 155 154 159 161 161 
151 150 148 132 117 108 134 123 116 153 155 153 154 152 151 159 159 159 
158 161 163 159 162 163 155 156 158 156 159 160 159 162 162 157 162 161 
156 161 161 153 154 153 141 131 126 161 163 163 154 156 153 152 154 150 
156 157 156 154 153 153 161 165 167 160 166 167 145 141 136 135 124 117 
129 117 109 137 126 119 151 150 150 146 142 142 143 139 136 146 140 138 
149 143 137 148 139 128 145 132 113 142 128 98 140 119 85 136 118 68 
131 123 58 129 122 56 128 122 59 126 121 63 152 154 153 153 155 154 
157 161 161 151 154 151 136 129 123 136 127 120 148 146 140 153 153 148 
146 142 137 147 142 137 153 151 149 149 145 143 150 147 146 149 147 146 
154 152 150 160 164 165 156 160 159 139 134 130 142 135 129 147 140 138 
142 136 130 141 135 130 144 140 137 150 150 149 160 166 166 153 154 151 
151 151 149 150 149 148 148 145 142 146 143 141 155 157 157 161 167 168 
157 159 160 150 148 146 152 152 151 148 145 142 158 162 161 161 165 165 
152 151 150 149 146 144 149 149 147 149 149 147 146 144 140 142 136 130 
149 148 147 150 151 150 153 153 152 140 134 128 132 120 110 144 141 138 
151 151 151 149 145 145 146 140 138 147 139 134 148 136 128 146 133 111 
143 127 96 142 121 85 137 118 70 131 122 57 128 121 55 127 121 57 127 120 57 
126 121 62 141 135 131 139 132 126 153 156 155 149 151 148 140 138 133 
141 137 131 151 149 143 154 153 148 150 147 142 149 145 142 149 147 144 
131 117 109 144 139 136 153 153 153 151 148 146 152 149 147 137 130 123 
145 143 140 150 147 146 149 145 144 144 137 133 142 135 131 136 126 120 
143 136 133 151 152 149 152 154 149 157 157 156 154 153 153 145 141 139 
140 134 131 147 143 142 158 163 163 156 159 159 148 146 142 147 144 142 
133 120 111 153 153 150 157 160 159 150 147 145 149 144 142 153 153 152 
150 149 146 131 118 110 141 135 130 149 147 146 149 149 147 151 151 147 
148 146 142 147 144 140 152 150 149 149 146 146 147 142 140 147 139 134 
147 134 125 145 130 110 142 127 94 140 120 81 136 118 68 131 119 57 127 120 54 
126 120 54 125 119 55 125 119 56 125 119 60 146 147 147 146 146 145 
147 148 145 141 139 132 148 150 145 150 151 148 153 154 152 152 151 148 
153 150 148 152 150 149 151 151 151 143 136 131 153 153 151 158 162 162 
148 147 145 147 143 141 151 146 146 155 152 152 150 147 145 148 144 140 
137 127 119 141 132 127 127 109 99 142 133 128 141 134 128 156 159 157 
159 160 159 159 158 159 151 148 149 148 144 144 149 145 143 151 147 144 
148 146 143 148 147 144 151 149 148 136 127 121 138 133 129 144 143 141 
156 156 156 153 148 146 162 165 165 158 159 158 130 115 105 129 114 104 
159 159 160 143 136 130 147 143 138 149 148 144 151 150 150 149 146 146 
146 140 139 145 138 132 148 136 126 146 131 110 143 126 92 140 121 79 
136 119 66 132 120 57 128 121 52 125 119 52 125 119 54 125 118 55 124 118 55 
125 119 58 147 147 147 147 146 145 145 145 141 145 143 138 147 149 144 
150 149 144 159 164 165 154 155 154 147 141 137 151 148 146 151 152 152 
152 152 152 159 162 162 161 167 168 155 157 156 147 143 141 156 157 158 
151 146 145 144 137 132 141 135 130 142 138 133 134 124 116 132 118 110 
150 144 140 150 149 144 154 153 151 158 158 157 158 157 157 157 154 156 
153 148 149 147 140 135 144 137 131 143 138 133 146 144 140 153 152 151 
151 151 150 141 142 138 140 138 134 154 153 152 130 115 105 159 160 159 
162 165 164 151 146 144 140 128 123 155 152 150 133 122 113 142 138 133 
152 150 148 152 150 148 147 145 143 146 140 136 148 137 128 149 134 114 
144 128 95 142 122 78 137 121 63 132 121 55 128 120 50 125 119 51 124 117 52 
123 117 53 123 117 53 123 117 54 123 118 56 151 151 151 150 150 150 
148 145 141 143 138 133 142 136 131 142 136 130 137 127 121 133 120 112 
130 113 104 147 143 141 150 149 148 151 149 148 156 158 157 161 166 167 
154 153 152 148 142 138 144 137 133 137 128 122 130 117 109 132 121 112 
139 137 132 141 136 130 150 144 140 151 145 141 154 152 150 158 162 162 
160 164 165 156 156 155 161 162 161 157 154 152 140 130 122 133 122 114 
134 123 116 141 134 128 153 150 147 154 154 151 147 145 140 144 142 137 
147 144 141 141 134 129 149 148 145 153 153 150 165 169 169 168 169 172 
154 149 146 147 142 137 156 154 152 154 153 151 150 148 145 149 146 141 
149 141 135 149 136 120 147 129 99 145 122 82 140 122 63 135 123 54 132 123 50 
128 121 49 126 119 50 123 116 50 122 116 51 122 116 52 123 116 53 123 116 53 
154 154 155 153 153 153 152 151 150 150 147 145 146 140 136 146 140 135 
149 143 139 144 135 129 137 125 117 150 147 144 149 145 140 146 140 136 
140 131 125 153 151 150 155 152 149 150 146 141 141 135 131 134 125 119 
128 112 103 127 112 101 139 135 132 147 148 146 153 148 145 153 150 146 
155 153 151 156 158 157 158 162 162 158 161 161 157 157 155 151 145 140 
134 123 115 157 162 162 147 143 140 143 133 127 151 146 143 155 151 148 
146 140 133 138 128 122 144 137 133 146 143 139 160 166 167 154 156 154 
157 158 157 160 159 158 157 156 155 157 157 156 155 155 153 152 151 149 
151 149 144 150 143 138 150 137 127 148 129 106 146 121 85 140 122 65 
135 123 55 132 125 49 130 123 48 128 122 48 126 119 49 124 117 50 122 115 50 
120 114 51 120 113 51 121 115 50 158 157 158 156 156 156 153 153 152 
154 153 153 158 157 157 158 155 154 151 144 141 151 145 140 156 155 152 
158 159 154 153 151 144 151 147 141 130 113 104 141 133 126 156 157 152 
153 152 148 147 143 142 140 134 132 129 115 106 127 111 100 147 141 139 
157 155 154 157 157 154 162 165 163 156 154 152 153 149 147 153 149 148 
148 142 140 139 129 122 134 122 113 140 132 125 155 156 155 151 148 145 
151 141 139 152 143 139 151 144 139 137 124 118 129 112 101 133 122 114 
139 129 123 154 155 153 150 151 148 142 138 133 144 139 137 152 150 149 
156 155 152 154 152 150 154 151 147 153 146 142 152 138 130 149 129 109 
144 120 89 138 120 67 136 123 54 135 126 51 132 125 48 131 123 48 129 122 48 
127 119 49 125 119 49 122 115 49 121 115 49 122 114 49 120 113 47 159 159 159 
152 149 146 140 134 129 153 152 151 163 162 163 162 160 159 151 145 142 
149 143 139 157 156 154 159 161 158 156 154 147 156 153 147 154 151 147 
155 153 151 156 158 155 155 154 152 152 149 149 152 152 152 139 133 128 
142 137 132 154 148 146 162 159 160 160 163 161 159 161 158 155 153 150 
153 148 143 154 148 146 148 140 138 136 125 117 134 122 113 144 136 131 
146 139 132 154 145 143 158 152 151 154 146 144 155 146 144 152 148 144 
144 135 130 145 136 131 143 134 129 154 151 148 150 147 143 139 133 128 
143 138 135 151 148 147 153 150 148 152 149 146 153 146 143 153 138 130 
148 128 110 145 118 89 137 119 65 133 121 54 133 123 49 133 124 48 133 126 48 
132 124 48 130 123 48 128 121 48 127 120 49 125 119 48 123 115 48 124 118 47 
122 115 46 157 159 158 145 139 136 126 108 97 133 120 110 156 152 150 
158 154 152 152 147 144 149 144 139 147 140 135 137 126 117 153 149 145 
158 157 153 158 157 154 156 155 154 157 157 155 155 153 151 158 154 152 
159 158 157 153 151 149 150 147 144 150 144 143 149 144 140 147 144 141 
147 143 139 154 150 146 156 152 149 153 148 144 150 145 142 148 143 140 
151 144 140 154 152 149 152 145 141 156 154 151 158 156 153 160 156 155 
161 157 157 159 157 155 158 156 154 161 159 158 160 159 157 156 154 152 
150 143 140 145 139 134 147 141 140 150 147 145 151 147 143 151 146 138 
152 135 130 148 128 109 143 117 86 135 117 64 131 118 51 130 121 48 129 122 47 
131 123 47 132 123 47 132 124 47 131 123 48 130 122 47 129 121 48 130 122 47 
129 121 47 131 123 46 130 122 46 150 149 147 148 146 143 133 119 112 
137 127 119 154 148 145 153 147 144 154 151 149 153 151 150 147 139 136 
133 120 111 140 131 123 158 155 152 154 151 149 151 147 145 149 143 140 
155 153 150 160 163 162 162 161 160 160 156 155 155 154 152 158 161 161 
153 154 153 155 156 156 146 140 136 153 149 146 157 153 151 155 151 148 
155 151 148 146 139 134 157 152 150 155 149 146 154 150 146 154 151 148 
159 156 154 162 160 159 163 162 162 163 161 161 163 162 161 163 164 164 
163 162 161 155 153 153 150 146 143 149 143 139 148 146 142 148 141 139 
150 144 136 151 135 126 146 128 105 144 116 85 134 116 61 129 117 50 
128 119 47 128 120 46 128 120 46 128 121 46 129 121 46 130 122 46 132 124 47 
133 125 47 132 125 47 134 126 46 134 125 46 136 127 47 135 126 47 140 132 127 
144 136 132 149 145 143 154 151 150 145 137 133 145 138 134 159 161 162 
161 167 168 153 148 146 149 143 140 154 150 147 154 149 146 148 140 136 
142 134 128 139 130 122 154 153 151 161 166 167 163 162 163 159 157 156 
160 162 162 160 164 165 159 163 163 157 157 155 153 149 147 155 152 151 
157 154 154 159 156 155 158 153 152 158 155 153 158 154 151 154 149 146 
155 151 148 151 145 141 158 155 153 158 157 155 163 162 161 164 163 161 
164 163 163 164 163 162 156 152 150 154 153 150 150 146 144 148 144 141 
150 144 139 150 143 135 153 136 127 146 127 105 145 115 88 134 116 60 
129 119 48 127 119 46 127 118 45 127 118 45 127 119 45 127 119 45 128 120 45 
129 121 46 131 123 45 133 125 46 134 126 46 136 128 47 137 128 47 137 129 48 
137 129 48 133 121 113 138 128 122 148 141 138 155 154 153 149 144 142 
147 140 137 158 158 157 158 158 158 149 146 142 152 151 149 156 158 157 
149 140 135 144 135 130 142 133 127 140 130 122 145 138 133 155 153 150 
148 141 138 135 121 115 141 129 124 148 145 140 160 166 167 159 163 164 
152 149 148 157 155 155 159 156 158 147 140 137 138 128 120 148 140 136 
155 152 150 155 151 150 155 150 147 153 147 144 156 151 148 154 151 147 
161 159 157 160 159 158 163 162 161 162 160 160 159 156 155 155 151 150 
149 145 142 149 141 137 148 141 131 152 135 126 146 129 106 148 115 90 
134 118 60 130 120 49 129 120 47 129 120 45 129 121 45 129 120 45 129 120 44 
129 121 44 127 119 44 128 120 45 129 122 45 132 124 46 133 125 46 136 127 47 
136 127 47 137 128 48 137 129 48 131 117 108 136 127 121 149 149 147 
157 162 162 156 159 158 142 134 130 159 156 157 147 139 136 149 140 136 
150 149 146 157 160 159 135 123 116 143 135 129 148 143 140 149 143 139 
148 141 138 147 140 135 140 131 123 127 109 99 126 108 97 131 116 106 
152 151 148 147 146 144 150 150 148 160 160 160 152 147 144 139 130 123 
141 130 125 142 131 125 151 148 144 153 147 144 153 149 147 151 144 141 
153 147 144 153 149 146 155 151 148 156 154 152 158 156 155 158 156 155 
158 155 153 156 151 147 152 143 140 148 140 129 152 134 123 147 131 104 
147 116 90 135 120 60 132 120 50 130 121 47 129 121 46 130 122 46 131 122 46 
132 123 46 132 123 46 131 123 45 131 123 45 130 122 45 130 122 45 130 122 45 
131 123 46 131 123 46 130 122 47 133 124 46 134 126 47 132 122 115 137 129 124 
146 145 143 152 153 153 153 153 153 144 138 134 141 131 124 157 157 157 
159 162 162 144 133 127 133 122 112 133 122 113 143 136 130 151 150 147 
156 153 152 152 146 143 147 140 136 136 123 116 130 115 106 130 113 104 
139 130 122 148 143 138 152 155 154 160 166 167 159 162 163 155 150 149 
156 154 152 150 145 141 144 134 129 147 139 134 149 143 140 152 146 143 
150 144 142 151 146 143 150 143 139 152 146 143 154 150 147 154 150 148 
156 150 148 154 149 145 152 143 139 150 142 130 150 133 124 146 130 100 
147 118 89 138 122 59 132 124 51 131 123 47 130 123 47 130 122 46 130 122 46 
131 123 47 132 124 46 133 124 46 134 125 46 134 125 46 134 125 46 133 124 45 
131 123 46 130 121 46 128 120 45 127 120 46 131 122 46 130 122 46 140 136 133 
140 137 132 141 137 132 141 137 132 143 137 133 136 124 118 129 114 104 
156 154 153 157 157 157 152 149 147 140 131 124 142 132 127 138 130 122 
158 161 161 158 162 160 151 151 150 151 151 149 141 134 130 131 118 110 
129 114 104 136 124 117 142 131 127 143 137 132 150 149 147 153 153 151 
153 151 148 159 155 154 149 142 140 145 139 133 144 134 129 147 139 135 
148 141 136 150 143 139 151 145 142 150 144 141 149 142 138 150 143 139 
151 145 141 152 145 140 151 142 137 148 139 128 150 133 121 146 129 102 
146 120 89 137 123 62 132 123 51 131 123 49 130 122 47 130 122 47 130 122 47 
129 121 47 131 123 46 132 124 46 134 126 46 134 126 46 136 127 46 136 127 46 
135 126 47 134 125 46 132 123 46 129 122 46 127 119 46 128 121 45 125 118 45 
143 144 142 140 137 133 134 126 118 131 117 108 139 130 126 133 120 112 
142 134 129 159 156 156 146 140 137 158 162 162 154 155 153 148 143 139 
148 145 142 161 166 167 161 167 168 160 166 167 161 167 168 159 164 164 
138 129 122 124 107 96 127 113 104 145 140 135 147 142 139 156 160 159 
144 143 138 147 144 140 155 152 148 154 150 148 148 142 140 146 138 133 
145 136 131 147 138 133 148 140 137 149 141 137 150 144 141 149 142 138 
149 141 137 149 140 133 149 140 132 148 138 126 148 134 118 144 130 102 
144 124 89 137 123 66 132 123 54 130 122 49 128 120 47 128 120 46 127 119 46 
127 120 46 127 120 46 129 121 46 130 122 46 132 123 45 134 126 46 136 127 46 
138 129 47 137 128 47 136 127 47 133 125 47 130 123 47 126 119 46 125 117 45 
121 114 45 143 144 143 142 142 137 129 113 104 126 108 97 129 113 103 
129 112 104 126 108 97 134 120 112 146 137 133 149 145 142 155 153 149 
160 156 153 160 159 159 159 163 163 161 167 168 160 166 167 161 167 168 
161 167 168 151 151 148 126 109 98 149 146 144 136 125 117 133 121 111 
150 148 145 142 136 131 141 136 131 149 147 143 154 149 147 152 147 144 
149 142 139 146 139 134 144 136 131 146 138 133 147 138 133 148 140 136 
149 140 136 148 139 134 148 137 130 147 136 122 147 132 115 144 130 102 
143 125 88 138 125 69 133 124 58 131 123 51 129 121 48 127 120 46 126 118 46 
125 118 45 125 117 45 125 117 45 127 119 46 128 120 45 129 122 45 133 125 46 
133 126 46 138 129 47 139 129 47 137 129 47 135 126 47 131 123 47 125 118 45 
121 115 44 116 110 44 139 139 135 140 139 136 135 124 117 128 112 102 
139 128 123 143 136 131 127 109 98 134 120 112 141 132 127 145 138 133 
150 143 138 156 154 151 158 155 156 154 149 147 155 156 155 152 150 148 
149 145 139 158 161 161 138 128 121 127 109 99 148 145 142 134 123 115 
131 116 108 131 119 109 136 126 119 138 130 123 145 143 137 149 146 142 
151 147 143 150 144 140 147 139 135 146 138 133 144 136 131 147 137 133 
147 137 132 147 136 131 147 135 128 147 133 123 146 131 114 143 129 102 
142 126 89 138 126 73 135 123 59 131 123 52 130 121 49 128 121 47 127 118 46 
125 118 45 124 116 45 122 115 44 123 116 45 123 116 45 126 119 45 128 120 45 
131 123 46 134 126 46 136 128 47 137 129 47 137 128 47 135 127 47 132 124 46 
127 120 46 124 117 45 120 114 45 137 136 132 141 140 136 149 145 144 
150 147 146 151 151 152 147 144 143 128 112 101 152 154 151 153 150 149 
151 145 143 138 126 119 160 165 166 158 160 160 156 153 154 158 162 162 
148 141 138 141 129 121 139 126 119 127 110 99 127 109 98 126 110 99 
134 121 111 128 112 101 132 118 110 133 122 113 137 127 120 141 134 128 
146 143 138 149 144 140 151 143 139 148 141 137 146 138 134 145 136 132 
146 135 131 146 133 129 146 133 126 145 132 120 144 130 112 142 128 101 
140 124 88 136 124 73 135 124 60 131 123 53 132 122 49 129 121 48 129 121 46 
127 119 46 126 118 45 124 117 46 123 115 46 120 114 45 120 113 45 121 113 44 
126 118 44 130 121 45 135 127 47 140 131 47 138 130 48 134 126 47 131 123 46 
131 122 46 132 124 46 134 127 47 135 129 48 139 139 136 146 147 145 
157 162 162 153 153 153 153 155 156 150 149 149 144 137 132 147 141 137 
158 155 155 159 160 161 136 126 119 150 148 146 152 153 151 156 152 151 
159 161 161 152 145 144 145 135 129 138 126 117 132 117 107 129 115 104 
130 113 102 136 126 118 132 120 110 133 120 111 131 118 109 137 127 121 
142 135 130 146 140 135 147 143 140 149 143 139 149 142 138 147 138 134 
146 136 131 147 134 129 146 132 126 144 130 119 142 127 112 141 125 100 
138 122 87 137 122 74 132 121 60 130 121 54 128 120 49 128 119 47 126 118 46 
126 118 45 124 116 45 123 115 45 123 115 45 122 115 45 119 112 45 117 111 45 
116 109 44 119 112 44 124 116 44 132 122 45 141 131 47 141 133 48 133 125 47 
129 121 46 128 121 46 130 122 46 134 126 47 135 128 48 149 149 150 157 162 162 
159 163 163 150 147 146 149 144 143 146 142 141 146 140 137 149 145 142 
159 157 157 159 164 164 140 131 125 134 122 113 155 150 147 141 129 121 
146 138 133 138 125 117 140 127 121 143 132 126 143 134 129 147 141 135 
145 140 135 133 122 114 129 113 103 127 112 102 142 131 125 143 134 129 
144 135 129 146 140 134 148 142 138 149 145 141 150 142 138 149 139 134 
147 134 129 146 132 126 145 130 119 143 126 110 141 123 98 138 121 88 
134 120 73 130 119 60 127 119 54 126 118 49 126 117 46 123 116 46 123 115 44 
120 114 44 120 112 44 119 112 44 119 111 44 118 110 44 116 109 44 115 108 44 
115 108 44 115 109 44 116 109 43 122 115 44 137 127 46 142 132 47 137 128 47 
132 125 46 129 122 45 125 118 45 121 113 45 119 111 45 151 151 151 155 157 157 
155 156 155 145 138 136 142 132 128 142 134 130 148 145 141 153 151 150 
158 155 155 150 145 143 132 117 107 144 134 130 161 159 158 143 132 127 
144 131 125 130 114 104 142 130 123 152 144 141 155 154 152 160 166 167 
157 162 162 135 121 115 131 117 109 140 132 127 147 139 135 149 145 142 
147 142 138 148 142 138 149 142 138 151 143 140 151 143 139 150 138 133 
148 134 126 145 130 119 143 126 110 140 123 99 137 120 88 135 117 72 
130 119 61 126 118 52 126 118 48 124 117 46 124 118 46 123 117 45 122 116 45 
122 114 45 119 113 44 119 111 44 119 111 44 118 111 44 117 110 44 117 110 44 
118 111 44 119 113 44 119 112 44 124 116 44 137 128 46 141 131 47 136 128 47 
133 125 47 130 123 46 127 119 45 121 113 45 118 110 44 138 130 125 138 131 124 
142 136 131 138 127 122 131 117 109 135 122 115 150 144 141 156 153 153 
156 152 151 155 151 149 151 146 141 148 141 138 135 122 114 138 126 119 
132 117 108 131 116 105 145 135 129 143 132 127 148 145 142 161 167 168 
158 161 161 153 144 142 151 145 142 153 149 147 146 137 135 149 144 142 
149 144 141 149 143 141 151 144 140 151 142 138 152 140 136 149 136 129 
147 130 120 144 126 110 140 122 98 137 118 87 132 115 73 129 117 60 127 118 53 
126 118 48 128 120 47 129 121 46 131 123 47 132 125 47 132 126 49 132 124 49 
123 117 46 120 114 44 124 117 45 124 117 45 122 115 45 122 115 44 123 116 44 
128 119 45 134 126 46 140 131 46 144 134 47 141 131 47 132 124 46 130 122 46 
134 125 47 135 126 47 133 125 46 133 125 46 130 116 106 141 137 131 
144 136 132 140 129 125 131 117 109 136 123 116 151 144 142 156 153 152 
152 149 147 153 149 147 157 154 153 132 117 107 126 108 97 127 109 98 
126 108 97 126 108 97 132 119 109 147 140 136 149 144 139 156 155 155 
157 152 151 160 155 154 159 155 154 155 150 147 149 143 141 145 138 138 
146 142 139 150 143 140 152 143 141 152 139 134 150 137 129 149 131 121 
144 126 110 140 122 95 138 116 87 133 114 72 128 114 60 124 116 51 125 117 46 
126 119 46 130 122 46 133 126 47 137 129 49 142 135 50 143 135 52 140 133 50 
128 122 47 124 118 45 129 121 46 131 123 46 130 122 46 130 122 46 131 123 46 
136 127 46 143 134 47 146 137 47 145 135 47 139 130 47 128 121 46 125 118 46 
131 122 46 135 126 47 139 131 47 141 133 47 149 146 144 151 147 145 
151 147 144 155 154 153 142 132 128 144 135 131 152 147 145 154 150 149 
152 149 148 151 148 146 159 161 162 145 137 132 128 112 102 130 114 105 
129 113 103 126 108 97 149 148 145 153 154 151 159 161 160 159 155 153 
157 153 151 155 151 150 153 148 145 149 143 140 145 140 135 142 136 133 
144 135 131 149 140 136 152 140 136 150 135 129 148 130 119 145 126 108 
140 122 95 137 116 85 132 114 70 127 113 59 124 115 50 121 114 47 123 116 45 
126 119 44 129 122 46 136 129 47 145 137 51 151 143 52 148 140 51 143 136 50 
132 125 47 128 121 47 132 125 47 136 128 47 138 130 47 141 132 48 144 135 48 
144 135 48 143 134 47 142 133 47 141 132 47 135 127 47 125 118 46 120 114 45 
121 114 45 127 119 45 137 129 47 142 134 47 155 153 153 156 152 151 
155 150 148 154 148 146 150 145 144 152 150 149 152 148 146 152 148 145 
149 146 143 151 148 146 159 162 163 156 152 152 150 140 137 147 138 134 
144 135 129 136 126 118 154 156 154 155 158 155 161 158 157 160 155 153 
152 146 142 144 137 131 145 139 135 145 138 133 142 136 131 143 136 131 
147 141 137 150 139 137 151 134 130 148 130 120 145 125 107 140 122 94 
138 117 84 131 113 71 126 113 57 123 114 50 120 112 47 120 113 45 121 114 44 
125 117 44 129 122 45 136 128 47 147 139 50 151 143 51 147 139 50 140 132 49 
131 124 47 127 121 46 129 122 46 133 125 47 138 130 48 143 135 48 149 140 49 
149 140 49 145 135 48 142 133 47 141 132 47 134 127 47 123 116 45 116 110 44 
115 109 44 122 115 44 137 129 46 143 135 47 154 153 152 157 155 154 
160 158 158 161 159 160 158 157 157 155 155 154 152 149 145 150 146 142 
154 151 149 154 152 149 157 157 156 155 154 151 155 151 148 155 149 147 
155 149 147 152 147 143 149 143 140 152 148 146 157 153 152 155 148 146 
147 138 133 129 115 106 135 125 119 142 133 129 141 133 128 144 138 134 
149 140 139 152 138 134 151 132 126 147 124 111 142 120 96 137 115 82 
132 113 69 126 113 57 121 113 49 120 113 46 120 114 46 122 114 45 120 113 44 
122 115 44 124 118 45 127 121 46 132 126 47 136 129 48 137 128 48 133 124 47 
124 117 46 119 113 45 119 112 44 121 115 45 127 121 47 136 129 48 147 139 49 
151 142 49 149 139 48 147 137 48 146 136 48 138 129 47 121 114 45 113 107 44 
113 107 44 121 114 44 138 129 46 145 135 47 153 152 151 158 160 161 
159 158 159 160 161 163 159 160 161 155 154 152 151 148 145 151 148 144 
159 163 163 160 166 166 160 166 167 157 157 154 155 151 147 156 150 148 
158 152 150 157 152 151 153 148 146 152 149 146 153 149 147 134 120 111 
139 127 121 141 132 124 137 128 120 141 133 128 144 136 131 146 138 134 
150 140 137 154 135 133 153 124 120 146 119 99 139 113 81 132 113 67 
125 112 54 121 113 48 120 114 46 121 114 45 122 115 45 123 116 45 123 115 45 
121 115 44 121 114 44 121 114 44 122 116 45 127 120 46 134 125 47 134 125 47 
127 120 46 122 115 45 119 111 44 118 111 45 121 115 46 128 122 47 139 132 48 
145 137 48 146 137 48 148 138 48 151 140 49 143 134 48 125 117 45 115 109 44 
114 107 44 122 114 45 139 130 46 147 137 47 153 154 154 152 153 154 
149 148 148 151 152 152 153 154 153 148 145 142 151 146 144 148 143 140 
151 149 146 160 161 161 161 164 163 157 154 150 150 141 137 147 137 133 
155 148 144 158 155 153 157 155 152 155 152 150 151 148 144 136 125 118 
138 129 122 146 139 135 148 140 134 148 141 136 149 141 136 150 140 135 
154 137 137 157 125 128 149 120 103 141 114 84 133 113 65 126 114 53 
122 115 48 121 114 46 122 115 45 122 115 44 122 115 44 121 115 44 125 117 45 
126 119 45 124 117 45 120 113 45 119 112 45 125 119 46 138 131 47 143 135 48 
141 132 47 136 127 46 129 120 46 123 115 45 119 112 45 120 114 46 126 119 46 
132 124 47 138 129 47 145 135 48 154 145 51 151 142 51 134 127 48 123 116 46 
119 111 45 125 116 45 142 132 46 149 139 47 153 153 153 151 150 149 
147 146 144 146 144 141 146 144 141 149 144 141 146 137 133 129 114 104 
134 122 114 143 135 129 142 131 124 156 150 146 151 142 137 134 121 111 
146 135 131 156 152 148 159 157 154 158 158 155 158 157 156 150 146 143 
147 142 138 149 142 139 147 139 133 150 139 135 152 141 135 153 139 132 
158 127 130 150 122 107 146 114 87 134 114 65 126 116 52 123 115 46 121 115 46 
121 114 45 121 115 45 121 114 45 124 117 45 125 118 45 132 125 47 134 126 47 
126 119 46 122 115 45 124 117 45 131 123 46 142 134 47 147 138 48 144 134 47 
140 131 47 136 127 47 130 121 46 121 114 45 118 111 45 119 112 45 124 116 46 
132 124 46 142 134 48 155 146 52 155 146 52 140 132 49 130 123 47 125 117 46 
129 120 46 141 132 47 146 137 47 156 155 156 153 152 150 153 151 148 
154 152 149 156 158 158 155 153 153 147 140 137 128 112 102 144 138 133 
134 121 112 149 144 137 155 151 147 157 154 153 146 136 131 149 142 137 
148 141 137 159 155 152 158 156 153 157 157 154 157 151 151 152 146 142 
149 143 137 152 138 135 151 138 128 151 139 126 157 128 126 150 126 104 
148 115 90 137 117 65 128 118 52 125 118 47 125 119 46 124 117 46 124 118 46 
124 118 46 127 121 46 132 124 47 137 130 49 144 135 50 142 134 49 131 124 47 
128 121 46 137 128 46 143 133 47 146 137 47 144 135 47 136 128 46 135 126 46 
140 131 48 138 129 47 127 120 46 120 114 45 117 111 45 120 113 45 129 122 46 
140 132 48 154 145 51 154 145 51 142 134 49 135 127 47 133 126 47 134 126 47 
137 129 47 138 131 47 154 152 151 154 152 150 154 151 146 158 159 158 
161 167 168 158 161 161 156 152 152 148 141 138 150 145 143 150 144 140 
159 163 163 160 165 166 160 163 162 160 159 157 158 154 152 159 154 151 
156 151 148 159 154 151 157 151 151 155 150 147 155 148 140 155 139 135 
149 136 119 152 136 117 155 130 115 147 129 97 150 116 91 138 119 64 
131 121 52 129 121 47 127 120 47 128 121 47 128 121 47 129 121 46 131 123 47 
134 126 47 141 133 49 146 138 51 151 142 51 148 140 50 132 126 47 129 122 46 
139 130 47 145 135 47 147 138 47 144 135 47 136 128 46 136 127 47 143 134 48 
140 131 47 127 120 45 120 113 44 119 112 45 121 113 45 125 118 46 132 125 47 
143 135 49 145 137 50 140 131 48 137 128 47 137 128 47 136 128 47 134 127 47 
133 126 47 152 152 152 152 151 150 151 147 145 152 149 145 150 149 146 
155 157 156 154 153 150 155 151 150 149 142 140 153 153 152 161 166 167 
160 166 167 159 162 162 161 161 160 160 161 160 160 158 157 159 155 153 
155 148 146 156 150 147 153 147 141 157 139 138 151 142 118 153 135 113 
152 129 100 146 131 85 149 117 86 139 121 62 132 123 51 131 124 47 130 123 47 
132 125 47 134 126 47 135 127 48 138 130 48 140 132 49 142 134 49 150 142 51 
153 145 52 151 142 51 144 135 49 130 123 47 126 119 46 130 123 46 137 129 47 
145 137 48 147 139 48 144 134 48 143 133 48 144 134 48 137 128 47 122 114 45 
117 110 44 123 116 45 124 117 45 119 113 45 119 113 45 123 117 46 128 121 46 
132 124 46 134 125 46 134 125 46 133 125 46 132 124 46 131 124 46 150 149 148 
151 149 146 150 146 143 144 137 132 134 121 112 144 137 132 159 163 163 
156 155 154 152 149 148 151 147 145 155 158 156 154 153 151 159 161 160 
161 165 165 160 161 161 157 156 154 157 152 152 153 147 142 150 143 138 
155 139 139 149 141 117 154 134 111 152 131 92 145 133 76 148 122 77 
139 125 56 134 125 51 132 124 47 132 125 47 134 126 48 135 128 48 138 131 48 
140 132 49 145 136 49 146 138 50 148 139 50 153 145 51 155 147 52 152 143 51 
146 138 50 137 130 49 131 124 47 126 119 46 127 121 46 136 129 47 140 132 48 
142 132 48 142 132 48 140 130 47 134 125 46 124 116 45 122 115 45 129 121 45 
128 120 45 120 113 44 117 111 44 118 112 45 123 116 45 131 123 46 136 126 46 
137 128 46 136 127 46 133 126 46 132 125 46 150 148 145 150 147 143 
151 147 143 154 153 152 145 140 134 148 141 138 158 160 160 157 157 157 
155 154 153 149 145 143 144 136 132 151 149 147 162 163 163 161 165 165 
157 159 159 149 142 140 153 149 145 153 147 143 151 136 134 146 139 119 
152 132 114 149 131 90 145 133 73 149 128 70 141 131 55 138 130 50 137 128 48 
134 127 48 135 127 48 135 128 48 136 129 48 138 131 48 141 133 49 145 137 50 
143 135 49 143 135 49 147 139 50 150 142 51 156 147 51 157 148 52 154 145 51 
143 136 49 125 118 46 117 111 45 120 114 45 124 117 46 130 121 46 132 123 46 
131 123 46 131 124 46 134 126 47 135 127 47 135 127 47 132 124 46 127 119 45 
125 118 45 127 120 46 131 123 47 136 127 47 141 132 47 144 135 48 144 135 48 
139 131 47 137 129 47 146 140 135 145 140 134 149 144 139 151 147 144 
152 147 144 140 129 123 153 149 147 159 156 158 153 151 149 151 148 145 
140 131 126 155 157 156 160 162 162 162 164 163 155 153 154 151 148 144 
148 139 135 153 140 140 145 138 119 149 129 113 144 129 90 143 131 73 
147 128 66 142 134 52 142 133 51 140 132 49 137 130 49 135 128 49 133 126 48 
131 125 47 132 125 46 133 126 47 136 129 47 138 130 48 136 129 47 137 129 48 
141 133 49 147 139 50 157 148 52 160 151 52 157 148 51 145 137 49 124 118 46 
115 109 45 117 110 45 119 113 45 123 115 46 124 116 45 123 116 45 128 122 45 
141 133 48 145 137 49 140 132 48 136 128 47 133 125 46 133 124 46 135 127 47 
138 129 47 139 130 47 142 133 47 146 137 48 144 135 48 135 128 47 132 124 46 
135 127 119 141 133 128 147 142 140 152 149 147 154 152 150 154 153 149 
150 148 145 152 149 147 148 143 139 142 134 129 134 123 115 137 128 120 
152 150 148 157 156 155 156 155 151 151 145 142 150 139 135 149 145 127 
152 132 119 142 128 89 140 128 73 144 126 65 140 132 51 143 134 50 141 134 50 
140 133 49 136 130 49 135 128 48 130 123 48 128 121 46 126 119 46 124 117 45 
124 117 45 123 117 45 124 117 45 127 121 46 136 129 48 146 139 50 157 149 52 
156 148 52 146 138 50 135 128 48 124 117 45 122 114 45 128 119 46 128 119 46 
122 114 46 118 111 45 117 110 44 126 119 45 146 137 49 152 143 50 145 137 50 
141 132 48 139 129 47 139 129 47 143 133 47 143 134 47 140 131 47 140 131 47 
142 134 47 136 129 47 123 116 45 117 111 44 136 127 120 138 131 126 
145 140 138 148 145 144 146 142 139 149 147 145 137 125 119 150 147 146 
144 139 135 130 118 109 127 112 102 137 130 123 152 153 151 150 146 143 
153 149 147 150 141 135 149 144 129 153 132 123 143 132 95 140 129 77 
142 124 66 139 131 50 142 133 50 142 135 49 141 134 50 140 132 49 137 130 49 
132 125 47 128 121 47 124 117 46 120 114 44 116 110 44 115 109 43 116 110 44 
119 113 45 126 119 46 134 127 48 144 137 50 156 148 52 155 147 51 140 133 49 
131 124 47 127 119 46 128 119 46 134 125 47 131 122 47 120 113 45 115 108 44 
113 108 44 122 115 45 139 131 48 145 136 49 138 130 48 135 127 48 135 126 47 
138 128 47 142 132 47 143 133 47 141 131 47 140 131 47 140 132 47 134 127 46 
122 115 45 116 110 44 138 132 129 139 133 130 138 134 130 133 122 115 
139 135 131 136 131 128 132 120 114 153 155 154 160 166 167 150 149 147 
137 127 120 138 131 124 147 146 143 146 140 138 144 137 130 141 132 117 
153 125 125 142 134 95 141 130 80 143 123 68 137 130 51 140 133 50 142 135 49 
142 135 49 142 135 50 138 131 49 135 127 48 131 124 48 126 120 47 122 116 45 
118 112 44 116 110 44 117 110 43 121 114 44 130 121 46 136 126 47 135 127 47 
142 134 49 155 147 51 155 146 51 140 132 49 133 125 47 133 124 47 134 125 47 
135 126 47 130 122 46 119 112 45 113 107 44 113 108 44 116 110 44 121 113 45 
122 114 45 119 113 45 120 113 45 124 117 45 128 120 46 132 123 45 137 127 46 
141 132 47 142 134 47 141 132 47 137 129 47 131 124 46 129 121 46 145 143 140 
144 140 137 138 131 126 130 113 105 135 127 123 133 127 124 129 117 109 
133 122 114 146 146 144 149 147 145 147 142 140 146 143 139 141 131 131 
136 125 115 136 121 109 154 116 126 135 124 83 139 128 81 143 120 73 
135 129 51 139 130 50 142 135 48 144 136 49 143 135 49 141 133 49 138 130 49 
134 127 49 132 125 48 128 122 47 125 118 47 126 119 46 125 118 46 124 116 45 
127 119 45 137 128 47 142 133 48 141 132 48 146 137 50 156 147 52 155 146 51 
142 133 49 137 129 48 141 132 49 142 133 49 142 133 48 134 127 47 121 114 45 
113 108 44 113 108 44 114 108 44 115 108 44 115 108 44 114 108 44 115 109 44 
118 112 44 121 114 45 124 116 45 129 121 45 138 129 46 140 131 47 138 129 47 
137 128 47 137 128 47 136 128 48 143 136 130 144 138 132 148 143 138 
144 138 135 146 143 143 141 137 135 134 124 118 130 119 112 131 129 127 
136 135 133 145 140 137 153 151 152 143 134 128 140 128 116 149 105 118 
138 122 81 134 120 71 143 114 78 132 124 50 137 127 49 141 133 48 144 137 48 
145 137 50 144 136 50 142 135 50 140 132 50 138 130 49 136 128 49 135 127 48 
135 128 48 139 132 49 143 135 50 136 128 48 135 127 47 140 131 48 146 137 49 
152 143 51 156 147 52 159 150 52 155 147 51 144 136 49 142 134 49 150 141 50 
154 145 51 155 146 51 145 137 49 125 119 46 115 109 44 113 107 44 115 109 44 
121 114 44 123 116 45 123 115 45 121 114 44 118 111 44 117 110 44 116 110 44 
121 114 45 130 122 46 134 125 46 131 123 46 132 124 47 137 129 48 139 131 48 
130 116 105 145 138 133 148 143 139 148 141 138 147 142 142 152 153 153 
133 120 112 130 117 109 133 130 129 135 130 127 142 133 130 147 136 131 
141 132 119 158 119 132 150 134 99 139 128 77 144 108 77 130 121 49 131 124 46 
136 129 47 142 135 48 145 137 49 147 139 50 148 140 51 146 138 50 144 136 50 
143 135 50 141 134 50 141 133 49 141 133 48 146 138 50 147 138 50 142 133 49 
139 131 48 143 134 49 149 140 50 157 148 52 161 152 53 161 151 52 156 147 51 
147 139 50 145 137 49 151 142 50 155 146 51 157 148 51 148 140 50 130 123 47 
119 113 45 115 109 44 116 110 44 123 116 45 128 121 45 132 124 46 131 122 46 
124 116 45 118 111 44 113 108 44 115 109 44 124 116 45 127 118 46 124 117 45 
126 118 46 131 123 47 133 126 47 140 132 126 144 139 135 141 133 128 
141 134 129 150 147 144 151 149 147 144 137 134 145 139 135 146 141 136 
137 125 118 139 125 119 140 128 114 152 117 119 156 134 107 143 134 77 
147 111 79 136 124 53 130 123 47 130 124 47 135 128 47 140 132 48 145 137 49 
149 140 50 149 141 51 149 141 51 148 139 50 145 138 50 144 136 49 139 131 48 
134 126 47 134 127 48 137 129 48 140 131 47 143 134 48 145 136 49 150 141 50 
158 148 52 161 152 53 160 151 52 157 148 52 151 142 50 146 138 50 143 135 50 
144 136 50 148 139 49 144 136 49 134 126 47 125 119 46 119 113 45 118 112 45 
122 115 46 130 122 46 142 133 47 144 135 47 134 126 46 125 117 45 115 109 44 
113 107 44 118 111 45 119 112 45 117 110 44 116 110 44 118 112 45 119 113 45 
149 144 142 145 140 135 135 123 116 139 129 123 134 122 115 148 143 140 
148 144 141 150 145 143 148 141 136 149 133 129 138 121 108 146 119 109 
149 119 97 147 137 81 153 119 84 143 127 56 135 126 47 131 124 47 131 123 46 
133 126 47 138 130 48 141 134 49 147 139 50 149 140 50 149 141 51 148 139 50 
143 135 49 140 131 48 134 125 47 129 121 46 126 119 46 128 121 46 133 125 46 
137 128 47 138 130 48 143 135 49 151 142 51 156 147 52 157 148 52 157 148 52 
154 145 51 149 140 50 141 132 49 137 129 48 138 130 47 136 128 47 131 123 47 
125 118 46 119 113 45 117 111 45 120 113 46 128 120 46 140 132 47 144 135 47 
139 130 47 132 125 46 125 118 45 121 115 45 122 115 46 121 114 45 119 113 45 
117 110 44 113 107 44 112 106 44 154 151 150 149 142 140 139 126 121 
142 132 128 143 136 132 143 137 134 145 141 138 148 142 138 151 145 140 
149 132 122 147 127 109 154 120 103 150 137 85 157 124 82 148 130 60 
141 132 49 136 128 48 133 126 47 130 123 46 131 124 46 135 127 46 139 131 48 
142 134 49 144 135 49 143 135 49 141 133 48 138 130 47 135 127 47 132 125 47 
128 121 47 124 117 46 122 115 45 121 114 45 122 115 45 124 116 46 129 121 47 
137 130 49 145 137 51 153 144 51 157 147 52 156 147 51 152 143 50 143 134 48 
134 127 47 127 120 45 123 116 45 121 114 45 119 112 44 115 109 44 115 109 44 
118 111 45 122 114 45 126 119 45 131 123 46 137 129 46 141 133 47 143 135 49 
141 134 49 135 128 48 132 124 47 132 124 47 127 119 47 116 110 45 112 106 44 
155 153 153 149 144 142 147 141 139 160 166 166 150 150 150 147 145 142 
158 158 157 157 155 152 157 144 140 153 140 119 160 126 115 153 136 82 
160 130 84 152 134 59 146 137 51 144 136 49 138 131 49 137 129 47 132 124 47 
132 125 47 135 127 47 137 129 47 139 131 48 139 131 48 138 131 48 137 130 48 
133 125 46 130 122 46 128 122 46 127 121 46 124 117 45 120 113 45 116 110 45 
115 108 45 115 109 44 120 113 45 128 122 47 137 130 49 146 138 50 152 143 51 
154 145 51 151 142 50 141 133 48 131 124 46 122 114 44 117 110 44 118 111 44 
117 111 44 114 108 44 114 108 44 117 111 45 119 112 45 120 113 45 125 118 45 
136 128 46 144 136 48 151 143 50 150 142 50 140 133 49 136 129 48 138 129 48 
133 124 47 121 114 45 115 109 44 149 150 150 149 149 148 149 148 147 
153 152 153 151 149 148 156 152 152 155 151 145 155 138 136 147 133 110 
161 121 111 150 132 78 159 130 77 150 136 57 149 141 50 148 140 51 146 137 50 
144 136 50 141 132 48 135 128 47 137 129 47 135 127 47 137 129 46 142 135 49 
147 139 51 148 140 50 143 134 49 131 124 47 123 116 45 121 115 45 123 116 45 
127 120 46 125 118 46 119 112 45 115 109 45 114 108 44 117 111 44 124 118 45 
131 124 46 137 130 47 143 134 49 147 138 50 145 136 49 136 127 47 128 120 45 
121 114 44 119 112 44 122 115 45 121 114 45 115 109 44 114 108 44 118 112 45 
121 114 45 122 115 45 127 120 46 135 128 46 143 135 48 149 141 50 147 140 50 
138 130 48 135 127 47 138 130 47 135 127 47 126 119 45 122 115 45 146 146 145 
149 148 148 151 149 150 151 147 147 153 148 148 151 144 138 153 135 132 
144 127 105 155 115 105 143 127 69 154 127 72 148 136 54 149 141 49 150 141 50 
149 141 50 149 140 50 147 139 50 145 136 49 142 134 49 140 131 48 136 128 47 
139 131 47 148 139 50 152 144 51 150 141 51 141 133 49 126 120 47 118 112 45 
119 113 44 125 118 45 136 128 48 135 128 48 125 118 46 118 112 45 116 111 44 
117 111 44 122 115 44 126 119 45 131 123 46 135 127 47 140 131 48 140 130 48 
134 125 47 129 120 46 123 115 44 121 114 44 123 116 46 122 116 46 118 112 45 
119 112 44 125 117 45 127 119 46 125 118 46 128 121 46 136 129 47 142 134 48 
146 138 49 145 137 49 139 130 48 136 127 47 136 128 47 132 124 46 125 118 45 
122 115 45 140 133 130 146 142 140 151 149 148 153 147 146 155 146 141 
152 135 126 147 127 105 152 117 98 142 126 66 152 123 69 145 135 50 146 138 48 
147 139 49 149 141 49 150 142 50 150 142 50 151 143 51 148 140 50 147 139 50 
145 137 50 140 131 48 140 132 47 145 136 49 144 137 49 135 128 47 126 120 46 
116 111 45 115 109 44 123 116 45 135 127 47 151 142 51 151 142 51 135 127 48 
125 119 46 123 117 46 121 115 45 121 114 45 122 115 45 125 118 45 128 121 45 
131 123 46 134 125 46 136 126 47 134 124 46 127 118 45 123 115 45 121 114 45 
121 114 45 122 115 45 127 120 45 137 128 46 138 128 47 129 120 46 129 121 46 
139 131 47 143 135 48 143 134 47 143 133 48 143 133 48 139 130 47 131 122 46 
124 116 45 118 112 44 115 109 44 140 132 129 141 135 132 147 141 138 
146 135 129 151 137 129 150 130 113 149 126 96 144 128 73 151 122 70 
142 133 49 143 135 47 144 135 48 145 137 48 145 137 48 146 138 49 147 139 49 
148 139 50 148 139 50 147 139 50 144 136 49 140 132 48 140 131 47 143 134 48 
139 130 48 126 119 45 119 113 44 116 110 44 118 112 45 126 118 45 136 128 47 
150 141 50 150 142 51 136 129 48 129 123 46 129 122 46 126 120 46 122 115 45 
121 113 45 121 114 45 122 115 45 124 116 44 128 120 45 135 126 47 136 126 47 
131 123 46 126 118 45 121 113 45 119 113 45 122 115 45 129 121 45 140 130 47 
140 130 47 129 121 46 130 122 47 143 135 48 147 139 49 144 135 48 144 134 48 
146 136 48 140 131 47 127 119 46 118 111 44 114 108 44 113 107 44 134 130 126 
138 133 129 148 142 138 143 122 119 143 118 103 140 125 89 142 123 80 
147 117 73 135 127 46 137 129 46 141 132 47 142 133 47 143 134 48 143 134 48 
142 133 48 141 133 48 142 133 48 142 133 49 138 130 48 133 126 47 135 128 48 
137 129 48 137 129 48 134 126 47 126 118 45 123 115 45 125 118 45 127 119 46 
127 119 46 129 121 46 133 125 47 133 126 47 130 124 46 130 124 46 134 126 47 
133 124 46 126 118 45 121 113 45 117 111 44 116 110 44 116 110 44 121 114 45 
132 123 46 136 127 47 136 128 46 131 124 45 121 114 44 118 111 44 119 113 45 
124 117 45 132 122 46 132 123 46 126 118 46 131 124 47 148 140 50 154 146 51 
150 141 50 148 138 49 148 138 48 140 130 47 123 116 46 114 108 45 114 108 44 
114 108 44 136 130 124 136 120 115 145 119 125 141 116 106 135 121 84 
142 117 86 142 114 72 130 122 46 130 122 45 133 125 45 136 127 46 138 130 46 
140 131 47 139 131 47 138 129 47 137 129 47 136 129 48 135 126 47 127 120 45 
124 118 45 133 127 48 138 131 48 137 129 48 132 124 47 123 116 45 122 114 45 
127 119 46 129 121 46 128 120 46 129 121 47 131 124 47 133 126 47 133 127 47 
136 129 47 142 133 48 139 130 47 130 121 46 122 115 45 117 110 44 114 108 44 
114 109 44 121 115 45 135 127 47 142 133 48 141 133 47 134 126 46 121 114 44 
116 109 44 117 111 45 122 115 45 129 121 46 132 123 46 129 121 46 136 128 47 
152 143 50 158 149 51 154 144 51 151 141 50 150 140 49 140 131 47 122 115 46 
113 108 45 114 108 44 114 108 44 139 126 124 143 116 122 141 119 107 
136 123 88 143 113 87 139 112 69 127 119 46 128 120 46 128 120 46 129 121 45 
130 122 45 131 123 45 133 125 46 134 126 46 135 126 47 135 127 47 134 126 47 
131 123 46 120 114 44 122 116 45 139 131 48 145 138 49 140 133 49 131 124 47 
119 113 45 115 109 44 120 113 45 125 117 46 130 122 47 137 128 48 145 137 50 
149 140 50 147 139 49 148 140 49 150 141 50 146 137 49 134 127 47 126 119 45 
120 113 45 117 111 45 118 112 44 128 122 46 147 139 49 153 144 50 146 137 48 
135 127 46 121 113 44 114 107 44 116 109 44 122 115 45 133 125 46 138 130 47 
137 128 46 143 133 47 155 145 50 159 149 51 155 145 50 152 142 49 151 141 48 
142 133 47 125 117 46 115 109 45 114 108 44 114 108 44 149 129 138 145 126 114 
141 127 95 149 115 95 141 114 70 128 121 46 128 120 46 127 120 46 127 120 46 
127 120 46 127 119 45 128 120 45 130 122 45 133 125 45 137 129 47 141 133 48 
139 131 48 133 126 47 120 113 44 120 114 45 136 128 47 142 134 49 137 130 48 
129 123 47 118 112 45 113 107 44 116 109 44 121 114 45 129 121 47 138 130 49 
149 141 50 153 145 51 151 143 50 148 140 50 147 139 49 143 135 49 136 128 47 
130 123 46 126 119 45 123 116 45 121 115 45 130 123 46 150 142 50 156 147 51 
148 139 48 137 129 46 125 117 45 119 112 45 119 112 45 124 117 46 136 128 47 
142 134 47 142 133 47 146 137 47 154 144 50 155 145 50 149 139 49 147 137 48 
151 140 48 144 134 47 126 118 46 116 110 45 115 109 44 114 108 44 146 133 126 
147 136 111 157 118 108 150 116 76 138 129 47 135 127 47 133 125 47 129 122 47 
127 119 46 124 117 45 124 117 44 125 117 45 127 119 46 134 126 46 146 137 49 
153 144 51 149 141 50 141 133 48 123 117 45 117 111 44 125 118 45 128 121 46 
128 121 46 125 118 45 119 113 44 116 109 44 114 108 44 117 111 45 125 118 46 
133 126 47 143 135 49 146 139 49 144 137 49 139 132 48 131 125 46 130 123 46 
135 127 47 137 129 47 136 128 46 131 124 45 123 116 45 128 121 46 146 137 49 
152 143 50 147 138 48 141 133 47 134 126 47 129 121 46 125 118 46 128 121 46 
138 130 47 143 135 48 144 135 48 145 137 49 148 139 49 144 136 48 135 127 47 
136 127 47 147 137 48 144 135 48 127 120 46 117 111 45 115 109 44 114 109 44 
143 138 122 158 119 123 162 117 92 147 138 49 145 136 48 142 133 48 138 129 48 
133 125 47 129 121 46 125 118 46 122 115 45 120 114 44 121 115 44 128 121 46 
144 135 49 152 144 51 152 143 50 143 134 48 124 117 45 115 109 44 117 111 44 
120 113 45 123 116 45 122 116 45 119 112 44 116 109 44 114 107 44 117 111 44 
127 120 46 136 129 47 144 137 49 147 139 49 144 136 49 138 131 47 129 123 46 
128 121 45 134 126 47 138 130 47 140 132 46 137 129 46 130 122 46 131 123 46 
141 132 48 144 135 48 142 133 47 139 131 47 137 129 47 134 127 47 132 124 46 
134 126 47 140 132 48 144 136 48 144 136 49 143 135 49 140 132 48 134 127 47 
126 118 46 128 120 46 140 131 47 139 130 47 124 118 45 116 111 44 115 109 44 
115 109 44 155 119 134 171 105 114 142 134 48 145 137 49 148 139 49 147 138 49 
144 135 49 139 131 48 133 125 47 127 119 47 123 115 45 118 111 44 118 111 44 
119 113 45 128 120 47 135 127 48 141 132 47 137 128 46 120 114 45 113 107 44 
114 108 44 117 111 44 122 115 45 122 115 45 117 110 44 114 108 44 115 108 44 
122 115 45 136 127 47 146 138 49 154 145 51 155 147 51 150 141 49 145 136 48 
141 132 48 137 129 47 134 126 46 135 127 46 138 130 47 140 132 47 141 133 47 
139 131 47 135 126 47 133 124 46 132 124 46 132 124 46 133 125 46 135 127 47 
139 130 47 142 133 48 143 135 48 144 136 48 143 135 48 139 130 48 131 123 47 
125 117 46 120 113 45 122 115 45 130 121 46 129 121 46 119 112 45 114 108 44 
114 108 44 114 108 44 174 92 145 126 119 46 131 124 46 137 130 48 145 137 49 
148 139 50 146 138 49 143 135 49 138 130 48 132 123 47 121 115 46 116 110 45 
115 109 44 116 110 45 120 114 46 127 120 47 136 127 46 133 125 45 119 112 44 
112 106 44 112 106 44 116 109 44 122 115 45 122 115 45 115 109 44 113 107 44 
115 109 44 124 116 45 140 131 48 151 142 50 159 149 52 159 150 52 152 143 50 
148 139 49 146 137 48 141 132 48 134 126 46 133 125 46 137 129 47 141 133 47 
146 137 48 143 134 48 133 123 46 127 118 46 127 119 46 129 121 46 131 123 46 
136 127 46 143 133 48 146 136 48 145 136 48 144 136 48 143 134 48 137 128 48 
127 118 46 120 113 46 117 111 45 119 113 45 125 117 46 124 116 46 116 110 44 
113 107 44 114 108 44 114 108 44 
