P3
64 64
255
142 120 90 143 129 90 147 128 106 146 134 119 147 141 134 144 143 141 
143 145 143 145 147 145 148 149 149 148 147 146 143 143 140 140 141 137 
141 141 140 143 143 144 144 146 147 148 150 152 156 157 159 162 164 167 
169 173 174 169 174 175 163 167 168 161 165 168 165 169 170 165 169 169 
162 164 162 160 162 161 160 165 166 160 165 169 161 165 169 162 164 168 
163 164 166 163 165 166 163 168 170 162 167 169 161 162 162 159 159 159 
157 157 159 154 153 153 147 145 143 147 146 143 152 155 153 158 163 162 
159 163 161 161 163 161 165 166 166 162 161 160 153 148 145 142 136 132 
129 127 122 131 131 126 149 149 146 152 152 149 141 138 135 144 141 138 
159 156 156 164 165 165 161 166 163 157 162 160 153 157 156 149 152 151 
146 150 145 141 141 134 134 127 119 132 121 112 132 126 71 141 124 79 
144 127 87 147 128 108 146 136 123 145 142 134 145 145 141 145 146 145 
147 148 147 149 150 149 148 150 148 145 147 144 142 141 140 141 139 139 
142 141 141 144 142 142 148 144 143 146 139 136 160 160 159 164 166 166 
163 168 169 163 169 172 166 171 173 164 169 170 161 164 163 158 162 159 
157 162 163 159 163 166 161 165 169 157 157 158 146 137 134 158 158 157 
162 167 168 162 165 166 160 161 161 159 158 158 155 154 154 154 153 153 
148 145 143 147 144 142 149 149 147 153 156 154 157 160 158 159 160 158 
157 156 154 152 150 147 150 145 141 150 150 148 136 133 130 144 146 142 
146 147 144 149 149 146 138 134 129 142 139 136 152 148 146 155 152 150 
149 147 142 149 150 146 148 148 146 147 148 146 147 150 146 145 145 140 
145 141 137 140 134 129 131 126 69 136 126 68 140 123 76 143 125 89 145 130 110 
146 138 126 146 143 135 147 147 142 148 148 149 152 154 154 157 160 161 
154 158 158 143 142 141 136 132 128 137 131 127 135 126 120 131 117 110 
131 117 108 141 134 127 152 150 147 163 170 171 168 177 181 166 174 176 
163 170 171 160 163 163 157 158 158 152 155 156 157 162 164 162 167 169 
163 165 166 142 133 127 154 153 151 160 165 163 151 149 144 157 157 157 
158 157 157 161 161 161 157 157 156 151 146 145 146 141 140 141 136 134 
144 141 140 156 157 156 154 153 151 139 130 123 137 127 120 143 138 134 
153 154 153 159 164 164 159 166 167 147 149 147 139 143 137 139 138 131 
140 137 131 137 127 120 135 123 115 132 119 109 134 126 117 136 130 125 
142 139 136 152 152 151 142 136 131 149 149 146 135 124 117 129 125 67 
131 125 62 136 123 66 141 122 79 143 125 95 144 132 113 147 139 126 
148 144 136 150 148 146 151 152 152 155 154 156 153 153 153 144 143 141 
138 134 131 140 134 130 138 130 125 132 119 112 133 121 112 141 133 127 
150 149 146 164 171 172 168 177 180 163 170 171 161 166 167 161 165 167 
153 153 152 152 153 153 160 166 167 161 167 168 165 169 170 156 159 158 
154 157 155 160 163 162 160 163 162 160 160 160 153 150 149 140 129 122 
145 139 134 143 132 128 150 145 143 144 139 137 145 142 140 152 151 150 
147 144 140 131 119 110 130 117 109 139 132 125 147 144 141 155 156 155 
161 167 168 154 157 157 137 137 130 144 146 141 144 142 137 134 124 116 
130 116 105 130 117 108 132 122 113 136 130 125 138 131 125 153 151 150 
157 157 156 155 157 156 139 132 126 128 123 65 131 124 60 132 124 59 
135 120 66 140 120 83 142 127 97 145 133 114 147 139 126 149 145 137 
150 147 145 147 143 141 144 140 137 144 142 139 146 145 144 146 142 140 
147 142 139 149 148 146 150 150 148 158 160 159 160 163 163 165 170 172 
163 170 171 157 160 159 157 162 160 161 162 162 129 113 103 142 138 134 
155 159 160 161 166 166 163 167 167 158 159 160 157 159 161 160 162 163 
162 164 165 153 148 147 153 148 147 148 146 143 130 116 106 127 109 98 
143 135 129 158 158 158 155 155 154 155 158 157 142 136 130 133 121 111 
128 114 104 132 119 112 147 144 141 150 146 143 153 153 151 142 136 131 
137 130 123 153 152 149 155 154 151 143 137 131 137 130 123 137 129 123 
144 142 137 154 156 154 135 126 117 151 149 145 159 161 160 156 159 158 
146 141 137 126 121 63 128 122 59 129 122 56 131 123 58 136 118 68 140 119 85 
142 128 98 145 132 113 148 139 128 149 143 137 146 140 138 143 139 136 
146 142 142 151 150 150 137 126 119 129 117 109 135 124 117 145 141 136 
160 166 167 161 165 167 154 153 153 156 157 156 152 154 150 154 156 153 
161 163 163 141 131 126 153 154 153 156 161 161 157 162 161 159 162 162 
156 159 160 155 156 158 159 162 163 158 161 163 159 159 159 154 152 151 
153 155 153 134 123 116 132 117 108 151 150 148 159 161 161 154 155 154 
152 154 151 139 132 125 137 128 121 128 112 103 138 128 122 160 166 166 
158 161 161 156 158 157 140 131 125 141 134 128 157 154 152 158 157 155 
147 143 138 143 139 134 146 143 138 144 141 134 141 135 130 133 122 114 
150 150 146 158 161 160 156 159 159 156 158 158 126 121 62 127 120 57 
127 121 57 128 121 55 131 122 57 137 118 70 142 121 85 143 127 96 146 133 111 
148 136 128 147 139 134 146 140 138 149 145 145 151 151 151 144 141 138 
132 120 110 140 134 128 153 153 152 150 151 150 149 148 147 142 136 130 
146 144 140 149 149 147 149 149 147 149 146 144 152 151 150 161 165 165 
158 162 161 148 145 142 152 152 151 150 148 146 157 159 160 161 167 168 
155 157 157 146 143 141 148 145 142 150 149 148 151 151 149 153 154 151 
160 166 166 150 150 149 144 140 137 141 135 130 142 136 130 147 140 138 
142 135 129 139 134 130 156 160 159 160 164 165 154 152 150 149 147 146 
150 147 146 149 145 143 153 151 149 147 142 137 146 142 137 153 153 148 
148 146 140 136 127 120 136 129 123 151 154 151 157 161 161 153 155 154 
152 154 153 125 119 60 125 119 56 125 119 55 126 120 54 127 120 54 131 119 57 
136 118 68 140 120 81 142 127 94 145 130 110 147 134 125 147 139 134 
147 142 140 149 146 146 152 150 149 147 144 140 148 146 142 151 151 147 
149 149 147 149 147 146 141 135 130 131 118 110 150 149 146 153 153 152 
149 144 142 150 147 145 157 160 159 153 153 150 133 120 111 147 144 142 
148 146 142 156 159 159 158 163 163 147 143 142 140 134 131 145 141 139 
154 153 153 157 157 156 152 154 149 151 152 149 143 136 133 136 126 120 
142 135 131 144 137 133 149 145 144 150 147 146 145 143 140 137 130 123 
152 149 147 151 148 146 153 153 153 144 139 136 131 117 109 149 147 144 
149 145 142 150 147 142 154 153 148 151 149 143 141 137 131 140 138 133 
149 151 148 153 156 155 139 132 126 141 135 131 125 119 58 124 118 55 
125 118 55 125 119 54 125 119 52 128 121 52 132 120 57 136 119 66 140 121 79 
143 126 92 146 131 110 148 136 126 145 138 132 146 140 139 149 146 146 
151 150 150 149 148 144 147 143 138 143 136 130 159 159 160 129 114 104 
130 115 105 158 159 158 162 165 165 153 148 146 156 156 156 144 143 141 
138 133 129 136 127 121 151 149 148 148 147 144 148 146 143 151 147 144 
149 145 143 148 144 144 151 148 149 159 158 159 159 160 159 156 159 157 
141 134 128 142 133 128 127 109 99 141 132 127 137 127 119 148 144 140 
150 147 145 155 152 152 151 146 146 147 143 141 148 147 145 158 162 162 
153 153 151 143 136 131 151 151 151 152 150 149 153 150 148 152 151 148 
153 154 152 150 151 148 148 150 145 141 139 132 147 148 145 146 146 145 
146 147 147 123 118 56 123 117 54 123 117 53 123 117 53 124 117 52 125 119 51 
128 120 50 132 121 55 137 121 63 142 122 78 144 128 95 149 134 114 148 137 128 
146 140 136 147 145 143 152 150 148 152 150 148 142 138 133 133 122 113 
155 152 150 140 128 123 151 146 144 162 165 164 159 160 159 130 115 105 
154 153 152 140 138 134 141 142 138 151 151 150 153 152 151 146 144 140 
143 138 133 144 137 131 147 140 135 153 148 149 157 154 156 158 157 157 
158 158 157 154 153 151 150 149 144 150 144 140 132 118 110 134 124 116 
142 138 133 141 135 130 144 137 132 151 146 145 156 157 158 147 143 141 
155 157 156 161 167 168 159 162 162 152 152 152 151 152 152 151 148 146 
147 141 137 154 155 154 159 164 165 150 149 144 147 149 144 145 143 138 
145 145 141 147 146 145 147 147 147 123 116 53 123 116 53 122 116 52 
122 116 51 123 116 50 126 119 50 128 121 49 132 123 50 135 123 54 140 122 63 
145 122 82 147 129 99 149 136 120 149 141 135 149 146 141 150 148 145 
154 153 151 156 154 152 147 142 137 154 149 146 168 169 172 165 169 169 
153 153 150 149 148 145 141 134 129 147 144 141 144 142 137 147 145 140 
154 154 151 153 150 147 141 134 128 134 123 116 133 122 114 140 130 122 
157 154 152 161 162 161 156 156 155 160 164 165 158 162 162 154 152 150 
151 145 141 150 144 140 141 136 130 139 137 132 132 121 112 130 117 109 
137 128 122 144 137 133 148 142 138 154 153 152 161 166 167 156 158 157 
151 149 148 150 149 148 147 143 141 130 113 104 133 120 112 137 127 121 
142 136 130 142 136 131 143 138 133 148 145 141 150 150 150 151 151 151 
121 115 50 120 113 51 120 114 51 122 115 50 124 117 50 126 119 49 128 122 48 
130 123 48 132 125 49 135 123 55 140 122 65 146 121 85 148 129 106 150 137 127 
150 143 138 151 149 144 152 151 149 155 155 153 157 157 156 157 156 155 
160 159 158 157 158 157 154 156 154 160 166 167 146 143 139 144 137 133 
138 128 122 146 140 133 155 151 148 151 146 143 143 133 127 147 143 140 
157 162 162 134 123 115 151 145 140 157 157 155 158 161 161 158 162 162 
156 158 157 155 153 151 153 150 146 153 148 145 147 148 146 139 135 132 
127 112 101 128 112 103 134 125 119 141 135 131 150 146 141 155 152 149 
153 151 150 140 131 125 146 140 136 149 145 140 150 147 144 137 125 117 
144 135 129 149 143 139 146 140 135 146 140 136 150 147 145 152 151 150 
153 153 153 154 154 155 120 113 47 122 114 49 121 115 49 122 115 49 125 119 49 
127 119 49 129 122 48 131 123 48 132 125 48 135 126 51 136 123 54 138 120 67 
144 120 89 149 129 109 152 138 130 153 146 142 154 151 147 154 152 150 
156 155 152 152 150 149 144 139 137 142 138 133 150 151 148 154 155 153 
139 129 123 133 122 114 129 112 101 137 124 118 151 144 139 152 143 139 
151 141 139 151 148 145 155 156 155 140 132 125 134 122 113 139 129 122 
148 142 140 153 149 148 153 149 147 156 154 152 162 165 163 157 157 154 
157 155 154 147 141 139 127 111 100 129 115 106 140 134 132 147 143 142 
153 152 148 156 157 152 141 133 126 130 113 104 151 147 141 153 151 144 
158 159 154 156 155 152 151 145 140 151 144 141 158 155 154 158 157 157 
154 153 153 153 153 152 156 156 156 158 157 158 122 115 46 124 118 47 
123 115 48 125 119 48 127 120 49 128 121 48 130 123 48 132 124 48 133 126 48 
133 124 48 133 123 49 133 121 54 137 119 65 145 118 89 148 128 110 153 138 130 
153 146 143 152 149 146 153 150 148 151 148 147 143 138 135 139 133 128 
150 147 143 154 151 148 143 134 129 145 136 131 144 135 130 152 148 144 
155 146 144 154 146 144 158 152 151 154 145 143 146 139 132 144 136 131 
134 122 113 136 125 117 148 140 138 154 148 146 153 148 143 155 153 150 
159 161 158 160 163 161 162 159 160 154 148 146 142 137 132 139 133 128 
152 152 152 152 149 149 155 154 152 156 158 155 155 153 151 154 151 147 
156 153 147 156 154 147 159 161 158 157 156 154 149 143 139 151 145 142 
162 160 159 163 162 163 153 152 151 140 134 129 152 149 146 159 159 159 
130 122 46 131 123 46 129 121 47 130 122 47 129 121 48 130 122 47 131 123 48 
132 124 47 132 123 47 131 123 47 129 122 47 130 121 48 131 118 51 135 117 64 
143 117 86 148 128 109 152 135 130 151 146 138 151 147 143 150 147 145 
147 141 140 145 139 134 150 143 140 156 154 152 160 159 157 161 159 158 
158 156 154 159 157 155 161 157 157 160 156 155 158 156 153 156 154 151 
152 145 141 154 152 149 151 144 140 148 143 140 150 145 142 153 148 144 
156 152 149 154 150 146 147 143 139 147 144 141 149 144 140 150 144 143 
150 147 144 153 151 149 159 158 157 158 154 152 155 153 151 157 157 155 
156 155 154 158 157 154 158 157 153 153 149 145 137 126 117 147 140 135 
149 144 139 152 147 144 158 154 152 156 152 150 133 120 110 126 108 97 
145 139 136 157 159 158 135 126 47 136 127 47 134 125 46 134 126 46 132 125 47 
133 125 47 132 124 47 130 122 46 129 121 46 128 121 46 128 120 46 128 120 46 
128 119 47 129 117 50 134 116 61 144 116 85 146 128 105 151 135 126 
150 144 136 148 141 139 148 146 142 149 143 139 150 146 143 155 153 153 
163 162 161 163 164 164 163 162 161 163 161 161 163 162 162 162 160 159 
159 156 154 154 151 148 154 150 146 155 149 146 157 152 150 146 139 134 
155 151 148 155 151 148 157 153 151 153 149 146 146 140 136 155 156 156 
153 154 153 158 161 161 155 154 152 160 156 155 162 161 160 160 163 162 
155 153 150 149 143 140 151 147 145 154 151 149 158 155 152 140 131 123 
133 120 111 147 139 136 153 151 150 154 151 149 153 147 144 154 148 145 
137 127 119 133 119 112 148 146 143 150 149 147 137 129 48 137 129 48 
137 128 47 136 128 47 134 126 46 133 125 46 131 123 45 129 121 46 128 120 45 
127 119 45 127 119 45 127 118 45 127 118 45 127 119 46 129 119 48 134 116 60 
145 115 88 146 127 105 153 136 127 150 143 135 150 144 139 148 144 141 
150 146 144 154 153 150 156 152 150 164 163 162 164 163 163 164 163 161 
163 162 161 158 157 155 158 155 153 151 145 141 155 151 148 154 149 146 
158 154 151 158 155 153 158 153 152 159 156 155 157 154 154 155 152 151 
153 149 147 157 157 155 159 163 163 160 164 165 160 162 162 159 157 156 
163 162 163 161 166 167 154 153 151 139 130 122 142 134 128 148 140 136 
154 149 146 154 150 147 149 143 140 153 148 146 161 167 168 159 161 162 
145 138 134 145 137 133 154 151 150 149 145 143 144 136 132 140 132 127 
137 129 48 137 128 48 136 127 47 136 127 47 133 125 46 132 124 46 129 122 45 
128 120 45 127 119 44 129 121 44 129 120 44 129 120 45 129 121 45 129 120 45 
129 120 47 130 120 49 134 118 60 148 115 90 146 129 106 152 135 126 
148 141 131 149 141 137 149 145 142 155 151 150 159 156 155 162 160 160 
163 162 161 160 159 158 161 159 157 154 151 147 156 151 148 153 147 144 
155 150 147 155 151 150 155 152 150 148 140 136 138 128 120 147 140 137 
159 156 158 157 155 155 152 149 148 159 163 164 160 166 167 148 145 140 
141 129 124 135 121 115 148 141 138 155 153 150 145 138 133 140 130 122 
142 133 127 144 135 130 149 140 135 156 158 157 152 151 149 149 146 142 
158 158 158 158 158 157 147 140 137 149 144 142 155 154 153 148 141 138 
138 128 122 133 121 113 134 126 47 133 124 46 130 122 47 131 123 46 131 123 46 
130 122 45 130 122 45 130 122 45 131 123 45 131 123 45 132 123 46 132 123 46 
131 122 46 130 122 46 129 121 46 130 121 47 132 120 50 135 120 60 147 116 90 
147 131 104 152 134 123 148 140 129 152 143 140 156 151 147 158 155 153 
158 156 155 158 156 155 156 154 152 155 151 148 153 149 146 153 147 144 
151 144 141 153 149 147 153 147 144 151 148 144 142 131 125 141 130 125 
139 130 123 152 147 144 160 160 160 150 150 148 147 146 144 152 151 148 
131 116 106 126 108 97 127 109 99 140 131 123 147 140 135 148 141 138 
149 143 139 148 143 140 143 135 129 135 123 116 157 160 159 150 149 146 
149 140 136 147 139 136 159 156 157 142 134 130 156 159 158 157 162 162 
149 149 147 136 127 121 131 117 108 130 122 46 131 122 46 127 120 46 
128 120 45 130 121 46 131 123 46 133 124 45 134 125 46 134 125 46 134 125 46 
133 124 46 132 124 46 131 123 47 130 122 46 130 122 46 130 123 47 131 123 47 
132 124 51 138 122 59 147 118 89 146 130 100 150 133 124 150 142 130 
152 143 139 154 149 145 156 150 148 154 150 148 154 150 147 152 146 143 
150 143 139 151 146 143 150 144 142 152 146 143 149 143 140 147 139 134 
144 134 129 150 145 141 156 154 152 155 150 149 159 162 163 160 166 167 
152 155 154 148 143 138 139 130 122 130 113 104 130 115 106 136 123 116 
147 140 136 152 146 143 156 153 152 151 150 147 143 136 130 133 122 113 
133 122 112 144 133 127 159 162 162 157 157 157 141 131 124 144 138 134 
153 153 153 152 153 153 146 145 143 137 129 124 132 122 115 125 118 45 
128 121 45 127 119 46 129 122 46 132 123 46 134 125 46 135 126 47 136 127 46 
136 127 46 134 126 46 134 126 46 132 124 46 131 123 46 129 121 47 130 122 47 
130 122 47 130 122 47 131 123 49 132 123 51 137 123 62 146 120 89 146 129 102 
150 133 121 148 139 128 151 142 137 152 145 140 151 145 141 150 143 139 
149 142 138 150 144 141 151 145 142 150 143 139 148 141 136 147 139 135 
144 134 129 145 139 133 149 142 140 159 155 154 153 151 148 153 153 151 
150 149 147 143 137 132 142 131 127 136 124 117 129 114 104 131 118 110 
141 134 130 151 151 149 151 151 150 158 162 160 158 161 161 138 130 122 
142 132 127 140 131 124 152 149 147 157 157 157 156 154 153 129 114 104 
136 124 118 143 137 133 141 137 132 141 137 132 140 137 132 140 136 133 
121 114 45 125 117 45 126 119 46 130 123 47 133 125 47 136 127 47 137 128 47 
138 129 47 136 127 46 134 126 46 132 123 45 130 122 46 129 121 46 127 120 46 
127 120 46 127 119 46 128 120 46 128 120 47 130 122 49 132 123 54 137 123 66 
144 124 89 144 130 102 148 134 118 148 138 126 149 140 132 149 140 133 
149 141 137 149 142 138 150 144 141 149 141 137 148 140 137 147 138 133 
145 136 131 146 138 133 148 142 140 154 150 148 155 152 148 147 144 140 
144 143 138 156 160 159 147 142 139 145 140 135 127 113 104 124 107 96 
138 129 122 159 164 164 161 167 168 160 166 167 161 167 168 161 166 167 
148 145 142 148 143 139 154 155 153 158 162 162 146 140 137 159 156 156 
142 134 129 133 120 112 139 130 126 131 117 108 134 126 118 140 137 133 
143 144 142 116 110 44 121 115 44 125 118 45 131 123 47 135 126 47 137 129 47 
139 129 47 138 129 47 133 126 46 133 125 46 129 122 45 128 120 45 127 119 46 
125 117 45 125 117 45 125 118 45 126 118 46 127 120 46 129 121 48 131 123 51 
133 124 58 138 125 69 143 125 88 144 130 102 147 132 115 147 136 122 
148 137 130 148 139 134 149 140 136 148 140 136 147 138 133 146 138 133 
144 136 131 146 139 134 149 142 139 152 147 144 154 149 147 149 147 143 
141 136 131 142 136 131 150 148 145 133 121 111 136 125 117 149 146 144 
126 109 98 151 151 148 161 167 168 161 167 168 160 166 167 161 167 168 
159 163 163 160 159 159 160 156 153 155 153 149 149 145 142 146 137 133 
134 120 112 126 108 97 129 112 104 129 113 103 126 108 97 129 113 104 
142 142 137 143 144 143 120 114 45 124 117 45 127 120 46 132 124 46 135 127 47 
137 128 47 137 129 47 136 128 47 134 126 46 131 123 46 128 120 45 126 119 45 
123 116 45 123 116 45 122 115 44 124 116 45 125 118 45 127 118 46 128 121 47 
130 121 49 131 123 52 135 123 59 138 126 73 142 126 89 143 129 102 146 131 114 
147 133 123 147 135 128 147 136 131 147 137 132 147 137 133 144 136 131 
146 138 133 147 139 135 150 144 140 151 147 143 149 146 142 145 143 137 
138 130 123 136 126 119 131 119 109 131 116 108 134 123 115 148 145 142 
127 109 99 138 128 121 158 161 161 149 145 139 152 150 148 155 156 155 
154 149 147 158 155 156 156 154 151 150 143 138 145 138 133 141 132 127 
134 120 112 127 109 98 143 136 131 139 128 123 128 112 102 135 124 117 
140 139 136 139 139 135 135 129 48 134 127 47 132 124 46 131 122 46 131 123 46 
134 126 47 138 130 48 140 131 47 135 127 47 130 121 45 126 118 44 121 113 44 
120 113 45 120 114 45 123 115 46 124 117 46 126 118 45 127 119 46 129 121 46 
129 121 48 132 122 49 131 123 53 135 124 60 136 124 73 140 124 88 142 128 101 
144 130 112 145 132 120 146 133 126 146 133 129 146 135 131 145 136 132 
146 138 134 148 141 137 151 143 139 149 144 140 146 143 138 141 134 128 
137 127 120 133 122 113 132 118 110 128 112 101 134 121 111 126 110 99 
127 109 98 127 110 99 139 126 119 141 129 121 148 141 138 158 162 162 
156 153 154 158 160 160 160 165 166 138 126 119 151 145 143 153 150 149 
152 154 151 128 112 101 147 144 143 151 151 152 150 147 146 149 145 144 
141 140 136 137 136 132 135 128 48 134 126 47 130 122 46 128 121 46 129 121 46 
133 125 47 141 133 48 141 131 47 132 122 45 124 116 44 119 112 44 116 109 44 
117 111 45 119 112 45 122 115 45 123 115 45 123 115 45 124 116 45 126 118 45 
126 118 46 128 119 47 128 120 49 130 121 54 132 121 60 137 122 74 138 122 87 
141 125 100 142 127 112 144 130 119 146 132 126 147 134 129 146 136 131 
147 138 134 149 142 138 149 143 139 147 143 140 146 140 135 142 135 130 
137 127 121 131 118 109 133 120 111 132 120 110 136 126 118 130 113 102 
129 115 104 132 117 107 138 126 117 145 135 129 152 145 144 159 161 161 
156 152 151 152 153 151 150 148 146 136 126 119 159 160 161 158 155 155 
147 141 137 144 137 132 150 149 149 153 155 156 153 153 153 157 162 162 
146 147 145 139 139 136 119 111 45 121 113 45 125 118 45 129 122 45 132 125 46 
137 128 47 142 132 47 137 127 46 122 115 44 116 109 43 115 109 44 115 108 44 
115 108 44 116 109 44 118 110 44 119 111 44 119 112 44 120 112 44 120 114 44 
123 115 44 123 116 46 126 117 46 126 118 49 127 119 54 130 119 60 134 120 73 
138 121 88 141 123 98 143 126 110 145 130 119 146 132 126 147 134 129 
149 139 134 150 142 138 149 145 141 148 142 138 146 140 134 144 135 129 
143 134 129 142 131 125 127 112 102 129 113 103 133 122 114 145 140 135 
147 141 135 143 134 129 143 132 126 140 127 121 138 125 117 146 138 133 
141 129 121 155 150 147 134 122 113 140 131 125 159 164 164 159 157 157 
149 145 142 146 140 137 146 142 141 149 144 143 150 147 146 159 163 163 
157 162 162 149 149 150 118 110 44 121 113 45 127 119 45 130 123 46 133 125 47 
136 128 47 141 131 47 137 128 46 124 116 44 119 112 44 119 113 44 118 111 44 
117 110 44 117 110 44 118 111 44 119 111 44 119 111 44 119 113 44 122 114 45 
122 116 45 123 117 45 124 118 46 124 117 46 126 118 48 126 118 52 130 119 61 
135 117 72 137 120 88 140 123 99 143 126 110 145 130 119 148 134 126 
150 138 133 151 143 139 151 143 140 149 142 138 148 142 138 147 142 138 
149 145 142 147 139 135 140 132 127 131 117 109 135 121 115 157 162 162 
160 166 167 155 154 152 152 144 141 142 130 123 130 114 104 144 131 125 
143 132 127 161 159 158 144 134 130 132 117 107 150 145 143 158 155 155 
153 151 150 148 145 141 142 134 130 142 132 128 145 138 136 155 156 155 
155 157 157 151 151 151 133 125 46 133 125 46 135 126 47 134 125 47 130 122 46 
132 124 46 141 131 47 144 134 47 140 131 46 134 126 46 128 119 45 123 116 44 
122 115 44 122 115 45 124 117 45 124 117 45 120 114 44 123 117 46 132 124 49 
132 126 49 132 125 47 131 123 47 129 121 46 128 120 47 126 118 48 127 118 53 
129 117 60 132 115 73 137 118 87 140 122 98 144 126 110 147 130 120 
149 136 129 152 140 136 151 142 138 151 144 140 149 143 141 149 144 141 
149 144 142 146 137 135 153 149 147 151 145 142 153 144 142 158 161 161 
161 167 168 148 145 142 143 132 127 145 135 129 131 116 105 132 117 108 
138 126 119 135 122 114 148 141 138 151 146 141 155 151 149 156 152 151 
156 153 153 150 144 141 135 122 115 131 117 109 138 127 122 142 136 131 
138 131 124 138 130 125 141 133 47 139 131 47 135 126 47 131 122 46 125 118 46 
128 121 46 139 130 47 145 135 47 146 137 47 143 134 47 136 127 46 131 123 46 
130 122 46 130 122 46 131 123 46 129 121 46 124 118 45 128 122 47 140 133 50 
143 135 52 142 135 50 137 129 49 133 126 47 130 122 46 126 119 46 125 117 46 
124 116 51 128 114 60 133 114 72 138 116 87 140 122 95 144 126 110 149 131 121 
150 137 129 152 139 134 152 143 141 150 143 140 146 142 139 145 138 138 
149 143 141 155 150 147 159 155 154 160 155 154 157 152 151 156 155 155 
149 144 139 147 140 136 132 119 109 126 108 97 126 108 97 127 109 98 
126 108 97 132 117 107 157 154 153 153 149 147 152 149 147 156 153 152 
151 144 142 136 123 116 131 117 109 140 129 125 144 136 132 141 137 131 
130 116 106 142 134 47 137 129 47 127 119 45 121 114 45 120 114 45 125 118 46 
135 127 47 141 132 47 142 133 47 143 134 47 144 135 48 144 135 48 141 132 48 
138 130 47 136 128 47 132 125 47 128 121 47 132 125 47 143 136 50 148 140 51 
151 143 52 145 137 51 136 129 47 129 122 46 126 119 44 123 116 45 121 114 47 
124 115 50 127 113 59 132 114 70 137 116 85 140 122 95 145 126 108 148 130 119 
150 135 129 152 140 136 149 140 136 144 135 131 142 136 133 145 140 135 
149 143 140 153 148 145 155 151 150 157 153 151 159 155 153 159 161 160 
153 154 151 149 148 145 126 108 97 129 113 103 130 114 105 128 112 102 
145 137 132 159 161 162 151 148 146 152 149 148 154 150 149 152 147 145 
144 135 131 142 132 128 155 154 153 151 147 144 151 147 145 149 146 144 
143 135 47 137 129 46 122 115 44 115 109 44 116 110 44 123 116 45 134 127 47 
141 132 47 142 133 47 145 135 48 149 140 49 149 140 49 143 135 48 138 130 48 
133 125 47 129 122 46 127 121 46 131 124 47 140 132 49 147 139 50 151 143 51 
147 139 50 136 128 47 129 122 45 125 117 44 121 114 44 120 113 45 120 112 47 
123 114 50 126 113 57 131 113 71 138 117 84 140 122 94 145 125 107 148 130 120 
151 134 130 150 139 137 147 141 137 143 136 131 142 136 131 145 138 133 
145 139 135 144 137 131 152 146 142 160 155 153 161 158 157 155 158 155 
154 156 154 136 126 118 144 135 129 147 138 134 150 140 137 156 152 152 
159 162 163 151 148 146 149 146 143 152 148 145 152 148 146 152 150 149 
150 145 144 154 148 146 155 150 148 156 152 151 155 153 153 145 135 47 
138 129 46 121 114 44 113 107 44 113 107 44 121 114 45 138 129 47 146 136 48 
147 137 48 149 139 48 151 142 49 147 139 49 136 129 48 127 121 47 121 115 45 
119 112 44 119 113 45 124 117 46 133 124 47 137 128 48 136 129 48 132 126 47 
127 121 46 124 118 45 122 115 44 120 113 44 122 114 45 120 114 46 120 113 46 
121 113 49 126 113 57 132 113 69 137 115 82 142 120 96 147 124 111 151 132 126 
152 138 134 149 140 139 144 138 134 141 133 128 142 133 129 135 125 119 
129 115 106 147 138 133 155 148 146 157 153 152 152 148 146 149 143 140 
152 147 143 155 149 147 155 149 147 155 151 148 155 154 151 157 157 156 
154 152 149 154 151 149 150 146 142 152 149 145 155 155 154 158 157 157 
161 159 160 160 158 158 157 155 154 154 153 152 147 137 47 139 130 46 
122 114 45 114 107 44 115 109 44 125 117 45 143 134 48 151 140 49 148 138 48 
146 137 48 145 137 48 139 132 48 128 122 47 121 115 46 118 111 45 119 111 44 
122 115 45 127 120 46 134 125 47 134 125 47 127 120 46 122 116 45 121 114 44 
121 114 44 121 115 44 123 115 45 123 116 45 122 115 45 121 114 45 120 114 46 
121 113 48 125 112 54 132 113 67 139 113 81 146 119 99 153 124 120 154 135 133 
150 140 137 146 138 134 144 136 131 141 133 128 137 128 120 141 132 124 
139 127 121 134 120 111 153 149 147 152 149 146 153 148 146 157 152 151 
158 152 150 156 150 148 155 151 147 157 157 154 160 166 167 160 166 166 
159 163 163 151 148 144 151 148 145 155 154 152 159 160 161 160 161 163 
159 158 159 158 160 161 153 152 151 149 139 47 142 132 46 125 116 45 
119 111 45 123 116 46 134 127 48 151 142 51 154 145 51 145 135 48 138 129 47 
132 124 47 126 119 46 120 114 46 119 112 45 123 115 45 129 120 46 136 127 46 
141 132 47 143 135 48 138 131 47 125 119 46 119 112 45 120 113 45 124 117 45 
126 119 45 125 117 45 121 115 44 122 115 44 122 115 44 122 115 45 121 114 46 
122 115 48 126 114 53 133 113 65 141 114 84 149 120 103 157 125 128 
154 137 137 150 140 135 149 141 136 148 141 136 148 140 134 146 139 135 
138 129 122 136 125 118 151 148 144 155 152 150 157 155 152 158 155 153 
155 148 144 147 137 133 150 141 137 157 154 150 161 164 163 160 161 161 
151 149 146 148 143 140 151 146 144 148 145 142 153 154 153 151 152 152 
149 148 148 152 153 154 153 154 154 146 137 47 141 132 47 129 120 46 
125 117 46 130 123 47 140 132 49 155 146 52 155 146 52 142 134 48 132 124 46 
124 116 46 119 112 45 118 111 45 121 114 45 130 121 46 136 127 47 140 131 47 
144 134 47 147 138 48 142 134 47 131 123 46 124 117 45 122 115 45 126 119 46 
134 126 47 132 125 47 125 118 45 124 117 45 121 114 45 121 115 45 121 114 45 
121 115 46 123 115 46 126 116 52 134 114 65 146 114 87 150 122 107 158 127 130 
153 139 132 152 141 135 150 139 135 147 139 133 149 142 139 147 142 138 
150 146 143 158 157 156 158 158 155 159 157 154 156 152 148 146 135 131 
134 121 111 151 142 137 156 150 146 142 131 124 143 135 129 134 122 114 
129 114 104 146 137 133 149 144 141 146 144 141 146 144 141 147 146 144 
151 150 149 153 153 153 138 131 47 137 129 47 134 126 47 133 126 47 135 127 47 
142 134 49 154 145 51 154 145 51 140 132 48 129 122 46 120 113 45 117 111 45 
120 114 45 127 120 46 138 129 47 140 131 48 135 126 46 136 128 46 144 135 47 
146 137 47 143 133 47 137 128 46 128 121 46 131 124 47 142 134 49 144 135 50 
137 130 49 132 124 47 127 121 46 124 118 46 124 118 46 124 117 46 125 119 46 
125 118 47 128 118 52 137 117 65 148 115 90 150 126 104 157 128 126 
151 139 126 151 138 128 152 138 135 149 143 137 152 146 142 157 151 151 
157 157 154 158 156 153 159 155 152 148 141 137 149 142 137 146 136 131 
157 154 153 155 151 147 149 144 137 134 121 112 144 138 133 128 112 102 
147 140 137 155 153 153 156 158 158 154 152 149 153 151 148 153 152 150 
156 155 156 133 126 47 134 127 47 136 128 47 137 128 47 137 128 47 140 131 48 
145 137 50 143 135 49 132 125 47 125 118 46 121 113 45 119 112 45 120 113 44 
127 120 45 140 131 47 143 134 48 136 127 47 136 128 46 144 135 47 147 138 47 
145 135 47 139 130 47 129 122 46 132 126 47 148 140 50 151 142 51 146 138 51 
141 133 49 134 126 47 131 123 47 129 121 46 128 121 47 128 121 47 127 120 47 
129 121 47 131 121 52 138 119 64 150 116 91 147 129 97 155 130 115 152 136 117 
149 136 119 155 139 135 155 148 140 155 150 147 157 151 151 159 154 151 
156 151 148 159 154 151 158 154 152 160 159 157 160 163 162 160 165 166 
159 163 163 150 144 140 150 145 143 148 141 138 156 152 152 158 161 161 
161 167 168 158 159 158 154 151 146 154 152 150 154 152 151 131 124 46 
132 124 46 133 125 46 134 125 46 134 125 46 132 124 46 128 121 46 123 117 46 
119 113 45 119 113 45 124 117 45 123 116 45 117 110 44 122 114 45 137 128 47 
144 134 48 143 133 48 144 134 48 147 139 48 145 137 48 137 129 47 130 123 46 
126 119 46 130 123 47 144 135 49 151 142 51 153 145 52 150 142 51 142 134 49 
140 132 49 138 130 48 135 127 48 134 126 47 132 125 47 130 123 47 131 124 47 
132 123 51 139 121 62 149 117 86 146 131 85 152 129 100 153 135 113 
151 142 118 157 139 138 153 147 141 156 150 147 155 148 146 159 155 153 
160 158 157 160 161 160 161 161 160 159 162 162 160 166 167 161 166 167 
153 153 152 149 142 140 155 151 150 154 153 150 155 157 156 150 149 146 
152 149 145 151 147 145 152 151 150 152 152 152 132 125 46 133 126 46 
136 127 46 137 128 46 136 126 46 131 123 46 123 116 45 118 112 45 117 111 44 
120 113 44 128 120 45 129 121 45 122 115 45 124 116 45 134 125 46 140 130 47 
142 132 48 142 132 48 140 132 48 136 129 47 127 121 46 126 119 46 131 124 47 
137 130 49 146 138 50 152 143 51 155 147 52 153 145 51 148 139 50 146 138 50 
145 136 49 140 132 49 138 131 48 135 128 48 134 126 48 132 125 47 132 124 47 
134 125 51 139 125 56 148 122 77 145 133 76 152 131 92 154 134 111 149 141 117 
155 139 139 150 143 138 153 147 142 157 152 152 157 156 154 160 161 161 
161 165 165 159 161 160 154 153 151 155 158 156 151 147 145 152 149 148 
156 155 154 159 163 163 144 137 132 134 121 112 144 137 132 150 146 143 
151 149 146 150 149 148 137 129 47 139 131 47 144 135 48 144 135 48 141 132 47 
136 127 47 131 123 47 127 120 46 125 118 45 127 119 45 132 124 46 135 127 47 
135 127 47 134 126 47 131 124 46 131 123 46 132 123 46 130 121 46 124 117 46 
120 114 45 117 111 45 125 118 46 143 136 49 154 145 51 157 148 52 156 147 51 
150 142 51 147 139 50 143 135 49 143 135 49 145 137 50 141 133 49 138 131 48 
136 129 48 135 128 48 135 127 48 134 127 48 137 128 48 138 130 50 141 131 55 
149 128 70 145 133 73 149 131 90 152 132 114 146 139 119 151 136 134 
153 147 143 153 149 145 149 142 140 157 159 159 161 165 165 162 163 163 
151 149 147 144 136 132 149 145 143 155 154 153 157 157 157 158 160 160 
148 141 138 145 140 134 154 153 152 151 147 143 150 147 143 150 148 145 
132 124 46 135 128 47 144 135 48 146 137 48 142 133 47 139 130 47 138 129 47 
135 127 47 133 124 46 133 125 46 136 128 47 140 132 48 145 137 49 141 133 48 
128 122 45 123 116 45 124 116 45 123 115 46 119 113 45 117 110 45 115 109 45 
124 118 46 145 137 49 157 148 51 160 151 52 157 148 52 147 139 50 141 133 49 
137 129 48 136 129 47 138 130 48 136 129 47 133 126 47 132 125 46 131 125 47 
133 126 48 135 128 49 137 130 49 140 132 49 142 133 51 142 134 52 147 128 66 
143 131 73 144 129 90 149 129 113 145 138 119 153 140 140 148 139 135 
151 148 144 155 153 154 162 164 163 160 162 162 155 157 156 140 131 126 
151 148 145 153 151 149 159 156 158 153 149 147 140 129 123 152 147 144 
151 147 144 149 144 139 145 140 134 146 140 135 117 111 44 123 116 45 
136 129 47 142 134 47 140 131 47 140 131 47 143 134 47 143 133 47 139 129 47 
139 129 47 141 132 48 145 137 50 152 143 50 146 137 49 126 119 45 117 110 44 
118 111 45 122 114 46 128 119 46 128 119 46 122 114 45 124 117 45 135 128 48 
146 138 50 156 148 52 157 149 52 146 139 50 136 129 48 127 121 46 124 117 45 
123 117 45 124 117 45 124 117 45 126 119 46 128 121 46 130 123 48 135 128 48 
136 130 49 140 133 49 141 134 50 143 134 50 140 132 51 144 126 65 140 128 73 
142 128 89 152 132 119 149 145 127 150 139 135 151 145 142 156 155 151 
157 156 155 152 150 148 137 128 120 134 123 115 142 134 129 148 143 139 
152 149 147 150 148 145 154 153 149 154 152 150 152 149 147 147 142 140 
141 133 128 135 127 119 116 110 44 122 115 45 134 127 46 140 132 47 140 131 47 
141 131 47 143 133 47 142 132 47 138 128 47 135 126 47 135 127 48 138 130 48 
145 136 49 139 131 48 122 115 45 113 108 44 115 108 44 120 113 45 131 122 47 
134 125 47 128 119 46 127 119 46 131 124 47 140 133 49 155 147 51 156 148 52 
144 137 50 134 127 48 126 119 46 119 113 45 116 110 44 115 109 43 116 110 44 
120 114 44 124 117 46 128 121 47 132 125 47 137 130 49 140 132 49 141 134 50 
142 135 49 142 133 50 139 131 50 142 124 66 140 129 77 143 132 95 153 132 123 
149 144 129 150 141 135 153 149 147 150 146 143 152 153 151 137 130 123 
127 112 102 130 118 109 144 139 135 150 147 146 137 125 119 149 147 145 
146 142 139 148 145 144 145 140 138 138 131 126 136 127 120 129 121 46 
131 124 46 137 129 47 141 132 47 142 134 47 141 132 47 137 127 46 132 123 45 
128 120 46 124 117 45 120 113 45 119 113 45 122 114 45 121 113 45 116 110 44 
113 108 44 113 107 44 119 112 45 130 122 46 135 126 47 134 125 47 133 124 47 
133 125 47 140 132 49 155 146 51 155 147 51 142 134 49 135 127 47 136 126 47 
130 121 46 121 114 44 117 110 43 116 110 44 118 112 44 122 116 45 126 120 47 
131 124 48 135 127 48 138 131 49 142 135 50 142 135 49 142 135 49 140 133 50 
137 130 51 143 123 68 141 130 80 142 134 95 153 125 125 141 132 117 
144 137 130 146 140 138 147 146 143 138 131 124 137 127 120 150 149 147 
160 166 167 153 155 154 132 120 114 136 131 128 139 135 131 133 122 115 
138 134 130 139 133 130 138 132 129 136 128 48 137 128 47 137 128 47 
138 129 47 140 131 47 138 129 46 129 121 45 124 116 45 121 114 45 118 112 44 
115 109 44 114 108 44 115 108 44 115 108 44 114 108 44 113 108 44 113 108 44 
121 114 45 134 127 47 142 133 48 142 133 49 141 132 49 137 129 48 142 133 49 
155 146 51 156 147 52 146 137 50 141 132 48 142 133 48 137 128 47 127 119 45 
124 116 45 125 118 46 126 119 46 125 118 47 128 122 47 132 125 48 134 127 49 
138 130 49 141 133 49 143 135 49 144 136 49 142 135 48 139 130 50 135 129 51 
143 120 73 139 128 81 135 124 83 154 116 126 136 121 109 136 125 115 
141 131 131 146 143 139 147 142 140 149 147 145 146 146 144 133 122 114 
129 117 109 133 127 124 135 127 123 130 113 105 138 131 126 144 140 137 
145 143 140 139 131 48 137 129 48 132 124 47 131 123 46 134 125 46 130 122 46 
121 114 45 116 110 44 117 110 44 118 111 44 121 114 44 123 115 45 123 116 45 
121 114 44 115 109 44 113 107 44 115 109 44 125 119 46 145 137 49 155 146 51 
154 145 51 150 141 50 142 134 49 144 136 49 155 147 51 159 150 52 156 147 52 
152 143 51 146 137 49 140 131 48 135 127 47 136 128 48 143 135 50 139 132 49 
135 128 48 135 127 48 136 128 49 138 130 49 140 132 50 142 135 50 144 136 50 
145 137 50 144 137 48 141 133 48 137 127 49 132 124 50 143 114 78 134 120 71 
138 122 81 149 105 118 140 128 116 143 134 128 153 151 152 145 140 137 
136 135 133 131 129 127 130 119 112 134 124 118 141 137 135 146 143 143 
144 138 135 148 143 138 144 138 132 143 136 130 133 126 47 131 123 47 
126 118 46 124 117 45 127 118 46 124 116 45 115 109 44 113 108 44 118 111 44 
124 116 45 131 122 46 132 124 46 128 121 45 123 116 45 116 110 44 115 109 44 
119 113 45 130 123 47 148 140 50 157 148 51 155 146 51 151 142 50 145 137 49 
147 139 50 156 147 51 161 151 52 161 152 53 157 148 52 149 140 50 143 134 49 
139 131 48 142 133 49 147 138 50 146 138 50 141 133 48 141 133 49 141 134 50 
143 135 50 144 136 50 146 138 50 148 140 51 147 139 50 145 137 49 142 135 48 
136 129 47 131 124 46 130 121 49 144 108 77 139 128 77 150 134 99 158 119 132 
141 132 119 147 136 131 142 133 130 135 130 127 133 130 129 130 117 109 
133 120 112 152 153 153 147 142 142 148 141 138 148 143 139 145 138 133 
130 116 105 119 113 45 118 112 45 116 110 44 117 110 44 119 112 45 118 111 45 
113 107 44 115 109 44 125 117 45 134 126 46 144 135 47 142 133 47 130 122 46 
122 115 46 118 112 45 119 113 45 125 119 46 134 126 47 144 136 49 148 139 49 
144 136 50 143 135 50 146 138 50 151 142 50 157 148 52 160 151 52 161 152 53 
158 148 52 150 141 50 145 136 49 143 134 48 140 131 47 137 129 48 134 127 48 
134 126 47 139 131 48 144 136 49 145 138 50 148 139 50 149 141 51 149 141 51 
149 140 50 145 137 49 140 132 48 135 128 47 130 124 47 130 123 47 136 124 53 
147 111 79 143 134 77 156 134 107 152 117 119 140 128 114 139 125 119 
137 125 118 146 141 136 145 139 135 144 137 134 151 149 147 150 147 144 
141 134 129 141 133 128 144 139 135 140 132 126 112 106 44 113 107 44 
117 110 44 119 113 45 121 114 45 122 115 46 121 115 45 125 118 45 132 125 46 
139 130 47 144 135 47 140 132 47 128 120 46 120 113 46 117 111 45 119 113 45 
125 118 46 131 123 47 136 128 47 138 130 47 137 129 48 141 132 49 149 140 50 
154 145 51 157 148 52 157 148 52 156 147 52 151 142 51 143 135 49 138 130 48 
137 128 47 133 125 46 128 121 46 126 119 46 129 121 46 134 125 47 140 131 48 
143 135 49 148 139 50 149 141 51 149 140 50 147 139 50 141 134 49 138 130 48 
133 126 47 131 123 46 131 124 47 135 126 47 143 127 56 153 119 84 147 137 81 
149 119 97 146 119 109 138 121 108 149 133 129 148 141 136 150 145 143 
148 144 141 148 143 140 134 122 115 139 129 123 135 123 116 145 140 135 
149 144 142 112 106 44 116 110 45 127 119 47 132 124 47 132 124 47 135 128 48 
141 134 49 143 135 49 141 133 47 137 129 46 131 123 46 126 119 45 122 114 45 
118 111 45 115 109 44 115 109 44 119 112 44 121 114 45 123 116 45 127 120 45 
134 127 47 143 134 48 152 143 50 156 147 51 157 147 52 153 144 51 145 137 51 
137 130 49 129 121 47 124 116 46 122 115 45 121 114 45 122 115 45 124 117 46 
128 121 47 132 125 47 135 127 47 138 130 47 141 133 48 143 135 49 144 135 49 
142 134 49 139 131 48 135 127 46 131 124 46 130 123 46 133 126 47 136 128 48 
141 132 49 148 130 60 157 124 82 150 137 85 154 120 103 147 127 109 
149 132 122 151 145 140 148 142 138 145 141 138 143 137 134 143 136 132 
142 132 128 139 126 121 149 142 140 154 151 150 115 109 44 121 114 45 
133 124 47 138 129 48 136 129 48 140 133 49 150 142 50 151 143 50 144 136 48 
136 128 46 125 118 45 120 113 45 119 112 45 117 111 45 114 108 44 114 108 44 
117 111 44 118 111 44 117 110 44 122 114 44 131 124 46 141 133 48 151 142 50 
154 145 51 152 143 51 146 138 50 137 130 49 128 122 47 120 113 45 115 109 44 
115 108 45 116 110 45 120 113 45 124 117 45 127 121 46 128 122 46 130 122 46 
133 125 46 137 130 48 138 131 48 139 131 48 139 131 48 137 129 47 135 127 47 
132 125 47 132 124 47 137 129 47 138 131 49 144 136 49 146 137 51 152 134 59 
160 130 84 153 136 82 160 126 115 153 140 119 157 144 140 157 155 152 
158 158 157 147 145 142 150 150 150 160 166 166 147 141 139 149 144 142 
155 153 153 122 115 45 126 119 45 135 127 47 138 130 47 135 127 47 138 130 48 
147 140 50 149 141 50 143 135 48 135 128 46 127 120 46 122 115 45 121 114 45 
118 112 45 114 108 44 115 109 44 121 114 45 122 115 45 119 112 44 121 114 44 
128 120 45 136 127 47 145 136 49 147 138 50 143 134 49 137 130 47 131 124 46 
124 118 45 117 111 44 114 108 44 115 109 45 119 112 45 125 118 46 127 120 46 
123 116 45 121 115 45 123 116 45 131 124 47 143 134 49 148 140 50 147 139 51 
142 135 49 137 129 46 135 127 47 137 129 47 135 128 47 141 132 48 144 136 50 
146 137 50 148 140 51 149 141 50 150 136 57 159 130 77 150 132 78 161 121 111 
147 133 110 155 138 136 155 151 145 156 152 152 151 149 148 153 152 153 
149 148 147 149 149 148 149 150 150 122 115 45 125 118 45 132 124 46 
136 128 47 136 127 47 139 130 48 145 137 49 146 138 49 142 134 48 136 129 47 
128 121 46 125 118 46 127 119 46 125 117 45 119 112 44 118 112 45 122 116 46 
123 116 46 121 114 44 123 115 44 129 120 46 134 125 47 140 130 48 140 131 48 
135 127 47 131 123 46 126 119 45 122 115 44 117 111 44 116 111 44 118 112 45 
125 118 46 135 128 48 136 128 48 125 118 45 119 113 44 118 112 45 126 120 47 
141 133 49 150 141 51 152 144 51 148 139 50 139 131 47 136 128 47 140 131 48 
142 134 49 145 136 49 147 139 50 149 140 50 149 141 50 150 141 50 149 141 49 
148 136 54 154 127 72 143 127 69 155 115 105 144 127 105 153 135 132 
151 144 138 153 148 148 151 147 147 151 149 150 149 148 148 146 146 145 
115 109 44 118 112 44 124 116 45 131 122 46 139 130 47 143 133 48 143 133 48 
143 134 47 143 135 48 139 131 47 129 121 46 129 120 46 138 128 47 137 128 46 
127 120 45 122 115 45 121 114 45 121 114 45 123 115 45 127 118 45 134 124 46 
136 126 47 134 125 46 131 123 46 128 121 45 125 118 45 122 115 45 121 114 45 
121 115 45 123 117 46 125 119 46 135 127 48 151 142 51 151 142 51 135 127 47 
123 116 45 115 109 44 116 111 45 126 120 46 135 128 47 144 137 49 145 136 49 
140 132 47 140 131 48 145 137 50 147 139 50 148 140 50 151 143 51 150 142 50 
150 142 50 149 141 49 147 139 49 146 138 48 145 135 50 152 123 69 142 126 66 
152 117 98 147 127 105 152 135 126 155 146 141 153 147 146 151 149 148 
146 142 140 140 133 130 113 107 44 114 108 44 118 111 44 127 119 46 140 131 47 
146 136 48 144 134 48 144 135 48 147 139 49 143 135 48 130 122 47 129 121 46 
140 130 47 140 130 47 129 121 45 122 115 45 119 113 45 121 113 45 126 118 45 
131 123 46 136 126 47 135 126 47 128 120 45 124 116 44 122 115 45 121 114 45 
121 113 45 122 115 45 126 120 46 129 122 46 129 123 46 136 129 48 150 142 51 
150 141 50 136 128 47 126 118 45 118 112 45 116 110 44 119 113 44 126 119 45 
139 130 48 143 134 48 140 131 47 140 132 48 144 136 49 147 139 50 148 139 50 
148 139 50 147 139 49 146 138 49 145 137 48 145 137 48 144 135 48 143 135 47 
142 133 49 151 122 70 144 128 73 149 126 96 150 130 113 151 137 129 
146 135 129 147 141 138 141 135 132 140 132 129 114 108 44 114 108 44 
114 108 45 123 116 46 140 130 47 148 138 48 148 138 49 150 141 50 154 146 51 
148 140 50 131 124 47 126 118 46 132 123 46 132 122 46 124 117 45 119 113 45 
118 111 44 121 114 44 131 124 45 136 128 46 136 127 47 132 123 46 121 114 45 
116 110 44 116 110 44 117 111 44 121 113 45 126 118 45 133 124 46 134 126 47 
130 124 46 130 124 46 133 126 47 133 125 47 129 121 46 127 119 46 127 119 46 
125 118 45 123 115 45 126 118 45 134 126 47 137 129 48 137 129 48 135 128 48 
133 126 47 138 130 48 142 133 49 142 133 48 141 133 48 142 133 48 143 134 48 
143 134 48 142 133 47 141 132 47 137 129 46 135 127 46 147 117 73 142 123 80 
140 125 89 143 118 103 143 122 119 148 142 138 138 133 129 134 130 126 
114 108 44 114 108 44 113 108 45 122 115 46 140 131 47 150 140 49 151 141 50 
154 144 51 158 149 51 152 143 50 136 128 47 129 121 46 132 123 46 129 121 46 
122 115 45 117 111 45 116 109 44 121 114 44 134 126 46 141 133 47 142 133 48 
135 127 47 121 115 45 114 109 44 114 108 44 117 110 44 122 115 45 130 121 46 
139 130 47 142 133 48 136 129 47 133 127 47 133 126 47 131 124 47 129 121 47 
128 120 46 129 121 46 127 119 46 122 114 45 123 116 45 132 124 47 137 129 48 
138 131 48 133 127 48 124 118 45 127 120 45 135 126 47 136 129 48 137 129 47 
138 129 47 139 131 47 140 131 47 138 130 46 136 127 46 133 125 45 130 122 45 
130 122 46 142 114 72 142 117 86 135 121 84 141 116 106 145 119 125 
136 120 115 136 130 124 114 108 44 114 108 44 115 109 45 125 117 46 142 133 47 
151 141 48 152 142 49 155 145 50 159 149 51 155 145 50 143 133 47 137 128 46 
138 130 47 133 125 46 122 115 45 116 109 44 114 107 44 121 113 44 135 127 46 
146 137 48 153 144 50 147 139 49 128 122 46 118 112 44 117 111 45 120 113 45 
126 119 45 134 127 47 146 137 49 150 141 50 148 140 49 147 139 49 149 140 50 
145 137 50 137 128 48 130 122 47 125 117 46 120 113 45 115 109 44 119 113 45 
131 124 47 140 133 49 145 138 49 139 131 48 122 116 45 120 114 44 131 123 46 
134 126 47 135 127 47 135 126 47 134 126 46 133 125 46 131 123 45 130 122 45 
129 121 45 128 120 46 128 120 46 127 119 46 139 112 69 143 113 87 136 123 88 
141 119 107 143 116 122 139 126 124 114 108 44 115 109 44 116 110 45 
126 118 46 144 134 47 151 140 48 147 137 48 149 139 49 155 145 50 154 144 50 
146 137 47 142 133 47 142 134 47 136 128 47 124 117 46 119 112 45 119 112 45 
125 117 45 137 129 46 148 139 48 156 147 51 150 142 50 130 123 46 121 115 45 
123 116 45 126 119 45 130 123 46 136 128 47 143 135 49 147 139 49 148 140 50 
151 143 50 153 145 51 149 141 50 138 130 49 129 121 47 121 114 45 116 109 44 
113 107 44 118 112 45 129 123 47 137 130 48 142 134 49 136 128 47 120 114 45 
120 113 44 133 126 47 139 131 48 141 133 48 137 129 47 133 125 45 130 122 45 
128 120 45 127 119 45 127 120 46 127 120 46 127 120 46 128 120 46 128 121 46 
141 114 70 149 115 95 141 127 95 145 126 114 149 129 138 114 109 44 115 109 44 
117 111 45 127 120 46 144 135 48 147 137 48 136 127 47 135 127 47 144 136 48 
148 139 49 145 137 49 144 135 48 143 135 48 138 130 47 128 121 46 125 118 46 
129 121 46 134 126 47 141 133 47 147 138 48 152 143 50 146 137 49 128 121 46 
123 116 45 131 124 45 136 128 46 137 129 47 135 127 47 130 123 46 131 125 46 
139 132 48 144 137 49 146 139 49 143 135 49 133 126 47 125 118 46 117 111 45 
114 108 44 116 109 44 119 113 44 125 118 45 128 121 46 128 121 46 125 118 45 
117 111 44 123 117 45 141 133 48 149 141 50 153 144 51 146 137 49 134 126 46 
127 119 46 125 117 45 124 117 44 124 117 45 127 119 46 129 122 47 133 125 47 
135 127 47 138 129 47 150 116 76 157 118 108 147 136 111 146 133 126 
115 109 44 115 109 44 116 111 44 124 118 45 139 130 47 140 131 47 128 120 46 
126 118 46 134 127 47 140 132 48 143 135 49 144 136 49 144 136 48 140 132 48 
134 126 47 132 124 46 134 127 47 137 129 47 139 131 47 142 133 47 144 135 48 
141 132 48 131 123 46 130 122 46 137 129 46 140 132 46 138 130 47 134 126 47 
128 121 45 129 123 46 138 131 47 144 136 49 147 139 49 144 137 49 136 129 47 
127 120 46 117 111 44 114 107 44 116 109 44 119 112 44 122 116 45 123 116 45 
120 113 45 117 111 44 115 109 44 124 117 45 143 134 48 152 143 50 152 144 51 
144 135 49 128 121 46 121 115 44 120 114 44 122 115 45 125 118 46 129 121 46 
133 125 47 138 129 48 142 133 48 145 136 48 147 138 49 162 117 92 158 119 123 
143 138 122 114 108 44 114 108 44 114 108 44 119 112 45 129 121 46 130 121 46 
122 115 45 120 113 45 125 117 46 131 123 47 139 130 48 143 135 48 144 136 48 
143 135 48 142 133 48 139 130 47 135 127 47 133 125 46 132 124 46 132 124 46 
133 124 46 135 126 47 139 131 47 141 133 47 140 132 47 138 130 47 135 127 46 
134 126 46 137 129 47 141 132 48 145 136 48 150 141 49 155 147 51 154 145 51 
146 138 49 136 127 47 122 115 45 115 108 44 114 108 44 117 110 44 122 115 45 
122 115 45 117 111 44 114 108 44 113 107 44 120 114 45 137 128 46 141 132 47 
135 127 48 128 120 47 119 113 45 118 111 44 118 111 44 123 115 45 127 119 47 
133 125 47 139 131 48 144 135 49 147 138 49 148 139 49 145 137 49 142 134 48 
171 105 114 155 119 134 114 108 44 114 108 44 113 107 44 116 110 44 124 116 46 
125 117 46 119 113 45 117 111 45 120 113 46 127 118 46 137 128 48 143 134 48 
144 136 48 145 136 48 146 136 48 143 133 48 136 127 46 131 123 46 129 121 46 
127 119 46 127 118 46 133 123 46 143 134 48 146 137 48 141 133 47 137 129 47 
133 125 46 134 126 46 141 132 48 146 137 48 148 139 49 152 143 50 159 150 52 
159 149 52 151 142 50 140 131 48 124 116 45 115 109 44 113 107 44 115 109 44 
122 115 45 122 115 45 116 109 44 112 106 44 112 106 44 119 112 44 133 125 45 
136 127 46 127 120 47 120 114 46 116 110 45 115 109 44 116 110 45 121 115 46 
132 123 47 138 130 48 143 135 49 146 138 49 148 139 50 145 137 49 137 130 48 
131 124 46 126 119 46 174 92 145 
