P3
64 64
255
0 0 0 0 0 0 0 0 0 0 0 0 0 0 0 0 0 0 0 0 0 0 0 0 0 0 0 0 0 0 0 0 0 0 0 0 0 0 0 
0 0 0 0 0 0 0 0 0 0 0 0 0 0 0 0 0 0 0 0 0 0 0 0 0 0 0 0 0 0 0 0 0 0 0 0 0 0 0 
0 0 0 0 0 0 0 0 0 0 0 0 0 0 0 0 0 0 0 0 0 0 0 0 0 0 0 0 0 0 0 0 0 0 0 0 0 0 0 
0 0 0 0 0 0 0 0 0 0 0 0 0 0 0 0 0 0 0 0 0 0 0 0 0 0 0 0 0 0 0 0 0 0 0 0 0 0 0 
0 0 0 0 0 0 0 0 0 0 0 0 0 0 0 0 0 0 0 0 0 0 0 0 0 0 0 0 0 0 0 0 0 0 0 0 0 0 0 
0 0 0 0 0 0 0 0 0 0 0 0 0 0 0 0 0 0 0 0 0 0 0 0 0 0 0 0 0 0 0 0 0 0 0 0 0 0 0 
0 0 0 0 0 0 0 0 0 0 0 0 0 0 0 0 0 0 0 0 0 0 0 0 0 0 0 0 0 0 0 0 0 0 0 0 0 0 0 
0 0 0 0 0 0 0 0 0 0 0 0 0 0 0 0 0 0 0 0 0 0 0 0 0 0 0 0 0 0 0 0 0 0 0 0 0 0 0 
0 0 0 0 0 0 0 0 0 0 0 0 0 0 0 0 0 0 0 0 0 0 0 0 0 0 0 0 0 0 0 0 0 0 0 0 0 0 0 
0 0 0 0 0 0 0 0 0 0 0 0 0 0 0 0 0 0 0 0 0 0 0 0 0 0 0 0 0 0 0 0 0 0 0 0 0 0 0 
0 0 0 0 0 0 0 0 0 0 0 0 255 255 255 255 255 255 255 255 255 247 246 233 
255 255 255 255 255 255 255 255 255 0 0 0 0 0 0 0 0 0 0 0 0 0 0 0 0 0 0 0 0 0 
0 0 0 0 0 0 0 0 0 0 0 0 0 0 0 0 0 0 0 0 0 0 0 0 0 0 0 0 0 0 0 0 0 0 0 0 0 0 0 
0 0 0 0 0 0 0 0 0 0 0 0 0 0 0 0 0 0 0 0 0 0 0 0 0 0 0 0 0 0 0 0 0 0 0 0 0 0 0 
0 0 0 0 0 0 0 0 0 0 0 0 0 0 0 0 0 0 0 0 0 0 0 0 0 0 0 0 0 0 0 0 0 0 0 0 0 0 0 
0 0 0 0 0 0 0 0 0 0 0 0 0 0 0 0 0 0 0 0 0 0 0 0 0 0 0 0 0 0 159 120 116 
164 131 105 111 52 43 123 72 41 85 16 8 86 18 3 88 21 4 80 9 1 80 9 1 0 0 0 
0 0 0 0 0 0 0 0 0 0 0 0 0 0 0 0 0 0 0 0 0 0 0 0 0 0 0 0 0 0 0 0 0 0 0 0 0 0 0 
203 155 155 255 255 255 255 255 255 255 255 255 202 151 151 0 0 0 82 64 61 
71 48 44 0 0 0 0 0 0 0 0 0 0 0 0 0 0 0 0 0 0 0 0 0 0 0 0 0 0 0 0 0 0 0 0 0 
0 0 0 0 0 0 0 0 0 0 0 0 0 0 0 0 0 0 0 0 0 0 0 0 0 0 0 0 0 0 0 0 0 0 0 0 0 0 0 
0 0 0 0 0 0 0 0 0 0 0 0 0 0 0 0 0 0 0 0 0 0 0 0 211 204 134 155 125 48 
139 106 12 124 78 14 110 55 11 164 138 29 184 170 36 184 170 36 0 0 0 0 0 0 
0 0 0 0 0 0 0 0 0 0 0 0 0 0 0 0 0 0 0 0 0 0 0 0 0 0 0 0 0 0 0 0 0 0 0 0 0 0 0 
217 183 183 229 229 229 236 236 236 241 241 241 250 250 250 238 238 238 
0 0 0 0 0 0 70 41 37 58 27 22 111 102 102 0 0 0 0 0 0 0 0 0 0 0 0 0 0 0 0 0 0 
0 0 0 0 0 0 0 0 0 0 0 0 0 0 0 0 0 0 0 0 0 0 0 0 0 0 0 0 0 0 0 0 0 0 0 0 0 0 0 
0 0 0 0 0 0 0 0 0 0 0 0 0 0 0 0 0 0 0 0 0 0 0 0 0 0 0 0 0 0 130 80 63 
150 120 35 169 154 17 82 12 1 80 9 1 0 0 0 0 0 0 0 0 0 0 0 0 0 0 0 0 0 0 0 0 0 
0 0 0 0 0 0 0 0 0 0 0 0 0 0 0 0 0 0 0 0 0 0 0 0 0 0 0 0 0 0 0 0 0 211 181 181 
228 228 228 251 251 251 251 251 251 251 251 251 251 251 251 251 251 251 
237 237 237 0 0 0 0 0 0 90 58 55 54 21 15 81 57 53 117 110 110 134 105 105 
0 0 0 0 0 0 0 0 0 0 0 0 0 0 0 0 0 0 0 0 0 0 0 0 0 0 0 0 0 0 0 0 0 0 0 0 0 0 0 
0 0 0 0 0 0 0 0 0 0 0 0 0 0 0 0 0 0 0 0 0 0 0 0 0 0 0 0 0 0 0 0 0 0 0 0 255 255 255 
127 80 44 149 122 13 169 154 17 0 0 0 0 0 0 0 0 0 169 154 17 169 154 17 
160 146 16 0 0 0 0 0 0 0 0 0 0 0 0 0 0 0 0 0 0 0 0 0 0 0 0 0 0 0 0 0 0 0 0 0 
0 0 0 0 0 0 0 0 0 251 251 251 251 251 251 134 104 84 91 51 23 91 52 23 
106 71 44 233 229 226 251 251 251 0 0 0 0 0 0 0 0 0 0 0 0 0 0 0 0 0 0 0 0 0 
0 0 0 0 0 0 0 0 0 0 0 0 0 0 0 0 0 0 0 0 0 0 0 0 0 0 0 0 0 0 0 0 0 0 0 0 0 0 0 
0 0 0 0 0 0 0 0 0 0 0 0 0 0 0 0 0 0 0 0 0 0 0 0 0 0 0 0 0 0 0 0 0 0 0 0 198 189 99 
149 122 13 84 16 2 0 0 0 0 0 0 0 0 0 0 0 0 169 154 17 169 154 17 164 150 17 
145 132 15 55 52 32 0 0 0 0 0 0 0 0 0 0 0 0 0 0 0 0 0 0 0 0 0 0 0 0 0 0 0 
0 0 0 0 0 0 238 224 224 251 251 251 251 251 251 95 57 27 122 96 55 151 139 86 
105 72 38 171 155 129 215 206 199 244 237 237 0 0 0 0 0 0 0 0 0 0 0 0 0 0 0 
137 125 14 129 118 13 87 80 8 0 0 0 0 0 0 0 0 0 0 0 0 0 0 0 0 0 0 0 0 0 0 0 0 
0 0 0 0 0 0 0 0 0 0 0 0 0 0 0 0 0 0 0 0 0 0 0 0 0 0 0 0 0 0 0 0 0 0 0 0 0 0 0 
0 0 0 255 255 255 147 111 62 134 98 11 158 137 15 0 0 0 0 0 0 169 154 17 
169 154 17 169 154 17 0 0 0 168 153 17 169 154 17 98 89 57 158 142 106 
0 0 0 0 0 0 0 0 0 0 0 0 0 0 0 0 0 0 0 0 0 0 0 0 0 0 0 0 0 0 248 246 246 
251 251 251 171 165 110 206 218 142 206 218 142 206 218 142 206 218 142 
93 54 25 116 82 59 247 242 242 0 0 0 0 0 0 0 0 0 0 0 0 0 0 0 169 154 17 
169 154 17 149 135 15 41 39 14 48 44 24 139 109 86 0 0 0 0 0 0 0 0 0 0 0 0 
0 0 0 0 0 0 0 0 0 0 0 0 0 0 0 0 0 0 0 0 0 0 0 0 0 0 0 0 0 0 0 0 0 0 0 0 0 0 0 
0 0 0 0 0 0 0 0 0 148 110 70 153 127 21 119 73 8 149 122 13 169 154 17 
169 154 17 169 154 17 0 0 0 0 0 0 201 170 145 206 218 142 206 218 142 
206 218 142 175 185 121 145 115 90 0 0 0 0 0 0 0 0 0 0 0 0 0 0 0 0 0 0 0 0 0 
0 0 0 244 238 238 250 250 250 55 31 14 157 167 108 186 197 128 183 194 126 
206 218 142 136 143 93 210 210 210 250 249 249 240 229 229 0 0 0 0 0 0 0 0 0 
0 0 0 0 0 0 169 154 17 159 145 24 195 205 132 182 193 126 132 139 91 
126 122 83 0 0 0 0 0 0 0 0 0 0 0 0 0 0 0 0 0 0 0 0 0 0 0 0 0 0 0 0 0 0 0 0 0 
0 0 0 0 0 0 0 0 0 0 0 0 0 0 0 0 0 0 0 0 0 0 0 0 255 255 255 176 162 36 
149 122 13 169 154 17 169 154 17 169 154 17 0 0 0 0 0 0 0 0 0 0 0 0 206 218 142 
206 218 142 206 218 142 206 218 142 146 133 15 130 118 13 123 112 12 
0 0 0 0 0 0 0 0 0 0 0 0 0 0 0 237 224 224 250 250 250 250 250 250 109 84 50 
152 161 105 122 128 84 143 152 99 168 177 116 96 102 67 190 196 165 
243 243 243 250 249 249 216 183 183 0 0 0 0 0 0 0 0 0 0 0 0 0 0 0 188 143 143 
206 218 143 206 218 142 200 212 138 135 124 14 95 87 9 0 0 0 0 0 0 0 0 0 0 0 0 
0 0 0 0 0 0 0 0 0 0 0 0 0 0 0 0 0 0 0 0 0 0 0 0 0 0 0 0 0 0 0 0 0 0 0 0 0 0 0 
0 0 0 0 0 0 0 0 0 0 0 0 0 0 0 0 0 0 0 0 0 0 0 0 0 0 0 0 0 0 0 0 0 255 255 255 
255 255 255 255 255 255 237 237 237 138 125 18 156 142 16 130 118 13 
125 111 17 0 0 0 0 0 0 234 217 217 250 249 249 250 250 250 250 250 250 
250 250 250 200 210 154 195 206 134 196 208 136 180 191 124 169 178 116 
176 186 123 214 220 187 250 250 250 250 250 250 250 249 249 237 224 224 
0 0 0 0 0 0 0 0 0 0 0 0 0 0 0 221 229 176 206 218 142 206 218 142 159 145 17 
169 154 17 132 120 13 0 0 0 0 0 0 0 0 0 0 0 0 0 0 0 0 0 0 0 0 0 0 0 0 0 0 0 
0 0 0 0 0 0 0 0 0 0 0 0 0 0 0 0 0 0 0 0 0 0 0 0 0 0 0 0 0 0 0 0 0 0 0 0 0 0 0 
0 0 0 0 0 0 0 0 0 0 0 0 0 0 0 226 226 226 255 255 255 206 206 206 246 246 246 
0 0 0 0 0 0 166 150 18 138 120 22 114 108 49 82 78 37 229 209 209 250 250 250 
250 250 250 250 250 250 250 250 250 227 227 227 208 217 158 205 217 141 
206 218 142 176 186 121 181 179 60 236 235 221 251 251 251 246 246 246 
246 242 242 239 229 229 0 0 0 0 0 0 0 0 0 0 0 0 0 0 0 222 222 222 252 252 252 
239 242 218 198 165 154 135 116 26 169 154 17 138 126 14 100 92 10 0 0 0 0 0 0 
0 0 0 0 0 0 0 0 0 0 0 0 0 0 0 0 0 0 0 0 0 0 0 0 0 0 0 0 0 0 0 0 0 0 0 0 0 0 0 
0 0 0 0 0 0 0 0 0 0 0 0 0 0 0 0 0 0 0 0 0 0 0 0 0 0 0 238 226 226 149 149 149 
0 0 0 0 0 0 8 8 8 0 0 0 0 0 0 0 0 0 0 0 0 144 137 65 118 113 53 0 0 0 244 239 239 
250 250 250 250 250 250 250 250 250 185 190 162 167 177 115 204 215 141 
211 221 153 176 186 121 182 176 36 113 113 51 222 222 222 249 249 249 
239 229 229 0 0 0 0 0 0 0 0 0 0 0 0 0 0 0 0 0 0 255 255 255 211 211 211 
225 225 225 47 26 26 0 0 0 88 63 35 91 84 12 80 59 30 118 112 53 0 0 0 0 0 0 
0 0 0 0 0 0 0 0 0 0 0 0 0 0 0 0 0 0 0 0 0 0 0 0 0 0 0 0 0 0 0 0 0 0 0 0 0 0 0 
0 0 0 0 0 0 248 246 246 248 246 246 248 246 246 248 246 246 249 248 248 
250 250 250 250 250 250 151 145 145 0 0 0 0 0 0 0 0 0 0 0 0 0 0 0 0 0 0 0 0 0 
144 137 65 144 137 65 0 0 0 198 151 151 250 250 250 204 198 70 109 108 53 
42 45 29 156 165 108 174 185 121 197 209 136 203 214 140 211 207 54 108 104 25 
111 109 46 152 151 141 0 0 0 0 0 0 0 0 0 0 0 0 0 0 0 0 0 0 0 0 0 3 3 3 0 0 0 
180 168 168 14 8 8 0 0 0 0 0 0 0 0 0 144 137 65 144 137 65 117 111 53 
0 0 0 0 0 0 0 0 0 0 0 0 0 0 0 0 0 0 0 0 0 0 0 0 0 0 0 0 0 0 0 0 0 0 0 0 0 0 0 
0 0 0 0 0 0 250 249 249 249 248 248 247 243 243 246 242 242 250 250 250 
250 250 250 250 250 250 250 250 250 181 165 165 0 0 0 0 0 0 40 23 23 0 0 0 
0 0 0 0 0 0 0 0 0 0 0 0 144 137 65 21 18 18 0 0 0 146 140 63 207 199 47 
83 84 49 2 2 2 13 14 9 56 58 40 177 188 124 111 117 76 159 159 58 224 217 48 
166 161 62 98 95 37 22 21 8 0 0 0 33 18 18 0 0 0 0 0 0 0 0 0 0 0 0 0 0 0 0 0 0 
21 12 12 0 0 0 0 0 0 0 0 0 0 0 0 0 0 0 0 0 0 140 133 63 104 99 47 0 0 0 0 0 0 
0 0 0 0 0 0 0 0 0 0 0 0 0 0 0 0 0 0 0 0 0 0 0 0 0 0 0 0 0 0 0 0 0 0 0 0 202 154 154 
200 150 150 212 173 173 249 248 248 226 202 202 250 249 249 250 250 250 
250 250 250 207 201 201 0 0 0 0 0 0 0 0 0 0 0 0 0 0 0 0 0 0 255 255 255 
75 75 75 169 164 108 14 14 14 108 103 49 149 142 65 226 218 41 186 181 70 
7 7 6 1 1 0 12 13 8 139 146 95 2 2 1 13 14 9 226 219 40 172 167 56 143 139 54 
96 92 41 0 0 0 0 0 0 0 0 0 36 20 20 0 0 0 0 0 0 0 0 0 0 0 0 11 6 6 0 0 0 0 0 0 
0 0 0 0 0 0 0 0 0 0 0 0 144 137 65 114 108 51 110 104 49 0 0 0 0 0 0 0 0 0 
0 0 0 0 0 0 0 0 0 0 0 0 0 0 0 0 0 0 0 0 0 0 0 0 0 0 0 0 0 0 0 0 0 0 0 0 0 0 0 
205 159 159 247 245 245 248 247 247 250 250 250 250 250 250 155 155 155 
0 0 0 0 0 0 0 0 0 0 0 0 0 0 0 84 84 84 98 98 98 160 154 97 136 129 61 
48 46 22 139 132 63 185 180 84 222 214 45 204 198 56 165 161 63 18 18 15 
0 0 0 1 1 1 0 0 0 9 10 8 219 211 45 188 181 34 171 167 64 104 99 46 72 69 33 
0 0 0 0 0 0 0 0 0 0 0 0 0 0 0 0 0 0 0 0 0 11 6 6 0 0 0 0 0 0 0 0 0 0 0 0 0 0 0 
0 0 0 0 0 0 128 122 58 110 104 49 144 137 65 0 0 0 0 0 0 0 0 0 0 0 0 0 0 0 
0 0 0 0 0 0 0 0 0 0 0 0 0 0 0 0 0 0 0 0 0 0 0 0 0 0 0 0 0 0 0 0 0 249 249 249 
250 250 250 250 250 250 220 220 220 75 75 75 1 0 0 0 0 0 0 0 0 9 5 5 0 0 0 
29 29 29 0 0 0 144 137 65 45 43 20 125 119 56 45 43 20 148 146 82 230 226 126 
224 218 72 184 179 69 182 177 68 14 14 5 2 2 2 0 0 0 13 13 5 188 183 64 
221 213 39 186 181 70 126 123 49 102 97 46 0 0 0 0 0 0 0 0 0 0 0 0 0 0 0 0 0 0 
0 0 0 28 15 15 0 0 0 0 0 0 0 0 0 0 0 0 0 0 0 0 0 0 0 0 0 0 0 0 117 112 53 
113 108 51 0 0 0 0 0 0 0 0 0 0 0 0 0 0 0 0 0 0 0 0 0 0 0 0 0 0 0 0 0 0 0 0 0 
0 0 0 0 0 0 0 0 0 0 0 0 0 0 0 242 234 234 248 246 246 250 250 250 60 60 60 
115 115 115 33 33 33 0 0 0 0 0 0 0 0 0 0 0 0 0 0 0 158 154 106 142 135 64 
16 16 7 131 125 59 0 0 0 0 0 0 110 108 79 235 230 108 196 192 98 175 170 66 
184 179 69 36 35 13 0 0 0 146 142 55 177 173 67 226 218 41 145 141 54 
170 164 64 121 115 55 59 57 26 0 0 0 0 0 0 0 0 0 0 0 0 0 0 0 0 0 0 23 13 13 
0 0 0 0 0 0 0 0 0 0 0 0 0 0 0 0 0 0 0 0 0 0 0 0 0 0 0 121 116 55 105 100 48 
0 0 0 0 0 0 0 0 0 0 0 0 0 0 0 0 0 0 0 0 0 0 0 0 0 0 0 0 0 0 0 0 0 0 0 0 0 0 0 
0 0 0 0 0 0 231 213 213 242 235 235 242 233 233 65 65 65 91 91 91 0 0 0 0 0 0 
0 0 0 0 0 0 0 0 0 72 72 72 186 182 137 123 115 56 144 137 65 144 137 65 
58 58 58 13 13 13 0 0 0 168 164 80 233 227 101 187 182 79 180 175 67 
186 181 70 185 180 70 186 181 70 162 157 61 221 214 39 0 0 0 176 171 66 
66 55 32 104 97 47 22 12 12 0 0 0 0 0 0 0 0 0 0 0 0 0 0 0 4 2 2 0 0 0 0 0 0 
0 0 0 0 0 0 0 0 0 0 0 0 0 0 0 0 0 0 0 0 0 144 137 65 144 137 65 93 88 42 
0 0 0 0 0 0 0 0 0 0 0 0 0 0 0 0 0 0 0 0 0 0 0 0 0 0 0 0 0 0 0 0 0 0 0 0 0 0 0 
0 0 0 234 218 218 249 249 249 236 223 223 128 128 128 80 80 80 57 57 57 
34 34 34 0 0 0 8 4 4 5 3 3 177 170 126 152 146 79 0 0 0 144 137 65 0 0 0 120 105 105 
58 58 58 0 0 0 24 24 24 219 214 112 232 225 87 189 183 50 39 38 15 184 179 69 
185 180 70 37 36 14 217 210 38 37 36 14 174 170 66 0 0 0 140 133 63 105 100 48 
0 0 0 13 7 7 0 0 0 0 0 0 0 0 0 71 39 39 0 0 0 0 0 0 0 0 0 0 0 0 0 0 0 0 0 0 
0 0 0 0 0 0 0 0 0 0 0 0 144 137 65 109 103 49 0 0 0 0 0 0 0 0 0 0 0 0 0 0 0 
0 0 0 0 0 0 0 0 0 0 0 0 0 0 0 0 0 0 0 0 0 0 0 0 0 0 0 0 0 0 203 157 157 
0 0 0 121 100 100 44 43 43 57 57 57 83 80 80 85 65 65 94 52 52 144 137 65 
144 137 65 144 137 65 0 0 0 144 137 65 0 0 0 255 255 255 77 77 77 48 48 48 
0 0 0 55 55 55 163 160 106 229 222 61 217 210 45 184 179 69 156 152 59 
219 211 46 221 213 44 185 180 69 141 132 55 0 0 0 144 137 65 118 112 53 
95 91 43 0 0 0 60 33 33 1 1 1 0 0 0 0 0 0 0 0 0 0 0 0 0 0 0 0 0 0 0 0 0 0 0 0 
0 0 0 0 0 0 0 0 0 0 0 0 121 115 54 110 105 50 0 0 0 0 0 0 0 0 0 0 0 0 0 0 0 
0 0 0 0 0 0 0 0 0 0 0 0 0 0 0 0 0 0 0 0 0 0 0 0 0 0 0 0 0 0 0 0 0 0 0 0 0 0 0 
0 0 0 255 255 255 0 0 0 0 0 0 0 0 0 144 137 65 144 137 65 0 0 0 0 0 0 144 137 65 
144 137 65 255 255 255 107 107 107 112 112 112 0 0 0 0 0 0 59 59 59 67 67 67 
218 211 85 231 224 80 227 220 70 220 212 50 46 45 8 5 3 3 144 137 65 
144 137 65 144 137 65 144 137 65 144 137 65 0 0 0 0 0 0 0 0 0 0 0 0 0 0 0 
0 0 0 0 0 0 0 0 0 0 0 0 0 0 0 0 0 0 0 0 0 0 0 0 0 0 0 0 0 0 110 104 50 
131 124 59 0 0 0 0 0 0 0 0 0 0 0 0 0 0 0 0 0 0 0 0 0 0 0 0 0 0 0 0 0 0 0 0 0 
0 0 0 0 0 0 0 0 0 0 0 0 0 0 0 0 0 0 0 0 0 0 0 0 0 0 0 0 0 0 0 0 0 144 137 65 
144 137 65 0 0 0 0 0 0 0 0 0 144 137 65 144 137 65 144 137 65 190 186 144 
173 173 173 120 120 120 61 61 61 20 20 20 0 0 0 43 43 43 107 106 91 107 104 61 
20 20 20 0 0 0 0 0 0 0 0 0 0 0 0 144 137 65 144 137 65 0 0 0 0 0 0 0 0 0 0 0 0 
0 0 0 0 0 0 0 0 0 0 0 0 0 0 0 0 0 0 0 0 0 0 0 0 0 0 0 0 0 0 0 0 0 107 102 48 
115 109 52 0 0 0 0 0 0 0 0 0 0 0 0 0 0 0 0 0 0 0 0 0 0 0 0 0 0 0 0 0 0 0 0 0 
0 0 0 0 0 0 0 0 0 0 0 0 0 0 0 0 0 0 0 0 0 0 0 0 0 0 0 0 0 0 0 0 0 255 255 255 
157 151 87 144 137 65 0 0 0 0 0 0 0 0 0 0 0 0 144 137 65 144 137 65 214 212 185 
140 140 140 121 121 121 128 128 128 121 121 121 20 20 20 7 7 7 68 68 68 
48 48 48 0 0 0 0 0 0 144 137 65 144 137 65 144 137 65 144 137 65 144 137 65 
144 137 65 0 0 0 0 0 0 0 0 0 0 0 0 0 0 0 0 0 0 0 0 0 0 0 0 0 0 0 0 0 0 0 0 0 
0 0 0 0 0 0 0 0 0 117 111 53 112 107 51 0 0 0 0 0 0 0 0 0 0 0 0 0 0 0 0 0 0 
0 0 0 0 0 0 0 0 0 0 0 0 0 0 0 0 0 0 0 0 0 0 0 0 0 0 0 0 0 0 0 0 0 0 0 0 0 0 0 
0 0 0 0 0 0 0 0 0 255 255 255 165 159 101 144 137 65 0 0 0 0 0 0 0 0 0 0 0 0 
0 0 0 144 137 65 144 137 65 78 78 78 124 124 124 148 148 148 91 91 91 0 0 0 
0 0 0 0 0 0 7 7 7 0 0 0 0 0 0 0 0 0 0 0 0 0 0 0 0 0 0 144 137 65 144 137 65 
144 137 65 144 137 65 144 137 65 144 137 65 0 0 0 0 0 0 0 0 0 0 0 0 0 0 0 
0 0 0 0 0 0 0 0 0 0 0 0 115 110 52 112 107 51 0 0 0 0 0 0 0 0 0 0 0 0 0 0 0 
0 0 0 0 0 0 0 0 0 0 0 0 0 0 0 0 0 0 0 0 0 0 0 0 0 0 0 0 0 0 0 0 0 0 0 0 0 0 0 
0 0 0 0 0 0 0 0 0 0 0 0 0 0 0 255 255 255 165 159 101 144 137 65 0 0 0 0 0 0 
0 0 0 0 0 0 144 137 65 144 137 65 144 137 65 89 89 88 80 80 80 91 91 91 
7 7 7 0 0 0 0 0 0 0 0 0 0 0 0 0 0 0 0 0 0 0 0 0 0 0 0 0 0 0 0 0 0 0 0 0 0 0 0 
0 0 0 144 137 65 144 137 65 144 137 65 144 137 65 144 137 65 144 137 65 
144 137 65 0 0 0 0 0 0 0 0 0 144 137 65 144 137 65 111 105 50 0 0 0 0 0 0 
0 0 0 0 0 0 0 0 0 0 0 0 0 0 0 0 0 0 0 0 0 0 0 0 0 0 0 0 0 0 0 0 0 0 0 0 0 0 0 
0 0 0 0 0 0 0 0 0 0 0 0 0 0 0 0 0 0 0 0 0 0 0 0 0 0 0 255 255 255 147 140 70 
144 137 65 0 0 0 0 0 0 144 137 65 144 137 65 144 137 65 144 137 65 255 255 255 
126 126 126 100 100 100 69 69 69 0 0 0 0 0 0 0 0 0 0 0 0 0 0 0 0 0 0 0 0 0 
0 0 0 0 0 0 0 0 0 0 0 0 0 0 0 0 0 0 0 0 0 0 0 0 0 0 0 0 0 0 0 0 0 144 137 65 
144 137 65 144 137 65 144 137 65 144 137 65 144 137 65 144 137 65 144 137 65 
0 0 0 0 0 0 0 0 0 0 0 0 0 0 0 0 0 0 0 0 0 0 0 0 0 0 0 0 0 0 0 0 0 0 0 0 0 0 0 
0 0 0 0 0 0 0 0 0 0 0 0 0 0 0 0 0 0 0 0 0 0 0 0 0 0 0 0 0 0 0 0 0 0 0 0 0 0 0 
144 137 65 144 137 65 144 137 65 144 137 65 144 137 65 144 137 65 144 137 65 
0 0 0 255 255 255 177 177 177 50 50 50 0 0 0 0 0 0 0 0 0 0 0 0 0 0 0 0 0 0 
0 0 0 0 0 0 0 0 0 0 0 0 0 0 0 0 0 0 0 0 0 0 0 0 0 0 0 0 0 0 0 0 0 0 0 0 0 0 0 
0 0 0 0 0 0 0 0 0 144 137 65 144 137 65 144 137 65 144 137 65 0 0 0 0 0 0 
0 0 0 0 0 0 0 0 0 0 0 0 0 0 0 0 0 0 0 0 0 0 0 0 0 0 0 0 0 0 0 0 0 0 0 0 0 0 0 
0 0 0 0 0 0 0 0 0 0 0 0 0 0 0 0 0 0 0 0 0 0 0 0 0 0 0 0 0 0 0 0 0 0 0 0 0 0 0 
22 21 10 0 0 0 144 137 65 0 0 0 0 0 0 0 0 0 255 255 255 111 111 111 
156 156 156 107 107 107 72 72 72 39 39 39 7 7 7 0 0 0 0 0 0 0 0 0 0 0 0 0 0 0 
0 0 0 0 0 0 0 0 0 0 0 0 0 0 0 0 0 0 0 0 0 0 0 0 0 0 0 0 0 0 0 0 0 0 0 0 0 0 0 
0 0 0 0 0 0 0 0 0 0 0 0 0 0 0 0 0 0 0 0 0 0 0 0 0 0 0 0 0 0 0 0 0 0 0 0 0 0 0 
0 0 0 0 0 0 0 0 0 0 0 0 0 0 0 0 0 0 0 0 0 0 0 0 0 0 0 0 0 0 0 0 0 0 0 0 0 0 0 
0 0 0 0 0 0 0 0 0 0 0 0 0 0 0 0 0 0 0 0 0 0 0 0 0 0 0 0 0 0 0 0 0 0 0 0 0 0 0 
255 255 255 164 162 162 94 94 94 138 138 138 107 107 107 69 69 69 41 41 41 
0 0 0 22 22 22 28 28 28 0 0 0 0 0 0 0 0 0 0 0 0 0 0 0 0 0 0 0 0 0 0 0 0 0 0 0 
0 0 0 0 0 0 0 0 0 0 0 0 0 0 0 0 0 0 0 0 0 0 0 0 0 0 0 0 0 0 0 0 0 0 0 0 0 0 0 
0 0 0 0 0 0 0 0 0 0 0 0 0 0 0 0 0 0 0 0 0 0 0 0 0 0 0 0 0 0 0 0 0 0 0 0 0 0 0 
0 0 0 0 0 0 0 0 0 0 0 0 0 0 0 0 0 0 0 0 0 0 0 0 0 0 0 0 0 0 0 0 0 0 0 0 0 0 0 
0 0 0 0 0 0 0 0 0 0 0 0 0 0 0 255 255 255 255 255 255 79 79 79 88 88 88 
117 117 117 109 109 109 56 56 56 110 110 110 126 126 126 104 104 104 
105 105 105 79 79 79 7 7 7 0 0 0 0 0 0 0 0 0 0 0 0 0 0 0 0 0 0 0 0 0 0 0 0 
0 0 0 0 0 0 0 0 0 0 0 0 0 0 0 0 0 0 0 0 0 0 0 0 0 0 0 0 0 0 0 0 0 0 0 0 0 0 0 
0 0 0 0 0 0 0 0 0 0 0 0 0 0 0 0 0 0 0 0 0 0 0 0 0 0 0 0 0 0 0 0 0 0 0 0 0 0 0 
0 0 0 0 0 0 0 0 0 0 0 0 0 0 0 0 0 0 0 0 0 0 0 0 0 0 0 0 0 0 0 0 0 0 0 0 0 0 0 
0 0 0 0 0 0 0 0 0 0 0 0 255 255 255 91 91 91 79 79 79 89 89 89 121 121 121 
36 36 36 0 0 0 105 105 105 120 120 120 14 14 14 49 49 49 139 139 139 
158 158 158 69 69 69 0 0 0 0 0 0 0 0 0 0 0 0 0 0 0 0 0 0 0 0 0 0 0 0 0 0 0 
0 0 0 0 0 0 0 0 0 0 0 0 0 0 0 0 0 0 0 0 0 0 0 0 0 0 0 0 0 0 0 0 0 0 0 0 0 0 0 
0 0 0 0 0 0 0 0 0 0 0 0 0 0 0 0 0 0 0 0 0 0 0 0 0 0 0 0 0 0 0 0 0 0 0 0 0 0 0 
0 0 0 0 0 0 0 0 0 0 0 0 0 0 0 0 0 0 0 0 0 0 0 0 0 0 0 0 0 0 0 0 0 0 0 0 0 0 0 
0 0 0 255 255 255 91 91 91 47 47 47 65 65 65 12 12 12 43 43 43 75 75 75 
0 0 0 63 63 63 69 69 69 62 62 62 0 0 0 79 79 79 61 61 61 86 86 86 82 58 58 
0 0 0 0 0 0 0 0 0 0 0 0 0 0 0 0 0 0 0 0 0 0 0 0 0 0 0 0 0 0 0 0 0 0 0 0 0 0 0 
0 0 0 0 0 0 0 0 0 0 0 0 0 0 0 0 0 0 0 0 0 0 0 0 0 0 0 0 0 0 0 0 0 0 0 0 0 0 0 
0 0 0 0 0 0 0 0 0 0 0 0 0 0 0 0 0 0 0 0 0 0 0 0 0 0 0 0 0 0 0 0 0 0 0 0 0 0 0 
0 0 0 0 0 0 0 0 0 0 0 0 0 0 0 0 0 0 0 0 0 0 0 0 255 255 255 84 82 82 87 87 87 
69 69 69 15 15 15 0 0 0 0 0 0 0 0 0 0 0 0 0 0 0 0 0 0 64 64 64 0 0 0 0 0 0 
0 0 0 0 0 0 77 77 77 49 47 47 0 0 0 0 0 0 0 0 0 0 0 0 0 0 0 0 0 0 0 0 0 0 0 0 
0 0 0 0 0 0 0 0 0 0 0 0 0 0 0 0 0 0 0 0 0 0 0 0 0 0 0 0 0 0 0 0 0 0 0 0 0 0 0 
0 0 0 0 0 0 0 0 0 0 0 0 0 0 0 0 0 0 0 0 0 0 0 0 0 0 0 0 0 0 0 0 0 0 0 0 0 0 0 
0 0 0 0 0 0 0 0 0 0 0 0 0 0 0 0 0 0 0 0 0 0 0 0 0 0 0 0 0 0 0 0 0 255 255 255 
99 97 97 122 122 122 22 22 22 60 60 60 77 77 77 74 74 74 61 61 61 56 56 56 
55 55 55 63 63 63 72 72 72 75 75 75 76 76 76 76 76 76 78 78 78 107 107 107 
63 63 63 0 0 0 0 0 0 47 26 26 0 0 0 0 0 0 0 0 0 0 0 0 0 0 0 0 0 0 0 0 0 0 0 0 
0 0 0 0 0 0 0 0 0 0 0 0 0 0 0 0 0 0 0 0 0 0 0 0 0 0 0 0 0 0 0 0 0 0 0 0 0 0 0 
0 0 0 0 0 0 0 0 0 0 0 0 0 0 0 0 0 0 0 0 0 0 0 0 0 0 0 0 0 0 0 0 0 0 0 0 0 0 0 
0 0 0 0 0 0 0 0 0 0 0 0 0 0 0 0 0 0 0 0 0 0 0 0 255 255 255 70 69 69 66 66 66 
98 98 98 108 108 108 55 55 55 6 6 6 52 52 52 80 80 80 94 94 94 68 68 68 
63 63 63 67 67 67 61 61 61 32 32 32 32 32 32 8 8 8 61 61 61 77 77 77 56 53 53 
74 73 73 24 23 23 0 0 0 0 0 0 0 0 0 0 0 0 0 0 0 0 0 0 0 0 0 0 0 0 0 0 0 0 0 0 
0 0 0 0 0 0 0 0 0 0 0 0 0 0 0 0 0 0 0 0 0 0 0 0 0 0 0 0 0 0 0 0 0 0 0 0 0 0 0 
0 0 0 0 0 0 0 0 0 0 0 0 0 0 0 0 0 0 0 0 0 0 0 0 0 0 0 0 0 0 0 0 0 0 0 0 0 0 0 
0 0 0 0 0 0 0 0 0 0 0 0 0 0 0 255 255 255 73 72 72 57 57 57 70 70 70 88 88 88 
117 117 117 69 69 69 65 65 65 49 49 49 16 16 16 77 77 77 47 47 47 0 0 0 56 56 56 
86 86 86 50 50 50 64 64 64 64 64 64 0 0 0 14 14 14 130 130 130 109 109 109 
11 11 11 77 77 77 0 0 0 0 0 0 0 0 0 0 0 0 0 0 0 0 0 0 0 0 0 0 0 0 0 0 0 0 0 0 
0 0 0 0 0 0 0 0 0 0 0 0 0 0 0 0 0 0 0 0 0 0 0 0 0 0 0 0 0 0 0 0 0 0 0 0 0 0 0 
0 0 0 0 0 0 0 0 0 0 0 0 0 0 0 0 0 0 0 0 0 0 0 0 0 0 0 0 0 0 0 0 0 0 0 0 0 0 0 
0 0 0 0 0 0 0 0 0 0 0 0 64 63 63 116 116 116 26 26 26 8 4 4 0 0 0 48 48 48 
28 28 28 130 130 130 90 90 90 0 0 0 17 17 17 73 73 73 116 116 116 86 86 86 
26 26 26 109 109 109 129 129 129 30 30 30 0 0 0 77 77 77 50 50 50 55 55 55 
18 17 17 38 38 38 88 88 88 91 85 85 0 0 0 0 0 0 0 0 0 0 0 0 0 0 0 0 0 0 0 0 0 
0 0 0 0 0 0 0 0 0 0 0 0 0 0 0 0 0 0 0 0 0 0 0 0 0 0 0 0 0 0 0 0 0 0 0 0 0 0 0 
0 0 0 0 0 0 0 0 0 0 0 0 0 0 0 0 0 0 0 0 0 0 0 0 0 0 0 0 0 0 0 0 0 0 0 0 0 0 0 
0 0 0 0 0 0 108 88 88 80 79 79 180 180 180 162 162 162 120 120 120 123 123 123 
0 0 0 0 0 0 0 0 0 74 74 74 63 63 63 60 60 60 0 0 0 48 48 48 75 75 75 105 105 105 
68 68 68 33 33 33 73 73 73 48 48 48 58 58 58 50 50 50 45 45 45 0 0 0 0 0 0 
0 0 0 77 77 77 120 120 120 132 132 132 72 71 71 0 0 0 0 0 0 0 0 0 0 0 0 0 0 0 
0 0 0 0 0 0 0 0 0 0 0 0 0 0 0 0 0 0 0 0 0 0 0 0 0 0 0 0 0 0 0 0 0 0 0 0 0 0 0 
0 0 0 0 0 0 0 0 0 0 0 0 0 0 0 0 0 0 0 0 0 0 0 0 0 0 0 0 0 0 0 0 0 0 0 0 0 0 0 
0 0 0 0 0 0 105 94 94 91 90 90 79 79 79 130 130 130 131 131 131 79 79 79 
129 129 129 123 123 123 101 101 101 58 58 58 13 13 13 0 0 0 0 0 0 40 40 40 
72 72 72 39 39 39 0 0 0 0 0 0 0 0 0 0 0 0 0 0 0 50 50 50 62 62 62 67 67 67 
73 73 73 78 78 78 76 76 76 91 91 91 79 79 79 79 79 79 121 121 121 80 66 66 
0 0 0 0 0 0 0 0 0 0 0 0 0 0 0 0 0 0 0 0 0 0 0 0 0 0 0 0 0 0 0 0 0 0 0 0 0 0 0 
0 0 0 0 0 0 0 0 0 0 0 0 0 0 0 0 0 0 0 0 0 0 0 0 0 0 0 0 0 0 0 0 0 0 0 0 0 0 0 
0 0 0 0 0 0 0 0 0 0 0 0 0 0 0 142 131 131 102 101 101 125 125 125 45 45 45 
48 48 48 131 131 131 125 125 125 79 79 79 87 87 87 114 114 114 115 115 115 
115 115 115 97 97 97 81 81 81 77 77 77 91 91 91 91 91 91 119 119 119 
122 122 122 73 73 73 73 73 73 73 73 73 68 68 68 86 86 86 95 95 95 93 93 93 
68 68 68 58 58 58 78 78 78 79 79 79 79 79 79 83 83 83 81 80 80 0 0 0 0 0 0 
0 0 0 0 0 0 0 0 0 0 0 0 0 0 0 0 0 0 0 0 0 0 0 0 0 0 0 0 0 0 0 0 0 0 0 0 0 0 0 
0 0 0 0 0 0 0 0 0 0 0 0 0 0 0 0 0 0 0 0 0 0 0 0 0 0 0 0 0 0 0 0 0 0 0 0 0 0 0 
0 0 0 0 0 0 0 0 0 136 135 135 80 79 79 79 79 79 80 80 80 22 21 21 30 30 30 
111 111 111 79 79 79 79 79 79 78 78 78 79 79 79 79 79 79 79 79 79 79 79 79 
78 78 78 79 79 79 75 75 75 79 79 79 79 79 79 79 79 79 64 64 64 78 78 78 
77 77 77 79 79 79 79 79 79 79 79 79 79 79 79 79 79 79 79 79 79 41 41 41 
3 2 2 81 80 80 117 115 115 0 0 0 0 0 0 0 0 0 0 0 0 0 0 0 0 0 0 0 0 0 0 0 0 
0 0 0 0 0 0 0 0 0 0 0 0 0 0 0 0 0 0 0 0 0 0 0 0 0 0 0 0 0 0 0 0 0 0 0 0 0 0 0 
0 0 0 0 0 0 0 0 0 0 0 0 0 0 0 0 0 0 0 0 0 0 0 0 0 0 0 0 0 0 125 124 124 
121 121 121 79 79 79 79 79 79 63 63 63 0 0 0 0 0 0 72 72 72 78 78 78 78 78 78 
79 79 79 79 79 79 79 79 79 79 79 79 79 79 79 79 79 79 79 79 79 79 79 79 
79 79 79 76 76 76 79 79 79 79 79 79 79 79 79 77 77 77 77 77 77 74 74 74 
73 73 73 21 21 21 1 0 0 0 0 0 38 38 38 79 79 79 66 65 65 200 170 170 
211 171 171 0 0 0 0 0 0 0 0 0 0 0 0 0 0 0 0 0 0 0 0 0 0 0 0 0 0 0 0 0 0 0 0 0 
0 0 0 0 0 0 0 0 0 0 0 0 0 0 0 0 0 0 0 0 0 0 0 0 0 0 0 0 0 0 0 0 0 0 0 0 0 0 0 
0 0 0 0 0 0 0 0 0 0 0 0 0 0 0 171 156 156 171 170 170 79 79 79 79 79 79 
78 78 78 79 79 79 78 78 78 7 7 7 0 0 0 0 0 0 0 0 0 0 0 0 33 33 33 47 47 47 
46 46 46 59 59 59 72 72 72 74 74 74 79 79 79 73 73 73 77 77 77 54 54 54 
45 45 45 0 0 0 0 0 0 0 0 0 0 0 0 0 0 0 0 0 0 2 1 1 79 79 79 79 79 79 87 87 87 
216 179 179 203 153 153 0 0 0 0 0 0 0 0 0 0 0 0 0 0 0 0 0 0 0 0 0 0 0 0 0 0 0 
0 0 0 0 0 0 0 0 0 0 0 0 0 0 0 0 0 0 0 0 0 0 0 0 0 0 0 0 0 0 0 0 0 0 0 0 0 0 0 
0 0 0 0 0 0 0 0 0 0 0 0 0 0 0 0 0 0 0 0 0 207 162 162 178 163 163 125 125 125 
140 136 136 98 95 95 79 79 79 79 79 79 76 76 76 63 63 63 0 0 0 0 0 0 0 0 0 
0 0 0 0 0 0 0 0 0 0 0 0 0 0 0 0 0 0 0 0 0 0 0 0 0 0 0 0 0 0 0 0 0 0 0 0 0 0 0 
0 0 0 0 0 0 0 0 0 0 0 0 29 29 29 82 80 80 86 85 85 165 151 151 216 179 179 
0 0 0 0 0 0 0 0 0 0 0 0 0 0 0 0 0 0 0 0 0 0 0 0 0 0 0 0 0 0 0 0 0 0 0 0 0 0 0 
0 0 0 0 0 0 0 0 0 0 0 0 0 0 0 0 0 0 0 0 0 0 0 0 0 0 0 0 0 0 0 0 0 0 0 0 0 0 0 
0 0 0 0 0 0 0 0 0 0 0 0 0 0 0 203 153 153 207 174 174 124 118 118 79 79 79 
73 73 73 79 79 79 79 79 79 79 79 79 74 74 74 71 71 71 30 30 30 0 0 0 0 0 0 
0 0 0 0 0 0 0 0 0 0 0 0 0 0 0 0 0 0 0 0 0 22 22 22 23 23 23 0 0 0 0 0 0 28 28 28 
29 29 29 72 72 72 73 73 73 78 78 78 84 84 84 181 155 155 216 180 180 
210 168 168 0 0 0 0 0 0 0 0 0 0 0 0 0 0 0 0 0 0 0 0 0 0 0 0 0 0 0 0 0 0 0 0 0 
0 0 0 0 0 0 0 0 0 0 0 0 0 0 0 0 0 0 0 0 0 0 0 0 0 0 0 0 0 0 0 0 0 0 0 0 0 0 0 
0 0 0 0 0 0 0 0 0 0 0 0 0 0 0 0 0 0 0 0 0 0 0 0 0 0 0 213 173 173 134 130 130 
79 79 79 75 75 75 60 60 60 77 77 77 78 78 78 79 79 79 79 79 79 71 71 71 
68 68 68 79 79 79 77 77 77 73 73 73 79 79 79 68 68 68 33 33 33 79 79 79 
78 78 78 74 74 74 78 78 78 64 64 64 79 79 79 78 78 78 64 64 64 59 59 59 
33 33 33 177 158 158 217 180 180 202 153 153 0 0 0 0 0 0 0 0 0 0 0 0 0 0 0 
0 0 0 0 0 0 0 0 0 0 0 0 0 0 0 0 0 0 0 0 0 0 0 0 0 0 0 0 0 0 0 0 0 0 0 0 0 0 0 
0 0 0 0 0 0 0 0 0 0 0 0 0 0 0 0 0 0 0 0 0 0 0 0 0 0 0 0 0 0 0 0 0 0 0 0 0 0 0 
0 0 0 0 0 0 0 0 0 0 0 0 206 160 160 216 179 179 173 147 147 77 77 77 17 17 17 
41 41 41 75 75 75 79 79 79 77 77 77 74 74 74 79 79 79 79 79 79 78 78 78 
78 78 78 79 79 79 75 75 75 79 79 79 69 69 69 78 78 78 70 70 70 72 72 72 
25 25 25 66 66 66 31 31 31 113 103 103 215 178 178 216 179 179 203 154 154 
0 0 0 0 0 0 0 0 0 0 0 0 0 0 0 0 0 0 0 0 0 0 0 0 0 0 0 0 0 0 0 0 0 0 0 0 0 0 0 
0 0 0 0 0 0 0 0 0 0 0 0 0 0 0 0 0 0 0 0 0 0 0 0 0 0 0 0 0 0 0 0 0 0 0 0 0 0 0 
0 0 0 0 0 0 0 0 0 0 0 0 0 0 0 0 0 0 0 0 0 0 0 0 0 0 0 0 0 0 0 0 0 212 171 171 
216 179 179 216 179 179 216 183 183 142 138 138 134 134 134 132 132 132 
121 121 121 128 128 128 92 92 92 16 16 16 18 18 18 31 31 31 19 19 19 0 0 0 
16 16 16 15 15 15 78 78 78 75 75 75 79 79 79 114 114 114 122 122 122 
216 180 180 216 179 179 214 176 176 200 149 149 0 0 0 0 0 0 0 0 0 0 0 0 0 0 0 
0 0 0 0 0 0 0 0 0 0 0 0 0 0 0 0 0 0 0 0 0 0 0 0 0 0 0 0 0 0 0 0 0 0 0 0 0 0 0 
0 0 0 0 0 0 0 0 0 0 0 0 0 0 0 0 0 0 0 0 0 0 0 0 0 0 0 0 0 0 0 0 0 0 0 0 0 0 0 
0 0 0 0 0 0 0 0 0 0 0 0 0 0 0 0 0 0 0 0 0 0 0 0 0 0 0 0 0 0 205 157 157 
208 163 163 253 253 253 247 247 247 245 245 245 203 203 203 134 134 134 
134 134 134 133 133 133 129 129 129 143 130 130 90 83 83 77 77 77 171 171 171 
227 227 227 238 238 238 246 246 246 209 167 167 0 0 0 0 0 0 0 0 0 0 0 0 0 0 0 
0 0 0 0 0 0 0 0 0 0 0 0 0 0 0 0 0 0 0 0 0 0 0 0 0 0 0 0 0 0 0 0 0 0 0 0 0 0 0 
0 0 0 0 0 0 0 0 0 0 0 0 0 0 0 0 0 0 0 0 0 0 0 0 0 0 0 0 0 0 0 0 0 0 0 0 0 0 0 
0 0 0 0 0 0 0 0 0 0 0 0 0 0 0 0 0 0 0 0 0 0 0 0 0 0 0 0 0 0 0 0 0 0 0 0 0 0 0 
0 0 0 0 0 0 0 0 0 0 0 0 214 214 214 255 255 255 248 248 248 243 243 243 
250 250 250 0 0 0 208 165 165 213 174 174 211 171 171 209 165 165 253 253 253 
248 248 248 245 245 245 252 252 252 218 183 183 0 0 0 0 0 0 0 0 0 0 0 0 0 0 0 
0 0 0 0 0 0 0 0 0 0 0 0 0 0 0 0 0 0 0 0 0 0 0 0 0 0 0 0 0 0 0 0 0 0 0 0 0 0 0 
0 0 0 0 0 0 0 0 0 0 0 0 0 0 0 0 0 0 0 0 0 0 0 0 0 0 0 0 0 0 0 0 0 0 0 0 0 0 0 
0 0 0 0 0 0 0 0 0 0 0 0 0 0 0 0 0 0 0 0 0 0 0 0 0 0 0 0 0 0 0 0 0 0 0 0 0 0 0 
0 0 0 0 0 0 0 0 0 0 0 0 0 0 0 255 255 255 255 255 255 255 255 255 254 254 254 
0 0 0 0 0 0 0 0 0 0 0 0 0 0 0 0 0 0 222 194 194 255 255 255 255 255 255 
255 255 255 223 193 193 0 0 0 0 0 0 0 0 0 0 0 0 0 0 0 0 0 0 0 0 0 0 0 0 0 0 0 
0 0 0 0 0 0 0 0 0 0 0 0 0 0 0 0 0 0 0 0 0 0 0 0 0 0 0 0 0 0 0 0 0 0 0 0 0 0 0 
0 0 0 0 0 0 0 0 0 0 0 0 0 0 0 0 0 0 0 0 0 0 0 0 0 0 0 0 0 0 0 0 0 0 0 0 0 0 0 
0 0 0 0 0 0 0 0 0 0 0 0 0 0 0 0 0 0 0 0 0 0 0 0 0 0 0 0 0 0 0 0 0 0 0 0 0 0 0 
0 0 0 249 249 249 255 255 255 255 255 255 251 251 251 0 0 0 0 0 0 0 0 0 0 0 0 
0 0 0 0 0 0 0 0 0 254 254 254 254 254 254 233 233 233 217 217 217 0 0 0 0 0 0 
0 0 0 0 0 0 0 0 0 0 0 0 0 0 0 0 0 0 0 0 0 0 0 0 0 0 0 0 0 0 0 0 0 0 0 0 0 0 0 
0 0 0 0 0 0 0 0 0 0 0 0 0 0 0 0 0 0 0 0 0 0 0 0 0 0 0 0 0 0 0 0 0 0 0 0 0 0 0 
0 0 0 0 0 0 0 0 0 0 0 0 0 0 0 0 0 0 0 0 0 0 0 0 0 0 0 0 0 0 0 0 0 0 0 0 0 0 0 
0 0 0 0 0 0 0 0 0 0 0 0 0 0 0 0 0 0 0 0 0 0 0 0 251 251 251 254 254 254 
239 239 239 229 229 229 0 0 0 0 0 0 0 0 0 0 0 0 0 0 0 0 0 0 0 0 0 240 240 240 
255 255 255 250 250 250 226 226 226 0 0 0 0 0 0 0 0 0 0 0 0 0 0 0 0 0 0 0 0 0 
0 0 0 0 0 0 0 0 0 0 0 0 0 0 0 0 0 0 0 0 0 0 0 0 0 0 0 0 0 0 0 0 0 0 0 0 0 0 0 
0 0 0 0 0 0 0 0 0 0 0 0 0 0 0 0 0 0 0 0 0 0 0 0 0 0 0 0 0 0 0 0 0 0 0 0 0 0 0 
0 0 0 0 0 0 0 0 0 0 0 0 0 0 0 0 0 0 0 0 0 0 0 0 0 0 0 0 0 0 0 0 0 0 0 0 0 0 0 
0 0 0 0 0 0 0 0 0 255 255 255 255 255 255 235 235 235 251 251 251 0 0 0 0 0 0 
0 0 0 0 0 0 0 0 0 0 0 0 0 0 0 243 243 243 254 254 254 255 255 255 244 244 244 
0 0 0 0 0 0 0 0 0 0 0 0 0 0 0 0 0 0 0 0 0 0 0 0 0 0 0 0 0 0 0 0 0 0 0 0 0 0 0 
0 0 0 0 0 0 0 0 0 0 0 0 0 0 0 0 0 0 0 0 0 0 0 0 0 0 0 0 0 0 0 0 0 0 0 0 0 0 0 
0 0 0 0 0 0 0 0 0 0 0 0 0 0 0 0 0 0 0 0 0 0 0 0 0 0 0 0 0 0 0 0 0 0 0 0 0 0 0 
0 0 0 0 0 0 0 0 0 0 0 0 0 0 0 0 0 0 0 0 0 0 0 0 0 0 0 0 0 0 246 246 246 
255 255 255 253 253 253 232 212 212 0 0 0 0 0 0 0 0 0 0 0 0 0 0 0 0 0 0 0 0 0 
227 202 202 250 250 250 254 254 254 236 236 236 0 0 0 0 0 0 0 0 0 0 0 0 0 0 0 
0 0 0 0 0 0 0 0 0 0 0 0 0 0 0 0 0 0 0 0 0 0 0 0 0 0 0 0 0 0 0 0 0 0 0 0 0 0 0 
0 0 0 0 0 0 0 0 0 0 0 0 0 0 0 0 0 0 0 0 0 0 0 0 0 0 0 0 0 0 0 0 0 0 0 0 0 0 0 
0 0 0 0 0 0 0 0 0 0 0 0 0 0 0 0 0 0 0 0 0 0 0 0 0 0 0 0 0 0 0 0 0 0 0 0 0 0 0 
0 0 0 0 0 0 0 0 0 0 0 0 0 0 0 251 251 251 253 253 253 254 254 254 0 0 0 0 0 0 
0 0 0 0 0 0 0 0 0 0 0 0 0 0 0 0 0 0 0 0 0 255 255 255 245 245 245 231 231 231 
0 0 0 0 0 0 0 0 0 0 0 0 0 0 0 0 0 0 0 0 0 0 0 0 0 0 0 0 0 0 0 0 0 0 0 0 0 0 0 
0 0 0 0 0 0 0 0 0 0 0 0 0 0 0 0 0 0 0 0 0 0 0 0 0 0 0 0 0 0 0 0 0 0 0 0 0 0 0 
0 0 0 0 0 0 0 0 0 0 0 0 0 0 0 0 0 0 0 0 0 0 0 0 0 0 0 0 0 0 0 0 0 0 0 0 0 0 0 
0 0 0 0 0 0 0 0 0 0 0 0 0 0 0 0 0 0 0 0 0 0 0 0 0 0 0 253 253 253 247 247 247 
0 0 0 191 191 191 0 0 0 0 0 0 0 0 0 0 0 0 0 0 0 0 0 0 0 0 0 0 0 0 0 0 0 254 254 254 
254 254 254 206 206 206 249 249 249 0 0 0 0 0 0 0 0 0 0 0 0 0 0 0 0 0 0 0 0 0 
0 0 0 0 0 0 0 0 0 0 0 0 0 0 0 0 0 0 0 0 0 0 0 0 0 0 0 0 0 0 0 0 0 0 0 0 0 0 0 
0 0 0 0 0 0 0 0 0 0 0 0 0 0 0 0 0 0 0 0 0 0 0 0 0 0 0 0 0 0 0 0 0 0 0 0 0 0 0 
0 0 0 0 0 0 0 0 0 0 0 0 0 0 0 0 0 0 0 0 0 0 0 0 0 0 0 0 0 0 0 0 0 0 0 0 0 0 0 
255 255 255 129 129 129 82 82 82 0 0 0 0 0 0 0 0 0 0 0 0 0 0 0 0 0 0 0 0 0 
0 0 0 0 0 0 0 0 0 0 0 0 195 195 195 0 0 0 0 0 0 120 120 120 0 0 0 0 0 0 0 0 0 
0 0 0 0 0 0 0 0 0 0 0 0 0 0 0 0 0 0 0 0 0 0 0 0 0 0 0 0 0 0 0 0 0 0 0 0 0 0 0 
0 0 0 0 0 0 0 0 0 0 0 0 0 0 0 0 0 0 0 0 0 0 0 0 0 0 0 0 0 0 0 0 0 0 0 0 0 0 0 
0 0 0 0 0 0 0 0 0 0 0 0 0 0 0 0 0 0 0 0 0 0 0 0 0 0 0 0 0 0 0 0 0 0 0 0 0 0 0 
0 0 0 0 0 0 255 255 255 255 255 255 124 124 124 89 89 89 13 13 13 0 0 0 0 0 0 
0 0 0 0 0 0 0 0 0 0 0 0 0 0 0 0 0 0 0 0 0 0 0 0 0 0 0 61 61 61 54 54 54 
0 0 0 0 0 0 0 0 0 0 0 0 0 0 0 0 0 0 0 0 0 0 0 0 0 0 0 0 0 0 0 0 0 0 0 0 0 0 0 
0 0 0 0 0 0 0 0 0 0 0 0 0 0 0 0 0 0 0 0 0 0 0 0 0 0 0 0 0 0 0 0 0 0 0 0 0 0 0 
0 0 0 0 0 0 0 0 0 0 0 0 0 0 0 0 0 0 0 0 0 0 0 0 0 0 0 0 0 0 0 0 0 0 0 0 0 0 0 
0 0 0 0 0 0 0 0 0 0 0 0 0 0 0 0 0 0 255 255 255 131 99 99 110 110 110 
90 90 90 7 7 7 0 0 0 0 0 0 0 0 0 0 0 0 0 0 0 0 0 0 0 0 0 0 0 0 0 0 0 0 0 0 
0 0 0 255 255 255 61 61 61 54 54 54 14 14 14 20 20 20 0 0 0 0 0 0 0 0 0 0 0 0 
0 0 0 0 0 0 0 0 0 0 0 0 0 0 0 0 0 0 0 0 0 0 0 0 0 0 0 0 0 0 0 0 0 0 0 0 0 0 0 
0 0 0 0 0 0 0 0 0 0 0 0 0 0 0 0 0 0 0 0 0 0 0 0 0 0 0 0 0 0 0 0 0 0 0 0 0 0 0 
0 0 0 0 0 0 0 0 0 0 0 0 0 0 0 0 0 0 0 0 0 0 0 0 0 0 0 0 0 0 0 0 0 0 0 0 255 255 255 
76 76 76 104 104 104 90 90 90 7 7 7 0 0 0 0 0 0 0 0 0 0 0 0 0 0 0 0 0 0 0 0 0 
0 0 0 0 0 0 0 0 0 0 0 0 0 0 0 255 255 255 60 60 60 61 61 61 61 61 61 61 61 61 
0 0 0 0 0 0 0 0 0 0 0 0 0 0 0 0 0 0 0 0 0 0 0 0 0 0 0 0 0 0 0 0 0 0 0 0 0 0 0 
0 0 0 0 0 0 0 0 0 0 0 0 0 0 0 0 0 0 0 0 0 0 0 0 0 0 0 0 0 0 0 0 0 0 0 0 0 0 0 
