P3
64 64
255
113 107 44 121 114 45 138 129 47 148 138 48 149 140 49 140 132 48 121 114 45 
117 110 44 126 118 46 127 120 47 120 113 46 115 109 45 113 107 44 117 111 44 
129 121 45 136 127 47 138 130 48 137 129 48 134 126 47 129 121 46 123 116 45 
118 111 45 114 108 44 120 114 45 135 129 48 135 128 48 119 111 45 118 110 44 
133 125 46 141 133 47 142 134 47 144 135 47 145 136 47 147 137 47 150 139 47 
147 137 47 138 131 47 133 127 47 131 124 46 132 125 46 137 129 47 132 124 46 
117 111 44 116 110 44 129 121 46 136 128 48 139 131 48 133 126 47 119 113 45 
112 106 44 112 106 44 115 109 44 122 115 45 122 115 45 115 109 44 113 107 44 
114 108 44 114 108 44 114 108 44 114 108 44 114 109 44 115 109 44 114 108 44 
114 108 44 120 113 44 127 119 45 141 132 48 149 139 49 149 140 50 140 133 48 
124 117 45 120 113 45 128 120 46 128 120 47 120 114 45 115 109 44 113 108 44 
118 112 44 129 121 45 136 127 47 138 130 48 137 128 48 131 123 46 127 120 46 
125 117 45 122 114 45 118 112 44 122 116 45 134 127 47 133 126 47 121 113 45 
120 112 44 133 124 46 138 130 47 136 129 46 136 128 46 137 128 46 139 129 46 
141 131 46 140 131 47 136 129 47 133 126 47 132 124 46 133 126 46 139 131 47 
136 128 47 123 116 45 122 115 45 131 124 46 137 128 47 137 129 48 131 123 47 
118 112 45 113 107 44 116 110 45 121 114 45 126 119 45 125 118 45 118 112 44 
114 108 44 114 108 44 114 108 44 114 108 44 115 109 44 115 109 44 115 109 44 
114 108 44 114 108 44 134 125 46 138 130 47 148 139 50 151 142 51 149 140 50 
142 134 49 131 124 47 127 120 46 131 124 46 129 122 46 120 114 44 115 110 44 
115 109 44 119 113 45 129 122 46 136 127 46 138 129 47 135 126 47 126 118 46 
123 116 45 129 120 46 130 121 46 127 120 46 128 120 46 131 123 46 130 122 45 
124 116 44 124 117 44 132 123 45 132 123 45 124 116 44 119 112 43 119 111 43 
120 112 43 122 114 44 126 119 45 132 124 46 134 126 46 133 124 46 136 127 47 
144 135 48 144 136 48 137 129 47 134 127 46 137 129 47 137 128 47 132 124 47 
126 118 46 116 110 44 117 110 44 127 119 47 133 124 47 135 127 47 132 124 46 
124 116 45 118 111 44 114 108 45 113 108 45 115 109 45 116 110 45 117 111 45 
116 111 44 114 108 44 113 107 44 142 133 47 145 136 48 151 142 50 152 143 51 
147 138 50 139 132 49 130 123 47 126 119 45 127 121 45 126 119 45 122 116 44 
120 114 44 120 114 45 124 117 45 130 123 46 134 126 46 136 127 47 133 125 46 
126 118 45 126 118 45 133 124 46 136 127 46 134 125 46 131 122 46 128 120 45 
126 118 44 124 118 44 125 118 44 128 119 44 124 116 44 115 108 42 110 103 41 
108 101 41 109 102 42 113 107 43 120 113 44 129 121 45 132 124 46 131 122 45 
135 126 46 143 134 47 145 136 48 141 133 47 140 132 47 141 132 47 138 129 47 
132 123 46 124 117 45 117 110 44 119 113 45 132 124 47 138 129 48 138 130 47 
136 128 47 131 122 46 127 119 46 123 116 46 122 115 46 125 117 46 126 118 46 
127 120 46 124 118 45 119 112 45 116 110 44 145 135 47 147 137 48 151 142 50 
149 141 51 143 134 49 133 126 48 122 115 45 116 110 44 116 110 44 119 113 44 
126 119 45 130 122 46 130 122 46 131 122 46 132 124 46 132 124 46 131 123 46 
131 123 46 132 123 45 135 125 45 139 129 46 140 130 46 137 127 46 132 123 45 
124 116 44 121 114 43 123 116 43 123 116 43 120 113 43 115 109 42 110 105 42 
106 101 41 104 97 40 106 100 41 114 108 42 120 114 44 126 118 44 128 120 44 
127 118 44 129 121 44 135 127 45 137 129 46 136 128 46 138 130 47 142 134 47 
141 132 47 134 125 47 127 118 46 119 112 45 121 114 45 132 124 47 136 129 48 
135 127 47 136 127 47 139 130 47 140 131 47 140 130 47 140 131 47 142 133 47 
144 134 47 144 135 48 139 130 47 129 121 46 124 116 46 140 130 46 140 131 47 
142 134 48 141 133 49 137 129 48 130 122 47 118 112 45 114 108 44 116 110 44 
122 115 45 132 124 46 137 128 47 137 128 47 137 127 46 135 126 46 131 123 46 
124 117 44 123 116 44 128 120 44 133 123 44 136 126 45 137 127 45 136 126 45 
131 122 44 124 116 43 121 114 43 123 116 43 122 115 42 118 111 42 114 108 41 
111 105 41 108 103 41 108 101 40 111 104 41 119 113 43 125 118 44 128 120 44 
127 119 44 121 113 42 121 114 42 127 119 44 131 123 45 134 125 45 136 128 46 
139 130 46 137 128 46 130 121 46 124 115 45 118 111 45 122 115 46 135 128 48 
140 133 49 138 130 48 139 130 48 143 133 48 146 136 48 148 138 48 150 140 49 
151 141 48 151 140 48 147 137 48 140 131 47 130 121 46 125 117 46 127 119 45 
126 118 45 124 116 45 125 118 45 129 122 46 128 121 45 120 114 45 120 113 45 
128 120 46 134 126 47 139 131 47 142 133 48 142 133 48 141 132 47 141 131 47 
133 124 45 116 109 43 111 105 42 115 109 42 120 113 42 124 116 43 127 118 43 
129 120 43 129 120 43 128 119 43 126 117 42 124 115 41 123 114 41 122 114 41 
119 112 40 116 109 40 116 109 40 118 110 41 123 115 42 130 122 44 134 126 45 
135 126 45 128 120 43 113 107 41 110 104 40 118 112 42 126 118 43 133 124 44 
134 125 44 130 121 44 125 116 44 118 111 44 114 108 44 113 107 44 122 115 45 
141 134 49 150 142 50 147 140 50 145 137 49 143 133 48 144 134 48 148 138 49 
151 141 50 152 142 49 147 137 48 136 127 47 128 120 46 122 115 45 119 113 45 
121 114 45 119 112 44 114 107 44 115 109 44 122 116 44 125 118 45 123 116 45 
126 118 46 134 126 47 140 131 48 143 134 48 145 136 48 146 137 49 144 134 48 
138 128 46 127 118 44 109 103 41 104 98 40 112 106 41 115 109 41 115 108 41 
116 108 41 118 110 41 120 112 41 123 114 41 121 113 41 116 107 39 116 107 39 
120 112 39 121 113 39 117 110 39 118 110 39 122 114 40 126 117 41 130 121 42 
131 123 43 130 122 43 122 115 42 106 101 39 102 98 38 111 105 40 120 113 41 
129 120 42 129 120 42 122 114 42 116 109 42 111 105 42 110 104 43 113 107 43 
124 118 45 143 135 49 151 143 50 149 141 50 146 138 49 143 134 47 144 135 48 
150 141 50 154 144 51 155 145 50 149 139 49 135 127 47 126 118 46 120 113 45 
117 111 45 122 115 45 119 112 44 113 107 44 112 106 43 116 110 44 120 114 44 
125 119 45 131 123 46 136 128 47 140 131 48 144 134 48 147 137 49 150 140 49 
143 134 47 127 118 44 114 106 41 103 96 40 104 98 40 117 109 41 119 111 41 
109 102 39 104 98 38 102 97 38 104 98 38 109 101 38 106 99 38 98 91 36 
100 94 36 114 107 37 119 111 38 115 107 38 115 107 38 119 111 38 120 112 39 
118 110 39 116 109 40 115 108 40 110 104 39 99 94 37 98 93 37 107 100 38 
114 107 40 121 113 41 122 114 41 115 108 41 111 104 41 108 102 41 112 105 42 
120 113 43 130 122 45 141 133 47 145 137 48 143 135 48 142 134 48 143 135 48 
147 139 49 154 146 51 158 149 51 159 149 51 155 145 50 144 136 48 134 127 47 
125 117 46 120 113 46 130 122 46 127 120 46 123 116 45 121 114 45 121 115 45 
124 118 45 130 123 46 132 125 47 132 124 46 133 125 47 136 127 47 139 129 47 
141 132 47 134 125 45 117 109 41 105 98 39 99 93 39 103 97 39 117 109 40 
119 110 40 108 101 38 100 95 37 96 91 37 95 90 36 98 92 36 96 90 36 88 83 35 
91 86 35 106 99 36 113 106 36 112 105 37 114 106 37 117 109 38 115 107 38 
108 101 37 104 97 37 103 97 37 100 95 37 97 91 36 98 93 36 105 99 37 111 104 38 
117 110 40 116 109 41 108 102 40 105 99 39 107 101 40 114 107 41 126 118 43 
133 125 45 134 127 46 135 128 46 135 128 47 136 129 47 139 131 47 143 135 48 
148 140 50 152 143 50 155 145 50 154 144 50 148 139 49 140 132 48 131 123 47 
127 118 46 143 135 48 144 135 48 144 136 49 142 134 49 139 131 48 137 129 47 
135 128 48 130 124 47 123 115 45 119 112 44 120 113 44 120 113 44 119 112 43 
115 108 42 107 100 39 101 95 38 98 93 38 102 96 38 111 104 39 114 106 39 
111 104 38 106 99 37 97 92 36 92 88 35 91 87 35 89 85 34 86 82 34 89 84 34 
97 91 34 103 97 35 109 103 37 113 106 37 115 108 38 111 104 37 100 95 36 
94 89 35 93 88 35 94 88 35 98 91 35 102 95 36 106 100 37 111 104 38 116 109 40 
113 106 40 101 96 38 99 94 38 106 100 39 117 110 41 131 123 43 134 126 44 
125 118 44 122 116 44 127 120 46 129 121 47 129 121 46 130 122 46 131 124 47 
136 128 47 143 133 47 146 137 47 145 137 49 143 135 49 139 130 48 137 128 48 
153 144 50 153 144 50 154 145 50 152 142 50 147 138 49 143 134 48 141 133 49 
133 126 48 119 113 45 113 106 43 113 107 43 111 105 42 108 101 41 104 98 39 
100 94 38 98 93 37 98 93 38 101 96 38 108 101 38 111 104 38 110 103 38 
106 99 37 97 92 35 91 87 34 88 84 34 86 82 33 84 81 33 86 82 33 90 85 33 
97 91 34 105 99 36 109 103 37 108 103 36 103 98 36 93 88 35 88 83 34 88 83 33 
90 85 33 95 88 34 100 93 35 105 99 36 111 105 38 117 110 40 112 106 39 
98 93 37 96 90 37 105 99 38 115 108 40 127 119 42 127 120 43 117 111 42 
114 108 43 120 113 45 125 117 46 129 120 46 129 121 46 126 118 46 129 121 46 
137 128 46 142 133 47 144 135 48 144 136 49 143 135 48 143 134 48 158 149 52 
157 147 51 153 143 50 149 139 49 145 135 48 144 135 48 146 137 49 139 131 48 
122 116 45 114 109 43 115 108 43 113 105 42 106 100 40 101 96 39 97 92 37 
96 91 37 98 92 37 102 96 37 108 101 37 109 102 37 105 99 37 101 95 36 
95 90 34 91 86 33 89 84 33 86 81 33 82 79 32 83 79 31 87 82 32 93 87 33 
101 94 34 102 96 35 97 92 34 92 87 34 87 82 33 85 80 32 87 83 32 88 83 32 
87 82 32 92 86 33 102 96 35 111 105 37 119 112 39 114 107 39 98 92 36 94 88 36 
103 97 37 109 103 39 113 107 41 114 107 41 110 104 41 111 105 42 116 109 43 
124 117 45 137 128 46 140 130 47 132 123 46 132 123 46 138 130 47 142 134 47 
143 135 48 144 136 48 144 136 48 144 136 48 156 148 52 155 146 51 152 142 49 
149 139 48 146 136 48 144 135 48 144 135 49 136 128 47 120 114 45 112 107 43 
113 105 42 110 102 41 103 98 39 100 95 38 100 95 38 100 95 37 101 95 37 
103 97 37 107 101 37 107 101 37 103 97 36 98 92 35 92 87 33 89 84 32 90 84 33 
87 82 32 82 77 31 81 77 31 85 80 31 90 84 32 96 90 33 96 89 33 88 83 32 
84 80 32 83 78 32 85 80 32 90 84 32 90 85 32 87 82 32 90 85 33 98 93 34 
105 99 36 111 104 37 107 101 37 95 89 35 92 86 35 98 93 37 102 96 38 103 98 39 
104 99 39 105 99 40 107 101 41 111 104 41 120 113 43 136 127 46 139 130 47 
132 122 46 129 121 46 133 125 46 136 128 47 138 130 47 140 132 48 143 135 48 
145 136 48 147 139 50 148 139 50 150 140 49 150 141 48 150 141 48 145 136 48 
135 127 47 124 117 46 114 108 43 107 101 41 105 98 40 102 96 39 99 94 38 
101 96 38 109 103 39 111 104 39 107 101 38 105 99 37 106 100 37 106 99 37 
104 97 36 98 92 34 88 83 32 85 80 31 91 85 32 90 84 32 82 77 31 80 75 30 
84 79 31 88 83 32 91 86 32 89 84 31 82 77 30 80 75 30 84 78 31 88 83 32 
94 88 33 97 91 33 96 89 33 95 89 33 94 89 33 94 89 33 93 88 33 91 87 34 
89 84 34 89 84 35 92 87 35 95 90 36 98 93 37 100 94 38 100 95 38 102 96 39 
105 99 40 112 106 41 123 116 44 127 119 45 124 116 45 122 115 45 122 115 45 
124 117 46 128 121 46 134 126 47 142 133 48 146 136 48 135 128 48 137 130 48 
142 133 48 145 136 48 146 138 48 142 133 47 131 123 46 121 115 45 113 107 42 
108 102 41 106 100 40 103 97 39 97 92 37 100 94 37 110 103 39 113 106 39 
109 103 37 107 101 37 108 102 37 106 100 37 102 96 35 96 90 33 88 82 31 
86 80 31 90 84 31 88 82 31 80 75 30 78 73 30 81 76 30 84 79 30 87 82 31 
85 80 30 78 73 29 78 73 29 85 79 30 90 84 31 94 88 32 96 90 33 98 91 33 
97 90 33 92 86 32 87 83 31 84 80 31 83 79 32 85 81 33 86 83 34 88 84 34 
92 87 35 97 92 36 99 94 37 98 93 37 100 94 38 104 98 39 109 103 41 115 109 43 
119 112 44 118 112 44 118 111 45 116 109 44 119 112 45 125 118 46 132 124 46 
139 130 47 143 133 48 121 115 45 124 117 45 129 121 46 133 124 47 135 127 47 
135 127 46 132 124 46 127 120 45 119 113 43 116 110 42 118 111 42 112 106 40 
98 93 37 95 90 36 103 97 38 106 100 38 106 100 37 108 102 36 112 106 37 
109 103 36 97 92 34 92 86 32 92 86 31 90 84 31 85 80 30 81 76 29 77 72 29 
75 70 28 76 71 28 78 74 29 82 78 30 81 77 30 76 72 28 78 74 28 87 82 30 
90 84 30 87 82 30 89 83 31 95 88 32 95 88 32 90 84 31 86 81 31 83 78 32 
82 78 32 83 79 32 85 81 33 87 83 33 92 88 35 100 94 36 102 96 37 99 93 37 
101 95 38 106 100 40 110 104 41 112 106 42 114 107 43 115 108 43 115 108 43 
114 107 44 119 112 45 129 121 46 134 127 47 135 127 47 136 127 46 113 108 43 
116 109 44 120 113 45 124 117 46 128 120 46 132 124 46 136 128 47 135 127 46 
128 121 44 123 117 43 121 114 42 113 107 40 99 94 37 94 88 36 97 91 36 
101 95 36 105 99 36 109 102 36 112 106 37 107 101 35 92 87 32 88 83 31 
93 87 31 92 86 31 85 79 29 79 74 28 75 70 28 75 70 28 78 74 28 81 77 29 
83 79 30 82 78 30 78 74 29 80 76 29 89 84 30 91 85 30 87 81 30 87 82 30 
93 87 31 93 86 31 86 81 31 83 78 31 84 79 32 84 79 32 85 80 32 88 84 33 
93 89 34 98 94 35 104 99 37 105 99 37 99 93 37 100 94 37 105 99 40 109 103 41 
111 104 41 113 106 42 117 110 43 120 112 43 120 113 44 125 118 45 134 126 47 
137 129 47 133 125 46 131 123 46 112 106 44 113 107 44 117 110 44 120 113 44 
124 116 45 131 124 46 142 134 48 145 137 48 140 132 46 131 123 44 117 109 41 
106 100 39 99 94 37 95 90 36 92 87 35 96 90 35 105 99 36 109 103 36 108 101 35 
101 94 34 88 82 31 84 79 30 90 85 31 91 86 31 88 82 30 83 77 29 75 71 28 
77 73 29 88 83 30 92 88 32 91 87 32 88 84 31 84 79 30 85 79 30 91 85 30 
93 87 30 91 85 30 91 85 30 94 87 30 90 84 30 80 76 29 79 75 30 86 80 32 
89 84 32 90 85 33 96 91 34 105 100 36 110 105 37 111 105 37 107 101 37 
99 93 36 97 91 36 101 95 38 105 99 39 110 103 41 117 109 42 125 117 43 
131 123 44 134 126 46 138 129 46 141 133 47 139 131 47 132 124 46 129 121 46 
119 112 45 120 113 45 122 115 44 123 116 44 122 115 44 128 121 45 142 134 47 
147 139 47 143 134 46 132 124 43 115 107 40 104 97 38 98 93 36 93 88 35 
87 83 34 91 86 34 104 98 35 109 102 36 105 98 34 96 90 33 83 78 30 79 75 29 
84 80 30 86 82 30 84 79 29 80 75 28 74 70 28 77 73 29 91 86 31 98 92 33 
97 92 33 93 88 32 87 81 30 85 79 30 88 82 30 90 84 30 92 86 30 93 86 30 
91 86 30 86 81 29 76 72 29 76 72 29 84 78 31 89 83 32 92 87 32 99 94 34 
111 105 36 115 108 37 111 105 37 106 100 37 101 95 36 99 93 36 101 95 37 
105 98 38 112 104 40 119 111 42 128 119 43 136 127 45 144 135 47 148 139 48 
147 139 48 142 133 47 132 124 46 127 119 46 135 127 46 135 127 46 136 128 47 
132 125 46 123 116 45 124 118 45 136 128 46 140 131 45 135 127 44 127 119 42 
116 109 39 106 99 37 96 91 35 88 84 34 82 78 32 87 83 33 103 97 35 108 102 35 
102 97 34 92 87 32 78 73 29 72 68 28 76 72 28 76 72 28 74 70 28 72 68 27 
71 67 28 76 72 29 89 83 31 97 90 32 101 94 33 97 91 32 86 81 30 80 76 29 
79 75 28 83 78 29 90 84 30 91 85 30 86 81 29 80 76 29 74 70 28 73 69 28 
79 74 29 84 79 30 89 84 31 98 92 33 108 102 36 111 105 37 106 100 36 
104 98 36 105 99 36 105 99 37 105 98 37 109 101 39 116 108 40 122 113 42 
125 117 43 135 126 46 150 141 49 156 146 50 152 143 49 144 135 48 133 124 46 
127 118 46 145 135 47 144 134 47 141 133 47 134 127 46 122 116 44 121 115 44 
130 123 44 134 126 44 131 123 43 124 117 41 114 107 39 103 97 36 93 89 34 
86 82 33 82 78 32 87 82 32 99 94 34 102 97 34 97 92 33 88 84 31 77 73 29 
71 68 28 72 68 28 72 68 28 70 66 27 69 65 27 70 66 28 75 71 28 84 79 30 
91 85 31 96 91 32 94 88 32 82 78 30 76 72 28 75 71 28 78 74 28 86 81 29 
88 82 30 82 78 29 79 75 29 78 74 29 78 74 29 79 74 29 82 77 29 88 82 31 
95 89 33 104 98 35 107 101 36 104 98 36 105 99 36 109 103 37 111 105 38 
110 103 38 112 104 39 117 108 40 119 111 41 119 112 42 127 120 45 143 135 48 
149 140 49 145 137 49 141 132 48 135 126 47 133 123 46 148 138 47 144 135 47 
137 128 47 129 121 46 121 113 44 120 112 43 126 118 43 129 122 43 130 123 43 
123 116 41 107 101 38 96 91 35 91 86 34 88 83 33 88 83 32 89 84 32 92 88 33 
92 88 32 88 84 31 84 80 30 80 76 30 76 72 29 74 69 28 72 68 28 72 68 27 
72 68 28 71 68 28 73 69 28 77 74 28 81 77 29 85 80 30 83 79 30 76 72 29 
74 70 28 74 71 28 77 73 28 81 77 29 82 77 29 80 75 29 82 78 30 90 85 31 
91 86 31 85 80 30 84 79 30 87 81 31 91 85 32 97 91 33 102 95 34 105 98 35 
109 102 37 115 108 38 117 110 39 116 109 39 115 107 39 113 106 39 111 104 39 
109 103 40 113 107 42 123 117 44 128 121 45 127 120 45 131 123 46 140 131 47 
143 134 48 143 134 47 140 130 46 132 123 46 124 116 45 117 109 43 116 108 42 
120 113 42 124 117 42 129 122 42 123 116 41 105 99 37 94 89 35 90 85 33 
89 84 32 91 86 32 91 86 32 88 84 32 86 81 31 83 78 30 83 78 29 84 80 30 
83 78 30 78 73 29 77 72 28 79 75 29 79 75 29 77 72 29 75 71 28 74 71 28 
75 72 28 77 73 28 76 72 28 73 69 28 73 69 28 76 72 28 79 75 28 83 79 29 
84 79 30 82 78 30 87 82 31 97 92 32 98 93 32 92 87 31 89 84 31 90 85 31 
93 87 32 97 91 33 101 95 34 106 100 35 112 105 37 117 110 39 118 111 39 
116 109 39 113 107 38 110 103 38 106 100 38 103 98 39 105 100 40 112 107 42 
118 112 43 122 115 44 130 122 46 141 133 47 146 137 48 131 122 45 130 121 45 
126 118 45 120 113 44 111 104 42 108 102 41 112 106 41 118 112 41 127 120 42 
124 117 41 107 101 37 96 90 35 90 85 33 89 84 32 92 87 31 92 86 31 87 82 31 
83 79 30 81 75 28 83 77 29 90 85 31 91 85 31 85 80 30 85 80 30 91 86 31 
92 86 31 86 81 30 80 76 29 74 70 28 72 68 28 73 69 28 73 69 28 72 68 28 
74 70 28 79 75 28 85 81 29 92 87 31 94 89 32 91 86 31 92 87 32 98 94 33 
101 96 33 99 94 33 98 93 33 98 93 33 100 94 33 103 97 34 106 100 35 109 103 36 
112 106 37 116 109 38 115 108 38 111 105 38 108 102 38 106 100 38 104 98 38 
101 96 39 103 98 40 110 104 42 119 112 44 130 123 45 137 129 46 140 132 47 
141 133 47 127 119 45 126 118 45 122 114 44 116 109 43 107 101 41 104 98 40 
106 100 40 111 105 40 120 113 40 118 112 39 106 100 37 97 91 35 92 87 33 
91 85 32 92 86 31 90 84 31 84 79 30 82 77 29 84 78 29 88 82 29 95 89 32 
95 89 32 89 84 31 88 83 31 94 88 32 93 88 32 87 82 30 81 76 29 74 70 28 
71 67 28 71 67 28 72 68 28 74 70 28 76 72 28 79 74 29 85 80 30 94 89 31 
98 93 32 96 91 32 96 91 33 98 93 33 99 94 33 99 94 33 99 94 33 98 93 32 
100 94 33 104 98 34 108 102 36 110 104 37 112 105 37 112 105 38 110 103 37 
106 100 37 104 98 37 103 97 37 102 97 38 102 97 39 105 99 40 112 105 42 
122 114 44 135 127 46 140 132 47 138 130 47 137 129 47 132 125 46 128 121 45 
118 112 43 111 104 42 105 99 41 101 96 40 100 95 39 102 97 38 107 101 38 
107 101 37 102 95 36 98 92 35 97 91 33 94 88 32 90 84 31 85 80 31 80 75 29 
82 77 29 91 85 31 96 90 32 97 92 32 95 90 32 89 84 31 87 82 31 86 82 31 
84 80 30 80 76 29 77 72 28 73 69 28 71 67 28 72 68 28 74 70 28 79 74 29 
79 74 29 75 71 28 78 74 29 89 84 31 95 90 32 97 92 33 97 92 33 95 89 33 
93 88 32 92 88 32 91 87 31 89 85 31 93 87 31 101 95 33 107 101 35 110 104 36 
109 103 37 105 99 37 102 96 36 101 95 36 100 94 36 100 94 37 101 95 38 
105 98 39 109 103 40 116 109 42 125 118 44 135 127 46 139 131 47 135 127 46 
133 125 46 139 130 47 132 125 46 119 113 43 111 106 42 109 103 41 105 99 40 
100 95 39 98 93 38 100 94 37 99 93 36 96 91 35 96 90 34 99 92 33 96 90 33 
89 84 31 83 78 30 77 72 29 80 75 29 93 87 31 99 93 32 98 93 32 96 91 32 
92 87 32 87 83 31 82 78 30 78 74 29 76 72 28 73 70 28 72 68 28 72 68 28 
72 68 28 74 70 28 79 74 29 78 74 29 73 69 28 75 71 28 83 78 30 90 85 31 
96 91 32 96 91 33 92 86 32 89 83 31 85 81 31 84 80 30 85 80 30 89 84 31 
98 92 33 103 97 34 107 101 35 105 99 35 98 93 35 95 90 35 95 89 35 96 90 35 
98 93 36 102 96 38 109 101 39 116 108 41 124 116 43 129 122 44 133 125 46 
135 127 47 135 126 46 135 126 46 146 136 48 139 130 47 124 118 45 118 112 43 
120 113 42 115 109 41 105 99 39 99 94 38 98 94 37 96 90 35 91 85 34 91 85 33 
97 91 33 97 91 32 91 86 31 84 79 30 75 71 28 76 72 29 88 83 31 95 90 32 
98 92 32 98 92 32 96 91 32 91 86 31 81 77 29 75 71 28 73 69 28 72 68 28 
71 67 28 71 67 28 72 68 28 73 69 28 74 70 28 74 70 28 74 70 28 75 71 28 
77 73 28 82 77 29 90 85 31 93 87 31 90 84 31 85 80 30 79 75 29 79 74 29 
85 79 30 90 84 31 94 87 32 97 91 33 101 95 33 99 93 34 92 87 34 88 84 34 
89 84 34 92 87 35 98 93 37 105 99 39 114 107 40 123 115 42 134 126 45 
135 127 46 127 121 45 128 121 46 137 129 47 141 132 48 148 138 48 141 132 47 
126 119 45 120 114 43 122 115 42 119 112 41 111 105 40 104 98 39 99 94 37 
94 89 35 89 83 33 89 83 33 95 90 33 95 90 32 89 84 31 82 78 29 75 71 28 
75 71 28 83 79 30 89 84 31 93 87 31 95 89 32 95 89 32 90 85 31 81 76 29 
75 71 28 73 69 28 72 68 28 74 70 28 74 70 28 72 68 28 72 68 28 73 69 28 
75 71 28 76 72 28 77 73 28 77 73 28 82 78 29 91 85 31 94 88 31 90 85 31 
84 79 30 75 71 28 75 70 28 82 76 29 87 81 30 90 84 31 93 87 32 97 91 32 
96 90 33 88 83 33 85 80 33 86 82 33 90 86 35 98 94 37 106 101 39 115 108 40 
125 117 42 137 129 45 138 131 46 128 122 45 129 122 46 141 132 48 146 137 48 
146 136 48 139 130 47 124 117 45 116 110 43 117 110 42 117 110 41 118 111 40 
113 106 39 101 95 37 94 88 35 91 85 33 91 85 33 94 88 33 91 85 33 82 77 31 
78 73 29 77 72 28 77 72 28 77 73 28 80 75 29 84 79 30 87 81 31 87 82 30 
85 80 29 80 76 28 77 73 28 75 71 28 76 72 28 81 76 29 80 75 29 73 69 28 
72 68 28 78 73 29 80 75 30 79 75 29 81 77 30 85 80 30 90 85 31 97 92 32 
99 93 33 93 88 32 86 81 30 75 71 28 72 68 28 75 71 28 80 75 29 86 81 30 
91 85 31 96 90 32 94 88 32 86 81 32 84 79 32 86 82 33 92 87 35 100 95 37 
106 101 38 111 105 39 121 114 42 135 127 45 140 132 46 135 128 46 137 130 47 
145 136 48 148 139 49 147 137 49 139 130 47 122 115 45 114 109 43 117 110 42 
118 111 41 119 111 40 114 106 39 102 96 37 96 90 35 95 89 34 93 87 33 92 86 33 
87 81 32 79 74 30 75 70 29 77 72 28 76 72 28 74 70 28 75 71 28 80 75 29 
82 76 29 81 76 29 79 75 28 77 73 28 77 73 28 80 76 29 83 79 29 88 83 31 
87 82 30 79 75 29 79 74 29 85 80 30 86 81 31 83 79 30 84 80 30 88 83 31 
93 88 31 98 93 33 97 92 32 91 86 31 83 79 30 74 70 28 71 67 28 72 68 28 
77 73 29 86 82 31 92 87 32 93 88 32 91 86 32 86 80 32 85 80 32 89 84 34 
97 92 36 107 102 38 112 106 39 111 105 39 118 112 41 134 127 45 142 134 47 
140 133 47 143 135 48 149 141 49 153 143 50 149 140 49 140 132 48 120 114 44 
115 109 43 123 116 44 123 115 43 114 106 40 107 100 37 101 96 36 99 94 36 
100 94 35 97 91 34 91 84 32 84 78 31 77 73 30 74 70 29 73 69 28 73 69 28 
74 70 28 77 72 28 80 75 28 80 75 28 76 71 28 73 69 28 72 68 28 77 73 28 
88 83 31 95 90 32 98 92 32 97 91 32 92 87 31 91 86 31 94 89 32 93 88 32 
88 83 31 86 82 31 88 83 30 90 85 31 91 86 31 89 84 31 83 78 29 77 73 28 
73 69 28 71 67 28 72 68 27 79 75 29 92 87 32 96 91 33 91 86 32 87 83 32 
85 80 32 88 83 32 94 89 35 105 100 37 120 114 41 123 116 41 113 107 40 
117 111 41 135 128 45 144 136 48 142 135 48 146 138 49 155 146 51 159 150 52 
144 135 49 136 128 47 118 113 44 114 108 43 122 115 43 122 114 42 113 106 39 
107 101 38 104 99 37 103 98 36 103 97 36 100 94 35 92 86 32 85 79 31 78 73 29 
74 70 29 72 68 28 72 68 28 75 70 28 78 73 28 81 76 28 80 76 28 75 71 28 
73 69 28 74 70 28 80 75 29 91 86 31 97 92 32 99 93 33 99 93 33 98 92 33 
98 92 32 99 94 32 97 92 32 91 86 31 88 83 31 88 83 30 87 82 30 87 82 31 
85 80 30 81 77 29 78 74 28 76 72 28 75 71 28 75 70 28 81 76 29 93 88 32 
96 90 33 88 84 32 86 81 32 87 82 32 90 85 33 95 90 35 105 100 37 120 114 41 
123 116 41 113 107 40 116 110 41 132 125 45 140 132 47 139 132 47 143 136 49 
154 145 51 159 150 52 131 124 46 126 119 45 116 111 43 112 106 42 114 107 41 
115 108 40 117 109 40 116 108 39 111 104 37 108 101 36 105 99 36 101 96 35 
97 91 34 89 84 32 80 75 30 75 70 28 72 68 28 73 69 28 77 72 28 81 75 28 
84 79 29 83 79 29 78 75 29 78 75 29 83 79 30 87 82 31 88 83 31 90 85 31 
93 87 32 96 90 33 97 91 32 98 92 32 100 94 32 98 92 32 94 87 30 91 84 30 
88 83 30 86 82 30 85 80 30 85 80 31 87 82 31 87 82 31 84 79 30 81 77 29 
80 75 29 82 78 30 89 84 31 90 85 31 86 81 31 87 82 31 91 87 33 93 89 34 
92 88 34 97 92 35 108 102 38 112 106 39 110 104 40 115 107 41 125 117 44 
131 123 46 131 123 46 136 128 47 146 138 49 151 142 50 129 122 45 128 121 45 
125 118 45 121 114 43 114 107 41 113 106 40 117 110 40 118 110 39 114 107 38 
109 102 37 103 97 36 99 93 35 97 91 34 91 85 32 83 78 30 77 72 29 74 70 28 
74 70 28 77 72 28 80 75 28 83 78 29 84 79 29 83 79 29 84 79 30 87 82 31 
87 82 31 84 79 30 84 79 30 88 82 31 90 84 31 91 86 31 94 88 31 97 91 32 
98 92 32 95 88 31 93 86 30 91 86 30 88 83 30 82 77 30 83 78 30 91 86 32 
94 89 32 91 86 31 89 84 31 87 82 31 88 83 31 91 86 31 92 87 31 91 86 32 
92 87 32 95 90 34 95 90 34 92 87 34 93 88 35 99 94 36 104 98 38 109 102 39 
114 107 41 120 112 43 122 115 45 123 116 45 127 120 46 136 128 47 140 131 48 
138 130 47 140 132 48 145 136 48 139 131 47 124 117 44 116 109 41 114 108 40 
113 107 39 113 106 38 108 101 37 98 92 35 93 87 34 93 86 33 90 84 32 85 80 31 
81 77 30 77 72 29 75 70 28 74 70 28 75 71 28 79 74 28 84 78 28 90 83 29 
90 84 30 84 79 30 80 76 29 77 73 28 78 74 28 82 77 29 83 78 29 81 76 29 
84 79 29 92 87 32 96 90 32 96 90 32 96 90 32 96 90 32 91 86 31 80 75 29 
80 76 29 93 88 32 99 94 33 99 93 33 98 92 32 97 91 33 97 92 33 100 94 33 
102 96 33 103 97 34 102 96 34 99 93 34 96 90 34 94 89 35 93 88 35 93 89 36 
99 93 37 110 102 39 115 107 41 115 108 42 116 109 43 116 109 44 118 111 45 
122 115 45 124 116 45 143 135 48 147 138 49 154 145 50 149 140 49 131 123 45 
119 112 42 113 107 40 111 105 39 114 107 39 110 103 38 98 92 35 93 87 33 
95 88 33 94 87 32 91 85 32 86 82 31 81 76 30 77 72 29 74 69 28 74 70 28 
78 73 28 84 78 29 91 84 30 91 85 30 84 80 29 80 76 29 78 74 28 79 74 28 
82 77 29 81 76 29 76 72 28 77 73 28 85 81 31 91 86 32 94 89 32 96 90 32 
96 90 32 90 85 31 77 73 28 78 74 29 94 88 32 101 95 33 101 95 33 99 94 33 
98 92 33 99 93 33 104 98 34 107 101 35 109 103 35 107 101 35 101 95 34 
99 93 35 101 96 36 100 95 37 95 90 36 98 93 37 109 102 39 114 106 40 
111 104 41 111 105 42 113 107 43 114 108 44 115 108 44 115 109 44 144 135 48 
147 138 49 154 144 50 150 141 49 136 128 46 124 116 43 113 107 40 111 105 39 
117 110 40 115 107 39 105 98 36 101 94 34 103 96 35 103 96 34 99 93 33 
94 88 32 87 82 30 81 76 29 76 71 28 76 71 28 81 76 29 85 79 30 88 82 30 
89 83 30 88 83 30 87 82 30 86 81 30 86 81 30 86 81 30 83 79 29 77 73 28 
75 71 28 78 74 29 83 79 30 91 86 32 94 88 32 91 85 31 84 79 30 74 70 28 
77 73 29 92 87 31 99 93 33 97 92 33 94 89 32 91 85 32 93 88 32 103 97 34 
109 103 35 111 105 36 108 102 36 102 96 36 104 98 36 115 108 39 115 108 39 
103 98 38 101 96 38 108 101 39 110 103 40 107 102 41 109 103 42 115 108 43 
117 110 44 114 108 44 113 107 44 135 127 47 139 130 48 146 137 49 144 135 48 
133 124 45 124 116 43 117 111 41 116 109 41 118 111 40 116 108 39 107 100 36 
103 96 35 102 95 35 102 95 34 102 95 34 98 91 33 88 83 31 81 77 30 75 71 28 
76 72 28 82 77 30 86 82 30 89 85 31 90 85 31 89 84 30 88 83 30 88 83 30 
87 82 30 85 80 30 82 77 29 77 72 28 75 71 28 77 73 29 83 78 30 92 87 32 
94 89 32 88 83 31 81 77 29 74 70 28 76 72 29 87 83 31 92 87 32 90 85 31 
87 83 31 83 79 30 87 82 31 99 93 34 106 100 35 109 103 36 107 102 36 
100 95 36 105 100 37 122 114 40 124 116 41 113 107 39 108 103 39 111 104 40 
112 106 41 112 106 42 114 108 43 118 112 44 119 112 44 117 110 44 115 109 44 
119 111 45 123 115 45 132 124 47 131 124 46 120 114 43 118 112 42 125 118 43 
125 118 43 118 112 41 112 105 39 106 99 36 99 92 35 91 85 33 91 85 33 99 92 34 
97 90 33 85 81 32 77 73 30 73 69 28 74 71 28 82 78 29 89 85 31 97 92 32 
96 91 32 86 82 30 82 78 29 85 80 29 83 78 29 79 74 29 77 72 28 77 72 28 
79 74 28 83 77 29 89 83 31 97 92 33 97 92 33 87 82 31 80 76 29 77 73 28 
76 73 28 78 75 29 79 76 29 79 75 29 78 74 29 76 72 29 80 76 30 91 86 32 
99 94 34 105 99 35 104 99 35 97 92 35 103 97 36 122 115 40 128 121 42 
123 115 41 120 112 41 120 112 42 121 114 43 125 119 45 126 120 46 124 118 45 
123 116 45 122 115 45 122 115 45 115 108 44 119 112 45 130 122 46 129 122 45 
116 109 43 116 110 42 129 122 44 132 125 44 123 117 42 117 110 40 112 105 38 
105 98 36 94 88 34 91 86 34 96 90 34 94 88 33 85 80 32 79 75 30 75 71 29 
76 72 28 84 79 30 91 87 31 99 94 33 97 92 32 85 80 30 79 75 29 81 76 29 
79 75 28 75 70 28 74 69 28 77 72 28 80 75 28 83 78 29 90 84 31 99 94 33 
98 93 33 88 83 31 82 77 29 81 76 29 79 75 28 77 74 29 76 73 29 76 72 28 
75 71 28 73 69 29 78 74 30 88 83 32 95 90 33 98 93 34 98 93 35 94 89 34 
100 95 36 116 110 39 124 117 41 124 117 42 124 116 42 124 117 43 127 120 45 
135 128 47 135 128 48 127 121 46 123 117 45 122 115 45 122 115 45 123 115 45 
129 121 46 140 132 48 137 128 47 118 111 44 116 110 43 131 124 45 137 130 45 
135 127 44 131 124 43 127 120 42 120 113 40 111 104 37 102 95 35 93 88 34 
89 84 33 88 83 32 85 80 31 81 76 30 82 77 30 87 82 30 93 88 31 98 92 32 
95 90 32 85 80 30 79 74 29 77 73 28 76 72 28 74 70 28 75 70 28 77 73 29 
78 74 29 79 74 28 85 80 29 96 91 32 98 93 32 91 86 31 87 82 30 87 81 30 
86 80 30 85 79 30 83 77 30 79 75 29 77 73 29 75 71 29 79 75 30 88 84 32 
92 88 33 90 85 33 90 85 34 92 87 34 97 92 36 106 100 37 113 106 39 118 111 40 
122 115 42 124 117 44 131 124 46 142 134 49 141 133 49 128 121 46 120 113 45 
117 111 44 116 109 44 125 117 46 130 122 46 140 132 48 137 128 47 119 111 44 
115 109 43 127 120 44 133 126 44 135 127 44 134 126 44 130 123 43 123 116 41 
113 106 38 102 96 36 90 86 34 86 82 33 90 85 32 90 84 32 87 81 31 86 81 31 
87 82 31 89 84 31 92 86 31 90 85 31 84 79 29 80 75 29 78 74 28 78 73 28 
78 73 28 78 73 29 78 74 29 77 73 29 76 72 28 80 76 28 89 85 30 92 87 31 
87 83 30 86 81 30 87 82 30 89 82 30 89 83 30 89 83 31 87 82 31 83 79 31 
79 75 30 80 76 31 88 84 32 90 85 33 85 80 33 86 81 33 91 86 35 98 93 36 
106 100 38 114 107 39 123 116 41 126 119 43 124 117 44 127 120 46 137 129 48 
136 128 48 125 118 45 117 111 44 114 108 44 112 106 44 119 112 45 123 116 45 
130 123 46 128 121 46 117 111 44 113 107 43 117 110 43 120 113 43 124 117 43 
125 118 43 122 115 42 115 108 40 102 96 37 93 88 34 87 83 33 87 82 33 91 86 33 
93 88 33 92 86 32 89 83 31 84 79 31 82 77 31 81 76 30 81 77 29 83 78 29 
84 78 29 85 79 29 85 80 30 86 80 30 84 78 29 79 75 28 76 72 28 75 71 28 
76 72 28 78 74 29 79 75 29 78 74 28 79 75 29 84 79 30 88 82 30 92 86 31 
95 89 32 97 91 33 93 88 33 84 80 32 82 78 32 87 81 32 88 82 33 85 80 33 
87 82 34 93 88 35 103 97 37 117 110 40 129 121 42 137 129 45 135 128 45 
122 116 44 117 111 43 119 113 45 119 113 45 117 111 44 115 109 44 113 107 44 
112 106 44 124 116 45 124 117 45 126 119 46 123 116 45 117 111 44 113 107 43 
112 106 42 113 106 42 115 109 41 117 111 41 119 112 42 112 106 40 98 93 37 
90 85 34 88 83 34 89 84 33 92 87 33 93 88 33 92 86 32 89 83 32 83 78 31 
80 75 30 78 74 29 80 75 29 84 78 29 87 81 29 90 83 30 90 84 30 88 81 30 
84 78 29 79 74 28 76 72 28 75 71 28 74 70 28 74 70 28 74 70 28 75 71 28 
77 73 28 83 78 30 88 83 31 94 88 32 99 93 33 105 98 35 102 96 35 92 87 33 
87 82 33 88 82 33 89 84 34 92 87 34 96 91 36 102 96 37 112 106 39 127 119 42 
138 129 44 145 137 47 141 134 47 127 120 45 119 113 43 117 111 44 119 113 44 
123 117 45 124 117 45 120 114 45 119 112 44 138 129 47 135 126 46 128 120 45 
122 115 45 117 110 44 114 108 44 113 107 43 111 105 42 108 102 40 111 104 40 
120 112 42 117 109 41 101 96 38 93 89 36 93 87 35 93 87 34 93 88 34 91 86 33 
86 82 32 84 79 32 83 79 31 83 79 31 84 79 30 85 80 30 87 81 30 89 83 30 
92 86 31 91 85 31 83 78 29 79 74 29 77 73 29 76 72 29 75 71 28 75 71 29 
76 72 29 77 72 29 77 73 28 80 75 29 84 79 30 89 84 31 94 89 32 101 95 34 
109 102 36 110 103 36 102 96 35 96 90 34 91 86 34 95 90 35 107 101 37 
115 108 38 119 111 40 125 117 42 134 126 43 141 133 45 145 137 47 144 136 48 
138 129 47 134 125 46 132 124 46 135 128 47 143 135 48 144 135 48 137 128 46 
133 125 45 146 137 48 141 132 47 129 121 46 121 114 45 116 110 44 114 109 44 
116 110 44 114 108 43 109 102 41 112 105 41 124 116 43 123 115 42 109 103 39 
101 96 37 99 93 36 96 90 35 93 88 35 89 85 34 84 80 33 84 81 32 89 85 32 
91 87 32 90 85 32 90 84 31 91 85 31 92 86 31 93 87 31 90 84 31 83 78 30 
79 74 29 78 74 29 79 75 30 81 76 30 82 78 30 85 79 31 86 80 31 86 80 30 
86 81 30 86 81 31 89 83 32 93 87 32 99 93 34 108 102 36 111 104 37 108 100 36 
103 96 35 97 92 35 102 97 37 118 111 39 127 119 41 129 121 42 133 125 44 
140 132 45 143 135 47 143 135 48 142 134 48 141 132 47 140 130 47 139 130 47 
143 135 48 154 145 50 153 144 50 141 132 47 136 127 46 150 141 49 144 135 48 
130 122 46 120 113 45 115 109 44 115 109 44 119 113 45 121 114 45 118 111 43 
121 114 43 131 123 44 131 124 43 121 115 40 113 107 39 106 99 38 99 93 37 
92 87 35 87 84 34 86 82 34 91 86 34 101 96 35 103 98 34 96 90 33 94 88 32 
98 91 32 97 90 32 92 86 31 89 83 31 87 82 31 85 80 31 83 79 31 85 80 31 
91 86 33 96 90 33 98 92 33 100 94 33 100 94 33 96 91 33 89 84 32 87 82 32 
88 83 32 93 88 34 102 96 36 107 100 37 109 101 37 108 101 37 106 99 37 
111 105 38 125 118 42 132 125 44 133 125 44 137 129 45 145 137 47 145 137 48 
137 130 47 135 127 47 137 128 47 138 129 47 138 129 47 144 135 48 155 146 51 
152 144 51 135 127 48 127 120 47 154 145 50 148 139 49 134 126 47 124 117 46 
117 110 45 116 110 45 122 115 46 125 117 46 124 117 45 128 120 45 136 128 46 
136 128 45 130 122 42 121 114 40 112 104 39 102 96 38 92 88 36 88 84 35 
88 84 34 95 91 35 108 102 37 110 104 36 101 95 34 99 93 33 103 96 34 101 94 33 
92 85 32 87 82 31 87 82 32 86 82 32 84 80 31 86 82 32 94 88 33 98 92 34 
99 93 34 100 95 34 102 96 34 99 93 34 92 86 33 88 83 32 89 84 33 92 87 34 
100 94 35 105 98 36 108 101 37 111 103 37 113 105 38 119 112 40 130 123 43 
136 128 45 136 128 45 139 131 46 144 136 47 143 135 48 136 128 47 134 126 47 
138 130 47 139 130 47 136 127 47 138 129 47 146 137 49 143 134 49 127 120 47 
120 114 46 158 149 51 153 144 50 143 135 48 132 125 46 122 116 46 119 112 46 
123 116 46 126 118 46 128 120 46 132 124 46 137 129 46 138 130 45 134 125 43 
126 118 42 115 108 40 104 99 38 95 90 36 90 86 35 91 87 35 97 93 36 109 103 38 
112 106 37 106 100 35 105 98 34 108 101 35 103 97 34 92 86 32 85 80 31 
83 78 31 81 77 31 81 77 31 83 79 31 88 83 32 89 84 33 87 83 32 88 84 33 
92 88 33 94 89 33 94 88 33 94 88 34 94 89 34 97 92 35 103 96 36 106 99 37 
106 99 36 110 103 37 119 111 39 126 119 41 133 126 43 137 130 45 138 130 45 
138 130 45 138 130 45 138 130 46 137 129 47 140 132 47 144 136 48 142 134 47 
132 124 46 127 119 45 126 119 45 123 116 45 118 112 45 116 110 45 156 147 51 
153 144 50 147 138 48 139 131 47 128 121 46 124 117 46 126 118 46 128 120 46 
130 122 46 134 126 46 139 131 46 139 131 46 135 126 44 128 119 42 117 111 40 
108 103 39 100 95 37 96 91 37 97 92 37 100 95 37 106 100 38 107 101 37 
104 98 36 104 98 35 108 102 36 104 98 35 92 86 33 85 80 32 82 78 31 81 77 31 
81 77 31 83 78 31 85 81 32 85 81 32 83 79 32 83 79 32 87 82 33 92 86 33 
97 91 35 99 94 35 99 94 35 101 96 36 105 99 37 108 101 38 110 103 38 
114 107 39 120 112 39 124 116 41 126 120 43 130 123 44 135 127 45 136 128 45 
133 125 45 134 126 45 140 132 47 143 135 48 144 136 48 140 132 47 129 121 46 
121 114 44 117 110 44 114 108 43 115 108 44 115 109 44 147 138 48 147 138 48 
147 138 48 143 134 48 135 127 47 130 123 46 129 122 46 129 121 46 129 121 46 
133 125 46 141 132 47 141 132 46 132 124 44 125 117 42 119 112 42 114 107 41 
109 103 40 106 100 39 106 99 38 103 97 38 99 93 37 96 91 36 94 89 35 97 92 35 
105 98 37 103 97 36 92 87 34 87 81 33 85 80 32 84 80 32 84 79 32 85 80 32 
85 81 33 86 81 33 85 81 33 85 80 33 86 81 33 92 86 34 102 96 37 106 100 37 
104 99 37 105 99 37 107 101 38 113 106 39 121 114 41 122 115 41 116 109 40 
111 105 40 109 104 41 114 108 42 126 118 44 130 122 45 128 119 45 132 124 46 
143 135 48 145 137 48 138 130 47 132 124 46 126 118 45 121 114 45 117 111 44 
116 110 44 116 110 44 116 110 45 142 133 47 142 133 47 143 134 48 140 131 47 
133 125 46 130 122 46 131 124 46 131 124 46 127 120 46 130 122 46 138 129 47 
139 130 46 132 124 44 127 119 43 121 114 43 117 110 42 114 107 41 113 106 40 
115 107 40 110 103 39 98 92 37 91 87 36 91 86 35 94 89 36 100 95 37 100 94 37 
94 88 35 92 86 34 93 87 34 92 87 34 89 84 34 87 83 34 87 83 33 87 83 34 
87 83 34 89 83 35 91 84 35 96 89 36 104 98 38 107 101 38 104 98 37 107 100 38 
114 108 39 122 115 41 131 123 44 129 121 44 117 110 41 109 103 40 105 100 41 
109 103 42 121 113 43 126 118 45 126 118 46 132 124 47 143 134 48 142 134 47 
131 123 46 125 117 45 125 117 45 124 116 45 121 115 44 121 115 45 123 115 45 
123 116 46 139 130 47 138 129 47 135 127 47 130 122 46 122 114 45 123 116 45 
133 126 47 134 127 47 125 118 46 124 116 46 130 122 47 133 125 47 135 127 46 
132 124 45 124 116 44 118 110 43 115 107 42 117 109 42 124 117 42 119 113 41 
102 97 38 94 89 37 94 89 37 94 89 36 95 90 36 96 90 36 98 91 36 101 94 37 
105 99 37 103 97 37 96 90 36 92 87 35 91 87 34 90 86 34 89 85 35 93 87 36 
101 94 37 104 97 38 103 97 38 101 95 38 99 93 37 107 100 39 124 118 42 
135 128 45 139 131 46 135 127 45 123 116 43 116 109 42 114 108 43 115 109 44 
119 112 44 124 116 45 129 121 46 134 126 47 139 131 47 135 127 47 122 114 45 
118 111 44 125 118 45 128 121 46 128 121 45 130 123 46 133 125 47 135 126 47 
136 127 47 134 126 47 130 122 46 124 117 45 117 110 44 118 111 44 129 122 46 
130 123 46 121 114 45 119 112 45 125 117 46 130 123 47 137 129 47 136 127 46 
127 119 45 121 113 44 116 108 43 118 110 43 126 119 44 122 116 43 105 100 40 
97 92 38 97 92 38 96 91 37 95 89 37 97 92 37 105 98 38 110 103 39 115 108 40 
112 106 40 101 95 37 95 90 36 93 89 36 94 89 36 96 91 37 101 95 38 110 103 39 
111 104 40 107 100 39 103 96 38 99 93 38 107 101 40 128 122 44 138 131 46 
137 129 46 133 125 45 126 119 44 122 115 44 122 115 44 122 115 45 121 114 45 
124 117 46 131 123 47 136 128 47 140 131 47 136 127 47 124 117 45 121 114 45 
126 119 46 130 123 46 134 126 46 138 130 47 143 134 48 145 136 49 134 125 46 
132 124 46 128 121 46 123 116 45 117 111 45 115 110 44 119 113 44 118 112 44 
115 109 44 116 110 44 123 116 46 130 123 46 138 130 47 139 130 47 131 123 46 
124 117 45 117 111 44 116 111 44 122 116 44 119 113 43 107 102 40 100 95 39 
100 94 38 100 94 38 100 93 39 105 98 39 114 107 40 120 113 41 123 116 42 
118 111 41 104 99 38 97 92 37 95 90 37 99 93 38 107 101 39 114 107 40 
118 110 40 118 110 41 116 109 40 111 104 40 104 98 39 109 103 41 126 120 44 
131 124 45 124 117 44 122 116 44 126 120 44 129 122 45 129 122 45 129 121 46 
127 119 46 128 120 46 133 125 46 138 129 47 144 134 48 144 134 48 139 130 47 
134 125 46 127 120 46 129 122 46 139 130 47 147 137 48 152 143 50 154 145 51 
134 126 46 135 127 47 135 128 47 133 126 47 127 121 47 123 117 46 121 114 45 
118 112 44 115 110 44 118 112 45 125 119 46 132 124 46 137 128 47 138 129 47 
134 126 46 128 121 46 120 114 45 117 112 44 119 113 44 116 110 43 108 103 41 
105 100 40 108 102 40 109 102 40 109 102 41 111 104 41 117 110 41 120 113 41 
122 115 42 117 110 41 106 100 39 101 96 38 102 96 39 108 101 40 119 112 41 
124 116 42 124 116 42 123 115 42 120 112 41 115 108 41 109 103 41 111 105 41 
122 116 44 124 118 45 117 111 43 117 111 43 125 118 45 130 123 46 133 125 46 
133 125 47 131 123 46 131 123 46 133 126 46 136 128 46 140 130 47 142 132 48 
142 133 47 137 128 47 126 119 46 128 120 46 141 132 47 151 141 49 155 146 51 
157 148 51 139 130 47 143 134 48 152 143 50 153 145 51 148 139 50 142 133 49 
136 127 47 130 122 46 123 117 46 124 118 46 132 125 47 136 127 47 134 125 46 
134 125 46 136 127 46 133 124 46 124 118 45 119 113 45 116 111 44 113 107 44 
109 104 43 112 106 43 121 115 44 124 117 44 121 114 43 117 110 42 112 106 41 
110 104 41 110 103 40 108 102 40 104 99 40 106 100 40 114 107 41 122 114 42 
131 122 43 133 125 43 129 121 44 124 117 43 120 112 42 116 109 42 113 107 42 
114 107 43 118 111 43 119 112 44 118 111 44 119 111 45 122 114 45 126 118 45 
132 124 47 134 126 47 132 125 47 132 125 47 134 126 46 132 124 46 128 120 46 
128 120 46 133 125 47 131 123 47 121 114 45 124 116 45 140 131 47 150 141 49 
153 144 50 155 146 51 143 134 48 147 138 49 156 147 51 157 148 51 149 141 50 
143 134 49 136 127 47 131 123 46 127 120 46 129 122 46 138 129 47 140 131 47 
137 128 47 136 127 47 137 127 46 134 125 46 125 118 45 120 114 45 117 111 44 
114 108 44 112 106 43 115 109 44 124 118 45 128 121 45 125 118 44 120 113 43 
111 105 42 106 100 41 105 100 40 106 101 41 109 103 42 115 108 42 122 114 43 
130 122 44 138 129 45 138 129 45 130 122 45 123 116 44 118 111 43 115 109 43 
115 108 43 115 108 43 116 109 43 116 109 43 117 110 44 118 111 45 121 114 45 
128 120 46 138 130 48 140 132 49 135 127 48 132 125 47 133 125 46 129 121 46 
120 113 45 119 112 45 127 119 46 129 121 47 125 117 46 131 122 46 145 136 48 
151 142 49 147 138 49 145 137 49 146 138 50 146 138 50 147 138 49 142 134 48 
133 126 47 126 119 46 122 115 46 122 115 46 125 118 46 132 124 46 141 132 47 
146 136 48 147 137 49 144 135 49 137 129 47 130 122 45 123 116 45 120 113 45 
121 114 45 119 113 44 115 109 44 115 109 44 117 111 44 119 113 44 122 115 45 
120 113 44 113 107 43 109 104 42 108 103 42 112 106 43 121 113 44 126 117 44 
128 119 44 133 124 45 141 131 46 139 130 46 127 119 45 119 112 45 116 110 44 
115 109 44 114 108 44 114 108 44 116 109 44 116 109 44 114 108 44 116 110 45 
123 116 46 134 127 48 150 141 51 151 142 51 138 130 49 131 124 47 131 123 46 
126 118 45 116 109 44 115 109 44 123 116 46 131 123 47 138 129 48 146 137 49 
156 147 51 153 144 50 137 129 48 129 122 47 149 140 50 146 137 49 140 131 48 
132 124 47 122 116 45 117 111 44 115 110 44 119 112 45 126 118 46 134 126 46 
144 134 47 150 140 48 153 144 50 150 142 50 141 133 48 133 125 46 125 117 45 
122 115 45 126 118 45 124 117 45 118 111 44 114 108 44 114 108 44 116 110 44 
120 113 45 120 113 45 115 108 44 112 106 43 111 106 43 117 111 44 128 119 45 
133 124 46 133 123 45 135 126 46 140 130 47 136 127 47 123 116 45 116 110 45 
115 109 44 115 109 44 115 109 44 116 109 44 116 109 44 115 108 44 113 107 44 
118 111 45 127 121 46 140 132 49 154 145 51 154 145 51 138 130 49 131 123 47 
133 124 47 129 121 46 120 113 45 118 112 44 124 117 45 131 124 47 139 131 48 
145 137 49 150 141 50 144 136 49 129 122 46 122 115 45 150 140 49 145 136 48 
134 126 47 125 118 46 118 112 44 115 109 44 117 111 44 121 114 44 128 121 46 
137 128 46 146 137 47 153 143 49 157 148 51 156 147 51 150 141 49 141 133 48 
131 123 46 127 120 46 132 124 47 129 122 46 119 113 45 115 109 44 115 109 44 
117 111 44 121 114 45 121 114 45 116 110 44 114 108 44 116 109 44 121 114 45 
131 122 46 136 127 47 136 127 46 136 127 46 135 126 46 129 121 45 119 112 44 
114 108 44 114 108 44 115 109 44 119 113 45 119 113 45 116 110 44 115 108 44 
115 108 44 122 114 45 134 126 47 144 135 49 151 142 50 148 139 50 134 126 47 
131 123 46 138 129 47 138 129 47 132 123 46 129 121 46 129 122 46 129 122 46 
128 121 46 128 120 46 127 121 46 126 119 46 123 116 45 122 115 45 151 140 48 
145 135 47 132 123 46 122 115 45 116 110 44 115 108 44 118 111 44 123 116 44 
129 122 45 138 129 46 147 138 47 155 145 49 159 150 52 159 150 52 154 145 50 
145 136 48 133 125 47 130 122 46 135 126 47 131 124 47 120 114 45 115 109 44 
115 109 44 117 111 44 121 114 45 121 114 45 116 110 44 115 109 44 117 111 45 
123 115 46 132 124 47 137 128 47 138 129 46 136 127 46 132 124 45 125 118 45 
117 110 44 112 107 44 113 107 44 116 110 44 120 114 45 121 115 45 116 110 44 
115 108 44 116 109 45 123 116 46 138 129 47 146 137 49 149 140 50 145 136 49 
133 125 47 131 123 46 140 131 47 142 133 47 138 128 46 134 125 46 132 124 46 
128 121 46 123 117 45 120 113 45 117 111 45 117 111 45 121 114 45 122 115 45 
