P3
64 64
255
0 0 0 0 0 0 0 0 0 0 0 0 0 0 0 0 0 0 0 0 0 0 0 0 0 0 0 181 44 44 181 44 44 
0 0 0 0 0 0 0 0 0 0 0 0 181 44 44 181 44 44 0 0 0 0 0 0 0 0 0 0 0 0 181 44 44 
181 44 44 0 0 0 0 0 0 0 0 0 0 0 0 181 44 44 181 44 44 0 0 0 0 0 0 0 0 0 0 0 0 
0 0 0 0 0 0 181 44 44 181 44 44 181 44 44 181 44 44 0 0 0 0 0 0 0 0 0 0 0 0 
0 0 0 0 0 0 0 0 0 0 0 0 181 44 44 181 44 44 181 44 44 181 44 44 0 0 0 0 0 0 
0 0 0 0 0 0 0 0 0 0 0 0 0 0 0 0 0 0 0 0 0 0 0 0 0 0 0 0 0 0 0 0 0 0 0 0 0 0 0 
0 0 0 181 44 44 181 44 44 0 0 0 0 0 0 0 0 0 0 0 0 0 0 0 0 0 0 181 44 44 
181 44 44 181 44 44 181 44 44 0 0 0 0 0 0 0 0 0 0 0 0 0 0 0 0 0 0 0 0 0 0 0 0 
181 44 44 181 44 44 181 44 44 181 44 44 0 0 0 0 0 0 0 0 0 0 0 0 0 0 0 0 0 0 
0 0 0 0 0 0 181 44 44 181 44 44 181 44 44 181 44 44 0 0 0 0 0 0 0 0 0 0 0 0 
181 44 44 181 44 44 0 0 0 0 0 0 181 44 44 181 44 44 181 44 44 181 44 44 
0 0 0 0 0 0 0 0 0 0 0 0 0 0 0 0 0 0 0 0 0 0 0 0 175 60 48 155 107 59 
0 0 0 0 0 0 0 0 0 0 0 0 0 0 0 0 0 0 181 44 44 181 44 44 0 0 0 0 0 0 0 0 0 
0 0 0 0 0 0 0 0 0 181 44 44 181 44 44 181 44 44 181 44 44 0 0 0 0 0 0 0 0 0 
0 0 0 0 0 0 0 0 0 0 0 0 0 0 0 181 44 44 181 44 44 181 44 44 181 44 44 
0 0 0 0 0 0 0 0 0 0 0 0 0 0 0 0 0 0 0 0 0 0 0 0 181 44 44 181 44 44 181 44 44 
181 44 44 0 0 0 0 0 0 0 0 0 0 0 0 181 44 44 181 44 44 0 0 0 0 0 0 181 44 44 
181 44 44 181 44 44 181 44 44 0 0 0 181 44 44 0 0 0 0 0 0 0 0 0 0 0 0 0 0 0 
0 0 0 175 60 48 155 107 59 0 0 0 0 0 0 0 0 0 0 0 0 0 0 0 0 0 0 0 0 0 0 0 0 
181 44 44 181 44 44 181 44 44 181 44 44 181 44 44 0 0 0 181 44 44 181 44 44 
181 44 44 181 44 44 0 0 0 0 0 0 181 44 44 181 44 44 0 0 0 0 0 0 0 0 0 0 0 0 
181 44 44 181 44 44 181 44 44 181 44 44 0 0 0 0 0 0 0 0 0 0 0 0 0 0 0 0 0 0 
0 0 0 0 0 0 181 44 44 181 44 44 181 44 44 181 44 44 0 0 0 181 44 44 181 44 44 
181 44 44 0 0 0 0 0 0 0 0 0 0 0 0 0 0 0 0 0 0 0 0 0 0 0 0 181 44 44 0 0 0 
181 44 44 181 44 44 181 44 44 181 44 44 181 44 44 180 45 44 0 0 0 0 0 0 143 141 68 
139 146 68 139 147 68 0 0 0 0 0 0 0 0 0 0 0 0 0 0 0 181 44 44 181 44 44 
181 44 44 181 44 44 181 44 44 181 44 44 0 0 0 181 44 44 181 44 44 181 44 44 
0 0 0 0 0 0 181 44 44 181 44 44 0 0 0 0 0 0 0 0 0 0 0 0 181 44 44 181 44 44 
181 44 44 181 44 44 0 0 0 0 0 0 0 0 0 0 0 0 0 0 0 0 0 0 0 0 0 0 0 0 181 44 44 
181 44 44 181 44 44 0 0 0 181 44 44 181 44 44 181 44 44 181 44 44 0 0 0 0 0 0 
0 0 0 0 0 0 0 0 0 0 0 0 0 0 0 0 0 0 0 0 0 0 0 0 181 44 44 181 44 44 181 44 44 
181 44 44 181 44 44 181 45 44 0 0 0 0 0 0 142 142 68 139 147 68 139 147 68 
0 0 0 0 0 0 0 0 0 0 0 0 0 0 0 181 44 44 181 44 44 181 44 44 181 44 44 
181 44 44 181 44 44 0 0 0 181 44 44 181 44 44 181 44 44 0 0 0 0 0 0 0 0 0 
0 0 0 181 44 44 181 44 44 181 44 44 0 0 0 181 44 44 181 44 44 181 44 44 
181 44 44 181 44 44 0 0 0 181 44 44 181 44 44 181 44 44 181 44 44 180 44 44 
175 42 42 0 0 0 0 0 0 0 0 0 0 0 0 199 48 48 182 44 44 181 44 44 180 44 44 
0 0 0 0 0 0 181 44 44 181 44 44 181 44 44 181 44 44 0 0 0 0 0 0 0 0 0 0 0 0 
181 44 44 181 44 44 181 44 44 181 44 44 181 44 44 181 44 44 182 39 42 
176 0 9 130 158 68 138 148 68 139 147 68 0 0 0 0 0 0 0 0 0 0 0 0 0 0 0 181 44 44 
181 44 44 181 44 44 181 44 44 181 44 44 0 0 0 181 44 44 181 44 44 181 44 44 
181 44 44 0 0 0 0 0 0 0 0 0 0 0 0 181 44 44 181 44 44 181 44 44 181 44 44 
181 44 44 181 44 44 181 44 44 181 44 44 181 44 44 181 44 44 181 44 44 
181 44 44 181 44 44 181 44 44 181 44 44 176 43 43 0 0 0 0 0 0 0 0 0 0 0 0 
0 0 0 195 47 47 177 43 43 175 43 43 0 0 0 0 0 0 181 44 44 181 44 44 181 44 44 
181 44 44 0 0 0 0 0 0 0 0 0 0 0 0 181 44 44 181 44 44 181 44 44 181 44 44 
181 44 44 182 43 44 179 47 44 160 77 47 86 213 67 128 163 69 140 148 69 
0 0 0 0 0 0 0 0 0 0 0 0 0 0 0 180 44 44 181 44 44 181 44 44 181 44 44 
0 0 0 0 0 0 181 44 44 181 44 44 181 44 44 180 44 44 187 45 45 201 49 49 
201 49 49 188 46 46 180 44 44 181 44 44 182 44 44 206 50 50 214 52 52 
182 44 44 181 44 44 181 44 44 181 44 44 181 44 44 181 44 44 181 44 44 
181 44 44 181 44 44 182 44 44 197 48 48 0 0 0 0 0 0 0 0 0 0 0 0 0 0 0 0 0 0 
0 0 0 0 0 0 0 0 0 0 0 0 181 44 44 181 44 44 181 44 44 181 44 44 0 0 0 0 0 0 
0 0 0 0 0 0 181 44 44 181 44 44 181 44 44 181 44 44 181 44 44 181 43 44 
179 47 44 164 73 47 0 255 96 0 0 0 0 0 0 0 0 0 0 0 0 0 0 0 0 0 0 0 0 0 169 45 42 
180 44 44 181 44 44 181 44 44 0 0 0 0 0 0 181 44 44 181 44 44 181 44 44 
180 44 44 184 45 45 195 47 47 195 47 47 185 45 45 180 44 44 180 44 44 
185 45 45 255 77 77 255 74 74 185 45 45 180 44 44 180 44 44 181 44 44 
181 44 44 181 44 44 181 44 44 181 44 44 181 44 44 186 45 45 255 74 74 
0 0 0 0 0 0 0 0 0 0 0 0 0 0 0 0 0 0 0 0 0 0 0 0 0 0 0 0 0 0 181 44 44 
181 44 44 181 44 44 181 44 44 0 0 0 0 0 0 0 0 0 0 0 0 181 44 44 181 44 44 
181 44 44 181 44 44 181 44 44 181 44 44 181 45 44 175 54 45 0 0 0 0 0 0 0 0 0 
74 72 28 71 69 27 64 62 23 62 58 22 81 53 25 0 0 0 0 0 0 0 0 0 0 0 0 181 44 44 
181 44 44 181 44 44 181 44 44 183 44 44 188 46 46 176 43 43 151 37 37 
151 37 37 173 42 42 184 45 45 184 45 45 170 41 41 65 16 16 73 18 18 170 41 41 
184 45 45 184 45 45 181 44 44 181 44 44 182 44 44 186 45 45 185 45 45 
182 44 44 186 45 45 228 55 55 94 23 23 39 10 10 32 8 8 34 8 8 34 8 8 34 8 8 
0 0 0 0 0 0 181 44 44 181 44 44 0 0 0 0 0 0 0 0 0 0 0 0 181 44 44 181 44 44 
0 0 0 0 0 0 181 44 44 181 44 44 181 44 44 181 44 44 181 44 44 181 44 44 
181 44 44 184 39 43 0 0 0 0 0 0 126 135 54 74 72 28 70 68 27 63 61 23 60 57 21 
59 54 20 0 0 0 0 0 0 0 0 0 0 0 0 181 44 44 181 44 44 181 44 44 180 44 44 
189 46 46 255 63 63 102 25 25 33 8 8 65 16 16 149 36 36 195 47 47 195 47 47 
144 35 35 16 4 4 17 4 4 144 35 35 192 47 47 185 45 45 181 44 44 178 43 43 
214 52 52 255 87 87 215 52 52 183 45 45 184 45 45 197 48 48 184 45 45 
150 37 37 138 34 34 140 34 34 141 34 34 141 34 34 0 0 0 0 0 0 181 44 44 
181 44 44 0 0 0 0 0 0 0 0 0 0 0 0 181 44 44 181 44 44 0 0 0 0 0 0 181 44 44 
181 44 44 181 44 44 181 44 44 181 44 44 181 44 44 181 43 44 189 30 43 
0 0 0 0 0 0 126 135 54 75 73 29 67 65 26 55 53 20 51 49 18 58 57 21 89 86 33 
255 255 255 0 0 0 0 0 0 179 44 43 180 44 44 183 44 44 187 46 46 180 44 44 
99 24 24 0 0 0 0 0 0 22 5 5 138 34 34 199 48 48 197 48 48 146 35 35 53 13 13 
53 13 13 146 35 35 192 47 47 184 45 45 182 44 44 190 46 46 0 0 0 0 0 0 68 17 17 
173 42 42 175 42 42 148 36 36 150 36 36 182 44 44 197 48 48 195 47 47 
194 47 47 194 47 47 0 0 0 0 0 0 0 0 0 0 0 0 181 44 44 181 44 44 181 44 44 
181 44 44 0 0 0 0 0 0 0 0 0 0 0 0 181 44 44 181 44 44 181 44 44 181 44 44 
181 44 44 181 44 44 0 0 0 0 0 0 181 44 44 181 44 44 0 0 0 91 89 35 49 48 19 
33 32 12 39 37 14 59 57 22 75 72 27 115 111 42 0 0 0 0 0 0 146 37 36 172 42 42 
197 48 48 207 50 50 161 39 39 36 9 9 0 0 0 0 0 0 23 6 6 140 34 34 196 48 48 
189 46 46 172 42 42 146 36 36 146 36 36 172 42 42 184 45 45 182 44 44 
185 45 45 194 47 47 134 32 32 0 0 0 19 5 5 155 38 38 157 38 38 52 13 13 
48 12 12 149 36 36 196 48 48 189 46 46 185 45 45 185 45 45 0 0 0 0 0 0 0 0 0 
0 0 0 181 44 44 181 44 44 181 44 44 181 44 44 0 0 0 0 0 0 0 0 0 0 0 0 181 44 44 
181 44 44 181 44 44 181 44 44 181 44 44 181 44 44 0 0 0 0 0 0 181 44 44 
181 44 44 0 0 0 0 0 0 0 0 0 20 19 7 31 30 12 46 45 17 50 48 18 35 34 13 
0 0 0 46 0 0 0 0 0 0 0 0 146 36 36 154 37 37 122 30 30 57 14 14 24 6 6 24 6 6 
66 16 16 152 37 37 191 46 46 183 45 45 184 45 45 192 47 47 192 47 47 184 45 45 
180 44 44 181 44 44 185 45 45 191 47 47 148 36 36 55 13 13 56 14 14 157 38 38 
156 38 38 48 12 12 45 11 11 145 35 35 192 47 47 184 45 45 181 44 44 181 44 44 
0 0 0 0 0 0 181 44 44 181 44 44 181 44 44 181 44 44 181 44 44 181 44 44 
0 0 0 0 0 0 181 44 44 181 44 44 0 0 0 0 0 0 0 0 0 0 0 0 0 0 0 0 0 0 0 0 0 
0 0 0 0 0 0 0 0 0 181 44 44 0 0 0 0 0 0 29 28 11 18 17 7 14 13 5 13 13 5 
13 13 4 14 13 4 24 22 8 0 0 0 0 0 0 7 2 2 26 6 6 57 14 14 118 29 29 148 36 36 
143 35 35 152 37 37 174 42 42 183 45 45 182 44 44 182 44 44 185 45 45 
185 45 45 182 44 44 181 44 44 181 44 44 182 44 44 184 45 45 172 42 42 
146 36 36 147 36 36 175 42 42 175 42 42 146 36 36 145 35 35 172 42 42 
184 45 45 182 44 44 181 44 44 181 44 44 0 0 0 0 0 0 181 44 44 181 44 44 
181 44 44 181 44 44 181 44 44 181 44 44 0 0 0 0 0 0 181 44 44 181 44 44 
0 0 0 0 0 0 0 0 0 0 0 0 0 0 0 0 0 0 0 0 0 0 0 0 0 0 0 0 0 0 181 44 44 
66 30 18 0 0 0 0 0 0 0 0 0 0 0 0 0 0 0 7 7 2 10 10 3 6 6 2 0 0 0 0 0 0 0 0 0 
0 0 0 26 6 6 148 36 36 209 51 51 199 48 48 191 46 46 184 45 45 180 44 44 
181 44 44 181 44 44 181 44 44 181 44 44 181 44 44 181 44 44 181 43 43 
180 43 43 180 43 43 184 44 44 192 45 45 191 45 45 183 43 43 183 43 43 
191 45 45 192 46 46 184 44 44 180 44 44 181 44 44 181 44 44 181 44 44 
0 0 0 0 0 0 181 44 44 181 44 44 181 44 44 181 44 44 0 0 0 0 0 0 0 0 0 0 0 0 
0 0 0 0 0 0 181 44 44 181 44 44 0 0 0 0 0 0 181 44 44 181 44 44 181 44 44 
181 44 44 181 44 44 181 44 44 0 0 0 142 40 36 0 0 0 0 0 0 0 0 0 0 0 0 1 0 0 
2 2 1 2 2 1 1 1 0 0 0 0 10 0 2 0 0 0 0 0 0 32 8 8 143 35 35 199 48 48 
190 46 46 184 45 45 182 44 44 181 44 44 181 44 44 181 44 44 181 44 44 
181 44 44 181 44 44 181 43 43 180 41 41 180 40 40 180 40 40 181 41 41 
184 41 41 184 41 41 181 41 41 181 40 40 184 41 41 184 42 42 182 44 44 
181 44 44 181 44 44 181 44 44 181 44 44 0 0 0 0 0 0 181 44 44 181 44 44 
181 44 44 181 44 44 0 0 0 0 0 0 0 0 0 0 0 0 0 0 0 0 0 0 181 44 44 181 44 44 
0 0 0 0 0 0 181 44 44 181 44 44 181 44 44 181 44 44 181 44 44 181 44 44 
0 0 0 0 0 0 175 42 42 176 43 43 225 55 55 0 0 0 0 0 0 0 0 0 0 0 0 0 0 0 0 0 0 
0 0 0 0 0 0 0 0 0 36 9 9 145 35 35 197 48 48 186 45 45 181 44 44 181 43 43 
181 43 43 181 43 43 181 43 43 181 43 43 181 43 43 181 42 42 181 45 45 
183 52 52 184 55 55 184 55 55 183 54 54 182 51 51 182 51 51 183 54 54 
184 55 55 184 55 55 183 52 52 181 45 45 181 42 42 181 44 44 181 44 44 
181 44 44 0 0 0 0 0 0 0 0 0 0 0 0 0 0 0 0 0 0 181 44 44 181 44 44 181 44 44 
181 44 44 181 44 44 181 44 44 0 0 0 0 0 0 0 0 0 0 0 0 181 44 44 181 44 44 
181 44 44 181 44 44 181 44 44 181 44 44 0 0 0 0 0 0 180 44 44 181 44 44 
184 45 45 224 55 54 0 0 0 0 0 0 0 0 0 0 0 0 0 0 0 0 0 0 0 0 0 0 0 0 39 10 10 
155 38 38 205 50 50 188 46 46 180 43 43 180 41 41 180 40 40 180 40 40 
180 40 40 180 40 40 180 39 39 179 37 37 182 49 49 188 76 76 191 88 88 
191 86 86 190 82 82 187 75 75 187 75 75 190 82 82 191 86 86 191 88 88 
188 76 76 182 49 49 180 38 38 181 42 42 181 44 44 181 45 45 0 0 0 0 0 0 0 0 0 
0 0 0 0 0 0 0 0 0 181 44 44 181 44 44 181 44 44 181 44 44 181 44 44 181 44 44 
0 0 0 0 0 0 0 0 0 0 0 0 181 44 44 181 44 44 181 44 44 181 44 44 181 44 44 
181 44 44 0 0 0 0 0 0 181 44 44 181 44 44 181 44 44 177 43 43 0 0 0 0 0 0 
3 1 1 1 0 0 0 0 0 0 0 0 0 0 0 0 0 0 29 7 7 112 27 27 163 39 39 180 43 43 
188 48 48 185 54 54 184 56 56 184 56 56 184 55 55 183 55 55 183 53 53 
183 51 51 185 63 63 191 87 87 193 97 97 192 93 93 196 103 103 205 126 126 
205 126 126 196 103 103 192 93 93 193 97 97 191 87 87 185 63 63 182 49 49 
181 44 44 181 42 42 181 43 43 181 45 45 183 51 51 0 0 0 0 0 0 0 0 0 0 0 0 
181 44 44 181 44 44 181 44 44 181 44 44 181 44 44 181 44 44 0 0 0 0 0 0 181 44 44 
181 44 44 0 0 0 0 0 0 181 44 44 181 44 44 181 44 44 181 44 44 0 0 0 0 0 0 
181 44 44 181 44 44 181 44 44 179 44 44 0 0 0 0 0 0 6 2 2 2 0 0 0 0 0 0 0 0 
0 0 0 0 0 0 5 1 1 19 5 5 71 16 16 163 37 37 204 58 58 196 81 81 191 91 91 
191 89 89 191 87 87 191 85 85 191 84 84 191 85 85 190 85 85 189 85 85 
188 82 82 185 75 75 201 116 116 236 205 205 236 205 205 201 116 116 
185 75 75 188 82 82 189 86 86 191 88 88 189 75 75 182 49 49 180 38 38 
181 42 42 181 44 44 181 45 45 0 0 0 0 0 0 0 0 0 0 0 0 181 44 44 181 44 44 
181 44 44 181 44 44 181 44 44 181 44 44 0 0 0 0 0 0 181 44 44 181 44 44 
0 0 0 0 0 0 181 44 44 181 44 44 181 44 44 181 44 44 0 0 0 181 44 44 181 44 44 
181 44 44 181 44 44 181 44 44 226 55 55 0 0 0 0 0 0 0 0 0 5 1 1 31 7 7 32 8 8 
6 1 1 0 0 0 0 0 0 14 2 2 108 23 23 166 49 49 189 79 79 199 93 93 197 90 90 
195 91 91 194 98 98 194 100 100 193 98 98 197 106 106 205 126 126 207 132 132 
204 124 124 219 164 164 254 252 252 254 251 251 219 163 163 204 122 122 
207 130 130 205 126 126 197 108 108 191 88 88 185 63 63 182 49 49 181 45 45 
181 43 43 181 43 43 181 44 44 181 44 44 181 44 44 181 44 44 0 0 0 0 0 0 0 0 0 
0 0 0 0 0 0 0 0 0 181 44 44 181 44 44 0 0 0 0 0 0 181 44 44 181 44 44 
0 0 0 0 0 0 0 0 0 0 0 0 181 44 44 181 44 44 181 44 44 181 44 44 181 44 44 
181 44 44 188 46 46 255 127 127 0 0 0 0 0 0 21 5 5 120 29 29 123 30 30 
23 6 6 0 0 0 0 0 0 0 0 0 15 3 3 73 20 20 165 49 49 208 61 61 200 57 57 
196 67 67 195 91 91 193 99 99 190 91 91 205 128 128 237 209 209 251 246 246 
248 238 238 251 245 245 255 255 255 255 255 255 250 242 242 247 234 234 
250 243 243 236 206 206 204 125 125 189 85 85 191 87 87 188 75 75 183 52 52 
180 41 41 181 43 43 181 44 44 181 44 44 181 44 44 181 44 44 0 0 0 0 0 0 0 0 0 
0 0 0 0 0 0 0 0 0 181 44 44 181 44 44 0 0 0 0 0 0 181 44 44 181 44 44 
0 0 0 0 0 0 0 0 0 0 0 0 181 44 44 181 44 44 181 44 44 181 44 44 181 44 44 
181 44 44 186 45 45 217 53 53 78 19 19 28 7 7 68 17 17 170 41 41 173 42 42 
72 18 18 27 6 6 37 8 8 22 4 4 0 0 0 12 2 2 110 24 24 153 33 33 144 29 29 
154 42 42 184 75 75 197 86 86 192 77 77 206 114 114 238 196 196 252 234 234 
247 227 227 244 223 223 243 223 223 243 226 226 246 232 232 248 238 238 
251 244 244 236 205 205 204 123 123 190 87 87 193 98 98 191 88 88 184 55 55 
180 40 40 181 43 43 181 44 44 181 44 44 181 44 44 181 44 44 181 44 44 
181 44 44 0 0 0 0 0 0 181 44 44 181 44 44 0 0 0 0 0 0 0 0 0 0 0 0 181 44 44 
181 44 44 0 0 0 0 0 0 0 0 0 0 0 0 181 44 44 181 44 44 181 44 44 181 44 44 
181 44 44 181 44 44 184 45 45 185 45 45 171 42 42 148 36 36 151 37 37 
179 44 44 180 44 44 154 38 38 145 34 34 154 34 34 110 24 24 12 2 2 0 0 0 22 4 4 
37 7 7 27 5 5 69 18 18 164 47 47 207 60 60 199 56 56 199 65 65 208 87 87 
208 95 95 200 89 89 198 99 99 204 123 123 207 134 134 207 132 132 207 132 132 
208 134 134 204 124 124 196 102 102 192 94 94 194 99 99 191 86 86 184 55 55 
180 40 40 181 43 43 181 44 44 181 44 44 181 44 44 181 44 44 181 44 44 
181 44 44 0 0 0 0 0 0 181 44 44 181 44 44 0 0 0 0 0 0 0 0 0 0 0 0 181 44 44 
181 44 44 0 0 0 0 0 0 0 0 0 0 0 0 181 44 44 181 44 44 181 44 44 181 44 44 
0 0 0 181 44 44 180 44 44 180 44 44 184 45 45 192 47 47 192 47 47 183 44 44 
183 44 44 191 46 46 199 51 51 207 59 59 165 49 49 73 20 20 15 3 3 0 0 0 0 0 0 
0 0 0 19 4 4 112 24 24 154 34 34 147 33 33 142 29 29 137 22 22 147 20 20 
171 25 25 184 39 39 186 64 64 187 79 79 189 84 84 189 86 86 189 85 85 
190 87 87 192 93 93 194 97 97 194 99 99 191 84 84 183 54 54 180 40 40 
181 43 43 181 44 44 181 44 44 181 44 44 181 44 44 181 44 44 181 44 44 
181 44 44 181 44 44 0 0 0 0 0 0 0 0 0 0 0 0 0 0 0 0 0 0 0 0 0 0 0 0 181 44 44 
181 44 44 181 44 44 181 44 44 0 0 0 181 44 44 181 44 44 0 0 0 181 44 44 
181 44 44 181 44 44 181 44 44 182 44 44 185 45 45 185 45 45 182 44 44 
181 43 43 184 42 42 189 55 55 197 81 81 189 79 79 166 49 49 108 23 23 
14 2 2 0 0 0 0 0 0 5 1 1 29 6 6 39 8 8 38 8 8 33 6 6 24 2 2 67 11 11 161 34 34 
201 46 46 187 47 47 183 60 60 190 86 86 193 98 98 193 96 96 193 95 95 
193 95 95 193 96 96 194 99 99 190 84 84 183 54 54 180 40 40 180 39 39 
181 44 44 181 44 44 181 44 44 181 44 44 181 44 44 181 44 44 181 44 44 
181 44 44 0 0 0 0 0 0 0 0 0 0 0 0 0 0 0 0 0 0 0 0 0 0 0 0 181 44 44 181 44 44 
181 44 44 181 44 44 0 0 0 0 0 0 0 0 0 0 0 0 181 44 44 181 44 44 181 44 44 
181 44 44 181 44 44 181 44 44 181 44 44 181 44 44 181 43 43 180 40 40 
184 57 57 192 92 92 199 94 94 205 61 61 162 35 35 71 15 15 17 3 3 1 0 0 0 0 0 
0 0 0 0 0 0 0 0 0 0 0 0 0 0 0 18 5 5 110 27 27 163 38 38 179 38 38 189 51 51 
194 77 77 195 88 88 191 85 85 191 87 87 193 94 94 194 98 98 194 100 100 
191 85 85 183 54 54 180 39 39 180 39 39 181 44 44 181 44 44 181 44 44 
181 44 44 181 44 44 181 44 44 181 44 44 181 44 44 0 0 0 0 0 0 0 0 0 0 0 0 
0 0 0 0 0 0 0 0 0 0 0 0 181 44 44 181 44 44 181 44 44 181 44 44 0 0 0 0 0 0 
0 0 0 0 0 0 181 44 44 181 44 44 181 44 44 181 44 44 181 44 44 181 44 44 
181 44 44 181 44 44 181 43 43 180 40 40 184 57 57 192 93 93 194 92 92 
190 55 55 179 36 36 162 35 35 109 24 24 18 4 4 0 0 0 0 0 0 0 0 0 0 0 0 0 0 0 
0 0 0 0 0 0 17 4 4 71 17 17 162 38 38 205 51 51 200 56 56 194 57 57 185 52 52 
185 63 63 191 90 90 195 103 103 195 103 103 191 87 87 184 55 55 180 40 40 
181 42 42 181 44 44 181 44 44 181 44 44 181 44 44 181 44 44 181 44 44 
181 44 44 181 44 44 0 0 0 0 0 0 0 0 0 0 0 0 0 0 0 0 0 0 0 0 0 0 0 0 181 44 44 
181 44 44 181 44 44 181 44 44 0 0 0 0 0 0 0 0 0 0 0 0 186 45 45 186 45 45 
184 45 45 182 44 44 181 44 44 181 44 44 181 44 44 181 44 44 181 43 43 
180 41 41 183 53 53 189 79 79 189 81 81 184 61 61 189 54 54 205 60 60 
165 48 48 69 18 18 26 5 5 36 8 8 28 7 7 4 1 1 0 0 0 0 0 0 0 0 0 0 0 0 18 5 5 
112 27 27 154 37 37 145 32 32 151 32 32 172 35 35 185 50 50 189 76 76 
192 89 89 191 89 89 189 76 76 183 52 52 180 41 41 181 43 43 181 44 44 
181 44 44 181 44 44 181 44 44 181 44 44 181 44 44 181 44 44 181 44 44 
0 0 0 0 0 0 181 44 44 181 44 44 181 44 44 181 44 44 181 44 44 181 44 44 
0 0 0 0 0 0 0 0 0 0 0 0 181 44 44 0 0 0 0 0 0 0 0 0 195 47 47 195 47 47 
191 47 47 184 45 45 180 44 44 181 44 44 181 44 44 181 44 44 181 44 44 
181 43 43 181 45 45 182 50 50 185 61 61 189 79 79 193 88 88 198 90 90 
185 75 75 154 42 42 144 29 29 154 36 36 112 27 27 18 5 5 0 0 0 0 0 0 0 0 0 
0 0 0 4 1 1 28 7 7 36 9 9 27 6 6 66 15 15 151 35 35 191 48 48 186 53 53 
184 55 55 184 55 55 183 52 52 181 46 46 181 43 43 181 44 44 181 44 44 
181 44 44 181 44 44 181 44 44 181 44 44 181 44 44 181 44 44 181 44 44 
0 0 0 0 0 0 181 44 44 181 44 44 181 44 44 181 44 44 181 44 44 181 44 44 
0 0 0 0 0 0 0 0 0 0 0 0 181 44 44 0 0 0 0 0 0 0 0 0 132 32 32 137 33 33 
148 36 36 172 42 42 184 45 45 182 44 44 181 44 44 181 44 44 181 44 44 
181 44 44 181 42 42 179 37 37 183 52 52 191 87 87 195 104 104 194 104 104 
195 92 92 196 68 68 200 54 54 205 51 51 163 39 39 71 17 17 17 4 4 0 0 0 0 0 0 
0 0 0 0 0 0 0 0 0 0 0 0 0 0 0 28 7 7 145 36 36 198 47 47 186 42 42 180 40 40 
180 40 40 180 41 41 181 43 43 181 44 44 181 44 44 181 44 44 181 44 44 
181 44 44 181 44 44 181 44 44 181 44 44 181 44 44 181 44 44 181 44 44 
0 0 0 181 44 44 181 44 44 181 44 44 181 44 44 181 44 44 181 44 44 0 0 0 0 0 0 
0 0 0 0 0 0 0 0 0 0 0 0 0 0 0 0 0 0 0 0 0 20 5 5 61 15 15 147 36 36 192 47 47 
185 45 45 181 44 44 181 44 44 181 44 44 181 44 44 181 43 43 180 39 39 
183 53 53 191 85 85 194 101 101 194 101 101 195 99 99 196 95 95 195 80 80 
190 54 54 180 41 41 163 39 39 109 27 27 17 4 4 0 0 0 0 0 0 0 0 0 0 0 0 0 0 0 
0 0 0 36 9 9 154 38 38 205 50 50 188 45 45 180 42 42 180 43 43 181 43 43 
181 44 44 181 44 44 181 44 44 181 44 44 181 44 44 181 44 44 181 44 44 
181 44 44 181 44 44 181 44 44 181 44 44 181 44 44 181 44 44 0 0 0 181 44 44 
181 44 44 181 44 44 181 44 44 181 44 44 0 0 0 0 0 0 0 0 0 0 0 0 0 0 0 181 44 44 
198 48 48 240 58 58 75 18 18 0 0 0 27 7 7 148 36 36 196 48 48 186 45 45 
181 44 44 181 44 44 181 44 44 181 44 44 181 43 43 180 40 40 184 55 55 
191 85 85 193 96 96 191 87 87 191 85 85 192 90 90 189 80 80 182 53 53 
187 42 42 202 48 48 164 40 40 72 17 17 17 4 4 0 0 0 0 0 0 0 0 0 0 0 0 0 0 0 
24 6 6 108 26 26 158 39 39 176 43 43 184 45 45 182 44 44 181 44 44 181 44 44 
181 44 44 181 44 44 181 44 44 181 44 44 181 44 44 181 44 44 181 44 44 
181 44 44 181 44 44 181 44 44 181 44 44 181 44 44 0 0 0 0 0 0 181 44 44 
181 44 44 181 44 44 181 44 44 0 0 0 0 0 0 0 0 0 0 0 0 0 0 0 181 44 44 
182 44 44 184 45 45 168 41 41 52 13 13 78 19 19 183 45 45 194 47 47 185 45 45 
180 44 44 181 44 44 181 44 44 181 44 44 181 43 43 180 40 40 184 55 55 
191 88 88 192 89 89 185 61 61 182 49 49 183 54 54 183 54 54 181 46 46 
183 44 44 187 45 45 181 44 44 164 40 40 109 27 27 18 4 4 0 0 0 0 0 0 0 0 0 
0 0 0 0 0 0 6 1 1 59 14 14 150 36 36 192 47 47 184 45 45 181 44 44 181 44 44 
181 44 44 181 44 44 181 44 44 181 44 44 181 44 44 181 44 44 181 44 44 
181 44 44 181 44 44 181 44 44 181 44 44 181 44 44 0 0 0 0 0 0 181 44 44 
181 44 44 181 44 44 181 44 44 0 0 0 0 0 0 0 0 0 0 0 0 0 0 0 181 44 44 
181 44 44 180 44 44 187 45 45 255 122 122 201 49 49 139 34 34 148 36 36 
172 42 42 184 45 45 182 44 44 181 44 44 181 44 44 181 43 43 180 40 40 
184 56 56 192 89 89 192 91 91 185 63 63 182 46 46 180 41 41 180 40 40 
181 43 43 181 44 44 180 44 44 187 46 46 202 49 49 163 40 40 69 17 17 26 6 6 
33 8 8 37 9 9 38 9 9 31 7 7 16 4 4 55 13 13 149 36 36 192 47 47 184 45 45 
181 44 44 181 44 44 181 44 44 181 44 44 181 44 44 181 44 44 181 44 44 
181 44 44 181 44 44 181 44 44 181 44 44 181 44 44 181 44 44 181 44 44 
0 0 0 0 0 0 0 0 0 0 0 0 0 0 0 0 0 0 181 44 44 181 44 44 0 0 0 0 0 0 0 0 0 
181 44 44 181 44 44 180 44 44 212 52 52 0 0 0 5 1 1 21 5 5 62 15 15 148 36 36 
191 47 47 184 45 45 181 44 44 181 44 44 181 43 43 180 40 40 184 55 55 
191 88 88 194 101 101 193 94 94 189 77 77 183 51 51 180 40 40 181 43 43 
181 44 44 181 44 44 183 44 44 187 46 46 177 43 43 153 37 37 141 34 34 
143 35 35 144 35 35 145 35 35 142 35 35 138 34 34 148 36 36 173 42 42 
184 45 45 182 44 44 181 44 44 181 44 44 0 0 0 181 44 44 181 44 44 181 44 44 
181 44 44 181 44 44 181 44 44 181 44 44 181 44 44 181 44 44 181 44 44 
181 44 44 0 0 0 0 0 0 0 0 0 0 0 0 0 0 0 0 0 0 181 44 44 181 44 44 0 0 0 0 0 0 
0 0 0 0 0 0 0 0 0 0 0 0 0 0 0 0 0 0 0 0 0 0 0 0 21 5 5 137 33 33 195 47 47 
186 45 45 181 44 44 181 44 44 181 43 43 180 41 41 183 52 52 188 75 75 
191 88 88 192 91 91 189 79 79 183 53 53 180 41 41 181 43 43 181 44 44 
181 44 44 181 44 44 180 44 44 184 45 45 191 46 46 195 47 47 194 47 47 
194 47 47 194 47 47 194 47 47 195 47 47 191 46 46 184 45 45 180 44 44 
181 44 44 181 44 44 181 44 44 181 44 44 0 0 0 181 44 44 181 44 44 181 44 44 
181 44 44 181 44 44 181 44 44 181 44 44 181 44 44 181 44 44 181 44 44 
181 44 44 181 44 44 0 0 0 0 0 0 0 0 0 0 0 0 0 0 0 0 0 0 0 0 0 0 0 0 181 44 44 
0 0 0 0 0 0 0 0 0 0 0 0 0 0 0 0 0 0 0 0 0 17 4 4 135 33 33 195 47 47 186 45 45 
181 44 44 181 44 44 181 43 43 181 43 43 181 46 46 183 51 51 184 55 55 
184 56 56 183 53 53 181 46 46 181 43 43 181 43 43 181 44 44 181 44 44 
181 44 44 181 44 44 182 44 44 184 45 45 186 45 45 185 45 45 185 45 45 
185 45 45 185 45 45 186 45 45 184 45 45 182 44 44 181 44 44 181 44 44 
181 44 44 181 44 44 181 44 44 0 0 0 181 44 44 181 44 44 181 44 44 181 44 44 
181 44 44 181 44 44 181 44 44 181 44 44 181 44 44 181 44 44 181 44 44 
181 44 44 0 0 0 0 0 0 0 0 0 0 0 0 0 0 0 0 0 0 0 0 0 0 0 0 181 44 44 0 0 0 
0 0 0 0 0 0 0 0 0 0 0 0 2 0 0 0 0 0 0 0 0 0 0 0 0 0 0 0 0 0 0 0 0 0 0 0 181 45 45 
181 44 44 181 43 43 180 40 40 180 39 39 180 40 40 180 41 41 181 43 43 
181 44 44 181 44 44 181 44 44 181 44 44 181 44 44 181 44 44 181 44 44 
181 44 44 181 44 44 181 44 44 181 44 44 181 44 44 181 44 44 181 44 44 
181 44 44 181 44 44 181 44 44 181 44 44 181 44 44 181 44 44 181 44 44 
181 44 44 181 44 44 181 44 44 181 44 44 181 44 44 181 44 44 181 44 44 
181 44 44 181 44 44 181 44 44 181 44 44 181 44 44 181 44 44 0 0 0 0 0 0 181 44 44 
181 44 44 181 44 44 181 44 44 181 44 44 181 44 44 0 0 0 0 0 0 0 0 0 0 0 0 
0 0 0 0 0 0 0 0 0 2 0 0 0 0 0 0 0 0 0 0 0 0 0 0 0 0 0 0 0 0 181 45 45 
181 45 45 181 43 43 179 38 38 180 41 41 181 43 43 181 43 43 181 43 43 
181 44 44 181 44 44 181 44 44 181 44 44 181 44 44 181 44 44 181 44 44 
181 44 44 181 44 44 181 44 44 181 44 44 181 44 44 181 44 44 181 44 44 
181 44 44 181 44 44 181 44 44 181 44 44 181 44 44 181 44 44 181 44 44 
181 44 44 181 44 44 181 44 44 181 44 44 181 44 44 181 44 44 181 44 44 
181 44 44 181 44 44 181 44 44 181 44 44 181 44 44 181 44 44 0 0 0 0 0 0 181 44 44 
181 44 44 181 44 44 181 44 44 181 44 44 181 44 44 0 0 0 0 0 0 0 0 0 0 0 0 
0 0 0 0 0 0 0 0 0 0 0 0 0 0 0 0 0 0 0 0 0 0 0 0 181 44 44 181 44 44 0 0 0 
0 0 0 0 0 0 0 0 0 181 44 44 181 44 44 181 44 44 181 44 44 181 44 44 181 44 44 
181 44 44 181 44 44 181 44 44 181 44 44 181 44 44 181 44 44 181 44 44 
181 44 44 181 44 44 181 44 44 181 44 44 181 44 44 181 44 44 181 44 44 
181 44 44 181 44 44 181 44 44 181 44 44 181 44 44 181 44 44 181 44 44 
181 44 44 0 0 0 0 0 0 181 44 44 181 44 44 181 44 44 181 44 44 181 44 44 
181 44 44 181 44 44 181 44 44 181 44 44 0 0 0 181 44 44 181 44 44 181 44 44 
181 44 44 181 44 44 181 44 44 0 0 0 0 0 0 0 0 0 0 0 0 0 0 0 0 0 0 0 0 0 0 0 0 
0 0 0 0 0 0 0 0 0 0 0 0 181 44 44 181 44 44 0 0 0 0 0 0 0 0 0 0 0 0 0 0 0 
181 44 44 181 44 44 181 44 44 181 44 44 181 44 44 181 44 44 181 44 44 
181 44 44 181 44 44 181 44 44 181 44 44 181 44 44 181 44 44 181 44 44 
181 44 44 181 44 44 181 44 44 181 44 44 181 44 44 181 44 44 181 44 44 
181 44 44 181 44 44 181 44 44 181 44 44 181 44 44 181 44 44 181 44 44 
181 44 44 0 0 0 181 44 44 181 44 44 181 44 44 181 44 44 181 44 44 181 44 44 
181 44 44 181 44 44 181 44 44 0 0 0 181 44 44 181 44 44 181 44 44 181 44 44 
181 44 44 0 0 0 0 0 0 0 0 0 0 0 0 0 0 0 0 0 0 0 0 0 0 0 0 0 0 0 0 0 0 0 0 0 
0 0 0 0 0 0 0 0 0 0 0 0 0 0 0 181 44 44 181 44 44 181 44 44 0 0 0 181 44 44 
181 44 44 181 44 44 181 44 44 181 44 44 181 44 44 181 44 44 181 44 44 
181 44 44 181 44 44 181 44 44 181 44 44 181 44 44 181 44 44 181 44 44 
181 44 44 181 44 44 181 44 44 181 44 44 181 44 44 181 44 44 181 44 44 
181 44 44 181 44 44 181 44 44 181 44 44 181 44 44 181 44 44 181 44 44 
0 0 0 0 0 0 0 0 0 0 0 0 181 44 44 181 44 44 181 44 44 181 44 44 181 44 44 
0 0 0 0 0 0 0 0 0 0 0 0 0 0 0 0 0 0 181 44 44 0 0 0 0 0 0 0 0 0 0 0 0 0 0 0 
1 0 0 1 0 0 0 0 0 0 0 0 0 0 0 0 0 0 0 0 0 0 0 0 0 0 0 0 0 0 181 44 44 
181 44 44 181 44 44 181 44 44 0 0 0 181 44 44 181 44 44 181 44 44 181 44 44 
181 44 44 181 44 44 181 44 44 181 44 44 181 44 44 181 44 44 181 44 44 
181 44 44 181 44 44 181 44 44 181 44 44 181 44 44 181 44 44 181 44 44 
181 44 44 0 0 0 181 44 44 181 44 44 181 44 44 181 44 44 181 44 44 181 44 44 
181 44 44 181 44 44 181 44 44 0 0 0 0 0 0 181 44 44 181 44 44 181 44 44 
181 44 44 181 44 44 181 44 44 0 0 0 0 0 0 0 0 0 0 0 0 0 0 0 0 0 0 181 44 44 
181 44 44 201 49 49 255 62 62 80 20 20 9 2 2 0 0 0 0 0 0 0 0 0 0 0 0 0 0 0 
0 0 0 0 0 0 0 0 0 0 0 0 0 0 0 181 44 44 181 44 44 181 44 44 181 44 44 
0 0 0 0 0 0 0 0 0 181 44 44 181 44 44 181 44 44 181 44 44 181 44 44 181 44 44 
181 44 44 181 44 44 181 44 44 181 44 44 181 44 44 181 44 44 181 44 44 
181 44 44 181 44 44 181 44 44 181 44 44 181 44 44 0 0 0 0 0 0 0 0 0 181 44 44 
181 44 44 181 44 44 181 44 44 181 44 44 181 44 44 181 44 44 0 0 0 181 44 44 
181 44 44 181 44 44 181 44 44 181 44 44 181 44 44 0 0 0 0 0 0 0 0 0 0 0 0 
0 0 0 0 0 0 0 0 0 181 44 44 186 45 45 196 48 48 136 33 33 31 7 7 0 0 0 0 0 0 
0 0 0 0 0 0 0 0 0 0 0 0 0 0 0 0 0 0 0 0 0 0 0 0 181 44 44 181 44 44 181 44 44 
181 44 44 0 0 0 0 0 0 181 44 44 181 44 44 181 44 44 181 44 44 181 44 44 
181 44 44 181 44 44 181 44 44 181 44 44 181 44 44 181 44 44 181 44 44 
181 44 44 181 44 44 181 44 44 181 44 44 181 44 44 181 44 44 181 44 44 
181 44 44 0 0 0 0 0 0 181 44 44 181 44 44 181 44 44 181 44 44 181 44 44 
181 44 44 181 44 44 181 44 44 0 0 0 181 44 44 181 44 44 181 44 44 181 44 44 
181 44 44 0 0 0 0 0 0 0 0 0 0 0 0 0 0 0 0 0 0 0 0 0 181 44 44 186 45 45 
196 48 48 136 33 33 30 7 7 0 0 0 0 0 0 0 0 0 0 0 0 181 44 44 181 44 44 
0 0 0 0 0 0 0 0 0 0 0 0 181 44 44 181 44 44 181 44 44 181 44 44 0 0 0 0 0 0 
181 44 44 181 44 44 181 44 44 181 44 44 181 44 44 181 44 44 181 44 44 
181 44 44 0 0 0 0 0 0 181 44 44 181 44 44 181 44 44 181 44 44 181 44 44 
181 44 44 181 44 44 181 44 44 181 44 44 181 44 44 181 44 44 181 44 44 
0 0 0 0 0 0 181 44 44 181 44 44 181 44 44 181 44 44 181 44 44 181 44 44 
181 44 44 0 0 0 0 0 0 0 0 0 0 0 0 0 0 0 181 44 44 181 44 44 0 0 0 0 0 0 0 0 0 
0 0 0 0 0 0 181 44 44 203 49 49 255 64 64 78 19 19 9 2 2 0 0 0 0 0 0 0 0 0 
0 0 0 181 44 44 181 44 44 0 0 0 0 0 0 0 0 0 0 0 0 181 44 44 181 44 44 
181 44 44 0 0 0 0 0 0 0 0 0 181 44 44 181 44 44 181 44 44 181 44 44 181 44 44 
181 44 44 181 44 44 181 44 44 0 0 0 0 0 0 181 44 44 181 44 44 181 44 44 
181 44 44 181 44 44 181 44 44 181 44 44 181 44 44 181 44 44 181 44 44 
181 44 44 181 44 44 0 0 0 0 0 0 181 44 44 181 44 44 181 44 44 181 44 44 
181 44 44 181 44 44 181 44 44 181 44 44 0 0 0 0 0 0 0 0 0 0 0 0 181 44 44 
181 44 44 0 0 0 0 0 0 0 0 0 0 0 0 0 0 0 0 0 0 0 0 0 0 0 0 0 0 0 0 0 0 8 2 2 
88 21 21 255 67 67 255 255 255 0 0 0 0 0 0 0 0 0 0 0 0 181 44 44 181 44 44 
0 0 0 0 0 0 0 0 0 181 44 44 181 44 44 181 44 44 0 0 0 0 0 0 0 0 0 0 0 0 0 0 0 
0 0 0 0 0 0 0 0 0 181 44 44 181 44 44 0 0 0 0 0 0 181 44 44 181 44 44 
181 44 44 181 44 44 181 44 44 181 44 44 181 44 44 181 44 44 181 44 44 
181 44 44 0 0 0 0 0 0 0 0 0 0 0 0 181 44 44 181 44 44 181 44 44 181 44 44 
181 44 44 181 44 44 181 44 44 181 44 44 181 44 44 181 44 44 0 0 0 0 0 0 181 44 44 
181 44 44 0 0 0 0 0 0 0 0 0 0 0 0 0 0 0 0 0 0 0 0 0 0 0 0 73 18 18 168 41 41 
189 46 46 255 69 69 0 0 0 0 0 0 0 0 0 0 0 0 181 44 44 181 44 44 0 0 0 0 0 0 
181 44 44 181 44 44 181 44 44 181 44 44 0 0 0 0 0 0 0 0 0 0 0 0 0 0 0 0 0 0 
0 0 0 0 0 0 181 44 44 181 44 44 0 0 0 0 0 0 181 44 44 181 44 44 181 44 44 
181 44 44 181 44 44 181 44 44 181 44 44 181 44 44 181 44 44 181 44 44 
0 0 0 0 0 0 0 0 0 0 0 0 181 44 44 181 44 44 181 44 44 181 44 44 181 44 44 
181 44 44 181 44 44 181 44 44 181 44 44 181 44 44 0 0 0 0 0 0 181 44 44 
181 44 44 0 0 0 0 0 0 0 0 0 181 44 44 0 0 0 0 0 0 0 0 0 255 125 125 
214 52 52 187 45 45 171 42 42 100 24 24 0 0 0 0 0 0 0 0 0 0 0 0 0 0 0 0 0 0 
0 0 0 0 0 0 181 44 44 181 44 44 181 44 44 181 44 44 0 0 0 0 0 0 181 44 44 
181 44 44 0 0 0 0 0 0 0 0 0 0 0 0 181 44 44 181 44 44 181 44 44 181 44 44 
0 0 0 0 0 0 181 44 44 181 44 44 181 44 44 181 44 44 181 44 44 181 44 44 
181 44 44 181 44 44 181 44 44 181 44 44 0 0 0 0 0 0 0 0 0 0 0 0 181 44 44 
181 44 44 181 44 44 181 44 44 181 44 44 181 44 44 181 44 44 181 44 44 
181 44 44 181 44 44 0 0 0 0 0 0 181 44 44 181 44 44 0 0 0 181 44 44 0 0 0 
0 0 0 192 47 47 187 46 46 189 46 46 192 47 47 148 36 36 42 10 10 0 0 0 0 0 0 
0 0 0 0 0 0 0 0 0 0 0 0 0 0 0 0 0 0 181 44 44 181 44 44 181 44 44 181 44 44 
0 0 0 0 0 0 181 44 44 181 44 44 0 0 0 0 0 0 0 0 0 0 0 0 181 44 44 181 44 44 
181 44 44 181 44 44 0 0 0 0 0 0 181 44 44 181 44 44 181 44 44 181 44 44 
0 0 0 181 44 44 181 44 44 181 44 44 181 44 44 181 44 44 0 0 0 0 0 0 0 0 0 
0 0 0 0 0 0 181 44 44 181 44 44 181 44 44 181 44 44 181 44 44 181 44 44 
181 44 44 181 44 44 181 44 44 0 0 0 0 0 0 181 44 44 181 44 44 0 0 0 0 0 0 
181 44 44 181 44 44 181 44 44 181 44 44 184 45 45 194 47 47 137 33 33 
31 8 8 0 0 0 0 0 0 0 0 0 0 0 0 0 0 0 0 0 0 181 44 44 181 44 44 0 0 0 0 0 0 
0 0 0 0 0 0 181 44 44 181 44 44 0 0 0 0 0 0 181 44 44 181 44 44 181 44 44 
181 44 44 0 0 0 0 0 0 0 0 0 0 0 0 0 0 0 0 0 0 0 0 0 0 0 0 0 0 0 0 0 0 0 0 0 
0 0 0 181 44 44 181 44 44 181 44 44 181 44 44 181 44 44 181 44 44 181 44 44 
181 44 44 181 44 44 0 0 0 0 0 0 0 0 0 181 44 44 181 44 44 181 44 44 181 44 44 
181 44 44 181 44 44 181 44 44 181 44 44 0 0 0 0 0 0 181 44 44 0 0 0 181 44 44 
181 44 44 181 44 44 181 44 44 182 44 44 189 46 46 122 30 30 22 5 5 0 0 0 0 0 0 
0 0 0 0 0 0 0 0 0 0 0 0 181 44 44 181 44 44 0 0 0 0 0 0 0 0 0 0 0 0 181 44 44 
181 44 44 0 0 0 0 0 0 181 44 44 181 44 44 181 44 44 181 44 44 0 0 0 0 0 0 
0 0 0 0 0 0 0 0 0 0 0 0 0 0 0 0 0 0 0 0 0 0 0 0 0 0 0 0 0 0 181 44 44 
181 44 44 181 44 44 181 44 44 181 44 44 181 44 44 181 44 44 181 44 44 
181 44 44 181 44 44 0 0 0 0 0 0 181 44 44 181 44 44 181 44 44 181 44 44 
181 44 44 181 44 44 181 44 44 181 44 44 0 0 0 0 0 0 181 44 44 0 0 0 181 44 44 
181 44 44 181 44 44 181 44 44 181 44 44 175 43 43 0 0 0 0 0 0 0 0 0 198 48 48 
177 43 43 180 44 44 181 44 44 181 44 44 0 0 0 0 0 0 181 44 44 181 44 44 
181 44 44 181 44 44 0 0 0 0 0 0 0 0 0 0 0 0 181 44 44 181 44 44 181 44 44 
181 44 44 0 0 0 0 0 0 0 0 0 0 0 0 0 0 0 0 0 0 1 0 0 6 1 1 0 0 0 0 0 0 0 0 0 
0 0 0 0 0 0 0 0 0 181 44 44 181 44 44 181 44 44 181 44 44 181 44 44 181 44 44 
181 44 44 181 44 44 0 0 0 0 0 0 181 44 44 181 44 44 181 44 44 0 0 0 181 44 44 
181 44 44 181 44 44 181 44 44 181 44 44 181 44 44 0 0 0 0 0 0 181 44 44 
181 44 44 181 44 44 181 44 44 181 44 44 179 44 44 0 0 0 0 0 0 204 50 50 
182 44 44 181 44 44 181 44 44 181 44 44 181 44 44 0 0 0 0 0 0 181 44 44 
181 44 44 181 44 44 181 44 44 0 0 0 0 0 0 0 0 0 0 0 0 181 44 44 181 44 44 
181 44 44 181 44 44 0 0 0 0 0 0 0 0 0 0 0 0 0 0 0 0 0 0 0 0 0 4 1 1 0 0 0 
0 0 0 0 0 0 0 0 0 0 0 0 0 0 0 181 44 44 181 44 44 181 44 44 181 44 44 
181 44 44 181 44 44 181 44 44 181 44 44 0 0 0 0 0 0 181 44 44 181 44 44 
181 44 44 181 44 44 181 44 44 181 44 44 181 44 44 181 44 44 181 44 44 
181 44 44 0 0 0 0 0 0 181 44 44 181 44 44 181 44 44 181 44 44 181 44 44 
181 44 44 0 0 0 0 0 0 181 44 44 181 44 44 181 44 44 181 44 44 181 44 44 
181 44 44 181 44 44 181 44 44 0 0 0 0 0 0 0 0 0 0 0 0 181 44 44 181 44 44 
181 44 44 181 44 44 181 44 44 181 44 44 181 44 44 181 44 44 0 0 0 0 0 0 0 0 0 
0 0 0 0 0 0 0 0 0 0 0 0 0 0 0 0 0 0 204 50 50 181 44 44 181 44 44 181 44 44 
181 44 44 0 0 0 0 0 0 0 0 0 0 0 0 0 0 0 0 0 0 0 0 0 0 0 0 181 44 44 181 44 44 
181 44 44 181 44 44 181 44 44 181 44 44 181 44 44 181 44 44 181 44 44 
181 44 44 181 44 44 181 44 44 0 0 0 0 0 0 181 44 44 181 44 44 181 44 44 
181 44 44 181 44 44 181 44 44 0 0 0 0 0 0 0 0 0 181 44 44 181 44 44 181 44 44 
181 44 44 181 44 44 181 44 44 181 44 44 0 0 0 0 0 0 0 0 0 0 0 0 181 44 44 
181 44 44 181 44 44 181 44 44 181 44 44 181 44 44 181 44 44 181 44 44 
0 0 0 0 0 0 0 0 0 0 0 0 0 0 0 0 0 0 0 0 0 0 0 0 199 48 48 182 44 44 181 44 44 
181 44 44 181 44 44 181 44 44 0 0 0 0 0 0 0 0 0 0 0 0 0 0 0 0 0 0 0 0 0 0 0 0 
181 44 44 181 44 44 181 44 44 181 44 44 181 44 44 181 44 44 0 0 0 181 44 44 
181 44 44 181 44 44 181 44 44 181 44 44 0 0 0 181 44 44 0 0 0 0 0 0 0 0 0 
0 0 0 0 0 0 0 0 0 181 44 44 181 44 44 181 44 44 0 0 0 0 0 0 0 0 0 181 44 44 
181 44 44 181 44 44 181 44 44 0 0 0 0 0 0 0 0 0 0 0 0 181 44 44 181 44 44 
181 44 44 181 44 44 181 44 44 178 43 43 0 0 0 0 0 0 0 0 0 0 0 0 0 0 0 0 0 0 
0 0 0 0 0 0 0 0 0 0 0 0 176 43 43 181 44 44 181 44 44 181 44 44 181 44 44 
181 44 44 0 0 0 0 0 0 0 0 0 0 0 0 0 0 0 0 0 0 0 0 0 0 0 0 181 44 44 181 44 44 
181 44 44 181 44 44 181 44 44 181 44 44 0 0 0 0 0 0 0 0 0 0 0 0 0 0 0 0 0 0 
181 44 44 181 44 44 0 0 0 0 0 0 0 0 0 0 0 0 0 0 0 0 0 0 181 44 44 181 44 44 
181 44 44 181 44 44 0 0 0 0 0 0 181 44 44 181 44 44 181 44 44 181 44 44 
0 0 0 0 0 0 0 0 0 0 0 0 181 44 44 181 44 44 181 44 44 181 44 44 179 44 44 
152 37 37 0 0 0 0 0 0 0 0 0 0 0 0 0 0 0 0 0 0 0 0 0 0 0 0 0 0 0 0 0 0 175 42 42 
180 44 44 181 44 44 181 44 44 181 44 44 181 44 44 0 0 0 0 0 0 0 0 0 0 0 0 
0 0 0 0 0 0 0 0 0 0 0 0 181 44 44 181 44 44 181 44 44 181 44 44 181 44 44 
181 44 44 0 0 0 0 0 0 0 0 0 0 0 0 0 0 0 0 0 0 181 44 44 0 0 0 0 0 0 0 0 0 
0 0 0 0 0 0 181 44 44 181 44 44 181 44 44 181 44 44 181 44 44 181 44 44 
0 0 0 0 0 0 0 0 0 0 0 0 0 0 0 0 0 0 181 44 44 181 44 44 181 44 44 181 44 44 
0 0 0 0 0 0 0 0 0 0 0 0 0 0 0 0 0 0 18 4 4 2 0 0 0 0 0 0 0 0 0 0 0 0 0 0 0 0 0 
0 0 0 181 44 44 181 44 44 0 0 0 0 0 0 0 0 0 0 0 0 0 0 0 0 0 0 181 44 44 
0 0 0 181 44 44 181 44 44 181 44 44 181 44 44 181 44 44 181 44 44 0 0 0 0 0 0 
0 0 0 0 0 0 0 0 0 0 0 0 181 44 44 181 44 44 0 0 0 0 0 0 0 0 0 0 0 0 0 0 0 
0 0 0 0 0 0 0 0 0 0 0 0 0 0 0 181 44 44 181 44 44 181 44 44 181 44 44 
181 44 44 181 44 44 0 0 0 0 0 0 0 0 0 0 0 0 0 0 0 0 0 0 181 44 44 181 44 44 
181 44 44 181 44 44 0 0 0 0 0 0 0 0 0 0 0 0 0 0 0 0 0 0 2 0 0 0 0 0 0 0 0 
0 0 0 0 0 0 0 0 0 0 0 0 0 0 0 181 44 44 181 44 44 0 0 0 0 0 0 0 0 0 0 0 0 
0 0 0 0 0 0 0 0 0 0 0 0 181 44 44 181 44 44 181 44 44 181 44 44 181 44 44 
181 44 44 0 0 0 0 0 0 0 0 0 0 0 0 0 0 0 0 0 0 181 44 44 181 44 44 0 0 0 0 0 0 
0 0 0 0 0 0 0 0 0 0 0 0 0 0 0 0 0 0 0 0 0 0 0 0 181 44 44 181 44 44 181 44 44 
181 44 44 181 44 44 181 44 44 0 0 0 0 0 0 0 0 0 0 0 0 0 0 0 0 0 0 0 0 0 0 0 0 
0 0 0 0 0 0 0 0 0 0 0 0 0 0 0 0 0 0 0 0 0 0 0 0 0 0 0 0 0 0 0 0 0 0 0 0 0 0 0 
0 0 0 0 0 0 0 0 0 0 0 0 0 0 0 0 0 0 0 0 0 0 0 0 0 0 0 0 0 0 0 0 0 0 0 0 0 0 0 
181 44 44 181 44 44 181 44 44 181 44 44 181 44 44 181 44 44 0 0 0 0 0 0 0 0 0 
0 0 0 0 0 0 0 0 0 0 0 0 0 0 0 0 0 0 0 0 0 0 0 0 0 0 0 0 0 0 
