P3
64 64
255
255
0
255
255
0
255
255
0
255
255
0
255
255
0
255
255
0
255
255
0
255
255
0
255
255
0
255
255
0
255
255
0
255
255
0
255
255
0
255
255
0
255
255
0
255
255
0
255
255
0
255
255
0
255
255
0
255
255
0
255
255
0
255
181
44
44
181
44
44
255
0
255
255
0
255
255
0
255
255
0
255
181
44
44
181
44
44
255
0
255
255
0
255
255
0
255
255
0
255
255
0
255
255
0
255
181
44
44
181
44
44
181
44
44
181
44
44
255
0
255
255
0
255
255
0
255
255
0
255
255
0
255
255
0
255
181
44
44
181
44
44
181
44
44
181
44
44
181
44
44
181
44
44
255
0
255
255
0
255
255
0
255
255
0
255
255
0
255
255
0
255
255
0
255
255
0
255
255
0
255
255
0
255
255
0
255
255
0
255
255
0
255
255
0
255
255
0
255
255
0
255
181
44
44
181
44
44
255
0
255
255
0
255
255
0
255
255
0
255
255
0
255
255
0
255
181
44
44
181
44
44
255
0
255
255
0
255
255
0
255
255
0
255
255
0
255
255
0
255
255
0
255
255
0
255
255
0
255
255
0
255
181
44
44
181
44
44
181
44
44
181
44
44
255
0
255
255
0
255
255
0
255
255
0
255
255
0
255
255
0
255
255
0
255
255
0
255
181
44
44
181
44
44
181
44
44
181
44
44
255
0
255
255
0
255
255
0
255
255
0
255
255
0
255
255
0
255
181
44
44
181
44
44
181
44
44
181
44
44
181
44
44
181
44
44
255
0
255
255
0
255
255
0
255
255
0
255
255
0
255
255
0
255
255
0
255
255
0
255
181
44
44
181
44
44
255
0
255
255
0
255
255
0
255
255
0
255
255
0
255
255
0
255
181
44
44
181
44
44
255
0
255
255
0
255
255
0
255
255
0
255
255
0
255
255
0
255
181
44
44
181
44
44
255
0
255
255
0
255
255
0
255
255
0
255
255
0
255
255
0
255
255
0
255
255
0
255
255
0
255
255
0
255
181
44
44
181
44
44
181
44
44
181
44
44
255
0
255
255
0
255
255
0
255
255
0
255
255
0
255
255
0
255
255
0
255
255
0
255
181
44
44
181
44
44
181
44
44
181
44
44
255
0
255
255
0
255
255
0
255
255
0
255
181
44
44
255
0
255
181
44
44
181
44
44
181
44
44
181
44
44
181
44
44
181
44
44
255
0
255
181
44
44
255
0
255
255
0
255
255
0
255
255
0
255
255
0
255
255
0
255
181
44
44
181
44
44
255
0
255
255
0
255
255
0
255
255
0
255
255
0
255
255
0
255
255
0
255
255
0
255
181
44
44
181
44
44
181
44
44
181
44
44
181
44
44
181
44
44
255
0
255
255
0
255
255
0
255
255
0
255
255
0
255
255
0
255
181
44
44
181
44
44
255
0
255
255
0
255
255
0
255
255
0
255
181
44
44
181
44
44
181
44
44
181
44
44
255
0
255
255
0
255
255
0
255
255
0
255
255
0
255
255
0
255
255
0
255
255
0
255
181
44
44
181
44
44
181
44
44
181
44
44
255
0
255
181
44
44
181
44
44
181
44
44
255
0
255
255
0
255
255
0
255
255
0
255
255
0
255
255
0
255
255
0
255
255
0
255
255
0
255
255
0
255
181
44
44
181
44
44
181
44
44
181
44
44
181
44
44
181
44
44
255
0
255
255
0
255
181
44
44
181
44
44
255
0
255
255
0
255
255
0
255
255
0
255
255
0
255
255
0
255
181
44
44
181
44
44
181
44
44
181
44
44
181
44
44
181
44
44
255
0
255
255
0
255
255
0
255
255
0
255
255
0
255
255
0
255
181
44
44
181
44
44
255
0
255
255
0
255
255
0
255
255
0
255
181
44
44
181
44
44
181
44
44
181
44
44
255
0
255
255
0
255
255
0
255
255
0
255
255
0
255
255
0
255
181
44
44
255
0
255
181
44
44
181
44
44
181
44
44
255
0
255
181
44
44
181
44
44
181
44
44
181
44
44
255
0
255
255
0
255
255
0
255
255
0
255
255
0
255
255
0
255
255
0
255
255
0
255
255
0
255
255
0
255
181
44
44
181
44
44
181
44
44
181
44
44
181
44
44
181
44
44
255
0
255
255
0
255
181
44
44
181
44
44
255
0
255
255
0
255
255
0
255
255
0
255
255
0
255
255
0
255
181
44
44
181
44
44
181
44
44
181
44
44
181
44
44
181
44
44
255
0
255
255
0
255
255
0
255
255
0
255
181
44
44
181
44
44
255
0
255
255
0
255
181
44
44
181
44
44
181
44
44
255
0
255
181
44
44
181
44
44
181
44
44
181
44
44
255
0
255
255
0
255
181
44
44
181
44
44
181
44
44
181
44
44
255
0
255
192
1
188
255
0
255
255
0
255
255
0
255
255
0
255
205
50
50
187
45
45
187
45
45
207
50
50
255
0
255
255
0
255
255
0
255
255
0
255
181
44
44
181
44
44
181
44
44
181
44
44
181
44
44
255
0
255
181
44
44
181
44
44
181
44
44
181
44
44
181
44
44
181
44
44
181
44
44
181
44
44
255
0
255
255
0
255
255
0
255
255
0
255
255
0
255
255
0
255
255
0
255
255
0
255
181
44
44
181
44
44
181
44
44
181
44
44
181
44
44
181
44
44
255
0
255
255
0
255
255
0
255
255
0
255
181
44
44
181
44
44
255
0
255
255
0
255
181
44
44
181
44
44
181
44
44
181
44
44
255
0
255
181
44
44
181
44
44
181
44
44
255
0
255
255
0
255
181
44
44
181
44
44
181
44
44
181
44
44
255
0
255
255
0
255
255
0
255
255
0
255
255
0
255
255
0
255
255
0
255
255
68
68
255
69
69
255
0
255
255
0
255
255
0
255
255
0
255
255
0
255
181
44
44
181
44
44
181
44
44
181
44
44
181
44
44
181
44
44
181
44
44
181
44
44
181
44
44
181
44
44
181
44
44
181
44
44
181
44
44
181
44
44
255
0
255
255
0
255
255
0
255
255
0
255
255
0
255
255
0
255
255
0
255
255
0
255
180
44
44
181
44
44
181
44
44
181
44
44
255
0
255
255
0
255
181
44
44
181
44
44
255
0
255
255
0
255
255
0
255
255
0
255
255
255
255
191
46
46
180
44
44
181
44
44
182
44
44
196
48
48
255
0
255
255
0
255
255
0
255
255
0
255
172
42
42
180
44
44
181
44
44
181
44
44
181
44
44
180
44
44
255
0
255
255
0
255
255
0
255
255
0
255
255
0
255
255
0
255
255
0
255
255
0
255
255
0
255
255
0
255
24
6
6
140
34
34
197
48
48
188
46
46
181
44
44
181
44
44
181
44
44
181
44
44
181
44
44
181
44
44
181
44
44
181
44
44
181
44
44
181
44
44
181
44
44
181
44
44
181
44
44
181
44
44
255
0
255
255
0
255
255
0
255
255
0
255
255
0
255
255
0
255
255
0
255
255
0
255
169
45
42
180
44
44
181
44
44
181
44
44
255
0
255
255
0
255
181
44
44
181
44
44
255
0
255
255
0
255
255
0
255
255
0
255
255
72
72
186
45
45
180
44
44
180
44
44
184
45
45
245
60
60
255
0
255
255
0
255
255
0
255
255
0
255
176
43
43
181
44
44
181
44
44
181
44
44
181
44
44
177
43
43
255
0
255
255
0
255
255
0
255
255
0
255
255
0
255
255
0
255
255
0
255
255
0
255
255
0
255
255
0
255
24
6
6
141
34
34
195
47
47
186
45
45
181
44
44
181
44
44
181
44
44
181
44
44
181
44
44
255
0
255
181
44
44
181
44
44
181
44
44
181
44
44
181
44
44
181
44
44
181
44
44
181
44
44
255
0
255
255
0
255
255
0
255
255
0
255
230
9
224
255
0
255
255
0
255
255
0
255
255
0
255
255
0
255
255
0
255
255
0
255
181
44
44
181
44
44
255
0
255
255
0
255
255
0
255
255
0
255
255
0
255
255
0
255
100
24
24
172
42
42
184
45
45
184
45
45
171
42
42
90
22
22
255
0
255
255
0
255
255
0
255
255
0
255
224
54
54
183
45
45
182
44
44
185
45
45
190
46
46
241
59
59
255
0
255
255
0
255
255
0
255
255
0
255
255
0
255
26
6
6
37
9
9
35
9
9
31
8
8
24
6
6
64
16
16
151
37
37
191
46
46
184
45
45
182
44
44
184
45
45
186
45
45
188
46
46
255
0
255
255
0
255
181
44
44
181
44
44
181
44
44
181
44
44
181
44
44
181
44
44
181
44
44
181
44
44
255
0
255
255
0
255
255
0
255
255
0
255
255
0
255
255
0
255
255
0
255
255
0
255
255
0
255
255
0
255
255
0
255
255
0
255
181
44
44
181
44
44
255
0
255
255
0
255
255
0
255
255
0
255
255
0
255
255
0
255
42
10
10
148
36
36
194
47
47
195
47
47
147
36
36
31
7
7
255
0
255
255
0
255
255
0
255
255
0
255
255
0
255
216
53
53
188
46
46
238
58
58
255
109
109
255
0
255
255
0
255
255
0
255
255
0
255
255
0
255
192
1
188
109
26
26
152
37
37
145
35
35
140
34
34
138
34
34
149
36
36
173
42
42
184
45
45
181
44
44
184
45
45
191
46
46
195
47
47
197
48
48
255
0
255
255
0
255
181
44
44
181
44
44
181
44
44
181
44
44
181
44
44
181
44
44
181
44
44
181
44
44
255
0
255
255
0
255
255
0
255
255
0
255
255
0
255
255
0
255
255
0
255
255
0
255
255
0
255
255
0
255
255
0
255
255
0
255
255
0
255
255
0
255
255
0
255
255
0
255
255
0
255
255
0
255
255
0
255
255
0
255
30
7
7
139
34
34
199
48
48
197
48
48
151
37
37
65
16
16
223
1
222
255
0
255
255
0
255
255
0
255
255
0
255
255
0
255
255
0
255
255
0
255
255
0
255
255
0
255
255
0
255
255
0
255
255
0
255
223
1
222
72
17
17
163
40
40
205
50
50
197
48
48
194
47
47
195
47
47
191
46
46
184
45
45
181
44
44
183
45
45
173
42
42
151
37
37
141
34
34
140
34
34
255
0
255
255
0
255
181
44
44
181
44
44
181
44
44
181
44
44
181
44
44
181
44
44
255
0
255
255
0
255
181
44
44
181
44
44
255
0
255
255
0
255
255
0
255
255
0
255
226
5
223
255
0
255
255
0
255
255
0
255
255
0
255
255
0
255
255
0
255
255
0
255
255
0
255
255
0
255
255
0
255
255
0
255
255
0
255
255
0
255
26
6
6
140
34
34
196
48
48
189
46
46
176
43
43
160
39
39
107
26
26
192
1
188
255
0
255
255
0
255
255
0
255
255
0
255
255
0
255
255
0
255
255
0
255
255
0
255
255
0
255
255
0
255
192
1
188
108
26
26
164
40
40
181
44
44
188
46
46
186
45
45
185
45
45
186
45
45
184
45
45
182
44
44
184
45
45
191
46
46
149
36
36
64
16
16
24
6
6
98
3
88
255
0
255
255
0
255
181
44
44
181
44
44
181
44
44
181
44
44
181
44
44
181
44
44
255
0
255
255
0
255
181
44
44
181
44
44
255
0
255
255
0
255
255
0
255
255
0
255
255
0
255
255
0
255
255
0
255
255
0
255
255
0
255
255
0
255
255
0
255
255
0
255
255
0
255
255
0
255
192
1
188
32
8
8
32
8
8
27
6
6
66
16
16
152
37
37
191
46
46
183
45
45
187
46
46
202
49
49
163
40
40
69
17
17
25
6
6
30
7
7
43
10
10
124
30
30
86
21
21
255
0
255
255
0
255
25
6
6
34
8
8
26
6
6
69
17
17
163
40
40
202
49
49
187
46
46
180
44
44
181
44
44
181
44
44
181
44
44
181
44
44
181
44
44
187
45
45
198
48
48
142
34
34
25
6
6
255
0
255
255
0
255
255
0
255
255
0
255
255
0
255
255
0
255
255
0
255
255
0
255
255
0
255
255
0
255
255
0
255
255
0
255
255
0
255
255
0
255
181
44
44
255
0
255
255
0
255
255
0
255
223
2
222
255
0
255
255
0
255
255
0
255
255
0
255
255
0
255
255
0
255
255
0
255
255
0
255
255
0
255
33
8
8
115
28
28
148
36
36
144
35
35
152
37
37
174
42
42
183
45
45
182
44
44
183
44
44
187
46
46
177
43
43
153
37
37
140
34
34
138
34
34
152
37
37
188
46
46
131
32
32
255
0
255
255
0
255
105
26
26
151
37
37
144
35
35
153
37
37
177
43
43
187
46
46
183
44
44
181
44
44
181
44
44
181
44
44
181
44
44
181
44
44
180
44
44
188
46
46
205
50
50
151
37
37
34
8
8
255
0
255
255
0
255
255
0
255
255
0
255
255
0
255
255
0
255
255
0
255
255
0
255
255
0
255
255
0
255
255
0
255
255
0
255
255
0
255
255
0
255
181
44
44
255
0
255
255
0
255
255
0
255
255
0
255
255
0
255
255
0
255
255
0
255
255
0
255
255
0
255
255
0
255
255
0
255
255
0
255
255
0
255
35
8
8
148
36
36
209
51
51
199
48
48
191
46
46
184
45
45
180
44
44
181
44
44
181
44
44
180
44
44
184
45
45
191
47
47
195
47
47
195
46
46
194
46
46
193
46
46
149
35
35
56
13
13
58
13
13
158
37
37
205
49
49
198
47
47
191
46
46
184
44
44
180
44
44
181
44
44
181
44
44
181
44
44
181
44
44
181
44
44
182
44
44
184
45
45
177
43
43
162
39
39
109
27
27
26
6
6
255
0
255
255
0
255
255
0
255
255
0
255
255
0
255
255
0
255
255
0
255
255
0
255
181
44
44
181
44
44
181
44
44
181
44
44
181
44
44
181
44
44
255
0
255
255
0
255
255
0
255
255
0
255
255
0
255
255
0
255
255
0
255
255
0
255
255
0
255
255
0
255
255
0
255
255
0
255
255
0
255
255
0
255
34
8
8
143
35
35
199
48
48
190
46
46
184
45
45
182
44
44
181
44
44
181
44
44
181
44
44
181
44
44
182
44
44
184
45
45
185
44
44
185
42
42
184
41
41
184
41
41
172
38
38
148
33
33
149
33
33
175
39
39
187
42
42
186
41
41
184
42
42
182
43
43
181
44
44
181
44
44
181
44
44
181
44
44
181
44
44
181
44
44
184
45
45
191
46
46
153
37
37
69
17
17
160
2
155
255
0
255
255
0
255
255
0
255
255
0
255
255
0
255
255
0
255
255
0
255
255
0
255
255
0
255
181
44
44
181
44
44
181
44
44
181
44
44
181
44
44
181
44
44
255
0
255
255
0
255
255
0
255
255
0
255
255
0
255
255
0
255
255
0
255
255
0
255
255
0
255
255
0
255
255
0
255
255
0
255
255
0
255
255
0
255
36
9
9
145
35
35
197
48
48
186
45
45
181
44
44
181
43
43
181
43
43
181
43
43
181
43
43
181
43
43
181
43
43
181
42
42
181
45
45
183
52
52
183
55
55
183
55
55
186
54
54
193
54
54
193
54
54
186
54
54
183
55
55
183
55
55
183
52
52
181
45
45
181
42
42
181
42
42
181
43
43
181
44
44
181
44
44
181
44
44
186
45
45
195
47
47
141
34
34
25
6
6
255
0
255
255
0
255
255
0
255
255
0
255
255
0
255
255
0
255
255
0
255
255
0
255
255
0
255
255
0
255
181
44
44
181
44
44
181
44
44
181
44
44
181
44
44
181
44
44
255
0
255
255
0
255
255
0
255
255
0
255
255
0
255
255
0
255
255
0
255
255
0
255
255
0
255
255
0
255
255
0
255
255
0
255
255
0
255
255
0
255
39
10
10
155
38
38
205
50
50
188
46
46
180
43
43
180
41
41
180
40
40
180
40
40
180
40
40
180
40
40
180
39
39
179
37
37
182
49
49
188
76
76
191
88
88
191
86
86
191
82
82
190
76
76
190
76
76
191
82
82
191
86
86
191
88
88
188
76
76
182
49
49
179
37
37
180
39
39
180
41
41
181
43
43
181
44
44
181
44
44
185
45
45
194
47
47
140
34
34
31
8
8
255
0
255
255
0
255
255
0
255
86
21
21
255
0
255
255
0
255
255
0
255
255
0
255
255
0
255
255
0
255
181
44
44
181
44
44
181
44
44
181
44
44
181
44
44
181
44
44
255
0
255
255
0
255
255
0
255
255
0
255
255
0
255
255
0
255
255
0
255
255
0
255
255
0
255
255
0
255
255
0
255
255
0
255
255
0
255
255
0
255
29
7
7
112
27
27
163
39
39
180
43
43
188
48
48
185
54
54
184
56
56
184
56
56
184
55
55
183
55
55
183
53
53
183
51
51
185
63
63
191
87
87
193
97
97
192
93
93
196
103
103
205
126
126
205
126
126
196
103
103
192
93
93
193
97
97
191
87
87
185
63
63
183
52
52
183
54
54
183
52
52
181
45
45
181
42
42
181
43
43
185
45
45
194
47
47
140
34
34
31
8
8
255
0
255
255
0
255
255
0
255
255
0
255
255
183
183
215
52
52
196
48
48
185
45
45
179
44
44
179
44
44
255
0
255
255
0
255
181
44
44
181
44
44
181
44
44
181
44
44
255
0
255
255
0
255
255
0
255
255
0
255
255
0
255
255
0
255
255
0
255
255
0
255
255
0
255
255
0
255
255
0
255
255
0
255
255
0
255
255
0
255
255
0
255
192
1
188
71
16
16
163
37
37
204
58
58
196
81
81
191
91
91
191
89
89
191
87
87
191
85
85
191
84
84
191
85
85
190
85
85
189
85
85
188
82
82
185
75
75
201
116
116
236
205
205
236
205
205
201
116
116
185
75
75
188
82
82
189
85
85
190
85
85
191
86
86
191
88
88
188
76
76
182
49
49
180
38
38
181
42
42
186
45
45
195
47
47
141
34
34
25
6
6
255
0
255
255
0
255
255
0
255
255
0
255
255
173
173
210
51
51
192
47
47
184
45
45
180
44
44
179
44
44
255
0
255
255
0
255
181
44
44
181
44
44
181
44
44
181
44
44
255
0
255
255
0
255
255
0
255
255
0
255
255
0
255
255
0
255
255
0
255
255
0
255
255
0
255
255
0
255
255
0
255
30
7
7
32
8
8
255
0
255
255
0
255
255
0
255
255
0
255
108
23
23
166
49
49
189
79
79
199
93
93
197
90
90
195
91
91
194
98
98
194
100
100
193
98
98
197
106
106
205
126
126
207
132
132
204
124
124
219
163
163
253
249
249
252
247
247
218
159
159
202
119
119
205
127
127
203
121
121
195
101
101
192
93
93
193
97
97
191
87
87
185
63
63
182
49
49
181
44
44
184
43
43
191
45
45
153
36
36
69
17
17
160
2
155
255
0
255
255
0
255
255
0
255
85
21
21
135
33
33
152
37
37
176
43
43
193
47
47
219
53
53
255
0
255
255
0
255
255
0
255
255
0
255
255
0
255
255
0
255
181
44
44
255
0
255
255
0
255
255
0
255
255
0
255
255
0
255
255
0
255
255
0
255
255
0
255
255
0
255
161
2
155
120
29
29
123
30
30
69
5
56
255
0
255
255
0
255
255
0
255
255
0
255
73
20
20
165
49
49
208
61
61
200
57
57
196
67
67
195
91
91
193
99
99
190
91
91
205
128
128
237
209
209
251
247
247
248
239
239
250
243
243
255
255
255
254
253
253
245
230
230
243
223
223
246
231
231
232
195
195
200
113
113
185
75
75
188
82
82
189
86
86
191
88
88
189
76
76
182
49
49
180
37
37
182
40
40
177
40
40
163
39
39
109
27
27
160
2
155
255
0
255
255
0
255
255
0
255
160
2
155
40
10
10
120
29
29
255
171
171
255
0
255
255
0
255
255
0
255
255
0
255
255
0
255
255
0
255
255
0
255
181
44
44
255
0
255
255
0
255
255
0
255
255
0
255
255
0
255
255
0
255
255
0
255
255
0
255
100
3
88
71
17
17
171
41
41
173
42
42
72
18
18
27
6
6
37
8
8
100
3
88
255
0
255
255
0
255
110
24
24
153
33
33
144
29
29
154
42
42
184
75
75
197
86
86
192
77
77
206
114
114
238
196
196
251
233
233
246
224
224
246
231
231
254
252
252
255
255
255
255
255
255
255
255
255
255
255
255
250
241
241
217
156
156
202
118
118
205
126
126
203
122
122
196
104
104
190
84
84
185
62
62
183
52
52
183
54
54
189
54
54
203
51
51
163
39
39
69
17
17
26
6
6
32
8
8
32
8
8
27
7
7
160
2
155
255
0
255
255
0
255
255
0
255
255
0
255
255
0
255
255
0
255
255
0
255
255
0
255
255
0
255
181
44
44
255
0
255
255
0
255
255
0
255
255
0
255
255
0
255
255
0
255
255
0
255
32
8
8
114
28
28
161
39
39
182
44
44
180
44
44
154
38
38
145
34
34
154
34
34
110
24
24
255
0
255
255
0
255
100
3
88
37
7
7
27
5
5
69
18
18
164
47
47
207
60
60
199
56
56
199
65
65
208
87
87
207
91
91
196
79
79
209
127
127
247
233
233
255
255
255
255
255
255
255
255
255
255
255
255
255
255
255
246
232
232
242
222
222
246
231
231
232
195
195
200
113
113
185
75
75
189
81
81
191
86
86
191
87
87
190
77
77
189
54
54
177
40
40
153
36
36
141
34
34
141
34
34
143
35
35
149
36
36
113
28
28
160
2
155
255
0
255
255
0
255
255
0
255
255
0
255
255
0
255
255
0
255
255
0
255
255
0
255
181
44
44
255
0
255
255
0
255
255
0
255
255
0
255
255
0
255
255
0
255
255
0
255
32
8
8
149
36
36
206
50
50
188
46
46
183
44
44
191
46
46
199
51
51
207
59
59
165
49
49
73
20
20
255
0
255
255
0
255
255
0
255
255
0
255
192
1
188
112
24
24
154
34
34
147
33
33
142
29
29
137
22
22
146
17
17
167
15
15
195
68
68
229
175
175
245
227
227
244
226
226
242
223
223
241
221
221
246
233
233
255
255
255
255
255
255
255
255
255
250
242
242
218
159
159
199
111
111
194
98
98
192
95
95
194
101
101
191
87
87
183
54
54
182
39
39
191
44
44
194
46
46
194
47
47
198
48
48
206
50
50
160
39
39
65
16
16
23
6
6
29
7
7
41
10
10
97
24
24
255
62
62
200
49
49
181
44
44
181
44
44
255
0
255
255
0
255
255
0
255
255
0
255
255
0
255
255
0
255
255
0
255
255
0
255
26
6
6
144
35
35
199
48
48
186
45
45
181
43
43
184
42
42
189
55
55
197
81
81
189
79
79
166
49
49
108
23
23
255
0
255
255
0
255
255
0
255
255
0
255
29
6
6
39
8
8
38
8
8
33
6
6
39
2
19
67
10
10
160
31
31
204
53
53
198
76
76
198
99
99
204
123
123
206
131
131
203
122
122
217
159
159
250
242
242
255
255
255
255
255
255
255
255
255
250
242
242
230
191
191
199
111
111
186
79
79
192
95
95
191
86
86
183
52
52
180
37
37
183
40
40
185
42
42
185
44
44
186
46
46
188
46
46
176
43
43
150
36
36
137
33
33
138
33
33
148
36
36
171
42
42
185
45
45
182
44
44
181
44
44
181
44
44
255
0
255
255
0
255
255
0
255
255
0
255
255
0
255
255
0
255
255
0
255
223
1
222
69
17
17
153
37
37
191
46
46
184
45
45
181
43
43
180
40
40
184
57
57
192
92
92
199
94
94
205
61
61
162
35
35
71
15
15
255
0
255
255
0
255
255
0
255
255
0
255
255
0
255
255
0
255
255
0
255
255
0
255
223
1
222
110
28
28
162
36
36
176
29
29
185
39
39
189
65
65
189
74
74
183
64
64
197
104
104
231
193
193
246
233
233
243
224
224
248
236
236
255
255
255
251
246
246
219
163
163
201
115
115
195
102
102
190
84
84
185
62
62
183
52
52
183
54
54
183
52
52
181
46
46
181
43
43
180
44
44
184
45
45
191
46
46
195
47
47
195
47
47
191
46
46
183
45
45
180
44
44
181
44
44
181
44
44
181
44
44
255
0
255
255
0
255
255
0
255
255
0
255
255
0
255
255
0
255
26
6
6
109
27
27
162
39
39
177
43
43
184
45
45
182
44
44
181
43
43
180
40
40
184
57
57
192
93
93
194
92
92
190
55
55
179
36
36
162
35
35
109
24
24
223
1
222
255
0
255
255
0
255
255
0
255
255
0
255
255
0
255
255
0
255
255
0
255
223
1
222
71
16
16
161
35
35
204
47
47
199
52
52
192
52
52
183
46
46
186
67
67
201
115
115
207
133
133
203
123
123
218
160
160
251
244
244
255
255
255
255
254
254
235
203
203
204
123
123
189
83
83
190
83
83
191
85
85
191
87
87
189
76
76
183
52
52
180
41
41
180
43
43
182
44
44
184
45
45
186
45
45
186
45
45
184
45
45
182
44
44
181
44
44
181
44
44
181
44
44
181
44
44
255
0
255
255
0
255
255
0
255
255
0
255
255
0
255
255
0
255
38
9
9
155
38
38
208
51
51
189
46
46
180
44
44
181
44
44
181
43
43
180
41
41
183
53
53
189
79
79
189
81
81
184
61
61
189
54
54
205
60
60
165
48
48
69
18
18
26
5
5
36
8
8
28
7
7
255
0
255
255
0
255
255
0
255
255
0
255
255
0
255
223
1
222
112
27
27
154
37
37
145
32
32
151
32
32
172
36
36
184
48
48
186
67
67
185
72
72
182
64
64
198
104
104
231
192
192
249
240
240
251
246
246
236
207
207
204
123
123
189
86
86
192
95
95
194
100
100
195
103
103
191
87
87
184
55
55
180
40
40
180
43
43
182
44
44
184
45
45
186
45
45
186
45
45
184
45
45
182
44
44
181
44
44
181
44
44
181
44
44
181
44
44
255
0
255
255
0
255
255
0
255
255
0
255
255
0
255
255
0
255
38
9
9
155
38
38
208
51
51
189
46
46
180
44
44
181
44
44
181
44
44
181
43
43
181
45
45
182
50
50
185
61
61
189
79
79
193
88
88
198
90
90
185
75
75
154
42
42
144
29
29
154
36
36
112
27
27
223
1
222
255
0
255
255
0
255
255
0
255
255
0
255
255
0
255
28
7
7
36
9
9
27
6
6
66
15
15
151
35
35
191
47
47
185
50
50
182
49
49
180
45
45
187
67
67
201
114
114
209
138
138
209
139
139
205
127
127
196
103
103
192
92
92
193
95
95
194
98
98
194
100
100
191
86
86
183
55
55
180
40
40
180
43
43
184
45
45
191
46
46
195
47
47
195
47
47
191
46
46
183
45
45
180
44
44
180
44
44
181
44
44
181
44
44
255
0
255
255
0
255
255
0
255
255
0
255
255
0
255
255
0
255
26
6
6
109
26
26
163
40
40
181
44
44
187
46
46
183
44
44
181
44
44
181
44
44
181
42
42
179
37
37
183
52
52
191
87
87
195
104
104
194
103
103
194
91
91
196
67
67
199
52
52
204
47
47
161
35
35
71
16
16
255
0
255
255
0
255
255
0
255
255
0
255
255
0
255
255
0
255
255
0
255
255
0
255
28
7
7
145
36
36
199
48
48
190
43
43
183
40
40
181
38
38
181
47
47
185
67
67
186
75
75
186
73
73
188
78
78
192
92
92
194
98
98
193
96
96
193
96
96
194
99
99
191
85
85
183
54
54
181
41
41
183
43
43
174
42
42
152
37
37
140
34
34
139
34
34
148
36
36
172
42
42
186
45
45
191
46
46
255
0
255
255
0
255
181
44
44
255
0
255
255
0
255
255
0
255
255
0
255
255
0
255
255
0
255
223
1
222
72
17
17
164
40
40
202
49
49
187
46
46
180
44
44
181
44
44
181
43
43
180
39
39
183
54
54
191
85
85
194
100
100
193
98
98
194
95
95
196
92
92
193
74
74
186
41
41
175
28
28
162
35
35
110
28
28
255
0
255
255
0
255
255
0
255
255
0
255
255
0
255
255
0
255
255
0
255
36
9
9
154
37
37
208
50
50
199
47
47
191
45
45
183
43
43
180
44
44
181
49
49
182
50
50
181
47
47
184
60
60
191
89
89
195
101
101
193
97
97
193
96
96
194
99
99
191
85
85
183
54
54
184
41
41
191
45
45
152
37
37
66
16
16
26
6
6
30
7
7
42
10
10
100
24
24
255
72
72
255
255
255
255
0
255
255
0
255
181
44
44
255
0
255
255
0
255
255
0
255
255
0
255
255
0
255
255
0
255
255
0
255
255
0
255
109
26
26
163
40
40
177
43
43
184
45
45
182
44
44
181
43
43
180
39
39
183
53
53
190
84
84
194
99
99
193
96
96
193
95
95
192
95
95
193
94
94
196
92
92
199
78
78
204
54
54
161
31
31
70
11
11
255
0
255
255
0
255
255
0
255
255
0
255
255
0
255
255
0
255
29
7
7
115
28
28
153
37
37
145
35
35
153
37
37
177
43
43
187
45
45
182
42
42
180
39
39
179
37
37
182
49
49
188
75
75
192
90
90
193
94
94
193
97
97
194
99
99
191
85
85
183
54
54
185
42
42
194
46
46
141
34
34
26
6
6
255
0
255
255
0
255
255
0
255
255
0
255
255
0
255
255
0
255
181
44
44
181
44
44
255
0
255
255
0
255
255
0
255
255
0
255
255
0
255
255
0
255
255
0
255
255
0
255
255
0
255
223
1
222
69
17
17
153
37
37
191
47
47
184
45
45
181
42
42
179
37
37
183
51
51
190
84
84
194
99
99
194
97
97
191
90
90
186
78
78
200
114
114
234
199
199
232
184
184
196
71
71
171
16
16
157
20
20
105
15
15
255
0
255
255
0
255
255
0
255
255
0
255
255
0
255
255
0
255
29
7
7
36
9
9
27
6
6
69
17
17
163
40
40
202
49
49
187
45
45
180
42
42
180
42
42
181
44
44
182
49
49
186
63
63
191
87
87
194
99
99
194
100
100
191
85
85
183
54
54
184
41
41
194
46
46
141
34
34
32
8
8
255
0
255
255
0
255
255
0
255
255
0
255
255
0
255
255
0
255
181
44
44
181
44
44
255
0
255
255
0
255
255
0
255
255
0
255
255
0
255
255
0
255
255
0
255
255
0
255
255
0
255
255
0
255
26
6
6
141
34
34
195
47
47
185
44
44
181
45
45
182
49
49
186
63
63
191
87
87
193
97
97
192
94
94
194
98
98
199
111
111
219
163
163
254
255
255
251
243
243
209
127
127
198
77
77
217
91
91
175
73
73
73
22
22
255
0
255
255
0
255
255
0
255
255
0
255
255
0
255
255
0
255
255
0
255
255
0
255
223
1
222
110
27
27
164
40
40
181
44
44
188
46
46
187
46
46
184
43
43
180
37
37
182
51
51
191
85
85
194
101
101
194
100
100
191
85
85
183
54
54
184
41
41
193
46
46
141
34
34
34
8
8
255
0
255
255
0
255
255
0
255
255
0
255
255
0
255
255
0
255
255
0
255
255
0
255
255
0
255
255
0
255
255
0
255
255
0
255
255
0
255
255
0
255
255
0
255
255
0
255
255
0
255
255
0
255
33
8
8
144
35
35
194
46
46
185
42
42
183
52
52
188
76
76
192
90
90
193
94
94
192
93
93
190
86
86
203
120
120
231
194
194
249
240
240
255
255
255
254
253
253
243
223
223
242
214
214
250
225
225
227
175
175
171
61
61
101
2
2
255
0
255
255
0
255
255
0
255
255
0
255
255
0
255
255
0
255
255
0
255
255
0
255
223
1
222
72
17
17
163
40
40
205
50
50
198
48
48
191
45
45
182
40
40
182
54
54
191
87
87
195
103
103
194
101
101
191
84
84
183
54
54
184
41
41
193
46
46
141
34
34
34
8
8
255
0
255
255
0
255
255
0
255
255
0
255
255
0
255
255
0
255
255
0
255
255
0
255
255
0
255
255
0
255
255
0
255
255
0
255
255
0
255
255
0
255
255
0
255
255
0
255
255
0
255
255
0
255
33
8
8
143
35
35
194
46
46
184
41
41
184
55
55
191
88
88
195
102
102
193
97
97
191
91
91
188
83
83
207
131
131
247
236
236
255
255
255
255
255
255
255
255
255
255
255
255
255
255
255
255
255
255
254
235
235
231
133
133
170
60
60
69
17
17
69
0
51
31
2
2
36
5
5
39
9
9
29
7
7
255
0
255
255
0
255
255
0
255
192
1
188
112
27
27
154
38
38
145
35
35
152
36
36
177
40
40
189
54
54
190
76
76
192
91
91
194
98
98
191
86
86
184
55
55
184
41
41
193
46
46
141
34
34
34
8
8
255
0
255
255
0
255
255
0
255
255
0
255
255
0
255
255
0
255
255
0
255
255
0
255
255
0
255
255
0
255
255
0
255
255
0
255
255
0
255
255
0
255
255
0
255
31
8
8
255
0
255
255
0
255
39
6
23
139
34
34
194
46
46
185
41
41
184
55
55
191
86
86
194
100
100
193
96
96
191
91
91
188
83
83
207
131
131
247
236
236
255
255
255
255
255
255
255
255
255
255
255
255
255
255
255
255
255
255
255
255
255
254
236
236
222
171
171
160
58
58
132
6
6
136
15
15
144
24
24
154
35
35
113
28
28
192
1
188
255
0
255
255
0
255
255
0
255
29
7
7
36
9
9
27
6
6
69
17
17
163
39
39
202
50
50
188
51
51
185
65
65
192
94
94
192
91
91
184
56
56
184
41
41
193
46
46
141
34
34
34
8
8
255
0
255
255
0
255
255
0
255
255
0
255
255
0
255
255
0
255
255
0
255
255
0
255
255
0
255
255
0
255
255
0
255
255
0
255
255
0
255
255
0
255
255
0
255
255
0
255
255
0
255
100
3
88
65
16
16
150
36
36
191
45
45
184
41
41
183
54
54
191
85
85
194
99
99
193
96
96
192
92
92
190
86
86
203
120
120
231
194
194
249
239
239
255
255
255
255
255
255
255
255
255
255
254
254
255
254
254
255
255
255
255
255
255
250
234
234
219
127
127
205
78
78
209
89
89
209
82
82
208
58
58
161
35
35
71
15
15
255
0
255
255
0
255
255
0
255
255
0
255
255
0
255
255
0
255
192
1
188
110
27
27
163
38
38
180
38
38
189
51
51
191
78
78
189
78
78
183
52
52
184
41
41
193
46
46
141
34
34
34
8
8
255
0
255
255
0
255
255
0
255
255
0
255
255
0
255
255
0
255
255
0
255
255
0
255
255
0
255
255
0
255
255
0
255
255
0
255
255
0
255
255
0
255
255
0
255
255
0
255
130
3
122
115
28
28
160
39
39
176
43
43
183
43
43
181
41
41
183
54
54
191
85
85
194
99
99
193
96
96
193
94
94
192
93
93
194
98
98
199
111
111
218
158
158
249
240
240
255
255
255
255
255
255
255
254
254
255
254
254
255
255
255
255
255
255
254
251
251
247
223
223
245
214
214
248
224
224
233
179
179
199
77
77
176
28
28
161
32
32
109
24
24
223
1
222
255
0
255
255
0
255
255
0
255
255
0
255
255
0
255
223
1
222
72
17
17
163
38
38
202
50
50
189
51
51
181
49
49
180
42
42
184
41
41
193
46
46
141
34
34
34
8
8
255
0
255
255
0
255
255
0
255
255
0
255
255
0
255
255
0
255
255
0
255
255
0
255
255
0
255
255
0
255
255
0
255
255
0
255
255
0
255
255
0
255
255
0
255
255
0
255
68
16
16
161
39
39
203
49
49
188
46
46
180
43
43
180
40
40
183
55
55
191
86
86
194
100
100
194
97
97
193
96
96
194
97
97
191
90
90
186
77
77
199
110
110
230
191
191
249
240
240
255
255
255
255
255
255
255
255
255
255
255
255
255
255
255
255
255
255
255
255
255
255
255
255
255
255
255
246
229
229
198
99
99
184
41
41
203
55
55
165
48
48
69
18
18
26
4
4
36
7
7
29
6
6
255
0
255
255
0
255
255
0
255
255
0
255
108
26
26
164
41
41
182
50
50
190
55
55
189
57
57
191
55
55
195
50
50
140
33
33
31
7
7
255
0
255
255
0
255
255
0
255
44
11
11
255
0
255
255
0
255
255
0
255
255
0
255
255
0
255
255
0
255
255
0
255
255
0
255
255
0
255
255
0
255
26
6
6
107
26
26
160
39
39
180
44
44
188
46
46
183
44
44
180
43
43
180
40
40
184
55
55
191
87
87
195
102
102
194
100
100
194
99
99
194
99
99
193
96
96
191
90
90
193
95
95
199
110
110
218
158
158
249
239
239
255
255
255
255
255
255
255
255
255
255
255
255
255
255
255
255
255
255
255
255
255
255
255
255
247
234
234
205
123
123
188
73
73
196
85
85
185
75
75
154
43
43
143
28
28
153
33
33
112
24
24
192
1
188
255
0
255
255
0
255
255
0
255
255
0
255
74
26
26
171
74
74
216
97
97
210
96
96
204
83
83
199
57
57
139
31
31
25
5
5
255
0
255
255
0
255
255
0
255
255
0
255
255
0
255
255
0
255
255
0
255
255
0
255
255
0
255
255
0
255
255
0
255
255
0
255
255
0
255
255
0
255
37
9
9
152
37
37
205
50
50
188
46
46
180
44
44
181
44
44
181
43
43
180
41
41
183
52
52
189
76
76
191
87
87
191
86
86
190
84
84
190
84
84
191
87
87
193
95
95
191
91
91
186
78
78
199
112
112
231
194
194
246
231
231
243
223
223
245
230
230
254
251
251
255
255
255
255
255
255
255
254
254
249
239
239
232
195
195
203
123
123
190
91
91
193
99
99
194
90
90
196
66
66
200
56
56
208
61
61
164
48
48
69
18
18
26
4
4
36
7
7
100
2
87
255
0
255
255
0
255
119
62
62
166
86
86
157
84
84
164
73
73
189
54
54
159
36
36
75
17
17
68
4
55
255
0
255
255
0
255
255
0
255
255
0
255
163
40
40
255
0
255
255
0
255
255
0
255
255
0
255
255
0
255
255
0
255
255
0
255
255
0
255
36
9
9
145
35
35
197
48
48
186
45
45
181
44
44
181
44
44
181
44
44
181
43
43
181
46
46
183
52
52
184
55
55
183
55
55
183
53
53
183
51
51
186
63
63
192
90
90
194
100
100
192
94
94
195
101
101
203
121
121
205
127
127
202
119
119
217
156
156
248
238
238
255
255
255
255
255
255
249
239
239
217
158
158
199
111
111
195
99
99
192
94
94
193
96
96
194
94
94
194
88
88
196
87
87
199
92
92
185
78
78
154
43
43
143
28
28
153
33
33
109
24
24
255
0
255
255
0
255
39
14
31
40
22
22
30
19
19
72
26
26
165
42
42
201
48
48
180
44
44
118
29
29
129
3
122
255
0
255
255
0
255
255
0
255
255
0
255
255
0
255
255
0
255
255
0
255
181
44
44
201
49
49
255
62
62
74
18
18
255
0
255
32
8
8
141
34
34
194
47
47
185
45
45
181
44
44
181
44
44
181
44
44
181
44
44
181
43
43
180
41
41
180
40
40
180
40
40
180
39
39
179
37
37
182
49
49
188
76
76
191
88
88
191
86
86
190
85
85
189
85
85
188
82
82
185
75
75
200
113
113
232
195
195
247
235
235
247
235
235
231
194
194
199
111
111
186
76
76
191
89
89
193
96
96
193
96
96
194
97
97
194
100
100
194
98
98
192
93
93
192
81
81
195
64
64
201
58
58
208
61
61
165
49
49
73
20
20
255
0
255
255
0
255
255
0
255
255
0
255
255
0
255
110
26
26
161
39
39
166
41
41
135
33
33
68
17
17
24
6
6
255
0
255
255
0
255
255
0
255
255
0
255
255
0
255
255
0
255
181
44
44
186
45
45
196
48
48
135
33
33
161
2
155
25
6
6
140
34
34
194
47
47
185
45
45
181
44
44
181
44
44
181
44
44
181
44
44
181
44
44
181
43
43
181
43
43
181
43
43
181
43
43
181
42
42
181
45
45
183
52
52
183
54
54
183
52
52
185
63
63
191
87
87
193
97
97
192
93
93
195
101
101
203
121
121
207
131
131
207
131
131
203
120
120
194
98
98
191
89
89
192
93
93
193
96
96
194
98
98
194
100
100
195
103
103
192
90
90
185
62
62
185
59
59
193
81
81
198
93
93
200
94
94
189
79
79
166
49
49
108
23
23
255
0
255
255
0
255
255
0
255
255
0
255
25
6
6
39
9
9
33
8
8
69
17
17
145
35
35
132
32
32
33
8
8
255
0
255
255
0
255
255
0
255
255
0
255
255
0
255
181
44
44
186
45
45
196
48
48
134
33
33
192
1
188
25
6
6
139
34
34
194
47
47
185
45
45
181
44
44
181
44
44
181
44
44
181
44
44
181
44
44
181
44
44
181
44
44
181
44
44
181
44
44
181
44
44
181
43
43
180
41
41
180
39
39
179
37
37
182
49
49
188
76
76
191
88
88
191
86
86
190
85
85
189
85
85
189
85
85
189
84
84
190
87
87
192
94
94
194
97
97
194
97
97
193
94
94
191
87
87
191
85
85
191
87
87
188
75
75
181
46
46
182
47
47
189
77
77
192
93
93
192
92
92
196
81
81
204
58
58
162
36
36
69
16
16
27
7
7
37
9
9
26
6
6
255
0
255
255
0
255
255
0
255
38
5
22
133
32
32
138
33
33
36
9
9
255
0
255
255
0
255
255
0
255
255
0
255
255
0
255
181
44
44
203
49
49
255
64
64
71
17
17
255
0
255
30
7
7
139
34
34
195
47
47
186
45
45
181
44
44
181
44
44
181
44
44
181
44
44
181
44
44
181
44
44
181
44
44
181
44
44
181
44
44
181
44
44
181
44
44
181
43
43
181
42
42
181
42
42
181
45
45
183
52
52
183
54
54
183
52
52
185
63
63
191
87
87
193
98
98
192
96
96
193
96
96
194
98
98
194
100
100
195
102
102
192
90
90
186
63
63
183
52
52
183
54
54
183
52
52
181
44
44
181
45
45
183
53
53
184
57
57
184
57
57
185
54
54
188
48
48
177
42
42
153
37
37
145
35
35
155
38
38
111
27
27
223
1
222
255
0
255
255
0
255
255
0
255
32
8
8
37
9
9
255
0
255
255
0
255
255
0
255
255
0
255
255
0
255
255
0
255
255
0
255
255
0
255
255
0
255
255
0
255
255
0
255
39
9
9
147
36
36
192
47
47
188
46
46
186
45
45
185
45
45
185
45
45
185
45
45
185
45
45
185
45
45
185
45
45
186
45
45
184
45
45
182
44
44
181
44
44
181
44
44
181
44
44
181
44
44
181
43
43
180
41
41
180
39
39
179
37
37
182
49
49
188
76
76
191
88
88
191
86
86
191
85
85
191
85
85
191
86
86
191
88
88
188
76
76
182
49
49
179
37
37
180
39
39
181
41
41
184
44
44
185
45
45
185
42
42
184
41
41
185
41
41
183
42
42
181
43
43
183
45
45
191
47
47
198
48
48
205
50
50
162
39
39
69
17
17
27
7
7
37
9
9
25
6
6
255
0
255
255
0
255
255
0
255
255
0
255
255
0
255
255
0
255
255
0
255
255
0
255
255
0
255
255
0
255
255
0
255
255
0
255
255
0
255
80
20
20
170
41
41
186
45
45
192
47
47
195
47
47
194
47
47
194
47
47
194
47
47
194
47
47
194
47
47
194
47
47
195
47
47
191
46
46
184
45
45
180
44
44
181
44
44
181
44
44
181
44
44
181
44
44
181
43
43
181
42
42
181
42
42
181
45
45
183
52
52
184
55
55
184
55
55
183
54
54
183
54
54
184
55
55
184
55
55
183
52
52
181
45
45
180
42
42
180
42
42
183
44
44
191
46
46
195
47
47
194
46
46
194
46
46
194
46
46
191
45
45
183
44
44
181
44
44
184
45
45
187
45
45
188
46
46
177
43
43
153
37
37
145
35
35
155
38
38
111
27
27
255
0
255
255
0
255
255
0
255
255
0
255
255
0
255
255
0
255
255
0
255
255
0
255
181
44
44
255
0
255
255
0
255
255
0
255
255
115
115
218
53
53
188
46
46
173
42
42
149
36
36
138
34
34
140
34
34
141
34
34
141
34
34
141
34
34
141
34
34
141
34
34
141
34
34
153
37
37
177
43
43
188
46
46
187
45
45
184
45
45
182
44
44
181
44
44
181
44
44
181
44
44
181
44
44
181
43
43
180
41
41
180
40
40
180
40
40
180
40
40
180
40
40
180
40
40
180
40
40
180
41
41
181
43
43
183
45
45
187
46
46
177
43
43
153
37
37
141
34
34
143
35
35
143
35
35
141
34
34
153
37
37
177
43
43
188
46
46
186
45
45
185
45
45
185
45
45
187
45
45
192
47
47
198
48
48
205
50
50
163
40
40
71
17
17
160
2
155
255
0
255
255
0
255
255
0
255
255
0
255
255
0
255
255
0
255
181
44
44
255
0
255
255
0
255
192
47
47
187
46
46
189
46
46
193
47
47
152
37
37
65
16
16
24
6
6
31
8
8
34
8
8
34
8
8
34
8
8
34
8
8
31
8
8
25
6
6
69
17
17
162
39
39
205
50
50
198
48
48
191
46
46
184
45
45
180
44
44
181
44
44
181
44
44
181
44
44
181
44
44
181
43
43
181
43
43
181
43
43
181
43
43
181
43
43
181
43
43
181
43
43
180
43
43
180
44
44
187
46
46
202
49
49
163
40
40
69
17
17
26
6
6
33
8
8
33
8
8
26
6
6
69
17
17
162
39
39
205
50
50
197
48
48
194
47
47
194
47
47
192
47
47
187
45
45
186
45
45
188
46
46
180
44
44
163
40
40
112
27
27
28
7
7
255
0
255
255
0
255
255
0
255
255
0
255
255
0
255
255
0
255
181
44
44
181
44
44
181
44
44
181
44
44
184
45
45
194
47
47
140
34
34
23
6
6
255
0
255
255
0
255
255
0
255
255
0
255
255
0
255
255
0
255
255
0
255
255
0
255
160
2
155
109
27
27
152
37
37
145
35
35
152
37
37
174
42
42
184
45
45
182
44
44
181
44
44
181
44
44
181
44
44
181
44
44
181
44
44
181
44
44
181
44
44
181
44
44
182
44
44
184
45
45
187
45
45
189
46
46
180
44
44
161
39
39
107
26
26
160
2
155
255
0
255
255
0
255
255
0
255
255
0
255
129
3
122
110
27
27
152
37
37
147
36
36
144
35
35
141
34
34
153
37
37
177
43
43
188
46
46
185
45
45
192
47
47
209
51
51
159
39
39
41
10
10
255
0
255
255
0
255
255
0
255
255
0
255
255
0
255
255
0
255
181
44
44
181
44
44
181
44
44
181
44
44
182
44
44
189
46
46
124
30
30
255
0
255
255
0
255
255
0
255
255
0
255
255
0
255
255
0
255
255
0
255
255
0
255
255
0
255
255
0
255
26
6
6
34
8
8
27
7
7
66
16
16
152
37
37
191
46
46
184
45
45
181
44
44
181
44
44
181
44
44
181
44
44
181
44
44
181
44
44
181
44
44
180
44
44
184
45
45
191
46
46
199
48
48
206
50
50
161
39
39
68
16
16
223
1
222
255
0
255
255
0
255
255
0
255
255
0
255
255
0
255
255
0
255
26
6
6
38
9
9
37
9
9
33
8
8
26
6
6
69
17
17
162
39
39
205
50
50
197
48
48
199
48
48
211
51
51
158
38
38
41
10
10
255
0
255
255
0
255
255
0
255
255
0
255
255
0
255
255
0
255
181
44
44
181
44
44
181
44
44
181
44
44
181
44
44
175
43
43
255
0
255
255
0
255
255
0
255
255
73
73
252
61
61
252
61
61
255
91
91
255
0
255
255
0
255
255
0
255
255
0
255
255
0
255
255
0
255
255
0
255
26
6
6
141
34
34
195
47
47
186
45
45
181
44
44
181
44
44
181
44
44
181
44
44
181
44
44
181
44
44
183
44
44
187
46
46
177
43
43
153
37
37
144
35
35
149
36
36
114
28
28
38
5
22
255
0
255
255
0
255
255
0
255
255
0
255
255
0
255
255
0
255
255
0
255
255
0
255
255
0
255
255
0
255
255
0
255
255
0
255
129
3
122
110
27
27
152
37
37
145
35
35
144
35
35
151
37
37
112
27
27
28
7
7
255
0
255
255
0
255
255
0
255
255
0
255
255
0
255
255
0
255
181
44
44
181
44
44
181
44
44
181
44
44
181
44
44
179
44
44
255
0
255
255
0
255
211
51
51
188
46
46
186
45
45
186
45
45
189
46
46
255
67
67
255
0
255
255
0
255
255
0
255
255
0
255
255
0
255
255
0
255
32
8
8
141
34
34
194
47
47
185
45
45
181
44
44
181
44
44
181
44
44
181
44
44
181
44
44
180
44
44
187
46
46
202
49
49
163
40
40
69
17
17
26
6
6
32
8
8
32
8
8
255
0
255
255
0
255
255
0
255
255
0
255
255
0
255
255
0
255
255
0
255
255
0
255
255
0
255
255
0
255
255
0
255
255
0
255
255
0
255
255
0
255
27
6
6
37
9
9
35
9
9
35
9
9
37
9
9
27
7
7
255
0
255
255
0
255
255
0
255
255
0
255
255
0
255
255
0
255
255
0
255
181
44
44
181
44
44
181
44
44
181
44
44
181
44
44
181
44
44
255
0
255
255
0
255
181
44
44
181
44
44
181
44
44
181
44
44
181
44
44
179
43
43
202
49
49
255
0
255
255
0
255
255
0
255
255
0
255
255
0
255
35
9
9
144
35
35
198
48
48
190
46
46
184
45
45
182
44
44
181
44
44
181
44
44
182
44
44
184
45
45
177
43
43
163
40
40
109
26
26
160
2
155
255
0
255
255
0
255
255
0
255
255
0
255
255
0
255
255
0
255
255
0
255
255
73
73
255
73
73
255
0
255
255
0
255
255
0
255
255
0
255
255
0
255
255
0
255
255
0
255
255
0
255
255
0
255
255
0
255
255
0
255
255
0
255
255
0
255
255
0
255
255
0
255
255
0
255
255
0
255
255
0
255
255
0
255
255
0
255
255
0
255
181
44
44
181
44
44
181
44
44
181
44
44
181
44
44
181
44
44
255
0
255
255
0
255
255
0
255
181
44
44
181
44
44
181
44
44
181
44
44
181
44
44
182
44
44
201
49
49
255
0
255
255
0
255
255
0
255
255
0
255
37
9
9
151
37
37
208
50
50
199
48
48
191
46
46
184
45
45
180
44
44
181
44
44
184
45
45
191
46
46
153
37
37
69
17
17
160
2
155
255
0
255
255
0
255
255
0
255
255
0
255
255
0
255
255
0
255
255
0
255
208
51
51
187
46
46
187
46
46
208
51
51
255
0
255
255
0
255
255
0
255
255
0
255
255
0
255
255
0
255
255
0
255
255
0
255
255
0
255
255
0
255
255
0
255
255
0
255
255
0
255
255
0
255
255
0
255
255
0
255
255
0
255
255
0
255
255
0
255
181
44
44
255
0
255
255
0
255
255
0
255
255
0
255
255
0
255
255
0
255
181
44
44
181
44
44
181
44
44
255
0
255
255
0
255
255
0
255
181
44
44
181
44
44
181
44
44
181
44
44
255
0
255
255
0
255
255
0
255
255
0
255
27
7
7
112
27
27
154
37
37
145
35
35
153
37
37
177
43
43
188
46
46
186
45
45
190
46
46
199
48
48
144
35
35
26
6
6
255
0
255
255
0
255
255
0
255
255
0
255
255
0
255
255
0
255
255
0
255
255
0
255
181
44
44
181
44
44
181
44
44
181
44
44
255
0
255
255
0
255
255
0
255
255
0
255
255
0
255
255
0
255
255
0
255
255
0
255
255
0
255
255
0
255
255
0
255
255
0
255
255
0
255
255
0
255
255
0
255
255
0
255
255
0
255
255
0
255
255
0
255
181
44
44
255
0
255
255
0
255
255
0
255
255
0
255
255
0
255
255
0
255
181
44
44
181
44
44
181
44
44
181
44
44
255
0
255
255
0
255
181
44
44
181
44
44
181
44
44
181
44
44
255
0
255
255
0
255
255
0
255
255
0
255
255
0
255
28
7
7
36
9
9
27
6
6
69
17
17
162
39
39
205
50
50
197
48
48
198
48
48
208
50
50
151
37
37
34
8
8
255
0
255
255
0
255
255
0
255
44
11
11
255
0
255
255
0
255
255
0
255
255
0
255
181
44
44
181
44
44
181
44
44
181
44
44
255
0
255
255
0
255
255
0
255
255
0
255
255
0
255
255
0
255
255
0
255
255
0
255
255
0
255
255
0
255
255
0
255
255
0
255
255
0
255
255
0
255
255
0
255
255
0
255
255
0
255
255
0
255
255
0
255
255
0
255
255
0
255
255
0
255
255
0
255
255
0
255
181
44
44
181
44
44
181
44
44
181
44
44
181
44
44
181
44
44
255
0
255
255
0
255
255
0
255
255
0
255
255
0
255
255
0
255
255
0
255
255
0
255
255
0
255
255
0
255
255
0
255
255
0
255
255
0
255
255
0
255
129
3
122
112
27
27
155
38
38
148
36
36
148
36
36
154
38
38
112
27
27
27
7
7
255
0
255
255
0
255
255
0
255
255
0
255
255
0
255
255
0
255
255
0
255
255
0
255
181
44
44
181
44
44
181
44
44
181
44
44
255
0
255
181
44
44
181
44
44
181
44
44
181
44
44
181
44
44
255
0
255
255
0
255
255
0
255
255
0
255
255
0
255
255
0
255
255
0
255
255
0
255
255
0
255
255
0
255
255
0
255
255
0
255
255
0
255
255
0
255
255
0
255
255
0
255
255
0
255
255
0
255
181
44
44
181
44
44
181
44
44
181
44
44
181
44
44
181
44
44
255
0
255
255
0
255
255
0
255
255
0
255
255
0
255
255
0
255
255
0
255
255
0
255
255
0
255
255
0
255
255
0
255
255
0
255
255
0
255
255
0
255
255
0
255
28
7
7
40
10
10
38
9
9
38
9
9
39
10
10
29
7
7
255
0
255
255
0
255
255
0
255
255
0
255
255
0
255
255
0
255
255
0
255
255
0
255
255
0
255
181
44
44
181
44
44
181
44
44
255
0
255
181
44
44
181
44
44
181
44
44
181
44
44
181
44
44
181
44
44
255
0
255
255
0
255
255
0
255
255
0
255
255
0
255
255
0
255
255
0
255
255
0
255
255
0
255
255
0
255
255
0
255
255
0
255
255
0
255
255
0
255
255
0
255
255
0
255
255
0
255
255
0
255
181
44
44
181
44
44
181
44
44
181
44
44
181
44
44
181
44
44
255
0
255
255
0
255
255
0
255
255
0
255
255
0
255
255
0
255
255
0
255
255
0
255
255
0
255
255
0
255
255
0
255
255
0
255
255
0
255
255
0
255
255
0
255
255
0
255
255
0
255
255
0
255
255
0
255
255
0
255
255
0
255
255
0
255
255
0
255
255
0
255
255
0
255
255
0
255
255
0
255
255
0
255
181
44
44
181
44
44
255
0
255
255
0
255
255
0
255
255
0
255
181
44
44
181
44
44
181
44
44
181
44
44
181
44
44
181
44
44
255
0
255
255
0
255
255
0
255
255
0
255
255
0
255
255
0
255
255
0
255
255
0
255
255
0
255
255
0
255
255
0
255
255
0
255
255
0
255
