P3
64 64
255
142 120 90 132 126 71 131 126 69 129 125 67 128 123 65 126 121 63 126 121 62 
125 119 60 125 119 58 123 118 56 123 116 53 121 115 50 120 113 47 122 115 46 
130 122 46 135 126 47 137 129 48 137 129 48 134 126 47 130 122 46 125 118 45 
121 114 45 116 110 44 120 114 45 135 129 48 135 128 48 119 111 45 118 110 44 
133 125 46 141 133 47 142 134 47 143 135 47 145 135 47 147 137 47 149 139 47 
146 137 47 138 131 47 133 126 47 131 124 46 132 125 46 137 129 47 132 124 46 
117 111 44 116 110 44 129 121 46 136 128 48 139 131 48 133 126 47 119 113 45 
112 106 44 112 106 44 115 109 44 122 115 45 122 115 45 115 109 44 113 107 44 
114 108 44 114 108 44 114 108 44 114 108 44 114 109 44 115 109 44 114 108 44 
114 108 44 143 129 90 141 124 79 136 126 68 131 125 62 131 124 60 128 122 59 
127 120 57 125 119 56 124 118 55 123 117 54 123 116 53 120 113 51 122 114 49 
124 118 47 131 123 46 136 127 47 137 129 48 137 128 48 133 124 46 131 122 46 
128 121 45 125 117 45 121 115 44 124 117 45 134 127 47 134 126 47 121 113 45 
121 113 45 133 125 46 139 131 47 137 129 47 137 129 46 138 129 46 139 130 46 
142 132 46 141 132 47 137 129 47 134 127 47 132 124 46 133 126 46 139 131 47 
135 128 47 123 116 45 122 115 45 131 124 46 137 128 47 137 129 48 131 123 47 
118 112 45 113 107 44 116 110 45 121 114 45 126 119 45 125 118 45 118 112 44 
114 108 44 114 108 44 114 108 44 114 108 44 115 109 44 115 109 44 115 109 44 
114 108 44 114 108 44 147 128 106 144 127 87 140 123 76 136 123 66 132 124 59 
129 122 56 127 121 57 125 119 55 125 118 55 123 117 53 122 116 52 120 114 51 
121 115 49 123 115 48 129 121 47 134 125 46 137 128 47 136 127 47 130 122 47 
127 120 46 127 119 46 126 119 46 125 118 45 127 120 46 132 124 46 130 122 46 
125 118 45 127 119 45 135 126 47 135 126 47 127 119 45 122 115 44 121 114 44 
122 114 45 125 116 45 129 120 46 134 126 47 136 128 47 133 125 46 136 127 46 
144 135 48 144 135 48 136 129 47 134 127 46 137 129 47 137 128 47 132 124 47 
126 118 46 116 110 44 117 110 44 127 119 47 133 124 47 135 127 47 132 124 46 
124 116 45 118 111 44 114 108 45 113 108 45 115 109 45 116 110 45 117 111 45 
116 111 44 114 108 44 113 107 44 146 134 119 147 128 108 143 125 89 141 122 79 
135 120 66 131 123 58 128 121 55 126 120 54 125 119 54 123 117 53 122 116 51 
122 115 50 122 115 49 125 119 48 130 122 47 134 126 46 136 128 47 136 127 47 
131 123 46 128 120 45 129 122 46 130 123 47 131 123 47 132 124 46 131 122 46 
128 121 46 129 122 45 130 123 46 134 125 47 131 122 46 121 114 45 115 109 44 
113 107 44 114 107 44 119 111 45 125 117 46 133 126 47 137 128 47 134 125 46 
137 128 46 144 135 48 146 137 48 142 134 47 140 132 47 141 132 47 138 129 47 
131 123 46 124 117 45 117 110 44 119 113 45 132 124 47 138 129 48 138 130 47 
136 128 47 131 122 46 127 119 46 123 116 46 122 115 46 125 117 46 126 118 46 
127 120 46 124 118 45 119 112 45 116 110 44 147 141 134 146 136 123 
145 130 110 143 125 95 140 120 83 136 118 68 131 122 57 127 120 54 125 119 52 
124 117 52 123 116 50 124 117 50 125 119 49 127 120 49 129 121 48 132 125 47 
134 126 46 133 125 46 131 123 46 130 121 46 132 123 46 133 125 47 135 126 47 
135 127 47 131 123 46 129 121 46 132 125 46 133 125 47 130 122 46 125 118 46 
120 114 45 116 110 44 113 107 44 115 109 44 123 116 46 130 123 47 135 127 47 
137 128 47 134 125 46 136 126 46 141 132 47 142 133 47 140 131 47 140 131 47 
142 134 47 140 131 47 134 125 46 127 118 46 119 112 45 121 114 45 132 124 47 
136 129 48 135 127 47 136 127 47 139 130 47 140 131 47 140 130 47 140 131 47 
142 133 47 144 134 47 144 135 48 139 130 47 129 121 46 124 116 46 144 143 141 
145 142 134 146 138 126 144 132 113 142 127 97 140 119 85 137 118 70 
131 119 57 128 121 52 125 119 51 126 119 50 126 119 49 127 119 49 128 121 48 
130 122 47 133 125 47 133 125 46 132 124 46 130 122 45 131 123 46 134 125 46 
136 127 47 137 129 47 137 128 47 134 126 47 133 125 47 137 128 47 136 128 47 
132 124 46 128 121 46 125 118 46 123 116 45 121 114 45 125 117 45 134 127 48 
140 132 49 142 134 49 140 131 48 132 124 46 131 123 46 136 127 47 139 130 47 
140 131 47 141 131 47 141 132 47 138 129 46 130 122 46 124 116 45 118 111 45 
122 115 46 135 128 48 140 133 49 138 130 48 139 130 48 143 133 48 146 136 48 
148 138 48 150 140 49 151 141 48 151 140 48 147 137 48 140 131 47 130 121 46 
125 117 46 143 145 143 145 145 141 146 143 135 147 139 126 145 133 114 
142 128 98 142 121 85 136 118 68 132 120 57 128 120 50 128 121 49 128 122 48 
129 122 48 130 123 48 131 123 48 132 124 47 131 123 45 129 122 45 130 122 45 
133 124 45 135 126 47 137 128 47 139 129 47 137 129 47 138 130 48 141 133 48 
142 132 47 141 131 47 141 131 47 139 130 47 135 127 47 134 127 47 138 129 47 
143 134 48 151 142 51 155 146 52 154 145 51 145 137 50 128 121 46 123 116 45 
131 123 47 138 129 47 143 134 47 143 133 47 137 127 46 129 121 45 121 114 45 
115 109 44 113 107 44 121 115 45 141 134 49 150 142 50 147 140 50 145 137 49 
143 133 48 144 134 48 148 138 49 151 141 50 152 142 49 147 137 48 136 127 47 
128 120 46 122 115 45 119 113 45 145 147 145 145 146 145 147 147 142 
148 144 136 147 139 126 145 132 113 143 127 96 140 120 81 136 119 66 
132 121 55 132 123 50 130 123 48 131 123 48 132 124 48 132 124 47 130 122 46 
129 121 46 128 120 45 130 122 45 134 125 46 136 127 46 138 129 47 138 129 47 
136 128 47 140 131 47 141 131 47 137 127 46 137 128 46 144 134 47 145 135 47 
141 132 47 141 132 47 146 136 48 151 140 49 154 145 51 155 146 52 154 145 51 
143 135 49 123 117 46 118 112 45 127 120 46 135 127 47 143 133 47 142 132 47 
132 123 45 124 116 45 116 110 44 113 108 44 115 109 44 125 118 45 143 135 49 
151 143 50 149 141 50 146 138 49 143 134 47 144 135 48 150 141 50 154 144 51 
155 145 50 149 139 49 135 127 47 126 118 46 120 113 45 117 111 45 148 149 149 
147 148 147 148 148 149 150 148 146 149 145 137 148 139 128 146 133 111 
142 127 94 140 121 79 137 121 63 135 123 54 132 125 49 132 125 48 133 126 48 
132 123 47 129 121 46 128 120 45 127 119 44 131 123 45 134 125 46 136 127 46 
136 127 46 133 126 46 134 126 46 135 127 47 132 122 45 122 115 44 124 116 44 
140 131 46 146 137 47 142 133 47 142 133 47 147 137 48 148 138 48 145 135 48 
142 134 48 140 132 48 132 125 47 119 113 45 117 111 44 125 118 45 133 124 46 
139 129 47 138 128 47 128 120 46 121 114 45 117 110 44 118 111 44 125 117 45 
132 125 46 141 133 47 144 136 48 143 135 48 142 134 48 143 135 48 147 139 49 
154 146 51 158 149 51 159 149 51 155 145 50 144 136 48 134 127 47 125 117 46 
120 113 46 148 147 146 149 150 149 152 154 154 151 152 152 150 147 145 
149 143 137 148 136 128 145 130 110 143 126 92 142 122 78 140 122 63 
135 123 55 135 126 51 133 124 48 131 123 47 128 121 46 127 119 45 129 121 44 
131 123 45 134 125 46 134 126 46 134 126 46 133 125 46 131 123 46 130 121 45 
124 116 44 116 109 43 119 112 44 134 126 46 143 134 47 143 134 47 145 135 48 
149 139 48 146 137 48 138 129 47 132 124 46 129 122 46 125 118 46 119 113 45 
120 113 44 127 119 45 133 125 46 139 129 47 135 126 47 124 117 45 118 112 44 
118 111 44 124 116 45 134 126 46 139 130 47 137 129 46 136 128 46 135 128 46 
136 129 47 139 131 47 143 135 48 148 140 50 152 143 50 155 145 50 154 144 50 
148 139 49 140 132 48 131 123 47 127 118 46 143 143 140 148 150 148 
157 160 161 155 154 156 147 143 141 146 140 138 147 139 134 147 134 125 
146 131 110 144 128 95 145 122 82 140 122 65 136 123 54 133 123 49 129 122 47 
128 120 46 127 119 45 129 120 44 132 123 46 133 124 46 134 126 46 132 123 45 
129 122 45 128 120 45 126 118 44 119 112 44 115 109 44 119 113 44 128 119 45 
136 127 46 144 135 48 149 140 49 151 142 49 145 137 48 132 124 47 124 116 46 
120 113 45 121 113 45 124 117 45 128 120 45 132 124 46 136 128 47 141 132 48 
135 127 48 120 113 45 115 109 44 121 114 44 131 122 46 144 135 47 144 135 47 
131 123 46 125 118 45 127 120 46 128 121 46 129 121 46 130 122 47 131 124 47 
136 128 47 143 133 47 146 137 47 145 137 49 143 135 49 139 130 48 137 128 48 
140 141 137 145 147 144 154 158 158 153 153 153 144 140 137 143 139 136 
146 140 138 147 139 134 148 136 126 149 134 114 147 129 99 146 121 85 
138 120 67 133 121 54 130 121 48 128 120 46 127 118 45 129 120 45 132 123 46 
132 124 46 132 124 46 130 122 46 128 120 45 126 119 45 121 113 44 116 109 44 
115 108 44 118 111 44 123 116 44 131 123 46 144 135 48 149 140 49 147 139 49 
139 132 48 126 119 46 119 112 45 117 111 45 119 112 45 123 116 45 129 121 45 
135 127 47 140 132 48 145 137 50 138 130 48 119 113 45 114 108 44 123 115 45 
132 124 46 142 133 47 140 132 47 126 119 45 120 113 45 122 115 45 125 118 46 
129 120 46 129 121 46 126 118 46 129 121 46 137 128 46 142 133 47 144 135 48 
144 136 49 143 135 48 143 134 48 141 141 140 142 141 140 143 142 141 
144 143 141 144 142 139 146 142 142 149 145 145 147 142 140 145 138 132 
148 137 128 149 136 120 148 129 106 144 120 89 137 119 65 131 118 51 
128 119 47 127 118 45 129 121 45 131 122 46 131 123 47 131 123 46 129 121 46 
127 119 46 123 116 45 120 113 45 117 111 45 115 108 44 117 110 44 122 115 44 
130 122 46 141 132 48 143 135 48 136 129 48 128 122 47 120 114 46 118 111 45 
120 114 45 120 113 44 117 110 44 122 115 45 135 127 47 145 137 49 152 143 50 
145 136 49 122 114 45 115 108 44 123 116 45 128 121 45 130 122 46 128 120 46 
122 114 45 119 112 45 121 114 45 127 119 46 138 128 47 140 130 47 132 123 46 
132 123 46 138 130 47 142 134 47 143 135 48 144 136 48 144 136 48 144 136 48 
143 143 144 141 139 139 136 132 128 138 134 131 146 145 144 151 150 150 
151 151 151 149 146 146 146 140 139 146 140 136 149 141 135 150 137 127 
149 129 109 145 118 89 135 117 64 129 117 50 127 119 46 129 120 45 130 122 46 
130 122 46 129 121 47 127 120 46 125 117 45 123 116 45 120 114 45 119 112 45 
116 109 44 117 110 44 122 115 45 130 122 46 138 130 47 138 130 48 127 121 47 
121 115 46 119 112 45 121 114 45 127 120 46 127 120 45 122 114 45 124 116 45 
134 126 47 141 133 48 146 137 49 139 131 48 121 113 45 115 108 44 121 114 44 
123 116 45 122 115 46 120 113 46 118 111 45 117 111 45 118 112 45 125 117 45 
137 128 46 140 130 47 132 122 46 129 121 46 133 125 46 136 128 47 138 130 47 
140 132 48 143 135 48 145 136 48 144 146 147 142 141 141 137 131 127 
140 134 130 146 142 140 137 126 119 144 141 138 152 150 149 149 146 146 
147 145 143 149 146 141 150 143 138 152 138 130 148 128 110 143 117 86 
134 116 61 129 119 48 129 120 47 129 121 46 130 122 46 130 122 47 127 120 46 
125 117 45 122 115 44 123 115 46 122 115 45 118 110 44 118 111 44 124 117 45 
131 123 46 136 128 47 133 125 47 121 115 45 118 111 45 123 115 45 130 121 46 
138 129 47 140 131 47 137 128 47 134 125 46 131 124 46 128 122 45 126 119 45 
122 115 45 116 110 44 114 108 44 115 109 44 116 110 44 118 112 45 117 111 45 
115 109 44 114 108 44 114 108 44 119 112 44 127 120 45 129 121 45 124 117 45 
122 115 45 122 115 45 124 117 46 128 121 46 134 126 47 142 133 48 146 136 48 
148 150 152 144 142 142 135 126 120 138 130 125 147 142 139 129 117 109 
132 120 110 147 144 140 151 150 150 152 150 148 150 148 145 151 149 144 
153 146 142 153 138 130 148 128 109 144 116 85 134 116 60 130 120 49 
130 121 47 130 123 47 130 122 47 127 119 46 125 118 45 124 116 45 124 117 46 
123 115 45 119 111 44 119 111 44 124 117 45 129 121 46 132 125 47 129 122 46 
119 112 44 119 111 44 129 120 46 136 127 47 140 131 48 143 134 48 144 134 48 
140 130 47 131 123 46 123 116 45 117 110 44 113 108 44 113 108 44 113 108 44 
113 107 44 115 109 44 119 113 45 119 113 45 115 109 44 114 108 44 115 109 44 
118 112 45 122 115 45 122 115 45 119 113 45 117 111 45 116 109 44 119 112 45 
125 118 46 132 124 46 139 130 47 143 133 48 156 157 159 148 144 143 
131 117 110 132 119 112 149 148 146 135 124 117 140 134 128 148 146 142 
149 148 144 152 150 148 154 153 151 152 151 149 154 151 147 153 146 143 
152 135 130 146 128 105 145 115 88 134 118 60 132 120 50 131 123 47 130 122 47 
128 120 46 126 118 46 125 118 45 126 118 45 123 115 45 119 112 44 119 111 44 
120 114 44 124 118 45 128 121 47 127 121 46 119 113 45 122 115 45 136 127 46 
140 131 47 135 126 46 136 127 47 143 133 48 142 132 48 132 123 46 124 116 45 
118 111 45 115 108 44 113 107 44 113 108 44 115 109 44 119 113 45 125 119 46 
125 118 46 119 112 44 117 111 44 121 114 45 122 116 46 121 114 45 119 113 45 
118 111 44 116 109 44 114 107 44 119 112 45 129 121 46 134 127 47 135 127 47 
136 127 46 162 164 167 146 139 136 131 117 108 133 121 112 150 150 148 
145 141 136 153 153 152 151 151 147 147 143 138 142 138 133 156 154 152 
155 155 153 154 152 150 152 149 146 151 146 138 151 135 126 146 127 105 
148 115 90 135 120 60 132 124 51 131 123 49 128 120 47 127 120 46 127 118 46 
127 119 46 124 116 45 120 112 44 119 113 44 123 117 46 128 122 47 132 125 47 
131 124 47 124 117 46 127 120 46 141 132 47 144 134 47 136 128 46 136 128 46 
144 134 48 142 132 48 130 121 46 123 115 46 122 114 46 120 113 45 119 112 45 
121 114 45 125 119 46 130 123 47 134 126 47 131 123 47 121 114 45 118 111 44 
122 115 45 123 116 46 121 114 45 121 113 45 121 114 44 121 114 44 121 113 44 
125 117 45 134 126 47 137 129 47 133 125 46 131 123 46 169 173 174 160 160 159 
141 134 127 141 133 127 158 160 159 160 166 167 150 151 150 149 149 147 
143 136 130 133 122 113 147 142 137 157 157 156 156 155 152 153 150 148 
151 147 143 150 144 136 153 136 127 146 129 106 147 116 90 138 122 59 
132 123 51 130 122 49 129 121 48 128 121 47 129 121 46 126 118 45 120 114 44 
122 114 45 132 124 49 140 133 50 143 136 50 140 132 49 133 124 47 134 125 47 
143 135 48 147 138 48 144 135 47 144 135 47 147 139 48 140 132 48 124 117 46 
119 113 45 128 119 46 131 122 47 130 122 46 134 127 47 145 137 49 148 140 50 
144 136 49 136 128 47 123 116 45 117 110 44 119 112 44 121 114 44 123 115 45 
126 118 45 131 124 45 134 126 46 135 127 46 137 129 46 141 133 47 139 131 47 
132 124 46 129 121 46 169 174 175 164 166 166 152 150 147 150 149 146 
160 163 163 161 165 167 149 148 147 149 147 146 159 159 160 155 152 150 
154 149 146 157 156 155 152 150 149 151 148 147 150 147 145 148 141 139 
150 143 135 152 135 126 147 131 104 147 118 89 137 123 62 132 123 54 
131 123 51 130 121 49 129 121 48 126 118 46 123 115 44 122 116 45 132 126 49 
143 135 52 148 140 51 147 139 50 137 128 48 134 125 47 138 131 47 142 134 47 
146 137 47 147 138 47 145 137 48 136 129 47 120 114 45 117 110 45 128 119 46 
134 125 47 135 126 47 142 133 48 155 146 51 157 148 51 148 139 49 138 130 47 
127 120 45 122 114 44 121 114 44 123 115 44 127 118 45 131 123 46 136 128 46 
141 133 47 146 137 48 148 139 48 147 138 48 142 133 47 132 124 46 127 119 46 
163 167 168 163 168 169 163 170 171 164 171 172 165 170 172 154 153 153 
142 136 130 141 135 130 129 114 104 140 128 123 168 169 172 160 159 158 
144 139 137 143 138 135 147 141 140 148 146 142 150 144 139 148 141 131 
152 134 123 146 130 100 146 120 89 137 123 66 133 124 58 131 123 52 132 122 49 
128 119 47 123 116 46 123 117 45 132 125 47 142 135 50 151 143 52 151 143 51 
136 129 48 127 120 46 125 119 46 131 123 46 143 133 47 145 135 47 137 129 47 
127 121 46 117 111 45 115 109 45 122 114 45 128 119 46 134 125 47 142 133 49 
154 145 51 155 146 51 144 136 50 137 129 48 134 127 47 131 124 46 128 120 45 
129 120 46 134 124 46 136 126 47 136 127 47 142 133 48 153 144 50 156 147 51 
152 143 50 144 135 48 133 124 46 127 118 46 161 165 168 163 169 172 
168 177 181 168 177 180 163 170 171 156 157 156 146 144 140 131 118 110 
130 115 105 151 146 144 165 169 169 157 158 157 142 138 133 139 133 128 
145 139 134 149 143 139 148 144 141 149 141 137 148 140 129 150 133 124 
146 129 102 144 124 89 138 125 69 135 123 59 131 123 53 128 120 49 126 117 46 
124 118 46 131 123 47 137 129 49 145 137 51 147 139 50 132 126 47 122 116 45 
119 112 45 124 117 45 137 128 46 139 130 47 130 123 46 126 119 46 125 118 46 
124 118 46 124 117 45 127 119 46 133 124 47 141 132 49 150 141 50 151 142 50 
143 135 50 141 132 49 143 134 48 141 133 48 136 127 47 134 125 47 136 126 47 
135 126 47 132 123 46 135 127 47 147 139 49 150 142 50 146 137 49 141 132 48 
135 126 47 133 123 46 165 169 170 166 171 173 166 174 176 163 170 171 
157 160 159 152 154 150 149 149 147 150 149 146 158 159 158 162 165 164 
153 153 150 154 156 154 150 151 148 150 147 143 150 143 140 150 146 143 
150 146 144 149 145 142 152 143 140 150 142 130 150 133 121 144 130 102 
143 125 88 138 126 73 135 124 60 130 121 54 126 118 49 124 117 46 129 121 46 
133 126 47 136 129 47 136 128 47 127 121 46 121 114 44 120 113 45 122 115 45 
128 121 46 129 122 46 126 119 46 131 124 47 143 136 49 145 137 49 135 128 48 
131 124 47 133 125 47 137 129 48 142 134 49 145 137 49 146 138 50 149 140 50 
152 143 50 151 142 50 145 136 49 140 130 48 134 125 46 128 120 45 121 114 45 
121 115 45 128 122 46 130 123 46 128 121 46 131 123 46 139 131 47 143 134 48 
165 169 169 164 169 170 163 170 171 161 166 167 157 162 160 154 156 153 
149 149 147 153 153 152 162 165 165 159 160 159 149 148 145 160 166 167 
154 155 153 154 151 148 156 154 152 155 153 153 154 153 150 155 151 150 
156 151 147 152 143 139 148 139 128 148 134 118 144 130 102 142 126 89 
136 124 73 132 121 60 127 119 54 126 118 48 128 120 47 130 122 46 129 122 46 
129 122 45 124 118 45 121 114 44 124 117 45 126 119 46 131 124 47 132 126 47 
130 123 47 137 130 49 154 145 51 157 148 51 146 138 50 140 133 49 140 132 49 
142 133 49 144 136 49 147 139 50 151 142 50 154 145 51 156 147 51 154 145 51 
147 138 50 140 131 48 131 123 46 124 116 44 116 110 44 114 109 44 118 112 44 
121 115 45 123 116 45 130 122 46 141 133 47 146 137 48 162 164 162 161 164 163 
160 163 163 161 165 167 161 162 162 161 163 163 149 146 144 149 144 142 
153 148 146 130 115 105 141 134 129 146 143 139 139 129 123 143 134 129 
160 159 157 163 162 161 156 152 150 159 156 155 158 155 153 154 149 145 
151 142 137 148 138 126 147 132 115 143 129 102 140 124 88 137 122 74 
130 119 60 126 118 52 126 118 48 126 119 46 126 119 44 125 117 44 122 115 44 
121 115 44 126 119 45 134 126 47 142 134 49 148 140 50 144 135 49 146 138 50 
157 148 52 160 151 52 156 148 52 155 147 51 155 146 51 155 146 51 155 147 51 
156 147 51 157 148 52 157 148 52 157 147 52 152 143 51 143 134 49 135 127 47 
128 121 45 122 115 45 116 110 44 114 108 44 117 111 45 123 116 45 131 124 45 
137 129 46 140 132 47 141 133 47 160 162 161 158 162 159 157 158 158 
153 153 152 129 113 103 141 131 126 152 151 150 150 147 145 156 156 156 
154 153 152 147 144 141 144 137 133 133 122 114 145 136 131 161 159 158 
163 164 164 164 163 162 162 160 160 158 156 155 156 150 148 152 145 140 
149 140 132 147 136 122 146 131 114 142 128 101 138 122 87 134 120 73 
130 119 61 127 118 53 125 117 46 123 116 45 121 114 44 120 113 44 123 115 45 
125 117 45 132 125 47 144 135 50 151 142 51 151 142 51 152 143 51 156 147 51 
157 148 52 157 149 52 156 148 52 155 147 51 156 147 52 159 150 52 161 151 52 
160 151 52 157 148 52 153 144 51 146 138 50 137 130 47 131 123 46 125 118 45 
121 114 45 117 111 44 117 110 44 120 113 45 126 119 45 136 128 46 140 132 46 
138 130 47 137 129 47 160 165 166 157 162 163 152 155 156 152 153 153 
142 138 134 153 154 153 161 165 165 157 160 159 144 143 141 140 138 134 
144 142 137 138 128 122 129 112 101 144 135 130 158 156 154 163 162 161 
164 163 163 163 162 161 158 156 155 154 150 148 151 145 141 149 140 133 
148 137 130 147 133 123 144 130 112 141 125 100 138 121 88 135 117 72 
129 117 60 124 116 51 121 114 47 120 113 45 122 114 45 123 116 45 121 115 44 
125 118 45 137 130 49 146 138 51 153 145 52 155 147 52 150 142 51 147 139 50 
146 139 50 144 137 50 142 134 49 146 137 50 156 147 52 161 152 53 161 152 53 
156 147 52 145 137 51 137 130 49 131 124 46 126 119 45 122 115 45 121 113 45 
121 113 45 122 115 45 126 119 45 130 123 46 137 129 47 138 130 47 135 127 46 
133 125 46 160 165 169 159 163 166 157 162 164 160 166 167 155 159 160 
156 161 161 158 162 161 153 153 150 138 133 129 141 142 138 147 145 140 
146 140 133 137 124 118 152 148 144 159 157 155 163 161 161 164 163 161 
160 159 158 156 154 152 154 150 147 150 143 139 149 141 137 148 139 134 
147 135 128 145 132 120 142 127 112 141 123 98 137 120 88 132 115 73 
128 114 60 124 115 50 120 112 47 120 114 46 122 115 45 122 115 44 124 117 45 
132 124 47 141 133 49 150 142 51 153 145 51 147 139 50 141 133 49 136 129 48 
134 127 48 135 127 47 141 132 48 152 143 51 157 148 52 158 148 52 151 142 51 
137 130 49 128 122 47 124 118 45 122 115 44 121 114 45 122 115 45 126 118 45 
130 121 46 134 127 47 136 128 47 135 127 47 134 126 47 134 126 46 134 126 46 
161 165 169 161 165 169 162 167 169 161 167 168 161 166 166 157 162 161 
148 145 142 133 120 111 136 127 121 151 151 150 154 154 151 155 151 148 
151 144 139 155 146 144 161 157 157 163 162 162 163 162 161 161 159 157 
155 151 148 152 146 143 149 142 138 149 142 138 149 140 136 147 136 131 
146 133 126 144 130 119 143 126 110 140 123 99 137 118 87 133 114 72 
127 113 59 123 114 50 120 113 46 121 114 45 122 115 44 121 114 45 127 121 46 
134 126 47 142 134 49 148 139 50 143 135 49 137 129 48 127 121 46 126 119 46 
136 126 47 142 133 48 146 137 49 149 140 50 150 141 50 143 135 49 129 121 47 
120 113 45 117 111 44 117 111 44 121 115 45 126 120 46 133 124 46 139 130 47 
146 137 49 143 135 49 130 123 46 128 121 45 137 129 47 141 132 48 162 164 168 
157 157 158 163 165 166 165 169 170 163 167 167 159 162 162 152 152 151 
147 144 142 151 149 148 153 152 151 153 150 147 151 146 143 152 143 139 
154 146 144 160 156 155 162 160 159 158 157 155 154 151 147 153 149 146 
150 143 139 150 144 141 150 144 141 148 140 136 147 137 132 146 133 129 
146 132 126 145 130 119 143 126 110 140 122 98 138 116 87 132 114 70 
126 113 57 121 113 49 120 114 46 122 115 45 121 115 45 124 118 46 131 123 47 
140 132 49 146 138 50 143 135 49 136 129 47 124 117 45 119 113 45 130 121 46 
137 128 47 140 131 48 143 134 49 145 136 49 138 130 48 124 116 46 115 109 44 
114 108 44 116 111 44 123 117 46 129 122 46 134 126 47 142 133 48 150 141 50 
147 139 49 131 125 46 129 123 46 141 132 48 146 137 48 163 164 166 146 137 134 
142 133 127 156 159 158 158 159 160 156 159 160 150 148 146 148 146 142 
148 147 144 146 144 140 141 134 128 143 133 127 151 141 139 158 152 151 
158 156 153 159 156 154 158 155 153 156 151 148 153 147 144 151 146 143 
151 145 142 149 141 137 147 138 133 147 137 133 146 135 131 147 134 129 
146 132 126 145 130 119 144 126 110 140 122 95 137 116 85 131 113 71 
126 113 57 121 113 48 121 114 46 121 114 45 124 118 46 129 121 46 138 130 48 
145 136 49 145 137 50 138 130 48 123 117 45 116 110 44 121 114 44 127 119 45 
135 127 47 139 131 48 143 134 48 137 128 47 122 115 45 115 108 45 115 109 45 
118 112 45 125 119 46 129 123 46 130 124 46 136 129 47 148 140 49 148 140 50 
139 132 48 138 131 47 145 136 48 148 139 49 163 165 166 158 158 157 
154 153 151 154 157 155 157 159 161 155 156 158 157 159 160 156 159 159 
148 146 143 143 138 133 134 123 116 147 143 140 151 148 145 154 145 143 
156 154 151 154 151 148 151 145 141 153 147 144 151 144 141 150 144 142 
150 143 139 148 140 137 146 138 133 144 136 131 145 136 132 146 136 131 
147 134 129 148 134 126 147 130 120 144 126 110 140 122 95 138 117 84 
132 113 69 125 112 54 122 115 48 121 115 46 124 117 46 128 121 47 135 127 48 
140 132 49 141 133 49 136 129 47 124 117 45 115 109 43 117 110 43 124 116 45 
136 128 48 142 133 49 140 131 47 133 125 46 121 114 45 116 110 45 119 112 45 
125 118 46 135 127 48 136 129 48 130 124 46 133 127 47 147 139 49 151 143 50 
144 137 49 144 136 49 150 141 49 152 143 50 163 168 170 162 167 168 
160 165 163 160 163 162 160 162 163 159 162 163 161 167 168 158 163 163 
151 147 144 144 137 131 133 122 114 157 162 162 155 156 155 146 139 132 
152 145 141 154 150 146 155 151 148 155 150 147 153 149 147 152 146 143 
148 141 136 147 138 133 144 136 131 146 138 133 146 138 134 147 138 134 
149 139 134 150 138 133 149 136 129 149 131 121 145 126 108 140 122 94 
137 115 82 132 113 67 126 114 53 123 115 46 125 119 46 128 121 47 134 126 47 
138 131 48 138 131 48 133 126 47 124 117 45 116 110 44 116 110 44 125 118 46 
143 135 50 147 138 50 137 129 48 128 121 46 122 115 45 120 113 45 125 118 46 
135 128 48 151 142 51 150 142 51 133 126 47 133 126 47 149 140 50 153 145 51 
146 139 49 147 139 49 155 147 51 159 150 52 162 167 169 162 165 166 
151 149 144 160 163 162 162 164 165 158 161 163 155 157 157 147 143 142 
149 145 143 147 140 135 140 130 122 134 123 115 140 132 125 144 136 131 
154 152 149 155 149 146 154 149 146 155 151 150 153 147 144 149 143 140 
147 139 135 145 136 131 146 139 134 147 139 135 148 141 137 149 142 138 
150 142 138 151 143 139 152 140 136 150 137 129 148 130 119 145 125 107 
142 120 96 139 113 81 133 113 65 126 116 52 125 118 47 127 120 47 132 125 47 
135 128 48 136 129 48 132 125 46 126 119 46 120 114 44 118 112 44 126 119 46 
139 132 49 146 138 50 134 127 48 126 119 46 124 117 46 124 117 45 127 120 46 
136 128 48 151 142 51 150 141 50 133 125 47 131 124 47 145 137 50 149 141 50 
143 135 49 144 137 49 154 145 51 159 149 52 161 162 162 160 161 161 
157 157 157 160 160 160 153 148 147 159 159 159 146 143 141 140 134 131 
148 144 144 153 148 149 157 154 152 151 145 140 134 122 113 134 122 113 
151 144 140 157 152 150 158 154 151 155 152 150 151 148 144 147 139 134 
144 134 129 146 138 133 149 142 139 150 144 140 151 143 139 149 143 139 
149 145 141 151 143 140 151 142 138 152 139 134 150 135 129 148 130 120 
147 124 111 146 119 99 141 114 84 134 114 65 128 118 52 129 121 47 130 123 47 
134 126 48 135 128 48 131 125 47 128 121 46 124 117 46 122 116 45 125 118 47 
135 128 48 141 133 48 134 126 47 129 121 46 128 121 47 127 121 46 123 116 45 
125 118 45 135 127 47 136 128 47 129 121 46 129 121 47 137 128 48 138 130 49 
133 126 47 136 129 47 146 138 49 151 142 50 159 159 159 159 158 158 
158 157 157 153 150 149 153 148 147 154 152 151 148 145 142 145 141 139 
151 148 149 157 154 156 161 162 161 157 157 155 139 129 122 136 125 117 
148 143 140 146 139 134 158 155 153 148 140 136 142 131 125 144 134 129 
145 139 133 148 142 140 152 147 144 151 147 143 149 144 140 147 143 140 
148 142 138 149 142 138 151 144 140 152 143 141 152 140 136 151 134 130 
151 132 126 153 124 120 149 120 103 146 114 87 137 117 65 131 121 52 
131 124 47 132 125 47 135 127 48 133 126 48 130 123 48 128 121 47 126 120 47 
128 122 47 135 127 48 141 133 49 139 131 48 134 125 47 132 125 47 128 122 46 
121 115 45 119 113 44 123 116 45 126 118 45 127 119 46 128 120 46 130 122 47 
129 121 47 125 118 46 127 120 46 136 127 47 140 131 48 157 157 159 155 154 154 
161 161 161 140 129 122 148 146 143 153 155 153 150 149 148 154 153 153 
159 158 159 158 157 157 156 156 155 158 161 161 148 142 140 148 140 138 
150 145 142 155 151 148 158 153 152 138 128 120 141 130 125 150 145 141 
149 142 140 154 150 148 154 149 147 149 146 142 146 143 138 146 140 135 
146 140 134 148 142 138 149 143 141 150 143 140 149 140 136 150 139 137 
152 138 134 154 135 133 157 125 128 150 122 107 148 115 90 138 119 64 
132 123 51 132 124 47 134 127 48 135 128 49 135 128 48 132 125 47 131 124 48 
132 125 48 136 128 49 141 134 50 144 136 49 140 131 48 135 127 47 130 122 46 
123 116 45 118 112 45 115 109 44 118 112 45 127 119 46 129 121 46 125 117 46 
121 114 45 117 111 45 117 111 44 122 115 45 124 116 45 154 153 153 154 153 153 
157 157 156 145 139 134 130 116 106 134 123 116 151 151 149 157 157 156 
159 160 159 158 158 157 160 164 165 158 162 162 153 149 148 154 148 146 
153 148 144 155 151 148 159 156 155 147 140 137 139 130 123 156 154 152 
159 155 154 155 152 148 149 147 143 145 143 137 141 134 128 142 135 130 
144 135 129 147 142 138 149 144 141 146 142 139 144 135 131 147 141 137 
149 140 139 150 140 137 154 137 137 158 127 130 150 126 104 150 116 91 
139 121 62 134 125 51 137 128 48 137 130 49 136 130 49 137 130 49 135 127 48 
134 127 49 138 130 49 143 135 50 145 138 50 143 135 49 138 130 47 133 125 46 
131 124 47 126 120 47 116 111 45 116 110 44 125 118 45 127 119 46 120 113 45 
116 109 44 114 108 44 114 107 44 115 108 44 115 109 44 147 145 143 148 145 143 
151 146 145 143 132 128 127 109 98 132 117 108 153 154 151 152 154 149 
156 159 157 154 153 151 158 162 162 156 158 157 153 149 147 153 148 143 
156 152 149 157 153 151 157 154 154 159 156 158 152 147 144 155 150 149 
153 151 148 147 144 140 141 136 131 138 130 123 137 127 120 137 127 121 
143 134 129 149 145 142 149 144 142 145 138 138 142 136 133 143 136 131 
144 138 134 146 138 134 150 140 135 153 139 132 157 128 126 147 129 97 
149 117 86 139 125 56 138 130 50 140 132 49 140 133 49 140 132 49 138 131 49 
138 130 49 140 132 50 144 136 50 148 139 50 148 139 50 141 133 48 137 130 48 
143 134 49 141 133 49 126 120 46 119 113 44 123 115 45 122 114 45 115 109 44 
113 107 44 116 109 44 116 109 44 114 108 44 113 107 44 147 146 143 147 144 142 
146 141 140 150 145 143 143 135 129 151 150 148 160 166 166 151 152 149 
141 134 128 150 149 144 154 152 150 155 153 151 156 154 152 155 153 150 
154 150 146 153 149 146 155 152 151 157 155 155 160 160 160 159 162 163 
153 153 151 144 143 138 142 136 131 136 126 119 133 122 113 131 118 109 
142 131 125 147 139 135 146 137 135 149 143 141 145 140 135 142 136 131 
141 133 128 144 136 131 149 141 136 152 141 135 151 139 126 155 130 115 
146 131 85 148 122 77 141 131 55 142 133 51 141 134 50 141 134 50 142 135 50 
141 133 49 142 135 50 146 138 50 149 141 51 149 141 51 143 135 49 138 131 48 
148 140 50 150 141 51 135 128 47 126 119 45 126 118 45 123 116 45 119 113 45 
118 112 45 119 113 44 119 112 44 117 110 44 115 109 44 152 155 153 149 149 147 
141 136 134 144 139 137 158 158 158 159 161 161 150 150 149 143 136 133 
142 133 128 150 144 140 151 145 141 153 150 146 162 165 163 159 161 158 
147 143 139 146 140 136 153 149 147 152 149 148 150 150 148 160 166 167 
150 149 147 156 160 159 150 148 145 131 119 109 132 118 110 133 120 111 
127 112 102 140 132 127 153 149 147 155 150 147 149 143 140 145 138 133 
142 133 129 141 133 128 148 141 136 150 139 135 151 138 128 152 136 117 
152 129 100 145 133 76 149 128 70 142 134 52 143 134 50 142 135 49 142 135 49 
143 135 49 144 136 50 148 140 51 149 141 51 149 140 50 144 135 49 139 131 48 
147 139 51 152 144 51 144 137 49 139 130 48 134 126 47 132 124 47 131 124 47 
129 123 47 125 118 45 122 116 45 122 115 45 122 115 45 158 163 162 153 156 154 
144 141 140 145 142 140 155 155 154 154 155 154 144 140 137 136 126 120 
127 109 99 132 118 110 150 144 140 153 148 145 157 157 154 160 163 161 
147 144 141 155 156 156 157 157 155 159 163 164 147 146 144 152 155 154 
143 137 132 147 142 139 133 121 111 131 116 108 128 112 101 132 120 110 
129 113 103 131 117 109 151 145 142 159 155 154 153 148 145 145 139 135 
135 125 119 137 128 120 148 140 134 147 139 133 152 138 135 149 136 119 
153 135 113 152 131 92 145 133 73 147 128 66 140 132 51 142 133 50 142 135 49 
144 136 49 145 137 50 147 139 50 149 140 50 147 139 50 142 134 49 139 131 48 
142 135 49 148 139 50 145 136 49 143 134 48 137 129 48 137 129 48 140 133 49 
137 130 48 128 121 46 123 116 45 122 115 45 122 115 45 159 163 161 157 160 158 
156 157 156 152 151 150 155 158 157 152 154 151 141 135 130 142 135 131 
141 132 127 134 124 116 141 136 130 147 148 146 157 155 154 162 159 160 
149 144 140 153 154 153 159 163 163 160 166 167 152 151 148 148 143 138 
142 131 127 145 140 135 136 125 117 134 123 115 134 121 111 136 126 118 
133 122 114 135 121 115 153 144 142 160 155 154 155 151 150 144 137 131 
129 115 106 141 132 124 146 139 135 149 142 139 149 143 137 155 139 135 
151 142 118 154 134 111 149 131 90 143 131 73 144 126 65 139 131 50 140 133 50 
142 135 48 144 137 48 145 137 49 145 137 49 141 134 49 139 131 48 137 129 47 
137 129 46 139 131 47 140 132 47 140 131 47 137 129 48 138 131 48 145 138 49 
142 134 49 128 121 46 120 113 45 117 111 44 116 109 44 161 163 161 159 160 158 
154 153 151 147 144 140 142 136 130 139 132 125 142 136 130 144 137 133 
137 127 119 142 138 133 139 137 132 139 135 132 147 141 139 154 148 146 
150 144 143 158 161 161 160 164 165 148 145 140 131 116 106 139 130 122 
136 124 117 127 113 104 149 146 144 148 145 142 126 110 99 130 113 102 
145 140 135 157 162 162 158 161 161 157 152 151 157 153 151 152 146 142 
147 138 133 139 127 121 138 129 122 147 142 138 152 146 142 155 148 140 
157 139 138 149 141 117 152 132 114 144 129 90 140 128 73 142 124 66 
137 130 51 139 130 50 141 133 48 142 135 48 140 132 48 138 130 48 135 127 46 
135 127 47 135 127 47 136 128 47 140 131 48 140 132 48 135 128 48 133 127 48 
139 131 48 136 128 47 125 118 45 117 111 44 114 108 44 112 106 44 165 166 166 
157 156 154 139 130 123 131 119 110 133 121 111 137 128 121 147 140 138 
149 145 144 148 144 140 141 135 130 132 121 112 127 112 101 127 111 100 
142 137 132 150 147 144 155 154 152 160 162 162 141 129 124 126 108 97 
130 113 104 129 114 104 124 107 96 126 109 98 127 109 99 127 109 98 129 115 104 
147 141 135 160 166 167 161 167 168 156 155 155 159 155 153 160 155 153 
155 148 146 134 120 111 136 125 118 150 146 143 157 151 151 155 150 147 
153 147 141 155 139 139 146 139 119 149 129 113 142 128 89 140 129 77 
143 123 68 135 129 51 137 127 49 136 129 47 135 128 47 133 126 47 131 124 46 
132 125 47 137 129 47 140 131 48 145 137 50 144 136 49 133 126 47 124 118 45 
122 116 45 120 114 45 117 111 44 115 109 44 113 107 44 112 106 44 162 161 160 
152 150 147 137 127 120 130 117 109 128 114 104 128 112 103 142 135 129 
150 147 146 150 147 145 144 137 132 130 117 109 128 112 103 129 115 106 
139 133 128 153 151 149 160 156 155 159 157 156 135 121 115 127 109 99 
130 115 106 131 118 110 138 129 122 151 151 148 138 128 121 127 110 99 
132 117 107 143 134 129 155 154 152 148 145 142 149 144 139 159 161 160 
161 158 157 157 153 152 153 149 147 151 148 144 158 157 156 157 157 154 
157 151 151 156 150 147 150 143 138 151 136 134 145 138 119 152 132 119 
143 132 95 141 130 80 143 120 73 132 124 50 131 124 46 130 124 47 131 123 46 
130 123 46 132 124 47 135 128 47 142 134 49 147 139 50 147 139 50 138 130 48 
127 120 45 120 114 44 120 113 44 123 117 45 124 117 45 120 114 45 119 112 44 
153 148 145 150 145 141 143 138 134 139 132 125 132 119 112 138 128 122 
139 134 130 145 143 140 155 152 152 151 146 145 137 128 122 134 125 119 
140 134 132 152 152 152 159 158 157 162 161 160 163 162 163 148 141 138 
140 131 123 136 123 116 141 134 130 159 164 164 161 167 168 158 161 161 
139 126 119 138 126 117 143 132 126 152 144 141 143 132 127 147 140 136 
153 154 151 155 158 155 152 148 146 152 149 146 155 152 150 158 158 155 
158 156 153 159 154 151 155 148 146 153 147 142 153 147 143 153 140 140 
149 145 127 153 132 123 142 134 95 139 128 81 143 114 78 130 121 49 130 123 47 
131 124 47 133 126 47 137 129 47 141 132 48 145 136 49 148 140 50 148 139 50 
142 133 49 135 126 47 131 123 46 133 126 47 141 133 48 143 134 48 137 128 46 
133 125 45 142 136 132 150 150 148 153 154 153 147 144 141 147 144 141 
160 166 166 156 160 159 137 130 123 151 146 146 156 157 158 144 137 133 
141 135 131 147 143 142 152 149 149 158 154 152 160 163 162 161 166 167 
155 153 150 147 140 135 147 140 136 151 151 149 161 167 168 161 167 168 
149 145 139 141 129 121 145 135 129 140 127 121 142 130 123 145 135 129 
132 119 109 149 148 145 154 156 154 149 143 140 153 148 146 157 155 152 
159 157 154 159 155 152 156 151 148 159 155 153 157 152 152 153 149 145 
148 139 135 150 139 135 149 144 129 153 125 125 135 124 83 134 120 71 
144 108 77 136 124 53 135 126 47 136 128 48 138 131 49 144 136 50 147 139 50 
151 143 51 148 139 50 142 133 48 136 129 48 134 126 47 139 131 48 149 141 50 
152 143 50 141 132 47 136 127 46 129 127 122 136 133 130 159 164 164 
155 156 155 150 146 143 158 161 161 160 164 165 152 149 147 147 143 141 
147 143 141 148 142 138 150 146 141 153 152 148 155 154 152 155 153 151 
155 153 150 154 153 151 145 138 133 148 141 138 152 146 143 151 151 150 
160 166 167 160 166 167 152 150 148 148 141 138 152 145 144 138 125 117 
130 114 104 131 116 105 126 108 97 126 108 97 136 126 118 152 147 143 
157 152 151 158 155 153 156 152 148 148 141 137 159 154 151 160 158 157 
157 156 154 149 142 140 151 148 144 151 145 142 150 141 135 141 132 117 
154 116 126 138 122 81 139 128 77 147 111 79 143 127 56 141 132 49 144 136 49 
146 137 50 149 140 50 150 142 50 147 139 49 141 133 48 137 129 47 135 127 47 
141 133 48 153 144 51 152 144 51 135 127 48 127 120 47 131 131 126 144 146 142 
159 166 167 161 167 168 153 153 151 156 158 157 154 152 150 151 148 146 
148 147 145 155 157 156 154 153 152 155 152 149 156 157 152 156 158 155 
157 157 155 149 143 140 139 130 122 140 130 122 149 143 139 156 153 152 
158 162 160 161 167 168 161 167 168 155 156 155 158 162 162 159 161 161 
146 138 133 144 131 125 132 117 108 126 108 97 129 113 103 144 135 129 
155 149 147 158 152 150 155 148 144 146 135 131 149 142 137 158 154 152 
160 161 160 160 161 161 157 159 159 155 153 154 156 155 151 153 149 147 
144 137 130 136 121 109 149 105 118 150 134 99 143 134 77 153 119 84 
148 130 60 146 137 51 148 140 51 149 141 50 150 142 50 146 138 49 142 133 48 
138 129 47 135 126 47 137 129 47 146 137 49 144 135 49 128 120 47 120 114 46 
149 149 146 146 147 144 147 149 147 154 157 157 142 136 131 140 131 125 
149 147 146 153 153 153 158 162 162 161 167 168 161 166 167 153 151 150 
141 133 126 155 153 151 156 155 154 151 147 145 142 134 128 142 133 127 
148 143 140 151 150 147 158 161 161 161 166 167 159 163 163 154 149 147 
156 153 154 156 152 151 141 129 121 143 132 127 138 126 119 127 109 98 
130 114 105 147 138 134 155 149 147 156 150 148 147 137 133 134 121 111 
146 136 131 160 159 157 161 161 160 161 165 165 161 165 165 162 164 163 
157 156 155 150 146 143 146 140 138 136 125 115 140 128 116 158 119 132 
156 134 107 147 137 81 157 124 82 152 134 59 149 141 50 150 141 50 149 141 49 
145 137 48 143 134 48 139 131 47 134 126 46 133 125 45 134 126 46 128 121 46 
119 113 45 116 110 45 152 152 149 149 149 146 139 143 137 137 137 130 
137 130 123 141 134 128 150 147 146 144 139 136 153 153 151 159 162 162 
156 158 157 140 131 125 130 113 104 154 151 147 158 157 154 154 151 149 
148 140 136 144 135 130 143 135 129 143 136 130 138 130 122 148 145 142 
160 159 159 158 155 156 158 160 160 152 153 151 155 150 147 161 159 158 
135 122 114 126 108 97 128 112 102 150 140 137 155 151 148 155 151 147 
150 141 137 151 142 137 157 154 153 160 163 162 159 162 162 159 161 160 
162 163 163 160 162 162 152 150 148 152 153 151 147 146 143 141 131 131 
143 134 128 141 132 119 152 117 119 149 119 97 150 137 85 160 130 84 
150 136 57 149 141 49 147 139 49 145 137 48 143 134 48 140 131 47 133 125 46 
130 122 45 127 119 46 121 115 44 118 111 44 115 109 44 141 138 135 138 134 129 
139 138 131 144 146 141 153 152 149 157 154 152 149 145 143 131 117 109 
143 136 131 152 152 152 151 149 148 146 140 136 151 147 141 156 153 147 
158 157 153 158 155 152 154 149 146 149 140 135 135 123 116 133 122 113 
142 132 127 148 143 139 160 156 153 156 154 151 160 165 166 150 148 146 
134 122 113 144 134 130 148 141 138 132 117 107 145 137 132 156 152 152 
155 154 151 157 157 154 157 154 150 156 150 146 155 151 147 160 165 166 
160 166 167 154 153 151 151 149 147 155 157 156 137 128 120 137 130 123 
138 131 124 146 143 139 153 151 152 147 136 131 140 128 114 146 119 109 
154 120 103 153 136 82 159 130 77 148 136 54 146 138 48 144 135 48 142 133 47 
138 130 46 131 123 45 128 120 45 125 117 45 120 114 44 118 111 44 116 110 45 
144 141 138 142 139 136 140 137 131 144 142 137 155 154 151 158 157 155 
153 151 149 149 147 144 151 151 151 151 152 152 150 149 148 149 145 140 
153 151 144 156 154 147 153 149 145 140 131 123 154 150 147 156 158 157 
157 160 159 133 122 112 140 131 124 154 155 153 155 153 149 150 143 138 
138 126 119 136 126 119 140 131 125 132 117 107 151 146 141 157 154 153 
159 161 162 159 162 163 157 157 156 160 166 167 161 164 163 142 131 124 
149 144 137 159 163 163 161 166 167 155 158 156 144 136 132 140 131 126 
134 123 115 127 112 102 137 127 120 147 142 140 145 140 137 142 133 130 
139 125 119 138 121 108 147 127 109 160 126 115 150 132 78 154 127 72 
145 135 50 143 135 47 141 132 47 136 127 46 130 122 45 127 119 45 124 117 44 
122 115 45 123 115 45 121 115 46 159 156 156 152 148 146 137 127 120 
134 124 116 143 137 131 147 143 138 147 142 137 149 145 142 152 150 149 
151 148 146 147 143 141 150 147 144 158 159 154 159 161 158 137 126 117 
133 120 111 149 143 140 152 151 149 150 149 146 144 133 127 152 149 147 
158 162 162 149 145 142 145 138 133 151 145 143 159 160 161 159 164 164 
150 145 143 155 151 149 153 149 147 151 148 146 151 148 146 154 152 149 
160 166 166 160 161 161 143 135 129 134 121 112 150 144 140 153 153 152 
151 147 145 149 145 143 151 148 145 142 134 129 130 118 109 150 149 147 
149 147 145 136 135 133 135 130 127 137 125 118 149 133 129 149 132 122 
153 140 119 161 121 111 143 127 69 152 123 69 142 133 49 137 129 46 133 125 45 
129 121 45 127 120 46 124 117 45 125 118 46 127 119 47 132 123 47 164 165 165 
155 152 150 135 123 115 130 116 105 137 130 123 143 139 134 146 142 137 
150 147 142 153 150 148 147 141 137 130 113 104 137 125 117 156 155 152 
157 156 154 147 140 135 147 139 136 153 148 146 149 146 142 149 140 136 
159 162 162 157 157 157 146 140 137 146 137 133 141 132 127 153 150 149 
158 155 155 159 157 157 158 155 155 156 152 151 152 149 147 152 149 148 
149 146 143 154 151 149 159 163 163 151 149 146 134 122 114 144 138 133 
150 145 143 149 142 140 152 149 148 155 154 153 153 151 149 148 143 139 
144 139 135 160 166 167 146 146 144 131 129 127 133 130 129 146 141 136 
148 141 136 151 145 140 157 144 140 147 133 110 155 115 105 142 126 66 
151 122 70 135 127 46 130 122 45 128 120 46 127 120 46 127 119 46 129 121 46 
133 125 47 138 130 48 161 166 163 149 147 142 132 119 109 130 117 108 
137 129 123 146 143 138 153 153 148 154 153 148 152 151 148 154 155 154 
133 120 112 144 135 129 151 145 140 149 143 139 149 144 139 153 151 150 
161 167 168 158 158 158 147 139 136 157 157 157 156 154 153 159 156 156 
134 120 112 134 120 112 152 154 151 147 141 137 149 145 142 153 151 150 
156 153 153 156 153 152 154 150 149 152 148 145 150 146 142 151 148 144 
148 143 140 129 114 104 128 112 102 148 141 138 155 151 150 156 155 154 
157 157 157 159 156 158 152 149 147 150 147 146 153 155 154 133 122 114 
130 119 112 130 117 109 145 139 135 150 145 143 148 142 138 157 155 152 
155 138 136 144 127 105 152 117 98 144 128 73 147 117 73 130 122 46 128 120 46 
127 120 46 129 122 47 133 125 47 139 131 48 143 135 49 157 162 160 149 150 146 
134 126 117 132 122 113 144 142 137 144 141 134 148 146 140 151 149 143 
153 154 152 159 164 165 137 127 121 149 143 139 151 144 141 151 145 142 
152 147 144 154 151 149 159 161 162 158 158 157 159 156 157 141 131 124 
129 114 104 142 134 129 126 108 97 127 109 98 128 112 101 144 137 132 
146 140 137 148 145 141 150 144 141 151 144 142 152 147 145 152 148 146 
152 149 145 151 148 145 151 146 144 146 137 133 147 140 137 156 152 152 
154 153 150 159 163 163 158 160 160 153 149 147 150 148 145 137 125 119 
132 120 114 129 117 109 134 124 118 133 120 112 144 137 134 148 144 141 
145 141 138 158 158 157 155 151 145 153 135 132 147 127 105 149 126 96 
142 123 80 142 114 72 127 119 46 128 120 46 133 125 47 138 129 48 144 135 49 
146 138 49 153 157 156 148 148 146 136 130 125 136 130 125 154 156 154 
141 135 130 136 127 120 141 137 131 150 151 148 150 149 144 142 136 130 
146 140 135 158 155 154 162 160 159 158 154 152 153 147 144 145 138 134 
147 140 137 142 134 130 144 138 134 136 124 118 133 120 112 129 112 104 
143 136 131 147 144 143 150 149 149 146 142 141 142 134 130 135 122 115 
136 123 116 144 135 131 152 150 149 155 155 154 155 154 152 148 145 142 
149 144 141 155 153 153 158 161 161 155 157 156 144 137 132 148 141 138 
140 129 123 154 153 149 149 147 145 136 131 128 133 127 124 141 137 135 
152 153 153 151 149 147 148 143 140 143 137 134 147 145 142 156 152 152 
151 144 138 152 135 126 150 130 113 140 125 89 142 117 86 139 112 69 
128 121 46 135 127 47 142 133 48 147 138 49 148 139 50 149 152 151 147 148 146 
142 139 136 138 131 125 135 126 117 133 122 114 136 129 123 140 138 133 
148 150 145 147 149 144 142 136 131 146 140 136 158 157 157 163 162 163 
156 152 150 154 148 145 145 137 133 149 144 142 156 159 158 153 153 153 
143 137 133 139 130 126 129 113 103 139 128 123 151 151 152 153 155 156 
149 144 143 142 132 128 131 117 109 131 117 109 142 132 128 150 145 144 
158 157 157 159 160 161 153 154 153 146 144 141 156 158 158 161 167 168 
150 149 146 134 121 112 145 140 134 152 147 144 154 152 150 146 142 139 
139 135 131 135 127 123 146 143 143 147 142 142 150 147 144 134 122 115 
143 136 132 150 150 150 151 149 148 153 148 148 155 146 141 151 137 129 
143 118 103 135 121 84 143 113 87 141 114 70 138 129 47 145 136 48 148 139 49 
145 137 49 146 150 145 147 150 146 152 152 151 153 151 150 151 149 145 
150 150 146 151 154 151 149 151 148 141 139 132 145 143 138 143 138 133 
150 147 145 154 153 153 153 152 151 133 120 110 137 127 119 154 151 150 
155 154 153 157 162 162 152 153 153 141 137 132 131 117 108 126 108 97 
128 112 102 150 147 146 153 153 153 150 147 146 145 138 136 138 127 122 
140 129 125 155 154 153 154 148 146 161 159 160 160 161 163 151 152 152 
146 144 141 154 152 149 158 159 158 152 149 145 144 137 132 154 153 152 
151 147 144 152 149 147 148 145 144 133 122 115 130 113 105 144 138 135 
148 141 138 141 134 129 139 129 123 142 132 128 160 166 166 153 152 153 
151 147 147 153 147 146 146 135 129 143 122 119 141 116 106 136 123 88 
149 115 95 150 116 76 147 138 49 145 137 49 137 130 48 141 141 134 145 145 140 
142 136 131 157 157 156 159 161 160 158 161 160 157 161 161 153 156 155 
147 148 145 145 145 141 148 145 141 152 151 150 153 153 152 140 134 129 
126 108 97 133 119 112 149 145 143 148 141 138 149 149 147 146 145 143 
141 137 132 134 126 118 129 113 104 135 124 117 149 145 144 157 162 162 
159 163 163 155 156 155 142 136 131 144 136 132 151 147 144 155 150 148 
160 158 158 159 158 159 149 148 148 147 146 144 153 151 148 154 151 146 
151 147 145 150 146 143 151 147 143 149 144 139 147 142 140 145 140 138 
138 134 130 138 131 126 148 143 138 148 143 139 141 133 128 135 123 116 
139 126 121 147 141 139 149 148 147 151 149 150 151 149 148 147 141 138 
148 142 138 145 119 125 141 119 107 141 127 95 157 118 108 162 117 92 
142 134 48 131 124 46 134 127 119 145 141 137 149 149 146 155 157 156 
156 159 158 156 159 159 153 155 154 139 132 126 146 146 145 147 146 145 
150 150 150 153 153 153 156 156 156 152 149 146 145 139 136 148 146 143 
144 136 132 138 128 122 136 127 121 137 129 124 140 137 132 140 137 133 
142 142 137 140 139 136 141 140 136 146 147 145 157 162 162 155 157 157 
138 131 124 141 137 131 151 147 145 156 152 151 157 155 154 158 160 161 
152 153 154 151 150 149 153 152 150 154 152 150 152 151 150 151 149 146 
150 147 143 145 140 134 141 133 128 138 131 126 139 133 130 144 140 137 
144 138 132 145 138 133 144 139 135 145 140 135 149 142 140 149 144 142 
149 149 148 149 148 148 146 142 140 141 135 132 138 133 129 136 120 115 
143 116 122 145 126 114 147 136 111 158 119 123 171 105 114 126 119 46 
132 121 112 140 134 129 135 124 117 139 132 126 146 141 137 156 158 158 
152 154 153 141 135 131 146 147 147 147 147 147 151 151 151 154 154 155 
158 157 158 159 159 159 157 159 158 150 149 147 140 132 127 133 121 113 
131 117 108 132 122 115 140 136 133 143 144 142 143 144 143 139 139 135 
137 136 132 139 139 136 149 149 150 151 151 151 138 130 125 130 116 106 
149 146 144 155 153 153 154 153 152 153 152 151 153 154 154 153 153 153 
156 155 156 154 152 151 152 152 152 150 149 148 150 148 145 146 140 135 
135 127 119 136 127 120 138 132 129 145 143 140 143 136 130 130 116 105 
140 132 126 149 144 142 154 151 150 155 153 153 149 150 150 146 146 145 
140 133 130 140 132 129 134 130 126 136 130 124 139 126 124 149 129 138 
146 133 126 143 138 122 155 119 134 174 92 145 
