P3
64 64
255
114 108 44 114 108 44 115 109 44 114 109 44 114 108 44 114 108 44 114 108 44 
114 108 44 113 107 44 115 109 44 122 115 45 122 115 45 115 109 44 112 106 44 
112 106 44 119 113 45 133 126 47 139 131 48 136 128 48 129 121 46 116 110 44 
117 111 44 132 124 46 137 129 47 132 125 46 131 124 46 133 126 47 138 131 47 
146 137 47 149 139 47 147 137 47 145 135 47 143 135 47 142 134 47 141 133 47 
133 125 46 118 110 44 119 111 45 135 128 48 135 129 48 120 114 45 116 110 44 
121 114 45 125 118 45 130 122 46 134 126 47 137 129 48 137 129 48 135 126 47 
130 122 46 122 115 46 120 113 47 121 115 50 123 116 53 123 118 56 125 119 58 
125 119 60 126 121 62 126 121 63 128 123 65 129 125 67 131 126 69 132 126 71 
142 120 90 114 108 44 114 108 44 115 109 44 115 109 44 115 109 44 114 108 44 
114 108 44 114 108 44 114 108 44 118 112 44 125 118 45 126 119 45 121 114 45 
116 110 45 113 107 44 118 112 45 131 123 47 137 129 48 137 128 47 131 124 46 
122 115 45 123 116 45 135 128 47 139 131 47 133 126 46 132 124 46 134 127 47 
137 129 47 141 132 47 142 132 46 139 130 46 138 129 46 137 129 46 137 129 47 
139 131 47 133 125 46 121 113 45 121 113 45 134 126 47 134 127 47 124 117 45 
121 115 44 125 117 45 128 121 45 131 122 46 133 124 46 137 128 48 137 129 48 
136 127 47 131 123 46 124 118 47 122 114 49 120 113 51 123 116 53 123 117 54 
124 118 55 125 119 56 127 120 57 128 122 59 131 124 60 131 125 62 136 126 68 
141 124 79 143 129 90 113 107 44 114 108 44 116 111 44 117 111 45 116 110 45 
115 109 45 113 108 45 114 108 45 118 111 44 124 116 45 132 124 46 135 127 47 
133 124 47 127 119 47 117 110 44 116 110 44 126 118 46 132 124 47 137 128 47 
137 129 47 134 127 46 136 129 47 144 135 48 144 135 48 136 127 46 133 125 46 
136 128 47 134 126 47 129 120 46 125 116 45 122 114 45 121 114 44 122 115 44 
127 119 45 135 126 47 135 126 47 127 119 45 125 118 45 130 122 46 132 124 46 
127 120 46 125 118 45 126 119 46 127 119 46 127 120 46 130 122 47 136 127 47 
137 128 47 134 125 46 129 121 47 123 115 48 121 115 49 120 114 51 122 116 52 
123 117 53 125 118 55 125 119 55 127 121 57 129 122 56 132 124 59 136 123 66 
140 123 76 144 127 87 147 128 106 116 110 44 119 112 45 124 118 45 127 120 46 
126 118 46 125 117 46 122 115 46 123 116 46 127 119 46 131 122 46 136 128 47 
138 130 47 138 129 48 132 124 47 119 113 45 117 110 44 124 117 45 131 123 46 
138 129 47 141 132 47 140 132 47 142 134 47 146 137 48 144 135 48 137 128 46 
134 125 46 137 128 47 133 126 47 125 117 46 119 111 45 114 107 44 113 107 44 
115 109 44 121 114 45 131 122 46 134 125 47 130 123 46 129 122 45 128 121 46 
131 122 46 132 124 46 131 123 47 130 123 47 129 122 46 128 120 45 131 123 46 
136 127 47 136 128 47 134 126 46 130 122 47 125 119 48 122 115 49 122 115 50 
122 116 51 123 117 53 125 119 54 126 120 54 128 121 55 131 123 58 135 120 66 
141 122 79 143 125 89 147 128 108 146 134 119 124 116 46 129 121 46 139 130 47 
144 135 48 144 134 47 142 133 47 140 131 47 140 130 47 140 131 47 139 130 47 
136 127 47 135 127 47 136 129 48 132 124 47 121 114 45 119 112 45 127 118 46 
134 125 46 140 131 47 142 134 47 140 131 47 140 131 47 142 133 47 141 132 47 
136 126 46 134 125 46 137 128 47 135 127 47 130 123 47 123 116 46 115 109 44 
113 107 44 116 110 44 120 114 45 125 118 46 130 122 46 133 125 47 132 125 46 
129 121 46 131 123 46 135 127 47 135 126 47 133 125 47 132 123 46 130 121 46 
131 123 46 133 125 46 134 126 46 132 125 47 129 121 48 127 120 49 125 119 49 
124 117 50 123 116 50 124 117 52 125 119 52 127 120 54 131 122 57 136 118 68 
140 120 83 143 125 95 145 130 110 146 136 123 147 141 134 125 117 46 
130 121 46 140 131 47 147 137 48 151 140 48 151 141 48 150 140 49 148 138 48 
146 136 48 143 133 48 139 130 48 138 130 48 140 133 49 135 128 48 122 115 46 
118 111 45 124 116 45 130 122 46 138 129 46 141 132 47 141 131 47 140 131 47 
139 130 47 136 127 47 131 123 46 132 124 46 140 131 48 142 134 49 140 132 49 
134 127 48 125 117 45 121 114 45 123 116 45 125 118 46 128 121 46 132 124 46 
136 128 47 137 128 47 133 125 47 134 126 47 137 128 47 137 129 47 136 127 47 
134 125 46 131 123 46 130 122 45 132 124 46 133 125 46 133 125 47 130 122 47 
128 121 48 127 119 49 126 119 49 126 119 50 125 119 51 128 121 52 131 119 57 
137 118 70 140 119 85 142 127 97 144 132 113 146 138 126 145 142 134 
144 143 141 119 113 45 122 115 45 128 120 46 136 127 47 147 137 48 152 142 49 
151 141 50 148 138 49 144 134 48 143 133 48 145 137 49 147 140 50 150 142 50 
141 134 49 121 115 45 113 107 44 115 109 44 121 114 45 129 121 45 137 127 46 
143 133 47 143 134 47 138 129 47 131 123 47 123 116 45 128 121 46 145 137 50 
154 145 51 155 146 52 151 142 51 143 134 48 138 129 47 134 127 47 135 127 47 
139 130 47 141 131 47 141 131 47 142 132 47 141 133 48 138 130 48 137 129 47 
139 129 47 137 128 47 135 126 47 133 124 45 130 122 45 129 122 45 131 123 45 
132 124 47 131 123 48 130 123 48 129 122 48 128 122 48 128 121 49 128 120 50 
132 120 57 136 118 68 142 121 85 142 128 98 145 133 114 147 139 126 
146 143 135 145 145 141 143 145 143 117 111 45 120 113 45 126 118 46 
135 127 47 149 139 49 155 145 50 154 144 51 150 141 50 144 135 48 143 134 47 
146 138 49 149 141 50 151 143 50 143 135 49 125 118 45 115 109 44 113 108 44 
116 110 44 124 116 45 132 123 45 142 132 47 143 133 47 135 127 47 127 120 46 
118 112 45 123 117 46 143 135 49 154 145 51 155 146 52 154 145 51 151 140 49 
146 136 48 141 132 47 141 132 47 145 135 47 144 134 47 137 128 46 137 127 46 
141 131 47 140 131 47 136 128 47 138 129 47 138 129 47 136 127 46 134 125 46 
130 122 45 128 120 45 129 121 46 130 122 46 132 124 47 132 124 48 131 123 48 
130 123 48 132 123 50 132 121 55 136 119 66 140 120 81 143 127 96 145 132 113 
147 139 126 148 144 136 147 147 142 145 146 145 145 147 145 120 113 46 
125 117 46 134 127 47 144 136 48 155 145 50 159 149 51 158 149 51 154 146 51 
147 139 49 143 135 48 142 134 48 143 135 48 144 136 48 141 133 47 132 125 46 
125 117 45 118 111 44 117 110 44 121 114 45 128 120 46 138 128 47 139 129 47 
133 124 46 125 118 45 117 111 44 119 113 45 132 125 47 140 132 48 142 134 48 
145 135 48 148 138 48 147 137 48 142 133 47 142 133 47 146 137 47 140 131 46 
124 116 44 122 115 44 132 122 45 135 127 47 134 126 46 133 126 46 136 127 46 
136 127 46 134 125 46 131 123 45 127 119 44 128 120 45 129 121 46 132 123 47 
133 126 48 132 125 48 132 125 49 135 123 54 137 121 63 140 121 79 142 127 94 
146 133 111 148 139 128 149 145 137 150 148 146 148 148 149 147 148 147 
148 149 149 127 118 46 131 123 47 140 132 48 148 139 49 154 144 50 155 145 50 
152 143 50 148 140 50 143 135 48 139 131 47 136 129 47 135 128 46 136 128 46 
137 129 46 139 130 47 134 126 46 124 116 45 118 111 44 118 112 44 124 117 45 
135 126 47 139 129 47 133 125 46 127 119 45 120 113 44 119 113 45 125 118 46 
129 122 46 132 124 46 138 129 47 146 137 48 149 139 48 145 135 48 143 134 47 
143 134 47 134 126 46 119 112 44 116 109 43 124 116 44 130 121 45 131 123 46 
133 125 46 134 126 46 134 126 46 134 125 46 131 123 45 129 121 44 127 119 45 
128 121 46 131 123 47 133 124 48 135 126 51 135 123 55 140 122 63 142 122 78 
143 126 92 145 130 110 148 136 128 149 143 137 150 147 145 151 152 152 
152 154 154 149 150 149 148 147 146 137 128 48 139 130 48 143 135 49 
145 137 49 146 137 47 143 133 47 136 128 47 131 124 47 130 122 47 129 121 46 
128 121 46 127 120 46 125 118 45 131 123 46 144 135 47 144 135 47 131 122 46 
121 114 44 115 109 44 120 113 45 135 127 48 141 132 48 136 128 47 132 124 46 
128 120 45 124 117 45 121 113 45 120 113 45 124 116 46 132 124 47 145 137 48 
151 142 49 149 140 49 144 135 48 136 127 46 128 119 45 119 113 44 115 109 44 
119 112 44 126 118 44 128 120 45 129 122 45 132 123 45 134 126 46 133 124 46 
132 123 46 129 120 44 127 119 45 128 120 46 129 122 47 133 123 49 136 123 54 
140 122 65 145 122 82 144 128 95 146 131 110 147 134 125 147 139 134 
146 140 138 147 143 141 155 154 156 157 160 161 148 150 148 143 143 140 
143 134 48 143 135 48 144 136 49 144 135 48 142 133 47 137 128 46 129 121 46 
126 118 46 129 121 46 129 120 46 125 118 46 122 115 45 120 113 45 126 119 45 
140 132 47 142 133 47 132 124 46 123 115 45 114 108 44 119 113 45 138 130 48 
145 137 50 140 132 48 135 127 47 129 121 45 123 116 45 119 112 45 117 111 45 
119 112 45 126 119 46 139 132 48 147 139 49 149 140 49 144 135 48 131 123 46 
123 116 44 118 111 44 115 108 44 116 109 44 121 113 44 126 119 45 128 120 45 
130 122 46 132 124 46 132 124 46 132 123 46 129 120 45 127 118 45 128 120 46 
130 121 48 133 121 54 138 120 67 146 121 85 147 129 99 149 134 114 148 136 126 
147 139 134 146 140 138 143 139 136 144 140 137 153 153 153 154 158 158 
145 147 144 140 141 137 144 136 48 144 136 48 144 136 48 143 135 48 142 134 47 
138 130 47 132 123 46 132 123 46 140 130 47 138 128 47 127 119 46 121 114 45 
119 112 45 122 114 45 128 120 46 130 122 46 128 121 45 123 116 45 115 108 44 
122 114 45 145 136 49 152 143 50 145 137 49 135 127 47 122 115 45 117 110 44 
120 113 44 120 114 45 118 111 45 120 114 46 128 122 47 136 129 48 143 135 48 
141 132 48 130 122 46 122 115 44 117 110 44 115 108 44 117 111 45 120 113 45 
123 116 45 127 119 46 129 121 46 131 123 46 131 123 47 131 122 46 129 121 45 
127 118 45 128 119 47 131 118 51 137 119 65 144 120 89 148 129 106 149 136 120 
148 137 128 145 138 132 147 142 140 149 145 145 146 142 142 144 142 139 
144 143 141 143 142 141 142 141 140 141 141 140 145 136 48 143 135 48 
140 132 48 138 130 47 136 128 47 133 125 46 129 121 46 132 122 46 140 130 47 
137 128 46 125 117 45 118 112 45 117 111 45 118 111 45 120 113 46 122 115 46 
123 116 45 121 114 44 115 108 44 121 113 45 139 131 48 146 137 49 141 133 48 
134 126 47 124 116 45 122 114 45 127 120 45 127 120 46 121 114 45 119 112 45 
121 115 46 127 121 47 138 130 48 138 130 47 130 122 46 122 115 45 117 110 44 
116 109 44 119 112 45 120 114 45 123 116 45 125 117 45 127 120 46 129 121 47 
130 122 46 130 122 46 129 120 45 127 119 46 129 117 50 135 117 64 145 118 89 
149 129 109 150 137 127 149 141 135 146 140 136 146 140 139 149 146 146 
151 151 151 151 150 150 146 145 144 138 134 131 136 132 128 141 139 139 
143 143 144 146 136 48 142 133 48 134 126 47 128 121 46 124 117 46 122 115 45 
122 115 45 124 117 45 129 121 45 127 120 45 119 112 44 114 108 44 114 108 44 
115 109 44 117 111 45 118 112 45 116 110 44 115 109 44 114 108 44 116 110 44 
122 115 45 126 119 45 128 122 45 131 124 46 134 125 46 137 128 47 140 131 47 
138 129 47 130 121 46 123 115 45 118 111 45 121 115 45 133 125 47 136 128 47 
131 123 46 124 117 45 118 111 44 118 110 44 122 115 45 123 115 46 122 115 44 
125 117 45 127 120 46 130 122 47 130 122 46 129 121 46 129 120 47 129 119 48 
134 116 61 143 117 86 148 128 110 152 138 130 150 143 138 149 146 141 
147 145 143 149 146 146 152 150 149 144 141 138 137 126 119 146 142 140 
140 134 130 137 131 127 142 141 141 144 146 147 143 133 48 139 130 47 
132 124 46 125 118 46 119 112 45 116 109 44 117 111 45 119 113 45 122 115 45 
122 115 45 118 112 45 115 109 44 114 108 44 115 109 44 119 113 45 119 113 45 
115 109 44 113 107 44 113 108 44 113 108 44 113 108 44 117 110 44 123 116 45 
131 123 46 140 130 47 144 134 48 143 134 48 140 131 48 136 127 47 129 120 46 
119 111 44 119 112 44 129 122 46 132 125 47 129 121 46 124 117 45 119 111 44 
119 111 44 123 115 45 124 117 46 124 116 45 125 118 45 127 119 46 130 122 47 
130 123 47 130 121 47 130 120 49 134 116 60 144 116 85 148 128 109 153 138 130 
153 146 142 151 149 144 150 148 145 152 150 148 151 150 150 147 144 140 
132 120 110 129 117 109 147 142 139 138 130 125 135 126 120 144 142 142 
148 150 152 136 127 46 135 127 47 134 127 47 129 121 46 119 112 45 114 107 44 
116 109 44 118 111 44 119 113 45 121 114 45 122 116 46 121 114 45 117 111 44 
119 112 44 125 118 46 125 119 46 119 113 45 115 109 44 113 108 44 113 107 44 
115 108 44 118 111 45 124 116 45 132 123 46 142 132 48 143 133 48 136 127 47 
135 126 46 140 131 47 136 127 46 122 115 45 119 113 45 127 121 46 128 121 47 
124 118 45 120 114 44 119 111 44 119 112 44 123 115 45 126 118 45 125 118 45 
126 118 46 128 120 46 130 122 47 131 123 47 132 120 50 134 118 60 145 115 88 
146 128 105 152 135 130 153 146 143 154 151 147 152 151 149 154 153 151 
152 150 148 149 148 144 148 146 142 140 134 128 135 124 117 149 148 146 
132 119 112 131 117 110 148 144 143 156 157 159 131 123 46 133 125 46 
137 129 47 134 126 47 125 117 45 121 113 44 121 114 44 121 114 44 121 113 45 
121 114 45 123 116 46 122 115 45 118 111 44 121 114 45 131 123 47 134 126 47 
130 123 47 125 119 46 121 114 45 119 112 45 120 113 45 122 114 46 123 115 46 
130 121 46 142 132 48 144 134 48 136 128 46 136 128 46 144 134 47 141 132 47 
127 120 46 124 117 46 131 124 47 132 125 47 128 122 47 123 117 46 119 113 44 
120 112 44 124 116 45 127 119 46 127 118 46 127 120 46 128 120 47 131 123 49 
132 124 51 135 120 60 148 115 90 146 127 105 151 135 126 151 146 138 
152 149 146 154 152 150 155 155 153 156 154 152 142 138 133 147 143 138 
151 151 147 153 153 152 145 141 136 150 150 148 133 121 112 131 117 108 
146 139 136 162 164 167 129 121 46 132 124 46 139 131 47 141 133 47 137 129 46 
135 127 46 134 126 46 131 124 45 126 118 45 123 115 45 121 114 44 119 112 44 
117 110 44 123 116 45 136 128 47 144 136 49 148 140 50 145 137 49 134 127 47 
130 122 46 131 122 47 128 119 46 119 113 45 124 117 46 140 132 48 147 139 48 
144 135 47 144 135 47 147 138 48 143 135 48 134 125 47 133 124 47 140 132 49 
143 136 50 140 133 50 132 124 49 122 114 45 120 114 44 126 118 45 129 121 46 
128 121 47 129 121 48 130 122 49 132 123 51 138 122 59 147 116 90 146 129 106 
153 136 127 150 144 136 151 147 143 153 150 148 156 155 152 157 157 156 
147 142 137 133 122 113 143 136 130 149 149 147 150 151 150 160 166 167 
158 160 159 141 133 127 141 134 127 160 160 159 169 173 174 127 119 46 
132 124 46 142 133 47 147 138 48 148 139 48 146 137 48 141 133 47 136 128 46 
131 123 46 127 118 45 123 115 44 121 114 44 122 114 44 127 120 45 138 130 47 
148 139 49 157 148 51 155 146 51 142 133 48 135 126 47 134 125 47 128 119 46 
117 110 45 120 114 45 136 129 47 145 137 48 147 138 47 146 137 47 142 134 47 
138 131 47 134 125 47 137 128 48 147 139 50 148 140 51 143 135 52 132 126 49 
122 116 45 123 115 44 126 118 46 129 121 48 130 121 49 131 123 51 132 123 54 
137 123 62 147 118 89 147 131 104 152 135 126 150 143 135 148 141 139 
150 147 145 151 148 147 152 150 149 157 156 155 154 149 146 155 152 150 
159 159 160 149 147 146 149 148 147 161 165 167 160 163 163 150 149 146 
152 150 147 164 166 166 169 174 175 127 118 46 133 124 46 144 135 48 
152 143 50 156 147 51 153 144 50 142 133 48 136 127 47 136 126 47 134 124 46 
129 120 46 128 120 45 131 124 46 134 127 47 137 129 48 144 136 50 155 146 51 
154 145 51 142 133 49 134 125 47 128 119 46 122 114 45 115 109 45 117 111 45 
127 121 46 137 129 47 145 135 47 143 133 47 131 123 46 125 119 46 127 120 46 
136 129 48 151 143 51 151 143 52 142 135 50 132 125 47 123 117 45 123 116 46 
128 119 47 132 122 49 131 123 52 133 124 58 137 123 66 146 120 89 146 130 100 
152 134 123 148 141 131 150 144 139 148 146 142 147 141 140 143 138 135 
144 139 137 160 159 158 168 169 172 140 128 123 129 114 104 141 135 130 
142 136 130 154 153 153 165 170 172 164 171 172 163 170 171 163 168 169 
163 167 168 133 123 46 135 126 47 141 132 48 146 137 49 150 142 50 147 139 49 
135 127 47 132 123 46 135 126 47 136 126 47 134 125 47 136 127 47 141 133 48 
143 134 48 141 132 49 143 135 50 151 142 50 150 141 50 141 132 49 133 124 47 
127 119 46 124 117 45 124 118 46 125 118 46 126 119 46 130 123 46 139 130 47 
137 128 46 124 117 45 119 112 45 122 116 45 132 126 47 147 139 50 145 137 51 
137 129 49 131 123 47 124 118 46 126 117 46 128 120 49 131 123 53 135 123 59 
138 125 69 144 124 89 146 129 102 150 133 124 148 140 129 149 141 137 
148 144 141 149 143 139 145 139 134 139 133 128 142 138 133 157 158 157 
165 169 169 151 146 144 130 115 105 131 118 110 146 144 140 156 157 156 
163 170 171 168 177 180 168 177 181 163 169 172 161 165 168 143 134 48 
139 131 47 131 123 46 128 121 46 130 123 46 128 122 46 121 115 45 121 114 45 
128 120 45 134 125 46 140 130 48 145 136 49 151 142 50 152 143 50 149 140 50 
146 138 50 145 137 49 142 134 49 137 129 48 133 125 47 131 124 47 135 128 48 
145 137 49 143 136 49 131 124 47 126 119 46 129 122 46 128 121 46 122 115 45 
120 113 45 121 114 44 127 121 46 136 128 47 136 129 47 133 126 47 129 121 46 
124 117 46 126 118 49 130 121 54 135 124 60 138 126 73 143 125 88 144 130 102 
150 133 121 150 142 130 152 143 140 149 145 142 150 146 144 150 146 143 
150 143 140 150 147 143 150 151 148 154 156 154 153 153 150 162 165 164 
158 159 158 150 149 146 149 149 147 152 154 150 157 160 159 163 170 171 
166 174 176 166 171 173 165 169 170 146 137 48 141 133 47 130 122 46 
123 116 45 121 115 45 118 112 44 114 109 44 116 110 44 124 116 44 131 123 46 
140 131 48 147 138 50 154 145 51 156 147 51 154 145 51 151 142 50 147 139 50 
144 136 49 142 133 49 140 132 49 140 133 49 146 138 50 157 148 51 154 145 51 
137 130 49 130 123 47 132 126 47 131 124 47 126 119 46 124 117 45 121 114 44 
124 118 45 129 122 45 129 122 46 130 122 46 128 120 47 126 118 48 127 119 54 
132 121 60 136 124 73 142 126 89 144 130 102 148 134 118 148 139 128 
152 143 139 156 151 147 155 151 150 154 153 150 155 153 153 156 154 152 
154 151 148 154 155 153 160 166 167 149 148 145 159 160 159 162 165 165 
153 153 152 149 149 147 154 156 153 157 162 160 161 166 167 163 170 171 
164 169 170 165 169 169 141 133 47 140 132 47 137 129 46 131 124 45 123 116 45 
117 111 45 114 108 44 116 110 44 122 115 45 128 121 45 135 127 47 143 134 49 
152 143 51 157 147 52 157 148 52 157 148 52 156 147 51 155 147 51 155 146 51 
155 146 51 155 147 51 156 148 52 160 151 52 157 148 52 146 138 50 144 135 49 
148 140 50 142 134 49 134 126 47 126 119 45 121 115 44 122 115 44 125 117 44 
126 119 44 126 119 46 126 118 48 126 118 52 130 119 60 137 122 74 140 124 88 
143 129 102 147 132 115 148 138 126 151 142 137 154 149 145 158 155 153 
159 156 155 156 152 150 163 162 161 160 159 157 143 134 129 139 129 123 
146 143 139 141 134 129 130 115 105 153 148 146 149 144 142 149 146 144 
161 163 163 161 162 162 161 165 167 160 163 163 161 164 163 162 164 162 
137 129 47 138 130 47 140 132 46 136 128 46 126 119 45 120 113 45 117 110 44 
117 111 44 121 114 45 125 118 45 131 123 46 137 130 47 146 138 50 153 144 51 
157 148 52 160 151 52 161 151 52 159 150 52 156 147 52 155 147 51 156 148 52 
157 149 52 157 148 52 156 147 51 152 143 51 151 142 51 151 142 51 144 135 50 
132 125 47 125 117 45 123 115 45 120 113 44 121 114 44 123 116 45 125 117 46 
127 118 53 130 119 61 134 120 73 138 122 87 142 128 101 146 131 114 
147 136 122 149 140 132 152 145 140 156 150 148 158 156 155 162 160 160 
164 163 162 163 164 164 161 159 158 145 136 131 133 122 114 144 137 133 
147 144 141 154 153 152 156 156 156 150 147 145 152 151 150 141 131 126 
129 113 103 153 153 152 157 158 158 158 162 159 160 162 161 133 125 46 
135 127 46 138 130 47 137 129 47 130 123 46 126 119 45 122 115 45 121 113 45 
121 113 45 122 115 45 126 119 45 131 124 46 137 130 49 145 137 51 156 147 52 
161 152 53 161 152 53 156 147 52 146 137 50 142 134 49 144 137 50 146 139 50 
147 139 50 150 142 51 155 147 52 153 145 52 146 138 51 137 130 49 125 118 45 
121 115 44 123 116 45 122 114 45 120 113 45 121 114 47 124 116 51 129 117 60 
135 117 72 138 121 88 141 125 100 144 130 112 147 133 123 148 137 130 
149 140 133 151 145 141 154 150 148 158 156 155 163 162 161 164 163 163 
163 162 161 158 156 154 144 135 130 129 112 101 138 128 122 144 142 137 
140 138 134 144 143 141 157 160 159 161 165 165 153 154 153 142 138 134 
152 153 153 152 155 156 157 162 163 160 165 166 134 126 46 134 126 46 
134 126 47 135 127 47 136 128 47 134 127 47 130 121 46 126 118 45 122 115 45 
121 114 45 122 115 44 124 118 45 128 122 47 137 130 49 151 142 51 158 148 52 
157 148 52 152 143 51 141 132 48 135 127 47 134 127 48 136 129 48 141 133 49 
147 139 50 153 145 51 150 142 51 141 133 49 132 124 47 124 117 45 122 115 44 
122 115 45 120 114 46 120 112 47 124 115 50 128 114 60 132 115 73 137 120 88 
141 123 98 142 127 112 145 132 120 147 135 128 148 139 134 149 141 137 
150 143 139 154 150 147 156 154 152 160 159 158 164 163 161 163 161 161 
159 157 155 152 148 144 137 124 118 146 140 133 147 145 140 141 142 138 
138 133 129 153 153 150 158 162 161 156 161 161 155 159 160 160 166 167 
157 162 164 159 163 166 160 165 169 141 132 48 137 129 47 128 121 45 
130 123 46 143 135 49 146 137 49 139 130 47 133 124 46 126 120 46 121 115 45 
117 111 44 117 111 44 120 113 45 129 121 47 143 135 49 150 141 50 149 140 50 
146 137 49 142 133 48 136 126 47 126 119 46 127 121 46 137 129 48 143 135 49 
148 139 50 142 134 49 134 126 47 127 121 46 121 114 45 122 115 44 121 114 45 
120 113 46 123 114 50 127 113 59 133 114 72 137 118 87 140 123 99 143 126 110 
144 130 119 146 133 126 147 136 131 149 140 136 149 142 138 149 142 138 
152 146 143 155 151 148 161 159 157 163 162 161 163 162 162 161 157 157 
155 146 144 151 144 139 155 151 148 154 154 151 151 151 150 136 127 121 
133 120 111 148 145 142 157 162 161 161 166 166 161 167 168 162 167 169 
161 165 169 161 165 169 146 137 48 141 132 48 129 123 46 131 125 46 147 139 49 
150 141 50 142 133 48 134 126 47 129 122 46 123 117 46 116 111 44 114 108 44 
115 109 44 124 116 46 138 130 48 145 136 49 143 134 49 140 131 48 137 128 47 
130 121 46 119 113 45 124 117 45 136 129 47 143 135 49 146 138 50 140 132 49 
131 123 47 124 118 46 121 115 45 122 115 45 120 114 46 121 113 49 126 113 57 
132 114 70 138 116 87 140 122 98 143 126 110 145 130 119 146 132 126 
146 133 129 147 137 132 148 140 136 150 144 141 150 144 141 150 143 139 
153 149 146 154 151 147 158 157 155 162 160 159 160 156 155 154 146 144 
152 143 139 151 146 143 153 150 147 153 152 151 151 149 148 147 144 142 
152 152 151 159 162 162 163 167 167 165 169 170 163 165 166 157 157 158 
162 164 168 148 139 49 145 136 48 138 131 47 139 132 48 148 140 50 148 140 49 
136 129 47 130 124 46 129 123 46 125 119 46 118 112 45 115 109 45 115 108 45 
122 115 45 137 128 47 143 134 48 139 131 48 135 127 47 127 119 45 121 114 44 
116 110 44 123 117 45 138 130 48 145 137 50 145 136 49 138 130 48 129 121 46 
124 118 46 121 114 45 121 114 46 121 113 48 126 113 57 131 113 71 137 116 85 
140 122 95 144 126 110 145 130 119 146 132 126 147 134 129 146 135 131 
147 137 133 147 138 133 149 141 137 151 145 142 151 146 143 153 147 144 
156 151 148 158 155 153 159 156 154 158 156 153 158 152 151 151 141 139 
143 133 127 141 134 128 146 144 140 148 147 144 148 146 142 150 148 146 
156 159 160 158 159 160 156 159 158 142 133 127 146 137 134 163 164 166 
152 143 50 150 141 49 144 136 49 144 137 49 151 143 50 147 139 49 133 127 47 
130 124 46 136 129 48 135 127 48 125 118 46 119 112 45 116 110 45 121 114 45 
133 125 46 140 131 47 142 133 49 136 128 48 124 116 45 117 110 43 115 109 43 
124 117 45 136 129 47 141 133 49 140 132 49 135 127 48 128 121 47 124 117 46 
121 115 46 122 115 48 125 112 54 132 113 69 138 117 84 140 122 95 144 126 110 
147 130 120 148 134 126 147 134 129 146 136 131 145 136 132 144 136 131 
146 138 133 148 140 137 150 143 139 150 144 142 151 144 141 153 147 144 
151 145 141 154 151 148 156 154 151 154 145 143 151 148 145 147 143 140 
134 123 116 143 138 133 148 146 143 156 159 159 157 159 160 155 156 158 
157 159 161 154 157 155 154 153 151 158 158 157 163 165 166 159 150 52 
155 147 51 147 139 49 146 139 49 153 145 51 149 140 50 133 126 47 133 126 47 
150 142 51 151 142 51 135 128 48 125 118 46 120 113 45 122 115 45 128 121 46 
137 129 48 147 138 50 143 135 50 125 118 46 116 110 44 116 110 44 124 117 45 
133 126 47 138 131 48 138 131 48 134 126 47 128 121 47 125 119 46 123 115 46 
126 114 53 132 113 67 137 115 82 140 122 94 145 126 108 149 131 121 
149 136 129 150 138 133 149 139 134 147 138 134 146 138 134 146 138 133 
144 136 131 147 138 133 148 141 136 152 146 143 153 149 147 155 150 147 
155 151 148 154 150 146 152 145 141 146 139 132 155 156 155 157 162 162 
133 122 114 144 137 131 151 147 144 158 163 163 161 167 168 159 162 163 
160 162 163 160 163 162 160 165 163 162 167 168 163 168 170 159 149 52 
154 145 51 144 137 49 143 135 49 149 141 50 145 137 50 131 124 47 133 125 47 
150 141 50 151 142 51 136 128 48 127 120 46 124 117 45 124 117 46 126 119 46 
134 127 48 146 138 50 139 132 49 126 119 46 118 112 44 120 114 44 126 119 46 
132 125 46 136 129 48 135 128 48 132 125 47 127 120 47 125 118 47 126 116 52 
133 113 65 139 113 81 142 120 96 145 125 107 148 130 119 150 137 129 
152 140 136 151 143 139 150 142 138 149 142 138 148 141 137 147 139 135 
146 139 134 145 136 131 147 139 135 149 143 140 153 147 144 155 151 150 
154 149 146 155 149 146 154 152 149 144 136 131 140 132 125 134 123 115 
140 130 122 147 140 135 149 145 143 147 143 142 155 157 157 158 161 163 
162 164 165 160 163 162 151 149 144 162 165 166 162 167 169 151 142 50 
146 138 49 136 129 47 133 126 47 138 130 49 137 128 48 129 121 47 129 121 46 
136 128 47 135 127 47 125 118 45 123 116 45 127 121 46 128 121 47 129 121 46 
134 126 47 141 133 48 135 128 48 125 118 47 122 116 45 124 117 46 128 121 46 
131 125 47 135 128 48 134 126 48 130 123 47 129 121 47 128 118 52 134 114 65 
141 114 84 146 119 99 147 124 111 148 130 120 150 135 129 152 139 134 
151 142 138 151 143 140 149 145 141 149 143 139 151 143 139 150 144 140 
149 142 139 146 138 133 144 134 129 147 139 134 151 148 144 155 152 150 
158 154 151 157 152 150 151 144 140 134 122 113 134 122 113 151 145 140 
157 154 152 153 148 149 148 144 144 140 134 131 146 143 141 159 159 159 
153 148 147 160 160 160 157 157 157 160 161 161 161 162 162 140 131 48 
136 127 47 127 120 46 125 118 46 129 121 47 130 122 47 128 120 46 127 119 46 
126 118 45 123 116 45 119 113 44 121 115 45 128 122 46 132 125 47 134 125 47 
139 131 48 141 133 49 135 127 48 128 122 47 126 120 47 128 121 47 130 123 48 
133 126 48 135 127 48 132 125 47 131 124 47 131 121 52 137 117 65 146 114 87 
149 120 103 153 124 120 151 132 126 151 134 130 152 140 136 152 143 141 
151 144 140 149 142 138 148 142 138 147 143 140 149 144 140 151 147 143 
152 147 144 148 142 140 145 139 133 144 134 129 142 131 125 148 140 136 
158 155 153 146 139 134 148 143 140 136 125 117 139 129 122 157 157 155 
161 162 161 157 154 156 151 148 149 145 141 139 148 145 142 154 152 151 
153 148 147 153 150 149 158 157 157 159 158 158 159 159 159 124 116 45 
122 115 45 117 111 44 117 111 45 121 114 45 125 117 46 129 121 46 127 119 46 
118 112 45 115 109 44 118 112 45 123 116 45 130 122 46 135 127 47 140 131 48 
144 136 49 141 134 50 136 128 49 132 125 48 131 124 48 132 125 47 135 128 48 
135 128 49 134 127 48 132 124 47 132 123 51 138 119 64 148 115 90 150 122 107 
157 125 128 154 135 133 152 138 134 150 139 137 149 140 136 150 143 140 
149 143 141 148 142 138 146 140 134 146 140 135 146 143 138 149 146 142 
154 149 147 154 150 148 149 142 140 150 145 141 141 130 125 138 128 120 
158 153 152 155 151 148 150 145 142 148 140 138 148 142 140 158 161 161 
156 156 155 158 157 157 159 158 159 154 153 153 150 149 148 153 155 153 
148 146 143 140 129 122 161 161 161 155 154 154 157 157 159 115 109 44 
115 108 44 114 107 44 114 108 44 116 109 44 120 113 45 127 119 46 125 118 45 
116 110 44 116 111 45 126 120 47 131 124 47 133 125 46 138 130 47 143 135 49 
145 138 50 143 135 50 138 130 49 134 127 49 135 127 48 137 130 49 136 130 49 
137 130 49 137 128 48 134 125 51 139 121 62 150 116 91 150 126 104 158 127 130 
154 137 137 150 140 137 149 140 139 147 141 137 144 135 131 146 142 139 
149 144 141 147 142 138 144 135 129 142 135 130 141 134 128 145 143 137 
149 147 143 155 152 148 159 155 154 156 154 152 139 130 123 147 140 137 
159 156 155 155 151 148 153 148 144 154 148 146 153 149 148 158 162 162 
160 164 165 158 158 157 159 160 159 157 157 156 151 151 149 134 123 116 
130 116 106 145 139 134 157 157 156 154 153 153 154 153 153 113 107 44 
114 108 44 116 109 44 116 109 44 113 107 44 115 109 44 122 114 45 123 115 45 
119 113 44 126 120 46 141 133 49 143 134 49 137 130 48 141 133 48 148 139 50 
148 139 50 144 136 50 140 132 50 138 130 49 138 131 49 140 132 49 140 133 49 
140 132 49 138 130 50 139 125 56 149 117 86 147 129 97 157 128 126 153 139 132 
150 140 135 146 138 134 144 138 134 143 136 131 142 136 133 145 138 138 
149 144 142 149 145 142 143 134 129 137 127 121 137 127 120 138 130 123 
141 136 131 147 144 140 153 151 148 155 150 149 152 147 144 159 156 158 
157 154 154 157 153 151 156 152 149 153 148 143 153 149 147 156 158 157 
158 162 162 154 153 151 156 159 157 152 154 149 153 154 151 132 117 108 
127 109 98 143 132 128 151 146 145 148 145 143 147 145 143 115 109 44 
117 110 44 119 112 44 119 113 44 118 112 45 119 113 45 123 116 45 126 118 45 
126 119 45 135 128 47 150 141 51 148 140 50 138 131 48 143 135 49 149 141 51 
149 141 51 146 138 50 142 135 50 141 133 49 142 135 50 141 134 50 141 134 50 
142 133 51 141 131 55 148 122 77 146 131 85 155 130 115 151 139 126 
152 141 135 149 141 136 144 136 131 141 133 128 142 136 131 145 140 135 
149 143 141 146 137 135 147 139 135 142 131 125 131 118 109 133 122 113 
136 126 119 142 136 131 144 143 138 153 153 151 159 162 163 160 160 160 
157 155 155 155 152 151 153 149 146 154 150 146 155 153 150 156 154 152 
155 153 151 154 152 150 150 149 144 141 134 128 151 152 149 160 166 166 
151 150 148 143 135 129 150 145 143 146 141 140 147 144 142 147 146 143 
122 115 45 122 115 45 122 116 45 125 118 45 129 123 47 131 124 47 132 124 47 
134 126 47 139 130 48 144 137 49 152 144 51 147 139 51 139 131 48 144 135 49 
149 140 50 149 141 51 148 140 51 144 136 50 143 135 49 142 135 49 142 135 49 
143 134 50 142 134 52 149 128 70 145 133 76 152 129 100 152 136 117 
151 138 128 150 139 135 148 141 136 141 133 128 142 133 129 145 138 133 
149 143 140 155 150 147 153 149 147 140 132 127 127 112 102 133 120 111 
132 118 110 131 119 109 150 148 145 156 160 159 150 149 147 160 166 167 
150 150 148 152 149 148 153 149 147 146 140 136 147 143 139 159 161 158 
162 165 163 153 150 146 151 145 141 150 144 140 142 133 128 143 136 133 
150 150 149 159 161 161 158 158 158 144 139 137 141 136 134 149 149 147 
152 155 153 122 115 45 122 115 45 123 116 45 128 121 46 137 130 48 140 133 49 
137 129 48 137 129 48 143 134 48 145 136 49 148 139 50 142 135 49 139 131 48 
142 134 49 147 139 50 149 140 50 147 139 50 145 137 50 144 136 49 142 135 49 
142 133 50 140 132 51 147 128 66 145 133 73 152 131 92 153 135 113 149 136 119 
152 138 135 147 139 133 148 140 134 137 128 120 135 125 119 145 139 135 
153 148 145 159 155 154 151 145 142 131 117 109 129 113 103 132 120 110 
128 112 101 131 116 108 133 121 111 147 142 139 143 137 132 152 155 154 
147 146 144 159 163 164 157 157 155 155 156 156 147 144 141 160 163 161 
157 157 154 153 148 145 150 144 140 132 118 110 127 109 99 136 126 120 
144 140 137 154 155 154 155 155 154 145 142 140 144 141 140 153 156 154 
158 163 162 116 109 44 117 111 44 120 113 45 128 121 46 142 134 49 145 138 49 
138 131 48 137 129 48 140 131 47 140 132 47 139 131 47 137 129 46 137 129 47 
139 131 48 141 134 49 145 137 49 145 137 49 144 137 48 142 135 48 140 133 50 
139 131 50 144 126 65 143 131 73 149 131 90 154 134 111 151 142 118 
155 139 135 149 143 137 149 142 139 146 139 135 141 132 124 129 115 106 
144 137 131 155 151 150 160 155 154 153 144 142 135 121 115 133 122 114 
136 126 118 134 121 111 134 123 115 136 125 117 145 140 135 142 131 127 
148 143 138 152 151 148 160 166 167 159 163 163 153 154 153 149 144 140 
162 159 160 157 155 154 147 148 146 141 136 130 134 124 116 141 132 127 
142 135 131 141 135 130 152 154 151 155 158 157 152 151 150 156 157 156 
157 160 158 159 163 161 112 106 44 114 108 44 117 111 44 125 118 45 136 128 47 
139 131 48 133 127 48 135 128 48 140 132 48 140 131 48 136 128 47 135 127 47 
135 127 47 135 127 46 138 130 48 140 132 48 142 135 48 141 133 48 139 130 50 
137 130 51 142 124 66 140 128 73 144 129 90 152 132 114 149 141 117 
157 139 138 155 148 140 152 146 142 147 142 138 138 129 122 139 127 121 
147 138 133 152 146 142 157 153 151 157 152 151 158 161 161 157 162 162 
145 140 135 130 113 102 126 110 99 148 145 142 149 146 144 127 113 104 
136 124 117 139 130 122 131 116 106 148 145 140 160 164 165 158 161 161 
150 144 143 154 148 146 147 141 139 139 135 132 139 137 132 142 138 133 
137 127 119 144 137 133 142 136 130 139 132 125 142 136 130 147 144 140 
154 153 151 159 160 158 161 163 161 112 106 44 113 107 44 115 109 44 
117 111 44 120 114 45 122 116 45 124 118 45 133 126 47 144 136 49 145 137 50 
140 131 48 137 129 47 132 125 47 131 124 46 133 126 47 135 128 47 136 129 47 
137 127 49 135 129 51 143 123 68 140 129 77 142 128 89 149 129 113 146 139 119 
155 139 139 153 147 141 155 150 147 157 151 151 150 146 143 136 125 118 
134 120 111 155 148 146 160 155 153 159 155 153 156 155 155 161 167 168 
160 166 167 147 141 135 129 115 104 127 109 98 127 109 99 126 109 98 
124 107 96 129 114 104 130 113 104 126 108 97 141 129 124 160 162 162 
155 154 152 150 147 144 142 137 132 127 111 100 127 112 101 132 121 112 
141 135 130 148 144 140 149 145 144 147 140 138 137 128 121 133 121 111 
131 119 110 139 130 123 157 156 154 165 166 166 119 112 44 120 114 45 
124 117 45 123 117 45 120 113 44 120 114 44 127 120 45 138 130 48 147 139 50 
147 139 50 142 134 49 135 128 47 132 124 47 130 123 46 131 123 46 130 124 47 
131 124 46 132 124 50 143 120 73 141 130 80 143 132 95 152 132 119 145 138 119 
151 136 134 150 143 138 156 150 147 157 151 151 157 157 154 158 157 156 
151 148 144 153 149 147 157 153 152 161 158 157 159 161 160 149 144 139 
148 145 142 155 154 152 143 134 129 132 117 107 127 110 99 138 128 121 
151 151 148 138 129 122 131 118 110 130 115 106 127 109 99 135 121 115 
159 157 156 160 156 155 153 151 149 139 133 128 129 115 106 128 112 103 
130 117 109 144 137 132 150 147 145 150 147 146 142 135 129 128 112 103 
128 114 104 130 117 109 137 127 120 152 150 147 162 161 160 133 125 45 
137 128 46 143 134 48 141 133 48 133 126 47 131 123 46 135 126 47 142 133 49 
148 139 50 148 140 50 145 136 49 141 132 48 137 129 47 133 126 47 131 124 47 
130 123 47 130 121 49 143 114 78 139 128 81 142 134 95 153 132 123 149 145 127 
153 140 140 153 147 143 153 147 142 155 148 146 159 154 151 158 156 153 
158 158 155 155 152 150 152 149 146 152 148 146 155 158 155 153 154 151 
147 140 136 143 132 127 152 144 141 143 132 126 138 126 117 139 126 119 
158 161 161 161 167 168 159 164 164 141 134 130 136 123 116 140 131 123 
148 141 138 163 162 163 162 161 160 159 158 157 152 152 152 140 134 132 
134 125 119 137 128 122 151 146 145 155 152 152 145 143 140 139 134 130 
138 128 122 132 119 112 139 132 125 143 138 134 150 145 141 153 148 145 
136 127 46 141 132 47 152 143 50 149 141 50 139 131 48 134 126 47 136 129 48 
142 133 48 148 139 50 151 143 51 147 139 50 144 136 50 138 131 49 136 128 48 
135 126 47 136 124 53 144 108 77 134 120 71 135 124 83 153 125 125 149 144 129 
150 139 135 148 139 135 153 149 145 157 152 152 159 155 153 156 151 148 
159 155 152 159 157 154 157 155 152 153 148 146 149 143 140 154 156 154 
149 148 145 132 119 109 145 135 129 142 130 123 140 127 121 145 135 129 
141 129 121 149 145 139 161 167 168 161 167 168 151 151 149 147 140 136 
147 140 135 155 153 150 161 166 167 160 163 162 158 154 152 152 149 149 
147 143 142 141 135 131 144 137 133 156 157 158 151 146 146 137 130 123 
156 160 159 160 166 166 147 144 141 147 144 141 153 154 153 150 150 148 
142 136 132 127 120 47 135 127 48 152 144 51 153 144 51 141 133 48 135 127 47 
137 129 47 141 133 48 147 139 49 150 142 50 149 140 50 146 137 50 144 136 49 
141 132 49 143 127 56 147 111 79 139 128 77 138 122 81 154 116 126 141 132 117 
150 141 135 151 145 142 151 148 144 149 142 140 157 156 154 160 158 157 
159 154 151 148 141 137 156 152 148 158 155 153 157 152 151 152 147 143 
136 126 118 126 108 97 126 108 97 131 116 105 130 114 104 138 125 117 
152 145 144 148 141 138 152 150 148 160 166 167 160 166 167 151 151 150 
152 146 143 148 141 138 145 138 133 154 153 151 155 153 150 155 153 151 
155 154 152 153 152 148 150 146 141 148 142 138 147 143 141 147 143 141 
152 149 147 160 164 165 158 161 161 150 146 143 155 156 155 159 164 164 
136 133 130 129 127 122 120 114 46 128 120 47 144 135 49 146 137 49 137 129 47 
135 126 47 138 129 47 142 133 48 146 138 49 150 142 50 149 141 50 148 140 51 
146 137 51 148 130 60 153 119 84 143 134 77 150 134 99 149 105 118 136 121 109 
144 137 130 153 149 147 156 155 151 155 153 154 157 159 159 160 161 161 
160 161 160 158 154 152 149 142 137 146 135 131 155 148 144 158 152 150 
155 149 147 144 135 129 129 113 103 126 108 97 132 117 108 144 131 125 
146 138 133 159 161 161 158 162 162 155 156 155 161 167 168 161 167 168 
158 162 160 156 153 152 149 143 139 140 130 122 139 130 122 149 143 140 
157 157 155 156 158 155 156 157 152 155 152 149 154 153 152 155 157 156 
148 147 145 151 148 146 154 152 150 156 158 157 153 153 151 161 167 168 
159 166 167 144 146 142 131 131 126 116 110 45 119 113 45 128 121 46 
134 126 46 133 125 45 134 126 46 139 131 47 143 134 48 145 137 48 149 141 49 
150 141 50 149 141 50 152 134 59 157 124 82 147 137 81 156 134 107 158 119 132 
140 128 116 136 125 115 146 140 138 150 146 143 157 156 155 162 164 163 
161 165 165 161 165 165 161 161 160 160 159 157 146 136 131 134 121 111 
147 137 133 156 150 148 155 149 147 147 138 134 130 114 105 127 109 98 
138 126 119 143 132 127 141 129 121 156 152 151 156 153 154 154 149 147 
159 163 163 161 166 167 158 161 161 151 150 147 148 143 140 142 133 127 
142 134 128 151 147 145 156 155 154 155 153 151 141 133 126 153 151 150 
161 166 167 161 167 168 158 162 162 153 153 153 149 147 146 140 131 125 
142 136 131 154 157 157 147 149 147 146 147 144 149 149 146 115 109 44 
118 111 44 121 115 44 127 119 46 130 122 45 133 125 46 140 131 47 143 134 48 
145 137 48 147 139 49 149 141 49 150 136 57 160 130 84 150 137 85 149 119 97 
152 117 119 141 132 119 143 134 128 141 131 131 147 146 143 152 153 151 
152 150 148 160 162 162 162 163 163 159 161 160 159 162 162 160 163 162 
157 154 153 151 142 137 150 141 137 155 151 147 155 151 148 150 140 137 
128 112 102 126 108 97 135 122 114 161 159 158 155 150 147 152 153 151 
158 160 160 158 155 156 160 159 159 148 145 142 138 130 122 143 136 130 
143 135 129 144 135 130 148 140 136 154 151 149 158 157 154 154 151 147 
130 113 104 140 131 125 156 158 157 159 162 162 153 153 151 144 139 136 
150 147 146 141 134 128 137 130 123 137 137 130 139 143 137 149 149 146 
152 152 149 116 110 45 118 111 44 120 114 44 125 117 45 128 120 45 131 123 45 
138 130 46 142 133 47 144 135 48 146 138 48 148 136 54 159 130 77 153 136 82 
154 120 103 146 119 109 140 128 114 147 136 131 153 151 152 146 143 139 
138 131 124 137 130 123 137 128 120 155 157 156 151 149 147 154 153 151 
160 166 167 160 165 166 155 151 147 156 150 146 157 154 150 157 157 154 
155 154 151 156 152 152 145 137 132 132 117 107 148 141 138 144 134 130 
134 122 113 150 148 146 160 165 166 156 154 151 160 156 153 148 143 139 
142 132 127 133 122 113 135 123 116 149 140 135 154 149 146 158 155 152 
158 157 153 156 153 147 151 147 141 146 140 136 151 149 148 152 152 152 
143 136 131 131 117 109 149 145 143 157 154 152 153 152 149 144 146 141 
139 138 131 138 134 129 141 138 135 121 115 46 123 115 45 122 115 45 
124 117 44 127 119 45 130 122 45 136 127 46 141 132 47 143 135 47 145 135 50 
154 127 72 150 132 78 160 126 115 147 127 109 138 121 108 139 125 119 
142 133 130 145 140 137 147 142 140 137 127 120 127 112 102 134 123 115 
140 131 126 144 136 132 155 158 156 161 166 167 159 163 163 149 144 137 
142 131 124 161 164 163 160 166 167 157 157 156 159 162 163 159 161 162 
157 154 153 151 146 141 132 117 107 140 131 125 136 126 119 138 126 119 
150 143 138 155 153 149 154 155 153 140 131 124 133 122 112 157 160 159 
156 158 157 154 150 147 140 131 123 153 149 145 156 154 147 153 151 144 
149 145 140 150 149 148 151 152 152 151 151 151 149 147 144 153 151 149 
158 157 155 155 154 151 144 142 137 140 137 131 142 139 136 144 141 138 
132 123 47 127 119 47 125 118 46 124 117 45 127 120 46 129 121 45 133 125 45 
137 129 46 142 133 49 152 123 69 143 127 69 161 121 111 153 140 119 
149 132 122 149 133 129 137 125 118 135 130 127 136 135 133 149 147 145 
150 149 147 130 118 109 142 134 129 151 148 145 149 145 143 151 147 145 
153 153 152 150 144 140 134 121 112 143 135 129 160 161 161 160 166 166 
154 152 149 151 148 146 151 148 146 153 149 147 155 151 149 150 145 143 
159 164 164 159 160 161 151 145 143 145 138 133 149 145 142 158 162 162 
152 149 147 144 133 127 150 149 146 152 151 149 149 143 140 133 120 111 
137 126 117 159 161 158 158 159 154 150 147 144 147 143 141 151 148 146 
152 150 149 149 145 142 147 142 137 147 143 138 143 137 131 134 124 116 
137 127 120 152 148 146 159 156 156 138 130 48 133 125 47 129 121 46 
127 119 46 127 120 46 128 120 46 130 122 45 135 127 46 151 122 70 142 126 66 
155 115 105 147 133 110 157 144 140 151 145 140 148 141 136 146 141 136 
133 130 129 131 129 127 146 146 144 160 166 167 144 139 135 148 143 139 
153 151 149 155 154 153 152 149 148 149 142 140 150 145 143 144 138 133 
134 122 114 151 149 146 159 163 163 154 151 149 149 146 143 152 149 148 
152 149 147 156 152 151 158 155 155 159 157 157 158 155 155 153 150 149 
141 132 127 146 137 133 146 140 137 157 157 157 159 162 162 149 140 136 
149 146 142 153 148 146 147 139 136 147 140 135 157 156 154 156 155 152 
137 125 117 130 113 104 147 141 137 153 150 148 150 147 142 146 142 137 
143 139 134 137 130 123 130 116 105 135 123 115 155 152 150 164 165 165 
143 135 49 139 131 48 133 125 47 129 122 47 127 120 46 128 120 46 130 122 46 
147 117 73 144 128 73 152 117 98 144 127 105 155 138 136 157 155 152 
148 142 138 150 145 143 145 139 135 130 117 109 130 119 112 133 122 114 
153 155 154 150 147 146 152 149 147 159 156 158 157 157 157 156 155 154 
155 151 150 148 141 138 128 112 102 129 114 104 148 143 140 151 148 144 
150 146 142 152 148 145 154 150 149 156 153 152 156 153 153 153 151 150 
149 145 142 147 141 137 152 154 151 134 120 112 134 120 112 159 156 156 
156 154 153 157 157 157 147 139 136 158 158 158 161 167 168 153 151 150 
149 144 139 149 143 139 151 145 140 144 135 129 133 120 112 154 155 154 
152 151 148 154 153 148 153 153 148 146 143 138 137 129 123 130 117 108 
132 119 109 149 147 142 161 166 163 146 138 49 144 135 49 138 129 48 
133 125 47 128 120 46 127 119 46 142 114 72 142 123 80 149 126 96 147 127 105 
153 135 132 155 151 145 158 158 157 145 141 138 148 144 141 144 137 134 
133 120 112 134 124 118 129 117 109 132 120 114 137 125 119 150 148 145 
153 149 147 158 160 160 159 163 163 154 153 150 156 152 152 147 140 137 
146 137 133 151 146 144 151 148 145 152 149 145 152 148 146 152 147 145 
151 144 142 150 144 141 148 145 141 146 140 137 144 137 132 128 112 101 
127 109 98 126 108 97 142 134 129 129 114 104 141 131 124 159 156 157 
158 158 157 159 161 162 154 151 149 152 147 144 151 145 142 151 144 141 
149 143 139 137 127 121 159 164 165 153 154 152 151 149 143 148 146 140 
144 141 134 144 142 137 132 122 113 134 126 117 149 150 146 157 162 160 
148 139 50 147 138 49 142 133 48 135 127 47 128 121 46 139 112 69 142 117 86 
140 125 89 150 130 113 152 135 126 151 144 138 156 152 152 147 145 142 
143 137 134 148 143 140 151 149 147 152 153 153 141 137 135 133 127 124 
136 131 128 149 147 145 154 153 149 140 129 123 148 141 138 144 137 132 
155 157 156 158 161 161 155 153 153 149 144 141 148 145 142 155 154 152 
155 155 154 152 150 149 144 135 131 136 123 116 135 122 115 142 134 130 
146 142 141 150 149 149 147 144 143 143 136 131 129 112 104 133 120 112 
136 124 118 144 138 134 142 134 130 147 140 137 145 138 134 153 147 144 
158 154 152 162 160 159 158 155 154 146 140 135 142 136 130 150 149 144 
150 151 148 141 137 131 136 127 120 141 135 130 154 156 154 136 130 125 
136 130 125 148 148 146 153 157 156 145 137 49 148 139 49 145 136 48 
138 129 47 141 114 70 143 113 87 135 121 84 143 118 103 151 137 129 
155 146 141 153 148 148 151 149 148 150 150 150 143 136 132 134 122 115 
150 147 144 147 142 142 146 143 143 135 127 123 139 135 131 146 142 139 
154 152 150 152 147 144 145 140 134 134 121 112 150 149 146 161 167 168 
156 158 158 146 144 141 153 154 153 159 160 161 158 157 157 150 145 144 
142 132 128 131 117 109 131 117 109 142 132 128 149 144 143 153 155 156 
151 151 152 139 128 123 129 113 103 139 130 126 143 137 133 153 153 153 
156 159 158 149 144 142 145 137 133 154 148 145 156 152 150 163 162 163 
158 157 157 146 140 136 142 136 131 147 149 144 148 150 145 140 138 133 
136 129 123 133 122 114 135 126 117 138 131 125 142 139 136 147 148 146 
149 152 151 137 130 48 145 137 49 147 138 49 150 116 76 149 115 95 136 123 88 
141 116 106 143 122 119 146 135 129 153 147 146 151 147 147 153 152 153 
160 166 166 142 132 128 139 129 123 141 134 129 148 141 138 144 138 135 
130 113 105 133 122 115 148 145 144 152 149 147 151 147 144 154 153 152 
144 137 132 152 149 145 158 159 158 154 152 149 146 144 141 151 152 152 
160 161 163 161 159 160 154 148 146 155 154 153 140 129 125 138 127 122 
145 138 136 150 147 146 153 153 153 150 147 146 128 112 102 126 108 97 
131 117 108 141 137 132 152 153 153 157 162 162 155 154 153 154 151 150 
137 127 119 133 120 110 153 152 151 154 153 153 150 147 145 143 138 133 
145 143 138 141 139 132 149 151 148 151 154 151 150 150 146 151 149 145 
153 151 150 152 152 151 147 150 146 146 150 145 131 124 46 142 134 48 
162 117 92 157 118 108 141 127 95 141 119 107 145 119 125 148 142 138 
147 141 138 151 149 148 151 149 150 149 148 147 147 141 139 139 126 121 
135 123 116 141 133 128 148 143 139 148 143 138 138 131 126 138 134 130 
145 140 138 147 142 140 149 144 139 151 147 143 150 146 143 151 147 145 
154 151 146 153 151 148 147 146 144 149 148 148 159 158 159 160 158 158 
155 150 148 151 147 144 144 136 132 142 136 131 155 156 155 159 163 163 
157 162 162 149 145 144 135 124 117 129 113 104 134 126 118 141 137 132 
146 145 143 149 149 147 148 141 138 149 145 143 133 119 112 126 108 97 
140 134 129 153 153 152 152 151 150 148 145 141 145 145 141 147 148 145 
153 156 155 157 161 161 158 161 160 159 161 160 157 157 156 142 136 131 
145 145 140 141 141 134 126 119 46 171 105 114 158 119 123 147 136 111 
145 126 114 143 116 122 136 120 115 138 133 129 141 135 132 146 142 140 
149 148 148 149 149 148 149 144 142 149 142 140 145 140 135 144 139 135 
145 138 133 144 138 132 144 140 137 139 133 130 138 131 126 141 133 128 
145 140 134 150 147 143 151 149 146 152 151 150 154 152 150 153 152 150 
151 150 149 152 153 154 158 160 161 157 155 154 156 152 151 151 147 145 
141 137 131 138 131 124 155 157 157 157 162 162 146 147 145 141 140 136 
140 139 136 142 142 137 140 137 133 140 137 132 137 129 124 136 127 121 
138 128 122 144 136 132 148 146 143 145 139 136 152 149 146 156 156 156 
153 153 153 150 150 150 147 146 145 146 146 145 139 132 126 153 155 154 
156 159 159 156 159 158 155 157 156 149 149 146 145 141 137 134 127 119 
174 92 145 155 119 134 143 138 122 146 133 126 149 129 138 139 126 124 
136 130 124 134 130 126 140 132 129 140 133 130 146 146 145 149 150 150 
155 153 153 154 151 150 149 144 142 140 132 126 130 116 105 143 136 130 
145 143 140 138 132 129 136 127 120 135 127 119 146 140 135 150 148 145 
150 149 148 152 152 152 154 152 151 156 155 156 153 153 153 153 154 154 
153 152 151 154 153 152 155 153 153 149 146 144 130 116 106 138 130 125 
151 151 151 149 149 150 139 139 136 137 136 132 139 139 135 143 144 143 
143 144 142 140 136 133 132 122 115 131 117 108 133 121 113 140 132 127 
150 149 147 157 159 158 159 159 159 158 157 158 154 154 155 151 151 151 
147 147 147 146 147 147 141 135 131 152 154 153 156 158 158 146 141 137 
139 132 126 135 124 117 140 134 129 132 121 112 
