P3
64 64
255
144 143 141 141 137 135 141 142 141 142 141 141 145 142 141 136 127 121 
133 128 123 132 128 124 138 129 125 139 132 127 146 146 145 149 150 150 
155 153 153 154 151 150 149 144 142 148 122 116 162 89 80 187 77 71 204 54 48 
217 44 38 216 44 38 214 44 38 214 44 38 214 44 38 214 44 38 214 44 38 
214 44 38 214 44 38 214 44 38 214 44 38 214 44 38 214 44 38 214 44 38 
214 44 38 214 44 38 214 44 38 214 44 38 214 44 38 214 44 38 214 44 38 
214 44 38 214 44 38 214 44 38 216 44 38 217 45 38 203 51 45 183 72 65 
167 99 93 157 137 135 157 159 158 159 159 159 158 157 158 154 154 155 
151 151 151 147 147 147 146 147 147 141 135 131 152 154 153 156 158 158 
146 141 137 139 132 126 135 124 117 140 134 129 132 121 112 157 162 163 
139 132 125 140 140 139 144 143 142 142 136 131 133 121 112 127 113 105 
133 130 126 140 136 134 145 141 139 148 148 148 149 149 148 149 144 142 
149 142 140 145 140 135 150 131 127 164 111 106 179 90 84 197 66 61 207 50 44 
212 45 39 215 44 38 214 44 38 214 44 38 214 44 38 214 44 38 214 44 38 
214 44 38 214 44 38 214 44 38 214 44 38 214 44 38 214 44 38 214 44 38 
214 44 38 214 44 38 214 44 38 214 44 38 214 44 38 214 44 38 214 44 38 
214 44 38 215 44 38 212 46 40 206 50 44 195 63 57 175 86 80 163 110 106 
154 137 134 145 139 136 152 149 146 156 156 156 153 153 153 150 150 150 
147 146 145 146 146 145 139 132 126 153 155 154 156 159 159 156 159 158 
155 157 156 149 149 146 145 141 137 134 127 119 158 163 164 146 146 145 
141 139 137 143 141 139 140 134 130 137 131 125 139 133 128 157 162 162 
148 148 147 151 150 150 150 149 150 149 148 147 147 141 138 139 126 121 
135 123 116 142 131 126 153 136 132 163 120 115 175 88 82 192 68 63 207 51 45 
217 44 38 216 44 38 214 44 38 214 44 38 214 44 38 214 44 38 214 44 38 
214 44 38 214 44 38 214 44 38 214 44 38 214 44 38 214 44 38 214 44 38 
214 44 38 214 44 38 214 44 38 214 44 38 214 44 38 214 44 38 216 44 38 
217 44 38 207 51 45 194 72 67 180 98 94 163 119 115 154 138 136 135 118 111 
126 108 97 140 134 129 153 153 152 152 151 150 148 145 141 145 145 141 
147 148 145 153 156 155 157 161 161 158 161 160 159 161 160 157 157 156 
142 136 131 145 145 140 141 141 134 145 145 146 143 142 142 141 138 135 
141 136 133 140 136 133 140 136 131 134 127 125 136 127 120 143 137 133 
152 151 151 151 149 150 153 153 154 160 166 167 142 132 128 139 129 123 
141 134 129 148 141 138 148 132 129 151 95 88 172 83 77 196 68 63 207 52 46 
212 46 40 215 44 38 214 44 38 214 44 38 214 43 37 213 43 37 213 43 37 
213 43 37 213 43 37 213 43 37 213 43 37 213 43 37 213 43 37 213 43 37 
213 43 37 214 43 37 214 44 38 214 44 38 215 44 38 212 45 39 206 49 43 
194 67 61 181 100 97 171 132 130 158 148 146 154 151 150 137 127 119 
133 120 110 153 152 151 154 153 153 150 147 145 143 138 133 145 143 138 
141 139 132 149 151 148 151 154 151 150 150 146 151 149 145 153 151 150 
152 152 151 147 150 146 146 150 145 144 143 143 144 141 141 141 138 134 
139 134 130 140 134 129 138 128 124 131 122 116 130 117 107 153 154 152 
158 161 161 153 155 156 150 149 149 150 149 148 143 136 132 134 122 114 
150 147 144 147 142 142 147 142 142 140 122 118 153 113 109 176 91 87 
194 71 66 207 51 45 218 45 38 215 44 38 214 44 38 214 43 37 213 43 37 
213 42 36 213 42 36 213 42 36 213 42 36 213 42 36 213 42 36 213 42 36 
213 42 36 213 43 37 214 43 37 214 44 38 215 44 38 218 45 38 205 49 43 
191 67 62 177 92 87 166 129 127 159 152 151 150 143 141 145 137 133 
154 148 145 156 152 150 163 162 163 158 157 157 146 140 136 142 136 131 
147 149 144 148 150 145 140 138 133 136 129 123 133 122 114 135 126 117 
138 131 125 142 139 136 147 148 146 149 152 151 141 139 139 136 128 123 
136 127 122 129 112 104 137 126 122 145 142 141 140 137 136 139 133 130 
149 148 145 155 156 155 154 156 156 156 159 159 145 140 138 143 137 134 
148 143 140 151 149 147 152 153 153 138 134 132 128 122 119 133 118 115 
157 112 109 175 92 87 191 61 55 206 49 43 211 45 39 214 44 38 214 44 38 
213 44 38 214 45 39 214 45 39 214 45 39 214 45 39 214 45 39 214 45 39 
214 45 39 214 45 39 213 44 38 214 44 38 214 44 38 211 45 39 206 49 43 
189 58 52 167 79 72 151 100 94 146 129 125 142 134 130 147 140 137 145 138 134 
153 147 144 158 154 152 162 160 159 158 155 154 146 140 135 142 136 130 
150 149 144 150 151 148 141 137 131 136 127 120 141 135 130 154 156 154 
136 130 125 136 130 125 148 148 146 153 157 156 134 133 132 135 134 132 
138 134 129 129 112 103 132 118 112 136 127 123 154 156 155 146 143 140 
151 149 146 150 147 144 158 160 160 160 165 165 158 162 162 144 139 136 
148 145 142 142 135 132 128 116 108 126 117 111 119 108 100 120 107 102 
127 107 101 148 109 106 171 86 83 190 68 64 205 51 45 214 44 38 214 44 38 
214 46 40 214 50 45 215 53 48 215 53 48 215 54 48 215 54 48 215 53 48 
215 53 48 214 50 45 214 46 40 214 44 38 214 44 38 203 47 41 184 57 50 
160 70 63 146 104 99 125 101 93 133 122 115 153 150 151 155 155 154 
159 161 162 154 151 149 152 147 144 151 145 142 151 144 141 149 143 139 
137 127 121 159 164 165 153 154 152 151 149 143 148 146 140 144 141 134 
144 142 137 132 122 113 134 126 117 149 150 146 157 162 160 135 127 124 
135 130 126 138 132 128 151 150 148 148 145 142 128 112 102 142 136 133 
155 158 156 144 136 132 142 132 126 148 143 140 156 159 158 160 166 167 
148 146 143 146 143 141 138 133 130 120 108 100 117 107 101 117 108 101 
132 134 133 127 124 123 131 119 117 153 104 104 172 81 78 197 55 50 212 45 39 
214 46 40 217 60 54 221 85 81 223 100 95 224 102 98 225 104 100 225 104 100 
224 102 98 223 100 95 221 85 81 217 60 54 214 46 40 212 45 39 197 56 50 
164 69 63 140 86 79 142 128 128 137 136 135 141 141 141 136 128 126 
150 150 150 156 162 163 153 151 150 149 144 139 149 143 139 151 145 140 
144 135 129 133 120 112 154 155 154 152 151 148 154 153 148 153 153 148 
146 143 138 137 129 123 130 117 108 132 119 109 149 147 142 161 166 163 
160 166 166 150 149 148 139 131 124 159 163 164 149 147 145 130 115 106 
147 145 141 158 161 161 136 125 116 129 113 104 134 124 116 144 139 135 
158 161 160 152 154 153 144 141 138 135 132 128 118 115 115 113 112 110 
123 123 122 132 137 138 117 112 109 119 112 109 129 110 107 152 91 88 
187 59 54 209 46 41 213 50 45 222 86 81 234 150 146 239 185 182 241 192 190 
242 195 193 242 195 193 241 192 190 239 185 182 234 150 146 222 86 81 
213 51 46 209 47 41 188 60 55 147 82 77 128 104 99 121 114 112 132 132 132 
137 140 140 132 124 121 135 133 129 143 138 137 141 134 131 146 139 134 
157 156 154 156 155 152 137 125 117 130 113 104 147 141 137 153 150 148 
150 147 142 146 142 137 143 139 134 137 130 123 130 116 105 135 123 115 
155 152 150 164 165 165 156 159 159 147 144 143 139 132 126 136 127 120 
138 126 120 142 135 129 147 146 143 148 146 142 134 123 115 129 115 105 
130 116 107 137 127 122 146 144 140 137 131 125 136 130 125 119 111 104 
114 112 110 112 111 110 121 120 118 119 118 116 100 90 83 107 101 98 
115 108 106 137 88 85 182 59 55 207 49 43 214 53 48 226 100 96 241 185 183 
249 232 231 251 241 240 252 245 244 252 245 244 251 241 240 249 232 231 
241 185 183 226 100 96 214 53 48 208 49 43 183 60 55 138 87 83 118 110 108 
125 128 128 123 120 119 119 110 105 127 127 124 133 132 130 134 129 126 
123 111 103 131 120 112 157 159 156 158 159 154 150 147 144 147 143 141 
151 148 146 152 150 149 149 145 142 147 142 137 147 143 138 143 137 131 
134 124 116 137 127 120 152 148 146 159 156 156 135 124 118 137 127 121 
137 127 121 126 108 97 134 122 115 151 149 146 154 154 152 149 146 142 
147 142 137 146 139 134 143 133 129 139 132 129 135 128 125 117 104 96 
113 100 92 114 106 99 117 112 110 116 114 112 114 110 109 102 94 88 93 81 73 
97 88 83 103 91 87 131 80 76 181 60 55 207 49 43 214 54 49 226 103 99 
242 191 190 251 241 240 253 250 250 254 253 253 254 253 253 253 250 250 
251 241 240 242 191 190 226 103 99 214 53 48 207 47 41 178 54 49 137 86 82 
118 110 107 116 117 116 108 101 96 106 97 89 128 131 130 131 133 132 
133 130 127 125 117 110 141 137 134 148 146 140 151 149 142 149 145 140 
150 149 148 151 152 152 151 151 151 149 147 144 153 151 149 158 157 155 
155 154 151 144 142 137 140 137 131 142 139 136 144 141 138 130 115 106 
131 116 106 148 147 144 130 115 105 130 116 106 142 136 131 154 154 153 
149 144 141 150 149 146 153 151 149 149 145 145 141 136 136 134 133 131 
117 109 103 106 93 84 106 95 87 115 110 107 121 123 124 110 109 107 
100 95 90 97 92 87 95 87 82 111 104 103 132 82 79 180 58 54 208 48 44 
213 55 50 227 104 100 243 194 193 252 244 244 254 253 253 255 255 255 
255 255 255 254 253 253 252 244 244 243 194 193 227 104 100 213 54 49 
208 48 43 182 62 58 138 87 84 117 107 105 108 104 101 105 98 94 101 93 86 
106 97 91 121 113 109 128 124 122 136 133 131 140 139 136 143 141 135 
144 140 134 144 138 134 151 149 148 152 152 152 143 136 131 131 117 109 
149 145 143 157 154 152 153 152 149 144 146 141 139 138 131 138 134 129 
141 138 135 136 127 119 135 125 118 154 155 154 139 129 126 146 143 140 
143 137 133 152 151 151 155 155 154 152 152 151 140 136 133 148 147 148 
140 140 139 139 143 144 121 118 115 103 91 83 106 98 92 104 96 91 101 93 88 
99 94 91 105 106 106 106 110 110 101 98 97 109 104 104 134 86 85 179 58 54 
208 48 43 213 55 50 227 104 100 243 193 192 252 243 243 254 252 252 
255 255 255 255 255 255 254 252 252 252 243 243 243 193 192 227 104 100 
213 55 50 208 48 43 180 59 55 135 84 84 113 104 104 104 101 98 98 93 87 
105 100 95 108 102 97 112 105 101 119 112 109 128 125 124 136 135 132 
137 134 131 120 104 96 133 125 119 154 156 155 159 162 162 153 153 151 
144 139 136 150 147 146 141 134 128 137 130 123 137 137 130 139 143 137 
149 149 146 152 152 149 129 114 105 131 117 109 152 153 153 151 152 152 
155 157 157 145 142 140 149 144 143 157 157 157 150 151 151 134 128 125 
136 132 131 137 139 140 127 127 126 110 102 97 112 108 105 119 122 122 
108 108 106 95 87 83 88 77 71 98 98 96 101 101 101 100 99 98 106 99 99 
131 84 83 179 58 54 208 47 43 214 54 49 227 104 100 243 193 192 252 243 243 
254 252 252 255 255 255 255 255 255 254 252 252 252 243 243 243 193 192 
227 104 100 213 54 49 208 47 43 179 56 52 130 79 76 108 102 102 108 109 110 
108 110 110 106 106 103 107 104 102 107 100 95 110 104 99 121 118 116 
129 129 128 133 132 130 126 119 112 142 140 139 154 159 160 160 166 167 
158 162 162 153 153 153 149 147 146 140 131 125 142 136 131 154 157 157 
147 149 147 146 147 144 149 149 146 152 152 150 130 115 106 144 141 136 
154 158 158 161 167 168 155 157 156 130 114 105 144 135 133 148 146 146 
122 111 104 124 115 111 130 127 127 123 118 118 113 106 103 105 98 94 
106 102 99 107 108 106 90 83 77 84 74 68 95 95 93 96 97 96 96 95 93 96 87 86 
125 77 76 178 56 52 208 47 43 214 54 49 227 104 100 243 193 192 252 243 243 
254 252 252 255 255 255 255 255 255 254 252 252 252 243 243 243 193 192 
227 104 100 213 54 49 208 47 43 178 57 53 128 79 77 105 101 101 103 106 106 
103 106 105 106 104 103 104 100 97 101 94 88 104 97 91 115 111 108 126 126 124 
130 131 129 135 136 131 139 136 134 144 143 142 150 152 151 148 147 145 
151 148 146 154 152 150 156 158 157 153 153 151 161 167 168 159 166 167 
144 146 142 131 131 126 151 128 123 140 115 107 147 138 135 150 149 148 
158 162 163 158 161 161 133 121 114 146 140 138 146 142 142 130 122 120 
119 111 107 125 126 126 121 119 119 106 98 95 96 88 81 91 82 75 97 93 89 
85 76 69 92 90 87 88 84 80 89 87 85 88 83 81 89 77 74 116 62 58 176 53 49 
207 47 42 213 54 49 227 104 100 243 193 192 252 243 243 254 252 252 
255 255 255 255 255 255 254 252 252 252 243 243 243 193 192 227 104 100 
213 54 49 207 47 42 175 52 47 124 74 71 101 96 96 99 101 101 95 95 95 99 95 93 
100 95 93 101 96 93 111 110 109 116 114 112 120 119 117 125 124 123 
128 127 124 131 127 123 134 129 125 139 135 133 144 140 138 152 149 147 
160 164 165 158 161 161 150 146 143 155 156 155 160 162 162 143 125 122 
139 117 112 173 106 101 170 118 116 154 137 136 154 148 150 153 150 151 
158 161 163 150 153 153 145 145 146 141 138 137 127 120 116 111 103 96 
122 124 124 121 125 126 110 110 109 90 80 73 85 73 67 81 70 62 81 73 66 
85 80 75 88 87 85 90 91 91 80 77 74 85 74 71 118 67 64 175 52 47 207 47 42 
213 54 49 227 104 100 243 193 192 252 243 243 254 252 252 255 255 255 
255 255 255 254 252 252 252 243 243 243 193 192 227 104 100 213 54 49 
207 46 41 173 49 44 120 69 65 98 93 93 96 98 99 92 92 90 92 88 85 95 91 88 
104 103 101 112 116 116 116 118 117 119 116 114 119 117 117 120 116 115 
120 114 111 127 121 117 143 144 145 145 140 140 136 129 123 156 160 159 
160 166 166 147 144 141 147 144 141 157 146 145 168 120 117 170 100 96 
193 82 78 180 91 86 147 96 86 144 121 116 149 139 140 153 154 155 150 155 155 
133 131 128 132 130 128 126 122 121 115 111 107 108 103 98 108 104 102 
100 95 91 86 75 68 82 71 64 85 79 74 92 93 91 91 93 91 90 94 94 88 92 92 
87 89 90 83 74 71 115 63 61 172 49 44 207 46 41 213 54 49 227 104 100 
243 193 192 252 243 243 254 252 252 255 255 255 255 255 255 254 252 252 
252 243 243 243 193 192 227 104 100 213 54 49 207 46 41 172 48 43 121 73 71 
94 89 89 91 92 92 82 78 76 82 74 70 88 82 77 96 91 90 110 109 110 114 113 112 
116 115 115 116 116 116 111 106 104 111 103 98 118 110 105 135 131 130 
145 142 142 141 139 136 139 134 130 138 128 122 133 118 111 144 126 120 
159 116 112 183 93 88 193 80 75 208 54 48 197 63 57 170 77 69 149 93 83 
148 130 128 148 144 145 133 126 122 118 106 98 129 128 127 126 128 127 
122 121 119 117 114 112 111 109 107 103 100 98 87 79 74 81 73 66 88 85 82 
93 96 96 88 88 88 88 91 92 85 88 89 83 83 83 77 66 64 110 60 57 172 50 45 
207 46 42 213 54 49 227 104 100 243 193 192 252 243 243 254 252 252 
255 255 255 255 255 255 254 252 252 252 243 243 243 193 192 227 104 100 
213 54 49 206 46 41 169 45 39 111 58 54 86 78 76 76 70 66 74 66 62 76 67 62 
77 66 60 85 76 72 104 103 102 109 106 106 109 107 106 103 98 94 99 89 82 
103 90 83 109 98 92 126 120 115 137 134 132 143 140 139 141 134 128 
128 112 103 133 110 100 152 98 90 175 86 79 200 68 62 209 55 50 219 45 38 
208 49 43 195 70 64 182 99 95 164 125 123 146 131 130 137 133 129 117 106 100 
122 120 119 124 124 124 121 121 121 117 116 116 111 108 107 100 95 93 
94 92 89 92 92 91 90 91 90 83 79 76 81 76 75 85 87 87 81 82 82 80 81 81 
80 73 72 111 62 60 172 50 45 206 46 42 213 54 49 227 104 100 243 193 192 
252 243 243 254 252 252 255 255 255 255 255 255 254 252 252 252 243 243 
243 193 192 227 104 100 213 54 49 206 46 41 168 45 39 105 49 45 70 55 49 
66 56 50 70 62 56 73 64 59 74 63 57 86 79 76 102 103 103 102 102 100 
103 101 99 102 99 95 96 84 75 100 88 79 108 99 92 121 116 111 132 129 125 
139 135 134 144 135 133 142 123 116 151 104 95 172 82 74 194 67 61 210 51 46 
218 45 38 215 44 38 213 45 39 210 53 47 201 73 69 181 99 95 151 102 98 
139 125 123 129 125 123 128 127 127 123 122 123 116 116 115 108 106 103 
105 102 102 95 90 88 88 83 81 94 97 97 89 92 91 74 70 65 75 71 68 82 85 85 
79 82 82 77 80 81 83 79 79 114 67 66 172 50 46 206 46 42 213 54 49 227 104 100 
243 193 192 252 243 243 254 252 252 255 255 255 255 255 255 254 252 252 
252 243 243 243 193 192 227 104 100 213 54 49 206 46 40 168 45 39 111 62 59 
78 71 70 64 57 53 71 65 61 76 71 67 74 66 60 88 86 83 99 101 102 102 103 103 
101 97 96 108 104 102 108 104 102 107 103 101 111 110 106 119 116 111 
120 111 104 132 125 122 141 125 119 159 109 102 178 90 84 198 68 62 210 52 46 
213 46 40 215 44 38 214 44 38 215 44 38 218 44 38 210 53 48 194 70 65 
171 84 79 151 111 109 136 124 124 124 119 118 117 114 114 112 111 109 
107 104 101 105 103 102 95 91 90 82 73 69 77 71 66 75 68 63 80 77 74 79 79 77 
79 81 82 78 80 81 79 79 79 85 79 79 116 68 66 173 50 46 206 46 42 213 54 49 
227 104 100 243 193 192 252 243 243 254 252 252 255 255 255 255 255 255 
254 252 252 252 243 243 243 193 192 227 104 100 213 54 49 206 46 41 170 45 40 
108 54 49 74 59 55 73 69 67 73 67 65 79 76 73 85 83 82 93 96 96 96 98 98 
97 96 96 99 94 92 112 108 109 114 110 110 111 110 109 111 107 102 110 102 95 
123 112 107 134 116 113 151 108 103 181 98 93 198 74 70 209 52 46 218 44 38 
215 44 38 214 44 38 214 44 38 214 44 38 215 44 38 213 45 39 208 50 44 
197 68 63 174 91 88 149 103 101 124 103 100 114 107 105 115 105 104 
115 106 106 112 106 106 104 96 96 90 78 74 84 71 68 86 76 73 89 84 85 86 81 81 
83 76 76 79 68 67 76 63 61 88 74 73 118 65 62 175 49 45 207 47 42 213 54 49 
227 104 100 243 193 192 252 243 243 254 252 252 255 255 255 255 255 255 
254 252 252 252 243 243 243 193 192 227 104 100 213 54 49 206 46 41 171 44 39 
109 51 45 78 56 51 79 68 66 76 66 64 84 77 77 84 76 75 95 90 89 98 90 89 
101 94 93 100 90 88 112 106 105 115 107 105 118 106 104 120 108 105 
110 93 87 119 87 79 147 92 87 174 86 82 199 69 64 210 52 46 213 46 40 
215 44 38 214 44 38 214 44 38 214 44 38 214 44 38 214 44 38 216 44 38 
219 45 38 209 52 46 191 69 65 170 78 74 144 80 75 138 93 90 136 87 85 
136 87 85 137 91 90 133 85 84 124 72 69 118 65 62 115 61 58 119 71 69 
117 69 67 116 69 68 111 61 58 107 53 49 117 61 58 140 57 52 182 46 41 
207 45 40 212 53 48 226 103 99 242 192 191 252 242 242 254 251 252 255 255 255 
255 255 255 254 251 252 252 242 242 242 192 191 226 103 99 212 53 48 207 45 40 
180 43 38 134 48 42 117 63 60 115 67 66 112 63 61 118 71 70 117 67 65 
120 70 68 124 72 70 124 72 69 127 76 72 136 87 84 141 93 90 139 89 85 
142 91 87 144 95 91 152 87 81 173 78 73 193 69 64 210 52 46 218 45 38 
216 44 38 214 44 38 214 44 38 214 44 38 214 44 38 214 44 38 214 44 38 
214 44 38 215 44 38 212 46 41 207 51 46 198 54 48 185 56 50 183 64 60 
181 60 56 179 56 51 181 60 56 180 58 54 177 55 50 174 51 46 172 48 43 
174 52 48 174 52 48 174 52 49 172 49 45 173 50 45 176 52 47 184 47 42 
199 41 35 210 44 38 213 52 47 225 102 97 242 192 191 252 242 242 254 251 252 
255 255 255 255 255 255 254 251 252 252 242 242 242 192 191 225 102 97 
213 52 47 209 43 37 198 40 33 181 42 37 172 47 41 171 48 42 172 51 46 
173 53 49 175 53 49 176 53 49 176 54 50 177 55 50 179 56 51 180 58 53 
182 60 55 183 61 56 184 62 58 184 64 58 189 59 53 200 57 52 208 53 47 
212 46 40 215 44 38 214 44 38 214 44 38 214 44 38 214 44 38 214 44 38 
214 44 38 214 44 38 214 43 37 214 43 37 214 44 38 215 44 38 212 45 39 
210 47 41 208 48 42 207 47 42 207 48 43 208 48 43 208 48 43 208 47 43 
207 47 42 207 47 42 207 47 42 207 47 42 207 47 42 206 47 42 207 46 42 
207 47 42 208 45 40 210 43 37 213 46 40 214 55 50 224 105 100 241 193 192 
251 242 242 254 252 251 255 255 255 255 255 255 254 252 251 251 242 242 
241 193 192 224 105 100 214 55 50 213 46 40 210 43 37 207 44 40 206 46 41 
207 46 41 206 46 42 206 46 42 207 46 42 207 47 42 208 47 42 208 47 42 
208 47 43 208 47 43 208 48 43 208 49 44 209 49 43 209 49 43 211 48 42 
212 45 39 215 44 38 214 44 38 214 43 37 214 43 37 214 44 38 214 44 38 
214 44 38 214 44 38 214 44 38 214 44 38 214 43 37 214 43 37 213 43 37 
214 43 37 213 46 40 213 50 45 214 54 49 214 54 49 214 55 50 214 54 50 
214 54 49 213 54 49 213 54 49 213 54 49 213 54 49 213 54 49 213 54 49 
213 54 49 213 54 49 213 54 49 213 53 48 213 52 46 214 55 50 215 63 58 
225 110 106 242 196 194 251 243 243 254 252 251 255 255 255 255 255 255 
254 252 251 251 243 243 242 196 194 225 110 106 215 63 58 214 55 50 213 52 46 
213 53 48 213 54 49 213 54 49 213 54 49 213 54 49 213 54 49 213 54 49 
213 54 49 214 54 49 214 54 49 214 54 50 214 55 50 214 55 50 214 54 49 
214 54 49 213 51 46 213 46 40 213 43 37 213 43 37 214 43 37 214 43 37 
214 44 38 214 44 38 214 44 38 214 44 38 214 44 38 214 44 38 213 42 36 
213 42 36 213 44 38 213 45 39 216 60 54 222 85 81 225 100 96 226 103 99 
227 104 100 227 104 100 227 104 100 227 104 100 227 104 100 227 104 100 
227 104 100 227 104 100 227 104 100 227 104 100 227 104 100 227 104 100 
225 103 99 224 102 98 225 104 100 226 110 107 232 145 143 245 210 208 
252 245 245 253 253 252 255 255 255 255 255 255 253 253 252 252 245 245 
245 210 208 232 145 143 226 110 107 225 104 100 224 102 98 225 103 99 
227 104 100 227 104 100 227 104 100 227 104 100 227 104 100 227 104 100 
227 104 100 227 104 100 227 104 100 227 104 100 227 104 100 227 104 100 
226 103 99 225 100 96 222 85 81 216 60 54 213 45 39 213 44 38 213 42 36 
213 42 36 214 44 38 214 44 38 214 44 38 214 44 38 214 44 38 214 44 38 
213 42 36 213 42 36 213 44 38 214 50 45 221 85 81 234 150 146 240 185 182 
242 192 190 243 194 192 243 193 192 243 193 192 243 193 192 243 193 192 
243 193 192 243 193 192 243 193 192 243 193 192 243 193 192 243 193 192 
243 193 192 241 192 190 241 192 190 242 194 192 242 196 194 245 210 209 
250 236 235 253 251 251 253 253 253 255 255 255 255 255 255 253 253 253 
253 251 251 250 236 235 245 210 209 242 196 194 242 194 192 241 192 190 
241 192 190 243 193 192 243 193 192 243 193 192 243 193 192 243 193 192 
243 193 192 243 193 192 243 193 192 243 193 192 243 193 192 243 193 192 
243 194 192 242 192 190 240 185 182 234 150 146 221 85 81 214 50 45 213 44 38 
213 42 36 213 42 36 214 44 38 214 44 38 214 44 38 214 44 38 214 44 38 
214 44 38 212 43 37 212 41 35 214 45 39 215 52 47 224 99 95 240 185 183 
249 232 231 251 241 240 252 244 244 252 243 243 252 243 243 252 243 243 
252 243 243 252 243 243 252 243 243 252 243 243 252 243 243 252 243 243 
252 243 243 252 243 243 251 242 242 251 242 242 252 243 243 252 244 243 
252 247 246 254 251 251 254 254 254 254 254 254 255 255 255 255 255 255 
254 254 254 254 254 254 254 251 251 252 247 246 252 244 243 252 243 243 
251 242 242 251 242 242 252 243 243 252 243 243 252 243 243 252 243 243 
252 243 243 252 243 243 252 243 243 252 243 243 252 243 243 252 243 243 
252 243 243 252 244 244 251 241 240 249 232 231 240 185 183 224 99 95 
215 52 47 214 45 39 212 41 35 212 43 37 214 44 38 214 44 38 214 44 38 
214 44 38 214 44 38 214 44 38 212 43 37 212 41 35 214 45 39 215 53 48 
224 103 98 241 191 189 251 241 240 253 250 250 254 253 253 254 252 252 
254 252 252 254 252 252 254 252 252 254 252 252 254 252 252 254 252 252 
254 252 252 254 252 252 254 252 252 254 252 252 254 252 252 254 252 252 
254 252 252 254 253 252 254 253 253 254 254 254 254 254 254 254 254 254 
255 255 255 255 255 255 254 254 254 254 254 254 254 254 254 254 253 253 
254 253 252 254 252 252 254 252 252 254 252 252 254 252 252 254 252 252 
254 252 252 254 252 252 254 252 252 254 252 252 254 252 252 254 252 252 
254 252 252 254 252 252 254 252 252 254 253 253 253 250 250 251 241 240 
241 191 189 224 103 98 215 53 48 214 45 39 212 41 35 212 43 37 214 44 38 
214 44 38 214 44 38 214 44 38 214 44 38 214 44 38 213 43 37 213 42 36 
214 45 39 215 54 48 225 104 99 242 194 192 252 245 245 254 254 254 255 255 255 
255 255 255 255 255 255 255 255 255 255 255 255 255 255 255 255 255 255 
255 255 255 255 255 255 255 255 255 255 255 255 255 255 255 255 255 255 
255 255 255 255 255 255 255 255 255 255 255 255 255 255 255 255 255 255 
255 255 255 255 255 255 255 255 255 255 255 255 255 255 255 255 255 255 
255 255 255 255 255 255 255 255 255 255 255 255 255 255 255 255 255 255 
255 255 255 255 255 255 255 255 255 255 255 255 255 255 255 255 255 255 
255 255 255 255 255 255 255 255 255 255 255 255 255 255 255 254 254 254 
252 245 245 242 194 192 225 104 99 215 54 48 214 45 39 213 42 36 213 43 37 
214 44 38 214 44 38 214 44 38 214 44 38 214 44 38 214 44 38 213 43 37 
213 42 36 214 45 39 215 54 48 225 104 99 242 194 192 252 245 245 254 254 254 
255 255 255 255 255 255 255 255 255 255 255 255 255 255 255 255 255 255 
255 255 255 255 255 255 255 255 255 255 255 255 255 255 255 255 255 255 
255 255 255 255 255 255 255 255 255 255 255 255 255 255 255 255 255 255 
255 255 255 255 255 255 255 255 255 255 255 255 255 255 255 255 255 255 
255 255 255 255 255 255 255 255 255 255 255 255 255 255 255 255 255 255 
255 255 255 255 255 255 255 255 255 255 255 255 255 255 255 255 255 255 
255 255 255 255 255 255 255 255 255 255 255 255 255 255 255 255 255 255 
254 254 254 252 245 245 242 194 192 225 104 99 215 54 48 214 45 39 213 42 36 
213 43 37 214 44 38 214 44 38 214 44 38 214 44 38 214 44 38 214 44 38 
212 43 37 212 41 35 214 45 39 215 53 48 224 103 98 241 191 189 251 241 240 
253 250 250 254 253 253 254 252 252 254 252 252 254 252 252 254 252 252 
254 252 252 254 252 252 254 252 252 254 252 252 254 252 252 254 252 252 
254 252 252 254 252 252 254 252 252 254 252 252 254 253 252 254 253 253 
254 254 254 254 254 254 254 254 254 255 255 255 255 255 255 254 254 254 
254 254 254 254 254 254 254 253 253 254 253 252 254 252 252 254 252 252 
254 252 252 254 252 252 254 252 252 254 252 252 254 252 252 254 252 252 
254 252 252 254 252 252 254 252 252 254 252 252 254 252 252 254 252 252 
254 253 253 253 250 250 251 241 240 241 191 189 224 103 98 215 53 48 214 45 39 
212 41 35 212 43 37 214 44 38 214 44 38 214 44 38 214 44 38 214 44 38 
214 44 38 212 43 37 212 41 35 214 45 39 215 52 47 224 99 95 240 185 183 
249 232 231 251 241 240 252 244 244 252 243 243 252 243 243 252 243 243 
252 243 243 252 243 243 252 243 243 252 243 243 252 243 243 252 243 243 
252 243 243 252 243 243 251 242 242 251 242 242 252 243 243 252 244 243 
252 247 246 254 251 251 254 254 254 254 254 254 255 255 255 255 255 255 
254 254 254 254 254 254 254 251 251 252 247 246 252 244 243 252 243 243 
251 242 242 251 242 242 252 243 243 252 243 243 252 243 243 252 243 243 
252 243 243 252 243 243 252 243 243 252 243 243 252 243 243 252 243 243 
252 243 243 252 244 244 251 241 240 249 232 231 240 185 183 224 99 95 
215 52 47 214 45 39 212 41 35 212 43 37 214 44 38 214 44 38 214 44 38 
214 44 38 214 44 38 214 44 38 213 42 36 213 42 36 213 44 38 214 50 45 
221 85 81 234 150 146 240 185 182 242 192 190 243 194 192 243 193 192 
243 193 192 243 193 192 243 193 192 243 193 192 243 193 192 243 193 192 
243 193 192 243 193 192 243 193 192 243 193 192 241 192 190 241 192 190 
242 194 192 242 196 194 245 210 209 250 236 235 253 251 251 253 253 253 
255 255 255 255 255 255 253 253 253 253 251 251 250 236 235 245 210 209 
242 196 194 242 194 192 241 192 190 241 192 190 243 193 192 243 193 192 
243 193 192 243 193 192 243 193 192 243 193 192 243 193 192 243 193 192 
243 193 192 243 193 192 243 193 192 243 194 192 242 192 190 240 185 182 
234 150 146 221 85 81 214 50 45 213 44 38 213 42 36 213 42 36 214 44 38 
214 44 38 214 44 38 214 44 38 214 44 38 214 44 38 213 42 36 213 42 36 
213 44 38 213 45 39 216 60 54 223 85 81 225 100 96 226 103 99 227 104 100 
227 104 100 227 104 100 227 104 100 227 104 100 227 104 100 227 104 100 
227 104 100 227 104 100 227 104 100 227 104 100 227 104 100 225 103 99 
224 102 98 225 104 100 226 110 107 232 145 143 245 210 208 252 245 245 
253 253 252 255 255 255 255 255 255 253 253 252 252 245 245 245 210 208 
232 145 143 226 110 107 225 104 100 224 102 98 225 103 99 227 104 100 
227 104 100 227 104 100 227 104 100 227 104 100 227 104 100 227 104 100 
227 104 100 227 104 100 227 104 100 227 104 100 227 104 100 226 103 99 
225 100 96 223 85 81 216 60 54 213 45 39 213 44 38 213 42 36 213 42 36 
214 44 38 214 44 38 214 44 38 214 44 38 214 44 38 214 44 38 214 43 37 
214 43 37 213 43 37 213 43 37 213 46 40 213 50 45 214 53 48 213 54 49 
214 54 49 213 54 49 213 54 49 213 54 49 213 54 49 213 54 49 213 54 49 
213 54 49 213 54 49 213 54 49 213 54 49 213 54 49 213 53 48 213 52 46 
214 55 50 215 63 58 225 110 106 242 196 194 251 243 243 254 252 251 
255 255 255 255 255 255 254 252 251 251 243 243 242 196 194 225 110 106 
215 63 58 214 55 50 213 52 46 213 53 48 213 54 49 213 54 49 213 54 49 
213 54 49 213 54 49 213 54 49 214 54 49 214 54 50 214 55 50 214 54 49 
213 54 49 214 54 49 213 54 49 214 54 49 213 51 46 213 46 40 213 43 37 
213 43 37 214 43 37 214 43 37 214 44 38 214 44 38 214 44 38 214 44 38 
214 44 38 214 44 38 214 43 37 214 43 37 213 44 38 215 44 38 211 45 39 
208 47 41 206 47 41 207 48 42 207 47 42 207 47 42 207 46 41 207 46 41 
207 46 41 207 46 41 207 46 41 207 46 41 206 46 41 206 47 42 207 46 41 
207 46 41 207 45 40 210 44 38 213 46 40 214 55 50 224 105 100 241 193 192 
251 242 242 254 252 251 255 255 255 255 255 255 254 252 251 251 242 242 
241 193 192 224 105 100 214 55 50 213 46 40 210 43 37 208 45 40 207 46 42 
207 46 41 206 46 41 206 46 42 207 47 42 208 47 42 208 47 43 208 48 43 
208 48 43 208 47 42 207 47 42 208 48 43 207 48 43 208 49 43 209 48 43 
211 45 39 215 44 38 213 44 38 214 43 37 214 43 37 214 44 38 214 44 38 
214 44 38 214 44 38 214 44 38 214 44 38 214 44 38 215 44 38 210 46 40 
205 52 46 196 56 50 185 57 51 179 57 51 179 57 52 178 56 50 175 51 46 
174 48 42 173 47 41 173 49 43 174 51 45 173 49 44 172 49 44 172 49 44 
172 49 44 173 49 44 173 47 42 181 43 37 199 41 34 210 44 38 213 52 47 
225 102 97 242 192 191 252 242 242 254 251 252 255 255 255 255 255 255 
254 251 252 252 242 242 242 192 191 225 102 97 213 52 47 209 43 37 199 41 34 
184 46 41 175 50 46 172 48 43 171 48 43 173 51 46 176 53 49 176 53 48 
176 53 48 180 58 54 181 59 55 179 55 50 179 55 50 182 60 54 181 59 54 
180 56 50 190 63 58 198 57 51 206 52 46 211 47 41 215 44 38 214 44 38 
214 44 38 214 44 38 214 44 38 214 44 38 214 44 38 214 44 38 216 44 38 
218 45 38 207 51 45 190 68 64 171 82 78 151 90 87 132 80 75 135 84 80 
132 80 77 124 71 65 118 62 56 117 62 57 120 67 64 120 70 66 109 55 49 
110 56 52 113 62 59 113 64 62 115 64 61 111 52 47 135 48 43 182 46 41 
207 45 40 212 53 48 226 103 99 242 192 191 252 242 242 254 251 252 255 255 255 
255 255 255 254 251 252 252 242 242 242 192 191 226 103 99 212 53 48 206 44 39 
180 43 37 140 55 52 122 66 64 115 64 61 111 59 55 109 55 50 123 72 70 
122 72 69 124 75 71 132 81 79 135 85 83 135 86 83 138 91 88 146 100 99 
143 94 91 151 106 104 164 106 104 176 86 83 192 70 65 207 52 46 218 45 38 
216 44 38 214 44 38 214 44 38 214 44 38 214 44 38 214 44 38 215 44 38 
212 46 40 207 51 46 195 67 62 172 89 85 153 106 104 127 104 99 101 82 74 
98 80 72 96 77 70 95 78 72 89 73 67 89 74 69 91 79 77 95 87 86 84 72 68 
84 74 71 84 74 72 82 72 71 82 70 68 80 59 56 115 58 55 174 49 45 207 46 41 
213 54 49 227 104 100 243 193 192 252 243 243 254 252 252 255 255 255 
255 255 255 254 252 252 252 243 243 243 193 192 227 104 100 213 54 49 
206 46 41 173 46 42 120 64 62 92 76 75 86 76 74 83 74 70 83 71 68 89 77 75 
90 79 77 95 85 83 101 91 89 106 95 92 109 99 96 114 107 104 122 115 113 
125 118 116 136 134 133 145 128 126 157 110 106 176 93 89 197 69 64 208 52 47 
212 46 40 215 44 38 214 44 38 214 44 38 214 44 38 216 44 38 217 44 38 
207 50 44 193 71 65 177 94 90 153 114 111 130 111 108 122 112 109 107 97 91 
111 107 103 100 94 89 90 79 73 82 70 63 82 73 66 85 79 75 91 88 87 90 88 88 
82 77 75 68 58 54 76 71 69 71 65 61 71 55 50 109 55 51 171 47 42 206 46 41 
213 54 49 227 104 100 243 193 192 252 243 243 254 252 252 255 255 255 
255 255 255 254 252 252 252 243 243 243 193 192 227 104 100 213 54 49 
206 46 41 172 49 45 118 67 65 89 78 78 82 78 74 75 68 64 77 71 67 74 64 58 
80 71 67 92 89 87 98 92 89 98 91 87 98 90 87 106 102 98 123 121 121 
134 137 137 128 123 122 117 101 92 127 105 98 157 118 114 184 101 98 
199 78 74 209 54 49 217 44 38 216 44 38 214 44 38 215 44 38 212 45 39 
206 49 43 191 62 55 176 90 85 161 116 113 143 131 128 129 124 121 113 103 97 
104 93 87 120 119 118 111 109 108 95 88 82 86 75 69 83 73 67 84 76 72 86 81 79 
91 91 91 89 88 87 81 77 74 79 75 74 74 70 67 75 65 62 108 57 53 169 45 40 
206 46 41 213 54 49 227 104 100 243 193 192 252 243 243 254 252 252 
255 255 255 255 255 255 254 252 252 252 243 243 243 193 192 227 104 100 
213 54 49 206 46 42 173 51 46 116 65 62 81 70 67 83 81 77 79 75 70 76 71 66 
77 69 64 86 80 76 97 95 93 98 94 90 98 92 87 99 93 90 108 104 103 128 130 130 
141 144 146 121 111 106 116 103 94 133 127 123 144 129 123 169 125 123 
188 108 106 200 74 70 208 53 48 212 46 40 215 44 38 218 45 38 208 50 44 
190 65 58 169 79 72 150 101 92 143 125 122 144 137 136 139 136 135 118 111 104 
114 105 101 122 121 121 112 108 105 105 100 97 98 91 88 87 78 71 85 77 70 
83 75 70 87 83 80 97 98 98 89 87 86 82 78 77 78 72 71 80 69 67 112 60 57 
172 50 45 206 46 41 213 54 49 227 104 100 243 193 192 252 243 243 254 252 252 
255 255 255 255 255 255 254 252 252 252 243 243 243 193 192 227 104 100 
213 54 49 207 47 42 171 47 42 115 61 57 90 79 77 86 82 80 81 75 72 79 75 71 
90 90 88 98 97 94 103 101 99 96 90 86 104 100 99 110 107 106 119 118 117 
132 132 133 133 129 128 137 134 134 147 147 148 144 142 141 150 147 146 
164 157 159 172 136 135 181 97 93 196 72 67 210 53 47 218 45 38 205 54 48 
197 68 62 175 87 81 152 98 91 136 111 103 140 132 126 140 134 131 139 135 134 
122 115 108 126 123 121 127 126 126 123 122 123 118 116 115 105 101 99 
92 83 78 88 81 75 93 89 86 97 97 96 101 103 103 96 95 95 86 84 82 81 76 73 
82 70 68 112 58 54 172 49 44 207 46 41 213 54 49 227 104 100 243 193 192 
252 243 243 254 252 252 255 255 255 255 255 255 254 252 252 252 243 243 
243 193 192 227 104 100 213 54 49 207 46 41 172 47 42 120 69 65 82 66 61 
77 67 62 75 65 58 80 71 65 93 92 89 101 101 99 106 106 103 105 101 100 
108 104 104 116 115 114 126 125 125 134 135 135 128 122 117 119 105 96 
135 129 123 147 147 146 150 151 150 160 166 167 161 153 151 160 110 104 
177 89 83 200 70 66 208 57 51 191 83 78 178 89 83 161 120 117 151 137 135 
153 148 145 152 148 146 145 138 134 135 128 123 133 128 126 131 128 126 
130 129 129 128 127 127 113 109 105 95 84 77 92 81 75 94 87 82 100 95 93 
94 90 86 94 92 90 100 100 101 92 90 87 86 80 76 81 65 60 111 56 51 171 47 41 
206 46 41 213 54 49 227 104 100 243 193 192 252 243 243 254 252 252 
255 255 255 255 255 255 254 252 252 252 243 243 243 193 192 227 104 100 
213 54 49 207 46 41 172 48 42 120 67 63 80 62 56 76 65 58 79 69 62 86 79 74 
103 104 104 106 107 107 101 99 98 103 99 96 109 105 102 119 117 116 
128 127 127 137 137 137 140 140 137 131 125 119 142 139 134 152 153 151 
153 155 154 145 141 136 151 149 147 138 116 107 150 100 92 180 91 86 194 86 84 
177 111 106 168 118 114 157 145 144 154 153 154 150 146 145 147 142 138 
145 139 134 138 132 127 133 126 122 130 126 122 132 131 127 131 130 128 
106 96 89 98 85 77 104 97 93 99 91 87 100 96 93 97 92 89 101 99 99 102 102 102 
95 92 90 90 85 81 82 65 59 112 57 51 171 47 41 207 46 41 213 54 49 227 104 100 
243 193 192 252 243 243 254 252 252 255 255 255 255 255 255 254 252 252 
252 243 243 243 193 192 227 104 100 214 54 50 208 47 42 175 52 47 120 66 61 
82 65 58 80 69 62 84 75 69 99 95 91 108 110 108 106 106 105 102 97 96 
104 98 95 112 107 103 126 125 125 135 136 136 141 141 140 145 144 141 
147 145 142 151 150 147 150 149 146 140 134 128 135 124 117 149 148 146 
132 119 112 136 112 105 166 116 113 178 114 112 162 137 135 153 134 130 
149 145 144 148 150 148 131 117 109 151 149 148 139 131 124 141 133 128 
130 119 113 129 118 112 133 129 125 132 131 128 124 123 120 121 121 119 
119 118 117 111 108 105 102 95 90 95 88 84 103 100 99 98 94 92 98 97 95 
100 102 101 92 80 75 117 62 57 173 49 43 207 46 41 213 54 49 227 104 100 
243 193 192 252 243 243 254 252 252 255 255 255 255 255 255 254 252 252 
252 243 243 243 193 192 227 104 100 214 55 50 208 48 43 179 56 52 128 76 73 
86 68 61 86 77 73 90 86 84 98 96 92 104 102 98 113 113 113 110 103 101 
109 100 98 117 113 110 138 140 140 148 151 152 147 148 148 148 148 146 
152 151 151 154 153 153 148 144 141 128 112 102 129 113 104 147 142 139 
138 130 125 136 125 119 150 134 133 156 138 139 148 143 139 127 111 100 
128 113 105 132 120 112 126 110 99 153 153 154 151 149 149 147 142 138 
137 127 120 134 123 119 138 134 131 136 132 131 125 119 117 131 131 131 
127 127 127 109 102 97 96 85 78 99 90 85 104 98 96 104 101 99 105 105 105 
104 107 107 106 100 101 122 69 64 175 51 45 207 47 42 213 54 49 227 104 100 
243 193 192 252 243 243 254 252 252 255 255 255 255 255 255 254 252 252 
252 243 243 243 193 192 227 104 100 214 55 50 208 48 43 179 57 52 120 65 58 
89 70 63 88 77 70 97 95 93 101 98 95 106 103 99 111 107 104 114 108 106 
113 106 104 125 121 120 147 151 153 149 154 156 151 157 158 155 158 158 
152 151 151 150 149 150 153 152 152 144 138 135 133 120 111 146 142 140 
140 134 130 137 131 127 142 141 141 144 146 147 144 141 139 144 140 138 
138 130 124 136 125 119 136 125 119 157 160 162 158 161 163 156 156 155 
151 149 146 147 145 142 147 146 146 146 146 148 145 145 147 140 139 141 
131 129 128 120 116 113 111 106 102 106 99 94 98 89 83 106 103 100 106 104 102 
106 106 104 104 95 92 127 73 69 177 54 49 208 47 42 214 54 49 227 104 100 
243 193 192 252 243 243 254 252 252 255 255 255 255 255 255 254 252 252 
252 243 243 243 193 192 227 104 100 214 55 50 208 48 43 179 56 50 134 85 82 
95 75 69 97 88 84 103 101 98 107 105 101 112 109 107 114 110 108 118 114 111 
122 119 116 134 134 133 155 158 160 152 159 160 156 162 163 159 163 163 
141 140 138 139 138 136 151 154 154 156 159 159 152 152 151 146 145 143 
138 133 130 136 132 128 141 139 139 143 143 144 134 124 118 152 156 158 
165 171 176 164 171 174 161 167 172 160 166 171 163 168 170 162 165 165 
158 160 159 156 157 157 151 152 153 150 150 152 150 150 151 145 144 145 
136 134 133 121 115 111 120 116 112 118 117 116 100 90 83 96 85 78 104 98 94 
105 100 98 106 94 91 133 80 77 180 59 55 208 48 43 213 55 50 227 104 100 
243 193 192 252 243 243 254 252 252 255 255 255 255 255 255 254 252 252 
252 243 243 243 193 192 227 104 100 213 55 50 208 48 44 181 58 54 137 90 88 
103 93 93 104 100 98 109 105 102 114 111 108 119 115 112 119 115 112 
111 100 93 127 125 123 139 140 139 157 159 161 158 163 164 161 167 168 
154 155 155 140 138 136 139 137 134 149 151 150 151 152 152 143 140 136 
141 136 131 143 141 139 143 142 141 142 141 140 141 141 140 150 154 154 
157 162 164 166 173 178 168 174 180 160 167 173 159 166 173 165 173 177 
165 171 173 158 162 162 153 156 155 150 151 151 143 141 140 146 146 146 
146 145 145 143 142 141 139 139 139 136 138 141 113 106 102 102 90 83 
97 83 75 98 86 79 99 90 84 112 100 97 140 90 87 183 62 58 208 49 44 213 55 50 
227 104 100 243 194 193 252 244 244 254 253 253 255 255 255 255 255 255 
254 253 253 252 244 244 243 194 193 227 104 100 213 55 50 208 48 43 181 57 51 
135 84 81 108 100 100 108 104 102 112 109 107 121 118 115 128 123 121 
130 125 122 120 111 104 124 115 109 142 140 139 154 157 158 161 167 168 
161 167 168 155 157 159 157 160 161 155 157 157 144 142 141 139 133 131 
130 117 109 135 124 118 156 155 155 159 163 164 146 148 145 140 141 137 
156 159 160 158 162 164 164 169 173 165 169 174 160 164 170 159 164 169 
161 164 166 160 163 164 161 167 168 157 162 163 150 151 150 139 132 127 
132 123 115 144 141 138 141 140 137 142 141 140 144 147 151 133 131 132 
126 120 119 111 103 98 108 98 93 105 95 90 115 104 99 140 90 87 182 60 55 
207 49 43 214 54 49 226 103 99 242 191 190 251 241 240 253 250 250 254 253 253 
254 253 253 253 250 250 251 241 240 242 191 190 226 103 99 214 54 49 208 49 43 
185 64 60 138 90 86 110 99 95 111 107 103 116 111 107 124 119 116 130 126 122 
134 130 128 123 111 104 130 123 117 146 143 141 160 166 166 161 167 168 
160 166 167 152 152 153 158 161 162 156 157 158 144 141 141 137 131 129 
131 119 112 139 130 123 160 161 163 164 169 172 150 152 150 143 143 140 
156 156 157 157 157 158 159 158 161 160 161 164 159 161 163 159 160 161 
157 155 154 160 160 160 167 173 178 167 174 178 161 164 167 154 153 153 
142 134 128 141 133 128 133 122 118 131 122 117 140 137 137 144 146 148 
123 115 110 125 120 116 125 121 118 119 114 110 114 100 94 135 83 77 182 59 54 
207 48 42 214 53 48 226 100 96 241 185 183 249 232 231 251 241 240 252 245 244 
252 245 244 251 241 240 249 232 231 241 185 183 226 100 96 214 53 48 208 49 43 
187 66 62 140 90 85 108 90 82 114 105 99 117 109 103 122 114 109 128 120 118 
134 130 130 137 132 131 131 120 113 143 139 135 151 154 151 157 162 162 
157 159 161 156 156 159 160 161 164 158 159 161 150 149 150 146 144 144 
148 146 144 152 151 150 157 160 163 157 161 164 152 153 154 151 150 149 
157 155 156 157 155 156 156 154 155 157 155 156 157 157 156 157 156 155 
153 148 144 154 150 148 161 163 164 164 169 172 162 165 168 152 149 146 
150 144 140 144 136 131 136 125 120 127 113 104 131 120 114 148 148 148 
125 116 111 120 109 101 135 131 129 133 126 124 129 101 94 147 79 72 187 57 51 
210 46 41 213 50 45 222 86 81 234 150 146 239 185 182 241 192 190 242 195 193 
242 195 193 241 192 190 239 185 182 234 150 146 222 86 81 213 50 45 210 47 41 
190 61 56 150 84 78 124 95 87 125 114 109 125 118 111 127 119 115 130 124 120 
138 134 134 144 139 138 140 135 130 139 132 127 140 133 129 146 142 141 
154 151 153 159 161 165 161 164 166 158 160 162 150 149 150 147 146 146 
152 153 153 154 156 157 153 157 159 153 156 158 153 153 155 154 153 155 
157 155 156 157 155 155 158 156 155 158 156 155 158 157 156 155 152 151 
148 140 136 143 135 128 142 134 130 149 144 142 161 161 162 133 119 112 
143 133 128 154 148 147 150 146 145 150 145 144 133 119 111 146 142 139 
126 114 105 116 99 89 124 112 106 145 130 130 155 100 97 172 74 69 197 52 46 
213 45 39 214 46 40 217 60 54 221 85 81 223 100 95 224 102 98 225 104 100 
225 104 100 224 102 98 223 100 95 221 85 81 217 60 54 214 46 40 213 45 39 
198 53 48 173 79 73 155 103 100 143 127 124 140 136 133 141 139 136 
141 138 134 146 140 138 153 152 152 150 150 148 139 132 126 142 136 132 
146 141 140 153 148 150 156 154 156 156 156 156 153 152 151 145 141 139 
141 137 135 140 140 139 144 145 144 150 151 151 153 153 154 152 153 154 
151 152 153 148 143 141 150 146 144 154 153 151 157 156 154 158 157 156 
156 153 152 151 146 143 146 139 135 141 134 130 148 143 142 165 167 171 
169 171 174 159 157 159 157 155 155 157 156 156 157 156 156 139 127 121 
154 148 147 140 129 124 127 111 101 133 111 105 162 120 119 178 89 85 
193 64 59 207 49 43 215 44 38 214 44 38 214 46 40 214 50 45 215 53 48 
215 53 48 215 54 48 215 54 48 215 53 48 215 53 48 214 50 45 214 46 40 
214 44 38 215 44 38 208 51 46 193 68 63 177 91 86 164 124 123 156 144 144 
149 146 143 144 142 137 145 140 135 156 158 158 158 161 161 137 129 123 
138 129 124 143 136 132 150 145 145 154 150 151 153 152 151 149 147 146 
141 138 134 137 133 129 135 133 130 138 139 138 149 150 149 153 155 155 
151 153 154 150 152 153 128 113 105 134 124 117 145 146 143 153 158 157 
156 157 156 160 160 160 155 151 149 147 142 139 159 161 165 155 157 160 
169 177 184 170 176 181 161 161 161 156 153 151 157 155 154 162 160 162 
167 169 173 146 137 133 134 121 112 155 138 136 171 121 121 183 95 92 
198 66 60 209 49 43 212 45 39 214 44 38 214 44 38 213 44 38 214 45 39 
214 45 39 214 45 39 214 45 39 214 45 39 214 45 39 214 45 39 214 45 39 
213 44 38 214 44 38 214 44 38 212 45 39 209 50 45 194 60 53 180 95 91 
170 125 123 151 136 132 143 136 129 140 129 123 141 133 127 139 132 127 
144 141 136 132 118 111 134 121 113 148 141 138 153 151 150 153 151 151 
148 145 144 142 137 133 136 133 128 134 131 129 138 139 137 149 156 153 
154 161 159 151 155 155 151 152 153 129 116 107 134 125 118 144 144 141 
148 151 149 148 145 142 154 151 150 167 168 171 171 175 179 146 142 140 
128 112 101 160 164 166 167 173 178 159 160 160 158 155 154 157 155 153 
162 160 160 168 171 176 146 137 134 136 111 103 171 131 130 187 104 101 
197 71 66 209 51 45 218 45 38 215 44 38 213 44 38 214 43 37 213 43 37 
213 42 36 213 42 36 213 42 36 213 42 36 213 42 36 213 42 36 213 42 36 
213 42 36 213 43 37 214 43 37 213 44 38 215 44 38 218 45 38 208 49 43 
195 71 66 184 100 96 163 119 116 147 129 123 143 132 126 139 131 124 
140 132 128 159 163 164 138 130 125 134 123 116 146 142 138 154 155 154 
159 163 164 147 144 143 141 137 132 137 132 128 134 130 128 137 136 134 
144 150 146 148 155 152 149 154 154 151 153 154 151 149 148 150 148 147 
148 146 143 142 136 131 131 119 110 139 127 121 164 163 164 171 176 179 
150 149 147 136 127 121 157 161 162 163 166 168 148 142 138 160 159 158 
155 151 149 160 159 159 167 171 175 171 163 167 176 130 129 186 100 97 
200 70 65 209 51 45 213 45 39 215 44 38 214 44 38 213 44 38 214 43 37 
213 43 37 213 43 37 213 43 37 213 43 37 213 43 37 213 43 37 213 43 37 
213 43 37 213 43 37 213 43 37 214 43 37 213 44 38 214 44 38 215 44 38 
213 45 40 209 52 46 200 70 65 181 95 91 166 119 113 157 147 144 151 149 148 
148 146 145 148 146 146 144 141 138 144 141 140 148 147 147 149 149 149 
151 152 151 144 141 137 140 137 131 138 135 129 136 131 127 135 129 126 
132 132 127 135 138 134 146 149 148 151 153 155 158 161 164 156 157 157 
148 146 142 141 133 127 130 117 110 137 127 120 159 157 157 166 168 171 
157 160 159 154 158 157 157 162 162 160 163 164 159 160 159 151 144 141 
132 118 110 142 129 123 160 146 147 173 134 134 188 103 100 198 73 68 
209 51 45 218 44 38 215 44 38 214 44 38 214 44 38 214 44 38 214 44 38 
214 44 38 214 44 38 214 44 38 214 44 38 214 44 38 214 44 38 214 44 38 
214 44 38 214 44 38 214 44 38 214 44 38 214 44 38 214 44 38 214 44 38 
216 44 38 218 44 38 209 52 46 197 73 67 182 97 93 165 125 123 156 143 142 
154 152 152 152 153 154 149 149 149 147 147 148 147 147 147 148 148 146 
143 140 138 139 135 131 140 139 133 139 136 129 135 127 121 132 123 118 
129 126 121 134 134 130 144 146 145 149 151 153 152 153 154 150 150 149 
146 143 138 145 141 135 147 142 140 150 147 146 154 153 152 156 157 155 
155 155 153 157 157 155 153 152 150 141 134 128 153 149 146 131 116 106 
126 108 97 134 102 92 170 118 115 189 100 98 201 69 65 210 52 46 213 46 40 
215 44 38 214 44 38 214 44 38 214 44 38 214 44 38 214 44 38 214 44 38 
214 44 38 214 44 38 214 44 38 214 44 38 214 44 38 214 44 38 214 44 38 
214 44 38 214 44 38 214 44 38 214 44 38 214 44 38 214 44 38 214 44 38 
215 44 38 213 45 39 209 51 46 200 68 63 181 91 87 167 115 113 158 144 144 
152 153 152 146 145 144 145 141 139 144 141 138 145 143 140 142 138 137 
140 132 130 143 141 136 140 137 129 130 119 111 129 118 110 138 132 127 
142 142 139 144 146 145 146 148 148 149 149 150 148 147 146 142 136 130 
146 142 137 154 153 153 156 156 158 152 152 151 151 150 148 155 153 149 
158 157 154 148 141 136 126 110 99 142 133 127 126 110 99 126 108 97 
142 111 103 180 113 113 187 73 66 206 53 47 218 44 38 216 44 38 214 44 38 
214 44 38 214 44 38 214 44 38 214 44 38 214 44 38 214 44 38 214 44 38 
214 44 38 214 44 38 214 44 38 214 44 38 214 44 38 214 44 38 214 44 38 
214 44 38 214 44 38 214 44 38 214 44 38 214 44 38 214 44 38 214 44 38 
216 44 38 218 45 38 207 55 49 189 77 73 173 106 104 163 146 145 153 153 153 
146 143 141 142 138 135 142 139 135 141 136 132 138 129 128 140 131 130 
143 142 138 140 137 130 129 115 105 129 115 105 141 136 130 146 146 143 
144 146 145 144 146 146 
