P3
64 64
255
144 143 141 141 137 135 141 142 141 142 141 141 145 142 141 136 127 121 
133 128 123 132 128 124 138 129 125 139 132 127 146 146 145 149 150 150 
155 153 153 154 151 150 149 144 142 140 132 126 130 116 105 143 136 130 
145 143 140 138 132 129 136 127 120 135 127 119 146 140 135 150 148 145 
150 149 148 152 152 152 154 152 151 156 155 156 153 153 153 153 154 154 
153 152 151 154 153 152 155 153 153 149 146 144 130 116 106 138 130 125 
151 151 151 149 149 150 139 139 136 137 136 132 139 139 135 143 144 143 
143 144 142 140 136 133 132 122 115 131 117 108 133 121 113 140 132 127 
150 149 147 157 159 158 159 159 159 158 157 158 154 154 155 151 151 151 
147 147 147 146 147 147 141 135 131 152 154 153 156 158 158 146 141 137 
139 132 126 135 124 117 140 134 129 132 121 112 157 162 163 139 132 125 
140 140 139 144 143 142 142 136 131 133 121 112 127 113 105 133 130 126 
140 136 134 145 141 139 148 148 148 149 149 148 149 144 142 149 142 140 
145 140 135 144 139 135 145 138 133 144 138 132 144 140 137 139 133 130 
138 131 126 141 133 128 145 140 134 150 147 143 151 149 146 152 151 150 
154 152 150 153 152 150 151 150 149 152 153 154 158 160 161 157 155 154 
156 152 151 151 147 145 141 137 131 138 131 124 155 157 157 157 162 162 
146 147 145 141 140 136 140 139 136 142 142 137 140 137 133 140 137 132 
137 129 124 136 127 121 138 128 122 144 136 132 148 146 143 145 139 136 
152 149 146 156 156 156 153 153 153 150 150 150 147 146 145 146 146 145 
139 132 126 153 155 154 156 159 159 156 159 158 155 157 156 149 149 146 
145 141 137 134 127 119 158 163 164 146 146 145 141 139 137 143 141 139 
140 134 130 137 131 125 139 133 128 157 162 162 148 148 147 151 150 150 
150 149 150 149 148 147 147 141 138 139 126 121 135 123 116 141 133 128 
148 143 139 148 143 138 138 131 126 138 134 130 145 140 138 147 142 140 
149 144 139 151 147 143 150 146 143 151 147 145 154 151 146 153 151 148 
147 146 144 149 148 148 159 158 159 160 158 158 155 150 148 151 147 144 
144 136 132 142 136 131 155 156 155 159 163 163 157 162 162 149 145 144 
135 124 117 129 113 104 134 126 118 141 137 132 146 145 143 149 149 147 
148 141 138 149 145 143 133 119 112 126 108 97 140 134 129 153 153 152 
152 151 150 148 145 141 145 145 141 147 148 145 153 156 155 157 161 161 
158 161 160 159 161 160 157 157 156 142 136 131 145 145 140 141 141 134 
145 145 146 143 142 142 141 138 135 141 136 133 140 136 133 140 136 131 
134 127 125 136 127 120 143 137 133 152 151 151 151 149 150 153 153 154 
160 166 167 142 132 128 139 129 123 141 134 129 148 141 138 144 138 135 
130 113 105 133 122 115 148 145 144 152 149 147 151 147 144 154 153 152 
144 137 132 152 149 145 158 159 158 154 152 149 146 144 141 151 152 152 
160 161 163 161 159 160 154 148 146 155 154 153 140 129 125 138 127 122 
145 138 136 150 147 146 153 153 153 150 147 146 128 112 102 126 108 97 
131 117 108 141 137 132 152 153 153 157 162 162 155 154 153 154 151 150 
137 127 119 133 120 110 153 152 151 154 153 153 150 147 145 143 138 133 
145 143 138 141 139 132 149 151 148 151 154 151 150 150 146 151 149 145 
153 151 150 152 152 151 147 150 146 146 150 145 144 143 143 144 141 141 
141 138 134 139 134 130 140 134 129 138 128 124 131 122 116 130 117 107 
153 154 152 158 161 161 153 155 156 150 149 149 150 149 148 143 136 132 
134 122 114 150 147 144 147 142 142 146 143 143 135 127 123 139 135 131 
146 142 139 154 152 150 152 147 144 145 140 134 134 121 112 150 149 146 
161 167 168 156 158 158 146 144 141 153 154 153 159 160 161 158 157 157 
150 145 144 142 132 128 131 117 109 131 117 109 142 132 128 149 144 143 
153 155 156 151 151 152 139 128 123 129 113 103 139 130 126 143 137 133 
153 153 153 156 159 158 149 144 142 145 137 133 154 148 145 156 152 150 
163 162 163 158 157 157 146 140 136 142 136 131 147 149 144 148 150 145 
140 138 133 136 129 123 133 122 114 135 126 117 138 131 125 142 139 136 
147 148 146 149 152 151 141 139 139 136 128 123 136 127 122 129 112 104 
137 126 122 145 142 141 140 137 136 139 133 130 149 148 145 155 156 155 
154 156 156 156 159 159 145 140 138 143 137 134 148 143 140 151 149 147 
152 153 153 141 137 135 133 127 124 136 131 128 149 147 145 154 153 149 
140 129 123 148 141 138 144 137 132 155 157 156 158 161 161 155 153 153 
149 144 141 148 145 142 155 154 152 155 155 154 152 150 149 144 135 131 
136 123 116 135 122 115 142 134 130 146 142 141 150 149 149 147 144 143 
143 136 131 129 112 104 133 120 112 136 124 118 144 138 134 142 134 130 
147 140 137 145 138 134 153 147 144 158 154 152 162 160 159 158 155 154 
146 140 135 142 136 130 150 149 144 150 151 148 141 137 131 136 127 120 
141 135 130 154 156 154 136 130 125 136 130 125 148 148 146 153 157 156 
134 133 132 135 134 132 138 134 129 129 112 103 132 118 112 136 127 123 
154 156 155 146 143 140 151 149 146 150 147 144 158 160 160 160 165 165 
158 162 162 144 139 136 148 145 142 144 137 134 133 120 112 134 124 118 
129 117 109 132 120 114 137 125 119 150 148 145 153 149 147 158 160 160 
159 163 163 154 153 150 156 152 152 147 140 137 146 137 133 151 146 144 
151 148 145 152 149 145 152 148 146 152 147 145 151 144 142 150 144 141 
148 145 141 146 140 137 144 137 132 128 112 101 127 109 98 126 108 97 
142 134 129 129 114 104 141 131 124 159 156 157 158 158 157 159 161 162 
154 151 149 152 147 144 151 145 142 151 144 141 149 143 139 137 127 121 
159 164 165 153 154 152 151 149 143 148 146 140 144 141 134 144 142 137 
132 122 113 134 126 117 149 150 146 157 162 160 135 127 124 135 130 126 
138 132 128 151 150 148 148 145 142 128 112 102 142 136 133 155 158 156 
144 136 132 142 132 126 148 143 140 156 159 158 160 166 167 148 146 143 
150 147 145 145 140 137 130 117 108 130 119 112 133 122 114 153 155 154 
150 147 146 152 149 147 159 156 158 157 157 157 156 155 154 155 151 150 
148 141 138 128 112 102 129 114 104 148 143 140 151 148 144 150 146 142 
152 148 145 154 150 149 156 153 152 156 153 153 153 151 150 149 145 142 
147 141 137 152 154 151 134 120 112 134 120 112 159 156 156 156 154 153 
157 157 157 147 139 136 158 158 158 161 167 168 153 151 150 149 144 139 
149 143 139 151 145 140 144 135 129 133 120 112 154 155 154 152 151 148 
154 153 148 153 153 148 146 143 138 137 129 123 130 117 108 132 119 109 
149 147 142 161 166 163 160 166 166 150 149 148 139 131 124 159 163 164 
149 147 145 130 115 106 147 145 141 158 161 161 136 125 116 129 113 104 
134 124 116 144 139 135 159 162 161 158 160 159 154 150 147 148 145 141 
133 130 129 131 129 127 146 146 144 160 166 167 144 139 135 148 143 139 
153 151 149 155 154 153 152 149 148 149 142 140 150 145 143 144 138 133 
134 122 114 151 149 146 159 163 163 154 151 149 149 146 143 152 149 148 
152 149 147 156 152 151 158 155 155 159 157 157 158 155 155 153 150 149 
141 132 127 146 137 133 146 140 137 157 157 157 159 162 162 149 140 136 
149 146 142 153 148 146 147 139 136 147 140 135 157 156 154 156 155 152 
137 125 117 130 113 104 147 141 137 153 150 148 150 147 142 146 142 137 
143 139 134 137 130 123 130 116 105 135 123 115 155 152 150 164 165 165 
156 159 159 147 144 143 139 132 126 136 127 120 138 126 120 142 135 129 
147 146 143 148 146 142 134 123 115 129 115 105 130 116 107 139 129 123 
153 150 146 148 141 135 151 144 138 136 127 119 134 131 129 135 134 133 
149 148 146 150 149 147 130 117 108 142 134 129 151 148 145 149 145 143 
151 147 145 153 153 152 150 144 140 134 121 112 143 135 129 160 161 161 
160 166 166 154 152 149 151 148 146 151 148 146 153 149 147 155 151 149 
150 145 143 159 164 164 159 160 161 151 145 143 145 138 133 149 145 142 
158 162 162 152 149 147 144 133 127 150 149 146 152 151 149 149 143 140 
133 120 111 137 126 117 159 161 158 158 159 154 150 147 144 147 143 141 
151 148 146 152 150 149 149 145 142 147 142 137 147 143 138 143 137 131 
134 124 116 137 127 120 152 148 146 159 156 156 135 124 118 137 127 121 
137 127 121 126 108 97 134 122 115 151 149 146 154 154 152 149 146 142 
147 142 137 146 139 134 145 135 131 146 138 135 146 139 135 131 116 107 
130 115 106 135 126 118 143 137 134 146 143 141 147 142 140 135 124 116 
126 110 99 134 122 114 140 131 126 144 136 132 155 158 156 161 167 168 
160 164 164 149 144 137 142 131 124 161 164 163 160 166 167 157 157 156 
159 162 163 159 161 162 157 154 153 151 146 141 132 117 107 140 131 125 
136 126 119 138 126 119 150 143 138 155 153 149 154 155 153 140 131 124 
133 122 112 157 160 159 156 158 157 154 150 147 140 131 123 153 149 145 
156 154 147 153 151 144 149 145 140 150 149 148 151 152 152 151 151 151 
149 147 144 153 151 149 158 157 155 155 154 151 144 142 137 140 137 131 
142 139 136 144 141 138 130 115 106 131 116 106 148 147 144 130 115 105 
130 116 106 142 136 131 154 154 153 149 144 141 150 149 146 155 153 151 
156 152 152 153 148 148 150 149 147 136 126 119 127 111 101 131 117 107 
146 140 136 158 161 162 148 147 144 138 131 124 137 130 123 136 126 118 
156 158 157 151 148 146 154 152 150 160 166 167 161 166 167 155 152 148 
156 150 146 157 154 150 157 157 154 155 154 151 156 152 152 145 137 132 
132 117 107 148 141 138 144 134 130 134 122 113 150 148 146 160 165 166 
156 154 151 160 156 153 148 143 139 142 132 127 133 122 113 135 123 116 
149 140 135 154 149 146 158 155 152 158 157 153 156 153 147 151 147 141 
146 140 136 151 149 148 152 152 152 143 136 131 131 117 109 149 145 143 
157 154 152 153 152 149 144 146 141 139 138 131 138 134 129 141 138 135 
136 127 119 135 125 118 154 155 154 139 129 126 146 143 140 143 137 133 
152 151 151 155 155 154 153 153 152 147 142 139 160 159 160 157 157 156 
161 166 167 145 142 138 128 113 103 136 126 118 137 127 120 137 127 120 
138 132 128 151 153 153 157 162 162 152 149 147 161 165 165 163 164 165 
159 161 159 159 162 161 160 164 163 157 154 153 151 141 136 150 141 137 
155 151 147 155 151 148 150 140 137 128 112 102 126 108 97 135 122 114 
161 159 158 155 150 147 152 153 151 158 160 160 158 155 156 160 159 159 
148 145 142 138 130 122 143 136 130 143 135 129 144 135 130 148 140 136 
154 151 149 158 157 154 154 151 147 130 113 104 140 131 125 156 158 157 
159 162 162 153 153 151 144 139 136 150 147 146 141 134 128 137 130 123 
137 137 130 139 143 137 149 149 146 152 152 149 129 114 105 131 117 109 
152 153 153 151 152 152 155 157 157 145 142 140 149 144 143 157 157 157 
156 157 157 145 138 135 152 148 146 159 161 162 153 153 152 137 127 121 
144 139 135 158 163 163 149 148 145 135 123 117 128 112 103 147 148 145 
155 156 156 157 156 155 163 165 165 161 167 168 161 166 167 161 161 160 
161 160 158 145 136 131 133 119 109 147 136 132 156 150 148 155 149 147 
147 138 134 130 114 105 127 109 98 138 126 119 143 132 127 141 129 121 
156 152 151 156 153 154 154 149 147 159 163 163 161 166 167 158 161 161 
151 150 147 148 143 140 142 133 127 142 134 128 151 147 145 156 155 154 
155 153 151 141 133 126 153 151 150 161 166 167 161 167 168 158 162 162 
153 153 153 149 147 146 140 131 125 142 136 131 154 157 157 147 149 147 
146 147 144 149 149 146 152 152 150 130 115 106 144 141 136 154 158 158 
161 167 168 155 157 156 130 114 105 148 139 137 158 156 156 136 123 116 
143 133 128 156 152 152 153 147 146 145 136 132 140 131 125 146 141 137 
153 154 152 133 122 113 128 112 103 149 148 146 155 156 154 158 157 154 
153 151 149 156 159 159 160 164 165 160 163 162 161 159 157 152 146 142 
146 135 131 155 148 144 158 152 150 155 149 147 144 135 129 129 113 103 
126 108 97 132 117 108 144 131 125 146 138 133 159 161 161 158 162 162 
155 156 155 161 167 168 161 167 168 158 162 160 156 153 152 149 143 139 
140 130 122 139 130 122 149 143 140 157 157 155 156 158 155 156 157 152 
155 152 149 154 153 152 155 157 156 148 147 145 151 148 146 154 152 150 
156 158 157 153 153 151 161 167 168 159 166 167 144 146 142 131 131 126 
143 139 134 133 121 113 146 140 137 150 149 148 158 162 163 158 161 161 
135 123 116 154 148 146 161 156 156 149 140 137 141 132 127 155 156 156 
155 153 153 141 131 126 133 121 112 130 117 107 143 137 132 130 117 106 
145 142 137 144 137 131 150 146 143 150 144 139 146 139 134 140 128 121 
156 153 152 161 160 160 161 157 154 148 142 138 156 153 149 158 155 153 
157 152 151 152 147 143 136 126 118 126 108 97 126 108 97 131 116 105 
130 114 104 138 125 117 152 145 144 148 141 138 152 150 148 160 166 167 
160 166 167 151 151 150 152 146 143 148 141 138 145 138 133 154 153 151 
155 153 150 155 153 151 155 154 152 153 152 148 150 146 141 148 142 138 
147 143 141 147 143 141 152 149 147 160 164 165 158 161 161 150 146 143 
155 156 155 159 164 164 136 133 130 129 127 122 148 144 141 152 147 146 
150 144 143 154 148 150 153 150 151 158 161 163 156 159 159 157 158 159 
159 156 155 150 141 137 136 126 118 156 158 158 160 166 167 152 152 150 
129 114 105 126 109 99 124 107 96 129 116 105 139 132 124 150 148 145 
157 160 159 143 138 134 146 140 135 151 146 143 156 152 150 159 157 154 
161 156 153 160 156 153 159 157 154 157 155 152 153 148 146 149 144 141 
154 156 155 149 148 145 132 119 109 145 135 129 142 130 123 140 127 121 
145 135 129 141 129 121 149 145 139 161 167 168 161 167 168 151 151 149 
147 140 136 147 140 135 155 153 150 161 166 167 160 163 162 158 154 152 
152 149 149 147 143 142 141 135 131 144 137 133 156 157 158 151 146 146 
137 130 123 156 160 159 160 166 166 147 144 141 147 144 141 153 154 153 
150 150 148 142 136 132 154 152 151 145 139 135 127 111 100 139 126 121 
148 140 141 157 158 159 160 165 165 148 146 143 153 151 148 152 148 146 
145 139 135 142 135 128 147 142 140 142 135 129 127 111 100 126 109 98 
135 126 118 152 153 150 155 158 155 160 166 166 161 167 168 161 167 168 
149 145 141 148 143 140 147 139 134 152 144 140 160 155 153 159 157 154 
158 158 155 155 153 151 152 149 146 152 148 146 155 158 155 153 154 151 
147 140 136 143 132 127 152 144 141 143 132 126 138 126 117 139 126 119 
158 161 161 161 167 168 159 164 164 141 134 130 136 123 116 140 131 123 
148 141 138 163 162 163 162 161 160 159 158 157 152 152 152 140 134 132 
134 125 119 137 128 122 151 146 145 155 152 152 145 143 140 139 134 130 
138 128 122 132 119 112 139 132 125 143 138 134 150 145 141 153 148 145 
149 146 143 139 129 123 127 110 100 127 110 99 145 137 135 155 151 152 
145 137 133 134 121 112 153 152 151 156 158 157 158 156 154 157 153 151 
156 153 151 151 146 143 133 121 112 129 115 105 145 141 136 160 165 165 
157 157 157 161 167 168 161 167 168 160 163 163 140 135 130 142 138 136 
150 147 146 155 153 151 156 151 150 158 157 156 158 159 158 151 148 144 
153 149 147 157 153 152 161 158 157 159 161 160 149 144 139 148 145 142 
155 154 152 143 134 129 132 117 107 127 110 99 138 128 121 151 151 148 
138 129 122 131 118 110 130 115 106 127 109 99 135 121 115 159 157 156 
160 156 155 153 151 149 139 133 128 129 115 106 128 112 103 130 117 109 
144 137 132 150 147 145 150 147 146 142 135 129 128 112 103 128 114 104 
130 117 109 137 127 120 152 150 147 162 161 160 144 137 134 132 119 111 
144 139 135 152 152 149 153 151 151 150 146 145 152 149 145 136 123 116 
149 146 145 157 157 158 161 161 161 162 161 160 160 156 155 151 144 141 
147 144 140 151 151 149 153 155 153 146 140 135 148 140 137 161 165 166 
159 162 162 161 165 165 154 153 153 148 145 145 149 147 146 152 148 147 
154 150 149 157 152 151 150 146 143 132 118 109 131 116 107 155 148 146 
160 155 153 159 155 153 156 155 155 161 167 168 160 166 167 147 141 135 
129 115 104 127 109 98 127 109 99 126 109 98 124 107 96 129 114 104 
130 113 104 126 108 97 141 129 124 160 162 162 155 154 152 150 147 144 
142 137 132 127 111 100 127 112 101 132 121 112 141 135 130 148 144 140 
149 145 144 147 140 138 137 128 121 133 121 111 131 119 110 139 130 123 
157 156 154 165 166 166 149 147 145 136 127 119 159 164 165 161 167 168 
155 158 156 142 133 129 153 148 146 153 148 146 159 158 158 160 159 160 
158 157 156 153 150 147 156 151 151 147 139 137 142 135 131 159 164 164 
157 161 160 136 127 119 142 135 129 161 167 168 161 167 167 160 166 167 
161 166 167 158 160 161 154 151 150 153 148 146 156 153 149 151 150 146 
149 146 143 138 128 121 137 125 117 147 137 132 152 146 143 157 153 151 
157 152 151 158 161 161 157 162 162 145 140 135 130 113 102 126 110 99 
148 146 143 149 147 145 127 113 104 136 124 117 139 130 122 131 116 106 
148 145 140 160 164 165 158 161 161 150 144 143 154 148 146 147 141 139 
139 135 132 139 137 132 142 138 133 137 127 119 144 137 133 142 136 130 
139 132 125 142 136 130 147 144 140 154 153 151 159 160 158 161 163 161 
154 155 155 149 147 145 161 167 168 161 167 168 149 148 145 144 135 131 
154 151 150 158 158 158 155 153 152 155 152 152 156 154 152 154 151 149 
158 156 156 150 144 143 134 122 114 132 123 115 133 122 114 149 145 140 
152 154 151 160 166 167 160 166 167 160 165 166 161 167 168 160 164 164 
155 151 149 154 148 145 152 148 146 150 146 143 150 147 144 147 141 137 
139 130 122 128 112 102 144 137 132 155 151 150 160 155 154 153 144 142 
135 121 115 133 122 114 136 125 117 133 120 110 134 123 115 136 125 117 
145 141 136 142 132 128 148 143 138 152 151 148 160 166 167 159 163 163 
153 154 153 149 144 140 162 159 160 157 155 154 147 148 146 141 136 130 
134 124 116 141 132 127 142 135 131 141 135 130 152 154 151 155 158 157 
152 151 150 156 157 156 157 160 158 159 163 161 148 145 142 143 136 131 
159 166 166 146 141 137 139 131 125 160 163 164 158 160 161 154 155 155 
146 143 140 150 147 145 157 153 152 163 162 162 167 169 170 161 161 161 
143 136 130 139 129 122 149 145 140 161 167 168 161 167 167 159 162 162 
151 144 141 142 133 128 157 159 158 156 157 155 155 147 145 157 155 155 
148 142 139 149 144 141 145 138 133 148 140 136 135 122 115 135 122 115 
145 139 135 153 148 146 159 155 154 151 145 142 131 117 109 128 112 102 
132 119 109 127 111 100 129 113 104 132 119 108 147 143 140 142 136 131 
151 154 153 146 145 143 159 163 164 157 157 155 155 156 156 147 144 141 
160 163 161 157 157 154 153 148 145 150 144 140 132 118 110 127 109 99 
136 126 120 144 140 137 154 155 154 155 155 154 145 142 140 144 141 140 
153 156 154 158 163 162 153 155 157 153 155 155 161 167 168 155 156 155 
156 156 157 163 167 170 157 161 163 149 148 147 139 132 126 153 154 152 
154 152 150 161 159 158 170 174 176 167 171 172 153 148 145 146 137 132 
142 132 127 161 165 166 161 165 165 161 166 167 148 143 139 135 121 112 
150 146 142 152 148 142 150 139 136 151 144 143 156 159 158 151 147 146 
149 145 140 150 144 139 140 131 125 142 133 128 145 138 134 150 144 141 
155 150 148 155 152 150 141 134 129 127 111 101 133 121 112 131 117 109 
127 113 102 151 152 150 158 162 162 151 149 147 160 166 167 149 149 147 
152 149 148 153 149 147 146 140 136 147 143 139 159 161 158 162 165 163 
153 150 146 151 145 141 150 144 140 142 133 128 143 136 133 150 150 149 
159 161 161 158 158 158 144 139 137 141 136 134 149 149 147 152 155 153 
147 150 150 160 166 167 161 167 168 161 165 167 162 166 169 162 167 170 
157 157 158 145 138 134 138 128 121 160 165 165 154 155 154 150 144 140 
167 170 171 168 169 171 160 158 157 146 139 134 137 127 120 159 161 161 
166 166 166 165 166 167 150 144 140 155 150 148 164 164 163 157 155 153 
140 129 124 146 142 139 159 162 162 156 153 151 152 149 147 148 142 139 
143 133 128 141 131 125 142 135 128 145 140 135 149 145 144 147 140 138 
151 146 143 145 136 131 131 116 107 127 111 100 126 108 97 137 128 121 
139 133 126 152 153 151 160 166 167 161 161 162 158 156 157 155 152 152 
153 149 146 154 150 146 155 153 150 156 154 152 155 153 151 154 152 150 
150 149 144 141 134 128 151 152 149 160 166 166 151 150 148 143 135 129 
150 145 143 146 141 140 147 144 142 147 146 143 144 146 146 152 154 155 
159 163 164 160 161 162 159 161 163 160 163 165 160 161 161 145 139 134 
135 123 114 142 136 131 141 133 126 148 143 139 164 164 166 169 170 173 
164 164 164 160 158 157 159 157 154 161 158 157 169 168 169 166 166 166 
154 152 148 156 154 152 165 166 166 159 156 155 135 126 119 135 124 118 
158 159 159 160 156 156 152 149 146 142 133 128 135 123 115 141 133 127 
140 131 124 140 131 126 146 141 141 153 151 152 159 161 161 151 146 143 
138 128 122 128 112 102 130 117 108 131 119 109 139 131 122 151 147 142 
154 149 147 152 146 143 160 157 159 157 154 155 157 153 151 156 152 149 
153 148 143 153 149 147 156 158 157 158 162 162 154 153 151 156 159 157 
152 154 149 153 154 151 132 117 108 127 109 98 143 132 128 151 146 145 
148 145 143 147 145 143 153 151 152 154 153 154 157 159 159 158 160 159 
156 155 154 158 157 156 165 165 166 162 161 161 150 149 147 146 143 138 
154 153 148 157 157 154 159 156 156 160 157 159 160 161 160 159 161 159 
160 163 163 155 152 149 156 152 150 159 156 155 153 149 147 155 151 149 
160 159 159 155 152 151 139 129 122 138 127 120 155 150 148 159 153 153 
156 152 150 150 145 141 142 134 129 144 136 132 140 132 126 133 121 114 
144 140 138 153 153 153 160 161 161 158 154 152 150 146 142 142 133 127 
152 154 151 146 142 138 155 150 145 165 163 162 155 154 151 130 117 107 
146 137 133 159 156 156 155 151 148 153 148 144 154 148 146 153 149 148 
158 162 162 160 164 165 158 158 157 159 160 159 157 157 156 151 151 149 
134 123 116 130 116 106 145 139 134 157 157 156 154 153 153 154 153 153 
159 156 158 159 158 159 159 161 161 159 160 159 155 153 151 158 156 154 
164 165 166 164 166 168 156 157 157 158 161 160 152 150 146 152 149 145 
156 152 152 156 153 154 158 157 156 155 155 152 153 150 146 153 148 143 
157 157 155 156 152 151 152 148 146 158 161 161 160 166 166 155 153 150 
143 136 129 140 130 122 152 143 140 158 152 150 157 153 151 156 152 150 
152 149 145 145 138 134 137 130 124 135 124 117 147 144 142 156 157 158 
161 160 161 160 157 156 154 152 149 146 140 135 141 136 130 140 129 123 
152 144 139 159 155 153 153 150 148 128 113 105 131 117 107 158 153 153 
155 151 148 150 145 142 148 140 138 148 142 140 158 161 161 156 156 155 
158 157 157 159 158 159 154 153 153 150 149 148 153 155 153 148 146 143 
140 129 122 161 161 161 155 154 154 157 157 159 162 164 164 162 164 164 
162 164 164 160 162 161 158 157 156 157 158 157 161 165 166 161 165 167 
161 163 163 157 157 156 142 134 125 142 134 125 155 152 150 150 145 143 
150 144 141 131 117 108 132 119 109 146 142 137 161 166 167 159 158 158 
152 148 148 160 166 166 158 161 161 152 150 148 150 149 147 141 131 125 
150 144 140 155 151 149 157 152 150 157 152 150 156 151 149 151 147 143 
144 138 135 146 140 138 156 156 155 161 166 167 162 165 166 158 155 156 
151 147 144 142 134 129 130 117 107 129 113 104 137 124 117 146 139 134 
150 145 141 131 117 107 144 135 130 159 157 155 146 139 134 148 143 140 
136 125 117 139 129 122 157 157 155 161 162 161 157 154 156 151 148 149 
145 141 139 148 145 142 154 152 151 153 148 147 153 150 149 158 157 157 
159 158 158 159 159 159 159 163 163 160 162 163 160 161 161 161 161 161 
159 160 160 159 161 161 159 162 163 159 162 162 161 161 161 159 160 161 
144 136 132 143 136 130 156 152 150 156 155 153 157 158 157 132 118 108 
127 109 98 137 128 121 156 158 157 154 149 147 145 139 136 145 140 139 
150 146 143 152 148 144 149 141 137 149 141 137 151 146 143 153 149 146 
155 150 148 156 151 149 155 150 148 153 150 147 152 149 146 153 151 150 
159 158 158 162 164 164 161 161 161 159 155 156 155 151 150 144 136 130 
128 114 104 126 110 99 135 121 114 145 136 131 152 149 145 158 157 156 
159 157 156 159 156 154 158 154 153 151 144 141 134 121 112 134 121 112 
151 145 140 157 154 152 153 148 149 148 144 144 140 134 131 146 143 141 
159 159 159 153 148 147 160 160 160 157 157 157 160 161 161 161 162 162 
151 155 157 152 155 157 155 156 156 152 148 146 149 144 142 161 161 162 
160 161 161 158 157 155 159 157 155 159 161 161 160 165 166 158 162 162 
157 156 155 159 158 156 157 155 151 128 114 103 127 111 100 126 109 98 
132 120 110 143 135 129 141 133 130 144 137 134 152 146 143 158 153 150 
164 159 158 162 158 157 155 151 149 145 136 131 146 137 132 149 142 140 
134 122 113 151 146 144 156 152 150 158 156 154 159 157 155 161 158 157 
162 159 158 162 158 158 160 159 158 149 144 139 130 117 108 130 115 105 
148 138 134 157 151 149 158 154 153 158 154 153 156 152 150 156 152 149 
157 152 149 156 155 153 144 136 131 140 131 124 134 123 115 140 130 122 
147 140 135 149 145 143 147 143 142 155 157 157 158 161 163 162 164 165 
160 163 162 151 149 144 162 165 166 162 167 169 150 152 155 150 153 154 
152 152 151 128 112 102 130 115 106 159 159 159 160 159 157 158 156 154 
159 158 157 157 157 156 157 160 161 156 158 159 154 153 152 158 156 154 
160 159 157 148 142 137 131 118 109 129 114 104 129 113 104 136 127 120 
139 132 125 145 139 136 156 150 147 158 151 147 167 163 162 164 161 160 
157 152 151 152 147 145 152 148 146 152 146 144 148 141 138 151 146 144 
156 151 149 142 131 124 139 127 120 158 153 150 163 158 157 161 161 161 
152 150 147 136 124 117 128 114 104 132 117 108 151 143 138 158 151 150 
153 148 146 151 145 143 155 148 145 155 151 148 156 153 149 154 149 146 
147 140 133 155 156 156 157 162 162 133 122 114 144 137 131 151 147 144 
158 163 163 161 167 168 159 162 163 160 162 163 160 163 162 160 165 163 
162 167 168 163 168 170 158 163 166 157 161 163 154 154 153 144 137 132 
144 138 133 159 157 156 149 143 140 158 156 155 160 162 163 158 161 161 
152 151 149 146 139 134 153 149 146 157 154 153 156 153 151 155 152 149 
151 144 140 142 131 125 133 122 113 132 122 111 140 129 123 135 121 114 
133 117 108 137 124 115 158 152 150 155 151 148 155 152 150 156 152 151 
155 153 151 155 149 147 150 141 138 153 144 142 152 146 146 135 122 115 
131 115 105 147 136 130 164 159 158 156 153 151 158 162 162 143 137 132 
125 108 97 130 115 105 146 135 130 147 138 133 135 122 116 130 117 108 
151 144 140 149 143 138 155 152 148 159 158 156 155 147 145 152 149 147 
147 143 140 134 123 116 143 138 133 148 146 143 156 159 159 157 159 160 
155 156 158 157 159 161 154 157 155 154 153 151 158 158 157 163 165 166 
160 164 166 159 161 163 154 155 156 153 153 152 147 141 137 139 130 123 
148 141 135 150 146 143 156 157 157 160 165 166 156 158 157 142 133 126 
152 147 143 156 154 152 155 152 150 153 149 148 156 152 149 143 136 129 
141 133 126 136 127 119 137 126 117 127 111 100 126 108 97 141 129 123 
153 147 145 151 147 144 154 151 149 156 154 152 159 156 154 154 148 145 
138 125 118 145 133 130 152 147 147 155 149 149 162 155 153 165 158 156 
163 159 157 154 150 147 160 166 167 161 167 168 132 119 112 132 117 108 
140 128 121 146 138 133 141 132 126 148 143 139 158 156 155 165 164 163 
164 165 164 162 163 162 158 152 150 151 140 137 143 133 127 141 134 128 
146 144 140 148 147 144 148 146 142 150 148 146 156 159 160 158 159 160 
156 159 158 142 133 127 146 137 134 163 164 166 157 157 158 155 156 158 
152 154 158 150 152 154 136 126 119 126 108 97 127 110 100 132 119 111 
145 140 135 150 149 146 141 133 127 140 129 122 150 145 141 157 154 152 
159 156 155 156 152 150 148 141 136 145 139 133 148 144 140 140 131 124 
131 116 106 127 110 99 127 109 98 126 110 99 146 135 131 154 149 147 
153 150 148 156 152 151 162 154 153 157 147 145 139 131 125 136 129 123 
148 140 137 158 153 152 173 169 170 172 167 166 160 157 155 140 131 124 
148 145 142 153 154 153 133 122 113 135 122 114 153 149 146 161 159 157 
156 154 152 160 166 167 161 167 167 166 168 169 168 168 168 163 160 160 
155 147 145 152 143 139 152 147 144 153 150 147 153 152 151 151 149 148 
147 144 142 152 152 151 159 162 162 163 167 167 165 169 170 163 165 166 
157 157 158 162 164 168 150 146 144 151 149 148 154 156 159 153 156 159 
147 144 141 131 117 107 128 112 102 131 118 109 144 136 131 146 140 136 
142 133 128 142 133 127 147 140 135 148 143 138 151 145 142 148 140 136 
140 131 122 140 131 124 149 145 140 149 144 139 135 124 115 126 110 99 
126 108 97 130 113 104 138 125 117 151 143 141 154 150 148 156 152 150 
159 150 148 153 143 139 139 132 126 133 127 120 140 131 125 150 142 139 
163 157 156 161 155 153 160 156 154 150 146 142 144 135 129 139 127 120 
135 122 114 140 131 123 154 151 148 161 160 158 161 156 155 162 160 160 
164 165 165 168 168 168 167 167 168 163 160 160 155 147 145 152 145 141 
155 152 149 154 154 151 151 151 150 136 127 121 133 120 111 148 145 142 
157 162 161 161 166 166 161 167 168 162 167 169 161 165 169 161 165 169 
139 130 123 133 121 112 153 153 152 161 166 168 152 151 151 145 139 135 
150 145 141 151 144 139 145 137 132 146 139 134 151 146 143 148 142 137 
142 132 127 137 125 117 134 120 111 132 118 110 134 120 111 137 125 117 
142 133 127 142 135 128 127 111 100 126 108 97 127 109 99 139 126 120 
126 108 97 144 135 128 156 152 150 158 152 150 159 154 153 155 150 148 
146 140 135 138 129 123 131 118 110 131 117 109 136 122 116 150 141 138 
161 157 154 160 157 153 153 146 143 149 140 137 150 141 137 148 140 135 
146 139 134 148 142 137 154 149 147 145 135 130 157 154 152 163 163 162 
164 163 163 161 160 159 152 148 144 136 123 116 146 140 133 147 145 140 
141 142 138 138 133 129 153 153 150 158 162 161 156 161 161 155 159 160 
160 166 167 157 162 164 159 163 166 160 165 169 137 125 118 145 139 134 
160 161 161 164 168 169 159 161 162 158 158 159 159 158 158 150 145 142 
129 114 104 131 116 106 151 144 140 149 143 140 137 125 118 128 112 103 
124 107 95 126 109 97 133 119 110 137 127 119 141 129 124 134 122 114 
130 115 105 128 111 101 134 122 114 149 145 142 147 142 138 155 151 148 
157 152 150 157 152 151 158 154 153 156 153 151 153 148 144 145 138 133 
132 119 111 126 110 100 126 108 98 127 111 100 155 148 142 160 155 152 
144 132 127 134 119 111 154 147 144 153 147 143 140 129 122 139 127 121 
151 146 143 151 144 141 157 154 153 162 161 160 164 165 164 161 161 159 
143 134 129 127 109 98 138 128 121 144 142 137 140 138 134 144 143 141 
157 160 159 161 165 165 153 154 153 142 138 134 152 153 153 152 155 156 
157 162 163 160 165 166 156 156 155 158 159 158 160 162 162 157 157 158 
157 156 156 157 155 155 157 157 157 150 148 145 137 125 118 131 116 107 
142 133 127 142 134 130 131 118 111 126 109 98 123 105 94 127 112 101 
138 127 120 144 135 129 145 136 131 149 144 138 155 152 149 148 141 137 
147 144 141 139 128 122 154 148 146 156 153 152 153 147 146 132 118 110 
151 146 142 157 152 150 142 134 128 154 149 147 145 135 130 135 121 114 
129 112 103 131 116 106 146 136 132 150 141 137 139 126 119 135 121 113 
153 144 140 156 150 146 140 129 123 138 127 120 150 145 142 158 156 155 
162 160 160 164 164 164 166 169 169 164 165 164 145 137 132 133 120 112 
144 137 133 147 144 141 154 153 152 156 156 156 150 147 145 152 151 150 
141 131 126 129 113 103 153 153 152 157 158 158 158 162 159 160 162 161 
162 165 166 162 164 165 160 161 161 158 157 156 157 154 152 156 153 152 
156 156 156 151 149 146 140 131 126 139 128 122 145 139 135 143 136 131 
132 119 111 126 109 98 127 109 98 134 121 112 146 140 134 146 137 132 
146 139 135 150 144 139 150 144 139 149 144 139 140 131 126 127 109 98 
138 126 119 155 150 148 143 133 128 128 112 102 149 143 139 155 151 149 
161 159 159 161 159 159 156 151 149 147 139 133 134 122 113 130 116 106 
138 126 119 139 127 121 133 119 109 131 116 106 155 148 144 159 154 151 
145 138 132 143 136 129 152 146 143 159 156 155 154 151 147 150 144 139 
166 167 166 163 164 163 144 135 130 139 129 123 146 143 139 141 134 129 
130 115 105 153 148 146 149 144 142 149 146 144 161 163 163 161 162 162 
161 165 167 160 163 163 161 164 163 162 164 162 158 157 156 158 157 155 
159 158 156 158 157 155 157 155 153 155 153 151 155 153 152 155 153 152 
152 149 147 138 126 120 147 140 138 147 141 138 136 127 119 128 114 103 
133 120 111 144 136 131 153 148 145 129 114 104 137 124 118 151 144 141 
156 152 150 156 152 150 132 118 110 130 115 105 146 140 135 148 142 138 
129 113 103 126 108 97 141 131 125 146 139 134 155 148 146 161 156 155 
166 165 167 162 160 161 147 142 137 132 119 111 132 117 108 129 112 103 
129 113 103 127 109 99 152 143 140 163 160 159 155 152 149 143 132 126 
131 116 107 160 156 155 152 149 145 150 149 146 159 156 156 160 158 157 
154 153 150 154 155 153 160 166 167 149 148 145 159 160 159 162 165 165 
153 153 152 149 149 147 154 156 153 157 162 160 161 166 167 163 170 171 
164 169 170 165 169 169 151 144 141 150 144 139 152 147 143 152 148 144 
154 151 149 155 153 151 155 153 151 157 155 154 146 139 135 127 109 98 
128 112 102 129 113 104 134 121 112 131 117 107 136 125 117 145 139 134 
159 158 156 144 135 129 151 144 140 157 151 149 157 152 150 154 148 145 
138 127 121 146 137 133 152 149 146 146 139 134 129 114 104 128 112 102 
138 126 120 145 136 132 153 146 142 160 156 154 166 166 168 165 165 167 
156 153 152 144 138 133 132 117 108 127 111 100 132 118 110 142 131 126 
160 155 155 165 163 163 159 157 153 149 145 138 143 134 129 148 141 137 
144 139 135 146 143 140 150 146 144 152 146 143 150 147 143 150 151 148 
154 156 154 153 153 150 162 165 164 158 159 158 150 149 146 149 149 147 
152 154 150 157 160 159 163 170 171 166 174 176 166 171 173 165 169 170 
145 136 133 143 133 127 137 126 118 139 128 121 149 145 140 154 153 151 
154 151 149 146 137 133 148 140 136 137 125 117 149 144 139 139 131 124 
130 116 107 124 107 96 130 116 106 140 131 125 155 153 151 160 158 159 
151 144 141 130 113 104 150 143 138 144 134 127 131 116 106 137 126 119 
140 131 124 144 135 130 130 116 106 126 110 100 133 121 112 143 133 128 
155 151 148 159 158 157 156 153 152 155 153 152 158 155 151 151 145 141 
136 127 119 133 122 114 141 131 125 150 145 141 163 160 160 165 162 162 
155 153 146 139 128 120 138 129 121 127 111 100 132 119 111 146 142 140 
148 141 136 142 133 128 136 127 122 141 137 132 157 158 157 165 169 169 
151 146 144 130 115 105 131 118 110 146 144 140 156 157 156 163 170 171 
168 177 180 168 177 181 163 169 172 161 165 168 135 122 115 138 128 122 
131 117 107 130 117 108 144 136 132 151 148 146 153 150 148 149 143 139 
136 124 117 131 117 109 157 156 155 151 149 147 136 125 117 128 112 103 
128 113 103 135 123 116 145 136 132 159 159 159 161 159 157 151 144 139 
152 146 143 148 139 134 144 135 130 140 130 124 131 117 107 143 133 127 
129 115 105 126 109 98 132 117 108 142 134 128 155 153 150 158 157 156 
151 146 144 151 147 144 156 151 148 150 145 141 140 134 129 140 132 127 
150 145 140 156 152 149 155 149 146 147 137 132 156 152 145 143 136 127 
132 123 115 129 116 107 139 129 123 150 147 144 146 140 134 140 131 125 
136 127 123 142 137 135 162 164 164 170 173 176 140 128 123 129 114 104 
141 135 130 142 136 130 154 153 153 165 170 172 164 171 172 163 170 171 
163 168 169 163 167 168 126 108 97 139 131 123 132 120 111 128 113 105 
132 117 108 144 135 132 154 149 148 156 153 152 139 130 122 140 129 123 
156 155 154 149 143 140 146 138 135 142 131 127 130 117 107 133 120 110 
134 122 114 147 140 135 169 171 171 160 157 155 152 146 144 147 139 136 
146 138 135 145 138 133 150 144 141 145 136 131 129 114 104 127 109 98 
137 125 116 146 138 133 151 145 142 158 162 162 153 148 146 151 146 144 
152 148 145 139 129 123 140 136 130 147 144 141 157 155 153 136 123 115 
145 133 127 157 151 147 153 149 144 142 132 126 133 127 119 146 146 143 
153 152 147 155 152 149 139 130 125 145 139 138 147 143 142 152 151 150 
162 162 164 156 152 151 155 152 151 159 159 160 149 147 146 149 148 147 
161 165 167 160 163 163 150 149 146 152 150 147 164 166 166 169 174 175 
145 139 134 149 146 143 138 129 123 131 117 109 131 116 107 142 134 128 
148 141 138 153 148 147 140 131 124 151 147 144 158 156 156 159 158 159 
159 156 155 147 141 139 134 121 113 133 122 113 146 140 134 158 157 155 
170 172 173 166 165 165 154 150 147 147 140 134 144 135 130 137 126 119 
143 135 129 139 128 122 128 114 106 126 108 97 135 122 115 143 134 129 
145 138 133 154 155 154 150 145 143 150 144 141 146 140 135 143 137 132 
144 140 137 151 149 146 147 140 134 134 120 111 154 147 142 134 120 111 
132 117 108 127 109 98 130 115 105 146 145 140 153 153 150 155 154 151 
147 142 141 146 141 141 151 149 148 157 156 156 160 161 162 147 140 135 
131 116 106 143 136 130 149 149 148 150 151 150 160 166 167 158 160 159 
141 133 127 141 134 127 160 160 159 169 173 174 154 151 148 143 135 129 
146 142 140 147 143 141 152 149 146 152 148 146 149 142 138 145 137 132 
148 143 140 152 149 146 157 156 155 160 159 159 147 142 137 129 114 104 
129 114 105 137 127 120 151 144 141 147 140 135 152 148 145 167 167 168 
158 154 150 149 141 134 133 119 110 129 115 105 129 113 104 128 112 103 
125 108 96 128 112 101 139 127 121 140 131 123 134 121 112 144 137 132 
149 146 143 148 142 138 139 128 123 138 127 122 146 140 136 153 149 147 
133 120 111 132 117 108 146 137 131 126 109 98 126 108 97 127 111 100 
135 123 116 156 158 157 155 157 157 143 139 138 140 135 131 143 137 134 
150 147 146 155 154 154 159 159 159 157 156 153 141 134 128 147 144 139 
152 153 151 153 155 154 145 141 136 150 150 148 133 121 112 131 117 108 
146 139 136 162 164 167 155 150 147 151 147 143 153 152 152 154 153 154 
150 146 145 147 142 138 146 140 135 144 138 133 144 137 133 147 142 138 
155 153 149 159 158 156 134 121 112 128 112 101 141 132 126 139 128 122 
146 139 135 146 139 134 157 153 153 163 163 163 157 152 148 150 144 137 
129 114 104 128 112 103 125 110 99 124 107 97 126 108 97 131 117 107 
140 131 124 142 133 127 134 122 114 136 126 118 147 142 138 148 143 139 
137 128 123 138 128 123 155 153 151 160 166 167 155 158 156 145 136 130 
139 128 122 126 109 98 126 110 99 130 116 107 150 144 138 157 160 158 
149 149 148 139 132 131 137 129 125 142 136 131 154 153 152 159 160 160 
159 159 158 158 157 153 154 152 149 152 151 148 150 149 146 140 134 128 
135 124 117 149 148 146 132 119 112 131 117 110 148 144 143 156 157 159 
155 149 147 148 142 138 148 147 146 148 150 148 131 117 109 151 149 148 
139 131 124 143 135 130 137 126 119 141 129 123 151 146 142 156 154 151 
152 151 147 154 153 151 156 155 153 150 146 142 143 133 126 138 127 121 
153 149 148 150 145 142 155 153 150 160 165 165 142 135 128 132 120 111 
129 117 107 128 115 105 130 115 105 134 122 114 143 136 131 146 141 138 
145 139 136 148 143 139 149 143 139 150 147 144 142 138 135 144 139 136 
159 160 160 161 167 168 160 166 166 157 155 152 152 146 142 127 109 98 
131 119 112 135 129 126 142 139 133 146 143 138 153 154 153 144 136 133 
138 127 124 144 138 135 163 165 166 168 172 173 161 162 162 157 157 154 
155 154 154 154 153 153 148 144 141 128 112 102 129 113 104 147 142 139 
138 130 125 135 126 120 144 142 142 148 150 152 148 143 139 127 111 100 
128 113 105 132 120 112 126 110 99 153 153 154 151 149 149 147 142 138 
140 130 123 142 131 126 152 147 144 155 151 149 148 141 138 160 160 160 
161 161 160 142 133 127 130 115 105 137 125 118 148 140 137 153 148 146 
159 158 158 160 166 167 159 163 164 138 130 122 134 125 117 135 126 118 
139 128 121 143 133 127 147 140 137 146 139 136 142 133 130 144 138 134 
137 125 117 148 142 138 139 130 126 146 140 137 156 155 154 161 167 168 
159 160 158 154 150 147 129 114 104 126 108 97 128 114 104 139 136 134 
141 137 133 143 139 134 145 140 136 145 137 134 139 130 127 148 143 142 
168 173 175 165 170 172 161 167 168 159 162 162 152 151 151 150 149 150 
153 152 152 144 138 135 133 120 111 146 142 140 140 134 130 137 131 127 
142 141 141 144 146 147 144 141 139 144 140 138 138 130 124 136 125 119 
136 125 119 157 160 162 158 161 163 156 156 155 151 149 146 151 149 146 
157 156 156 161 161 163 166 166 168 165 164 166 160 157 156 151 146 142 
144 138 133 142 132 125 135 122 114 150 145 141 154 151 148 156 157 156 
150 146 143 143 133 127 141 135 130 144 138 134 151 146 140 154 146 143 
153 143 141 147 139 137 140 133 130 133 121 113 126 109 98 145 133 127 
152 148 147 160 165 166 160 164 165 161 167 168 158 161 161 143 138 133 
151 152 150 128 112 103 135 125 119 142 139 135 144 141 136 146 142 139 
144 139 136 144 140 136 144 141 137 153 153 152 172 175 177 163 170 171 
161 167 168 159 163 163 141 140 138 139 138 136 151 154 154 156 159 159 
152 152 151 146 145 143 138 133 130 136 132 128 141 139 139 143 143 144 
134 124 118 152 156 158 165 171 176 164 171 174 161 167 172 160 166 171 
163 168 170 162 165 165 158 160 159 156 157 157 156 157 158 160 160 162 
165 165 167 165 164 165 160 157 156 146 139 134 150 144 140 151 150 148 
131 118 109 130 115 105 144 136 130 147 142 138 146 138 134 148 142 139 
153 153 152 154 154 152 158 155 152 159 152 150 155 144 142 146 133 130 
135 125 119 137 131 124 143 132 124 155 147 143 155 150 148 160 166 166 
161 167 168 161 167 168 156 156 154 149 145 142 152 154 154 136 132 131 
140 136 133 144 139 135 147 142 139 148 143 140 144 140 136 131 118 110 
145 143 140 154 155 154 168 170 172 164 169 170 161 167 168 154 155 155 
140 138 136 139 137 134 149 151 150 151 152 152 143 140 136 141 136 131 
143 141 139 143 142 141 142 141 140 141 141 140 150 154 154 157 162 164 
166 173 178 168 174 180 160 167 173 159 166 173 165 173 177 165 171 173 
158 162 162 153 156 155 150 151 151 147 145 144 156 155 155 160 159 159 
162 161 159 162 162 162 163 165 169 139 130 125 129 114 105 126 108 97 
129 114 104 133 122 113 148 142 138 155 153 151 159 162 162 159 162 162 
156 153 149 155 148 145 152 142 139 148 135 131 140 131 124 143 138 131 
152 148 142 155 151 148 154 150 147 159 163 163 160 164 164 160 166 166 
152 144 140 142 130 126 141 137 136 137 137 136 139 135 133 142 138 135 
149 145 142 153 148 145 151 146 142 136 126 118 137 127 120 152 149 148 
159 162 163 161 167 168 161 167 168 155 157 159 157 160 161 155 157 157 
144 142 141 139 133 131 130 117 109 135 124 118 156 155 155 159 163 164 
146 148 145 140 141 137 156 159 160 158 162 164 164 169 173 165 169 174 
160 164 170 159 164 169 161 164 166 160 163 164 161 167 168 157 162 163 
150 151 150 139 132 127 136 126 118 152 149 146 154 152 149 159 158 157 
166 169 173 157 155 156 152 145 144 138 127 121 137 124 118 135 123 116 
146 139 134 150 146 143 149 145 142 153 153 151 152 147 145 146 136 131 
152 143 140 148 137 133 137 125 116 147 143 139 146 140 134 151 147 143 
153 148 144 155 152 150 151 149 144 154 153 148 158 158 157 159 162 163 
143 141 136 134 128 123 137 132 128 140 134 130 147 141 137 150 145 141 
150 146 143 134 121 113 138 130 124 150 147 145 160 166 166 161 167 168 
160 166 167 152 152 153 158 161 162 156 157 158 144 141 141 137 131 129 
131 119 112 139 130 123 160 161 163 164 169 172 150 152 150 143 143 140 
156 156 157 157 157 158 159 158 161 160 161 164 159 161 163 159 160 161 
157 155 154 160 160 160 167 173 178 167 174 178 161 164 167 154 153 153 
142 134 128 144 135 130 139 128 123 141 131 126 154 151 151 163 165 167 
143 133 128 148 142 138 151 146 143 147 140 136 139 128 120 137 126 118 
142 135 131 142 135 129 148 144 140 151 144 142 154 148 146 150 145 143 
139 131 124 128 112 102 131 119 111 148 146 143 150 143 138 146 138 132 
140 129 122 139 130 125 153 154 153 158 164 164 140 134 129 127 111 101 
135 125 118 136 127 120 138 129 123 141 133 130 145 140 140 144 138 137 
134 122 115 143 139 135 151 154 151 157 162 162 157 159 161 156 156 159 
160 161 164 158 159 161 150 149 150 146 144 144 148 146 144 152 151 150 
157 160 163 157 161 164 152 153 154 151 150 149 157 155 156 157 155 156 
156 154 155 157 155 156 157 157 156 157 156 155 153 148 144 154 150 148 
161 163 164 164 169 172 162 165 168 152 149 146 150 144 140 144 136 131 
137 126 121 131 117 107 139 127 121 161 161 161 139 129 123 136 123 115 
156 152 149 155 151 149 141 129 121 135 121 112 137 127 121 140 134 128 
132 117 109 135 122 115 155 148 145 150 146 144 140 132 128 133 122 114 
144 139 134 160 166 167 153 148 144 146 136 130 138 126 118 135 125 118 
137 132 126 145 145 142 136 126 120 131 117 108 140 131 125 139 131 124 
138 130 125 138 132 128 143 139 139 145 140 139 140 135 130 139 132 127 
140 133 129 146 142 141 154 151 153 159 161 165 161 164 166 158 160 162 
150 149 150 147 146 146 152 153 153 154 156 157 153 157 159 153 156 158 
153 153 155 154 153 155 157 155 156 157 155 155 158 156 155 158 156 155 
158 157 156 155 152 151 148 140 136 143 135 128 142 134 130 149 144 142 
161 161 162 133 119 112 143 133 128 154 148 147 150 146 145 150 145 144 
135 121 113 152 148 145 134 121 112 126 108 97 137 124 117 158 154 153 
151 140 138 143 129 124 136 122 116 137 126 116 143 134 123 149 142 133 
153 144 137 144 133 126 137 127 119 137 127 119 148 138 133 155 151 148 
156 152 150 154 151 149 147 142 137 143 138 132 138 134 129 137 129 125 
143 136 132 147 140 136 150 145 142 149 145 142 147 145 142 144 141 137 
146 140 138 153 152 152 150 150 148 139 132 126 142 136 132 146 141 140 
153 148 150 156 154 156 156 156 156 153 152 151 145 141 139 141 137 135 
140 140 139 144 145 144 150 151 151 153 153 154 152 153 154 151 152 153 
148 143 141 150 146 144 154 153 151 157 156 154 158 157 156 156 153 152 
151 146 143 146 139 135 141 134 130 148 143 142 165 167 171 169 171 174 
159 157 159 157 155 155 157 156 156 157 156 156 139 127 121 154 148 147 
143 132 127 131 116 106 136 123 116 159 153 153 156 147 146 149 137 133 
140 126 118 140 128 118 148 139 128 152 144 135 150 139 131 142 131 122 
139 127 119 140 127 120 149 139 132 154 144 139 158 160 159 158 161 161 
146 140 135 145 141 135 140 135 131 156 159 159 148 146 143 148 144 141 
155 153 153 155 154 154 148 147 144 144 142 137 145 140 135 156 158 158 
158 161 161 137 129 123 138 129 124 143 136 132 150 145 145 154 150 151 
153 152 151 149 147 146 141 138 134 137 133 129 135 133 130 138 139 138 
149 150 149 153 155 155 151 153 154 150 152 153 128 113 105 134 124 117 
145 146 143 153 158 157 156 157 156 160 160 160 155 151 149 147 142 139 
159 161 165 155 157 160 169 177 184 170 176 181 161 161 161 156 153 151 
157 155 154 162 160 162 167 169 173 146 137 133 134 121 112 151 144 143 
158 151 153 157 150 150 152 143 138 151 142 135 156 155 151 156 158 155 
150 141 132 151 142 136 151 140 133 148 137 131 148 138 131 149 142 136 
146 137 131 143 131 123 145 137 128 143 137 129 140 131 125 140 132 128 
136 132 127 147 148 146 145 145 143 129 114 104 148 144 141 155 153 152 
147 142 138 143 136 129 140 129 123 141 133 127 139 132 127 144 141 136 
132 118 111 134 121 113 148 141 138 153 151 150 153 151 151 148 145 144 
142 137 133 136 133 128 134 131 129 138 139 137 149 156 153 154 161 159 
151 155 155 151 152 153 129 116 107 134 125 118 144 144 141 148 151 149 
148 145 142 154 151 150 167 168 171 171 175 179 146 142 140 128 112 101 
160 164 166 167 173 178 159 160 160 158 155 154 157 155 153 162 160 160 
168 171 176 145 138 135 131 116 107 158 156 156 160 163 164 151 146 144 
149 140 135 150 143 135 155 152 146 154 149 143 150 144 136 151 143 137 
148 139 132 149 139 132 153 143 137 149 139 132 129 113 103 138 125 115 
142 134 122 139 129 120 134 125 118 132 124 119 134 130 126 141 140 137 
133 127 120 127 111 100 146 142 139 155 153 152 148 141 138 143 135 129 
142 133 127 139 131 124 140 132 128 159 163 164 138 130 125 134 123 116 
146 142 138 154 155 154 159 163 164 147 144 143 141 137 132 137 132 128 
134 130 128 137 136 134 144 150 146 148 155 152 149 154 154 151 153 154 
151 149 148 150 148 147 148 146 143 142 136 131 131 119 110 139 127 121 
164 163 164 171 176 179 150 149 147 136 127 121 157 161 162 163 166 168 
148 142 138 160 159 158 155 151 149 160 159 159 167 171 175 168 171 176 
162 160 161 158 156 156 154 154 153 143 133 129 143 133 128 146 139 134 
157 158 156 155 151 147 149 143 138 151 146 142 147 138 133 148 137 132 
153 143 137 154 143 137 143 131 124 150 141 136 152 144 140 142 134 127 
128 119 112 122 115 109 141 140 138 160 165 165 139 139 136 140 135 134 
150 149 148 155 152 151 150 145 142 149 144 139 153 153 151 151 149 148 
148 146 145 148 146 146 144 141 138 144 141 140 148 147 147 149 149 149 
151 152 151 144 141 137 140 137 131 138 135 129 136 131 127 135 129 126 
132 132 127 135 138 134 146 149 148 151 153 155 158 161 164 156 157 157 
148 146 142 141 133 127 130 117 110 137 127 120 159 157 157 166 168 171 
157 160 159 154 158 157 157 162 162 160 163 164 159 160 159 151 144 141 
132 118 110 141 131 125 156 154 155 161 161 163 162 162 163 155 151 150 
145 138 134 142 134 129 143 136 130 145 140 135 151 148 146 149 143 141 
133 120 110 136 123 115 143 133 127 140 127 121 151 141 135 154 145 139 
152 142 134 158 157 154 160 164 164 149 146 143 126 117 109 119 111 104 
128 120 117 134 130 128 132 123 120 137 129 126 146 140 137 150 146 144 
151 148 145 151 149 146 151 149 148 152 151 150 153 154 154 152 153 154 
149 149 149 147 147 148 147 147 147 148 148 146 143 140 138 139 135 131 
140 139 133 139 136 129 135 127 121 132 123 118 129 126 121 134 134 130 
144 146 145 149 151 153 152 153 154 150 150 149 146 143 138 145 141 135 
147 142 140 150 147 146 154 153 152 156 157 155 155 155 153 157 157 155 
153 152 150 141 134 128 153 149 146 131 116 106 126 108 97 126 108 97 
152 148 147 162 161 163 158 156 156 155 151 150 152 147 145 154 153 151 
151 149 147 148 144 143 146 142 142 145 140 139 134 122 114 132 118 109 
139 130 123 141 131 125 147 139 132 151 142 136 148 136 128 147 136 129 
150 146 143 141 134 128 127 118 112 122 114 107 136 132 127 130 121 113 
127 112 104 130 116 107 136 125 117 142 136 130 149 147 146 151 149 149 
146 140 139 148 143 143 153 153 154 152 153 152 146 145 144 145 141 139 
144 141 138 145 143 140 142 138 137 140 132 130 143 141 136 140 137 129 
130 119 111 129 118 110 138 132 127 142 142 139 144 146 145 146 148 148 
149 149 150 148 147 146 142 136 130 146 142 137 154 153 153 156 156 158 
152 152 151 151 150 148 155 153 149 158 157 154 148 141 136 126 110 99 
142 133 127 126 110 99 126 108 97 133 120 111 159 157 160 137 127 119 
140 129 123 154 151 150 154 152 150 154 151 150 152 150 149 149 146 146 
144 140 141 142 138 138 145 140 135 144 138 132 142 133 128 141 129 124 
138 127 120 145 135 127 132 116 105 130 112 102 139 126 118 138 130 124 
130 121 116 123 114 109 126 116 110 125 113 105 125 108 97 126 110 98 
131 117 109 138 131 124 149 147 146 150 149 149 144 136 135 148 144 144 
156 159 159 153 153 153 146 143 141 142 138 135 142 139 135 141 136 132 
138 129 128 140 131 130 143 142 138 140 137 130 129 115 105 129 115 105 
141 136 130 146 146 143 144 146 145 144 146 146 
