P3
64 64
255
121 124 112 127 125 118 134 126 119 132 126 117 127 126 116 114 115 106 
107 108 107 110 109 109 137 126 119 150 135 126 111 110 91 132 126 117 
150 136 126 147 135 125 145 132 123 145 134 123 123 120 107 148 136 126 
79 91 66 9 42 3 35 64 31 75 89 66 125 126 114 108 120 108 108 119 107 
116 123 111 139 132 123 152 138 125 149 140 126 129 126 112 106 112 94 
113 121 105 54 78 52 52 76 49 69 87 62 144 141 126 147 141 126 148 140 127 
143 141 127 116 118 102 99 108 88 143 136 123 146 140 125 152 136 123 
154 138 125 135 129 118 139 134 120 130 129 119 130 129 118 144 134 124 
147 136 125 151 137 126 145 141 138 144 139 134 138 131 122 131 129 120 
107 117 104 102 115 102 119 126 117 147 135 127 148 135 126 150 135 126 
150 136 126 145 134 126 110 119 107 111 119 109 105 113 98 112 115 102 
114 122 111 111 120 110 120 122 119 125 122 119 137 129 120 130 126 115 
114 116 103 144 134 122 151 136 126 123 117 114 114 112 111 123 125 119 
94 103 85 130 129 116 122 117 101 84 93 69 143 131 119 134 126 116 144 134 123 
120 123 111 112 120 107 123 125 114 145 134 123 151 136 126 154 138 125 
69 84 58 23 53 17 30 57 22 57 79 53 52 76 49 53 76 50 139 130 115 143 140 125 
145 143 141 147 141 134 47 69 37 12 45 6 123 120 102 152 139 125 156 138 125 
154 138 125 123 125 114 120 124 112 108 120 108 112 120 108 134 129 117 
153 137 125 153 136 126 150 137 127 124 119 111 70 83 63 136 129 120 
111 120 108 116 123 111 143 136 129 150 136 126 150 136 126 152 136 126 
141 129 120 126 120 114 139 129 122 126 126 115 56 78 51 32 61 28 100 113 99 
112 120 110 129 129 127 136 131 123 117 123 111 33 63 30 32 61 29 126 122 109 
149 135 124 126 121 114 114 112 110 141 136 134 139 133 122 138 130 119 
149 138 128 146 139 130 143 132 121 154 138 126 148 136 125 141 136 127 
137 134 125 135 136 132 147 137 126 154 137 125 153 138 125 108 109 96 
66 81 57 34 63 30 93 106 88 78 92 69 97 103 83 131 129 119 141 137 129 
150 139 129 150 138 128 109 109 89 64 79 51 144 136 126 153 138 125 
154 138 125 154 138 125 141 138 132 143 135 122 138 132 120 130 128 116 
136 130 118 155 138 125 154 138 125 152 136 125 141 129 120 101 104 101 
128 121 116 123 120 105 123 118 102 58 75 46 136 125 110 120 116 97 106 106 84 
129 120 116 110 108 108 145 132 123 117 122 110 101 114 101 65 86 62 107 116 103 
120 125 117 128 128 125 126 126 118 121 124 112 61 82 58 51 75 48 66 84 60 
151 135 123 152 138 127 140 134 128 150 136 126 152 137 126 151 136 126 
139 132 125 84 97 80 62 82 57 137 128 114 84 97 76 98 104 85 143 141 139 
122 120 117 148 134 123 150 135 124 142 133 122 116 117 103 127 123 109 
71 88 64 114 117 101 149 135 123 150 138 125 150 140 130 142 140 133 
144 136 123 151 137 126 150 138 127 148 136 124 151 138 129 149 135 123 
143 133 121 149 135 123 148 136 126 154 138 126 154 138 125 151 136 124 
150 136 125 154 138 125 153 138 126 143 135 125 138 130 118 122 118 112 
120 115 101 136 132 120 82 91 64 12 45 6 102 104 82 110 109 88 75 86 61 
137 126 119 116 112 111 143 132 126 129 126 116 113 120 108 124 125 115 
142 133 123 119 124 116 99 112 98 106 117 105 124 126 113 122 125 115 
59 81 56 66 84 60 146 132 119 155 138 125 153 138 128 154 137 125 153 138 126 
140 129 118 87 98 79 68 86 63 54 77 50 121 116 98 97 104 85 98 104 84 
149 138 131 136 130 120 129 127 116 98 106 89 125 127 116 88 101 81 70 87 64 
71 87 63 116 115 97 153 138 125 114 111 91 137 127 112 144 133 121 142 135 122 
155 138 125 153 138 125 148 134 123 143 133 121 141 132 121 132 128 116 
131 128 116 121 127 117 139 130 117 155 138 125 155 138 125 149 137 126 
109 108 87 141 131 117 118 120 105 53 75 47 56 76 47 35 61 26 139 127 113 
81 89 65 68 82 54 49 71 40 25 54 18 5 41 1 88 95 71 138 127 119 130 126 116 
138 130 119 147 133 124 150 134 126 145 135 127 52 76 49 22 52 16 79 96 77 
141 133 120 137 134 126 127 129 124 114 117 106 141 131 117 108 110 90 
83 95 73 154 137 124 154 138 125 149 136 125 146 133 122 136 127 112 
114 114 97 150 136 123 119 121 109 93 102 82 146 136 125 127 127 117 
130 127 115 132 128 117 138 130 119 152 137 124 147 134 121 150 136 122 
148 134 121 148 135 123 146 132 119 153 137 124 152 137 124 150 137 124 
154 138 125 154 138 125 138 131 119 137 130 121 148 135 124 148 135 123 
127 127 115 117 125 116 125 122 108 153 137 125 154 138 125 151 137 126 
138 127 112 141 132 119 55 77 48 18 48 11 17 47 9 113 111 93 131 122 106 
112 111 91 150 135 121 144 131 115 123 118 100 52 72 41 99 103 81 155 138 125 
112 119 108 122 123 113 144 132 122 112 110 93 36 62 30 46 72 43 28 54 20 
102 108 91 152 137 126 145 132 119 68 86 61 52 76 49 65 85 61 81 94 72 
62 82 57 150 135 122 153 137 124 149 135 123 150 135 124 91 99 78 58 80 54 
74 91 68 74 90 67 56 78 52 148 136 122 138 131 119 128 124 111 138 132 119 
143 136 125 148 135 123 150 136 123 154 138 125 150 136 123 139 131 118 
145 134 121 155 138 125 155 138 125 145 133 120 150 136 123 151 136 124 
121 124 112 124 125 114 146 134 123 145 134 122 145 135 123 144 135 125 
154 138 126 151 140 126 151 136 126 142 132 120 144 133 121 149 135 123 
78 94 69 48 71 42 104 112 100 131 125 116 144 131 120 149 134 121 154 138 125 
152 136 126 154 138 125 148 140 133 144 141 139 152 139 129 115 122 109 
126 125 115 127 128 124 101 104 88 14 47 9 20 51 14 72 84 57 149 136 124 
154 137 124 69 86 62 52 76 49 52 76 49 52 76 49 107 112 95 123 119 102 
148 136 122 98 104 83 147 133 121 96 102 82 52 76 49 52 76 49 52 76 49 
117 115 97 122 118 101 149 135 123 101 107 89 139 130 118 152 137 124 
148 137 125 143 131 119 119 119 103 148 135 123 141 132 120 141 132 119 
148 135 123 154 138 125 155 138 125 142 129 116 138 129 114 142 132 119 
120 124 112 113 120 108 139 132 120 134 128 116 108 108 88 143 129 117 
153 138 126 153 138 126 151 136 124 128 125 112 127 124 109 139 132 119 
149 135 124 139 132 125 136 130 123 86 94 75 102 104 95 132 124 117 
145 132 123 145 133 125 154 137 125 153 138 127 150 139 130 152 136 124 
134 128 118 143 132 122 146 133 124 145 131 123 100 103 81 132 123 107 
148 133 120 154 138 126 148 134 120 52 76 49 52 76 49 52 76 49 75 91 69 
136 128 113 79 92 69 144 132 118 139 129 115 147 134 123 66 85 60 52 76 49 
52 76 49 65 84 59 139 128 114 110 111 92 152 136 124 117 115 98 149 135 123 
146 134 122 133 129 116 122 122 108 98 106 87 147 134 122 151 136 124 
151 135 123 150 135 126 152 137 126 154 138 125 141 128 114 113 112 94 
126 121 105 140 132 119 126 125 113 144 134 120 149 134 121 72 82 56 128 123 105 
149 140 133 147 140 133 152 138 125 132 125 110 75 87 59 99 105 87 146 135 126 
149 136 126 134 126 115 28 54 18 40 64 33 110 109 104 121 118 113 136 125 118 
152 136 125 150 140 132 89 95 70 21 49 12 150 133 124 152 136 126 152 136 126 
148 133 124 153 136 125 155 138 125 155 138 125 155 138 125 153 137 124 
71 87 63 54 78 51 88 98 76 146 133 120 154 137 124 148 134 119 132 123 106 
140 129 115 83 94 72 74 91 68 54 77 50 73 89 65 134 126 110 150 134 121 
149 134 121 150 134 121 137 127 111 126 120 102 135 129 117 140 130 117 
143 132 119 149 136 123 154 138 125 155 138 125 151 135 123 149 134 121 
107 106 86 143 131 117 148 134 122 108 109 90 138 130 118 146 134 123 
153 137 124 152 136 126 150 135 125 140 130 116 148 134 121 143 129 117 
128 123 109 151 136 126 150 136 123 151 135 122 132 123 114 142 131 122 
149 134 121 149 134 121 100 101 80 49 71 40 125 121 112 128 125 116 
145 131 122 142 133 120 148 135 123 111 109 89 21 50 12 127 120 106 
152 136 126 133 124 110 93 101 81 153 135 126 154 138 125 154 137 125 
154 137 125 155 138 125 151 136 122 102 107 87 118 115 96 140 129 113 
154 137 124 154 137 124 144 130 115 150 136 125 140 129 115 147 135 122 
137 129 115 151 136 123 155 138 125 152 136 123 149 134 121 144 131 116 
118 114 94 127 121 103 147 133 120 150 135 122 152 136 123 149 135 122 
155 138 125 154 138 125 149 134 121 149 134 121 145 131 116 147 132 119 
153 137 124 91 99 79 135 128 117 142 131 121 149 135 123 148 135 127 
148 133 125 148 135 124 149 138 126 103 106 87 76 90 67 147 133 121 
146 132 121 144 132 120 130 119 115 145 132 122 149 134 121 149 134 121 
144 131 117 144 130 117 151 136 125 154 137 125 155 138 125 152 136 123 
148 135 123 138 129 118 127 126 114 139 129 119 149 134 124 138 128 116 
140 129 115 154 137 125 155 138 125 146 134 121 142 133 120 149 136 123 
151 136 123 145 134 121 152 136 123 143 130 116 153 136 124 155 138 125 
151 139 127 150 139 129 153 137 127 151 135 123 152 136 123 155 138 125 
155 138 125 154 137 124 153 137 125 144 130 115 128 120 103 117 115 96 
149 134 121 153 137 124 150 136 124 149 135 122 152 135 124 153 137 125 
150 135 123 147 133 120 139 128 114 145 132 118 139 128 113 143 130 119 
150 136 124 150 136 127 153 137 126 151 135 126 151 136 126 152 135 125 
137 127 117 139 129 120 146 133 121 154 137 125 153 137 125 141 130 117 
124 121 108 151 139 129 149 136 125 149 135 122 141 129 114 149 134 120 
156 138 125 152 136 124 154 138 125 138 130 115 137 129 115 119 123 111 
115 121 109 130 127 114 149 135 124 143 132 122 142 132 122 154 138 125 
155 138 125 152 136 123 151 136 124 151 136 123 147 136 126 147 134 123 
151 137 126 154 137 125 154 137 125 155 138 125 150 135 124 147 136 123 
151 135 123 149 134 121 149 134 121 152 136 123 152 136 123 149 134 121 
149 134 121 151 135 122 107 109 90 52 76 49 92 99 78 153 137 124 153 139 127 
150 135 122 149 134 121 153 136 123 155 138 125 81 94 71 52 76 49 76 91 67 
53 77 50 66 84 59 139 128 115 149 134 121 150 136 123 153 137 126 154 137 125 
154 137 124 62 82 56 52 76 49 116 115 97 154 137 125 155 138 125 148 134 121 
145 133 118 155 138 125 154 138 125 147 135 122 146 135 122 150 136 123 
155 138 125 144 134 121 146 134 122 123 121 104 112 116 101 111 121 109 
116 123 111 141 139 135 113 115 101 127 122 108 147 136 125 152 137 126 
155 138 125 154 138 126 152 136 124 153 137 124 148 135 123 139 127 113 
144 130 115 154 137 124 154 137 124 154 138 125 150 135 122 146 132 119 
150 134 121 149 134 121 149 134 121 149 134 121 149 134 121 149 134 121 
149 134 121 149 134 121 148 134 120 83 95 73 53 77 50 145 132 118 154 138 126 
151 136 123 149 134 121 152 136 123 155 138 125 109 110 91 52 76 49 56 79 52 
52 76 49 52 76 49 105 108 88 149 134 121 136 126 112 153 137 126 153 137 124 
153 137 124 57 79 53 52 76 49 60 81 55 152 136 123 154 138 125 149 134 121 
152 136 123 155 138 125 153 137 124 152 137 124 137 131 118 150 135 122 
155 138 125 152 136 123 149 133 121 126 125 111 121 124 112 115 122 110 
116 122 109 127 128 120 53 73 43 83 92 67 150 135 123 154 138 125 155 138 125 
153 138 127 146 132 121 148 133 123 148 134 124 151 136 121 147 133 118 
149 134 120 153 136 123 154 138 125 152 137 124 152 135 122 150 135 122 
149 134 121 149 134 121 149 134 121 149 134 121 149 134 121 149 134 121 
149 134 121 149 134 121 136 126 112 107 109 90 125 120 103 155 138 125 
155 138 125 154 138 125 155 138 125 155 138 125 151 136 122 107 109 90 
115 114 95 56 78 52 52 76 49 63 83 57 105 108 88 74 89 66 143 131 117 
153 137 124 153 137 124 79 93 69 52 76 49 52 76 49 127 121 105 155 138 125 
149 135 122 146 134 121 153 137 124 153 137 124 154 138 125 149 135 123 
149 134 121 149 134 121 153 137 124 154 137 125 138 131 118 131 128 117 
141 132 119 137 130 118 134 135 130 88 97 76 120 117 101 152 137 124 
153 137 126 138 128 114 137 128 119 145 131 120 154 137 125 148 134 122 
152 135 122 154 137 124 143 131 116 149 134 121 154 138 125 152 137 124 
154 137 124 154 137 124 151 135 122 151 135 122 152 136 123 154 137 124 
149 134 121 149 134 121 149 134 121 142 130 116 75 90 66 147 133 120 
139 128 113 155 138 125 155 138 125 155 138 125 155 138 125 155 138 125 
155 138 125 155 138 125 155 138 125 138 127 113 93 100 80 144 131 117 
94 101 80 94 102 80 151 136 123 154 138 125 155 138 125 146 133 119 
87 97 75 76 90 66 142 129 115 151 136 123 149 136 123 150 135 123 151 135 123 
152 137 124 154 138 125 150 136 125 149 134 121 149 134 121 149 134 121 
152 136 126 154 137 125 153 136 125 148 135 123 150 136 123 97 108 94 
124 126 119 151 139 128 155 138 125 155 138 125 151 135 122 118 114 99 
122 117 105 146 134 122 148 135 122 152 137 124 155 138 125 154 137 124 
155 138 125 154 138 125 154 137 124 155 138 125 155 138 125 154 137 124 
154 137 124 155 138 125 155 138 125 153 137 124 150 134 121 149 134 121 
149 134 121 134 125 110 140 129 114 155 138 125 155 138 125 155 138 125 
155 138 125 154 138 125 153 137 124 155 138 125 155 138 125 154 137 124 
154 137 124 153 137 125 153 136 125 154 137 124 153 137 123 155 138 125 
155 138 125 155 138 125 155 138 125 155 138 125 153 137 124 154 137 125 
149 135 122 150 134 122 150 136 123 154 137 124 151 136 123 154 138 125 
149 135 124 139 128 113 149 134 121 150 134 122 155 138 125 156 138 125 
156 138 125 152 137 124 154 138 125 76 92 71 136 128 116 154 138 125 
155 138 125 152 136 124 152 138 126 143 131 120 100 104 87 117 113 96 
135 126 110 153 136 124 155 138 125 154 138 125 155 138 125 155 138 125 
152 136 123 140 129 114 152 136 123 150 135 122 150 135 122 155 138 125 
137 127 112 155 138 125 154 137 124 145 132 118 148 133 120 155 138 125 
155 138 125 155 138 125 155 138 125 146 133 118 155 138 125 150 135 122 
149 134 121 150 135 122 155 138 125 155 138 125 155 138 125 154 138 125 
155 138 125 155 138 125 155 138 125 155 138 125 152 136 123 153 137 124 
155 138 125 154 138 125 154 137 124 155 138 125 155 138 125 154 137 124 
154 138 125 155 138 125 154 138 126 154 137 124 148 134 119 153 136 123 
152 136 124 154 138 125 154 137 124 151 137 124 154 138 126 154 138 126 
154 138 126 73 90 68 129 122 107 153 137 125 154 137 125 151 136 123 
129 125 115 145 138 132 125 121 106 146 133 118 152 136 123 154 137 125 
155 138 125 155 138 125 154 138 125 152 136 123 149 134 121 149 134 121 
149 134 121 152 136 123 152 136 123 155 138 125 146 132 118 155 138 125 
155 138 125 91 99 78 105 108 88 155 138 125 153 137 124 109 111 91 100 105 84 
135 126 110 154 137 124 151 135 122 149 134 121 149 134 121 153 137 124 
149 134 122 140 129 114 132 124 108 154 138 124 155 138 125 155 138 125 
153 137 124 149 134 121 150 135 122 155 138 125 154 137 124 154 138 125 
155 138 125 155 138 125 155 138 125 152 136 124 153 136 123 151 135 122 
152 136 122 154 137 124 151 135 122 151 134 124 153 136 124 154 137 124 
151 137 124 155 138 125 154 138 126 153 137 125 116 121 110 137 131 120 
148 134 123 144 131 120 102 106 87 72 85 59 133 124 113 140 128 119 
150 134 123 154 138 126 154 137 124 155 138 125 155 138 125 154 138 126 
149 134 121 149 134 121 149 134 121 149 134 121 152 136 123 149 134 121 
150 135 122 150 135 122 155 138 125 151 135 122 153 137 124 153 137 124 
155 138 125 129 122 106 54 77 51 131 123 107 146 132 119 143 131 116 
139 128 114 154 137 124 150 135 122 154 137 124 69 86 62 77 91 68 64 83 58 
134 125 109 151 136 122 154 137 124 154 137 124 150 135 122 151 136 123 
155 138 125 151 135 122 152 137 124 155 138 125 155 138 125 155 138 125 
153 137 124 154 137 124 152 136 123 152 137 124 155 138 125 155 138 125 
153 137 124 150 136 124 153 137 124 152 137 124 152 137 125 151 138 127 
151 137 124 113 120 108 134 128 116 143 131 121 140 128 119 118 115 103 
115 114 101 134 125 115 139 128 119 146 132 120 154 138 125 155 138 125 
155 138 125 155 138 125 155 138 125 149 134 121 149 134 121 149 134 121 
153 137 124 149 134 121 149 134 121 148 133 120 151 136 122 155 138 125 
153 137 124 155 138 125 155 138 125 155 138 125 140 129 114 97 103 82 
146 132 119 148 133 120 109 110 92 60 81 55 151 136 122 155 138 125 
155 138 125 111 111 92 52 76 49 76 90 67 143 130 116 71 88 63 107 109 90 
155 138 125 155 138 125 155 138 125 155 138 125 153 137 124 154 137 124 
155 138 125 155 138 125 155 138 125 155 138 125 154 138 125 154 137 124 
155 138 125 155 138 125 155 138 125 150 136 123 144 133 121 151 136 123 
153 137 124 155 138 125 154 138 125 153 136 124 112 121 109 100 107 90 
120 119 107 127 121 116 139 129 123 130 123 112 126 121 109 152 137 126 
117 115 97 116 114 96 138 128 113 96 102 82 138 128 113 155 138 125 
153 137 124 153 136 123 154 137 124 155 138 125 149 134 121 149 134 121 
150 134 121 155 138 125 155 138 125 155 138 125 155 138 125 155 138 125 
155 138 125 155 138 125 135 126 111 148 133 120 149 134 121 114 113 95 
103 107 87 154 138 125 155 138 125 155 138 125 152 136 123 90 98 77 73 88 64 
124 120 103 73 89 65 118 116 98 152 136 123 152 136 123 155 138 125 
155 138 125 155 138 125 155 138 125 155 138 125 155 138 125 155 138 125 
155 138 125 155 138 125 154 138 125 154 137 125 154 138 125 153 137 124 
149 136 123 147 134 122 149 136 123 152 137 124 139 127 112 153 137 124 
147 134 121 117 123 112 111 119 107 107 117 103 132 128 119 139 132 122 
140 131 119 145 134 122 152 137 123 60 81 55 53 76 50 60 81 55 52 76 49 
73 89 64 145 132 118 153 136 123 153 137 124 152 136 123 155 138 125 
151 135 122 149 134 121 150 135 121 155 138 125 153 137 124 150 134 121 
155 138 125 155 138 125 155 138 125 155 138 125 154 138 125 149 134 121 
152 136 123 155 138 125 154 138 125 150 135 122 153 137 124 150 135 122 
141 130 115 153 137 123 153 137 124 155 138 125 152 136 123 154 138 124 
154 137 124 154 137 124 155 138 125 147 133 119 153 136 123 151 136 123 
154 138 125 155 138 125 155 138 125 155 138 125 155 138 125 155 138 125 
154 137 125 154 137 124 153 137 124 154 138 125 155 138 125 148 135 122 
149 134 121 141 129 114 152 136 123 146 134 121 113 121 109 98 109 94 
91 105 87 67 86 63 120 121 109 124 123 109 146 134 121 154 138 125 130 122 106 
118 116 98 91 100 78 97 103 82 96 102 81 148 134 120 149 134 121 149 134 121 
152 136 123 153 137 124 150 135 122 149 134 121 150 135 122 155 138 125 
155 138 125 152 136 123 154 137 124 155 138 125 155 138 125 155 138 125 
155 138 125 154 138 125 151 135 122 150 135 122 154 138 125 154 137 124 
155 138 125 153 137 124 107 109 89 146 133 119 153 136 123 155 138 125 
152 136 123 150 135 122 151 135 122 154 138 125 150 135 121 112 112 94 
149 134 121 149 134 121 151 135 122 155 138 125 154 138 125 155 138 125 
155 138 125 155 138 125 155 138 125 154 137 125 154 137 124 155 138 125 
155 138 125 152 136 124 149 134 121 149 134 121 149 134 121 153 136 124 
120 124 114 107 116 103 108 116 102 118 122 108 124 125 112 117 116 99 
149 134 121 149 134 121 152 136 123 155 138 125 146 132 119 146 132 119 
104 107 87 149 134 121 149 134 121 149 134 121 148 133 120 149 134 121 
149 134 121 149 134 121 149 134 121 150 135 122 151 135 122 153 137 123 
91 100 78 137 127 112 153 137 124 155 138 125 155 138 125 155 138 125 
151 135 122 149 134 121 149 134 121 147 133 119 152 136 123 155 138 125 
153 137 124 152 136 123 150 135 122 144 132 117 127 120 105 149 134 121 
149 134 121 151 135 122 155 138 125 152 136 123 149 134 121 149 134 121 
145 132 118 133 125 109 153 137 124 155 138 125 155 138 125 154 137 124 
154 137 124 152 137 124 153 137 124 154 137 125 155 138 125 154 137 124 
151 135 122 149 134 121 141 132 119 150 136 123 136 129 126 130 128 118 
107 110 94 132 128 116 143 132 119 148 135 122 149 134 121 149 134 121 
152 136 123 155 138 125 155 138 125 154 137 124 155 138 125 150 135 122 
149 134 121 149 134 121 149 134 121 149 134 121 149 134 121 149 134 121 
149 134 121 149 134 121 149 134 121 153 137 124 111 111 93 143 130 116 
151 136 123 155 138 125 155 138 125 153 137 124 154 137 124 150 135 122 
140 129 114 124 119 102 155 138 125 155 138 125 155 138 125 154 138 125 
153 136 123 144 131 117 84 96 72 149 134 121 149 134 121 149 134 121 
154 138 125 155 138 125 154 137 124 152 136 123 81 93 70 67 85 60 153 137 124 
155 138 125 155 138 125 155 138 125 154 138 125 152 137 124 155 138 125 
154 137 124 155 138 125 153 137 124 139 127 113 136 130 119 138 130 118 
154 137 125 139 131 128 138 130 124 133 125 110 128 122 105 129 121 104 
148 135 121 153 136 123 153 137 124 155 138 125 155 138 125 152 136 123 
150 135 122 153 137 124 145 132 118 149 134 121 149 134 121 150 135 122 
149 134 121 149 134 121 149 134 121 149 134 121 149 134 121 149 134 121 
154 137 124 155 138 125 153 137 124 151 135 122 152 136 123 151 135 122 
149 134 121 154 138 125 155 138 125 155 138 125 155 138 125 155 138 125 
155 138 125 155 138 125 155 138 125 155 138 125 155 138 125 155 138 125 
153 137 124 149 134 121 149 134 121 154 137 124 155 138 125 155 138 125 
123 119 101 68 86 61 67 85 60 105 108 88 155 138 125 155 138 125 155 138 125 
155 138 125 154 137 124 154 137 126 154 137 126 149 134 121 63 83 57 92 100 79 
151 136 125 147 132 118 154 138 125 100 108 92 135 127 113 149 134 121 
139 127 113 151 136 122 150 135 121 150 135 122 151 135 122 125 119 102 
130 123 106 154 137 124 152 136 123 110 111 92 52 76 49 59 80 54 140 129 114 
155 138 125 154 138 125 151 136 123 149 134 121 149 134 121 149 134 121 
146 132 119 80 93 70 150 135 121 149 134 121 149 134 121 149 134 121 
153 136 123 151 136 123 154 137 124 154 137 124 155 138 125 155 138 125 
155 138 125 155 138 125 155 138 125 155 138 125 155 138 125 154 138 125 
155 138 125 155 138 125 154 138 125 154 138 125 154 138 125 150 134 121 
154 138 125 152 136 123 84 95 72 92 100 78 144 132 117 155 138 125 128 121 105 
128 122 105 155 138 125 154 137 125 154 137 126 154 137 126 117 115 96 
56 79 52 110 111 94 153 136 124 109 109 88 107 108 89 84 95 73 149 134 121 
149 134 121 149 134 121 147 133 120 149 134 121 149 134 121 149 134 121 
145 132 118 95 101 80 125 120 104 155 138 125 95 102 81 52 76 49 52 76 49 
96 103 82 155 138 125 155 138 125 155 138 125 153 137 124 151 135 122 
140 128 114 76 90 66 52 76 49 141 129 115 149 134 121 149 134 121 149 134 121 
151 135 122 149 134 121 154 137 124 152 136 123 155 138 125 155 138 125 
155 138 125 155 138 125 155 138 125 155 138 125 155 138 125 155 138 125 
155 138 125 155 138 125 155 138 125 118 116 98 80 92 69 142 130 116 
155 138 125 149 134 120 126 120 104 149 134 121 149 134 121 150 135 122 
102 107 86 71 87 63 153 137 124 154 138 125 154 137 125 150 135 122 
145 132 119 109 111 92 148 133 120 154 138 125 112 112 93 145 131 118 
86 96 75 149 134 121 149 134 121 149 134 121 149 134 121 149 134 121 
149 134 121 149 134 121 149 134 121 149 134 121 136 126 111 155 138 125 
140 129 114 53 76 49 54 77 50 141 130 115 155 138 125 155 138 125 155 138 125 
155 138 125 155 138 125 129 122 106 59 80 54 60 81 55 147 133 120 149 134 121 
149 134 121 152 136 123 150 134 121 149 134 121 152 136 123 155 138 125 
155 138 125 154 137 124 155 138 125 155 138 125 155 138 125 155 138 125 
155 138 125 155 138 125 155 138 125 126 121 104 63 83 57 56 78 52 52 76 49 
60 80 55 114 113 95 88 97 75 86 97 74 149 134 121 149 134 121 149 134 121 
152 137 123 151 135 122 155 138 125 154 137 124 156 138 125 154 137 124 
154 137 125 155 138 125 154 137 126 150 136 126 154 138 124 152 136 123 
121 121 109 149 134 121 149 134 121 149 134 121 128 121 105 146 132 118 
149 134 121 149 134 121 149 134 121 146 132 119 153 137 124 154 137 125 
151 135 122 70 87 63 52 76 49 117 115 97 155 138 125 155 138 125 155 138 125 
155 138 125 155 138 125 155 138 125 145 132 118 145 132 118 154 137 124 
151 135 122 152 136 123 154 138 125 153 137 124 151 135 122 155 138 125 
153 137 124 152 135 122 149 134 121 150 135 122 153 137 124 154 137 124 
155 138 125 154 137 124 155 138 125 153 137 124 63 83 57 95 102 81 65 84 59 
52 76 49 52 76 49 52 76 49 92 100 79 82 94 71 142 129 116 127 121 105 
98 104 83 121 118 100 151 135 122 153 137 124 155 138 125 155 138 125 
155 138 125 153 137 124 155 138 125 151 136 126 149 136 126 154 138 125 
154 138 125 140 134 129 148 134 123 133 128 115 96 104 84 131 123 108 
154 138 125 149 134 121 149 134 121 149 134 121 150 135 122 153 137 125 
153 137 124 154 137 125 144 131 117 92 100 79 142 130 115 155 138 125 
155 138 125 155 138 125 155 138 125 155 138 125 155 138 125 155 138 125 
154 137 124 153 137 124 149 134 121 149 134 121 152 136 123 154 137 124 
149 134 121 151 135 122 149 134 121 149 134 121 149 134 121 149 134 121 
149 134 121 150 135 122 150 135 121 150 135 121 155 138 125 152 136 123 
67 85 60 117 115 98 79 92 69 52 76 49 52 76 49 56 78 52 58 80 53 52 76 49 
78 91 68 53 77 50 52 76 49 93 100 79 154 137 124 155 138 125 155 138 125 
154 137 125 155 138 125 155 138 125 152 140 125 153 136 126 154 137 125 
156 138 125 153 136 126 124 124 115 88 97 72 73 88 64 140 129 116 152 136 124 
155 138 125 153 136 123 152 136 123 151 135 122 151 135 122 154 138 126 
154 137 124 155 138 125 152 136 123 155 138 125 155 138 125 151 135 122 
150 135 122 154 137 124 155 138 125 155 138 125 155 138 125 155 138 125 
148 134 120 151 136 122 149 134 121 149 134 121 153 137 124 155 138 125 
149 134 121 141 129 115 149 134 121 149 134 121 149 134 121 149 134 121 
150 135 122 149 134 121 122 118 101 111 111 93 149 135 121 145 132 118 
138 128 113 98 104 83 121 118 100 79 92 69 103 107 87 72 88 64 107 109 89 
106 109 89 58 80 54 52 76 49 85 95 74 149 134 121 152 136 123 155 138 125 
155 138 125 152 137 124 148 136 123 155 138 125 154 137 125 154 137 125 
151 136 124 151 136 123 153 137 125 90 102 83 76 87 62 66 84 58 119 122 108 
146 134 122 154 137 125 153 136 124 152 136 123 154 138 126 155 138 125 
154 139 126 155 138 125 154 137 124 139 128 113 154 138 124 155 138 125 
149 134 121 149 134 121 153 136 123 155 138 125 155 138 125 155 138 125 
139 129 113 85 96 74 148 133 120 149 134 121 150 134 121 154 137 124 
149 134 120 84 95 73 81 93 71 146 132 119 144 131 118 149 134 121 150 134 121 
149 134 121 151 136 123 153 137 124 109 110 91 100 105 84 152 136 123 
149 134 121 149 134 121 154 138 125 154 137 124 155 138 125 136 127 111 
152 137 123 128 122 106 58 80 53 52 76 49 119 116 99 149 134 121 149 134 121 
152 136 123 154 137 124 143 131 119 146 133 121 115 114 95 127 121 106 
147 135 122 145 132 120 133 128 115 130 128 116 102 109 94 94 100 82 128 124 110 
118 119 105 128 126 114 146 133 121 150 136 126 153 137 124 150 135 122 
149 134 121 143 131 117 146 133 119 151 135 123 124 119 102 124 119 103 
155 138 125 153 136 123 152 136 123 155 138 125 155 138 125 155 138 125 
155 138 125 155 138 125 148 134 119 149 134 121 149 134 121 123 118 101 
147 133 120 65 84 59 52 76 49 89 98 76 121 117 100 128 122 105 132 124 108 
132 124 109 149 134 121 151 135 122 152 136 123 152 136 123 152 136 123 
154 137 124 150 135 122 149 134 121 154 137 124 155 138 125 155 138 125 
155 138 125 155 138 125 154 138 124 142 130 116 131 123 107 140 129 114 
149 134 121 149 134 121 150 134 122 154 138 126 151 136 123 121 118 101 
53 76 50 54 77 50 145 132 119 119 117 100 95 101 82 131 126 114 124 124 111 
128 125 114 147 134 122 121 123 111 125 125 113 146 134 122 149 134 123 
149 134 121 146 132 119 145 132 118 148 133 120 126 120 104 152 136 123 
149 134 121 149 134 121 152 136 123 155 138 125 155 138 125 155 138 125 
155 138 125 139 128 113 142 130 115 153 137 124 149 134 121 134 125 110 
149 134 121 124 120 102 111 112 92 60 81 55 52 76 49 112 112 94 133 124 109 
155 138 125 113 113 94 108 110 90 153 137 124 155 138 125 155 138 125 
154 138 125 155 138 125 155 138 125 154 137 124 153 137 124 154 138 125 
154 137 124 155 138 125 155 138 125 155 138 125 155 138 125 155 138 125 
155 138 125 154 137 124 151 135 122 149 134 121 150 135 122 142 130 115 
137 128 117 138 128 113 60 81 55 72 88 64 148 134 120 113 112 94 105 107 87 
149 135 121 122 119 112 116 115 108 145 132 122 127 126 114 130 127 114 
149 136 123 151 136 124 148 135 122 130 125 109 66 85 60 69 86 62 115 114 95 
152 136 123 149 134 121 149 134 121 154 137 124 155 138 125 155 138 125 
155 138 125 132 123 108 124 119 102 104 108 87 154 137 124 152 136 123 
146 132 118 143 130 117 66 85 59 92 101 79 54 77 50 52 76 49 85 95 73 149 135 121 
150 134 121 152 136 123 150 135 122 150 135 122 154 137 124 155 138 125 
155 138 125 155 138 125 155 138 125 155 138 125 155 138 125 155 138 125 
151 135 122 152 136 123 155 138 125 155 138 125 155 138 125 154 137 124 
153 137 124 154 137 124 152 136 123 151 136 123 114 113 94 55 78 51 72 88 64 
142 131 118 139 128 113 153 137 123 152 137 123 127 121 105 141 130 116 
153 137 124 130 122 115 142 129 120 153 135 125 152 135 124 146 133 120 
132 125 110 152 137 124 153 137 124 154 138 125 116 115 96 112 112 93 
148 134 120 139 128 113 103 107 87 104 107 87 154 138 124 155 138 125 
151 136 122 152 137 123 135 126 111 78 91 67 144 131 117 149 134 121 
149 134 121 126 120 104 147 133 119 67 85 59 118 116 98 125 120 103 
111 112 92 149 136 121 153 137 124 150 135 122 149 134 121 149 134 121 
149 134 121 151 135 122 155 138 125 154 138 124 155 138 125 155 138 125 
155 138 125 155 138 125 154 137 124 154 137 124 154 137 124 155 138 125 
155 138 125 155 138 125 155 138 125 151 135 122 152 136 124 150 135 122 
148 134 121 71 87 63 55 78 51 55 78 51 122 121 107 136 126 111 142 129 114 
120 116 96 101 102 79 105 106 84 74 89 64 150 134 123 154 137 125 153 137 126 
152 136 124 87 97 75 56 78 53 87 97 75 154 137 124 121 117 100 86 96 74 
65 84 59 131 124 107 144 131 117 126 120 103 100 105 84 155 138 125 
155 138 125 100 105 85 138 128 113 123 119 102 147 133 120 149 134 121 
149 134 121 149 134 121 149 134 121 154 137 124 154 137 124 155 138 125 
116 114 96 52 76 49 104 107 88 152 136 123 155 138 125 152 136 123 149 134 121 
149 134 121 152 136 123 153 137 123 87 97 75 125 120 103 152 137 123 
141 129 115 155 138 125 155 138 125 154 137 124 155 138 125 155 138 125 
155 138 125 155 138 125 155 138 125 154 137 125 151 135 123 151 135 123 
150 136 123 129 122 107 66 84 59 90 100 79 144 134 123 125 120 102 142 130 114 
86 95 72 48 70 38 17 47 8 25 53 17 138 131 119 151 136 124 149 134 123 
135 126 110 148 134 120 138 128 113 57 79 52 66 84 59 56 79 52 52 76 49 
52 76 49 65 84 59 130 123 107 154 138 124 155 138 125 154 137 124 155 138 125 
133 124 109 149 134 121 149 134 121 149 134 121 149 134 121 148 133 120 
149 134 121 149 134 121 153 137 124 155 138 125 155 138 125 117 115 96 
52 76 49 76 91 67 144 132 117 155 138 125 152 136 123 149 134 121 149 134 121 
144 131 117 80 93 70 52 76 49 55 77 51 143 131 116 105 107 88 123 118 101 
150 135 122 149 134 121 152 136 123 155 138 125 155 138 125 155 138 125 
155 138 125 154 137 124 153 136 123 150 135 123 153 137 124 153 137 124 
146 133 121 137 130 117 149 136 124 154 137 125 155 138 125 70 87 63 99 103 82 
45 65 30 44 69 39 123 122 110 109 108 92 140 128 117 133 124 110 149 134 121 
149 134 121 97 103 82 52 76 49 54 77 50 52 76 49 52 76 49 52 76 49 55 78 52 
103 107 87 153 137 123 118 116 98 119 117 99 148 134 121 149 134 121 
149 134 121 148 134 121 141 129 115 152 136 123 149 134 121 151 135 122 
155 138 125 155 138 125 155 138 125 150 135 121 111 111 92 120 116 99 
155 138 125 155 138 125 149 135 121 111 111 92 135 126 111 132 124 108 
123 119 102 54 77 50 52 76 49 64 83 58 121 117 100 145 132 118 149 134 121 
149 134 121 149 134 121 150 135 122 151 135 122 154 137 124 155 138 125 
155 138 125 155 138 125 152 136 123 154 137 124 153 137 124 153 137 124 
153 137 124 151 136 124 155 138 125 154 138 125 135 126 113 131 124 112 
126 124 109 115 117 102 21 49 11 79 90 68 152 136 123 141 129 118 103 107 87 
114 113 95 58 79 53 52 76 49 57 79 53 52 76 49 52 76 49 52 76 49 87 97 75 
136 126 111 110 111 92 52 76 49 53 77 50 80 92 69 152 136 123 133 125 110 
141 129 115 155 138 125 154 137 124 152 137 123 110 111 92 144 131 117 
155 138 125 155 138 125 155 138 125 155 138 125 155 138 125 155 138 125 
154 138 124 118 116 98 137 127 112 102 104 86 145 132 118 147 133 119 
87 96 75 83 94 72 84 95 72 152 136 123 155 138 125 152 136 123 149 134 121 
149 134 121 149 134 121 149 134 121 155 138 125 154 137 124 154 137 124 
155 138 125 153 137 124 152 137 124 152 137 124 154 138 125 155 138 125 
140 129 114 144 132 121 137 126 113 77 90 64 104 106 84 137 130 117 
129 128 116 31 58 28 112 112 100 140 128 117 116 113 102 147 134 120 
100 105 85 52 76 49 52 76 49 65 84 58 61 82 56 53 76 50 52 76 49 102 106 86 
155 138 125 128 122 105 54 77 50 52 76 49 87 97 75 149 134 120 155 138 125 
155 138 125 155 138 125 153 137 124 152 136 123 124 119 102 149 134 121 
150 135 122 153 137 124 155 138 125 155 138 125 155 138 125 155 138 125 
153 137 123 88 98 76 147 133 119 100 105 85 111 111 92 135 126 111 140 129 114 
147 133 119 134 125 110 155 138 125 155 138 125 155 138 125 154 138 125 
150 135 122 149 134 121 149 134 121 155 138 125 154 137 124 151 135 122 
152 136 123 154 137 124 151 136 123 129 122 106 155 138 125 154 137 124 
155 138 125 153 137 124 114 114 106 99 101 82 119 114 96 146 133 120 
142 133 120 112 112 104 132 123 112 135 127 116 143 133 123 142 132 125 
142 130 121 127 120 105 84 95 73 141 130 115 137 127 112 91 100 78 72 88 64 
97 103 82 155 138 125 155 138 125 114 113 95 86 96 73 125 119 103 144 131 117 
85 96 74 92 100 78 154 137 124 152 136 123 155 138 125 153 137 124 149 134 121 
149 134 121 150 135 122 155 138 125 155 138 125 155 138 125 153 136 123 
155 138 125 155 138 125 155 138 125 151 136 122 119 116 99 148 134 120 
154 137 124 154 138 124 151 136 122 155 138 125 152 136 123 155 138 125 
155 138 125 152 136 123 149 134 121 150 135 122 153 137 124 149 134 121 
149 134 121 149 134 121 152 136 123 154 138 125 146 133 119 152 137 123 
147 134 119 149 134 121 117 114 102 114 112 101 148 133 120 154 137 124 
155 138 125 155 138 125 147 134 124 107 106 86 132 124 107 141 129 115 
143 133 125 140 129 119 154 137 124 153 138 126 154 137 124 153 137 124 
155 138 125 152 136 123 153 137 124 155 138 125 155 138 125 155 138 125 
154 138 125 152 136 123 134 125 110 68 85 61 119 116 98 149 134 121 
149 134 121 154 138 125 154 138 125 150 134 121 149 134 121 149 134 121 
152 136 123 155 138 125 150 135 122 149 134 121 136 126 110 147 133 119 
152 136 123 153 136 123 151 136 123 149 134 121 145 132 118 154 137 124 
155 138 125 155 138 125 152 136 123 155 138 125 152 136 123 152 136 123 
150 135 122 153 136 123 149 134 121 149 134 121 149 134 121 149 134 121 
153 136 123 154 137 124 150 135 121 153 136 123 140 129 114 152 136 124 
138 127 117 130 122 108 152 136 124 154 137 125 154 137 125 154 137 125 
151 135 123 111 110 89 120 114 94 105 106 83 95 100 78 102 104 82 142 130 116 
154 138 127 154 138 125 154 138 124 155 138 125 155 138 125 155 138 125 
155 138 125 155 138 125 149 134 120 111 111 92 130 123 107 148 134 120 
78 92 68 146 132 118 149 134 121 114 113 95 146 132 119 151 136 123 
150 135 121 148 133 120 150 135 122 151 135 122 155 138 125 150 135 122 
149 134 121 81 93 71 126 120 104 153 137 124 155 138 125 154 137 124 
149 134 121 138 127 113 149 135 121 155 138 125 155 138 125 155 138 125 
154 137 124 153 137 124 155 138 125 152 136 123 151 135 122 149 134 121 
149 134 121 149 134 121 153 136 123 153 137 124 150 136 123 150 135 122 
149 134 121 153 136 123 154 138 125 154 138 125 153 136 123 152 137 124 
155 138 125 153 137 124 154 138 125 154 137 124 147 133 119 139 128 112 
146 132 118 135 125 107 84 92 67 107 107 87 154 138 126 155 138 125 
154 138 124 154 137 124 153 137 124 154 137 124 155 138 125 155 138 125 
73 89 65 54 77 50 56 78 52 142 130 116 135 126 110 143 130 116 148 133 120 
71 87 63 88 98 75 154 138 124 89 98 77 72 88 64 155 138 125 155 138 125 
155 138 125 151 135 122 136 126 111 58 80 54 106 109 89 153 137 124 
155 138 125 155 138 125 155 138 125 155 138 125 155 138 125 155 138 125 
155 138 125 155 138 125 153 137 124 152 136 123 155 138 125 151 136 123 
150 135 122 154 138 125 151 136 123 154 137 124 154 137 124 151 136 123 
152 137 124 149 135 122 149 135 123 154 138 125 154 138 125 155 138 125 
155 138 125 152 137 125 154 138 125 155 138 125 154 138 125 135 126 109 
152 136 124 154 138 125 144 132 117 153 137 124 118 114 95 112 112 93 
153 138 127 154 137 124 155 138 125 151 136 123 153 137 124 153 137 124 
154 138 125 154 138 125 77 91 67 58 79 53 60 81 55 147 133 119 154 138 125 
155 138 125 149 134 120 60 81 55 86 97 74 154 137 124 146 133 119 142 130 116 
155 138 125 152 136 123 152 136 123 144 131 117 60 80 55 69 86 61 86 96 73 
155 138 125 155 138 125 155 138 125 155 138 125 152 136 123 155 138 125 
155 138 125 155 138 125 153 137 124 154 137 124 155 138 125 155 138 125 
155 138 125 155 138 125 155 138 125 155 138 125 154 137 124 155 138 125 
154 137 125 154 138 125 152 138 126 152 139 128 154 138 125 155 138 125 
155 138 125 155 138 125 154 138 125 152 139 125 155 138 125 155 138 125 
100 104 84 88 93 71 98 102 81 93 98 77 145 132 122 146 133 121 149 135 123 
151 136 123 148 133 120 150 134 121 149 134 121 154 138 125 150 136 123 
151 136 123 149 134 121 149 134 121 123 118 102 144 131 117 151 135 122 
150 134 121 154 137 124 90 99 77 128 122 105 151 136 122 155 138 125 
155 138 125 155 138 125 152 136 123 149 134 121 149 134 121 151 135 122 
109 110 91 147 133 119 152 136 123 155 138 125 155 138 125 155 138 125 
154 137 124 149 134 121 154 138 125 138 128 112 154 137 124 152 136 123 
147 133 119 155 138 125 155 138 125 152 136 123 155 138 125 155 138 125 
155 138 125 155 138 125 152 136 123 149 134 121 149 134 121 149 134 121 
154 137 124 155 138 125 154 137 124 155 138 125 155 138 125 154 138 125 
154 137 125 155 138 125 155 138 125 66 86 62 72 86 60 74 89 66 108 110 89 
147 134 124 139 126 120 144 130 121 133 124 108 149 134 121 149 134 121 
152 136 123 151 136 122 150 136 122 151 135 122 149 134 121 149 134 121 
149 134 121 149 134 121 150 134 121 149 134 121 153 137 123 113 113 94 
141 130 115 155 138 125 153 137 124 151 135 122 154 137 124 154 137 124 
149 134 121 149 134 121 152 136 123 155 138 125 143 130 116 111 111 92 
151 135 122 155 138 125 154 137 124 155 138 125 153 137 124 155 138 125 
146 132 118 154 138 124 155 138 125 154 138 124 154 138 125 155 138 125 
154 137 124 153 137 124 154 137 124 152 136 122 130 123 107 138 128 113 
149 134 121 149 134 121 149 134 121 152 136 125 140 128 115 148 134 120 
155 138 125 155 138 125 104 107 88 129 123 106 154 138 125 152 136 123 
52 76 49 54 77 50 122 120 106 151 135 124 155 138 125 145 132 120 144 131 119 
144 130 117 143 131 117 149 134 121 152 136 122 151 136 122 154 137 124 
154 137 124 153 137 124 149 134 121 149 134 121 149 134 121 147 133 119 
150 135 122 154 138 125 154 137 124 153 137 124 155 138 125 151 136 123 
149 134 121 152 136 123 155 138 125 153 137 124 153 137 124 155 138 125 
155 138 125 144 131 117 122 117 100 149 134 121 150 135 122 152 136 123 
153 136 123 155 138 125 155 138 125 155 138 125 155 138 125 155 138 125 
155 138 125 155 138 125 155 138 125 155 138 125 154 137 124 154 138 125 
127 122 104 96 102 81 142 130 116 149 134 121 149 134 121 150 135 122 
149 135 122 147 132 119 149 134 121 150 135 122 150 134 122 56 79 52 60 81 55 
146 133 119 140 129 114 102 110 94 111 115 100 142 132 122 150 135 125 
155 138 125 151 136 122 149 135 121 153 137 126 154 137 124 153 137 124 
153 137 124 153 137 124 155 138 125 155 138 125 155 138 125 149 134 121 
149 134 121 150 135 122 149 134 121 149 134 121 155 138 125 154 137 124 
155 138 125 155 138 125 153 137 124 150 135 122 154 138 125 155 138 125 
155 138 125 155 138 125 155 138 125 155 138 125 152 136 123 153 137 124 
150 135 122 151 135 122 155 138 125 155 138 125 155 138 125 155 138 125 
155 138 125 155 138 125 155 138 125 155 138 125 155 138 125 155 138 125 
155 138 125 155 138 125 155 138 125 134 126 110 149 134 121 100 105 85 
150 135 122 151 135 122 154 137 124 154 137 125 149 134 121 149 134 121 
149 134 121 151 136 126 67 85 60 66 85 59 147 133 119 77 91 67 142 131 121 
136 130 118 111 113 97 134 126 114 150 136 123 146 132 119 151 136 123 
154 138 125 155 138 125 154 137 124 151 136 123 149 134 121 150 134 121 
154 137 124 155 138 125 139 128 113 150 135 122 153 136 123 154 138 125 
151 135 122 152 136 122 154 137 124 155 138 125 155 138 125 155 138 125 
154 137 124 153 136 124 154 137 124 154 137 125 154 137 125 154 137 124 
155 137 125 149 134 121 149 134 121 151 136 123 155 138 125 155 138 125 
155 138 125 155 138 125 155 138 125 155 138 125 154 137 124 155 138 125 
155 138 125 155 138 125 154 138 125 154 138 125 155 138 125 155 138 125 
149 135 121 115 114 96 95 101 80 154 137 124 152 136 124 150 135 123 
136 127 112 150 135 122 149 134 121 150 135 122 152 137 124 131 124 108 
147 133 119 154 137 125 146 134 120 147 133 126 142 134 131 44 67 34 94 99 76 
146 133 119 148 133 120 142 130 116 152 136 124 155 138 125 155 138 125 
151 135 123 149 134 121 149 134 121 150 135 122 154 137 124 154 138 126 
154 138 126 134 126 110 155 138 125 155 138 125 155 138 125 155 138 125 
155 138 125 153 137 124 154 137 124 154 138 125 151 136 123 131 123 108 
153 137 124 150 134 121 155 138 125 155 138 125 150 134 121 149 134 121 
153 137 124 155 138 125 155 138 125 155 138 125 153 136 123 155 138 125 
154 137 124 149 134 121 153 137 124 155 138 125 155 138 125 150 135 122 
153 137 124 151 135 122 155 138 125 154 137 124 151 136 123 152 137 124 
154 137 124 152 137 124 148 135 122 147 134 120 150 135 122 150 135 122 
150 136 123 129 121 105 109 107 87 151 136 122 153 137 124 121 117 101 
116 113 100 78 88 65 83 93 70 148 133 120 148 134 121 149 134 121 152 136 123 
154 138 125 154 137 125 151 136 125 154 137 125 146 132 119 149 134 121 
152 136 123 153 137 124 154 138 125 155 138 125 153 137 124 155 138 125 
155 138 125 155 138 125 155 138 125 155 138 125 155 138 125 151 136 124 
150 135 123 153 137 124 150 135 122 152 137 124 134 125 111 155 138 125 
155 138 125 155 138 125 154 137 124 155 138 125 155 138 125 155 138 125 
155 138 125 152 136 123 154 138 125 155 138 125 150 135 122 155 138 125 
155 138 125 155 138 125 152 136 123 86 96 74 69 87 62 145 132 118 154 138 125 
154 137 125 153 136 123 149 135 123 153 137 124 154 138 125 155 138 125 
154 138 125 155 138 125 153 137 124 44 67 33 139 128 112 150 135 121 
152 136 123 137 128 115 68 82 57 27 55 20 108 107 93 148 134 121 149 134 121 
151 135 122 151 135 122 149 135 122 148 137 128 153 137 125 152 136 124 
147 134 122 149 135 123 149 135 123 154 137 125 151 136 123 155 138 125 
155 138 125 155 138 125 155 138 125 153 136 123 153 137 124 155 138 125 
154 137 125 151 139 130 143 134 123 108 106 86 130 123 106 152 137 125 
151 136 123 155 138 125 155 138 125 155 138 125 155 138 125 155 138 125 
154 137 124 155 138 125 155 138 125 148 134 120 155 138 125 154 137 125 
154 139 126 153 139 127 132 126 111 137 126 111 76 90 66 52 76 49 52 76 49 
125 120 103 155 138 125 155 138 125 155 138 125 153 137 124 152 136 124 
155 138 125 155 138 125 155 138 125 155 138 125 147 135 122 104 108 88 
146 133 118 154 138 124 151 136 123 142 131 120 137 126 113 92 98 83 108 107 103 
147 133 122 144 131 120 149 134 121 154 137 124 147 135 123 145 139 134 
120 115 99 133 127 112 117 117 101 150 136 123 145 134 121 154 137 124 
148 135 122 155 138 125 155 138 125 155 138 125 151 135 122 149 134 121 
149 134 121 151 136 124 152 136 122 148 134 121 138 130 117 113 113 94 
140 129 114 146 135 122 152 136 122 154 137 125 155 138 125 155 138 125 
154 138 124 155 138 125 127 121 104 120 117 99 155 138 125 140 129 114 
151 136 124 152 137 124 152 138 124 133 126 111 53 77 50 55 78 51 53 76 50 
52 76 49 54 77 50 85 96 73 125 120 103 155 138 125 155 138 125 154 137 124 
153 138 125 151 136 124 155 138 125 155 138 125 143 133 118 130 128 113 
139 132 119 131 129 116 152 137 124 140 130 115 143 133 120 122 117 101 
123 116 104 125 121 116 140 132 125 122 121 111 114 113 95 153 137 126 
151 136 125 149 135 126 122 118 104 116 116 99 95 104 84 147 135 123 
142 133 121 146 134 122 141 131 119 146 132 118 147 135 122 154 138 125 
148 133 119 149 134 121 149 134 121 125 120 103 144 131 117 155 138 125 
153 136 123 150 135 121 121 115 97 138 129 116 154 138 125 154 137 125 
153 136 124 153 137 124 153 137 124 152 136 124 123 119 102 115 114 96 
155 138 125 154 137 124 147 133 121 151 135 122 86 96 74 119 116 98 76 90 67 
59 81 54 54 77 50 59 80 55 119 117 99 85 96 74 98 103 83 154 137 124 
154 138 125 155 138 125 153 139 127 153 137 126 154 138 125 151 136 124 
137 130 117 134 129 116 129 127 114 109 115 100 93 104 85 54 77 51 100 105 86 
142 130 121 108 113 101 139 135 130 142 136 131 144 132 122 150 134 124 
152 134 125 147 132 119 149 134 122 145 136 131 149 139 130 126 123 110 
137 127 112 126 121 105 147 135 124 145 131 122 126 121 104 149 134 122 
154 137 124 100 106 87 145 133 120 146 132 119 89 98 76 126 120 103 
155 138 125 153 136 123 155 138 125 138 128 113 137 127 111 150 135 122 
152 135 124 148 134 123 146 133 122 148 135 126 150 136 124 150 135 122 
151 136 123 155 138 125 154 138 125 149 135 123 149 136 123 133 125 110 
150 136 122 151 136 125 150 135 122 129 122 107 141 130 115 152 136 123 
152 137 124 154 137 125 153 136 124 147 133 122 150 134 123 128 121 104 
83 91 67 149 135 121 148 135 123 149 136 125 139 132 122 115 119 105 
68 87 61 86 97 77 53 77 50 75 90 67 123 125 112 143 132 123 142 142 141 
144 141 139 153 135 125 152 136 125 152 135 125 132 128 116 131 130 121 
143 140 137 139 131 120 67 85 61 71 88 65 68 86 61 140 129 121 82 91 67 
140 129 114 148 135 127 134 125 109 145 133 123 148 133 123 59 80 54 98 104 83 
145 132 117 146 132 118 149 134 121 131 123 107 60 81 54 64 83 58 127 122 106 
154 138 125 154 138 125 146 134 122 133 127 121 139 129 119 149 134 121 
149 134 122 152 137 124 151 137 124 149 135 123 133 126 113 103 105 82 
129 122 106 149 137 131 149 134 121 149 134 121 150 135 122 142 132 119 
125 121 107 149 134 121 150 135 123 144 132 120 142 130 119 139 128 114 
105 107 86 139 130 116 144 133 121 138 132 122 144 134 123 111 118 103 
50 74 45 119 122 108 71 89 66 100 106 87 116 121 110 145 133 122 149 138 132 
146 141 136 150 135 125 148 134 125 142 130 122 136 129 118 124 126 116 
142 141 140 80 93 71 53 76 49 59 80 54 109 111 95 122 122 112 34 58 22 
145 130 116 124 121 105 56 78 52 119 116 100 143 131 119 66 84 60 68 85 60 
127 123 108 119 116 99 150 136 121 100 104 85 75 89 67 79 93 70 114 114 99 
155 138 125 153 137 124 98 102 79 55 76 46 120 120 113 144 133 120 141 131 119 
140 131 120 144 131 121 144 130 120 139 128 119 81 90 66 75 86 59 149 141 136 
152 137 125 150 135 122 151 136 123 138 131 118 103 105 84 83 93 70 132 124 116 
141 129 120 146 133 122 145 132 121 152 136 125 148 136 123 152 137 124 
148 135 124 151 137 126 145 133 121 145 133 120 151 137 124 146 136 123 
138 130 122 138 130 123 146 134 125 145 134 128 124 117 108 142 129 118 
69 83 58 99 103 83 144 132 121 101 107 91 141 130 125 90 98 76 54 77 50 
65 84 59 145 134 127 141 136 128 115 120 106 123 123 109 135 130 121 
125 121 106 150 136 124 148 135 122 149 134 121 148 133 120 131 127 116 
75 91 69 119 117 100 145 132 119 117 115 97 136 126 112 148 134 122 
124 119 100 125 120 102 112 111 93 102 107 89 128 128 118 130 128 116 
144 133 119 132 126 111 151 136 124 151 135 123 150 134 123 132 123 108 
129 122 106 151 139 130 150 139 131 135 127 111 149 136 123 150 136 123 
129 121 106 96 101 81 139 127 117 153 137 125 153 137 125 152 137 125 
152 138 126 154 137 125 154 138 125 154 137 125 152 136 124 154 137 125 
155 138 125 155 138 125 147 135 126 130 127 124 141 129 120 148 132 122 
137 127 119 87 93 79 113 110 102 39 64 35 95 101 81 149 136 128 130 122 108 
150 134 124 113 110 93 42 67 36 91 98 76 150 135 124 62 81 56 119 123 112 
115 124 113 146 139 130 154 138 126 154 138 127 148 135 123 149 134 121 
149 134 121 148 134 121 63 82 57 65 84 58 152 136 124 151 136 126 152 138 126 
143 131 117 49 67 35 69 82 55 127 124 111 138 132 120 141 134 121 141 132 121 
145 133 119 131 124 107 154 137 125 150 134 122 147 133 122 116 113 95 
142 131 118 153 137 126 146 135 123 141 131 119 129 122 107 133 125 110 
130 127 114 64 83 58 134 127 116 148 142 136 152 140 130 147 135 121 
119 115 96 154 138 125 153 136 125 147 132 120 113 110 92 146 133 118 
155 138 125 155 138 125 149 136 127 132 129 129 145 133 122 117 113 96 
147 133 122 120 116 111 130 121 115 127 122 109 138 129 116 129 124 112 
101 105 86 150 133 125 139 128 123 126 121 109 134 128 115 146 136 128 
120 126 117 130 128 117 125 130 125 144 141 138 145 140 135 149 137 127 
129 127 117 139 130 119 147 133 120 133 126 114 64 83 60 79 93 71 141 132 120 
148 135 126 147 136 127 138 132 125 124 120 103 116 113 97 77 92 70 80 94 73 
98 106 87 144 133 125 117 116 99 134 125 112 154 137 125 150 135 124 
143 134 125 140 130 117 150 135 124 153 137 126 146 135 122 125 121 108 
76 85 58 109 108 87 151 137 124 112 114 97 150 139 132 146 142 140 152 140 128 
149 136 122 138 129 114 139 128 113 116 114 97 83 94 73 60 78 47 115 113 93 
156 138 125 155 138 125 150 135 123 145 134 123 
