P3
64 64
255
144 143 141 141 137 135 141 142 141 142 141 141 145 142 141 136 127 121 
133 128 123 132 128 124 138 129 125 139 132 127 146 146 145 149 150 150 
155 153 153 154 151 150 149 144 142 140 132 126 130 116 105 143 136 130 
145 143 140 138 132 129 136 127 120 135 127 119 146 140 135 150 148 145 
150 149 148 152 152 152 154 152 151 156 155 156 153 153 153 153 154 154 
153 152 151 154 153 152 155 153 153 149 146 144 130 116 106 138 130 125 
151 151 151 149 149 150 139 139 136 137 136 132 139 139 135 143 144 143 
143 144 142 140 136 133 132 122 115 131 117 108 133 121 113 140 132 127 
150 149 147 157 159 158 159 159 159 158 157 158 154 154 155 151 151 151 
147 147 147 146 147 147 141 135 131 152 154 153 156 158 158 146 141 137 
139 132 126 135 124 117 140 134 129 132 121 112 157 162 163 139 132 125 
140 140 139 144 143 142 142 136 131 133 121 112 127 113 105 133 130 126 
140 136 134 145 141 139 148 148 148 149 149 148 149 144 142 149 142 140 
145 140 135 144 139 135 145 138 133 144 138 132 144 140 137 139 133 130 
138 131 126 141 133 128 145 140 134 150 147 143 151 149 146 152 151 150 
154 152 150 153 152 150 151 150 149 152 153 154 158 160 161 157 155 154 
156 152 151 151 147 145 141 137 131 138 131 124 155 157 157 157 162 162 
146 147 145 141 140 136 140 139 136 142 142 137 140 137 133 140 137 132 
137 129 124 136 127 121 138 128 122 144 136 132 148 146 143 145 139 136 
152 149 146 156 156 156 153 153 153 150 150 150 147 146 145 146 146 145 
139 132 126 153 155 154 156 159 159 156 159 158 155 157 156 149 149 146 
145 141 137 134 127 119 158 163 164 146 146 145 141 139 137 143 141 139 
140 134 130 137 131 125 139 133 128 157 162 162 148 148 147 151 150 150 
150 149 150 149 148 147 147 141 138 139 126 121 135 123 116 141 133 128 
148 143 139 148 143 138 138 131 126 138 134 130 145 140 138 147 142 140 
149 144 139 151 147 143 148 144 141 148 144 142 150 147 142 149 147 144 
142 141 139 144 143 143 153 152 153 154 152 152 150 145 143 146 143 140 
140 133 129 139 133 128 153 154 153 158 162 162 157 162 162 149 145 144 
135 124 117 129 113 104 134 126 118 141 137 132 146 145 143 149 149 147 
148 141 138 149 145 143 133 119 112 126 108 97 140 134 129 153 153 152 
152 151 150 148 145 141 145 145 141 147 148 145 153 156 155 157 161 161 
158 161 160 159 161 160 157 157 156 142 136 131 145 145 140 141 141 134 
145 145 146 143 142 142 141 138 135 141 136 133 140 136 133 140 136 131 
134 127 125 136 127 120 143 137 133 152 151 151 151 149 150 153 153 154 
160 166 167 142 132 128 139 129 123 141 134 129 148 141 138 144 138 135 
130 113 105 133 122 115 147 144 143 149 146 144 147 143 140 148 147 146 
137 131 126 144 141 137 149 150 149 144 142 139 136 134 132 141 142 142 
149 150 152 150 148 149 143 138 136 145 144 143 131 121 117 130 120 115 
138 131 129 144 141 140 148 148 148 147 144 143 127 111 101 126 108 97 
131 117 108 141 137 132 152 153 153 157 162 162 155 154 153 154 151 150 
137 127 119 133 120 110 153 152 151 154 153 153 150 147 145 143 138 133 
145 143 138 141 139 132 149 151 148 151 154 151 150 150 146 151 149 145 
153 151 150 152 152 151 147 150 146 146 150 145 144 143 143 144 141 141 
141 138 134 139 134 130 140 134 129 138 128 124 131 122 116 130 117 107 
153 154 152 158 161 161 153 155 156 150 149 149 150 149 148 143 136 132 
134 122 114 150 147 144 147 142 142 146 143 143 133 126 122 135 132 128 
140 137 134 146 144 142 143 138 135 135 130 124 123 111 103 137 136 133 
146 152 152 141 143 143 131 129 127 137 138 137 142 143 144 142 141 141 
135 130 129 128 119 115 119 106 99 119 107 99 130 121 117 138 133 132 
143 145 146 143 143 143 133 122 117 125 109 100 137 128 124 143 137 133 
153 153 153 156 159 158 149 144 142 145 137 133 154 148 145 156 152 150 
163 162 163 158 157 157 146 140 136 142 136 131 147 149 144 148 150 145 
140 138 133 136 129 123 133 122 114 135 126 117 138 131 125 142 139 136 
147 148 146 149 152 151 141 139 139 136 128 123 136 127 122 129 112 104 
137 126 122 145 142 141 140 137 136 139 133 130 149 148 145 155 156 155 
154 156 156 156 159 159 145 140 138 143 137 134 148 143 140 151 149 147 
151 152 152 137 133 131 127 122 119 128 123 121 138 136 135 141 140 137 
127 117 111 133 126 124 128 122 117 136 138 137 138 141 141 135 133 133 
129 125 122 128 125 123 134 133 131 134 134 133 132 130 129 125 117 114 
119 107 101 119 107 101 126 119 115 130 127 126 135 134 134 134 131 130 
132 126 121 121 105 97 126 114 106 131 120 114 141 136 132 142 134 130 
147 140 137 145 138 134 153 147 144 158 154 152 162 160 159 158 155 154 
146 140 135 142 136 130 150 149 144 150 151 148 141 137 131 136 127 120 
141 135 130 154 156 154 136 130 125 136 130 125 148 148 146 153 157 156 
134 133 132 135 134 132 138 134 129 129 112 103 132 118 112 136 127 123 
154 156 155 146 143 140 151 149 146 150 147 144 158 160 160 160 165 165 
158 162 162 144 139 136 148 145 142 141 134 131 127 115 107 126 117 111 
119 108 101 120 109 104 123 112 107 133 131 128 134 130 129 137 139 139 
136 140 140 131 130 127 132 128 128 123 117 115 122 114 111 126 122 120 
126 123 121 126 124 121 127 123 122 127 123 121 127 121 120 127 122 119 
126 124 120 126 121 118 125 119 115 113 99 89 113 97 87 114 98 88 130 123 118 
121 107 97 134 125 118 154 151 152 156 156 155 159 161 162 154 151 149 
152 147 144 151 145 142 151 144 141 149 143 139 137 127 121 159 164 165 
153 154 152 151 149 143 148 146 140 144 141 134 144 142 137 132 122 113 
134 126 117 149 150 146 157 162 160 135 127 124 135 130 126 138 132 128 
151 150 148 148 145 142 128 112 102 142 136 133 155 158 156 144 136 132 
142 132 126 148 143 140 156 159 158 160 166 167 146 144 141 145 142 140 
137 133 130 121 109 100 119 109 102 119 109 102 135 137 136 130 127 127 
130 128 126 134 132 133 131 131 131 129 128 127 127 124 123 120 115 112 
104 91 83 104 92 84 119 115 112 121 119 116 120 117 114 122 119 117 
124 121 120 127 124 123 127 125 125 126 124 124 124 120 118 123 118 115 
129 131 129 116 103 97 117 105 98 141 139 139 141 139 138 144 144 144 
138 131 128 151 151 151 157 163 164 153 151 150 149 144 139 149 143 139 
151 145 140 144 135 129 133 120 112 154 155 154 152 151 148 154 153 148 
153 153 148 146 143 138 137 129 123 130 117 108 132 119 109 149 147 142 
161 166 163 160 166 166 150 149 148 139 131 124 159 163 164 149 147 145 
130 115 106 147 145 141 158 161 161 136 125 116 129 113 104 134 124 116 
144 139 135 156 159 158 151 153 152 144 141 138 136 133 129 120 117 116 
116 114 112 127 127 125 136 142 142 121 117 113 122 118 115 125 123 122 
125 124 123 121 119 118 118 112 111 118 114 112 112 108 104 104 95 88 
117 115 113 123 126 126 119 117 115 116 113 111 118 116 115 119 117 115 
123 120 119 126 123 123 127 126 126 128 126 126 126 123 123 118 110 106 
124 116 113 126 121 118 137 137 137 142 145 145 136 127 124 139 136 132 
145 140 139 143 135 132 146 139 134 157 156 154 156 155 152 137 125 117 
130 113 104 147 141 137 153 150 148 150 147 142 146 142 137 143 139 134 
137 130 123 130 116 105 135 123 115 155 152 150 164 165 165 156 159 159 
147 144 143 139 132 126 136 127 120 138 126 120 142 135 129 147 146 143 
148 146 142 134 123 115 129 115 105 130 116 107 136 126 120 146 143 139 
138 131 126 137 131 126 121 113 106 117 114 112 115 114 114 125 124 123 
124 123 121 105 95 88 113 107 103 119 117 114 116 113 111 116 113 112 
117 117 116 114 109 106 101 91 84 107 101 97 120 120 120 119 124 124 
115 114 111 113 111 109 113 111 110 116 113 111 118 115 113 115 111 110 
123 127 127 125 125 126 120 115 113 117 111 107 122 119 116 131 135 135 
129 126 125 124 115 110 132 131 129 137 136 134 137 132 129 126 113 105 
132 122 113 157 159 156 158 159 154 150 147 144 147 143 141 151 148 146 
152 150 149 149 145 142 147 142 137 147 143 138 143 137 131 134 124 116 
137 127 120 152 148 146 159 156 156 135 124 118 137 127 121 137 127 121 
126 108 97 134 122 115 151 149 146 154 154 152 149 146 142 147 142 137 
146 139 134 141 132 128 139 131 128 135 129 125 119 105 97 115 102 94 
117 109 102 121 116 113 121 119 117 119 115 114 108 99 93 99 86 78 104 94 88 
107 100 96 108 102 99 115 118 116 119 123 124 117 120 120 108 105 100 
103 95 90 116 118 118 115 120 120 113 113 112 115 117 118 115 117 117 
115 112 112 111 107 104 98 87 79 105 98 94 103 96 90 106 97 91 117 111 108 
123 121 118 124 125 123 115 108 102 112 102 94 134 137 136 137 138 137 
138 134 132 128 120 113 144 140 136 150 148 142 151 149 142 149 145 140 
150 149 148 151 152 152 151 151 151 149 147 144 153 151 149 158 157 155 
155 154 151 144 142 137 140 137 131 142 139 136 144 141 138 130 115 106 
131 116 106 148 147 144 130 115 105 130 116 106 142 136 131 154 154 153 
149 144 141 150 149 146 151 149 147 148 144 144 141 137 137 135 134 133 
120 111 105 109 95 87 110 98 90 120 115 112 127 129 130 117 116 114 
107 101 96 104 99 93 102 94 88 115 117 116 110 108 106 111 109 108 114 118 119 
114 117 118 109 107 104 109 105 102 109 107 104 109 109 107 108 107 105 
109 106 106 101 96 92 93 82 75 105 100 98 103 96 93 97 88 82 110 108 107 
119 123 123 118 116 114 123 120 118 116 112 109 113 105 101 108 99 92 
112 102 96 127 119 115 134 130 127 141 138 136 145 144 140 147 144 138 
146 142 136 145 139 135 151 149 148 152 152 152 143 136 131 131 117 109 
149 145 143 157 154 152 153 152 149 144 146 141 139 138 131 138 134 129 
141 138 135 136 127 119 135 125 118 154 155 154 139 129 126 146 143 140 
143 137 133 152 151 151 155 155 154 150 150 149 140 135 132 148 147 148 
141 141 141 141 146 147 124 122 118 107 94 86 111 103 96 109 101 96 107 99 94 
106 101 98 113 115 115 116 119 119 110 108 107 115 118 118 115 115 116 
111 112 111 109 111 111 109 112 111 107 104 104 102 95 92 101 95 92 104 101 99 
104 101 99 101 94 92 86 76 69 86 73 66 92 84 78 111 110 109 108 105 103 
108 108 107 114 115 115 116 113 114 119 118 118 112 110 108 107 100 94 
113 107 103 116 109 104 119 112 108 125 119 115 134 131 129 141 140 137 
141 138 135 122 106 98 135 127 121 155 157 156 159 162 162 153 153 151 
144 139 136 150 147 146 141 134 128 137 130 123 137 137 130 139 143 137 
149 149 146 152 152 149 129 114 105 131 117 109 152 153 153 151 152 152 
155 157 157 145 142 140 149 144 143 155 155 155 149 150 150 135 128 125 
137 134 132 140 141 142 131 131 130 114 106 101 117 113 110 125 129 129 
115 115 112 102 93 89 95 83 76 107 108 105 111 111 111 110 110 109 113 114 114 
110 114 115 108 112 112 107 107 107 106 105 104 95 89 86 87 78 71 96 88 86 
101 97 96 101 97 96 96 90 87 85 74 69 84 72 64 91 83 79 96 88 85 95 87 82 
107 104 104 109 107 107 109 106 104 115 118 118 118 122 123 119 121 121 
116 115 113 116 112 110 114 107 102 117 110 105 128 124 123 136 135 134 
138 137 135 129 122 116 144 143 142 157 161 162 161 167 168 158 162 162 
153 153 153 149 147 146 140 131 125 142 136 131 154 157 157 147 149 147 
146 147 144 149 149 146 152 152 150 130 115 106 144 141 136 154 158 158 
161 167 168 155 157 156 129 113 104 143 134 132 148 146 146 124 112 105 
126 117 113 134 130 130 128 123 122 118 111 107 111 104 99 113 109 106 
115 116 115 98 90 83 92 81 74 105 104 103 107 108 107 107 107 105 102 101 100 
103 105 105 104 107 107 103 105 104 103 102 100 96 93 90 92 85 83 97 93 91 
99 95 94 97 93 92 91 85 81 82 71 65 80 69 62 85 75 69 93 85 81 96 91 87 
106 107 107 107 109 109 106 107 106 113 117 117 115 119 120 115 118 117 
116 114 113 114 109 106 110 102 95 112 104 98 123 118 115 133 133 131 
136 138 135 140 141 136 143 140 138 146 145 144 152 154 153 148 147 145 
151 148 146 154 152 150 156 158 157 153 153 151 161 167 168 159 166 167 
144 146 142 131 131 126 143 139 134 133 121 113 146 140 137 150 149 148 
158 162 163 158 161 161 131 120 113 145 140 138 147 143 143 132 124 122 
122 114 110 130 131 131 126 125 125 112 104 100 103 93 86 98 88 80 105 100 97 
93 84 76 102 100 96 99 94 90 101 98 96 99 95 92 95 90 87 90 82 77 99 97 96 
100 100 100 100 97 95 91 87 85 95 94 91 96 94 93 95 92 92 92 89 87 83 77 72 
77 66 59 78 67 60 82 72 65 82 72 65 88 80 75 98 94 93 97 93 91 101 100 99 
109 113 114 111 115 116 107 107 106 110 106 104 110 105 103 111 105 102 
121 120 118 125 123 121 128 127 125 132 131 129 134 133 130 136 132 127 
138 132 129 141 137 135 146 142 140 152 149 147 160 164 165 158 161 161 
150 146 143 155 156 155 159 164 164 136 133 130 129 127 122 148 144 141 
152 147 146 150 144 143 154 148 150 153 150 151 156 159 161 149 152 152 
145 146 147 142 140 139 130 123 119 115 106 100 128 129 129 127 132 133 
117 117 116 97 86 79 92 80 73 89 77 69 90 81 73 95 90 85 100 99 97 103 105 104 
92 89 86 92 88 85 94 91 89 96 93 92 96 95 93 97 94 92 95 93 91 94 93 91 
93 92 90 91 88 86 88 85 83 91 92 92 88 88 86 79 71 65 87 81 78 87 79 75 
86 78 75 91 84 81 90 82 77 97 94 90 106 110 111 109 113 113 104 104 103 
104 99 96 107 101 98 115 114 112 123 127 128 126 128 127 128 124 123 
126 124 124 126 123 122 125 119 116 131 125 121 147 148 149 147 142 142 
137 130 123 156 160 159 160 166 166 147 144 141 147 144 141 153 154 153 
150 150 148 142 136 132 154 152 151 145 139 135 127 111 100 139 126 121 
148 140 141 152 153 154 150 155 155 134 132 130 134 133 130 129 126 124 
120 115 111 114 108 103 114 110 109 107 102 98 93 82 73 90 78 70 94 88 82 
103 104 102 103 105 103 104 108 108 103 106 107 100 104 105 91 89 86 89 86 84 
88 83 80 90 85 83 95 92 91 94 93 91 94 94 92 92 91 89 90 88 86 90 88 86 
92 94 92 91 91 89 87 83 81 85 78 75 90 85 83 86 79 76 84 77 71 86 78 74 
100 102 102 104 107 108 105 108 108 95 90 88 94 85 80 99 93 87 108 102 100 
122 121 122 124 124 123 126 125 124 124 124 124 118 113 111 116 108 103 
123 114 109 139 135 134 148 145 145 143 141 138 139 134 130 138 128 122 
132 119 112 139 132 125 143 138 134 150 145 141 153 148 145 149 146 143 
139 129 123 127 110 100 127 110 99 143 135 133 148 144 145 133 126 122 
119 108 100 132 131 130 130 132 131 128 126 125 123 120 119 119 117 115 
112 108 106 96 87 80 90 80 73 99 96 93 106 110 110 102 102 102 102 106 106 
100 104 104 97 99 99 84 81 78 84 82 81 89 87 86 92 91 89 92 89 89 94 93 92 
94 94 94 89 88 85 91 88 87 93 91 90 95 94 93 94 95 95 88 85 82 88 86 84 
92 91 90 85 79 76 78 69 63 77 66 60 85 79 74 95 95 93 89 83 78 86 77 72 
88 77 71 88 75 68 96 86 82 116 115 114 120 117 117 118 117 115 111 106 102 
106 95 87 109 95 88 114 103 96 131 124 120 141 138 136 145 143 142 142 135 129 
128 112 103 128 114 104 130 117 109 137 127 120 152 150 147 162 161 160 
144 137 134 132 119 111 144 139 135 152 152 149 148 146 146 140 137 136 
138 135 131 119 108 102 126 124 123 129 129 130 128 128 128 125 124 123 
120 117 116 109 104 102 104 101 99 103 103 102 102 103 102 95 91 88 94 89 87 
99 102 103 96 98 98 96 98 98 91 91 91 88 86 86 88 87 86 90 88 87 91 89 88 
93 90 89 89 86 85 78 70 65 78 69 63 92 88 86 95 92 91 94 92 91 92 92 92 
95 99 99 95 98 99 87 83 80 76 68 62 75 65 58 76 65 59 77 67 60 78 67 60 
83 73 67 86 74 68 85 73 66 98 90 86 114 116 116 114 114 112 114 112 109 
111 107 103 103 90 81 106 94 84 114 105 97 126 121 116 137 133 129 142 138 137 
145 138 136 137 128 121 133 121 111 131 119 110 139 130 123 157 156 154 
165 166 166 149 147 145 136 127 119 159 164 165 159 165 166 148 151 149 
131 123 119 136 132 130 132 128 126 133 132 132 129 128 129 123 123 122 
116 114 111 114 111 111 104 99 97 98 93 90 107 110 110 103 105 104 86 81 76 
88 84 80 97 101 102 95 99 99 95 98 99 95 98 99 94 95 95 91 89 89 91 88 86 
92 91 88 89 89 86 88 86 85 82 76 72 81 74 69 87 81 78 90 86 85 93 91 89 
93 90 89 94 95 95 93 96 96 86 83 80 77 67 60 75 65 59 88 86 85 89 88 87 
78 69 64 85 78 73 90 84 79 87 77 70 101 99 95 112 115 116 114 116 116 
112 107 107 119 114 112 117 112 111 114 111 109 118 116 112 125 121 117 
125 115 108 135 129 125 138 132 126 139 132 125 142 136 130 147 144 140 
154 153 151 159 160 158 161 163 161 154 155 155 149 147 145 161 167 168 
157 163 164 140 139 137 131 123 119 136 133 132 134 134 134 127 126 125 
123 121 121 120 118 117 115 112 111 114 112 112 105 101 100 91 83 77 87 81 76 
85 78 73 93 90 87 92 93 92 95 98 99 95 98 99 95 98 98 95 99 99 95 97 97 
92 89 88 91 88 86 90 88 86 89 86 85 89 87 85 87 83 81 82 77 72 76 66 60 
85 81 78 92 89 89 95 92 91 91 85 84 80 72 68 79 72 68 81 74 69 79 71 65 
79 73 68 81 74 69 87 85 82 87 81 79 94 90 87 99 98 96 107 111 112 110 112 112 
109 109 109 109 106 103 123 120 121 123 121 121 119 120 118 118 114 109 
116 107 100 126 118 114 132 125 122 136 130 125 151 153 150 155 158 157 
152 151 150 156 157 156 157 160 158 159 163 161 148 145 142 143 136 131 
159 166 166 141 136 132 129 122 116 144 147 147 137 139 140 129 130 130 
118 116 113 117 115 113 119 116 115 119 119 119 118 120 121 111 111 111 
95 91 87 90 83 79 94 91 88 98 102 103 96 99 99 94 96 96 89 85 83 84 79 76 
93 94 94 92 93 92 92 87 86 93 92 92 88 84 82 88 85 83 86 82 79 88 83 81 
80 72 68 80 72 68 86 82 80 91 88 86 94 92 91 89 86 84 78 69 65 76 66 60 
78 70 65 75 66 59 76 67 62 78 70 64 87 85 83 86 82 79 94 96 95 93 93 91 
105 107 108 107 107 105 108 109 109 106 104 102 119 122 120 121 121 119 
122 118 116 124 119 116 113 101 94 112 96 88 125 116 110 137 133 130 
152 153 152 155 155 154 145 142 140 144 141 140 153 156 154 158 163 162 
153 155 157 153 155 155 159 165 166 148 149 148 144 144 145 145 149 151 
135 138 140 124 123 122 111 106 101 118 119 117 115 114 112 116 115 114 
119 122 123 113 116 116 100 97 95 93 87 84 88 82 78 97 99 100 95 98 98 
95 98 99 88 85 82 80 72 66 89 86 84 90 88 84 89 82 81 89 85 85 92 94 94 
89 87 86 88 86 83 89 85 82 83 78 74 84 79 76 86 82 79 89 85 83 92 89 88 
92 90 89 83 79 76 75 66 60 79 72 66 78 69 65 75 67 60 89 90 89 94 96 96 
90 88 87 98 101 102 94 94 92 99 97 96 102 99 98 101 97 94 105 102 99 
117 119 116 123 126 124 121 118 115 123 118 115 127 122 118 124 116 112 
130 123 121 141 141 140 155 157 157 158 158 158 144 139 137 141 136 134 
149 149 147 152 155 153 147 150 150 160 166 167 158 164 165 152 156 158 
148 151 154 143 147 150 133 133 134 119 113 110 109 101 96 122 126 126 
114 115 114 107 103 100 115 118 118 112 113 114 104 102 102 92 87 84 84 77 73 
94 95 95 98 98 98 98 98 99 89 85 83 92 89 88 97 97 97 93 92 91 83 76 73 
86 84 82 94 96 96 92 91 89 90 88 87 88 84 82 85 79 76 83 78 74 84 80 76 
86 83 80 88 86 85 87 83 82 89 86 85 86 81 78 78 69 63 75 66 59 75 64 57 
81 76 72 82 79 75 90 91 89 96 100 100 100 100 100 101 100 100 102 100 100 
104 101 99 108 106 103 113 111 109 117 116 114 121 119 118 124 123 121 
126 125 121 122 116 111 136 136 134 149 155 155 146 145 143 143 135 129 
150 145 143 146 141 140 147 144 142 147 146 143 144 146 146 152 154 155 
155 159 160 150 151 152 144 146 147 140 142 144 135 136 136 118 113 109 
106 96 89 107 103 99 103 97 92 104 101 98 112 112 113 112 112 114 105 105 105 
99 98 97 96 94 93 95 94 93 100 99 100 98 98 98 91 90 88 92 91 90 98 98 98 
94 92 92 80 75 70 80 73 70 94 94 94 95 92 92 90 88 86 84 79 76 80 73 68 
83 79 75 83 78 73 83 78 75 86 83 83 91 89 90 94 95 95 89 86 85 82 76 72 
76 66 60 77 69 64 78 70 65 82 78 72 89 87 84 91 88 87 93 89 88 101 99 101 
102 100 101 106 103 102 109 106 104 110 107 103 114 111 110 120 122 121 
126 130 130 128 127 125 134 137 135 135 137 133 141 142 139 126 112 103 
126 108 97 143 132 128 151 146 145 148 145 143 147 145 143 153 151 152 
154 153 154 152 154 154 147 149 148 140 139 138 137 136 135 138 138 139 
131 130 130 117 116 114 110 107 104 112 111 107 110 110 108 108 106 106 
105 103 104 101 102 101 98 99 98 95 97 97 92 90 88 92 90 89 94 92 92 91 88 87 
92 89 88 95 94 94 92 90 89 82 76 72 82 75 71 92 89 88 94 91 91 92 90 89 
89 86 83 84 79 76 85 81 78 83 78 75 79 72 68 85 83 82 91 91 91 95 95 95 
94 91 90 89 86 84 84 79 75 90 91 89 86 84 82 92 89 86 98 97 96 92 91 89 
79 71 65 91 86 83 103 101 101 103 101 99 106 102 99 110 106 104 113 110 109 
121 124 124 127 130 131 130 130 129 136 136 136 139 139 138 138 138 137 
127 117 110 128 114 104 145 139 134 157 157 156 154 153 153 154 153 153 
159 156 158 158 157 158 153 155 155 147 148 147 138 137 135 136 134 133 
136 137 138 131 133 135 121 121 121 118 120 119 109 108 105 106 103 101 
105 102 102 101 99 100 99 99 98 95 95 93 91 89 86 91 88 85 93 93 92 92 90 89 
90 88 86 94 95 95 95 98 98 92 91 89 85 81 76 83 77 72 90 85 83 94 90 89 
93 91 89 92 90 89 90 88 86 86 82 79 81 77 73 80 73 69 87 85 84 92 93 94 
95 95 95 95 93 92 91 90 88 86 83 80 83 81 77 83 76 73 90 85 82 94 92 91 
91 89 88 77 68 63 81 72 66 101 98 98 103 100 98 103 99 97 105 99 98 109 104 103 
120 122 122 123 123 122 129 128 128 135 134 135 135 134 134 137 136 135 
145 147 145 145 143 140 140 129 122 161 161 161 155 154 154 157 157 159 
162 164 164 161 163 163 155 157 157 148 150 149 141 140 139 135 136 135 
133 136 137 128 131 133 124 125 125 117 117 116 102 96 89 98 93 86 103 101 100 
97 94 92 94 90 88 79 71 65 78 70 65 86 84 81 95 98 99 94 94 94 90 88 88 
95 98 98 94 95 95 90 89 88 89 88 87 83 78 74 89 85 83 92 89 88 93 90 89 
93 90 89 92 89 88 89 87 85 85 82 80 86 83 82 92 92 92 95 98 99 96 98 98 
94 92 92 89 87 85 84 79 76 77 69 63 76 67 62 81 73 69 86 82 79 89 86 83 
78 70 64 89 83 80 101 100 99 96 91 88 101 97 95 96 88 83 101 94 89 119 119 117 
126 127 126 128 125 127 127 125 126 127 123 122 135 132 129 145 143 142 
150 145 144 153 150 149 158 157 157 159 158 158 159 159 159 159 163 163 
158 160 161 153 154 154 148 148 148 141 142 142 136 138 138 131 133 134 
126 129 129 123 123 123 118 118 119 103 97 94 98 94 89 104 101 100 100 100 98 
98 98 98 80 71 65 75 65 58 81 76 72 92 94 93 91 88 87 86 82 81 86 83 82 
89 86 85 90 88 85 88 83 81 88 83 81 89 86 85 91 88 86 92 89 88 92 89 88 
92 89 88 91 89 87 90 88 86 91 89 89 94 94 94 96 97 97 95 95 95 94 92 92 
92 89 89 85 81 77 76 68 62 75 65 59 80 72 68 86 81 78 90 88 86 94 93 93 
97 96 96 101 99 98 104 101 100 102 98 96 94 85 79 98 88 82 114 109 106 
123 121 119 124 120 121 125 121 121 122 117 114 132 130 128 149 149 149 
149 144 143 160 160 160 157 157 157 160 161 161 161 162 162 151 155 157 
150 153 155 148 149 149 140 136 134 132 128 126 138 138 138 132 132 132 
125 125 123 122 120 119 117 119 119 114 117 118 109 111 111 104 104 103 
102 101 100 97 96 94 77 69 62 75 66 59 75 65 58 78 71 65 85 80 76 83 79 77 
85 81 79 90 86 85 94 91 89 97 94 94 96 94 93 92 89 88 86 81 78 86 81 78 
88 84 83 79 72 67 89 86 85 92 90 89 94 92 91 94 93 92 95 94 93 96 94 94 
96 94 94 95 94 94 88 85 82 77 69 64 77 68 62 88 82 79 93 89 88 94 91 91 
94 91 91 96 93 92 99 96 94 103 99 98 106 105 104 101 95 92 102 95 90 101 93 87 
109 102 95 119 113 109 125 122 120 128 125 124 140 142 142 148 151 153 
158 160 161 160 163 162 151 149 144 162 165 166 162 167 169 150 152 155 
148 151 152 145 145 144 118 103 94 115 102 94 136 136 136 132 131 129 
125 124 122 122 121 120 116 116 115 112 114 115 107 109 109 102 102 101 
101 100 99 99 99 97 89 85 82 78 70 65 76 68 62 76 67 62 81 75 71 82 78 74 
86 82 81 92 89 87 94 89 87 99 97 96 97 95 95 93 90 89 90 87 86 90 88 86 
90 86 85 88 83 82 89 86 85 92 89 88 84 78 73 82 75 71 94 91 89 97 94 93 
95 95 95 90 89 87 81 73 69 76 68 62 78 69 64 89 85 82 94 89 89 91 88 86 
90 86 85 95 91 89 98 95 94 102 100 98 104 101 99 103 98 93 113 113 113 
118 122 122 104 95 89 117 111 106 127 123 121 138 142 142 146 151 152 
149 152 153 156 158 159 160 163 162 160 165 163 162 167 168 163 168 170 
158 163 166 155 159 161 147 147 146 132 126 121 128 122 118 136 134 133 
123 118 115 125 124 123 123 124 125 117 119 119 108 108 106 100 96 92 
102 99 97 101 99 98 97 95 94 94 92 90 89 85 83 84 78 74 79 72 67 78 72 66 
83 76 73 80 72 68 79 69 64 81 73 68 94 90 89 92 89 88 92 90 89 92 90 89 
92 91 89 92 88 87 89 83 82 91 85 84 90 86 86 80 72 68 78 68 62 87 81 77 
97 94 94 92 91 89 94 96 96 85 81 78 74 64 57 77 68 62 86 80 77 87 82 79 
80 72 69 77 69 64 93 88 86 94 91 87 102 100 97 108 107 106 109 103 102 
111 108 107 111 108 106 105 96 91 116 112 108 125 123 120 136 139 139 
142 144 145 146 147 148 153 155 157 154 157 155 154 153 151 158 158 157 
163 165 166 160 164 166 158 160 162 147 148 149 141 141 140 131 125 122 
119 111 105 122 116 111 120 116 114 120 121 121 119 122 123 112 113 112 
98 92 87 101 98 95 101 99 98 97 95 94 93 90 90 92 90 88 85 81 76 83 79 75 
81 75 70 81 75 69 75 66 59 75 64 57 83 76 73 91 87 86 89 87 85 91 89 88 
92 91 90 94 92 91 91 88 86 82 74 70 86 79 77 90 87 87 92 88 88 96 92 91 
98 94 92 97 94 93 91 89 87 95 98 99 95 99 99 78 70 66 78 69 64 83 76 72 
86 82 79 83 78 75 88 85 83 97 96 96 105 104 104 108 109 108 110 111 110 
111 107 106 110 102 100 108 101 96 111 105 100 119 117 114 125 124 121 
130 128 124 136 134 132 147 150 151 154 155 156 156 159 158 142 133 127 
146 137 134 163 164 166 157 157 158 155 156 157 146 148 152 139 141 143 
121 112 106 108 93 84 105 91 83 106 95 89 112 108 104 112 111 109 102 96 91 
97 90 85 101 97 95 102 100 99 100 98 97 95 92 91 88 83 81 86 82 79 88 85 83 
83 78 73 78 69 63 75 65 59 75 65 58 75 65 59 86 80 78 91 88 87 91 89 88 
92 90 89 96 91 91 93 87 86 82 78 74 81 76 73 88 83 81 94 91 90 102 100 101 
102 99 98 95 93 92 83 78 73 88 86 84 91 91 91 79 72 67 80 72 68 91 88 86 
95 94 93 92 91 90 96 100 100 100 103 103 106 108 108 111 111 111 112 110 110 
110 104 103 111 105 102 116 112 109 120 118 116 125 124 123 128 126 126 
129 126 125 139 139 138 150 153 153 160 164 164 165 169 170 163 165 166 
157 157 158 162 164 168 150 146 144 151 149 148 149 151 154 142 145 148 
132 129 127 113 101 93 107 94 85 105 95 88 112 106 102 110 105 102 103 96 93 
99 93 89 100 95 91 97 94 90 96 92 90 91 86 84 83 78 73 83 78 73 88 86 83 
88 85 82 80 73 68 75 65 59 75 64 57 77 67 62 82 74 69 89 85 83 91 89 88 
92 90 89 94 89 88 91 85 82 82 78 75 79 75 71 83 78 74 89 84 82 97 93 92 
95 92 91 95 92 91 89 86 84 85 80 76 82 75 71 80 72 68 83 78 73 91 89 88 
95 95 94 95 92 92 98 97 97 102 103 103 108 108 108 111 111 112 112 110 110 
111 105 103 112 107 104 119 116 114 122 122 120 124 124 123 116 108 103 
117 106 98 136 133 130 149 154 153 159 164 164 161 167 168 162 167 169 
161 165 169 161 165 169 139 130 123 133 121 112 149 149 148 151 156 158 
137 137 137 126 121 118 126 122 119 123 117 113 114 107 103 111 105 101 
110 107 104 104 100 97 97 90 87 91 83 77 86 77 71 82 73 68 81 72 67 81 74 69 
84 79 75 84 80 76 75 66 59 75 64 57 75 65 59 82 75 71 75 64 57 85 80 76 
92 90 89 94 90 89 94 91 91 92 89 88 86 83 80 82 76 73 78 70 65 78 69 65 
81 72 69 89 83 82 95 93 91 95 93 91 91 86 85 88 83 81 89 83 81 88 83 80 
86 82 79 88 84 81 91 88 87 89 83 79 99 97 96 106 106 106 110 110 110 
112 111 111 109 107 104 101 92 86 113 108 103 117 116 112 117 118 114 
118 114 111 136 136 133 146 150 149 149 154 154 154 158 159 160 166 167 
157 162 164 159 163 166 160 165 169 137 125 118 145 139 134 157 158 158 
155 159 160 145 147 148 139 139 140 135 134 134 123 119 116 102 90 82 
100 89 81 111 106 103 106 102 100 94 86 81 85 75 69 80 69 61 79 68 61 81 73 67 
81 75 70 83 76 73 79 72 68 77 68 62 76 66 60 79 72 68 88 86 84 87 84 82 
92 89 88 93 90 89 93 90 89 94 91 91 92 91 89 91 88 85 86 82 79 78 70 66 
75 65 59 75 64 58 75 66 59 92 88 84 95 92 90 85 78 75 79 70 66 91 87 85 
91 87 85 83 76 72 82 75 72 91 88 86 94 89 87 100 98 98 107 106 105 112 112 112 
113 113 112 104 97 94 96 82 74 108 100 94 116 115 110 117 115 112 125 124 122 
141 144 143 150 153 153 148 149 148 142 138 134 152 153 153 152 155 156 
157 162 163 160 165 166 156 156 155 158 159 158 158 160 160 150 150 151 
144 144 144 139 138 138 135 135 135 124 122 120 110 100 94 101 90 83 106 99 95 
102 97 94 92 83 78 85 74 66 81 69 62 81 71 64 85 78 74 86 81 77 86 81 78 
88 85 82 92 90 88 88 83 81 87 85 83 82 76 72 91 88 86 92 91 90 91 87 86 
78 70 65 89 86 84 93 90 89 84 79 76 91 88 87 86 80 77 80 72 68 76 66 61 
78 69 63 86 81 78 89 83 81 82 75 70 80 72 67 91 85 83 92 89 86 83 76 73 
82 75 71 91 88 87 99 98 97 105 103 103 109 109 109 114 116 116 117 117 117 
107 101 97 101 91 85 113 108 105 120 117 115 130 129 128 137 137 137 
136 133 131 143 142 141 137 127 123 129 113 103 153 153 152 157 158 158 
158 162 159 160 162 161 162 165 166 162 164 165 160 161 161 152 151 150 
146 143 141 140 137 136 135 135 135 127 125 122 113 106 102 109 100 95 
110 105 102 105 99 96 94 84 79 87 75 67 85 73 65 87 78 72 92 88 84 89 84 81 
87 83 80 89 85 82 89 85 82 88 85 82 83 78 75 75 65 58 82 75 70 92 89 88 
85 79 76 76 66 60 88 85 82 92 89 88 95 94 94 95 94 94 92 89 88 87 82 79 
79 72 67 77 69 63 82 75 70 82 75 72 79 70 65 78 69 63 92 88 85 94 91 89 
86 82 78 86 82 78 94 90 89 102 100 99 101 99 96 102 97 94 116 117 116 
118 118 118 107 101 97 107 99 95 116 114 111 116 111 107 111 98 90 135 131 129 
136 132 130 141 139 137 158 160 160 161 162 162 161 165 167 160 163 163 
161 164 163 162 164 162 158 157 156 158 157 155 159 158 156 154 153 151 
148 146 144 141 139 137 136 134 134 132 130 129 125 122 121 110 100 95 
113 108 106 109 105 102 98 91 86 89 80 72 90 81 75 95 89 86 98 95 93 80 71 65 
83 75 72 89 85 83 92 90 89 92 90 89 78 70 65 77 68 62 86 83 80 88 84 82 
76 67 61 75 64 57 83 78 74 86 82 79 92 88 86 95 92 92 98 98 99 96 95 95 
87 84 81 78 70 66 78 69 64 76 66 61 76 67 61 75 65 59 90 85 83 97 95 94 
93 91 89 88 81 77 83 73 67 104 101 101 101 99 97 103 103 100 113 111 111 
117 116 115 117 116 114 121 121 120 129 134 135 125 124 121 138 139 138 
145 148 148 142 142 141 143 143 141 153 155 152 157 162 160 161 166 167 
163 170 171 164 169 170 165 169 169 151 144 141 150 144 139 152 147 143 
150 146 142 147 144 142 143 141 139 138 136 135 135 133 133 122 116 113 
102 88 79 100 87 80 97 85 79 98 89 82 93 83 76 94 86 81 97 93 90 104 103 102 
91 86 82 93 89 86 95 91 90 93 90 89 91 88 86 82 75 72 86 81 79 90 88 86 
86 82 79 76 68 62 76 66 60 82 75 71 86 81 78 91 86 84 95 92 91 98 98 99 
98 98 99 92 91 90 85 82 79 78 69 64 75 66 59 78 70 65 84 78 75 95 92 92 
98 97 97 97 96 94 93 91 87 92 86 83 98 93 91 98 95 92 102 100 98 108 105 104 
113 109 107 115 113 110 119 120 117 126 128 126 130 130 127 142 145 144 
143 144 143 141 140 137 145 145 143 152 154 150 157 160 159 163 170 171 
166 174 176 166 171 173 165 169 170 145 136 133 143 133 127 137 126 118 
139 128 121 144 140 136 144 143 141 139 137 135 128 120 116 125 119 115 
112 102 96 118 114 110 107 101 95 97 87 80 90 77 69 91 81 74 96 90 85 103 102 101 
104 102 103 95 91 89 80 70 64 91 86 83 85 79 75 78 69 63 81 75 70 83 78 73 
85 80 77 77 69 63 75 65 59 79 72 66 85 79 76 92 89 88 94 94 93 92 91 90 
92 91 90 94 92 89 89 86 83 81 75 70 79 72 68 83 78 74 89 86 83 98 96 96 
101 99 99 97 96 91 89 82 77 91 85 80 86 75 68 92 83 77 104 101 100 109 104 100 
108 101 97 106 99 95 114 111 107 131 132 131 142 146 146 135 130 128 
120 106 97 125 113 105 144 142 138 156 157 156 163 170 171 168 177 180 
168 177 181 163 169 172 161 165 168 135 122 115 138 128 122 131 117 107 
130 117 108 141 134 130 144 141 139 141 138 136 133 127 124 117 107 101 
109 98 91 127 126 125 118 117 115 103 95 89 95 83 76 92 81 74 94 86 81 
99 92 90 105 105 105 104 103 102 95 91 88 94 90 89 90 84 81 86 80 77 83 77 73 
78 69 63 85 79 75 76 68 62 75 65 58 78 69 64 84 79 76 92 91 89 94 93 92 
89 86 85 89 87 85 92 89 88 89 86 83 83 79 76 83 78 75 89 86 83 94 91 90 
95 91 89 92 86 83 100 97 93 94 89 83 89 83 77 89 80 74 99 91 87 109 107 105 
110 105 101 108 101 97 109 101 98 117 113 111 138 139 139 149 152 154 
127 116 111 121 107 97 136 131 126 142 136 130 154 153 153 165 170 172 
164 171 172 163 170 171 163 168 169 163 167 168 126 108 97 139 131 123 
132 120 111 128 113 105 132 117 108 139 130 128 144 139 139 141 139 138 
122 114 107 119 110 105 129 128 127 119 114 112 114 107 105 107 99 96 
95 86 79 95 86 79 93 85 79 100 95 92 112 113 113 104 102 100 97 93 91 92 87 85 
89 84 83 87 83 80 89 86 84 86 81 78 76 68 62 75 65 58 81 74 69 86 82 79 
89 86 84 94 96 96 91 88 86 89 86 85 90 88 86 82 76 73 83 81 77 88 86 84 
95 94 93 84 76 71 91 84 80 101 97 94 100 98 94 95 89 85 92 87 82 103 103 101 
111 110 107 116 113 111 107 100 96 115 110 109 120 116 116 127 127 126 
140 140 142 139 136 135 143 140 139 151 151 152 147 145 144 149 148 147 
161 165 167 160 163 163 150 149 146 152 150 147 164 166 166 169 174 175 
145 139 134 149 146 143 138 129 123 131 117 109 131 116 107 140 132 126 
141 134 132 141 137 136 125 117 111 131 128 125 133 131 131 130 129 130 
126 124 123 114 109 107 101 91 85 97 89 83 104 100 96 110 109 108 116 117 118 
111 110 110 101 98 96 94 90 86 91 85 82 85 78 74 87 83 79 84 77 74 77 68 63 
75 64 58 80 72 68 85 79 76 86 82 79 91 92 91 89 86 85 89 85 83 87 84 81 
86 82 79 88 85 83 93 92 90 92 88 84 85 76 71 100 95 92 88 79 73 89 79 73 
88 75 68 92 81 74 106 105 101 114 114 111 118 118 115 115 111 111 118 114 114 
125 124 123 134 134 134 141 142 143 134 127 123 123 109 100 139 132 126 
149 149 148 150 151 150 160 166 167 158 160 159 141 133 127 141 134 127 
160 160 159 169 173 174 154 151 148 143 135 129 146 142 140 147 143 141 
152 149 146 152 148 146 145 138 134 137 129 124 135 131 128 135 132 129 
135 134 133 134 133 133 119 115 111 102 90 82 99 88 81 103 95 90 110 105 103 
105 100 97 106 103 101 114 114 115 106 103 101 98 93 88 86 77 71 82 73 67 
81 71 66 80 70 64 77 67 59 78 69 62 85 77 74 85 79 75 81 73 68 87 83 80 
91 89 87 90 87 84 85 79 76 86 79 76 92 88 85 97 95 93 86 77 71 86 77 71 
97 91 87 85 74 66 87 75 67 90 79 71 98 89 84 116 117 117 118 120 120 
112 109 108 112 108 105 118 113 111 127 125 124 136 135 135 143 143 143 
146 145 142 135 128 123 145 142 137 152 153 151 153 155 154 145 141 136 
150 150 148 133 121 112 131 117 108 146 139 136 162 164 167 155 150 147 
151 147 143 153 152 152 154 153 154 150 146 145 147 142 138 145 139 134 
138 133 128 135 128 124 133 129 125 136 135 131 136 135 134 111 101 93 
104 91 82 111 104 100 107 99 94 110 105 102 107 102 98 113 110 110 115 115 115 
109 105 102 102 98 93 86 76 69 84 74 68 81 71 64 80 69 62 80 69 62 83 74 68 
88 82 78 89 83 80 84 76 71 85 79 74 92 89 87 93 90 88 87 81 78 88 82 79 
100 99 98 105 109 109 103 105 104 98 92 88 95 88 84 88 76 68 90 78 70 95 84 78 
112 107 103 120 122 120 116 116 116 111 106 105 113 106 103 120 115 111 
134 133 132 142 143 143 147 147 146 150 149 145 151 149 146 152 151 148 
150 149 146 140 134 128 135 124 117 149 148 146 132 119 112 131 117 110 
148 144 143 156 157 159 155 149 147 148 142 138 148 147 146 148 150 148 
131 117 109 151 149 148 139 131 124 140 133 128 131 120 114 131 120 114 
136 132 128 137 135 132 130 129 126 128 127 126 127 126 124 119 116 112 
111 103 97 104 96 91 113 110 110 109 105 103 110 109 107 112 115 115 
98 93 88 90 82 75 86 78 72 85 76 70 86 76 69 87 80 74 93 88 85 95 91 89 
94 90 88 96 93 90 97 93 90 98 96 94 93 91 89 95 92 90 106 107 107 109 113 113 
110 114 114 109 108 106 108 103 100 91 78 71 96 87 82 101 97 94 109 106 102 
114 112 108 123 123 123 118 112 109 117 107 105 125 120 117 145 147 148 
154 158 159 152 153 153 152 152 150 155 154 154 154 153 153 148 144 141 
128 112 102 129 113 104 147 142 139 138 130 125 135 126 120 144 142 142 
148 150 152 148 143 139 127 111 100 128 113 105 132 120 112 126 110 99 
153 153 154 151 149 149 147 142 138 137 127 120 135 125 120 141 136 133 
139 136 134 130 124 121 137 137 137 134 134 133 116 108 103 103 91 84 
107 97 92 113 107 105 114 111 109 117 116 116 115 120 121 113 116 117 
97 91 86 93 87 81 93 87 81 95 87 82 97 90 86 99 94 92 98 93 91 95 89 87 
97 93 90 92 84 79 100 96 93 94 88 85 100 96 94 108 107 106 112 117 117 
112 113 112 110 108 105 94 83 76 94 80 72 97 86 79 107 105 103 111 108 105 
115 112 108 119 115 112 123 116 113 121 113 110 132 127 126 153 158 160 
155 160 162 155 161 162 158 161 161 152 151 151 150 149 150 153 152 152 
144 138 135 133 120 111 146 142 140 140 134 130 137 131 127 142 141 141 
144 146 147 144 141 139 144 140 138 138 130 124 136 125 119 136 125 119 
157 160 162 158 161 163 156 156 155 151 149 146 147 145 142 149 148 148 
149 149 150 149 149 151 145 144 146 137 135 134 126 122 119 118 113 109 
114 106 100 106 96 90 116 112 109 117 115 112 116 117 116 110 107 105 
104 96 92 101 97 93 102 98 95 106 103 99 108 102 100 107 100 98 102 97 95 
97 92 90 92 84 78 88 76 68 101 93 89 107 104 103 113 117 117 114 117 118 
116 121 121 116 118 118 106 102 99 114 114 113 98 86 79 105 97 93 113 111 107 
117 114 110 121 118 115 122 118 115 125 122 118 128 125 122 140 140 139 
161 164 166 157 163 164 159 165 166 159 163 163 141 140 138 139 138 136 
151 154 154 156 159 159 152 152 151 146 145 143 138 133 130 136 132 128 
141 139 139 143 143 144 134 124 118 152 156 158 165 171 176 164 171 174 
161 167 172 160 166 171 163 168 170 162 165 165 158 160 159 156 157 157 
152 153 154 152 152 154 153 153 154 149 148 149 141 138 138 126 120 116 
126 121 118 125 124 122 106 96 88 104 92 84 113 106 102 113 110 106 
111 105 102 111 107 104 114 114 113 113 113 112 115 113 111 115 110 109 
112 104 102 105 96 93 97 90 86 98 94 89 103 95 89 112 106 103 113 109 108 
117 122 122 119 123 124 120 125 126 118 118 116 114 111 109 118 120 120 
108 104 104 113 109 107 118 114 111 123 119 116 126 122 120 126 122 119 
117 105 98 133 131 128 144 145 144 162 163 165 162 167 168 161 167 168 
154 155 155 140 138 136 139 137 134 149 151 150 151 152 152 143 140 136 
141 136 131 143 141 139 143 142 141 142 141 140 141 141 140 150 154 154 
157 162 164 166 173 178 168 174 180 160 167 173 159 166 173 165 173 177 
165 171 173 158 162 162 153 156 155 150 151 151 143 141 140 148 147 147 
149 148 148 147 146 145 144 144 144 142 144 147 119 111 107 108 95 88 
104 89 80 104 92 84 106 97 90 116 112 108 120 119 117 122 124 124 121 123 123 
118 116 113 116 111 109 114 106 104 110 101 98 104 97 92 106 103 97 113 110 106 
116 113 111 116 113 111 121 124 124 122 125 125 124 128 128 119 113 110 
112 103 100 113 110 109 112 112 111 115 112 110 120 117 114 129 125 122 
135 130 128 136 131 128 125 116 109 129 119 113 146 144 143 157 160 161 
161 167 168 161 167 168 155 157 159 157 160 161 155 157 157 144 142 141 
139 133 131 130 117 109 135 124 118 156 155 155 159 163 164 146 148 145 
140 141 137 156 159 160 158 162 164 164 169 173 165 169 174 160 164 170 
159 164 169 161 164 166 160 163 164 161 167 168 157 162 163 150 151 150 
139 132 127 133 123 116 145 143 140 144 142 139 146 145 144 149 152 155 
138 136 137 131 125 124 117 108 103 115 104 99 111 101 96 119 113 109 
120 117 115 118 115 113 121 121 119 119 115 113 114 106 102 118 111 108 
114 106 103 106 96 89 113 110 107 113 108 104 117 114 111 119 116 112 
122 119 118 120 118 114 123 122 118 128 128 127 130 133 134 119 117 113 
113 108 104 117 113 110 122 117 114 131 125 122 136 132 128 139 135 132 
127 115 107 134 126 120 149 146 144 160 166 166 161 167 168 160 166 167 
152 152 153 158 161 162 156 157 158 144 141 141 137 131 129 131 119 112 
139 130 123 160 161 163 164 169 172 150 152 150 143 143 140 156 156 157 
157 157 158 159 158 161 160 161 164 159 161 163 159 160 161 157 155 154 
160 160 160 167 173 178 167 174 178 161 164 167 154 153 153 142 134 128 
142 133 128 134 123 119 133 124 119 143 140 140 148 150 152 128 119 114 
130 125 121 131 126 124 125 119 116 117 108 101 114 105 98 117 111 108 
116 110 105 120 117 114 122 116 115 124 119 117 120 116 115 111 105 99 
102 90 82 105 95 89 119 118 115 121 116 112 119 112 108 115 106 100 
115 108 104 128 129 128 134 139 139 120 115 111 111 97 88 120 111 105 
123 115 108 127 118 113 132 124 122 139 134 134 141 135 134 134 122 115 
143 139 135 151 154 151 157 162 162 157 159 161 156 156 159 160 161 164 
158 159 161 150 149 150 146 144 144 148 146 144 152 151 150 157 160 163 
157 161 164 152 153 154 151 150 149 157 155 156 157 155 156 156 154 155 
157 155 156 157 157 156 157 156 155 153 148 144 154 150 148 161 163 164 
164 169 172 162 165 168 152 149 146 150 144 140 144 136 131 136 125 120 
128 114 104 133 122 116 151 151 151 128 119 114 124 112 105 140 136 133 
137 133 132 123 112 106 116 104 97 117 109 103 119 113 108 111 98 92 113 102 96 
129 123 121 125 121 120 116 110 106 110 101 95 120 116 111 134 139 139 
128 124 121 123 115 110 117 107 100 116 107 101 119 114 109 127 127 125 
121 112 107 118 106 97 128 120 115 129 122 115 131 123 119 133 128 124 
141 137 137 145 140 139 140 135 130 139 132 127 140 133 129 146 142 141 
154 151 153 159 161 165 161 164 166 158 160 162 150 149 150 147 146 146 
152 153 153 154 156 157 153 157 159 153 156 158 153 153 155 154 153 155 
157 155 156 157 155 155 158 156 155 158 156 155 158 157 156 155 152 151 
148 140 136 143 135 128 142 134 130 149 144 142 161 161 162 133 119 112 
143 133 128 154 148 147 150 146 145 150 145 144 133 119 112 147 144 141 
128 115 107 118 101 91 127 115 108 144 141 140 136 126 125 128 115 111 
120 108 103 120 111 102 125 117 107 129 123 115 132 124 118 124 115 109 
118 109 102 118 109 102 128 119 115 134 131 128 136 132 131 135 132 130 
130 125 121 127 123 117 124 120 116 125 117 114 132 125 121 137 131 127 
142 137 135 144 140 137 144 142 139 144 141 137 146 140 138 153 152 152 
150 150 148 139 132 126 142 136 132 146 141 140 153 148 150 156 154 156 
156 156 156 153 152 151 145 141 139 141 137 135 140 140 139 144 145 144 
150 151 151 153 153 154 152 153 154 151 152 153 148 143 141 150 146 144 
154 153 151 157 156 154 158 157 156 156 153 152 151 146 143 146 139 135 
141 134 130 148 143 142 165 167 171 169 171 174 159 157 159 157 155 155 
157 156 156 157 156 156 139 127 121 154 148 147 141 130 125 127 113 103 
130 118 111 151 145 145 146 138 137 138 127 123 128 116 108 127 117 107 
134 126 116 137 129 121 134 125 117 127 117 109 124 113 106 125 114 107 
134 125 118 138 129 125 143 144 143 143 146 146 133 128 123 134 130 124 
130 126 122 147 150 150 141 139 136 143 139 136 152 150 150 154 153 153 
148 147 144 144 142 137 145 140 135 156 158 158 158 161 161 137 129 123 
138 129 124 143 136 132 150 145 145 154 150 151 153 152 151 149 147 146 
141 138 134 137 133 129 135 133 130 138 139 138 149 150 149 153 155 155 
151 153 154 150 152 153 128 113 105 134 124 117 145 146 143 153 158 157 
156 157 156 160 160 160 155 151 149 147 142 139 159 161 165 155 157 160 
169 177 184 170 176 181 161 161 161 156 153 151 157 155 154 162 160 162 
167 169 173 146 137 133 134 121 112 151 144 143 157 150 152 154 147 147 
147 139 134 145 136 130 148 147 144 147 149 146 141 132 124 141 132 127 
140 130 124 137 127 122 137 128 121 138 132 126 136 127 122 133 122 115 
136 128 120 135 129 121 133 124 118 134 126 122 131 127 123 143 144 142 
143 143 141 129 114 104 148 144 141 155 153 152 147 142 138 143 136 129 
140 129 123 141 133 127 139 132 127 144 141 136 132 118 111 134 121 113 
148 141 138 153 151 150 153 151 151 148 145 144 142 137 133 136 133 128 
134 131 129 138 139 137 149 156 153 154 161 159 151 155 155 151 152 153 
129 116 107 134 125 118 144 144 141 148 151 149 148 145 142 154 151 150 
167 168 171 171 175 179 146 142 140 128 112 101 160 164 166 167 173 178 
159 160 160 158 155 154 157 155 153 162 160 160 168 171 176 145 138 135 
131 116 107 158 156 156 160 163 164 151 146 144 149 140 135 149 142 134 
153 150 144 151 146 140 146 140 132 146 138 133 143 134 127 144 134 127 
147 138 132 143 134 127 124 109 99 133 121 111 138 130 118 136 126 117 
132 123 116 131 123 118 134 130 126 141 140 137 133 127 120 127 111 100 
146 142 139 155 153 152 148 141 138 143 135 129 142 133 127 139 131 124 
140 132 128 159 163 164 138 130 125 134 123 116 146 142 138 154 155 154 
159 163 164 147 144 143 141 137 132 137 132 128 134 130 128 137 136 134 
144 150 146 148 155 152 149 154 154 151 153 154 151 149 148 150 148 147 
148 146 143 142 136 131 131 119 110 139 127 121 164 163 164 171 176 179 
150 149 147 136 127 121 157 161 162 163 166 168 148 142 138 160 159 158 
155 151 149 160 159 159 167 171 175 168 171 176 162 160 161 158 156 156 
154 154 153 143 133 129 143 133 128 146 139 134 157 158 156 155 151 147 
149 143 138 151 146 142 147 138 133 148 137 132 153 143 137 154 143 137 
143 131 124 150 141 136 152 144 140 142 134 127 128 119 112 122 115 109 
141 140 138 160 165 165 139 139 136 140 135 134 150 149 148 155 152 151 
150 145 142 149 144 139 153 153 151 151 149 148 148 146 145 148 146 146 
144 141 138 144 141 140 148 147 147 149 149 149 151 152 151 144 141 137 
140 137 131 138 135 129 136 131 127 135 129 126 132 132 127 135 138 134 
146 149 148 151 153 155 158 161 164 156 157 157 148 146 142 141 133 127 
130 117 110 137 127 120 159 157 157 166 168 171 157 160 159 154 158 157 
157 162 162 160 163 164 159 160 159 151 144 141 132 118 110 141 131 125 
156 154 155 161 161 163 162 162 163 155 151 150 145 138 134 142 134 129 
143 136 130 145 140 135 151 148 146 149 143 141 133 120 110 136 123 115 
143 133 127 140 127 121 151 141 135 154 145 139 152 142 134 158 157 154 
160 164 164 149 146 143 126 117 109 119 111 104 128 120 117 134 130 128 
132 123 120 137 129 126 146 140 137 150 146 144 151 148 145 151 149 146 
151 149 148 152 151 150 153 154 154 152 153 154 149 149 149 147 147 148 
147 147 147 148 148 146 143 140 138 139 135 131 140 139 133 139 136 129 
135 127 121 132 123 118 129 126 121 134 134 130 144 146 145 149 151 153 
152 153 154 150 150 149 146 143 138 145 141 135 147 142 140 150 147 146 
154 153 152 156 157 155 155 155 153 157 157 155 153 152 150 141 134 128 
153 149 146 131 116 106 126 108 97 126 108 97 152 148 147 162 161 163 
158 156 156 155 151 150 152 147 145 154 153 151 151 149 147 148 144 143 
146 142 142 145 140 139 134 122 114 132 118 109 139 130 123 141 131 125 
147 139 132 151 142 136 148 136 128 147 136 129 150 146 143 141 134 128 
127 118 112 122 114 107 136 132 127 130 121 113 127 112 104 130 116 107 
136 125 117 142 136 130 149 147 146 151 149 149 146 140 139 148 143 143 
153 153 154 152 153 152 146 145 144 145 141 139 144 141 138 145 143 140 
142 138 137 140 132 130 143 141 136 140 137 129 130 119 111 129 118 110 
138 132 127 142 142 139 144 146 145 146 148 148 149 149 150 148 147 146 
142 136 130 146 142 137 154 153 153 156 156 158 152 152 151 151 150 148 
155 153 149 158 157 154 148 141 136 126 110 99 142 133 127 126 110 99 
126 108 97 133 120 111 159 157 160 137 127 119 140 129 123 154 151 150 
154 152 150 154 151 150 152 150 149 149 146 146 144 140 141 142 138 138 
145 140 135 144 138 132 142 133 128 141 129 124 138 127 120 145 135 127 
132 116 105 130 112 102 139 126 118 138 130 124 130 121 116 123 114 109 
126 116 110 125 113 105 125 108 97 126 110 98 131 117 109 138 131 124 
149 147 146 150 149 149 144 136 135 148 144 144 156 159 159 153 153 153 
146 143 141 142 138 135 142 139 135 141 136 132 138 129 128 140 131 130 
143 142 138 140 137 130 129 115 105 129 115 105 141 136 130 146 146 143 
144 146 145 144 146 146 
