P3
64 64
255
144 143 141 141 137 135 141 142 141 142 141 141 145 142 141 136 127 121 
133 128 123 132 128 124 138 129 125 139 132 127 146 146 145 149 150 150 
155 153 153 154 151 150 149 144 142 140 132 126 130 116 105 143 136 130 
145 143 140 138 132 129 136 127 120 135 127 119 146 140 135 150 148 145 
150 149 148 152 152 152 154 152 151 156 155 156 153 153 153 152 153 153 
152 151 150 153 152 151 153 151 151 148 145 143 129 115 105 138 130 125 
151 151 151 149 149 150 139 139 136 137 136 132 139 139 135 143 144 143 
143 144 142 140 136 133 132 122 115 131 117 108 133 121 113 140 132 127 
150 149 147 157 159 158 159 159 159 158 157 158 154 154 155 151 151 151 
147 147 147 146 147 147 141 135 131 152 154 153 156 158 158 146 141 137 
139 132 126 135 124 117 140 134 129 132 121 112 157 162 163 139 132 125 
140 140 139 144 143 142 142 136 131 133 121 112 127 113 105 133 130 126 
140 136 134 145 141 139 148 148 148 149 149 148 149 144 142 149 142 140 
145 140 135 144 139 135 145 138 133 144 138 132 144 140 137 139 133 130 
138 131 126 141 133 128 145 140 134 150 147 143 149 147 144 149 148 147 
150 148 146 148 147 145 145 144 144 146 147 148 151 153 154 150 148 147 
149 145 144 144 141 139 135 131 126 133 126 119 150 152 152 153 157 157 
143 144 142 139 138 134 139 138 135 142 142 137 140 137 133 140 137 132 
137 129 124 136 127 121 138 128 122 144 136 132 148 146 143 145 139 136 
152 149 146 156 156 156 153 153 153 150 150 150 147 146 145 146 146 145 
139 132 126 153 155 154 156 159 159 156 159 158 155 157 156 149 149 146 
145 141 137 134 127 119 158 163 164 146 146 145 141 139 137 143 141 139 
140 134 130 137 131 125 139 133 128 157 162 162 148 148 147 151 150 150 
150 149 150 149 148 147 147 141 138 139 126 121 135 123 116 141 133 128 
148 143 139 148 143 138 138 131 126 138 134 130 145 140 138 145 140 138 
145 140 136 146 142 138 143 139 137 143 139 137 145 142 137 143 141 138 
137 136 134 138 137 137 147 146 147 148 146 146 143 138 137 139 136 133 
133 126 122 132 126 122 145 146 145 149 153 153 148 153 153 142 138 137 
130 119 112 125 110 101 132 124 116 140 136 131 146 145 143 149 149 147 
148 141 138 149 145 143 133 119 112 126 108 97 140 134 129 153 153 152 
152 151 150 148 145 141 145 145 141 147 148 145 153 156 155 157 161 161 
158 161 160 159 161 160 157 157 156 142 136 131 145 145 140 141 141 134 
145 145 146 143 142 142 141 138 135 141 136 133 140 136 133 140 136 131 
134 127 125 136 127 120 143 137 133 152 151 151 151 149 150 153 153 154 
160 166 167 142 132 128 139 129 123 141 134 129 148 141 138 144 138 135 
129 112 104 130 120 113 143 140 139 145 142 140 142 139 136 143 142 142 
133 126 122 139 136 133 143 144 143 139 137 135 131 129 127 135 136 136 
143 143 145 143 141 142 137 132 130 138 137 136 125 115 112 124 114 109 
130 124 122 136 133 132 139 139 139 138 135 134 119 104 95 118 101 91 
124 111 102 136 132 127 148 149 149 155 160 160 155 154 153 154 151 150 
137 127 119 133 120 110 153 152 151 154 153 153 150 147 145 143 138 133 
145 143 138 141 139 132 149 151 148 151 154 151 150 150 146 151 149 145 
153 151 150 152 152 151 147 150 146 146 150 145 144 143 143 144 141 141 
141 138 134 139 134 130 140 134 129 138 128 124 131 122 116 130 117 107 
153 154 152 158 161 161 153 155 156 150 149 149 150 149 148 143 136 132 
134 122 114 150 147 144 146 141 141 143 140 140 130 122 118 132 128 124 
136 133 130 142 140 138 138 134 131 131 126 121 119 108 100 132 132 129 
141 146 147 136 138 138 126 125 122 132 133 132 137 137 138 136 135 135 
129 125 124 122 113 110 113 101 94 113 101 94 123 115 111 130 126 125 
135 137 137 134 134 135 125 115 110 117 102 93 128 119 116 133 127 124 
144 144 144 149 152 151 145 140 138 143 135 131 154 148 145 156 152 150 
163 162 163 158 157 157 146 140 136 142 136 131 147 149 144 148 150 145 
140 138 133 136 129 123 133 122 114 135 126 117 138 131 125 142 139 136 
147 148 146 149 152 151 141 139 139 136 128 123 136 127 122 129 112 104 
137 126 122 145 142 141 140 137 136 139 133 130 149 148 145 155 156 155 
154 156 156 156 159 159 145 140 138 143 137 134 148 143 140 148 147 145 
147 148 148 134 130 128 124 118 116 125 120 117 135 133 131 137 137 133 
123 114 108 129 123 120 124 118 114 132 134 133 134 136 136 130 129 129 
125 120 118 123 121 118 128 128 126 128 128 128 126 124 123 119 112 109 
113 102 96 113 102 96 119 112 109 123 120 119 128 127 127 126 123 123 
124 118 113 113 98 91 118 107 99 122 112 106 131 126 122 132 124 120 
138 132 129 139 132 128 149 144 141 157 153 151 162 160 159 158 155 154 
146 140 135 142 136 130 150 149 144 150 151 148 141 137 131 136 127 120 
141 135 130 154 156 154 136 130 125 136 130 125 148 148 146 153 157 156 
134 133 132 135 134 132 138 134 129 129 112 103 132 118 112 136 127 123 
154 156 155 146 143 140 151 149 146 150 147 144 158 160 160 160 165 165 
158 162 162 143 138 135 144 141 138 137 131 128 125 112 105 123 114 109 
116 106 98 117 107 101 120 109 104 129 128 125 130 127 125 133 135 135 
132 136 136 127 126 124 127 124 124 119 113 111 118 111 107 121 117 116 
121 118 116 121 119 116 121 118 117 122 118 116 121 116 114 121 116 114 
120 117 114 119 114 112 118 112 108 106 93 84 106 91 82 107 92 82 122 115 111 
112 99 90 124 116 109 143 140 141 144 144 143 148 150 151 146 143 141 
147 142 139 149 143 140 151 144 141 149 143 139 137 127 121 159 164 165 
153 154 152 151 149 143 148 146 140 144 141 134 144 142 137 132 122 113 
134 126 117 149 150 146 157 162 160 135 127 124 135 130 126 138 132 128 
151 150 148 148 145 142 128 112 102 142 136 133 155 158 156 144 136 132 
142 132 126 148 143 140 156 159 158 158 164 165 143 141 138 142 139 137 
134 130 127 118 106 98 116 106 100 117 107 100 132 133 133 127 125 124 
127 124 123 131 129 130 128 128 128 125 125 124 123 120 119 117 111 109 
100 88 80 100 89 81 115 111 109 117 114 111 116 112 109 117 114 112 
119 116 115 121 118 118 121 119 119 119 118 117 117 114 112 116 112 109 
122 123 121 108 97 91 110 98 92 132 129 129 131 130 129 134 134 134 
128 121 118 140 140 140 145 150 151 140 139 138 140 135 130 143 137 133 
148 142 137 144 135 129 133 120 112 154 155 154 152 151 148 154 153 148 
153 153 148 146 143 138 137 129 123 130 117 108 132 119 109 149 147 142 
161 166 163 160 166 166 150 149 148 139 131 124 159 163 164 149 147 145 
130 115 106 147 145 141 158 161 161 136 125 116 129 113 104 134 124 116 
142 137 133 153 155 155 148 150 149 141 138 135 133 130 127 117 115 114 
113 111 110 124 124 122 133 138 139 118 114 111 119 115 112 122 120 119 
122 121 120 118 116 115 115 109 108 114 110 109 109 104 101 101 92 86 
113 112 109 118 121 121 115 112 111 111 109 106 113 111 110 114 111 110 
117 114 113 119 117 117 121 119 119 121 119 119 118 116 115 110 103 99 
116 109 105 117 112 110 128 128 128 132 134 134 126 118 115 128 125 122 
134 129 128 131 124 121 134 127 123 146 145 143 148 147 145 133 122 114 
130 113 104 147 141 137 153 150 148 150 147 142 146 142 137 143 139 134 
137 130 123 130 116 105 135 123 115 155 152 150 164 165 165 156 159 159 
147 144 143 139 132 126 136 127 120 138 126 120 142 135 129 147 146 143 
148 146 142 134 123 115 129 115 105 127 114 105 133 123 118 143 140 136 
135 129 123 135 129 123 119 111 104 115 112 110 113 112 112 123 122 120 
121 120 119 103 93 86 111 105 101 116 114 112 113 110 109 114 111 109 
114 114 113 111 106 103 98 88 82 104 98 94 115 116 116 115 120 120 111 109 107 
108 106 105 108 106 105 110 108 106 112 109 108 109 106 104 117 120 120 
118 118 119 113 108 107 110 104 101 114 111 109 123 126 126 120 118 116 
116 107 102 122 122 119 127 126 124 126 121 119 115 104 96 121 111 103 
144 146 143 146 147 142 142 139 136 143 139 137 150 147 145 152 150 149 
149 145 142 147 142 137 147 143 138 143 137 131 134 124 116 137 127 120 
152 148 146 159 156 156 135 124 118 137 127 121 137 127 121 126 108 97 
134 122 115 151 149 146 154 154 152 149 146 142 147 142 137 143 136 131 
139 129 125 136 129 126 133 126 123 116 103 95 113 100 92 115 107 100 
119 114 111 119 116 115 117 113 112 106 97 91 97 85 76 101 92 86 104 98 94 
106 100 97 113 115 113 116 120 121 114 117 117 105 102 97 100 92 87 112 114 114 
111 115 116 109 109 108 110 112 113 110 112 113 109 107 107 106 102 99 
93 82 75 99 93 89 97 90 85 100 91 86 110 105 101 115 114 111 116 117 115 
107 100 95 103 95 87 124 127 126 126 128 127 127 124 121 118 110 103 
131 128 125 137 135 129 138 136 130 138 134 129 142 141 140 146 147 147 
150 150 150 149 147 144 153 151 149 158 157 155 155 154 151 144 142 137 
140 137 131 142 139 136 144 141 138 130 115 106 131 116 106 148 147 144 
130 115 105 130 116 106 142 136 131 154 154 153 149 144 141 147 147 144 
148 146 144 145 142 142 139 134 134 133 132 130 118 109 103 107 94 85 
108 97 88 118 113 110 125 127 128 115 114 111 105 100 94 102 97 92 100 92 87 
113 114 113 107 105 104 108 107 105 111 115 116 111 114 115 106 104 101 
106 102 99 106 104 101 105 105 103 104 103 101 104 102 102 97 92 89 89 79 72 
100 95 93 98 91 88 92 84 77 104 102 101 112 115 116 110 109 107 115 112 110 
108 104 101 105 98 94 100 92 85 104 95 89 117 110 106 123 119 117 129 127 124 
132 131 128 134 131 126 132 129 124 131 126 122 139 137 136 144 144 144 
139 132 127 131 117 109 149 145 143 157 154 152 153 152 149 144 146 141 
139 138 131 138 134 129 141 138 135 136 127 119 135 125 118 154 155 154 
139 129 126 146 143 140 143 137 133 152 151 151 153 153 152 147 147 146 
137 133 130 146 145 146 139 139 138 139 143 144 122 120 116 105 93 85 
109 101 95 108 100 94 105 97 92 104 99 96 111 113 113 114 117 117 108 106 105 
113 115 115 112 113 114 108 109 108 107 109 108 106 109 108 104 102 101 
99 92 89 98 92 89 101 98 95 100 98 96 97 91 89 83 73 66 82 70 63 88 80 74 
106 105 104 103 99 97 102 102 101 107 108 108 108 106 107 111 110 110 
105 102 100 99 93 88 105 100 95 107 101 96 109 103 99 115 109 106 123 120 119 
129 128 125 128 126 123 111 97 89 123 115 109 140 142 141 147 150 150 
145 145 143 140 136 133 150 147 146 141 134 128 137 130 123 137 137 130 
139 143 137 149 149 146 152 152 149 129 114 105 131 117 109 152 153 153 
151 152 152 155 157 157 145 142 140 148 143 142 152 152 152 146 147 147 
132 126 123 135 131 130 137 139 140 129 129 128 112 104 99 115 111 108 
124 127 127 114 113 111 101 92 87 93 82 75 105 106 104 109 109 109 108 108 107 
111 112 112 108 112 112 106 110 110 105 105 104 104 103 102 92 87 84 84 75 69 
93 86 83 98 94 93 97 93 92 92 86 84 81 71 66 80 69 62 87 80 75 91 84 81 
90 83 78 101 98 98 102 100 101 102 99 98 107 110 110 110 114 114 110 112 112 
107 107 104 107 103 101 105 98 94 107 101 97 117 114 112 124 123 122 
126 124 123 117 111 105 131 129 128 141 146 147 145 151 152 147 150 150 
146 146 146 146 144 143 140 131 125 142 136 131 154 157 157 147 149 147 
146 147 144 149 149 146 152 152 150 130 115 106 144 141 136 154 158 158 
161 167 168 155 157 156 127 111 102 140 131 129 145 143 143 121 110 104 
124 115 111 132 128 128 126 121 120 116 109 106 109 102 98 111 107 104 
114 115 113 97 89 82 91 80 73 104 103 101 106 106 105 106 105 103 101 99 98 
101 103 103 102 105 105 101 103 102 101 99 98 94 90 88 89 83 80 94 90 88 
96 92 91 94 90 89 87 82 78 78 68 62 77 66 59 81 71 66 89 81 77 91 86 83 
100 101 101 100 103 103 100 100 100 105 109 110 107 111 112 107 110 108 
108 106 105 105 101 98 101 93 88 102 96 90 112 108 106 121 121 120 124 125 123 
127 128 123 129 127 124 132 131 130 137 139 138 134 133 132 141 138 136 
148 146 144 154 156 155 153 153 151 161 167 168 159 166 167 144 146 142 
131 131 126 143 139 134 133 121 113 146 140 137 150 149 148 158 162 163 
155 158 158 129 117 111 143 137 135 145 140 140 130 122 120 120 112 108 
128 129 129 124 123 123 110 102 99 101 92 85 96 87 79 103 99 95 92 83 75 
100 98 95 97 93 89 99 97 95 97 94 90 93 89 86 88 80 76 97 95 94 98 98 98 
97 95 93 89 85 83 93 91 89 93 92 90 92 89 89 89 86 84 80 74 69 74 63 57 
74 64 57 78 69 62 77 68 62 83 75 71 92 88 88 91 87 85 95 94 92 102 105 106 
103 107 108 99 99 99 102 98 96 101 97 95 101 97 93 110 110 108 114 112 110 
117 115 114 120 119 117 121 121 117 122 119 115 124 119 116 127 123 122 
130 127 125 139 136 134 151 155 156 153 156 156 150 146 143 155 156 155 
159 164 164 136 133 130 129 127 122 148 144 141 152 147 146 150 144 143 
154 148 150 152 149 150 152 155 157 146 149 149 143 143 144 140 137 137 
128 121 117 113 105 98 126 128 128 126 130 131 116 116 115 96 85 78 91 79 72 
64 56 50 69 62 56 80 75 70 88 86 84 88 90 89 80 76 75 81 78 75 81 79 77 
81 76 76 83 73 71 88 64 64 94 58 57 100 53 52 106 48 47 111 43 42 112 40 40 
114 43 43 109 43 42 98 37 33 95 46 43 86 48 46 79 53 51 76 65 62 73 67 62 
80 78 74 88 91 92 89 92 92 84 84 83 84 79 77 85 81 78 92 91 89 98 101 102 
115 117 116 116 113 112 115 113 113 114 111 110 112 108 104 118 112 109 
132 133 133 132 127 127 123 116 110 144 148 147 152 158 158 145 142 139 
147 144 141 153 154 153 150 150 148 142 136 132 154 152 151 145 139 135 
127 111 100 139 126 121 145 137 138 149 150 151 147 152 152 132 130 127 
132 130 128 128 124 123 118 113 110 112 107 101 113 109 107 106 101 96 
92 81 73 89 77 69 72 68 63 83 84 82 90 92 90 95 97 97 92 96 96 90 93 93 
82 77 75 82 71 69 86 63 60 94 59 57 104 58 58 110 54 53 117 51 50 122 47 46 
125 43 42 127 42 42 128 44 44 126 45 44 119 42 41 112 43 41 107 50 49 
95 51 48 84 53 50 78 59 55 85 82 82 86 89 90 88 91 91 80 76 74 79 71 67 
82 77 72 89 85 83 101 100 101 113 112 112 114 114 113 112 112 112 106 102 100 
105 98 93 110 103 98 125 121 120 132 130 130 127 126 123 126 122 118 
129 120 114 128 115 108 139 132 125 143 138 134 150 145 141 153 148 145 
149 146 143 139 129 123 127 110 100 126 109 99 140 132 130 145 141 142 
131 124 120 117 106 98 130 129 128 128 130 129 126 124 123 121 118 117 
117 115 114 110 107 104 94 86 80 89 80 73 83 80 78 93 96 96 96 96 96 100 104 104 
98 102 103 93 94 94 82 67 64 92 59 58 110 53 53 126 50 49 139 47 47 149 48 47 
154 47 47 156 44 42 159 43 42 160 45 44 162 45 45 160 47 47 156 42 41 
151 43 42 146 47 46 130 43 41 111 39 36 93 42 38 84 59 55 85 79 78 80 75 71 
78 71 66 80 70 65 79 67 62 86 77 73 104 103 102 109 107 106 107 106 105 
100 96 92 96 85 79 98 86 79 102 92 86 117 111 107 126 123 121 130 127 126 
127 120 115 118 103 95 122 108 99 128 115 107 137 127 120 152 150 147 
162 161 160 144 137 134 132 119 111 144 139 135 149 149 146 145 143 143 
138 134 133 135 133 129 117 106 100 124 122 121 127 127 128 126 126 126 
123 122 122 118 115 114 108 103 101 102 100 97 102 102 101 89 90 89 86 82 79 
92 87 85 98 101 101 97 93 93 100 85 85 104 66 66 115 53 53 134 45 45 149 42 42 
161 42 42 170 43 43 170 42 41 164 34 31 164 33 31 170 43 43 172 45 45 
171 45 45 171 45 45 173 48 48 168 47 48 154 41 39 135 34 31 118 36 32 
100 43 40 86 50 45 78 57 51 78 65 59 79 68 63 78 67 60 89 82 79 104 106 106 
104 103 102 103 101 99 100 97 93 93 81 73 95 84 76 102 94 87 112 108 104 
122 118 115 127 123 122 129 123 121 124 116 110 124 113 104 127 115 106 
139 130 123 157 156 154 165 166 166 149 147 145 136 127 119 159 164 165 
156 161 162 145 148 146 128 120 117 134 130 128 130 125 124 130 130 130 
127 126 127 122 121 120 114 112 110 113 109 109 103 98 96 97 92 89 105 109 109 
88 90 89 77 72 68 85 80 77 97 94 94 101 78 78 112 65 66 132 56 56 146 49 49 
158 44 44 165 43 42 169 44 43 169 44 42 169 42 41 166 37 35 165 36 34 
168 40 39 169 43 42 171 45 44 172 44 44 172 47 47 170 47 47 164 40 39 
156 33 29 146 33 30 136 46 45 119 51 51 93 47 43 85 60 57 82 74 69 79 70 64 
92 90 87 102 105 105 103 105 105 101 97 96 107 103 101 105 101 99 102 99 97 
106 104 100 111 108 104 111 103 96 120 114 111 122 117 112 124 118 111 
131 125 120 140 137 133 152 151 149 159 160 158 161 163 161 154 155 155 
149 147 145 159 165 166 153 159 160 138 137 134 129 121 117 133 130 129 
132 132 132 125 124 123 121 119 119 118 117 115 113 111 109 112 111 111 
103 99 99 90 82 76 86 80 75 72 65 61 83 76 74 92 81 80 103 79 80 113 63 64 
129 53 53 150 49 49 164 46 46 171 43 43 171 43 42 170 43 42 170 42 41 
170 42 41 168 41 39 166 37 35 163 32 29 167 39 38 171 44 44 173 45 45 
171 41 41 165 35 33 164 35 33 165 36 34 163 34 31 152 33 32 136 37 34 
118 48 46 102 53 51 95 70 67 92 83 82 98 99 99 99 102 102 98 99 98 99 95 93 
110 108 109 110 109 108 106 107 106 105 102 97 103 96 90 112 105 101 
117 111 108 120 115 111 134 135 133 141 144 143 143 142 141 152 153 152 
157 160 158 159 163 161 148 145 142 143 136 131 155 162 162 138 133 129 
127 119 114 141 144 144 134 136 137 127 128 128 116 114 112 116 113 112 
117 114 113 118 117 117 117 118 119 109 109 109 94 89 86 89 83 78 80 73 71 
91 78 79 106 68 68 119 58 58 131 46 45 143 39 38 162 46 46 169 45 45 171 42 42 
172 45 45 169 41 40 169 41 41 168 40 38 169 40 39 165 35 33 165 35 33 
168 40 39 171 43 42 172 45 45 170 42 41 164 34 31 163 32 29 164 34 31 
162 32 29 160 32 30 154 34 31 144 43 42 127 44 43 112 57 57 98 63 62 98 88 89 
95 94 93 98 98 98 95 94 92 107 109 108 108 108 106 109 105 103 110 106 103 
100 90 84 100 86 78 110 102 97 121 117 115 134 134 134 139 139 138 135 132 130 
138 136 135 152 155 153 158 163 162 153 155 157 153 155 155 155 161 162 
144 145 144 141 141 141 142 145 148 132 135 137 121 120 119 109 104 99 
116 117 116 113 112 110 115 113 112 117 120 121 112 114 115 99 96 94 92 86 83 
82 58 56 99 66 67 118 55 55 134 50 50 139 41 40 146 34 32 164 42 41 169 43 41 
170 40 39 170 41 41 171 46 46 170 42 42 169 42 40 170 41 40 166 38 36 
167 38 37 168 40 39 170 41 41 171 44 43 171 44 44 167 39 37 163 32 29 
164 35 32 163 34 32 162 33 30 166 44 44 156 46 46 141 43 42 129 51 51 
111 53 53 100 69 69 97 78 77 91 87 84 94 91 89 105 106 104 110 112 111 
107 105 102 109 105 102 113 108 105 110 103 99 115 109 107 124 124 124 
136 138 138 140 140 140 132 128 126 134 129 127 147 147 145 152 155 153 
147 150 150 158 164 165 154 159 160 149 152 154 144 148 151 139 144 146 
131 131 132 117 111 108 107 99 94 120 124 124 112 113 112 105 101 98 
114 116 116 111 111 113 102 101 100 90 86 83 93 44 41 110 53 53 135 50 50 
144 48 49 135 41 40 143 44 43 164 48 47 170 45 45 166 37 36 168 41 40 
172 47 47 171 45 44 170 43 42 169 41 40 167 38 37 167 38 36 167 39 37 
168 40 39 169 42 41 168 40 40 170 42 41 168 39 38 164 33 31 162 33 29 
162 32 29 159 37 35 143 38 36 137 45 44 139 48 49 131 50 51 114 55 56 
108 58 58 93 91 89 97 94 92 101 99 97 105 103 102 107 106 105 110 109 108 
111 110 107 108 103 98 120 120 118 131 136 136 128 127 126 126 118 113 
136 132 130 137 133 132 143 140 138 147 146 143 144 146 146 149 151 152 
151 155 155 146 147 148 140 142 144 136 139 141 132 133 133 115 111 107 
104 95 88 106 101 97 101 96 91 103 99 97 110 110 111 110 111 113 104 104 104 
98 97 96 105 48 47 115 46 46 139 49 49 146 48 48 138 44 43 144 45 44 164 48 48 
172 45 45 165 36 34 165 36 34 172 46 46 173 45 45 170 43 42 167 38 37 
165 35 33 167 38 37 166 38 36 166 38 36 168 41 41 171 44 44 172 47 47 
170 42 41 166 37 35 163 32 29 163 34 31 157 34 31 144 38 36 139 42 41 
139 42 42 131 43 42 118 50 50 112 52 52 95 92 91 97 95 93 98 95 92 101 99 97 
107 108 108 112 115 115 113 112 111 118 121 119 119 121 117 124 125 123 
111 98 91 111 95 85 129 119 115 141 136 135 143 140 138 147 145 143 
153 151 152 150 149 150 148 149 149 143 145 144 137 136 135 134 133 132 
135 135 136 128 127 127 114 114 112 108 105 102 110 109 105 108 108 106 
106 104 104 103 101 102 100 101 100 96 97 96 103 52 52 107 46 45 123 45 44 
137 45 45 146 43 42 157 44 43 168 46 46 171 44 44 166 37 35 166 37 35 
171 44 43 172 45 45 171 44 44 170 42 41 167 39 37 167 39 38 166 38 36 
164 35 33 167 40 40 171 45 45 173 47 47 172 45 44 170 42 41 167 38 37 
170 45 44 165 41 40 160 44 42 150 47 47 132 44 43 112 35 32 108 47 46 
109 57 57 92 90 88 94 91 89 98 94 93 100 98 97 107 110 110 112 115 116 
115 115 114 119 120 119 122 122 121 122 122 120 112 103 97 112 100 92 
130 124 120 145 145 144 148 147 147 153 152 152 159 156 158 154 153 154 
149 150 150 144 144 144 135 133 132 133 131 129 133 134 135 129 130 132 
118 119 119 115 118 117 107 106 103 104 102 99 103 100 100 100 98 98 98 97 96 
93 93 91 94 54 53 99 50 48 113 48 48 128 44 44 147 43 42 162 47 47 170 48 48 
171 45 44 167 39 37 166 37 35 170 41 40 172 44 44 172 45 44 171 44 44 
170 43 42 168 40 39 165 37 36 165 36 34 168 41 41 171 46 46 173 47 47 
173 46 45 171 44 43 168 40 39 167 39 37 164 38 36 163 41 40 149 45 45 
125 43 43 102 36 34 94 46 42 102 66 66 92 89 87 91 88 87 93 88 87 96 92 91 
106 108 108 108 108 108 114 113 113 118 118 118 119 118 118 120 119 118 
127 128 127 127 125 123 125 115 109 148 148 148 148 147 147 155 155 157 
162 164 164 156 158 158 151 152 152 144 145 145 137 136 135 131 132 131 
130 133 134 125 128 130 121 123 123 114 114 113 100 94 88 96 91 85 101 100 98 
95 92 91 92 88 86 78 70 64 74 51 47 86 56 54 104 54 55 120 46 46 139 43 43 
159 48 48 169 47 47 170 44 43 170 43 42 167 38 36 170 41 40 171 44 43 
172 44 44 172 44 44 171 44 43 170 42 41 167 40 39 168 40 40 171 45 45 
173 48 49 173 48 48 172 45 45 170 42 41 167 39 37 163 34 31 162 33 31 
154 36 34 139 41 39 116 43 42 94 41 37 90 62 60 95 81 80 86 81 79 89 86 85 
85 78 73 90 83 79 105 105 104 111 112 111 112 110 112 112 110 110 111 108 107 
117 115 113 127 125 124 130 126 125 135 133 132 145 144 144 151 150 150 
156 156 156 158 162 162 154 155 156 148 149 149 144 144 144 137 138 138 
132 134 134 128 130 131 123 126 126 121 121 121 115 115 116 100 95 92 
96 92 88 102 99 98 98 98 96 96 96 96 78 70 64 66 51 46 75 56 52 95 57 57 
112 47 46 133 41 40 148 40 40 159 42 41 162 43 41 160 41 39 160 41 39 
160 42 41 162 43 42 164 44 43 166 44 43 170 44 43 171 44 42 170 43 42 
169 44 44 167 46 46 165 48 48 164 47 47 163 45 45 162 44 44 159 39 37 
155 33 30 153 32 29 148 35 33 134 41 39 110 48 47 97 62 61 93 80 80 91 88 87 
92 90 89 91 87 85 83 75 70 86 78 72 100 96 93 108 106 104 109 105 106 
109 106 106 107 102 100 115 113 111 130 130 130 130 126 125 141 141 141 
143 143 143 151 152 152 158 159 159 150 154 156 146 149 150 143 144 144 
135 132 130 128 124 122 133 133 134 128 129 129 122 121 120 118 117 116 
114 116 116 111 115 115 106 109 109 102 101 101 100 99 98 95 94 92 75 67 61 
64 55 49 67 51 46 82 51 46 105 49 47 129 41 40 140 39 38 140 42 41 139 45 44 
139 46 46 136 46 46 134 44 43 133 39 38 140 39 38 150 41 40 160 35 33 
170 42 41 171 44 44 165 45 45 151 46 45 142 46 46 138 46 46 136 46 46 
135 46 46 134 41 40 132 34 31 137 33 30 146 39 38 137 47 46 109 58 58 
94 70 70 90 82 81 89 87 85 91 88 87 94 93 92 89 84 81 90 84 79 89 81 76 
96 89 84 104 99 96 110 107 105 112 109 108 122 124 124 129 132 133 137 139 140 
140 143 142 137 136 131 153 156 157 158 163 165 149 151 154 143 146 147 
140 140 139 114 100 91 112 99 91 132 132 132 128 127 125 122 120 119 
118 117 117 113 113 112 109 111 112 104 106 106 100 99 98 99 98 96 97 96 95 
87 83 80 66 60 54 67 55 51 79 50 46 102 49 46 131 42 40 140 40 39 133 43 42 
125 44 42 121 47 47 116 47 47 114 44 44 118 42 42 130 43 42 146 42 41 
162 41 40 170 42 41 171 44 43 160 38 36 139 37 35 129 45 44 121 46 46 
115 47 47 112 44 42 113 36 34 119 33 30 131 34 31 147 40 39 139 48 48 
108 60 59 89 70 69 89 82 80 89 86 85 90 89 86 92 89 87 91 86 82 99 100 100 
104 107 107 91 83 78 102 97 93 111 108 106 120 124 124 127 131 132 130 132 133 
135 137 138 140 143 142 145 150 148 152 157 158 159 164 166 156 161 164 
150 154 156 142 142 141 128 122 117 124 119 114 132 130 129 119 114 112 
122 120 119 119 120 121 114 116 116 105 105 103 98 93 90 99 97 95 98 96 96 
95 93 92 91 89 87 75 72 70 73 63 60 82 52 49 104 46 42 139 40 38 145 34 32 
129 34 31 115 36 33 107 44 44 100 44 43 101 44 44 111 44 44 131 45 44 
149 43 42 164 41 40 171 41 41 170 42 42 159 35 33 139 33 30 125 39 37 
112 46 46 100 45 44 100 47 47 104 39 38 115 31 28 132 33 30 153 38 36 
143 44 42 103 48 45 80 55 51 87 78 77 85 82 79 90 88 86 95 94 93 96 91 90 
97 95 94 97 94 92 92 84 79 101 98 94 109 107 105 118 121 121 124 125 126 
126 127 129 133 134 136 135 138 136 140 139 137 149 149 148 159 161 162 
159 163 165 152 154 156 142 143 144 136 136 135 126 121 118 115 108 102 
118 113 108 116 113 110 116 117 117 115 119 119 108 110 109 95 89 85 98 95 93 
98 96 95 94 92 91 90 88 87 77 76 74 74 65 62 85 58 54 105 48 45 136 40 37 
145 32 28 135 31 28 127 38 36 115 42 42 106 42 41 109 44 43 121 45 44 
142 45 45 156 43 42 161 36 34 166 38 37 168 42 42 165 43 43 155 45 45 
141 46 45 121 46 46 108 44 42 109 48 49 118 49 49 128 35 33 141 34 31 
153 35 34 142 43 42 105 52 49 89 68 66 91 85 85 94 94 93 95 96 95 97 97 97 
98 94 93 97 90 88 95 88 84 97 92 88 103 102 99 109 108 106 113 111 108 
118 116 115 127 130 130 134 134 135 137 140 139 129 121 116 138 129 126 
159 160 162 156 156 157 149 149 151 141 142 146 134 136 137 117 108 102 
105 90 81 102 88 80 102 92 86 108 105 101 108 108 105 98 93 88 94 87 82 
97 94 92 99 97 96 97 95 94 92 90 88 74 71 68 75 68 64 87 65 63 101 52 50 
125 36 34 143 31 28 152 31 28 149 32 29 142 39 38 138 43 42 139 44 43 
148 44 44 163 45 45 168 42 42 162 38 36 158 37 35 159 40 39 163 45 44 
171 49 49 165 49 48 148 46 45 134 38 36 136 42 41 144 45 45 152 36 33 
155 35 33 152 41 40 135 50 50 106 63 62 94 82 82 92 93 93 95 96 97 98 98 98 
98 96 96 96 91 90 97 92 89 101 97 95 105 103 101 109 108 107 111 110 109 
112 110 108 120 120 119 130 133 133 138 142 142 145 149 149 149 150 151 
148 148 149 158 160 164 149 146 144 145 143 142 143 145 148 137 140 142 
127 124 122 109 98 89 103 90 82 102 92 85 108 102 98 106 101 98 99 93 90 
96 90 86 96 91 88 93 90 87 92 89 87 88 83 81 69 65 61 72 65 61 85 72 69 
99 64 62 113 42 39 129 32 29 146 32 29 153 33 30 150 37 34 153 41 41 159 44 43 
165 44 44 172 44 43 168 41 40 151 38 36 141 37 35 138 38 36 147 41 40 
168 46 45 173 45 45 166 45 45 157 42 41 152 39 37 151 37 35 155 35 33 
150 39 36 137 45 45 121 57 56 103 71 71 94 84 84 94 92 92 96 96 96 98 98 98 
98 96 96 97 92 90 98 93 91 103 101 99 106 106 104 108 108 107 100 94 89 
102 92 85 117 115 112 129 133 132 137 141 141 142 147 148 148 153 155 
153 156 160 158 162 166 139 130 123 129 117 108 143 143 142 145 149 151 
132 131 131 122 117 113 121 117 114 118 112 108 109 103 99 106 101 98 
106 103 101 101 97 93 93 87 84 87 80 74 83 74 68 79 70 66 67 60 55 70 64 60 
81 73 70 87 69 65 93 44 39 105 35 31 119 32 30 134 36 35 139 32 29 154 39 37 
168 44 44 172 44 44 172 45 45 161 44 43 134 40 39 116 37 35 107 34 32 
118 34 31 147 35 33 167 41 40 173 46 45 169 46 45 158 42 41 146 40 39 
138 40 39 125 43 41 110 50 48 99 60 58 92 77 76 83 75 73 90 88 87 93 93 93 
97 96 96 98 97 97 95 93 90 88 80 75 98 94 89 102 101 97 101 102 99 103 99 96 
118 118 115 126 129 128 129 133 133 133 136 137 142 147 148 144 149 151 
151 155 158 158 163 167 137 125 118 141 135 130 150 151 151 149 152 153 
139 141 142 133 133 134 129 129 129 118 114 112 98 86 79 96 85 78 107 102 99 
102 98 96 91 83 78 82 72 66 77 66 59 76 66 58 66 60 54 70 66 61 81 74 71 
79 68 63 83 51 47 92 40 37 105 38 35 122 41 40 135 41 40 150 44 43 163 44 44 
167 44 44 169 45 45 155 45 44 125 43 41 104 40 38 95 34 32 105 32 29 134 31 28 
153 32 29 166 43 41 164 45 44 147 39 37 132 34 32 123 41 40 110 47 46 
93 53 50 84 62 59 86 82 80 86 82 81 90 88 88 93 93 92 97 98 97 99 99 97 
91 85 82 83 71 64 93 86 82 101 99 96 101 100 97 108 107 106 122 124 123 
129 132 132 127 128 127 122 119 115 135 136 136 141 143 144 150 155 156 
159 164 165 156 156 155 155 156 155 151 153 153 143 143 144 138 137 137 
134 132 132 129 129 129 119 117 115 105 96 90 97 86 79 102 95 91 98 93 90 
88 79 74 82 71 64 77 66 59 77 68 61 70 64 60 75 70 66 82 77 74 86 81 78 
94 76 74 96 59 57 104 46 45 111 35 34 125 43 42 135 45 44 142 42 42 144 34 32 
158 42 41 151 44 44 118 39 37 107 43 42 103 39 37 110 35 33 129 32 30 
141 33 31 146 39 38 143 41 39 130 37 35 118 35 33 113 40 39 104 51 50 
89 59 56 81 69 65 86 82 80 90 89 89 93 92 92 96 96 96 100 102 102 102 102 102 
93 88 84 88 79 74 98 93 91 104 102 99 112 112 111 118 118 118 117 115 113 
123 122 121 118 110 106 112 98 89 137 137 136 146 147 147 152 156 153 
160 162 161 162 165 166 160 162 163 152 153 153 145 144 143 139 137 135 
134 131 130 129 129 129 121 119 117 108 101 97 104 96 91 105 101 98 100 95 92 
89 81 75 82 71 64 81 69 62 83 75 69 74 71 68 76 72 69 83 79 76 87 82 80 
89 77 75 93 66 65 97 45 43 106 31 28 123 36 34 134 44 43 129 39 37 130 32 29 
151 41 40 151 44 43 134 46 46 126 46 46 125 44 43 128 40 38 134 35 33 
135 33 31 132 36 34 129 37 35 127 34 31 119 33 31 111 44 42 101 56 55 
88 69 66 83 77 73 87 84 82 91 89 89 88 87 84 89 85 82 101 101 101 102 103 102 
93 87 84 93 86 82 101 99 96 101 96 92 96 85 77 117 113 111 118 114 112 
122 119 117 136 138 138 141 142 142 146 150 151 150 153 153 156 159 158 
162 164 162 158 157 156 157 156 154 153 152 150 147 146 144 141 139 137 
134 132 131 130 128 127 125 124 123 119 117 115 104 95 91 108 102 101 
104 100 98 93 87 81 85 76 68 86 77 71 90 85 82 79 77 75 68 60 55 77 69 66 
86 82 81 90 86 85 93 77 76 92 45 42 110 35 32 142 41 40 147 41 40 123 33 30 
122 31 28 144 38 36 154 40 39 157 43 42 158 45 45 161 48 49 159 47 47 
151 41 39 139 34 32 124 34 31 124 32 30 140 33 30 133 32 30 114 47 46 
101 65 64 91 80 78 82 76 72 75 66 61 92 89 89 89 87 84 90 89 88 98 96 96 
102 101 100 101 100 98 104 105 104 112 116 117 108 107 105 118 119 118 
125 127 127 122 122 121 123 123 121 132 133 131 139 143 141 147 152 153 
154 161 162 161 166 167 165 169 169 151 144 141 150 144 139 147 143 139 
143 139 135 140 137 135 136 134 132 131 130 128 129 127 126 116 110 107 
97 83 75 95 83 76 93 81 75 93 84 78 88 79 72 89 82 76 92 88 85 83 83 82 
77 72 69 86 82 80 90 86 85 90 87 86 90 79 77 90 54 51 113 47 46 146 45 44 
152 40 38 131 33 30 127 32 29 140 36 35 150 39 38 158 42 41 164 45 45 
166 48 49 163 48 49 154 45 44 142 40 38 130 34 31 130 32 29 145 34 31 
139 41 39 114 58 58 99 73 73 92 86 84 85 83 79 82 77 74 85 81 79 85 82 80 
89 87 85 94 91 90 98 94 92 100 98 95 103 104 102 109 110 109 112 112 110 
122 125 124 123 124 123 121 120 118 124 124 123 131 133 130 140 143 142 
151 157 158 159 166 168 164 169 171 165 169 170 145 136 133 143 133 127 
134 124 116 132 121 115 137 133 129 137 136 134 132 129 128 121 114 110 
119 112 109 106 97 91 112 108 105 101 95 90 92 82 76 85 73 66 86 77 70 
90 84 81 83 82 81 87 86 86 88 84 82 75 65 60 86 82 79 83 74 70 80 55 51 
100 50 47 130 41 39 147 37 35 148 33 30 145 32 29 137 35 32 136 38 37 
140 44 43 141 46 46 140 45 44 140 45 44 141 45 44 143 42 41 148 37 34 
148 35 32 143 36 35 129 47 46 107 69 69 95 82 82 89 86 82 80 73 69 79 74 69 
75 65 59 80 72 67 90 88 87 94 90 87 93 87 84 92 86 83 98 95 92 113 114 113 
122 125 125 116 112 110 103 91 83 107 96 90 123 122 118 136 137 136 
147 154 155 157 165 168 162 171 175 163 169 172 161 165 168 135 122 115 
138 128 122 130 116 106 125 112 104 134 126 123 136 133 131 133 130 129 
126 120 117 111 101 95 103 92 86 120 119 118 112 110 109 98 90 84 89 78 72 
87 76 70 89 81 76 79 74 71 88 88 88 95 93 92 89 85 82 88 84 83 85 79 76 
83 71 68 92 59 57 110 42 39 133 41 39 145 34 31 147 31 28 140 34 31 137 39 37 
140 45 44 141 46 45 139 42 41 139 42 41 142 43 43 145 42 41 151 39 37 
145 40 38 131 47 45 114 58 57 97 72 71 84 75 73 89 86 82 82 78 73 77 72 67 
77 70 64 86 79 76 95 93 91 95 91 87 94 88 84 94 87 85 101 97 96 118 120 120 
128 130 133 109 100 96 104 92 84 117 112 108 122 117 111 136 136 136 
151 156 158 155 162 163 160 167 168 163 168 169 163 167 168 126 108 97 
139 131 123 132 120 111 125 110 102 124 110 102 131 123 120 136 132 131 
133 131 130 115 108 101 112 103 99 121 120 120 112 108 106 107 101 99 
101 93 90 90 81 74 89 80 74 75 68 63 84 79 77 102 103 103 97 95 94 90 86 85 
85 81 79 84 77 75 87 73 70 97 65 64 108 52 50 121 36 33 134 31 28 147 35 32 
156 39 37 160 41 40 163 47 47 162 43 42 159 42 41 157 42 41 147 36 34 
137 39 37 123 47 47 109 64 63 87 59 55 85 72 69 90 85 83 88 86 83 83 77 74 
80 76 71 89 89 88 96 95 92 100 98 96 92 86 83 99 95 94 103 100 100 110 109 108 
120 120 122 120 117 116 123 120 120 130 130 131 126 124 123 130 129 128 
145 148 150 149 152 152 144 143 140 151 149 146 164 166 166 169 174 175 
145 139 134 149 146 143 138 129 123 129 116 108 125 111 102 132 124 119 
133 127 124 133 129 128 118 110 104 123 120 117 125 124 124 122 121 122 
118 116 116 106 102 101 94 85 79 91 84 77 83 79 76 92 91 90 105 106 107 
103 102 102 93 91 89 87 83 79 84 78 76 78 71 67 83 70 67 89 59 56 99 44 42 
114 37 34 132 40 38 145 43 41 152 42 41 157 47 46 156 44 43 153 44 43 
146 44 43 134 45 44 118 49 48 105 60 59 90 68 65 77 65 60 88 84 81 77 69 64 
78 69 63 76 65 59 80 70 64 92 91 88 98 98 96 102 102 100 99 96 95 101 98 98 
108 107 106 116 115 115 121 122 123 115 109 106 106 93 85 119 113 108 
128 128 127 133 134 133 146 152 153 149 151 150 137 130 124 141 134 127 
160 160 159 169 173 174 154 151 148 143 135 129 146 142 140 147 143 141 
148 145 142 143 139 137 136 130 126 128 121 117 127 123 120 127 124 122 
127 126 125 125 125 125 112 108 104 95 84 77 93 82 75 96 89 84 88 83 82 
87 83 80 96 93 91 106 106 107 98 96 93 91 86 81 79 71 66 76 67 62 75 64 59 
76 60 56 79 55 49 86 53 48 100 56 52 108 52 49 114 43 40 121 46 44 125 48 47 
121 49 48 107 50 48 98 56 54 94 67 65 92 76 75 78 66 61 76 66 61 85 80 76 
75 65 58 76 65 58 78 68 62 85 77 73 100 102 101 102 103 103 96 94 93 97 93 91 
102 97 95 110 107 107 117 116 116 123 123 123 125 124 122 116 110 105 
124 122 118 133 134 132 138 140 139 135 131 126 144 144 142 132 120 111 
131 117 108 146 139 136 162 164 167 155 150 147 151 147 143 153 152 152 
154 153 154 148 144 143 141 136 132 136 130 125 130 124 120 126 120 116 
125 120 117 128 126 123 127 126 125 104 94 87 97 85 76 104 97 93 100 92 87 
87 83 80 89 85 81 102 99 99 106 106 106 100 97 94 94 90 86 79 70 64 77 68 62 
74 65 59 73 63 57 72 62 55 75 62 57 84 64 60 91 58 56 98 46 43 104 44 41 
110 48 47 106 52 51 89 55 53 82 62 60 88 82 81 91 95 95 90 92 91 86 80 77 
83 77 73 77 66 60 78 68 61 82 73 68 97 93 89 104 106 104 101 101 100 
96 91 91 97 91 89 103 99 95 115 114 114 122 123 123 126 126 125 129 128 125 
129 127 125 131 130 128 133 133 130 128 123 117 128 117 111 145 144 142 
132 119 112 131 117 110 148 144 143 156 157 159 155 149 147 148 142 138 
148 147 146 148 150 148 131 117 109 147 146 145 132 124 117 131 124 119 
122 112 106 122 112 107 127 123 119 127 126 123 121 120 117 119 118 117 
118 117 115 110 107 104 102 95 90 96 89 84 105 102 101 100 97 95 101 100 98 
103 106 106 90 85 81 82 75 69 79 71 65 77 70 63 77 69 63 79 72 67 84 80 77 
85 82 80 84 81 79 86 83 81 86 83 81 87 85 83 82 80 78 84 81 79 94 94 94 
96 99 100 96 100 100 95 94 92 94 90 87 80 68 61 84 76 71 88 84 82 94 92 88 
99 97 93 106 107 106 102 96 94 100 92 90 107 103 101 125 126 127 132 135 136 
130 131 131 130 130 128 132 132 132 136 135 135 134 130 128 120 105 95 
124 109 100 146 141 138 138 130 125 135 126 120 144 142 142 148 150 152 
148 143 139 127 111 100 128 113 105 132 120 112 126 110 99 152 152 153 
146 144 144 138 133 129 127 118 112 126 116 111 131 126 124 130 126 125 
120 115 112 127 127 127 124 124 124 107 100 95 96 85 77 98 90 85 104 98 96 
105 102 100 107 106 106 106 110 110 103 106 107 88 83 78 84 79 74 84 78 73 
86 79 75 87 81 77 89 85 83 88 84 82 85 80 78 86 82 80 82 75 70 88 85 82 
83 78 76 88 84 83 95 94 94 99 102 103 98 99 98 96 94 92 82 73 66 81 70 63 
84 75 68 93 91 90 96 93 91 99 97 93 103 99 97 105 100 97 104 97 95 113 109 108 
132 136 137 133 137 138 133 138 139 135 138 138 133 132 132 135 134 135 
142 141 141 137 132 129 131 118 109 146 142 140 140 134 130 137 131 127 
142 141 141 144 146 147 144 141 139 144 140 138 138 130 124 136 125 119 
136 125 119 157 160 162 156 159 161 149 149 148 140 139 136 137 135 132 
138 137 137 138 138 140 138 138 140 134 133 135 127 124 124 117 113 110 
109 104 100 105 97 92 97 88 82 106 102 100 107 105 103 106 107 106 100 98 96 
94 88 84 92 88 84 92 88 86 96 93 89 97 92 90 96 89 88 91 86 85 87 82 81 
82 75 70 78 67 61 90 82 78 94 92 91 100 103 103 100 103 104 102 106 106 
101 103 103 92 89 86 99 100 98 85 74 68 91 85 81 98 96 93 101 99 95 104 102 99 
105 101 99 108 105 102 110 108 105 120 120 119 138 141 142 134 140 141 
136 141 142 138 142 142 126 125 123 128 127 125 143 145 145 152 155 155 
152 152 151 146 145 143 138 133 130 136 132 128 141 139 139 143 143 144 
134 124 118 152 156 158 165 171 176 164 171 174 161 167 172 160 166 171 
163 168 170 158 161 161 150 152 151 144 145 145 141 141 142 140 140 142 
141 141 143 137 137 137 130 128 127 116 110 106 116 112 109 115 114 112 
97 88 81 95 84 76 103 97 93 103 100 97 101 95 92 101 97 94 103 103 102 
102 102 101 104 102 100 103 99 97 100 93 92 94 85 83 86 80 76 87 84 79 
91 84 79 99 94 91 99 96 95 103 107 107 104 108 109 105 109 110 103 103 102 
100 97 95 103 104 104 93 91 90 98 95 93 102 98 96 106 102 100 109 105 103 
108 105 102 101 91 85 114 112 110 124 125 124 138 140 142 139 143 144 
140 145 146 137 138 138 128 126 124 131 129 126 144 146 145 150 151 151 
143 140 136 141 136 131 143 141 139 143 142 141 142 141 140 141 141 140 
150 154 154 157 162 164 166 173 178 168 174 180 160 167 173 159 166 173 
165 173 177 165 171 173 154 158 158 145 148 147 138 139 139 132 130 130 
137 136 136 137 136 136 135 134 133 132 132 132 130 132 135 108 101 98 
99 87 80 95 81 73 95 84 77 96 88 82 105 101 98 109 107 106 110 112 112 
109 111 111 106 104 101 104 100 98 102 95 93 98 90 87 93 87 82 94 91 86 
100 98 94 103 100 98 102 99 97 106 109 109 107 110 110 108 112 112 104 98 95 
98 90 87 98 96 95 97 97 96 100 97 96 104 101 99 111 108 106 116 112 110 
117 113 110 108 100 93 111 103 97 126 123 122 134 137 138 140 145 146 
143 149 149 141 143 145 147 150 151 149 151 151 142 140 139 139 133 131 
130 117 109 135 124 118 156 155 155 159 163 164 146 148 145 140 141 137 
156 159 160 158 162 164 164 169 173 165 169 174 160 164 170 159 164 169 
161 164 166 160 163 164 160 166 167 152 157 158 142 143 142 128 122 117 
122 113 106 133 131 128 132 130 128 133 133 132 136 139 142 126 125 125 
120 114 113 107 98 94 104 94 90 101 92 87 107 102 99 109 106 104 107 104 102 
108 108 107 107 103 102 101 95 91 105 99 97 102 94 91 94 86 79 100 98 95 
100 96 92 103 101 98 105 102 99 107 105 103 105 103 100 108 107 103 
111 111 111 113 116 116 103 102 98 98 94 90 102 98 95 106 101 98 113 108 105 
117 113 110 120 116 114 109 98 92 115 108 103 127 125 123 139 144 144 
143 149 149 146 152 152 142 142 143 152 155 155 154 155 156 144 141 141 
137 131 129 131 119 112 139 130 123 160 161 163 164 169 172 150 152 150 
143 143 140 156 156 157 157 157 158 159 158 161 160 161 164 159 161 163 
159 160 161 157 155 154 160 160 160 167 173 178 166 173 177 156 159 162 
146 145 145 131 124 118 130 122 117 123 113 109 122 113 109 130 127 127 
135 137 138 116 108 104 118 113 110 118 114 112 113 108 105 106 97 91 
103 95 89 105 100 97 104 99 94 107 104 102 109 104 102 110 106 104 107 103 102 
98 93 88 91 79 72 93 84 78 105 103 101 107 102 98 104 98 94 101 93 88 
101 94 90 112 112 112 116 121 121 104 100 96 96 84 76 104 96 91 106 99 93 
109 102 97 114 107 105 119 115 115 121 116 115 114 104 98 125 122 118 
135 137 135 144 148 148 147 149 151 150 150 153 157 158 161 158 159 161 
150 149 150 146 144 144 148 146 144 152 151 150 157 160 163 157 161 164 
152 153 154 151 150 149 157 155 156 157 155 156 156 154 155 157 155 156 
157 157 156 157 156 155 153 148 144 154 150 148 161 163 164 164 169 172 
161 164 167 148 145 142 142 137 133 134 126 122 124 114 110 116 104 95 
121 111 105 137 137 137 116 108 103 112 101 95 126 123 121 124 120 119 
111 101 95 105 94 87 105 97 93 106 102 97 99 88 82 101 91 86 115 110 107 
111 108 106 103 97 94 98 89 84 106 102 98 117 122 122 112 109 106 108 100 96 
103 94 88 101 94 88 103 100 95 110 110 108 105 97 92 102 91 84 111 104 99 
112 105 100 113 106 102 115 110 106 121 118 118 125 121 120 123 119 115 
125 119 114 129 122 119 137 133 132 148 145 147 157 159 163 161 164 166 
158 160 162 150 149 150 147 146 146 152 153 153 154 156 157 153 157 159 
153 156 158 153 153 155 154 153 155 157 155 156 157 155 155 158 156 155 
158 156 155 158 157 156 155 152 151 148 140 136 143 135 128 142 134 130 
149 144 142 161 161 162 133 119 112 139 130 125 147 141 140 140 136 136 
137 133 132 121 108 101 134 130 127 116 105 97 107 92 82 114 104 98 130 127 126 
123 114 112 115 103 99 108 97 92 107 99 91 111 104 96 115 110 103 117 110 105 
110 102 96 104 97 90 104 97 90 112 105 101 118 115 113 119 116 114 118 116 114 
113 109 105 111 107 102 108 105 101 108 102 99 114 108 105 119 113 110 
123 119 116 124 120 118 124 122 120 123 121 117 127 122 120 136 135 135 
136 136 134 129 122 117 134 128 125 141 136 135 151 146 148 156 154 156 
156 156 156 153 152 151 145 141 139 141 137 135 140 140 139 144 145 144 
150 151 151 153 153 154 152 153 154 151 152 153 148 143 141 150 146 144 
154 153 151 157 156 154 158 157 156 156 153 152 151 146 143 146 139 135 
141 134 130 148 143 142 165 167 171 169 171 174 159 157 159 154 152 152 
151 150 150 148 147 147 129 117 112 140 134 133 127 118 113 115 102 93 
117 106 100 135 130 130 131 123 123 124 114 110 115 103 97 114 104 96 
119 112 103 121 115 108 119 110 104 112 104 96 110 100 94 110 100 94 
117 109 104 121 113 109 125 126 126 125 128 128 116 112 108 116 113 108 
113 109 106 127 130 130 122 121 118 123 120 118 131 129 129 133 132 132 
129 128 125 127 126 121 131 126 122 143 145 145 148 150 150 131 123 117 
134 126 121 142 135 131 150 145 145 154 150 151 153 152 151 149 147 146 
141 138 134 137 133 129 135 133 130 138 139 138 149 150 149 153 155 155 
151 153 154 150 152 153 128 113 105 134 124 117 145 146 143 153 158 157 
156 157 156 160 160 160 155 151 149 147 142 139 159 161 165 155 157 160 
169 177 184 170 176 181 161 161 161 156 153 151 155 153 152 157 155 157 
159 161 165 137 128 125 123 111 103 137 130 130 141 135 136 138 132 132 
132 124 120 129 122 116 132 132 128 131 133 130 125 118 110 125 117 113 
124 115 110 121 112 107 121 113 107 122 116 111 119 112 107 117 107 100 
119 112 105 118 113 106 116 108 103 116 110 106 114 111 106 124 125 123 
124 124 122 111 99 90 129 126 123 137 136 135 132 128 124 131 124 118 
130 120 114 133 126 120 134 127 122 141 138 133 132 118 111 134 121 113 
148 141 138 153 151 150 153 151 151 148 145 144 142 137 133 136 133 128 
134 131 129 138 139 137 149 156 153 154 161 159 151 155 155 151 152 153 
129 116 107 134 125 118 144 144 141 148 151 149 148 145 142 154 151 150 
167 168 171 171 175 179 146 142 140 128 112 101 160 164 166 167 173 178 
159 160 160 158 155 154 157 155 153 162 160 160 165 168 173 140 133 130 
124 110 102 148 146 146 147 150 151 137 133 131 134 126 121 133 127 120 
136 133 128 134 130 125 130 124 118 129 123 117 126 118 113 127 118 112 
130 121 116 126 118 112 109 96 87 117 106 97 120 114 103 118 110 102 
115 107 101 114 107 102 116 113 109 123 122 120 118 112 106 113 99 89 
132 128 126 142 140 139 138 131 128 135 127 122 136 127 122 136 128 121 
139 131 127 159 163 164 138 130 125 134 123 116 146 142 138 154 155 154 
159 163 164 147 144 143 141 137 132 137 132 128 134 130 128 137 136 134 
144 150 146 148 155 152 149 154 154 151 153 154 151 149 148 150 148 147 
148 146 143 142 136 131 131 119 110 139 127 121 164 163 164 171 176 179 
150 149 147 136 127 121 157 161 162 163 166 168 148 142 138 160 159 158 
155 151 149 160 159 159 167 171 175 167 170 175 159 157 158 153 151 151 
147 147 146 134 125 121 133 123 119 134 128 123 143 144 142 140 136 132 
133 128 123 134 130 126 130 122 118 130 121 116 134 126 120 135 125 120 
125 115 109 132 124 119 134 127 123 125 118 112 113 105 99 109 102 97 
127 126 124 145 150 150 127 127 124 129 125 124 140 139 138 147 144 143 
144 139 136 145 140 136 151 151 149 151 149 148 148 146 145 148 146 146 
144 141 138 144 141 140 148 147 147 149 149 149 151 152 151 144 141 137 
140 137 131 138 135 129 136 131 127 135 129 126 132 132 127 135 138 134 
146 149 148 151 153 155 158 161 164 156 157 157 148 146 142 141 133 127 
130 117 110 137 127 120 159 157 157 166 168 171 157 160 159 154 158 157 
157 162 162 160 163 164 159 160 159 151 144 141 132 118 110 141 131 125 
156 154 155 161 161 163 162 162 163 155 151 150 143 136 132 138 130 125 
137 131 125 138 133 128 142 139 137 139 133 132 123 111 102 125 113 106 
131 122 116 128 116 110 137 128 123 140 132 126 138 129 122 144 143 140 
146 149 149 136 134 131 116 107 100 110 103 96 119 112 109 126 122 120 
125 116 114 131 123 121 141 135 132 147 143 141 150 147 144 151 149 146 
151 149 148 152 151 150 153 154 154 152 153 154 149 149 149 147 147 148 
147 147 147 148 148 146 143 140 138 139 135 131 140 139 133 139 136 129 
135 127 121 132 123 118 129 126 121 134 134 130 144 146 145 149 151 153 
152 153 154 150 150 149 146 143 138 145 141 135 147 142 140 150 147 146 
154 153 152 156 157 155 155 155 153 157 157 155 153 152 150 141 134 128 
153 149 146 131 116 106 126 108 97 126 108 97 152 148 147 162 161 163 
158 156 156 155 151 150 152 147 145 154 153 151 150 148 146 146 142 141 
142 138 138 140 135 134 129 117 109 126 112 104 132 123 117 133 124 118 
139 131 124 142 134 128 139 128 120 139 128 122 142 138 135 134 127 121 
121 112 107 117 109 102 131 127 122 126 118 110 124 110 102 129 115 106 
136 125 117 142 136 130 149 147 146 151 149 149 146 140 139 148 143 143 
153 153 154 152 153 152 146 145 144 145 141 139 144 141 138 145 143 140 
142 138 137 140 132 130 143 141 136 140 137 129 130 119 111 129 118 110 
138 132 127 142 142 139 144 146 145 146 148 148 149 149 150 148 147 146 
142 136 130 146 142 137 154 153 153 156 156 158 152 152 151 151 150 148 
155 153 149 158 157 154 148 141 136 126 110 99 142 133 127 126 110 99 
126 108 97 133 120 111 159 157 160 137 127 119 140 129 123 154 151 150 
154 152 150 154 151 150 152 150 149 149 146 146 144 140 141 142 138 138 
144 139 134 142 136 130 140 131 126 138 126 122 135 124 117 142 132 124 
129 113 103 127 109 100 136 123 115 135 128 122 128 119 114 122 113 108 
126 116 110 125 113 105 125 108 97 126 110 98 131 117 109 138 131 124 
149 147 146 150 149 149 144 136 135 148 144 144 156 159 159 153 153 153 
146 143 141 142 138 135 142 139 135 141 136 132 138 129 128 140 131 130 
143 142 138 140 137 130 129 115 105 129 115 105 141 136 130 146 146 143 
144 146 145 144 146 146 
