P3
64 64
255
255
0
255
255
0
255
255
0
255
255
0
255
255
0
255
255
0
255
255
0
255
255
0
255
255
0
255
255
0
255
255
0
255
255
0
255
255
0
255
255
0
255
255
0
255
255
0
255
255
0
255
255
0
255
255
0
255
255
0
255
255
0
255
255
0
255
255
0
255
255
0
255
179
51
47
179
51
47
179
51
47
179
51
47
179
51
47
179
51
47
255
0
255
255
0
255
255
0
255
255
0
255
255
0
255
255
0
255
255
0
255
255
0
255
255
0
255
255
0
255
255
0
255
255
0
255
255
0
255
255
0
255
255
0
255
255
0
255
255
0
255
255
0
255
255
0
255
255
0
255
255
0
255
255
0
255
255
0
255
255
0
255
255
0
255
255
0
255
255
0
255
255
0
255
255
0
255
255
0
255
255
0
255
255
0
255
255
0
255
255
0
255
255
0
255
255
0
255
255
0
255
255
0
255
255
0
255
255
0
255
255
0
255
255
0
255
255
0
255
255
0
255
255
0
255
255
0
255
255
0
255
255
0
255
255
0
255
255
0
255
255
0
255
255
0
255
255
0
255
255
0
255
255
0
255
255
0
255
179
51
47
179
51
47
179
51
47
179
51
47
179
51
47
179
51
47
179
51
47
179
51
47
255
0
255
255
0
255
255
0
255
255
0
255
255
0
255
255
0
255
255
0
255
255
0
255
255
0
255
255
0
255
255
0
255
255
0
255
255
0
255
255
0
255
255
0
255
255
0
255
255
0
255
255
0
255
255
0
255
255
0
255
255
0
255
255
0
255
255
0
255
255
0
255
255
0
255
255
0
255
255
0
255
255
0
255
255
0
255
255
0
255
255
0
255
255
0
255
255
0
255
255
0
255
255
0
255
255
0
255
255
0
255
255
0
255
255
0
255
255
0
255
255
0
255
255
0
255
255
0
255
255
0
255
255
0
255
255
0
255
255
0
255
255
0
255
255
0
255
255
0
255
255
0
255
255
0
255
255
0
255
255
0
255
255
0
255
179
51
47
179
51
47
179
51
47
179
51
47
179
51
47
179
51
47
179
51
47
179
51
47
179
51
47
179
51
47
255
0
255
255
0
255
255
0
255
255
0
255
255
0
255
255
0
255
255
0
255
255
0
255
255
0
255
255
0
255
255
0
255
255
0
255
255
0
255
255
0
255
255
0
255
255
0
255
255
0
255
255
0
255
255
0
255
255
0
255
255
0
255
255
0
255
255
0
255
255
0
255
255
0
255
255
0
255
255
0
255
255
0
255
255
0
255
255
0
255
255
0
255
255
0
255
255
0
255
255
0
255
255
0
255
255
0
255
255
0
255
255
0
255
255
0
255
255
0
255
255
0
255
255
0
255
255
0
255
255
0
255
255
0
255
255
0
255
255
0
255
255
0
255
255
0
255
255
0
255
255
0
255
179
51
47
179
51
47
179
51
47
179
51
47
179
51
47
179
51
47
179
51
47
179
51
47
179
51
47
179
51
47
179
51
47
179
51
47
179
51
47
255
0
255
255
0
255
255
0
255
255
0
255
255
0
255
255
0
255
255
0
255
255
0
255
255
0
255
255
0
255
255
0
255
255
0
255
255
0
255
255
0
255
255
0
255
255
0
255
255
0
255
255
0
255
255
0
255
255
0
255
255
0
255
255
0
255
255
0
255
255
0
255
255
0
255
255
0
255
255
0
255
255
0
255
255
0
255
255
0
255
255
0
255
255
0
255
255
0
255
255
0
255
255
0
255
255
0
255
255
0
255
255
0
255
255
0
255
255
0
255
255
0
255
255
0
255
255
0
255
255
0
255
255
0
255
255
0
255
255
0
255
255
0
255
179
51
47
178
52
48
179
51
47
179
51
47
179
51
47
179
51
47
179
51
47
179
51
47
179
51
47
179
51
47
179
51
47
179
51
47
179
51
47
179
51
47
179
51
47
255
0
255
255
0
255
255
0
255
255
0
255
255
0
255
255
0
255
255
0
255
255
0
255
255
0
255
255
0
255
255
0
255
255
0
255
255
0
255
255
0
255
255
0
255
255
0
255
255
0
255
255
0
255
255
0
255
255
0
255
255
0
255
255
0
255
255
0
255
255
0
255
255
0
255
255
0
255
255
0
255
255
0
255
255
0
255
255
0
255
255
0
255
255
0
255
255
0
255
255
0
255
255
0
255
255
0
255
255
0
255
255
0
255
255
0
255
255
0
255
255
0
255
255
0
255
255
0
255
255
0
255
99
99
99
99
99
99
99
99
99
99
99
99
94
94
94
75
75
75
95
95
95
108
94
93
99
99
99
121
86
85
145
71
69
179
51
47
255
0
255
255
0
255
179
51
47
179
51
47
179
51
47
179
51
47
179
51
47
179
51
47
255
0
255
255
0
255
255
0
255
255
0
255
255
0
255
255
0
255
255
0
255
255
0
255
255
0
255
255
0
255
255
0
255
255
0
255
255
0
255
255
0
255
255
0
255
255
0
255
255
0
255
255
0
255
255
0
255
255
0
255
255
0
255
255
0
255
255
0
255
255
0
255
255
0
255
255
0
255
255
0
255
255
0
255
255
0
255
255
0
255
255
0
255
255
0
255
255
0
255
255
0
255
255
0
255
255
0
255
255
0
255
255
0
255
255
0
255
255
0
255
255
0
255
255
0
255
99
99
99
99
99
99
99
99
99
99
99
99
96
96
96
85
85
85
80
80
80
65
65
65
64
64
64
67
67
67
75
75
75
74
74
74
99
99
99
99
99
99
255
0
255
255
0
255
185
67
63
179
52
48
179
51
47
177
50
46
163
46
43
255
0
255
255
0
255
255
0
255
255
0
255
255
0
255
255
0
255
255
0
255
255
0
255
255
0
255
255
0
255
255
0
255
255
0
255
255
0
255
255
0
255
255
0
255
255
0
255
255
0
255
255
0
255
255
0
255
255
0
255
255
0
255
255
0
255
255
0
255
255
0
255
255
0
255
255
0
255
255
0
255
255
0
255
255
0
255
255
0
255
255
0
255
255
0
255
255
0
255
255
0
255
255
0
255
255
0
255
255
0
255
255
0
255
255
0
255
255
0
255
255
0
255
255
0
255
99
99
99
99
99
99
99
99
99
99
99
99
99
99
99
76
76
76
75
75
75
74
74
74
62
62
62
107
107
107
107
107
107
56
56
56
58
58
58
60
60
60
84
84
84
99
99
99
116
109
64
180
166
142
156
147
115
120
105
63
92
87
51
89
83
49
114
107
63
255
0
255
255
0
255
255
0
255
255
0
255
255
0
255
255
0
255
255
0
255
255
0
255
255
0
255
255
0
255
255
0
255
255
0
255
255
0
255
255
0
255
255
0
255
255
0
255
255
0
255
255
0
255
255
0
255
255
0
255
255
0
255
255
0
255
255
0
255
255
0
255
255
0
255
255
0
255
255
0
255
255
0
255
255
0
255
255
0
255
255
0
255
255
0
255
255
0
255
255
0
255
255
0
255
255
0
255
255
0
255
255
0
255
255
0
255
255
0
255
126
126
126
150
150
150
125
125
125
99
99
99
75
75
75
130
130
130
102
102
102
75
75
75
65
65
65
58
58
58
115
115
115
117
117
117
106
106
106
71
71
71
45
45
45
46
46
46
52
52
52
182
179
158
185
181
159
138
132
94
116
109
64
99
93
54
72
67
40
83
79
46
102
96
56
255
0
255
255
0
255
255
0
255
255
0
255
255
0
255
255
0
255
255
0
255
255
0
255
255
0
255
255
0
255
255
0
255
255
0
255
255
0
255
255
0
255
255
0
255
255
0
255
255
0
255
255
0
255
255
0
255
255
0
255
255
0
255
255
0
255
255
0
255
255
0
255
255
0
255
255
0
255
255
0
255
255
0
255
255
0
255
255
0
255
255
0
255
255
0
255
255
0
255
255
0
255
255
0
255
255
0
255
255
0
255
255
0
255
255
255
255
164
164
164
140
140
140
127
127
127
74
74
74
70
70
70
136
136
136
118
118
118
68
68
68
59
59
59
62
62
62
76
76
76
102
102
102
107
107
107
105
105
105
69
69
69
45
45
45
44
44
44
99
96
69
120
114
70
106
100
59
91
86
50
88
82
48
71
66
39
72
68
40
91
86
50
116
109
64
255
0
255
255
0
255
255
0
255
255
0
255
255
0
255
255
0
255
255
0
255
255
0
255
255
0
255
255
0
255
255
0
255
255
0
255
255
0
255
255
0
255
255
0
255
255
0
255
255
0
255
255
0
255
255
0
255
255
0
255
255
0
255
255
0
255
255
0
255
255
0
255
255
0
255
255
0
255
255
0
255
255
0
255
255
0
255
255
0
255
255
0
255
255
0
255
255
0
255
255
0
255
255
0
255
255
0
255
255
0
255
182
182
182
145
145
145
129
129
129
73
73
73
70
70
70
95
95
95
136
136
136
130
130
130
61
61
61
60
60
60
69
69
69
75
75
75
75
75
75
89
89
89
107
107
107
110
110
110
72
72
72
48
48
48
58
55
34
115
108
64
95
89
52
88
83
49
89
84
49
97
92
54
50
48
28
88
83
49
110
103
60
255
0
255
255
0
255
255
0
255
255
0
255
255
0
255
255
0
255
255
0
255
255
0
255
255
0
255
255
0
255
255
0
255
255
0
255
113
110
89
113
110
89
113
110
89
113
110
89
113
110
89
113
110
89
113
110
89
113
110
89
255
0
255
255
0
255
255
0
255
255
0
255
255
0
255
255
0
255
255
0
255
255
0
255
255
0
255
255
0
255
255
0
255
255
0
255
255
0
255
255
0
255
255
0
255
255
0
255
255
0
255
167
167
167
139
139
139
89
89
89
67
67
67
95
95
95
99
99
99
136
136
136
130
130
130
59
59
59
61
61
61
72
72
72
75
75
75
75
75
75
75
75
75
96
96
96
102
102
102
93
93
93
21
21
21
34
33
29
102
95
56
114
107
63
60
56
33
71
67
39
89
83
49
49
46
27
79
74
44
102
96
56
255
0
255
255
0
255
255
0
255
255
0
255
255
0
255
255
0
255
255
0
255
255
0
255
255
0
255
255
0
255
255
0
255
255
0
255
255
0
255
113
110
89
123
120
100
121
118
98
120
117
97
113
110
89
113
110
89
113
110
89
255
0
255
255
0
255
255
0
255
255
0
255
255
0
255
255
0
255
255
0
255
255
0
255
255
0
255
255
0
255
255
0
255
255
0
255
255
0
255
255
0
255
255
0
255
255
0
255
99
99
99
152
152
152
136
136
136
63
63
63
87
87
87
99
99
99
99
99
99
136
136
136
123
123
123
64
64
64
59
59
59
74
74
74
75
75
75
75
75
75
75
75
75
75
75
75
127
127
127
101
101
101
37
37
37
16
16
16
55
54
51
116
109
64
63
60
35
41
39
23
88
83
49
48
46
26
74
70
41
103
97
57
255
0
255
255
0
255
255
0
255
255
0
255
255
0
255
255
0
255
255
0
255
255
0
255
255
0
255
255
0
255
255
0
255
255
0
255
113
110
89
121
118
98
139
137
120
126
123
104
113
110
89
113
110
89
113
110
89
113
110
89
113
110
89
255
0
255
255
0
255
255
0
255
255
0
255
255
0
255
255
0
255
255
0
255
255
0
255
255
0
255
255
0
255
255
0
255
255
0
255
255
0
255
255
0
255
255
0
255
191
191
191
145
145
145
130
130
130
64
64
64
99
99
99
99
99
99
99
99
99
149
149
149
112
112
112
84
84
84
59
59
59
75
75
75
75
75
75
75
75
75
75
75
75
75
75
75
101
101
101
135
135
135
83
83
83
17
17
17
48
48
48
116
109
64
79
74
44
66
62
36
93
88
51
77
73
42
102
96
56
116
109
64
255
0
255
255
0
255
255
0
255
255
0
255
255
0
255
255
0
255
255
0
255
255
0
255
255
0
255
255
0
255
255
0
255
255
0
255
128
125
106
139
136
119
113
110
89
113
110
89
113
110
89
113
110
89
113
110
89
113
110
89
113
110
89
113
110
89
255
0
255
255
0
255
255
0
255
255
0
255
255
0
255
255
0
255
255
0
255
255
0
255
255
0
255
255
0
255
255
0
255
255
0
255
255
0
255
255
0
255
218
218
218
141
141
141
124
124
124
80
80
80
99
99
99
99
99
99
99
99
99
136
136
136
112
112
112
89
89
89
65
65
65
75
75
75
75
75
75
75
75
75
75
75
75
75
75
75
78
78
78
123
123
123
105
105
105
33
33
33
52
52
52
110
103
61
88
83
49
88
83
49
73
69
40
82
77
46
73
68
40
255
0
255
255
0
255
255
0
255
255
0
255
255
0
255
255
0
255
255
0
255
255
0
255
255
0
255
255
0
255
255
0
255
255
0
255
255
0
255
120
117
97
122
119
98
113
110
89
113
110
89
113
110
89
113
110
89
113
110
89
113
110
89
113
110
89
113
110
89
255
0
255
255
0
255
255
0
255
255
0
255
255
0
255
255
0
255
255
0
255
255
0
255
255
0
255
255
0
255
255
0
255
255
0
255
255
0
255
255
0
255
243
243
243
140
140
140
123
123
123
82
82
82
99
99
99
99
99
99
99
99
99
135
135
135
113
113
113
80
80
80
57
57
57
75
75
75
75
75
75
75
75
75
75
75
75
75
75
75
75
75
75
80
80
80
89
89
89
33
33
33
53
53
53
115
108
63
95
89
52
70
66
39
71
67
40
43
41
24
45
43
25
255
0
255
255
0
255
255
0
255
255
0
255
255
0
255
255
0
255
255
0
255
255
0
255
255
0
255
255
0
255
255
0
255
255
0
255
255
0
255
120
117
97
113
110
89
113
110
89
113
110
89
113
110
89
113
110
89
113
110
89
74
72
58
65
64
51
113
110
89
255
0
255
255
0
255
255
0
255
255
0
255
255
0
255
255
0
255
255
0
255
255
0
255
255
0
255
255
0
255
255
0
255
255
0
255
255
0
255
255
0
255
240
240
240
140
140
140
114
114
114
81
81
81
99
99
99
99
99
99
99
99
99
134
134
134
111
111
111
74
74
74
49
49
49
75
75
75
75
75
75
75
75
75
75
75
75
75
75
75
75
75
75
74
74
74
77
77
77
36
36
36
59
59
59
116
109
64
86
81
48
71
67
40
23
21
13
27
26
15
24
22
13
255
0
255
255
0
255
255
0
255
255
0
255
255
0
255
255
0
255
255
0
255
255
0
255
255
0
255
255
0
255
255
0
255
255
0
255
255
0
255
125
122
102
118
115
94
113
110
89
113
110
89
113
110
89
113
110
89
60
59
47
48
47
38
52
50
41
113
110
89
255
0
255
255
0
255
255
0
255
255
0
255
255
0
255
255
0
255
255
0
255
255
0
255
255
0
255
255
0
255
255
0
255
255
0
255
255
0
255
255
0
255
195
195
195
140
140
140
118
118
118
81
81
81
99
99
99
99
99
99
99
99
99
130
130
130
111
111
111
77
77
77
49
49
49
75
75
75
75
75
75
75
75
75
75
75
75
75
75
75
75
75
75
68
68
68
36
36
36
38
38
38
61
61
61
110
103
61
74
69
41
35
33
20
2
2
1
50
47
27
128
121
80
155
150
118
93
88
52
72
67
39
70
65
38
255
0
255
255
0
255
255
0
255
255
0
255
255
0
255
255
0
255
255
0
255
255
0
255
255
0
255
184
183
173
114
111
90
113
110
89
107
104
85
63
61
49
34
33
27
52
50
41
40
39
31
97
94
76
255
0
255
255
0
255
255
0
255
255
0
255
255
0
255
255
0
255
255
0
255
255
0
255
255
0
255
255
0
255
255
0
255
255
0
255
255
0
255
255
0
255
255
0
255
180
180
180
141
141
141
122
122
122
80
80
80
99
99
99
99
99
99
99
99
99
126
126
126
111
111
111
84
84
84
59
59
59
64
64
64
75
75
75
75
75
75
75
75
75
75
75
75
75
75
75
73
73
73
68
68
68
36
36
36
60
60
60
111
105
61
80
75
45
51
47
28
35
34
20
80
75
44
176
172
147
170
167
146
58
55
32
45
42
25
63
59
35
255
0
255
255
0
255
255
0
255
255
0
255
255
0
255
255
0
255
255
0
255
255
0
255
255
0
255
255
0
255
113
110
89
106
104
84
70
67
55
34
34
27
34
32
27
54
52
42
86
84
68
113
110
89
255
0
255
255
0
255
255
0
255
255
0
255
255
0
255
255
0
255
255
0
255
255
0
255
255
0
255
255
0
255
255
0
255
255
0
255
255
0
255
255
0
255
255
0
255
189
189
189
141
141
141
118
118
118
78
78
78
99
99
99
99
99
99
99
99
99
122
122
122
133
133
133
107
107
107
62
62
62
63
63
63
75
75
75
75
75
75
75
75
75
75
75
75
75
75
75
81
81
81
80
80
80
36
36
36
60
60
60
108
102
60
70
66
39
68
63
37
96
90
53
115
108
64
116
109
64
116
109
64
116
109
64
68
63
37
49
47
27
48
45
27
255
0
255
255
0
255
255
0
255
255
0
255
255
0
255
255
0
255
255
0
255
255
0
255
255
0
255
255
0
255
113
110
89
107
104
84
57
55
45
111
108
88
113
110
89
255
0
255
255
0
255
255
0
255
255
0
255
255
0
255
255
0
255
255
0
255
255
0
255
255
0
255
255
0
255
255
0
255
255
0
255
255
0
255
255
0
255
255
0
255
255
0
255
255
0
255
200
200
200
141
141
141
125
125
125
82
82
82
97
97
97
99
99
99
99
99
99
118
118
118
136
136
136
116
116
116
64
64
64
69
69
69
75
75
75
75
75
75
75
75
75
75
75
75
75
75
75
78
78
78
81
81
81
36
36
36
54
54
54
91
85
50
88
83
49
105
99
58
116
109
64
116
109
64
116
109
64
116
109
64
116
109
64
116
109
64
92
87
51
88
83
49
64
60
35
255
0
255
255
0
255
255
0
255
255
0
255
255
0
255
255
0
255
255
0
255
255
0
255
255
0
255
113
110
89
75
73
59
57
55
45
49
48
38
255
0
255
255
0
255
255
0
255
255
0
255
255
0
255
255
0
255
255
0
255
255
0
255
255
0
255
255
0
255
255
0
255
255
0
255
255
0
255
255
0
255
255
0
255
255
0
255
255
0
255
255
0
255
220
220
220
142
142
142
131
131
131
99
99
99
99
99
99
99
99
99
99
99
99
116
116
116
136
136
136
125
125
125
63
63
63
63
63
63
75
75
75
75
75
75
75
75
75
75
75
75
75
75
75
68
68
68
83
83
83
36
36
36
50
50
50
88
83
49
88
83
49
107
101
59
116
109
64
116
109
64
116
109
64
116
109
64
116
109
64
103
97
57
87
82
48
66
62
37
54
51
30
83
78
46
255
0
255
255
0
255
255
0
255
255
0
255
255
0
255
255
0
255
255
0
255
113
110
89
113
110
89
58
57
46
55
54
43
255
0
255
255
0
255
255
0
255
255
0
255
255
0
255
255
0
255
255
0
255
255
0
255
255
0
255
255
0
255
255
0
255
255
0
255
255
0
255
255
0
255
255
0
255
255
0
255
255
0
255
255
0
255
255
0
255
255
0
255
144
144
144
135
135
135
99
99
99
99
99
99
99
99
99
99
99
99
108
108
108
136
136
136
129
129
129
62
62
62
67
67
67
75
75
75
75
75
75
75
75
75
75
75
75
75
75
75
60
60
60
85
85
85
38
38
38
56
56
54
99
93
55
88
83
49
88
83
48
104
98
57
106
100
59
102
96
56
93
87
51
89
83
49
88
83
49
79
75
44
46
43
26
44
42
25
53
50
29
49
46
27
255
0
255
255
0
255
255
0
255
255
0
255
255
0
255
255
0
255
113
110
89
113
110
89
62
60
49
192
5
190
255
0
255
255
0
255
255
0
255
255
0
255
255
0
255
255
0
255
255
0
255
255
0
255
255
0
255
255
0
255
255
0
255
255
0
255
255
0
255
255
0
255
255
0
255
255
0
255
255
0
255
255
0
255
255
0
255
255
0
255
147
147
147
136
136
136
99
99
99
99
99
99
99
99
99
99
99
99
99
99
99
136
136
136
134
134
134
59
59
59
70
70
70
75
75
75
75
75
75
75
75
75
75
75
75
75
75
75
57
57
57
91
91
91
42
42
42
99
97
57
97
96
40
95
94
39
50
48
26
51
48
29
88
83
49
88
83
49
71
67
40
67
63
37
91
86
50
105
99
58
92
86
51
78
75
39
95
95
39
101
101
41
113
113
46
255
0
255
255
0
255
255
0
255
255
0
255
255
0
255
113
110
87
113
110
89
108
105
80
255
0
255
255
0
255
255
0
255
255
0
255
255
0
255
255
0
255
255
0
255
255
0
255
255
0
255
255
0
255
255
0
255
255
0
255
255
0
255
255
0
255
255
0
255
255
0
255
255
0
255
255
0
255
255
0
255
255
0
255
255
0
255
150
150
150
137
137
137
106
106
106
99
99
99
99
99
99
99
99
99
99
99
99
136
136
136
135
135
135
60
60
60
70
70
70
75
75
75
75
75
75
75
75
75
75
75
75
75
75
75
57
57
57
91
91
91
44
44
44
81
76
47
97
97
40
96
96
39
60
60
25
87
87
37
77
72
42
69
64
38
79
75
45
88
83
48
188
188
107
193
193
122
173
173
71
126
125
54
100
100
41
96
96
39
95
95
39
255
0
255
173
173
71
116
114
50
115
112
52
116
109
64
116
109
64
116
109
64
116
109
64
116
109
64
255
0
255
255
0
255
255
0
255
255
0
255
255
0
255
255
0
255
255
0
255
255
0
255
255
0
255
255
0
255
255
0
255
255
0
255
255
0
255
255
0
255
255
0
255
255
0
255
255
0
255
255
0
255
255
0
255
255
0
255
146
146
146
137
137
137
115
115
115
99
99
99
99
99
99
99
99
99
99
99
99
135
135
135
136
136
136
63
63
63
66
66
66
75
75
75
75
75
75
75
75
75
75
75
75
75
75
75
61
61
61
88
88
88
46
46
46
78
75
51
111
110
46
51
51
21
67
67
27
83
83
34
65
62
35
54
50
29
83
79
46
94
89
52
195
195
125
188
188
109
201
201
142
188
187
122
172
172
71
130
130
53
98
98
40
100
97
48
130
129
55
98
98
40
69
69
28
60
56
33
103
97
57
89
84
49
60
57
33
50
47
27
255
0
255
255
0
255
255
0
255
255
0
255
255
0
255
255
0
255
255
0
255
255
0
255
255
0
255
255
0
255
255
0
255
255
0
255
255
0
255
255
0
255
255
0
255
255
0
255
255
0
255
255
0
255
255
0
255
255
0
255
140
140
140
137
137
137
123
123
123
99
99
99
99
99
99
99
99
99
99
99
99
132
132
132
136
136
136
71
71
71
74
74
74
75
75
75
75
75
75
75
75
75
75
75
75
75
75
75
75
75
75
83
83
83
46
46
46
71
70
67
96
96
40
39
39
16
84
84
34
79
79
32
82
81
34
84
84
35
74
70
41
95
89
52
255
0
255
255
0
255
191
191
115
203
203
151
192
191
125
171
171
71
173
173
71
128
123
66
134
129
66
78
78
32
26
26
11
54
53
25
87
83
54
79
74
51
255
0
255
255
0
255
255
0
255
255
0
255
255
0
255
255
0
255
255
0
255
255
0
255
255
0
255
255
0
255
255
0
255
255
0
255
255
0
255
255
0
255
255
0
255
255
0
255
255
0
255
255
0
255
255
0
255
255
0
255
255
0
255
255
0
255
130
130
130
138
138
138
128
128
128
99
99
99
99
99
99
99
99
99
99
99
99
129
129
129
136
136
136
76
76
76
85
85
85
83
83
83
75
75
75
75
75
75
75
75
75
75
75
75
75
75
75
58
58
58
39
39
39
70
70
70
86
86
35
92
92
37
124
124
51
56
56
23
82
82
33
96
96
39
102
102
42
133
129
62
255
0
255
255
0
255
255
0
255
255
0
255
217
216
184
194
193
137
178
176
139
124
119
84
82
77
45
111
111
46
48
48
21
35
34
28
91
89
72
49
47
38
255
0
255
255
0
255
255
0
255
255
0
255
255
0
255
255
0
255
255
0
255
255
0
255
255
0
255
255
0
255
255
0
255
255
0
255
255
0
255
255
0
255
255
0
255
255
0
255
255
0
255
255
0
255
255
0
255
255
0
255
255
0
255
255
0
255
105
105
105
138
138
138
132
132
132
99
99
99
99
99
99
99
99
99
99
99
99
126
126
126
136
136
136
77
77
77
84
84
84
84
84
84
75
75
75
75
75
75
75
75
75
75
75
75
75
75
75
59
59
59
47
47
47
116
116
70
59
59
24
101
101
41
173
173
71
91
91
37
51
51
21
96
96
39
96
96
39
137
137
56
255
0
255
255
0
255
255
0
255
255
0
255
255
255
255
230
229
221
164
159
129
82
77
45
45
42
25
27
25
15
0
0
0
111
108
88
98
95
77
98
13
96
255
0
255
255
0
255
255
0
255
255
0
255
255
0
255
255
0
255
255
0
255
255
0
255
255
0
255
255
0
255
255
0
255
255
0
255
255
0
255
255
0
255
255
0
255
255
0
255
255
0
255
255
0
255
255
0
255
255
0
255
255
0
255
255
0
255
99
99
99
139
139
139
133
133
133
99
99
99
99
99
99
99
99
99
99
99
99
129
129
129
136
136
136
76
76
76
80
80
80
76
76
76
75
75
75
75
75
75
75
75
75
75
75
75
75
75
75
60
60
60
48
48
48
67
67
67
70
70
28
149
149
61
173
173
71
164
164
67
54
54
23
78
78
32
95
95
39
91
91
38
255
0
255
255
0
255
255
0
255
255
0
255
255
0
255
255
0
255
137
137
137
255
0
255
255
0
255
255
0
255
113
110
89
113
110
89
55
54
44
43
42
34
255
0
255
255
0
255
255
0
255
255
0
255
255
0
255
255
0
255
255
0
255
255
0
255
255
0
255
255
0
255
255
0
255
255
0
255
255
0
255
255
0
255
255
0
255
255
0
255
255
0
255
255
0
255
255
0
255
255
0
255
255
0
255
255
0
255
99
99
99
140
140
140
135
135
135
99
99
99
99
99
99
99
99
99
99
99
99
129
129
129
136
136
136
83
83
83
65
65
65
76
76
76
75
75
75
75
75
75
75
75
75
75
75
75
75
75
75
61
61
61
49
49
49
64
64
64
96
96
39
143
143
59
173
173
71
173
173
71
94
94
39
53
53
22
91
91
37
88
88
36
255
0
255
255
0
255
255
0
255
255
0
255
255
0
255
255
0
255
255
0
255
255
0
255
255
0
255
255
0
255
255
0
255
92
90
73
80
78
63
101
98
79
255
0
255
255
0
255
255
0
255
255
0
255
255
0
255
255
0
255
255
0
255
255
0
255
255
0
255
255
0
255
255
0
255
255
0
255
255
0
255
255
0
255
255
0
255
255
0
255
255
0
255
255
0
255
255
0
255
255
0
255
255
0
255
255
0
255
255
0
255
140
140
140
136
136
136
104
104
104
99
99
99
99
99
99
99
99
99
131
131
131
136
136
136
78
78
78
62
62
62
78
78
78
75
75
75
75
75
75
75
75
75
75
75
75
75
75
75
59
59
59
38
38
38
52
52
52
93
93
39
136
136
56
173
173
71
173
173
71
93
93
38
65
65
27
117
116
49
255
0
255
255
0
255
255
0
255
255
0
255
255
0
255
255
0
255
255
0
255
255
0
255
255
0
255
255
0
255
255
0
255
255
0
255
76
74
60
113
110
89
113
110
89
255
0
255
255
0
255
255
0
255
255
0
255
255
0
255
255
0
255
255
0
255
255
0
255
255
0
255
255
0
255
255
0
255
255
0
255
255
0
255
255
0
255
255
0
255
255
0
255
255
0
255
255
0
255
255
0
255
255
0
255
255
0
255
255
0
255
255
0
255
140
140
140
137
137
137
110
110
110
99
99
99
99
99
99
99
99
99
131
131
131
136
136
136
80
80
80
63
63
63
77
77
77
75
75
75
75
75
75
75
75
75
75
75
75
75
75
75
72
72
72
37
37
37
45
45
45
95
95
40
123
123
51
173
173
71
173
173
71
166
165
69
82
80
40
41
39
23
255
0
255
255
0
255
255
0
255
255
0
255
255
0
255
255
0
255
255
0
255
255
0
255
255
0
255
255
0
255
255
0
255
255
0
255
113
110
89
113
110
89
113
110
89
255
0
255
255
0
255
255
0
255
255
0
255
255
0
255
255
0
255
255
0
255
255
0
255
255
0
255
255
0
255
255
0
255
255
0
255
255
0
255
255
0
255
255
0
255
255
0
255
255
0
255
255
0
255
255
0
255
255
0
255
255
0
255
255
0
255
255
0
255
138
138
138
137
137
137
117
117
117
99
99
99
99
99
99
99
99
99
129
129
129
136
136
136
104
104
104
62
62
62
78
78
78
75
75
75
75
75
75
75
75
75
75
75
75
75
75
75
60
60
60
30
30
30
35
35
35
101
101
42
156
155
64
173
173
71
162
161
68
57
53
31
47
43
25
39
36
22
255
0
255
255
0
255
255
0
255
255
0
255
255
0
255
255
0
255
255
0
255
255
0
255
255
0
255
255
0
255
255
0
255
255
0
255
255
0
255
255
0
255
255
0
255
255
0
255
255
0
255
255
0
255
255
0
255
255
0
255
255
0
255
255
0
255
255
0
255
255
0
255
255
0
255
255
0
255
255
0
255
255
0
255
255
0
255
255
0
255
255
0
255
255
0
255
255
0
255
255
0
255
255
0
255
255
0
255
255
0
255
255
0
255
135
135
135
138
138
138
124
124
124
99
99
99
99
99
99
99
99
99
125
125
125
136
136
136
118
118
118
61
61
61
89
89
89
75
75
75
75
75
75
75
75
75
75
75
75
75
75
75
86
86
86
57
57
57
44
44
44
127
124
64
125
122
59
88
82
48
67
63
37
52
49
28
51
48
29
78
72
43
255
0
255
255
0
255
255
0
255
255
0
255
255
0
255
255
0
255
255
0
255
255
0
255
255
0
255
255
0
255
255
0
255
255
0
255
255
0
255
255
0
255
255
0
255
255
0
255
255
0
255
255
0
255
255
0
255
255
0
255
255
0
255
255
0
255
255
0
255
255
0
255
255
0
255
255
0
255
255
0
255
255
0
255
255
0
255
255
0
255
255
0
255
255
0
255
255
0
255
255
0
255
255
0
255
255
0
255
255
0
255
255
0
255
123
123
123
139
139
139
123
123
123
97
97
97
99
99
99
99
99
99
111
111
111
136
136
136
132
132
132
60
60
60
75
75
75
75
75
75
75
75
75
75
75
75
75
75
75
75
75
75
85
85
85
61
61
61
48
48
48
91
85
53
88
83
49
84
79
47
68
64
37
76
72
42
88
83
49
87
82
48
255
0
255
255
0
255
255
0
255
255
0
255
255
0
255
255
0
255
255
0
255
255
0
255
255
0
255
255
0
255
255
0
255
255
0
255
255
0
255
255
0
255
255
0
255
255
0
255
255
0
255
255
0
255
255
0
255
255
0
255
255
0
255
255
0
255
255
0
255
255
0
255
255
0
255
255
0
255
255
0
255
255
0
255
255
0
255
255
0
255
255
0
255
255
0
255
255
0
255
255
0
255
255
0
255
255
0
255
255
0
255
255
0
255
99
99
99
143
143
143
116
116
116
85
85
85
99
99
99
99
99
99
99
99
99
135
135
135
136
136
136
62
62
62
70
70
70
75
75
75
75
75
75
75
75
75
75
75
75
75
75
75
80
80
80
66
66
66
50
50
50
100
96
65
110
103
61
110
103
61
94
88
52
88
83
49
88
83
49
88
83
49
255
0
255
255
0
255
255
0
255
255
0
255
255
0
255
255
0
255
255
0
255
255
0
255
255
0
255
255
0
255
255
0
255
255
0
255
255
0
255
255
0
255
255
0
255
255
0
255
255
0
255
255
0
255
255
0
255
255
0
255
255
0
255
255
0
255
255
0
255
255
0
255
255
0
255
255
0
255
255
0
255
255
0
255
255
0
255
255
0
255
255
0
255
255
0
255
255
0
255
255
0
255
255
0
255
255
0
255
255
0
255
255
0
255
255
0
255
149
149
149
136
136
136
85
85
85
94
94
94
99
99
99
99
99
99
131
131
131
136
136
136
82
82
82
61
61
61
75
75
75
75
75
75
75
75
75
75
75
75
62
62
62
97
97
97
60
60
60
50
50
50
95
94
86
116
109
64
116
109
64
111
104
61
88
83
49
88
83
49
88
83
49
92
87
51
92
87
51
255
0
255
255
0
255
255
0
255
255
0
255
255
0
255
255
0
255
255
0
255
255
0
255
255
0
255
255
0
255
255
0
255
255
0
255
255
0
255
255
0
255
255
0
255
255
0
255
255
0
255
255
0
255
255
0
255
255
0
255
255
0
255
255
0
255
255
0
255
255
0
255
255
0
255
255
0
255
255
0
255
255
0
255
255
0
255
255
0
255
255
0
255
255
0
255
255
0
255
255
0
255
255
0
255
255
0
255
255
0
255
162
162
162
137
137
137
105
105
105
83
83
83
99
99
99
99
99
99
124
124
124
136
136
136
88
88
88
54
54
54
75
75
75
75
75
75
75
75
75
66
66
66
67
67
67
120
120
120
69
69
69
50
50
50
94
94
94
116
109
64
116
109
64
115
108
63
81
76
45
67
63
37
67
63
37
69
65
39
56
53
31
255
0
255
255
0
255
255
0
255
255
0
255
255
0
255
255
0
255
255
0
255
255
0
255
255
0
255
255
0
255
255
0
255
255
0
255
255
0
255
255
0
255
255
0
255
255
0
255
255
0
255
255
0
255
255
0
255
255
0
255
255
0
255
255
0
255
255
0
255
255
0
255
255
0
255
255
0
255
255
0
255
255
0
255
255
0
255
255
0
255
255
0
255
255
0
255
255
0
255
255
0
255
255
0
255
255
0
255
255
0
255
157
157
157
137
137
137
131
131
131
78
78
78
99
99
99
99
99
99
119
119
119
136
136
136
95
95
95
50
50
50
74
74
74
75
75
75
75
75
75
54
54
54
63
63
63
86
86
86
63
63
63
50
50
50
93
93
93
114
107
63
95
89
52
88
83
49
88
83
49
70
65
39
104
103
47
108
107
47
115
114
49
255
0
255
255
0
255
255
0
255
255
0
255
255
0
255
255
0
255
255
0
255
255
0
255
255
0
255
255
0
255
255
0
255
255
0
255
255
0
255
255
0
255
255
0
255
255
0
255
255
0
255
255
0
255
255
0
255
255
0
255
255
0
255
255
0
255
255
0
255
255
0
255
255
0
255
255
0
255
255
0
255
255
0
255
255
0
255
255
0
255
255
0
255
255
0
255
255
0
255
255
0
255
255
0
255
255
0
255
255
0
255
99
99
99
139
139
139
136
136
136
83
83
83
89
89
89
99
99
99
104
104
104
136
136
136
130
130
130
55
55
55
65
65
65
75
75
75
65
65
65
40
40
40
62
62
62
94
94
94
68
68
68
50
50
50
94
94
94
105
99
60
88
83
49
88
83
49
101
97
50
75
75
31
44
44
18
67
67
28
173
173
71
255
0
255
255
0
255
255
0
255
255
0
255
255
0
255
255
0
255
255
0
255
255
0
255
255
0
255
255
0
255
255
0
255
255
0
255
255
0
255
255
0
255
255
0
255
255
0
255
255
0
255
255
0
255
255
0
255
255
0
255
255
0
255
255
0
255
255
0
255
255
0
255
255
0
255
255
0
255
255
0
255
255
0
255
255
0
255
255
0
255
255
0
255
255
0
255
255
0
255
255
0
255
255
0
255
255
0
255
255
0
255
99
99
99
136
136
136
136
136
136
117
117
117
80
80
80
99
99
99
99
99
99
135
135
135
136
136
136
63
63
63
58
58
58
63
63
63
51
51
51
28
28
28
76
76
76
101
101
101
63
63
63
54
54
54
99
99
99
102
100
89
101
95
56
155
154
67
163
163
67
80
80
32
53
53
22
101
101
42
255
0
255
255
0
255
255
0
255
255
0
255
255
0
255
255
0
255
255
0
255
255
0
255
255
0
255
255
0
255
255
0
255
255
0
255
255
0
255
255
0
255
255
0
255
255
0
255
255
0
255
255
0
255
255
0
255
255
0
255
255
0
255
255
0
255
255
0
255
255
0
255
255
0
255
255
0
255
255
0
255
255
0
255
255
0
255
255
0
255
255
0
255
255
0
255
255
0
255
255
0
255
255
0
255
255
0
255
255
0
255
255
0
255
255
0
255
106
106
106
137
137
137
135
135
135
83
83
83
88
88
88
99
99
99
131
131
131
136
136
136
92
92
92
52
52
52
51
51
51
34
34
34
58
58
58
88
88
88
96
96
96
51
51
51
62
62
62
99
99
99
99
99
99
197
196
147
176
176
80
173
173
71
117
117
48
54
54
22
96
96
40
69
65
38
255
0
255
255
0
255
255
0
255
255
0
255
255
0
255
255
0
255
255
0
255
255
0
255
255
0
255
255
0
255
255
0
255
255
0
255
255
0
255
255
0
255
255
0
255
255
0
255
255
0
255
255
0
255
255
0
255
255
0
255
255
0
255
255
0
255
255
0
255
255
0
255
255
0
255
255
0
255
255
0
255
255
0
255
255
0
255
255
0
255
255
0
255
255
0
255
255
0
255
255
0
255
255
0
255
255
0
255
255
0
255
255
0
255
99
99
99
134
134
134
136
136
136
121
121
121
78
78
78
98
98
98
124
124
124
129
129
129
97
97
97
57
57
57
41
41
41
73
73
73
88
88
88
101
101
101
67
67
67
50
50
50
72
72
72
99
99
99
99
99
99
195
194
133
196
196
129
173
173
71
173
173
71
105
105
43
95
95
39
40
38
22
255
0
255
255
0
255
255
0
255
255
0
255
255
0
255
255
0
255
255
0
255
255
0
255
255
0
255
255
0
255
255
0
255
255
0
255
255
0
255
255
0
255
255
0
255
255
0
255
255
0
255
255
0
255
255
0
255
255
0
255
255
0
255
255
0
255
255
0
255
255
0
255
255
0
255
255
0
255
255
0
255
255
0
255
255
0
255
255
0
255
255
0
255
255
0
255
255
0
255
255
0
255
255
0
255
255
0
255
255
0
255
255
0
255
99
99
99
109
109
109
138
138
138
136
136
136
98
98
98
78
78
78
107
107
107
120
120
120
85
85
85
41
41
41
43
43
43
93
93
93
101
101
101
66
66
66
53
53
53
53
53
53
83
83
83
99
99
99
255
0
255
201
198
184
203
203
146
176
176
80
173
173
71
102
102
42
95
95
39
65
62
32
255
0
255
255
0
255
255
0
255
255
0
255
255
0
255
255
0
255
255
0
255
255
0
255
255
0
255
255
0
255
255
0
255
255
0
255
255
0
255
255
0
255
255
0
255
255
0
255
255
0
255
255
0
255
255
0
255
255
0
255
255
0
255
255
0
255
255
0
255
255
0
255
255
0
255
255
0
255
255
0
255
255
0
255
255
0
255
255
0
255
255
0
255
255
0
255
255
0
255
255
0
255
255
0
255
255
0
255
255
0
255
255
0
255
255
0
255
99
99
99
128
128
128
137
137
137
136
136
136
120
120
120
81
81
81
86
86
86
74
74
74
43
43
43
51
51
51
75
75
75
65
65
65
58
58
58
53
53
53
72
72
72
95
95
95
99
99
99
255
0
255
255
0
255
187
184
152
191
191
120
167
166
70
140
138
60
59
57
31
55
51
30
58
53
32
255
0
255
255
0
255
255
0
255
255
0
255
255
0
255
255
0
255
255
0
255
255
0
255
255
0
255
255
0
255
255
0
255
255
0
255
255
0
255
255
0
255
255
0
255
255
0
255
255
0
255
255
0
255
255
0
255
255
0
255
255
0
255
255
0
255
255
0
255
255
0
255
255
0
255
255
0
255
255
0
255
255
0
255
255
0
255
255
0
255
255
0
255
255
0
255
255
0
255
255
0
255
255
0
255
255
0
255
255
0
255
255
0
255
255
0
255
99
99
99
123
123
123
137
137
137
137
137
137
107
107
107
74
74
74
60
60
60
58
58
58
51
51
51
52
52
52
51
51
51
61
61
61
74
74
74
85
85
85
99
99
99
255
0
255
255
0
255
255
0
255
116
109
64
157
155
69
166
165
70
88
83
48
54
51
30
39
37
22
47
44
26
255
0
255
255
0
255
255
0
255
255
0
255
255
0
255
255
0
255
255
0
255
255
0
255
255
0
255
255
0
255
255
0
255
255
0
255
255
0
255
255
0
255
255
0
255
255
0
255
255
0
255
255
0
255
255
0
255
255
0
255
255
0
255
255
0
255
255
0
255
255
0
255
255
0
255
255
0
255
255
0
255
255
0
255
255
0
255
255
0
255
255
0
255
255
0
255
255
0
255
255
0
255
255
0
255
255
0
255
255
0
255
255
0
255
255
0
255
255
0
255
99
99
99
102
102
102
108
108
108
96
96
96
57
57
57
52
52
52
51
51
51
50
50
50
53
53
53
57
57
57
91
91
39
84
83
39
99
98
90
255
0
255
255
0
255
255
0
255
255
0
255
255
0
255
137
132
93
98
92
54
98
92
54
84
79
46
41
37
23
44
41
24
255
0
255
255
0
255
255
0
255
255
0
255
255
0
255
255
0
255
255
0
255
255
0
255
255
0
255
255
0
255
255
0
255
255
0
255
255
0
255
255
0
255
255
0
255
255
0
255
255
0
255
255
0
255
255
0
255
255
0
255
255
0
255
255
0
255
255
0
255
255
0
255
255
0
255
255
0
255
255
0
255
255
0
255
255
0
255
255
0
255
255
0
255
255
0
255
255
0
255
255
0
255
255
0
255
255
0
255
255
0
255
255
0
255
255
0
255
255
0
255
255
0
255
99
99
99
99
99
99
91
91
91
68
68
68
68
67
64
115
113
61
143
142
65
153
152
66
64
64
26
86
86
35
95
95
39
98
92
54
255
0
255
255
0
255
255
0
255
255
0
255
255
0
255
122
116
79
98
92
54
98
92
54
98
92
54
96
90
53
83
78
46
255
0
255
255
0
255
255
0
255
255
0
255
255
0
255
255
0
255
255
0
255
255
0
255
255
0
255
255
0
255
255
0
255
255
0
255
255
0
255
255
0
255
255
0
255
255
0
255
255
0
255
255
0
255
255
0
255
255
0
255
255
0
255
255
0
255
255
0
255
255
0
255
255
0
255
255
0
255
255
0
255
255
0
255
255
0
255
255
0
255
255
0
255
255
0
255
255
0
255
255
0
255
255
0
255
255
0
255
255
0
255
255
0
255
255
0
255
255
0
255
255
0
255
255
0
255
255
0
255
255
0
255
255
0
255
98
92
54
115
110
58
139
136
63
128
124
61
107
101
56
106
106
44
79
78
36
255
0
255
255
0
255
255
0
255
255
0
255
255
0
255
255
0
255
98
92
54
98
92
54
98
92
54
98
92
54
98
92
54
98
92
54
255
0
255
255
0
255
255
0
255
255
0
255
255
0
255
255
0
255
255
0
255
255
0
255
255
0
255
255
0
255
255
0
255
255
0
255
255
0
255
255
0
255
255
0
255
255
0
255
255
0
255
255
0
255
255
0
255
255
0
255
255
0
255
255
0
255
255
0
255
255
0
255
255
0
255
255
0
255
255
0
255
255
0
255
255
0
255
255
0
255
255
0
255
255
0
255
255
0
255
255
0
255
255
0
255
255
0
255
255
0
255
255
0
255
255
0
255
255
0
255
255
0
255
255
0
255
255
0
255
255
0
255
255
0
255
98
92
54
98
92
54
98
92
54
98
92
54
98
92
54
98
92
54
98
92
54
255
0
255
255
0
255
255
0
255
255
0
255
255
0
255
255
0
255
98
92
54
98
92
54
98
92
54
98
92
54
98
92
54
98
92
54
255
0
255
255
0
255
255
0
255
255
0
255
255
0
255
255
0
255
255
0
255
255
0
255
255
0
255
255
0
255
255
0
255
255
0
255
255
0
255
255
0
255
255
0
255
255
0
255
255
0
255
255
0
255
255
0
255
255
0
255
255
0
255
255
0
255
255
0
255
255
0
255
255
0
255
255
0
255
255
0
255
255
0
255
255
0
255
255
0
255
255
0
255
255
0
255
255
0
255
255
0
255
255
0
255
255
0
255
255
0
255
255
0
255
255
0
255
255
0
255
255
0
255
255
0
255
255
0
255
255
0
255
255
0
255
98
92
54
98
92
54
98
92
54
98
92
54
98
92
54
98
92
54
255
0
255
255
0
255
255
0
255
255
0
255
255
0
255
255
0
255
255
0
255
98
92
54
98
92
54
98
92
54
98
92
54
98
92
54
98
92
54
255
0
255
255
0
255
255
0
255
255
0
255
255
0
255
255
0
255
255
0
255
255
0
255
255
0
255
255
0
255
255
0
255
255
0
255
255
0
255
255
0
255
255
0
255
255
0
255
255
0
255
255
0
255
255
0
255
255
0
255
255
0
255
255
0
255
255
0
255
255
0
255
255
0
255
255
0
255
255
0
255
255
0
255
255
0
255
255
0
255
255
0
255
255
0
255
255
0
255
255
0
255
255
0
255
255
0
255
255
0
255
255
0
255
255
0
255
255
0
255
255
0
255
255
0
255
255
0
255
255
0
255
76
76
76
170
166
145
113
107
71
113
106
62
89
84
49
95
89
52
88
83
49
255
0
255
255
0
255
255
0
255
255
0
255
255
0
255
255
0
255
255
0
255
116
109
64
103
97
59
98
92
54
94
88
52
88
83
49
67
62
36
255
0
255
255
0
255
255
0
255
255
0
255
255
0
255
255
0
255
255
0
255
255
0
255
255
0
255
255
0
255
255
0
255
255
0
255
255
0
255
255
0
255
255
0
255
255
0
255
255
0
255
255
0
255
255
0
255
255
0
255
255
0
255
255
0
255
255
0
255
255
0
255
255
0
255
255
0
255
255
0
255
255
0
255
255
0
255
255
0
255
255
0
255
255
0
255
255
0
255
255
0
255
255
0
255
255
0
255
255
0
255
255
0
255
255
0
255
255
0
255
255
0
255
255
0
255
255
0
255
255
0
255
255
255
255
173
169
143
141
135
98
116
109
64
88
83
49
88
83
49
95
89
52
255
0
255
255
0
255
255
0
255
255
0
255
255
0
255
255
0
255
255
0
255
116
109
64
107
101
64
98
92
54
98
92
54
88
83
49
88
83
49
255
0
255
255
0
255
255
0
255
255
0
255
255
0
255
255
0
255
255
0
255
255
0
255
255
0
255
255
0
255
255
0
255
255
0
255
255
0
255
255
0
255
255
0
255
255
0
255
255
0
255
255
0
255
255
0
255
255
0
255
255
0
255
255
0
255
255
0
255
255
0
255
255
0
255
255
0
255
255
0
255
255
0
255
255
0
255
255
0
255
255
0
255
255
0
255
255
0
255
255
0
255
255
0
255
255
0
255
255
0
255
255
0
255
255
0
255
255
0
255
255
0
255
255
0
255
255
0
255
255
0
255
255
255
255
186
183
160
141
135
98
105
99
58
88
83
49
88
83
49
91
85
50
255
0
255
255
0
255
255
0
255
255
0
255
255
0
255
255
0
255
255
0
255
116
109
64
110
104
68
99
93
55
95
89
52
88
83
49
88
83
49
255
0
255
255
0
255
255
0
255
255
0
255
255
0
255
255
0
255
255
0
255
255
0
255
255
0
255
255
0
255
255
0
255
255
0
255
255
0
255
255
0
255
255
0
255
255
0
255
255
0
255
255
0
255
255
0
255
255
0
255
255
0
255
255
0
255
255
0
255
255
0
255
255
0
255
255
0
255
255
0
255
255
0
255
255
0
255
255
0
255
255
0
255
255
0
255
255
0
255
255
0
255
255
0
255
255
0
255
255
0
255
255
0
255
255
0
255
255
0
255
255
0
255
255
0
255
255
0
255
255
0
255
255
255
255
165
160
130
142
137
100
92
86
50
88
83
49
88
82
48
255
0
255
255
0
255
255
0
255
255
0
255
255
0
255
255
0
255
255
0
255
255
0
255
255
0
255
122
117
83
98
92
54
101
95
56
88
83
49
88
83
48
255
0
255
255
0
255
255
0
255
255
0
255
255
0
255
255
0
255
255
0
255
255
0
255
255
0
255
255
0
255
255
0
255
255
0
255
255
0
255
255
0
255
255
0
255
255
0
255
255
0
255
255
0
255
255
0
255
255
0
255
255
0
255
255
0
255
255
0
255
255
0
255
255
0
255
255
0
255
255
0
255
255
0
255
255
0
255
255
0
255
255
0
255
255
0
255
255
0
255
255
0
255
255
0
255
255
0
255
255
0
255
255
0
255
255
0
255
255
0
255
255
0
255
255
0
255
255
0
255
255
255
255
241
240
236
149
144
110
156
151
119
88
83
49
88
83
49
77
72
43
255
0
255
255
0
255
255
0
255
255
0
255
255
0
255
255
0
255
255
0
255
255
0
255
116
109
64
166
161
133
99
93
54
104
98
58
88
83
49
83
78
46
255
0
255
255
0
255
255
0
255
255
0
255
255
0
255
255
0
255
255
0
255
255
0
255
255
0
255
255
0
255
255
0
255
255
0
255
255
0
255
255
0
255
255
0
255
255
0
255
255
0
255
255
0
255
255
0
255
255
0
255
255
0
255
255
0
255
255
0
255
255
0
255
255
0
255
255
0
255
255
0
255
255
0
255
255
0
255
255
0
255
255
0
255
255
0
255
255
0
255
255
0
255
255
0
255
255
0
255
255
0
255
255
0
255
255
0
255
255
0
255
255
0
255
255
0
255
255
0
255
255
255
255
166
162
133
155
150
117
162
158
128
85
80
47
68
64
38
255
0
255
255
0
255
255
0
255
255
0
255
255
0
255
255
0
255
255
0
255
255
0
255
255
0
255
116
109
64
176
172
146
116
109
64
107
100
59
88
83
49
83
78
46
255
0
255
255
0
255
255
0
255
255
0
255
255
0
255
255
0
255
255
0
255
255
0
255
255
0
255
255
0
255
255
0
255
255
0
255
255
0
255
255
0
255
255
0
255
255
0
255
255
0
255
255
0
255
255
0
255
255
0
255
255
0
255
255
0
255
255
0
255
255
0
255
255
0
255
255
0
255
255
0
255
255
0
255
255
0
255
255
0
255
255
0
255
255
0
255
255
0
255
255
0
255
255
0
255
255
0
255
255
0
255
255
0
255
255
0
255
255
0
255
255
0
255
255
0
255
255
0
255
255
255
255
159
155
124
172
168
141
123
116
73
108
101
59
87
81
48
47
44
26
255
0
255
255
0
255
255
0
255
255
0
255
255
0
255
255
0
255
255
0
255
255
0
255
116
109
64
177
173
148
116
109
64
104
98
58
88
83
49
85
80
47
255
0
255
255
0
255
255
0
255
255
0
255
255
0
255
255
0
255
255
0
255
255
0
255
255
0
255
255
0
255
255
0
255
255
0
255
255
0
255
255
0
255
255
0
255
255
0
255
255
0
255
255
0
255
255
0
255
255
0
255
255
0
255
255
0
255
255
0
255
255
0
255
255
0
255
255
0
255
255
0
255
255
0
255
255
0
255
255
0
255
255
0
255
255
0
255
255
0
255
255
0
255
255
0
255
255
0
255
255
0
255
255
0
255
255
0
255
255
0
255
255
0
255
255
0
255
255
0
255
255
255
255
170
166
139
137
131
93
116
109
64
113
106
62
88
83
49
88
83
49
86
81
48
66
62
36
255
0
255
255
0
255
255
0
255
255
0
255
255
0
255
255
0
255
116
109
64
178
174
149
116
109
64
112
105
62
72
67
40
77
71
42
68
64
38
255
0
255
255
0
255
255
0
255
255
0
255
255
0
255
255
0
255
255
0
255
255
0
255
255
0
255
255
0
255
255
0
255
255
0
255
255
0
255
255
0
255
255
0
255
255
0
255
255
0
255
255
0
255
255
0
255
255
0
255
255
0
255
255
0
255
255
0
255
255
0
255
255
0
255
255
0
255
255
0
255
255
0
255
255
0
255
255
0
255
255
0
255
255
0
255
255
0
255
255
0
255
255
0
255
255
0
255
255
0
255
255
0
255
255
0
255
255
0
255
255
0
255
255
0
255
255
0
255
172
168
142
116
109
64
116
109
64
116
109
64
114
107
63
95
89
52
88
83
49
88
83
49
86
81
48
50
47
28
255
0
255
255
0
255
255
0
255
255
0
255
255
0
255
176
172
147
120
113
69
116
109
64
92
87
51
88
83
49
88
83
49
67
63
37
255
0
255
255
0
255
255
0
255
255
0
255
255
0
255
255
0
255
255
0
255
255
0
255
255
0
255
255
0
255
255
0
255
255
0
255
255
0
255
255
0
255
255
0
255
255
0
255
255
0
255
255
0
255
255
0
255
255
0
255
255
0
255
255
0
255
255
0
255
255
0
255
255
0
255
255
0
255
255
0
255
255
0
255
255
0
255
255
0
255
255
0
255
255
0
255
255
0
255
255
0
255
255
0
255
255
0
255
255
0
255
255
0
255
255
0
255
255
0
255
255
0
255
255
0
255
116
109
64
116
109
64
116
109
64
116
109
64
116
109
64
116
109
64
116
109
64
106
99
58
99
93
54
111
104
61
255
0
255
255
0
255
255
0
255
255
0
255
255
0
255
163
158
128
133
127
88
116
109
64
116
109
64
105
99
58
92
86
51
88
83
49
87
82
48
46
43
25
255
0
255
255
0
255
255
0
255
255
0
255
255
0
255
255
0
255
255
0
255
255
0
255
255
0
255
255
0
255
255
0
255
255
0
255
255
0
255
255
0
255
255
0
255
255
0
255
255
0
255
255
0
255
255
0
255
255
0
255
255
0
255
255
0
255
255
0
255
255
0
255
255
0
255
255
0
255
255
0
255
255
0
255
255
0
255
255
0
255
255
0
255
255
0
255
255
0
255
255
0
255
255
0
255
255
0
255
255
0
255
255
0
255
255
0
255
255
0
255
255
0
255
255
0
255
116
109
64
116
109
64
116
109
64
116
109
64
116
109
64
116
109
64
116
109
64
116
109
64
255
0
255
255
0
255
255
0
255
255
0
255
255
0
255
116
109
64
116
109
64
116
109
64
116
109
64
116
109
64
116
109
64
108
102
60
92
86
51
83
78
46
255
0
255
255
0
255
255
0
255
255
0
255
255
0
255
255
0
255
255
0
255
255
0
255
255
0
255
255
0
255
255
0
255
255
0
255
255
0
255
255
0
255
255
0
255
255
0
255
255
0
255
255
0
255
255
0
255
255
0
255
255
0
255
255
0
255
255
0
255
255
0
255
255
0
255
255
0
255
255
0
255
255
0
255
255
0
255
255
0
255
255
0
255
255
0
255
255
0
255
255
0
255
255
0
255
255
0
255
255
0
255
255
0
255
255
0
255
255
0
255
255
0
255
255
0
255
255
0
255
255
0
255
255
0
255
255
0
255
255
0
255
255
0
255
255
0
255
255
0
255
255
0
255
255
0
255
255
0
255
255
0
255
255
0
255
255
0
255
255
0
255
255
0
255
116
109
64
116
109
64
116
109
64
116
109
64
116
109
64
88
82
48
255
0
255
255
0
255
255
0
255
255
0
255
255
0
255
255
0
255
255
0
255
255
0
255
255
0
255
255
0
255
255
0
255
255
0
255
255
0
255
255
0
255
255
0
255
255
0
255
255
0
255
255
0
255
255
0
255
255
0
255
255
0
255
255
0
255
255
0
255
255
0
255
255
0
255
