P3
64 64
255
0 0 0 0 0 0 0 0 0 0 0 0 0 0 0 0 0 0 0 0 0 0 0 0 0 0 0 0 0 0 0 0 0 0 0 0 0 0 0 
0 0 0 0 0 0 0 0 0 0 0 0 0 0 0 0 0 0 0 0 0 0 0 0 0 0 0 0 0 0 0 0 0 0 0 0 0 0 0 
0 0 0 0 0 0 0 0 0 0 0 0 0 0 0 0 0 0 0 0 0 0 0 0 0 0 0 100 97 79 0 0 0 0 0 0 
0 0 0 0 0 0 0 0 0 0 0 0 179 51 47 179 51 47 0 0 0 0 0 0 0 0 0 0 0 0 0 0 0 
0 0 0 0 0 0 0 0 0 0 0 0 0 0 0 0 0 0 26 27 12 26 27 12 0 0 0 0 0 0 0 0 0 0 0 0 
0 0 0 0 0 0 0 0 0 0 0 0 0 0 0 0 0 0 0 0 0 0 0 0 0 0 0 0 0 0 0 0 0 0 0 0 0 0 0 
0 0 0 0 0 0 0 0 0 0 0 0 0 0 0 0 0 0 0 0 0 0 0 0 0 0 0 0 0 0 0 0 0 0 0 0 0 0 0 
0 0 0 0 0 0 0 0 0 0 0 0 179 51 47 179 51 47 179 51 47 179 51 47 179 51 47 
186 69 65 179 51 47 113 110 89 83 81 66 79 77 62 0 0 0 0 0 0 0 0 0 0 0 0 0 0 0 
0 0 0 0 0 0 0 0 0 0 0 0 0 0 0 0 0 0 0 0 0 0 0 0 0 0 0 0 0 0 0 0 0 0 0 0 0 0 0 
0 0 0 0 0 0 0 0 0 0 0 0 0 0 0 0 0 0 0 0 0 0 0 0 0 0 0 0 0 0 0 0 0 0 0 0 0 0 0 
0 0 0 0 0 0 0 0 0 0 0 0 0 0 0 0 0 0 0 0 0 0 0 0 0 0 0 0 0 0 0 0 0 0 0 0 0 0 0 
0 0 0 0 0 0 0 0 0 0 0 0 0 0 0 0 0 0 0 0 0 0 0 0 179 51 47 179 51 47 179 51 47 
185 68 64 190 80 77 188 77 73 196 96 92 190 81 78 179 51 47 151 76 65 
109 106 86 70 67 54 0 0 0 0 0 0 0 0 0 0 0 0 0 0 0 0 0 0 0 0 0 0 0 0 0 0 0 
0 0 0 0 0 0 0 0 0 0 0 0 0 0 0 0 0 0 24 24 11 29 30 14 0 1 3 0 0 0 0 0 0 160 160 61 
160 160 61 0 0 0 0 0 0 0 0 0 0 0 0 0 0 0 0 0 0 0 0 0 0 0 0 0 0 0 0 0 0 0 0 0 
0 0 0 0 0 0 0 0 0 0 0 0 0 0 0 0 0 0 0 0 0 0 0 0 0 0 0 0 0 0 0 0 0 0 0 0 0 0 0 
0 0 0 0 0 0 179 51 47 179 51 47 180 53 49 191 82 79 179 51 47 179 51 47 
179 51 47 191 83 80 190 79 76 181 56 52 179 51 47 179 51 47 179 51 47 
179 51 47 125 100 81 93 91 73 58 34 28 0 0 0 0 0 0 0 0 0 0 0 0 0 0 0 0 0 0 
0 0 0 0 0 0 0 0 0 0 0 0 0 0 0 0 0 0 0 0 0 0 0 0 0 0 0 0 0 0 0 0 0 0 0 0 0 0 0 
0 0 0 0 0 0 0 0 0 0 0 0 0 0 0 0 0 0 0 0 0 0 0 0 0 0 0 0 0 0 0 0 0 0 0 0 0 0 0 
0 0 0 0 0 0 0 0 0 0 0 0 0 0 0 0 0 0 0 0 0 0 0 0 0 0 0 0 0 0 0 0 0 0 0 0 0 0 0 
0 0 0 179 51 47 179 51 47 179 51 47 197 99 96 188 76 72 179 51 47 179 51 47 
179 51 47 179 51 47 179 51 47 179 51 47 179 51 47 179 51 47 179 51 47 
179 51 47 175 55 50 114 109 88 95 92 75 0 0 0 4 4 2 0 0 0 0 0 0 0 0 0 0 0 0 
0 0 0 0 0 0 0 0 0 0 0 0 0 0 0 0 0 0 0 0 0 0 0 0 0 0 0 23 23 9 106 106 41 
196 196 74 209 208 79 0 0 0 0 0 0 0 0 0 0 0 0 0 0 0 0 0 0 0 0 0 0 0 0 0 0 0 
0 0 0 0 0 0 0 0 0 0 0 0 0 0 0 0 0 0 0 0 0 0 0 0 0 0 0 0 0 0 0 0 0 0 0 0 0 0 0 
0 0 0 0 0 0 0 0 0 0 0 0 0 0 0 179 51 47 179 51 47 179 51 47 186 70 66 
187 72 68 179 51 47 179 51 47 179 51 47 0 0 0 0 0 0 0 0 0 0 0 0 0 0 0 0 0 0 
179 51 47 179 51 47 125 120 88 119 116 93 116 109 64 66 62 36 0 0 0 0 0 0 
0 0 0 0 0 0 0 0 0 0 0 0 0 0 0 0 0 0 0 0 0 0 0 0 0 0 0 0 0 0 0 0 0 19 19 7 
109 110 42 189 189 72 199 200 76 0 0 0 0 0 0 0 0 0 0 0 0 0 0 0 0 0 0 0 0 0 
0 0 0 0 0 0 0 0 0 0 0 0 0 0 0 0 0 0 0 0 0 0 0 0 0 0 0 0 0 0 0 0 0 0 0 0 0 0 0 
0 0 0 0 0 0 0 0 0 0 0 0 0 0 0 0 0 0 0 0 0 179 51 47 179 51 47 179 51 47 
186 71 67 182 58 55 179 51 47 179 51 47 0 0 0 0 0 0 0 0 0 0 0 0 0 0 0 0 0 0 
255 255 255 190 189 137 220 220 180 222 222 181 192 191 126 120 113 69 
116 109 64 61 58 34 46 43 26 0 0 0 0 0 0 0 0 0 0 0 0 0 0 0 0 0 0 0 0 0 0 0 0 
0 0 0 0 0 0 0 0 0 0 0 0 0 0 0 0 0 0 0 0 0 0 0 0 0 0 0 0 0 0 0 0 0 0 0 0 0 0 0 
0 0 0 0 0 0 0 0 0 0 0 0 0 0 0 0 0 0 0 0 0 0 0 0 0 0 0 0 0 0 0 0 0 0 0 0 0 0 0 
0 0 0 0 0 0 0 0 0 0 0 0 99 99 99 108 107 101 99 99 99 0 0 0 0 0 0 179 51 47 
179 51 47 179 51 47 154 74 54 116 109 64 116 109 64 116 109 64 0 0 0 0 0 0 
0 0 0 255 255 255 183 180 156 159 154 122 178 178 103 194 194 117 192 192 113 
180 180 86 121 115 65 116 109 64 99 93 54 54 50 30 0 0 0 0 0 0 0 0 0 0 0 0 
0 0 0 0 0 0 0 0 0 0 0 0 0 0 0 0 0 0 0 0 0 0 0 0 0 0 0 0 0 0 0 0 0 0 0 0 0 0 0 
0 0 0 0 0 0 0 0 0 0 0 0 0 0 0 0 0 0 0 0 0 0 0 0 0 0 0 0 0 0 0 0 0 0 0 0 0 0 0 
0 0 0 0 0 0 0 0 0 0 0 0 0 0 0 0 0 0 0 0 0 116 109 64 131 130 120 127 126 125 
103 102 90 100 100 96 0 0 0 0 0 0 116 109 64 116 109 64 116 109 64 116 109 64 
106 100 59 93 87 51 0 0 0 0 0 0 255 255 255 167 163 133 173 169 143 
155 150 117 142 137 99 175 175 81 143 143 59 134 134 55 94 89 51 115 108 64 
116 109 64 88 85 69 46 45 36 0 0 0 0 0 0 0 0 0 0 0 0 0 0 0 0 0 0 0 0 0 0 0 0 
0 0 0 0 0 0 0 0 0 0 0 0 0 0 0 0 0 0 0 0 0 0 0 0 0 0 0 0 0 0 0 0 0 0 0 0 0 0 0 
0 0 0 0 0 0 0 0 0 0 0 0 0 0 0 0 0 0 0 0 0 0 0 0 0 0 0 0 0 0 0 0 0 0 0 0 0 0 0 
0 0 0 127 125 117 133 132 131 120 119 117 99 99 99 63 63 63 56 56 56 114 114 114 
140 136 104 73 69 41 69 66 38 60 56 33 62 59 35 70 66 39 86 81 47 0 0 0 0 0 0 
153 148 115 170 165 138 172 168 141 123 116 73 93 87 51 130 130 53 130 130 53 
116 114 52 88 83 49 115 108 63 113 110 89 113 110 89 81 79 64 0 0 0 0 0 0 
113 110 89 113 110 89 113 110 89 0 0 0 0 0 0 179 51 47 179 51 47 0 0 0 0 0 0 
0 0 0 0 0 0 0 0 0 0 0 0 0 0 0 0 0 0 0 0 0 0 0 0 0 0 0 0 0 0 0 0 0 0 0 0 0 0 0 
0 0 0 0 0 0 0 0 0 0 0 0 0 0 0 0 0 0 0 0 0 0 0 0 0 0 0 124 123 119 133 133 131 
129 129 120 108 108 97 106 106 96 93 93 90 56 56 56 55 55 51 146 142 115 
97 91 55 85 80 46 97 92 54 91 85 50 90 85 50 77 72 43 87 82 48 0 0 0 116 109 64 
147 142 107 178 174 150 129 122 82 103 97 57 87 82 48 103 100 50 117 114 55 
106 100 59 0 0 0 0 0 0 0 0 0 0 0 0 111 108 88 71 69 56 66 64 52 124 121 102 
130 127 109 113 110 89 90 88 71 113 110 89 0 0 0 0 0 0 0 0 0 0 0 0 0 0 0 0 0 0 
0 0 0 0 0 0 0 0 0 0 0 0 0 0 0 0 0 0 0 0 0 0 0 0 0 0 0 0 0 0 0 0 0 0 0 0 0 0 0 
0 0 0 0 0 0 0 0 0 0 0 0 0 0 0 112 112 112 131 131 128 126 126 116 109 109 98 
108 108 96 111 111 94 111 111 95 79 79 69 56 56 56 67 65 57 148 143 109 
97 91 54 86 82 48 97 91 53 116 109 64 96 91 53 71 67 39 89 84 49 0 0 0 162 159 89 
207 207 147 177 177 88 172 172 71 132 131 55 117 115 52 92 86 51 116 109 64 
0 0 0 0 0 0 0 0 0 0 0 0 0 0 0 113 110 89 113 110 88 113 111 86 117 114 91 
118 115 95 113 110 89 73 71 57 62 61 49 113 110 89 0 0 0 0 0 0 0 0 0 0 0 0 
0 0 0 0 0 0 0 0 0 0 0 0 0 0 0 0 0 0 0 0 0 0 0 0 0 0 0 0 0 0 0 0 0 0 0 0 0 0 0 
0 0 0 0 0 0 0 0 0 0 0 0 99 99 99 122 122 120 134 134 126 120 119 104 
113 112 93 114 114 93 114 114 93 104 103 83 88 88 67 65 65 48 56 56 56 
72 72 72 145 143 120 119 112 68 88 83 49 88 82 48 116 109 64 82 77 45 55 52 30 
80 75 44 116 109 64 200 199 146 203 203 139 173 173 71 144 144 59 130 130 53 
131 131 54 107 101 59 0 0 0 0 0 0 0 0 0 0 0 0 0 0 0 0 0 0 155 153 76 
158 156 126 145 143 112 137 134 103 117 114 88 113 110 89 75 73 59 60 58 47 
99 96 78 0 0 0 0 0 0 0 0 0 0 0 0 0 0 0 0 0 0 0 0 0 0 0 0 0 0 0 0 0 0 0 0 0 
0 0 0 0 0 0 0 0 0 0 0 0 0 0 0 0 0 0 0 0 0 0 0 0 99 99 99 105 105 104 
130 130 130 129 128 117 114 114 93 119 119 91 120 120 91 117 117 92 112 111 90 
88 88 67 88 87 67 61 61 47 47 47 47 72 72 72 94 93 81 145 140 110 125 119 80 
77 72 42 78 73 43 42 39 23 47 44 25 86 82 48 139 135 67 202 202 136 
180 180 87 162 162 66 130 130 53 131 131 54 116 109 61 0 0 0 0 0 0 0 0 0 0 0 0 
0 0 0 0 0 0 0 0 0 207 207 164 174 173 140 151 150 116 136 134 98 122 119 86 
101 99 80 65 64 52 60 59 48 51 50 40 0 0 0 0 0 0 0 0 0 0 0 0 0 0 0 0 0 0 0 0 0 
0 0 0 0 0 0 0 0 0 0 0 0 0 0 0 0 0 0 0 0 0 0 0 0 0 0 0 0 0 0 0 0 0 104 103 102 
126 126 126 132 132 132 109 108 104 113 113 93 114 114 93 121 121 91 
121 120 91 119 119 91 90 90 67 85 85 65 62 62 47 57 57 39 42 42 32 63 62 54 
75 75 74 92 88 60 152 146 113 92 88 61 73 68 40 55 51 30 63 59 35 102 97 57 
157 155 69 184 184 95 173 173 71 132 132 54 130 130 53 145 145 61 116 109 64 
0 0 0 0 0 0 0 0 0 0 0 0 0 0 0 0 0 0 0 0 0 179 178 101 146 143 106 137 134 98 
126 123 85 122 120 86 64 62 51 63 62 50 70 68 55 43 41 34 0 0 0 0 0 0 0 0 0 
0 0 0 0 0 0 0 0 0 0 0 0 0 0 0 0 0 0 0 0 0 0 0 0 0 0 0 0 0 0 0 0 0 0 0 0 0 0 0 
0 0 0 99 99 99 153 153 153 114 114 114 99 99 99 106 106 96 111 111 94 
114 114 93 120 119 91 120 120 91 117 116 93 80 80 67 80 80 67 66 66 49 
58 57 44 40 39 28 55 55 43 67 66 60 71 69 65 128 121 80 142 138 106 
132 126 86 87 82 48 85 80 47 115 108 64 135 131 66 176 176 78 151 151 62 
130 130 53 134 134 55 119 113 64 0 0 0 0 0 0 0 0 0 0 0 0 0 0 0 0 0 0 0 0 0 
0 0 0 173 172 71 132 131 83 126 123 85 106 103 70 76 74 55 63 62 50 64 63 51 
57 55 45 36 35 29 0 0 0 0 0 0 0 0 0 0 0 0 0 0 0 0 0 0 0 0 0 0 0 0 0 0 0 0 0 0 
0 0 0 0 0 0 0 0 0 0 0 0 0 0 0 0 0 0 0 0 0 255 255 255 142 142 140 116 116 116 
99 99 99 107 107 96 107 107 96 109 109 95 111 111 95 112 112 94 105 105 97 
93 92 83 78 77 67 72 72 52 78 77 52 47 46 30 53 53 41 60 60 52 73 72 70 
144 139 104 158 153 121 138 132 95 116 109 64 116 109 64 116 109 64 116 109 64 
137 132 67 91 90 41 81 79 39 114 107 63 116 109 64 0 0 0 0 0 0 0 0 0 0 0 0 
0 0 0 0 0 0 0 0 0 0 0 0 173 172 71 143 140 80 73 72 49 67 65 48 61 59 48 
60 59 48 57 55 45 40 39 31 0 0 0 0 0 0 0 0 0 0 0 0 0 0 0 0 0 0 0 0 0 0 0 0 
0 0 0 0 0 0 0 0 0 0 0 0 0 0 0 0 0 0 0 0 0 0 0 0 0 0 0 0 0 0 0 0 0 110 107 81 
131 131 131 99 99 99 106 106 96 107 107 96 107 107 96 107 107 96 102 102 97 
105 102 87 123 117 66 122 116 69 104 102 75 90 89 60 86 85 56 73 72 53 
57 57 52 155 151 127 154 148 116 125 119 77 116 109 64 116 109 64 116 109 64 
116 109 64 116 109 64 88 83 48 65 61 36 62 58 35 88 82 48 12 11 6 0 0 0 0 0 0 
0 0 0 0 0 0 0 0 0 0 0 0 0 0 0 0 0 0 0 0 0 0 0 0 113 110 89 60 58 47 51 50 40 
46 45 37 43 42 34 20 19 16 0 0 0 0 0 0 0 0 0 0 0 0 0 0 0 0 0 0 0 0 0 0 0 0 
0 0 0 0 0 0 0 0 0 0 0 0 0 0 0 0 0 0 0 0 0 0 0 0 0 0 0 0 0 0 0 0 0 116 109 64 
124 124 124 118 118 118 102 102 98 107 107 96 108 108 96 112 109 84 116 109 64 
116 109 64 120 114 65 122 116 65 112 108 58 99 97 69 85 85 59 82 81 65 
134 132 120 147 141 106 116 109 64 122 116 65 135 130 66 116 109 64 116 109 64 
116 109 64 116 109 64 71 68 40 66 62 36 77 72 42 87 82 48 0 0 0 0 0 0 0 0 0 
0 0 0 0 0 0 0 0 0 0 0 0 0 0 0 0 0 0 0 0 0 0 0 0 0 0 0 0 0 0 0 0 0 0 0 0 0 0 0 
0 0 0 0 0 0 0 0 0 0 0 0 0 0 0 0 0 0 0 0 0 0 0 0 0 0 0 0 0 0 0 0 0 0 0 0 0 0 0 
0 0 0 0 0 0 0 0 0 0 0 0 0 0 0 0 0 0 0 0 0 0 0 0 102 101 92 133 133 133 
103 103 103 100 100 99 103 103 96 116 112 70 118 111 64 116 109 64 117 110 64 
122 115 65 119 113 59 89 87 42 72 71 53 82 81 67 155 150 113 116 109 64 
116 109 64 163 161 70 173 173 71 167 166 70 120 113 64 116 109 64 99 93 55 
51 48 28 45 42 24 64 59 35 80 75 44 13 12 7 0 0 0 0 0 0 0 0 0 0 0 0 0 0 0 
0 0 0 0 0 0 0 0 0 0 0 0 0 0 0 0 0 0 0 0 0 0 0 0 0 0 0 0 0 0 0 0 0 0 0 0 0 0 0 
0 0 0 0 0 0 0 0 0 0 0 0 0 0 0 0 0 0 0 0 0 0 0 0 0 0 0 0 0 0 0 0 0 0 0 0 0 0 0 
0 0 0 0 0 0 0 0 0 0 0 0 0 0 0 0 0 0 123 123 119 130 130 129 101 101 98 
107 107 96 107 107 96 110 110 93 122 116 64 117 110 64 147 144 68 149 149 62 
96 95 40 82 82 35 78 74 43 133 127 82 116 109 64 157 155 69 173 173 71 
173 173 71 173 173 71 173 172 71 132 131 57 91 90 39 87 87 36 72 72 29 
82 82 35 89 89 61 99 99 99 0 0 0 0 0 0 0 0 0 0 0 0 0 0 0 0 0 0 0 0 0 0 0 0 
0 0 0 0 0 0 0 0 0 0 0 0 0 0 0 0 0 0 0 0 0 0 0 0 0 0 0 0 0 0 0 0 0 0 0 0 0 0 0 
0 0 0 0 0 0 0 0 0 0 0 0 0 0 0 0 0 0 0 0 0 0 0 0 0 0 0 0 0 0 0 0 0 0 0 0 0 0 0 
0 0 0 0 0 0 0 0 0 0 0 0 128 128 125 113 113 109 107 107 96 110 110 95 
114 114 93 127 122 70 169 168 70 173 173 71 170 170 70 129 129 53 88 88 36 
92 92 41 108 102 59 92 87 51 164 164 77 194 194 119 193 193 115 175 175 77 
173 173 71 150 150 62 129 129 53 116 116 48 65 65 27 59 59 24 91 91 63 
107 104 83 116 109 64 0 0 0 0 0 0 0 0 0 0 0 0 0 0 0 0 0 0 0 0 0 0 0 0 0 0 0 
0 0 0 0 0 0 0 0 0 0 0 0 0 0 0 0 0 0 0 0 0 0 0 0 0 0 0 0 0 0 0 0 0 0 0 0 0 0 0 
0 0 0 0 0 0 0 0 0 0 0 0 0 0 0 0 0 0 0 0 0 0 0 0 0 0 0 0 0 0 0 0 0 0 0 0 0 0 0 
0 0 0 0 0 0 198 198 196 137 136 128 108 108 97 101 100 83 88 88 67 97 96 72 
170 170 71 173 173 71 173 173 71 136 136 56 130 130 53 123 123 52 101 95 56 
63 59 35 137 137 97 200 200 131 199 199 130 183 183 95 176 176 78 173 173 71 
146 146 60 103 103 42 41 41 17 50 50 22 48 48 48 81 81 78 116 109 64 
0 0 0 0 0 0 0 0 0 0 0 0 0 0 0 0 0 0 0 0 0 0 0 0 0 0 0 0 0 0 0 0 0 0 0 0 0 0 0 
0 0 0 0 0 0 0 0 0 0 0 0 0 0 0 0 0 0 0 0 0 0 0 0 0 0 0 0 0 0 0 0 0 0 0 0 0 0 0 
0 0 0 0 0 0 0 0 0 0 0 0 0 0 0 0 0 0 0 0 0 0 0 0 0 0 0 0 0 0 0 0 0 0 0 0 122 121 120 
129 129 120 106 106 90 76 75 54 71 71 50 108 107 80 150 147 67 169 168 71 
172 172 71 132 132 54 127 126 53 97 92 54 42 40 24 95 95 56 190 190 126 
199 199 130 199 199 129 195 195 120 175 175 75 173 173 71 120 120 49 
61 61 25 45 45 19 37 36 36 65 65 65 79 79 76 99 99 99 0 0 0 0 0 0 0 0 0 0 0 0 
0 0 0 0 0 0 0 0 0 0 0 0 0 0 0 0 0 0 0 0 0 0 0 0 0 0 0 0 0 0 0 0 0 0 0 0 0 0 0 
0 0 0 0 0 0 0 0 0 0 0 0 0 0 0 0 0 0 0 0 0 0 0 0 0 0 0 0 0 0 0 0 0 0 0 0 0 0 0 
0 0 0 0 0 0 0 0 0 0 0 0 0 0 0 0 0 0 0 0 0 0 0 0 131 131 129 110 110 95 
72 72 52 71 71 50 79 79 58 111 107 64 140 136 67 173 173 71 171 170 71 
135 131 66 102 96 56 35 33 19 52 52 21 131 130 56 199 199 129 200 200 131 
199 199 129 189 189 107 173 173 71 167 167 69 100 100 41 58 58 23 34 32 19 
34 34 34 48 48 48 90 90 90 0 0 0 0 0 0 0 0 0 0 0 0 0 0 0 0 0 0 0 0 0 0 0 0 
0 0 0 0 0 0 0 0 0 0 0 0 0 0 0 0 0 0 0 0 0 0 0 0 0 0 0 0 0 0 0 0 0 0 0 0 0 0 0 
0 0 0 0 0 0 0 0 0 0 0 0 0 0 0 0 0 0 0 0 0 0 0 0 0 0 0 0 0 0 0 0 0 0 0 0 0 0 0 
0 0 0 0 0 0 0 0 0 0 0 0 180 180 180 121 121 119 96 96 83 73 73 52 59 59 38 
66 66 45 121 117 69 129 123 66 123 116 65 117 110 64 115 108 63 62 60 30 
68 68 29 97 96 40 166 166 87 198 198 126 199 199 130 189 189 107 173 173 71 
137 137 56 94 94 38 91 91 38 55 55 23 29 29 29 32 32 32 58 58 58 94 94 94 
0 0 0 0 0 0 0 0 0 100 97 48 130 129 55 98 98 40 69 69 28 0 0 0 0 0 0 0 0 0 
0 0 0 0 0 0 0 0 0 0 0 0 0 0 0 0 0 0 0 0 0 0 0 0 0 0 0 0 0 0 0 0 0 0 0 0 0 0 0 
0 0 0 0 0 0 0 0 0 0 0 0 0 0 0 0 0 0 0 0 0 0 0 0 0 0 0 0 0 0 0 0 0 0 0 0 0 0 0 
0 0 0 255 255 255 142 142 141 105 105 103 78 77 65 59 59 38 56 56 35 68 68 46 
123 119 69 128 122 65 122 116 65 117 110 64 86 81 45 59 59 25 76 76 31 
125 125 51 197 197 125 199 199 129 198 198 127 181 181 88 120 120 50 
103 103 42 98 98 41 87 87 35 47 46 21 21 21 21 27 27 27 87 82 61 0 0 0 0 0 0 
0 0 0 0 0 0 0 0 0 0 0 0 0 0 0 0 0 0 0 0 0 0 0 0 0 0 0 0 0 0 0 0 0 0 0 0 0 0 0 
0 0 0 0 0 0 0 0 0 0 0 0 0 0 0 0 0 0 0 0 0 0 0 0 0 0 0 0 0 0 0 0 0 0 0 0 0 0 0 
0 0 0 0 0 0 0 0 0 0 0 0 0 0 0 0 0 0 0 0 0 0 0 0 0 0 0 0 0 0 255 255 255 
135 134 133 104 104 98 81 81 67 56 56 35 59 59 38 69 69 48 111 109 74 
109 105 65 92 92 74 103 103 91 72 71 37 70 70 28 94 94 38 159 158 87 
198 198 127 199 199 130 185 185 99 125 125 51 111 111 45 77 77 32 70 70 29 
71 71 30 20 20 20 18 18 18 38 37 24 111 105 62 0 0 0 0 0 0 0 0 0 0 0 0 0 0 0 
0 0 0 0 0 0 0 0 0 0 0 0 0 0 0 0 0 0 0 0 0 0 0 0 0 0 0 0 0 0 0 0 0 0 0 0 0 0 0 
0 0 0 0 0 0 0 0 0 0 0 0 0 0 0 0 0 0 0 0 0 0 0 0 0 0 0 0 0 0 0 0 0 0 0 0 0 0 0 
0 0 0 0 0 0 0 0 0 0 0 0 0 0 0 0 0 0 0 0 0 135 135 135 136 135 134 115 114 105 
68 68 54 58 58 38 62 62 42 59 59 38 53 53 32 54 54 40 64 63 52 54 54 43 
90 88 41 119 119 49 128 128 52 186 186 100 186 186 102 167 166 70 126 125 55 
93 91 43 88 87 38 65 65 27 78 78 34 28 28 28 19 19 19 20 20 20 63 60 37 
0 0 0 0 0 0 0 0 0 0 0 0 0 0 0 0 0 0 0 0 0 0 0 0 0 0 0 0 0 0 0 0 0 0 0 0 0 0 0 
0 0 0 0 0 0 0 0 0 0 0 0 0 0 0 0 0 0 0 0 0 0 0 0 0 0 0 0 0 0 0 0 0 0 0 0 0 0 0 
0 0 0 0 0 0 0 0 0 0 0 0 0 0 0 0 0 0 0 0 0 0 0 0 0 0 0 0 0 0 0 0 0 0 0 0 0 0 0 
140 140 140 129 128 127 125 125 118 65 65 59 55 55 47 46 46 28 38 38 23 
51 51 40 67 67 56 59 59 47 112 109 60 143 142 61 150 149 64 136 131 66 
116 109 64 116 109 64 105 99 58 96 90 53 69 64 38 61 58 32 45 42 25 38 38 38 
23 23 23 18 18 18 32 32 29 105 98 58 0 0 0 0 0 0 0 0 0 0 0 0 0 0 0 0 0 0 0 0 0 
0 0 0 0 0 0 0 0 0 0 0 0 0 0 0 0 0 0 0 0 0 0 0 0 0 0 0 0 0 0 0 0 0 0 0 0 0 0 0 
0 0 0 0 0 0 0 0 0 0 0 0 0 0 0 0 0 0 0 0 0 0 0 0 0 0 0 0 0 0 0 0 0 0 0 0 0 0 0 
0 0 0 0 0 0 0 0 0 0 0 0 0 0 0 0 0 0 99 99 99 122 122 119 106 106 103 
60 60 60 57 57 50 52 52 41 69 69 58 69 69 58 66 65 50 147 141 102 140 134 97 
116 109 64 116 109 64 123 117 74 117 110 66 116 109 64 116 109 64 84 79 46 
66 62 36 51 47 28 63 61 49 33 33 33 19 19 19 26 26 26 68 66 53 116 109 64 
0 0 0 0 0 0 0 0 0 0 0 0 0 0 0 0 0 0 0 0 0 0 0 0 0 0 0 0 0 0 0 0 0 0 0 0 0 0 0 
0 0 0 0 0 0 0 0 0 0 0 0 0 0 0 0 0 0 0 0 0 0 0 0 0 0 0 0 0 0 0 0 0 0 0 0 0 0 0 
0 0 0 0 0 0 0 0 0 0 0 0 0 0 0 0 0 0 0 0 0 0 0 0 0 0 0 0 0 0 0 0 0 0 0 0 0 0 0 
99 99 99 130 130 130 96 95 86 46 46 46 64 64 55 68 68 57 69 69 58 155 151 122 
153 148 115 116 109 64 116 109 64 147 141 106 172 168 140 119 112 68 
116 109 64 116 109 64 116 109 64 69 66 39 54 50 30 62 59 38 37 37 37 25 25 25 
31 31 31 55 55 55 82 79 57 116 109 64 0 0 0 0 0 0 0 0 0 0 0 0 0 0 0 0 0 0 
0 0 0 0 0 0 0 0 0 0 0 0 0 0 0 0 0 0 0 0 0 0 0 0 0 0 0 0 0 0 0 0 0 0 0 0 0 0 0 
0 0 0 0 0 0 0 0 0 0 0 0 0 0 0 0 0 0 0 0 0 0 0 0 0 0 0 0 0 0 0 0 0 0 0 0 0 0 0 
0 0 0 0 0 0 0 0 0 0 0 0 0 0 0 0 0 0 0 0 0 111 111 111 134 134 134 70 70 67 
65 65 65 69 69 67 117 115 103 179 174 151 124 117 74 116 109 64 123 116 73 
168 164 136 166 162 134 135 128 89 116 109 64 116 109 64 116 109 64 111 104 61 
68 63 37 61 58 37 41 41 41 26 26 26 36 36 36 44 44 44 55 55 55 88 87 81 
0 0 0 0 0 0 0 0 0 0 0 0 0 0 0 0 0 0 0 0 0 0 0 0 0 0 0 0 0 0 0 0 0 0 0 0 0 0 0 
0 0 0 0 0 0 0 0 0 0 0 0 0 0 0 0 0 0 0 0 0 0 0 0 0 0 0 0 0 0 0 0 0 0 0 0 0 0 0 
0 0 0 0 0 0 0 0 0 0 0 0 0 0 0 0 0 0 0 0 0 0 0 0 0 0 0 0 0 0 0 0 0 0 0 0 0 0 0 
0 0 0 255 255 255 139 139 138 110 110 110 162 161 101 162 160 80 116 109 64 
116 109 64 100 94 55 110 103 61 158 153 122 163 158 129 146 141 106 
116 109 64 116 109 64 116 109 64 116 109 64 89 83 49 84 81 52 47 47 47 
24 24 24 23 23 23 24 24 24 34 34 34 67 67 67 95 93 84 0 0 0 0 0 0 0 0 0 0 0 0 
0 0 0 0 0 0 0 0 0 0 0 0 0 0 0 0 0 0 0 0 0 0 0 0 0 0 0 0 0 0 0 0 0 0 0 0 0 0 0 
0 0 0 0 0 0 0 0 0 0 0 0 0 0 0 0 0 0 0 0 0 0 0 0 0 0 0 0 0 0 0 0 0 0 0 0 0 0 0 
0 0 0 0 0 0 0 0 0 0 0 0 0 0 0 0 0 0 0 0 0 0 0 0 0 0 0 0 0 0 189 186 166 
198 197 137 189 189 107 174 174 74 162 160 70 105 98 57 87 82 48 90 84 50 
156 150 118 143 137 101 116 109 64 116 109 64 116 109 64 116 109 64 115 108 63 
87 82 48 90 88 51 50 50 44 40 40 30 36 36 28 28 28 26 35 35 35 47 47 47 
68 68 68 99 99 99 0 0 0 0 0 0 0 0 0 0 0 0 0 0 0 0 0 0 0 0 0 0 0 0 0 0 0 0 0 0 
0 0 0 0 0 0 0 0 0 0 0 0 0 0 0 0 0 0 0 0 0 0 0 0 0 0 0 0 0 0 0 0 0 0 0 0 0 0 0 
0 0 0 0 0 0 0 0 0 0 0 0 0 0 0 0 0 0 0 0 0 0 0 0 0 0 0 0 0 0 0 0 0 0 0 0 0 0 0 
0 0 0 0 0 0 177 173 147 214 214 164 205 205 143 177 177 79 173 173 71 
173 173 71 106 102 53 87 82 48 83 78 46 127 121 84 116 109 64 116 109 64 
119 113 64 123 117 65 121 114 65 98 92 54 73 69 39 59 59 46 56 56 45 44 44 33 
45 45 34 38 38 29 36 36 36 38 38 38 44 44 44 84 83 83 0 0 0 0 0 0 0 0 0 0 0 0 
0 0 0 0 0 0 0 0 0 0 0 0 0 0 0 0 0 0 0 0 0 0 0 0 0 0 0 0 0 0 0 0 0 0 0 0 0 0 0 
0 0 0 0 0 0 0 0 0 0 0 0 0 0 0 0 0 0 0 0 0 0 0 0 0 0 0 0 0 0 0 0 0 0 0 0 0 0 0 
0 0 0 0 0 0 0 0 0 0 0 0 0 0 0 0 0 0 0 0 0 180 176 152 214 214 165 203 203 139 
175 175 75 173 173 71 173 173 71 173 173 71 124 122 53 71 66 39 86 81 47 
95 89 52 119 113 64 160 158 69 173 173 71 170 170 71 173 173 71 116 114 52 
91 89 42 59 59 48 56 55 44 44 44 33 40 39 28 46 45 34 31 31 31 30 30 30 
42 42 42 68 68 68 0 0 0 0 0 0 0 0 0 0 0 0 0 0 0 0 0 0 0 0 0 0 0 0 0 0 0 0 0 0 
0 0 0 0 0 0 0 0 0 0 0 0 0 0 0 0 0 0 0 0 0 0 0 0 0 0 0 0 0 0 0 0 0 0 0 0 0 0 0 
0 0 0 0 0 0 0 0 0 0 0 0 0 0 0 0 0 0 0 0 0 0 0 0 0 0 0 0 0 0 0 0 0 0 0 0 0 0 0 
190 189 129 215 215 165 199 199 130 173 173 71 173 173 71 173 173 71 
173 173 71 157 157 65 106 106 44 70 66 37 88 82 48 117 113 63 173 173 71 
184 184 95 173 173 71 164 163 70 166 166 68 130 130 53 78 77 55 55 55 43 
49 49 38 42 42 31 40 39 28 40 39 30 32 32 32 36 36 36 46 46 46 64 64 63 
0 0 0 0 0 0 0 0 0 0 0 0 0 0 0 0 0 0 0 0 0 0 0 0 0 0 0 0 0 0 0 0 0 0 0 0 0 0 0 
0 0 0 0 0 0 0 0 0 0 0 0 0 0 0 0 0 0 0 0 0 0 0 0 0 0 0 0 0 0 0 0 0 0 0 0 0 0 0 
0 0 0 0 0 0 0 0 0 0 0 0 0 0 0 0 0 0 0 0 0 0 0 0 116 109 64 184 184 109 
216 216 168 193 193 115 173 173 71 173 173 71 173 173 71 173 173 71 170 170 70 
96 96 39 80 80 33 65 62 34 68 65 49 163 163 117 195 195 120 203 203 138 
173 173 71 172 172 71 157 157 64 130 129 53 71 71 60 57 57 46 62 62 51 
41 40 29 35 35 24 36 36 31 25 25 25 35 35 35 44 44 44 82 82 82 0 0 0 0 0 0 
0 0 0 0 0 0 0 0 0 0 0 0 0 0 0 0 0 0 0 0 0 0 0 0 0 0 0 0 0 0 0 0 0 0 0 0 0 0 0 
0 0 0 0 0 0 0 0 0 0 0 0 0 0 0 0 0 0 0 0 0 0 0 0 0 0 0 0 0 0 0 0 0 0 0 0 0 0 0 
0 0 0 0 0 0 0 0 0 0 0 0 0 0 0 116 109 64 135 130 74 208 208 150 195 195 121 
173 173 71 173 173 71 173 173 71 173 173 71 155 155 64 116 116 48 78 78 32 
82 82 33 78 73 43 53 53 53 150 150 107 192 192 127 199 199 129 173 173 71 
173 173 71 156 156 65 99 99 40 65 65 55 57 57 46 59 59 48 42 42 31 40 40 29 
33 33 31 32 32 32 35 35 35 48 48 48 90 90 85 0 0 0 0 0 0 0 0 0 0 0 0 0 0 0 
0 0 0 0 0 0 0 0 0 0 0 0 0 0 0 0 0 0 0 0 0 0 0 0 0 0 0 0 0 0 0 0 0 0 0 0 0 0 0 
0 0 0 0 0 0 0 0 0 0 0 0 0 0 0 0 0 0 0 0 0 0 0 0 0 0 0 0 0 0 0 0 0 0 0 0 0 0 0 
0 0 0 0 0 0 116 109 64 196 196 122 190 190 111 172 172 71 173 173 71 
173 173 71 173 173 71 140 140 58 99 99 40 98 98 40 105 105 43 128 125 58 
101 95 56 65 64 60 154 154 99 149 149 89 199 199 131 201 201 134 183 183 94 
142 142 58 99 99 41 65 63 42 58 58 47 55 54 43 45 45 34 44 43 33 32 32 32 
35 35 35 43 43 43 66 66 66 101 99 86 0 0 0 0 0 0 0 0 0 0 0 0 0 0 0 0 0 0 0 0 0 
0 0 0 0 0 0 0 0 0 0 0 0 0 0 0 0 0 0 0 0 0 0 0 0 0 0 0 0 0 0 0 0 0 0 0 0 0 0 0 
0 0 0 0 0 0 0 0 0 0 0 0 0 0 0 0 0 0 0 0 0 0 0 0 99 99 99 0 0 0 0 0 0 0 0 0 
116 109 64 116 109 64 185 184 119 174 174 73 172 172 71 170 170 71 169 169 70 
134 134 54 99 99 40 99 99 41 117 117 48 124 122 57 116 109 64 0 0 0 94 94 94 
121 121 51 123 123 51 179 179 117 215 215 164 194 194 117 142 142 58 
104 104 43 96 96 51 55 55 46 56 56 45 52 52 43 34 34 32 41 41 41 44 44 44 
66 66 66 90 89 87 0 0 0 0 0 0 0 0 0 0 0 0 0 0 0 0 0 0 0 0 0 0 0 0 0 0 0 0 0 0 
0 0 0 0 0 0 0 0 0 0 0 0 0 0 0 0 0 0 0 0 0 0 0 0 0 0 0 0 0 0 0 0 0 0 0 0 0 0 0 
0 0 0 0 0 0 0 0 0 0 0 0 0 0 0 0 0 0 0 0 0 0 0 0 0 0 0 0 0 0 154 149 117 
119 112 68 116 109 64 164 163 70 173 173 71 152 152 63 131 131 54 107 107 43 
100 100 41 126 126 52 125 122 59 116 109 64 0 0 0 0 0 0 0 0 0 95 95 39 
93 93 38 128 128 58 202 202 135 199 199 130 142 142 58 120 120 49 113 113 46 
61 61 61 57 57 57 47 47 47 54 54 54 63 63 63 77 77 77 98 97 86 116 109 64 
0 0 0 0 0 0 0 0 0 0 0 0 0 0 0 0 0 0 0 0 0 0 0 0 0 0 0 0 0 0 0 0 0 0 0 0 0 0 0 
0 0 0 0 0 0 0 0 0 0 0 0 0 0 0 0 0 0 0 0 0 0 0 0 0 0 0 0 0 0 0 0 0 0 0 0 0 0 0 
0 0 0 0 0 0 0 0 0 0 0 0 0 0 0 0 0 0 255 255 255 161 156 126 116 109 64 
116 109 64 119 113 64 160 160 67 135 135 56 130 130 53 122 121 51 127 127 54 
105 104 45 0 0 0 0 0 0 0 0 0 0 0 0 0 0 0 119 118 49 88 88 37 91 91 37 166 166 69 
189 189 111 143 143 59 130 130 53 145 144 60 93 92 88 76 76 76 75 75 75 
78 77 76 84 81 69 0 0 0 0 0 0 0 0 0 0 0 0 0 0 0 0 0 0 0 0 0 0 0 0 0 0 0 0 0 0 
0 0 0 0 0 0 0 0 0 0 0 0 0 0 0 0 0 0 0 0 0 0 0 0 0 0 0 0 0 0 0 0 0 0 0 0 0 0 0 
0 0 0 0 0 0 0 0 0 0 0 0 0 0 0 0 0 0 0 0 0 0 0 0 0 0 0 0 0 0 0 0 0 0 0 0 213 211 197 
138 132 94 116 109 64 116 109 64 76 72 42 68 65 37 115 112 53 128 123 63 
0 0 0 0 0 0 0 0 0 0 0 0 0 0 0 0 0 0 0 0 0 0 0 0 150 149 63 116 116 48 
112 111 47 87 83 48 116 109 64 91 85 50 95 90 49 94 90 49 81 77 45 0 0 0 0 0 0 
0 0 0 0 0 0 0 0 0 0 0 0 0 0 0 0 0 0 0 0 0 0 0 0 0 0 0 0 0 0 0 0 0 0 0 0 0 0 0 
0 0 0 0 0 0 0 0 0 0 0 0 0 0 0 0 0 0 0 0 0 0 0 0 0 0 0 0 0 0 0 0 0 0 0 0 0 0 0 
0 0 0 0 0 0 0 0 0 0 0 0 0 0 0 0 0 0 0 0 0 0 0 0 0 0 0 0 0 0 0 0 0 164 159 130 
116 109 64 114 107 63 61 57 34 50 47 28 65 61 36 105 99 58 0 0 0 0 0 0 0 0 0 
0 0 0 0 0 0 0 0 0 0 0 0 0 0 0 0 0 0 173 173 71 134 131 63 82 78 45 110 105 78 
122 116 73 90 85 50 87 82 48 87 82 48 86 81 48 59 56 33 0 0 0 0 0 0 0 0 0 
0 0 0 0 0 0 0 0 0 0 0 0 0 0 0 0 0 0 0 0 0 0 0 0 0 0 0 0 0 0 0 0 0 0 0 0 0 0 0 
0 0 0 0 0 0 0 0 0 0 0 0 0 0 0 0 0 0 0 0 0 0 0 0 0 0 0 0 0 0 0 0 0 0 0 0 0 0 0 
0 0 0 0 0 0 0 0 0 0 0 0 0 0 0 0 0 0 0 0 0 0 0 0 166 161 133 146 140 105 
116 109 64 74 70 40 49 47 27 50 47 28 88 82 48 116 109 64 0 0 0 0 0 0 0 0 0 
0 0 0 0 0 0 0 0 0 0 0 0 0 0 0 0 0 0 0 0 0 0 0 0 84 79 46 151 146 115 
140 134 97 101 95 56 87 82 48 87 82 48 87 82 48 82 77 45 0 0 0 0 0 0 0 0 0 
0 0 0 0 0 0 0 0 0 0 0 0 0 0 0 0 0 0 0 0 0 0 0 0 0 0 0 0 0 0 0 0 0 0 0 0 0 0 0 
0 0 0 0 0 0 0 0 0 0 0 0 0 0 0 0 0 0 0 0 0 0 0 0 0 0 0 0 0 0 0 0 0 0 0 0 0 0 0 
0 0 0 0 0 0 0 0 0 0 0 0 0 0 0 0 0 0 0 0 0 0 0 0 153 148 116 127 120 78 
99 93 54 57 54 31 50 47 27 81 75 44 116 109 64 116 109 64 0 0 0 0 0 0 0 0 0 
0 0 0 0 0 0 0 0 0 0 0 0 0 0 0 0 0 0 0 0 0 0 0 0 0 0 0 146 140 105 156 151 119 
135 129 90 90 85 50 87 82 48 87 82 48 84 79 46 78 73 43 0 0 0 0 0 0 0 0 0 
0 0 0 0 0 0 0 0 0 0 0 0 0 0 0 0 0 0 0 0 0 0 0 0 0 0 0 0 0 0 0 0 0 0 0 0 0 0 0 
0 0 0 0 0 0 0 0 0 0 0 0 0 0 0 0 0 0 0 0 0 0 0 0 0 0 0 0 0 0 0 0 0 0 0 0 0 0 0 
0 0 0 0 0 0 0 0 0 0 0 0 0 0 0 0 0 0 255 255 255 161 157 126 135 129 90 
95 89 52 57 53 31 72 67 40 87 82 48 116 109 64 0 0 0 0 0 0 0 0 0 0 0 0 0 0 0 
0 0 0 0 0 0 0 0 0 0 0 0 0 0 0 0 0 0 0 0 0 0 0 0 0 0 0 160 155 124 152 147 113 
116 110 67 88 82 48 87 82 48 86 81 47 87 82 48 0 0 0 0 0 0 0 0 0 0 0 0 0 0 0 
0 0 0 0 0 0 0 0 0 0 0 0 0 0 0 0 0 0 0 0 0 0 0 0 0 0 0 0 0 0 0 0 0 0 0 0 0 0 0 
0 0 0 0 0 0 0 0 0 0 0 0 0 0 0 0 0 0 0 0 0 0 0 0 0 0 0 0 0 0 0 0 0 0 0 0 0 0 0 
0 0 0 0 0 0 0 0 0 0 0 0 198 195 176 164 159 130 128 122 81 89 83 49 66 62 36 
81 77 45 110 103 61 116 109 64 0 0 0 0 0 0 0 0 0 0 0 0 0 0 0 0 0 0 0 0 0 0 0 0 
0 0 0 0 0 0 0 0 0 0 0 0 0 0 0 0 0 0 196 193 173 151 146 112 148 143 108 
110 103 61 89 83 49 87 82 48 86 81 48 84 79 46 0 0 0 0 0 0 0 0 0 0 0 0 0 0 0 
0 0 0 0 0 0 0 0 0 0 0 0 0 0 0 0 0 0 0 0 0 0 0 0 0 0 0 0 0 0 0 0 0 0 0 0 0 0 0 
0 0 0 0 0 0 0 0 0 0 0 0 0 0 0 0 0 0 0 0 0 0 0 0 0 0 0 0 0 0 0 0 0 0 0 0 0 0 0 
0 0 0 0 0 0 0 0 0 162 157 127 148 143 108 116 109 66 71 66 39 66 62 36 
87 82 48 116 109 64 0 0 0 0 0 0 0 0 0 0 0 0 0 0 0 0 0 0 0 0 0 0 0 0 0 0 0 
0 0 0 0 0 0 0 0 0 0 0 0 0 0 0 0 0 0 0 0 0 154 149 117 153 148 115 121 114 71 
115 108 63 93 88 52 87 81 48 87 82 48 70 66 39 0 0 0 0 0 0 0 0 0 0 0 0 0 0 0 
0 0 0 0 0 0 0 0 0 0 0 0 0 0 0 0 0 0 0 0 0 0 0 0 0 0 0 0 0 0 0 0 0 0 0 0 0 0 0 
0 0 0 0 0 0 0 0 0 0 0 0 0 0 0 0 0 0 0 0 0 0 0 0 0 0 0 0 0 0 0 0 0 0 0 0 0 0 0 
0 0 0 0 0 0 124 118 75 154 149 116 97 91 53 66 62 36 60 57 33 65 61 36 
82 77 45 0 0 0 0 0 0 0 0 0 0 0 0 0 0 0 0 0 0 0 0 0 0 0 0 0 0 0 0 0 0 0 0 0 
0 0 0 0 0 0 0 0 0 0 0 0 0 0 0 255 255 255 157 152 120 153 148 114 119 112 68 
116 109 64 106 100 59 88 82 48 66 62 36 65 61 36 45 42 25 0 0 0 0 0 0 0 0 0 
0 0 0 0 0 0 0 0 0 0 0 0 0 0 0 0 0 0 0 0 0 0 0 0 0 0 0 0 0 0 0 0 0 0 0 0 0 0 0 
0 0 0 0 0 0 0 0 0 0 0 0 0 0 0 0 0 0 0 0 0 0 0 0 0 0 0 0 0 0 0 0 0 0 0 0 0 0 0 
0 0 0 116 109 64 153 148 115 135 129 92 87 82 48 66 62 37 63 60 36 65 61 36 
0 0 0 0 0 0 0 0 0 0 0 0 0 0 0 0 0 0 0 0 0 0 0 0 0 0 0 0 0 0 0 0 0 0 0 0 0 0 0 
0 0 0 0 0 0 0 0 0 0 0 0 0 0 0 138 132 94 156 151 119 154 149 116 123 117 74 
116 109 64 113 106 62 77 72 43 65 62 36 65 61 36 89 84 50 0 0 0 0 0 0 0 0 0 
0 0 0 0 0 0 0 0 0 0 0 0 0 0 0 0 0 0 0 0 0 0 0 0 0 0 0 0 0 0 0 0 0 0 0 0 0 0 0 
0 0 0 0 0 0 0 0 0 0 0 0 0 0 0 0 0 0 0 0 0 0 0 0 0 0 0 0 0 0 0 0 0 0 0 0 0 0 0 
154 149 116 136 130 92 97 91 53 84 79 46 55 52 30 41 39 22 61 59 35 0 0 0 
0 0 0 0 0 0 0 0 0 0 0 0 0 0 0 0 0 0 0 0 0 0 0 0 0 0 0 0 0 0 0 0 0 0 0 0 0 0 0 
0 0 0 0 0 0 0 0 0 0 0 0 0 0 0 163 158 128 158 153 122 159 154 123 145 139 103 
120 113 69 116 109 64 85 80 47 81 75 44 92 86 51 0 0 0 0 0 0 0 0 0 0 0 0 0 0 0 
0 0 0 0 0 0 0 0 0 0 0 0 0 0 0 0 0 0 0 0 0 0 0 0 0 0 0 0 0 0 0 0 0 0 0 0 0 0 0 
0 0 0 0 0 0 0 0 0 0 0 0 0 0 0 0 0 0 0 0 0 0 0 0 0 0 0 0 0 0 210 208 193 
154 149 116 116 109 64 86 80 47 54 51 30 42 39 23 39 37 23 24 22 13 0 0 0 
0 0 0 0 0 0 0 0 0 0 0 0 0 0 0 0 0 0 0 0 0 0 0 0 0 0 0 0 0 0 0 0 0 0 0 0 0 0 0 
0 0 0 0 0 0 0 0 0 0 0 0 0 0 0 0 0 0 116 109 64 152 147 113 172 168 140 
116 109 64 116 109 64 116 109 64 116 109 64 0 0 0 0 0 0 0 0 0 0 0 0 0 0 0 
0 0 0 0 0 0 0 0 0 0 0 0 0 0 0 0 0 0 0 0 0 0 0 0 0 0 0 0 0 0 0 0 0 0 0 0 0 0 0 
0 0 0 0 0 0 0 0 0 0 0 0 0 0 0 0 0 0 0 0 0 0 0 0 0 0 0 0 0 0 107 103 78 
155 150 117 138 132 94 102 96 56 55 52 31 43 40 24 52 50 29 0 0 0 0 0 0 0 0 0 
0 0 0 0 0 0 0 0 0 0 0 0 0 0 0 0 0 0 0 0 0 0 0 0 0 0 0 0 0 0 0 0 0 0 0 0 0 0 0 
0 0 0 0 0 0 0 0 0 0 0 0 0 0 0 0 0 0 116 109 64 187 183 161 156 151 118 
116 109 64 116 109 64 116 109 64 116 109 64 0 0 0 0 0 0 0 0 0 0 0 0 0 0 0 
0 0 0 0 0 0 0 0 0 0 0 0 0 0 0 0 0 0 0 0 0 0 0 0 0 0 0 0 0 0 0 0 0 0 0 0 0 0 0 
0 0 0 0 0 0 0 0 0 0 0 0 0 0 0 0 0 0 0 0 0 0 0 0 0 0 0 74 70 41 146 141 112 
148 142 108 112 105 62 63 59 35 46 43 25 48 45 26 79 74 44 0 0 0 0 0 0 0 0 0 
0 0 0 0 0 0 0 0 0 0 0 0 0 0 0 0 0 0 0 0 0 0 0 0 0 0 0 0 0 0 0 0 0 0 0 0 0 0 0 
0 0 0 0 0 0 0 0 0 0 0 0 0 0 0 0 0 0 255 255 255 247 247 244 149 143 109 
116 109 64 116 109 64 116 109 64 116 109 64 0 0 0 0 0 0 0 0 0 0 0 0 0 0 0 
0 0 0 0 0 0 0 0 0 0 0 0 0 0 0 0 0 0 0 0 0 0 0 0 0 0 0 0 0 0 0 0 0 0 0 0 0 0 0 
0 0 0 0 0 0 0 0 0 0 0 0 0 0 0 0 0 0 0 0 0 0 0 0 0 0 0 96 90 53 121 114 70 
116 109 64 87 82 48 56 53 32 54 50 29 87 83 48 0 0 0 0 0 0 0 0 0 0 0 0 0 0 0 
0 0 0 0 0 0 0 0 0 0 0 0 0 0 0 0 0 0 0 0 0 0 0 0 0 0 0 0 0 0 0 0 0 0 0 0 0 0 0 
0 0 0 0 0 0 0 0 0 0 0 0 0 0 0 255 255 255 145 140 104 148 143 108 116 109 64 
116 109 64 116 109 64 0 0 0 0 0 0 0 0 0 0 0 0 0 0 0 0 0 0 0 0 0 0 0 0 0 0 0 
0 0 0 0 0 0 0 0 0 0 0 0 0 0 0 0 0 0 0 0 0 0 0 0 0 0 0 0 0 0 0 0 0 0 0 0 0 0 0 
0 0 0 0 0 0 0 0 0 0 0 0 0 0 0 0 0 0 116 109 64 116 109 64 116 109 64 
87 82 48 84 79 47 104 99 58 116 109 64 0 0 0 0 0 0 0 0 0 0 0 0 0 0 0 0 0 0 
0 0 0 0 0 0 0 0 0 0 0 0 0 0 0 0 0 0 0 0 0 0 0 0 0 0 0 0 0 0 0 0 0 0 0 0 0 0 0 
0 0 0 0 0 0 0 0 0 255 255 255 255 255 255 149 143 109 126 119 77 116 109 64 
116 109 64 0 0 0 0 0 0 0 0 0 0 0 0 0 0 0 0 0 0 0 0 0 0 0 0 0 0 0 0 0 0 0 0 0 
0 0 0 0 0 0 0 0 0 0 0 0 0 0 0 0 0 0 0 0 0 0 0 0 0 0 0 0 0 0 0 0 0 0 0 0 0 0 0 
0 0 0 0 0 0 0 0 0 0 0 0 0 0 0 116 109 64 116 109 64 116 109 64 116 109 64 
116 109 64 116 109 64 0 0 0 0 0 0 0 0 0 0 0 0 0 0 0 0 0 0 0 0 0 0 0 0 0 0 0 
0 0 0 0 0 0 0 0 0 0 0 0 0 0 0 0 0 0 0 0 0 0 0 0 0 0 0 0 0 0 0 0 0 0 0 0 0 0 0 
0 0 0 255 255 255 147 141 106 144 138 102 116 109 64 116 109 64 116 109 64 
0 0 0 0 0 0 0 0 0 0 0 0 0 0 0 0 0 0 0 0 0 0 0 0 0 0 0 0 0 0 0 0 0 0 0 0 0 0 0 
0 0 0 0 0 0 0 0 0 0 0 0 0 0 0 0 0 0 0 0 0 0 0 0 0 0 0 0 0 0 0 0 0 0 0 0 0 0 0 
0 0 0 116 109 64 116 109 64 116 109 64 116 109 64 116 109 64 0 0 0 0 0 0 0 0 0 
0 0 0 0 0 0 0 0 0 0 0 0 0 0 0 0 0 0 0 0 0 0 0 0 0 0 0 0 0 0 0 0 0 0 0 0 0 0 0 
0 0 0 0 0 0 0 0 0 0 0 0 0 0 0 0 0 0 0 0 0 0 0 0 0 0 0 0 0 0 166 161 132 
149 143 109 116 109 64 116 109 64 0 0 0 116 109 64 0 0 0 0 0 0 0 0 0 0 0 0 
0 0 0 0 0 0 0 0 0 0 0 0 0 0 0 0 0 0 0 0 0 0 0 0 0 0 0 0 0 0 0 0 0 0 0 0 0 0 0 
0 0 0 0 0 0 0 0 0 0 0 0 0 0 0 0 0 0 0 0 0 0 0 0 0 0 0 0 0 0 0 0 0 0 0 0 0 0 0 
116 109 64 0 0 0 0 0 0 0 0 0 0 0 0 0 0 0 0 0 0 0 0 0 0 0 0 0 0 0 0 0 0 0 0 0 
0 0 0 0 0 0 0 0 0 0 0 0 0 0 0 0 0 0 0 0 0 0 0 0 0 0 0 0 0 0 0 0 0 0 0 0 0 0 0 
0 0 0 0 0 0 0 0 0 234 233 227 0 0 0 0 0 0 116 109 64 116 109 64 0 0 0 0 0 0 
0 0 0 0 0 0 0 0 0 0 0 0 0 0 0 0 0 0 0 0 0 0 0 0 0 0 0 0 0 0 0 0 0 0 0 0 0 0 0 
0 0 0 0 0 0 0 0 0 0 0 0 0 0 0 0 0 0 0 0 0 0 0 0 0 0 0 0 0 0 0 0 0 0 0 0 0 0 0 
0 0 0 0 0 0 0 0 0 0 0 0 0 0 0 0 0 0 0 0 0 0 0 0 0 0 0 0 0 0 0 0 0 0 0 0 0 0 0 
0 0 0 0 0 0 0 0 0 0 0 0 0 0 0 0 0 0 0 0 0 0 0 0 0 0 0 0 0 0 0 0 0 0 0 0 0 0 0 
0 0 0 0 0 0 0 0 0 0 0 0 0 0 0 0 0 0 0 0 0 0 0 0 0 0 0 0 0 0 0 0 0 0 0 0 0 0 0 
0 0 0 0 0 0 0 0 0 0 0 0 0 0 0 0 0 0 0 0 0 0 0 0 0 0 0 0 0 0 0 0 0 0 0 0 0 0 0 
0 0 0 0 0 0 0 0 0 0 0 0 0 0 0 0 0 0 0 0 0 0 0 0 0 0 0 0 0 0 0 0 0 0 0 0 0 0 0 
0 0 0 0 0 0 0 0 0 0 0 0 0 0 0 0 0 0 0 0 0 0 0 0 0 0 0 0 0 0 0 0 0 0 0 0 0 0 0 
0 0 0 0 0 0 0 0 0 0 0 0 0 0 0 0 0 0 0 0 0 0 0 0 0 0 0 0 0 0 0 0 0 0 0 0 0 0 0 
0 0 0 0 0 0 0 0 0 0 0 0 0 0 0 0 0 0 0 0 0 0 0 0 0 0 0 0 0 0 0 0 0 0 0 0 0 0 0 
0 0 0 0 0 0 0 0 0 0 0 0 0 0 0 0 0 0 0 0 0 0 0 0 0 0 0 0 0 0 0 0 0 0 0 0 0 0 0 
0 0 0 0 0 0 0 0 0 0 0 0 0 0 0 0 0 0 0 0 0 0 0 0 0 0 0 
